<?xml version="1.0" standalone="no"?>
<!DOCTYPE svg PUBLIC "-//W3C//DTD SVG 20010904//EN"
 "http://www.w3.org/TR/2001/REC-SVG-20010904/DTD/svg10.dtd">
<svg version="1.0" xmlns="http://www.w3.org/2000/svg"
 width="280.000000pt" height="280.000000pt" viewBox="0 0 280.000000 280.000000"
 preserveAspectRatio="xMidYMid meet">
<metadata>
Created by potrace 1.11, written by Peter Selinger 2001-2013
</metadata>
<g transform="translate(0.000000,280.000000) scale(0.100000,-0.100000)"
fill="#000000" stroke="none">
<path d="M0 1400 l0 -1400 645 0 c423 0 645 3 645 10 0 6 -6 10 -12 10 -25 1
26 30 52 30 36 0 90 19 90 32 0 6 -7 7 -17 3 -10 -4 -31 -10 -48 -13 -27 -4
-29 -3 -16 12 7 9 11 16 8 16 -3 0 10 17 28 38 19 20 35 41 35 45 0 4 17 30
37 57 49 64 99 143 95 153 -1 4 2 7 7 7 8 0 71 95 71 108 0 3 9 15 19 26 21
24 50 70 82 133 12 24 25 43 30 43 5 0 8 3 7 8 -2 12 14 62 21 62 3 0 17 21
30 47 14 27 30 55 37 63 6 8 17 39 25 67 7 29 15 51 17 48 8 -7 52 90 47 103
-3 7 -1 11 3 9 4 -3 16 -1 27 4 17 6 18 8 2 8 -14 1 -16 7 -11 29 4 15 10 32
15 37 8 10 27 86 33 130 2 11 6 31 10 45 6 21 12 58 15 92 1 3 9 9 19 11 16 4
15 5 -1 6 -15 1 -18 8 -16 34 2 18 0 38 -4 44 -4 6 -2 15 4 18 5 4 8 14 5 22
-3 8 -1 11 4 8 6 -4 10 6 10 22 0 16 -4 23 -8 16 -4 -6 -7 19 -8 55 -1 109
-79 284 -176 400 -112 133 -263 221 -440 257 -98 19 -147 19 -243 -1 -84 -17
-112 -13 -44 7 26 8 96 13 169 13 137 0 193 -12 315 -67 70 -32 80 -38 141
-91 19 -15 34 -26 34 -23 0 3 20 -15 44 -40 37 -40 43 -43 42 -24 -1 23 -80
101 -102 101 -7 0 -15 8 -18 18 -4 10 -25 29 -49 43 -41 23 -46 25 -76 28 -7
0 -11 7 -8 14 3 8 0 14 -6 14 -7 0 -28 7 -47 15 -43 20 -88 32 -117 32 -13 0
-23 4 -23 9 0 6 -9 2 -20 -8 -11 -10 -23 -15 -27 -12 -3 4 -1 7 6 7 7 0 9 5 6
10 -3 6 -22 10 -41 10 -19 0 -34 5 -34 10 0 6 -5 10 -11 10 -5 0 -8 -3 -6 -7
3 -5 -5 -8 -16 -9 -54 -1 -194 -29 -209 -41 -7 -6 -26 -13 -43 -17 -16 -4 -39
-15 -49 -24 -13 -12 -17 -12 -11 -3 18 31 -97 -48 -162 -110 -83 -81 -110
-114 -129 -158 -17 -38 -12 -50 12 -30 14 11 13 7 -3 -26 -27 -52 -37 -118
-24 -143 10 -18 70 -62 85 -62 3 0 6 8 6 18 0 9 4 24 10 32 7 12 12 12 29 -4
12 -11 21 -30 21 -44 0 -23 2 -24 38 -17 69 12 158 92 183 165 18 49 3 100
-32 113 -16 6 -29 14 -29 17 0 7 106 44 154 55 52 11 179 6 239 -10 184 -48
337 -186 408 -368 30 -77 32 -90 33 -207 0 -74 -5 -145 -13 -174 -15 -54 -74
-162 -104 -188 -10 -9 -16 -22 -12 -27 3 -6 -2 -11 -13 -11 -20 0 -62 -39 -62
-59 0 -7 -4 -10 -8 -7 -5 3 -18 -2 -29 -12 -10 -9 -32 -24 -49 -33 -16 -8 -38
-20 -49 -26 -11 -6 -39 -17 -62 -24 -25 -7 -43 -18 -43 -27 0 -11 -3 -12 -13
-3 -8 6 -17 8 -21 4 -12 -12 -254 -19 -296 -9 -14 3 -42 7 -63 8 -24 1 -33 4
-25 10 13 8 10 9 -32 14 -41 4 -54 8 -91 32 -20 12 -39 22 -42 22 -3 0 -26 14
-50 30 -25 17 -49 30 -54 30 -5 0 -25 18 -44 40 -19 22 -37 40 -41 40 -9 0
-51 40 -42 40 3 0 -7 16 -21 35 -15 19 -24 39 -21 44 4 5 2 12 -4 16 -5 3 -10
1 -10 -6 0 -7 -3 -9 -6 -6 -4 4 -1 14 6 22 11 14 10 17 -9 22 -16 4 -20 11
-16 24 5 15 3 17 -11 12 -12 -4 -15 -3 -10 5 4 7 2 12 -4 12 -6 0 -8 5 -3 13
9 15 4 50 -9 58 -5 3 -10 18 -12 33 -2 16 -8 31 -14 35 -7 4 -11 34 -11 71 0
94 -4 132 -17 155 -11 18 -11 44 -1 183 1 12 5 22 8 22 7 0 36 66 44 103 4 15
12 27 17 27 5 0 8 5 6 12 -2 6 4 20 14 30 10 10 16 23 13 27 -2 5 3 12 12 15
15 6 15 8 3 16 -13 8 -13 10 1 10 9 0 24 16 33 35 9 19 21 35 26 35 6 0 9 6 8
13 -2 6 3 11 10 9 6 -1 12 1 12 6 0 12 115 132 127 132 6 0 13 4 15 9 4 12
130 87 192 116 133 61 327 86 491 63 210 -28 423 -131 569 -273 164 -160 285
-385 326 -605 7 -36 16 -77 20 -91 12 -39 5 -337 -9 -394 -7 -27 -14 -61 -16
-75 -2 -14 -12 -50 -22 -80 -11 -31 -19 -63 -17 -72 1 -10 -4 -22 -12 -29 -8
-6 -14 -17 -14 -24 0 -6 -7 -26 -16 -43 -8 -18 -16 -45 -16 -62 -1 -16 -5 -27
-10 -24 -5 3 -8 0 -7 -7 4 -23 -12 -49 -30 -49 -11 0 -17 -9 -19 -30 -1 -17
-10 -39 -20 -50 -9 -12 -17 -24 -18 -28 -2 -33 -19 -74 -32 -82 -10 -5 -12
-10 -4 -10 6 0 12 -4 12 -10 0 -5 -6 -7 -13 -5 -8 4 -23 -19 -42 -62 -16 -38
-34 -71 -41 -75 -7 -5 -22 -28 -33 -52 -12 -24 -33 -56 -46 -70 -13 -14 -20
-28 -15 -31 5 -3 7 -11 4 -18 -3 -10 5 -12 31 -9 19 2 35 8 35 13 0 5 9 9 20
9 11 0 20 -4 20 -10 0 -5 -7 -10 -15 -10 -8 0 -15 -4 -15 -10 0 -5 -7 -7 -15
-4 -8 4 -23 3 -32 -2 -10 -4 -22 -8 -26 -8 -4 -1 -12 -8 -17 -16 -7 -11 -10
-11 -10 -2 0 8 -5 10 -12 5 -7 -4 -17 -8 -23 -8 -5 0 -9 -8 -9 -18 2 -14 -1
-15 -12 -6 -8 6 -14 8 -14 3 0 -4 -6 0 -13 10 -12 16 -14 16 -26 2 -9 -11 -10
-16 -2 -16 6 0 11 -10 10 -22 0 -22 -1 -22 -9 -3 -5 11 -9 15 -9 8 -1 -6 -9
-12 -18 -12 -10 1 -38 -6 -63 -14 -32 -10 -46 -21 -50 -37 -3 -13 -12 -26 -20
-28 -12 -4 -13 -2 -2 9 20 22 15 42 -7 29 -13 -7 -22 -7 -26 0 -3 5 -14 10
-23 9 -14 0 -14 -2 2 -8 18 -7 18 -8 -5 -14 -13 -4 -33 -6 -44 -6 l-20 0 20 9
c14 6 15 9 5 9 -9 1 -25 -6 -36 -14 -12 -8 -23 -12 -26 -10 -3 3 -5 -2 -5 -10
0 -8 10 -15 24 -15 13 0 34 0 48 0 l26 0 -26 -33 c-13 -19 -22 -37 -19 -40 4
-3 225 -6 492 -7 450 0 486 1 498 18 12 16 13 16 14 0 0 -15 16 -17 155 -17
l155 0 0 295 c0 233 -3 294 -12 288 -10 -6 -10 -4 0 7 9 10 12 246 12 1111 l0
1098 -1400 0 -1400 0 0 -1400z m1060 923 c-8 -3 -30 -12 -47 -19 -18 -7 -33
-11 -33 -9 0 9 56 34 75 34 14 0 16 -2 5 -6z m-136 -65 c-52 -34 -155 -132
-193 -183 l-22 -30 18 33 c33 62 197 210 232 212 8 0 -8 -15 -35 -32z m30
-213 c14 -11 23 -12 33 -4 10 9 13 8 13 -5 0 -19 -50 -22 -68 -4 -27 27 -9 37
22 13z m31 -95 c3 -5 -1 -10 -9 -10 -9 0 -16 5 -16 10 0 6 4 10 9 10 6 0 13
-4 16 -10z m-121 -35 c-4 -8 -10 -15 -15 -15 -4 0 -6 7 -3 15 4 8 10 15 15 15
4 0 6 -7 3 -15z m46 -11 c0 -8 -4 -12 -10 -9 -5 3 -10 13 -10 21 0 8 5 12 10
9 6 -3 10 -13 10 -21z m40 11 c0 -8 -2 -15 -4 -15 -2 0 -6 7 -10 15 -3 8 -1
15 4 15 6 0 10 -7 10 -15z m845 -1085 c-3 -5 -11 -10 -16 -10 -6 0 -7 5 -4 10
3 6 11 10 16 10 6 0 7 -4 4 -10z m605 -151 c0 -18 -4 -28 -10 -24 -5 3 -10 20
-10 36 0 18 4 28 10 24 6 -3 10 -20 10 -36z m60 -1 c0 -32 -3 -39 -10 -28 -13
20 -13 70 0 70 6 0 10 -19 10 -42z m60 8 c0 -3 -4 -8 -10 -11 -5 -3 -10 -1
-10 4 0 6 5 11 10 11 6 0 10 -2 10 -4z m110 -46 c-6 -12 -14 -20 -17 -17 -2 3
1 14 8 26 17 26 24 19 9 -9z m75 0 c-3 -5 -13 -10 -21 -10 -8 0 -14 -10 -14
-22 0 -18 -2 -20 -10 -8 -6 10 -4 20 7 32 17 19 49 25 38 8z m50 -14 c-11 -8
-24 -12 -29 -8 -5 3 -1 9 10 13 31 12 39 10 19 -5z m-346 -20 c9 -11 6 -12
-14 -8 -14 2 -22 8 -19 13 8 13 20 11 33 -5z m69 -17 c2 -9 -6 -14 -22 -14
-20 0 -22 3 -14 18 10 20 32 18 36 -4z m-248 -9 c0 -5 -5 -10 -11 -10 -5 0 -7
5 -4 10 3 6 8 10 11 10 2 0 4 -4 4 -10z m65 -12 c-3 -8 -20 -22 -38 -32 l-32
-19 34 36 c35 37 46 42 36 15z m55 0 c0 -14 -61 -61 -68 -53 -5 5 50 64 61 65
4 0 7 -6 7 -12z m184 -3 c4 -11 -1 -15 -19 -15 -18 0 -23 4 -19 15 4 8 12 15
19 15 7 0 15 -7 19 -15z m56 -33 c-15 -5 -41 18 -34 30 3 5 15 1 26 -9 11 -10
15 -19 8 -21z m-180 21 c0 -15 -34 -43 -53 -43 -19 0 -19 1 4 24 23 23 49 33
49 19z m70 -12 c0 -12 -75 -81 -89 -81 -13 0 -13 2 1 13 8 6 24 26 36 43 18
26 52 43 52 25z m155 -11 c3 -5 -1 -10 -9 -10 -9 0 -16 5 -16 10 0 6 4 10 9
10 6 0 13 -4 16 -10z m-126 -42 c-30 -37 -49 -48 -49 -28 0 6 7 13 15 16 8 4
15 14 15 24 0 10 6 20 13 23 32 10 34 1 6 -35z m171 22 c0 -5 -4 -10 -10 -10
-5 0 -10 5 -10 10 0 6 5 10 10 10 6 0 10 -4 10 -10z m-123 -57 c-21 -19 -40
-33 -44 -29 -4 3 0 12 8 19 9 6 23 25 33 41 13 21 21 25 29 17 8 -8 1 -21 -26
-48z m58 0 c-11 -7 -26 -13 -34 -12 -11 0 -8 4 7 11 12 6 22 15 22 20 0 5 5 6
12 2 7 -5 5 -11 -7 -21z m-235 -45 c0 -5 -4 -8 -10 -8 -5 0 -10 10 -10 23 0
18 2 19 10 7 5 -8 10 -18 10 -22z m50 6 c0 -8 -4 -12 -10 -9 -5 3 -10 13 -10
21 0 8 5 12 10 9 6 -3 10 -13 10 -21z m-175 6 c3 -5 1 -10 -4 -10 -6 0 -11 5
-11 10 0 6 2 10 4 10 3 0 8 -4 11 -10z m442 -12 c-3 -8 -6 -5 -6 6 -1 11 2 17
5 13 3 -3 4 -12 1 -19z m-147 -3 c0 -8 -4 -15 -10 -15 -5 0 -10 7 -10 15 0 8
5 15 10 15 6 0 10 -7 10 -15z m-410 -15 c0 -5 -4 -10 -10 -10 -5 0 -10 5 -10
10 0 6 5 10 10 10 6 0 10 -4 10 -10z m185 -50 c3 -5 1 -10 -4 -10 -6 0 -11 5
-11 10 0 6 2 10 4 10 3 0 8 -4 11 -10z m439 -31 c-3 -5 -10 -9 -15 -9 -6 0 -7
5 -4 10 3 6 1 10 -4 10 -6 0 -11 7 -11 17 0 14 2 14 20 -2 11 -10 17 -22 14
-26z m-771 10 c4 -16 3 -18 -9 -8 -16 13 -19 29 -5 29 5 0 11 -9 14 -21z m222
11 c-3 -5 -12 -10 -18 -10 -7 0 -6 4 3 10 19 12 23 12 15 0z m422 -32 c-3 -8
-6 -5 -6 6 -1 11 2 17 5 13 3 -3 4 -12 1 -19z m63 2 c0 -5 -5 -10 -11 -10 -5
0 -7 5 -4 10 3 6 8 10 11 10 2 0 4 -4 4 -10z m-671 -17 c-1 -10 2 -29 5 -43
l7 -25 -12 25 c-15 36 -19 60 -9 60 5 0 9 -8 9 -17z m-52 -85 c-3 -8 -6 -5 -6
6 -1 11 2 17 5 13 3 -3 4 -12 1 -19z m-261 -64 c-4 -9 -9 -15 -11 -12 -3 3 -3
13 1 22 4 9 9 15 11 12 3 -3 3 -13 -1 -22z m34 6 c0 -5 -2 -10 -4 -10 -3 0 -8
5 -11 10 -3 6 -1 10 4 10 6 0 11 -4 11 -10z m-180 -44 c0 -2 -8 -10 -17 -17
-16 -13 -17 -12 -4 4 13 16 21 21 21 13z m768 -55 c-22 -27 -38 -31 -38 -10 0
5 6 8 13 7 6 -2 11 4 10 12 -2 10 5 16 17 17 20 2 20 1 -2 -26z m-119 -11 c11
-24 11 -24 -3 -6 -9 11 -16 24 -16 30 0 12 5 7 19 -24z m-284 10 c3 -5 1 -10
-4 -10 -6 0 -11 5 -11 10 0 6 2 10 4 10 3 0 8 -4 11 -10z m59 -5 c3 -8 1 -15
-4 -15 -6 0 -10 7 -10 15 0 8 2 15 4 15 2 0 6 -7 10 -15z m769 0 c-3 -9 -8
-14 -10 -11 -3 3 -2 9 2 15 9 16 15 13 8 -4z m-998 -5 c3 -5 1 -10 -4 -10 -6
0 -11 5 -11 10 0 6 2 10 4 10 3 0 8 -4 11 -10z m55 -11 c0 -6 -4 -7 -10 -4 -5
3 -10 11 -10 16 0 6 5 7 10 4 6 -3 10 -11 10 -16z m57 -1 c-3 -8 -6 -5 -6 6
-1 11 2 17 5 13 3 -3 4 -12 1 -19z m547 7 c-4 -8 -8 -15 -10 -15 -2 0 -4 7 -4
15 0 8 4 15 10 15 5 0 7 -7 4 -15z"/>
<path d="M1903 2093 c-9 -3 -8 -11 3 -29 15 -21 34 -25 34 -5 0 15 -25 39 -37
34z"/>
<path d="M1930 2026 c0 -2 7 -9 15 -16 13 -11 14 -10 9 4 -5 14 -24 23 -24 12z"/>
<path d="M1149 1997 c-56 -9 -57 -9 -63 -47 -5 -29 -19 -52 -57 -89 -28 -28
-60 -53 -70 -56 -10 -4 -19 -10 -19 -15 0 -17 -111 -50 -166 -50 -42 0 -69 7
-114 31 -33 17 -60 35 -60 40 0 5 -7 9 -15 9 -9 0 -15 9 -15 25 0 14 -4 25
-10 25 -5 0 -10 -7 -10 -15 0 -8 -4 -15 -10 -15 -5 0 -9 -16 -8 -36 1 -21 -5
-42 -13 -48 -17 -13 -17 -40 1 -81 13 -30 13 -30 28 43 15 76 38 103 25 30
-11 -62 -9 -211 4 -215 5 -2 8 -16 5 -31 -4 -26 -4 -26 11 -8 14 19 15 19 26
-2 6 -12 10 -25 9 -29 -3 -13 38 -74 45 -66 4 3 7 0 7 -7 0 -7 17 -34 37 -59
69 -86 104 -122 113 -116 5 3 10 -2 14 -10 3 -8 12 -15 21 -15 8 0 15 -4 15
-8 0 -13 110 -68 173 -86 32 -9 77 -17 100 -17 46 -1 142 31 199 67 26 17 38
20 41 11 3 -7 6 0 6 14 1 38 -26 109 -52 137 -65 69 -199 101 -282 66 -20 -8
-40 -13 -43 -10 -12 12 42 54 84 66 53 15 135 2 197 -31 l40 -20 36 41 c34 39
38 41 64 29 34 -15 34 -24 -3 -82 l-29 -47 24 -35 c13 -20 25 -41 28 -48 2 -7
19 4 43 26 21 20 42 37 47 37 4 0 7 5 7 10 0 6 11 23 24 37 24 25 30 44 59
168 15 62 12 147 -4 153 -5 2 -7 8 -4 13 16 25 -99 179 -133 179 -24 0 -72
-40 -99 -83 -20 -32 -26 -54 -26 -101 -1 -34 3 -72 7 -86 l9 -25 -26 24 c-15
14 -25 26 -22 29 2 3 -2 14 -10 26 -8 11 -15 34 -15 52 0 53 38 146 76 185
l36 36 -29 29 c-15 16 -31 28 -35 26 -5 -1 -8 3 -8 8 0 6 -11 8 -25 4 -16 -4
-25 -2 -25 6 0 8 -11 11 -29 8 -17 -2 -28 -1 -25 4 3 4 -2 8 -10 8 -9 0 -16
-5 -16 -11 0 -7 -4 -8 -12 -2 -8 5 -35 6 -69 0z m64 -75 c-6 -24 -23 -30 -23
-9 0 13 21 39 26 34 2 -2 1 -13 -3 -25z m57 -14 c0 -4 20 -16 45 -27 34 -15
43 -24 39 -36 -5 -12 -10 -13 -17 -6 -19 19 -27 12 -27 -20 0 -43 -33 -94 -73
-112 -66 -31 -217 10 -217 59 0 10 13 13 46 11 50 -2 75 19 35 30 -25 6 -27
18 -6 27 22 8 45 -4 45 -24 0 -10 -7 -23 -15 -30 -21 -18 -19 -38 6 -45 26 -8
39 8 39 48 0 18 4 26 11 21 11 -6 9 -32 -6 -66 -9 -22 13 -24 41 -4 18 14 18
15 1 45 -15 25 -15 31 -4 31 9 0 17 -14 21 -35 9 -46 23 -44 46 8 24 51 25 73
5 81 -8 3 -15 12 -15 20 0 24 -20 29 -35 10 -8 -11 -15 -14 -15 -7 0 6 4 14
10 18 5 3 6 13 3 21 -5 14 -3 14 16 3 11 -8 21 -17 21 -21z m-107 -12 c4 -10
1 -13 -9 -9 -15 6 -19 23 -5 23 5 0 11 -7 14 -14z m97 -71 c21 -25 2 -31 -20
-7 -15 16 -17 22 -7 22 8 0 20 -7 27 -15z m218 -70 c-8 -9 -48 27 -42 36 4 6
14 2 26 -11 11 -12 18 -23 16 -25z m33 19 c14 -38 3 -41 -16 -5 -9 18 -11 31
-5 31 6 0 15 -12 21 -26z m43 -23 c3 -5 -1 -14 -9 -21 -11 -9 -14 -8 -12 9 1
22 12 28 21 12z m26 -40 c0 -5 -7 -14 -15 -21 -12 -10 -15 -10 -15 2 0 8 3 18
7 21 9 10 23 9 23 -2z m-778 -48 c16 -19 74 -163 70 -175 -3 -13 63 -9 76 4 7
7 12 8 12 2 0 -18 -38 -46 -51 -38 -7 4 -10 3 -5 -4 3 -6 -3 -16 -14 -22 -11
-6 -18 -15 -15 -21 4 -5 2 -9 -4 -9 -5 0 -11 6 -14 13 -3 6 -4 2 -4 -10 1 -12
4 -21 7 -21 33 3 60 -4 54 -14 -4 -7 -3 -8 4 -4 6 4 21 1 34 -6 13 -7 25 -14
26 -15 2 -1 1 -15 -3 -32 -7 -31 -36 -43 -50 -21 -4 6 -10 8 -14 5 -16 -9
-117 102 -150 166 -38 73 -53 179 -26 179 8 0 15 5 15 11 0 5 4 7 10 4 6 -3 7
1 4 9 -8 22 19 21 38 -1z m178 -14 c0 -6 -4 -7 -10 -4 -5 3 -10 11 -10 16 0 6
5 7 10 4 6 -3 10 -11 10 -16z m600 11 c0 -5 -4 -10 -10 -10 -5 0 -10 5 -10 10
0 6 5 10 10 10 6 0 10 -4 10 -10z m-630 -21 c0 -6 -4 -7 -10 -4 -5 3 -10 11
-10 16 0 6 5 7 10 4 6 -3 10 -11 10 -16z m494 5 c19 -7 21 -35 4 -52 -17 -17
-33 -15 -19 2 9 11 10 20 1 35 -12 23 -10 24 14 15z m-335 -17 c19 5 21 1 21
-31 0 -61 -28 -92 -95 -103 -16 -2 -34 -9 -39 -14 -13 -11 -26 -12 -26 0 0 5
9 11 20 14 23 6 28 55 8 75 -6 6 -9 15 -5 18 4 4 14 -10 22 -30 9 -21 21 -36
28 -33 20 6 21 40 1 54 -10 7 -15 15 -12 18 3 3 13 -1 21 -10 21 -21 37 -19
37 5 0 11 -4 20 -8 20 -5 0 -17 7 -28 15 -18 14 -17 15 7 6 15 -5 36 -7 48 -4z
m121 -52 c32 -16 63 -68 75 -123 7 -32 6 -33 -14 -22 -12 6 -27 23 -32 38 -17
46 -53 92 -71 92 -18 0 -23 11 -11 23 10 10 21 9 53 -8z m270 5 c0 -5 -2 -10
-4 -10 -3 0 -8 5 -11 10 -3 6 -1 10 4 10 6 0 11 -4 11 -10z m-300 -60 c0 -5
-4 -10 -10 -10 -5 0 -10 5 -10 10 0 6 5 10 10 10 6 0 10 -4 10 -10z m-110
-220 c8 -14 8 -26 0 -40 -17 -32 -28 -23 -26 20 1 44 10 51 26 20z m175 -40
c-3 -5 -11 -10 -16 -10 -6 0 -7 5 -4 10 3 6 11 10 16 10 6 0 7 -4 4 -10z m0
-40 c3 -6 -4 -10 -17 -10 -18 0 -20 2 -8 10 19 12 18 12 25 0z m-40 -40 c3 -6
-1 -7 -9 -4 -18 7 -21 14 -7 14 6 0 13 -4 16 -10z"/>
<path d="M410 1791 c0 -6 5 -13 10 -16 6 -3 10 1 10 9 0 9 -4 16 -10 16 -5 0
-10 -4 -10 -9z"/>
<path d="M518 1633 c-10 -2 -18 -14 -18 -26 0 -18 -2 -19 -10 -7 -8 13 -10 12
-10 -2 0 -22 18 -24 26 -3 4 8 12 15 19 15 7 0 15 7 19 15 6 15 4 16 -26 8z"/>
<path d="M1838 275 c-10 -13 -18 -27 -18 -32 0 -4 5 0 11 11 8 13 13 15 19 6
4 -6 15 -10 25 -8 16 3 16 4 -1 25 l-19 22 -17 -24z"/>
<path d="M1685 210 c11 -5 27 -9 35 -9 9 0 8 4 -5 9 -11 5 -27 9 -35 9 -9 0
-8 -4 5 -9z"/>
<path d="M1633 193 c2 -13 -6 -19 -25 -21 -16 -2 -28 -8 -28 -14 0 -10 27 -6
75 12 24 9 35 30 16 30 -5 0 -16 3 -24 6 -10 4 -15 -1 -14 -13z"/>
<path d="M1470 55 c-11 -13 -10 -14 4 -9 9 3 16 10 16 15 0 13 -6 11 -20 -6z"/>
</g>
</svg>
