<svg id="Layer_1" data-name="Layer 1" xmlns="http://www.w3.org/2000/svg" viewBox="0 0 200 343.9"><defs><style>.cls-1{fill:#599dc1;}.cls-2{fill:#f3c49d;}.cls-3{fill:#e5b596;}.cls-4{fill:#2b2b2b;}.cls-5{fill:#282828;}.cls-6{fill:#e8e8e8;}.cls-7{fill:#f2e5ce;stroke:#282828;stroke-width:6px;}.cls-10,.cls-7{stroke-miterlimit:10;}.cls-8{fill:#eaeaea;}.cls-11,.cls-9{fill:#fff;}.cls-9{opacity:0.4;isolation:isolate;}.cls-10{fill:none;stroke:#2b2b2b;stroke-width:4px;}</style></defs><title>Artboard 1</title><g id="Layer_2" data-name="Layer 2"><g id="Layer_7" data-name="Layer 7"><path class="cls-1" d="M197.4,303C197.4,357.5,0,357.5,0,303a98.7,98.7,0,1,1,197.4-1.8Z"/><path class="cls-2" d="M77.4,212.8c-.8-.2-1.7-.4-2.6-.6h0a15.48,15.48,0,0,1,.1-2.2,25.75,25.75,0,0,1,51.3.2,14.08,14.08,0,0,1,.1,2c-.4.1-.8.2-1.3.3s-.8.2-1.3.3-.8.2-1.3.3a27.41,27.41,0,0,1-2.8.5c-.3.1-.7.1-1,.2l-1.3.2c-.3,0-.6.1-.9.1-1.1.1-2.3.3-3.4.4l-1.5.1a23.48,23.48,0,0,1-2.6.1H95.7c-1.8,0-3.7-.1-5.5-.2l-3.5-.3h-.3l-1.5-.2a6.75,6.75,0,0,1-1.4-.2c-.3,0-.7-.1-1-.1l-1.3-.2a25.58,25.58,0,0,1-2.7-.5Z"/><path class="cls-2" d="M105.5,220.6a91,91,0,0,0,20.8-2.5v7.1a25.7,25.7,0,1,1-51.4,0v-7.1a86,86,0,0,0,20.9,2.5Z"/><path class="cls-3" d="M126.3,212.2v5.9a85.79,85.79,0,0,1-20.8,2.5H95.7a85.79,85.79,0,0,1-20.8-2.5v-5.9c.8.2,1.7.4,2.6.6l1,.2a25.58,25.58,0,0,0,2.7.5c.4.1.8.1,1.3.2a4.14,4.14,0,0,0,1,.1c.5.1.9.1,1.4.2l1.5.2h.3l3.5.3c1.8.1,3.6.2,5.5.2h13.2c.9,0,1.8-.1,2.6-.1l1.5-.1c1.1-.1,2.3-.2,3.4-.4.3,0,.6-.1.9-.1l1.3-.2a3.55,3.55,0,0,0,1-.2,27.41,27.41,0,0,0,2.8-.5l1.3-.3,1.3-.3C125.5,212.4,125.9,212.3,126.3,212.2Z"/><path class="cls-3" d="M193.3,94.6V122a85.13,85.13,0,0,1-2.2,19.5,88.24,88.24,0,0,1-64.8,65.8v4.9c-.4.1-.8.2-1.3.3s-.8.2-1.3.3-.8.2-1.3.3a27.41,27.41,0,0,1-2.8.5c-.3.1-.7.1-1,.2l-1.3.2c-.3,0-.6.1-.9.1-1.1.1-2.3.3-3.4.4l-1.5.1a23.48,23.48,0,0,1-2.6.1H95.7c-1.8,0-3.7-.1-5.5-.2l-3.5-.3h-.3l-1.5-.2a6.75,6.75,0,0,1-1.4-.2c-.3,0-.7-.1-1-.1l-1.3-.2a25.58,25.58,0,0,1-2.7-.5l-1-.2c-.8-.2-1.7-.4-2.6-.6v-4.9a88.27,88.27,0,0,1-62.9-59A86.56,86.56,0,0,1,7.9,122V94.6a86.37,86.37,0,0,1,.4-8.8,8.75,8.75,0,0,1,.2-1.6v-.4c.3-2,.6-3.9.9-5.9s.8-3.7,1.3-5.5A87.9,87.9,0,0,1,95.5,7h9.8c1.6,0,3.1,0,4.7.1a86.4,86.4,0,0,1,16.8,2.6,87.43,87.43,0,0,1,21.8,8.8c1,.6,2.1,1.2,3.1,1.9.5.3.9.6,1.4.9a15.26,15.26,0,0,1,1.6,1.1c.2.1.4.3.6.4a89.27,89.27,0,0,1,24,25,86.64,86.64,0,0,1,12.1,30.1c.2.9.3,1.8.5,2.7.3,1.6.5,3.3.7,4.9l.3,3a2.77,2.77,0,0,0,.1.9A42.84,42.84,0,0,1,193.3,94.6Z"/><path class="cls-2" d="M193.3,88.7V127a85.13,85.13,0,0,1-2.2,19.5,8.33,8.33,0,0,1-.4,1.5c-.1.5-.3,1-.4,1.5a6.47,6.47,0,0,1-.4,1.3,9.29,9.29,0,0,1-.4,1.3,9.83,9.83,0,0,1-.5,1.6,4.88,4.88,0,0,1-.4,1.1c-.1.2-.1.4-.2.6-.1.4-.3.8-.4,1.1a4.18,4.18,0,0,1-.4,1,7.84,7.84,0,0,0-.5,1.4v.1c-.2.6-.5,1.1-.7,1.6a5,5,0,0,0-.5,1.3c-.3.8-.7,1.5-1,2.3l-.7,1.4c-.6,1.2-1.3,2.5-1.9,3.7-.5.9-1.1,1.9-1.6,2.8l-.9,1.5-.1.2c-.3.5-.6.9-.9,1.4s-.7,1-1,1.5-.7,1-1,1.5h0c-.3.5-.7.9-1,1.4a17.09,17.09,0,0,1-1.1,1.4c-.4.5-.8,1-1.1,1.4-.8.9-1.6,1.9-2.4,2.8h0l-1.2,1.3a15.94,15.94,0,0,1-1.3,1.3l-1.1,1.1-1.5,1.5-1.3,1.2h0c-.5.4-.9.8-1.4,1.2L162,194h0l-1.5,1.2-1.3,1a18.26,18.26,0,0,0-1.6,1.3,29.77,29.77,0,0,1-2.9,2c-.5.3-1,.7-1.5,1s-1,.7-1.5,1l-.1.1-1.5.9c-.5.3-1,.6-1.6.9h0l-1.4.8q-2.7,1.5-5.4,2.7c-.4.2-.9.4-1.3.6a4.18,4.18,0,0,1-1,.4,6.12,6.12,0,0,0-1.2.5c-1.5.6-3,1.2-4.6,1.7l-1.8.6a12.09,12.09,0,0,1-1.8.5h-.1l-1.6.5c-.6.2-1.2.3-1.9.5-.4.1-.8.2-1.3.3s-.8.2-1.3.3-.8.2-1.3.3a27.41,27.41,0,0,1-2.8.5c-.3.1-.7.1-1,.2l-1.3.2c-.3,0-.6.1-.9.1-1.1.1-2.3.3-3.4.4l-1.5.1a23.48,23.48,0,0,1-2.6.1H95.8c-1.8,0-3.7-.1-5.5-.2l-3.5-.3h-.3L85,214a6.75,6.75,0,0,1-1.4-.2c-.3,0-.7-.1-1-.1l-1.3-.1a25.58,25.58,0,0,1-2.7-.5l-1-.2c-.8-.2-1.7-.4-2.6-.6h0l-.4-.1-.2-.1c-.5-.1-1.1-.3-1.6-.4s-1-.3-1.5-.4l-.2-.1h0c-1.1-.3-2.2-.7-3.3-1.1-.5-.2-1.1-.4-1.6-.6s-1-.4-1.6-.6c-1-.4-2.1-.8-3.1-1.3a2,2,0,0,1-.8-.4l-.9-.4c-.5-.2-1-.5-1.6-.7a13.35,13.35,0,0,0-1.2-.6l-.6-.3c-.8-.4-1.6-.8-2.5-1.3l-.6-.3c-.4-.2-.8-.5-1.2-.7s-.8-.5-1.2-.7l-.8-.5-1.8-1.2c-1.4-.9-2.8-1.9-4.2-2.9l-.8-.6c-.7-.6-1.5-1.1-2.2-1.7l-.9-.7c-.4-.3-.8-.7-1.2-1-.7-.6-1.4-1.2-2-1.8s-1.4-1.3-2.1-2l-1-1-1.3-1.3-.7-.7c-1-1-1.9-2.1-2.8-3.1-.3-.4-.6-.7-.9-1.1a12.67,12.67,0,0,0-1.1-1.3l-.7-.9c-.6-.7-1.1-1.5-1.6-2.2l-.9-1.2-.9-1a93.74,93.74,0,0,1-7.4-13.1,10.09,10.09,0,0,0-.7-1.5c-.2-.5-.3-.8-.5-1.2s-.2-.5-.3-.8-.3-.8-.5-1.2a4.87,4.87,0,0,1-.4-1.1l-.4-1c-.3-.9-.6-1.9-1-2.8a86.94,86.94,0,0,1-4-26.3V88.7a86.37,86.37,0,0,1,.4-8.8,8.75,8.75,0,0,1,.2-1.6v-.4c.3-2,.6-3.9.9-5.9s.8-3.7,1.3-5.5A87.9,87.9,0,0,1,95.4,1.1h9.8c1.6,0,3.1,0,4.7.1a81.35,81.35,0,0,1,16.9,2.6,85.26,85.26,0,0,1,21.7,8.8c1,.6,2.1,1.2,3.1,1.9.5.3.9.6,1.4.9a15.26,15.26,0,0,1,1.6,1.1c.2.1.4.3.6.4a89.27,89.27,0,0,1,24,25A86.64,86.64,0,0,1,191.3,72c.2.9.3,1.8.5,2.7.3,1.6.5,3.3.7,4.9l.3,3a2.77,2.77,0,0,0,.1.9A28.88,28.88,0,0,1,193.3,88.7Z"/><path class="cls-2" d="M193.3,88.7V127a85.13,85.13,0,0,1-2.2,19.5,8.33,8.33,0,0,1-.4,1.5c-.1.5-.3,1-.4,1.5a6.47,6.47,0,0,1-.4,1.3,9.29,9.29,0,0,1-.4,1.3,9.83,9.83,0,0,1-.5,1.6,4.88,4.88,0,0,1-.4,1.1c-.1.2-.1.4-.2.6-.1.4-.3.8-.4,1.1a4.18,4.18,0,0,1-.4,1,7.84,7.84,0,0,0-.5,1.4v.1c-.2.6-.5,1.1-.7,1.6a5,5,0,0,0-.5,1.3c-.3.8-.7,1.5-1,2.3l-.7,1.4c-.6,1.2-1.3,2.5-1.9,3.7-.5.9-1.1,1.9-1.6,2.8l-.9,1.5-.1.2c-.3.5-.6.9-.9,1.4s-.7,1-1,1.5-.7,1-1,1.5h0c-.3.5-.7.9-1,1.4a17.09,17.09,0,0,1-1.1,1.4c-.4.5-.8,1-1.1,1.4-.8.9-1.5,1.9-2.4,2.8h0l-1.2,1.3a15.94,15.94,0,0,1-1.3,1.3l-1.1,1.1-1.5,1.5-1.3,1.2h0c-.5.4-.9.8-1.4,1.2L162,194h0l-1.5,1.2-1.3,1a18.26,18.26,0,0,0-1.6,1.3,29.77,29.77,0,0,1-2.9,2c-.5.3-1,.7-1.5,1s-1,.7-1.5,1l-.1.1-1.5.9c-.5.3-1,.6-1.6.9h0l-1.4.8q-2.7,1.5-5.4,2.7c-.4.2-.9.4-1.3.6a4.18,4.18,0,0,1-1,.4,6.12,6.12,0,0,0-1.2.5c-1.5.6-3,1.2-4.6,1.7l-1.8.6a12.09,12.09,0,0,1-1.8.5h-.1l-1.6.5c-.6.2-1.2.3-1.9.5-.4.1-.8.2-1.3.3s-.8.2-1.3.3-.8.2-1.3.3a27.41,27.41,0,0,1-2.8.5c-.3.1-.7.1-1,.2l-1.3.2c-.3,0-.6.1-.9.1-1.1.1-2.3.3-3.4.4l-1.5.1a23.48,23.48,0,0,1-2.6.1H95.8c-1.8,0-3.7-.1-5.5-.2l-3.5-.3h-.3L85,214a6.75,6.75,0,0,1-1.4-.2c-.3,0-.7-.1-1-.1l-1.3-.1a25.58,25.58,0,0,1-2.7-.5l-1-.2c-.8-.2-1.7-.4-2.6-.6l-.4-.1-.2-.1c-.5-.1-1.1-.3-1.6-.4s-1-.3-1.5-.4l-.2-.1h0c-1.1-.3-2.2-.7-3.3-1.1-.5-.2-1.1-.4-1.6-.6s-1-.4-1.6-.6c-1-.4-2.1-.8-3.1-1.3a2,2,0,0,1-.8-.4l-.9-.4c-.5-.2-1-.5-1.6-.7a13.35,13.35,0,0,0-1.2-.6l-.6-.3c-.8-.4-1.6-.8-2.5-1.3l-.6-.3c-.4-.2-.8-.5-1.2-.7s-.8-.5-1.2-.7l-.8-.5-1.8-1.2c-1.4-.9-2.8-1.9-4.2-2.9l-.8-.6c-.7-.6-1.5-1.1-2.2-1.7l-.9-.7c-.4-.3-.8-.7-1.2-1-.7-.6-1.4-1.2-2-1.8s-1.4-1.3-2.1-2l-1-1-1.3-1.3-.7-.7c-1-1-1.9-2.1-2.8-3.1-.3-.4-.6-.7-.9-1.1a12.67,12.67,0,0,0-1.1-1.3l-.7-.9c-.6-.7-1.1-1.5-1.6-2.2l-.9-1.2-.9-1a93.74,93.74,0,0,1-7.4-13.1,10.09,10.09,0,0,0-.7-1.5c-.2-.5-.3-.8-.5-1.2s-.2-.5-.3-.8-.3-.8-.5-1.2a4.87,4.87,0,0,1-.4-1.1l-.4-1c-.3-.9-.6-1.9-1-2.8a86.94,86.94,0,0,1-4-26.3V88.7a86.37,86.37,0,0,1,.4-8.8,8.75,8.75,0,0,1,.2-1.6v-.4c.3-2,.6-3.9.9-5.9s.8-3.7,1.3-5.5A87.9,87.9,0,0,1,95.4,1.1h9.8c1.6,0,3.1,0,4.7.1a81.35,81.35,0,0,1,16.9,2.6,85.26,85.26,0,0,1,21.7,8.8c1,.6,2.1,1.2,3.1,1.9.5.3.9.6,1.4.9a15.26,15.26,0,0,1,1.6,1.1c.2.1.4.3.6.4a89.27,89.27,0,0,1,24,25A86.64,86.64,0,0,1,191.3,72c.2.9.3,1.8.5,2.7.3,1.6.5,3.3.7,4.9l.3,3a2.77,2.77,0,0,0,.1.9A28.88,28.88,0,0,1,193.3,88.7Z"/><path class="cls-4" d="M42.8,95.2H72.4a5.7,5.7,0,0,1,5.7,5.7h0a5.7,5.7,0,0,1-5.7,5.7H42.8a5.7,5.7,0,0,1-5.7-5.7h0A5.57,5.57,0,0,1,42.8,95.2Z"/><path class="cls-4" d="M123.2,95.2h29.6a5.7,5.7,0,0,1,5.7,5.7h0a5.7,5.7,0,0,1-5.7,5.7H123.2a5.7,5.7,0,0,1-5.7-5.7h0A5.7,5.7,0,0,1,123.2,95.2Z"/><ellipse class="cls-3" cx="100.6" cy="147.6" rx="9.8" ry="3.6"/><path class="cls-4" d="M157.3,15.9l-.1.1h0c0-.1,0-.1.1-.1l7.3.8a2.41,2.41,0,0,0,2.7-2.2,3.4,3.4,0,0,0-.1-1L167,13h0l-.2-.6a2.47,2.47,0,0,0-3.1-1.6,2.18,2.18,0,0,0-.8.5Z"/><path class="cls-4" d="M156.5,14.9v.2h0v.1h0c0-.1.1-.2,0-.3l6.4-8.8A3.6,3.6,0,0,0,162,1a3.79,3.79,0,0,0-1.3-.6l-.8-.2h0L159,.1a3.58,3.58,0,0,0-4.3,2.8,3.3,3.3,0,0,0,0,1.4Z"/><path class="cls-2" d="M6.3,122.7h0a5.7,5.7,0,0,1,5.7,5.7v17.3a5.7,5.7,0,0,1-5.7,5.7h0a5.7,5.7,0,0,1-5.7-5.7V128.4A5.63,5.63,0,0,1,6.3,122.7Z"/><path class="cls-2" d="M194.3,122.7h0a5.7,5.7,0,0,1,5.7,5.7v17.3a5.7,5.7,0,0,1-5.7,5.7h0a5.7,5.7,0,0,1-5.7-5.7V128.4A5.63,5.63,0,0,1,194.3,122.7Z"/><path class="cls-4" d="M154.9,16.2A80.76,80.76,0,0,1,139.4,47C120.6,70.6,88.6,86.1,52.1,86.1a122.71,122.71,0,0,1-33.6-4.6c-3.4-1-6.8-2.1-10-3.3v-.4c.3-2,.6-3.9.9-5.9s.8-3.7,1.3-5.5a86.38,86.38,0,0,1,7.8-19.5A87.69,87.69,0,0,1,95.6.9h9.8c1.6,0,3.1,0,4.7.1a86.4,86.4,0,0,1,16.8,2.6,87.43,87.43,0,0,1,21.8,8.8c1,.6,2.1,1.2,3.1,1.9.5.3.9.6,1.4.9S154.3,15.9,154.9,16.2Z"/><path class="cls-4" d="M193.1,83.3a41.17,41.17,0,0,1-13.5,2.3h-.1A40.13,40.13,0,0,1,139.4,47V45.5a40,40,0,0,1,13.8-30.3,15.26,15.26,0,0,1,1.6,1.1c.2.1.4.3.6.4a89.27,89.27,0,0,1,24,25,86.64,86.64,0,0,1,12.1,30.1c.2.9.3,1.8.5,2.7.3,1.6.5,3.3.7,4.9l.3,3A2.77,2.77,0,0,1,193.1,83.3Z"/><path class="cls-4" d="M18.5,47v66a9.82,9.82,0,0,1-9.8,9.8H7.9V88.7a86.37,86.37,0,0,1,.4-8.8,8.75,8.75,0,0,1,.2-1.6v-.4c.3-2,.6-3.9.9-5.9s.8-3.7,1.3-5.5A92.36,92.36,0,0,1,18.5,47Z"/><path class="cls-4" d="M193.3,88.7v34.2h-3.9a9.82,9.82,0,0,1-9.8-9.8V41.6a86.64,86.64,0,0,1,12.1,30.1c.2.9.3,1.8.5,2.7.3,1.6.5,3.3.7,4.9l.3,3a2.77,2.77,0,0,0,.1.9C193.2,85.1,193.3,86.9,193.3,88.7Z"/><circle class="cls-5" cx="59" cy="131" r="7.2"/><circle class="cls-6" cx="57.5" cy="128.6" r="3.6"/><circle class="cls-7" cx="59.2" cy="130.4" r="19.9"/><path class="cls-3" d="M79.1,130.4v1.2A20,20,0,0,1,71.5,146a12.74,12.74,0,0,1-1.9,1.3,19,19,0,0,1-7.3,2.7,8.75,8.75,0,0,1-1.6.2c-.5,0-1.1.1-1.6.1a20,20,0,0,1-19.9-18.7v-1.2a19,19,0,0,1,.9-5.8,19.7,19.7,0,0,1,1.8-4.2c.3-.5.6-.9.9-1.4a20.57,20.57,0,0,1,5.6-5.4,12.81,12.81,0,0,1,2-1.1,20.27,20.27,0,0,1,8.8-2h.9A19.71,19.71,0,0,1,79.1,130.4Z"/><path class="cls-2" d="M79.1,131.6a19.94,19.94,0,0,1-39.8,0,19.94,19.94,0,0,1,39.8,0Z"/><circle class="cls-4" cx="61.7" cy="125.6" r="11.8"/><circle class="cls-8" cx="57.4" cy="121.5" r="4.2"/><path class="cls-9" d="M69.7,147.3a19,19,0,0,1-7.3,2.7L42.9,119a20.57,20.57,0,0,1,5.6-5.4Z"/><path class="cls-9" d="M77.5,138.2a20.31,20.31,0,0,1-6,7.9L50.4,112.6a20.27,20.27,0,0,1,8.8-2h.9Z"/><circle class="cls-5" cx="138.5" cy="131" r="7.2"/><circle class="cls-6" cx="137" cy="128.6" r="3.6"/><circle class="cls-7" cx="138.7" cy="130.4" r="19.9"/><path class="cls-3" d="M158.6,130.4v1.2a19.76,19.76,0,0,1-7.5,14.4,12.74,12.74,0,0,1-1.9,1.3,19,19,0,0,1-7.3,2.7,8.75,8.75,0,0,1-1.6.2c-.5,0-1.1.1-1.6.1a20,20,0,0,1-19.9-18.7v-1.2a19,19,0,0,1,.9-5.8,19.7,19.7,0,0,1,1.8-4.2c.3-.5.6-.9.9-1.4a20.57,20.57,0,0,1,5.6-5.4,12.81,12.81,0,0,1,2-1.1,20.27,20.27,0,0,1,8.8-2h.9A19.89,19.89,0,0,1,158.6,130.4Z"/><path class="cls-2" d="M158.6,131.6a19.94,19.94,0,0,1-39.8,0,19.94,19.94,0,0,1,39.8,0Z"/><circle class="cls-4" cx="141.2" cy="125.6" r="11.8"/><circle class="cls-8" cx="136.9" cy="121.5" r="4.2"/><path class="cls-9" d="M149.2,147.3a19,19,0,0,1-7.3,2.7l-19.5-31a20.57,20.57,0,0,1,5.6-5.4Z"/><path class="cls-9" d="M157,138.2a20.31,20.31,0,0,1-6,7.9l-21.1-33.5a20.16,20.16,0,0,1,8.7-2h.9Z"/><line class="cls-10" x1="118.6" y1="123.3" x2="79" y2="123.3"/><line class="cls-10" x1="40" y1="122.3" x2="7.8" y2="122.3"/><line class="cls-10" x1="193.4" y1="122.3" x2="158.7" y2="122.3"/><path class="cls-11" d="M121.5,165.5H75.9a7.85,7.85,0,0,0-6.3,12.6c5.7,7.7,15.2,16,29.1,16s23.4-8.3,29.1-16a8,8,0,0,0-1.6-11.1A8.47,8.47,0,0,0,121.5,165.5Z"/></g></g></svg>