<?xml version="1.0" encoding="utf-8"?>
<!-- Generator: Adobe Illustrator 21.0.2, SVG Export Plug-In . SVG Version: 6.00 Build 0)  -->
<svg version="1.1" id="Layer_1" xmlns="http://www.w3.org/2000/svg" xmlns:xlink="http://www.w3.org/1999/xlink" x="0px" y="0px"
	 viewBox="0 0 100 100" style="enable-background:new 0 0 100 100;" xml:space="preserve">
<style type="text/css">
	.st0{fill:#D115BF;}
	.st1{fill:#5CE20E;}
</style>
<title>Artboard 1</title>
<g>
	<path class="st0" d="M8.8,21.7c-1,0.5-2.1,0.1-3.1,0.3H2.3c-0.9,0.1-1.7-0.3-2.2-1v-1.2c0.3-0.4,0.7-0.8,1.2-1h7.2l0.6,0.4
		c0.5,0.6,0.5,1.5,0.1,2.1L8.8,21.7z"/>
	<path class="st1" d="M58,90.3L56.8,89c-0.3-0.6-0.8-0.4-1.3-0.3h-3.9l-2.4-0.4l-0.8-0.2l-2.1-0.9l-0.6-0.3l-1.5-1l-0.8-0.6
		c-0.5-0.5-1-0.9-1.6-1.2c-0.1-0.2-0.4-0.4-0.6-0.5l-1.5-1.3l-0.6-0.5l-1.2-1.1l-0.7-0.8l-1.3-1.5l-0.4-0.6l-1.1-1.9l-0.2-0.4
		l-0.9-1.9L33,72.9c-0.2-0.8-0.6-1.5-1.1-2.1c-0.2-0.3-0.4-0.5-0.7-0.6c-0.4-0.4-0.9-0.8-1.5-1c-0.2-0.2-0.5-0.4-0.8-0.5
		c-0.5-0.4-1.1-0.7-1.7-0.9c-0.3-0.3-0.7-0.4-1.1-0.5c-0.5-0.4-1.1-0.6-1.7-0.8c-0.2-0.2-0.5-0.4-0.8-0.4l-1.7-1l-0.6-0.5L20,63.1
		l-0.4-0.8L19,60.4c0-0.3,0-0.7-0.1-1c0.1-1.1,0.3-2.2,0.6-3.3l1.2-2.1l2.3-2.3c1.8-1.4,3.8-2.3,6-2.8l-1.7-2.2
		c-0.3-0.6-0.7-1.1-1.1-1.6c-0.1-0.3-0.3-0.6-0.6-0.8c-0.3-0.6-0.7-1.1-1.1-1.6L24,42.1l-1-1.5l-0.6-0.8c-0.3-0.6-0.7-1.1-1.1-1.6
		c-0.1-0.3-0.3-0.6-0.6-0.8c-0.3-0.6-0.7-1.1-1.2-1.6c-0.1-0.2-0.2-0.5-0.4-0.6c-0.3-0.5-0.7-1-1.2-1.4l-0.6-0.9l-0.8-1.5
		c0-0.2-0.1-0.4-0.3-0.6l-1-2.1c0-0.2,0-0.4-0.2-0.6l-0.6-2.3c0-0.3,0-0.6-0.2-0.8c-0.4-2.8,0.6-5.5,2.7-7.4
		c0.8-0.7,1.7-1.3,2.6-1.8l1.6-0.5c1-0.2,2.1-0.3,3.1-0.3c0.2,0.1,0.5,0.2,0.8,0.1l2.1,0.6c0.1,0.2,0.3,0.2,0.5,0.2l1.9,1.1
		c0.1,0.2,0.3,0.3,0.5,0.4l1.3,1.6l0.8,0.8l1.1,1.4c0.1,0.3,0.3,0.6,0.6,0.8c0.3,0.5,0.7,1,1.2,1.4l0.6,0.7l1.3,1.4
		c0.1,0.2,0.2,0.4,0.4,0.5c0.3,0.5,0.7,1,1.2,1.4c0.1,0.2,0.3,0.5,0.5,0.6l1.1,1.4c0.3,0.4,0.6,0.4,0.9,0l1.9-1
		c1.2-0.4,2.4-0.7,3.7-0.9h1c0.5,0,0.9,0.1,1.4,0.2c0.8,0.3,1.6,0.1,2.1-0.6l2.3-1.4c1.2-0.5,2.4-0.8,3.7-0.9h1l2.5,0.4H61
		c0.3,0.2,0.7,0.2,1-0.1c1.3-0.9,2.8-1.5,4.3-1.8h1.2l2.7,0.3l0.8,0.2l2.2,0.7l0.6,0.3l1.6,0.9l0.9,0.6l1.3,1l0.8,0.6l1.4,1.3
		l0.6,0.6l1.2,1.4l0.7,0.8l1,1.3l0.5,0.6l1.2,1.7c0.1,0.3,0.3,0.6,0.6,0.8l1,1.5l0.4,0.6l1.2,2.1c0,0.3,0.2,0.6,0.4,0.8l0.9,1.8
		c0,0.2,0,0.3,0.2,0.4c0.2,0.6,0.5,1.2,0.8,1.7c0,0.3,0.2,0.6,0.4,0.8l0.8,2c0,0.3,0.1,0.6,0.3,0.8l0.7,2.3l0.2,0.8l0.5,2.3
		c0,0.3,0,0.6,0.2,0.8c0.1,0.9,0.2,1.8,0.5,2.6c0,0.3,0,0.6,0.2,0.8l0.5,2.1c0,0.4,0.1,0.7,0.3,1c0.1,0.7,0.4,1.4,0.7,2.1l0.4,0.8
		c0.2,0.6,0.4,1.2,0.8,1.8c0,0.3,0.2,0.6,0.4,0.8c0.3,0.9,0.7,1.7,1.2,2.4c1.7,2.3,1.7,5.4,0.1,7.7c-1.1,1.1-2.2,2-3.5,2.8l-9,6.1
		c-1.1,0.6-2.1,1.3-3.1,2.1l-9,6.1l-2.9,1.9c-1.1,0.7-2.4,1-3.7,1h-1l-2-0.8L64,96.1l-1.6-1.4c-0.1-0.3-0.3-0.5-0.6-0.6
		c-0.3-0.4-0.8-0.8-1.2-1.1l-0.8-0.7l-1.3-1.2L58,90.3z M30.5,55.1c-2,0.1-3.8,1.1-4.9,2.7c-0.6,0.5-0.7,1.4-0.2,2
		c0.2,0.2,0.4,0.3,0.6,0.4c0.2,0.2,0.5,0.4,0.8,0.4l1.6,0.8l0.8,0.4c0.6,0.5,1.3,0.9,2,1.2c0,0.2,0.2,0.2,0.3,0.2
		c0.6,0.4,1.2,0.8,1.8,1.1c0.3,0.3,0.6,0.5,1,0.6l1.3,0.8l0.8,0.8l1,1.4l0.4,0.6l1,2c0,0.3,0.2,0.6,0.4,0.8c0.2,0.7,0.6,1.4,1,2
		c0,0.2,0.2,0.5,0.4,0.6c0.3,0.6,0.7,1.2,1.2,1.6c0.2,0.3,0.5,0.6,0.8,0.8c0.4,0.5,0.8,0.9,1.3,1.2l0.7,0.6c0.5,0.5,1.1,1,1.7,1.4
		l0.4,0.3c0.4,0.4,0.8,0.7,1.3,0.9c0.2,0.2,0.5,0.4,0.8,0.5c0.7,0.4,1.4,0.7,2.2,0.8c0.2,0.2,0.5,0.3,0.8,0.2
		c0.9,0.3,1.9,0.3,2.9,0.1h3.9l0.8,0.3l1.2,1.2c0.2,0.3,0.5,0.6,0.8,0.8c0.4,0.5,0.9,1,1.4,1.4l0.3,0.3c0.4,0.5,0.9,1,1.4,1.4
		c0.2,0.3,0.5,0.6,0.8,0.8c0.4,0.5,0.8,0.9,1.3,1.2l0.6,0.6c0.4,0.3,0.5,1,1.2,0.5l4.6-3.4c1.1-0.6,2.1-1.3,3.1-2.1l9-6.1l7.1-4.7
		c1.7-1.1,1.7-1.1,0.6-2.9h-0.1l-1.1-2.3c0-0.2,0-0.3-0.2-0.4L90.6,67c-0.1-0.3-0.2-0.6-0.4-0.8L89.5,64c0-0.3,0-0.5-0.2-0.7
		c-0.1-0.8-0.3-1.5-0.6-2.2c0-0.3-0.1-0.6-0.2-0.8l-0.4-2.5l-0.2-1l-0.5-2.3c0-0.3,0-0.6-0.2-0.8c-0.1-0.8-0.3-1.6-0.6-2.3
		c0-0.3-0.1-0.6-0.3-0.8c-0.2-0.8-0.6-1.6-1-2.3c0-0.2,0-0.4-0.2-0.5c-0.2-0.7-0.5-1.4-0.9-2L83.8,45c-0.2-0.6-0.5-1.2-0.9-1.7
		l-0.5-0.8c-0.3-0.7-0.7-1.3-1.1-1.9l-0.2-0.3c-0.4-0.8-0.9-1.5-1.4-2.1l-0.2-0.3c-0.4-0.6-0.9-1.1-1.4-1.6
		c-0.2-0.3-0.4-0.6-0.7-0.8c-0.3-0.5-0.7-0.9-1.2-1.3c-0.1-0.3-0.3-0.5-0.6-0.6c-0.4-0.5-0.8-0.9-1.3-1.2c-0.2-0.3-0.5-0.5-0.8-0.6
		c-0.6-0.5-1.3-0.9-2-1.2l-0.6-0.3c-0.7-0.4-1.5-0.6-2.3-0.6c-0.3-0.2-0.7-0.2-1,0c-1.6,0.4-3,1.3-3.9,2.6c-0.5,0.6-0.9,0.8-1.5,0.3
		c-0.2-0.2-0.6-0.4-0.9-0.5c-0.6-0.4-1.4-0.7-2.1-0.8c-0.3-0.1-0.5-0.1-0.8-0.1c-1.1-0.1-2.2,0.1-3,0.8c-1.2,0.9-2.2,2-2.9,3.3
		c-0.3,0.7-0.6,0.7-1.2,0.3c-0.2-0.3-0.5-0.5-0.8-0.6c-0.6-0.5-1.2-0.8-1.9-1c-0.2-0.2-0.5-0.3-0.8-0.2c-0.7-0.1-1.5,0-2.2,0.3
		c-2,0.8-3.5,2.4-4.1,4.5c-0.4,0.9-0.7,0.9-1.2,0.2c-0.2-0.3-0.4-0.6-0.7-0.8l-1.2-1.4c-0.1-0.3-0.3-0.5-0.6-0.6
		c-0.3-0.5-0.7-0.9-1.2-1.3c-0.1-0.2-0.3-0.5-0.5-0.6c-0.4-0.6-0.9-1.1-1.4-1.6c-0.1-0.3-0.3-0.5-0.6-0.7l-1-1.3
		c-0.1-0.2-0.3-0.5-0.5-0.6l-1.2-1.3L30.8,28l-1.3-1.5c-0.1-0.2-0.3-0.5-0.5-0.6c-0.3-0.5-0.7-1.1-1.2-1.5c-0.2-0.3-0.4-0.6-0.7-0.8
		c-0.3-0.5-0.8-0.9-1.3-1.2c-0.1-0.2-0.4-0.4-0.6-0.4c-1.1-0.8-2.7-0.8-3.7,0.2c-1.1,1-1,2.2-0.5,3.5c0,0.4,0.2,0.7,0.4,1
		c0.2,0.6,0.4,1.2,0.8,1.7c0.1,0.2,0.2,0.5,0.4,0.6c0.3,0.7,0.7,1.3,1.2,1.8c0.1,0.3,0.3,0.6,0.6,0.8c0.3,0.5,0.6,1.1,1,1.5
		c0.1,0.3,0.3,0.6,0.6,0.8c0.3,0.5,0.6,1,1,1.5c0.1,0.3,0.3,0.6,0.6,0.8c0.3,0.5,0.6,1,1,1.5c0.1,0.3,0.3,0.6,0.5,0.8
		c0.3,0.5,0.6,1,1,1.5c0.1,0.3,0.3,0.6,0.6,0.8c0.3,0.5,0.6,1,1,1.5c0.1,0.3,0.3,0.6,0.6,0.8c0.3,0.5,0.6,1,1,1.5
		c0.1,0.3,0.3,0.6,0.6,0.8c0.3,0.5,0.6,1.1,1,1.5c0.1,0.3,0.3,0.6,0.6,0.8c0.3,0.5,0.6,1.1,1,1.5c0.1,0.3,0.3,0.6,0.6,0.8
		c0.3,0.5,0.6,1.1,1,1.5c0.1,0.3,0.3,0.6,0.6,0.8c0.3,0.5,0.6,1.1,1,1.5c0.1,0.3,0.3,0.6,0.6,0.8c0.3,0.5,0.6,1.1,1,1.5
		c0.1,0.2,0.2,0.5,0.4,0.6c0.3,0.7,0.7,1.4,1.2,2l0.3,0.6c0.3,0.7,0.7,1.4,1.2,2l0.2,0.3l1.1,1.9l0.5,0.8c0.3,0.7,0.7,1.3,1.1,1.9
		c0,0.2,0.1,0.3,0.2,0.4c0.3,0.6,0.6,1.2,1,1.7c-0.1,0.2,0.2,0.5-0.2,0.6C48,68.2,47.5,67.6,47,67l-0.2-0.3
		c-0.5-0.5-1.1-0.9-1.8-1.3c-0.1-0.3-0.3-0.6-0.6-0.8l-1-1.3c-0.1-0.2-0.3-0.5-0.5-0.6c-0.4-0.6-0.8-1.1-1.3-1.5
		c-0.2-0.3-0.4-0.6-0.7-0.8c-0.3-0.5-0.7-0.9-1.1-1.2c-0.1-0.3-0.3-0.5-0.6-0.6c-0.4-0.5-0.9-1-1.4-1.4c-0.2-0.3-0.5-0.5-0.8-0.7
		c-0.6-0.5-1.2-0.8-1.9-0.9c-0.3-0.2-0.6-0.3-1-0.3c-0.7-0.2-1.5-0.3-2.3-0.3C31.3,54.9,30.9,54.9,30.5,55.1z"/>
	<path class="st0" d="M6.3,8.7C5.9,8.3,5.6,7.8,5.5,7.2c0.1-0.8,0.8-1.5,1.6-1.6C7.7,5.7,8.2,6,8.6,6.4C8.8,6.7,9.1,7,9.4,7.2
		l1.1,1.1c0.2,0.3,0.5,0.6,0.8,0.8l1.1,1.1l0.6,0.9c0,1.5-0.5,2-2,2l-0.9-0.6l-1-1.1c-0.2-0.3-0.5-0.6-0.8-0.8L7.2,9.5
		C7,9.2,6.7,8.9,6.3,8.7z"/>
	<path class="st0" d="M21.7,8.9l-0.3,0.3c-0.8,0.5-1.7,0.3-2.3-0.4l-0.2-0.3V1.3c0.4-0.8,1-1.4,2-1.1s1.2,1.1,1.1,2s0,1.7,0,2.6v1
		C21.8,6.8,22.2,7.9,21.7,8.9z"/>
	<path class="st0" d="M10,29.5c-0.2,0.5-0.6,1-1,1.4l-3.7,3.7c-0.3,0.3-0.6,0.5-0.9,0.6h-1c-1.2-1-1.3-1.8-0.2-2.9l3.9-3.9
		c1-1,1.8-1,2.8,0.1L10,29.5z"/>
	<path class="st0" d="M35.1,4.4c-0.2,0.5-0.6,1-1,1.4l-3.7,3.7c-0.2,0.3-0.6,0.5-0.9,0.6h-1c-0.5-0.3-0.9-0.8-1-1.4
		c0.1-0.6,0.4-1.1,0.8-1.5l3.9-3.9c0.4-0.5,1-0.7,1.6-0.7C34.3,2.7,34.7,3,35,3.4L35.1,4.4z"/>
</g>
</svg>
