<svg id="Layer_1" data-name="Layer 1" xmlns="http://www.w3.org/2000/svg" viewBox="0 0 200 342.42"><defs><style>.cls-1{fill:#2b2b2b;}.cls-2{fill:#f3c49d;}.cls-3{fill:#ff8f6f;}.cls-4{fill:#e5b596;}.cls-5{fill:#eaeaea;}.cls-6{fill:#d3727b;}.cls-7{fill:#fff;}</style></defs><title>Artboard 1</title><g id="Layer_2" data-name="Layer 2"><g id="Layer_6" data-name="Layer 6"><path class="cls-1" d="M192.92,84.69V247.5a9.87,9.87,0,0,1-9.87,9.87H17a9.87,9.87,0,0,1-9.87-9.87V84.18h0a9.87,9.87,0,0,1,9-9.36,6.79,6.79,0,0,1,.82,0h166.1a9.87,9.87,0,0,1,9.87,9.36.07.07,0,0,1,0,.06A4.15,4.15,0,0,1,192.92,84.69Z"/><path class="cls-1" d="M73.27,109H43.58a5.76,5.76,0,0,1-5.76-5.76h0c0-3.16,35.45-5.76,35.45-5.76A5.76,5.76,0,0,1,79,103.24h0A5.76,5.76,0,0,1,73.27,109Z"/><path class="cls-1" d="M153.94,109h-29.7a5.76,5.76,0,0,1-5.76-5.76h0a5.76,5.76,0,0,1,5.76-5.76s35.45,2.59,35.45,5.76h0A5.76,5.76,0,0,1,153.94,109Z"/><path class="cls-2" d="M77.08,212.57c-.82-.18-1.71-.38-2.56-.58h0a15.56,15.56,0,0,1,.11-2.24,25.81,25.81,0,0,1,51.42.2c.06.67.09,1.36.09,2-.42.1-.82.21-1.26.3s-.82.2-1.27.28-.82.18-1.27.26c-.94.19-1.88.36-2.83.51-.35.07-.68.12-1,.16l-1.3.19-.94.12q-1.7.22-3.43.37l-1.48.12c-.88.06-1.76.11-2.64.14H95.38q-2.76,0-5.48-.17c-1.18-.07-2.34-.16-3.5-.29h-.34l-1.55-.18c-.46,0-.91-.12-1.37-.18s-.66-.09-1-.15l-1.3-.21c-.92-.15-1.83-.32-2.75-.51Z"/><path class="cls-3" d="M195.86,302.41c0,53.34-193.17,53.34-193.17,0a96.58,96.58,0,1,1,193.17,0Z"/><path class="cls-2" d="M105.25,220.37a87.49,87.49,0,0,0,20.89-2.47V225a25.81,25.81,0,1,1-51.62,0V217.9a87,87,0,0,0,20.86,2.47Z"/><path class="cls-4" d="M126.14,212v5.91a87.49,87.49,0,0,1-20.89,2.47H95.38a87,87,0,0,1-20.86-2.47V212c.82.21,1.7.4,2.56.58l1.05.21c.91.19,1.83.36,2.75.51.44.07.82.15,1.3.21s.66.11,1,.15.91.13,1.37.18l1.55.18h.34c1.16.12,2.33.22,3.5.29q2.71.17,5.48.17h13.3c.88,0,1.76-.08,2.64-.14l1.48-.12q1.73-.15,3.43-.37l.94-.12,1.3-.19c.35,0,.69-.1,1-.16.95-.15,1.89-.32,2.83-.51l1.27-.26,1.27-.28A12,12,0,0,1,126.14,212Z"/><path class="cls-4" d="M193.23,94v27.55a87.59,87.59,0,0,1-2.2,19.55,88.55,88.55,0,0,1-64.9,65.92V212c-.42.1-.82.21-1.26.3s-.82.2-1.27.28-.82.18-1.27.26c-.94.19-1.88.36-2.83.51-.35.07-.68.12-1,.16l-1.3.19-.94.12q-1.7.22-3.43.37l-1.48.12c-.88.06-1.76.11-2.64.14H95.38q-2.76,0-5.48-.17c-1.18-.07-2.34-.16-3.5-.29h-.34l-1.55-.18c-.46,0-.91-.12-1.37-.18s-.66-.09-1-.15l-1.3-.21c-.92-.15-1.83-.32-2.75-.51l-1.05-.21c-.82-.18-1.71-.38-2.56-.58V207a88.62,88.62,0,0,1-63-59.07A87.16,87.16,0,0,1,7.4,121.59V94a87.28,87.28,0,0,1,.44-8.84c0-.55.12-1.1.18-1.64l0-.41q.38-3,.95-5.9c.37-1.87.82-3.72,1.27-5.53a87,87,0,0,1,7.8-19.5A88.19,88.19,0,0,1,95.38,6.06h9.87c1.59,0,3.16,0,4.72.13a86.43,86.43,0,0,1,16.86,2.57,87.83,87.83,0,0,1,21.8,8.81c1.05.6,2.09,1.22,3.11,1.87.47.29.93.59,1.39.9l1.64,1.09c.21.13.42.28.63.43a88.8,88.8,0,0,1,24,25,87.34,87.34,0,0,1,12.14,30.25c.17.89.34,1.78.49,2.69q.4,2.47.67,4.93c.12,1,.2,2,.27,3,0,.31,0,.63.06.95C193.23,90.45,193.23,92.24,193.23,94Z"/><path class="cls-2" d="M193.23,88.15v38.38a87.59,87.59,0,0,1-2.2,19.55c-.12.5-.24,1-.36,1.51s-.25,1-.39,1.5-.23.82-.35,1.27-.24.82-.37,1.29-.34,1.09-.51,1.64c-.12.37-.24.74-.36,1.1-.07.21-.13.4-.21.6-.13.39-.26.77-.4,1.15s-.23.64-.35,1c-.17.47-.35.94-.53,1.4v.06c-.23.57-.45,1.13-.69,1.64s-.35.82-.54,1.27c-.33.76-.67,1.52-1,2.28l-.69,1.44q-.92,1.87-1.93,3.69c-.53.94-1.06,1.87-1.64,2.79l-.91,1.49-.15.22-.9,1.38c-.3.46-.67,1-1,1.51s-.7,1-1.05,1.5v0c-.35.48-.7.95-1.05,1.41s-.73,1-1.11,1.45-.76,1-1.14,1.42c-.76.94-1.55,1.87-2.36,2.77h0l-1.23,1.34c-.41.44-.82.89-1.26,1.32l-1.09,1.11c-.49.49-1,1-1.5,1.46l-1.28,1.21h0c-.45.41-.9.82-1.36,1.22l-1.36,1.18,0,0-1.38,1.13-1.31,1c-.55.44-1.1.82-1.64,1.27q-1.41,1-2.89,2c-.5.35-1,.68-1.52,1s-1,.67-1.54,1l-.12.07-1.46.87c-.52.31-1,.62-1.56.91h0l-1.43.82q-2.66,1.44-5.43,2.7-.65.31-1.33.59c-.35.16-.69.3-1,.44l-1.24.52q-2.27.91-4.61,1.7c-.58.2-1.18.39-1.77.58l-1.77.53h-.07l-1.64.45c-.62.17-1.25.33-1.88.49-.42.1-.82.21-1.26.3s-.82.2-1.27.28-.82.18-1.27.26c-.94.19-1.88.36-2.83.51-.35.07-.68.12-1,.16l-1.3.19-.94.12q-1.7.22-3.43.37l-1.48.12c-.88.06-1.76.11-2.64.14H95.38q-2.76,0-5.48-.17c-1.18-.07-2.34-.16-3.5-.29h-.34l-1.55-.18c-.46,0-.91-.12-1.37-.18s-.66-.09-1-.15l-1.3-.21c-.92-.15-1.83-.32-2.75-.51l-1.05-.21c-.82-.18-1.71-.38-2.56-.58h0l-.35-.08-.22-.06-1.6-.42-1.49-.42-.19-.06h0c-1.12-.33-2.24-.68-3.34-1.06-.55-.18-1.1-.38-1.64-.58s-1-.38-1.56-.58c-1.05-.39-2.1-.82-3.12-1.27-.29-.12-.57-.24-.82-.37l-.9-.4c-.53-.24-1.05-.48-1.57-.73l-1.24-.61-.57-.28c-.82-.42-1.64-.82-2.47-1.32l-.57-.31-1.24-.71c-.42-.24-.82-.46-1.19-.71l-.82-.49-1.84-1.17q-2.15-1.4-4.2-2.91l-.76-.56c-.75-.56-1.49-1.13-2.21-1.72l-.92-.75c-.42-.34-.82-.69-1.25-1-.69-.58-1.36-1.18-2-1.78s-1.41-1.31-2.1-2l-1-1c-.44-.43-.82-.82-1.27-1.3l-.67-.71c-1-1-1.89-2.06-2.8-3.13l-.9-1.07L26.57,181l-.68-.87c-.58-.74-1.13-1.49-1.64-2.24l-.82-1.14-.82-1.13a88.36,88.36,0,0,1-7.4-13.16c-.23-.49-.44-1-.66-1.49s-.34-.82-.5-1.19-.22-.53-.33-.82-.32-.82-.48-1.21-.28-.72-.41-1.09l-.37-1c-.33-.94-.65-1.89-1-2.85A87.16,87.16,0,0,1,7.4,126.52V88.15a87.28,87.28,0,0,1,.44-8.84c0-.55.12-1.1.18-1.64l0-.41q.38-3,.95-5.9c.37-1.87.82-3.72,1.27-5.53a87,87,0,0,1,7.8-19.5A88.19,88.19,0,0,1,95.38.16h9.87c1.59,0,3.16,0,4.72.13a86.43,86.43,0,0,1,16.86,2.57,87.83,87.83,0,0,1,21.81,8.81c1.05.6,2.09,1.22,3.11,1.87.47.29.93.59,1.39.9l1.64,1.09c.21.13.42.28.63.43A88.8,88.8,0,0,1,179.48,41a87.34,87.34,0,0,1,12.11,30.22c.17.89.34,1.78.49,2.69q.4,2.47.67,4.93c.12,1,.2,2,.27,3,0,.31,0,.63.06.95C193.23,84.56,193.23,86.34,193.23,88.15Z"/><path class="cls-2" d="M193.23,88.15v38.38a87.59,87.59,0,0,1-2.2,19.55c-.12.5-.24,1-.36,1.51s-.25,1-.39,1.5-.23.82-.35,1.27-.24.82-.37,1.29-.34,1.09-.51,1.64c-.12.37-.24.74-.36,1.1-.07.21-.13.4-.21.6-.13.39-.26.77-.4,1.15s-.23.64-.35,1c-.17.47-.35.94-.53,1.4v.06c-.23.57-.45,1.13-.69,1.64s-.35.82-.54,1.27c-.33.76-.67,1.52-1,2.28l-.69,1.44q-.92,1.87-1.93,3.69c-.53.94-1.06,1.87-1.64,2.79l-.91,1.49-.15.22-.9,1.38c-.3.46-.67,1-1,1.51s-.7,1-1.05,1.5v0c-.35.48-.7.95-1.05,1.41s-.73,1-1.11,1.45-.76,1-1.14,1.42c-.76.94-1.55,1.86-2.36,2.77h0l-1.23,1.34c-.41.44-.82.89-1.26,1.32s-.72.75-1.09,1.11-1,1-1.5,1.46l-1.28,1.21h0c-.45.41-.9.82-1.36,1.22l-1.36,1.18,0,0-1.38,1.13-1.31,1c-.55.44-1.1.82-1.64,1.27q-1.41,1-2.89,2c-.5.35-1,.68-1.52,1s-1,.67-1.54,1l-.12.07-1.46.87c-.52.31-1,.62-1.56.91h0l-1.43.82q-2.66,1.44-5.43,2.7-.65.31-1.33.59c-.35.16-.69.3-1,.44l-1.24.52q-2.27.91-4.61,1.7c-.58.2-1.18.39-1.77.58l-1.77.53h-.07l-1.64.45c-.62.17-1.25.33-1.88.49-.42.1-.82.21-1.26.3s-.82.2-1.27.28-.82.18-1.27.26c-.94.19-1.88.36-2.83.51-.35.07-.68.12-1,.16l-1.3.19-.94.12q-1.7.22-3.43.37l-1.48.12c-.88.06-1.76.11-2.64.14H95.38q-2.76,0-5.48-.17c-1.18-.07-2.34-.16-3.5-.29h-.34l-1.55-.18c-.46,0-.91-.12-1.37-.18s-.66-.09-1-.15l-1.3-.21c-.92-.15-1.83-.32-2.75-.51l-1.05-.21c-.82-.18-1.71-.38-2.56-.58l-.35-.09-.22-.06-1.6-.42-1.49-.42-.19-.06h0c-1.12-.33-2.24-.68-3.34-1.06-.55-.18-1.1-.38-1.64-.58s-1-.38-1.56-.58c-1.05-.39-2.1-.82-3.12-1.27-.29-.12-.57-.24-.82-.37l-.9-.4c-.53-.24-1.05-.48-1.57-.73l-1.24-.61-.57-.28c-.82-.42-1.64-.82-2.47-1.32l-.57-.31-1.24-.71c-.42-.24-.82-.46-1.19-.71l-.82-.49-1.84-1.17q-2.15-1.4-4.2-2.91l-.76-.56c-.75-.56-1.49-1.13-2.21-1.72l-.92-.75c-.42-.34-.82-.69-1.25-1-.68-.58-1.36-1.18-2-1.78s-1.41-1.31-2.1-2l-1-1c-.44-.43-.82-.82-1.27-1.3l-.67-.71c-1-1-1.89-2.06-2.8-3.13l-.9-1.07L26.57,181l-.68-.87c-.58-.74-1.13-1.49-1.64-2.24l-.82-1.14-.82-1.13a88.36,88.36,0,0,1-7.4-13.16c-.23-.49-.44-1-.66-1.49s-.34-.82-.5-1.19-.22-.53-.33-.82-.32-.82-.48-1.21-.28-.72-.41-1.09l-.37-1c-.33-.94-.65-1.89-1-2.85A87.16,87.16,0,0,1,7.4,126.52V88.15a87.28,87.28,0,0,1,.44-8.84c0-.55.12-1.1.18-1.64l0-.41q.38-3,.95-5.9c.37-1.87.82-3.72,1.27-5.53a87,87,0,0,1,7.8-19.5A88.19,88.19,0,0,1,95.38.16h9.87c1.59,0,3.16,0,4.72.13a86.43,86.43,0,0,1,16.86,2.57,87.83,87.83,0,0,1,21.81,8.81c1.05.6,2.09,1.22,3.11,1.87.47.29.93.59,1.39.9l1.64,1.09c.21.13.42.28.63.43A88.8,88.8,0,0,1,179.48,41a87.34,87.34,0,0,1,12.11,30.22c.17.89.34,1.78.49,2.69q.4,2.47.67,4.93c.12,1,.2,2,.27,3,0,.31,0,.63.06.95C193.23,84.56,193.23,86.34,193.23,88.15Z"/><circle class="cls-1" cx="57.2" cy="126.48" r="11.87"/><circle class="cls-5" cx="52.97" cy="122.39" r="4.23"/><circle class="cls-1" cx="137.87" cy="126.48" r="11.87"/><circle class="cls-5" cx="133.64" cy="122.39" r="4.23"/><ellipse class="cls-4" cx="100.33" cy="147.19" rx="9.87" ry="3.66"/><path class="cls-2" d="M5.76,122.26h0A5.76,5.76,0,0,1,11.51,128v17.35a5.76,5.76,0,0,1-5.76,5.76h0A5.76,5.76,0,0,1,0,145.36V128A5.76,5.76,0,0,1,5.76,122.26Z"/><path class="cls-2" d="M194.24,122.26h0A5.76,5.76,0,0,1,200,128v17.35a5.76,5.76,0,0,1-5.76,5.76h0a5.76,5.76,0,0,1-5.76-5.76V128A5.76,5.76,0,0,1,194.24,122.26Z"/><path class="cls-1" d="M16.45,77v35.75a9.28,9.28,0,0,1-9,9.25V87.34h0c0-2.47.18-4.93.43-7.4.07-.69.15-1.38.23-2.06q.38-3,.95-5.9c.13-.67.27-1.32.42-2,.07-.39.16-.76.25-1.14s.12-.51.18-.76A9.26,9.26,0,0,1,16.45,77Z"/><path class="cls-1" d="M185,77v35.75a9.28,9.28,0,0,0,9,9.25V87.34h0c0-2.47-.18-4.93-.43-7.4-.07-.69-.15-1.38-.23-2.06q-.38-3-.95-5.9c-.13-.67-.27-1.32-.42-2-.07-.39-.16-.76-.25-1.14s-.12-.51-.18-.76A9.26,9.26,0,0,0,185,76.94Z"/><path class="cls-1" d="M115.29.58a117.69,117.69,0,0,1-16.08,40A119,119,0,0,1,62.58,77.15,117.66,117.66,0,0,1,16.45,94.27q-4.48.66-9,1V86.52h0c0-2.47.18-4.93.43-7.4.07-.69.15-1.38.23-2.06q.38-3,.95-5.9c.13-.67.27-1.32.42-2,.07-.39.16-.76.25-1.14s.12-.51.18-.76c.13-.55.27-1.1.42-1.64A88.47,88.47,0,0,1,83.19.82,87,87,0,0,1,95.38,0h9.87c1.59,0,3.16,0,4.72.13C111.78.22,113.55.37,115.29.58Z"/><path class="cls-1" d="M194.06,88v7.4a118.29,118.29,0,0,1-94-54.85A117.58,117.58,0,0,1,84,.82,87,87,0,0,1,96.21,0h9.87c1.59,0,3.16,0,4.72.13,1.78.09,3.54.24,5.29.44A85.52,85.52,0,0,1,127.66,2.7a87.83,87.83,0,0,1,21.83,8.81q3.45,2,6.74,4.28a88.39,88.39,0,0,1,36.18,55.27c.17.89.34,1.78.49,2.69q.66,3.91.94,7.93Q194.06,84.81,194.06,88Z"/><circle class="cls-6" cx="41.66" cy="158.57" r="11.37"/><circle class="cls-6" cx="158.34" cy="158.57" r="11.37"/><path class="cls-7" d="M123.19,169.39H77.47a7.93,7.93,0,0,0-6.35,12.69c5.76,7.69,15.22,16,29.21,16s23.45-8.34,29.21-16a7.93,7.93,0,0,0-6.35-12.69Z"/></g><g id="Layer_8" data-name="Layer 8"><path class="cls-1" d="M74.51,103.24H44.81a5.76,5.76,0,0,1-5.76-5.76h0c0-3.16,35.45-5.76,35.45-5.76a5.76,5.76,0,0,1,5.76,5.76h0A5.76,5.76,0,0,1,74.51,103.24Z"/><path class="cls-1" d="M155.19,103.24h-29.7a5.76,5.76,0,0,1-5.76-5.76h0a5.76,5.76,0,0,1,5.76-5.76s35.45,2.59,35.45,5.76h0A5.76,5.76,0,0,1,155.19,103.24Z"/></g></g></svg>