<?xml version="1.0" encoding="utf-8"?>
<!-- Generator: Adobe Illustrator 21.0.2, SVG Export Plug-In . SVG Version: 6.00 Build 0)  -->
<svg version="1.1" id="Layer_1" xmlns="http://www.w3.org/2000/svg" xmlns:xlink="http://www.w3.org/1999/xlink" x="0px" y="0px"
	 viewBox="0 0 100.1 100.1" style="enable-background:new 0 0 100.1 100.1;" xml:space="preserve">
<style type="text/css">
	.st0{fill:#5CE20E;}
	.st1{fill:#D115BF;}
</style>
<title>Artboard 1</title>
<g>
	<path class="st0" d="M47.7,35.8l-1.9-7.1c-0.3-1.1-0.5-2.3-1.9-2c-1.4,0.3-1.3,1.8-0.9,3c3,7.8,2.3,16.1,3.6,24.1
		c0.1,0.4-0.2,0.9-1.4,1.6l-4.7-17.1c-1.1-3.7-1.9-7.6-3-11.3c-0.3-1.2-0.5-2.8-2.2-2.5c-1.7,0.3-1.5,2.1-1.2,3.4
		c2.1,8.2,4.3,16.4,6.4,24.7c0.4,1.6,1.8,3.7-0.6,4.6c-2.5,0.9-3-1.8-3.5-3.5c-1.8-6.5-3.3-13-5.1-19.5c-0.4-1.4-0.3-3.8-2.6-3.4
		c-2.2,0.4-1.4,2.9-1.1,4.5c1.6,6.7,3.4,13.4,5.2,20.1c0.4,1.6,1.1,3.4-1,4.1s-2.9-1.4-3.3-3.1c-1.1-4.6-2.1-9.3-3.4-13.9
		c-0.3-1.1-0.4-2.9-2-2.7c-1.6,0.2-1.2,1.9-1,3c2.9,11.5,5.9,23,9,34.6c0.3,1.4,1.1,2.6,2.3,3.4c7.3,3.1,6,10.2,7.7,15.9
		c0.4,1.2-0.1,2.5-1.3,2.9c-0.1,0-0.2,0.1-0.3,0.1c-1.5,0.3-2.2-0.7-2.6-2s-0.7-2.8-1-4.2c-0.7-3.8-1.4-7.5-5.5-9.6
		c-2.2-1.2-3.3-4.1-4.1-6.7l-8.6-34c-0.3-1.2-1-2.9-0.4-3.5c3.1-3.7,4.8-8.2,7.6-12.1c1.6-2.1,5-2.9,6.3-5.9l0.4-0.3
		C37.3,17.1,42,22.4,47,23c5,0.6,3.4,6.1,4.1,9.6C51.3,34.1,49.7,34.9,47.7,35.8z"/>
	<path class="st1" d="M48.8,47.2c-0.1-11,4.3-15.3,15-14.4c3.3,0.2,2.8-2.2,3.3-3.7c3.2-9.5,8.2-17.7,16.5-23.6
		c4.3-3.2,9.5-5,14.8-5.3c1.5-0.1,3,0.1,3.2,1.9c0.2,1.8-1.1,1.9-2.3,2.2c-18.5,5.2-27.6,16-29.9,35.2c-0.1,0.7-0.1,1.4-0.1,2.1
		c0,0.7-0.4,3-2.3,3s-2-1.3-2-2.7c-0.1-3-1-5.2-4.5-5.3c-3.4-0.3-6.4,2-6.9,5.3c-1.5,6.1-0.4,12.6,3,17.9c2,3.2,5,4.3,8.1,1.7
		c3.1-2.6,5-1.5,5.8,2.5c1,6.2,3.2,12.1,6.3,17.5c4.9,8.1,11.6,13.4,21.3,14.3c1.6,0.1,3.6,0,3.6,2.1c0,2.1-2.3,2.2-4.1,2.1
		c-9.9-0.7-17.3-6-22.9-13.9c-3.5-5-5.7-10.6-7.4-16.4c-0.4-1.4-0.3-3-2.8-3c-9.4-0.2-11.9-2.5-14.5-11.2
		C49.2,52.9,48.8,50.1,48.8,47.2z"/>
	<path class="st0" d="M55.6,84.2c1.7-4.7,4.2-9,7.1-13c1.3-1.6,1.9,0,2.2,1.4c0.3,1.4-0.6,4.6-1.9,6.4c-2.9,3.8-2.9,7.7-1.1,11.9
		c0.6,1.5,1,3,1.5,4.5c0.5,1.5,0.7,2.9-1.1,3.5c-1.8,0.6-2.7-0.6-3.1-2C58.1,92.9,56.9,88.8,55.6,84.2z"/>
	<path class="st1" d="M97.2,85.1c-6.9-0.4-13.1-4.2-16.5-10.2c-0.9-1.4-1.6-3.1,0.3-4.1c1.9-1,2.6,0.5,3.2,1.8
		c3.2,5.3,8.1,7.6,14,8.2c1.6,0.2,3.5,0.1,3.5,2.2C101.7,85.2,99.8,85.2,97.2,85.1z"/>
	<path class="st1" d="M87.7,56.1c-3.9-0.4-7.6-1.7-10.2-4.8c-0.9-1.1-1.3-2.2-0.3-3.3c1-1.1,2.2-0.7,3.2,0.2
		c4.7,4.5,9.7,4.3,14.9,0.9c1.3-0.9,2.7-1.2,3.5,0.5c0.9,1.7-0.2,2.3-1.2,3.1C94.8,54.8,91.3,56,87.7,56.1z"/>
	<path class="st0" d="M7.4,45.1c1.9,0,3.8-0.1,5.9,0c1.3,0,2.3,1.1,2.2,2.3c0,1.3-1.1,2.3-2.3,2.2H1.6c-1.3,0-2.6-0.5-2.7-2.1
		c-0.1-1.6,1.3-2.5,2.8-2.6c1.5-0.1,3.8,0,5.9,0L7.4,45.1z"/>
	<path class="st0" d="M37.2,69.6c-0.1-4.3,5.3-10.6,9.5-10.9c0.9-0.2,1.8,0.2,2.1,1.1c0.6,0.9,0.4,2.2-0.5,2.8
		c-0.2,0.1-0.4,0.2-0.6,0.3c-3.6,1.6-6.2,4.1-6.4,8.3c0,1-0.8,1.8-1.8,1.9c-0.2,0-0.3,0-0.5-0.1C37.3,72.6,37.2,71.1,37.2,69.6z"/>
	<path class="st0" d="M18.1,31.1c-0.2,0.5-0.5,1-0.9,1.4c-0.9,0.7-2.2,0.5-2.8-0.4c0,0,0,0,0-0.1l-8.1-8.2C5.5,23.1,5,22,5.7,21
		c0.5-0.5,1.1-0.8,1.8-0.9C9.1,20.1,18,29,18.1,31.1z"/>
	<path class="st0" d="M18.1,64.1c-0.3,0.7-0.8,1.3-1.3,1.8c-3.5,2.8-5.3,7.5-10.2,8.5c-0.3,0.1-1.3-1.1-1.2-1.4
		c1.6-4.5,5.9-6.7,8.9-10.1c0.5-0.5,1.1-0.8,1.8-1C17.2,61.7,18,62.5,18.1,64.1z"/>
	<path class="st1" d="M59.9,48.4c2.9,0.7,5.2,3,5.9,6c0.4,1.1-0.2,2.3-1.4,2.7c-0.1,0-0.2,0.1-0.3,0.1c-0.9,0.2-6.5-5.9-6.4-6.8
		C57.8,49.3,58.6,48.6,59.9,48.4z"/>
</g>
</svg>
