<svg id="Layer_1" data-name="Layer 1" xmlns="http://www.w3.org/2000/svg" viewBox="0 0 264.2 54.4">
  <defs>
    <style>
      .cls-1 {
        fill: #374fcd;
      }

      .cls-2 {
        fill: #04ab20;
      }

      .cls-3 {
        fill: #04ac20;
      }

      .cls-4 {
        fill: #07a729;
      }

      .cls-5 {
        fill: #08ac25;
      }

      .cls-6 {
        fill: #03ad1d;
      }

      .cls-7 {
        fill: #05aa23;
      }

      .cls-8 {
        fill: #09ac26;
      }

      .cls-9 {
        fill: #07a827;
      }

      .cls-10 {
        fill: #03a823;
      }

      .cls-11 {
        fill: #129e41;
      }

      .cls-12 {
        fill: #d8e4eb;
      }

      .cls-13 {
        fill: #0da138;
      }

      .cls-14 {
        fill: #23a450;
      }

      .cls-15 {
        fill: #128e53;
      }

      .cls-16 {
        fill: #27ad4b;
      }

      .cls-17 {
        fill: #abc1db;
      }

      .cls-18 {
        fill: #fefefe;
      }

      .cls-19 {
        fill: #fdfdfe;
      }

      .cls-20 {
        fill: #f4f5fb;
      }

      .cls-21 {
        fill: #089f34;
      }

      .cls-22 {
        fill: #0b9b3c;
      }

      .cls-23 {
        fill: #fcfdfe;
      }

      .cls-24 {
        fill: #fafbfd;
      }

      .cls-25 {
        fill: #a5b0e8;
      }

      .cls-26 {
        fill: #4e63d3;
      }

      .cls-27 {
        fill: #3a52ce;
      }

      .cls-28 {
        fill: #3a51ce;
      }

      .cls-29 {
        fill: #3f56cf;
      }

      .cls-30 {
        fill: #445ad0;
      }

      .cls-31 {
        fill: #3951ce;
      }

      .cls-32 {
        fill: #099f35;
      }
    </style>
  </defs>
  <title>logo</title>
  <g>
    <path class="cls-1" d="M50.6,63.7l-2.4,2.4c-3.1,2.7-6.7,2.5-10.3,1.8-2.1-.4-4.1-1.2-6.3-1a55,55,0,0,1-11.3.2c-1.6-.3-2.7-1.1-3-2.8s.6-3.9.4-5.8.8-5.2,1.9-7.6,0-5.6-3.2-7.3-4.5-4.7-4.1-8.4a30.8,30.8,0,0,1,.9-3.9c4-9.4,15.1-17.1,24.5-15,4.6,1,8.4,1.5,12.8,0a5.7,5.7,0,0,1,7,2.5c1.6,3-.6,4.9-2.2,7s-1,1.7-1.6,2.4-5.1,3.9-5.8,6.4,3.7,4.3,3.6,8.6A45.5,45.5,0,0,1,59,32.8c1.9-2.7-.2-5.9,1.1-8.7,1.6-4.6,4.8-6.2,9.6-5.8s7.3,0,11,.1c7.7,0,8.9,1.6,7.3,8.8L87.3,30H97.4c1,0,2.3-.5,2.9,0,4.9,3.3,9.7,1.3,14.6,0a7.5,7.5,0,0,1,4.4.1c3.1,1.3,6.1.2,9.1.2,6.7.1,14-2.8,20.2,2.3,1.2,1,2.1-.4,3.1-.9,5.5-2.4,10.9-3.2,16,.8a4.4,4.4,0,0,0,2.8.7c5.9.3,8.1,3.4,4.7,8-4.9,6.8-5.1,15.9-11.5,21.8-1.2,1.2-2.5,2.1-3.8,3.2h.1c-2.7,1.2-5.5,2.2-8.6,1.8-8.4-1-11.6-5.2-12-15.7.6-3.7.6-3.7-1.5-3-.9,4-2,8-2.8,12a9.2,9.2,0,0,1-3,5.5,16.2,16.2,0,0,1-6.4.8c-4.9,0-9.7-.8-14.8.4s-11.8-3.2-14.2-9.9c-.4-2.6-.1-5.2-.2-7.7,0-.7.1.2-.1-.5s-.5-.1-.6.4-.7,2.9-1.9,4c-1.8,3.9-.5,8.9-4.4,12.1s-7.8,1.5-11.7.7a15.2,15.2,0,0,0-7.8.4c-8.1,2.4-14.5.2-18.6-6.2-1.1-1.9-2.1-3.8-1.7-6.1-.5,2.3.6,4.3,1.5,6.3S51.9,63.3,50.6,63.7Z" transform="translate(-10.9 -16.1)"/>
    <path class="cls-1" d="M257,25.8a34.4,34.4,0,0,1,3-4.5c3.1-3.4,6.8-3.9,10.8-1.8a8.7,8.7,0,0,1,3.8,10.7c-2.3,6.4-2.7,13.2-4.4,19.7a3.7,3.7,0,0,0,.2,2.4c3.5,7.2,3.5,7.4-2.4,13.6-3,2.5-6.4,2.2-9.7.8a8.4,8.4,0,0,0-8.4.8,4.5,4.5,0,0,1-2.9.2,14.3,14.3,0,0,0-3.4-.7c-6.6.3-13.3.6-19.8-1.1l-.7.2a6,6,0,0,1-4.2,1.2c-7.9-.7-15.9.8-23.8-.7-3.5-.6-6.9,1.6-10.3.2s-3.6-3.2-3.6-5.9l4.7-12.3c1.4-2.6-.3-4.2-2-5.8s-3.8-6.1-2.1-9.9c2.1-10.6,16.7-19.4,26.7-16.1,1.7.5,3,1.3,3.6,3s.3,2.3,1.8,1c2.7-3.7,10.5-5.6,14.6-3.6a4.4,4.4,0,0,1,2.5,4.9c-.5,3.8-1.1,7.7-1.7,12.2,8.2-7,17.5-4,26.4-4.5C257.8,29.1,256.7,27.3,257,25.8Z" transform="translate(-10.9 -16.1)"/>
    <path class="cls-2" d="M97.8,57c2.5,7.2,7.9,11.2,14.6,9.5s13.3.3,19.9.2c-2,2.5-9.4,4-13.5,2-2-.9-3.2-.5-4.9.1-8.5,2.9-14.9-.3-18.1-8.8-.2-2.9-.8-5.7-.2-8.6,1.2-1.1,1.7-.3,1.8.8S97.2,55.4,97.8,57Z" transform="translate(-10.9 -16.1)"/>
    <path class="cls-3" d="M50.6,63.7l.2-2.5c-.4-1.1.1-1.3,1.1-1.2,3.3,5,8.5,8.1,13.9,6.6,8.1-2.2,16,.1,24-.5C87.8,69,80,70.8,76,68.6c-2.1-1.2-3.5-.9-5.4-.2C62.5,71.5,55.7,69.9,50.6,63.7Z" transform="translate(-10.9 -16.1)"/>
    <path class="cls-4" d="M184,66c3.4-.2,6.7.8,10.2-1.1,1.6-.8,4.3,1.4,6.8,1.3,7.4-.2,14.7-.1,22.1-.1-1.4,4.7-5.4,3.2-8.3,3-5.6-.4-11.2.1-16.8.2a7.5,7.5,0,0,1-5.8-2.2C189.3,67.8,186.3,69.8,184,66Z" transform="translate(-10.9 -16.1)"/>
    <path class="cls-5" d="M17.9,64A3,3,0,0,0,20,66.1a32.9,32.9,0,0,0,11.9,0c.8-.6,1.6-1.5,2.6-.9,4.4,3.1,9,1.8,13.6.9C46,70.7,41.4,71,37.9,69.9c-5.3-1.7-10.4-.5-15.6-.7s-7.7-2.1-5.4-8.4C18,61.6,17,63.1,17.9,64Z" transform="translate(-10.9 -16.1)"/>
    <path class="cls-6" d="M140.2,51.2c.4,12.5,5.1,16.5,17.5,14.8h2.5c-4,4.6-9.2,4-14,2.6s-7.4-5.5-7.4-10.7c0-2.6.4-5.3.6-7.9C140.1,49.9,140.6,50.2,140.2,51.2Z" transform="translate(-10.9 -16.1)"/>
    <path class="cls-2" d="M223.8,65.9c.9-1.4,1.4-3.4,3.8-1.4s5,3,7.3,2c5.1-2.2,9.9-.3,14.7.3,1-.5,1.3,0,1.2,1-8,1.8-16,1.4-24,.4C225.8,68.1,224.9,66.7,223.8,65.9Z" transform="translate(-10.9 -16.1)"/>
    <path class="cls-7" d="M12.8,35.9c.3,2.7.9,5.8,3.5,6.6,5,1.5,5.1,4.5,3.5,8.4a.5.5,0,0,1-.9,0c-.5-1.3,1-3.2-1.6-4-6.1-1.8-7.2-6.4-6.1-11.9C12.1,34.8,12.5,35.2,12.8,35.9Z" transform="translate(-10.9 -16.1)"/>
    <path class="cls-8" d="M181.9,33c0,4.2.5,8,4.8,10.5,2.5,1.5.4,3.6-.8,5.2.4-2-1.3-2.3-2.4-3.1A8.7,8.7,0,0,1,181.9,33Z" transform="translate(-10.9 -16.1)"/>
    <path class="cls-9" d="M251,67.8l-1.2-1c3-2,5.8-3.5,9.6-1s5.7.6,8.6.1c-2.9,3.7-7.5,4.7-12.1,2.4C254.2,67.4,252.8,66.4,251,67.8Z" transform="translate(-10.9 -16.1)"/>
    <path class="cls-10" d="M184,66c2.5,2,5.5.5,8.2,1.1-3,3.7-7.1,2.7-10.3,1.2s-2.5-4.6-.8-7.3C182.2,62.6,182.4,64.7,184,66Z" transform="translate(-10.9 -16.1)"/>
    <path class="cls-11" d="M60.1,24.1c-.6,2.9,3.8,6.4-1.1,8.7A11.2,11.2,0,0,1,60.1,24.1Z" transform="translate(-10.9 -16.1)"/>
    <path class="cls-12" d="M96.3,51,95.8,60c-1.8-1.6.1-4.3-1.7-5.9s.6-3.4,1-5C96.7,49,96.6,49.9,96.3,51Z" transform="translate(-10.9 -16.1)"/>
    <path class="cls-13" d="M140.2,51.2l-1-1.2-1.2-.9c.1-1.3-.3-3.7,1.9-2.8S140.9,49.5,140.2,51.2Z" transform="translate(-10.9 -16.1)"/>
    <path class="cls-14" d="M18.9,51h.9c-.6,2.4-.1,5-1.9,7-.2.5-.4.5-.7.1C17.7,55.7,17.3,53.1,18.9,51Z" transform="translate(-10.9 -16.1)"/>
    <path class="cls-10" d="M257,25.8a4,4,0,0,1,.5,4.9l-1.6-.7C256.3,28.7,255.2,26.8,257,25.8Z" transform="translate(-10.9 -16.1)"/>
    <path class="cls-9" d="M17.1,58.1h.7v6c-1.2-.8-.9-2.1-1-3.2Z" transform="translate(-10.9 -16.1)"/>
    <path class="cls-15" d="M160,66.1c.5-1.9,2.2-2.5,3.8-3.2C162.9,64.4,162.2,66.2,160,66.1Z" transform="translate(-10.9 -16.1)"/>
    <path class="cls-16" d="M12.8,35.9l-1.5-.9A6.2,6.2,0,0,1,13,31.4Z" transform="translate(-10.9 -16.1)"/>
    <path class="cls-17" d="M214,21c-.3.9-1,2.2-1.6,1.9s-.4-1.9-.3-3Z" transform="translate(-10.9 -16.1)"/>
    <path class="cls-18" d="M104.1,41.6c-2.8,0-5.9,2.4-8.1-2-.6-1.2-3.2,1.4-3.6,3.3-1.1,4.7-2.5,9.4-2.8,14.1s-3.9,5-7.6,4.9c-5.2-.1-.2-4.1-2.6-5.5-2.9,2.2-6,4.9-10.1,6C59.1,65,52.4,58.8,54.4,48.5c2.4-12,11.5-19,21.8-16.6,3.5.8,4.3,1.4,8,5.9.4-3.9,2.7-4.5,5.9-4.2s6,1.2,9.4-.2,4.2,1.2,4.5,4-1.1,2.9.1,4.3Z" transform="translate(-10.9 -16.1)"/>
    <path class="cls-18" d="M29.2,25.2c-4.7,2.9-6.3,6.6-6.4,11.2,0,1.3,1.7,3.8-1.2,3.9s-4.3-1-4.7-3.6-.3-5,1.2-7.2c4.5-6.6,10.7-9.6,18.6-9.5,2.2,0,2.5.9,2.1,2.7s-1.4,6.4-2.2,10.2c6.9-3.2,7.1-14.3,17.7-12.7L39.9,37.1c7.3,2.2,8.2,3.9,7.2,11.1-.6,4.4-4.3,8.7-.6,13.3a1.8,1.8,0,0,1-.8,1c-2.6.8-5.3,1.2-7.8,0s-2-3.7-1.6-5.8C37,53,38.1,49.5,38.9,46s.1-4.4-2.3-4.8-2.1,2.2-2.4,3.6c-1.1,4.7-2.3,9.4-3,14.1s-4.9,2.8-7.4,2.9-1.6-3-1.4-4.4C24.4,46.9,26.8,36.4,29.2,25.2Z" transform="translate(-10.9 -16.1)"/>
    <path class="cls-19" d="M167.6,39.5c1.8-.4,2.2-3.8,5.7-1.9-5.5,5.1-6.1,12.4-9.3,18.6a11.9,11.9,0,0,1-9.1,6.3c-6.3,1-10.9-2.8-10.7-9.2s2.1-12.8,7.5-17.2S164.5,32.4,167.6,39.5Z" transform="translate(-10.9 -16.1)"/>
    <path class="cls-19" d="M104.1,41.6h0c2.4-4,5.4-7.2,10.1-8.2,3.1-.7,6.4-.7,8.2,2s1.3,5.7-.1,8.6-4.9,5.4-8.5,6.4c-1.9.5-3.6.9-2.8,3.5s2.9,2.4,4.9,1.8a26,26,0,0,0,4-2c-.1,5.6-2.9,8.4-8.4,8.8s-8.9-2-9.8-6.9S102.4,46.1,104.1,41.6Z" transform="translate(-10.9 -16.1)"/>
    <path class="cls-19" d="M146.8,37.5c0,2.3-.8,3.8-2.7,4.6s-3,.7-4-.8c-3.4-5-4.3-.4-4.8,1.6-1.4,5.1-2.2,10.4-3.3,15.6-.6,3-6.7,5.1-9.1,3.3-.9-.7-.5-1.5-.3-2.2,1.6-7.6,3.3-15.3,4.8-22.9.8-4.1,3.8-2.7,6.3-2.9s5,1.2,8-.2S146.3,34.7,146.8,37.5Z" transform="translate(-10.9 -16.1)"/>
    <path class="cls-20" d="M74.8,22h6.9c1.2,0,3.1-.6,2.9,1.5s-.1,4-2.7,4c-5.1.1-10.3.1-15.4.1-1.2,0-2.6-.4-2.2-1.9s-.1-3.6,2.4-3.7h7.9Z" transform="translate(-10.9 -16.1)"/>
    <path class="cls-21" d="M96.3,51c.1-.9,0-1.8-1.2-2s-.2-3,1.8-2.8S98,47.9,98,49c-.1,2.6-.2,5.3-.2,7.9C96.1,55.3,97.8,52.8,96.3,51Z" transform="translate(-10.9 -16.1)"/>
    <path class="cls-22" d="M51.9,60.1l-1.1,1.2c-1.8-2.1-2.6-4.5-1.4-7.3C51.4,55.5,50.8,58.1,51.9,60.1Z" transform="translate(-10.9 -16.1)"/>
    <path class="cls-9" d="M32,66.1a16.6,16.6,0,0,1-11.9,0Z" transform="translate(-10.9 -16.1)"/>
    <path class="cls-18" d="M198.8,47V43.6l-.7-.3c-1.8,4.9-3.9,9.8-5.4,14.8s-3.1,4.8-6.7,3.3c1.7-7.4,5.8-14,7-21.5a58.4,58.4,0,0,1,3.8-11.9c-4,3.3-3.3,7.8-3.7,12-6.1.6-8.6-2.5-6.7-8.4s12.5-13.1,20-11.6c2.3.4,2.4,1.6,2.2,3.5-.4,5.5-.5,10.9-.7,16.4-.1,1.4-1.8,3.3,1.1,3.9,2.8-6.9,5.8-13.8,8.5-20.7,1.7-4.5,5.4-2.5,8.1-2.4s1.5,3.2,1.3,4.8c-1.5,11.2-3.3,22.4-4.8,33.5-.7,5.3-4.6,2.4-7,2.8s-2-2.2-1.9-3.8c.1-3.6,1.6-7,.6-12-2.1,4.8-4.1,8.3-5.2,12.2s-5.2,3.8-8.4,3.6-1.2-3.4-1.7-5.1a10.9,10.9,0,0,1-.2-2.5C199.1,51.9,198,49.4,198.8,47Z" transform="translate(-10.9 -16.1)"/>
    <path class="cls-19" d="M226.3,53.5c.6-6.5,1.9-12.2,6.3-16.5s6.8-4.5,11.3-3.4c2.2.5,4.6.2,6.9,0s4.3.3,3.3,3.8a101.5,101.5,0,0,0-2.5,12.2c-.4,2.4-2.8,5.3,1.7,6.9,1.3.4-.2,2.4-.8,3.4s-4,3.9-5.8,2.4c-3.9-3.2-6.9-1.3-10.6-.1C230.7,64,226.1,59.4,226.3,53.5Z" transform="translate(-10.9 -16.1)"/>
    <path class="cls-23" d="M264,34c5.3-1.2,5.5,1,4.8,4.2s-2,8.1-2.6,12.2c-.3,2.1-2.9,5.3,2.2,5.9,1.4.2.7,2.3-.1,3.4a6.4,6.4,0,0,1-7,2.7c-3.1-.7-5.1-2.7-5-5.9.1-7.3,2.5-14.3,4-21.5C260.8,32.5,263.5,34.2,264,34Z" transform="translate(-10.9 -16.1)"/>
    <path class="cls-24" d="M266.5,22c3.2.1,4.9,1.8,4.8,5a4.4,4.4,0,0,1-4.7,4.7c-3,0-4.9-1.7-4.8-5S263.4,22.1,266.5,22Z" transform="translate(-10.9 -16.1)"/>
    <path class="cls-25" d="M208.9,43.9a2.9,2.9,0,0,1-1.8,2.5c.2-2.3-.6-4.4.8-6.4C208.5,41.2,207.4,42.9,208.9,43.9Z" transform="translate(-10.9 -16.1)"/>
    <path class="cls-26" d="M198.8,47c-.1,2.4.6,4.9-.7,7.3C198.2,51.8,197.2,49.3,198.8,47Z" transform="translate(-10.9 -16.1)"/>
    <path class="cls-27" d="M75.1,43.7c-.6,3.7-1.3,7.5-4.4,10.2a5.2,5.2,0,0,1-6,.8c-2-1-2-3-1.6-4.8.8-3.7,1.4-7.6,4.9-10a4.8,4.8,0,0,1,5.2-.5A4.1,4.1,0,0,1,75.1,43.7Z" transform="translate(-10.9 -16.1)"/>
    <path class="cls-28" d="M153.6,52.4c.3-5.1,1.4-9.4,4.3-13,.7-.9,1.6-2,2.9-1.3s.4,1.9-.1,2.8a3.9,3.9,0,0,0-.1,3.8c1.7,3.4-.2,6.1-1.6,8.8s-1.9,3-3.8,2.5S154.1,53.2,153.6,52.4Z" transform="translate(-10.9 -16.1)"/>
    <path class="cls-29" d="M111.5,47.4c1.2-4.5,2.3-7.8,6.3-10.7C118.5,42.2,116.5,45.1,111.5,47.4Z" transform="translate(-10.9 -16.1)"/>
    <path class="cls-30" d="M193,40c-2.3-6.4-.6-11.2,5.6-14.2-1.7,5.1-2.7,10-5.6,14.2Z" transform="translate(-10.9 -16.1)"/>
    <path class="cls-31" d="M235.8,51.3a23,23,0,0,1,3.8-11.4c.9-1.3,2-2.4,3.7-1.8s1,2.2.8,3.4c-.6,3.4-1.3,6.8-2.2,10.1s-1.5,4.5-4.1,4.2S236.2,52.8,235.8,51.3Z" transform="translate(-10.9 -16.1)"/>
    <path class="cls-32" d="M68.8,49.5c-.1-2.2-1.5-4.8,1.8-6.2C71.5,46,70.5,47.9,68.8,49.5Z" transform="translate(-10.9 -16.1)"/>
  </g>
</svg>
