<?xml version="1.0" encoding="utf-8"?>
<!-- Generator: Adobe Illustrator 21.0.2, SVG Export Plug-In . SVG Version: 6.00 Build 0)  -->
<svg version="1.1" id="Layer_5" xmlns="http://www.w3.org/2000/svg" xmlns:xlink="http://www.w3.org/1999/xlink" x="0px" y="0px"
	 viewBox="0 0 150 203.2" style="enable-background:new 0 0 150 203.2;" xml:space="preserve">
<style type="text/css">
	.st0{fill:#FC3A3B;}
	.st1{fill:#F47C23;}
	.st2{fill:#FDC312;}
</style>
<title>Artboard 3</title>
<g>
	<path class="st0" d="M29.9,43.9c3.8,1.6,2.6,23,2.3,26.7c-0.7,6.5-2.7,12.8-6,18.5C17.5,105,3.9,119,0.7,137.5
		c-2.8,16.2,2.8,34.9,15.2,46.2C29.7,196.3,49,203,67.6,203.2c16.8,0.2,34.9-1.6,49.1-11.3c9.2-6.3,19.6-17.3,24.5-27.4
		c7-14.6,9.5-30.4,8.5-46.5c-0.7-11.3-2.8-24.4-8-34.6s-9.5-18.9-22.9-28.5c3.9,2.8-0.2,16.7-1.4,20.4c-2.5,7.3-8.4,14-15.9,16.3
		c6.9-14.6,4.6-28.6-0.1-43.6C94.2,24.8,79.5,4.1,53.8,0c25,17.9,25.4,65.6-1,80.5C54.5,54,29.9,43.9,29.9,43.9z"/>
	<path class="st1" d="M102.8,104.6c-2.4,0.9-1.6,14.2-1.4,16.5c0.5,4,1.7,7.9,3.7,11.4c5.4,9.8,13.8,18.5,15.8,29.9
		c1.7,10-1.8,21.6-9.3,28.6c-7.6,7-20.5,12-32,12.1c-10.4,0.1-21.6-0.9-30.4-7c-5.7-3.9-12.2-10.7-15.2-17c-4.3-9-5.9-18.8-5.3-28.8
		c0.4-7,1.8-15.1,4.9-21.4s5.9-11.7,14.2-17.6c-2.4,1.7,0.1,10.4,0.9,12.6c1.6,4.5,5.2,8.7,9.9,10.1c-4.3-9-2.8-17.7,0.1-26.9
		c4.5-14.4,13.6-27.1,29.5-29.7c-15.5,11-15.7,40.6,0.6,49.8C87.6,110.9,102.8,104.6,102.8,104.6z"/>
	<path class="st2" d="M58.7,145.6c1.4,0.5,0.9,8.3,0.8,9.7c-0.3,2.4-1,4.6-2.2,6.7c-3.2,5.8-8.1,10.8-9.2,17.5
		c-1.2,6.6,1,12.6,5.5,16.6s12,7,18.7,7c6.7,0.1,12.6-0.5,17.7-4.1c3.3-2.3,7.1-6.2,8.9-9.9c2.4-5.2,3.5-11,3-16.8
		c-0.3-4.1-1-8.8-2.8-12.5c-1.8-3.7-3.5-6.8-8.3-10.3c1.4,1-0.1,6-0.5,7.4c-0.9,2.6-3,5.1-5.8,5.9c2.5-5.2,1.7-10.4,0-15.7
		c-2.6-8.4-7.9-15.8-17.2-17.3c9.1,6.4,9.1,23.7-0.4,29.1C67.6,149.3,58.7,145.6,58.7,145.6z"/>
</g>
</svg>
