<?xml version="1.0" encoding="utf-8"?>
<!-- Generator: Adobe Illustrator 21.0.2, SVG Export Plug-In . SVG Version: 6.00 Build 0)  -->
<svg version="1.1" id="master-artboard" xmlns="http://www.w3.org/2000/svg" xmlns:xlink="http://www.w3.org/1999/xlink" x="0px"
	 y="0px" viewBox="0 0 106 100" style="enable-background:new 0 0 106 100;" xml:space="preserve">
<style type="text/css">
	.st0{fill:#FFFFFF;}
	.st1{fill:#E31E26;}
	.st2{fill:#EDCF22;}
	.st3{fill:#F6871F;}
	.st4{fill:#5BA044;}
	.st5{fill:#258DB7;}
	.st6{fill:#263B97;}
	.st7{fill:#7350A1;}
</style>
<g transform="matrix(0.6132411956787109, 0, 0, 0.6132411956787109, -60.35408401489261, -7.644487595563111e-15)">
	<path class="st0" d="M271.2,111c-0.1-0.4-0.2-0.9-0.3-1.3c-0.1-0.4-0.2-0.9-0.3-1.3c-0.1-0.4-0.3-0.9-0.6-1.3
		c-0.2-0.4-0.4-0.9-0.6-1.3c-0.2-0.4-0.4-0.7-0.7-1.1c-0.5-0.7-1.2-1-1.7-1.6c-0.3-0.5-0.9-0.6-1.2-1.1c-0.2-0.3-0.6,0-0.8-0.3
		c-0.6-0.1-1.2-0.5-1.9-0.4c-0.4,0-0.8,0-1.1-0.2c-0.3-0.2-0.8-0.1-1.1,0c-0.1,0-0.2,0.1-0.3,0.2c-0.3,0-0.7,0-1.1,0
		c-0.3,0-0.6,0.2-1,0.3c-0.6,0.1-1,0.2-1.2,0.9c-0.1,0.3-0.4,0.4-0.7,0.3c-0.3,0-0.2-0.4-0.3-0.5c-0.1-0.1-0.2-0.2,0-0.3
		c0.2-0.2,0.1-0.6,0.1-0.9c0-0.3,0.3-0.6,0.3-1c0-0.1,0.2-0.3,0.2-0.5c0-0.4,0-0.8,0.1-1.2c0.2-0.4,0.1-0.9,0.2-1.3
		c0-0.2,0-0.4,0.1-0.5c0.1-0.2,0.1-0.4,0.1-0.7c0-1.5,0-2.9,0-4.4c0-0.2,0-0.4-0.1-0.6c-0.2-0.2-0.2-0.5-0.2-0.8
		c0-0.4,0.1-0.9-0.1-1.3c-0.3-0.4-0.1-0.9-0.2-1.3c0,0,0-0.1,0-0.1c-0.4-0.9-0.5-1.9-1-2.8c-0.2-0.3-0.3-0.7-0.5-1
		c0.1-0.5-0.4-0.7-0.6-1.1c-0.2-0.4-0.4-0.8-0.7-1.2c-0.3-0.3-0.6-0.6-0.8-1c-0.2-0.5-0.5-0.8-0.8-1.1c-0.6-0.6-1.3-1.3-2.1-1.7
		c-0.2-0.1-0.4-0.2-0.6-0.4c-0.5-0.5-1.6-1.3-2.3-1.5c-0.3-0.1-0.6-0.4-1-0.3c-0.3,0.1-0.6-0.2-1-0.2c-0.5-0.1-0.9-0.1-1.4-0.3
		c-0.5-0.1-1,0-1.4,0c-1,0-2,0-3,0c-0.4,0-0.9,0-1.3,0c-0.4,0-0.7,0.3-1.1,0.4c-0.1,0-0.3,0.1-0.4,0.1c-0.4,0-0.8-0.1-1.1,0.3
		c-0.5-0.1-0.8,0.2-1.2,0.3c-0.9,0.2-1.7,0.5-2.6,1.1c-0.1,0.1-0.3,0.1-0.5,0.2c-0.4,0.3-1,0.4-1.3,0.9c-0.4,0.5-0.9,0.7-1.3,1.2
		c-0.3,0.4-0.6,0.7-0.9,1.1c-0.6,0.6-0.9,1.4-1.3,2.1c-0.3,0.5-0.5,1-0.8,1.5c-0.4,0.6-0.6,1.3-0.9,1.9c0.1,0.5-0.4,0.9-0.3,1.4
		c0.1,0.5-0.1,0.9-0.4,1.2c-0.3,0.3-0.4,0.3-0.6,0c-0.3-0.3-0.6-0.7-0.8-1.1c-0.4-1-1.4-1.2-2.1-1.8c-0.3-0.3-0.8-0.3-1.2-0.4
		c-0.2,0-0.4-0.1-0.6-0.2c-0.6-0.2-1.1-0.2-1.7-0.7c-0.1-0.1-0.3,0-0.4,0c-0.6,0-1.1,0-1.7,0c-0.3,0-0.5,0-0.7,0.2
		c-0.1,0.1-0.3,0.1-0.4,0.1c-0.4,0-0.8,0-1.3,0.2c-0.4,0.2-0.9,0.1-1.3,0.6c-0.1,0.1-0.3,0.1-0.5,0.1c-0.5-0.1-0.9,0.2-1.3,0.5
		c-0.2,0.1-0.3,0.3-0.6,0.4c-0.3,0-0.5,0.2-0.7,0.4c-0.2,0.2-0.3,0.4-0.6,0.6c-0.2,0.2-0.5,0.3-0.6,0.5c-0.2,0.2-0.3,0.5-0.4,0.7
		c-0.8,1.3-0.8,1.3-1.4,3.2c-0.3,0.3-0.3,0.8-0.3,1.3c0,0.2,0,0.4,0,0.6c0,0.3-0.1,0.5-0.3,0.6c-0.4,0.2,0.1,0.6-0.2,0.8
		c0,0.3,0.2,0.6,0.2,1c0,0.3,0,0.7,0,1.1c0,0.1,0.1,0.2,0.2,0.4c0.3,0.5,0.3,0.5,0,0.8c-0.2,0.3-0.5,0.4-0.8,0.4c-0.4,0-0.9,0-1.3,0
		c-0.4,0-0.7,0-0.9,0.4c-0.2,0.3-0.5,0.3-0.7,0.1c-0.1,0-0.3-0.2-0.4,0c-0.2,0.2-0.6,0-0.8,0.3c-0.8,0.1-1.4,0.8-2.2,0.7
		c-0.2,0.2-0.5,0.2-0.7,0.3c-0.2,0.1-0.4,0.4-0.6,0.6c-0.2,0.2-0.4,0.6-0.7,0.6c-0.2,0.6-1,0.6-1,1.4c-0.6,0.6-0.8,1.5-1.3,2.1
		c-0.2,0.2-0.5,0.4-0.5,0.9c0,0.5-0.5,0.6-0.5,1c0,0.4-0.2,0.7-0.4,0.9c-0.1,0.1-0.2,0.3-0.2,0.5c0,0.2,0,0.4-0.1,0.6
		c-0.3,0.3-0.2,0.8-0.2,1.2c0,0.4-0.3,0.8-0.3,1.3c0.1,0.5,0,1.1,0,1.6c0,0.6,0.2,1.2,0.3,1.7c0,0.2,0,0.4,0.1,0.6
		c0.1,0.3,0.3,0.7,0.4,1.1c0.2,0.7,0.6,1.2,0.9,1.7c0.6,1,1.1,2.1,1.9,2.9c0.3,0.3,0.5,0.7,0.9,0.8c0.6,0.7,1.4,1,2,1.5
		c0.4,0.2,0.8,0.2,1.2,0.5c0.4-0.1,0.7,0.3,1.1,0.3c0.4-0.1,0.7,0.3,1.1,0.3c0.3,0,0.5,0.2,0.7,0.2c0.3,0,0.5,0,0.8,0
		c0.5,0,1.1,0,1.6,0c0.4,0,0.8,0,1.1-0.2c0.1-0.1,0.5,0.2,0.6,0.1c0.3-0.3,0.7,0,1-0.2c0.3-0.3,0.8-0.1,1.1-0.5
		c0.8,0,1.4-0.7,2.2-0.7c0.1,0,0.2-0.1,0.3-0.2c0.3-0.4,0.2-0.4,0.6-0.1c0.3,0.1,0.6,0.2,0.5,0.7c0,0.8,0,1.7,0,2.6
		c0,0.2,0,0.4,0,0.6c0.3,0.5,0.5,0.9,0.5,1.5c0,0.4,0.3,0.8,0.5,1.2c0.6,0.8,0.8,1.7,1.3,2.5c0.1,0.2,0.3,0.5,0.4,0.7
		c0.4,0.7,0.7,1.5,1.3,2c0.1,0.1,0.1,0.2,0.2,0.4c0.5,1,1.1,1.9,1.7,2.7c0.6,0.9,1.6,1.4,2.2,2.2c0,0,0.2,0.1,0.2,0.1
		c1,0.8,2.2,1.3,3.2,2c0.9,0.2,1.7,0.8,2.6,0.7c0.1,0,0.3,0,0.4,0c0.3,0.3,0.8,0.2,1.1,0.2c0.3,0,0.6,0,0.8,0.1
		c0.2,0.1,0.4,0.2,0.6,0.2c1,0,2,0,3,0c0.2,0,0.4,0,0.5,0c0.3-0.3,0.8-0.2,1.1-0.2c0.2,0,0.4,0,0.6-0.1c0.2-0.2,0.5-0.1,0.8-0.1
		c0.3,0,0.4-0.3,0.7-0.3c0.6,0,1.1-0.2,1.6-0.4c0.7-0.2,1.4-0.4,2-0.8c0.7-0.5,1.4-0.7,2.1-1.1c1.1-0.6,2-1.5,3.1-1.9
		c0.4-0.6,1.1-0.8,1.6-1.2c0.8-0.7,1.7-1.3,2.4-2.2c0-0.1,0.1-0.2,0.2-0.2c0.6,0,0.6-1,1.1-1.1c0.1-0.6,0.6-0.8,0.9-1.3
		c0.3-0.4,0.6-0.9,1-1.4c0.8-1.1,1.4-2.2,1.9-3.9c0.3-0.3,0.3-0.9,0.5-1.4c0.5-1,0.8-1.2,1.7-1c0.1,0,0.2,0.1,0.2,0.1
		c0.3,0.3,0.9-0.1,1.2,0.4c0.3,0,0.5,0,0.8,0c0.6,0,1.3,0,1.9,0l0,0c0.4,0,0.8,0,1.2,0c0.4,0,0.9,0,1.3,0c0.4,0.1,0.7-0.4,1.1-0.3
		c0.5,0,0.8-0.3,1.1-0.5c0.2-0.2,0.4-0.3,0.6-0.4c0.6-0.4,1.4-0.5,1.8-1.1c0.4-0.6,0.8-1.4,1.2-2c0.2-0.3,0.5-0.5,0.5-0.8
		c0-0.7,0.5-1.2,0.7-1.9c0.4-1.2,0.7-2.5,1.1-3.7c0.1-0.3,0.1-0.7,0.1-1c0-0.1,0-0.2,0-0.3c0.3-0.3,0.2-0.6,0.2-1
		C271.2,111.7,271.3,111.3,271.2,111z"/>
	<path class="st0" d="M185,113.7c0-0.3,0.2-0.5,0-0.9c-0.2-0.3-0.1-0.9,0-1.3c0.1-0.5-0.3-0.9-0.3-1.4c0-0.3,0-0.7-0.2-1
		c-0.2-0.2-0.1-0.6-0.3-1c-0.4-0.7-0.6-1.5-1-2.2c-0.3-0.6-0.8-1-1.3-1.5c0,0-0.1-0.1-0.2-0.2c-0.4-0.4-0.7-1-1.1-1.2
		c-0.6-0.3-1.1-0.9-1.7-1.2c-0.2-0.1-0.4-0.3-0.7-0.4c-0.4-0.1-0.8,0-1.1-0.3c-0.1-0.1-0.3,0-0.5,0c-0.1,0-0.3,0-0.4,0
		c-0.5-0.4-1-0.2-1.5-0.3c-0.9,0-1.7,0-2.6,0c-0.3,0-0.6,0-0.9,0.2c-0.1,0.1-0.3,0.1-0.5,0.1c-0.3,0-0.6,0-0.9,0
		c-0.4-0.1-0.6,0.3-1,0.3c-0.5-0.1-0.7,0.2-1,0.5c-0.1,0.1-0.2,0.2-0.3,0.3c-0.2,0.1-0.8,0.1-1-0.1c-0.3-0.2-0.3-0.5-0.1-0.9
		c0.1-0.3,0.3-0.6,0.1-0.8c-0.3-0.4-0.2-0.7-0.2-1.1s0.1-0.8,0-1.2c-0.3-0.7-0.3-1.4-0.6-2c-0.6-1.4-1.3-2.7-2.2-3.7
		c-0.5-0.6-1.1-1.2-1.6-1.8c-0.8-1-1.9-1.7-2.8-2.5c-0.2-0.1-0.4-0.2-0.5-0.4c-0.3-0.4-0.6-0.5-0.9-0.7c-0.3-0.2-0.7-0.4-1-0.6
		c-0.4-0.2-0.8-0.3-1.2-0.4c-0.1,0-0.2-0.1-0.3-0.2c-0.4-0.2-0.8-0.5-1.3-0.4c-0.4-0.4-0.9-0.3-1.4-0.3c-0.4,0-0.9,0-1.3,0
		c-0.4-0.4-0.9-0.2-1.4-0.3c-0.3,0-0.7,0-1.1,0s-0.7-0.1-1,0.2c-0.1,0.1-0.3,0-0.5,0.1c-0.4,0-0.9,0-1.3,0c-0.3,0.4-0.8,0.2-1.2,0.3
		c-0.4,0.4-1,0.1-1.4,0.5c-0.4,0-0.6,0.3-1,0.3c-0.4,0-0.6,0.3-0.9,0.4c-0.3,0.1-0.6,0.3-0.9,0.4c-0.5,0.1-0.9,0.4-1.4,0.7
		c-0.5,0.2-0.8,0.6-1.3,0.9c-0.6,0.4-1.3,0.8-1.8,1.3c-0.6,0.5-1.3,1-1.8,1.7c-0.2,0.3-0.5,0.5-0.8,0.7c-0.4,0.3-0.8,0.7-1.1,1.3
		c-0.3,0.7-1,1.2-1.2,2.1c0,0.1-0.3,0.2-0.5,0.4c-0.2,0.1-0.3-0.2-0.4-0.2c-0.4,0-0.3-0.5-0.6-0.6c-0.4-0.1-0.8-0.4-1.3-0.7
		c-0.1,0-0.2-0.1-0.3-0.1c-0.4,0-0.8,0-1.2-0.3c-0.3-0.2-0.8,0-1.1-0.2c-0.3-0.2-0.8,0-1.2-0.4c-0.5,0.1-0.8-0.3-1.2-0.3
		c-0.6,0-1.2,0-1.8,0c-0.6,0.5-1.2,0.1-1.8,0.2c0,0-0.1,0-0.1,0.1c-0.3,0.3-0.8,0.1-1.1,0.5c-0.5-0.1-0.7,0.4-1,0.5
		c-0.5,0.2-0.9,0.5-1.3,0.9c-0.4,0.4-0.8,0.7-1.2,1.1c-1.1,1.1-1.9,2.6-3,3.7c0,0-0.1,0.1-0.1,0.2c-0.4,0.9-1.1,1.6-1.4,2.6
		c-0.4,0.4-0.6,1.1-0.9,1.6c-0.5,1-0.7,1.5-0.7,2.4c0,0.5,0,1,0,1.5c0,0.2-0.2,0.3-0.2,0.5c0,0.2,0.2,0.3,0.2,0.5
		c0,0.3,0.2,0.5,0.4,0.7c0.3,0.3,0.2,0.7,0.1,1s-0.4,0.5-0.6,0.8c0,0-0.1-0.1-0.2-0.1c-0.2-0.1-0.5-0.2-0.6-0.4
		c-0.1-0.1-0.2-0.2-0.3-0.2c-0.4,0-0.8,0.1-1.2-0.2c-0.4,0.5-0.9,0.1-1.4,0.3c-0.4,0.2-0.8,0.3-1.2,0.5c-0.4,0.2-0.8,0.6-1.1,0.9
		c-0.8,0.7-1.3,1.7-1.9,2.6c-0.4,0.6-0.7,1.3-1,2c-0.3,0.7-0.4,1.5-0.8,2.1c0.1,0.6-0.3,1-0.3,1.5c0,0.7,0,1.5,0,2.2
		c0,0.2,0.1,0.4,0.1,0.5c0.1,0.3,0.1,0.6,0.2,0.8c0.1,0.3,0.5,0.5,0.5,0.9c0.8,1.3,1.7,2.5,2.9,3.3c0.6,0.4,1.2,0.6,1.6,1.2
		c0,0,0.2,0,0.3,0.1c0.6,0.4,1.1,0.7,1.8,0.6c0.2,0,0.5,0,0.6,0.1c0.3,0.3,0.7,0.2,1,0.2c0.5,0,1.1,0,1.6,0c0.3,0,0.6,0,0.8-0.3
		c0.5,0.1,0.8-0.4,1.2-0.3c0.5,0.1,0.8-0.3,1.2-0.3c0.4,0,0.8-0.1,1.1-0.3c0.2-0.1,0.4-0.4,0.7-0.3c0.6-0.3,1.2-0.5,1.7-1.1
		c0.3-0.3,0.6-0.4,0.8-0.6c0,0,0.2,0,0.3,0c0.3,0,0.6,0.8,0.4,1c-0.2,0.3-0.4,0.5-0.6,0.8c-0.2,0.2-0.3,0.5-0.1,0.7
		c0.3,0.4,0.3,0.9,0.3,1.4c0,0.3,0.2,0.5,0.3,0.8c0.2,0.6,0.7,1.2,0.6,1.9c0,0.1,0.1,0.2,0.2,0.4c0.1,0.1,0.3,0.3,0.3,0.5
		c0,0.6,0.4,1.1,0.6,1.6c0.2,0.6,0.5,1.1,0.8,1.7c0.3,0.5,0.6,1,0.8,1.5c0.4,0.1,0.6,0.6,0.9,0.9c0.4,0.2,0.7,0.8,1.1,1.1
		c0.4,0.4,0.9,0.5,1.3,0.9c0.2,0.2,0.5,0.4,0.8,0.5c0.6,0.2,1.1,0.5,1.6,0.8s1.1-0.1,1.5,0.4c0.1,0.1,0.3,0,0.4,0
		c0.4,0,0.9-0.1,1.2,0.3c1,0,2,0,3,0c0,0,0.1,0,0.1,0c0.3-0.3,0.6-0.2,1-0.2c0.6,0,1.1,0,1.7,0c0.3,0,0.6,0,0.8,0
		c0.3,0,0.5-0.2,0.7-0.3c0.4-0.1,0.8-0.4,1.2-0.3c0.6-0.5,1.3-0.6,2-1c0.7-0.4,1.4-0.8,2-1.2c0.7-0.4,1.3-0.9,2-1.3
		c0.3-0.2,0.6-0.4,0.8-0.7c0.4-0.5,0.9-0.9,1.2-1.4c0.4-0.6,0.8-1.2,1.2-1.9c0.3-0.5,0.7-1,0.9-1.5c0.3-0.6,0.7-1.1,0.8-1.8
		c0.1-0.4,0.4-0.7,0.5-1.2c0.1-0.4,0.3-0.8,0.5-1.2c0.1-0.2,0.1-0.4,0.3-0.4s0.4,0,0.6,0c0.1,0.5,0.6,0.5,0.8,0.9
		c0.1,0.4,0.5,0.5,0.7,0.8c0.4,0.3,0.7,0.7,1.1,0.9c0.8,0.3,1.4,1.1,2.2,1c0.3,0.4,0.9,0.1,1.2,0.4c0.3,0.3,0.8,0,1.1,0.3
		c0.3,0.3,0.8,0.2,1.1,0.1c1,0,2,0.2,3-0.2c0.3-0.1,0.8,0,1.1-0.3c0.5,0.1,0.8-0.2,1.2-0.3c0.3,0,0.4-0.3,0.7-0.3
		c0.9,0,1.5-0.5,2.2-1.2c0.1-0.1,0.3-0.3,0.4-0.3c0.8-0.3,1.3-1,1.8-1.6c0.3-0.4,0.6-0.8,0.8-1.3c0.1-0.2,0.1-0.5,0.2-0.8
		c0.1-0.3,0-0.7,0.2-1c0.1-0.3,0.2-0.6,0.1-0.9c-0.1-0.8,0.4-1.5,0.3-2.3c0-0.2,0.1-0.5,0.3-0.6c0.2-0.2,0.5-0.3,0.8-0.5
		c0.4,0.4,1,0.1,1.5,0.4c0.3,0.1,0.5,0.2,0.7,0.2c0.6,0,1.2,0,1.8,0l0,0c0.5,0,1,0,1.4,0c0.3,0,0.6,0,0.8,0c0.3,0,0.5-0.4,0.8-0.3
		c0.5,0.1,0.8-0.1,1.2-0.4c0.5-0.4,1.1-0.8,1.5-1.4c0.8-1,1.5-2,2.2-3.1c0.3-0.6,0.6-1.2,0.9-1.7c0.4-0.6,0.1-1.4,0.2-2
		C185,114.4,184.9,114.1,185,113.7z"/>
	<path class="st1" d="M240,54.8c0-0.1-0.2-0.2-0.2-0.4c-0.1-0.2-0.2-0.5-0.3-0.8c-0.2-0.6-0.4-1.2-0.5-1.8c-0.1-0.7-0.6-1.2-0.6-1.9
		c0-0.3-0.3-0.6-0.4-0.9c-0.1-0.1-0.3-0.3-0.3-0.5c-0.1-1.2-1-1.9-1.2-3c-0.1-0.3-0.3-0.5-0.4-0.9c0-0.3-0.3-0.6-0.5-0.8
		c0.1-0.5-0.4-0.8-0.5-1.2c-0.1-0.5-0.6-0.7-0.6-1.3c-0.6-1.2-1.1-2.5-1.7-3.7c-0.7-1.2-1.2-2.5-2.1-3.4c0,0-0.1-0.1-0.2-0.2
		c-0.2-0.7-0.8-0.9-1-1.5c-0.3-0.6-0.7-1-1.1-1.5c-0.8-0.9-1.5-1.9-2.5-2.6c-0.4-0.5-0.9-0.9-1.4-1.3c-0.4-0.3-0.8-0.6-1.1-1
		c-0.3-0.3-0.7-0.3-1-0.6c-0.6-0.7-1.4-1.1-2.1-1.7c-0.6-0.5-1.3-1-1.9-1.5c-0.5-0.3-1.1-0.6-1.6-0.9c-0.5-0.3-1-0.7-1.5-1
		c-0.4-0.2-0.8-0.4-1.2-0.5c-0.4-0.1-0.8-0.5-1.3-0.6c-0.3,0-0.6-0.5-0.9-0.5c-0.4,0-0.7-0.3-1.1-0.4c-0.3,0-0.6-0.3-1-0.3
		c-0.3-0.3-0.7-0.1-0.9-0.4c-0.3-0.2-0.6-0.1-0.9-0.4c-0.3-0.2-0.7-0.4-1.1-0.3c-0.5-0.4-1.1-0.2-1.6-0.6c-0.2-0.1-0.5-0.1-0.7-0.3
		c-0.3-0.1-0.6-0.1-0.8-0.3c-0.5,0.2-0.9-0.3-1.4-0.3c-0.5,0-0.9-0.4-1.4-0.3c-0.3,0-0.6-0.3-0.8-0.3c-0.3,0-0.6,0-0.9,0
		c-0.4,0.1-0.6-0.3-1-0.3c-0.4,0-0.8,0.1-1.1-0.3c-0.4,0-0.9,0-1.3,0c-0.1,0-0.2,0-0.3-0.1c-0.3-0.3-0.7-0.2-1-0.2
		c-0.4,0-0.9,0-1.3,0c-0.4-0.4-0.9-0.2-1.4-0.3c-1,0-1.9,0-2.9,0l0,0c-1.2,0-2.4,0-3.6,0c-0.2,0-0.5,0-0.6,0
		c-0.3,0.3-0.8,0.2-1.1,0.2c-0.4,0-0.9-0.1-1.2,0.2c-0.4,0-0.8,0-1.2,0c-0.4,0-0.8,0.4-1.2,0.3c-0.4-0.1-0.9,0-1.3,0
		c-0.2,0-0.4,0-0.5,0.1c-0.3,0.2-0.6,0.2-0.8,0.2c-0.4,0-0.9,0-1.3,0c-0.6,0.4-1.1,0.2-1.7,0.3c-0.1,0-0.3,0-0.3,0.1
		c-0.2,0.2-0.4,0.1-0.6,0.1c-0.4,0-0.8,0-1.1,0.2c-0.3,0.2-0.7,0.1-1,0.1c-0.4,0.4-1,0.1-1.4,0.5c-0.6-0.1-1,0.3-1.5,0.4
		c-0.4,0.4-1,0.1-1.4,0.5c-0.4,0-0.8,0.3-1.2,0.3c-0.4,0-0.8,0.3-1.2,0.2c-0.1,0-0.2,0-0.3,0c-0.5,0.4-1.1,0.4-1.7,0.7
		c-0.5,0.2-0.9,0.5-1.4,0.5c-0.7,0.5-1.5,0.7-2.2,1c-0.3,0.1-0.7,0.3-1,0.6c-0.3,0.3-0.7,0.2-1.1,0.5c-0.3,0.3-0.8,0.4-1.1,0.6
		c-0.3,0.3-0.7,0.2-1.1,0.4c-1.1,0.7-2.4,1.2-3.5,2.1c0,0-0.2,0.1-0.3,0.1c-0.4,0-0.6,0.3-0.9,0.4c-0.3,0.1-0.6,0.3-0.8,0.5
		c-0.3,0.3-0.6,0.1-0.9,0.4c-0.9,0.9-2,1.2-3,1.9c-0.5,0-0.9,0.3-1.3,0.6c-0.4,0.2-0.8,0.5-1.2,0.8c-0.4,0.3-0.8,0.5-1.2,0.8
		c-0.5,0.4-1,0.8-1.6,1.2c-0.4,0.2-0.8,0.5-1.1,0.9c-0.4,0.3-0.7,0.7-1,1.2c-0.3,0.5-0.8,0.7-1.2,1.1c-0.9,1-1.5,2.3-2.5,3.2
		c0,0-0.1,0.1-0.1,0.1c-0.2,0.7-0.8,1.2-1.1,1.8c-0.3,0.5-0.7,0.9-0.9,1.4c-0.3,0.5-0.7,1-0.8,1.6c-0.1,0.5-0.5,0.7-0.6,1.1
		c-0.1,0.4-0.3,0.8-0.6,1.1c-0.5,0.8-1,1.6-1.4,2.5c-0.3,0.7-0.7,1.4-1,2c-0.2,0.4-0.5,0.8-0.6,1.3c-0.3,0.6-0.6,1.2-0.8,1.8
		c-0.3,0.6-0.5,1.3-0.8,1.8c-0.3,0.6-0.5,1.3-0.7,1.8c-0.1,0.3-0.2,0.6-0.3,0.9c-0.1,0.2-0.3,0.5-0.4,0.8c-0.1,0.3-0.2,0.6-0.3,1
		c-0.1,0.3-0.1,0.6-0.2,0.8c-0.2,0.3-0.1,0.6-0.2,0.9c0,0.3-0.2,0.5-0.3,0.8c0,0.3,0,0.8-0.1,1c-0.2,0.3,0,0.7-0.3,1
		c-0.1,0.1-0.1,0.3-0.1,0.4c0.1,0.8-0.4,1.5-0.3,2.3c0,0.1,0,0.2-0.1,0.2c-0.2,0.2-0.1,0.6-0.1,0.9c0,0.3-0.4,0.6-0.3,1
		c0.1,0.3-0.1,0.5-0.2,0.8c-0.1,0.3,0.1,0.8-0.1,1c-0.2,0.4-0.3,0.8-0.2,1.3c0,0.4-0.4,0.8-0.3,1.3c0,0.2-0.2,0.5-0.2,0.8
		c0,0.3,0.1,0.7,0,0.9c-0.3,0.5-0.2,1.2-0.3,1.7c0,0.2,0,0.4,0,0.6c-0.4,0.7-0.2,1.5-0.3,2.2c0,0.1,0,0.3,0,0.4
		c-0.3,0.3-0.2,0.8-0.2,1.1c0,0.3,0.1,0.7,0,0.9c-0.3,0.5-0.2,1.2-0.2,1.7c0,1.4,0,2.8,0,4.2c0,0.2,0,0.6,0,0.7
		c0.3,0.4,0.2,0.9,0.2,1.3c0,0.9,0,1.8,0,2.7c0,0.1,0,0.3,0,0.4c0,0.1,0.1,0.2,0.2,0.2c0.3,0,0.7,0.1,1-0.1c0.3-0.1,0.6-0.2,0.9-0.2
		c0.6,0,1.3-0.1,1.9,0.3c0.1,0.1,0.3,0,0.5,0c0.1,0,0.2-0.1,0.2-0.3c0-0.3,0.1-0.6-0.1-0.9c-0.3-0.3,0.2-0.6,0-0.9
		c-0.1-0.2-0.1-0.3-0.1-0.5c0-1.4,0-2.8,0-4.2c0-0.2,0-0.4,0.1-0.6c0.3-0.6,0.2-1.1,0-1.7c-0.2-0.6-0.1-1.3,0-1.9
		c0.3-0.3,0.2-0.6,0.2-1c0-0.4,0-0.8,0-1.2c0-0.4,0-0.8,0-1.2c-0.1-0.4,0.3-0.7,0.3-1.1c-0.1-0.8,0.4-1.5,0.3-2.3
		c0.3-0.3,0.3-0.8,0.3-1.3c-0.1-0.5,0.3-0.8,0.3-1.3c0-0.4-0.1-0.9,0.1-1.2c0.2-0.4,0-0.9,0.2-1.1c0.3-0.3,0.1-0.8,0.3-1.1
		c0.1-0.1,0.1-0.4,0.1-0.5c0-0.3,0.1-0.5,0.2-0.8c0.1-0.3,0.4-0.7,0.3-1.1c0.5-0.4,0-1.2,0.5-1.6c0-0.5,0.3-0.9,0.4-1.4
		c0.2-0.4,0.2-1,0.6-1.3c0-0.5,0.3-0.9,0.6-1.3c0,0,0-0.1,0-0.1c0-0.6,0.3-1,0.6-1.5c0.2-0.5,0.3-1.1,0.6-1.6
		c0.4-0.9,0.8-1.8,1.3-2.7c0.5-0.9,0.8-1.8,1.3-2.7c0.5-0.7,0.8-1.6,1.4-2.3c0.7-0.9,1.3-1.8,1.9-2.8c0.3-0.4,0.6-0.9,0.9-1.3
		c0.3-0.3,0.6-0.6,0.8-1c0.3-0.3,0.6-0.7,0.9-1.1c0.3-0.3,0.6-0.6,0.8-1c0.3-0.4,0.8-0.4,0.9-1c0.4-0.2,0.8-0.4,0.8-1
		c0.7-0.4,1.3-1.1,2-1.6c0.1-0.1,0.3-0.2,0.4-0.3c0.4-0.4,0.8-0.8,1.2-1.1c0.5-0.3,0.8-0.9,1.3-1.2c0.4-0.2,0.6-0.7,1-0.9
		c0.3-0.1,0.7-0.4,0.9-0.8c0.3-0.4,0.7-0.6,1.1-0.7c0.6-0.6,1.3-0.9,1.9-1.4c0.3-0.2,0.6-0.8,1.1-0.6c0.3-0.2,0.6-0.6,0.9-0.7
		c0.4-0.1,0.8-0.4,1.1-0.6c0.3-0.2,0.7-0.4,1-0.6c0.4-0.2,0.8-0.4,1.2-0.5c0.3-0.4,0.7-0.5,1.1-0.6c0.8-0.4,1.5-1.1,2.3-1.5
		c0.8-0.4,1.5-0.9,2.2-1.3c0.8-0.4,1.6-0.7,2.3-1.2c0.4-0.2,0.8-0.2,1.2-0.4c0.4-0.1,0.8-0.4,1.1-0.6c0.4-0.1,0.8-0.5,1.1-0.6
		c0.4,0,0.6-0.4,1-0.3c0.4,0.1,0.7-0.4,1.1-0.3c0.5,0.1,0.8-0.4,1.2-0.3c0.3-0.2,0.5-0.3,0.8-0.3c0.6,0,1.1-0.5,1.7-0.3
		c0.3-0.2,0.6-0.4,0.8-0.3c0.4,0.1,0.6-0.3,1-0.3c0.4,0,0.7-0.3,1.1-0.3c0.5,0,1,0,1.5-0.3c0.3-0.1,0.7,0,0.9-0.1
		c0.4-0.3,0.8-0.2,1.1-0.2c0.5,0,1,0,1.4,0c0.5-0.5,1.1-0.2,1.6-0.3c1.1,0,2.2,0,3.3,0c0.3,0,0.6,0,0.9-0.2c0.1-0.1,0.3-0.1,0.5-0.1
		c1.1,0,2.2,0,3.3,0c0.2,0,0.4,0,0.5,0.1c0.3,0.3,0.7,0.2,1,0.2c0.4,0,0.9,0,1.3,0c0.3,0.4,0.8,0.2,1.2,0.3c0.1,0,0.3,0,0.4,0
		c0.3,0.3,0.6,0.2,1,0.2c0.3,0,0.6-0.1,0.8,0c0.5,0.4,1,0.2,1.5,0.3c0.2,0,0.5,0,0.6,0c0.3,0.3,0.8,0.3,1.1,0.2
		c0.4-0.1,0.7,0.4,1.1,0.3c0.3,0,0.7-0.1,0.9,0c0.3,0.2,0.7,0.1,1,0.2c0.4,0.1,0.8,0.5,1.3,0.5c0.5,0,0.9,0.4,1.4,0.4
		c0.2,0,0.4,0.3,0.6,0.2c0.4,0,0.7,0.2,1,0.3c0.3,0.1,0.6,0.5,0.9,0.5c0.4,0.1,0.7,0.1,0.9,0.5c0,0,0.1,0.1,0.2,0.1
		c0.7,0,1.1,0.6,1.7,0.9c0.6,0.3,1.3,0.7,1.9,1.1c0.3,0.1,0.6,0.1,0.8,0.4c0.3,0.3,0.6,0.5,0.9,0.6c0.6,0.2,1.1,0.8,1.7,1.1
		c0.6,0.3,1.1,0.8,1.6,1.2c0.6,0.5,1.2,1.1,1.9,1.5c0.4,0.3,0.8,0.6,1.1,1c0.3,0.4,0.8,0.6,1.1,1c1.4,1.5,2.8,3.1,4.2,4.7
		c0.2,0.2,0.5,0.4,0.5,0.8c0.8,1,1.2,2.1,1.7,3.2c0.1,0.2,0.3,0.5,0.4,0.7c0.4,0.7,0.9,1.4,1.1,2.2c0.2,0.7,0.5,1.3,0.8,2
		c0.2,0.5,0.3,1.1,0.6,1.4c0.1,1.1,0.8,1.9,1.1,2.9c0.1,0.3,0.5,0.7,0.5,1c0,0.5,0.3,0.8,0.3,1.3c0,0.3,0.3,0.7,0.3,1.1
		c0,0.1,0,0.3,0.1,0.4c0.2,0.5,0.5,1,0.4,1.5c0.3,0.4,0.3,0.8,0.3,1.3c0.3,0.3,0.2,0.8,0.4,1.2c0.2,0.3,0.1,0.8,0.3,1.1
		c-0.1,0.4,0.3,0.7,0.3,1.1c-0.1,0.4,0.3,0.7,0.3,1.1c0,0.5,0.3,0.8,0.3,1.3c-0.1,0.5,0.3,0.9,0.3,1.4c0,0.1,0.2,0.3,0.2,0.5
		c0,0.3,0,0.7,0,1.1s0.3,0.6,0.2,1c0,0.8,0.5,1.5,0.3,2.3c0.4,0.4,0.1,1.1,0.3,1.5c0.3,0.5,0.2,1.1,0.2,1.6c0,0.3,0.1,0.4,0.4,0.4
		c1.1,0,2.1,0,3.1,0c0.4,0,0.7,0,1.1-0.2c0.6-0.3,0.6-0.2,0.4-1c-0.1-0.2-0.1-0.5-0.1-0.7c0-0.6,0-1.2,0-1.8c0-0.2,0-0.4,0-0.6
		c-0.3-0.4-0.2-0.9-0.2-1.3c0-0.1,0-0.3,0-0.4c-0.4-0.5-0.2-1.2-0.3-1.7c0-0.2,0-0.5-0.2-0.7c-0.1-0.1-0.1-0.4-0.1-0.6
		c0-0.7-0.1-1.4-0.3-2c-0.1-0.4-0.3-0.8-0.3-1.3c0-0.2-0.1-0.5-0.2-0.7c-0.1-0.4-0.3-0.8-0.3-1.2c0-0.4-0.4-0.6-0.3-1
		c0.1-0.4-0.3-0.7-0.3-1.1c0-0.4-0.4-0.7-0.3-1.1C240,55.7,240.1,55.2,240,54.8z"/>
	<path class="st2" d="M226.3,81.5C226.3,81.4,226.4,81.4,226.3,81.5c0.2-0.6,0.7-0.8,0.8-1.3c0.4-0.9,1.1-1.5,1.7-2.2
		c0.6-0.2,1-0.9,1.6-1.3c0.5-0.3,0.6-0.8,0.3-1.4c-0.1-0.2-0.2-0.4-0.2-0.7c0-0.4,0.1-0.8-0.1-1.2c-0.3-0.4-0.1-0.9-0.2-1.3
		c0,0,0-0.1,0-0.1c-0.3-0.3-0.2-0.7-0.2-1.1c0-0.4-0.4-0.7-0.3-1.1c0.2-0.6-0.4-1.1-0.3-1.7c0-0.1-0.1-0.2-0.1-0.4
		c-0.2-0.3,0-0.8-0.3-1.1c0.1-0.4-0.3-0.7-0.3-1.1c0.1-0.4-0.3-0.7-0.3-1.1c0-0.5-0.3-0.9-0.3-1.3c0-0.5-0.2-0.8-0.3-1.3
		c-0.1-0.5-0.2-1-0.3-1.5c-0.1-0.5-0.3-1-0.5-1.5c-0.3-0.5-0.3-1.1-0.7-1.5c-0.3-0.3-0.5-0.7-0.5-1.2c-0.1-0.7-0.4-1.3-0.7-1.9
		c-0.3-0.6-0.5-1.3-0.9-1.7c0-0.5-0.6-0.6-0.6-1.1c-0.4-0.7-0.6-1.5-1.2-2c-0.1-0.5-0.4-0.7-0.7-1.1c-0.1-0.1-0.2-0.2-0.2-0.4
		c0-0.4-0.2-0.6-0.4-0.9c-0.3-0.3-0.6-0.7-0.8-1.2c-0.3-0.5-0.8-0.9-1.2-1.4c-0.4-0.5-0.8-1.1-1.1-1.6c-0.4-0.6-1.1-1-1.3-1.8
		c0-0.1-0.2-0.2-0.3-0.3c-0.3-0.1-0.6-0.3-0.7-0.8c0-0.1-0.2-0.4-0.3-0.4c-0.4-0.1-0.6-0.5-0.9-0.8c-0.3-0.4-0.8-0.7-0.9-1.3
		c-0.5-0.1-0.8-0.6-1.1-1c-0.2-0.1-0.3-0.4-0.5-0.5c-0.8-0.5-1.5-1.3-2.3-1.8c-0.4-0.2-0.7-0.7-1.1-0.9c-0.5-0.2-0.8-0.7-1.3-0.9
		c-0.4-0.2-0.9-0.3-1.3-0.7c-0.4-0.4-0.9-0.5-1.4-0.8c-0.6-0.4-1.4-0.5-2-1c-0.5,0-0.8-0.4-1.2-0.4c-0.3-0.4-1,0-1.3-0.5
		c-0.4,0-0.8-0.3-1.2-0.3c-0.5,0-0.8-0.3-1.2-0.3c-0.3,0-0.7,0.2-1-0.1c-0.3-0.3-0.8,0-1.1-0.3c-0.1-0.1-0.2,0-0.3,0
		c-0.1,0-0.2,0.1-0.2,0.1c-0.5-0.4-1.1-0.2-1.7-0.3c-0.2,0-0.5,0-0.6-0.1c-0.3-0.2-0.5-0.2-0.8-0.2c-2.7,0-5.3,0-8,0
		c-0.2,0-0.5,0-0.6,0c-0.3,0.3-0.8,0.2-1.1,0.2c-0.4,0-0.8,0-1.2,0c-0.6,0.5-1.2,0.2-1.8,0.3c-0.4,0-0.8,0-1.2,0
		c-0.5,0.5-1.2,0-1.7,0.6c-0.6,0-1.1-0.1-1.6,0.3c-0.5,0-0.9,0.2-1.4,0.2c-0.5,0-0.9,0.3-1.4,0.3c-0.5,0-0.8,0.4-1.2,0.4
		c-0.5,0-0.9,0.3-1.3,0.5c-0.1,0-0.2,0.1-0.3,0.1c-0.3,0-0.5,0-0.8,0.1c-0.3,0.1-0.6,0.2-0.8,0.3c-0.6,0.2-1.3,0.6-1.9,0.7
		c-0.5,0.1-1,0.3-1.4,0.5c-0.5,0.1-0.8,0.4-1.3,0.4c-0.4,0-0.8,0.1-1.1,0.3c-0.2,0.1-0.4,0.3-0.6,0.3c-0.3,0-0.6,0.4-1,0.3
		c-0.3,0.4-0.7,0.2-1.1,0.5c-0.3,0.2-0.6,0.3-0.9,0.5c-0.2,0.1-0.3,0.2-0.5,0.2c-0.6,0.1-1,0.7-1.7,0.7c-0.1,0-0.2,0.1-0.3,0.2
		c-0.4,0.3-0.8,0.6-1.2,0.9c-0.6,0.3-1.1,0.6-1.7,1c-0.7,0.4-1.4,0.8-1.9,1.5c-0.2,0.2-0.4,0.3-0.6,0.4c-0.2,0.1-0.4,0.2-0.6,0.3
		c-0.4,0.5-1,0.8-1.4,1.3c-0.4,0.6-1,0.9-1.5,1.4c-0.6,0.6-1.1,1.3-1.7,1.9c-0.2,0.2-0.3,0.3-0.4,0.6c-0.5,1-1.3,1.8-1.8,2.9
		c-0.6,0.6-1,1.3-1.5,2c-0.4,0.6-0.8,1.2-1.1,1.8c-0.2,0.3-0.3,0.7-0.6,1c-0.1,0.1-0.2,0.4-0.3,0.6c-0.5,0.6-0.8,1.3-1,2
		c-0.3,0.8-0.8,1.4-1.1,2.1c-0.2,0.5-0.4,1-0.6,1.6c-0.2,0.5-0.4,1.1-0.6,1.6c-0.1,0.4-0.3,0.7-0.3,1.1c-0.1,0.4-0.4,0.6-0.3,1.1
		c-0.4,1-0.6,2.1-1,3.1c-0.2,0.7-0.4,1.4-0.6,2c-0.1,0.3,0.1,0.6-0.2,0.9c-0.2,0.2,0,0.7-0.3,1c-0.2,0.2-0.1,0.6-0.3,0.8
		c-0.2,0.3-0.1,0.6-0.1,0.9c0,0.3-0.2,0.5-0.3,0.8c0,0.3,0,0.6,0,0.9c0,0.3-0.1,0.6-0.2,0.8c-0.2,0.5-0.3,1-0.3,1.5
		c-0.1,0.5-0.2,0.9-0.3,1.4c-0.1,0.5,0,1,0,1.5c0,0.1,0,0.3,0,0.4c-0.3,0.3-0.2,0.7-0.2,1.1c0,1.8,0,3.6,0,5.4l0,0
		c0,1.7,0,3.5,0,5.2c0,0.2,0,0.5,0,0.7c0,0,0,0.1,0.1,0.1h0.1c0.3-0.3,0.6-0.6,0.8-0.9c0.3-0.3,0.7-0.5,1-0.9
		c0.6-0.7,1.3-1.3,2.1-1.6c0.3-0.1,0.5-0.4,0.7-0.6c0.2-0.2,0.2-0.5,0.1-0.7c-0.3-0.6-0.2-1.2-0.2-1.8c0.2-0.2,0.1-0.4,0-0.6
		c0.2-0.2,0.2-0.5,0.2-0.8c0-0.2,0-0.5,0-0.7c0-0.1,0-0.3,0-0.4c0.4-0.6,0.3-1.3,0.2-1.9c0-0.7,0.3-1.2,0.3-1.8
		c0-0.1,0.1-0.2,0.1-0.4c0.4-1.4,0.8-2.8,1.2-4.1c0.4-1.2,0.6-2.5,1.1-3.6c0.1-0.2,0.1-0.5,0.1-0.7c0-0.2,0.1-0.4,0.1-0.5
		c0.2-0.6,0.5-1.2,0.6-1.7c0.1-0.5,0.4-0.9,0.5-1.4c0.1-0.5,0.3-0.9,0.6-1.3c0.2-0.2,0.2-0.5,0.3-0.8c0-0.2,0-0.4,0.2-0.5
		c0.4-0.4,0.6-1.1,0.8-1.6c0.3-0.6,0.7-1,0.8-1.6c0.3-0.8,0.6-1.6,1.1-2.3c0.7-1,0.9-2.3,1.7-3c0,0,0-0.1,0-0.1
		c0.3-0.8,0.8-1.5,1.2-2.2c0.5-0.8,1-1.5,1.7-2c0.1-0.1,0.2-0.2,0.2-0.3c0-0.3,0.5-0.2,0.6-0.6c0-0.2,0.3-0.5,0.5-0.7
		c0.4-0.4,0.7-0.9,1.2-1.2c0.5-0.2,0.7-0.9,1.2-1c0.9-1.1,2.2-1.6,3.3-2.5c0.4,0,0.6-0.6,0.8-0.6c0.5,0,0.6-0.5,1-0.6
		c0.3-0.1,0.4-0.3,0.6-0.5c0.2-0.1,0.5-0.1,0.7-0.3c0.3-0.2,0.8-0.3,1-0.6c0.6-0.6,1.3-0.9,2-1.3c0.7-0.4,1.4-0.8,2.2-1.3
		c0.6,0,1-0.5,1.5-0.6c0.6-0.1,1.1-0.5,1.7-0.7c0.5-0.1,0.9-0.6,1.4-0.7c0.5-0.1,0.9-0.5,1.5-0.4c0.3-0.5,0.8-0.1,1.2-0.4
		s0.8-0.1,1.3-0.1c0.1,0,0.3,0,0.4,0c0.4-0.4,0.8-0.2,1.2-0.2c0.2,0,0.4,0,0.5,0c0.6-0.4,1.2-0.2,1.8-0.3c0.1,0,0.2,0,0.3,0
		c0.8-0.5,1.6-0.2,2.4-0.3c0.1,0,0.3,0,0.4,0c0.3-0.3,0.8-0.2,1.1-0.2c0.4,0,0.8,0,1.2,0c0.6-0.5,1.2-0.2,1.8-0.3c0.3,0,0.6,0,0.9,0
		c0.3-0.1,0.5-0.2,0.7-0.2c1.9,0,3.9,0,5.9,0c0.2,0,0.4,0,0.5,0.1c0.3,0.3,0.7,0.2,1,0.2c0.4,0,0.9,0,1.3,0c0.3,0.4,0.8,0.2,1.2,0.2
		c0.3,0,0.6,0.1,1,0.3c0.3,0.1,0.8,0,1.2,0c0,0,0.1,0,0.1,0.1c0.6,0.2,1.1,0.6,1.7,0.5c0.7,0.5,1.6,0.6,2.3,1.1
		c0.8,0.5,1.6,0.9,2.4,1.4c0.2,0.1,0.5,0.2,0.7,0.4c0.8,0.8,1.8,1.3,2.7,1.9c1.1,0.9,2.3,1.7,3.2,2.9c0.3,0.3,0.4,0.8,0.7,1.1
		c0.6,0.6,1.1,1.4,1.6,2.1c0.6,0.8,1,1.7,1.6,2.5c0.1,0.1,0.1,0.3,0.2,0.4c0.1,0.3,0.3,0.6,0.5,0.9c0.7,1.4,1.5,2.7,2.1,4.1
		c0.2,0.5,0.2,1.1,0.6,1.4c0,0,0,0.2,0.1,0.3c0.2,0.8,0.4,1.5,0.8,2.3c0.3,0.5,0.4,1.1,0.5,1.6c0.1,0.6,0.2,1.1,0.6,1.6
		c0.1,0.1,0.2,0.2,0.2,0.3c0,0.5,0.3,0.9,0.3,1.4c0,0.6,0.2,1.2,0.4,1.6c0.4,0.9,0.6,1.9,1.1,2.8c0,0.1,0.1,0.2,0.1,0.3
		c-0.1,0.8,0.4,1.4,0.3,2.2c0,0.1,0,0.3,0.1,0.4c0.3,0.3,0,0.7,0.3,1c0.3,0.3,0.1,0.7,0.3,1.1c0.2,0.3,0.3,0.8,0.3,1.2
		c0,0.4,0,0.9,0.3,1.3c-0.1,0.5,0.4,0.8,0.3,1.3c0.3,0.3,0.2,0.8,0.4,1.2c0.2,0.4,0.4,0.9,0.4,1.4c-0.1,0.5,0.3,0.8,0.3,1.3
		c0,0.3,0.3,0.6,0.3,1C226.2,81.3,226.2,81.4,226.3,81.5z"/>
	<path class="st3" d="M231.7,73.5c0.3,0.4,0.2,0.9,0.3,1.4c0,0.1,0.1,0.3,0.2,0.4c0.1,0.1,0.1,0.2,0.3,0.1c0.7-0.3,1.4-0.5,2.1-0.9
		c0.1,0,0.3-0.2,0.3-0.1c0.6,0.1,1.1-0.4,1.8-0.3c0.2,0,0.3-0.2,0.3-0.4c0-0.2,0.1-0.5,0-0.6c-0.4-0.4-0.1-1.1-0.4-1.5
		c-0.3-0.4,0-1.1-0.3-1.7c-0.2-0.3,0.1-0.8-0.1-1.2c-0.3-0.4-0.1-0.9-0.2-1.3c0-0.1,0-0.3-0.1-0.4c-0.4-0.4-0.1-0.9-0.3-1.4
		c-0.2-0.4-0.2-1-0.4-1.5c0.2-0.6-0.4-1-0.3-1.5c-0.2-0.5-0.3-1-0.5-1.5c-0.1-0.3,0-0.7-0.3-0.9c0.1-0.4-0.3-0.7-0.3-1.1
		c0-0.5-0.3-0.8-0.3-1.3c0.1-0.5-0.3-0.9-0.3-1.4c0-0.2-0.3-0.5-0.2-0.7c0.1-0.5-0.3-0.8-0.3-1.3c0-0.4-0.4-0.8-0.5-1.2
		c0-0.4-0.2-0.9-0.4-1.2c-0.2-0.4-0.5-0.7-0.5-1.2c-0.6-1.1-0.8-2.3-1.4-3.4c-0.3-0.5-0.5-0.9-0.6-1.4c-0.1-0.4-0.2-0.7-0.4-1
		c-0.3-0.5-0.6-1.2-0.9-1.7c-0.3-0.6-0.6-1.1-0.9-1.7c-0.5-1.2-1.1-2.2-1.9-3.1c-0.3-0.4-0.8-0.8-1-1.4c-0.2-0.4-0.5-0.7-0.8-0.9
		c-0.3-0.2-0.6-0.4-0.8-0.7c-0.6-0.7-1.1-1.5-1.9-1.9c-0.6-0.8-1.4-1.3-2.1-1.8c-0.8-0.5-1.4-1.2-2.2-1.6c-0.8-0.5-1.6-1.1-2.5-1.5
		c-0.9-0.5-1.8-1.1-2.7-1.5c-0.9-0.5-1.8-1-2.8-1.5c-0.9-0.4-1.8-0.8-2.7-1.2c-0.3-0.1-0.6-0.2-1-0.3c-0.3-0.1-0.7-0.2-1.1-0.3
		c-0.5-0.1-0.9-0.1-1.4-0.3c-0.3-0.1-0.6-0.2-1-0.3c-0.3-0.1-0.7,0-1.1,0c0,0-0.1,0-0.1,0c-0.3-0.3-0.6-0.3-1-0.2
		c-0.4,0-0.7-0.2-1.1-0.3c-0.4,0-0.9-0.1-1.3,0c-0.5,0.1-0.8-0.4-1.2-0.3c-0.3,0-0.6,0.1-0.8,0c-0.6-0.4-1.4-0.2-2-0.3
		c-0.1,0-0.3,0-0.4,0c-0.6-0.5-1.2-0.2-1.8-0.3c-1.6,0-3.1,0-4.7,0c-0.2,0-0.5-0.1-0.6,0c-0.4,0.4-0.9,0.2-1.4,0.2
		c-0.3,0-0.6,0-0.9,0l0,0c-0.6,0-1.1,0-1.7,0c-0.2,0-0.4,0-0.5,0c-0.3,0.3-0.8,0.2-1.1,0.2c-0.4,0-0.7,0.4-1.1,0.3
		c-0.3,0-0.7-0.1-1,0.1c-0.3,0.3-0.8,0-1.1,0.2c-0.3,0.1-0.6,0.3-0.8,0.2c-0.4-0.1-0.6,0.3-1,0.3c-0.4,0-0.7,0.2-1.1,0.3
		c-0.3,0-0.6,0-0.9,0c-0.3,0-0.6,0.4-1,0.3c-0.3-0.1-0.5,0.3-0.8,0.3c-0.8,0-1.5,0.6-2.3,0.7c-0.2,0-0.4,0.2-0.6,0.3
		c-0.1,0-0.3,0.2-0.3,0.2c-0.4,0-0.7,0.3-1.1,0.4c-0.3,0-0.6,0.5-0.9,0.5c-0.4,0-0.8,0.2-1.1,0.4c-0.3,0.2-0.8,0.1-1.1,0.4
		c-0.3,0.3-0.8,0.2-1.1,0.5c-0.3,0.4-0.8,0.4-1.3,0.6c-0.6,0.4-1.1,0.9-1.7,1.2c-1.3,0.7-2.5,1.4-3.8,2.1c-0.9,0.5-1.9,1.1-2.8,1.6
		c-0.3,0.5-0.8,0.6-1.3,0.9c-0.4,0.3-0.8,0.6-1.3,0.9c-1.4,0.9-2.2,1.5-3.3,2.6c-0.1,0-0.1,0.2-0.2,0.2c-0.5,0.1-0.6,0.7-1,0.9
		c-0.5,0.2-0.8,0.6-1.1,1c-0.1,0.1-0.2,0.2-0.3,0.3c-0.6,0.4-1.2,1-1.7,1.5c-0.3,0.2-0.6,0.4-0.8,0.7c-0.2,0.2-0.3,0.6-0.6,0.7
		c0,0.4-0.4,0.4-0.6,0.7c-0.9,1-1.8,2-2.7,3c-0.5,0.6-0.8,1.4-1.4,1.9c0,0,0,0.1-0.1,0.1c-0.3,1-1,1.7-1.5,2.5
		c-0.8,1.2-1.5,2.5-2.2,3.8c0,0.1,0,0.3-0.1,0.4c-0.5,0.4-0.6,1.1-0.8,1.6c-0.3,0.6-0.6,1.2-0.7,1.8c-0.2,0.8-0.5,1.5-0.8,2.2
		c-0.4,0.9-0.8,1.8-1.1,2.8c-0.1,0.5-0.3,0.9-0.5,1.4c-0.1,0.2-0.2,0.3-0.2,0.5c0,0.4-0.1,0.7-0.3,1c-0.1,0.2-0.3,0.5-0.3,0.8
		c0,0.3-0.2,0.7-0.3,1c-0.1,0.5-0.2,1.1-0.4,1.5c-0.2,0.5,0,1.1-0.4,1.5c-0.2,0.2,0,0.7-0.2,1c-0.2,0.3,0,0.8-0.1,1.2
		c0,0.1,0,0.2,0,0.3c-0.4,0.6-0.2,1.3-0.3,1.9c0,0.1,0,0.3-0.1,0.4c-0.3,0.3-0.2,0.6-0.2,1c0,0.2,0,0.4,0,0.6
		c-0.4,0.7-0.2,1.5-0.3,2.3c0,0.3,0,0.6-0.2,0.8c0,0.1,0,0.3,0,0.4c0,0.2,0.2,0.3,0.2,0.5c0,1,0,1.9,0,2.9c0,0.2,0,0.4-0.1,0.6
		c-0.2,0.6-0.2,1.2,0,1.7c0,0.2,0,0.3,0,0.5c-0.2,0.6-0.2,1.3,0,1.9c0.1,0.3,0.2,0.6,0.2,1c0,0.5,0,1,0,1.5c0,0.3,0.2,0.6,0.3,0.8
		c0.1,0.1,0.3,0.1,0.5,0.1c0.5,0.1,1,0.4,1.5,0.4c0.3,0.3,0.8,0.1,1.1,0.5c0.5-0.1,0.7,0.3,1,0.6c0.1,0,0.3,0,0.3-0.1
		c0.3-0.2,0.5-0.6,0.8-0.8c0.3-0.2,0.3-0.5,0.3-0.9c0-3,0-6,0-9c0-0.3,0-0.7-0.2-1c-0.1-0.2-0.1-0.7,0-0.9c0.3-0.5,0.2-1,0.2-1.5
		c0-0.3,0-0.8,0.1-1c0.2-0.4,0.2-0.8,0.2-1.2c0-0.5,0-1.1,0-1.6c0-0.4,0.2-0.9,0.4-1.2c0.3-0.5,0-1,0.2-1.4c0.2-0.3,0.2-0.7,0.2-1
		c0-0.4,0.4-0.7,0.3-1.1c-0.1-0.6,0.3-1,0.3-1.5c0-0.5,0.3-1,0.4-1.5c0.1-0.3,0-0.8,0.3-1.1c0,0,0-0.2,0-0.3c0-0.6,0.3-1.1,0.4-1.6
		c0.1-0.3,0-0.8,0.3-1.1c0-0.5,0.2-0.9,0.4-1.2c0.2-0.4,0-0.8,0.2-1.1c0.4-0.9,0.4-1.9,0.9-2.7c0.1-0.2,0.3-0.5,0.3-0.8
		c0.1-0.7,0.5-1.3,0.7-1.8c0.2-0.6,0.4-1.2,0.7-1.7c0.4-0.5,0.6-1.2,0.9-1.7c0.6-1.2,1.4-2.2,2-3.4c0.6-1.1,1.1-2.2,2-3
		c0.3-0.2,0.5-0.5,0.5-0.8c0.6-0.7,1-1.6,1.7-2.3c0.4-0.4,0.8-0.8,1-1.4c0.1-0.3,0.4-0.6,0.6-0.7c0.8-0.5,1.3-1.3,1.9-1.9
		c0.2-0.1,0.3-0.3,0.5-0.4c0.7-0.5,1.3-1.1,2-1.6c1-0.8,2-1.6,3.2-2.1c0.7-0.3,1.4-0.7,2-1.2c0.7-0.5,1.5-0.7,2.2-1.1
		c0.5-0.2,0.9-0.7,1.6-0.6c0.1,0,0.2-0.1,0.3-0.2c0.4-0.1,0.6-0.5,1.1-0.4c0.3-0.3,0.6-0.2,1-0.3c0.3-0.1,0.6-0.3,0.9-0.5
		c0.1,0,0.2,0,0.3,0c0.3,0,0.6-0.1,0.8-0.2c0.3-0.1,0.6-0.2,0.8-0.3c0.3-0.1,0.6,0,0.9-0.2c0.3-0.2,0.7-0.1,0.9-0.4
		c0.8,0,1.4-0.7,2.2-0.6c0.3-0.2,0.5-0.3,0.8-0.3c0.3,0,0.6-0.2,0.8-0.3c0.4-0.1,0.7-0.3,1.1-0.3c0.4,0,0.8-0.3,1.2-0.2
		c0.1,0,0.2,0,0.3,0c0.3-0.3,0.6-0.3,0.8-0.2c0.4,0.1,0.6-0.3,1-0.3c0.4,0,0.8,0.1,1.1-0.1c0.4-0.3,0.8-0.1,1.3-0.2
		c0.1,0,0.2,0,0.3,0c0.3-0.3,0.6-0.2,1-0.2c0.2,0,0.5,0,0.6-0.1c0.3-0.2,0.5-0.1,0.8-0.2c0.8,0,1.6,0.1,2.3-0.3c0,0,0.1,0,0.1,0
		c0.2,0.1,0.3,0.2,0.5,0.2c0.2,0,0.3-0.2,0.6-0.2c0.3,0,0.6,0.1,0.9,0c0.3-0.2,0.6-0.3,0.9,0c0.2-0.2,0.4-0.2,0.6-0.2
		c1.2,0,2.5,0,3.7,0c0.2,0,0.4,0,0.5,0.1c0.2,0.1,0.4,0.2,0.6,0.2c0.5,0,1,0,1.4,0c0.5,0,1.1,0,1.6,0c0.5-0.1,0.9,0.3,1.4,0.3
		c0.6,0,1.1,0,1.7,0.3c0.3,0.1,0.7,0.1,1,0c0.4,0,0.6,0.4,1,0.3c0.5-0.1,0.9,0.2,1.3,0.4c0.2,0.1,0.3,0.2,0.5,0.2
		c0.5-0.1,0.9,0.5,1.5,0.3c0.3,0.5,0.8,0.1,1.2,0.4s0.7,0.4,1,0.6c0.3,0.1,0.6,0.4,1.1,0.5c0.3,0.1,0.7,0.4,1,0.5
		c0.8,0.3,1.5,1,2.3,1.5c0.8,0.5,1.6,1,2.2,1.7c0.2,0.2,0.4,0.3,0.6,0.5c0.8,0.5,1.5,1,2.2,1.8c0.5,0.6,1,1.3,1.7,1.6
		c0.3,0.8,1,1.4,1.5,2c0.3,0.3,0.5,0.7,0.9,0.8c0.1,0,0.1,0.2,0.2,0.3c0.3,0.3,0.6,0.6,0.8,1c0.3,0.3,0.4,0.7,0.7,1.1
		c0.8,1,1.6,1.8,2.3,2.9c0.8,1.1,1.4,2.2,2,3.3c0.1,0.2,0.2,0.4,0.3,0.6c0.1,0.2,0.3,0.3,0.4,0.6c0.2,0.5,0.4,0.9,0.7,1.4
		c0.3,0.4,0.4,1.1,0.8,1.5c0.1,0.5,0.3,1,0.6,1.4c0.1,0.1,0.2,0.3,0.3,0.5c0,0.7,0.4,1.3,0.7,1.9c0.2,0.6,0.4,1.2,0.7,1.7
		c0.3,0.5,0.3,1.2,0.6,1.7c0,0,0.1,0.1,0.1,0.1c-0.1,0.6,0.3,1,0.3,1.5c0,0.5,0.4,0.9,0.3,1.4c0.4,0.4,0.1,1.1,0.3,1.5
		c0.1,0.3,0.3,0.7,0.4,1.1c0.1,0.4,0.3,0.8,0.3,1.2c0,0.4,0.2,0.7,0.3,1.1c0.1,0.6,0.4,1.2,0.3,1.8c0,0.3,0,0.7,0.2,1
		c-0.1,0.7,0.4,1.4,0.3,2.1C231.6,73.2,231.6,73.4,231.7,73.5z"/>
	<path class="st4" d="M219,81.6c0,0.3,0,0.7,0.1,1c0,0.2,0.2,0.4,0.2,0.7c0,0.2,0.1,0.3,0.3,0.3c0.2,0,0.4-0.1,0.5,0
		c0.3,0.3,0.7,0.2,1.1,0.5c0.4,0.3,0.9,0.4,1.4,0.8c0.3,0.2,0.6,0.6,0.8,0.9c0.1,0.1,0.2,0.2,0.3,0.3c0.2,0.1,0.4,0.1,0.5-0.2
		c0.1-0.6,0.3-1.1,0.6-1.6c0.1-0.2,0.3-0.5,0.3-0.8c0-0.4,0.1-0.8,0-1.2c-0.1-0.3-0.3-0.6-0.2-1c0.1-0.4-0.3-0.7-0.3-1.1
		c0-0.6-0.3-1-0.3-1.5c-0.5-0.4,0-1.1-0.4-1.5c0-0.8-0.7-1.5-0.6-2.3c-0.2-0.5-0.5-1-0.5-1.5c0-0.6-0.4-1-0.3-1.5
		c-0.2-0.3-0.3-0.6-0.3-1c0-0.3-0.2-0.5-0.2-0.8c0-0.3,0-0.7,0-1.1c0-0.1,0-0.2,0-0.3c-0.4-0.6-0.4-1.5-0.8-2.1
		c-0.3-0.6-0.5-1.3-0.7-2c-0.3-1-0.5-2-1-3c-0.2-0.4-0.3-0.8-0.3-1.2c0-0.4-0.2-0.8-0.3-1.1c-0.4-1-0.9-1.8-1.1-2.9
		c-0.1-0.5-0.4-1-0.5-1.5c-0.1-0.4-0.5-0.8-0.7-1.2c-0.3-0.8-0.6-1.6-1.2-2.2c-0.1-0.1-0.1-0.3-0.1-0.4c-0.3-0.3-0.3-0.8-0.6-1.1
		c-0.2-0.3-0.3-0.6-0.6-0.9c-0.3-0.3-0.5-0.7-0.7-1.1c-0.2-0.5-0.6-0.9-0.8-1.3c-0.3-0.4-0.6-0.9-0.9-1.3c-0.4-0.6-1-1-1.2-1.7
		c-0.1-0.2-0.4-0.4-0.6-0.6c-0.2-0.1-0.4-0.2-0.5-0.4c-0.5-0.6-1.2-0.9-1.8-1.4c-0.3-0.2-0.6-0.2-0.8-0.4c-0.4-0.5-1.1-0.6-1.5-1.1
		c-0.5-0.5-1.2-0.6-1.6-1.2c-0.3,0-0.5-0.4-0.8-0.3c-0.1,0-0.3-0.1-0.3-0.1c-0.2-0.2-0.4-0.5-0.8-0.4c-0.6-0.4-1.1-0.5-1.8-0.7
		c-0.6-0.2-1.3-0.6-2-0.5c-0.1,0-0.2,0-0.3,0c-0.4-0.4-0.9-0.2-1.4-0.3c-0.1,0-0.3,0-0.4,0c-0.6-0.4-1.2-0.2-1.8-0.3
		c-0.1,0-0.2,0-0.3-0.1c-0.2-0.4-0.6,0.3-0.8-0.1c-0.3,0-0.6,0-0.9,0c-0.4,0-0.8,0-1.2,0c-0.4,0-0.8,0-1.2,0c-0.4,0-0.9,0-1.3,0
		c-0.4,0-0.8,0-1.2,0c-0.4,0-0.9,0.1-1.3,0s-0.7,0.3-1.1,0.3c-0.6,0-1.1-0.1-1.6,0.3c-0.5,0-1.1,0-1.6,0c-0.4,0-0.8,0-1.2,0
		c-0.5,0.5-1.1,0.2-1.6,0.3c-0.3,0-0.6,0-0.8,0.1c-0.4,0.3-0.8,0.2-1.1,0.2c-0.2,0-0.5-0.1-0.6,0c-0.3,0.2-0.6,0.3-1,0.2
		c-0.4,0-0.7,0.2-1.1,0.3c-0.3,0.1-0.7,0-1.1,0s-0.7,0.4-1.1,0.3c-0.3-0.1-0.4,0.3-0.7,0.3c-0.3,0-0.6-0.1-0.8,0
		c-0.4,0.3-1,0.1-1.3,0.7c0,0.1-0.2,0.2-0.3,0.2c-0.5,0-0.8,0.4-1.2,0.5c-0.5,0.1-0.8,0.4-1.3,0.6c-0.3,0.1-0.6,0.3-0.9,0.4
		c-0.4,0.1-0.8,0.5-1.3,0.6c-0.4,0.1-0.7,0.7-1.2,0.6c-0.6,0.6-1.2,0.9-1.9,1.2c-0.6,0.4-1.2,0.9-1.9,1.2c-0.6,0.2-1.1,0.7-1.7,1.1
		c-0.6,0.5-1.2,0.8-1.7,1.2c-0.6,0.5-1.1,1.1-1.8,1.5c-0.6,0.3-1,0.9-1.5,1.4c-0.8,0.9-1.6,1.7-2.3,2.7c-0.4,0-0.5,0.5-0.7,0.8
		c-0.2,0.3-0.6,0.5-0.6,0.9c-0.7,0.9-1.1,1.9-1.7,2.9c-0.4,0.6-0.6,1.4-1.1,1.9c0,0,0,0.2,0,0.3c0,0.2,0,0.4-0.2,0.5
		c-0.6,0.8-1.1,1.7-1.4,2.8c-0.2,0.4-0.3,0.9-0.7,1.2c-0.2,0.2-0.3,0.5-0.3,0.8c-0.2,0.8-0.7,1.5-0.9,2.4c-0.1,0.3-0.4,0.5-0.4,0.9
		c0,0.3-0.3,0.7-0.4,1.1c0,0.1-0.1,0.3-0.1,0.4c0,0.3-0.1,0.5-0.2,0.8c-0.2,0.5-0.2,1.1-0.4,1.5c-0.3,0.5-0.3,1.1-0.6,1.6
		c-0.3,0.4,0.1,1-0.3,1.4c0,0.7-0.5,1.2-0.6,1.9c0,0.4-0.2,0.9-0.4,1.2c-0.3,0.4,0,1-0.3,1.4c0,0.8-0.4,1.5-0.3,2.3
		c0,0.4,0.1,1-0.1,1.3c-0.2,0.4-0.2,0.8-0.2,1.2c0,0.3,0,0.7,0,1.1l0,0c0,0.5,0,1.1,0,1.6c0,0,0.2,0.2,0.3,0.2
		c0.1,0,0.2-0.2,0.3-0.2c0.4,0,0.6-0.2,1-0.3c0.3-0.1,0.6-0.2,1-0.3c0.3-0.1,0.6-0.3,0.9-0.5c0.1,0,0.3-0.1,0.4-0.1
		c0.3,0,0.5-0.1,0.7-0.2c0.3-0.2,0.6-0.4,1.1-0.4c0.2,0,0.5-0.1,0.7-0.3c0.1,0,0.2-0.2,0.2-0.3c0-0.8,0-1.6,0-2.4
		c0-0.3-0.1-0.7,0-0.9c0.3-0.4,0.3-1,0.2-1.4c0-0.4,0.3-0.7,0.3-1.1c0-0.4,0-0.9,0-1.4c0-0.1,0.1-0.1,0.1-0.2
		c0.3-1.2,0.8-2.2,1.1-3.4c0.2-0.6,0.4-1.2,0.6-1.7c0.4-0.9,0.8-1.8,1.3-2.7c0.5-0.9,0.9-2,1.3-3c0.3-0.6,0.5-1.2,0.8-1.8
		c0.3-0.6,0.6-1.2,0.9-1.7c0.6-1,1.2-2.1,2-3c1-1,1.8-2.3,3-3.1c0.4-0.7,1.2-0.9,1.7-1.6c0.6-0.1,0.9-0.8,1.4-1.1
		c0.8-0.5,1.6-1.1,2.4-1.7c0.6-0.4,1.2-0.9,1.8-1.3c0.6-0.4,1.3-0.8,1.9-1.2c0.6-0.4,1.2-0.5,1.7-0.8c0.7-0.3,1.3-1,2.1-0.9
		c0.1,0,0.2-0.1,0.3-0.2s0.3-0.3,0.4-0.3c0.5,0,0.9-0.4,1.3-0.6c0.3-0.2,0.7-0.3,1.1-0.4c0.4-0.1,0.7-0.5,1.2-0.5
		c0.3-0.2,0.6-0.3,0.8-0.3c0.3,0,0.5-0.4,0.8-0.3c0.2,0,0.5-0.3,0.7-0.2c0.5,0.1,0.8-0.4,1.2-0.3c0.3-0.4,0.8-0.1,1.2-0.4
		c0.3-0.3,0.7,0,1-0.2c0.4-0.3,0.8-0.2,1.1-0.2c0.1,0,0.3,0,0.4,0c0.5-0.5,1.1-0.2,1.7-0.3c1.9,0,3.8,0,5.6,0c0.2,0,0.5,0,0.6,0
		c0.3,0.3,0.8,0.2,1.1,0.2c0.1,0,0.3,0,0.4,0c0.5,0.4,1,0.2,1.5,0.3c0.1,0,0.3,0,0.4,0c0.4,0.4,0.9,0.2,1.4,0.3c0.2,0,0.4,0,0.5,0
		c0.3,0.3,0.6,0.2,1,0.4c0.3,0.2,0.7,0.1,1,0.3c0.3,0.2,0.7,0.1,1,0.1c0.2,0,0.3,0.1,0.5,0.2c0.3,0.2,0.7,0.5,1,0.5
		c0.5,0.1,0.8,0.3,1.1,0.7c0.5,0,0.8,0.3,1.2,0.5c0.9,0.6,1.8,1.1,2.7,1.6c0.8,0.5,1.6,1.2,2.2,2.1c0.3,0.6,0.8,1,1.1,1.6
		c0.4,0.5,0.7,1.1,1.1,1.6c0.3,0.3,0.6,0.7,0.9,1.1s0.6,0.7,0.8,1.2c0.4,0.9,0.9,1.6,1.2,2.6c0.6,0.6,0.8,1.5,1.1,2.3
		c0.1,0.2,0.1,0.6,0.3,0.8c0.4,0.5,0.6,1.1,0.8,1.6c1.1,2.3,2,4.7,3.1,7c0.2,0.5,0.5,0.9,0.4,1.5c0,0.1,0.1,0.2,0.1,0.4
		c0.3,0.6,0.5,1.3,0.6,2c0,0.3,0.3,0.6,0.3,1c0,0.4,0.1,0.8,0.3,1.1c0.2,0.4,0.3,0.9,0.3,1.4c0.4,0.4,0.2,0.9,0.2,1.4
		c0,0.1,0,0.2,0,0.3c0.4,0.5,0.3,1.2,0.3,1.7C218.8,81,219,81.2,219,81.6z"/>
	<path class="st5" d="M211.4,82.8c0,0.2,0.2,0.4,0.3,0.7c0,0.1,0.1,0.2,0.2,0.2c0.3,0,0.7,0,1-0.1c0.3-0.2,0.7-0.2,1-0.2
		c0.4,0,0.6-0.4,1-0.3c0.3,0.1,0.6,0,0.9,0c0.2-0.4,0.6,0.3,0.8-0.2c0,0,0.3,0,0.3,0c0.2,0.2,0.5,0.2,0.8,0.2c0.3,0,0.3-0.1,0.4-0.4
		c0-0.4-0.1-0.6-0.3-1c-0.1-0.3,0-0.8-0.1-1.2c-0.1-0.3-0.2-0.7-0.2-1c0-0.4-0.3-0.7-0.3-1.1c0-0.4,0-0.9-0.3-1.3
		c0.1-0.6-0.3-1.1-0.3-1.7c0-0.6-0.3-1.2-0.5-1.8c-0.3-1.2-0.6-2.4-1.2-3.5c-0.3-0.4-0.4-1-0.6-1.4c-0.4-0.9-0.8-1.8-1.2-2.7
		c-0.4-0.9-0.7-2-1.4-2.8c0,0-0.1-0.2-0.1-0.3c0-0.4-0.3-0.7-0.4-1.1c-0.2-0.6-0.6-1.2-0.8-1.8c-0.3-0.7-0.7-1.2-1-1.9
		c-0.4-0.9-0.9-1.8-1.5-2.5c-0.6-0.6-1.1-1.2-1.5-2c-0.3-0.5-0.7-1-1-1.5c-0.3-0.4-0.8-0.8-1-1.4c0-0.1-0.2-0.3-0.3-0.3
		c-0.3-0.1-0.6-0.3-0.7-0.6c-0.3-0.5-0.8-0.7-1.3-1c-0.6-0.3-1.2-0.7-1.8-1c-0.6-0.3-1.1-0.7-1.7-0.8c-0.5-0.5-1.3-0.4-1.8-1.1
		c-0.1-0.1-0.3,0-0.4-0.1c-0.2,0-0.4,0-0.5-0.1c-0.3-0.4-0.8,0-1.2-0.4c-0.3-0.3-0.8-0.1-1.2-0.4c-0.3-0.2-0.7,0.1-1-0.1
		c-0.3-0.3-0.8-0.1-1.1-0.2c-0.1,0-0.2,0-0.3,0c-0.6-0.4-1.2-0.2-1.8-0.3c-0.1,0-0.3,0-0.4,0c-0.5-0.4-1-0.2-1.5-0.3
		c-0.3,0-0.7,0-1.1,0s-0.8,0-1.2,0c-0.4,0-0.8,0-1.2,0c-0.4,0-0.9,0-1.3,0c-0.4,0-0.8,0-1.2,0c-0.4-0.1-0.7,0.3-1.1,0.3
		c-0.3,0-0.7-0.1-0.9,0c-0.3,0.2-0.6,0.3-1,0.3c-0.5,0.4-1.1,0.1-1.6,0.6c-0.4-0.1-0.6,0.3-1,0.3c-0.3,0-0.6,0.4-1,0.3
		c-0.3,0.5-0.8,0.1-1.2,0.4c-0.4,0.3-1,0.3-1.4,0.7c-0.4,0.3-1,0.3-1.4,0.6c-0.4,0.3-0.9,0.5-1.4,0.7c-0.2,0.1-0.3,0.2-0.5,0.2
		c-0.4-0.1-0.7,0.2-1,0.3c-0.5,0.2-1,0.7-1.5,0.8c-0.3,0.1-0.6,0.2-0.8,0.4c-0.2,0.1-0.4,0.2-0.6,0.3c-0.6,0.3-1.1,0.6-1.7,1.1
		c-0.5,0.4-1.2,0.6-1.6,1.2c-0.6,0.2-1.1,0.7-1.6,1.2c-0.4,0-0.6,0.5-1,0.7c-0.3,0.1-0.6,0.5-0.9,0.7c-0.3,0.1-0.5,0.7-0.8,0.9
		c-0.8,0.3-1.1,1.2-1.8,1.7c-0.7,0.5-1.2,1.3-1.8,1.9c-0.3,0.3-0.6,0.5-0.7,0.9c-0.2,0.5-0.6,0.7-0.6,1.3c-0.3,0.3-0.6,0.8-0.7,1.2
		c-0.2,0.5-0.6,0.7-0.6,1.3c-0.5,1-0.8,2.1-1.5,3c-0.1,0.1-0.1,0.2-0.2,0.4c-0.2,0.7-0.5,1.4-0.8,1.9s-0.6,1.3-0.8,1.9
		c-0.3,0.6-0.6,1.3-0.8,2c-0.2,0.7-0.6,1.3-0.6,2c-0.4,0.5-0.1,1.2-0.5,1.6c0,0.5,0.1,1-0.3,1.4c0,0.5,0,1.1,0,1.6
		c0,0.1,0,0.2,0,0.3c-0.4,0.5-0.2,1-0.3,1.5c0,0.3,0,0.6,0,0.9c0,0.1,0,0.3,0.1,0.4c0.2,0.1,0.4,0.2,0.6,0.3c0.5-0.4,1-0.1,1.5-0.2
		c0,0,0.1,0,0.1-0.1c0.8-0.4,1.5-0.1,2.3-0.1c0.5,0.5,1.1,0.2,1.7,0.2c0.2,0,0.3-0.1,0.3-0.3c0-0.7,0-1.5,0-2.2c0-0.2,0-0.4,0.1-0.6
		c0.3-0.3,0.2-0.8,0.4-1.2c0.2-0.3,0-0.9,0.3-1.2c0-0.4,0-0.9,0.3-1.3c-0.1-0.6,0.2-1.1,0.3-1.7c0.1-0.5,0.3-1.1,0.6-1.6
		c0.1-0.1,0.2-0.3,0.1-0.4c-0.1-0.5,0.2-0.8,0.3-1.3c0-0.4,0.3-0.8,0.5-1.2c0.3-0.7,0.6-1.4,0.9-2.1c0.3-0.6,0.6-1.3,1-1.7
		c0.9-1,1.6-2.2,2.5-3.2c0.7-0.7,1.4-1.5,2-2.3c0.3-0.4,0.7-0.8,1-1.2c0.3-0.3,0.7-0.5,1-0.9c0.3-0.4,0.8-0.6,1.2-0.8
		c0.2-0.1,0.3-0.2,0.4-0.4c0.2-0.1,0.3-0.4,0.5-0.4c0.6-0.2,1-0.6,1.4-1c0.6-0.4,1.1-0.8,1.8-1.2c0.4-0.2,0.8-0.4,1.1-0.6
		s0.7-0.5,1-0.5c0.3,0,0.6-0.2,0.9-0.4c0.4-0.3,0.8-0.1,1.1-0.2c0.1,0,0.1-0.1,0.2-0.1c1.3-0.4,2.4-1.1,3.7-1.5
		c0.3-0.1,0.7-0.2,1.1-0.4c0.3-0.1,0.8,0,1.1-0.2c0.3-0.2,0.8,0,1.1-0.3c0.2-0.2,0.6,0,1-0.2c0.3-0.2,0.8-0.1,1.1-0.1
		c0.3,0,0.6,0,0.8-0.1c0.3-0.2,0.6-0.2,0.9-0.2c1.1,0,2.2,0,3.3,0c0.3,0,0.5,0,0.8,0.1c0.1,0.1,0.4-0.1,0.6-0.1
		c0.3,0.3,0.6,0.3,1,0.3c0.6-0.1,1.1,0.2,1.7,0.4c0.2,0,0.3,0.2,0.5,0.2c0.4-0.1,0.6,0.3,1,0.3c0.4,0,0.6,0.3,0.9,0.4
		c0.3,0.1,0.6,0.3,0.9,0.5c0.6,0.2,1.2,0.5,1.7,1c0.3,0.3,0.7,0.6,1.1,0.8c0.2,0.1,0.5,0,0.7,0.3c0.3,0.3,0.6,0.6,0.9,0.8
		c0.4,0.2,0.7,0.5,1,0.9c0.4,0.4,0.7,1,1.3,1.2c0.1,0,0.3,0.2,0.3,0.3c0.1,0.5,0.4,0.8,0.7,1c0.6,0.6,1,1.3,1.4,1.9
		c0.3,0.5,0.7,1.1,1,1.7c0.4,0.7,0.9,1.4,1.1,2.1c0.3,1.1,1,1.9,1,3.1c0.3,0.3,0.2,0.8,0.4,1.2c0.3,0.3,0.4,0.9,0.3,1.4
		c0,0,0,0.1,0,0.1c0.5,0.4,0.5,1.2,0.8,1.8c0.4,0.8,0.7,1.6,1.1,2.5c0.4,0.9,0.8,1.8,1,2.8c0,0.2,0.3,0.4,0.3,0.7
		c-0.1,0.6,0.2,1.1,0.3,1.5s0.3,0.9,0.3,1.4c0,0.2,0.2,0.5,0.2,0.8C211.5,82.2,211.4,82.5,211.4,82.8z"/>
	<path class="st6" d="M205.7,88.7c0,0.1,0,0.2,0.1,0.2c0,0,0.1-0.1,0.2-0.1c0.3-0.5,0.5-1,0.8-1.5c0.6-0.9,1.5-1.3,2.2-2.1
		c0.1-0.1,0.3-0.1,0.3-0.1c0.3-0.2,0.6-0.3,0.9-0.5c0.1,0,0.2-0.2,0.2-0.3c0-0.4,0-0.9,0-1.4c-0.4-0.3,0-0.9-0.3-1.3
		c-0.3-0.4,0-0.9-0.3-1.3c-0.3-0.4,0-0.9-0.2-1.3c-0.1-0.3-0.3-0.6-0.3-1c0.1-0.4-0.2-0.6-0.3-0.9c-0.2-0.5-0.5-1-0.5-1.6
		c0-0.2-0.2-0.4-0.3-0.7c-0.3-0.8-0.7-1.7-1.1-2.5c-0.4-0.8-0.7-1.6-1-2.5c-0.2-0.6-0.3-1.2-0.6-1.7c-0.3-1-0.5-1.9-0.9-2.9
		c-0.3-0.5-0.6-1.1-0.8-1.6c-0.3-0.6-0.6-1.2-1-1.7c-0.2-0.2-0.3-0.5-0.4-0.8c0-0.1-0.1-0.3-0.2-0.4c-0.3-0.3-0.6-0.6-0.8-1
		c-0.3-0.4-0.5-0.8-0.8-1.2c-0.1-0.1-0.2-0.3-0.4-0.4c-0.3-0.1-0.6-0.4-0.8-0.7c-0.3-0.2-0.6-0.4-0.8-0.7c-0.4-0.3-0.8-0.7-1.2-1.1
		c-0.4-0.4-0.9-0.6-1.4-1c-0.5-0.4-1.1-0.7-1.7-1c-0.6-0.3-1.1-0.6-1.6-0.9c-0.7,0.2-1.2-0.5-1.8-0.6c-0.4-0.1-0.8-0.3-1.2-0.3
		c-0.3,0-0.8,0.1-1-0.1c-0.3-0.2-0.7-0.2-1-0.2c-0.6,0-1.3,0-1.9,0l0,0c-0.8,0-1.6,0-2.4,0c-0.2,0-0.4,0-0.5,0.1
		c-0.3,0.3-0.7,0.2-1,0.2c-0.3,0-0.6,0.4-1,0.3c-0.3-0.1-0.6,0-0.8,0.2c-0.6-0.1-1,0.3-1.5,0.4c-0.6,0-1,0.4-1.6,0.5
		c-0.3,0.1-0.7,0-1,0.3c-0.4,0-0.7,0.2-1.1,0.4c-0.2,0.1-0.4,0.1-0.6,0.2c-0.2,0-0.3,0-0.5,0.1c-0.3,0.2-0.7,0.3-1.1,0.4
		c-0.4,0.1-0.8,0.5-1.2,0.4c-0.1,0-0.3,0.2-0.5,0.2c-0.8,0.3-1.4,1-2.2,1.4c-0.5,0.2-1,0.6-1.4,0.9c-0.6,0.4-1.1,0.9-1.7,1.2
		c-0.3,0.1-0.6,0.3-0.8,0.5c-0.2,0.2-0.3,0.5-0.6,0.5c-0.5,0.7-1.3,1-1.8,1.7c-1.2,1.5-2.6,2.8-3.6,4.5c-0.4,0.6-0.9,1.2-1.3,1.8
		c-0.2,0.4-0.3,0.9-0.6,1.3c-0.6,0.8-0.9,1.9-1.4,2.8c0,0.1-0.1,0.3-0.1,0.4c0,0.6-0.3,1.1-0.4,1.6c-0.2,0.9-0.6,1.7-0.7,2.6
		c0,0.4-0.3,0.9-0.3,1.4c-0.3,0.3-0.2,0.8-0.3,1.1c-0.1,0.3-0.3,0.6-0.3,1c0.1,0.4-0.2,0.7-0.3,1.1c0,0.7,0,1.4,0,2.1
		c0,0.1,0.2,0.2,0.3,0.2c0.2,0,0.4,0,0.5,0c0.3,0.1,0.6,0.4,0.9,0.5c0.3,0.1,0.6,0,1,0.2c0.3,0.2,0.7,0.2,1.1,0.4
		c0.6,0.4,1.2,0.5,1.7,1.1c0.1,0.1,0.3-0.1,0.4-0.3c0.1-0.9-0.2-1.7,0.2-2.6c-0.3-0.3,0.1-0.5,0.1-0.8c0-0.3,0-0.7,0.2-1
		c-0.1-0.5,0.3-0.8,0.3-1.3c0.1-0.5,0.4-0.9,0.5-1.3c0.1-0.5,0.3-1,0.4-1.5s0.4-1,0.6-1.5c0.2-0.4,0.4-0.9,0.6-1.3
		c0.1-0.2,0-0.4,0.2-0.5c0.5-0.6,0.8-1.4,1.1-2.1c0.5-1.1,1.2-2,1.8-3c0-0.1,0.1-0.2,0.2-0.2c0.4,0,0.4-0.6,0.7-0.7
		c0.3-0.1,0.5-0.4,0.7-0.7c0.3-0.3,0.5-0.6,0.8-0.8c0.8-0.8,1.7-1.3,2.5-2.1c0.1-0.1,0.2-0.2,0.3-0.2c0.3-0.1,0.5-0.2,0.6-0.4
		c0.2-0.2,0.5-0.5,0.8-0.5c0.5,0,0.9-0.3,1.3-0.6c0.2-0.1,0.5-0.2,0.7-0.3c0.8-0.2,1.5-0.6,2.2-1c0.4-0.2,0.7-0.5,1.1-0.6
		c0.5-0.2,1-0.5,1.6-0.4c0.1,0,0.3,0,0.4,0c0.4-0.2,0.8-0.3,1.2-0.4c0.4-0.2,1,0,1.4-0.2c0.3-0.1,0.6-0.2,1-0.2c0.6,0,1.2,0,1.8,0
		c0.3,0,0.6,0.1,0.8,0c0.5-0.4,1-0.2,1.5-0.2c0.6,0,1.2,0,1.8,0c0.5,0,0.9,0.1,1.4,0.3c0.8,0.3,1.6,0.5,2.4,0.9
		c0.7,0.4,1.4,0.8,2.2,1.3c0.7,0.4,1.4,0.9,2,1.6c0.5,0.6,1.1,1.2,1.6,1.8c1.1,0.6,1.7,1.7,2.3,2.7c0.1,0.2,0.2,0.4,0.3,0.6
		c0.4,0.3,0.5,0.9,0.8,1.4c0.2,0.3,0.2,0.7,0.3,1.1c0.4,1,1,1.8,1,3c0,0.2,0.2,0.5,0.3,0.8c0.2,0.3,0,0.7,0.3,1
		c0.2,0.2,0.1,0.6,0.3,0.8c0.2,0.3,0,0.7,0.3,1c0.1,0.2,0,0.6,0.1,0.8c0.1,0.3,0.3,0.6,0.3,1c-0.1,0.3,0.2,0.5,0.3,0.8
		c0,0.3-0.1,0.7,0.2,1c0,0.6,0.3,1.2,0.3,1.8c0,0.4,0,0.8,0.2,1.3c0.2,0.3,0,0.9,0,1.3c0,0,0,0.1,0,0.1c0.3,0.3,0.2,0.7,0.2,1.1
		C205.7,87.4,205.7,88,205.7,88.7z"/>
	<path class="st7" d="M193.6,67.1c1.8,1.5,2.2,1.6,3.1,2.8c0.4,0.5,0.7,1.1,1.1,1.6c0.3,0.3,0.6,0.8,0.7,1.2
		c0.6,1.5,1.4,2.9,1.7,4.5c0.1,0.4,0.4,0.8,0.5,1.2c0.1,0.5,0.3,0.9,0.3,1.4c0.4,0.3,0.1,1,0.3,1.4c0.3,0.5,0.1,1.1,0.2,1.6
		c0,0.1,0,0.3,0.1,0.4c0.3,0.3,0.2,0.8,0.2,1.1c0,0.5,0,1.1,0,1.6c0.4,0.8,0.2,1.6,0.3,2.5c0,0.1,0,0.3,0,0.4
		c0.3,0.4,0.2,0.9,0.2,1.3c0,0.6,0,1.2,0,1.8c0,0.2,0,0.4,0.1,0.6c0.2,0.3,0.2,0.5,0.2,0.8c0,0.6,0,1.3,0,1.9c0,0.3,0,0.6,0,0.9
		c0,0.3,0.3,0.6,0.3,1c0,0.1,0.1,0.2,0.3,0.2c0.3,0,0.6,0,0.9,0c0.4,0,0.2-0.2,0.2-0.4c-0.1-1,0-2-0.1-3c0.5-0.5,0.2-1.3,0.3-1.8
		c0-0.9,0-1.8,0-2.7c0-0.3,0.1-0.6,0.2-1c-0.4-0.7-0.1-1.5-0.2-2.2c0-0.2,0-0.6,0-0.7c-0.3-0.4-0.2-0.9-0.2-1.3c0-0.3,0-0.7-0.1-0.9
		c-0.3-0.4,0-0.9-0.3-1.3c-0.3-0.4-0.1-0.9-0.2-1.3c0-0.1,0-0.3,0-0.4c-0.3-0.3-0.1-0.7-0.3-1c-0.3-0.3-0.1-0.7-0.2-1
		c-0.1-0.4-0.3-0.7-0.5-1c-0.1-0.3,0-0.8-0.2-1.1c-0.1-0.2-0.1-0.6-0.3-0.8c-0.4-0.7-0.4-1.6-0.8-2.2c0-0.7-0.4-1.2-0.6-1.7
		c-0.3-0.9-0.6-1.4-1-2.1c-0.3-0.5-0.7-1-1-1.5c-0.3-0.5-0.6-1-0.9-1.2c-0.4-0.2-0.5-0.8-0.9-0.9c-0.3-0.4-0.7-0.8-1-1.2
		c-0.2-0.2-0.3-0.4-0.5-0.5c-0.7-0.4-1.2-1-1.9-1.4c-0.7-0.4-1.4-0.8-2-1.2c-0.3-0.1-0.6-0.2-0.8-0.3c-0.4-0.3-0.9,0.1-1.2-0.4
		c0,0-0.1,0-0.1,0c-0.2,0-0.4,0-0.6,0c-1.1,0-2.3,0-3.4,0c-0.3,0-0.5,0-0.7,0.2c-0.2,0.1-0.3,0-0.5-0.1c-0.1,0-0.3-0.1-0.3,0
		c-0.3,0.2-0.6,0.2-0.8,0.2c-0.3,0-0.5,0-0.8,0c-0.3,0-0.5,0.4-0.8,0.3c-0.3,0-0.7-0.1-1,0.3c-0.5-0.1-0.9,0.3-1.4,0.3
		c-0.5,0-0.8,0.3-1.4,0.3c-0.3,0-0.6,0.4-0.9,0.5c-0.3,0.1-0.6,0.4-1,0.3c-0.4,0.3-1,0.3-1.4,0.6c-1.1,0.6-2.2,1.3-3.3,1.9
		c-0.9,0.5-1.7,1.3-2.5,2c-0.3,0.3-0.6,0.7-0.9,1.1c-0.3,0.3-0.7,0.5-0.9,1c-0.2,0.4-0.6,0.7-0.9,1.1c-0.2,0.2-0.4,0.3-0.4,0.5
		c-0.1,0.4-0.4,0.6-0.6,1c-0.2,0.4-0.3,0.8-0.6,1.2c-0.2,0.3-0.4,0.6-0.5,1c-0.3,0.7-0.7,1.5-0.9,2.2c-0.3,0.8-0.6,1.5-0.8,2.3
		c-0.2,0.5-0.3,1.1-0.6,1.6c-0.3,0.5-0.3,1.1-0.5,1.6c-0.2,0.5-0.1,1-0.2,1.5c-0.4,0.2,0.2,0.7-0.2,1c0,0.4,0,0.8,0,1.2l0,0
		c0,0.3,0,0.7,0,1.1c0,0.3,0.1,0.6,0.3,0.8c0.3,0.2,0.6,0.4,0.8,0.7c0.4,0.3,0.7,0.7,1,1.2c0.3,0.5,0.9,0.6,1.2,1.1
		c0.4,0.5,0.9,0.9,1.1,1.5h0.1c0,0,0.1-0.1,0.1-0.1c0-1.1,0-2.2,0-3.3c0-0.2-0.1-0.6,0-0.7c0.4-0.6,0.2-1.4,0.2-2c0-0.9,0-1.8,0-2.7
		c0-0.4,0-0.8,0.3-1.1c-0.1-0.4,0.3-0.7,0.3-1.1c-0.1-0.6,0.4-1,0.3-1.5c0.3-0.4,0.3-1,0.5-1.5c0.3-0.6,0.7-1.2,1-1.8
		c0.1-0.2,0.2-0.4,0.3-0.6c0.2-0.2,0.5-0.3,0.6-0.5c0.2-0.6,0.6-0.9,1-1.4c0.3-0.3,0.5-0.6,0.8-0.8c0.3-0.3,0.7-0.5,0.9-0.8
		c0.6-0.8,1.5-1.3,2.2-2.1c0-0.1,0.1-0.2,0.2-0.2c0.4,0,0.6-0.6,1-0.7c0.3,0,0.5-0.5,0.8-0.6c0.4-0.1,0.7-0.4,1-0.6
		c0.2-0.1,0.4-0.2,0.6-0.3c0.5-0.6,1.4-0.6,1.9-1.1c0.5,0,0.8-0.4,1.4-0.3c0.2,0,0.4-0.2,0.6-0.2c0.6,0,1.1-0.5,1.7-0.4
		c0.1,0,0.3,0,0.4,0c0.3-0.3,0.6-0.2,1-0.2c0.7,0,1.4,0,2.1,0c0.4,0,0.8,0.1,1.1-0.2c0.3,0,0.7,0,1,0c0.4,0.4,0.8,0.2,1.2,0.2
		c0.4,0,0.9,0,1.2,0.3c0.6,0,0.9,0.4,1.4,0.6C192.6,66.5,193.1,66.7,193.6,67.1z"/>
</g>
</svg>
