<?xml version="1.0" encoding="utf-8"?>
<!-- Generator: Adobe Illustrator 21.0.2, SVG Export Plug-In . SVG Version: 6.00 Build 0)  -->
<svg version="1.1" id="master-artboard" xmlns="http://www.w3.org/2000/svg" xmlns:xlink="http://www.w3.org/1999/xlink" x="0px"
	 y="0px" viewBox="0 0 150 94.7" style="enable-background:new 0 0 150 94.7;" xml:space="preserve">
<style type="text/css">
	.st0{fill:#664428;}
	.st1{fill:#D7DF23;}
	.st2{fill:#B2BB1E;}
	.st3{fill:#FFFFFF;}
	.st4{opacity:0.2;}
	.st5{fill:#58595B;}
</style>
<g transform="matrix(3.3491342067718506, 0, 0, 3.3491342067718506, -3172.740478515625, -292.9370117187256)">
	<g>
		<path class="st0" d="M952.2,91.6c-0.9-1.3-2.5-1.8-4-2.1c-0.8-0.1-1.2,1.1-0.3,1.3c1.1,0.2,2.4,0.6,3.2,1.5
			c0.6,0.8,0.7,1.8,0.8,2.8c0.4-0.2,0.8-0.4,1.3-0.5C953,93.5,952.7,92.5,952.2,91.6z"/>
	</g>
</g>
<g transform="matrix(3.3491342067718506, 0, 0, 3.3491342067718506, -3172.740478515625, -292.93701171871345)">
	<path class="st0" d="M960.6,91.7c-0.7-1.6-1.9-3.4-3.7-4.1c-0.8-0.3-1.1,0.9-0.3,1.3c1.3,0.5,2.2,2,2.8,3.2
		c0.3,0.7,0.9,1.9,0.9,2.8c0.4,0.2,0.8,0.4,1.2,0.6C961.7,94.3,961.1,92.8,960.6,91.7z"/>
</g>
<g transform="matrix(3.332924342402322, 0, 0, 3.332924342402322, -3150.8473457076607, -290.7486706465378)">
	<path class="st0" d="M957.4,113c-0.1,0.4-0.2,0.9-0.1,1.4c0,0.8,1.4,0.8,1.3,0c0-0.6,0.1-1.5,0.6-2c0,0,0,0-0.1-0.1
		C958.5,112.6,958,112.8,957.4,113z"/>
</g>
<g transform="matrix(3.3491342067718506, 0, 0, 3.3491342067718506, -3172.740478515625, -292.93701171871345)">
	<path class="st1" d="M985.1,95.1c2.1,0.7,3.5,1.9,4.2,3.1c3.5-1.3,4.3-6.6-1.5-8.6c-3.1-1.1-4.8,2.4-4.4,5.3
		C983.9,94.8,984.5,94.9,985.1,95.1z"/>
</g>
<g transform="matrix(3.3491342067718506, 0, 0, 3.3491342067718506, -3172.740478515625, -292.93701171871345)">
	<path class="st2" d="M983.2,104.6c0.3,0.1,0.6,0.2,0.9,0.2c1.2,0.1,2.3,0,3.2-0.5c-0.1-0.1-0.3-0.3-0.4-0.3c-0.7-0.4,0-1.6,0.6-1.1
		c0.3,0.2,0.6,0.4,0.8,0.7c1-0.9,1.6-2.3,1.4-3.7c-0.1-0.1-0.2-0.1-0.3,0c-0.8,0.2-1.1-1-0.3-1.3c0.1,0,0.1,0,0.2,0
		c0-0.1-0.1-0.1-0.1-0.2c-0.7-1.2-2-2.4-4.2-3.1c-0.6-0.2-1.2-0.2-1.7-0.2c-1,0.2-1.7,0.8-2.3,1.7
		C984.7,98.9,984.9,102.4,983.2,104.6z"/>
</g>
<g transform="matrix(3.3491342067718506, 0, 0, 3.3491342067718506, -3172.740478515625, -292.93701171871345)">
	<path class="st1" d="M981.1,106.1c0,0-0.1,0-0.1,0.1c0.1,0,0.3-0.1,0.4-0.2C981.3,106,981.2,106,981.1,106.1z"/>
</g>
<g transform="matrix(3.3491342067718506, 0, 0, 3.3491342067718506, -3172.740478515625, -292.93701171871345)">
	<path class="st1" d="M978.8,106.6c0.8,0,1.5-0.1,2.1-0.4c-0.6,0.2-1.1-0.7-0.5-1.2c0.7-0.5,1.6-0.3,2.1,0.2
		c0.2-0.2,0.4-0.4,0.6-0.6c1.8-2.2,1.6-5.7-2-7.9c-0.6-0.3-1.3-0.7-2.1-1c-2.4-0.8-4.2,0.6-5,2.7c0.1,0,0.3,0.1,0.4,0.1
		C979.5,100.3,980.4,104.1,978.8,106.6z"/>
</g>
<g transform="matrix(3.3491342067718506, 0, 0, 3.3491342067718506, -3172.740478515625, -292.93701171871345)">
	<path class="st2" d="M976.1,108.8c0.3-0.1,0.5-0.2,0.8-0.3c0,0-0.1,0-0.1-0.1c-0.3-0.1-0.4-0.6-0.2-0.9c0.2-0.3,0.6-0.4,0.9-0.2
		c0.2,0.1,0.4,0.2,0.6,0.4c0.3-0.3,0.6-0.6,0.8-1c1.5-2.5,0.6-6.3-4.5-8.1c-0.1,0-0.3-0.1-0.4-0.1c-2.5-0.6-4.2,1.3-4.7,3.8
		c0.4,0,0.8,0.1,1.3,0.2C974.6,103.8,976.2,106.4,976.1,108.8z"/>
</g>
<g transform="matrix(3.332924342402322, 0, 0, 3.332924342402322, -3150.8473457076607, -290.7486706465378)">
	<path class="st1" d="M965.9,112.9c0,0.1,0.1,0.2,0.2,0.3c0.4,0.2,0.9,0.3,1.4,0.4c2.2,0.3,4.1-0.4,5.3-1.6c0,0,0-0.1-0.1-0.1
		c0,0,0,0,0,0c-0.8,0.2-1.2-1.1-0.3-1.3c0.5-0.1,0.9,0,1.3,0.3c0.4-0.7,0.6-1.5,0.7-2.4c0-2.3-1.5-4.9-5.6-6.3
		c-0.4-0.1-0.9-0.2-1.3-0.2c-1,0-1.9,0.3-2.6,1C970.1,105.7,969.5,110.9,965.9,112.9z"/>
</g>
<g transform="matrix(3.332924342402322, 0, 0, 3.332924342402322, -3150.8473457076607, -290.7486706465378)">
	<path class="st2" d="M959,112.3C959.1,112.3,959.1,112.3,959,112.3c0.8,0.7,1.7,1.2,2.8,1.3c1,0.1,2,0,2.8-0.2
		c-0.1-0.2-0.3-0.3-0.5-0.4c-0.7-0.4,0-1.6,0.6-1.1c0.4,0.3,0.8,0.6,1.1,1c3.5-1.9,4.2-7.2-1.1-10c-0.2-0.1-0.4-0.2-0.7-0.3
		C964.4,106.4,962.5,110.4,959,112.3z"/>
</g>
<g transform="matrix(3.3329243659973145, 0, 0, 3.3329243659973145, -3148.847412109375, -290.7486572265625)">
	<path class="st1" d="M952.8,113.3c1.5,0.2,2.8,0.1,4-0.3c0.6-0.2,1.1-0.4,1.7-0.7c3.4-1.8,5.3-5.9,5.1-9.7
		c-0.2-2.8-1.5-5.6-4.4-7.2c-0.4-0.2-0.8-0.4-1.2-0.6c-0.9-0.3-1.9-0.6-3-0.8c-1.5-0.2-2.9,0-4.1,0.3c-0.4,0.1-0.9,0.3-1.3,0.5
		C942.7,98.6,942.9,112,952.8,113.3z M947.2,101.2L947.2,101.2l2-0.6l-1.8-0.4c0.2-0.7,0.9-1.2,1.6-1.3c1.1-0.1,2.1,0.6,2.3,1.7
		c0.1,1.1-0.6,2.1-1.7,2.3C948.4,103.2,947.3,102.4,947.2,101.2z M953.4,107.8c-2.6,0-3.4-3.1-3.4-3.1s4,0.6,6.1-0.7
		C956.1,103.9,955.9,107.8,953.4,107.8z M955.7,97.1c1.5-0.2,2.8,0.8,3,2.3c0.2,1.5-0.8,2.8-2.3,3s-2.8-0.8-3-2.3v0l2.6-0.7
		l-2.5-0.5C953.8,97.9,954.7,97.2,955.7,97.1z M953.4,94.6c0,0-7.2,0.9-7.4,8.9C945.9,103.6,944.1,95.2,953.4,94.6z"/>
</g>
<g transform="matrix(3.332924342402322, 0, 0, 3.332924342402322, -3150.8473457076607, -290.7486706465378)">
	<path class="st0" d="M964.8,111.8c-0.7-0.4-1.4,0.7-0.6,1.1c0.2,0.1,0.4,0.2,0.5,0.4c0.1,0.1,0.2,0.2,0.2,0.4
		c0.1,0.3,0,0.4-0.3,0.5c-0.8,0.2-0.5,1.5,0.3,1.3c0.8-0.2,1.5-0.9,1.3-1.8c0-0.2-0.1-0.3-0.1-0.5c0-0.1-0.1-0.2-0.2-0.3
		C965.7,112.5,965.3,112.1,964.8,111.8z"/>
</g>
<g transform="matrix(3.332924342402322, 0, 0, 3.332924342402322, -3150.8473457076607, -290.7486706465378)">
	<path class="st0" d="M972.4,110.6c-0.8,0.2-0.5,1.4,0.3,1.3c0,0,0,0,0,0c0,0,0.1,0.1,0.1,0.1s0,0.1,0,0.1c0.1,0.2,0,0.5-0.3,0.6
		c-0.7,0.4,0,1.6,0.6,1.1c0.7-0.4,1.1-1.3,0.9-2.1c-0.1-0.3-0.2-0.6-0.5-0.8C973.3,110.6,972.9,110.5,972.4,110.6z"/>
</g>
<g transform="matrix(3.332924342402322, 0, 0, 3.332924342402322, -3150.8473457076607, -290.7486706465378)">
	<path class="st0" d="M974.8,107.2c-0.1,0.3-0.1,0.7,0.2,0.9c0,0,0.1,0,0.1,0.1c0.2,0.1,0.4,0.2,0.4,0.4c0.1,0.2-0.1,0.3-0.3,0.4
		c-0.7,0.4-0.1,1.5,0.6,1.1c0.7-0.3,1.1-1,1-1.7c-0.1-0.4-0.3-0.8-0.6-1.1c-0.2-0.1-0.4-0.3-0.6-0.4
		C975.4,106.8,975,106.9,974.8,107.2z"/>
</g>
<g transform="matrix(3.3491342067718506, 0, 0, 3.3491342067718506, -3172.740478515625, -292.93701171871345)">
	<path class="st0" d="M980.5,105c-0.6,0.4-0.1,1.5,0.5,1.2l0,0c0,0,0.1,0,0.1-0.1c0.1-0.1,0.2-0.1,0.3-0.1c0.1,0,0.2,0.1,0.3,0.3
		c0.2,0.4,0.1,0.8-0.2,1.1c-0.6,0.6,0.3,1.5,0.9,0.9c0.8-0.7,0.8-1.8,0.4-2.7c-0.1-0.1-0.1-0.2-0.2-0.4
		C982,104.6,981.2,104.5,980.5,105z"/>
</g>
<g transform="matrix(3.3491342067718506, 0, 0, 3.3491342067718506, -3167.740478515625, -292.93701171875)">
	<path class="st0" d="M954.3,100.3L954.3,100.3c0.2,1.5,1.5,2.6,3,2.4s2.5-1.5,2.3-3c-0.2-1.5-1.5-2.5-3-2.3c-1,0.1-1.8,0.8-2.2,1.7
		l2.5,0.5L954.3,100.3z"/>
</g>
<g transform="matrix(3.3491342067718506, 0, 0, 3.3491342067718506, -3166.740478515625, -292.93701171875)">
	<path class="st0" d="M952,101c-0.1-1.1-1.1-1.9-2.3-1.7c-0.8,0.1-1.4,0.6-1.6,1.3l1.8,0.4l-2,0.5v0c0.1,1.1,1.1,1.9,2.3,1.7
		C951.3,103.1,952.1,102.1,952,101z"/>
</g>
<g transform="matrix(3.3491342067718506, 0, 0, 3.3491342067718506, -3165.740478515625, -296.93701171875)">
	<path class="st0" d="M950.4,105.9c0,0,0.8,3.1,3.4,3.1c2.6,0,2.7-3.8,2.7-3.8C954.4,106.5,950.4,105.9,950.4,105.9z"/>
</g>
<g transform="matrix(3.3491342067718506, 0, 0, 3.3491342067718506, -3164.740478515625, -292.93701171875)">
	<path class="st3" d="M946.1,103.8c0.1-8,7.4-8.9,7.4-8.9C944.3,95.5,946.1,103.8,946.1,103.8z"/>
</g>
<g transform="matrix(3.332924342402322, 0, 0, 3.332924342402322, -3150.8473457076607, -290.7486706465378)" class="st4">
	<path class="st5" d="M986,89.4c-3.1-1.1-4.8,2.4-4.4,5.3c-1,0.2-1.7,0.8-2.3,1.7c-0.6-0.3-1.3-0.7-2.1-1c-2.1-0.7-3.7,0.3-4.6,1.9
		v14.9c0.1-0.1,0.2-0.2,0.3-0.3c0,0,0,0.1,0,0.1c0.1,0.2,0,0.5-0.3,0.6c0,0,0,0-0.1,0v1c0.2,0.2,0.4,0.2,0.7,0.1
		c0.7-0.4,1.1-1.3,0.9-2.1c-0.1-0.3-0.2-0.6-0.5-0.8c0.4-0.7,0.6-1.5,0.7-2.4c0.3-0.1,0.5-0.2,0.8-0.3c0.2,0.1,0.4,0.2,0.4,0.4
		c0.1,0.2-0.1,0.3-0.3,0.4c-0.7,0.4-0.1,1.5,0.6,1.1c0.7-0.3,1.1-1,1-1.7c-0.1-0.4-0.3-0.8-0.6-1.1c0.3-0.3,0.6-0.6,0.8-1
		c0.8,0,1.5-0.1,2.1-0.4l0,0c0.1,0,0.3-0.1,0.4-0.2c0.1,0,0.2,0.1,0.3,0.3c0.2,0.4,0.1,0.8-0.2,1.1c-0.6,0.6,0.3,1.5,0.9,0.9
		c0.8-0.7,0.8-1.8,0.4-2.7c-0.1-0.1-0.1-0.2-0.2-0.4c0.2-0.2,0.4-0.4,0.6-0.6c0.3,0.1,0.6,0.2,0.9,0.2c1.2,0.1,2.3,0,3.2-0.5
		c0.3,0.3,0.4,0.8,0,1.1c-0.7,0.4,0,1.6,0.6,1.1c1.2-0.7,1.1-2,0.4-3c1-0.9,1.6-2.3,1.4-3.7c0.2,0.2,0.3,0.9,0.1,1.2
		c-0.2,0.3-0.3,0.6,0,0.9c0.2,0.2,0.7,0.3,0.9,0c0.5-0.7,0.6-1.6,0.2-2.5c-0.3-0.7-1-1.1-1.7-1c0-0.1-0.1-0.1-0.1-0.2
		C991.2,96.7,991.9,91.4,986,89.4z"/>
</g>
<g transform="matrix(3.3491342067718506, 0, 0, 3.3491342067718506, -3172.740478515625, -292.93701171871345)">
	<path class="st0" d="M987.6,102.8c-0.7-0.4-1.4,0.7-0.6,1.1c0.1,0.1,0.3,0.2,0.4,0.3c0.3,0.3,0.4,0.8,0,1.1c-0.7,0.4,0,1.6,0.6,1.1
		c1.2-0.7,1.1-2,0.4-3C988.2,103.3,987.9,103,987.6,102.8z"/>
</g>
<g transform="matrix(3.3491342067718506, 0, 0, 3.3491342067718506, -3172.740478515625, -292.93701171871345)">
	<path class="st0" d="M989.5,99.8c0.1,0,0.2,0,0.3,0c0.2,0.2,0.3,0.9,0.1,1.2c-0.2,0.3-0.3,0.6,0,0.9c0.2,0.2,0.7,0.3,0.9,0
		c0.5-0.7,0.6-1.6,0.2-2.5c-0.3-0.7-1-1.1-1.7-1c-0.1,0-0.1,0-0.2,0C988.4,98.8,988.7,100.1,989.5,99.8z"/>
</g>
</svg>
