<?xml version="1.0" encoding="utf-8"?>
<!-- Generator: Adobe Illustrator 21.0.2, SVG Export Plug-In . SVG Version: 6.00 Build 0)  -->
<svg version="1.1" id="master-artboard" xmlns="http://www.w3.org/2000/svg" xmlns:xlink="http://www.w3.org/1999/xlink" x="0px"
	 y="0px" viewBox="0 0 300 188.8" style="enable-background:new 0 0 300 188.8;" xml:space="preserve">
<style type="text/css">
	.st0{fill:#664428;}
	.st1{fill:#D7DF23;}
	.st2{fill:#B2BB1E;}
	.st3{fill:#FFFFFF;}
	.st4{opacity:0.2;}
	.st5{fill:#58595B;}
</style>
<g transform="matrix(3.3491342067718506, 0, 0, 3.3491342067718506, -3172.740478515625, -292.9370117187256)">
	<g>
		<path class="st0" d="M957,95.6c-1.8-2.7-5-3.7-8-4.3c-1.7-0.3-2.4,2.2-0.7,2.6c2.3,0.5,4.9,1.2,6.4,3.1c1.2,1.6,1.5,3.7,1.6,5.6
			c0.8-0.5,1.7-0.8,2.6-1.1C958.6,99.4,958.1,97.4,957,95.6z"/>
	</g>
</g>
<g transform="matrix(3.3491342067718506, 0, 0, 3.3491342067718506, -3172.740478515625, -292.93701171871345)">
	<path class="st0" d="M973.9,95.8c-1.5-3.3-3.9-6.9-7.5-8.3c-1.6-0.6-2.3,1.9-0.7,2.6c2.7,1,4.4,4.1,5.6,6.5
		c0.7,1.5,1.8,3.8,1.8,5.7c0.9,0.4,1.7,0.8,2.5,1.2C976,101,974.9,98.1,973.9,95.8z"/>
</g>
<g transform="matrix(3.332924342402322, 0, 0, 3.332924342402322, -3150.8473457076607, -290.7486706465378)">
	<path class="st0" d="M969.4,138.7c-0.3,0.9-0.4,1.9-0.3,2.8c0.1,1.7,2.8,1.7,2.6,0c-0.1-1.3,0.2-3.1,1.2-4.1
		c-0.1-0.1-0.1-0.1-0.2-0.2C971.7,137.9,970.6,138.4,969.4,138.7z"/>
</g>
<g transform="matrix(3.3491342067718506, 0, 0, 3.3491342067718506, -3172.740478515625, -292.93701171871345)">
	<path class="st1" d="M1023,102.7c4.3,1.5,7,3.8,8.4,6.3c7.1-2.7,8.7-13.2-3.1-17.3c-6.2-2.2-9.7,4.8-8.8,10.6
		C1020.5,102.1,1021.7,102.2,1023,102.7z"/>
</g>
<g transform="matrix(3.3491342067718506, 0, 0, 3.3491342067718506, -3172.740478515625, -292.93701171871345)">
	<path class="st2" d="M1019,121.7c0.6,0.2,1.2,0.4,1.9,0.5c2.5,0.3,4.7-0.1,6.5-1c-0.3-0.3-0.6-0.6-0.8-0.7
		c-1.5-0.9-0.1-3.2,1.3-2.3c0.7,0.4,1.2,0.9,1.7,1.5c2.1-1.9,3.2-4.6,2.9-7.5c-0.2-0.2-0.4-0.2-0.6-0.1c-1.6,0.5-2.3-2-0.7-2.6
		c0.2-0.1,0.3-0.1,0.5-0.1c-0.1-0.2-0.2-0.3-0.2-0.5c-1.4-2.5-4.1-4.8-8.4-6.3c-1.3-0.5-2.5-0.5-3.5-0.4c-2,0.4-3.5,1.7-4.6,3.4
		C1022.2,110.2,1022.6,117.3,1019,121.7z"/>
</g>
<g transform="matrix(3.3491342067718506, 0, 0, 3.3491342067718506, -3172.740478515625, -292.93701171871345)">
	<path class="st1" d="M1014.9,124.6c-0.1,0.1-0.2,0.1-0.3,0.2c0.3-0.1,0.6-0.2,0.8-0.4C1015.3,124.4,1015.1,124.5,1014.9,124.6z"/>
</g>
<g transform="matrix(3.3491342067718506, 0, 0, 3.3491342067718506, -3172.740478515625, -292.93701171871345)">
	<path class="st1" d="M1010.3,125.6c1.6,0,3-0.3,4.3-0.8c-1.3,0.5-2.3-1.5-1.1-2.4c1.4-1,3.2-0.7,4.2,0.5c0.4-0.4,0.8-0.8,1.2-1.2
		c3.6-4.4,3.2-11.5-4.1-15.9c-1.2-0.7-2.6-1.4-4.3-2c-4.9-1.7-8.4,1.2-10,5.4c0.3,0.1,0.6,0.2,0.8,0.3
		C1011.6,113,1013.4,120.6,1010.3,125.6z"/>
</g>
<g transform="matrix(3.3491342067718506, 0, 0, 3.3491342067718506, -3172.740478515625, -292.93701171871345)">
	<path class="st2" d="M1004.9,130c0.6-0.2,1.1-0.4,1.6-0.7c-0.1-0.1-0.2-0.1-0.3-0.2c-0.7-0.3-0.8-1.2-0.5-1.8
		c0.4-0.7,1.2-0.8,1.8-0.5c0.4,0.2,0.9,0.5,1.2,0.8c0.7-0.6,1.2-1.3,1.6-2c3-5.1,1.2-12.6-9-16.2c-0.3-0.1-0.6-0.2-0.8-0.3
		c-5.1-1.3-8.5,2.7-9.4,7.6c0.8,0,1.7,0.2,2.6,0.5C1001.8,120.1,1005,125.3,1004.9,130z"/>
</g>
<g transform="matrix(3.332924342402322, 0, 0, 3.332924342402322, -3150.8473457076607, -290.7486706465378)">
	<path class="st1" d="M986.5,138.5c0.1,0.2,0.3,0.4,0.4,0.6c0.9,0.4,1.8,0.6,2.8,0.8c4.5,0.6,8.2-0.9,10.7-3.3
		c-0.1-0.1-0.1-0.2-0.2-0.2c0.1,0.1-0.1,0-0.1,0c-1.7,0.4-2.4-2.2-0.7-2.6c1-0.2,1.9,0.1,2.6,0.7c0.9-1.5,1.3-3.1,1.4-4.8
		c0.1-4.7-3.1-9.9-11.2-12.7c-0.9-0.3-1.8-0.5-2.6-0.5c-2.1-0.1-3.9,0.7-5.3,2C994.9,124.2,993.6,134.6,986.5,138.5z"/>
</g>
<g transform="matrix(3.332924342402322, 0, 0, 3.332924342402322, -3150.8473457076607, -290.7486706465378)">
	<path class="st2" d="M972.7,137.3c0.1,0.1,0.1,0.1,0.2,0.2c1.4,1.3,3.2,2.2,5.5,2.5c2.1,0.3,4,0.1,5.6-0.4
		c-0.3-0.4-0.7-0.7-1.1-0.9c-1.4-0.9-0.1-3.2,1.3-2.3c0.8,0.6,1.7,1.3,2.2,2.1c7-3.9,8.4-14.4-2.2-20c-0.5-0.2-0.9-0.5-1.4-0.7
		C983.4,125.5,979.6,133.6,972.7,137.3z"/>
</g>
<g transform="matrix(3.3329243659973145, 0, 0, 3.3329243659973145, -3148.847412109375, -290.7486572265625)">
	<path class="st1" d="M960.9,139.3c3,0.4,5.7,0.2,8.1-0.6c1.2-0.4,2.3-0.8,3.4-1.4c6.9-3.7,10.7-11.8,10.2-19.4
		c-0.4-5.7-3.1-11.2-8.8-14.5c-0.8-0.5-1.6-0.9-2.5-1.2c-1.8-0.7-3.8-1.3-6.1-1.6c-3-0.4-5.8-0.1-8.2,0.7c-0.9,0.3-1.8,0.7-2.6,1.1
		C940.7,110,941.1,136.7,960.9,139.3z M949.7,115.2C949.7,115.2,949.7,115.2,949.7,115.2l4-1.2l-3.7-0.8c0.5-1.4,1.8-2.4,3.3-2.6
		c2.2-0.3,4.3,1.3,4.6,3.5c0.3,2.2-1.3,4.3-3.5,4.6C952,119.1,949.9,117.5,949.7,115.2z M962,128.3c-5.2,0-6.8-6.3-6.8-6.3
		s8.1,1.3,12.2-1.4C967.4,120.6,967.1,128.3,962,128.3z M966.7,106.9c3-0.4,5.7,1.7,6.1,4.7c0.4,3-1.7,5.7-4.7,6.1
		c-3,0.4-5.7-1.7-6.1-4.7c0,0,0-0.1,0-0.1l5.3-1.5l-5-1C962.9,108.6,964.6,107.2,966.7,106.9z M962,102c0,0-14.5,1.8-14.8,17.9
		C947.1,119.9,943.5,103.2,962,102z"/>
</g>
<g transform="matrix(3.332924342402322, 0, 0, 3.332924342402322, -3150.8473457076607, -290.7486706465378)">
	<path class="st0" d="M984.3,136.4c-1.4-0.9-2.8,1.4-1.3,2.3c0.4,0.2,0.8,0.5,1.1,0.9c0.2,0.2,0.4,0.5,0.5,0.8
		c0.3,0.7-0.1,0.8-0.7,1c-1.6,0.5-1,3,0.7,2.6c1.7-0.5,3.1-1.8,2.7-3.7c-0.1-0.4-0.2-0.7-0.3-1c-0.1-0.2-0.2-0.4-0.4-0.6
		C986,137.7,985.2,137,984.3,136.4z"/>
</g>
<g transform="matrix(3.332924342402322, 0, 0, 3.332924342402322, -3150.8473457076607, -290.7486706465378)">
	<path class="st0" d="M999.4,133.9c-1.7,0.4-1,2.9,0.7,2.6c0,0,0.1,0.1,0.1,0c0.1,0.1,0.2,0.2,0.2,0.2s0.1,0.2,0.1,0.3
		c0.2,0.5,0,1-0.6,1.3c-1.5,0.9-0.1,3.2,1.3,2.3c1.5-0.9,2.2-2.6,1.8-4.3c-0.2-0.7-0.5-1.3-1-1.7
		C1001.3,134,1000.4,133.7,999.4,133.9z"/>
</g>
<g transform="matrix(3.332924342402322, 0, 0, 3.332924342402322, -3150.8473457076607, -290.7486706465378)">
	<path class="st0" d="M1004.2,127.1c-0.3,0.6-0.2,1.5,0.5,1.8c0.1,0.1,0.2,0.1,0.3,0.2c0.4,0.2,0.8,0.5,0.9,0.9
		c0.2,0.5-0.2,0.7-0.7,0.9c-1.5,0.8-0.2,3,1.3,2.3c1.4-0.7,2.3-2,2-3.5c-0.2-0.8-0.7-1.6-1.3-2.2c-0.4-0.3-0.8-0.6-1.2-0.8
		C1005.4,126.3,1004.6,126.5,1004.2,127.1z"/>
</g>
<g transform="matrix(3.3491342067718506, 0, 0, 3.3491342067718506, -3172.740478515625, -292.93701171871345)">
	<path class="st0" d="M1013.6,122.4c-1.3,0.9-0.2,3,1.1,2.4h0c0.1,0,0.2-0.1,0.3-0.2c0.2-0.2,0.4-0.2,0.6-0.2c0.3,0,0.4,0.3,0.7,0.7
		c0.4,0.8,0.2,1.6-0.4,2.2c-1.2,1.2,0.6,3.1,1.9,1.9c1.6-1.5,1.7-3.7,0.8-5.5c-0.2-0.3-0.3-0.5-0.5-0.8
		C1016.7,121.7,1015,121.4,1013.6,122.4z"/>
</g>
<g transform="matrix(3.3491342067718506, 0, 0, 3.3491342067718506, -3167.740478515625, -292.93701171875)">
	<path class="st0" d="M962.8,113.1c0,0,0,0.1,0,0.1c0.4,3,3.1,5.1,6.1,4.7c3-0.4,5.1-3.1,4.7-6.1c-0.4-3-3.1-5.1-6.1-4.7
		c-2.1,0.3-3.7,1.7-4.4,3.5l5,1L962.8,113.1z"/>
</g>
<g transform="matrix(3.3491342067718506, 0, 0, 3.3491342067718506, -3166.740478515625, -292.93701171875)">
	<path class="st0" d="M958.4,114.4c-0.3-2.2-2.3-3.8-4.6-3.5c-1.6,0.2-2.8,1.3-3.3,2.6l3.7,0.8l-4,1.1c0,0,0,0.1,0,0.1
		c0.3,2.2,2.3,3.8,4.6,3.5C957.1,118.7,958.7,116.7,958.4,114.4z"/>
</g>
<g transform="matrix(3.3491342067718506, 0, 0, 3.3491342067718506, -3165.740478515625, -296.93701171875)">
	<path class="st0" d="M955.6,123.1c0,0,1.6,6.3,6.8,6.3c5.2,0,5.4-7.7,5.4-7.7C963.6,124.4,955.6,123.1,955.6,123.1z"/>
</g>
<g transform="matrix(3.3491342067718506, 0, 0, 3.3491342067718506, -3164.740478515625, -292.93701171875)">
	<path class="st3" d="M947.3,120.1c0.3-16.1,14.8-17.9,14.8-17.9C943.7,103.4,947.3,120.1,947.3,120.1z"/>
</g>
<g transform="matrix(3.332924342402322, 0, 0, 3.332924342402322, -3150.8473457076607, -290.7486706465378)" class="st4">
	<path class="st5" d="M1026.7,91.5c-6.2-2.2-9.7,4.8-8.8,10.6c-2,0.4-3.5,1.7-4.6,3.4c-1.2-0.7-2.6-1.4-4.3-2
		c-4.3-1.5-7.5,0.6-9.3,3.9v29.8c0.2-0.2,0.4-0.4,0.6-0.6c0.1,0.1,0.1,0.2,0.1,0.3c0.2,0.5,0,1-0.6,1.3c-0.1,0-0.1,0.1-0.2,0.1v2
		c0.4,0.4,0.9,0.5,1.5,0.2c1.5-0.9,2.2-2.6,1.8-4.3c-0.2-0.7-0.5-1.3-1-1.7c0.9-1.5,1.3-3.1,1.4-4.8c0.6-0.2,1.1-0.4,1.6-0.7
		c0.4,0.2,0.8,0.5,0.9,0.9c0.2,0.5-0.2,0.7-0.7,0.9c-1.5,0.8-0.2,3,1.3,2.3c1.4-0.7,2.3-2,2-3.5c-0.2-0.8-0.7-1.6-1.3-2.2
		c0.7-0.6,1.2-1.3,1.6-2c1.6,0,3-0.3,4.3-0.8h0c0.3-0.1,0.6-0.2,0.8-0.4c0.3,0,0.4,0.3,0.7,0.7c0.4,0.8,0.2,1.6-0.4,2.2
		c-1.2,1.2,0.6,3.1,1.9,1.9c1.6-1.5,1.7-3.7,0.8-5.5c-0.2-0.3-0.3-0.5-0.5-0.8c0.4-0.4,0.8-0.8,1.2-1.2c0.6,0.2,1.2,0.4,1.9,0.5
		c2.5,0.3,4.7-0.1,6.5-1c0.6,0.7,0.9,1.7,0,2.3c-1.5,0.9-0.1,3.2,1.3,2.3c2.4-1.5,2.3-4.1,0.9-6c2.1-1.9,3.2-4.6,2.9-7.5
		c0.5,0.5,0.6,1.9,0.2,2.4c-0.5,0.6-0.6,1.3,0,1.9c0.5,0.5,1.4,0.6,1.9,0c1.1-1.5,1.3-3.3,0.5-5c-0.7-1.4-2-2.3-3.5-2.1
		c-0.1-0.2-0.2-0.3-0.2-0.5C1037,106.1,1038.5,95.6,1026.7,91.5z"/>
</g>
<g transform="matrix(3.3491342067718506, 0, 0, 3.3491342067718506, -3172.740478515625, -292.93701171871345)">
	<path class="st0" d="M1027.9,118.1c-1.5-0.9-2.8,1.4-1.3,2.3c0.3,0.2,0.6,0.4,0.8,0.7c0.6,0.7,0.9,1.7,0,2.3
		c-1.5,0.9-0.1,3.2,1.3,2.3c2.4-1.5,2.3-4.1,0.9-6C1029.1,119,1028.5,118.5,1027.9,118.1z"/>
</g>
<g transform="matrix(3.3491342067718506, 0, 0, 3.3491342067718506, -3172.740478515625, -292.93701171871345)">
	<path class="st0" d="M1031.8,112.1c0.3-0.1,0.4,0,0.6,0.1c0.5,0.5,0.6,1.9,0.2,2.4c-0.5,0.6-0.6,1.3,0,1.9c0.5,0.5,1.4,0.6,1.9,0
		c1.1-1.5,1.3-3.3,0.5-5c-0.7-1.4-2-2.3-3.5-2.1c-0.2,0-0.3,0.1-0.5,0.1C1029.5,110,1030.2,112.6,1031.8,112.1z"/>
</g>
</svg>
