<?xml version="1.0" encoding="utf-8"?>
<!-- Generator: Adobe Illustrator 21.0.2, SVG Export Plug-In . SVG Version: 6.00 Build 0)  -->
<svg version="1.1" id="master-artboard" xmlns="http://www.w3.org/2000/svg" xmlns:xlink="http://www.w3.org/1999/xlink" x="0px"
	 y="0px" viewBox="0 0 150 153" style="enable-background:new 0 0 150 153;" xml:space="preserve">
<style type="text/css">
	.st0{fill:#664428;}
	.st1{fill:#D7DF23;}
	.st2{fill:#B2BB1E;}
	.st3{fill:#FFFFFF;}
	.st4{opacity:0.2;}
	.st5{fill:#58595B;}
</style>
<g transform="matrix(3.3491342067718506, 0, 0, 3.3491342067718506, -3172.740478515625, -292.9370117187256)">
	<g>
		<path class="st0" d="M952.2,98.8c-0.9-1.3-2.5-1.8-4-2.1c-0.8-0.1-1.2,1.1-0.3,1.3c1.1,0.2,2.4,0.6,3.2,1.5
			c0.6,0.8,0.7,1.8,0.8,2.8c0.4-0.2,0.8-0.4,1.3-0.5C953,100.7,952.7,99.7,952.2,98.8z"/>
	</g>
</g>
<g transform="matrix(3.3491342067718506, 0, 0, 3.3491342067718506, -3172.740478515625, -292.93701171871345)">
	<path class="st0" d="M960.6,98.9c-0.7-1.6-1.9-3.4-3.7-4.1c-0.8-0.3-1.1,0.9-0.3,1.3c1.3,0.5,2.2,2,2.8,3.2
		c0.3,0.7,0.9,1.9,0.9,2.8c0.4,0.2,0.8,0.4,1.2,0.6C961.7,101.5,961.1,100,960.6,98.9z"/>
</g>
<g transform="matrix(3.332924342402322, 0, 0, 3.332924342402322, -3150.8473457076607, -290.7486706465378)">
	<path class="st0" d="M957.4,120.2c-0.1,0.4-0.2,0.9-0.1,1.4c0,0.8,1.4,0.8,1.3,0c0-0.6,0.1-1.5,0.6-2c0,0,0,0-0.1-0.1
		C958.5,119.8,958,120,957.4,120.2z"/>
</g>
<g transform="matrix(3.3491342067718506, 0, 0, 3.3491342067718506, -3172.740478515625, -292.93701171871345)">
	<path class="st1" d="M985.1,102.3c2.1,0.7,3.5,1.9,4.2,3.1c3.5-1.3,4.3-6.6-1.5-8.6c-3.1-1.1-4.8,2.4-4.4,5.3
		C983.9,102,984.5,102.1,985.1,102.3z"/>
</g>
<g transform="matrix(3.3491342067718506, 0, 0, 3.3491342067718506, -3172.740478515625, -292.93701171871345)">
	<path class="st2" d="M983.2,111.8c0.3,0.1,0.6,0.2,0.9,0.2c1.2,0.1,2.3,0,3.2-0.5c-0.1-0.1-0.3-0.3-0.4-0.3c-0.7-0.4,0-1.6,0.6-1.1
		c0.3,0.2,0.6,0.4,0.8,0.7c1-0.9,1.6-2.3,1.4-3.7c-0.1-0.1-0.2-0.1-0.3,0c-0.8,0.2-1.1-1-0.3-1.3c0.1,0,0.1,0,0.2,0
		c0-0.1-0.1-0.1-0.1-0.2c-0.7-1.2-2-2.4-4.2-3.1c-0.6-0.2-1.2-0.2-1.7-0.2c-1,0.2-1.7,0.8-2.3,1.7
		C984.7,106.1,984.9,109.6,983.2,111.8z"/>
</g>
<g transform="matrix(3.3491342067718506, 0, 0, 3.3491342067718506, -3172.740478515625, -292.93701171871345)">
	<path class="st1" d="M981.1,113.3C981.1,113.3,981,113.3,981.1,113.3c0,0.1,0.2,0,0.3-0.1C981.3,113.2,981.2,113.2,981.1,113.3z"/>
</g>
<g transform="matrix(3.3491342067718506, 0, 0, 3.3491342067718506, -3172.740478515625, -292.93701171871345)">
	<path class="st1" d="M978.8,113.8c0.8,0,1.5-0.1,2.1-0.4c-0.6,0.2-1.1-0.7-0.5-1.2c0.7-0.5,1.6-0.3,2.1,0.2
		c0.2-0.2,0.4-0.4,0.6-0.6c1.8-2.2,1.6-5.7-2-7.9c-0.6-0.3-1.3-0.7-2.1-1c-2.4-0.8-4.2,0.6-5,2.7c0.1,0,0.3,0.1,0.4,0.1
		C979.5,107.5,980.4,111.3,978.8,113.8z"/>
</g>
<g transform="matrix(3.3491342067718506, 0, 0, 3.3491342067718506, -3172.740478515625, -292.93701171871345)">
	<path class="st2" d="M976.1,116c0.3-0.1,0.5-0.2,0.8-0.3c0,0-0.1,0-0.1-0.1c-0.3-0.1-0.4-0.6-0.2-0.9s0.6-0.4,0.9-0.2
		c0.2,0.1,0.4,0.2,0.6,0.4c0.3-0.3,0.6-0.6,0.8-1c1.5-2.5,0.6-6.3-4.5-8.1c-0.1,0-0.3-0.1-0.4-0.1c-2.5-0.6-4.2,1.3-4.7,3.8
		c0.4,0,0.8,0.1,1.3,0.2C974.6,111,976.2,113.6,976.1,116z"/>
</g>
<g transform="matrix(3.332924342402322, 0, 0, 3.332924342402322, -3150.8473457076607, -290.7486706465378)">
	<path class="st1" d="M965.9,120.1c0,0.1,0.1,0.2,0.2,0.3c0.4,0.2,0.9,0.3,1.4,0.4c2.2,0.3,4.1-0.4,5.3-1.6c0,0,0-0.1-0.1-0.1l0,0
		c-0.8,0.2-1.2-1.1-0.3-1.3c0.5-0.1,0.9,0,1.3,0.3c0.4-0.7,0.6-1.5,0.7-2.4c0-2.3-1.5-4.9-5.6-6.3c-0.4-0.1-0.9-0.2-1.3-0.2
		c-1,0-1.9,0.3-2.6,1C970.1,112.9,969.5,118.1,965.9,120.1z"/>
</g>
<g transform="matrix(3.332924342402322, 0, 0, 3.332924342402322, -3150.8473457076607, -290.7486706465378)">
	<path class="st2" d="M959,119.5C959.1,119.5,959.1,119.5,959,119.5c0.8,0.7,1.7,1.2,2.8,1.3c1,0.1,2,0,2.8-0.2
		c-0.1-0.2-0.3-0.3-0.5-0.4c-0.7-0.4,0-1.6,0.6-1.1c0.4,0.3,0.8,0.6,1.1,1c3.5-1.9,4.2-7.2-1.1-10c-0.2-0.1-0.4-0.2-0.7-0.3
		C964.4,113.6,962.5,117.6,959,119.5z"/>
</g>
<g transform="matrix(3.3329243659973145, 0, 0, 3.3329243659973145, -3148.847412109375, -290.7486572265625)">
	<path class="st1" d="M952.8,120.5c1.5,0.2,2.8,0.1,4-0.3c0.6-0.2,1.1-0.4,1.7-0.7c3.4-1.8,5.3-5.9,5.1-9.7
		c-0.2-2.8-1.5-5.6-4.4-7.2c-0.4-0.2-0.8-0.4-1.2-0.6c-0.9-0.3-1.9-0.6-3-0.8c-1.5-0.2-2.9,0-4.1,0.3c-0.4,0.1-0.9,0.3-1.3,0.5
		C942.7,105.8,942.9,119.2,952.8,120.5z M947.2,108.4L947.2,108.4l2-0.6l-1.8-0.4c0.2-0.7,0.9-1.2,1.6-1.3c1.1-0.1,2.1,0.6,2.3,1.7
		c0.1,1.1-0.6,2.1-1.7,2.3C948.4,110.4,947.3,109.6,947.2,108.4z M953.4,115c-2.6,0-3.4-3.1-3.4-3.1s4,0.6,6.1-0.7
		C956.1,111.1,955.9,115,953.4,115z M955.7,104.3c1.5-0.2,2.8,0.8,3,2.3s-0.8,2.8-2.3,3s-2.8-0.8-3-2.3l0,0l2.6-0.7l-2.5-0.5
		C953.8,105.1,954.7,104.4,955.7,104.3z M953.4,101.8c0,0-7.2,0.9-7.4,8.9C945.9,110.8,944.1,102.4,953.4,101.8z"/>
</g>
<g transform="matrix(3.332924342402322, 0, 0, 3.332924342402322, -3150.8473457076607, -290.7486706465378)">
	<path class="st0" d="M964.8,119c-0.7-0.4-1.4,0.7-0.6,1.1c0.2,0.1,0.4,0.2,0.5,0.4c0.1,0.1,0.2,0.2,0.2,0.4c0.1,0.3,0,0.4-0.3,0.5
		c-0.8,0.2-0.5,1.5,0.3,1.3s1.5-0.9,1.3-1.8c0-0.2-0.1-0.3-0.1-0.5c0-0.1-0.1-0.2-0.2-0.3C965.7,119.7,965.3,119.3,964.8,119z"/>
</g>
<g transform="matrix(3.332924342402322, 0, 0, 3.332924342402322, -3150.8473457076607, -290.7486706465378)">
	<path class="st0" d="M972.4,117.8c-0.8,0.2-0.5,1.4,0.3,1.3l0,0l0.1,0.1v0.1c0.1,0.2,0,0.5-0.3,0.6c-0.7,0.4,0,1.6,0.6,1.1
		c0.7-0.4,1.1-1.3,0.9-2.1c-0.1-0.3-0.2-0.6-0.5-0.8C973.3,117.8,972.9,117.7,972.4,117.8z"/>
</g>
<g transform="matrix(3.332924342402322, 0, 0, 3.332924342402322, -3150.8473457076607, -290.7486706465378)">
	<path class="st0" d="M974.8,114.4c-0.1,0.3-0.1,0.7,0.2,0.9c0,0,0.1,0,0.1,0.1c0.2,0.1,0.4,0.2,0.4,0.4c0.1,0.2-0.1,0.3-0.3,0.4
		c-0.7,0.4-0.1,1.5,0.6,1.1c0.7-0.3,1.1-1,1-1.7c-0.1-0.4-0.3-0.8-0.6-1.1c-0.2-0.1-0.4-0.3-0.6-0.4
		C975.4,114,975,114.1,974.8,114.4z"/>
</g>
<g transform="matrix(3.3491342067718506, 0, 0, 3.3491342067718506, -3172.740478515625, -292.93701171871345)">
	<path class="st0" d="M980.5,112.2c-0.6,0.4-0.1,1.5,0.5,1.2l0,0c0,0,0.1,0,0.1-0.1c0.1-0.1,0.2-0.1,0.3-0.1s0.2,0.1,0.3,0.3
		c0.2,0.4,0.1,0.8-0.2,1.1c-0.6,0.6,0.3,1.5,0.9,0.9c0.8-0.7,0.8-1.8,0.4-2.7c-0.1-0.1-0.1-0.2-0.2-0.4
		C982,111.8,981.2,111.7,980.5,112.2z"/>
</g>
<g transform="matrix(3.3491342067718506, 0, 0, 3.3491342067718506, -3167.740478515625, -292.93701171875)">
	<path class="st0" d="M954.3,107.5L954.3,107.5c0.2,1.5,1.5,2.6,3,2.4s2.5-1.5,2.3-3s-1.5-2.5-3-2.3c-1,0.1-1.8,0.8-2.2,1.7l2.5,0.5
		L954.3,107.5z"/>
</g>
<g transform="matrix(3.3491342067718506, 0, 0, 3.3491342067718506, -3166.740478515625, -292.93701171875)">
	<path class="st0" d="M952,108.2c-0.1-1.1-1.1-1.9-2.3-1.7c-0.8,0.1-1.4,0.6-1.6,1.3l1.8,0.4l-2,0.5l0,0c0.1,1.1,1.1,1.9,2.3,1.7
		C951.3,110.3,952.1,109.3,952,108.2z"/>
</g>
<g transform="matrix(3.3491342067718506, 0, 0, 3.3491342067718506, -3165.740478515625, -296.93701171875)">
	<path class="st0" d="M950.4,113.1c0,0,0.8,3.1,3.4,3.1c2.6,0,2.7-3.8,2.7-3.8C954.4,113.7,950.4,113.1,950.4,113.1z"/>
</g>
<g transform="matrix(3.3491342067718506, 0, 0, 3.3491342067718506, -3164.740478515625, -292.93701171875)">
	<path class="st3" d="M946.1,111c0.1-8,7.4-8.9,7.4-8.9C944.3,102.7,946.1,111,946.1,111z"/>
</g>
<g transform="matrix(3.332924342402322, 0, 0, 3.332924342402322, -3150.8473457076607, -290.7486706465378)" class="st4">
	<path class="st5" d="M986,96.6c-3.1-1.1-4.8,2.4-4.4,5.3c-1,0.2-1.7,0.8-2.3,1.7c-0.6-0.3-1.3-0.7-2.1-1c-2.1-0.7-3.7,0.3-4.6,1.9
		v14.9c0.1-0.1,0.2-0.2,0.3-0.3v0.1c0.1,0.2,0,0.5-0.3,0.6c0,0,0,0-0.1,0v1c0.2,0.2,0.4,0.2,0.7,0.1c0.7-0.4,1.1-1.3,0.9-2.1
		c-0.1-0.3-0.2-0.6-0.5-0.8c0.4-0.7,0.6-1.5,0.7-2.4c0.3-0.1,0.5-0.2,0.8-0.3c0.2,0.1,0.4,0.2,0.4,0.4c0.1,0.2-0.1,0.3-0.3,0.4
		c-0.7,0.4-0.1,1.5,0.6,1.1c0.7-0.3,1.1-1,1-1.7c-0.1-0.4-0.3-0.8-0.6-1.1c0.3-0.3,0.6-0.6,0.8-1c0.8,0,1.5-0.1,2.1-0.4l0,0
		c0.1,0,0.3-0.1,0.4-0.2c0.1,0,0.2,0.1,0.3,0.3c0.2,0.4,0.1,0.8-0.2,1.1c-0.6,0.6,0.3,1.5,0.9,0.9c0.8-0.7,0.8-1.8,0.4-2.7
		c-0.1-0.1-0.1-0.2-0.2-0.4c0.2-0.2,0.4-0.4,0.6-0.6c0.3,0.1,0.6,0.2,0.9,0.2c1.2,0.1,2.3,0,3.2-0.5c0.3,0.3,0.4,0.8,0,1.1
		c-0.7,0.4,0,1.6,0.6,1.1c1.2-0.7,1.1-2,0.4-3c1-0.9,1.6-2.3,1.4-3.7c0.2,0.2,0.3,0.9,0.1,1.2c-0.2,0.3-0.3,0.6,0,0.9
		c0.2,0.2,0.7,0.3,0.9,0c0.5-0.7,0.6-1.6,0.2-2.5c-0.3-0.7-1-1.1-1.7-1c0-0.1-0.1-0.1-0.1-0.2C991.2,103.9,991.9,98.6,986,96.6z"/>
</g>
<g transform="matrix(3.3491342067718506, 0, 0, 3.3491342067718506, -3172.740478515625, -292.93701171871345)">
	<path class="st0" d="M987.6,110c-0.7-0.4-1.4,0.7-0.6,1.1c0.1,0.1,0.3,0.2,0.4,0.3c0.3,0.3,0.4,0.8,0,1.1c-0.7,0.4,0,1.6,0.6,1.1
		c1.2-0.7,1.1-2,0.4-3C988.2,110.5,987.9,110.2,987.6,110z"/>
</g>
<g transform="matrix(3.3491342067718506, 0, 0, 3.3491342067718506, -3172.740478515625, -292.93701171871345)">
	<path class="st0" d="M989.5,107c0.1,0,0.2,0,0.3,0c0.2,0.2,0.3,0.9,0.1,1.2c-0.2,0.3-0.3,0.6,0,0.9c0.2,0.2,0.7,0.3,0.9,0
		c0.5-0.7,0.6-1.6,0.2-2.5c-0.3-0.7-1-1.1-1.7-1c-0.1,0-0.1,0-0.2,0C988.4,106,988.7,107.3,989.5,107z"/>
</g>
</svg>
