<?xml version="1.0" encoding="utf-8"?>
<!-- Generator: Adobe Illustrator 21.0.2, SVG Export Plug-In . SVG Version: 6.00 Build 0)  -->
<svg version="1.1" id="master-artboard" xmlns="http://www.w3.org/2000/svg" xmlns:xlink="http://www.w3.org/1999/xlink" x="0px"
	 y="0px" viewBox="0 0 100 112.8" style="enable-background:new 0 0 100 112.8;" xml:space="preserve">
<style type="text/css">
	.st0{fill:#FE3635;}
	.st1{fill:#FF5252;}
	.st2{fill:#FF1212;}
	.st3{fill:#643F1B;}
	.st4{fill:#98BD29;}
</style>
<g transform="matrix(2.652939841940327, 0, 0, 2.652939841940327, -80.33287379611386, -379.6803018711815)">
	<path class="st0" d="M53.9,154.1c-1.7,0-3.3,0.2-4.8,0.7c-1.5-0.5-3.1-0.7-4.8-0.7c-7.7,0-14,5-14,13.7s6.3,17.8,14,17.8
		c1.7,0,3.3-0.4,4.8-1.2c1.5,0.8,3.1,1.2,4.8,1.2c7.7,0,14-9.1,14-17.8S61.7,154.1,53.9,154.1z"/>
	<g>
		<path class="st1" d="M34.7,167.6c0-0.3,0-0.7,0-1c0-0.2,0-0.4,0.1-0.6c-0.1,0.4,0-0.2,0-0.2c0.1-0.7,0.3-1.4,0.6-2.1
			c-0.2,0.5,0.1-0.1,0.1-0.2c0.1-0.2,0.2-0.3,0.2-0.5c0.2-0.3,0.3-0.6,0.5-0.9c0.1-0.1,0.4-0.5,0.1-0.1c0.1-0.1,0.2-0.3,0.3-0.4
			c0.2-0.3,0.5-0.5,0.7-0.7c0.1-0.1,0.8-0.6,0.3-0.3c0.3-0.2,0.5-0.4,0.8-0.6c0.3-0.2,0.6-0.3,0.9-0.5c0.2-0.1,0.3-0.1,0.5-0.2
			c-0.5,0.2,0,0,0.1,0c0.7-0.2,1.3-0.4,2-0.5c0.1,0,0.7-0.1,0.2,0c0.2,0,0.4,0,0.5-0.1c0.4,0,0.7,0,1.1-0.1c1.2,0,2.1-0.9,2.1-2.1
			c0-1.1-1-2.1-2.1-2.1c-3.5,0-6.9,1.2-9.5,3.5c-2.7,2.4-3.9,6.1-3.9,9.6C30.4,170.3,34.7,170.3,34.7,167.6L34.7,167.6z"/>
	</g>
	<g>
		<path class="st2" d="M63.4,168.5c0,0.4,0,0.8-0.1,1.2c0,0.2,0,0.4-0.1,0.6c0.1-0.4,0,0.3-0.1,0.3c-0.1,0.8-0.3,1.6-0.6,2.4
			c-0.5,1.4-1.2,2.8-2.2,4.2c-0.4,0.5,0.3-0.3-0.2,0.2c-0.1,0.2-0.3,0.3-0.4,0.5c-0.3,0.3-0.5,0.6-0.8,0.8c-0.3,0.3-0.6,0.5-0.9,0.8
			c0.4-0.3-0.1,0.1-0.2,0.1c-0.2,0.1-0.4,0.3-0.6,0.4c-0.3,0.2-0.6,0.4-1,0.5c-0.5,0.3,0.4-0.2-0.1,0.1c-0.2,0.1-0.3,0.1-0.5,0.2
			c-0.3,0.1-0.7,0.2-1.1,0.3c-0.6,0.1,0.4,0-0.2,0c-0.2,0-0.5,0-0.7,0c-1.2,0-2.1,0.9-2.1,2.1c0,1.1,1,2.2,2.1,2.1
			c8.4-0.1,13.7-9.3,13.8-16.9C67.7,165.8,63.5,165.8,63.4,168.5L63.4,168.5z"/>
	</g>
	<g>
		<g>
			<path class="st3" d="M50.1,155.2c1-4.1,0-8.8-3-11.8c-1-1-2.5,0.5-1.5,1.5c1.7,1.7,2.6,3.9,2.7,6.3c0.1,0.8,0,1.7-0.1,2.5
				c0-0.2,0,0.2,0,0.2c0,0.1,0,0.2-0.1,0.3c0,0.1,0,0.2-0.1,0.3C47.8,156,49.8,156.5,50.1,155.2L50.1,155.2z"/>
		</g>
		<path class="st4" d="M49.1,156.1c0,0,9.6,3.4,11.5-9.8C60.6,146.3,47.3,144.4,49.1,156.1z"/>
	</g>
</g>
</svg>
