<?xml version="1.0" encoding="utf-8"?>
<!-- Generator: Adobe Illustrator 21.0.2, SVG Export Plug-In . SVG Version: 6.00 Build 0)  -->
<svg version="1.1" id="master-artboard" xmlns="http://www.w3.org/2000/svg" xmlns:xlink="http://www.w3.org/1999/xlink" x="0px"
	 y="0px" viewBox="0 0 150 111.1" style="enable-background:new 0 0 150 111.1;" xml:space="preserve">
<style type="text/css">
	.st0{fill:#FEE252;}
	.st1{fill:#FD9602;}
	.st2{fill:#FBC816;}
	.st3{fill:#578E0B;}
	.st4{fill:#86AA00;}
</style>
<path class="st0" d="M64.6,35.3c23.9,10.5,35.9,32.2,26.8,48.4C82.3,99.9,55.5,104.5,31.6,94C7.7,83.5-4.3,61.8,4.8,45.6
	S40.7,24.8,64.6,35.3z"/>
<path class="st1" d="M56.5,33.4C76.2,43.6,92.7,54.7,92,72.2c-0.8,20.2-25.8,22.9-38.2,21.5C21.2,90-6.5,61.6,8,41.5
	C14.3,32.7,23,33,29.8,29.7c-56.6,1.4-25.9,103,36.4,77.3c16.2-6.7,8.2-11.4,19.9-8.8c9.8,2.1,16.6,4.3,24.6,2.8
	c38.2-7.5,49.3-49.4,29.8-76C123.3,1.2,84.2-7.6,56.5,33.4z"/>
<path class="st2" d="M27,77.6c4.3-3.9,8.1-4.7,11-9.4c-2,2.6-1.9,2-4.1,3.8c-4.6,3.7-2.7,1.5-7.3,6.2c18.9,11.9,19,7.6,33.2,10.8
	c8,1.8,14,0.3,19.9-7.1L62.1,71.7c2.6,4.4,14,9.1,19.8,11c9.1-11.6,7.5-23.3-3.8-33C64.8,38.2,54.5,35.3,40.8,33.6
	c-11-1.4-15.4-0.9-23.7,5.3C0.6,51.1,11.8,69.8,27,77.6z"/>
<path class="st3" d="M117.5,8.7c-6.7-1.2-8.4,7.3-24,12c-8.4,2.5-4.6,2.1-8.2,3.8c1.7-28.6,22.3-18.8,30.4-17.1
	c4.6,1,3.1-1.9,6.6,0.3C115,21,114.5,17.6,117.5,8.7z"/>
<path class="st4" d="M117.5,8.7c0,0-10.2-2.8-20,3.9S85.3,24.6,85.3,24.6S83.7-12.6,117.5,8.7z"/>
<path class="st0" d="M59.9,47.6c-7.5,9.5-3.9,14.7,1.5,22.5c-11.3-9.6-13.6-12.8-25.6-3c6.3-7.2,12-9.7-1.5-22.5
	C43.1,54.8,54.1,54.5,59.9,47.6z"/>
</svg>
