<?xml version="1.0" encoding="utf-8"?>
<!-- Generator: Adobe Illustrator 21.0.2, SVG Export Plug-In . SVG Version: 6.00 Build 0)  -->
<svg version="1.1" id="Layer_2" xmlns="http://www.w3.org/2000/svg" xmlns:xlink="http://www.w3.org/1999/xlink" x="0px" y="0px"
	 viewBox="0 0 150 147.5" style="enable-background:new 0 0 150 147.5;" xml:space="preserve">
<style type="text/css">
	.st0{fill:none;}
	.st1{fill:#969696;}
	.st2{fill:#BF1324;}
	.st3{fill:#FC3A3B;}
	.st4{fill:#C8C8C8;}
</style>
<title>Artboard 3</title>
<g>
	<path class="st0" d="M42.6,9.9L42.6,9.9z"/>
	<path class="st0" d="M106.8,9.9L106.8,9.9z"/>
	<path class="st0" d="M43.2,9.9L43.2,9.9z"/>
	<path class="st0" d="M107.6,9.9L107.6,9.9z"/>
	<path class="st1" d="M123.9,63.3L123.9,63.3z"/>
	<path class="st1" d="M122.4,65.4L122.4,65.4z"/>
	<path class="st1" d="M73.1,63l0.4,0.6L73.1,63z"/>
	<path class="st1" d="M88.9,43.9L88.9,43.9z"/>
	<path class="st1" d="M70.8,59.7l0.3,0.5L70.8,59.7z"/>
	<path class="st1" d="M71.9,61.3l0.3,0.5L71.9,61.3z"/>
	<path class="st1" d="M69.9,58.1l0.2,0.4L69.9,58.1z"/>
	<path class="st1" d="M69,56.5l0.2,0.4L69,56.5z"/>
	<path class="st1" d="M74.3,64.6l0.4,0.6L74.3,64.6z"/>
	<path class="st1" d="M75.8,66.3l0.4,0.5L75.8,66.3z"/>
	<path class="st1" d="M120.8,67.3L120.8,67.3z"/>
	<path class="st1" d="M116.6,40.7l0.6,1.2L116.6,40.7z"/>
	<path class="st1" d="M115.4,38.8l0.8,1.3L115.4,38.8z"/>
	<path class="st1" d="M113.5,36.4c0.5,0.6,1,1.2,1.5,1.8C114.5,37.6,114,37,113.5,36.4z"/>
	<path class="st1" d="M117.4,42.6c0.2,0.4,0.3,0.8,0.4,1.2L117.4,42.6z"/>
	<path class="st1" d="M118,44.4c0.1,0.4,0.2,0.8,0.3,1.3C118.2,45.3,118.1,44.9,118,44.4z"/>
	<path class="st1" d="M68.2,54.8l0.2,0.3L68.2,54.8z"/>
	<path class="st1" d="M98.1,39.3c0-0.3,0-0.6,0-0.9C98.1,38.6,98.1,39,98.1,39.3z"/>
	<path class="st1" d="M91.1,49l0.1,0.2L91.1,49z"/>
	<path class="st1" d="M93.4,52.4l0.3,0.3L93.4,52.4z"/>
	<path class="st1" d="M118.4,46.3c0.1,0.4,0.1,0.9,0.1,1.4C118.5,47.2,118.4,46.8,118.4,46.3z"/>
	<path class="st1" d="M90.2,47.4L90.2,47.4z"/>
	<path class="st1" d="M98.1,55.2l0.3-0.1L98.1,55.2z"/>
	<path class="st1" d="M98.3,40.8c-0.1-0.4-0.2-0.8-0.2-1.2C98.1,40,98.2,40.4,98.3,40.8z"/>
	<path class="st1" d="M26.9,15.4l1-0.6L26.9,15.4z"/>
	<path class="st1" d="M25.4,16.4l1-0.7L25.4,16.4z"/>
	<path class="st1" d="M28.4,14.5l0.9-0.6L28.4,14.5z"/>
	<path class="st1" d="M24,17.6l1-0.8L24,17.6z"/>
	<path class="st1" d="M30,13.6l0.9-0.5L30,13.6z"/>
	<path class="st1" d="M10,45c0.1-0.7,0.1-1.4,0.2-2.1C10.1,43.6,10.1,44.3,10,45z"/>
	<path class="st1" d="M22.5,18.8l1.1-0.9L22.5,18.8z"/>
	<path class="st1" d="M9.9,47.2c0-0.7,0.1-1.4,0.1-2.1C10,45.8,9.9,46.5,9.9,47.2z"/>
	<path class="st1" d="M31.5,12.8l0.9-0.4L31.5,12.8z"/>
	<path class="st1" d="M21.1,20.2l1.1-1.1L21.1,20.2z"/>
	<path class="st1" d="M10.2,42.9c1-8.5,4.8-16.4,10.7-22.6C15,26.5,11.3,34.4,10.2,42.9z"/>
	<path class="st1" d="M33.1,12.2l0.9-0.3L33.1,12.2z"/>
	<path class="st1" d="M65.6,46.8L65.6,46.8z"/>
	<path class="st1" d="M66,48.4L66,48.4z"/>
	<path class="st1" d="M66.4,50L66.4,50z"/>
	<path class="st1" d="M66.9,51.7L66.9,51.7z"/>
	<path class="st1" d="M65.3,45.3L65.3,45.3z"/>
	<path class="st1" d="M39.8,10.3l1.1-0.2L39.8,10.3z"/>
	<path class="st1" d="M34.8,11.6l0.9-0.3L34.8,11.6z"/>
	<path class="st1" d="M36.4,11l0.9-0.2L36.4,11z"/>
	<path class="st1" d="M67.6,53.3l0.1,0.3L67.6,53.3z"/>
	<path class="st1" d="M38.1,10.6l1-0.2L38.1,10.6z"/>
	<path class="st1" d="M65.1,43.7L65.1,43.7z"/>
	<path class="st1" d="M138.7,84.5c-11.6,18.4-31.4,35.4-59,50.5l-4.7,2.6l-4.7-2.6c-27.6-15.1-47.4-32-59-50.5
		C4.1,73,1,62.5,0.2,53.7c-0.9,10.6,0.9,24.7,11.1,40.8c11.6,18.4,31.4,35.4,59,50.5l4.7,2.6l4.7-2.6c27.6-15.1,47.4-32.1,59-50.5
		c10.1-16.1,12-30.2,11.1-40.8C148.9,62.5,145.9,73,138.7,84.5z"/>
	<path class="st1" d="M139.8,43c0.1,0.7,0.2,1.3,0.2,2.1C139.9,44.3,139.9,43.7,139.8,43z"/>
	<path class="st1" d="M140,45.1c0.1,0.7,0.1,1.4,0.1,2.1C140.1,46.5,140,45.8,140,45.1z"/>
	<path class="st1" d="M9.9,49.4c0,0.7,0,1.5,0.1,2.3l0,0C9.9,51,9.9,50.2,9.9,49.4z"/>
	<path class="st1" d="M139.4,40.9c0.1,0.7,0.2,1.3,0.3,2C139.7,42.2,139.5,41.5,139.4,40.9z"/>
	<path class="st1" d="M140.1,47.3c0,0.7,0,1.4,0,2.1C140.1,48.7,140.1,48,140.1,47.3z"/>
	<path class="st1" d="M140.1,49.5c0,0.7-0.1,1.4-0.1,2.2C140,50.9,140.1,50.2,140.1,49.5z"/>
	<path class="st1" d="M126.4,17.9l1.1,0.9L126.4,17.9z"/>
	<path class="st1" d="M130.2,21.7c4.3,4.9,7.3,10.8,8.8,17.2C137.5,32.5,134.5,26.6,130.2,21.7z"/>
	<path class="st1" d="M139,38.8c0.2,0.7,0.3,1.3,0.4,2C139.3,40.2,139.2,39.5,139,38.8z"/>
	<path class="st1" d="M129,20.3l1.2,1.3L129,20.3z"/>
	<path class="st1" d="M118.6,48.1c0,0.5,0,1-0.1,1.5C118.5,49.1,118.6,48.6,118.6,48.1z"/>
	<path class="st1" d="M95.1,54.3l-0.4-0.4L95.1,54.3z"/>
	<path class="st1" d="M42.5,9.9l-0.9,0.1L42.5,9.9L42.5,9.9z"/>
	<path class="st1" d="M98.3,40.8c0.1,0.4,0.2,0.9,0.4,1.3l0,0C98.5,41.7,98.4,41.3,98.3,40.8z"/>
	<path class="st1" d="M88.5,42.1L88.5,42.1z"/>
	<path class="st1" d="M125,16.8l1,0.8L125,16.8z"/>
	<path class="st1" d="M108.5,10.1l-0.9-0.1l0,0L108.5,10.1z"/>
	<path class="st1" d="M9.9,49.4c0-0.7,0-1.4,0-2.2C9.8,48,9.8,48.7,9.9,49.4z"/>
	<path class="st1" d="M74.8,40.4c0,0.5,0.1,1.1,0.1,1.6l0,0C74.8,41.4,74.8,40.9,74.8,40.4z"/>
	<path class="st1" d="M127.7,19.1l1.1,1.1L127.7,19.1z"/>
	<path class="st1" d="M75.7,31.2l0.3-1.1L75.7,31.2z"/>
	<path class="st1" d="M76.1,29.9l0.3-1.1L76.1,29.9z"/>
	<path class="st1" d="M76.5,28.7c0.3-0.8,0.6-1.6,0.9-2.2C77.1,27.1,76.8,27.9,76.5,28.7z"/>
	<path class="st1" d="M77.4,26.3l0.4-0.9L77.4,26.3z"/>
	<path class="st1" d="M78,25.2l0.3-0.7L78,25.2z"/>
	<path class="st1" d="M118.5,49.9c0,0.6-0.1,1.2-0.2,1.7C118.4,51,118.5,50.5,118.5,49.9z"/>
	<path class="st1" d="M74.8,40.2c0-0.4-0.1-0.9-0.1-1.4C74.7,39.3,74.7,39.7,74.8,40.2z"/>
	<path class="st1" d="M78.6,24.2l0.3-0.6L78.6,24.2z"/>
	<path class="st1" d="M74.7,38.6c0-0.4,0-0.9,0.1-1.3C74.7,37.7,74.7,38.1,74.7,38.6z"/>
	<path class="st1" d="M75.4,32.6l0.3-1.2L75.4,32.6z"/>
	<path class="st1" d="M74.8,37.1c0.1-1.5,0.3-2.9,0.6-4.4C75.1,34.1,74.9,35.6,74.8,37.1z"/>
	<path class="st1" d="M79.1,23.4l0.3-0.5L79.1,23.4z"/>
	<path class="st1" d="M115.9,11.8l0.9,0.4L115.9,11.8z"/>
	<path class="st1" d="M119.1,13.1l0.9,0.5L119.1,13.1z"/>
	<path class="st1" d="M117.5,12.4l0.9,0.4L117.5,12.4z"/>
	<path class="st1" d="M122.1,14.8l0.9,0.6L122.1,14.8z"/>
	<path class="st1" d="M120.6,13.9l0.9,0.6L120.6,13.9z"/>
	<path class="st1" d="M110.9,10.4l1,0.2L110.9,10.4z"/>
	<path class="st1" d="M79.6,22.7l0.5-0.7L79.6,22.7z"/>
	<path class="st1" d="M109.2,10.1l1.1,0.2L109.2,10.1z"/>
	<path class="st1" d="M123.6,15.8l1,0.7L123.6,15.8z"/>
	<path class="st1" d="M114.3,11.2l0.9,0.3L114.3,11.2z"/>
	<path class="st1" d="M112.6,10.8l1,0.3L112.6,10.8z"/>
	<path class="st2" d="M103.3,38.3c3.2-0.8,7,0.8,10.3,4.4c2.3,2.5,3.9,5.6,4.7,8.9l0,0c0.1-0.6,0.2-1.1,0.2-1.7v-0.3
		c0-0.5,0.1-1,0.1-1.5c0-0.2,0-0.3,0-0.4c0-0.2-0.1-0.9-0.1-1.4l-0.1-0.6c-0.1-0.4-0.2-0.8-0.3-1.3l-0.2-0.6
		c-0.1-0.4-0.3-0.8-0.4-1.2l-0.3-0.7l-0.6-1.2l-0.3-0.7l-0.8-1.3l-0.4-0.6c-0.5-0.6-1-1.2-1.5-1.8c-3.3-3.6-7-5.3-10.3-4.4
		c-2.5,0.6-4.4,2.6-5,5.1c-0.1,0.4-0.2,0.8-0.2,1.3c0,0.3,0,0.6,0,0.9c0,0.1,0,0.2,0,0.3c0,0.4,0.1,0.8,0.2,1.2l0,0
		c0.1,0.4,0.2,0.9,0.4,1.3C99.4,40.2,101.2,38.7,103.3,38.3z"/>
	<path class="st2" d="M80.1,28.3c7.4-8.4,16.3-12.2,25-12.2c17.2,0,33.5,14.6,34.9,35.6l0,0c0.1-0.7,0.1-1.5,0.1-2.2s0-0.1,0-0.1
		c0-0.1,0-1.4,0-2.1c0-0.7,0-0.1,0-0.1s-0.1-1.4-0.1-2.1V45c-0.1-0.7-0.1-1.3-0.2-2.1v-0.1c-0.1-0.7-0.2-1.3-0.3-2l0,0
		c-0.1-0.7-0.3-1.3-0.4-2l0,0c-1.5-6.4-4.5-12.3-8.8-17.2l0,0l-1.2-1.3l-0.2-0.2l-1.1-1.1l-0.3-0.3l-1.1-0.9l-0.4-0.3l-1-0.9
		l-0.4-0.3l-1-0.7l-0.5-0.3l-0.9-0.6l-0.6-0.3l-0.9-0.6l-0.6-0.3l-0.9-0.5l-0.6-0.3l-0.9-0.4l-0.7-0.3l-0.9-0.4l-0.7-0.2l-0.9-0.3
		l-0.7-0.2l-1-0.3l-0.7-0.2l-1-0.2l-0.7-0.1l-1.1-0.2l-0.7-0.1l-1-0.1h-2.4c-8.7,0-17.6,3.7-25,12.2l-0.5,0.7l-0.2,0.2l-0.3,0.5
		L79,23.6l-0.3,0.6l-0.2,0.3l-0.3,0.7l-0.1,0.3l-0.4,0.9h-0.1c-0.3,0.7-0.6,1.4-0.9,2.2v0.2l-0.3,1.1v0.2l-0.3,1.1v0.2l-0.3,1.2l0,0
		c-0.3,1.4-0.5,2.9-0.6,4.4v0.4c0,0.4-0.1,0.9-0.1,1.3v0.2c0,0.4,0,0.9,0.1,1.4v0.2c0,0.5,0.1,1.1,0.1,1.6
		C75.6,35.9,77.9,30.9,80.1,28.3z"/>
	<path class="st2" d="M9.9,49.4c0,0.7,0,1.5,0.1,2.3c1.4-21.1,17.7-35.6,34.9-35.6c7.7,0,15.4,2.9,22.3,9.3l0,0
		c0.5-1.5,1.2-3,1.9-4.4C61.8,13.3,53.3,9.8,44.9,9.8h-2.4l-1,0.1l-0.7,0.1l-1.1,0.2L39,10.3l-1,0.2l-0.7,0.2l-0.9,0.2l-0.7,0.2
		l-0.9,0.3L34,11.7L33.1,12l-0.7,0.3l-0.9,0.4L30.8,13l-0.9,0.5l-0.6,0.3l-0.9,0.6l-0.6,0.3l-1,0.6l-0.5,0.3l-1,0.7l-0.4,0.3l-1,0.8
		l-0.3,0.3l-1.1,0.9L22.2,19l-1.1,1.1L21,20.3c-5.9,6.2-9.7,14.1-10.7,22.7l0,0c-0.1,0.7-0.1,1.4-0.2,2.1l0,0
		c-0.1,0.7-0.1,1.4-0.1,2.1l0,0c0,0.7,0,1.4,0,2.2V49.4z"/>
	<path class="st2" d="M96.6,61.9c7-1.6,6.6-7.3,6.6-7.3l-2.6,2.3l-1.3-2.4L98.4,55l-0.3,0.2l-1.5,0.4l-1.4-1.4l-0.4-0.4l-1-1.1
		l-0.3-0.3c-0.8-1-1.6-2-2.2-3.1l-0.1-0.2l-0.8-1.5v-0.1c-0.5-1.1-1-2.3-1.3-3.4l0,0c-0.2-0.6-0.3-1.2-0.4-1.7l0,0
		C87.3,49,90.2,56.2,96.6,61.9z"/>
	<path class="st2" d="M77.8,74.7c6.3,6.4,13.6,9.1,20.6,9.1c7,0,15.2-3.3,20.7-8.5c5.5-5.2,10.3-14.6,9.2-23.8
		c-0.6,4.2-2.1,8.2-4.4,11.8l0,0c-0.4,0.7-0.9,1.4-1.4,2.1l0,0l-1.6,1.9l0,0l-1.7,1.7c-5.5,5.2-12.9,8.5-20.7,8.5
		s-14.3-2.7-20.6-9.1l-1.6-1.6l-0.4-0.5l-1-1.1l-0.4-0.6l-0.9-1.1l-0.4-0.6l-0.8-1.1l-0.3-0.5l-0.8-1.1l-0.3-0.5l-0.7-1.2l-0.2-0.4
		l-0.7-1.2l-0.2-0.4l-0.6-1.3l-0.2-0.3l-0.6-1.3l-0.1-0.3l-0.5-1.4v-0.2l-0.5-1.4V50l-0.4-1.4v-0.1L65.9,47v-0.1
		c-0.1-0.5-0.2-1-0.3-1.6l0,0c-0.1-0.5-0.2-1.1-0.2-1.6l0,0c-0.1-0.5-0.1-1.1-0.2-1.6l0,0C64.1,52,66.9,63.8,77.8,74.7z"/>
	<path class="st2" d="M103.2,54.7v-5.9c-0.1,2.5-1.6,4.7-3.8,5.9l1.3,2.4L103.2,54.7z"/>
	<path class="st3" d="M44.9,16.1c-17.2,0-33.5,14.6-34.9,35.6l0,0c1.5,21.9,18.7,49.4,65,74.7c46.3-25.3,63.5-52.8,65-74.7
		c-1.4-21.1-17.7-35.6-34.9-35.6c-8.7,0-17.6,3.7-25,12.2c-2.1,2.7-4.5,7.6-5.2,13.7l0,0c0.7,6.2,3.4,13.1,9.9,19.6
		c9.3,9.4,20.8,6.8,27.6,0.4c3-2.7,5-6.3,5.8-10.3c-0.7-3.4-2.4-6.4-4.7-8.9c-3.3-3.6-7-5.3-10.3-4.4c-2,0.5-3.7,2-4.6,3.9l0,0
		c1,2.4,2.5,4.5,4.4,6.2c0,0,0,0.1,0,0.3v5.9c0,0,0.4,5.7-6.6,7.3c-6.4-5.8-9.3-12.9-8.1-19.8l0,0c-0.4-2.4-0.4-4.8,0.2-7.1v-0.3
		c1.5-6,6.2-10.7,12.2-12.2c6.9-1.7,14.2,1,19.9,7.4c5.8,6.4,8.3,14.7,7.4,21.7c1.2,9.2-2.9,17.9-9.2,23.8s-12.9,8.5-20.7,8.5
		s-14.2-2.7-20.5-9.1C66.9,63.8,64.1,52,64.9,42.1l0,0c-0.4-5.7,0.3-11.3,2.3-16.7l0,0C60.4,19,52.6,16.1,44.9,16.1z"/>
	<path class="st4" d="M70.3,135l4.7,2.6l4.7-2.6c27.6-15.1,47.4-32.1,59-50.5c7.2-11.5,10.3-22,11.1-30.9c0.6-6.1,0.1-12.2-1.4-18.1
		C143,14.6,125.2,0,105.1,0l0,0C93.9,0,83.4,4.7,75,13.1C66.6,4.7,56.1,0,44.9,0C24.8,0,7,14.6,1.6,35.5c-1.5,5.9-2,12.1-1.4,18.2
		C1,62.5,4.1,73,11.3,84.6C22.8,103,42.7,120,70.3,135z M9.9,47.2c0-0.7,0.1-1.4,0.1-2.1l0,0c0.1-0.7,0.1-1.4,0.2-2.1l0,0
		c1-8.5,4.8-16.5,10.7-22.7l0.2-0.2l1.1-1.1l0.3-0.2l1.1-0.9l0.3-0.3l1-0.8l0.4-0.3l1-0.7l0.5-0.3l1-0.6l0.6-0.3l0.9-0.6l0.6-0.3
		l0.9-0.5l0.6-0.3l0.9-0.4l0.7-0.3l0.9-0.3l0.7-0.2l0.9-0.3l0.7-0.2l0.9-0.2l0.7-0.2l1-0.2l0.7-0.1l1.1-0.2l0.7-0.1l0.9-0.1h2.5
		c8.3,0,16.9,3.4,24.2,11.2c-0.7,1.4-1.3,2.9-1.9,4.4l0,0c-1.9,5.3-2.7,11-2.3,16.7l0,0c0.1,0.5,0.1,1.1,0.2,1.6l0,0
		c0.1,0.5,0.2,1.1,0.2,1.6l0,0c0.1,0.5,0.2,1,0.3,1.6v0.1l0.3,1.5v0.1l0.4,1.4v0.2l0.5,1.4v0.2l0.5,1.4l0.1,0.3l0.6,1.3l0.2,0.3
		l0.6,1.3l0.2,0.4l0.7,1.2l0.2,0.4l0.7,1.2l0.3,0.5l0.8,1.1l0.3,0.5l0.8,1.1l0.4,0.6l0.9,1.1l0.4,0.6l1,1.1l0.4,0.5l1.6,1.6
		c6.3,6.4,13.6,9.1,20.6,9.1c7,0,15.2-3.3,20.7-8.5l1.7-1.7l0,0l1.6-1.9l0,0c0.5-0.7,1-1.3,1.4-2.1l0,0c2.3-3.5,3.8-7.6,4.4-11.8
		c0.9-7-1.1-14.7-7.4-21.7c-6.4-7.1-12.7-9.1-19.6-7.3c-6,1.5-10.7,6.2-12.2,12.2V35c-0.5,2.3-0.6,4.8-0.2,7.1l0,0
		c0.1,0.6,0.2,1.2,0.4,1.7l0,0c0.3,1.2,0.8,2.3,1.3,3.4v0.1l0.8,1.5l0.1,0.2c0.7,1.1,1.4,2.1,2.2,3.1l0.3,0.3l1,1.1l0.4,0.4l1.4,1.4
		L98,55l0.3-0.1l0.9-0.4c2.2-1.1,3.7-3.4,3.8-5.9c0-0.2,0-0.3,0-0.3c-2-1.7-3.5-3.8-4.4-6.2c-0.2-0.4-0.3-0.8-0.4-1.3l0,0
		c-0.1-0.4-0.2-0.8-0.2-1.2c0-0.1,0-0.2,0-0.3c0-0.3,0-0.6,0-0.9c0-0.4,0.1-0.9,0.2-1.3c0.6-2.5,2.5-4.4,5-5.1
		c3.2-0.8,7,0.8,10.3,4.4c0.5,0.6,1,1.2,1.5,1.8l0.4,0.6l0.8,1.3l0.3,0.7l0.6,1.2l0.3,0.7l0.4,1.2l0.2,0.6c0.1,0.4,0.2,0.8,0.3,1.3
		l0.1,0.6c0.1,0.4,0.1,0.9,0.1,1.4s0,0.3,0,0.4c0,0.5,0,1-0.1,1.5v0.3c0,0.6-0.1,1.2-0.2,1.7l0,0c-0.8,3.9-2.9,7.5-5.8,10.3
		c-6.8,6.4-18.3,9-27.6-0.4c-6.5-6.4-9.3-13.3-9.9-19.5c-0.1-0.6-0.1-1.1-0.1-1.6v-0.2c0-0.4-0.1-0.9-0.1-1.4v-0.2
		c0-0.4,0-0.9,0.1-1.3v-0.2c0.1-1.5,0.3-2.9,0.6-4.4l0,0l0.3-1.2v-0.2l0.3-1.1v-0.2l0.3-1.1v-0.2c0.3-0.8,0.6-1.6,0.9-2.2h0.1
		l0.4-0.9l0.1-0.3l0.3-0.7l0.2-0.3l0.3-0.6l0.2-0.3l0.3-0.5l0.2-0.2l0.5-0.7c7.4-8.4,16.3-12.2,25-12.2h2.5l0.9,0.1l0.7,0.1l1.1,0.2
		l0.7,0.1l1,0.2l0.7,0.2l1,0.3l0.7,0.2l0.9,0.3l0.7,0.2l0.9,0.4l0.7,0.3l0.9,0.4l0.6,0.3l0.9,0.5l0.6,0.3l0.9,0.6l0.6,0.3l0.9,0.6
		l0.5,0.3l1,0.7l0.4,0.3l1,0.8l0.4,0.3l1.1,0.9l0.3,0.3l1.1,1.1l0.2,0.2l1.2,1.3l0,0c4.3,4.9,7.3,10.8,8.8,17.2l0,0
		c0.2,0.7,0.3,1.3,0.4,2l0,0c0.1,0.7,0.2,1.3,0.3,2v0.1c0.1,0.7,0.2,1.3,0.2,2.1v0.1c0.1,0.7,0.1,1.4,0.1,2.1c0,0.7,0,0.1,0,0.1
		c0,0.1,0,1.4,0,2.1c0,0.7,0,0.1,0,0.1c0,0.1-0.1,1.4-0.1,2.2l0,0c-1.5,21.9-18.7,49.4-65,74.7C28.2,101.3,11,73.8,9.5,51.9
		c0-0.8-0.1-1.5-0.1-2.3l0,0c0-0.7,0-1.4,0-2.2L9.9,47.2z"/>
</g>
</svg>
