<?xml version="1.0" encoding="utf-8"?>
<!-- Generator: Adobe Illustrator 21.0.2, SVG Export Plug-In . SVG Version: 6.00 Build 0)  -->
<svg version="1.1" id="Layer_3" xmlns="http://www.w3.org/2000/svg" xmlns:xlink="http://www.w3.org/1999/xlink" x="0px" y="0px"
	 viewBox="0 0 150 163.5" style="enable-background:new 0 0 150 163.5;" xml:space="preserve">
<style type="text/css">
	.st0{fill:#4D2C2B;}
	.st1{fill:#723D3D;}
	.st2{fill:#FEFEFE;}
	.st3{fill:#E0BC24;}
	.st4{fill:#1D1D1B;}
	.st5{fill:#FFF8C7;}
	.st6{fill:#FDC312;}
	.st7{clip-path:url(#SVGID_2_);}
	.st8{fill:#3D1F1F;}
	.st9{fill:#BA6363;}
	.st10{clip-path:url(#SVGID_4_);}
	.st11{fill:#FFFFFF;}
	.st12{fill:#BC9B0F;}
	.st13{fill:#331919;}
</style>
<title>Mesa de trabajo 1</title>
<g>
	<g>
		<path class="st0" d="M144.2,75.8c0,0,1.4-9.5,0-16.7c-1.4-7.2-4.4-22.3-3.4-29c0,0-0.4-1.9-1.7-1.9c0,0-3.5,12.6-3.7,25.3
			c-1.2-7.2-2.6-17.4-5.1-20.4l-1.6-0.9c0,0-1.1,10.9,0,18c0,0-2.1-8.5-3.2-9.9s-2.7,9.3-2.4,13.7c0.2,3.1,0.2,6.2,0,9.3
			c0,0-0.4-6.7-2.3-7.4c-1.1-0.5,0.1,9.3,0.1,9.3s-1.5-1.6-2.4-1.4c-0.9,0.3,0.5,8.6,0,9.3c-0.5,0.7-3.5,4.7-4.7,5.1
			c-1.2,0.5-5.3,0.2-6.5,1.1s0,2.6,0,2.6s-11.8,1.1-13.4,3.7c-1.6,2.6,1.1,5.6,1.1,5.6s-9.7,3.2-11.6,6c-1.9,2.8,19.7,15,26.6,9.5
			C116.9,101.1,124,84.4,144.2,75.8z"/>
		<path class="st1" d="M113.6,109.6c0,0,3.2-12.8,11.8-17.9c8.6-5.1,18.6-12,19.9-14.1c1.4-2.1-0.1-18-1.5-20.1
			c-1.5,6.2-5.3,15.2-5.3,15.2s-8.1-1-8.8,0.5c-0.7,1.4,1.6,6,1.6,6s-7.5-0.5-8.4,0c-2.3,1.5,0,3,0,3s-9.5-3-12-1.6
			c-1.6,0.9,5.3,8.5,5.3,8.5s-9.7-3.3-12.8-1.2c-3,2.1,2.3,5.3,2.3,5.3s-14.4-0.5-8.6,5.8S113.6,109.6,113.6,109.6z"/>
		<path class="st1" d="M114.8,105.3c0,0,0.3-0.7,0.8-1.9c0.8-1.8,1.8-3.5,2.8-5.2c0.7-1.2,1.6-2.3,2.5-3.4l0.8-0.9l0.9-0.8
			c0.6-0.5,1.4-1,2.1-1.5c2.9-2,6.3-4.1,9.9-6.5c1.8-1.2,3.7-2.4,5.6-3.8c1-0.7,1.9-1.4,2.8-2.1c0.5-0.4,0.9-0.8,1.3-1.2
			c0.2-0.2,0.3-0.4,0.4-0.6c0.1-0.3,0.1-0.5,0.2-0.8c0.2-1.2,0.3-2.4,0.3-3.7c0-1.3,0-2.6-0.1-3.8c-0.2-2.6-0.5-5.3-1-7.9
			c-0.1-0.6-0.3-1.3-0.5-2s-0.2-0.6-0.3-1l-0.1-0.5v-0.6l-0.7-4.1c-0.5-2.7-1-5.6-1.5-8.4l-0.3-2.1c-0.1-0.7-0.2-1.5-0.2-2.2
			c-0.1-1.5-0.2-2.9-0.2-4.3c0-1.5-0.1-2.9-0.1-4.4c0-0.4,0-0.7,0-1.1s0-0.4,0-0.6c0-0.1,0-0.3,0-0.4c0-0.2-0.1-0.4-0.2-0.5
			c-0.1-0.1-0.3-0.1-0.4-0.2l0,0l-0.2,0.7l-0.3,1.5c-0.2,1-0.4,2-0.6,3.1c-0.4,2-0.7,4.1-1.1,6.1c-0.3,2-0.6,4.1-0.9,6.1
			c-0.2,2-0.5,4-0.6,6l-0.2,4.6l-0.7-4.5c-0.5-3.5-1.1-6.9-1.7-10.2c-0.3-1.6-0.7-3.3-1.1-4.9l-0.4-1.2l-0.4-1.1
			c-0.2-0.4-0.3-0.8-0.5-1.1l-0.3-0.5l-0.3-0.5l0.2,0.2l0.2,0.3l0.3,0.5c0.6,1.1,1.1,2.3,1.4,3.6c1.1,3.2,2.2,8.2,3.4,14.8h-0.7
			c0.1-3.3,0.5-7,1.1-11.1c0.3-2.1,0.6-4.2,1-6.4c0.2-1.1,0.4-2.2,0.6-3.4c0.2-1.2,0.2-1.2,0.4-1.8l0.2-0.9v-0.3l0.2-0.4
			c0.1-0.1,0.1-0.2,0.3-0.3l0,0c0,0,0,0,0,0h0.3l0.9,0.1c0.2,0.1,0.5,0.2,0.7,0.3c0.2,0.2,0.4,0.4,0.5,0.6c0.1,0.2,0.2,0.5,0.2,0.7
			c0,0.2,0,0.5,0,0.7c0,0.2,0,0.3,0,0.5c0,0.2,0,0.7,0,1.1c0,1.5,0,3,0.1,4.6s0.1,3.2,0.3,4.8s0.5,3.2,0.7,4.9l1.8,10.4l0.1,0.7v0.6
			c0.1,0.5,0.3,0.9,0.4,1.4c0.1,0.5,0.4,1.8,0.6,2.8c0.3,1.9,0.5,3.8,0.7,5.8c0.2,2,0.2,4,0.2,6c0,1-0.1,2.1-0.3,3.1
			c0,0.3-0.1,0.5-0.2,0.8l-0.1,0.4c0,0.2-0.1,0.3-0.2,0.5c-0.3,0.5-0.7,0.9-1.1,1.3c-1.6,1.4-3.3,2.7-5.1,3.8
			c-1.8,1.2-3.6,2.3-5.4,3.5l-5.7,3.5l-2.8,1.8c-1,0.6-1.9,1.3-2.8,2c-0.4,0.4-0.9,0.7-1.3,1.1c-0.4,0.4-0.8,0.8-1.1,1.3
			c-0.7,0.9-1.4,1.9-2.1,2.8C117,101.1,115.8,103.2,114.8,105.3z"/>
	</g>
	<g>
		<path class="st1" d="M63.9,105.9c0,0-8.1,5.8-12.1,6.7c-3.9,0.9-14.2,1.9-15.5,1.4s2.9-2.7,2.9-2.7c-11.3,1.7-22.7-3.4-22.7-3.4
			C22.9,104.5,63.9,105.9,63.9,105.9z"/>
		<path class="st2" d="M18,107.5l-0.5,0.2l-0.5,0.2l-0.3,0.1h0.3l0.8,0.3l1.2,0.4l3,0.9c4.4,1.1,10.7,2.1,16.9,1.2l2.3-0.3l-2,1.1
			l-1.5,1.1l-0.7,0.5l-0.3,0.3l-0.1,0.1v0.1l0,0v0h0.2l0.9,0.1h1.8c2.5-0.1,4.8-0.3,7.1-0.5c0,0-1.3,0.3-3.7,0.7
			c-1.2,0.2-2.7,0.4-4.6,0.5h-2c-0.2,0-0.4-0.2-0.5-0.4c-0.1-0.2-0.1-0.4,0-0.6l0.1-0.3l0.1-0.2c0.4-0.5,0.8-0.9,1.3-1.2l1.5-1
			l0.3,0.8c-3.7,0.5-7.5,0.4-11.2-0.2c-2.2-0.4-4.3-0.9-6.4-1.6c-1.1-0.4-2.2-0.8-3.3-1.2l-0.8-0.4l-0.8-0.4h-0.1l0.2-0.1l0.5-0.1
			L18,107.5z"/>
		<path class="st0" d="M49,102c0,0-20.2-6-30.6-16.2c0,0-0.7,5.8,6.7,11.4c0,0-15.5-3-17.9-3.2s15.5,9.8,15.5,9.8s-18.6-1.1-19.2,0
			c-0.7,1.1,11.7,4.2,17.9,4.3s27.7,2.4,30.6,0C55,105.6,49,102,49,102z"/>
		<g>
			<g>
				<path class="st3" d="M42.4,138.1c0,0-2.6,3.6-2.8,5.3c-0.2,1.6,1.2,4.1,1.9,4.6c0.7,0.5,4,1.3,4.3,2.4c0,0,2.8,2.1,2.1,4.4
					c0,0-2.2-2.3-3.4-2.4c0,0-1.1,0.3-1.5-0.5c-0.4-0.8,0.1,1.8,0.9,2s0.8,1.8,0.8,1.8c0.2,1.8-0.2,3.5-1.3,4.9c0,0-0.1-4-1.2-4.6
					c0,0-3.4-1.6-4.4-3.2c-1-1.6-3.2-8.4-3.2-9.7c0-1.3,4.2-7,4.9-7.4C40.2,135.5,42.2,136.7,42.4,138.1z"/>
				<path class="st4" d="M42,156c-0.2-0.6-0.1-1.2,0.3-1.8c0.6-0.7,1.4-0.9,2,0.2c0.6,1.1,0.5,4.8-1.1,6.2
					C43.3,160.7,43.2,157.5,42,156z"/>
				<path class="st4" d="M44.7,152.4c0,0-0.5-1.7,0.4-2.1c0.9-0.4,3.5,1.6,2.8,4.5C46.9,153.9,45.8,153.1,44.7,152.4z"/>
				<path class="st5" d="M40.6,141.1l-0.2,0.3c-0.2,0.3-0.3,0.5-0.4,0.8c-0.1,0.4-0.2,0.8-0.1,1.3c0,0.1,0.1,0.2,0.1,0.4l0.1,0.4
					l0.3,0.9c0.1,0.6,0.4,1.2,0.7,1.7c0.1,0.2,0.4,0.4,0.6,0.6l0.9,0.4c0.7,0.2,1.4,0.5,2,0.9c0.3,0.2,0.6,0.4,0.9,0.7
					c0.2,0.3,0.4,0.6,0.4,1c-0.1-0.3-0.3-0.5-0.5-0.7c-0.7-0.4-1.5-0.7-2.3-0.9l-0.9-0.2c-0.3-0.1-0.7-0.2-1-0.4
					c-0.4-0.2-0.7-0.5-0.9-0.9c-0.2-0.4-0.4-0.7-0.5-1.1c-0.1-0.4-0.2-0.8-0.3-1.2l-0.1-0.6v-0.3c0-0.1,0-0.2,0-0.4
					C39.3,142.7,39.8,141.7,40.6,141.1z"/>
			</g>
			<g>
				<path class="st6" d="M37.5,136c0,0-2.8,5.7-2.9,7.2s1.2,5.5,2.9,7.5c1.7,2,1.8,3.4,0.9,4.8c0,0,2.5,3.8-2.1,6.7
					c0,0,0.5-3.6-0.6-5.7c0,0-2.1-1.5-2.4-3.7c0,0,1.5,5.4-2.6,5.9c0,0-1.9,5.7-7.3,4.5c0,0,3.9-3.4,4-5.9c0,0-0.4-2.9,0.2-4.4
					c0.6-1.5,0.9-8.2,2-9.3c0,0-2.3,1.3-3,2.5c-0.7,1.2-1,2.5-2.4,2.4c0,0-3.7,2.5-6.2-0.6c0,0,3.6-0.7,4.3-1.9
					c0.5-1.2,1.2-2.3,2.1-3.2c1.3-1.2,4.2-2.2,5.4-3.3c1.2-1.1,2.7-2.2,2.7-2.2s-2,0.9-2.4,0s4.2-3.2,4.2-3.2S37.9,133.9,37.5,136z"
					/>
				<path class="st5" d="M32.4,135.3l-0.7,0.5l-0.8,0.6l-0.4,0.5l-0.1,0.2c0,0.1,0,0.1,0,0.2l0.2,0.1H31c0.4,0,0.7-0.1,1.1-0.3
					l1.7-0.6l-0.2,0.3h-0.1l-0.1,0.1l-0.2,0.2l-1,1l-1.6,1.5c-0.5,0.4-1,0.7-1.6,1.1l-1.7,0.8c-1.1,0.5-2.1,1.1-3,1.9
					c-0.9,0.8-1.6,1.7-2,2.7v-0.2c0-0.2,0.1-0.5,0.2-0.7c0.3-0.9,0.8-1.7,1.5-2.4c1.1-1.1,2.4-2,3.8-2.6l1.1-0.6l1.1-0.8l0.6-0.5
					l0.1-0.1H31l0.2-0.1l0.1-0.1h-0.9l-0.3-0.1l-0.1-0.1l-0.1-0.2c-0.1-0.2,0-0.3,0-0.5c0.1-0.1,0.2-0.3,0.3-0.4
					c0.2-0.2,0.4-0.4,0.7-0.5C31.4,135.8,31.9,135.5,32.4,135.3z"/>
				<path class="st3" d="M33.3,151.2l-0.3-0.6c-0.2-0.5-0.4-1-0.5-1.5c-0.2-0.7-0.3-1.4-0.3-2.1c0-0.7,0.2-1.5,0.6-2.1
					c0,0.2,0.1,0.3,0.1,0.5c0,0.3,0.1,0.7,0.1,1.2s0.1,1.1,0.2,1.9C33.4,149.4,33.4,150.3,33.3,151.2z"/>
				<path class="st4" d="M22.3,146.1c0,0,1.9-0.3,2.4,0.5s0.1,1.4-0.5,2.1c-0.6,0.6-4.4,2.1-6.2-0.6C18,148,21,147.6,22.3,146.1z"/>
				<path class="st4" d="M27.4,157.6c0.2-0.9,1.8-1.4,2.8-1c1,0.5,0.7,2.2-0.5,3.9c-1.1,1.7-2.8,3.5-6.4,2.7
					C23.4,163.4,26.7,160.6,27.4,157.6z"/>
				<path class="st4" d="M35.8,156.6c-0.3-0.7,1.6-2.3,2.7-1c1.1,1.3,1.3,4.9-2.1,6.7C36.3,162.3,36.7,158.5,35.8,156.6z"/>
			</g>
			<g>
				<path class="st1" d="M74.8,131c0,0-12.1,3.6-15,4.2c-2.9,0.5-12.4,8-16.2,7.7c-3.8-0.3,0-1.6,0-1.6s-3.2,1.1-3.5-1.1
					c-0.2-2.1,1.4-4.5,1.4-4.5s15.3-10.8,18.8-10.2C63.8,126,74.8,131,74.8,131z"/>
				<g>
					<path class="st1" d="M106.8,101.7c0,0-5.6-0.7-9.5-2.6c-3.9-1.9-15.3-6.3-30.4,0s-17.6,12.3-20.7,15.3
						c-3,3-15.5,15.2-13.6,20.1c0,0-0.6,1.9,0.6,2.3c1.2,0.5,2.4-1.1,2.4-1.1s-0.6,2.3,1.4,1.9c0,0,0.1,0.8,4.5-0.7
						c4.4-1.5,7.5-3.2,9.4-4.8s6.9-3.9,8.9-3.7c2.1,0.2,8,5.6,18.6,6c10.6,0.5,25.6-7.4,29.9-8.4
						C112.7,125.2,106.8,101.7,106.8,101.7z"/>
					<g>
						<defs>
							<path id="SVGID_1_" d="M106.8,101.7c0,0-5.6-0.7-9.5-2.6c-3.9-1.9-15.3-6.3-30.4,0s-17.6,12.3-20.7,15.3
								c-3,3-15.5,15.2-13.6,20.1c0,0-0.6,1.9,0.6,2.3c1.2,0.5,2.4-1.1,2.4-1.1s-0.6,2.3,1.4,1.9c0,0,0.1,0.8,4.5-0.7
								c4.4-1.5,7.5-3.2,9.4-4.8s6.9-3.9,8.9-3.7c2.1,0.2,8,5.6,18.6,6c10.6,0.5,25.6-7.4,29.9-8.4
								C112.7,125.2,106.8,101.7,106.8,101.7z"/>
						</defs>
						<clipPath id="SVGID_2_">
							<use xlink:href="#SVGID_1_"  style="overflow:visible;"/>
						</clipPath>
						<g class="st7">
							<path class="st0" d="M58.6,109.6c0,0-4.4,4.8-8.4,7.6c0,0,0.6,4.6,5.1,4.7s11.7-2,15.9-1.1c4.2,0.9,20.9,4.7,30.2,4.6
								c0,0-7.5-2.8-6.5-5.2c1-2.4,17.3-3.3,15,5.2c0,0-23.7,14.5-38.8,10.3c-15-4.2-21.3-1.5-25.4,2.1s-19.7,11.5-18.9-2.1
								S47.2,104.3,58.6,109.6z"/>
						</g>
					</g>
				</g>
				<path class="st8" d="M55.4,128.6l0.3-0.2l0.8-0.5l2.6-1.8c1.1-0.8,2.4-1.5,3.7-2c1.3-0.5,2.8-0.5,4.2,0h-0.9
					c-0.8,0.1-1.6,0.3-2.3,0.5c-1.2,0.5-2.3,1-3.4,1.7l-2.1,1.1C57.2,128,56.3,128.4,55.4,128.6z"/>
				<path class="st1" d="M104.6,127.4l-2.7,1.2c-1.8,0.8-4.3,1.9-7.5,3c-1.6,0.5-3.3,1.2-5.3,1.7c-2,0.6-4.1,1.1-6.2,1.4l-1.7,0.2
					l-1.7,0.1c-1.1,0-2.3,0-3.5-0.1c-1.2-0.1-2.4-0.2-3.6-0.5l-1.8-0.5l-0.9-0.3l-0.5-0.2l-0.2-0.1l0,0l-1.6,0.4l-1.8,0.5l-3.6,1
					l-1.7,0.5c-0.6,0.2-1.1,0.5-1.6,0.8l-3.3,1.7c-2.2,1.1-4.4,2.3-6.6,3.3l-1.6,0.8c-0.5,0.3-1.1,0.5-1.7,0.6
					c-0.6,0.2-1.2,0.2-1.8,0.2c-0.6,0-1.2-0.2-1.7-0.5H42l0.4,0.1c0.5,0.1,1,0.2,1.5,0.1c0.8-0.1,1.6-0.3,2.3-0.7
					c0.9-0.4,1.8-1,2.9-1.6c2.1-1.2,4.8-2.8,8-4.6c0.8-0.5,1.6-0.9,2.6-1.3c1-0.4,1.9-0.7,2.9-1l3.2-0.9l1.6-0.4l2-0.5l0.4,0.2
					l0.2,0.1l0.4,0.2l0.9,0.3l1.8,0.5c1.3,0.3,2.6,0.5,3.9,0.5c1.4,0.1,2.8,0.1,4.3,0c0.7,0,1.4-0.1,2.1-0.2l1.1-0.1l1.1-0.2
					c3.1-0.6,6.2-1.4,9.3-2.4C98,129.8,101.3,128.7,104.6,127.4z"/>
				<path class="st9" d="M47.6,113l-1.9,1.9c-1.1,1.2-2.7,2.9-4.5,5c-1.9,2.2-3.7,4.5-5.4,6.8c-0.9,1.2-1.6,2.5-2.3,3.8
					c-0.3,0.6-0.6,1.3-0.7,2c-0.2,0.7-0.2,1.3-0.1,2l-0.1-0.5c-0.1-0.5-0.1-0.9-0.1-1.4c0.1-1.2,0.7-3.1,1.8-5.1
					C36.7,123.5,41.1,118.3,47.6,113z"/>
			</g>
		</g>
		<path class="st0" d="M58.8,101.3c0,0-12.6-0.5-19.7-4.2c0,0,3.6,5.9,5.9,6.6c0,0-18.2-1.7-18.2-1c0,0.7,13.7,6.5,18.8,6.4
			s18.6-1.8,21-3.2C69.2,104.5,58.8,101.3,58.8,101.3z"/>
	</g>
	<g>
		<g>
			<g>
				<path class="st1" d="M137.1,110.6c0,0-2.5-4.9-4.9-5.9c-3.4-1.5-9.4-0.6-14,0.6c-4.6,1.2-6.7-1.6-7.7-3.5
					c-1-1.8-4.5-6.5-7.1-7.2c-2.6-0.7,1.4,6.4,1.5,6.7c0.1,0.3-11.9,0.5-12.5,3c-0.6,2.6,10.3,6.9,10.3,6.9s-8.2,6.6-7.8,8.9
					c0.5,2.3,12.9,3.7,12.9,3.7s-4.1,3.9-3.5,4.8c0.6,0.8,10.1,0.1,13.7-1.7c3.6-1.9,10.6-6.4,13.8-6.9
					C135.1,119.4,138.9,113.5,137.1,110.6z"/>
				<g>
					<defs>
						<path id="SVGID_3_" d="M137.1,110.6c0,0-2.5-4.9-4.9-5.9c-3.4-1.5-9.4-0.6-14,0.6c-4.6,1.2-6.7-1.6-7.7-3.5
							c-1-1.8-4.5-6.5-7.1-7.2c-2.6-0.7,1.4,6.4,1.5,6.7c0.1,0.3-11.9,0.5-12.5,3c-0.6,2.6,10.3,6.9,10.3,6.9s-8.2,6.6-7.8,8.9
							c0.5,2.3,12.9,3.7,12.9,3.7s-4.1,3.9-3.5,4.8c0.6,0.8,10.1,0.1,13.7-1.7c3.6-1.9,10.6-6.4,13.8-6.9
							C135.1,119.4,138.9,113.5,137.1,110.6z"/>
					</defs>
					<clipPath id="SVGID_4_">
						<use xlink:href="#SVGID_3_"  style="overflow:visible;"/>
					</clipPath>
					<g class="st10">
						<path class="st0" d="M102.8,111.2c0,0-4.3,4.4-2.9,7.3c1.4,2.9,15.5,2.4,21,0c0,0-2.2-3.6,0.3-4.4c2.6-0.8,15.2-0.8,17.6,1.6
							c2.4,2.4-7.5,5.3-14.8,11.9s-18,5.8-22.3,2.6c-4.3-3.2-12.5-6.9-11.1-10.1S97.5,111.7,102.8,111.2z"/>
					</g>
				</g>
			</g>
			<g>
				<path class="st4" d="M125.9,110c0,0.9-0.4,1.7-0.9,1.7c-0.5,0-0.9-0.8-0.9-1.7c0-0.5,0.1-0.9,0.4-1.3c0.1-0.2,0.4,0.2,0.5,0.2
					s0.4,0,0.8,0.4C125.8,109.6,125.9,109.8,125.9,110z"/>
				<path class="st4" d="M126.6,109.3c0,0-2.4-0.6-3.5-1.9c0.3,0.7,0.8,1.4,1.5,1.9C125.4,110,126.6,109.3,126.6,109.3z"/>
			</g>
			<path class="st11" d="M130.5,120.5l-8.9,5.2c-1.3,0.9-2.7,1.7-4.1,2.4c-1.6,0.7-3.2,1.2-4.9,1.4c-1.7,0.2-3.4,0.2-5,0l-1.2-0.1
				l-1.3-0.2h-0.5l-0.2-0.1l-0.3-0.2c-0.1-0.1-0.1-0.2,0-0.4c0.1-0.2,0.2-0.5,0.3-0.6l0.5-0.4l-0.1,0.1l-0.2,0.3
				c-0.1,0.2-0.2,0.4-0.2,0.6c0,0.1,0.1,0.2,0.2,0.3h5.3l0.9-0.1c1.4-0.2,2.7-0.4,4-0.8c1.5-0.5,3-1.1,4.4-2l1.2-0.7l1.3-0.7
				l2.7-1.3C126.3,122.2,128.4,121.3,130.5,120.5z"/>
		</g>
		<g>
			<path class="st6" d="M141.9,117.5c0,0-4.7,4.7-6.4,5c-1.7,0.3-6.9-3-6.9-3s-7.4-2.3-7.7-4.5c-0.3-2.2,6.7-1.5,6.7-1.5
				s3.2-3.8,6.9-4.4c3.6-0.5,11.2,0.6,14,2.9c2.8,2.3-2.3,11.9-2.3,11.9S147.2,118.7,141.9,117.5z"/>
			<path class="st6" d="M146.2,123.9c0,0,4.4-7.6,2.8-11.2c-1.6-3.7-9.9-4-13.9-3.9c-2.6,0-4.3,1.8-5.3,2.6c0,0,7.3-0.2,11.9,1.3
				C146.2,114.1,147,120.2,146.2,123.9z"/>
			<path class="st12" d="M125.4,115.8c0,0,6,2,8.2,1.9c2.2-0.1,7.2-0.9,7.2-0.9s-6.5,1.7-7.7,1.9
				C131.9,118.7,125.4,115.8,125.4,115.8z"/>
			<path class="st12" d="M136,111.7c0,0-1.9-1.3-2.8,0.9C133.9,112,134.9,111.7,136,111.7z"/>
			<path class="st5" d="M136.1,108.6c0,0,1,0,2.6,0l2.9,0.2c1.2,0.1,2.4,0.3,3.6,0.6l1,0.3l1,0.4c0.7,0.3,1.4,0.8,1.9,1.4
				c0.5,0.7,0.9,1.4,1,2.3c0.1,0.8,0,1.6-0.1,2.4c-0.4,1.4-0.9,2.8-1.6,4.2c-0.6,1.2-1.3,2.4-2,3.6c0,0,0.1-0.6,0.5-1.7
				c0.4-1.1,0.9-2.8,1.5-4.9c0.3-1.1,0.4-2.2,0.3-3.4c-0.2-1.3-1.1-2.3-2.2-2.8c-1.5-0.7-3.1-1.1-4.7-1.5
				C139.9,109.3,138,108.9,136.1,108.6z"/>
		</g>
	</g>
	<g>
		<path class="st0" d="M66.8,47.2c0,0-19.4-22.5-22.4-26.9S37.2,9.1,36.3,8.9c-0.6-0.1-1.3-0.1-1.9,0c0,0,3.9,15.1,7.4,21.6
			c0,0-13.9-14.6-21.6-28.3c0,0-2.3-1.6-3.9-1.1c0,0,8.4,26,21.1,37.9c0,0-21.4-14.9-32.3-17.6c0,0-4.4,1.6-4.9,2.9
			s21,13.8,26.7,18.2c0,0-17.6-3.5-26.6,0.9c0,0,1.9,3.9,2.8,3.9s19.3,0,23.8,2.9c0,0-14.3,6.4-13.9,8.5c0.5,2.1,12.3,0,12.3,0
			s-3.2,5.5-2.1,8c1.1,2.5,9.2,1.3,9.2,1.3s-0.8,5.5,0,6.4c0.8,0.8,9.1,0,9.1,0s-1.1,6.3,0,6.5l9.5,1.3c0,0-6,4.7-5.1,5.8
			s4.4,2.2,4.4,2.2s-3,3.8,7,8.4c0,0-1.7,2.7-1,3.3c0.7,0.6,7.4,4.2,7.4,4.2s-5.5-0.3-6.4,1.5s8.1,6.9,13.8,5.3
			C76.8,111,79.8,70,79.8,70L66.8,47.2z"/>
		<path class="st1" d="M88.9,103.6c0,0-7.2-10.5-6-17.9c1.1-7.4,4-17.3,3.1-22c-0.9-4.8-5.7-7.5-11.2-11.5
			C69.2,48.1,58,34.9,56.4,34.4c-1.6-0.5-3.7,8.4,1.9,15.7s18.1,16.4,18.1,16.4s-7.4,3.4-7.9,6c-0.5,2.6,3.3,4.4,3.3,4.4
			s-14.4,0.9-14.4,3.8s5.8,3.4,5.8,3.4s-3.7,1.4-3.9,3.7c-0.2,2.3,9.1,6.7,9.1,6.7s-9.3-0.1-9.5,1.1c-0.2,1.2,12.4,10.3,12.4,10.3
			s-5.9,1.2-6.2,2.6s3.9,4.2,3.9,4.2s-2,2.1,2.2,2.3C75.5,115.1,93.5,112.5,88.9,103.6z"/>
		<path class="st1" d="M84.8,96.1l-0.3-0.6c-0.3-0.6-0.6-1.2-0.8-1.9c-0.3-1-0.6-2.1-0.8-3.2c-0.1-0.7-0.2-1.4-0.2-2.1
			c0-0.8,0-1.6,0.1-2.4c0.3-3.3,1.3-7.4,2.2-12c0.6-2.5,0.9-4.9,1.1-7.5c0-0.7,0-1.3-0.1-2c-0.1-0.7-0.3-1.3-0.6-1.9
			c-0.5-1.3-1.3-2.5-2.2-3.6c-2-2.1-4.6-3.8-7.3-5.7c-0.7-0.5-1.4-0.9-2.1-1.4c-0.7-0.5-1.3-1.1-2-1.6c-0.6-0.6-2.5-2.4-3.7-3.7
			c-2.4-2.6-4.8-5.3-7.4-8c-0.6-0.7-1.3-1.3-2-2c-0.6-0.6-1.4-1.2-2.1-1.6L56.3,35l-0.4-0.2l-0.6-0.5l-0.5-0.5l-0.6-0.7
			c-0.7-0.7-1.3-1.5-2-2.2c-5-6.1-9.6-13.1-14.8-19.8l-1-1.2l-0.5-0.5h-0.2l-0.3-0.1H35v0.3l0.1,0.4l0.2,0.8c0.6,2.1,1.3,4.2,2,6.2
			c1.4,4.2,2.9,8.4,4.5,12.7l1.2,3.3l-2.4-2.7c-4.2-4.8-8.3-9.8-12.3-15.1c-2-2.7-4-5.3-5.9-8.1c-0.5-0.7-1-1.4-1.4-2.1l-0.7-1.1
			l-0.3-0.5l0,0l-0.3-0.2c-0.7-0.5-1.4-0.9-2.1-1.3l-0.5-0.3h0v0.1L17.3,2l0.3,0.8c0.2,0.5,0.5,1.1,0.6,1.7l0.7,1.7l0.7,1.7
			c1,2.2,2.1,4.4,3.2,6.6c2.1,4.4,4.5,8.7,6.9,13c1.2,2.1,2.5,4.2,3.8,6.2l0.6,0.8l0.5,0.7l0.5,0.7l1.2,1.5l1.1,1.4l1.1,1.4l0.1,0.2
			h-0.1l-0.4-0.3l-0.8-0.6l-3-2L32,35.9l-1.6-1l-3.1-2l-6.3-3.8c-2.1-1.2-4.2-2.4-6.3-3.6c-2.1-1.1-4.2-2.2-6.4-3.1l-1.6-0.5
			l-0.8-0.2H5.2l-0.8,0.3l-0.8,0.4L2,23.2l-0.7,0.4l-0.3,0.2L0.8,24c0,0.1,0,0.1,0,0.2l0.1,0.1l0.6,0.5c0.9,0.7,1.8,1.5,2.8,2.1
			c7.5,5.3,15.3,10.2,22.6,15.2l-1.6-1.1l-4.8-3l-7.9-5l-5-3.3c-1.8-1.2-3.7-2.5-5.7-3.9c-0.5-0.4-1-0.8-1.5-1.2
			c-0.1-0.1-0.3-0.3-0.4-0.5C0.1,24.2,0,24.1,0,24c0-0.1,0-0.2,0.1-0.3c0.1-0.2,0.2-0.4,0.4-0.5l0.4-0.3c1.2-0.7,2.4-1.3,3.6-1.7
			l0.5-0.2h0.6l1.1,0.2l2.1,0.6c1.4,0.5,2.7,1.1,4.1,1.8c5.4,2.7,11.1,6,17.1,9.8l3.3,2.2l0.2,0.1h0.1l-0.1-0.1L33.1,35l-0.3-0.4
			l-0.4-0.5l-0.8-1.2c-0.5-0.8-1.1-1.6-1.6-2.5c-1-1.7-2.1-3.4-3.1-5.2c-2-3.6-4-7.3-5.9-11.2c-1-2-1.9-4-2.8-6
			c-0.5-1.1-0.9-2.1-1.3-3.1s-0.5-1.1-0.6-1.6L16,2.4l-0.4-1.2V0.8c0-0.1,0.1-0.3,0.1-0.4C15.9,0.2,16.2,0,16.5,0
			c0.3,0,0.7,0.1,1,0.2l0.3,0.1h0.1l0.3,0.1c0.7,0.4,1.4,0.8,2.1,1.2L20.8,2l0.3,0.2c0.1,0,0.1,0.1,0.2,0.2l0.1,0.2l0.5,1l0.6,1
			l0.6,1c1.7,2.7,3.6,5.3,5.6,7.9c4,5.3,8.3,10.6,13,15.9l-1.1,0.7c-1.6-4.4-3.2-8.9-4.8-13.6c-0.4-1.1-0.8-2.3-1.1-3.5l-0.5-1.8
			l-0.2-0.9l-0.1-0.5V9.6c0-0.2,0-0.3,0-0.5c0-0.6,0.5-1,1.1-1.1c0.4,0,0.8,0,1.2,0.2l0.3,0.1c0.1,0,0.3,0.1,0.4,0.2l0.4,0.4
			l0.6,0.7c0.8,1,1.6,2,2.3,3.1c3,4.2,5.9,8.5,9.1,12.7c1.6,2.1,3.2,4.3,4.9,6.3c0.5,0.5,0.9,1,1.4,1.5l0.4,0.3l0.2,0.1l0.2,0.1
			l0.2,0.1l0.2,0.1l0.2,0.1l0.3,0.1c0.6,0.4,1.2,0.8,1.7,1.3l1.5,1.5c3.9,4,7.4,8.4,11.4,12.3c1,1,2.1,1.9,3.2,2.7l3.6,2.5
			c1.2,0.8,2.4,1.7,3.5,2.7c1.1,1,2.1,2.1,2.9,3.4l0.3,0.5l0.2,0.5c0.2,0.3,0.3,0.7,0.5,1.1c0.2,0.4,0.2,0.7,0.4,1.1l0.1,0.5
			l0.1,0.5c0.1,1.5,0.1,3-0.2,4.5c-0.4,3-1.1,5.9-1.8,8.9c-0.3,1.5-0.7,3-1,4.5c-0.3,1.5-0.5,3-0.6,4.5c-0.1,1.6,0.1,3.1,0.4,4.6
			C83.6,93.3,84.1,94.7,84.8,96.1z"/>
		<path class="st1" d="M13.2,58.6c0,0.1,0,0.1,0,0.2c0.1,0.2,0.3,0.3,0.5,0.4c0.8,0.3,1.6,0.4,2.5,0.4c1.3,0,2.7-0.1,4-0.4l2.4-0.4
			l1.3-0.3l2.3-0.5l-0.8,1.5l-0.2,0.4l-0.1,0.3l-0.2,0.5c-0.3,0.6-0.5,1.2-0.7,1.9c-0.2,0.6-0.4,1.3-0.5,2c-0.1,0.6-0.1,1.2,0.1,1.8
			c0.2,0.2,0.4,0.4,0.6,0.5l1,0.3c0.7,0.2,1.5,0.2,2.2,0.3H32l1.2-0.1l-0.2,1L32.9,69l-0.1,0.9c-0.1,0.6-0.1,1.2-0.1,1.9
			c0,0.6,0,1.2,0.1,1.7l0.1,0.3H33l0.8,0.2c1.3,0.1,2.6,0.1,3.8,0l2-0.1l1-0.1l1.8-0.2l-0.2,1l-0.2,0.9l-0.2,1
			c-0.1,0.7-0.2,1.4-0.3,2.1c0,0.3,0,0.6,0,1c0,0.2,0,0.3,0,0.5c0,0.1,0,0.2,0.1,0.3l0.1,0.1l0.5,0.1l1,0.2l7.9,1.4l-4.2-0.3
			l-5.1-0.5h-0.5c-0.2-0.1-0.4-0.2-0.5-0.4c-0.2-0.3-0.2-0.6-0.3-0.9c-0.1-0.6-0.1-1.2,0-1.8c0-0.6,0.1-1.2,0.2-1.8l0.1-1l0,0v-0.1
			h-0.9l-1.8,0.2c-1.3,0.1-2.6,0.2-3.8,0.1l-1.1-0.1l-0.6-0.1c-0.3-0.1-0.5-0.2-0.7-0.4c-0.2-0.2-0.4-0.4-0.5-0.7
			c-0.1-0.2-0.1-0.4-0.2-0.6c-0.1-0.4-0.1-0.8-0.1-1.1c0-0.7,0-1.5,0.1-2.2c0-0.4,0.1-0.7,0.1-1.1v-0.3h-3.2c-0.7,0-1.5-0.1-2.2-0.2
			c-0.8-0.1-1.6-0.3-2.3-0.7c-0.5-0.2-0.8-0.6-1.1-1c-0.2-0.4-0.3-0.9-0.3-1.4c0-0.8,0.2-1.6,0.5-2.4c0.3-0.8,0.6-1.5,0.9-2.3
			l0.3-0.5l0.1-0.3l0.1-0.1v-0.1l0.3-0.5H24l-1.6,0.2l-3.2,0.3c-1.1,0.1-2.2,0.1-3.2,0l-0.8-0.1l-0.8-0.2l-0.7-0.3
			C13.4,59,13.2,58.8,13.2,58.6z"/>
		<path class="st13" d="M84.9,96.9l1.4,2.5c0.8,1.6,1.6,3.2,2.3,4.8l-0.5-0.4c-0.4-0.4-0.8-0.8-1.1-1.2C85.8,101,85,99,84.9,96.9z"
			/>
	</g>
</g>
</svg>
