<?xml version="1.0" encoding="utf-8"?>
<!-- Generator: Adobe Illustrator 21.0.2, SVG Export Plug-In . SVG Version: 6.00 Build 0)  -->
<svg version="1.1" id="Layer_3" xmlns="http://www.w3.org/2000/svg" xmlns:xlink="http://www.w3.org/1999/xlink" x="0px" y="0px"
	 viewBox="0 0 100 109" style="enable-background:new 0 0 100 109;" xml:space="preserve">
<style type="text/css">
	.st0{fill:#4D2C2B;}
	.st1{fill:#723D3D;}
	.st2{fill:#FEFEFE;}
	.st3{fill:#E0BC24;}
	.st4{fill:#1D1D1B;}
	.st5{fill:#FFF8C7;}
	.st6{fill:#FDC312;}
	.st7{clip-path:url(#SVGID_2_);}
	.st8{fill:#3D1F1F;}
	.st9{fill:#BA6363;}
	.st10{clip-path:url(#SVGID_4_);}
	.st11{fill:#FFFFFF;}
	.st12{fill:#BC9B0F;}
	.st13{fill:#331919;}
</style>
<title>Mesa de trabajo 1</title>
<g>
	<g>
		<path class="st0" d="M96.1,50.5c0,0,0.9-6.3,0-11.2c-0.9-4.8-2.9-14.8-2.3-19.4c0,0-0.2-1.2-1.2-1.2c0,0-2.3,8.4-2.5,16.9
			C89.4,30.8,88.5,24,86.9,22l-1.1-0.6c0,0-0.8,7.3,0,12c0,0-1.4-5.7-2.2-6.6c-0.8-0.9-1.8,6.2-1.6,9.1c0.1,2.1,0.1,4.1,0,6.2
			c0,0-0.3-4.5-1.5-4.9c-0.8-0.3,0.1,6.2,0.1,6.2s-1-1.1-1.6-0.9s0.3,5.7,0,6.2c-0.3,0.5-2.3,3.1-3.1,3.4c-0.8,0.3-3.6,0.2-4.3,0.8
			c-0.8,0.6,0,1.7,0,1.7s-7.9,0.8-9,2.5c-1.1,1.7,0.8,3.7,0.8,3.7s-6.5,2.2-7.7,4c-1.2,1.9,13.1,10,17.7,6.3
			C77.9,67.4,82.7,56.2,96.1,50.5z"/>
		<path class="st1" d="M75.7,73.1c0,0,2.2-8.5,7.9-11.9c5.7-3.4,12.4-8,13.3-9.4c0.9-1.4-0.1-12-1-13.4c-1,4.1-3.5,10.1-3.5,10.1
			s-5.4-0.6-5.9,0.3c-0.5,0.9,1.1,4,1.1,4s-5-0.4-5.6,0c-1.5,1,0,2,0,2s-6.3-2-8-1c-1.1,0.6,3.6,5.7,3.6,5.7s-6.5-2.2-8.5-0.8
			c-2,1.4,1.6,3.6,1.6,3.6s-9.6-0.3-5.7,3.9C68.8,70.3,75.7,73.1,75.7,73.1z"/>
		<path class="st1" d="M76.6,70.2c0,0,0.2-0.5,0.5-1.3c0.6-1.2,1.2-2.3,1.9-3.4c0.5-0.8,1.1-1.6,1.7-2.3l0.5-0.6l0.6-0.5
			c0.4-0.3,0.9-0.7,1.4-1c2-1.3,4.2-2.7,6.6-4.3c1.2-0.8,2.5-1.6,3.7-2.5c0.6-0.5,1.2-0.9,1.9-1.4c0.3-0.2,0.6-0.5,0.9-0.8
			c0.1-0.1,0.2-0.3,0.3-0.4c0.1-0.2,0.1-0.4,0.1-0.5c0.1-0.8,0.2-1.6,0.2-2.4c0-0.9,0-1.7-0.1-2.6c-0.1-1.8-0.3-3.5-0.7-5.2
			c-0.1-0.4-0.2-0.9-0.3-1.3c-0.1-0.4-0.1-0.4-0.2-0.6l-0.1-0.3v-0.4L95,35.4c-0.3-1.8-0.7-3.7-1-5.6l-0.2-1.4
			c-0.1-0.5-0.1-1-0.2-1.5c-0.1-1-0.1-1.9-0.2-2.9c0-1-0.1-2-0.1-2.9c0-0.2,0-0.5,0-0.7c0-0.2,0-0.3,0-0.4c0-0.1,0-0.2,0-0.3
			c0-0.1-0.1-0.3-0.2-0.3c-0.1-0.1-0.2-0.1-0.3-0.1l0,0L93,19.7l-0.2,1c-0.2,0.7-0.3,1.3-0.4,2c-0.2,1.4-0.5,2.7-0.7,4.1
			c-0.2,1.3-0.4,2.7-0.6,4.1c-0.2,1.3-0.3,2.7-0.4,4l-0.2,3.1l-0.5-3c-0.3-2.3-0.7-4.6-1.2-6.8c-0.2-1.1-0.5-2.2-0.8-3.3l-0.2-0.8
			l-0.3-0.8c-0.1-0.2-0.2-0.5-0.3-0.7l-0.2-0.4L87,21.9l0.1,0.2l0.2,0.2l0.2,0.3c0.4,0.8,0.7,1.6,0.9,2.4c0.7,2.2,1.5,5.5,2.3,9.8
			h-0.5c0.1-2.2,0.4-4.7,0.7-7.4c0.2-1.4,0.4-2.8,0.6-4.3c0.1-0.7,0.2-1.5,0.4-2.3s0.2-0.8,0.2-1.2l0.2-0.6v-0.2l0.1-0.3
			c0.1-0.1,0.1-0.2,0.2-0.2l0,0c0,0,0,0,0,0h0.2l0.6,0.1c0.2,0,0.3,0.1,0.5,0.2c0.1,0.1,0.3,0.2,0.4,0.4c0.1,0.2,0.1,0.3,0.2,0.5
			c0,0.2,0,0.3,0,0.5c0,0.1,0,0.2,0,0.3s0,0.5,0,0.7c0,1,0,2,0.1,3c0.1,1,0.1,2.1,0.2,3.2c0.1,1.1,0.3,2.1,0.5,3.3l1.2,6.9l0.1,0.5
			v0.4c0.1,0.3,0.2,0.6,0.2,0.9c0.1,0.3,0.3,1.2,0.4,1.9c0.2,1.2,0.4,2.5,0.5,3.8c0.1,1.3,0.2,2.7,0.1,4c0,0.7-0.1,1.4-0.2,2.1
			c0,0.2-0.1,0.3-0.1,0.5l-0.1,0.3c0,0.1-0.1,0.2-0.1,0.3c-0.2,0.3-0.5,0.6-0.7,0.9c-1.1,0.9-2.2,1.8-3.4,2.5
			c-1.2,0.8-2.4,1.6-3.6,2.3l-3.8,2.3l-1.9,1.2c-0.6,0.4-1.3,0.8-1.9,1.3c-0.3,0.2-0.6,0.5-0.9,0.8c-0.2,0.3-0.5,0.5-0.8,0.9
			c-0.5,0.6-1,1.2-1.4,1.9C78,67.4,77.2,68.8,76.6,70.2z"/>
	</g>
	<g>
		<path class="st1" d="M42.6,70.6c0,0-5.4,3.9-8,4.5s-9.4,1.2-10.4,0.9s1.9-1.8,1.9-1.8C18.6,75.4,10.9,72,10.9,72
			C15.3,69.6,42.6,70.6,42.6,70.6z"/>
		<path class="st2" d="M12,71.7l-0.3,0.2l-0.3,0.1L11.2,72h0.2l0.5,0.2l0.8,0.3l2,0.6c3,0.7,7.1,1.4,11.3,0.8l1.5-0.2l-1.3,0.8
			l-1,0.7l-0.5,0.4l-0.2,0.2l-0.1,0.1v0.1l0,0v0h0.1l0.6,0.1h1.2c1.6-0.1,3.2-0.2,4.8-0.3c0,0-0.9,0.2-2.5,0.5
			c-0.8,0.1-1.8,0.3-3.1,0.4h-1.3c-0.1,0-0.3-0.1-0.3-0.2c-0.1-0.1-0.1-0.3,0-0.4l0.1-0.2l0.1-0.1c0.2-0.3,0.5-0.6,0.9-0.8l1-0.6
			l0.2,0.5c-2.5,0.3-5,0.3-7.4-0.1c-1.5-0.2-2.9-0.6-4.3-1c-0.7-0.2-1.5-0.5-2.2-0.8l-0.5-0.2l-0.5-0.2H11l0.2-0.1l0.3-0.1L12,71.7z
			"/>
		<path class="st0" d="M32.7,68c0,0-13.5-4-20.4-10.8c0,0-0.5,3.9,4.5,7.6c0,0-10.4-2-11.9-2.2c-1.6-0.2,10.4,6.6,10.4,6.6
			s-12.4-0.8-12.8,0s7.8,2.8,11.9,2.9c4.2,0.1,18.4,1.6,20.4,0C36.7,70.4,32.7,68,32.7,68z"/>
		<g>
			<g>
				<path class="st3" d="M28.3,92c0,0-1.7,2.4-1.9,3.5s0.8,2.7,1.3,3.1c0.5,0.3,2.7,0.9,2.8,1.6c0,0,1.9,1.4,1.4,3
					c0,0-1.5-1.6-2.3-1.6c0,0-0.7,0.2-1-0.3c-0.3-0.5,0.1,1.2,0.6,1.3s0.5,1.2,0.5,1.2c0.2,1.2-0.2,2.4-0.9,3.3c0,0-0.1-2.7-0.8-3.1
					c0,0-2.3-1.1-2.9-2.1c-0.6-1-2.1-5.6-2.1-6.5s2.8-4.7,3.3-4.9S28.2,91.1,28.3,92z"/>
				<path class="st4" d="M28,104c-0.1-0.4,0-0.8,0.2-1.2c0.4-0.5,0.9-0.6,1.3,0.2s0.3,3.2-0.7,4.1C28.8,107.1,28.8,105,28,104z"/>
				<path class="st4" d="M29.8,101.6c0,0-0.3-1.1,0.3-1.4c0.6-0.3,2.3,1,1.9,3C31.3,102.6,30.6,102.1,29.8,101.6z"/>
				<path class="st5" d="M27.1,94.1l-0.1,0.2c-0.1,0.2-0.2,0.4-0.3,0.5c-0.1,0.3-0.1,0.6-0.1,0.9c0,0.1,0,0.2,0.1,0.2l0.1,0.3
					l0.2,0.6c0.1,0.4,0.3,0.8,0.5,1.2c0.1,0.2,0.2,0.3,0.4,0.4l0.6,0.2c0.5,0.2,0.9,0.4,1.3,0.6c0.2,0.1,0.4,0.3,0.6,0.5
					c0.2,0.2,0.3,0.4,0.3,0.7c-0.1-0.2-0.2-0.3-0.4-0.5c-0.5-0.3-1-0.5-1.5-0.6l-0.6-0.2c-0.2-0.1-0.4-0.1-0.6-0.2
					c-0.2-0.1-0.5-0.3-0.6-0.6c-0.1-0.2-0.3-0.5-0.3-0.8c-0.1-0.3-0.1-0.5-0.2-0.8l-0.1-0.4v-0.2c0-0.1,0-0.2,0-0.2
					C26.2,95.1,26.5,94.5,27.1,94.1z"/>
			</g>
			<g>
				<path class="st6" d="M25,90.7c0,0-1.9,3.8-2,4.8c-0.1,1,0.8,3.7,2,5c1.2,1.3,1.2,2.3,0.6,3.2c0,0,1.7,2.6-1.4,4.5
					c0,0,0.3-2.4-0.4-3.8c0,0-1.4-1-1.6-2.5c0,0,1,3.6-1.7,4c0,0-1.3,3.8-4.9,3c0,0,2.6-2.3,2.7-4c0,0-0.3-2,0.1-3
					c0.4-1,0.6-5.5,1.3-6.2c0,0-1.5,0.9-2,1.7c-0.5,0.8-0.7,1.7-1.6,1.6c0,0-2.5,1.7-4.1-0.4c0,0,2.4-0.5,2.9-1.3
					c0.3-0.8,0.8-1.5,1.4-2.2c0.9-0.8,2.8-1.5,3.6-2.2c0.8-0.7,1.8-1.5,1.8-1.5s-1.3,0.6-1.6,0s2.8-2.1,2.8-2.1S25.2,89.3,25,90.7z"
					/>
				<path class="st5" d="M21.6,90.2l-0.5,0.3L20.6,91l-0.3,0.3l-0.1,0.2c0,0,0,0.1,0,0.1l0.2,0.1h0.3c0.3,0,0.5-0.1,0.7-0.2l1.2-0.4
					l-0.2,0.2h-0.1l-0.1,0.1l-0.2,0.2L21.5,92l-1.1,1c-0.3,0.3-0.7,0.5-1,0.7l-1.1,0.5c-0.7,0.3-1.4,0.8-2,1.3
					c-0.6,0.5-1,1.1-1.3,1.8v-0.2c0-0.2,0.1-0.3,0.1-0.5c0.2-0.6,0.6-1.2,1-1.6c0.7-0.7,1.6-1.3,2.5-1.7l0.8-0.4l0.8-0.5l0.4-0.3
					l0.1-0.1h0.1l0.1-0.1l0.1-0.1h-0.6l-0.2-0.1L20,91.8L20,91.7c0-0.1,0-0.2,0-0.3c0-0.1,0.1-0.2,0.2-0.2c0.1-0.1,0.3-0.2,0.5-0.3
					C20.9,90.5,21.3,90.4,21.6,90.2z"/>
				<path class="st3" d="M22.2,100.8l-0.2-0.4c-0.1-0.3-0.3-0.7-0.4-1c-0.1-0.5-0.2-0.9-0.2-1.4c0-0.5,0.1-1,0.4-1.4
					c0,0.1,0,0.2,0.1,0.3c0,0.2,0.1,0.5,0.1,0.8c0,0.3,0.1,0.8,0.2,1.3C22.3,99.6,22.3,100.2,22.2,100.8z"/>
				<path class="st4" d="M14.9,97.4c0,0,1.3-0.2,1.6,0.3s0.1,0.9-0.3,1.4c-0.4,0.4-2.9,1.4-4.1-0.4C12,98.7,14,98.4,14.9,97.4z"/>
				<path class="st4" d="M18.3,105.1c0.2-0.6,1.2-0.9,1.9-0.6c0.7,0.3,0.5,1.5-0.3,2.6c-0.8,1.2-1.9,2.3-4.2,1.8
					C15.6,108.9,17.8,107,18.3,105.1z"/>
				<path class="st4" d="M23.8,104.4c-0.2-0.5,1-1.6,1.8-0.7c0.8,0.9,0.9,3.3-1.4,4.5C24.2,108.2,24.4,105.6,23.8,104.4z"/>
			</g>
			<g>
				<path class="st1" d="M49.9,87.3c0,0-8,2.4-10,2.8c-1.9,0.4-8.3,5.3-10.8,5.1c-2.5-0.2,0-1.1,0-1.1s-2.2,0.7-2.3-0.7s0.9-3,0.9-3
					s10.2-7.2,12.5-6.8C42.5,84,49.9,87.3,49.9,87.3z"/>
				<g>
					<path class="st1" d="M71.2,67.8c0,0-3.7-0.5-6.3-1.7c-2.6-1.2-10.2-4.2-20.3,0c-10.1,4.2-11.8,8.2-13.8,10.2
						c-2,2-10.4,10.1-9.1,13.4c0,0-0.4,1.2,0.4,1.6c0.8,0.3,1.6-0.8,1.6-0.8s-0.4,1.6,0.9,1.2c0,0,0.1,0.5,3-0.5
						c2.9-1,5-2.1,6.3-3.2c1.2-1.1,4.6-2.6,5.9-2.5c1.4,0.2,5.3,3.7,12.4,4c7,0.3,17.1-4.9,20-5.6S71.2,67.8,71.2,67.8z"/>
					<g>
						<defs>
							<path id="SVGID_1_" d="M71.2,67.8c0,0-3.7-0.5-6.3-1.7c-2.6-1.2-10.2-4.2-20.3,0c-10.1,4.2-11.8,8.2-13.8,10.2
								c-2,2-10.4,10.1-9.1,13.4c0,0-0.4,1.2,0.4,1.6c0.8,0.3,1.6-0.8,1.6-0.8s-0.4,1.6,0.9,1.2c0,0,0.1,0.5,3-0.5
								c2.9-1,5-2.1,6.3-3.2c1.2-1.1,4.6-2.6,5.9-2.5c1.4,0.2,5.3,3.7,12.4,4c7,0.3,17.1-4.9,20-5.6S71.2,67.8,71.2,67.8z"/>
						</defs>
						<clipPath id="SVGID_2_">
							<use xlink:href="#SVGID_1_"  style="overflow:visible;"/>
						</clipPath>
						<g class="st7">
							<path class="st0" d="M39.1,73.1c0,0-2.9,3.2-5.6,5.1c0,0,0.4,3,3.4,3.1s7.8-1.3,10.6-0.7s14,3.1,20.1,3c0,0-5-1.9-4.3-3.5
								s11.6-2.2,10,3.5c0,0-15.8,9.7-25.8,6.9s-14.2-1-16.9,1.4s-13.1,7.7-12.6-1.4S31.5,69.6,39.1,73.1z"/>
						</g>
					</g>
				</g>
				<path class="st8" d="M36.9,85.7l0.2-0.1l0.5-0.3l1.7-1.2c0.7-0.5,1.6-1,2.4-1.3c0.9-0.3,1.9-0.3,2.8,0H44
					c-0.5,0.1-1.1,0.2-1.6,0.4c-0.8,0.3-1.6,0.7-2.3,1.1l-1.4,0.8C38.1,85.4,37.5,85.6,36.9,85.7z"/>
				<path class="st1" d="M69.7,84.9l-1.8,0.8c-1.2,0.5-2.9,1.2-5,2c-1.1,0.4-2.2,0.8-3.5,1.2c-1.3,0.4-2.7,0.7-4.1,0.9L54.2,90
					L53,90.1c-0.8,0-1.6,0-2.3-0.1c-0.8-0.1-1.6-0.2-2.4-0.3l-1.2-0.3l-0.6-0.2L46.1,89L46,88.9l0,0l-1,0.2l-1.2,0.3l-2.4,0.6
					l-1.2,0.4c-0.4,0.2-0.7,0.3-1.1,0.5l-2.2,1.1c-1.5,0.8-2.9,1.5-4.4,2.2l-1.1,0.5c-0.4,0.2-0.7,0.3-1.1,0.4
					c-0.4,0.1-0.8,0.1-1.2,0.1c-0.4,0-0.8-0.1-1.1-0.3H28l0.2,0.1c0.3,0.1,0.6,0.1,1,0.1c0.5-0.1,1-0.2,1.5-0.5
					c0.6-0.3,1.2-0.6,1.9-1.1c1.4-0.8,3.2-1.9,5.3-3.1c0.5-0.3,1.1-0.6,1.7-0.9c0.6-0.3,1.3-0.5,2-0.7l2.1-0.6l1.1-0.3l1.3-0.3
					l0.3,0.2l0.1,0.1l0.3,0.1l0.6,0.2l1.2,0.3c0.9,0.2,1.7,0.3,2.6,0.4c0.9,0.1,1.9,0.1,2.8,0c0.5,0,0.9-0.1,1.4-0.1l0.7-0.1
					l0.7-0.1c2.1-0.4,4.2-1,6.2-1.6C65.3,86.6,67.5,85.8,69.7,84.9z"/>
				<path class="st9" d="M31.8,75.3l-1.2,1.3c-0.8,0.8-1.8,2-3,3.3c-1.3,1.5-2.5,3-3.6,4.5c-0.6,0.8-1.1,1.6-1.5,2.5
					c-0.2,0.4-0.4,0.9-0.5,1.3c-0.1,0.4-0.1,0.9-0.1,1.3l-0.1-0.3c-0.1-0.3-0.1-0.6-0.1-0.9c0.1-0.8,0.5-2,1.2-3.4
					C24.4,82.4,27.4,78.9,31.8,75.3z"/>
			</g>
		</g>
		<path class="st0" d="M39.2,67.5c0,0-8.4-0.3-13.1-2.8c0,0,2.4,4,4,4.4c0,0-12.2-1.1-12.1-0.7c0,0.5,9.1,4.3,12.6,4.3
			c3.4,0,12.4-1.2,14-2.1S39.2,67.5,39.2,67.5z"/>
	</g>
	<g>
		<g>
			<g>
				<path class="st1" d="M91.4,73.7c0,0-1.7-3.3-3.3-3.9c-2.3-1-6.3-0.4-9.4,0.4c-3.1,0.8-4.5-1.1-5.1-2.3c-0.6-1.2-3-4.3-4.7-4.8
					s0.9,4.3,1,4.5c0.1,0.2-8,0.3-8.4,2c-0.4,1.7,6.9,4.6,6.9,4.6s-5.5,4.4-5.2,5.9c0.3,1.5,8.6,2.5,8.6,2.5s-2.7,2.6-2.3,3.2
					c0.4,0.5,6.7,0.1,9.1-1.2c2.4-1.2,7-4.3,9.2-4.6C90.1,79.6,92.6,75.7,91.4,73.7z"/>
				<g>
					<defs>
						<path id="SVGID_3_" d="M91.4,73.7c0,0-1.7-3.3-3.3-3.9c-2.3-1-6.3-0.4-9.4,0.4c-3.1,0.8-4.5-1.1-5.1-2.3
							c-0.6-1.2-3-4.3-4.7-4.8s0.9,4.3,1,4.5c0.1,0.2-8,0.3-8.4,2c-0.4,1.7,6.9,4.6,6.9,4.6s-5.5,4.4-5.2,5.9
							c0.3,1.5,8.6,2.5,8.6,2.5s-2.7,2.6-2.3,3.2c0.4,0.5,6.7,0.1,9.1-1.2c2.4-1.2,7-4.3,9.2-4.6C90.1,79.6,92.6,75.7,91.4,73.7z"/>
					</defs>
					<clipPath id="SVGID_4_">
						<use xlink:href="#SVGID_3_"  style="overflow:visible;"/>
					</clipPath>
					<g class="st10">
						<path class="st0" d="M68.5,74.2c0,0-2.9,3-1.9,4.9s10.4,1.6,14,0c0,0-1.5-2.4,0.2-2.9s10.1-0.5,11.7,1.1s-5,3.6-9.9,7.9
							c-4.9,4.4-12,3.9-14.8,1.7c-2.8-2.1-8.3-4.6-7.4-6.7C61.3,78,65,74.5,68.5,74.2z"/>
					</g>
				</g>
			</g>
			<g>
				<path class="st4" d="M83.9,73.4c0,0.6-0.3,1.1-0.6,1.1s-0.6-0.5-0.6-1.1c0-0.3,0.1-0.6,0.2-0.9c0.1-0.2,0.2,0.1,0.4,0.1
					s0.2,0,0.5,0.3C83.9,73,83.9,73.2,83.9,73.4z"/>
				<path class="st4" d="M84.4,72.8c0,0-1.6-0.4-2.3-1.2c0.2,0.5,0.6,0.9,1,1.2C83.6,73.3,84.4,72.8,84.4,72.8z"/>
			</g>
			<path class="st11" d="M87,80.3l-5.9,3.4c-0.9,0.6-1.8,1.1-2.7,1.6c-1,0.5-2.1,0.8-3.3,0.9c-1.1,0.1-2.2,0.2-3.4,0l-0.8-0.1
				l-0.9-0.2h-0.3L69.6,86l-0.2-0.2c0-0.1,0-0.2,0-0.2c0-0.2,0.1-0.3,0.2-0.4l0.3-0.3L69.9,85l-0.2,0.2c-0.1,0.1-0.1,0.3-0.2,0.4
				c0,0.1,0.1,0.1,0.1,0.2h3.5l0.6-0.1c0.9-0.1,1.8-0.3,2.7-0.5c1-0.3,2-0.8,3-1.3l0.8-0.5l0.9-0.5l1.8-0.9
				C84.2,81.5,85.6,80.9,87,80.3z"/>
		</g>
		<g>
			<path class="st6" d="M94.6,78.4c0,0-3.1,3.1-4.3,3.3c-1.2,0.2-4.6-2-4.6-2s-4.9-1.6-5.1-3c-0.2-1.5,4.5-1,4.5-1s2.2-2.6,4.6-2.9
				c2.4-0.4,7.5,0.4,9.4,1.9c1.9,1.5-1.6,8-1.6,8S98.1,79.1,94.6,78.4z"/>
			<path class="st6" d="M97.4,82.6c0,0,2.9-5.1,1.9-7.5c-1-2.4-6.6-2.7-9.3-2.6c-1.7,0-2.9,1.2-3.5,1.7c0,0,4.9-0.1,7.9,0.9
				C97.5,76.1,98,80.1,97.4,82.6z"/>
			<path class="st12" d="M83.6,77.2c0,0,4,1.3,5.5,1.2s4.8-0.6,4.8-0.6s-4.3,1.2-5.2,1.2C87.9,79.2,83.6,77.2,83.6,77.2z"/>
			<path class="st12" d="M90.6,74.5c0,0-1.2-0.9-1.9,0.6C89.3,74.7,90,74.4,90.6,74.5z"/>
			<path class="st5" d="M90.7,72.4c0,0,0.6,0,1.7,0l1.9,0.1c0.8,0.1,1.6,0.2,2.4,0.4l0.6,0.2l0.7,0.3c0.5,0.2,0.9,0.5,1.2,0.9
				c0.4,0.4,0.6,1,0.6,1.5c0.1,0.5,0,1.1-0.1,1.6c-0.2,1-0.6,1.9-1,2.8c-0.4,0.8-0.9,1.6-1.3,2.4c0,0,0.1-0.4,0.3-1.2s0.6-1.9,1-3.3
				c0.2-0.7,0.3-1.5,0.2-2.3c-0.1-0.8-0.7-1.5-1.5-1.9c-1-0.4-2.1-0.8-3.1-1C93.3,72.8,92,72.6,90.7,72.4z"/>
		</g>
	</g>
	<g>
		<path class="st0" d="M44.5,31.5c0,0-12.9-15-14.9-18s-4.8-7.4-5.4-7.6c-0.4-0.1-0.8-0.1-1.2,0c0,0,2.6,10.1,4.9,14.4
			c0,0-9.3-9.8-14.4-18.9c0,0-1.6-1.1-2.6-0.8c0,0,5.6,17.3,14.1,25.2c0,0-14.2-9.9-21.5-11.8c0,0-2.9,1-3.3,1.9
			c-0.3,0.9,14,9.2,17.8,12.1c0,0-11.7-2.3-17.7,0.6c0,0,1.2,2.6,1.9,2.6s12.9,0,15.9,2c0,0-9.5,4.2-9.2,5.6s8.2,0,8.2,0
			s-2.2,3.7-1.4,5.3c0.8,1.6,6.1,0.9,6.1,0.9s-0.5,3.7,0,4.2c0.5,0.5,6.1,0,6.1,0s-0.8,4.2,0,4.3l6.3,0.9c0,0-4,3.1-3.4,3.9
			s2.9,1.5,2.9,1.5s-2,2.5,4.7,5.6c0,0-1.1,1.8-0.6,2.2c0.5,0.4,4.9,2.8,4.9,2.8s-3.7-0.2-4.3,1c-0.6,1.2,5.4,4.6,9.2,3.5
			c3.8-1.1,5.8-28.5,5.8-28.5L44.5,31.5z"/>
		<path class="st1" d="M59.3,69.1c0,0-4.8-7-4-11.9c0.8-4.9,2.7-11.5,2.1-14.7c-0.6-3.2-3.8-5-7.5-7.7S38.7,23.3,37.6,23
			s-2.5,5.6,1.2,10.5c3.7,4.9,12.1,10.9,12.1,10.9s-4.9,2.3-5.2,4s2.2,2.9,2.2,2.9s-9.6,0.6-9.6,2.5s3.8,2.3,3.8,2.3
			s-2.5,0.9-2.6,2.5c-0.2,1.6,6,4.5,6,4.5s-6.2-0.1-6.3,0.7c-0.2,0.8,8.3,6.9,8.3,6.9s-4,0.8-4.1,1.7c-0.2,0.9,2.6,2.8,2.6,2.8
			s-1.3,1.4,1.5,1.6C50.3,76.7,62.4,75,59.3,69.1z"/>
		<path class="st1" d="M56.5,64.1l-0.2-0.4c-0.2-0.4-0.4-0.8-0.5-1.2c-0.2-0.7-0.4-1.4-0.5-2.1c-0.1-0.5-0.1-0.9-0.2-1.4
			c0-0.5,0-1.1,0.1-1.6c0.2-2.2,0.9-4.9,1.5-8c0.4-1.6,0.6-3.3,0.7-5c0-0.4,0-0.9-0.1-1.3c-0.1-0.4-0.2-0.9-0.4-1.3
			c-0.3-0.9-0.9-1.7-1.5-2.4c-1.3-1.4-3.1-2.6-4.9-3.8c-0.5-0.3-0.9-0.6-1.4-0.9c-0.5-0.3-0.9-0.7-1.3-1.1s-1.6-1.6-2.5-2.4
			c-1.6-1.7-3.2-3.5-4.9-5.3c-0.4-0.5-0.9-0.9-1.3-1.3c-0.4-0.4-0.9-0.8-1.4-1.1l-0.2-0.1l-0.3-0.1l-0.4-0.3l-0.4-0.3l-0.4-0.5
			c-0.5-0.5-0.9-1-1.3-1.5c-3.4-4.1-6.4-8.7-9.8-13.2l-0.7-0.8l-0.3-0.3h-0.1l-0.2-0.1h-0.3v0.2l0.1,0.2l0.1,0.5
			c0.4,1.4,0.9,2.8,1.3,4.1c0.9,2.8,2,5.6,3,8.4l0.8,2.2l-1.6-1.8c-2.8-3.2-5.5-6.6-8.2-10.1c-1.3-1.8-2.7-3.6-3.9-5.4
			c-0.3-0.5-0.6-0.9-0.9-1.4l-0.5-0.7l-0.2-0.4l0,0L13.2,2c-0.5-0.3-0.9-0.6-1.4-0.9L11.5,1h0v0.1l0.1,0.3l0.2,0.5
			C11.9,2.3,12,2.7,12.2,3l0.5,1.1l0.5,1.1c0.7,1.5,1.4,3,2.1,4.4c1.4,2.9,3,5.8,4.6,8.7c0.8,1.4,1.7,2.8,2.6,4.1l0.4,0.5l0.3,0.5
			l0.4,0.5l0.8,1l0.7,0.9l0.7,0.9l0.1,0.1h-0.1l-0.2-0.2L25,26.4l-2-1.3l-1.7-1.1l-1-0.7l-2-1.3l-4.2-2.5c-1.4-0.8-2.8-1.6-4.2-2.4
			c-1.4-0.8-2.8-1.4-4.3-2l-1.1-0.4l-0.5-0.1H3.4l-0.5,0.2L2.4,15l-1.1,0.5l-0.5,0.3l-0.2,0.2L0.5,16c0,0,0,0.1,0,0.1l0.1,0.1
			L1,16.6c0.6,0.5,1.2,1,1.9,1.4c5,3.6,10.2,6.8,15.1,10.1l-1.1-0.7l-3.2-2l-5.3-3.3l-3.4-2.2c-1.2-0.8-2.5-1.6-3.8-2.6
			c-0.3-0.2-0.7-0.5-1-0.8c-0.1-0.1-0.2-0.2-0.2-0.3C0,16.1,0,16.1,0,16c0-0.1,0-0.1,0.1-0.2c0.1-0.1,0.2-0.2,0.3-0.3l0.3-0.2
			c0.8-0.4,1.6-0.8,2.4-1.2l0.4-0.2h0.4l0.7,0.1l1.4,0.4c0.9,0.3,1.8,0.7,2.7,1.2c3.6,1.8,7.4,4,11.4,6.5l2.2,1.5l0.2,0.1h0.1
			l-0.1-0.1l-0.2-0.3l-0.2-0.2l-0.2-0.4l-0.5-0.8c-0.4-0.5-0.7-1.1-1.1-1.7c-0.7-1.1-1.4-2.3-2-3.5c-1.3-2.4-2.7-4.9-3.9-7.5
			c-0.6-1.3-1.3-2.7-1.9-4c-0.3-0.7-0.6-1.4-0.9-2.1S11,2.5,10.9,2.2l-0.2-0.5l-0.2-0.8V0.5c0-0.1,0-0.2,0.1-0.2
			C10.6,0.1,10.8,0,11,0c0.2,0,0.5,0.1,0.7,0.2l0.2,0.1h0.1l0.2,0.1c0.5,0.3,0.9,0.5,1.4,0.8l0.3,0.2l0.2,0.2c0.1,0,0.1,0.1,0.1,0.2
			l0.1,0.1l0.4,0.6L15,3.1l0.4,0.7c1.2,1.8,2.4,3.5,3.7,5.3c2.7,3.5,5.5,7.1,8.7,10.6L27,20.1c-1.1-2.9-2.1-5.9-3.2-9.1
			c-0.2-0.8-0.5-1.6-0.8-2.3l-0.4-1.2l-0.2-0.6l-0.1-0.3V6.4c0-0.1,0-0.2,0-0.3c0-0.4,0.4-0.7,0.8-0.7c0.3,0,0.6,0,0.8,0.1l0.2,0.1
			c0.1,0,0.2,0.1,0.2,0.2l0.2,0.2l0.4,0.5c0.5,0.7,1,1.3,1.6,2c2,2.8,4,5.6,6.1,8.5c1,1.4,2.1,2.9,3.3,4.2c0.3,0.3,0.6,0.7,0.9,1
			l0.2,0.2l0.1,0.1l0.1,0.1l0.1,0.1l0.1,0.1l0.2,0.1l0.2,0.1c0.4,0.2,0.8,0.5,1.2,0.9l1,1c2.6,2.7,4.9,5.6,7.6,8.2
			c0.7,0.7,1.4,1.3,2.2,1.8l2.4,1.6c0.8,0.6,1.6,1.2,2.3,1.8c0.8,0.6,1.4,1.4,1.9,2.3l0.2,0.3l0.2,0.3c0.1,0.2,0.2,0.5,0.3,0.7
			c0.1,0.2,0.2,0.5,0.2,0.7l0.1,0.4l0.1,0.4c0.1,1,0,2-0.1,3c-0.3,2-0.8,3.9-1.2,5.9c-0.2,1-0.5,2-0.6,3c-0.2,1-0.3,2-0.4,3
			c0,1,0,2.1,0.3,3.1C55.8,62.2,56.1,63.1,56.5,64.1z"/>
		<path class="st1" d="M8.8,39c0,0,0,0.1,0,0.1c0.1,0.1,0.2,0.2,0.3,0.2c0.5,0.2,1.1,0.3,1.6,0.2c0.9,0,1.8-0.1,2.7-0.2l1.6-0.3
			l0.9-0.2l1.5-0.3l-0.5,1l-0.1,0.2l-0.1,0.2l-0.1,0.3c-0.2,0.4-0.3,0.8-0.5,1.2c-0.1,0.4-0.3,0.9-0.3,1.3c-0.1,0.4-0.1,0.8,0.1,1.2
			c0.1,0.1,0.2,0.2,0.4,0.3l0.6,0.2c0.5,0.1,1,0.2,1.5,0.2h3l0.8-0.1L22,45.4L21.9,46l-0.1,0.6c-0.1,0.4-0.1,0.8-0.1,1.2
			c0,0.4,0,0.8,0.1,1.2l0.1,0.2H22l0.5,0.1c0.9,0.1,1.7,0.1,2.6,0l1.3-0.1l0.6-0.1l1.2-0.1l-0.2,0.7l-0.1,0.6L27.8,51
			c-0.1,0.5-0.2,0.9-0.2,1.4c0,0.2,0,0.4,0,0.6c0,0.1,0,0.2,0,0.3c0,0.1,0,0.1,0.1,0.2l0.1,0.1l0.3,0.1l0.7,0.1l5.2,0.9l-2.8-0.2
			l-3.4-0.3h-0.3c-0.1-0.1-0.2-0.2-0.3-0.3c-0.1-0.2-0.2-0.4-0.2-0.6c0-0.4-0.1-0.8,0-1.2c0-0.4,0.1-0.8,0.1-1.2l0.1-0.6l0,0v-0.1
			h-0.6l-1.2,0.1c-0.9,0.1-1.7,0.1-2.6,0.1l-0.7-0.1l-0.4-0.1c-0.2,0-0.3-0.1-0.5-0.2c-0.1-0.1-0.2-0.3-0.3-0.5
			c-0.1-0.1-0.1-0.3-0.1-0.4c0-0.3-0.1-0.5-0.1-0.8c0-0.5,0-1,0.1-1.5c0-0.2,0.1-0.5,0.1-0.8v-0.2h-2.1c-0.5,0-1-0.1-1.5-0.2
			c-0.5-0.1-1.1-0.2-1.6-0.5c-0.3-0.1-0.6-0.4-0.7-0.7c-0.1-0.3-0.2-0.6-0.2-0.9c0-0.6,0.1-1.1,0.3-1.6c0.2-0.5,0.4-1,0.6-1.5
			l0.2-0.4l0.1-0.2l0.1-0.1v-0.1l0.2-0.3H16l-1,0.2l-2.1,0.2c-0.7,0-1.4,0-2.2,0l-0.5-0.1l-0.5-0.1l-0.5-0.2
			C8.9,39.3,8.8,39.2,8.8,39z"/>
		<path class="st13" d="M56.6,64.6l0.9,1.7c0.6,1,1.1,2.1,1.5,3.2l-0.3-0.2c-0.3-0.2-0.5-0.5-0.7-0.8C57.2,67.3,56.7,66,56.6,64.6z"
			/>
	</g>
</g>
</svg>
