<?xml version="1.0" encoding="utf-8"?>
<!-- Generator: Adobe Illustrator 21.0.2, SVG Export Plug-In . SVG Version: 6.00 Build 0)  -->
<svg version="1.1" id="Layer_2" xmlns="http://www.w3.org/2000/svg" xmlns:xlink="http://www.w3.org/1999/xlink" x="0px" y="0px"
	 viewBox="0 0 100 88.1" style="enable-background:new 0 0 100 88.1;" xml:space="preserve">
<style type="text/css">
	.st0{fill:#FC3A3B;}
	.st1{opacity:0.56;fill:#AA4400;enable-background:new    ;}
	.st2{fill:#F47C23;}
	.st3{opacity:0.4;fill:#FDC312;enable-background:new    ;}
	.st4{fill:#BF1324;}
	.st5{opacity:0.15;fill:#BF1324;enable-background:new    ;}
</style>
<title>Artboard 1</title>
<path class="st0" d="M26.4,0l-0.6,0.4l5.4,7.3l21.1,9.6c-0.1,1.7-0.4,3.5-0.8,5.2c-4.7-5.7-24-9.5-36.8-3.2s-14.5,15-14.5,15
	L83.4,53c0.6-2.4-0.6-5-3-5.9l2.7-1.8l7.1-13.8l9.7-5.6l-0.6-0.6l-10.1,5.6l-7.6,13.3l-2.5,0.4c0.6-2.2-0.4-3.8-2.5-4.4
	c-0.4-3.5-4.4-4.9-4.4-4.9l4.6-7.6l-1.5-11.9l2.9-4.1h-0.6L74,15.3l1.3,11l-5.7,7.4l-2.8-1.8l3.7-4.3l-8.8-17.2L62.2,6l-1-0.1l-1,5
	l5.9,17l-5,1.3c-2.1-1.3-4.1-2.9-5.9-4.7l-0.6-9.2L32.2,6.6L26.4,0z"/>
<path class="st0" d="M0.3,34.3c0,0-2.3,8.6,6.6,19.8s28,16.1,34.7,12.8c-0.3,1.7-0.8,3.4-1.5,5l-23.2-0.4l-8,4.3l0.4,0.6l8.1-3.5
	l23.9,1.8l4.4-8.1c2.4-0.8,4.8-1.4,7.3-1.7l4,3.3L44.4,81.2l-1.2,4.9l1,0.3l1.5-4.1l15.2-11.9L59.4,65l3.2-0.4l2,9.1l-5.9,9.4
	l1.6,4.7l0.6,0.3l-0.8-4.9l6.4-10.1l-0.8-9c0,0,4.3,0.4,6.1-2.5c2.2,0.4,3.8-0.7,4.2-2.9l2.1,1.5l1.2,15.2l6.7,9.3l0.8-0.2l-6.4-9.2
	L80,59.9L78.3,57c2.5,0.1,4.7-1.6,5.2-4.1L0.3,34.3z"/>
<path id="path4300" class="st1" d="M47.8,60.2c0,0-39.4,1.3-43.9-25.1C50.2,45.6,48.1,45,48.1,45L47.8,60.2z"/>
<path id="path4284" class="st2" d="M51.6,65.2c-0.7-6.4-0.3-12.8,1.1-19.1L45,44.3c-2,9.8-3.5,22.6-3.5,22.6c-0.3,1.7-0.8,3.4-1.5,5
	l1.2,2.9l4.4-8.1C47.6,66,49.6,65.5,51.6,65.2z"/>
<path id="path4286" class="st3" d="M70.5,50.1l-1.6-0.4c-0.7,2.5-1.1,5-1.1,7.6C68.6,54.9,69.5,52.5,70.5,50.1z M58,58.4
	c-0.9-4.1,0.4-8.3,1.6-10.8l-2-0.5C57,50,56.6,54.8,58,58.4z M47.8,60.2c0.1-7.7,1.5-12.4,2.3-14.7l-2-0.4
	C47.2,50.1,47.1,55.2,47.8,60.2z"/>
<path id="path4188" class="st1" d="M54.3,31.3c0,0-35-18.1-50.4,3.8c46.4,10.4,44.2,10,44.2,10L54.3,31.3z"/>
<ellipse id="circle4288" transform="matrix(0.2198 -0.9755 0.9755 0.2198 -0.7848 118.9075)" class="st4" cx="74" cy="59.9" rx="2.6" ry="2.6"/>
<path id="path4304" class="st3" d="M31.7,41.4L30.3,41c-0.7,2.5-1.1,5-1.1,7.6C29.9,46.2,30.7,43.7,31.7,41.4z M19.2,49.7
	c-0.9-4.1,0.4-8.3,1.6-10.8l-2-0.4C18.3,41.3,17.9,46.2,19.2,49.7z M9,51.5c0.1-7.7,1.5-12.4,2.3-14.8l-2-0.4
	C8.5,41.4,8.3,46.5,9,51.5z"/>
<path id="path4190" class="st2" d="M59.9,28.4c-3.4,5.5-5.8,11.5-7.2,17.7l-7.8-1.8c2.3-9.7,6.6-21.9,6.6-21.9
	c0.5-1.7,0.7-3.4,0.8-5.2l2.3-2.1l0.6,9.2C56.6,25.9,58.2,27.2,59.9,28.4z"/>
<path id="path4192" class="st3" d="M70.5,50.1l-1.6-0.4c0.5-2.6,1.2-5,2.3-7.4C70.8,44.9,70.6,47.5,70.5,50.1z M62.7,37.2
	c-2.6,3.3-3.2,7.6-3.2,10.4l-2-0.5C58.3,44.5,60,39.8,62.7,37.2z M54.3,31.2c-3.2,7.1-4,11.9-4.2,14.3l-2-0.4
	C49.4,40.2,51.5,35.5,54.3,31.2z"/>
<ellipse id="circle4194" transform="matrix(0.2198 -0.9755 0.9755 0.2198 19.0699 109.2457)" class="st4" cx="77.8" cy="42.7" rx="2.6" ry="2.6"/>
<path id="path4196" class="st3" d="M31.7,41.4L30.3,41c0.4-2.5,1.2-5,2.2-7.4C32.1,36.2,31.8,38.8,31.7,41.4z M24,28.5
	c-2.6,3.3-3.2,7.6-3.2,10.4l-2-0.5C19.6,35.7,21.2,31.1,24,28.5L24,28.5z M15.5,22.5c-3.2,7.1-4,11.9-4.2,14.3l-1.9-0.5
	C10.7,31.4,12.8,26.8,15.5,22.5L15.5,22.5z"/>
<path id="path4338" class="st5" d="M83.4,53L0.3,34.3c0,0-2.3,8.6,6.6,19.8s28,16.1,34.7,12.8c-0.3,1.7-0.8,3.4-1.5,5l-23.2-0.4
	l-8,4.3l0.4,0.6l8.1-3.5l23.9,1.8l4.4-8.1c2.4-0.8,4.8-1.4,7.3-1.7l4,3.3L44.4,81.2l-1.2,4.9l1,0.3l1.5-4.1l15.2-11.9L59.4,65
	l3.2-0.4l2,9.1l-5.9,9.4l1.6,4.7l0.6,0.3l-0.8-4.9l6.4-10.1l-0.8-9c0,0,4.3,0.4,6.1-2.5c2.2,0.4,3.8-0.7,4.2-2.9l2.1,1.5l1.2,15.2
	l6.7,9.3l0.8-0.2l-6.4-9.2L80,59.9L78.3,57c2.5,0.1,4.7-1.6,5.2-4.1L83.4,53z"/>
</svg>
