<svg id="Layer_2" data-name="Layer 2" xmlns="http://www.w3.org/2000/svg" width="141.7" height="124.6" viewBox="0 0 141.7 124.6">
  <defs>
    <style>
      .cls-1 {
        fill: #fc3a3b;
      }

      .cls-2 {
        fill: #a40;
        opacity: 0.56;
      }

      .cls-2, .cls-4, .cls-6 {
        isolation: isolate;
      }

      .cls-3 {
        fill: #f47c23;
      }

      .cls-4 {
        fill: #fdc312;
        opacity: 0.4;
      }

      .cls-5, .cls-6 {
        fill: #bf1324;
      }

      .cls-6 {
        opacity: 0.15;
      }
    </style>
  </defs>
  <title>Artboard 1</title>
  <path class="cls-1" d="M37.5-.5l-.8.5,7.7,10.4L74.3,24a37.3,37.3,0,0,1-1.2,7.3C66.5,23.2,39.1,17.9,21,26.8S.5,48.1.5,48.1L118.3,74.6a7.2,7.2,0,0,0-4.2-8.4l3.8-2.6L128,44.1l13.8-7.9-.9-.8-14.3,7.9L115.9,62.2l-3.6.6c.8-3.1-.6-5.4-3.6-6.3-.6-4.9-6.3-6.9-6.3-6.9l6.5-10.8-2.1-16.8,4.1-5.8h-.9l-5,5,1.9,15.6L98.8,47.3l-3.9-2.6,5.2-6.1L87.7,14.2,88.3,8l-1.4-.2-1.4,7.1,8.3,24.1-7.1,1.9a48.2,48.2,0,0,1-8.3-6.6l-.8-13.1L45.8,8.9Z"/>
  <path class="cls-1" d="M.5,48.1s-3.2,12.2,9.3,28S49.4,98.9,59,94.3a37.4,37.4,0,0,1-2.1,7.1l-32.8-.5-11.4,6.1.5.8,11.5-4.9,33.9,2.6L64.9,94a48.2,48.2,0,0,1,10.3-2.4l5.6,4.7L63,114.5l-1.7,7,1.4.4,2.1-5.8L86.4,99.3l-2.1-7.7,4.6-.6,2.8,12.9-8.4,13.3,2.3,6.7.9.4-1.2-7,9-14.3L93.2,90.3s6.1.6,8.7-3.6c3.1.5,5.4-1,6-4.1l3,2.1,1.7,21.6,9.5,13.2,1.2-.3-9.1-13-.8-21.9-2.3-4a7.2,7.2,0,0,0,7.4-5.8Z"/>
  <path id="path4300" class="cls-2" d="M67.8,84.8S12,86.7,5.6,49.3c65.7,14.8,62.7,14,62.7,14Z"/>
  <path id="path4284" class="cls-3" d="M73.3,91.8a83.1,83.1,0,0,1,1.6-27l-11-2.5c-2.9,13.9-4.9,32-4.9,32a37.1,37.1,0,0,1-2.1,7.1l1.7,4.1L64.9,94A53.4,53.4,0,0,1,73.3,91.8Z"/>
  <path id="path4286" class="cls-4" d="M100,70.5,97.8,70a45.4,45.4,0,0,0-1.6,10.8A97.7,97.7,0,0,1,100,70.5ZM82.3,82.3c-1.3-5.8.6-11.7,2.2-15.3l-2.9-.7C80.9,70.3,80.3,77.2,82.3,82.3ZM67.8,84.8C68,73.9,69.9,67.2,71.1,64l-2.8-.6A68.8,68.8,0,0,0,67.8,84.8Z"/>
  <path id="path4188" class="cls-2" d="M77,43.9S27.4,18.3,5.6,49.3C71.3,64.1,68.2,63.5,68.2,63.5Z"/>
  <circle id="circle4288" class="cls-5" cx="104.9" cy="84.4" r="3.7" transform="translate(-0.5 168.2) rotate(-77.3)"/>
  <path id="path4304" class="cls-4" d="M45.1,58.1,43,57.6a45.4,45.4,0,0,0-1.6,10.8A97.7,97.7,0,0,1,45.1,58.1ZM27.4,69.9c-1.3-5.8.6-11.7,2.2-15.3L26.7,54C26.1,58,25.5,64.9,27.4,69.9ZM12.9,72.5c.2-10.9,2.1-17.6,3.3-20.9L13.4,51A68.8,68.8,0,0,0,12.9,72.5Z"/>
  <path id="path4190" class="cls-3" d="M85,39.7A83.1,83.1,0,0,0,74.8,64.8l-11-2.5c3.3-13.8,9.3-31,9.3-31A37.1,37.1,0,0,0,74.3,24l3.2-3,.8,13.1A53.4,53.4,0,0,0,85,39.7Z"/>
  <path id="path4192" class="cls-4" d="M100,70.5,97.8,70A45.4,45.4,0,0,1,101,59.5,97.7,97.7,0,0,0,100,70.5ZM89,52.2c-3.7,4.7-4.5,10.8-4.5,14.8l-2.9-.7C82.7,62.5,85.1,55.9,89,52.2ZM77,43.7c-4.5,10-5.7,16.8-6,20.3l-2.8-.6A68.8,68.8,0,0,1,77,43.7Z"/>
  <circle id="circle4194" class="cls-5" cx="110.4" cy="60" r="3.7" transform="translate(27.6 154.5) rotate(-77.3)"/>
  <path id="path4196" class="cls-4" d="M45.1,58.1,43,57.6a45.4,45.4,0,0,1,3.1-10.5A97.7,97.7,0,0,0,45.1,58.1Zm-11-18.2c-3.7,4.7-4.5,10.8-4.5,14.8L26.7,54C27.9,50.1,30.2,43.6,34.2,39.9Zm-12-8.5c-4.5,10-5.7,16.8-6,20.3L13.4,51A68.8,68.8,0,0,1,22.2,31.4Z"/>
  <path id="path4338" class="cls-6" d="M118.3,74.6.5,48.1s-3.2,12.2,9.3,28S49.4,98.9,59,94.3a37.3,37.3,0,0,1-2.1,7.1l-32.8-.5-11.4,6.1.5.8,11.5-4.9,33.9,2.6L64.9,94a48.2,48.2,0,0,1,10.3-2.4l5.6,4.7L63,114.5l-1.7,7,1.4.4,2.1-5.8L86.4,99.3l-2.1-7.7,4.6-.6,2.8,12.9-8.4,13.3,2.3,6.7.9.4-1.2-7,9-14.3L93.2,90.3s6.1.6,8.7-3.6c3.1.5,5.4-1,6-4.1l3,2.1,1.7,21.6,9.5,13.2,1.2-.3-9.1-13-.8-21.9-2.3-4a7.2,7.2,0,0,0,7.4-5.8Z"/>
</svg>
