<?xml version="1.0" encoding="utf-8"?>
<!-- Generator: Adobe Illustrator 21.0.2, SVG Export Plug-In . SVG Version: 6.00 Build 0)  -->
<svg version="1.1" id="master-artboard" xmlns="http://www.w3.org/2000/svg" xmlns:xlink="http://www.w3.org/1999/xlink" x="0px"
	 y="0px" viewBox="0 0 103 150" style="enable-background:new 0 0 103 150;" xml:space="preserve">
<style type="text/css">
	.st0{fill:#D75460;}
	.st1{fill:#121112;}
	.st2{fill:#E8B987;}
	.st3{fill:#FBD2A6;}
	.st4{fill:#29282A;}
	.st5{fill:#08459E;}
</style>
<path class="st0" d="M83.5,30.3V30c0-13.2-10.1-24.4-23.3-25.2C57,4.6,53.8,5,50.8,6C39.3,10,32.8,22.2,35.4,34l0.5,2.3
	c0,1.3,1.8,1.6,2.2,0.4l1.3-6v11.6c0,6.2,2.6,11.8,6.8,15.7v11.4c0,1.6-0.5,3.2-1.6,4.4l0,0c-2.5,3.1-7,3.5-10,0.9L31,71.7
	c-0.6,6.5,5.8,11.9,12.8,13.7c-0.7,1.2-1,2.6-1,4c0,3.5,2.2,6.5,5.3,7.7c-14.8,5.4-24.8,15-24.8,26.1c0,14.2,11.1,25.9,25.2,26.7v0
	h0.4c0.4,0,0.8,0,1.2,0s0.8,0,1.2,0h9.1c9.1,0,16.5-7.4,16.5-16.5V95.2c3.5-1.8,5.7-5.4,5.7-9.4l0.9-48.2l0,0l0,0L83.5,30.3
	L83.5,30.3z"/>
<path class="st1" d="M75.7,76.3V14.8H41.5v49.9c0,1.6-0.5,3.2-1.6,4.4l0,0c-2.5,3.1-7,3.5-10,0.9L26.3,67
	c-0.9,9.7,13.8,17,22.9,13.6H44c2.2-0.8,5.6-2.4,8.2-4.3H75.7z"/>
<path class="st2" d="M54.2,53.3H63v13.3h-8.8V53.3z"/>
<path class="st3" d="M77.8,22.8l-37.5-6.2l-5.7,1.3v19.7c0,11.9,9.7,21.6,21.6,21.6c11.8,0,21.4-9.5,21.6-21.3
	C77.8,37.9,77.8,22.8,77.8,22.8z"/>
<path class="st4" d="M59.2,32.9c0,1.6-1.3,3-3,3c-1.7,0-3-1.3-3-3h-0.9c0,2.1,1.7,3.8,3.8,3.8c2.1,0,3.8-1.7,3.8-3.8H59.2z"/>
<path class="st4" d="M62.8,35.3c-0.4,0.3-1,0.3-1.5,0.1c-1-0.3-1.5-1.4-1.2-2.4l-0.5-0.2c-0.4,1.3,0.3,2.7,1.5,3.1
	c0.6,0.2,1.3,0.1,1.8-0.1C63.5,35.6,63.2,35.1,62.8,35.3z"/>
<path class="st4" d="M39.2,32.6c0,1.6,1.3,3,3,3c1.6,0,3-1.3,3-3h0.9c0,2.1-1.7,3.8-3.8,3.8c-2.1,0-3.8-1.7-3.8-3.8H39.2z"/>
<path class="st4" d="M35.6,35c0.4,0.3,1,0.3,1.5,0.1c1-0.3,1.5-1.4,1.2-2.4l0.5-0.2c0.4,1.3-0.3,2.7-1.5,3.1
	c-0.6,0.2-1.3,0.1-1.8-0.1C34.9,35.3,35.2,34.8,35.6,35z"/>
<path class="st5" d="M54.2,66.6L50.8,70c-2.9,2.9-5.9,5.7-9.2,8c-2.1,1.5-3.5,4-3.5,6.8c0,3.5,2.2,6.5,5.3,7.7
	c-14.8,5.4-24.8,15-24.8,26.1c0,14.2,11.1,25.9,25.2,26.7v0h0.4c0.4,0,0.8,0,1.2,0s0.8,0,1.2,0h9.1c9.1,0,16.5-7.4,16.5-16.5V76.6
	c0-5.5-4.5-10-10-10L54.2,66.6L54.2,66.6z"/>
<path class="st4" d="M52.2,47.6c-0.4,1.2-1.5,2.1-2.8,2.1c-1.3,0-2.5-0.9-2.8-2.1h-0.9c0.4,1.7,1.9,3,3.7,3c1.8,0,3.3-1.3,3.7-3
	H52.2z"/>
<path class="st3" d="M69.8,94.4l0-20.1c-4.2,0-7.5,3.4-7.5,7.5v12.7c0,6.4-2.5,12.4-7.1,16.9l-10.2,10c-0.9,0.9-2.1,1.6-3.4,2l0,0
	c-1.3,0.4-2.5,1.1-3.4,2l-3.9,3.9c-0.3,0.3-0.4,0.9-0.1,1.3c0.4,0.5,1,0.5,1.4,0.1l3.1-3.1l0.1,0.5l-5.1,5.1
	c-0.3,0.3-0.4,0.8-0.1,1.2c0.3,0.5,1,0.5,1.4,0.1l4.4-4.4l0.1,0.4l-5.3,5.3c-0.3,0.3-0.4,0.8-0.1,1.2c0.3,0.5,1,0.5,1.4,0.1l5.2-5.2
	l0.2,0.1l-4.5,4.5c-0.3,0.3-0.4,0.8-0.1,1.2c0.3,0.5,1,0.5,1.4,0.1l4.9-4.9l0.2,0.1l-3.8,3.8c-0.2,0.2-0.2,0.5,0,0.7
	c0.2,0.2,0.5,0.2,0.7,0l4.1-4.1l0.4-0.4l4.3-4.3l12.2-12.1C66.4,110.8,69.8,102.8,69.8,94.4z"/>
<path class="st4" d="M78.8,25.6l-1,55.4c0,4.4-2.8,8.4-6.9,9.9l0,0c-9.1,3.4-18.6-3.9-17.7-13.6l0,0l3.6,3.1c3,2.6,7.5,2.2,10-0.9
	l0,0c1-1.3,1.6-2.8,1.6-4.4V25.2L78.8,25.6z"/>
<path class="st4" d="M55.5,0.1c-3.3-0.2-6.5,0.3-9.4,1.3c-11.5,3.9-18.1,16.1-15.5,28l0.5,2.3c0,1.3,1.8,1.6,2.2,0.4l2.6-11.6
	c0,0,4.4,12.4,42.7,12.4l0.1-7.5C78.8,12.1,68.7,0.9,55.5,0.1z"/>
<path class="st3" d="M68.2,32.4v11.4c3.1,0,5.7-2.6,5.7-5.7C73.9,35,71.4,32.4,68.2,32.4z"/>
</svg>
