<?xml version="1.0" encoding="utf-8"?>
<!-- Generator: Adobe Illustrator 21.0.2, SVG Export Plug-In . SVG Version: 6.00 Build 0)  -->
<svg version="1.1" id="Layer_1" xmlns="http://www.w3.org/2000/svg" xmlns:xlink="http://www.w3.org/1999/xlink" x="0px" y="0px"
	 viewBox="0 0 100 107.9" style="enable-background:new 0 0 100 107.9;" xml:space="preserve">
<style type="text/css">
	.st0{fill:#FDFEFE;}
	.st1{fill:#5CD963;}
	.st2{fill:#35B131;}
</style>
<title>Artboard 1</title>
<g>
	<path class="st0" d="M29.3,27.2c-0.3-0.9-0.8-1.8-1.4-2.6c-0.2-0.4-0.6-0.6-1-0.5c-0.5,0.1-1.1,1.7-1,2.2c0.3,0.6,0.7,1.2,1.2,1.6
		s0.9,0.9,1.5,0.6s0.5-0.9,0.5-1.4l1.5,2.5c-0.7,0.1-1.5-0.1-2.1-0.4c-0.2-0.1-0.6-0.2-0.9,0s0.1,0.5,0.4,0.7c0.7,0.6,1.5,1,2.4,1.2
		c2.4,0.7,3.7,2.7,5.4,4.4c1,1,1.7,2.2,2,3.6c0.2,1.5,0.5,3,0.9,4.5c0.9,3.9,1.6,7.9,1.9,11.9c0.1,1.7,0.5,3.5,0.9,5.4s0.1,1,0.6,1
		s0.4-0.6,0.4-1S42.3,57,42.3,55c-0.1-3.1-0.4-6.2-1.1-9.2c-0.4-1.6-0.7-3.3-0.7-5c0.3-3,1.5-5.8,3.5-8.1c0.8-0.9,1.4-2,1.6-3.2
		c0-0.4,0.2-0.9-0.2-1c-0.5-0.1-0.6,0.2-0.7,0.6c-1.2,2.9-3.6,5-5,7.9c-0.5-1.1-0.9-2.2-1.1-3.4c-0.4-1.9-1.5-3.5-1.1-5.5
		c0.6-3.5,1.9-6.9,3.9-9.9c0.7-0.8,1.1-1.8,1-2.9c-3,3.2-5.1,7-6.1,11.2L34.4,21c-1.5-3.7-1-7.9,1.5-11c0.7-1,1.4-2.1,2.1-3.2
		c0.3-0.3,0.3-0.8,0-1.1c-0.1-0.1-0.2-0.1-0.3-0.2c-0.4-0.2-0.5,0.2-0.6,0.6c-0.3,0.6-0.7,1.1-1.1,1.6c-1.3,1.7-2.5,3.5-3.4,5.5
		c-0.2,0.7-0.1,2-0.7,2s-0.7-1.4-1.4-2.1l0,0c-0.6-2.4-2.6-3.4-4.6-4.2c-2-0.9-6.5-1.5-9.2-3.5c-0.2-0.2-0.6-0.4-0.9,0
		c-0.3,0.2-0.3,0.6,0,0.9l0.1,0.1l1.5,1c2,1.1,4.2,1.4,6.4,2.2c1.8,0.5,3.5,1.6,4.6,3.1c1.6,2.7,3,5.4,4.2,8.2
		c0.2,0.4,0,0.6-0.4,0.5c-3.1-0.5-6.2,0-9.2-0.2c-0.4,0-0.9-0.2-0.9,0.2s0.4,0.6,0.7,0.7c1.5,0.5,3.1,0.7,4.7,0.5c3-0.4,5.9,1.2,7,4
		c0.4,0.7,0.2,1.2-0.7,1.1c-1-0.1-0.5,0.1-0.5,0.5c-0.1,0.6,0,1.3,0.4,1.9c0.2,0.4,0.6,0.6,1,0.5s0.7-0.4,0.6-0.9l0,0
		c0-0.5-0.1-1.1-0.1-1.9c0.9,1.8,1.6,3.7,2,5.6c-1-0.9-2-1.7-3.1-2.4l-3-1.7c0.5-0.1,1.4,0.4,1.5-0.6c0.1-1.2-0.1-2.3-0.6-3.4
		c-0.2-0.5-0.6-1-1.1-0.1v0.2C28.8,25.2,29.6,26.7,29.3,27.2z M23.9,5.6C23.9,6,24,6.4,24,6.7c0.1,0.6,0.5,1,1.1,1s0.7-0.6,0.7-1.1
		s0-1.9,0-2.7s-0.1-0.4-0.4-0.5H25c-0.2,0.9-1.4,1.1-1.4,2.1s0-0.5,0-0.7c0.1-0.7-0.2-1.5-0.7-2c-0.7-0.5-0.9,0.6-1.4,0.6h-0.2
		c-0.9,0.4-0.9,1.2-0.7,2c0.1,1,0.9,1.8,1.9,1.9c0.9,0.1,0.9-0.7,1.1-1.4L23.9,5.6z M35,5.1c0.5,0.2,0.4,1.1,1.1,1
		c0.7-0.1,0.5-1,0.6-1.6C37.2,5,38,4.9,38.5,4.4c0.1-0.1,0.2-0.2,0.2-0.4c0.4-1.2,0-2.4-0.9-3.2c-0.4-0.1-1-0.5-1,0.4
		s-0.5,1-1.2,0.8S35.2,2.1,35,2.4s0,1.9,0,2.9s-0.5-0.9-1-1.1s-1-0.4-1,0.2s-0.6,2.5,0.5,3.5s0.1,1.1,0.9,0.9c0.6-0.2,1-0.8,0.8-1.4
		V7.3C35,6.6,35,5.9,35,5.1L35,5.1L35,5.1z M87.2,15.2c0.7-1.2,1-2.7,0.7-4.1c0-0.4-0.1-0.7-0.5-0.9c-0.4-0.1-0.5,0.4-0.6,0.6
		s-0.1,0.7-0.7,0.5s-0.5,0.4-0.5,0.6c0,0.5,0,1,0,1.5c0,1.7,0,1.7,1.7,1.6l-0.5,0.5c-1.6,1.2-3.6,1.6-5.2,2.9
		c-1.6,1.2-1.4,0.6-1.7-0.5c-0.3-1.7-1.1-3.2-2.5-4.2c-1.6-0.9-3.1-2.1-4.2-3.6c-0.1-0.2-0.4-0.4-0.6-0.2c-0.3,0.2-0.4,0.5-0.2,0.7
		c0.2,0.9,0.8,1.7,1.5,2.2c1.1,1.1,2.6,1.9,3.5,3.2s1.4,6.5,0.4,10c-0.4-0.2-0.7-0.6-0.9-1c-0.9-2.1-2.2-4-3.9-5.6
		c-0.3-0.3-0.4-0.7-0.4-1.1l0.9,0.7c0.4,0.4,0.7,0.4,0.9-0.1c0.5-1.3,0.6-2.8,0.2-4.1c-0.1-0.4-0.5-0.6-0.7-0.2S72,16.5,72.4,18
		s-0.6-1.1-1.2-0.6s0,1,0.2,1.5s2.2,2.9,3.1,4.5S78,30,76.2,34c-0.2,0.6-0.1,1.7-0.7,2s-1-0.9-1.5-1.4c-1.2-1.1-2.3-2.2-3.2-3.5
		l-2.4-3.4c-0.2-0.4-0.5-1-1.1-0.5s0,0.7,0.2,1.1c1.5,2.6,3.6,4.7,5.2,7.2s1.9,3.4,1.1,5.2c-0.7,1.7-1.4,3.3-2.2,4.9
		c-0.6,1.1-1.6,2.2-1.2,3.7s-0.2,0.4-0.5,0.2c-1.7,0-3.3,0.4-4.7,1.2h-0.6c-0.2-0.1-0.1-0.5,0-0.6s0.9-2.1,1.4-3.2l2.4-4.4
		c0.4,0.8,0.6,1.7,0.6,2.6c0,0.2,0.1,0.5,0.4,0.6s0.4-0.2,0.5-0.5l0.4-1.1c0.6-3.1-0.2-6.2,0.2-9.4c0.1-0.5-0.2-0.7-0.7-0.7
		c-2.1,0-4,1-5.1,2.7c-2.2,5.2-5.6,10-8.1,15.2c-0.1,0.2-0.2,0.5-0.5,0.5s-0.4-0.4-0.6-0.6c-0.1-0.2-0.1-0.4-0.1-0.6
		c0.1-2,0.1-3.9,0.4-5.9c0.4-3.9,1-7.7,1-11.7s-0.4-6.6,0.4-9.9c0.2-0.6,0-1.2-0.5-1.5C54,28.7,52.5,35,50.5,41.3
		c-0.4-1.3-0.8-2.6-1-3.9c-0.6-2.9-0.8-5.9-0.6-8.9c0.3-2.4,0.3-4.8-0.1-7.2c-0.1-0.4,0.1-0.9-0.5-0.7c-0.6,0.1-0.5,0.5-0.5,0.9
		c0,1.9-0.3,3.7-0.7,5.5c-1.3,5.6-1.9,11.3-1.7,17.1c0.1,1.2-0.4,2.5-1.4,3.2c-0.9,0.7-1.4,1.8-1.2,2.9c0.4,5.4,0.5,10.7,0.5,16.1
		c0.1,0.4-0.1,0.8-0.4,1.1c-0.7-2.6-1.6-5.1-2.2-7.7l-2.6-11.4c-1-4.3-2.3-8.6-3.9-12.7l-0.4-0.7c-0.1-0.4-0.2-0.7-0.7-0.6
		s-0.2,0.6-0.2,1l0.4,1.6c0.5,2.5,0.7,5,0.5,7.5l-6.7-12.1c-0.5-1-1.2-1.8-2-2.5c-0.2-0.2-0.5-0.3-0.7-0.1c-0.2,0.2,0,0.5,0.1,0.6
		L25,32c1.4,3.6,2,7.4,3.2,11.1c1.2,3.7,1.4,4.9,2,7.4c0.1,0.4,0.2,0.9-0.5,1s-3,0-3.9-1.9l-0.4-0.7c-0.4-1.2-1.4-2.2-1.6-3.6l0,0
		c0.7,0.3,1.3,0.7,1.9,1.2l1.9,1.6c0.2,0.2,0.4,0.2,0.6,0.1c0.2-0.1,0.2-0.3,0.1-0.5c-1-1.2-1.2-2.9-2-4.2c-1-1.7-1.8-3.4-2.5-5.2
		c-0.5-1.4-1.4-1.6-2.4-0.5c-0.8,0.9-1.6,1.9-2.2,3c-0.5,0.6-0.7,1.5-0.5,2.2c1.2,3.4,2.2,6.7,3.1,10.1c0.8,2.6,1.5,5.3,2,8l0,0
		c-0.9-1.1-1.7-2.3-2.4-3.5c-2-3.1-4.5-5.7-6.7-8.7c-0.4-0.8-1-1.5-1.6-2.1c-0.2-0.2-0.5-0.4-0.7-0.1c-0.3,0.2-0.4,0.5-0.3,0.8l0,0
		c0.7,1.6,1.5,3.2,2.1,4.9c0.6,1.6,1.9,3.5,2.2,5.4l0,0c-0.2-0.1-0.4-0.4-0.6-0.6L13.4,53c-0.6-1-1.2-0.9-1.9-0.2
		c-0.8,0.9-1.6,1.8-2.4,2.7c-0.4,0.4-0.4,1.1,0,1.5l3,4.9c0.7,1.2,0.6,1.4-0.7,1.7C10,64,8.9,64.4,8.3,65.5S5.8,69.6,5.4,72
		c-0.2,0.7-0.4,1.4-0.7,2c-1.5,3.2-3.4,6.1-4.2,9.4c-0.3,1.2-0.5,2.5-0.4,3.7c0,0.2,0.1,0.6,0.5,0.6s0.4-0.2,0.5-0.5l1.5-3.1
		c1.2-2.6,3.1-4.7,4-7.5c0.9-2.5,2.3-4.8,4-6.9c1.4-1.9,1.5-1.7,3,0l0.6,0.7c1.2,1.5,2.3,3,3.4,4.6c-1.2-0.5-2.5-1.1-3.6-1.7
		c-1.6-0.9-4-0.2-4.6,1.1S7,78.6,6.1,80.8s-2.6,3.4-3.7,5.1s-0.6,0.5-0.2,0.9c0.3,0.3,0.7,0.3,1.1,0.1c0,0,0,0,0.1-0.1
		c1.9-1.6,4.2-2.6,6-4.6c0.8-0.8,1.6-1.6,2.5-2.2c0.4-0.4,0.9-0.6,1.4-0.5c0.7,0.1,1.2,0.4,0.5,1.2l-3.4,4.5
		c-0.2,0.4-0.6,0.6-0.2,1.1s0.7,0,1.1-0.2c1.8-1.2,3.5-2.7,5-4.4c0.2-0.4,0.6-0.5,1-0.4l4.6,2.4c0.5,0.2,0.4,0.6,0,0.9L21,85.3
		c-2.3,1.8-4.3,4-6,6.4c-1.4,2-3,3.9-4.7,5.7c-1.2,1.2-2.4,2.6-3.5,3.9c-1.1,1.2-0.5,0.4-0.2,0.7c0.2,0.4,0.5,0.1,0.7,0l0.7-0.5
		c4-2.7,8.1-5.5,11.9-8.6l4-2.9c0.4-0.2,0.7-0.5,1-0.1s-0.1,0.5-0.2,0.7c-0.4,0.8-1,1.6-1.6,2.4c-0.2,0.4-0.9,0.6-0.6,1.1
		c0.2,0.5,0.7-0.1,1.1-0.1l0,0l-2.5,1.7c-4.9,3.4-9.5,6.7-14,10.5c-0.4,0.4-1.2,0.7-0.7,1.4s1.1,0.1,1.6-0.1l0,0
		c3.2-2.1,6.7-3.8,10.2-5.2c4.1-1.6,7.9-3.7,11.7-5.6c1.1-0.6,2.5-1.4,3.7-1.1c3,0.4,5.7,1.8,7.9,4c1.1,1.1,1.9,2.6,2.9,3.7
		s1,0.6,1.5,0.1s1.9-0.2,2.9-0.5c1-0.2,0.6,0,1-0.2l1-0.9c0.6-0.7,1-0.5,1.1,0.4s0.4,1.4,1.1,1c0.6-0.4,1.3-0.6,2-0.6
		c1.1,0.1,2.3-0.2,3.2-0.9l4-2.9c2.5-2.1,6-2.5,8.9-1c1.5,0.6,3.2,1,4.9,1.1c2.7,0.2,5.5-0.1,8.1,0.5c0.6,0.1,1.5,0.6,1.6-0.2
		c0.1-0.9-1-0.7-1.6-0.7c-2.7-0.2-5.4-0.8-7.9-2c-1.7-0.9-3.5-1.5-5.4-1.7c-0.9-0.1-1.7-0.4-2.5-0.9c1-0.8,2.3-1.1,3.5-0.7
		c0.9,0.2,1.9,0.3,2.9,0.4c2.7,0.4,5.5,0.1,8.1,1.2c0.2,0.1,0.5,0,0.6-0.2c-0.5-0.5-1.1-0.8-1.7-1c-2.5-0.8-4.9-1.8-7.2-3
		c-0.5-0.2-1.4-0.4-1.2-0.9s0.9-1,1.4-1.4s1.1,0,1.6,0.2c2.6,1.5,5.7,2,8.6,1.5c1.5-0.2,3.1-0.2,4.6,0c3.1,0.5,6.5,0,9.5,1.4
		c0.2,0.1,0.9,0.2,1-0.1c0.1-0.4-0.4-0.7-0.6-1c-2.7-1.9-5.8-3.1-9.1-3.4c-3.2-0.2-6.5-0.2-9.2-2.5c-1.6-1.6-4-1.9-6-0.9l-0.7,0.4
		C73.7,84,73,84.6,72,84.4c1.1-0.6,2.1-1.4,2.9-2.4c0.7-0.7,1.4-1.3,2.2-1.9c0.9-0.9,2.3-1.1,3.4-0.4c1.4,1,2.6,2.2,3.9,3.4
		c0.8,0.7,1.7,1.4,2.6,2c0.2,0.1,0.5,0.4,0.9,0.1c0.4-0.2,0-0.5-0.2-0.7s-2.7-3.7-4.2-5.4s-0.4-1.1,0.4-1.5l13-6.2
		c0.9-0.3,1.7-0.8,2.5-1.4c0.1-0.1,0.4-0.2,0.2-0.5s-0.4-0.1-0.5-0.1c-0.6,0.1-1.3,0.3-1.9,0.5c-0.6,0.4-1.5,0.3-1.9-0.4l-0.1-0.1
		c-1.6-1.7-3.4-3.3-5.2-4.7c-0.4-0.2-0.6-0.5-0.9-0.9c-1.1-2.2-3-2.7-5.4-2.7c-1.9-0.1-3.8,0.7-5.1,2.1c-0.4,0.4-0.6,1.1-1.2,0.7
		s-0.4-1.1-0.1-1.7l0.4-0.6c2.1-4,4.4-7.8,6.9-11.5c0.6-0.9,1.6-1.5,1.7-2.7c-4.4,2.7-7,7.5-11.5,10.1c-1.5-2.4-2.4-5.1-4-7.6
		c1.2,0.1,1.6-0.7,2.1-1.5c0.9-1.7,2.1-3.1,3.6-4.2c1.5-1,3-1.9,4.6-2.7c1.4-0.9,3.1-1.4,3.7-3.2c-3.3,1.3-6.5,2.9-9.5,4.9
		c0.5-1.3,0.9-2.6,1.2-4c1-3.4,3.5-6.3,6.7-7.7l4.4-2.5c0.5-0.2,1-0.7,0.6-1.2S87.3,27.9,87,28l-7.1,3.5c-0.7,0.4-1,0.1-1-0.6
		c0.2-2.8,0.8-5.5,1.7-8.1c0.6-1.7,1.8-3.1,3.5-3.9l3-1.7c0.8-0.4,1.3-1.3,1.2-2.2L87.2,15.2z M77.4,10.6c0.2,0.7,0.3,1.4,0.2,2.1
		c0,0.4,0.3,0.7,0.6,0.9c0.2,0.1,0.4,0.1,0.5,0s0.1-0.1,0.1-0.2c0.7-1.3,1.1-2.8,1.1-4.2c0-0.4,0-0.9-0.7-0.5
		c-0.7,0.3-1.3,0.3-1.3-1s-0.4-1.2-1-0.7c-0.5,0.3-1.1,0.6-1.6,0.9C75,5.7,75,5.7,72.5,5.4c-0.1,0-0.1-0.2-0.2-0.4
		c-0.1-0.1-1.2,0.1-1.9-0.2c-0.6-0.4-0.4,0.6-0.4,1c0,0.9,0.1,1.8,0.2,2.6c0.1,0.5,0.4,1.2,1.1,1.2s0.6-0.7,0.7-1.1l0.4-0.7
		c0.6,0.7,0.4,2.2,1.7,2.1c1.4-0.1,0.6,0.1,0.7,0.6s0.5,1.7,1.5,1.7C77.5,12.2,77,11.2,77.4,10.6z M85.1,35.4c0,0.2,0,0.5,0,0.7
		s0,1.1,0.6,1.4s1.1-0.2,1.5-0.9c0.7-1.3,0.9-2.7,0.6-4.1c-0.1-0.3-0.3-0.6-0.6-0.6c-0.2,0-0.4,0.2-0.5,0.5
		c-0.1,0.2-0.9,1.1-1.7,0.5h-0.5c-0.5,0.6-1.6,0.7-1.5,2c0,0.7-0.1,1.3-0.2,2c-0.1,0.4-0.1,0.7,0.2,1c0.4,0.1,0.8,0,1-0.4
		c0.6-0.7,1-1.4,1.2-2.2L85.1,35.4z M22.6,19.2c-0.1-0.4-0.2-0.8-0.2-1.2c-0.1-0.8-0.4-1.5-0.9-2.1c-0.6-1.1-1.2-0.1-1.9-0.1
		s-0.7,0.4-0.6,1c0.1,1.3,0.8,2.6,1.9,3.4c0.4,0.2,0.6,0.7,1.1,0.5C22.4,20.3,22.7,19.7,22.6,19.2z M85,13.7c0.1-1,0-1.9-0.2-2.9
		c-0.1-0.2-0.1-0.9-0.6-0.6c-0.6,0.3-1.2,0.7-1.6,1.2c-0.6,0.9,0,4,0.7,4.7c0.7,0.7,0.9,0.4,1.2-0.2C84.8,15.3,85,14.5,85,13.7z
		 M72.1,13.8c-0.2-1-0.2-2.1-1.7-2.1l-0.5-0.2c-0.7-0.6-1.1-0.5-1.2,0.5c0,1.2,0.3,2.4,1,3.4c0.2,0.5,0.8,0.9,1.4,0.7
		C71.6,16,72,15.5,72,15L72.1,13.8z M79.6,36.8c0,0.4,0.1,0.9,0.2,1.2c0.1,0.4,0.4,0.7,0.9,0.7s1.1-0.1,1.2-0.6
		c0.5-1.5,0.6-3.1,0.2-4.6c-0.1-0.2-0.3-0.4-0.5-0.4s-0.4,0.2-0.4,0.4c0,0.1-0.1,0.6-0.5,0.7c-0.4,0.1-1.2,1.5-1.2,2.6l0,0
		C79.5,36.8,79.6,36.8,79.6,36.8z M84.8,24.1c-0.2-0.1-0.1-0.7-0.6-0.6S84,24,83.8,24.2c-0.5,1-0.7,2.1-0.6,3.2c0,0.4,0,0.7,0.4,0.9
		c0.4,0.1,0.8,0,1-0.2c1-0.9,1.5-2.2,1.6-3.5c0-0.7,0.1-1.7-0.5-1.9s-0.5,1-0.9,1.5V24.1z M42.2,12.7c0,0.4,0,0.9,0,1.2
		s0,0.9,0.5,1.1s0.7-0.2,1-0.5c0.6-1.1,1-2.3,1.1-3.5c0.1-0.9-0.5-1.1-0.9-1.6S43,8.8,42.8,9.5C42.4,10.6,42.2,11.6,42.2,12.7z
		 M88.5,11.1c0,0.5,0,1.1,0,1.6s0.1,0.7,0.5,0.9c0.4,0.1,0.8-0.1,1-0.4c1-1.3,1.2-3.1,0.5-4.6c-0.2-0.5-0.7-0.8-1.2-0.9
		c-0.5,0-0.5,0.6-0.6,1C88.4,9.5,88.4,10.3,88.5,11.1z M37.8,19.4c-0.2-1.2-0.6-2.3-1.1-3.4c-0.2-0.5-0.6-1-1.4-0.6
		c-0.7,0.4-1.5,1.4-0.6,2.5l1.5,2c0.2,0.4,0.6,0.7,1.1,0.6S37.6,19.8,37.8,19.4z M33.3,10.2c-0.1-1.7-0.9-3.3-2.2-4.4
		c-0.2-0.2-0.6-0.2-0.7,0.1c-0.1,0.4-0.7,1.9-0.1,2.9c0.4,0.6,0.8,1.2,1.4,1.7c0.2,0.2,0.5,0.6,1,0.4C32.9,10.9,33.2,10.6,33.3,10.2
		z M18.5,2.6c-0.4-0.1-0.2-0.9-0.9-0.7S17.4,2.6,17.4,3c-0.1,0.8,0.1,1.6,0.5,2.2c0.3,0.6,1,0.9,1.6,0.7c0.6-0.1,0.7-0.7,0.9-1.2
		c0.1-0.8,0.1-1.6-0.2-2.4c-0.2-0.5-0.4-1.1-0.9-1.1C18.7,1.2,18.7,2.2,18.5,2.6z M16.9,3.1c0-0.8-0.1-1.6-0.5-2.2
		c-0.2-0.5-0.6-1.1-1.1-0.7s-1.7,0.5-1.5,1.5c0.1,0.7,0.4,1.4,0.9,2c0.5,0.5,1,1.2,1.7,1s0.2-1,0.4-1.5L16.9,3.1z M90.8,23.4
		c-0.2-0.1,0-0.9-0.6-0.7s-0.5,0.4-0.6,0.6s-0.5,1.6-0.6,2.5c-0.1,0.4,0.1,0.9,0.5,1.1c0.5,0.2,0.7-0.1,1-0.4
		c0.7-0.7,1.2-1.6,1.5-2.6c0.1-0.7,0.4-1.7-0.4-1.9S91.2,23.1,90.8,23.4z M41.4,31.2c-0.2-0.9,0-2.2-1-3.2s-0.6-0.5-0.6-0.2
		c0,0.2-1.2,1.6-1,2.7c0.2,0.7,0.5,1.4,0.9,2.1c0.1,0.2,0.2,0.6,0.6,0.6c0.4,0,0.6-0.4,0.7-0.7C41.3,32.1,41.4,31.6,41.4,31.2z
		 M69.1,23.3L69.1,23.3c0-0.4,0-0.7,0-1.1s0.1-0.9-0.4-1.1s-0.6,0.4-0.7,0.6s-0.1,0.4-0.4,0.2s-0.9,0.2-0.9,0.6
		c-0.1,0.7-0.1,1.5,0,2.2c0.2,0.7,0.8,1.1,1.5,1c0.7,0,0.9-0.6,0.9-1.2s0-0.9,0-1.4V23.3z M25.3,19.7l-0.2-2.6
		c0-0.2-0.1-0.6-0.5-0.6s-0.4,0.2-0.5,0.5v0.4h-0.2c-0.7-0.6-0.9,0.1-1,0.5c-0.2,0.8-0.1,1.6,0.4,2.2c0.4,0.5,0.6,1.2,1.5,1.1
		S25.2,20.2,25.3,19.7z M39.4,16c0.1-0.7-0.2-1.6-0.2-2.5s-0.1-0.6-0.5-0.6s-0.2,0.4-0.2,0.6s0,0.6-0.6,0.4
		c-0.6-0.2-0.5,0.2-0.5,0.5c0,1.3,0.2,2.5,0.5,3.7c0.1,0.2,0.2,0.5,0.5,0.6c0.2,0.1,0.5-0.4,0.7-0.6C39.3,17.8,39.3,16.8,39.4,16z
		 M25.6,17.7c0,0.9,0.2,1.8,0.7,2.6c0.2,0.4,0.5,0.7,1,0.5c0.4-0.2,0.6-0.6,0.5-1c0-0.7-0.1-1.4-0.1-2.1s-0.5-1.2-1.4-1.2
		S25.7,17.2,25.6,17.7z M39.7,13.1c0,0.7,0.1,1.4,0.2,2.1c0.1,0.2,0.1,0.7,0.5,0.7c0.3,0,0.6-0.2,0.7-0.5c0.6-1.2,0.7-2.5,0.5-3.7
		c-0.1-0.4-0.2-0.5-0.7-0.4s-1.5,1.1-1.4,1.7L39.7,13.1L39.7,13.1z M45.1,25.6L45.1,25.6c0-0.6,0-1.1,0-1.7s-0.2-0.6-0.6-0.4
		s-1-0.5-1.1,0.2c-0.3,1.3-0.1,2.7,0.4,4c0.1,0.2,0.4,0.6,0.7,0.5s0.5-0.4,0.5-0.7C45,26.9,45,26.3,45.1,25.6L45.1,25.6z M71.3,29.3
		l0.5,1.2c0.2,0.5,0.6,0.6,0.9,0.1c0.6-0.7,1-1.5,1.2-2.4c0.1-0.4,0.4-1-0.4-1.2s-1.4-0.5-1.7,0.4C71.5,28,71.3,28.6,71.3,29.3
		L71.3,29.3z M86.5,25.4c0.1,0.5-0.1,1,0.4,1.2c0.4,0.2,0.9,0.1,1.1-0.2c0.8-1,1.2-2.1,1.1-3.4c0-0.4-0.1-0.7-0.5-0.7
		s-0.4,0.4-0.5,0.6s-0.2,0.6-0.4,0.5s-0.6,0-0.7,0.2S86.5,24.8,86.5,25.4L86.5,25.4z M76.9,18.9c0-0.6,0.2-1.2-1-1.2
		s-1.2-0.4-1.2,0.7c0,0.5,0,1.1,0,1.6s0.3,1,0.7,1.2c0.6,0.2,0.9-0.4,1.1-0.7C76.8,20.1,77,19.5,76.9,18.9z M71.6,25.3
		c0.2-1.2-0.5-0.7-1.4-0.7s-1,1.1-1.1,1.6S69,27.8,70,28.1c0.5,0.2,1-0.1,1.1-0.6c0,0,0,0,0-0.1C71.5,26.8,71.6,26,71.6,25.3z
		 M75.9,28.7c-0.9,0-0.4,1.1-1.1,0.9s-1,0.7-1.2,1.2c-0.4,0.7-0.2,1.5,0.5,1.9c0.2,0.2,0.5,0.1,0.7-0.1c0,0,0-0.1,0.1-0.1
		C75.6,31.3,76,30,75.9,28.7z M43.2,29.2c0.1-0.8-0.1-1.5-0.4-2.2c-0.1-0.2-0.2-0.9-0.5-0.6s-1.1,0.4-1,0.9c0.1,1,0.3,1.9,0.5,2.9
		c0.1,0.4,0.6,0.7,1,0.6c0.5-0.1,0.4-0.5,0.5-0.9C43.4,29.4,43.2,29.4,43.2,29.2z M45.4,26.3c0.1,0.4-0.2,1.1,0.5,1.1s0.7-0.5,0.7-1
		c0-0.1,0-0.2,0-0.2c-0.1-0.7,0.7-2.1-0.2-2.1S45.6,25.4,45.4,26.3z"/>
	<path class="st1" d="M23.9,45c0.1,1.4,1.1,2.4,1.6,3.6l0.4,0.7c0.9,1.9,1.7,2.2,3.9,1.9c2.1-0.4,0.6-0.6,0.5-1
		c-0.6-2.5-1.1-5-2-7.4s-1.9-7.5-3.2-11.1l-0.7-1.9c-0.1-0.2-0.4-0.5-0.1-0.6c0.2-0.1,0.6-0.1,0.7,0.1c0.8,0.7,1.5,1.5,2,2.5
		L33.6,44c0.2-2.5,0-5-0.5-7.5l-0.4-1.6c0-0.4-0.2-0.7,0.2-1c0.5-0.2,0.6,0.2,0.7,0.6l0.4,0.7c1.5,4.2,2.8,8.4,3.9,12.7l2.6,11.4
		c0.6,2.6,1.5,5.1,2.2,7.7c0.3-0.3,0.4-0.7,0.4-1.1c0.1-5.4-0.1-10.7-0.5-16.1c-0.1-1.1,0.3-2.2,1.2-2.9c1-0.8,1.5-2,1.4-3.2
		C45,38,45.6,32.2,46.9,26.6c0.5-1.8,0.7-3.6,0.7-5.5c0-0.4,0-0.9,0.5-0.9s0.5,0.5,0.5,0.7c0.4,2.4,0.4,4.8,0.1,7.2
		c-0.2,3,0,5.9,0.6,8.9c0.2,1.3,0.6,2.6,1,3.9c1.9-6.2,3.4-12.6,5.7-18.8c0.5,0.3,0.7,0.9,0.5,1.5c-0.9,3.2-0.4,6.6-0.4,9.9
		s-0.6,7.9-1,11.7c-0.1,2-0.2,3.9-0.4,5.9c0,0.4,0.1,0.8,0.2,1.1c0.1,0.2,0.2,0.6,0.6,0.6c0.4,0,0.4-0.2,0.5-0.5
		c2.5-5.2,5.9-10,8.1-15.2c1.1-1.7,3.1-2.8,5.1-2.7c0.5,0,0.9,0.2,0.7,0.7c-0.4,3.1,0.4,6.2-0.2,9.4l-0.4,1.1
		c-0.1,0.2-0.1,0.5-0.5,0.5s-0.4-0.2-0.4-0.6c0-0.9-0.2-1.8-0.6-2.6l-2.4,4.4c-0.5,1-1,2.1-1.4,3.2c-0.4,1.1-0.2,0.5,0,0.6h1
		c1.5-0.8,3.1-1.2,4.7-1.2c0.2,0,0.5,0,0.5-0.2s0.6-2.6,1.2-3.7c0.8-1.7,1.6-3.4,2.2-5.1c0.9-2,0-3.7-1.1-5.2s-3.9-4.6-5.2-7.2
		c-0.2-0.4-0.6-0.7-0.2-1.1s0.9,0.2,1.1,0.5l2.1,3.1c1,1.3,2.1,2.4,3.2,3.5C74,35,74.4,36,75,35.9s0.5-1.4,0.7-2
		c1.7-3.9-0.1-7.2-1.7-10.6s-2.4-2.7-3.1-4.5c-0.7-1.7-0.7-1-0.2-1.5s0.9,0.4,1.2,0.6l0,0c0,0.2,0,0.4,0.2,0.5l0,0
		c0,0.4,0.1,0.8,0.4,1.1c1.7,1.6,3,3.5,3.9,5.6c0.2,0.4,0.5,0.8,0.9,1c1-3.4,1.5-6.7-0.4-10c-1.9-3.2-2.2-2.1-3.5-3.2
		c-0.7-0.6-1.3-1.3-1.5-2.2c-0.1-0.3,0-0.6,0.2-0.7c0.2-0.1,0.5,0.1,0.6,0.2c1.2,1.5,2.6,2.7,4.2,3.6c1.3,1,2.2,2.6,2.5,4.2
		c0.2,1.1,0.7,1.2,1.7,0.5s3.6-1.6,5.2-2.9l0.5-0.5l0,0l1.2-0.5c0.1,0.9-0.4,1.8-1.2,2.2l-3,1.7c-1.7,0.7-2.9,2.1-3.5,3.9
		c-0.9,2.6-1.5,5.3-1.7,8.1c0,0.9,0.2,1.1,1,0.6l7.1-3.4c0.4-0.1,0.9-0.7,1.2-0.2c0.4,0.5-0.1,1-0.6,1.2l-4.4,2.5
		c-3.3,1.4-5.8,4.3-6.9,7.7c-0.3,1.4-0.8,2.7-1.2,4c3-1.9,6.2-3.6,9.5-4.9c-0.6,1.9-2.2,2.4-3.7,3.2C79,42,77.5,42.9,76,43.9
		c-1.5,1.1-2.7,2.6-3.6,4.2c-0.4,0.7-0.9,1.6-2.1,1.5c1.6,2.5,2.5,5.1,4,7.6C79,54.8,81.6,50,86,47.3c-0.2,1.2-1.1,1.9-1.7,2.7
		c-2.5,3.7-4.8,7.5-6.9,11.5L77,62.1c-0.2,0.6-0.5,1.4,0.1,1.7c0.6,0.4,0.9-0.4,1.2-0.7c1.3-1.4,3.2-2.2,5.1-2.1
		c2.5,0,4.2,0.5,5.4,2.7c0.2,0.4,0.5,0.6,0.9,0.9c1.9,1.4,3.6,3,5.2,4.7c0.3,0.7,1.2,0.9,1.8,0.6c0.1,0,0.1-0.1,0.1-0.1
		c0.6-0.2,1.2-0.4,1.9-0.5c0.2,0,0.4-0.1,0.5,0.1s-0.1,0.4-0.2,0.5c-0.8,0.6-1.6,1-2.5,1.4l-13,6.2c-0.7,0.4-1.1,0.6-0.4,1.5
		s2.9,3.5,4.2,5.4c1.4,1.9,0.5,0.4,0.2,0.7c-0.2,0.4-0.6,0.1-0.9-0.1c-1-0.6-1.9-1.3-2.7-2c-1.2-1.2-2.5-2.3-3.9-3.4
		c-1.1-0.7-2.5-0.6-3.4,0.4c-0.8,0.6-1.5,1.2-2.1,1.9c-0.8,1-1.8,1.8-2.9,2.4c1.1,0.2,1.7-0.4,2.4-0.5l0.7-0.4c2-1,4.4-0.7,6,0.9
		c2.7,2.2,6,2.2,9.2,2.5c3.3,0.3,6.4,1.5,9.1,3.4c0.2,0.2,0.9,0.5,0.6,1c-0.2,0.5-0.7,0.2-1,0.1c-3-1.2-6.4-0.9-9.5-1.4
		c-1.5-0.2-3.1-0.2-4.6,0c-3,0.5-6,0-8.6-1.5c-0.5-0.2-1.1-0.6-1.6-0.2s-1.4,0.7-1.4,1.4s0.9,0.6,1.2,0.9c2.3,1.2,4.8,2.2,7.2,3
		c0.7,0.2,1.3,0.5,1.7,1c-0.1,0.2-0.4,0.3-0.6,0.2c-2.6-1.1-5.4-0.9-8.1-1.2c-1-0.1-1.9-0.2-2.9-0.4c-1.2-0.4-2.5-0.1-3.5,0.7
		c0.8,0.5,1.6,0.7,2.5,0.9c1.9,0.2,3.7,0.8,5.4,1.7c2.5,1.2,5.2,1.8,8,2c0.6,0.1,1.6,0,1.6,0.7s-1,0.4-1.6,0.2
		c-2.7-0.5-5.4-0.2-8.1-0.5c-1.7-0.1-3.3-0.5-4.9-1.1c-2.9-1.5-6.4-1.1-8.9,1l-4,2.9c-1,0.7-2.2,1-3.4,0.9c-0.6-0.1-1.3,0-1.9,0.2
		c-0.7,0.4-1-0.4-1.1-1s-0.5-1.1-1.1-0.4l-1,0.9c-0.4,0.2-0.7,0.1-1,0.2s-2-0.5-2.9,0.5s-1,0.5-1.5-0.1s-1.7-2.6-2.9-3.7
		c-2.1-2.2-4.9-3.6-7.9-4c-1.2-0.2-2.6,0.5-3.7,1.1c-3.9,1.9-7.7,4-11.7,5.6c-3.6,1.4-7,3.2-10.2,5.2h0.2c-0.5,0.2-1.2,0.9-1.6,0.1
		c-0.4-0.7,0.4-1,0.7-1.4c4.5-3.7,9.1-7.1,14-10.4l2.5-1.7c1.7-0.4,3-1.6,4.5-2.5s0.9-0.2,0.6-0.7s-0.9-0.4-1.2-0.1
		c-1.4,0.9-2.7,2-3.9,3.2c-0.4-0.1-0.9,0.5-1.1,0.1s0.4-0.7,0.6-1.1c0.6-0.7,1.2-1.5,1.6-2.4c0.1-0.2,0.5-0.5,0.2-0.7
		c-0.2-0.2-0.6-0.1-1,0.1l-3.9,2.9c-3.7,3.1-7.9,5.9-11.9,8.6l-0.7,0.5c-0.2,0.1-0.5,0.4-0.7,0s0-0.5,0.2-0.7s2.1-2.2,3.4-3.5
		c1.7-1.8,3.2-3.8,4.6-5.9c1.7-2.4,3.7-4.5,6-6.4l0.9-0.7c0.4-0.2,0.5-0.6,0-0.9l-4.5-2.2c-0.5-0.2-0.7,0-1,0.4
		c-1.5,1.7-3.1,3.1-5,4.4c-0.4,0.2-0.7,0.6-1.1,0.2c-0.4-0.4,0-0.7,0.2-1.1l3.4-4.5c0.6-0.9,0.1-1.1-0.5-1.2c-0.5-0.1-1,0.1-1.4,0.5
		c-0.9,0.7-1.7,1.4-2.5,2.2c-1.7,2-4.1,3-6,4.6C2.9,87,2.5,87,2.1,86.8c0,0,0,0-0.1-0.1c-0.2-0.4,0.1-0.6,0.2-0.9
		c0.1-0.2,3-3.1,3.7-5.1s2.2-4.1,3.1-6.4c0.9-2.2,3-2,4.6-1.1c1.2,0.7,2.4,1.2,3.6,1.7c-1-1.6-2.2-3.1-3.4-4.6l-0.6-0.7
		c-1.5-1.7-1.6-1.9-3,0c-1.7,2-3.1,4.4-4,6.9c-0.9,2.7-2.7,5-4,7.5L1,87.2c-0.1,0.2-0.1,0.6-0.5,0.5C0.2,87.6,0,87.3,0,87.1
		c-0.1-1.3,0-2.5,0.4-3.7c0.9-3.4,2.7-6.2,4.1-9.2c0.3-0.6,0.6-1.3,0.7-2c0.4-2.4,1.7-4.4,2.9-6.5c1.1-2.1,2-1.4,3.2-1.9
		s1.4-0.6,0.7-1.7L9,57c-0.4-0.4-0.4-1.1,0-1.5c0.7-1,1.5-1.9,2.4-2.7c0.6-0.6,1.4-0.7,1.9,0.2l2.5,4.1c0.1,0.2,0.2,0.5,0.6,0.6v0.4
		h0.1l-0.2-0.2c-0.4-2-1.5-3.6-2.2-5.4s-1.5-3.2-2.1-4.9c-0.2-0.3-0.1-0.7,0.2-0.9l0,0c0.2-0.2,0.5,0,0.7,0.1c0.7,0.6,1.3,1.3,1.9,2
		c2.1,3,4.6,5.6,6.7,8.7c0.7,1.2,1.5,2.4,2.4,3.5c0,0.2,0.1,0.4,0.2,0.5l0,0c0-0.2,0-0.4-0.2-0.5c-0.5-2.7-1.1-5.4-1.9-8
		c-0.9-3.4-2-6.9-3.1-10.1c-0.2-0.8,0-1.6,0.5-2.2c0.7-1.1,1.4-2.1,2.2-3c1-1.1,1.9-1,2.4,0.5c0.7,1.8,1.5,3.5,2.4,5.1
		c0.7,1.4,1,3,2,4.2c0.1,0.2,0,0.4-0.1,0.5c-0.2,0.1-0.5,0.1-0.6-0.1l-2-1.6c-0.6-0.5-1.2-0.9-1.9-1.2l0,0L23.9,45z M76.4,66.6
		c0.1,0,0.2-0.1,0.2-0.2l0,0L76.4,66.6L76.4,66.6C76.3,66.6,76.3,66.6,76.4,66.6L76.4,66.6z M15.7,66.6c0,0.1,0.1,0.2,0.2,0.2
		S16,67,16.1,67c0,0.2,0.1,0.4,0.2,0.5l0.2,0.2l0.2,0.2l0.2,0.2c0,0,0,0.2,0.1,0.1h-0.2c0-0.1-0.1-0.2-0.2-0.2l0,0
		c0-0.1-0.1-0.2-0.2-0.2l0,0c0-0.1-0.1-0.2-0.2-0.2l0,0c0.1-0.2,0-0.4-0.2-0.5l0,0L15.9,67l-0.2-0.2c0-0.1-0.1-0.2-0.2-0.2l0,0
		c0-0.3-0.1-0.5-0.4-0.6h-0.2c-0.1,0.1,0,0.2,0.1,0.2s0.1,0.5,0.5,0.5S15.6,66.7,15.7,66.6z M4.6,84.4L4.6,84.4
		C4.6,84.5,4.6,84.5,4.6,84.4L5,84.2c0.8-0.3,1.5-0.8,2-1.5c1.7-1.8,3.5-3.5,5.4-5.1c0.5-0.4,1-1.5,1.6-0.9s-0.7,0.7-1,1.4
		c-0.2,0.6,1.6,1,2.7-0.4l0.9-1c0.4-0.5,0.4-0.7-0.1-1.1c-1.2-0.8-2.5-1.4-3.9-1.9c-0.9-0.2-2-0.4-2.5,0.6c-1.4,3.4-3.2,6.5-5.4,9.5
		L4.6,84.4z M54.3,68.2l0.2-0.2v-0.2h-0.2L54,68l-0.2,0.2c-0.2,0.1-0.3,0.3-0.3,0.5l0,0l0,0c0.2-0.1,0.3-0.3,0.3-0.5l0,0
		C54.2,68.5,54.3,68.3,54.3,68.2z M16.4,68.3l-0.2-0.2H16c-0.1,0.1,0,0.2,0,0.2l0.2,0.2l0.2,0.2l0.2,0.4c0.8,1.2,1.6,2.3,2.6,3.4
		c0.2,0.4,0.9,0.7,1,0s0.9,0.1,0.9-0.6s-0.5-1.2-1.5-0.9l-0.2,0.2L17,69.1l-0.4-0.4L16.4,68.3z M18.1,69.1c0-0.1,0-0.2-0.1-0.1
		L18.1,69.1l0.2,0.1c0,0.1,0.1,0.2,0.2,0.2l0,0c0,0.1,0.1,0.2,0.2,0.2l0,0l0.2,0.2c0,0.1,0,0.2,0.2,0.1h-0.2c0-0.1-0.1-0.2-0.2-0.2
		s-0.1-0.2-0.2-0.2s-0.1-0.2-0.2-0.2s-0.1-0.1-0.4-0.1L18.1,69.1z M75.5,67.8l0.2-0.2l0.2-0.2c0.1,0,0.2,0,0.1-0.2v0.2
		c-0.1,0-0.2,0-0.2,0.2h-0.4c-0.1,0.1-0.2,0.1-0.1,0.4c-0.4,0-0.7,0.3-0.7,0.7l0,0c0.4-0.1,0.7-0.4,0.7-0.7l0,0L75.5,67.8z
		 M38.9,89.6v-0.2H39c0,0.1,0,0.2,0.1,0.1L38.9,89.6z M37.3,87.3h0.2v-0.2l-0.2-0.2h-0.2v0.2L37.3,87.3z M71.6,57.1L71.6,57.1v-0.4
		c-0.1-0.6-0.9-1-0.9-1.6s1,0,0.5-0.7l-2.2-3c-0.2-0.2-0.5-0.5-0.7-0.4s0.1,0.5,0,0.7s-0.5-0.4-0.7-0.6c-0.2-0.2-0.7,0-1,0.1
		s-0.2,0.5,0,0.7s2.7,3.7,4.9,4.9L71.6,57.1z M31.1,76.2V76h0.1c-0.1,0.2,0,0.4,0.2,0.5l0,0c0,0.4,0.2,0.8,0.5,1l0.2,0.2
		c0.1-0.1,0.1-0.2,0-0.4c-0.1-0.4-0.3-0.7-0.6-0.9C31.3,76.5,31.3,76.3,31.1,76.2z M71.9,65.4l0.2-0.2H72c-0.2,0.1-0.2,0.2-0.1,0.5
		l0,0V65.4z M3.5,78.8v-0.4h0.1L3.5,78.8c0,0-0.1,0.1,0,0.2C3.6,79.2,3.5,78.8,3.5,78.8z M37.9,88.1c0-0.1,0-0.2-0.2-0.1v0.2
		l0.2,0.5c0,0.2,0.1,0.4,0.4,0.5h0.1c0-0.2-0.1-0.4-0.4-0.5L37.9,88.1z M2.6,80.2l-0.4,0.5h0.1c0.2,0,0.2-0.2,0.2-0.4l0.2-0.4h0.1
		L2.6,80.2z M22.6,61.1v-0.2l0,0c0,0.2,0,0.6,0.5,0.7S22.9,61.2,22.6,61.1z M21.9,59.9c0-0.2-0.1-0.4-0.4-0.4h-0.1
		c0.1,0.1,0.1,0.4,0.4,0.2c0.2-0.1,0,0.5,0.4,0.7C22.1,60.3,22,60,21.9,59.9z M55.4,66.5c-0.2,0.2-0.6,0.4-0.6,0.9s0.6-0.4,0.7-0.7
		c0.1-0.4,0.2-0.2,0.1-0.4L55.4,66.5z M76.7,60.2c0.4-0.3,0.6-0.8,0.7-1.2c0.2-0.2,0.5-0.4,0.2-0.7c-0.2,0.1-0.4,0.4-0.4,0.6
		c-0.3,0.4-0.6,0.8-0.7,1.2c-0.2,0.2-0.6,0.5-0.4,0.9C76.5,61.4,76.6,60.5,76.7,60.2z M76.6,57.1c-0.8,0.3-1.3,0.9-1.6,1.6
		C75.7,58.4,76.3,57.9,76.6,57.1c0.1,0,0.2-0.1,0.1-0.2L76.6,57.1z M72.6,64.7c0.9-0.6,1.6-1.3,2.2-2.1c-0.4-0.5-0.7,0.1-1-0.1
		s0.9-0.7,0.2-1.1c-0.6-0.4-0.7,0.4-1.1,0.5h-0.5c-0.1-0.6,0.5-0.7,0.7-1.1c0.2-0.4,0.2-0.4,0.1-0.5s-0.4,0-0.5,0.1
		c-0.9,0.8-1.8,1.5-2.9,2c-0.2,0.1-0.7,0.2-0.7,0.7c0,0.2,0.2,0.4,0.4,0.5c0.5,0.2,0.6-0.2,0.9-0.4c0.2-0.1,0.9-1.5,1.9-1.2
		c1,0.2-1,1-1.5,1.6s-1,0.6-0.4,1.1s0.7-0.2,1.1-0.4c0.4-0.1,0.5-1.1,1.2-0.9c0.7,0.2-0.5,0.7-0.6,1.1v0.2
		C72.5,65,72.6,64.9,72.6,64.7z M58.8,99.7c1-0.6,2-1.3,2.9-2c-1.9-0.6-2.4,0.9-3.1,1.7v0.2h0.2C58.8,99.6,58.8,99.7,58.8,99.7z
		 M36.1,89.3l0.5,0.6c0.1-0.3,0-0.6-0.2-0.7l-2-2.5c-0.1-0.2-0.4-0.5-0.7-0.2c-0.4,0.2-0.5,0.4-0.6,0.6s0.2,0.4,0.5,0.6L36.1,89.3z
		 M41.1,87.1c0,0.1,0,0.4,0.2,0.2s0-0.2-0.1-0.4c-0.5-1.9-1.2-3.7-2-5.5c-0.2,0.5-0.7,0.6-0.5,1.2C39.3,84.2,40.1,85.7,41.1,87.1z
		 M49.4,41.8v0.6C49.5,42.2,49.5,41.9,49.4,41.8c-0.6-3.5-1.7-7-2-10.5C47.4,34.9,48.1,38.5,49.4,41.8z M55.3,101.2
		c1.9-0.5,2.6-2.2,4-3.6C57.4,97.8,55.8,99.2,55.3,101.2L55.3,101.2L55.3,101.2z M55.9,83.4c-1.5,0.9-2.9,1.9-3.1,3.9
		c1.6-0.6,2.8-2,3.2-3.6v-0.2h-0.1C55.9,83.5,55.9,83.4,55.9,83.4z M24.7,80.6c0.1,0.1,0.2,0.5,0.5,0.2s-0.1-0.4-0.2-0.4l-3.2-3.6
		c-0.2-0.4-0.5-0.6-0.9-0.1s-0.5,0.6,0,1S23.1,79.9,24.7,80.6z M48.1,84.7c-0.4,0.7-0.7,1.5-0.9,2.4c-0.9,2.9-0.7,5.9-1.6,8.7
		c-0.2,0.5,0,1,0.4,1.2c0.5-4.2,1.5-8.1,2.4-12.1l0.5-0.7c0.6-1,1.4-2,2.1-2.9c4.7-4.7,9.1-9.7,14.3-14c0.2-0.2,0.9-0.4,0.4-1
		s-0.6,0-0.9,0.1c-3.8,3-7.4,6.3-10.6,10c-2.1,2.2-4,4.7-5.6,7.4C48.3,84,48.1,84.3,48.1,84.7z M34.3,81.8c0,0.7-1,1-1,2l6.4-5.5
		c-0.7-0.4-1.1,0-1.6,0.4c-1.2,1.2-2.4,2.3-3.7,3.2c-0.1-0.6,0.5-0.7,0.7-1.1c0.7-0.6,1.4-1.4,2-2.1c-2,0-4.9,3-5.5,5.6
		c0.6-0.2,0.9-0.7,1.2-1.1c0.4-0.4,0.7-1.5,1.6-1.5L34.3,81.8z M8.3,70.6l5.2-5.9c-3.2,0.6-4.4,3.1-5.4,5.7C8,70.6,7.9,70.8,8,70.8
		c0.1,0,0.2-0.2,0.2-0.4L8.3,70.6z M64,78.8c-1.9,1.3-3.4,3-4.5,5c-0.1,0.2-0.7,0.6-0.4,1c0.4,0.4,0.9,0,1.2-0.5
		c0.8-1.3,1.7-2.5,2.7-3.6C63.5,80.2,63.9,79.5,64,78.8c0.1-0.1,0.1-0.2,0-0.2V78.8z M23.6,64.9l-0.2-0.4h-0.1v0.4
		c0.6,1.5,1.3,3,2.1,4.4c2,4,4.6,7.6,6.5,11.6c0.5-0.5,0.1-0.9,0-1.2l-1.2-2.5C28.6,73.1,26.2,68.8,23.6,64.9z M65.3,94.3
		c-0.1-0.1-0.1-0.2-0.2-0.1h0.4c3.5,2,7.1,3.6,11.2,3.4L76,97c-2.6-1.5-5.6-1.5-8.2-2.5C66.9,94.1,66,94.1,65.3,94.3z M46.4,100.5
		C48.7,97,52,94,52.2,89.1c-1,1.5-2,3-2.9,4.6C48.1,95.9,47.2,98.2,46.4,100.5v0.2h-0.1L46.4,100.5z M55.7,68.2l3-2.7
		c3.1-3.1,5.2-7,8.6-9.9c0.2-0.2,0.5-0.6,0.2-0.9s-0.6,0.1-0.9,0.4l-5.1,6c-2,2.2-4.1,4.5-6,6.9c-0.1,0.1-0.5,0.2-0.4,0.5
		s0.4,0,0.5-0.1v-0.2C55.6,68.2,55.7,68.2,55.7,68.2z M17,60.6c0,0.1,0,0.2,0.1,0.1L17,60.6c-1.1-2.4-3.1-4.3-4.2-6.8
		c-0.2-0.6-0.6-0.4-1,0c-2.2,2-2.2,2.2,0.1,4C13.4,59.1,15.1,60.1,17,60.6z M12,59.1h-0.1c-0.1,0.1,0,0.1,0,0.2
		c1.6,3.2,3.8,6.2,6.4,8.7c1.2,1.4,2.9,2.2,3.9,3.9l0.6,0.5c0.2,0.2,0.5,0.3,0.7,0.1c0.4-0.2,0-0.5-0.1-0.7L21.1,68
		C18.9,64,16.2,60.6,12,59.1z M31.3,53.1c-0.1-0.4-0.4-0.9-0.9-0.9c-1.6,0-3.3,0.1-4.9,0.5c-0.5,0.1-0.7,0.4-0.5,0.9
		c1.5,3.2,2.4,6.7,2.9,10.2c0.1,0.6,0,1.2,0.5,1.7c1.1-3.3,1.6-6.8,1.6-10.4c0-0.4,0.1-0.8,0.2-1.2c0.1-0.3,0.4-0.6,0.7-0.5l0,0
		c0,1.3,0,2.5-0.2,3.7c-0.1,2.4-0.4,4.6,1.1,6.7c0.6,1,1.1,2.2,1.4,3.4c0.9,2.3,2.1,4.4,3.4,6.5c-0.4-2.2-1-4.4-1.1-6.7
		c-0.4-4.5-2-8.5-3.4-12.7C32.1,53.9,31.8,53.4,31.3,53.1z M12.1,97.2c2.6-1.7,5.1-3.5,7.5-5.5c1.8-1.6,3.7-2.9,5.9-4
		c0.2-0.1,0.5-0.2,0.6,0s-0.1,0.4-0.2,0.5s-0.5,0.1-0.4,0.7c1.2-0.8,2.3-1.9,3.1-3.1l-4.4-1.6c-0.4-0.2-0.9-0.1-1.2,0.2
		c-4.7,3.2-7.7,8-11.2,12.3l-0.2,0.4C11.8,97.4,12,97.3,12.1,97.2z M38.1,92.9c-0.5,1.4-2,1-2.9,1.9l2,0.6c2.9,1.1,5.4,3.1,7,5.7
		c0.2,0.4,0.2,1,0.9,0.7c0.6-0.2,0.2-0.9,0-1.2c-1.7-3-4-5.6-6.6-7.9l-2.6-2.4c-0.7-0.7-1.7-0.8-2.5-0.4l-3,1.5
		c-6.1,3.5-12,7.3-17.7,11.5c-0.4,0.2-0.7,0.7-0.7,1.1c4.7-2.6,9.7-4.5,14.3-6.9c2.6-1.4,5.3-2.5,8.1-3.2
		C35.5,93.7,36.6,92.7,38.1,92.9z M81.9,79.6h0.2v-0.2c-1.1-1.9-2.5-3.5-4.2-4.7s-3.1-2.7-4.1-4.5c-1.4-2.4-3.2-4.5-5.1-6.5
		c-1-1.1-5.6-1.4-6.7-0.5l-0.2,0.2c-3.1,3.5-6.7,6.5-10,9.9c-0.5,0.5-0.9,1.1-1.1,1.7c-0.4,1.7-0.9,3.5-1.4,5.2
		c-0.1,0.4-0.1,0.8,0,1.1l0.6-0.6c4-5.2,8.6-9.9,13.7-14c1.5-1.2,1.5-1.2-0.2-2.1c-1.7-0.9-0.5-0.1-0.5-0.6c0.9-0.1,1.7,0.2,2.4,0.7
		c2.7,2.6,5.7,5.1,8.6,7.7C76.3,75,79,77.4,81.9,79.6z M45.4,93.3c0.4-3.5,1-6.9,1.9-10.4c1.6-7,3.4-14.1,4.6-21.2
		c0.5-2.4,0.8-4.8,1-7.2c0.2-0.6-0.2-1.3-0.7-1.5l-1.6-1c-0.5-0.2-0.7-0.1-0.7,0.4s-0.6,3.9-1,5.7c-0.6,4-1,8-1.9,11.9
		c-1,5.5-1.8,11.1-2.2,16.7C44.5,89,44.7,91.3,45.4,93.3L45.4,93.3z M54.9,53.8c-2-2.7-4.1-5.2-6.5-7.5c-0.2-0.3-0.6-0.5-1-0.5
		c-1.1,0-3.5,2.5-3.5,3.6c0,1,0,2.1,0.1,3.1c0.4,5.5,0.4,11.1,0,16.6c-0.1,3.5,0,6.9,0.5,10.4c0.1-0.1,0.2-0.3,0.2-0.5
		c0.4-2.5,0.6-5.1,1.1-7.6c1.5-6.5,2.2-13.2,2.1-20c0-0.7-0.4-1.3-1-1.5c-0.6-0.4-1.5-0.4-2-1c3.9,0.5,6.4,3.5,9.7,4.9L54.9,53.8z
		 M52.9,66.4c0.9-0.9,1.7-2,2.2-3.1c1.1-2.7,2.7-5.2,4.7-7.2c1-1,1.8-2.1,2.5-3.2c1.4-2.6,2.1-5.5,3.6-8.1s1.7-4.1,0.4-6.2
		c-0.2-0.2-0.6-0.9,0-1.2c0.6-0.4,0.7,0.4,0.9,0.7l1.2,2.6c0.2,0.4,0.2,0.9,0.9,1c-0.1-2-0.6-3.9-0.1-5.7c0.5-1.9-0.1-0.5-0.5-0.5
		c-1.5,0.1-2.8,1-3.5,2.4c-0.6,1.9-1.5,3.8-2.5,5.5c-2.1,3.1-3.7,6.5-5.5,9.9c-0.6,0.8-0.5,1.9,0.1,2.6c0.1,0.2,0.5,0.5,0.2,0.7
		c-0.2,0.2-0.5,0-0.7-0.1s-0.6-0.2-1,0.2C53.9,59.5,53.5,62.7,52.9,66.4z M75.9,92c-4.2-2.3-8.6-4.3-13.1-5.9
		c-1.6-0.6-3.4-0.7-5.1-0.5c-1.4,0.1-2.6,1.4-3.9,2.2c-0.7,0.7-1,1.6-1,2.5c-0.4,2.5-1.4,4.8-3,6.7l-2.5,3.6c-0.2,0.4-0.2,0.6,0,0.9
		c0.2,0.2,0.5,0,0.7-0.2l0.5-0.6c1.7-3.5,4-6.7,6.7-9.4c0.5-0.5,1.1-1,1.1-1.5s-1-0.5-1.5-0.9s-0.4-0.1-0.4-0.5s0.2-0.2,0.5-0.2
		c0.6,0,1.2,0.1,1.7,0.4c1.6,0.7,3.5,1,5.2,0.7c1.9-0.5,3.9-0.1,5.5,1C70,91.9,73,92.4,75.9,92z M52.7,84.8L52,85
		c-0.4,0.1-0.9,0.5-1-0.1s0.5-0.4,0.9-0.5c1.8-0.4,3.4-1.3,4.7-2.5l3.4-2.6c3.4-2.5,7.2-4.1,10.9-6.2l-3.6-0.2
		c-1.3-0.1-2.7,0.3-3.7,1.1c-2.6,2-5.5,3.9-8.2,5.7s-6.6,4.5-6.7,9.1c-0.1,1.8-0.3,3.6-0.6,5.4h0.4C49.4,91.2,52,88.6,52.7,84.8z
		 M73.9,87.6H73c-0.4,0-0.9,0.1-0.9-0.4s0.6-0.4,0.9-0.4c1.3,0,2.6,0.3,3.9,0.9c2.2,0.9,4.6,1.4,7,1.2c2.8-0.1,5.6,0,8.4,0.2
		l4.5,0.5c-2.5-1.5-5.4-2.3-8.4-2.1c-2.3,0.1-4.6-0.5-6.6-1.7c-1.1-0.7-2.3-1.2-3.5-1.7c-0.3-0.2-0.7-0.3-1.1-0.2
		c-2.9,1-5.9,1.6-8.1,3.9C71.5,89.4,72.2,89.4,73.9,87.6z M25.7,44.8c-0.1-0.7-0.4-1.4-0.9-2L23.7,41c-0.5-0.7-0.4-2.1-1.4-2.1
		s-1.4,1.2-2,2l-0.2,0.2c-0.6,0.7-0.7,1.7-0.1,2.4c0.7,1.3,1.2,2.6,1.5,4c1.4,5.4,2.9,10.7,4.4,16.1c0.3,1,0.8,1.9,1.5,2.7
		c0-0.6,0-1-0.1-1.4c-0.5-3.9-1.5-7.6-3-11.2c-0.4-0.7-0.2-1.2,0.5-1.6c0.7-0.4,1-0.5,0.6-1.1c-1.5-2.9-2.5-6-4.7-8.4
		c-0.1-0.2-0.6-0.4-0.4-0.7c0.2-0.4,0.6,0,0.9,0.1C21.4,42.2,24.2,43.8,25.7,44.8z M33.8,78.9c0.9-0.6,1.5-1.5,2.6-1.4
		s0.6-0.4,0.4-0.7l-1.4-3c-1.2-2.6-2.9-5.1-3.7-7.9c-0.3-1.2-0.8-2.2-1.6-3.1c-0.5,1.6-0.9,3.2-1,4.9c-0.2,0.9-0.2,1.8,0,2.6
		c1.3,3,2.8,6,4.6,8.7L33.8,78.9z M91.7,67.8l-0.4-0.6c-1-1.2-2.6-2-3.6-3.2c-1-1.5-2.8-2.2-4.6-1.9h-0.9c-0.5-0.1-0.9,0.1-1.2,0.5
		l-5.6,6.5c-0.2,0.2-0.6,0.5-0.4,1s0.6,1.7,1.4,2c0.7,0.2,1-0.7,1.6-1.2l0.4-0.4c1.7-1.5,2.7-3.9,5-4.7c0.4-0.1,0.2-0.5,0-0.6
		L81.9,64c-0.1-0.1-0.4-0.4-0.2-0.5c0.1-0.1,0.4-0.2,0.6-0.1l0.7,0.5c2.2,1.9,5,2.6,7.5,4C90.8,68,91.3,68,91.7,67.8z M62.3,85.1
		c0.5,0,0.9-0.4,1.1-0.6c1.2-1.5,2.8-2.8,4.5-3.7c2.3-1.4,4.3-3.3,5.9-5.6c0.2-0.2,0.7-0.5,0.2-1c-0.3-0.5-0.9-0.7-1.4-0.5l-3.1,1
		c-1.5,0.4-2.8,1.3-3.6,2.6c-1.3,2.3-2.8,4.5-4.5,6.5c-0.2,0.2-0.6,0.7-0.4,1.1C61.3,85.2,61.9,85.1,62.3,85.1z M35.2,45.9
		c0,4,0,8,0.2,11.9s0.9,8.6,1.5,12.8c0.2,1.9,0.9,3.7,1.2,5.6c0.4,1.9,0.5,1,1.1,0.9s0.2-0.7,0.1-1.1c-0.6-4.6-1.2-9.1-1.9-13.7
		c-0.4-3.2-0.9-6.4-1.4-9.6C36,50.4,35.6,48.1,35.2,45.9z M66.8,95.9C65.4,95,64.1,94.7,63,94c-1-0.5-2.1-0.6-3.1-0.1l-6.2,2.4
		c-1.6,0.6-2.7,2-3,3.7c0.5,0,0.7-0.4,1-0.6c2.6-1.7,5.6-2.7,8.7-2.9L66.8,95.9z M43.8,88.7c-0.5-4.4-0.7-8.9-0.6-13.3
		c0-1.9-0.2-3.8-0.6-5.6c-0.6-3.2-2.1-6.1-2.7-9.4c-0.6-3.2-0.9-3.4-1.2-5c0,0.7,0.1,1.3,0.2,2c0.6,3.4,1.2,6.9,1.9,10.2
		c0.6,3.4,1.9,9.1,1.9,14C42.6,83.8,42.4,86.2,43.8,88.7z M31.2,80.3c-5.5-8.1-8.9-17.5-14.3-25.9c0,0.7,0.1,1.3,0.5,1.9
		c1.2,2.2,2.3,4.5,3.2,6.9c1,2.8,2.3,5.6,3.7,8.2c0.4,0.9,1,1.8,1.7,2.5c1.1,1,2,2.2,2.7,3.5C29.3,78.5,30.2,79.6,31.2,80.3z
		 M29.6,85.3c-1.1-1.5-2.6-2.8-4.4-3.5c-1.4-0.6-2.7-1.5-3.9-2.5c-1.7-1.6-1.7-1.6-3.4,0.1c-1.6,1.7-0.5,0.7,0.1,1s4.1,2.6,6.6,3.2
		C26.4,84.1,28,84.7,29.6,85.3z M54.4,34.2l-0.5,0.2c-1.2,3.8-2.1,7.7-2.6,11.7c-0.2,1.9,0.2,2.7,2,3.7c0.2-5.4,0.4-10.5,1-15.8
		L54.4,34.2z M37.2,52.6H37c-0.1,0.5-0.1,1.1,0,1.6c0.5,2,0.9,4.1,1.1,6.2c1.1,6.6,1.1,13.5,3.2,19.8c0.1,0.4,0.3,0.8,0.6,1.1
		C41.3,71.7,38.6,62.4,37.2,52.6z M52,69.8l0.2-0.2c4-5.8,8.4-11.3,13.1-16.5c0.2-0.2,0.6-0.6,0.2-1s-0.7,0-1,0.2s-4.1,4.2-5.9,6.5
		s-4.1,6.6-6.5,9.7C52,68.9,51.9,69.4,52,69.8z M22.5,75.5c2.5,1.6,4.6,3.7,6.4,6.1l1.1,1c0.2,0.2,0.6,0.7,1,0.4s0.2-0.9-0.1-1.2
		c-1.4-1.8-2.7-3.6-3.9-5.6C25.7,74.1,24.7,74,22.5,75.5z M80.5,75.8c1,1.6,1,1.6,2.7,0.9l6.4-3c0.7-0.3,1.2-0.7,1.7-1.2
		C87.8,72.1,85.2,72.8,80.5,75.8z M34.3,56.5c0-1.2,0-2.1,0-3c0.3-4.5-1.1-9-4-12.5c-0.1-0.2-0.2-0.6-0.7-0.4
		C31.5,45.8,33,50.9,34.3,56.5z M52.3,95.9L52.3,95.9c0.9-0.4,1.7-0.7,2.5-0.9c2.5-0.4,3.6-2.5,5-4.1s0.4-0.4,0.1-0.6
		C59,89.9,58,90,57.2,90.4L52.3,95.9z M55.9,77.5c2.3-1.3,4.5-2.9,6.4-4.9c1.2-1.5,2.6-2.8,4.1-3.9c0.2-0.2,1-0.2,0.6-1
		c-0.4-0.7-0.7-0.2-1.2,0.1c-2.2,1.7-4.3,3.6-6.2,5.6C58.2,74.6,57,76,55.9,77.5z M55.9,66.2l0.5-0.5l10.1-11.4
		c0.2-0.2,0.5-0.5,0.1-0.9s-0.7,0-1,0.4c-2.9,3.2-5.7,6.5-8.2,10C56.7,64.5,56.2,65.3,55.9,66.2z M41.3,84.2h0.2
		c-0.4-1.4-0.7-2.7-1-4.1c-0.2-1.4-0.6-1.1-1.4-0.4L33,85.2l-2.2,2.1h0.4c2.9-1.7,5-4.2,7.7-6.2c0.7-0.5,0.9-0.5,1.1,0.2L41.3,84.2z
		 M13.5,82.9c3.5-3.2,5.6-8,10.7-9.4c-2-0.6-3.2-0.5-4.4,0.7c-2.4,2.7-4.5,5.6-6.5,8.6h0.2C13.5,82.8,13.5,82.9,13.5,82.9z
		 M19.4,73.6l-0.2-0.4l-5.6-6.9c-0.1-0.1-0.4-0.1-0.5,0c-0.2,0.1-0.3,0.3-0.2,0.5c0.2,0.3,0.4,0.6,0.6,0.9L18,74
		c0.1,0.2,0.2,0.7,0.6,0.5C19,74.2,19.1,74,19.4,73.6z M75.7,79.8c-0.7,0-1.3,0.2-1.9,0.6c-2.1,1.8-4,3.7-5.7,5.7
		c-0.2,0.2-0.9,0.5-0.4,1s0.6-0.1,0.9-0.4c0.2-0.2,2.7-2.7,4.4-4C74.1,82,75,81,75.7,79.8z M33,53.6c-1-4.3-2.3-8.5-3.9-12.6
		c0.2,1.4,0.5,2.8,0.9,4.2C30.6,48.3,30.7,51.3,33,53.6z M41.9,91.3c-0.1-0.8-0.3-1.5-0.6-2.2c-0.7-1.9-2.1-3.5-2.7-5.5
		c-0.6-2-0.1-0.7-0.6-0.6c-0.4,0.1-0.7,0.3-1,0.6c-0.4,0.4,0.1,0.6,0.2,0.9c0.7,0.9,1.4,1.9,2,2.9L41.9,91.3z M69.9,81.2
		c-0.7-0.2-1.1,0.1-1.5,0.4c-1.4,1-2.7,2.2-3.7,3.5c-0.1,0.2-0.7,0.5-0.2,0.9s0.7,0.6,1.2,0L69.9,81.2z M69.1,92.5l-2.4-0.7
		c-1.4-0.6-2.1,0.1-2.7,1.1C66.3,93.9,67.3,93.8,69.1,92.5z M78.7,78.7c-1.5-1.7-1.6-1.7-3.4-0.9l-2.7,1.5l0,0L78.7,78.7z
		 M72.5,80.6c-0.6-0.1-1.1,0.1-1.5,0.5c-1.4,1.4-2.6,2.7-3.9,4.2c-1.2,1.5-1.2,0.9-0.7,1.4s0.9-0.6,1.2-1L72.5,80.6z M28.8,89.8
		c0.8,0.7,2,0.7,2.7,0c0.6-0.6,1.3-0.9,2.1-1c-0.7-0.4-1.2-1.4-2.1-1C30.6,88.4,29.7,89.1,28.8,89.8z M64.4,72.1c2,0.5,3-1,4.1-1.7
		s1-0.2,0.5-0.9c-0.2-0.4-0.7-0.6-1.2-0.4c-0.1,0.1-0.2,0.2-0.3,0.3L64.4,72.1z M54.4,46c0.7-4,0.9-8,0.6-12C55,38,54,42,54.4,46z
		 M62.6,90.7c-1.5-0.4-2.2,0.2-3.5,2.5C61.6,92.9,61.8,92.8,62.6,90.7z M49.5,45.4l-1.7-6h-0.2C48.2,41.4,47.1,43.8,49.5,45.4z
		 M46.7,37.9c-0.4,2-0.5,4.1-0.2,6.1c0,0.2,0,0.6,0.5,0.5c0.3-0.1,0.4-0.3,0.4-0.6l0,0L46.7,37.9z M27.5,69.8l0.4-0.2
		c-1.1-2.5-2.5-4.8-4.1-7c0,0.4-0.1,0.4-0.1,0.5L27.5,69.8z M73.7,68H74c1-0.8,1.8-1.7,2.6-2.6c0.1-0.1,0-0.4-0.1-0.5
		s-0.4-0.1-0.5,0l-2.4,2.7C73.2,67.6,73.4,67.8,73.7,68z M27.1,81.1c-1.1-1.8-2.6-3.3-4.5-4.2C23.8,78.5,25.4,79.9,27.1,81.1z
		 M75.6,63.4l-0.4-0.2c-0.9,1-1.9,1.9-3,2.7C72,66,72,66.2,72.1,66.4l0.1,0.1c0.1,0.1,0.4,0.4,0.5,0.1L75.6,63.4z M71.5,54
		c-0.1-1.1-0.4-2.1-1.1-2.9c-0.1-0.2-0.4-0.4-0.6-0.2c-0.2,0.1-0.1,0.4,0,0.6L71.5,54z M51.8,66c0.7-1.8,1.1-3.7,1.1-5.6L51.8,66z
		 M54.7,99.2c-2,0.5-2.1,0.7-1.6,2.4L54.7,99.2z M56.3,84.8h0.2l2-3.1C57.2,82.4,56.9,83.8,56.3,84.8z M64.6,91.2
		c-1.1-0.6-1.6-0.2-2,1.6C63.5,92.6,63.8,91.8,64.6,91.2L64.6,91.2z M73.7,77.2c0.6-0.1,1.2-0.3,1.7-0.6c0.4-0.1,0.6-0.4,0.2-0.7
		s-0.6-0.5-0.9,0L73.7,77.2z M57.9,84.7c0.9-0.6,1.5-1.6,1.6-2.6c-0.8,0.7-1.5,1.6-1.7,2.6H57.9z M53.4,57.6c0.4-1,0.5-2.1,0.4-3.2
		C53,55.6,53.4,56.6,53.4,57.6z M35,85.3l-0.4,0.2c0.4,0.7,1,1.4,1.6,2l0.2-0.2L35,85.3z M76.9,58.5c-0.7,0.2-1.4,0.6-1,1.6
		L76.9,58.5z M33.1,80.1c0-0.8-0.3-1.6-1-2C32.2,78.8,32.5,79.5,33.1,80.1z M33.3,84.1c-0.1-0.2-0.1-0.4-0.2-0.2l-0.4,0.4H33
		L33.3,84.1z M23.4,62.1h-0.1l0.2,0.4h0.1L23.4,62.1z M41.7,84.9L41.7,84.9z M47.6,94.5L47.6,94.5z M54.8,69.1L54.8,69.1z
		 M14.6,65.4L14.6,65.4z M16.6,54L16.6,54z M31.6,84.2L31.6,84.2z M11.4,103.9L11.4,103.9z M36.8,86.4L36.8,86.4z M77.1,58L77.1,58z
		 M71.6,55.4L71.6,55.4z M39.3,90.2L39.3,90.2z M30.6,87.4L30.6,87.4L30.6,87.4z M30,87.8L30,87.8z M36.6,87.9L36.6,87.9z M21.2,59
		L21.2,59z M48.8,81.9L48.8,81.9z M3.1,79.3L3.1,79.3z M3.8,78L3.8,78z"/>
	<path class="st1" d="M30.8,29.7l3,1.7c1,0.7,2,1.5,2.9,2.4c-0.4-2-1.1-3.9-2-5.6c0.1,0.7,0.1,1.4,0.1,1.9c0.1,0.4-0.2,0.8-0.6,0.9
		l0,0c-0.4,0.1-0.8-0.1-1-0.5c-0.3-0.6-0.5-1.2-0.4-1.9c0-0.4,0.1-0.5,0.5-0.5s1-0.4,0.7-1.1c-1.1-2.8-4-4.4-7-4
		c-1.6,0.2-3.2,0-4.7-0.5c-0.4-0.1-0.9-0.4-0.7-0.7s0.6-0.2,0.9-0.2c3.1,0.1,6.2-0.4,9.2,0.2c0.4,0.1,0.6-0.1,0.4-0.5
		c-1.3-2.8-2.7-5.6-4.2-8.2c-1.2-1.5-2.8-2.6-4.6-3.1c-2.1-0.7-4.4-1.1-6.4-2.2l-1.5-1C15.1,6.6,15,6.3,15.2,6
		c0-0.1,0.1-0.1,0.1-0.1c0.2-0.4,0.6-0.1,0.9,0c2.7,2,6.2,2.1,9.2,3.5s4,1.9,4.6,4.2l0,0c0.5,0.6,0.5,2,1.4,2.1
		c0.9,0.1,0.5-1.2,0.7-2c0.9-2,2-3.8,3.4-5.5c0.4-0.5,0.8-1,1.1-1.6C36.7,6.4,37,5.9,37.2,6c0.4,0.1,0.6,0.6,0.4,1
		c0,0.1-0.1,0.2-0.2,0.3c-0.6,1.1-1.4,2.2-2.1,3.2c-2.5,3.1-3,7.3-1.5,11l1.9,5.5c1-4.2,3.1-8.1,6.1-11.2c0.1,1.1-0.3,2.1-1,2.9
		c-2,3-3.3,6.3-3.9,9.9c-0.4,2,0.6,3.6,1.1,5.5c0.2,1.2,0.6,2.3,1.1,3.4c1.4-2.9,3.9-5,5-7.9c0.1-0.4,0.4-0.7,0.7-0.6
		c0.4,0.1,0.2,0.6,0.2,1c-0.2,1.2-0.7,2.3-1.4,3.2c-1.9,2.3-3,5-3.2,8c0.1,1.7,0.3,3.4,0.7,5c0.7,3,1.1,6.1,1.1,9.2
		c0,2,0.2,3.9,0.2,5.9s0.2,1-0.4,1c-0.6,0-0.5-0.6-0.6-1s-0.6-3.5-0.9-5.4c-0.3-3.9-0.9-7.8-1.7-11.6c-0.4-1.5-0.6-3-0.9-4.5
		c-0.3-1.4-1-2.7-2-3.6c-1.6-1.6-3.1-3.6-5.4-4.4c-0.9-0.2-1.7-0.6-2.4-1.2c-0.2-0.2-0.5-0.4-0.4-0.7s0.5-0.1,0.9,0
		c0.7,0.3,1.4,0.4,2.1,0.4L30.8,29.7z"/>
	<path class="st1" d="M77.4,10.6c-0.5,0.7,0,1.9-1.1,1.7c-1.1-0.1-1.2-1-1.4-1.9s-0.1-0.7-0.7-0.6C73.5,10,73,8.6,72.5,7.7l-0.2,0.7
		c-0.1,0.4,0,1.1-0.7,1.1s-1-0.6-1.1-1.2c-0.1-0.9-0.2-1.7-0.2-2.6c0-0.4,0.2-1,0.4-1c0.1,0,1.4-0.6,1.9,0.2s0.1,0.4,0.2,0.4
		c2.5,0.4,2.5,0.4,2.6,2.5C76,7.6,76.5,7.3,77,6.9c0.6-0.5,1,0.1,1,0.7s0.5,1.4,1.4,0.9S80,8.7,80,9.1c-0.1,1.4-0.4,2.8-1.1,4.1
		c0,0.2-0.2,0.4-0.4,0.3c-0.1,0-0.2,0-0.2-0.1c-0.4-0.1-0.6-0.5-0.6-0.9C77.6,11.9,77.6,11.2,77.4,10.6z"/>
	<path class="st1" d="M85.2,35.3c-0.2,0.8-0.5,1.5-1,2.1c-0.2,0.3-0.6,0.5-1,0.4c-0.5-0.1-0.4-0.5-0.2-1c0.2-0.7,0.3-1.3,0.2-2
		c-0.1-1.1,1-1.4,1.5-2H85c0.9,0.6,1.4,0.5,1.7-0.5c0.4-1,0.2-0.5,0.5-0.5c0.3,0.1,0.6,0.3,0.6,0.6c0.3,1.4,0,2.9-0.6,4.1
		c-0.4,0.5-0.7,1.1-1.5,0.9c-0.7-0.2-0.6-0.9-0.6-1.4C85.1,35.5,85.2,35.5,85.2,35.3z"/>
	<path class="st1" d="M35,5.1c0-1-1-1.9,0-2.9s0.2-0.5,0.6-0.4C36,2,36.8,1.7,36.8,1s0.6-0.5,1-0.4c0.9,0.8,1.2,2.1,0.9,3.2
		c-0.2,0.6-1,1-1.6,0.7c-0.1-0.1-0.3-0.1-0.4-0.2C36.6,5,36.9,5.9,36.1,6C35.2,6.1,35.5,5.3,35,5.1L35,5.1z"/>
	<path class="st1" d="M22.6,19.2c0.1,0.5-0.2,1.1-0.6,1.4c-0.5,0.2-0.7-0.2-1.1-0.5c-1.1-0.8-1.7-2-1.9-3.4c-0.1-0.6-0.1-1,0.6-1
		s1.2-1.1,1.9,0.1c0.5,0.6,0.8,1.3,0.9,2.1C22.4,18.4,22.5,18.8,22.6,19.2z"/>
	<path class="st1" d="M85,13.7c0.1,0.8,0,1.6-0.4,2.4c-0.4,0.5-0.7,0.7-1.2,0.2s-1.4-4-0.9-4.9c0.4-0.5,0.9-0.9,1.5-1.2
		c0.4-0.2,0.5,0.2,0.6,0.6C84.9,11.8,85.1,12.7,85,13.7z"/>
	<path class="st1" d="M72.1,13.8L71.9,15c0,0.5-0.4,1-0.9,1.1c-0.6,0.1-1.1-0.2-1.4-0.7c-0.7-1-1-2.2-1-3.4c0.1-1,0.5-1.1,1.2-0.5
		l0.5,0.2C71.9,11.7,71.9,13,72.1,13.8z"/>
	<path class="st1" d="M79.6,36.9c0-1.1,0.1-2.1,1.2-2.4c1.1-0.2,0.5-0.5,0.5-0.7s0.1-0.4,0.4-0.4c0.2,0,0.4,0.1,0.5,0.4
		c0.4,1.5,0.3,3.1-0.2,4.6c-0.2,0.5-0.7,0.6-1.2,0.6s-0.7-0.4-0.9-0.7C79.7,37.9,79.6,37.4,79.6,36.9z"/>
	<path class="st1" d="M84.8,24.2c0.4-0.5,0.1-1.6,0.9-1.5c0.7,0.1,0.5,1.1,0.5,1.9c-0.1,1.4-0.6,2.7-1.6,3.6c-0.2,0.3-0.6,0.4-1,0.2
		c-0.4-0.1-0.4-0.5-0.4-0.9c-0.1-1.1,0.1-2.2,0.6-3.2c0.1-0.2,0-0.6,0.4-0.7S84.6,24.1,84.8,24.2z"/>
	<path class="st1" d="M42.2,12.7c0-1.1,0.1-2.2,0.5-3.2c0.2-0.7,0.7-1,1.1-0.1s1,0.7,0.9,1.6c-0.1,1.2-0.5,2.4-1.1,3.5
		c-0.2,0.4-0.5,0.7-1,0.5s-0.4-0.6-0.5-1.1C41.9,13.3,42.2,13.1,42.2,12.7z"/>
	<path class="st1" d="M88.5,11.1c-0.1-0.8,0-1.6,0.2-2.4c0.1-0.4,0.1-1.1,0.6-1s1,0.4,1.2,0.9c0.7,1.5,0.5,3.3-0.5,4.6
		c-0.2,0.3-0.6,0.5-1,0.4c-0.5-0.1-0.5-0.5-0.5-0.9S88.5,11.6,88.5,11.1z"/>
	<path class="st1" d="M23.9,5.6l-0.2,0.2c-0.1,0.6-0.1,1.5-1.1,1.4s-1.8-0.9-1.9-1.9c-0.1-0.7-0.1-1.6,0.7-2h0.2
		c0.6,0,0.6-1.1,1.4-0.6c0.6,0.5,0.9,1.3,0.9,2.1C23.9,5.1,23.9,5.4,23.9,5.6z"/>
	<path class="st1" d="M37.8,19.4c-0.2,0.4,0,1-0.5,1.1s-0.9-0.2-1.1-0.6l-1.5-2c-0.7-1.2-0.6-2,0.6-2.5c1.2-0.5,1,0.2,1.4,0.6
		C37.2,17.2,37.6,18.3,37.8,19.4z"/>
	<path class="st1" d="M33.3,10.2c-0.1,0.3-0.3,0.6-0.6,0.7c-0.5,0.2-0.6-0.1-1-0.4c-0.5-0.5-1-1.1-1.4-1.7c-0.7-1,0-2,0.1-2.9
		s0.5-0.4,0.7-0.1C32.5,7,33.2,8.5,33.3,10.2z"/>
	<path class="st1" d="M18.5,2.6c0.2-0.4-0.1-1.1,0.6-1.1s0.7,0.6,0.9,1.1c0.3,0.7,0.4,1.6,0.2,2.4c-0.1,0.5-0.2,1.1-0.9,1.2
		c-0.7,0.2-1.3-0.1-1.6-0.7c-0.4-0.7-0.5-1.5-0.5-2.2c0-0.4-0.2-0.9,0.2-1.1S18,2.5,18.5,2.6z"/>
	<path class="st1" d="M16.7,3.1c-0.1,0.5,0.2,1.4-0.4,1.6s-1.2-0.5-1.7-1c-0.4-0.6-0.7-1.3-0.7-2c-0.2-1.1,1-1.1,1.5-1.5
		s0.9,0.2,1.1,0.7C16.7,1.7,16.8,2.4,16.7,3.1z"/>
	<path class="st1" d="M90.8,23.4c0.4-0.5,0.1-1.6,0.9-1.4c0.7,0.2,0.5,1.1,0.4,1.9c-0.2,1-0.7,2-1.5,2.7c-0.2,0.2-0.6,0.6-1,0.4
		s-0.6-0.7-0.5-1.1c0.2-0.9,0.4-1.7,0.6-2.5s0.2-0.6,0.6-0.6C90.7,22.8,90.6,23.3,90.8,23.4z"/>
	<path class="st1" d="M29.3,27.2c0,0.5,0.1,1.1-0.5,1.4s-1.1-0.2-1.5-0.6c-0.5-0.4-1-1-1.2-1.6c-0.2-0.5,0.4-2.1,1-2.2
		c0.4-0.1,0.8,0.1,1,0.5c0.6,0.8,1,1.7,1.4,2.6L29.3,27.2z"/>
	<path class="st1" d="M41.4,31.2c0.1,0.5,0,1-0.2,1.4c-0.1,0.4-0.4,0.6-0.7,0.7c-0.4,0.1-0.5-0.4-0.6-0.6c-0.3-0.7-0.6-1.4-0.9-2.1
		c-0.4-1.1,0.7-1.7,1-2.7s0.5,0,0.6,0.2C40.7,28.3,41.1,30.2,41.4,31.2z"/>
	<path class="st1" d="M29.3,27.2c0.1-0.6-0.6-2,1.1-1.2v-0.2c0.4-1,0.9-0.4,1.1,0.1c0.6,1,0.8,2.2,0.6,3.4c-0.1,1-1,0.5-1.5,0.6l0,0
		l-1.5-2.5L29.3,27.2z"/>
	<path class="st1" d="M87.2,15.1c-1.7,0.1-1.7,0-1.7-1.6c0-0.5,0-1,0-1.5c0-0.2,0.1-0.9,0.5-0.6c0.4,0.2,0.6,0,0.7-0.5
		s0.2-0.7,0.6-0.6s0.5,0.5,0.5,0.9c0.2,1.4,0,2.9-0.7,4.1L87.2,15.1z"/>
	<path class="st1" d="M69.1,23.2c0,0.4,0,0.9,0,1.2s-0.1,1.1-0.9,1.2c-0.7,0.1-1.3-0.3-1.5-1c-0.1-0.7-0.1-1.5,0-2.2
		c0-0.4,0.1-1,0.9-0.6s0.4,0,0.4-0.2s0.2-0.9,0.7-0.6c0.5,0.2,0.4,0.6,0.4,1.1S69.1,22.8,69.1,23.2z"/>
	<path class="st1" d="M25.3,19.7c-0.1,0.5,0.2,1.2-0.6,1.4s-1.1-0.5-1.5-1.1c-0.4-0.7-0.6-1.5-0.4-2.2c0-0.4,0.2-1.1,1-0.5H24v-0.4
		c0.1-0.2,0.1-0.5,0.5-0.5S25,16.7,25,17L25.3,19.7z"/>
	<path class="st1" d="M39.4,16c-0.1,0.9,0.1,1.6-0.2,2.1c-0.4,0.5-0.2,0.6-0.7,0.6S38,18.3,38,18.1c-0.3-1.2-0.4-2.5-0.5-3.7
		c0-0.4,0.1-0.7,0.5-0.5s0.6,0.1,0.6-0.4s-0.1-0.6,0.2-0.6s0.5,0.4,0.5,0.6S39.6,15.2,39.4,16z M38.6,14.6L38.6,14.6z"/>
	<path class="st1" d="M72.1,17.7c-0.4-1.5,0.6-2.4,1.5-3.4s0.6,0,0.7,0.2c0.3,1.4,0.3,2.8-0.2,4.1c-0.1,0.5-0.5,0.5-0.9,0.1L72.3,18
		l0,0c0-0.2,0-0.4-0.2-0.5C72.1,17.5,72.1,17.7,72.1,17.7z"/>
	<path class="st1" d="M25.6,17.7c0.1-0.5-0.2-1.4,0.7-1.4s1.2,0.5,1.2,1.4s0.1,1.4,0.1,2.1c0.1,0.4-0.1,0.8-0.5,1
		c-0.5,0.1-0.7-0.1-1-0.5C25.8,19.5,25.5,18.6,25.6,17.7z"/>
	<path class="st1" d="M39.6,13.1c-0.1-0.6,0-1.4,1.1-1.7c1.1-0.4,0.7,0,0.7,0.4c0.2,1.3,0.1,2.6-0.5,3.7c-0.1,0.3-0.4,0.5-0.7,0.5
		c-0.4,0-0.4-0.5-0.5-0.7C39.6,14.5,39.5,13.8,39.6,13.1z"/>
	<path class="st1" d="M34.8,5.1c0,0.7,0.1,1.4,0.2,2.1c0.2,0.6-0.2,1.2-0.7,1.4c-0.7,0.2-0.5-0.5-0.9-0.9S33,5.4,33,4.2
		s0.6-0.4,1-0.2c0.4,0.1,0.5,0.9,1,1.1H34.8z"/>
	<path class="st1" d="M44.9,25.6c0,0.6,0,1.2,0,1.9c0,0.3-0.2,0.6-0.5,0.7c-0.4,0.1-0.6-0.2-0.7-0.5c-0.5-1.3-0.6-2.7-0.4-4
		c0.1-0.7,0.7-0.1,1.1-0.2c0.4-0.1,0.6,0,0.6,0.4S45,25,44.9,25.6L44.9,25.6z"/>
	<path class="st1" d="M71.1,29.3c0.1-0.6,0.3-1.3,0.5-1.9c0.5-0.9,1.1-0.6,1.7-0.4s0.5,0.7,0.4,1.2c-0.3,0.9-0.7,1.7-1.2,2.4
		c-0.4,0.5-0.7,0.4-0.9-0.1L71.1,29.3z"/>
	<path class="st1" d="M86.3,25.4c0.1-0.5,0.2-1.1,0.4-1.7s0.1-1.1,0.7-0.2s0.2,0.1,0.4-0.5s0.1-0.6,0.5-0.6s0.5,0.4,0.5,0.7
		c0,1.2-0.4,2.4-1.1,3.4c-0.3,0.4-0.7,0.5-1.1,0.2C86.2,26.4,86.5,25.9,86.3,25.4z"/>
	<path class="st1" d="M76.9,18.9c0.1,0.6-0.1,1.2-0.5,1.6c-0.2,0.4-0.5,1-1.1,0.7c-0.5-0.2-0.8-0.7-0.7-1.2c0-0.5,0-1.1,0-1.6
		c0.1-1.1,0.2-0.9,1.2-0.7C76.7,17.8,76.9,18.3,76.9,18.9z"/>
	<path class="st1" d="M71.6,25.3c0,0.7-0.2,1.5-0.5,2.1C71,27.9,70.5,28.2,70,28c0,0,0,0-0.1,0c-1-0.2-1-1.1-0.9-1.9
		c0.1-0.7-0.2-1.6,1.1-1.6S71.9,24.1,71.6,25.3z"/>
	<path class="st1" d="M75.9,28.7c0.1,1.3-0.3,2.7-1.1,3.7c-0.1,0.3-0.4,0.4-0.6,0.3c0,0-0.1,0-0.1-0.1c-0.7-0.4-0.9-1.2-0.5-1.9
		c0.2-0.6,0-1.6,1.2-1.2C76,29.9,75,28.7,75.9,28.7z"/>
	<path class="st1" d="M23.9,5.6c0-1,1.1-1.2,1.4-2.1h0.4C25.8,3.5,26,3.7,26,4s0,1.9,0,2.7s-0.1,1.1-0.7,1.1s-1.1-0.4-1.1-1
		C24,6.5,24,6.1,24,5.7L23.9,5.6z"/>
	<path class="st1" d="M43.2,29.2c0,0.2,0,0.5,0,0.7s0.1,0.7-0.5,0.9c-0.4,0.1-0.9-0.2-1-0.6c-0.2-0.9-0.4-1.9-0.5-2.9
		c0-0.5,0.7-0.6,1-0.9s0.4,0.4,0.5,0.6C43,27.7,43.2,28.4,43.2,29.2z"/>
	<path class="st1" d="M45.4,26.3c0.1-0.9,0.2-2.4,1.1-2.4c0.9,0,0.1,1.4,0.2,2.1c0,0.1,0,0.2,0,0.2c-0.1,0.5-0.1,1.1-0.7,1
		C45.4,27.2,45.6,26.7,45.4,26.3z"/>
	<path class="st2" d="M81.9,79.6c-2.8-2.2-5.5-4.6-8.1-7.1c-2.7-2.6-5.7-5.1-8.6-7.7c-0.6-0.6-1.5-0.9-2.4-0.7
		c0,0.5,0.2,0.5,0.5,0.6c0.2,0.1,1.7,0.9,0.2,2.1C58.3,71,53.7,75.7,49.7,81L49,81.6c-0.1-0.4-0.1-0.8,0-1.1
		c0.5-1.7,0.9-3.5,1.4-5.2c0.2-0.7,0.6-1.3,1.1-1.7c3.2-3.4,6.9-6.4,10-9.9l0.2-0.2c1.1-0.9,5.7-0.5,6.7,0.5c2,1.9,3.7,4.1,5.1,6.5
		c1,1.8,2.4,3.3,4.1,4.5c1.7,1.3,3.2,2.9,4.2,4.7L81.9,79.6z"/>
	<path class="st2" d="M45.3,93.4c-0.7-2-0.9-4.2-0.6-6.4c0.5-5.6,1.2-11.2,2.2-16.7c0.9-4,1.2-7.9,1.9-11.9c0.2-1.9,0.9-3.9,1-5.7
		c0.1-1.9,0.2-0.6,0.7-0.4l1.6,1c0.6,0.2,0.9,0.9,0.7,1.5c-0.2,2.4-0.5,4.8-1,7.2c-1.2,7.1-3,14.1-4.6,21.2
		C46.4,86.6,45.8,90,45.3,93.4z"/>
	<path class="st2" d="M54.8,53.8c-3.4-1.4-6-4.4-9.9-4.7c0.5,0.6,1.4,0.6,2,1c0.6,0.2,1,0.8,1,1.5c0.1,6.7-0.6,13.4-2.1,20
		c-0.5,2.5-0.7,5-1.1,7.6c0,0.2-0.1,0.4-0.2,0.5c-0.5-3.4-0.6-6.9-0.5-10.4c0.4-5.5,0.4-11.1,0-16.6c-0.1-1-0.1-2.1-0.1-3.1
		c0-1.1,2.4-3.6,3.5-3.6c0.4,0,0.8,0.2,1,0.5C50.6,48.7,52.8,51.1,54.8,53.8z"/>
	<path class="st2" d="M52.9,66.4c0.5-3.6,1-6.9,2.9-9.7c0.4-0.5,0.6-0.4,1-0.2c0.4,0.1,0.5,0.4,0.7,0.1s0-0.5-0.2-0.7
		c-0.6-0.7-0.7-1.8-0.1-2.6c1.7-3.4,3.4-6.7,5.5-9.9c1-1.7,1.9-3.6,2.5-5.5c0.7-1.3,2.1-2.2,3.6-2.2c0.4,0,0.6,0.2,0.5,0.5
		c-0.1,0.2,0.1,3.7,0.1,5.7c-0.6-0.2-0.7-0.6-0.9-1l-1.2-2.6C67,37.8,67,37,66.4,37.4s-0.1,0.9,0,1.2c1.4,2.2,0.9,4.1-0.4,6.2
		c-1.2,2.1-2.2,5.5-3.6,8.1c-0.7,1.2-1.5,2.3-2.5,3.2c-2.1,2.1-3.7,4.5-4.7,7.2C54.6,64.6,53.8,65.5,52.9,66.4z"/>
	<path class="st2" d="M75.9,92c-2.9,0.4-5.8-0.1-8.4-1.5c-1.6-1.1-3.6-1.5-5.5-1c-1.8,0.2-3.6,0-5.2-0.7c-0.6-0.2-1.1-0.4-1.7-0.4
		c-0.2,0-0.5,0-0.5,0.2s0.1,0.4,0.4,0.5c0.2,0.1,1.6,0,1.5,0.9s-0.7,1-1.1,1.5c-2.8,2.7-5.1,5.9-6.7,9.4l-0.5,0.6
		c-0.2,0.2-0.4,0.5-0.7,0.2c-0.4-0.2-0.2-0.6,0-0.9l2.5-3.6c1.6-1.9,2.6-4.3,3-6.7c0-0.9,0.3-1.8,1-2.5c1.2-0.9,2.5-2.1,3.9-2.2
		c1.7-0.3,3.5-0.1,5.1,0.5C67.3,87.9,71.7,89.8,75.9,92z"/>
	<path class="st2" d="M52.7,84.8c-0.5,3.7-3.1,6.4-4.6,9.5h-0.4c0.3-1.8,0.5-3.6,0.6-5.4c0.1-4.6,3.5-6.9,6.7-9.1s5.6-3.6,8.2-5.7
		c1.1-0.8,2.4-1.2,3.7-1.1l3.6,0.2c-3.6,2.1-7.5,3.7-10.9,6.2L56.1,82c-1.3,1.2-3,2.1-4.7,2.5c-0.4,0.1-1,0.1-0.9,0.5s0.6,0.1,1,0.1
		L52.7,84.8z"/>
	<path class="st2" d="M38.1,92.9c-1.5-0.1-2.6,0.7-3.9,1.1c-2.8,0.7-5.6,1.8-8.1,3.2c-4.6,2.4-9.6,4.1-14.3,6.9
		c0.1-0.5,0.3-0.9,0.7-1.1c5.7-4.2,11.6-8,17.7-11.5l3-1.5c0.8-0.4,1.8-0.3,2.5,0.4l2.6,2.4L38.1,92.9z"/>
	<path class="st2" d="M73.9,87.6c-1.7,1.9-2.4,1.9-4.7,0.1c2.2-2.1,5.2-2.7,8.1-3.9c0.4-0.1,0.8,0,1.1,0.2c1.2,0.5,2.4,1.1,3.5,1.7
		c1.9,1.2,4.2,1.8,6.5,1.7c2.9-0.1,5.9,0.7,8.4,2.2l-4.5-0.5c-2.8-0.2-5.6-0.3-8.4-0.2c-2.4,0.1-4.8-0.3-7-1.2
		c-1.2-0.5-2.5-0.8-3.9-0.9c-0.4,0-0.9-0.1-0.9,0.4s0.6,0.4,0.9,0.4L73.9,87.6z"/>
	<path class="st2" d="M25.7,44.8c-1.4-1-3-1.6-4.5-2.6s-0.6-0.6-0.9-0.1s0.2,0.5,0.4,0.7c2.2,2.4,3.2,5.5,4.7,8.4
		c0.4,0.6-0.1,0.9-0.6,1.1s-0.9,0.9-0.5,1.6c1.5,3.6,2.5,7.4,3,11.2c0,0.4,0,0.6,0.1,1.4c-0.7-0.8-1.2-1.8-1.5-2.9
		c-1.6-5.4-3-10.7-4.4-16.1c-0.3-1.4-0.8-2.7-1.5-4c-0.5-0.7-0.5-1.7,0.1-2.4l0.2-0.2c0.6-0.7,1.2-2,2-2s0.7,1.5,1.4,2.1l1.1,1.7
		C25.4,43.4,25.7,44.1,25.7,44.8z"/>
	<path class="st2" d="M33.7,79.1c-1.8-2.8-3.4-5.7-4.7-8.7c-0.2-0.9-0.2-1.8,0-2.6c0.1-1.7,0.5-3.3,1-4.9c0.8,0.9,1.3,2,1.6,3.1
		c0.9,2.9,2.5,5.2,3.7,7.9l1.4,3.1c0.2,0.4,0.1,0.7-0.4,0.7S34.6,78.3,33.7,79.1z"/>
	<path class="st2" d="M11.9,96.9c3.4-4.4,6.4-9.2,11.2-12.3c0.3-0.3,0.8-0.4,1.2-0.2l4.4,1.6c-0.8,1.2-1.9,2.3-3.1,3.1
		c-0.1-0.5,0.2-0.6,0.4-0.7c0.1-0.1,0.4-0.2,0.2-0.5c-0.1-0.2-0.4-0.1-0.6,0c-2.1,1.1-4.1,2.4-5.9,4c-2.4,2-4.9,3.8-7.5,5.5
		L11.9,96.9z"/>
	<path class="st2" d="M91.7,67.8c-0.4,0.1-0.9,0-1.2-0.2c-2.5-1.4-5.2-2.1-7.5-4l-0.7-0.5C82,63,81.7,63,81.6,63.2s0.1,0.4,0.2,0.5
		l1.5,1.2c0.2,0.2,0.5,0.5,0,0.6c-2.4,0.9-3.4,3.2-5,4.7L78,70.7c-0.5,0.4-0.9,1.5-1.6,1.2s-1-1.2-1.4-2c-0.4-0.7,0.1-0.7,0.4-1
		l5.6-6.4c0.3-0.4,0.8-0.6,1.2-0.5h0.9c1.8-0.4,3.6,0.4,4.6,1.9c1,1.2,2.6,2,3.6,3.2L91.7,67.8z"/>
	<path class="st2" d="M62.3,85.1c-0.4-0.1-1,0-1.1-0.2s0.1-0.7,0.4-1.1c1.7-2,3.2-4.2,4.5-6.5c0.8-1.3,2.1-2.2,3.6-2.6l3.1-1
		c0.5-0.2,1.1,0,1.4,0.5c0.4,0.5-0.1,0.7-0.2,1c-1.5,2.3-3.5,4.2-5.9,5.6c-1.7,1-3.2,2.2-4.5,3.7C63.1,84.8,62.9,85.2,62.3,85.1z"/>
	<path class="st2" d="M35.2,45.9c0.4,2.2,0.9,4.6,1.1,6.9c0.2,2.2,1,6.5,1.4,9.6s1.2,9.1,1.9,13.7c0,0.4,0.4,0.9-0.1,1.1
		s-1-0.2-1.1-0.9c-0.1-0.6-1-3.7-1.2-5.6c-0.6-4.4-1.2-8.6-1.5-13S35.1,49.9,35.2,45.9z"/>
	<path class="st2" d="M31.3,53.1c0.4,0.3,0.6,0.7,0.7,1.1c1.4,4.1,3.1,8.2,3.4,12.7c0.1,2.2,0.9,4.4,1.1,6.7
		c-1.3-2.1-2.4-4.2-3.4-6.5c-0.3-1.2-0.8-2.3-1.4-3.4c-1.5-2.1-1.2-4.4-1.1-6.7c0.2-1.2,0.3-2.5,0.2-3.7L31.3,53.1z"/>
	<path class="st2" d="M31.1,53.5c-0.3-0.1-0.7,0.1-0.7,0.5l0,0c-0.1,0.4-0.2,0.8-0.2,1.2c0,3.5-0.6,7-1.7,10.4
		c-0.5-0.5-0.4-1.2-0.5-1.7c-0.4-3.5-1.3-6.9-2.7-10.1c-0.2-0.5,0-0.7,0.5-0.9c1.6-0.4,3.2-0.5,4.9-0.5c0.5,0,0.6,0.5,0.9,0.9
		L31.1,53.5z"/>
	<path class="st2" d="M4.9,84.2c2.1-2.9,3.9-6.1,5.4-9.5c0.5-1,1.6-1,2.5-0.6c1.4,0.5,2.7,1.1,3.9,1.9c0.5,0.4,0.6,0.6,0.1,1.1
		l-0.9,1c-1.1,1.2-1.1,1.4-2.7,0.4s1.4-0.9,1-1.4S13,77.6,12.6,78c-1.9,1.6-3.7,3.3-5.4,5.1c-0.5,0.6-1.2,1.1-2,1.4L4.9,84.2z"/>
	<path class="st2" d="M12,59.1c4.2,1.5,6.9,4.9,9,8.6l2.2,3.9c0.1,0.2,0.5,0.5,0.1,0.7c-0.2,0.1-0.6,0.1-0.7-0.1L22,71.7
		c-1-1.6-2.6-2.5-3.9-3.9c-2.6-2.5-4.7-5.5-6.4-8.7C11.7,59.1,12,59.1,12,59.1z"/>
	<path class="st2" d="M66.8,95.9l-6.5,0.6c-3.1,0.2-6.1,1.2-8.7,2.9c-0.2,0.2-0.5,0.6-1,0.6c0.2-1.7,1.4-3.1,3-3.7l6.2-2.4
		c1-0.4,2.2-0.4,3.1,0.1C64.1,94.7,65.4,95.2,66.8,95.9z"/>
	<path class="st2" d="M43.8,88.7c-1.4-2.5-1.2-4.9-1.2-7.1c0-4.7-1.1-9.4-2-14s-1.2-6.9-1.9-10.2c-0.2-0.6-0.3-1.3-0.2-2
		c0.4,1.6,0.9,3.4,1.2,5c0.4,1.6,2.1,6.1,2.7,9.4c0.4,1.8,0.6,3.7,0.6,5.6C43,79.8,43.3,84.3,43.8,88.7z"/>
	<path class="st2" d="M31.2,80.3c-1-0.8-1.9-1.8-2.4-3c-0.7-1.3-1.6-2.5-2.7-3.5c-0.7-0.7-1.3-1.6-1.7-2.5c-1.5-2.6-2.7-5.4-3.7-8.2
		c-0.9-2.4-2-4.7-3.2-6.9C17.1,55.6,17,55,17,54.3C22.2,62.9,25.7,72.2,31.2,80.3z"/>
	<path class="st2" d="M29.6,85.3c-1.6-0.6-3.2-1.2-4.9-1.6c-2.5-0.5-4.4-2.1-6.6-3.2s-0.6-0.5-0.1-1s1.6-1.7,3.4-0.1
		c1.2,1,2.5,1.9,3.9,2.5C27,82.6,28.5,83.8,29.6,85.3z"/>
	<path class="st2" d="M54.3,34c-0.6,5.4-0.7,10.5-1,15.7c-1.9-1-2.4-1.9-2-3.7c0.5-4,1.4-7.9,2.6-11.7L54.3,34z"/>
	<path class="st2" d="M48.5,83.9c1.6-2.7,3.5-5.1,5.6-7.4c3.2-3.6,6.8-7,10.6-10c0.2-0.2,0.5-0.6,0.9-0.1s-0.1,0.7-0.4,1
		c-5.2,4.2-9.6,9.2-14.3,14c-0.8,0.8-1.5,1.7-2.1,2.6L48.5,83.9z"/>
	<path class="st2" d="M37.2,52.6c1.2,9.6,4.1,19.1,4.7,29.1c-0.3-0.3-0.6-0.7-0.6-1.1c-2.1-6.5-2.1-13.2-3.2-19.8
		c-0.2-2.1-0.6-4.2-1.1-6.2c-0.1-0.5-0.1-1.1,0-1.6L37.2,52.6z"/>
	<path class="st2" d="M52,69.8c-0.1-0.4,0-0.8,0.2-1.1c2.4-3.1,4.1-6.7,6.5-9.7s3.9-4.2,5.7-6.5c1.9-2.2,0.6-0.6,1-0.2
		c0.4,0.4,0,0.6-0.2,1c-4.7,5.2-9,10.6-13,16.3L52,69.8z"/>
	<path class="st2" d="M22.5,75.5c2.2-1.5,3.1-1.4,4.5,0.6c1.1,2,2.4,3.8,3.9,5.6c0.4,0.4,0.6,0.9,0.1,1.2c-0.5,0.4-0.7-0.1-1-0.4
		l-1.1-1C27.1,79.2,24.9,77.1,22.5,75.5z"/>
	<path class="st2" d="M80.5,75.8c4.7-3,7.4-3.7,10.9-3.2c-0.5,0.5-1.1,0.9-1.7,1.2l-6.4,3C81.5,77.5,81.5,77.5,80.5,75.8z"/>
	<path class="st2" d="M34.3,56.5c-1.4-5.6-2.9-10.7-4.6-15.8c0.5-0.1,0.5,0.2,0.7,0.4c2.9,3.5,4.3,8,4,12.5
		C34.3,54.4,34.3,55.2,34.3,56.5z"/>
	<path class="st2" d="M17,60.6c-1.9-0.5-3.6-1.4-5.1-2.6c-2.4-1.7-2.4-2-0.1-4c0.4-0.4,0.7-0.6,1,0c1,2.5,3.1,4.2,4.2,6.7V60.6z"/>
	<path class="st2" d="M38.3,92.7c2.6,2.2,4.9,4.9,6.6,7.9c0.2,0.4,0.5,1,0,1.2s-0.6-0.4-0.9-0.7c-1.6-2.6-4.1-4.7-7-5.7l-2-0.6
		c0.9-0.7,2.5-0.5,2.9-1.9L38.3,92.7z"/>
	<path class="st2" d="M52.3,95.9l4.9-5.5c0.8-0.5,1.9-0.5,2.7-0.1c0.2,0.2,0,0.5-0.1,0.6s-2.5,3.7-5,4.1c-0.8,0.2-1.6,0.5-2.4,0.9
		H52.3z"/>
	<path class="st2" d="M55.9,77.5c1-1.5,2.3-2.8,3.6-4c1.9-2,4-3.9,6.2-5.6c0.4-0.2,0.7-0.7,1.2-0.1s-0.2,0.7-0.6,1
		c-1.5,1.1-2.9,2.4-4.1,3.9C60.4,74.5,58.3,76.1,55.9,77.5z"/>
	<path class="st2" d="M55.9,66.2c0.3-0.9,0.8-1.8,1.5-2.5c2.5-3.5,5.4-6.7,8.2-10c0.2-0.2,0.5-0.7,1-0.4c0.5,0.4,0.1,0.6-0.1,0.9
		L56.4,65.6L55.9,66.2z"/>
	<path class="st2" d="M55.4,68.1c1.9-2.4,4-4.6,6-6.9l5.1-6c0.2-0.2,0.5-0.7,0.9-0.4c0.4,0.4,0.1,0.6-0.2,0.9
		c-3.4,2.9-5.5,6.7-8.6,9.9l-3,2.7L55.4,68.1z"/>
	<path class="st2" d="M46.4,100.7c0.7-2.4,1.7-4.7,2.9-6.9c0.9-1.6,1.8-3.1,2.9-4.6C52,94.2,48.8,97.2,46.4,100.7z"/>
	<path class="st2" d="M41.3,84.2l-1.4-2.9c-0.2-0.7-0.4-0.7-1.1-0.2c-2.7,1.9-4.9,4.5-7.7,6.2h-0.4l2.2-2.1l6.1-5.5
		c0.7-0.6,1.1-0.9,1.4,0.4C40.6,81.3,41,82.8,41.3,84.2L41.3,84.2z"/>
	<path class="st2" d="M13.4,82.9c1.9-3,4-5.9,6.4-8.6c1.1-1.2,2.4-1.4,4.4-0.7C19,75,17,79.8,13.4,82.9z"/>
	<path class="st2" d="M65.3,94.3c0.8-0.1,1.5,0,2.2,0.4c2.7,1,5.7,1,8.2,2.5l0.7,0.6c-4.1,0.2-7.7-1.5-11.2-3.4L65.3,94.3z"/>
	<path class="st2" d="M23.6,64.9c2.6,4,4.9,8.2,7.1,12.5l1.2,2.5c0.1,0.4,0.5,0.7,0,1.2c-1.9-4.1-4.5-7.6-6.5-11.6
		c-0.8-1.4-1.5-2.9-2.1-4.4L23.6,64.9z"/>
	<path class="st2" d="M19.4,73.6c-0.2,0.2-0.4,0.6-0.6,0.9c-0.2,0.2-0.5-0.2-0.6-0.5l-4.6-6.2c-0.3-0.3-0.5-0.6-0.6-0.9
		c0-0.2,0.1-0.4,0.2-0.5c0.1-0.1,0.4-0.1,0.5,0l5.6,6.9L19.4,73.6z"/>
	<path class="st2" d="M75.7,79.8C75,81,74.1,82,73,82.8c-1.5,1.2-2.9,2.6-4.4,4s-0.5,0.7-0.9,0.4c-0.4-0.4,0.1-0.7,0.4-1
		c1.8-2.1,3.7-4,5.7-5.7C74.4,80.1,75.1,79.8,75.7,79.8z"/>
	<path class="st2" d="M33,53.6c-2.2-2.4-2.4-5.5-3-8.4c-0.4-1.4-0.7-2.8-0.9-4.2C30.6,45.1,31.9,49.4,33,53.6z"/>
	<path class="st2" d="M41.9,91.3l-2.6-4.1c-0.6-1-1.3-2-2-2.9c-0.1-0.2-0.6-0.5-0.2-0.9c0.3-0.3,0.6-0.5,1-0.6s0.5,0.4,0.6,0.6
		s2.1,3.5,2.7,5.5C41.8,89.7,41.9,90.5,41.9,91.3z"/>
	<path class="st2" d="M69.9,81.1l-4.2,4.7c-0.5,0.6-0.9,0.2-1.2,0c-0.4-0.2,0-0.6,0.2-0.9c1.1-1.3,2.3-2.5,3.7-3.5
		C68.8,81.3,69.1,80.8,69.9,81.1z"/>
	<path class="st2" d="M71.3,56.9c-2.1-1.1-3.4-3.1-4.9-4.9c-1.5-1.7-0.4-0.5,0-0.7s0.6-0.4,1-0.1c0.4,0.2,0.2,0.7,0.7,0.6l0,0
		c-0.1,0.5,0,0.7,0.5,0.7l0,0c-0.1,0.5,0,0.7,0.5,0.7l0,0c-0.1,0.2,0,0.5,0.2,0.5l0,0c0.1,0.4,0.3,0.8,0.7,1l0,0
		c0,0.1,0.1,0.2,0.2,0.2l0,0c0,0.7,0.7,1,0.9,1.6v0.4H71.3z"/>
	<path class="st2" d="M64.1,78.8c-0.1,0.7-0.5,1.4-1,1.9c-1,1.1-2,2.3-2.7,3.6c-0.2,0.5-0.7,0.9-1.2,0.5s0.1-0.7,0.4-1
		C60.7,81.8,62.2,80,64.1,78.8L64.1,78.8z"/>
	<path class="st2" d="M8.1,70.3c1-2.6,2-5.1,5.4-5.7l-5.2,5.9L8.1,70.3z"/>
	<path class="st2" d="M34.5,81.7c-0.7,0-1,0.7-1.5,1.1s-0.6,1-1.2,1.1c0.6-2.6,3.5-5.6,5.5-5.6c-0.6,0.8-1.3,1.5-2,2.1
		c-0.2,0.4-0.9,0.5-0.7,1.1L34.5,81.7L34.5,81.7z"/>
	<path class="st2" d="M69.1,92.5c-1.9,1.2-2.9,1.2-5.1,0.2c0.7-1,1.4-1.7,2.7-1.1L69.1,92.5z"/>
	<path class="st2" d="M78.7,78.7l-6.1,0.7l0,0l2.7-1.5C77.1,77,77.1,77,78.7,78.7z"/>
	<path class="st2" d="M48.3,84.8c-0.9,4-1.9,7.9-2.4,12.1c-0.4-0.3-0.6-0.8-0.4-1.2c0.9-2.9,0.7-5.9,1.6-8.7
		c0.2-0.8,0.5-1.6,0.9-2.4L48.3,84.8z"/>
	<path class="st2" d="M72.5,80.7l-4.9,5c-0.4,0.4-0.7,1.4-1.2,1s0.4-0.9,0.7-1.4c0.4-0.5,2.6-2.9,3.9-4.2
		C71.4,80.7,72,80.5,72.5,80.7z"/>
	<path class="st2" d="M28.8,89.8c0.9-0.7,1.8-1.3,2.7-1.9c0.9-0.5,1.4,0.6,2.1,1c-0.8,0.1-1.6,0.4-2.1,1
		C30.8,90.6,29.6,90.6,28.8,89.8z"/>
	<path class="st2" d="M64.4,72.1l3.2-2.7c0.3-0.4,0.8-0.5,1.2-0.2c0.1,0.1,0.2,0.2,0.3,0.3c0.4,0.6-0.2,0.6-0.5,0.9
		S66.4,72.6,64.4,72.1z"/>
	<path class="st2" d="M54.4,46c-0.2-4,0.7-8,0.6-12C55.3,38,55.1,42.1,54.4,46z"/>
	<path class="st2" d="M34.3,81.8c1.3-1,2.6-2.1,3.7-3.2c0.5-0.4,1-0.7,1.6-0.4l-6.4,5.5c0-1,1-1.2,1-2v0.1H34.3z"/>
	<path class="st2" d="M24.7,80.6c-1.6-0.6-2.6-2-4-3s-0.2-0.6,0-1s0.6-0.1,0.9,0.1l3.2,3.6L24.7,80.6z"/>
	<path class="st2" d="M56,83.6c-0.4,1.7-1.6,3-3.2,3.6c0.1-2,1.5-3,3.1-3.9L56,83.6z"/>
	<path class="st2" d="M55.2,101c0.5-1.9,2.1-3.3,4.1-3.5C57.9,98.9,57.3,100.6,55.2,101L55.2,101z"/>
	<path class="st2" d="M62.6,90.7c-0.9,2.1-1,2.2-3.5,2.5C60.4,90.9,61.1,90.3,62.6,90.7z"/>
	<path class="st2" d="M19.6,71.1c1-0.4,0.9,0.9,1.5,0.9s-0.7-0.1-0.9,0.6s-0.6,0.4-1,0c-1-1-1.9-2.2-2.6-3.4l0.2-0.2l2.5,2.2
		l0.4,0.4c0.1,0.1,0.2,0.5,0.5,0.2c0.2-0.2-0.1-0.4-0.2-0.4L19.6,71.1z"/>
	<path class="st2" d="M49.4,41.8c-1.3-3.3-1.9-6.9-1.9-10.5C47.8,34.9,48.9,38.3,49.4,41.8z"/>
	<path class="st2" d="M73.1,63.4c-0.7-0.1-0.9,0.6-1.2,0.9c-0.4,0.2-0.5,1.1-1.1,0.4s0.1-0.9,0.4-1.1s1.2-0.9,1.5-1.6H73
		c0.4-0.1,0.5-0.9,1.1-0.5s-0.2,0.7-0.2,1.1l0,0c-0.3,0-0.5,0.2-0.5,0.5l0,0l0,0c-0.2,0.1-0.5,0.1-0.2,0.5L73.1,63.4z"/>
	<path class="st2" d="M49.5,45.4c-2.6-1.6-1.5-4-2-5.9h0.2L49.5,45.4z"/>
	<path class="st2" d="M41.1,87.1c-0.9-1.4-1.6-2.8-2.2-4.4c-0.2-0.6,0.1-0.7,0.5-1.2c0.8,1.8,1.5,3.6,2,5.5L41.1,87.1z"/>
	<path class="st2" d="M46.7,37.9l0.6,6c0.1,0.3-0.1,0.5-0.3,0.6l0,0c-0.5,0.1-0.4-0.2-0.5-0.5C46.2,42,46.3,39.9,46.7,37.9z"/>
	<path class="st2" d="M27.5,69.8l-3.9-6.7c0,0,0-0.1,0.1-0.5c1.6,2.2,3,4.5,4.1,7L27.5,69.8z"/>
	<path class="st2" d="M72.6,61.9c-1-0.1-1.2,0.9-1.9,1.2c-0.6,0.4-0.5,0.6-0.9,0.4c-0.2-0.1-0.3-0.3-0.4-0.5
		c-0.1-0.5,0.4-0.5,0.7-0.7c1-0.5,2-1.2,2.9-2c0.1-0.1,0.2-0.4,0.5-0.1s0,0.4-0.1,0.5S72.5,61.2,72.6,61.9L72.6,61.9z"/>
	<path class="st2" d="M27.1,81.1c-1.7-1.1-3.3-2.6-4.5-4.2C24.5,77.8,26,79.3,27.1,81.1z"/>
	<path class="st2" d="M36.1,89.3l-2.6-1.7c-0.2-0.1-0.6-0.2-0.5-0.6s0.4-0.4,0.6-0.6c0.2-0.2,0.5,0,0.7,0.2l2,2.5L36.1,89.3z"/>
	<path class="st2" d="M68.4,51.9c0.1-0.2-0.4-0.5,0-0.7s0.5,0,0.7,0.4l2,3c0.5,0.7,0,0.7-0.5,0.7l0,0c0.1-0.2,0-0.4-0.2-0.2l0,0
		c0.1-0.6-0.1-1-0.7-1l0,0c0.2-0.4,0-0.5-0.2-0.5l0,0c0.1-0.3-0.1-0.7-0.5-0.7l0,0l0,0c0-0.3-0.2-0.6-0.5-0.7L68.4,51.9z"/>
	<path class="st2" d="M75.6,63.4l-2.7,3.2c-0.1,0.2-0.4,0-0.5-0.1c-0.2-0.1-0.2-0.3-0.1-0.5l0.1-0.1c1.1-0.8,2.1-1.8,3-2.7
		L75.6,63.4z"/>
	<path class="st2" d="M71.5,54l-1.7-2.5c-0.1-0.2-0.4-0.5,0-0.6s0.5,0,0.6,0.2C71.1,51.9,71.4,52.9,71.5,54z"/>
	<path class="st2" d="M58.7,99.5c0.7-0.9,1.1-2.4,3.1-1.7c-0.9,0.7-1.9,1.4-2.9,2L58.7,99.5z"/>
	<path class="st2" d="M51.8,66l1.1-5.6C52.9,62.3,52.5,64.2,51.8,66z"/>
	<path class="st2" d="M54.7,99.2l-1.6,2.4C52.5,99.8,52.8,99.5,54.7,99.2z"/>
	<path class="st2" d="M56.3,84.8c0.6-1.1,0.9-2.4,2.2-2.9l-2,3.1L56.3,84.8z"/>
	<path class="st2" d="M72.5,64.6c0.1-0.5,0.7-0.6,0.6-1.1l0,0c0.2-0.1,0.5-0.1,0.2-0.5l0,0c0.5,0.1,0.6,0,0.5-0.5l0,0
		c0.2,0.4,0.7-0.2,1,0.1C74.2,63.4,73.4,64.2,72.5,64.6L72.5,64.6z"/>
	<path class="st2" d="M64.5,91.2c-0.6,0.6-1.1,1.2-2,1.6C63,90.9,63.5,90.6,64.5,91.2z"/>
	<path class="st2" d="M57.8,84.7c0.3-1,0.8-1.9,1.6-2.6C59.2,83.1,58.6,84.1,57.8,84.7z"/>
	<path class="st2" d="M53.4,57.6c0.1-1-0.4-2.1,0.4-3.2C53.9,55.5,53.8,56.6,53.4,57.6z"/>
	<path class="st2" d="M35,85.3l1.5,2l-0.2,0.2c-0.6-0.6-1.2-1.3-1.6-2L35,85.3z"/>
	<path class="st2" d="M76.9,58.5l-1,1.6C75.5,59.1,76.2,58.7,76.9,58.5z"/>
	<path class="st2" d="M76.6,57.1c-0.3,0.7-0.9,1.3-1.6,1.6C75.3,58,75.8,57.4,76.6,57.1L76.6,57.1z"/>
	<path class="st2" d="M33.1,80.1c-0.6-0.5-0.9-1.2-1-2C32.7,78.5,33.1,79.3,33.1,80.1z"/>
	<path class="st2" d="M77.5,59c-0.1,0.5-0.4,0.9-0.7,1.2h-0.1C76.8,59.7,77.1,59.3,77.5,59L77.5,59z"/>
	<path class="st2" d="M55.5,66.7c-0.1,0.2-0.2,0.6-0.7,0.7s0.2-0.6,0.6-0.9L55.5,66.7z"/>
	<path class="st2" d="M75.1,68.2c-0.1,0.4-0.4,0.7-0.7,0.7l0,0C74.4,68.6,74.7,68.2,75.1,68.2z"/>
	<path class="st2" d="M31.5,76.7c0.3,0.2,0.5,0.5,0.6,0.9H32C31.7,77.4,31.5,77,31.5,76.7L31.5,76.7z"/>
	<path class="st2" d="M76.7,60.2c-0.1,0.2-0.2,0.6-0.6,0.7c-0.4,0.1,0.1-0.6,0.4-0.9L76.7,60.2z"/>
	<path class="st2" d="M48.1,84.7c0.1-0.3,0.3-0.6,0.5-0.7l0.2,0.2l-0.5,0.7L48.1,84.7z"/>
	<path class="st2" d="M77.4,58.9c0-0.3,0.2-0.5,0.4-0.6c0.2,0.4,0,0.6-0.2,0.7L77.4,58.9z"/>
	<path class="st2" d="M21.9,59.9c0.3,0.1,0.4,0.4,0.4,0.7C21.9,60.4,21.7,60.1,21.9,59.9z"/>
	<path class="st2" d="M22.6,61.1c0.2,0.1,0.4,0.4,0.5,0.7C23.2,62.2,22.6,61.4,22.6,61.1z"/>
	<path class="st2" d="M33.3,84.1L33,84.3h-0.2l0.4-0.4C33.2,83.7,33.3,83.7,33.3,84.1z"/>
	<path class="st2" d="M23.4,62.1l0.2,0.4h-0.1l-0.2-0.4H23.4z"/>
	<path class="st2" d="M21.9,59.9c-0.2,0.1-0.4-0.1-0.4-0.2h0.1c0.2,0,0.2,0.2,0.4,0.4L21.9,59.9z"/>
	<path class="st2" d="M15.5,66.4c-0.4,0.1-0.5-0.1-0.5-0.5h0.1C15.3,66,15.5,66.3,15.5,66.4L15.5,66.4z"/>
	<path class="st2" d="M38.2,88.4c0.2,0.1,0.4,0.3,0.4,0.5h-0.1C38.3,88.8,38.1,88.6,38.2,88.4L38.2,88.4z"/>
	<path class="st2" d="M36.3,89.2c0.3,0.2,0.4,0.5,0.2,0.7L36,89.3L36.3,89.2z"/>
	<path class="st2" d="M41.7,84.9L41.7,84.9z"/>
	<path class="st2" d="M25,80.3c0.2,0.1,0.5,0.2,0.2,0.4s-0.4-0.1-0.5-0.2L25,80.3z"/>
	<path class="st2" d="M2.8,80.3c0,0.2,0,0.4-0.2,0.4H2.4L2.8,80.3C2.8,80.2,2.8,80.3,2.8,80.3z"/>
	<path class="st2" d="M49.4,41.8c0.2,0.1,0.2,0.2,0.1,0.6L49.4,41.8L49.4,41.8z"/>
	<path class="st2" d="M55.7,68.3c-0.1,0.1-0.2,0.5-0.5,0.4C55,68.6,55.3,68.3,55.7,68.3L55.7,68.3z"/>
	<path class="st2" d="M47.6,94.5L47.6,94.5z"/>
	<path class="st2" d="M37.9,88.1l0.2,0.5H38L37.9,88.1L37.9,88.1z"/>
	<path class="st2" d="M3.4,78.7v-0.4h0.1L3.4,78.7L3.4,78.7z"/>
	<path class="st2" d="M54.8,69.2L54.8,69.2z"/>
	<path class="st2" d="M53.8,69L53.8,69z"/>
	<path class="st2" d="M14.5,65.5L14.5,65.5z"/>
	<path class="st2" d="M41.3,86.9c0.1,0.1,0.2,0.4,0.1,0.4s-0.1-0.1-0.2-0.2L41.3,86.9z"/>
	<path class="st2" d="M2.6,80.2v-0.4h0.1l-0.2,0.4H2.6z"/>
	<path class="st2" d="M71.9,65.5c-0.1-0.2-0.1-0.4,0.1-0.5h0.1l-0.2,0.2V65.5z"/>
	<path class="st2" d="M16.6,54.1L16.6,54.1z"/>
	<path class="st2" d="M16.6,68.7l0.4,0.4l-0.2,0.2L16.5,69L16.6,68.7z"/>
	<path class="st2" d="M23.5,65v-0.4h0.1l0.2,0.4H23.5z"/>
	<path class="st2" d="M54,68.5c0.1,0.2,0,0.4-0.2,0.5l0,0l0,0C53.7,68.8,53.8,68.6,54,68.5L54,68.5z"/>
	<path class="st2" d="M46.4,100.7v0.2h-0.1L46.4,100.7L46.4,100.7z"/>
	<path class="st0" d="M72.1,17.7c0.2,0.1,0.2,0.2,0.2,0.5C72.4,18.5,72.1,17.8,72.1,17.7z"/>
	<path class="st0" d="M23.9,61.1c0.2,0.1,0.2,0.2,0.2,0.5l0,0C23.9,61.5,23.8,61.3,23.9,61.1z"/>
	<path class="st2" d="M31.6,84.3L31.6,84.3z"/>
	<path class="st0" d="M16.5,57.9l0.2,0.2h-0.1v-0.4L16.5,57.9z"/>
	<path class="st2" d="M16.5,67.7c-0.2-0.1-0.3-0.3-0.2-0.5l0,0C16.4,67.3,16.6,67.5,16.5,67.7L16.5,67.7z"/>
	<path class="st2" d="M8.3,70.5c0,0.1,0,0.4-0.2,0.2c-0.2-0.1,0-0.2,0.1-0.4L8.3,70.5z"/>
	<path class="st2" d="M31.1,76.2c0.2,0.1,0.2,0.2,0.2,0.5l0,0C31.1,76.7,31,76.4,31.1,76.2L31.1,76.2z"/>
	<path class="st2" d="M12.1,97.2c-0.1,0.1-0.2,0.2-0.5,0.1l0.2-0.4L12.1,97.2z"/>
	<path class="st2" d="M65.3,94.3H65c0.1-0.1,0.2-0.1,0.2,0.1v-0.1H65.3z"/>
	<path class="st2" d="M17,60.6h0.1C17,60.7,16.9,60.6,17,60.6L17,60.6z"/>
	<path class="st2" d="M71.6,57.1l-0.2-0.2h0.1v0.4L71.6,57.1z"/>
	<path class="st2" d="M55.3,101.2L55.3,101.2l-0.1-0.2L55.3,101.2z"/>
	<path class="st2" d="M22.6,61.1h-0.1v0.2L22.6,61.1z"/>
	<path class="st2" d="M76.6,57.1L76.6,57.1c0.2,0.1,0.1,0.1,0,0.2V57.1z"/>
	<path class="st2" d="M71.6,57.1L71.6,57.1z"/>
	<path class="st2" d="M58.9,99.7h-0.2v-0.2L58.9,99.7z"/>
	<path class="st2" d="M11.4,103.9L11.4,103.9z"/>
	<path class="st2" d="M36.8,86.4L36.8,86.4z"/>
	<path class="st0" d="M23.9,45L23.9,45z"/>
	<path class="st2" d="M37.1,87.1v-0.2h0.1L37.1,87.1z"/>
	<path class="st2" d="M77.1,58L77.1,58z"/>
	<path class="st2" d="M71.5,55.5L71.5,55.5z"/>
	<path class="st2" d="M39.3,90.2L39.3,90.2z"/>
	<path class="st2" d="M37.3,87.3l-0.2-0.2h0.1L37.3,87.3L37.3,87.3z"/>
	<path class="st2" d="M38.9,89.6L38.9,89.6C38.8,89.7,38.9,89.6,38.9,89.6L38.9,89.6z"/>
	<path class="st2" d="M30.6,87.4L30.6,87.4L30.6,87.4L30.6,87.4z"/>
	<path class="st2" d="M37.4,87.3v0.2h-0.1L37.4,87.3z"/>
	<path class="st2" d="M30,87.8L30,87.8z"/>
	<path class="st2" d="M11.9,59.2c-0.1-0.1-0.2-0.1,0-0.2l0,0V59.2z"/>
	<path class="st2" d="M38.9,89.6L38.9,89.6l-0.1,0.2L38.9,89.6z"/>
	<path class="st2" d="M36.6,87.9L36.6,87.9z"/>
	<path class="st2" d="M37.8,88.1v-0.2c0.1,0,0.1,0.1,0.2,0.1L37.8,88.1z"/>
	<polygon class="st2" points="21.2,59 21.2,59 21.1,59 	"/>
	<path class="st2" d="M31.1,76.2H31v0.2L31.1,76.2z"/>
	<path class="st2" d="M16.2,67.2c-0.1,0-0.2-0.1-0.2-0.2l0,0L16.2,67.2z"/>
	<path class="st2" d="M75.9,67.5v-0.2C76.1,67.4,75.9,67.4,75.9,67.5L75.9,67.5z"/>
	<path class="st2" d="M75.9,67.5l-0.2,0.2l0,0C75.6,67.6,75.7,67.5,75.9,67.5z"/>
	<path class="st2" d="M16.7,68l-0.2-0.2l0,0C16.6,67.7,16.7,67.8,16.7,68L16.7,68z"/>
	<path class="st2" d="M54.4,67.8h0.2V68L54.4,67.8z"/>
	<path class="st2" d="M75.2,67.8h0.4L75.4,68L75.2,67.8z"/>
	<path class="st2" d="M16,68.2c-0.1-0.1-0.2-0.1,0-0.2l0,0V68.2z"/>
	<path class="st2" d="M19.1,70.2h0.2C19.2,70.4,19.2,70.2,19.1,70.2L19.1,70.2z"/>
	<path class="st2" d="M19,70.2L18.7,70l0,0C18.9,70,19,70,19,70.2z"/>
	<path class="st2" d="M18.5,69.7c0.1,0,0.2,0,0.2,0.2l0,0C18.6,70,18.5,69.9,18.5,69.7L18.5,69.7z"/>
	<path class="st2" d="M18.6,69.7c-0.1,0-0.2-0.1-0.2-0.2l0,0l0,0C18.6,69.5,18.6,69.6,18.6,69.7z"/>
	<path class="st2" d="M18.4,69.5l-0.2-0.2l0,0C18.2,69.2,18.4,69.3,18.4,69.5z"/>
	<path class="st2" d="M74.4,69L74.4,69z"/>
	<path class="st2" d="M17,68.2L16.7,68l0,0C16.9,68,17,68.1,17,68.2L17,68.2z"/>
	<path class="st2" d="M18.1,69.2H18C18.2,69.1,18.1,69.2,18.1,69.2L18.1,69.2z"/>
	<path class="st2" d="M17.2,68.5h0.2c-0.1,0.2-0.1,0-0.1-0.1L17.2,68.5z"/>
	<path class="st2" d="M16.5,68.8l-0.2-0.2h0.1l0.2,0.2H16.5z"/>
	<path class="st2" d="M54.5,68l-0.2,0.2h-0.1L54.5,68L54.5,68z"/>
	<path class="st2" d="M54,68.5l0.2-0.2h0.1C54.4,68.3,54.3,68.5,54,68.5z"/>
	<path class="st2" d="M17.2,68.5L17,68.2l0,0C17.1,68.2,17.2,68.3,17.2,68.5L17.2,68.5z"/>
	<path class="st2" d="M16.1,68.1l0.2,0.2h-0.1L16,68.1H16.1z"/>
	<path class="st2" d="M75.1,68.2c-0.1-0.1,0-0.2,0.1-0.4h0.1c0,0.1-0.1,0.2-0.2,0.2l0,0V68.2z"/>
	<path class="st2" d="M4.8,84.6c-0.1,0.1-0.1,0.1-0.2,0H4.8z"/>
	<path class="st2" d="M5.1,84.4l-0.2,0.2H4.6l0.2-0.2H5.1z"/>
	<path class="st0" d="M24.1,61.6L24.1,61.6z"/>
	<path class="st0" d="M63.8,61.6L63.8,61.6z"/>
	<path class="st2" d="M55.9,83.4h0.2v0.2L55.9,83.4z"/>
	<polygon class="st2" points="48.8,81.9 48.8,81.8 48.9,81.8 	"/>
	<path class="st2" d="M72.6,64.7c-0.1,0.1-0.2,0.2-0.4,0.1v-0.2L72.6,64.7z"/>
	<path class="st2" d="M82,79.4v0.2h-0.1L82,79.4z"/>
	<path class="st2" d="M3.1,79.3L3.1,79.3z"/>
	<path class="st2" d="M71.9,65.4L71.9,65.4z"/>
	<path class="st2" d="M3.5,78.8C3.5,78.9,3.5,79,3.5,78.8C3.3,78.8,3.4,78.7,3.5,78.8L3.5,78.8z"/>
	<path class="st2" d="M64,78.7L64,78.7c0.2,0.1,0.2,0.2,0.1,0.2L64,78.7z"/>
	<path class="st2" d="M15,66c-0.1,0-0.2-0.1-0.1-0.2H15V66z"/>
	<path class="st2" d="M76.6,66.5L76.6,66.5z"/>
	<path class="st2" d="M15.5,66.5c0.1,0,0.2,0.1,0.2,0.2l0,0l0,0C15.6,66.7,15.5,66.6,15.5,66.5z"/>
	<path class="st2" d="M32,77.6c0.1,0.1,0.1,0.2,0,0.4l-0.2-0.2L32,77.6z"/>
	<path class="st2" d="M3.8,78L3.8,78z"/>
	<path class="st2" d="M55.4,66.5h0.2c0.1,0.1,0,0.2-0.1,0.4L55.4,66.5z"/>
	<path class="st2" d="M76.6,66.4c0,0.1-0.1,0.2-0.2,0.2l0,0L76.6,66.4z"/>
	<path class="st2" d="M16,67c-0.1,0-0.2-0.1-0.2-0.2l0,0L16,67z"/>
	<path class="st2" d="M76.4,66.6L76.4,66.6C76.3,66.6,76.3,66.6,76.4,66.6L76.4,66.6L76.4,66.6z"/>
	<path class="st0" d="M38.6,14.6L38.6,14.6z"/>
	<path class="st1" d="M69.6,53.9c0.6,0,0.9,0.4,0.7,1C70,54.7,69.7,54.3,69.6,53.9z"/>
	<path class="st1" d="M68.4,51.9c0.3,0.1,0.5,0.4,0.5,0.7C68.3,52.6,68.1,52.3,68.4,51.9z"/>
	<path class="st1" d="M68.9,52.6c0.3,0.1,0.6,0.4,0.5,0.7l0,0C68.8,53.4,68.8,53,68.9,52.6z"/>
	<path class="st1" d="M69.4,53.4c0.2,0.1,0.5,0.2,0.2,0.5C69.4,54.1,69.3,53.6,69.4,53.4z"/>
	<path class="st1" d="M70.4,54.9c0.2-0.1,0.4,0,0.2,0.2C70.5,55.4,70.4,55,70.4,54.9z"/>
	<path class="st1" d="M20,71.5c0.1,0.1,0.4,0.2,0.2,0.4c-0.1,0.1-0.4,0-0.5-0.2L20,71.5z"/>
	<path class="st1" d="M19.7,71.7l-0.4-0.4l0.2-0.2l0.4,0.4L19.7,71.7z"/>
	<path class="st1" d="M73.9,62.4c0.1,0.5,0,0.6-0.5,0.5C73.4,62.6,73.6,62.4,73.9,62.4L73.9,62.4z"/>
	<path class="st1" d="M73.4,62.9c0.2,0.4,0,0.5-0.2,0.5S73.1,63,73.4,62.9z"/>
</g>
</svg>
