<?xml version="1.0" encoding="utf-8"?>
<!-- Generator: Adobe Illustrator 21.0.2, SVG Export Plug-In . SVG Version: 6.00 Build 0)  -->
<svg version="1.1" id="master-artboard" xmlns="http://www.w3.org/2000/svg" xmlns:xlink="http://www.w3.org/1999/xlink" x="0px"
	 y="0px" viewBox="0 0 150 150.5" style="enable-background:new 0 0 150 150.5;" xml:space="preserve">
<style type="text/css">
	.st0{fill:#8B5C29;}
	.st1{fill:#5A3D1C;}
	.st2{fill:#FFFFFF;}
</style>
<g transform="matrix(1, 0, 0, 1, 0, 0)">
	<g>
		<g>
			<g>
				<path d="M16.8,56.2c-2.9,2.3-2.7,5,0.4,8c-3,0.9-2.9,2.9,0.3,5.8c0.4,0.2,0.6,0.2,0.9,0.4c0.3,0.1,0.5,0.2,0.8,0.3
					c1.7,0.8,3.7,2,6,3.6c2.2-8.2,8-15,17-20.1c7.9-4.7,16.8-7.1,26.5-7.3c4.1,0,8.2,0.3,12.5,1.1c14.8,2.4,26.6,8.6,35,18.6
					c6.9,7.7,9.9,16.1,9.5,24.8c2.9-0.9,5.3-1.4,7.2-1.6c0.3,0.1,0.6,0,0.7,0c0.7,0,1.2-0.1,1.7-0.1c4.1-1.5,4.8-3.3,2.3-5.2
					c3.9-1.8,5-4.3,3-7.4c-0.3-0.3-0.1-1.1,0.2-2.4c0.6-1.8-0.1-3-2.1-3.7c2.7-3,2.2-5-1.5-6c1-3.9-0.5-6.2-4.5-7
					c-0.7-0.2-1.3-0.4-1.9-0.4c1.6-3.8,0.9-6.3-2.2-7.7c1.1-3.4-0.2-5.5-3.7-6.4c-0.7-0.1-1.9,0.1-3.4,0.6c0.9-4.2-0.6-5.8-4.9-4.6
					c-0.3-3.4-3-5.7-8.2-6.8c0.6-3.2-2.2-5-8.7-5.5c-1.8-2.9-4.6-3.6-8.1-2.2c-0.1-0.2-0.2-0.3-0.4-0.4c-0.3-0.1-0.7-0.3-0.8-0.4
					c-1.3-1.4-2.7-2.2-4.1-2.6c-1.5-0.1-3,0.3-4.7,1.2c-0.2,0.1-0.6,0.2-0.9,0.2c-0.1,0-0.3,0.1-0.5,0.2c-2.8-2.4-5.7-2.6-8.3-0.5
					c-4-1.6-7.9-0.4-12,3.2c-3.9-1.2-6.6-0.2-8,2.9c-3.7-2.5-5.7-1.5-6.2,2.7c-1.3-1-3-1.2-4.5-1.1c-1.7,0.3-2.8,2-3.1,5.4
					c-4.1-0.6-5.7,0.8-4.8,3.9c-1.2,0.9-2.1,1.3-2.8,1.3c-4-0.5-6.2,1.2-6.6,5.2c-2.7-0.2-4,0.7-4.1,2.5c-0.1,0.8,0.3,1.7,0.7,2.7
					c-2.2,0.1-3.2,1-3.2,2.8C17.3,55.2,17.2,56,16.8,56.2z"/>
			</g>
			<g>
				<path class="st0" d="M9.2,69.1c-3.1,0.4-5,1.8-6,4c-0.8,2.1-0.4,4.6,1.5,7.2c1.8,2.5,4.4,4.7,7.8,6.1c0.2,0.2,0.5,0.2,0.7,0.4
					c1.1,0.4,2.3,0.7,3.4,1c1.9,0.4,3.9,0.5,5.6,0.2c0.8,0,1.3-0.2,2-0.4c0.9,7.7,4.8,14.9,11.6,21.6c3,2.9,6.2,5.4,9.7,7.6
					c2,0.4,3.9,0.9,5.9,1.2c15.6,2.6,29.4,1.6,41.8-3c5.1-1.9,9.3-4.1,12.7-6.8c-1.7,0.8-3.7,1.4-6.3,2c-1.4,0.3-2.7,0.5-4.2,0.7
					c-4,0.6-8,0.9-11.8,1c-2.6-0.1-5.2-0.2-7.6-0.4c-1.3-0.2-2.5-0.3-3.9-0.5c-1.3-0.2-2.6-0.6-4-0.8c-2.4-0.5-4.8-1.3-7.2-2
					c-3.5-1.3-7.2-2.9-10.9-4.8c-0.8-0.4-1.7-0.9-2.4-1.3c-0.5-0.3-1-0.5-1.5-0.7c-2.6-1.6-4.6-3.2-6.2-4.6
					c-2.8-2.9-3.4-5.6-1.9-8.1c0.2-0.2,0.3-0.4,0.5-0.7c1.9-2.4,4.8-2.4,8.7,0.2c1.2,0.7,2.4,1.6,3.6,2.7c1.1,0.9,2.1,1.8,3.2,2.6
					c0.6,0.5,1.2,0.9,1.8,1.4c3,2,5.8,3.6,8.8,4.8c1.6,0.6,3.2,1.1,5,1.6c1.4,0.3,2.8,0.7,4.2,1c1.3,0.2,2.5,0.4,3.9,0.4
					c1.7,0.2,3.5,0.2,5.4,0.2c3.2-0.2,6.4-0.7,9.8-1.8c2-0.5,3.8-1.2,5.9-2.1c1.6-0.6,3-1.1,4.4-1.5c4.4-1.1,7.1-0.2,8.1,2.7
					c0.1,0.3,0.2,0.5,0.2,0.8c0.1,0.6,0.1,1.2,0.1,1.7c1.9-2.6,3.3-5.7,4-8.9c2.3-10-1.8-19.8-12.2-29.2c-0.2-0.2-0.5-0.3-0.7-0.7
					c-2-0.6-4.1-1.1-6.6-1.1c2.5,0,4.6,0.5,6.6,1.1c-9-7.8-20.3-13.5-34-16.7c-9.7,0.2-18.7,2.6-26.5,7.3c-9,5.1-14.7,11.9-17,20.1
					c-2.4-1.6-4.4-2.8-6-3.6c-0.3-0.1-0.5-0.2-0.8-0.3c-0.2-0.2-0.5-0.2-0.9-0.4c-1-0.3-2.1-0.6-3-0.8C12.7,68.8,10.9,68.7,9.2,69.1
					z M22.5,78.1c-1.5-0.9-3-1.4-4.6-1.9c-4.6,1.7-4.9,3.7-0.9,5.8c-4-2-3.7-4,0.9-5.8c-4-1.2-7.3-1-10.2,0.7
					c2.9-1.7,6.2-1.9,10.2-0.7C19.5,76.7,21,77.2,22.5,78.1z M79.5,80.3c-0.7-0.1-1.3-0.2-1.8-0.2c-8.8,0.1-12.6,2.2-11.3,6.3
					c1.3,4.1,7.5,5.6,18.6,4.6c-11.1,1-17.2-0.5-18.6-4.6c-1.2-4,2.6-6.2,11.3-6.3l1.2-6.9l-1.2,6.9C78.2,80.1,78.8,80.2,79.5,80.3z
					 M105.2,84.5c-5.3-0.2-8.6-1.6-10.4-3.9C96.6,82.9,100,84.3,105.2,84.5z M107.9,79.8c-3.1-3.9-7.6-5.9-13.2-5.5
					C100.3,73.9,104.7,75.8,107.9,79.8z M45.3,60.2c5.2-4.3,11.4-5.3,18.1-3.2C56.8,54.9,50.5,55.9,45.3,60.2z M47.8,74.9
					c4.9,1.5,8.7,1.3,10.9-0.4C56.5,76.2,52.8,76.4,47.8,74.9z M46.8,69.5c4.3-2.7,9.1-3.1,14.3-0.9C55.9,66.4,51,66.8,46.8,69.5z
					 M83.7,116.3c-10.8,2.1-20.5,0.5-29-4.9C63.2,116.9,72.9,118.5,83.7,116.3z"/>
			</g>
			<g>
				<path class="st1" d="M115.6,93.4c-0.7,3.3-2.1,6.3-4,8.9c-0.2,2.2-1.8,3.9-4.5,5.2c-0.4,0.2-0.7,0.4-1.2,0.5
					c-3.3,2.7-7.6,5-12.7,6.8c-12.4,4.6-26.2,5.6-41.8,3c-2-0.3-3.9-0.8-5.9-1.2c4.2,2.6,8.7,4.6,13.7,6.2c2.9,0.9,5.9,1.7,9.1,2.2
					c3,0.5,5.7,0.7,8.5,0.8c9.9,0.5,19.1-1.4,27.6-5.4c8.6-4.2,14.5-9.7,18-16.7c0.6,0.4,1.1,0.8,1.8,1.2c1.7,0.9,3.4,1.4,5.5,1.6
					c1,0.2,2.2,0.2,3.4,0.2c0.3-0.1,0.6,0,0.8-0.1c2.2-0.1,4.2-0.7,5.9-1.4c1.3-0.5,2.5-1.2,3.6-1.9c2.5-1.8,3.8-4,3.6-6.3
					c-0.1-2.3-1.6-4.3-4.3-5.7c0-0.1,0-0.1-0.1-0.1c-2.1-1-4.5-1.7-7.3-1.7c-0.4,0.1-1,0.1-1.7,0.1c-0.1,0-0.4,0.1-0.7,0
					c-2,0.2-4.3,0.7-7.2,1.6c0.4-8.7-2.6-17-9.5-24.8c-8.4-9.9-20.2-16.2-35-18.6c-4.2-0.8-8.4-1.1-12.5-1.1
					c13.7,3.3,25,8.9,34,16.7c4,1.5,7.2,4.1,9.6,7.8c-2.4-3.8-5.6-6.3-9.6-7.8c0.2,0.3,0.4,0.5,0.7,0.7
					C113.9,73.6,117.9,83.4,115.6,93.4z M140.3,98c-1.9-1.7-4.6-2.5-8.1-2.7c3.8,3.2,3.4,5.1-1,5.7c4.5-0.6,4.8-2.6,1-5.7
					c-1.5,0-3.1,0-5,0.3c1.8-0.3,3.5-0.3,5-0.3C135.7,95.5,138.5,96.3,140.3,98c0.6,0.3,1,0.8,1.3,1.2
					C141.3,98.8,140.9,98.4,140.3,98z"/>
			</g>
			<g>
				<path class="st2" d="M47.3,87.8c-3.9-2.6-6.8-2.6-8.7-0.2c-0.2,0.2-0.3,0.4-0.5,0.7c-1.5,2.6-0.9,5.3,1.9,8.1L47.3,87.8z"/>
			</g>
			<g>
				<path class="st2" d="M50.9,90.6c-1.2-1.1-2.4-2-3.6-2.7l-7.2,8.6c1.5,1.5,3.5,3,6.2,4.6c0.5,0.2,1,0.4,1.5,0.7
					c0.7,0.5,1.6,1,2.4,1.3l5.8-8.6c-0.6-0.5-1.2-0.9-1.8-1.4C53,92.4,51.9,91.5,50.9,90.6z"/>
			</g>
			<g>
				<path class="st2" d="M61,108c2.3,0.7,4.8,1.5,7.2,2c1.4,0.2,2.7,0.6,4,0.8l1.6-8.9c-1.4-0.2-2.8-0.6-4.2-1
					c-1.8-0.4-3.4-0.9-5-1.6L61,108z"/>
			</g>
			<g>
				<path class="st2" d="M61,108l3.7-8.6c-3.1-1.1-5.9-2.8-8.8-4.8l-5.8,8.6C53.8,105.1,57.4,106.7,61,108z"/>
			</g>
			<g>
				<path class="st2" d="M73.8,101.8l-1.6,8.9c1.4,0.2,2.7,0.3,3.9,0.5c2.4,0.3,5,0.4,7.6,0.4l-0.6-9.3c-1.8,0.1-3.7,0-5.4-0.2
					C76.4,102.3,75.1,102.1,73.8,101.8z"/>
			</g>
			<g>
				<path class="st2" d="M92.8,100.7c-3.4,1-6.6,1.6-9.8,1.8l0.6,9.3c3.8-0.1,7.7-0.4,11.8-1L92.8,100.7z"/>
			</g>
			<g>
				<path class="st2" d="M99.6,110c2.6-0.5,4.6-1.2,6.3-2c0.4-0.2,0.7-0.4,1.2-0.5l-4-10.5c-1.4,0.4-2.9,0.9-4.4,1.5
					c-2,0.9-3.9,1.6-5.9,2.1l2.6,10.1C96.9,110.5,98.3,110.3,99.6,110z"/>
			</g>
			<g>
				<path class="st2" d="M111.6,102.3c0-0.5,0-1.1-0.1-1.7c-0.1-0.3-0.2-0.5-0.2-0.8c-1-2.9-3.7-3.9-8.1-2.7l4,10.5
					C109.8,106.2,111.4,104.5,111.6,102.3z"/>
			</g>
			<g>
				<path d="M17.5,72.9c0.8,0,1.6-0.3,2.2-1c1.1-1.2,1-3-0.2-4.1c-0.4-0.4-0.8-0.7-1-1c0.8-0.4,1.4-1.1,1.6-1.9c0.2-1-0.1-2-0.8-2.7
					c-1.2-1.2-1.6-2-1.6-2.4c0-0.3,0.3-0.7,0.8-1.1c1.5-1,1.7-2.8,1.8-4.5c0-0.1,0-0.1,0-0.2c0.1,0,0.2,0,0.4,0c1,0,1.9-0.5,2.4-1.3
					c0.5-0.8,0.6-1.8,0.2-2.7c-0.3-0.6-0.4-0.9-0.4-1.1c0.2,0,0.5,0,1,0c1.6,0.1,2.9-1.1,3.1-2.6c0.1-0.6,0.2-1.8,0.8-2.2
					c0.4-0.4,1.3-0.5,2.5-0.3c0.2,0,0.3,0,0.5,0c1.3-0.1,2.7-0.6,4.4-2c1-0.7,1.4-2,1-3.1c0-0.1-0.1-0.2-0.1-0.3
					c0.3,0,0.9,0,1.7,0.1c0.8,0.1,1.6-0.1,2.2-0.6c0.6-0.5,1-1.2,1.1-2c0.2-2,0.6-2.6,0.8-2.8c0.9-0.1,1.8,0.1,2.4,0.5
					c0.8,0.6,1.9,0.7,2.9,0.3c0.9-0.4,1.6-1.3,1.7-2.3c0.1-0.7,0.2-1.2,0.3-1.5c0.3,0.1,0.7,0.3,1.3,0.8c0.7,0.5,1.6,0.6,2.4,0.4
					c0.8-0.2,1.5-0.8,1.8-1.6c0.4-0.9,1.1-2.4,4.4-1.3c1,0.3,2,0.1,2.8-0.6c4.4-3.9,7.2-3.4,9-2.7c1,0.4,2.1,0.2,2.9-0.4
					c1.1-0.9,2.5-1.5,4.6,0.4c1,0.8,2.3,0.9,3.3,0.3c1-0.3,1.7-1.2,1.9-2.2c0.3-1.6-0.8-3.1-2.4-3.3c-0.1,0-0.2,0-0.2,0
					c-3.1-2.1-6.4-2.3-9.5-0.6c-4-1.1-8.2,0-12.3,3.2c-3.4-0.7-6.2,0.1-8.2,2.3c-1.3-0.5-2.9-0.7-4.5,0c-1.1,0.5-2,1.4-2.6,2.7
					c-0.9-0.2-1.9-0.2-2.9-0.1c-0.1,0-0.1,0-0.2,0c-2.5,0.4-4.2,2.2-5,5.2c-1.5,0.1-3.2,0.6-4.4,1.9c-0.6,0.7-1.2,1.8-1.2,3.4
					c-2.5-0.2-4.5,0.3-6.1,1.6c-1.1,0.9-2,2.2-2.5,3.7c-1.2,0.2-2.2,0.7-3,1.4c-0.7,0.7-1.6,1.8-1.6,3.7c0,0.3,0,0.6,0,0.8
					c-1.6,0.9-2.5,2.5-2.5,4.7c0,0.2,0,0.4-0.1,0.7c-1.6,1.5-2.5,3.2-2.6,5c-0.1,1.4,0.3,2.8,1.1,4.1c-0.4,0.6-0.7,1.2-0.8,1.7
					c-0.7,3.2,2.4,5.9,3.4,6.8C16.1,72.6,16.8,72.9,17.5,72.9z"/>
			</g>
			<g>
				<path d="M20,91c0.8,0,1.7-0.1,2.5-0.2c1.1,0,1.9-0.3,2.7-0.6c1.5-0.6,2.2-2.2,1.7-3.7c-0.6-1.5-2.2-2.2-3.7-1.7
					c-0.5,0.2-0.7,0.2-1,0.2c-0.2,0-0.4,0-0.6,0.1c-1.3,0.2-2.9,0.2-4.4-0.2c-0.1,0-0.1,0-0.2,0c-0.9-0.2-1.8-0.4-2.7-0.7
					c-0.2-0.1-0.4-0.2-0.5-0.2l0,0c-0.1-0.1-0.2-0.1-0.3-0.2c-2.7-1.1-4.9-2.9-6.5-5.1c0,0,0-0.1-0.1-0.1c-1.2-1.6-1.6-3.1-1.1-4.4
					c0.2-0.5,1-1.8,3.6-2.2c0.1,0,0.1,0,0.2,0c1.4-0.3,2.7-0.2,4.1,0.1c0.1,0,0.1,0,0.2,0c0.8,0.1,1.7,0.4,2.7,0.7
					c1.5,0.4,3.1-0.4,3.6-2c0.4-1.5-0.4-3.1-2-3.6c-1-0.3-2.2-0.6-3.2-0.8c-2.2-0.5-4.2-0.6-6.3-0.1c-3.9,0.5-6.8,2.5-8.1,5.7
					c0,0.1-0.1,0.1-0.1,0.2c-0.8,2.2-1.2,5.8,1.8,9.9c2.1,3,5.2,5.4,8.8,7c0.2,0.1,0.4,0.2,0.6,0.3l0,0c0.1,0.1,0.3,0.2,0.4,0.2
					c1.3,0.5,2.6,0.8,3.9,1.1C17.4,90.8,18.7,91,20,91z"/>
			</g>
			<g>
				<path d="M7.7,79.8c0.5,0,1-0.1,1.5-0.4c2.2-1.2,4.7-1.4,7.9-0.4c1.5,0.4,3.1-0.4,3.6-2c0.4-1.5-0.4-3.1-2-3.6
					c-4.8-1.4-8.9-1.1-12.5,1c-1.4,0.8-1.8,2.6-1.1,4C5.7,79.2,6.7,79.8,7.7,79.8z"/>
			</g>
			<g>
				<path d="M25.2,77.1c1,0,1.9-0.5,2.4-1.3c0.9-1.3,0.5-3.1-0.8-4c-2.9-1.9-4.8-3-6.4-3.8c-0.2-0.1-0.3-0.1-0.5-0.2
					c-0.1-0.1-0.2-0.1-0.4-0.2c-0.2-0.1-0.4-0.2-0.5-0.2c-0.1,0-0.2-0.1-0.2-0.1c-1.4-0.7-3.2-0.1-3.9,1.3c-0.7,1.4-0.1,3.2,1.3,3.9
					c0.3,0.2,0.5,0.2,0.7,0.3h0c0.2,0.1,0.5,0.2,0.7,0.3c0.1,0.1,0.3,0.1,0.5,0.2c1.7,0.8,3.8,2.2,5.5,3.3
					C24.2,77,24.7,77.1,25.2,77.1z"/>
			</g>
			<g>
				<path d="M17,84.8c1.1,0,2.1-0.6,2.6-1.6c0.7-1.4,0.2-3.2-1.3-3.9c-0.1-0.1-0.2-0.1-0.2-0.1c0.2-0.1,0.5-0.2,0.8-0.3
					c1.5-0.6,2.2-2.2,1.7-3.7c-0.6-1.5-2.2-2.2-3.7-1.7c-1.3,0.5-5.4,2-5.6,5.4c-0.2,3.3,3.2,5,4.4,5.6C16.1,84.7,16.6,84.8,17,84.8
					z"/>
			</g>
			<g>
				<path d="M80.2,25.5c-1.6-0.3-2.6-1.7-2.4-3.3c0.2-1.4,1.4-2.4,2.8-2.4c2-1,4-1.4,5.9-1.3c1.6,0.1,2.8,1.5,2.7,3.1
					s-1.5,2.8-3.1,2.7c-0.9-0.1-1.9,0.2-3.1,0.8c-0.7,0.4-1.5,0.5-2.1,0.5C80.6,25.5,80.4,25.5,80.2,25.5z M79.8,20.1
					c0.1,0,0.1-0.1,0.1-0.1C79.9,20.1,79.9,20.1,79.8,20.1z"/>
			</g>
			<g>
				<path d="M90.7,27.2c-0.7-0.1-1.8-0.6-2.5-1.4c-0.9-1-1.8-1.5-2.7-1.8c-1.5-0.4-2.5-2-2-3.6c0.4-1.5,2-2.5,3.6-2
					c1.8,0.5,3.5,1.5,5.1,3.1c1.3,0.5,2.1,1.8,1.8,3.2c-0.2,1.4-1.5,2.4-2.9,2.4C91,27.2,90.8,27.2,90.7,27.2z M92.7,22.3
					c0-0.1-0.1-0.1-0.1-0.1C92.7,22.2,92.7,22.2,92.7,22.3z"/>
			</g>
			<g>
				<path d="M91.1,27.2c0.6,0,1.2-0.2,1.7-0.6c1.3-1,1.5-2.8,0.6-4c-1.9-2.6-4.3-4-6.9-4.2c-1.6-0.1-3,1-3.1,2.6
					c-0.1,1.6,1,3,2.6,3.1c0.7,0.1,1.6,0.3,2.8,1.9C89.4,26.8,90.3,27.2,91.1,27.2z"/>
			</g>
			<g>
				<path d="M135.3,92.4c0.3,0,0.7-0.1,1-0.2c1.3-0.5,5.2-1.9,5.6-5.2c0.1-0.6,0.1-1.2-0.2-1.9c1.2-1,2.1-2.2,2.4-3.6
					c0.5-1.8,0.3-3.7-0.8-5.6c0.1-0.2,0.1-0.4,0.2-0.6c0.7-2.1,0.2-3.6-0.3-4.5c-0.2-0.3-0.3-0.5-0.6-0.8c0.6-1.3,0.8-2.6,0.4-3.8
					c-0.4-1.3-1.3-2.4-2.7-3.2c0.1-1.7-0.3-3.1-1.1-4.4c-1-1.6-2.6-2.7-4.9-3.4c0.6-3.6-1-5.7-2.6-7c0.1-1.5-0.1-2.9-0.8-4.1
					c-1-1.8-2.9-3-5.5-3.7c-0.1,0-0.2,0-0.2-0.1c-0.3-0.1-0.6-0.1-0.9-0.1c-0.2-1.2-0.7-2.2-1.5-2.9c-1.3-1.2-2.9-1.5-4.3-1.5
					c-1-2.2-3.2-4.4-7.4-5.8c-0.2-0.8-0.6-1.6-1.1-2.2c-1.6-2.1-4.4-3.2-8.9-3.8c-2.3-2.7-5.6-3.6-9.2-2.6c-0.1,0-0.2,0-0.2-0.1
					c-1.6-0.3-3.1,0.8-3.3,2.4c-0.2,1.1,0.2,2.1,1,2.7c0.8,0.9,2.1,1.3,3.2,0.8c2.7-1.1,3.8-0.1,4.5,1.1c0.5,0.8,1.3,1.3,2.2,1.3
					c5,0.4,6,1.5,6.1,1.6c0,0,0.1,0.1,0,0.4c-0.3,1.5,0.7,3,2.2,3.4c5.7,1.3,5.9,3.5,5.9,4.2c0.1,0.8,0.5,1.6,1.2,2.1
					c0.7,0.5,1.6,0.6,2.4,0.4c0.7-0.2,1.2-0.3,1.5-0.3c0,0.3,0,0.8-0.2,1.5c-0.2,1,0.1,2,0.9,2.7c0.7,0.7,1.8,1,2.8,0.7
					c1.3-0.4,1.9-0.5,2.1-0.5c1.2,0.3,1.5,0.7,1.6,0.8c0.2,0.3,0.1,1-0.1,1.8c-0.4,1.4,0.2,2.9,1.6,3.5c1,0.4,2,0.9,0.7,3.9
					c-0.3,0.8-0.3,1.7,0.1,2.5c0.4,0.8,1.2,1.3,2.1,1.5c0.4,0.1,1,0.2,1.3,0.3c0.2,0.1,0.3,0.1,0.4,0.1c1.2,0.2,2,0.6,2.3,1.1
					c0.3,0.4,0.3,1.3,0,2.4c-0.4,1.5,0.5,3.1,2,3.5c0.4,0.1,0.7,0.2,0.9,0.3c-0.1,0.2-0.4,0.5-0.7,1c-0.7,0.7-0.9,1.7-0.7,2.6
					c0.2,1,0.9,1.7,1.8,2c0.2,0.1,0.3,0.1,0.4,0.2c0,0.1,0,0.1-0.1,0.2c-0.4,1.6-0.9,3.4,0.3,4.8c0.3,0.6,0.5,1.1,0.4,1.3
					c-0.1,0.4-0.8,1.1-2.3,1.8c-0.9,0.4-1.6,1.3-1.7,2.4c-0.1,0.8,0.2,1.7,0.8,2.3c-0.3,0.2-0.7,0.3-1.2,0.5
					c-1.5,0.6-2.3,2.2-1.7,3.7C133,91.7,134.1,92.4,135.3,92.4z"/>
			</g>
			<g>
				<path d="M74.8,120.1c3.1,0,6.3-0.3,9.5-1c1.6-0.3,2.6-1.8,2.3-3.4c-0.3-1.6-1.8-2.6-3.4-2.3c-10,2-19,0.5-26.9-4.5
					c-1.3-0.8-3.1-0.4-4,0.9c-0.8,1.3-0.4,3.1,0.9,4C59.7,118.1,66.9,120.1,74.8,120.1z"/>
			</g>
			<g>
				<path d="M77.6,83c1.4,0,2.6-1,2.9-2.4l1.2-6.9c0.3-1.6-0.8-3.1-2.4-3.3c-1.6-0.3-3.1,0.8-3.3,2.4l-1.2,6.9
					c-0.3,1.6,0.8,3.1,2.4,3.3C77.3,83,77.5,83,77.6,83z"/>
			</g>
			<g>
				<path d="M79,83.2l1-5.7c-0.8-0.1-1.6-0.3-2.5-0.2c-1.6,0.1-2.8,1.5-2.7,3.1c0.1,1.6,1.5,2.8,3.1,2.7C78,83,78.6,83.1,79,83.2z"
					/>
			</g>
			<g>
				<path d="M105.2,87.4c1.5,0,2.8-1.2,2.9-2.8c0.1-1.6-1.2-3-2.7-3c-4.1-0.2-7-1.1-8.1-2.7c-1-1.3-2.7-1.6-4-0.6s-1.6,2.7-0.6,4
					c2.3,3.2,6.4,4.8,12.6,5.1C105.1,87.4,105.2,87.4,105.2,87.4z"/>
			</g>
			<g>
				<path d="M125.8,94.2c1.5,0,2.8-1.2,2.9-2.7c0.5-9.6-2.9-18.7-10.2-26.8c-8.9-10.5-21.3-17.1-36.7-19.5c-4-0.8-8.2-1.2-13-1.2
					c0,0,0,0-0.1,0c-10.3,0.2-19.7,2.8-27.9,7.7C31.1,57,24.9,64.4,22.4,73.4c-0.4,1.5,0.5,3.1,2,3.6c1.5,0.4,3.1-0.5,3.6-2
					c2.1-7.5,7.3-13.7,15.6-18.3c0,0,0.1,0,0.1,0c7.3-4.4,15.8-6.7,25.1-6.9c4.4,0,8.3,0.3,11.9,1.1c0,0,0.1,0,0.1,0
					C94.8,53,106,58.9,114,68.4c0,0,0,0,0.1,0.1c6.2,7,9.2,14.6,8.7,22.7c-0.1,1.6,1.1,3,2.7,3C125.6,94.2,125.7,94.2,125.8,94.2z"
					/>
			</g>
			<g>
				<path d="M107.9,82.6c0.6,0,1.3-0.2,1.8-0.6c1.2-1,1.5-2.8,0.4-4.1c-3.8-4.7-9.2-7-15.6-6.6c-1.6,0.1-2.8,1.5-2.7,3.1
					s1.5,2.8,3.1,2.7c4.6-0.3,8.1,1.1,10.7,4.4C106.2,82.3,107,82.6,107.9,82.6z"/>
			</g>
			<g>
				<path d="M107.1,110.4c0.4,0,0.9-0.1,1.3-0.3c3.7-1.9,5.7-4.4,6-7.5c0-0.1,0-0.3,0-0.4c0-0.1,0-0.2,0-0.3c0-0.5,0-1.2-0.2-1.9
					c0-0.1,0-0.2-0.1-0.3l-0.2-0.8c0,0,0-0.1,0-0.1c-0.7-2.1-3.2-6.8-11.6-4.6c-1.6,0.4-2.5,2-2.1,3.5c0.4,1.6,2,2.5,3.5,2.1
					c2.1-0.6,3.2-0.4,3.7-0.2c0.4,0.1,0.7,0.4,0.9,1l0.2,0.6c0.1,0.3,0.1,0.6,0.1,0.9c0,0,0,0.1,0,0.1c-0.1,0.5-0.4,1.5-2.9,2.8
					c-1.4,0.7-2,2.5-1.3,3.9C105.1,109.9,106.1,110.4,107.1,110.4z"/>
			</g>
			<g>
				<path d="M53.9,78.8c2.4,0,4.8-0.5,6.7-1.9c1.3-1,1.5-2.8,0.6-4c-1-1.3-2.8-1.5-4-0.6c-1.5,1.1-4.5,1.1-8.4-0.1
					c-1.5-0.4-3.1,0.4-3.6,2c-0.4,1.5,0.4,3.1,2,3.6C49,78.3,51.5,78.8,53.9,78.8z"/>
			</g>
			<g>
				<path d="M46.8,72.4c0.5,0,1.1-0.1,1.5-0.4c3.5-2.2,7.4-2.5,11.7-0.7c1.5,0.6,3.2-0.1,3.8-1.6c0.6-1.5-0.1-3.2-1.6-3.8
					c-6-2.5-11.9-2.1-17,1.1c-1.3,0.8-1.7,2.6-0.9,4C44.9,72,45.8,72.4,46.8,72.4z"/>
			</g>
			<g>
				<path d="M78.7,94.2c2.2,0,4.4-0.2,6.4-0.3c1.6-0.2,2.8-1.6,2.6-3.1c-0.2-1.6-1.6-2.8-3.1-2.6c-12.8,1.2-15.1-1.4-15.5-2.6
					c-0.1-0.4-0.1-0.6,0-0.7c0.1-0.2,1.4-1.7,8.6-1.7c1.6,0,2.9-1.3,2.9-2.9c0-1.6-1.3-2.9-2.9-2.9h0c-7.1,0.1-11.3,1.4-13.3,4.1
					c-0.8,1.2-1.7,3.1-0.8,5.9c0,0,0,0,0,0.1C65.4,92.9,72,94.2,78.7,94.2z"/>
			</g>
			<g>
				<path d="M80.7,25.5c0.6,0,1.1-0.2,1.6-0.5c1.7-1.1,2.6-1.1,3.3-0.9c1.6,0.4,3.1-0.6,3.5-2.1c0.4-1.6-0.6-3.1-2.1-3.5
					c-2.6-0.7-5.3-0.1-7.9,1.7c-1.3,0.9-1.7,2.7-0.8,4C78.8,25,79.7,25.5,80.7,25.5z"/>
			</g>
			<g>
				<path d="M132.5,109.7c0.3,0,0.5,0,0.8,0c0.2,0,0.3,0,0.5-0.1l0,0c0.2,0,0.4,0,0.6-0.1c2.2-0.2,4.5-0.7,6.6-1.6
					c1.6-0.6,2.9-1.4,4-2.1c0.1-0.1,0.1-0.1,0.2-0.1c3.3-2.4,5-5.5,4.8-8.8c-0.1-3.1-2-5.9-5.2-7.8c-0.3-0.3-0.6-0.5-1.1-0.6
					c-2.6-1.2-5.3-1.8-8.3-1.9c-1.6-0.1-2.9,1.2-3,2.8c-0.1,1.6,1.2,2.9,2.8,3c2,0.1,4,0.5,5.7,1.2c0.2,0.1,0.3,0.2,0.6,0.3
					c1,0.5,2.7,1.6,2.7,3.2c0,0.1,0,0.1,0,0.2c0.1,1.5-1.2,2.8-2.3,3.7c-1,0.6-2,1.2-3,1.6c0,0-0.1,0-0.1,0c-1.1,0.4-2.7,1-4.9,1.1
					c-0.1,0-0.3,0-0.4,0.1l0,0c-0.1,0-0.3,0-0.6,0.1c-0.9,0-1.8,0-2.6-0.2c-0.1,0-0.1,0-0.2,0c-1.7-0.2-3.1-0.6-4.4-1.3
					c0,0,0,0-0.1,0c-0.6-0.3-1-0.6-1.3-0.8c-1.2-1-3.1-0.8-4.1,0.4c-1,1.2-0.8,3.1,0.4,4.1c0.8,0.7,1.6,1.1,2.4,1.5
					c2,1.1,4,1.7,6.4,2C130.4,109.6,131.5,109.7,132.5,109.7z"/>
			</g>
			<g>
				<path d="M141.7,102.1c0.6,0,1.1-0.2,1.6-0.5c1.3-0.9,1.6-2.7,0.7-4c-0.5-0.8-1.2-1.4-2-1.9c-2.3-2-5.5-3.1-9.7-3.3
					c-1.6-0.1-3,1.1-3.1,2.7c-0.1,1.6,1.1,3,2.7,3.1c2.9,0.2,5.1,0.8,6.3,2c0.1,0.1,0.3,0.2,0.5,0.3c0.2,0.1,0.3,0.2,0.4,0.4
					C139.8,101.7,140.7,102.1,141.7,102.1z"/>
			</g>
			<g>
				<path d="M125.8,94.2c0.3,0,0.6-0.1,0.9-0.1c2.6-0.8,4.7-1.3,6.4-1.5c0.3,0,0.5,0,0.7,0c0,0,0,0,0.1,0c0.8,0,1.5-0.1,2-0.1
					c1.6-0.2,2.7-1.7,2.5-3.2c-0.2-1.6-1.7-2.7-3.2-2.5c-0.2,0-0.6,0.1-1.2,0.1c-0.2,0-0.4,0-0.6,0c-0.2,0-0.3,0-0.5,0
					c-2.2,0.2-4.7,0.8-7.8,1.7c-1.5,0.5-2.4,2.1-1.9,3.6C123.4,93.4,124.5,94.2,125.8,94.2z"/>
			</g>
			<g>
				<path d="M131.2,103.9c0.1,0,0.3,0,0.4,0c1.3-0.2,5.1-0.7,6-3.9c0.9-3.3-2.4-6-3.5-6.9c-1.2-1-3.1-0.8-4.1,0.4
					c-1,1.2-0.8,3.1,0.4,4.1c0.3,0.2,0.5,0.4,0.7,0.6c-0.1,0-0.2,0-0.3,0.1c-1.6,0.2-2.7,1.7-2.5,3.3
					C128.5,102.8,129.8,103.9,131.2,103.9z"/>
			</g>
			<g>
				<path d="M127.3,98.5c0.2,0,0.3,0,0.5-0.1c1.5-0.3,2.9-0.3,4.2-0.3h0.3c1.6,0,2.9-1.3,2.9-2.9c0-1.6-1.3-2.9-2.9-2.9l0,0h-0.3
					c-1.5,0-3.2,0-5.2,0.3c-1.6,0.3-2.6,1.8-2.4,3.4C124.7,97.5,125.9,98.5,127.3,98.5z"/>
			</g>
			<g>
				<path d="M40.1,99.3c0.7,0,1.5-0.3,2-0.8c1.2-1.1,1.2-2.9,0.1-4.1c-2.5-2.6-2-3.9-1.6-4.6c0.1-0.2,0.2-0.3,0.3-0.5
					c0.4-0.5,0.8-0.6,1.2-0.6c0.5,0,1.6,0.2,3.5,1.5c1.3,0.9,3.1,0.6,4-0.8c0.9-1.3,0.6-3.1-0.8-4c-7.3-4.9-11.2-1.3-12.6,0.4
					c0,0-0.1,0.1-0.1,0.1c-0.2,0.2-0.3,0.4-0.5,0.7c-0.1,0.1-0.1,0.2-0.2,0.2c-1.5,2.6-2.3,6.8,2.3,11.6
					C38.5,99,39.3,99.3,40.1,99.3z"/>
			</g>
			<g>
				<path d="M80.1,128.9c9,0,17.6-1.9,25.6-5.8h0c9.2-4.5,15.5-10.4,19.4-18.1c0.7-1.4,0.1-3.2-1.3-3.9c-1.4-0.7-3.2-0.1-3.9,1.3
					c-3.2,6.5-8.7,11.5-16.7,15.5c-8.2,3.9-17,5.6-26.2,5.1c-3.1-0.1-5.6-0.4-8.1-0.8c-3-0.5-6-1.2-8.7-2.1c0,0,0,0-0.1,0
					c-4.8-1.5-9.1-3.4-13-5.8c-3.5-2.2-6.5-4.5-9.2-7.2c-6.3-6.2-9.9-12.9-10.8-19.9c-0.2-1.6-1.6-2.7-3.2-2.5
					c-1.6,0.2-2.7,1.6-2.5,3.2c1,8.3,5.2,16.2,12.5,23.3c3,3,6.3,5.6,10.2,8c4.3,2.7,9,4.8,14.3,6.5c3,1,6.2,1.7,9.5,2.3
					c2.7,0.4,5.5,0.7,8.8,0.9C77.8,128.8,78.9,128.9,80.1,128.9z"/>
			</g>
			<g>
				<path d="M55.8,97.5c0.8,0,1.7-0.4,2.3-1.1c1-1.2,0.8-3.1-0.5-4.1c-0.6-0.5-1.2-0.9-1.8-1.4c0,0-0.1,0-0.1-0.1
					c-1-0.7-2-1.6-3-2.5c-1.5-1.3-2.8-2.3-4.1-3.1c-1.4-0.8-3.1-0.3-3.9,1.1c-0.8,1.4-0.3,3.1,1.1,3.9c0.9,0.5,1.9,1.3,3.1,2.4
					c0,0,0,0,0.1,0.1c1.1,0.9,2.2,1.9,3.3,2.7c0.6,0.4,1.2,0.9,1.7,1.4C54.6,97.3,55.2,97.5,55.8,97.5z"/>
			</g>
			<g>
				<path d="M50.1,106.1c1.1,0,2.2-0.6,2.6-1.7c0.7-1.5,0-3.2-1.5-3.8c-0.6-0.3-1.3-0.7-2-1.1c-0.6-0.4-1.2-0.7-1.7-0.9
					c-2.3-1.4-4.1-2.8-5.5-4.1c-1.1-1.1-3-1.1-4.1,0.1c-1.1,1.1-1.1,3,0.1,4.1c1.7,1.7,3.9,3.3,6.6,5c0.1,0.1,0.3,0.2,0.4,0.2
					c0.4,0.2,0.7,0.3,1,0.4c1,0.7,1.9,1.2,2.8,1.6C49.3,106,49.7,106.1,50.1,106.1z"/>
			</g>
			<g>
				<path d="M69.6,103.8c1.3,0,2.5-0.9,2.8-2.2c0.4-1.6-0.6-3.1-2.1-3.5c-1.6-0.4-3.1-0.8-4.6-1.4c-1.5-0.6-3.2,0.1-3.8,1.6
					c-0.6,1.5,0.1,3.2,1.6,3.8c1.8,0.7,3.5,1.2,5.4,1.7C69.2,103.8,69.4,103.8,69.6,103.8z"/>
			</g>
			<g>
				<path d="M68.2,112.9c1.3,0,2.5-0.9,2.8-2.3c0.3-1.6-0.7-3.1-2.2-3.4c-2.2-0.5-4.5-1.2-6.9-2c-1.5-0.5-3.1,0.3-3.6,1.9
					c-0.5,1.5,0.3,3.1,1.9,3.6c2.5,0.8,5,1.6,7.4,2.1C67.8,112.9,68,112.9,68.2,112.9z"/>
			</g>
			<g>
				<path d="M50.1,106.1c0.9,0,1.8-0.4,2.4-1.3l5.8-8.6c0.9-1.3,0.5-3.1-0.8-4c-1.3-0.9-3.1-0.5-4,0.8l-5.8,8.6
					c-0.9,1.3-0.5,3.1,0.8,4C49,105.9,49.5,106.1,50.1,106.1z"/>
			</g>
			<g>
				<path d="M64.7,102.2c1.2,0,2.3-0.7,2.7-1.9c0.6-1.5-0.2-3.2-1.7-3.7c-2.7-1-5.2-2.4-8.2-4.5c-1.3-0.9-3.1-0.5-4,0.8
					c-0.9,1.3-0.5,3.1,0.8,4c3.4,2.3,6.2,3.9,9.5,5.1C64,102.2,64.3,102.2,64.7,102.2z"/>
			</g>
			<g>
				<path d="M61,110.9c1.1,0,2.2-0.7,2.7-1.8l3.7-8.6c0.6-1.5-0.1-3.2-1.5-3.8c-1.5-0.6-3.2,0.1-3.8,1.5l-3.7,8.6
					c-0.6,1.5,0.1,3.2,1.5,3.8C60.2,110.8,60.6,110.9,61,110.9z"/>
			</g>
			<g>
				<path d="M61,110.9c1.2,0,2.3-0.7,2.7-1.9c0.6-1.5-0.2-3.2-1.7-3.7c-3.8-1.4-7.2-2.9-10.6-4.6c-1.4-0.7-3.2-0.2-3.9,1.2
					c-0.7,1.4-0.2,3.2,1.2,3.9c3.6,1.9,7.3,3.5,11.3,4.9C60.3,110.8,60.7,110.9,61,110.9z"/>
			</g>
			<g>
				<path d="M40,99.3c0.8,0,1.6-0.3,2.2-1l7.2-8.6c1-1.2,0.9-3-0.4-4.1c-1.2-1-3-0.9-4.1,0.4l-7.2,8.6c-1,1.2-0.9,3,0.4,4.1
					C38.7,99.1,39.4,99.3,40,99.3z"/>
			</g>
			<g>
				<path d="M81.7,105.3c0.5,0,1,0,1.4,0c1.6-0.1,2.9-1.4,2.8-3c-0.1-1.6-1.4-2.9-3-2.8c-1.7,0.1-3.4,0-5-0.2c-1.6-0.2-3,1-3.1,2.6
					c-0.2,1.6,1,3,2.6,3.1C78.8,105.3,80.2,105.3,81.7,105.3z"/>
			</g>
			<g>
				<path d="M77.5,105.1c0.1,0,0.2,0,0.2,0c1.6,0,2.9-1.3,2.9-2.9c0-1.6-1.3-2.9-2.9-2.9c0,0,0,0-0.1,0c-1.1,0-2.2-0.2-3.3-0.4
					c-1.3-0.2-2.5-0.5-3.9-0.9l-0.1,0c-1.6-0.4-3.1,0.5-3.5,2.1s0.5,3.1,2.1,3.5l0.1,0c1.4,0.3,2.9,0.7,4.4,1
					C74.6,104.9,76,105.1,77.5,105.1z"/>
			</g>
			<g>
				<path d="M83.6,114.7C83.7,114.7,83.7,114.7,83.6,114.7c4.4-0.1,8.4-0.4,12.2-1c1.6-0.2,2.7-1.7,2.4-3.3
					c-0.2-1.6-1.7-2.6-3.3-2.4c-3.6,0.6-7.3,0.9-11.4,1c-1.6,0-2.9,1.3-2.8,3C80.8,113.4,82.1,114.7,83.6,114.7z"/>
			</g>
			<g>
				<path d="M76.1,114.2c1.4,0,2.6-1,2.9-2.4c0.3-1.6-0.8-3.1-2.4-3.3c-0.7-0.1-1.3-0.2-2-0.3c-0.6-0.1-1.3-0.2-1.9-0.3
					c-0.6-0.1-1.2-0.2-1.8-0.3c-0.7-0.2-1.5-0.3-2.2-0.4c-1.6-0.3-3.1,0.8-3.3,2.4c-0.3,1.6,0.8,3.1,2.4,3.3c0.7,0.1,1.3,0.3,2,0.4
					c0.7,0.1,1.3,0.3,2,0.4c0.8,0.1,1.5,0.2,2.2,0.3c0.6,0.1,1.2,0.1,1.7,0.2C75.8,114.2,75.9,114.2,76.1,114.2z"/>
			</g>
			<g>
				<path d="M83,105.3c0.1,0,0.1,0,0.2,0c3.6-0.2,7-0.8,10.5-1.9c1.5-0.5,2.4-2.1,1.9-3.6c-0.5-1.5-2.1-2.4-3.6-1.9
					c-3,0.9-6,1.5-9.2,1.7c-1.6,0.1-2.8,1.5-2.7,3.1C80.2,104.1,81.5,105.3,83,105.3z"/>
			</g>
			<g>
				<path d="M95.4,113.6c0.2,0,0.5,0,0.7-0.1c1.6-0.4,2.5-2,2.1-3.5l-2.6-10.1c-0.4-1.6-2-2.5-3.5-2.1c-1.6,0.4-2.5,2-2.1,3.5
					l2.6,10.1C93,112.8,94.1,113.6,95.4,113.6z"/>
			</g>
			<g>
				<path d="M83.6,114.7c0.1,0,0.1,0,0.2,0c1.6-0.1,2.8-1.5,2.7-3.1l-0.6-9.3c-0.1-1.6-1.5-2.8-3.1-2.7c-1.6,0.1-2.8,1.5-2.7,3.1
					l0.6,9.3C80.9,113.5,82.1,114.7,83.6,114.7z"/>
			</g>
			<g>
				<path d="M72.2,113.7c1.4,0,2.6-1,2.9-2.4l1.6-8.9c0.3-1.6-0.7-3.1-2.3-3.4c-1.6-0.3-3.1,0.7-3.4,2.3l-1.6,8.9
					c-0.3,1.6,0.7,3.1,2.3,3.4C71.8,113.6,72,113.7,72.2,113.7z"/>
			</g>
			<g>
				<path d="M83.6,114.7c1.6,0,2.9-1.2,2.9-2.8c0.1-1.6-1.2-2.9-2.8-3h-0.1c-2.6-0.1-5-0.2-7.3-0.4c-1.6-0.2-3,1-3.2,2.5
					c-0.2,1.6,1,3,2.5,3.2c2.5,0.3,5.2,0.4,7.8,0.4h0.1C83.6,114.7,83.6,114.7,83.6,114.7z"/>
			</g>
			<g>
				<path d="M107.1,110.4c0.3,0,0.7-0.1,1-0.2c1.5-0.6,2.2-2.2,1.7-3.7l-4-10.5c-0.6-1.5-2.2-2.2-3.7-1.7c-1.5,0.6-2.2,2.2-1.7,3.7
					l4,10.5C104.9,109.7,106,110.4,107.1,110.4z"/>
			</g>
			<g>
				<path d="M95.4,113.6c0.2,0,0.3,0,0.4,0c1.5-0.2,2.9-0.5,4.3-0.7c0,0,0,0,0.1,0c2.7-0.5,4.9-1.2,6.9-2.1c0.3-0.1,0.5-0.2,0.7-0.3
					c0.2-0.1,0.3-0.1,0.4-0.2c1.5-0.6,2.2-2.3,1.6-3.8c-0.6-1.5-2.3-2.2-3.8-1.6c-0.3,0.1-0.6,0.3-0.8,0.4c-0.2,0.1-0.3,0.1-0.4,0.2
					c-0.1,0-0.1,0-0.1,0.1c-1.6,0.7-3.4,1.3-5.7,1.7c-1.4,0.3-2.7,0.5-4.1,0.7c-1.6,0.2-2.7,1.7-2.4,3.3
					C92.8,112.6,94,113.6,95.4,113.6z"/>
			</g>
			<g>
				<path d="M92.8,103.5c0.2,0,0.5,0,0.8-0.1c2-0.6,4-1.2,6.2-2.2c1.7-0.7,3-1.1,4.1-1.4c1.5-0.4,2.5-2,2-3.5c-0.4-1.5-2-2.5-3.5-2
					c-1.3,0.4-2.8,0.8-4.7,1.6c-0.1,0-0.1,0-0.1,0.1c-2,0.8-3.7,1.5-5.5,2c-1.5,0.4-2.5,2-2,3.5C90.4,102.7,91.6,103.5,92.8,103.5z"
					/>
			</g>
			<g>
				<path d="M22.5,80.9c1,0,2-0.5,2.5-1.4c0.8-1.4,0.3-3.1-1-4c-1.8-1-3.5-1.6-5.1-2.1c-1.5-0.5-3.1,0.3-3.7,1.8
					c-0.5,1.5,0.3,3.1,1.8,3.6l0,0c1.4,0.5,2.8,0.9,4,1.6C21.5,80.8,22,80.9,22.5,80.9z"/>
			</g>
			<g>
				<path d="M112.4,74.3c0.5,0,1.1-0.2,1.6-0.4c1.3-0.8,1.7-2.6,0.9-4c-2.7-4.2-6.4-7.3-11.1-9c-0.1,0-0.1,0-0.2-0.1
					c-1.8-0.6-4.4-1.2-7.4-1.2l0,0c-1.6,0-2.9,1.3-2.9,2.9s1.3,2.9,2.9,2.9c2.2,0,4.1,0.5,5.7,1c3.5,1.3,6.1,3.5,8.1,6.6
					C110.5,73.8,111.5,74.3,112.4,74.3z"/>
			</g>
			<g>
				<path d="M45.3,63.1c0.6,0,1.3-0.2,1.8-0.7c4.4-3.6,9.6-4.5,15.5-2.6c1.5,0.5,3.1-0.4,3.6-1.9c0.5-1.5-0.4-3.1-1.9-3.6
					c-7.8-2.4-15-1.1-20.8,3.7c-1.2,1-1.4,2.8-0.4,4.1C43.7,62.7,44.5,63.1,45.3,63.1z"/>
			</g>
		</g>
	</g>
	<g>
		<g>
			<g>
				<path d="M16.8,56.2c-2.9,2.3-2.7,5,0.4,8c-3,0.9-2.9,2.9,0.3,5.8c0.4,0.2,0.6,0.2,0.9,0.4c0.3,0.1,0.5,0.2,0.8,0.3
					c1.7,0.8,3.7,2,6,3.6c2.2-8.2,8-15,17-20.1c7.9-4.7,16.8-7.1,26.5-7.3c4.1,0,8.2,0.3,12.5,1.1c14.8,2.4,26.6,8.6,35,18.6
					c6.9,7.7,9.9,16.1,9.5,24.8c2.9-0.9,5.3-1.4,7.2-1.6c0.3,0.1,0.6,0,0.7,0c0.7,0,1.2-0.1,1.7-0.1c4.1-1.5,4.8-3.3,2.3-5.2
					c3.9-1.8,5-4.3,3-7.4c-0.3-0.3-0.1-1.1,0.2-2.4c0.6-1.8-0.1-3-2.1-3.7c2.7-3,2.2-5-1.5-6c1-3.9-0.5-6.2-4.5-7
					c-0.7-0.2-1.3-0.4-1.9-0.4c1.6-3.8,0.9-6.3-2.2-7.7c1.1-3.4-0.2-5.5-3.7-6.4c-0.7-0.1-1.9,0.1-3.4,0.6c0.9-4.2-0.6-5.8-4.9-4.6
					c-0.3-3.4-3-5.7-8.2-6.8c0.6-3.2-2.2-5-8.7-5.5c-1.8-2.9-4.6-3.6-8.1-2.2c-0.1-0.2-0.2-0.3-0.4-0.4c-0.3-0.1-0.7-0.3-0.8-0.4
					c-1.3-1.4-2.7-2.2-4.1-2.6c-1.5-0.1-3,0.3-4.7,1.2c-0.2,0.1-0.6,0.2-0.9,0.2c-0.1,0-0.3,0.1-0.5,0.2c-2.8-2.4-5.7-2.6-8.3-0.5
					c-4-1.6-7.9-0.4-12,3.2c-3.9-1.2-6.6-0.2-8,2.9c-3.7-2.5-5.7-1.5-6.2,2.7c-1.3-1-3-1.2-4.5-1.1c-1.7,0.3-2.8,2-3.1,5.4
					c-4.1-0.6-5.7,0.8-4.8,3.9c-1.2,0.9-2.1,1.3-2.8,1.3c-4-0.5-6.2,1.2-6.6,5.2c-2.7-0.2-4,0.7-4.1,2.5c-0.1,0.8,0.3,1.7,0.7,2.7
					c-2.2,0.1-3.2,1-3.2,2.8C17.3,55.2,17.2,56,16.8,56.2z"/>
			</g>
			<g>
				<path class="st0" d="M9.2,69.1c-3.1,0.4-5,1.8-6,4c-0.8,2.1-0.4,4.6,1.5,7.2c1.8,2.5,4.4,4.7,7.8,6.1c0.2,0.2,0.5,0.2,0.7,0.4
					c1.1,0.4,2.3,0.7,3.4,1c1.9,0.4,3.9,0.5,5.6,0.2c0.8,0,1.3-0.2,2-0.4c0.9,7.7,4.8,14.9,11.6,21.6c3,2.9,6.2,5.4,9.7,7.6
					c2,0.4,3.9,0.9,5.9,1.2c15.6,2.6,29.4,1.6,41.8-3c5.1-1.9,9.3-4.1,12.7-6.8c-1.7,0.8-3.7,1.4-6.3,2c-1.4,0.3-2.7,0.5-4.2,0.7
					c-4,0.6-8,0.9-11.8,1c-2.6-0.1-5.2-0.2-7.6-0.4c-1.3-0.2-2.5-0.3-3.9-0.5c-1.3-0.2-2.6-0.6-4-0.8c-2.4-0.5-4.8-1.3-7.2-2
					c-3.5-1.3-7.2-2.9-10.9-4.8c-0.8-0.4-1.7-0.9-2.4-1.3c-0.5-0.3-1-0.5-1.5-0.7c-2.6-1.6-4.6-3.2-6.2-4.6
					c-2.8-2.9-3.4-5.6-1.9-8.1c0.2-0.2,0.3-0.4,0.5-0.7c1.9-2.4,4.8-2.4,8.7,0.2c1.2,0.7,2.4,1.6,3.6,2.7c1.1,0.9,2.1,1.8,3.2,2.6
					c0.6,0.5,1.2,0.9,1.8,1.4c3,2,5.8,3.6,8.8,4.8c1.6,0.6,3.2,1.1,5,1.6c1.4,0.3,2.8,0.7,4.2,1c1.3,0.2,2.5,0.4,3.9,0.4
					c1.7,0.2,3.5,0.2,5.4,0.2c3.2-0.2,6.4-0.7,9.8-1.8c2-0.5,3.8-1.2,5.9-2.1c1.6-0.6,3-1.1,4.4-1.5c4.4-1.1,7.1-0.2,8.1,2.7
					c0.1,0.3,0.2,0.5,0.2,0.8c0.1,0.6,0.1,1.2,0.1,1.7c1.9-2.6,3.3-5.7,4-8.9c2.3-10-1.8-19.8-12.2-29.2c-0.2-0.2-0.5-0.3-0.7-0.7
					c-2-0.6-4.1-1.1-6.6-1.1c2.5,0,4.6,0.5,6.6,1.1c-9-7.8-20.3-13.5-34-16.7c-9.7,0.2-18.7,2.6-26.5,7.3c-9,5.1-14.7,11.9-17,20.1
					c-2.4-1.6-4.4-2.8-6-3.6c-0.3-0.1-0.5-0.2-0.8-0.3c-0.2-0.2-0.5-0.2-0.9-0.4c-1-0.3-2.1-0.6-3-0.8C12.7,68.8,10.9,68.7,9.2,69.1
					z M22.5,78.1c-1.5-0.9-3-1.4-4.6-1.9c-4.6,1.7-4.9,3.7-0.9,5.8c-4-2-3.7-4,0.9-5.8c-4-1.2-7.3-1-10.2,0.7
					c2.9-1.7,6.2-1.9,10.2-0.7C19.5,76.7,21,77.2,22.5,78.1z M79.5,80.3c-0.7-0.1-1.3-0.2-1.8-0.2c-8.8,0.1-12.6,2.2-11.3,6.3
					c1.3,4.1,7.5,5.6,18.6,4.6c-11.1,1-17.2-0.5-18.6-4.6c-1.2-4,2.6-6.2,11.3-6.3l1.2-6.9l-1.2,6.9C78.2,80.1,78.8,80.2,79.5,80.3z
					 M105.2,84.5c-5.3-0.2-8.6-1.6-10.4-3.9C96.6,82.9,100,84.3,105.2,84.5z M107.9,79.8c-3.1-3.9-7.6-5.9-13.2-5.5
					C100.3,73.9,104.7,75.8,107.9,79.8z M45.3,60.2c5.2-4.3,11.4-5.3,18.1-3.2C56.8,54.9,50.5,55.9,45.3,60.2z M47.8,74.9
					c4.9,1.5,8.7,1.3,10.9-0.4C56.5,76.2,52.8,76.4,47.8,74.9z M46.8,69.5c4.3-2.7,9.1-3.1,14.3-0.9C55.9,66.4,51,66.8,46.8,69.5z
					 M83.7,116.3c-10.8,2.1-20.5,0.5-29-4.9C63.2,116.9,72.9,118.5,83.7,116.3z"/>
			</g>
			<g>
				<path class="st1" d="M115.6,93.4c-0.7,3.3-2.1,6.3-4,8.9c-0.2,2.2-1.8,3.9-4.5,5.2c-0.4,0.2-0.7,0.4-1.2,0.5
					c-3.3,2.7-7.6,5-12.7,6.8c-12.4,4.6-26.2,5.6-41.8,3c-2-0.3-3.9-0.8-5.9-1.2c4.2,2.6,8.7,4.6,13.7,6.2c2.9,0.9,5.9,1.7,9.1,2.2
					c3,0.5,5.7,0.7,8.5,0.8c9.9,0.5,19.1-1.4,27.6-5.4c8.6-4.2,14.5-9.7,18-16.7c0.6,0.4,1.1,0.8,1.8,1.2c1.7,0.9,3.4,1.4,5.5,1.6
					c1,0.2,2.2,0.2,3.4,0.2c0.3-0.1,0.6,0,0.8-0.1c2.2-0.1,4.2-0.7,5.9-1.4c1.3-0.5,2.5-1.2,3.6-1.9c2.5-1.8,3.8-4,3.6-6.3
					c-0.1-2.3-1.6-4.3-4.3-5.7c0-0.1,0-0.1-0.1-0.1c-2.1-1-4.5-1.7-7.3-1.7c-0.4,0.1-1,0.1-1.7,0.1c-0.1,0-0.4,0.1-0.7,0
					c-2,0.2-4.3,0.7-7.2,1.6c0.4-8.7-2.6-17-9.5-24.8c-8.4-9.9-20.2-16.2-35-18.6c-4.2-0.8-8.4-1.1-12.5-1.1
					c13.7,3.3,25,8.9,34,16.7c4,1.5,7.2,4.1,9.6,7.8c-2.4-3.8-5.6-6.3-9.6-7.8c0.2,0.3,0.4,0.5,0.7,0.7
					C113.9,73.6,117.9,83.4,115.6,93.4z M140.3,98c-1.9-1.7-4.6-2.5-8.1-2.7c3.8,3.2,3.4,5.1-1,5.7c4.5-0.6,4.8-2.6,1-5.7
					c-1.5,0-3.1,0-5,0.3c1.8-0.3,3.5-0.3,5-0.3C135.7,95.5,138.5,96.3,140.3,98c0.6,0.3,1,0.8,1.3,1.2
					C141.3,98.8,140.9,98.4,140.3,98z"/>
			</g>
			<g>
				<path class="st2" d="M47.3,87.8c-3.9-2.6-6.8-2.6-8.7-0.2c-0.2,0.2-0.3,0.4-0.5,0.7c-1.5,2.6-0.9,5.3,1.9,8.1L47.3,87.8z"/>
			</g>
			<g>
				<path class="st2" d="M50.9,90.6c-1.2-1.1-2.4-2-3.6-2.7l-7.2,8.6c1.5,1.5,3.5,3,6.2,4.6c0.5,0.2,1,0.4,1.5,0.7
					c0.7,0.5,1.6,1,2.4,1.3l5.8-8.6c-0.6-0.5-1.2-0.9-1.8-1.4C53,92.4,51.9,91.5,50.9,90.6z"/>
			</g>
			<g>
				<path class="st2" d="M61,108c2.3,0.7,4.8,1.5,7.2,2c1.4,0.2,2.7,0.6,4,0.8l1.6-8.9c-1.4-0.2-2.8-0.6-4.2-1
					c-1.8-0.4-3.4-0.9-5-1.6L61,108z"/>
			</g>
			<g>
				<path class="st2" d="M61,108l3.7-8.6c-3.1-1.1-5.9-2.8-8.8-4.8l-5.8,8.6C53.8,105.1,57.4,106.7,61,108z"/>
			</g>
			<g>
				<path class="st2" d="M73.8,101.8l-1.6,8.9c1.4,0.2,2.7,0.3,3.9,0.5c2.4,0.3,5,0.4,7.6,0.4l-0.6-9.3c-1.8,0.1-3.7,0-5.4-0.2
					C76.4,102.3,75.1,102.1,73.8,101.8z"/>
			</g>
			<g>
				<path class="st2" d="M92.8,100.7c-3.4,1-6.6,1.6-9.8,1.8l0.6,9.3c3.8-0.1,7.7-0.4,11.8-1L92.8,100.7z"/>
			</g>
			<g>
				<path class="st2" d="M99.6,110c2.6-0.5,4.6-1.2,6.3-2c0.4-0.2,0.7-0.4,1.2-0.5l-4-10.5c-1.4,0.4-2.9,0.9-4.4,1.5
					c-2,0.9-3.9,1.6-5.9,2.1l2.6,10.1C96.9,110.5,98.3,110.3,99.6,110z"/>
			</g>
			<g>
				<path class="st2" d="M111.6,102.3c0-0.5,0-1.1-0.1-1.7c-0.1-0.3-0.2-0.5-0.2-0.8c-1-2.9-3.7-3.9-8.1-2.7l4,10.5
					C109.8,106.2,111.4,104.5,111.6,102.3z"/>
			</g>
			<g>
				<path d="M17.5,70.5c0.2,0,0.3-0.1,0.4-0.2c0.2-0.2,0.2-0.6-0.1-0.7c-1.7-1.5-2.5-2.7-2.3-3.5c0.1-0.6,0.7-1,1.8-1.3
					c0.2-0.1,0.3-0.2,0.4-0.4c0.1-0.2,0-0.4-0.2-0.5c-1.6-1.5-2.4-3-2.3-4.2c0.1-1,0.7-2,1.8-3c0.6-0.3,0.7-1.2,0.8-2.7v0
					c0-1.6,0.8-2.3,2.7-2.3c0.2,0,0.3-0.1,0.4-0.2c0.1-0.2,0.1-0.3,0-0.5c-0.5-1.1-0.7-1.8-0.7-2.5c0,0,0,0,0-0.1
					c0-0.6,0.2-1,0.5-1.3c0.6-0.5,1.6-0.7,3-0.6c0.3,0,0.5-0.2,0.6-0.5c0.2-1.8,0.7-3.1,1.7-3.9c1-0.8,2.4-1.1,4.3-0.8
					c0,0,0.1,0,0.1,0c0.8,0,1.8-0.5,3.1-1.5c0.2-0.1,0.2-0.4,0.2-0.6c-0.4-1.2-0.3-2.1,0.1-2.6c0.6-0.7,2-0.9,4.1-0.6
					c0.1,0,0.3,0,0.4-0.1c0.1-0.1,0.2-0.2,0.2-0.4c0.3-3,1.2-4.6,2.7-4.9c1.6-0.2,3.1,0.2,4.2,1c0.2,0.1,0.3,0.1,0.5,0.1
					c0.2-0.1,0.3-0.2,0.3-0.4c0.2-2,0.8-3.1,1.6-3.5c0.8-0.4,2.1,0,3.8,1.1C51.7,29,51.9,29,52,29c0.2-0.1,0.3-0.2,0.3-0.3
					c1.3-2.9,3.8-3.8,7.3-2.6c0.2,0.1,0.4,0,0.5-0.1c4-3.5,7.7-4.5,11.4-3.1c0.2,0.1,0.4,0,0.5-0.1c2.5-2,5-1.8,7.7,0.5
					c0.2,0.2,0.4,0.2,0.7,0c0.1,0,0.1-0.1,0.2-0.1c0.2,0,0.5-0.2,0.5-0.4c0.1-0.3-0.2-0.6-0.4-0.6c-0.2,0-0.4,0-0.5,0.1
					c-2.8-2.3-5.8-2.4-8.5-0.4c-3.9-1.4-7.9-0.4-12,3.2c-4.6-1.4-6.9,0.6-8.1,2.7c-1.8-1.1-3.2-1.4-4.3-0.9
					c-1.1,0.5-1.7,1.6-2.1,3.5c-1.2-0.6-2.7-0.9-4.2-0.7h0c-1.9,0.3-3.1,2.1-3.5,5.3c-2.2-0.2-3.7,0.1-4.5,1
					c-0.6,0.7-0.8,1.8-0.4,3.2c-0.9,0.7-1.6,1-2.2,1c-2.1-0.3-3.8,0.1-5,1.1c-1.1,0.9-1.8,2.2-2,4.1c-1.5,0-2.6,0.3-3.3,0.9
					c-0.6,0.5-0.8,1.2-0.8,2.1c-0.1,0.7,0.2,1.5,0.5,2.2c-2,0.3-3,1.3-3,3.3c-0.1,0.8-0.1,1.7-0.3,1.9c0,0-0.1,0-0.1,0.1
					c-1.4,1.1-2.2,2.4-2.2,3.8c-0.1,1.4,0.6,2.9,2,4.4c-1,0.4-1.6,1.1-1.7,1.8c-0.3,1.2,0.6,2.7,2.6,4.5
					C17.3,70.5,17.4,70.5,17.5,70.5z"/>
			</g>
			<g>
				<path d="M20,88.6c0.8,0,1.5-0.1,2.3-0.2c0.8,0,1.4-0.2,2.1-0.4c0.3-0.1,0.4-0.4,0.3-0.7c-0.1-0.3-0.4-0.4-0.7-0.3
					c-0.7,0.3-1.1,0.4-1.8,0.4c0,0-0.1,0-0.1,0c-1.6,0.3-3.5,0.2-5.4-0.2h0c-1.1-0.2-2.2-0.5-3.3-0.9c-0.2-0.1-0.3-0.2-0.4-0.2
					c-0.1-0.1-0.2-0.1-0.3-0.1c0,0-0.1,0-0.1-0.1c-3.2-1.3-5.7-3.3-7.5-5.9c-1.7-2.3-2.2-4.5-1.4-6.7c0.9-2.1,2.8-3.3,5.5-3.7h0
					c1.7-0.3,3.4-0.3,5.1,0.1h0c0.9,0.2,1.9,0.4,2.9,0.7c0.3,0.1,0.6-0.1,0.7-0.4s-0.1-0.6-0.4-0.7c-1-0.3-2.1-0.6-3-0.8
					c-1.9-0.4-3.7-0.5-5.5-0.1c-3.1,0.4-5.3,1.9-6.4,4.3v0c-0.9,2.4-0.4,5.1,1.6,7.7c1.9,2.7,4.6,4.9,7.9,6.3
					c0.2,0.1,0.3,0.2,0.4,0.2c0.1,0.1,0.2,0.1,0.3,0.1c0,0,0.1,0,0.1,0.1c1.2,0.4,2.4,0.8,3.5,1C17.7,88.4,18.9,88.6,20,88.6z"/>
			</g>
			<g>
				<path d="M7.7,77.4c0.1,0,0.2,0,0.3-0.1c2.7-1.6,5.9-1.8,9.8-0.6c0.3,0.1,0.6-0.1,0.7-0.4c0.1-0.3-0.1-0.6-0.4-0.7
					c-4.1-1.2-7.6-1-10.6,0.7c-0.3,0.2-0.3,0.5-0.2,0.7C7.4,77.3,7.5,77.4,7.7,77.4z"/>
			</g>
			<g>
				<path d="M25.2,74.7c0.2,0,0.3-0.1,0.4-0.2c0.2-0.2,0.1-0.6-0.2-0.7c-2.8-1.8-4.6-2.9-6.1-3.6c-0.1,0-0.1,0-0.1-0.1
					c-0.1,0-0.2-0.1-0.3-0.1s-0.2-0.1-0.4-0.1c-0.2-0.1-0.3-0.2-0.5-0.2c-0.1-0.1-0.3-0.1-0.4-0.2c-0.3-0.1-0.6,0-0.7,0.2
					c-0.1,0.3,0,0.6,0.2,0.7c0.2,0.1,0.3,0.2,0.5,0.2s0.3,0.1,0.3,0.2c0.1,0.1,0.1,0.1,0.2,0.1s0.2,0.1,0.3,0.1
					c0.1,0.1,0.3,0.1,0.4,0.2c1.5,0.7,3.2,1.7,5.9,3.5C25,74.7,25.1,74.7,25.2,74.7z"/>
			</g>
			<g>
				<path d="M17,82.4c0.2,0,0.4-0.1,0.5-0.3c0.1-0.3,0-0.6-0.2-0.7c-1.7-0.8-2.6-1.7-2.5-2.4c0-0.4,0.5-1.3,3.4-2.4
					c0.3-0.1,0.4-0.4,0.3-0.7c-0.1-0.3-0.4-0.4-0.7-0.3c-2.6,1-4,2.1-4,3.4c-0.1,1.2,1,2.3,3.1,3.4C16.9,82.4,16.9,82.4,17,82.4z"/>
			</g>
			<g>
				<path d="M80.9,23.1c0.3,0,0.7-0.1,1-0.2c1.6-0.8,3-1.2,4.4-1.1c0.3,0,0.6-0.2,0.6-0.5c0-0.3-0.2-0.6-0.5-0.6
					c-1.6-0.1-3.2,0.3-5,1.2c0,0-0.1,0-0.1,0.1c-0.1,0-0.3,0.1-0.5,0.1c-0.3-0.1-0.6,0.2-0.6,0.4c-0.1,0.3,0.2,0.6,0.4,0.6
					C80.7,23.1,80.8,23.1,80.9,23.1z"/>
			</g>
			<g>
				<path d="M91.1,24.9c0.3,0,0.5-0.2,0.5-0.4c0.1-0.3-0.2-0.6-0.4-0.6c-0.2,0-0.4-0.2-0.4-0.2c0,0,0,0-0.1-0.1
					c-1.4-1.5-2.8-2.4-4.3-2.8c-0.3-0.1-0.6,0.1-0.7,0.4s0.1,0.6,0.4,0.7c1.3,0.4,2.6,1.2,3.8,2.5C90.2,24.6,90.7,24.8,91.1,24.9
					C91.1,24.9,91.1,24.9,91.1,24.9z"/>
			</g>
			<g>
				<path d="M91.1,24.9c0.1,0,0.2,0,0.3-0.1c0.2-0.2,0.3-0.5,0.1-0.7c-1.5-2-3.2-3.1-5.3-3.3c-0.3,0-0.6,0.2-0.6,0.5
					c0,0.3,0.2,0.6,0.5,0.6c1.7,0.2,3.1,1.1,4.5,2.9C90.8,24.8,91,24.9,91.1,24.9z"/>
			</g>
			<g>
				<path d="M135.3,90.1c0.1,0,0.1,0,0.2,0c2.6-1,3.9-2,4.1-3.3c0.1-0.8-0.2-1.5-1-2.3c1.8-1,3-2.2,3.4-3.5c0.4-1.3,0.1-2.7-0.9-4.3
					c0,0-0.1-0.1-0.1-0.1c-0.1-0.2,0.1-1.1,0.3-1.8c0.6-1.8,0-3.2-1.8-4.1c1.2-1.4,1.6-2.6,1.3-3.7c-0.3-1.1-1.3-1.9-3-2.4
					c0.4-1.8,0.2-3.4-0.6-4.5c-0.8-1.3-2.3-2.2-4.5-2.6c-0.4-0.2-0.9-0.3-1.3-0.3c1.3-3.6,0.6-6.2-2.3-7.6c0.4-1.6,0.3-3-0.3-4
					c-0.7-1.2-2-2.1-4-2.6c0,0,0,0-0.1,0c-0.6-0.1-1.5,0-2.9,0.4c0.3-1.9,0-3.2-0.8-4c-0.9-0.8-2.3-1-4.3-0.6
					c-0.6-3.2-3.2-5.4-8-6.6c0.1-1-0.2-1.9-0.7-2.6c-1.2-1.6-3.9-2.6-8.3-2.9c-1.9-2.7-4.8-3.6-8.2-2.4c-0.1-0.1-0.3-0.2-0.4-0.3
					c-0.3-0.1-0.6,0.1-0.6,0.4c-0.1,0.3,0.1,0.5,0.3,0.6c0,0.1,0.1,0.1,0.1,0.2c0.1,0.2,0.4,0.3,0.6,0.2c3.2-1.3,5.7-0.6,7.4,2
					c0.1,0.1,0.2,0.2,0.4,0.2c4.1,0.3,6.7,1.2,7.8,2.5c0.5,0.6,0.6,1.4,0.4,2.3c-0.1,0.3,0.1,0.6,0.4,0.6c4.9,1.1,7.5,3.2,7.8,6.3
					c0,0.2,0.1,0.3,0.2,0.4c0.1,0.1,0.3,0.1,0.4,0.1c1.9-0.5,3.2-0.5,3.9,0.2c0.7,0.6,0.8,1.9,0.3,3.8c-0.1,0.2,0,0.4,0.2,0.5
					c0.1,0.1,0.3,0.2,0.5,0.1c1.9-0.6,2.8-0.6,3.2-0.6c1.7,0.4,2.7,1.1,3.3,2.1c0.5,0.9,0.5,2.1,0.1,3.6c-0.1,0.3,0.1,0.5,0.3,0.6
					c1.8,0.8,3.9,2.4,1.9,7c-0.1,0.2-0.1,0.3,0,0.4c0.1,0.1,0.2,0.2,0.4,0.3c0.5,0.1,1.2,0.2,1.8,0.4c0,0,0.1,0,0.1,0
					c1.9,0.4,3.2,1.1,3.8,2.1c0.7,1,0.8,2.4,0.3,4.2c-0.1,0.3,0.1,0.6,0.4,0.6c1.6,0.4,2.5,1.1,2.7,1.8c0.2,0.8-0.3,1.9-1.5,3.3
					c-0.1,0.1-0.2,0.3-0.1,0.5c0.1,0.2,0.2,0.3,0.3,0.4c1.8,0.7,2.3,1.6,1.8,3.1v0c-0.4,1.4-0.6,2.3-0.1,2.8c0.8,1.2,1,2.4,0.7,3.4
					c-0.3,1.2-1.6,2.3-3.6,3.2c-0.2,0.1-0.3,0.2-0.3,0.4c0,0.2,0.1,0.4,0.2,0.5c0.6,0.4,1.3,1.1,1.3,1.8c-0.1,0.5-0.6,1.4-3.4,2.5
					c-0.3,0.1-0.4,0.4-0.3,0.7C134.9,89.9,135.1,90.1,135.3,90.1z"/>
			</g>
			<g>
				<path d="M74.8,117.8c2.9,0,5.9-0.3,9-0.9c0.3-0.1,0.5-0.3,0.4-0.6c-0.1-0.3-0.3-0.5-0.6-0.4C73,117.9,63.4,116.3,55,111
					c-0.2-0.2-0.6-0.1-0.7,0.2c-0.2,0.2-0.1,0.6,0.2,0.7C60.6,115.8,67.4,117.8,74.8,117.8z"/>
			</g>
			<g>
				<path d="M77.6,80.7c0.3,0,0.5-0.2,0.5-0.4l1.2-6.9c0.1-0.3-0.1-0.6-0.4-0.6s-0.6,0.1-0.6,0.4L77.1,80
					C77.1,80.3,77.3,80.6,77.6,80.7C77.6,80.7,77.6,80.7,77.6,80.7z"/>
			</g>
			<g>
				<path d="M79.4,80.8l0.2-1c-0.7-0.1-1.4-0.2-2-0.2c-0.3,0-0.5,0.3-0.5,0.6c0,0.3,0.3,0.5,0.6,0.5C78.2,80.6,78.8,80.7,79.4,80.8z
					"/>
			</g>
			<g>
				<path d="M105.2,85c0.3,0,0.5-0.2,0.5-0.5c0-0.3-0.2-0.5-0.5-0.6c-5-0.2-8.3-1.5-10-3.7c-0.2-0.2-0.5-0.3-0.7-0.1
					c-0.2,0.2-0.3,0.5-0.1,0.7C96.3,83.4,99.9,84.8,105.2,85C105.2,85,105.2,85,105.2,85z"/>
			</g>
			<g>
				<path d="M125.8,91.8c0.3,0,0.5-0.2,0.5-0.5c0.4-9-2.8-17.5-9.6-25.1c-8.6-10.1-20.4-16.4-35.3-18.7c-3.8-0.8-8-1.1-12.6-1.1
					C58.8,46.5,49.8,49,42,53.7c-9.1,5.1-14.9,12-17.2,20.4c-0.1,0.3,0.1,0.6,0.4,0.7c0.3,0.1,0.6-0.1,0.7-0.4
					c2.2-8.1,7.9-14.8,16.7-19.8c7.7-4.6,16.5-7,26.3-7.2c4.5,0,8.6,0.3,12.4,1.1c14.6,2.3,26.3,8.5,34.7,18.4
					c6.7,7.5,9.8,15.7,9.4,24.4C125.2,91.6,125.5,91.8,125.8,91.8C125.7,91.8,125.7,91.8,125.8,91.8z"/>
			</g>
			<g>
				<path d="M107.9,80.3c0.1,0,0.2,0,0.3-0.1c0.2-0.2,0.3-0.5,0.1-0.7c-3.3-4.2-7.9-6.1-13.6-5.7c-0.3,0-0.5,0.3-0.5,0.6
					c0,0.3,0.3,0.5,0.6,0.5c5.3-0.4,9.6,1.4,12.7,5.3C107.6,80.2,107.7,80.3,107.9,80.3z"/>
			</g>
			<g>
				<path d="M107.1,108.1c0.1,0,0.2,0,0.2-0.1c3-1.5,4.5-3.4,4.8-5.7c0,0,0-0.1,0-0.1c0-0.1,0-0.2,0-0.3c0-0.4,0-1-0.1-1.5
					c0,0,0,0,0-0.1l-0.2-0.8c-0.7-2.2-2.9-4.6-8.7-3.1c-0.3,0.1-0.4,0.4-0.4,0.6c0.1,0.3,0.4,0.4,0.6,0.4c4.1-1.1,6.6-0.3,7.4,2.4
					l0.2,0.7c0.1,0.5,0.1,0.9,0.1,1.3c0,0.1,0,0.2,0,0.3c-0.2,1.9-1.6,3.4-4.2,4.8c-0.3,0.1-0.4,0.4-0.2,0.7
					C106.8,108,106.9,108.1,107.1,108.1z"/>
			</g>
			<g>
				<path d="M53.9,76.4c2.2,0,3.9-0.5,5.3-1.5c0.2-0.2,0.3-0.5,0.1-0.7c-0.2-0.2-0.5-0.3-0.7-0.1c-2.1,1.6-5.8,1.7-10.5,0.3
					c-0.3-0.1-0.6,0.1-0.7,0.3c-0.1,0.3,0.1,0.6,0.3,0.7C50,76.1,52.1,76.4,53.9,76.4z"/>
			</g>
			<g>
				<path d="M46.8,70.1c0.1,0,0.2,0,0.3-0.1c4.2-2.6,8.8-2.9,13.9-0.8c0.3,0.1,0.6,0,0.7-0.3c0.1-0.3,0-0.6-0.3-0.7
					C56,65.9,51,66.2,46.5,69.1c-0.2,0.2-0.3,0.5-0.2,0.7C46.4,70,46.6,70.1,46.8,70.1z"/>
			</g>
			<g>
				<path d="M78.8,91.8c1.8,0,3.9-0.1,6.1-0.3c0.3,0,0.5-0.3,0.5-0.6s-0.3-0.5-0.6-0.5c-10.7,1-16.7-0.4-18-4.3
					c-0.3-1.1-0.3-2.1,0.3-2.8c0.9-1.2,3.4-2.7,10.5-2.7c0.3,0,0.5-0.2,0.5-0.5s-0.2-0.5-0.5-0.5c-6.1,0.1-9.9,1.1-11.4,3.2
					c-0.8,1.1-0.9,2.3-0.4,3.8C66.9,90.1,71.2,91.8,78.8,91.8z"/>
			</g>
			<g>
				<path d="M80.7,23.1c0.1,0,0.2,0,0.3-0.1c1.8-1.2,3.5-1.7,5.2-1.2c0.3,0.1,0.6-0.1,0.6-0.4c0.1-0.3-0.1-0.6-0.4-0.6
					c-2-0.5-3.9,0-6,1.4c-0.2,0.2-0.3,0.5-0.1,0.7C80.3,23.1,80.5,23.1,80.7,23.1z"/>
			</g>
			<g>
				<path d="M132.5,107.3c0.2,0,0.4,0,0.7,0c0,0,0.1,0,0.1,0c0.1,0,0.2,0,0.3,0s0.3,0,0.5-0.1c2.1-0.1,4.1-0.6,6-1.4
					c1.4-0.5,2.5-1.2,3.7-1.9l0,0c2.7-2,4-4.3,3.8-6.8c-0.1-2.5-1.6-4.6-4.4-6c0,0,0,0,0-0.1c-0.1-0.2-0.3-0.2-0.4-0.3
					c-2.3-1.1-4.8-1.7-7.5-1.8c-0.3,0-0.5,0.2-0.6,0.5c0,0.3,0.2,0.5,0.5,0.6c2.5,0.1,4.9,0.6,7,1.6c0.1,0.1,0.1,0.2,0.2,0.2
					c2.6,1.2,4,3.1,4,5.3v0c0.2,2.1-1,4.1-3.4,5.8c-1.1,0.7-2.2,1.3-3.5,1.8c-1.8,0.8-3.8,1.2-5.7,1.3c0,0-0.1,0-0.1,0
					c-0.1,0-0.2,0-0.3,0c-0.1,0-0.3,0-0.4,0.1c-1.1,0-2.3,0-3.2-0.2h0c-2-0.2-3.6-0.7-5.3-1.6c-0.8-0.4-1.3-0.7-1.8-1.1
					c-0.2-0.2-0.6-0.2-0.7,0.1c-0.2,0.2-0.2,0.6,0.1,0.7c0.7,0.5,1.3,0.9,2,1.2c1.7,0.9,3.5,1.5,5.6,1.7
					C130.6,107.3,131.6,107.3,132.5,107.3z"/>
			</g>
			<g>
				<path d="M141.7,99.8c0.1,0,0.2,0,0.3-0.1c0.2-0.2,0.3-0.5,0.1-0.7c-0.4-0.6-0.8-1-1.4-1.3c-1.9-1.7-4.6-2.6-8.4-2.9
					c-0.3,0-0.5,0.2-0.6,0.5c0,0.3,0.2,0.5,0.5,0.6c3.5,0.2,6.1,1.1,7.8,2.6c0,0,0.1,0.1,0.1,0.1c0.4,0.3,0.8,0.6,1.1,1.1
					C141.3,99.7,141.5,99.8,141.7,99.8z"/>
			</g>
			<g>
				<path d="M125.8,91.8c0.1,0,0.1,0,0.2,0c2.9-0.9,5.1-1.4,7.1-1.6c0.2,0,0.4,0,0.5,0c0.1,0,0.1,0,0.1,0c0,0,0.1,0,0.1,0
					c0.7,0,1.3-0.1,1.7-0.1c0.3-0.1,0.5-0.3,0.4-0.6c-0.1-0.3-0.3-0.5-0.6-0.4c-0.4,0.1-0.9,0.1-1.6,0.1c-0.1,0-0.2,0-0.3,0
					c-0.1,0-0.2,0-0.3,0c-0.1,0-0.1,0-0.1,0c-2,0.2-4.4,0.7-7.3,1.6c-0.3,0.1-0.4,0.4-0.3,0.7C125.3,91.6,125.5,91.8,125.8,91.8z"/>
			</g>
			<g>
				<path d="M131.2,101.5C131.2,101.5,131.2,101.5,131.2,101.5c2.5-0.3,3.8-1.1,4.1-2.2c0.3-1.2-0.6-2.7-2.7-4.5
					c-0.2-0.2-0.6-0.2-0.7,0.1c-0.2,0.2-0.2,0.6,0.1,0.7c2.4,2,2.5,3,2.4,3.4c-0.2,0.7-1.3,1.2-3.1,1.4c-0.3,0.1-0.5,0.3-0.4,0.6
					C130.7,101.3,130.9,101.5,131.2,101.5z"/>
			</g>
			<g>
				<path d="M127.3,96.1C127.3,96.1,127.3,96.1,127.3,96.1c1.7-0.3,3.2-0.3,4.6-0.3h0.3c0.3,0,0.5-0.2,0.5-0.5s-0.2-0.5-0.5-0.5l0,0
					h-0.3c-1.4,0-3,0-4.8,0.3c-0.3,0.1-0.5,0.3-0.4,0.6C126.8,95.9,127,96.1,127.3,96.1z"/>
			</g>
			<g>
				<path d="M40.1,97c0.1,0,0.3-0.1,0.4-0.2c0.2-0.2,0.2-0.5,0-0.7c-2.6-2.7-3.2-5.1-1.8-7.5c0.2-0.2,0.3-0.4,0.4-0.6
					c1.7-2.2,4.4-2.1,7.9,0.3c0.2,0.2,0.6,0.1,0.7-0.1c0.2-0.2,0.1-0.6-0.1-0.7c-5.1-3.5-7.9-2-9.4-0.1c-0.2,0.2-0.3,0.4-0.5,0.7
					c0,0,0,0,0,0.1c-1.6,2.8-0.9,5.7,2,8.8C39.8,96.9,39.9,97,40.1,97z"/>
			</g>
			<g>
				<path d="M80.1,126.5c8.6,0,16.9-1.8,24.6-5.5c8.7-4.3,14.7-9.8,18.3-17c0.1-0.3,0-0.6-0.2-0.7c-0.3-0.1-0.6,0-0.7,0.2
					c-3.5,7-9.3,12.4-17.8,16.5c-8.5,4-17.7,5.8-27.3,5.3c-3.1-0.1-5.8-0.4-8.4-0.8c-3.1-0.5-6.2-1.3-9.1-2.2
					c-5-1.5-9.5-3.5-13.6-6.1c-3.6-2.3-6.8-4.8-9.6-7.6c-6.7-6.6-10.6-13.7-11.5-21.3c0-0.3-0.3-0.5-0.6-0.4c-0.3,0-0.5,0.3-0.4,0.6
					c1,7.8,4.9,15.2,11.8,21.9c2.9,2.9,6.1,5.4,9.8,7.7c4.2,2.6,8.7,4.6,13.8,6.2c2.9,0.9,6,1.7,9.2,2.2c2.6,0.4,5.4,0.7,8.5,0.8
					C77.9,126.5,79,126.5,80.1,126.5z"/>
			</g>
			<g>
				<path d="M55.8,95.1c0.2,0,0.3-0.1,0.4-0.2c0.2-0.2,0.1-0.6-0.1-0.7c-0.6-0.5-1.2-0.9-1.8-1.4c-1.1-0.8-2.1-1.7-3.2-2.6
					c-1.3-1.2-2.5-2.1-3.7-2.8c-0.3-0.1-0.6-0.1-0.7,0.2c-0.1,0.3-0.1,0.6,0.2,0.7c1.1,0.6,2.2,1.5,3.5,2.6c1.1,0.9,2.1,1.8,3.2,2.7
					c0.6,0.4,1.2,0.9,1.7,1.4C55.6,95.1,55.7,95.1,55.8,95.1z"/>
			</g>
			<g>
				<path d="M50.1,103.7c0.2,0,0.4-0.1,0.5-0.3c0.1-0.3,0-0.6-0.3-0.7c-0.7-0.3-1.5-0.8-2.3-1.3c-0.5-0.3-1-0.6-1.5-0.8
					c-2.5-1.5-4.5-3.1-6-4.5c-0.2-0.2-0.6-0.2-0.7,0c-0.2,0.2-0.2,0.6,0,0.7c1.6,1.5,3.7,3.1,6.3,4.7c0,0,0.1,0,0.1,0.1
					c0.5,0.2,1,0.4,1.4,0.7c0.9,0.6,1.7,1.1,2.5,1.4C49.9,103.7,50,103.7,50.1,103.7z"/>
			</g>
			<g>
				<path d="M69.6,101.4c0.2,0,0.4-0.2,0.5-0.4c0.1-0.3-0.1-0.6-0.4-0.6c-1.7-0.4-3.3-0.9-4.9-1.5c-0.3-0.1-0.6,0-0.7,0.3
					c-0.1,0.3,0,0.6,0.3,0.7c1.7,0.7,3.3,1.2,5,1.6C69.6,101.4,69.6,101.4,69.6,101.4z"/>
			</g>
			<g>
				<path d="M68.2,110.5c0.2,0,0.5-0.2,0.5-0.4c0.1-0.3-0.1-0.6-0.4-0.6c-2.3-0.5-4.7-1.2-7.1-2c-0.3-0.1-0.6,0.1-0.7,0.3
					c-0.1,0.3,0.1,0.6,0.3,0.7C63.3,109.3,65.7,110,68.2,110.5C68.1,110.5,68.1,110.5,68.2,110.5z"/>
			</g>
			<g>
				<path d="M50.1,103.7c0.2,0,0.3-0.1,0.4-0.2l5.8-8.6c0.2-0.2,0.1-0.6-0.1-0.7c-0.2-0.2-0.6-0.1-0.7,0.1l-5.8,8.6
					c-0.2,0.2-0.1,0.6,0.1,0.7C49.9,103.7,50,103.7,50.1,103.7z"/>
			</g>
			<g>
				<path d="M64.7,99.9c0.2,0,0.4-0.1,0.5-0.3c0.1-0.3-0.1-0.6-0.3-0.7c-2.9-1.1-5.5-2.6-8.7-4.7c-0.2-0.2-0.6-0.1-0.7,0.2
					s-0.1,0.6,0.2,0.7c3.3,2.2,5.9,3.7,9,4.8C64.5,99.9,64.6,99.9,64.7,99.9z"/>
			</g>
			<g>
				<path d="M61,108.5c0.2,0,0.4-0.1,0.5-0.3l3.7-8.6c0.1-0.3,0-0.6-0.3-0.7c-0.3-0.1-0.6,0-0.7,0.3l-3.7,8.6
					c-0.1,0.3,0,0.6,0.3,0.7C60.8,108.5,60.9,108.5,61,108.5z"/>
			</g>
			<g>
				<path d="M61,108.5c0.2,0,0.4-0.1,0.5-0.3c0.1-0.3-0.1-0.6-0.3-0.7c-3.8-1.4-7.4-3-10.9-4.8c-0.3-0.1-0.6,0-0.7,0.2
					c-0.1,0.3,0,0.6,0.2,0.7c3.5,1.8,7.1,3.4,11,4.8C60.9,108.5,60.9,108.5,61,108.5z"/>
			</g>
			<g>
				<path d="M40.1,97c0.2,0,0.3-0.1,0.4-0.2l7.2-8.6c0.2-0.2,0.2-0.6-0.1-0.7c-0.2-0.2-0.6-0.2-0.7,0.1l-7.2,8.6
					c-0.2,0.2-0.2,0.6,0.1,0.7C39.8,96.9,39.9,97,40.1,97z"/>
			</g>
			<g>
				<path d="M81.7,103c0.4,0,0.9,0,1.3,0c0.3,0,0.5-0.3,0.5-0.6c0-0.3-0.3-0.5-0.6-0.5c-1.8,0.1-3.6,0-5.3-0.2
					c-0.3,0-0.6,0.2-0.6,0.5s0.2,0.6,0.5,0.6C78.9,102.9,80.3,103,81.7,103z"/>
			</g>
			<g>
				<path d="M77.5,102.8c0.1,0,0.1,0,0.2,0c0.3,0,0.5-0.2,0.5-0.5s-0.2-0.5-0.5-0.5l0,0c-1.3,0-2.5-0.2-3.8-0.4
					c-1.4-0.2-2.7-0.6-4.1-0.9l-0.1,0c-0.3-0.1-0.6,0.1-0.6,0.4c-0.1,0.3,0.1,0.6,0.4,0.6l0.1,0c1.3,0.3,2.7,0.7,4.1,0.9
					C74.9,102.6,76.2,102.8,77.5,102.8z"/>
			</g>
			<g>
				<path d="M83.6,112.3L83.6,112.3c4.2-0.1,8.1-0.4,11.9-1c0.3-0.1,0.5-0.3,0.4-0.6c-0.1-0.3-0.3-0.5-0.6-0.4
					c-3.7,0.6-7.5,0.9-11.7,1c-0.3,0-0.5,0.2-0.5,0.5C83.1,112.1,83.4,112.3,83.6,112.3z"/>
			</g>
			<g>
				<path d="M76.1,111.9c0.3,0,0.5-0.2,0.5-0.4c0.1-0.3-0.2-0.6-0.4-0.6c-0.6-0.1-1.2-0.2-1.9-0.3c-0.7-0.1-1.3-0.2-2-0.3
					c-0.6-0.1-1.2-0.2-1.9-0.4c-0.7-0.1-1.4-0.3-2.1-0.4c-0.3-0.1-0.6,0.2-0.6,0.4c-0.1,0.3,0.2,0.6,0.4,0.6
					c0.7,0.1,1.4,0.3,2.1,0.4c0.7,0.1,1.3,0.3,1.9,0.4c0.7,0.1,1.4,0.2,2.1,0.3C74.8,111.6,75.5,111.7,76.1,111.9
					C76,111.9,76.1,111.9,76.1,111.9z"/>
			</g>
			<g>
				<path d="M83,102.9L83,102.9c3.4-0.2,6.7-0.8,10-1.8c0.3-0.1,0.4-0.4,0.3-0.7c-0.1-0.3-0.4-0.4-0.7-0.3c-3.2,1-6.4,1.6-9.7,1.7
					c-0.3,0-0.5,0.3-0.5,0.6C82.5,102.7,82.7,102.9,83,102.9z"/>
			</g>
			<g>
				<path d="M95.4,111.3c0.1,0,0.1,0,0.1,0c0.3-0.1,0.4-0.4,0.4-0.6l-2.6-10.1c-0.1-0.3-0.4-0.4-0.6-0.4c-0.3,0.1-0.4,0.4-0.4,0.6
					l2.6,10.1C95,111.1,95.2,111.3,95.4,111.3z"/>
			</g>
			<g>
				<path d="M83.6,112.3L83.6,112.3c0.3,0,0.5-0.3,0.5-0.6l-0.6-9.3c0-0.3-0.3-0.5-0.6-0.5c-0.3,0-0.5,0.3-0.5,0.6l0.6,9.3
					C83.1,112.1,83.4,112.3,83.6,112.3z"/>
			</g>
			<g>
				<path d="M72.2,111.3c0.2,0,0.5-0.2,0.5-0.4l1.6-8.9c0.1-0.3-0.1-0.6-0.4-0.6s-0.6,0.1-0.6,0.4l-1.6,8.9
					C71.6,111,71.8,111.2,72.2,111.3C72.1,111.3,72.1,111.3,72.2,111.3z"/>
			</g>
			<g>
				<path d="M83.6,112.3c0.3,0,0.5-0.2,0.5-0.5c0-0.3-0.2-0.5-0.5-0.6h-0.1c-2.5-0.1-5.1-0.2-7.5-0.4c-0.3,0-0.6,0.2-0.6,0.5
					s0.2,0.6,0.5,0.6C78.5,112.1,81.1,112.2,83.6,112.3L83.6,112.3L83.6,112.3z"/>
			</g>
			<g>
				<path d="M107.1,108.1c0.1,0,0.1,0,0.2,0c0.3-0.1,0.4-0.4,0.3-0.7l-4-10.5c-0.1-0.3-0.4-0.4-0.7-0.3c-0.3,0.1-0.4,0.4-0.3,0.7
					l4,10.5C106.7,107.9,106.9,108.1,107.1,108.1z"/>
			</g>
			<g>
				<path d="M95.4,111.3C95.5,111.3,95.5,111.3,95.4,111.3c1.6-0.2,3-0.5,4.3-0.7c2.5-0.5,4.6-1.1,6.4-2c0.2-0.1,0.4-0.2,0.6-0.3
					c0.2-0.1,0.3-0.2,0.6-0.2c0.3-0.1,0.4-0.4,0.3-0.7c-0.1-0.3-0.4-0.4-0.7-0.3c-0.2,0.1-0.4,0.2-0.6,0.3c-0.2,0.1-0.3,0.2-0.6,0.2
					h0c-1.8,0.8-3.8,1.4-6.2,1.9c-1.3,0.2-2.7,0.5-4.2,0.7c-0.3,0.1-0.5,0.3-0.4,0.6C95,111.1,95.2,111.3,95.4,111.3z"/>
			</g>
			<g>
				<path d="M92.8,101.2c0.1,0,0.1,0,0.1,0c1.9-0.5,3.8-1.2,5.9-2.1c1.8-0.7,3.1-1.1,4.4-1.5c0.3-0.1,0.4-0.4,0.4-0.7
					c-0.1-0.3-0.4-0.4-0.7-0.4c-1.3,0.3-2.6,0.8-4.5,1.5c-2.1,0.9-3.9,1.6-5.8,2.1c-0.3,0.1-0.4,0.4-0.4,0.7
					C92.4,101,92.6,101.2,92.8,101.2z"/>
			</g>
			<g>
				<path d="M22.5,78.6c0.2,0,0.4-0.1,0.4-0.3c0.2-0.3,0.1-0.6-0.2-0.7c-1.6-0.9-3.1-1.4-4.7-2c-0.3-0.1-0.6,0.1-0.7,0.3
					c-0.1,0.3,0.1,0.6,0.3,0.7l0,0c1.6,0.5,3,1,4.5,1.8C22.3,78.6,22.4,78.6,22.5,78.6z"/>
			</g>
			<g>
				<path d="M112.4,71.9c0.1,0,0.2,0,0.3-0.1c0.2-0.2,0.3-0.5,0.2-0.7c-2.4-3.8-5.7-6.5-9.9-8h0c-1.7-0.5-4-1.1-6.8-1.1l0,0
					c-0.3,0-0.5,0.2-0.5,0.5c0,0.3,0.2,0.5,0.5,0.5c2.6,0,4.7,0.6,6.4,1.1c4,1.5,7.1,4,9.4,7.6C112.1,71.8,112.2,71.9,112.4,71.9z"
					/>
			</g>
			<g>
				<path d="M45.3,60.7c0.1,0,0.2,0,0.3-0.1c5-4.1,11-5.2,17.6-3.1c0.3,0.1,0.6-0.1,0.7-0.3s-0.1-0.6-0.3-0.7
					c-7-2.1-13.4-1-18.7,3.3c-0.2,0.2-0.3,0.5-0.1,0.7C45,60.6,45.2,60.7,45.3,60.7z"/>
			</g>
		</g>
	</g>
</g>
<path d="M22,23.5L22,23.5"/>
</svg>
