<?xml version="1.0" encoding="utf-8"?>
<!-- Generator: Adobe Illustrator 21.0.2, SVG Export Plug-In . SVG Version: 6.00 Build 0)  -->
<svg version="1.1" id="Layer_4" xmlns="http://www.w3.org/2000/svg" xmlns:xlink="http://www.w3.org/1999/xlink" x="0px" y="0px"
	 viewBox="0 0 100 85.8" style="enable-background:new 0 0 100 85.8;" xml:space="preserve">
<style type="text/css">
	.st0{fill:#4D2C2B;}
	.st1{fill:#4D2C2B;stroke:#723D3D;stroke-miterlimit:10;}
	.st2{fill:#723D3D;}
	.st3{fill:#4D2C2B;stroke:#4D2C2B;stroke-linecap:round;stroke-miterlimit:10;}
	.st4{opacity:0.2;fill:#4D2C2B;enable-background:new    ;}
	.st5{opacity:0.2;enable-background:new    ;}
</style>
<title>Artboard 1</title>
<g>
	<g>
		<path class="st0" d="M8.3,4.4c-1.5-1.2-3.1-0.9-4-1.9s-2-1.5-1.7,0s1.1,3.9,2.8,4.3S8.3,4.4,8.3,4.4z"/>
		<path class="st1" d="M34.4,47.9c-1.3,2.3-4.5,6.4-6.7,7.9S21,60,20.7,62c-0.3,2,0.6,6.7,1.6,7.6c1,0.9,1.8,1.5,1.3,2.6
			c-0.5,1.1-0.8,1.5,0.6,1.5c1.1-0.2,2.2,0.6,2.4,1.7c0.1,0.4,0,0.7-0.1,1.1c-0.3,2-0.8,4.7-1.5,5.4c-0.7,0.7-3-5.4-3.5-6.5
			c-0.5-1.1-1.1-2.3-1.8-2.6C19,72.5,19.3,71,19,69.3c-0.3-1.7-0.4-5.1-1.1-6.5c-0.7-1.4-1.3-4.5,0-5.8c1.3-1.3,6.7-6,7.1-7.4
			c0.4-1.4,1.3-3.8,1.5-5.1C26.7,43.2,34.4,47.9,34.4,47.9z"/>
		<path class="st1" d="M69.1,42.4c-1.1,2.2,1.5,5.3,3,6.7c2.8,3,5.3,6.3,7.5,9.7c1.5,2.5,4.2,9.3,3.8,11.4c-0.4,2.1-2,7.3-3.5,8.4
			c-1.5,1.1-5.5,2.9-5.1,3.5c0.4,0.6,5.4,2.6,6.8,1.1c1.4-1.5,1.2-3.4,2.3-4.2c1.1-0.8,3.6-0.4,2.9-2.3c-0.7-1.9-0.4-7.5-0.6-9.5
			c-0.2-2,0-8.2-0.3-9.3s-5.5-11-5.4-12.9C80.6,43.1,70.5,39.7,69.1,42.4z"/>
		<path class="st0" d="M80.9,22.5c2.1-2.1,4.6-4.7,7-5.5s10.3-1,11.7,6.6c1.4,7.6-1.3,12.5-2,15.8c-0.7,2.7-0.7,5.6,0,8.3
			c0.6,1.8-2-0.6-2.3-2.1s-1.3-0.3-0.4,2.5c0.7,2.1,2.1,3.8,3.9,5c1.6,1.1-2.1,1.1-4.4-0.4s-2-6.2-2.8-5.9s-1.5,3.9-1,5.6
			c0.5,1.7-1.5,0.6-1.6-2.3s-0.7-8.5-0.1-9.8c0.6-1.3,0.8-4.9-0.5-3.3s-2.1-0.6-0.4-2.6c1.7-2,2.8-4.1,2.6-6.7s-2.4-6.7-7.3-3.1
			C78.4,28.2,80.9,22.5,80.9,22.5z"/>
		<path class="st2" d="M5.4,0.1C6.9,0.9,8.9,2.8,10,3c1.5,0.2,3.1,0.2,4.6,0c2.1-0.2,6.8-1.5,11.8,2.9s10.5,11.3,13.4,12.9
			c2.9,1.6,7.1,5.9,14.2,5.5c7.1-0.4,12.5-3.5,18.9-3.7s11.1-0.2,13.9,5.5c2.8,5.7,3.7,9.8,0,15.3c-3.7,5.5-3,10,0.7,12.4
			c3.7,2.4,2.6,4,0.6,6.5c-2,2.5-4.9,9.5-4.3,11.2c0.6,1.7,0.8,2.9,0.2,3.7c-0.6,0.8,0.7,2.1,0.4,3.5c-0.3,1.4-1.1,5.5-3,3.9
			c-1.9-1.6-3.1-7.2-2.5-10.4S82,64.9,83.4,62c1.4-2.9-0.9-6.7-3.1-8.1c-2.2-1.4-7.6-5.9-8.3-7.1c-0.7-1.2-2.1-2-7.5,0
			c-5.4,2-12.7,3.6-17.5,3.4s-8.6-1.8-8.6-0.5s0.1,10.8,0.5,12.3c0.3,2,0.3,4.1-0.1,6.1c-0.3,2.1-0.2,4.3,0.1,6.4
			c0.3,1.1,1.1,4.1,0.4,5.4c-0.7,1.3-3,2.3-3.1,4c-0.1,1.7-2.1,1.9-4.9,2s-4.2-0.8-1.5-2.9s5.1-3.4,5.2-4.4c0.1-1,1.1-3,0.9-4.5
			c-0.2-1.5-1.3-5.5-1.6-7.4C34,64.8,34,62.2,33.7,61S32,50.3,30.9,49.6c-1.1-0.7-6.4-3-7.8-5.4s-2.6-5.4-2-8.3
			c0.6-2.6,0.4-5.3-0.6-7.8c-0.7-1.8-2.4-8.5-3.4-9.8c-1-1.3-2,0.6-4,2.3S8.9,24.1,7.7,26c-1.2,1.9-3.3,3.3-5.3,2.6
			c-1.8-0.7-2.7-2.6-2.2-4.4c0.6-2,3-10,3-11.1c0-1.2,0.2-2.4,0.5-3.5C4,8.5,4.4,5.9,5.4,5.3S7.2,4.5,6.5,3S4.4-0.4,5.4,0.1z"/>
		<path class="st0" d="M11,1.8c2.3-0.4,3.3,1.3,4.2,1.1c1.6-0.5,3.3-0.7,5-0.6c2.5,0.3,7.8,3,9.6,4.8c1.8,1.8,6.1,6.2,7.1,7.6
			s5,4.3,7,5.5c2,1.2,3.4,2.8,2,3.3c-1.4,0.5-1.8-0.8-2.6,0.4c-0.7,1.1-1.3,2.3-1.6,3.6c-0.2,0.9-0.9,3.9-2.1,4.5
			c-1.2,0.6,0.8-6.1-0.1-6.3c-0.9-0.2-0.8,5.1-1.6,5.5c-0.8,0.4,0.3-4.4-0.9-5s-0.7,2.3-1.6,2.3s-0.6,1.3-1.5,1.5s0-5.1-0.6-5.6
			c-0.6-0.5-0.3,2.1-1.4,1.9c-1.1-0.2-1.1-4.7-1.8-5c-0.7-0.3-0.2,3.2-1.4,3.3c-1.2,0.1-0.8-6.6-1.7-6.9s-1.4,2-1.8,1.9
			c-0.4-0.1-0.3-4.9-1-5.9c-0.7-1.2-1.3-2.5-1.8-3.8c-0.6-1.3-1.1,1.5-1.6,0.3c-0.5-1.2-0.9-4.2-2-4.7c-1.1-0.5-3.4-1.8-4.2-1.8
			s-3.9,0.5-4.3-0.1S8.7,2.3,11,1.8z"/>
		<path class="st0" d="M1.8,24.2c0.9,0.2,1.3,1.1,1.1,2c0,0,0,0,0,0c-0.3,0.7-1.1,1.6-1.1,0.9S1.2,24,1.8,24.2z"/>
		<path class="st0" d="M6.7,13c0.1-0.9-0.1-1.4,0.9-1.5c1-0.1,1.8,0.3,2,0c0.2-0.3-0.1,0.9-0.9,1.5C7.9,13.6,6.6,13.4,6.7,13z"/>
		<path class="st0" d="M16.3,17.7c3.2-3.2-0.6-6.5-2.1-8.3s4.4,2.1,4.5,4.9C18.9,15.9,17.8,17.3,16.3,17.7z"/>
		<path class="st0" d="M39,47.3c1.5-2.1,2.1-7.3,1.1-9.5c1.4,1.9,1.8,4.4,1.1,6.6C40.1,48.4,39,47.3,39,47.3z"/>
		<path class="st0" d="M31.3,48.7c-0.1-1.9-4-4.3-5.5-8.1c0,0-0.3,2.2,2.3,5S31.3,48.7,31.3,48.7z"/>
		<path class="st3" d="M7.6,23.9c-0.4,1.7-1.2,3.2-2.4,4.4"/>
	</g>
	<path class="st4" d="M24.3,73.9c-1.5-0.1-1-0.4-0.6-1.5c0.4-1.1-0.3-1.8-1.3-2.6c-1-0.8-1.8-5.5-1.6-7.6c0.2-2.1,4.9-4.7,7-6.2
		c1.4-1.1,2.6-2.4,3.7-3.8c-0.8-1.5-1.9-2.9-3.2-4c-0.8,3.8-5.8,7.5-8,9.8c-2.2,2.3-1.4,4.4-0.7,6.9c0.7,2.5,0.9,4.1,1.4,6.2
		c0.9,3.5,2.5,6.7,4.8,9.5c0.3-1.3,0.6-2.6,0.8-3.9C26.9,74.7,25.8,74,24.3,73.9z"/>
	<path class="st5" d="M87.6,53.9c-3.7-2.4-4.4-7.1-0.8-12.4c1-1.5,1.8-3.1,2.2-4.9l0.3,0.2l0.3-1.7v-0.3c-0.1-0.8-0.2-1.5-0.3-2.2
		v0.2c-0.4-2.3-1.2-4.5-2.3-6.6c-0.5-1-1.2-1.8-2-2.6l0.7-0.3L82.4,21L82,21.4l-2.1-0.6c1.8,2.3,3,5.1,3.5,8
		c0.6,2.6,0.7,5.3,0.4,7.9c-0.6,3.5-2.8,7.4-2.2,11l0.2,0.4c0.5,1.5,0.9,3,1.5,4.4c0.6,0.5,1.1,1.2,1.5,1.8c2.2,3.5,1.9,7.4,0,11
		c-1.9,3.6-3.1,5.3-3.3,8.5c-0.2,3,0.4,5.9,1.7,8.6c0.8-1.1,1.3-2.4,1.4-3.8c1.2-0.4,2.8-0.4,2.3-2c-0.5-1.6-0.4-7.5-0.6-9.5
		c-0.2-2-0.1-2.1-0.1-3.5c0.5-1.2,1.2-2.3,2-3.3C90.2,57.9,91.3,56.3,87.6,53.9z"/>
</g>
</svg>
