<?xml version="1.0" encoding="utf-8"?>
<!-- Generator: Adobe Illustrator 21.0.2, SVG Export Plug-In . SVG Version: 6.00 Build 0)  -->
<svg version="1.1" id="Layer_1" xmlns="http://www.w3.org/2000/svg" xmlns:xlink="http://www.w3.org/1999/xlink" x="0px" y="0px"
	 viewBox="0 0 100 76.1" style="enable-background:new 0 0 100 76.1;" xml:space="preserve">
<style type="text/css">
	.st0{fill:#4D2C2B;}
	.st1{fill:#FDC312;}
	.st2{fill:#FEFEFE;}
</style>
<title>Artboard 1</title>
<g>
	<path class="st0" d="M58.3,0c0.8,0.1,1.7,0.2,2.5,0.4c3.6,0.8,7.2,2,10.5,3.8c0.8,0.4,1.4,0.9,2,1.5c0.3,0.3,0.5,0.6,0.6,1.1
		c-1.1,0.1-2.3,0.1-3.4,0.1c-2.2,0-4.4-0.1-6.7,0.2c-1.2,0.2-2.4,0.5-3.5,1.1c-3.5,2.1-4.1,6.4-1.3,9.5c1.3,1.5,2.8,2.8,4.5,3.9
		c2.9,1.9,5.5,4.2,7.5,7c1.2,1.6,2.2,3.3,3.2,5l0.5,0.8c0.2-0.1,0.3-0.3,0.4-0.4c1.8-2.6,3.5-5.2,5.6-7.6s4.8-4.8,8-6.1
		s6.7-1.7,10.1-1l0.3,0.1c0.3,0.1,0.7,0.2,0.8,0.4c0,0.3-0.3,0.6-0.6,0.8c-0.6,0.4-1.3,0.4-2,0.6c-1.5,0.3-2.9,0.8-4.1,1.7
		c-0.8,0.5-1.4,1.2-1.7,2.1c-0.2,0.7-0.3,1.5,0.1,2.2c1.8,3.4,2.2,7.2,2.2,11c0,3.3-0.7,6.5-2.1,9.5c-0.5,1.2-1.1,2.4-1.2,3.7
		c-0.2,1.5,0.3,2.8,1.7,3.6c1.1,0.7,2.3,1.2,3.6,1.4c0.6,0.1,1.1,0.3,1.7,0.5c0.5,0.3,0.9,0.6,0.8,1.2s-0.5,0.9-1,1.1
		c-0.4,0.1-0.7,0.2-1.1,0.2c-1.5,0.2-3.1,0.1-4.6-0.3c-1.2-0.3-2.3-0.9-3.4-1.5c-3.8-2.1-7.1-5.1-9.5-8.8c-0.8-1.2-1.2-2.5-1.7-3.9
		c-0.3-0.9-0.8-1.8-1.4-2.6c-0.2-0.2-0.3-0.2-0.4,0c-0.2,0.2-0.6,0.8-0.8,1.2c-0.6,1.1-1.5,1.8-2.6,2.2c-1.1,0.5-2.4,0.8-3.5,1.4
		c-1,0.6-1.9,1.4-2.4,2.5c-0.1,0.1-0.2,0.3-0.2,0.4c-1.2,3.4-3.9,5.7-6.6,7.9c-1.9,1.5-3.9,2.7-6.1,3.6c-0.2,0.1-0.3,0.2-0.4,0.4
		c-1.1,2.5-0.5,5,1.8,6.5c1.6,1.1,3.5,1.6,5.4,1.8c1.9,0.2,3.9,0,5.7-0.6c0.6-0.2,1.3-0.3,2-0.2c0.3,0,0.5,0.1,0.3,0.5
		c-0.4,1.3-1.3,2.2-2.4,3c-1.9,1.4-4.1,2.2-6.4,2.5c-6.5,1.1-12.6,0.2-18.4-2.8c-4.1-2.1-7.6-5-10.6-8.3c-0.7-0.8-1.4-1.7-2.1-2.5
		c-0.2-0.2-0.4-0.4-0.7-0.5c-1.5-0.5-2.9-1.2-4.2-2.2c-1.8-1.5-3.5-3.1-5.1-4.8c-1.7-1.8-3.4-3.6-5.4-5.1c-1.7-1.3-3.5-2.4-5.3-3.5
		c-1.5-1-2.9-2-4-3.4c-1.3-1.4-2.1-3.1-2.5-5c0-0.2,0-0.4-0.2-0.5v-2.2c0.9-0.2,1.3,0.6,2,1c0-0.2,0-0.4,0-0.5c0-0.7,0.5-1.1,1.3-1
		c0.3,0.1,0.6,0.2,0.8,0.5c0.2,0.2,0.3,0.4,0.7,0.5C5.2,34.7,5.1,34.3,5,34c-0.1-0.4-0.1-0.8-0.1-1.2c0-0.2,0.1-0.5,0.3-0.6
		c3.6-2,6.7-4.7,9.4-7.7c2-2.2,3.9-4.6,5.8-6.9c2.7-3.3,6-5.6,10.4-6.2c2.1-0.3,3.9-1.3,5.3-3c0.5-0.7,1.1-1.3,1.8-1.8
		c4.5-3.4,9.6-5.4,15.1-6.3c0.2-0.1,1-0.1,1.7-0.3C54.7,0,58.3,0,58.3,0z M36.2,12.6c-0.1,0-0.1,0-0.1,0.1l0,0
		c-0.1,0-0.2,0.1-0.1,0.2l0,0c-0.2,0-0.2,0.2-0.3,0.3l0,0c-0.2,0.1-0.2,0.3-0.3,0.4c-1.2,1.8-1.8,3.9-2.2,6.1
		c-0.1,0.4-0.3,0.8-0.1,1.2L33,21.5c-0.1,0-0.1,0.1-0.1,0.2c-0.6,3.4-0.6,6.9-0.9,10.3c0.1,0.3-0.1,0.5-0.1,0.8s0,0.5,0.4,0.4
		c0.9-0.2,1.9-0.2,2.8,0c0.9,0.2,1.8,0.4,2.5,1.1c0,0.1,0.1,0.2,0.2,0.1l0,0c-0.1,0.1,0,0.2,0.1,0.2l0,0c0.2,0.3,0.3,0.7,0.4,1
		c0.2,1,0,1.9-0.4,2.8c-0.5,1.5-1.3,2.9-2,4.3l0,0c-0.3,0.3-0.5,0.6-0.7,1l0,0c-0.1,0-0.2,0.1-0.2,0.3l0,0l0,0
		c-0.2,0-0.2,0.1-0.2,0.2l0,0c-0.1,0.1-0.2,0.2-0.2,0.3l0,0c-0.1,0.1-0.2,0.2-0.2,0.3l0,0c-0.2,0.1-0.2,0.4-0.4,0.4s0-0.2,0.1-0.3
		c0.5-1,1.1-2.1,1.7-3.1c0.8-1.6,1.5-3.2,1.8-5s-0.5-2.9-2.1-3.3c-1-0.3-2.1-0.3-3.2,0c-1.6,0.3-3,1.1-4.5,1.9
		c-1.1,0.6-2.1,1.2-3.2,1.7s-2.6,0.8-3.9,0.4c-0.4-0.1-0.5,0-0.5,0.3c-0.1,0.7-0.1,1.4-0.2,2s0.1,1.1,0.6,1.6
		c1.2,1.2,1.8,2.8,2.4,4.3s1.2,3.3,2.1,4.8c0.2,0.3,0.4,0.4,0.7,0.5c2,0.5,3.7-0.1,5.2-1.4c1.2-1.1,2-2.4,2.9-3.8
		c0.1-0.1,0.1-0.4,0.3-0.4c-0.2,0.6-0.6,1.1-0.7,1.7c-0.2,1.4-0.1,2.7,0.1,4.1c0.4,2.7,1.5,5.3,3,7.5l0,0c0,0.2,0.1,0.3,0.2,0.4l0,0
		c0,0.1,0,0.2,0.2,0.2l0,0c0,0.1,0,0.3,0.2,0.3l0,0l0,0c0.1,0.3,0.3,0.6,0.5,0.8l0,0c0,0.1,0.1,0.2,0.2,0.2l0,0c0,0.1,0,0.2,0.2,0.2
		l0,0c0.1,0.3,0.2,0.6,0.5,0.7c1.9,0.3,3.9,0.4,5.9,0.3c3.2-0.1,6.3-0.5,9.2-1.8c1.4-0.6,2.7-1.3,3.6-2.5L57.1,58
		c-3.4-0.6-5.9-2.6-7.6-5.6c-1.4-2.5-2.1-5.3-2.7-8.1c-0.5-2.4-0.8-4.8-1.3-7.2c-0.3-1.5-0.8-3.1-0.9-4.7c-0.2-4.1,0.2-8.2,1.4-12.2
		c0.7-2.3,1.7-4.4,3.4-6.3c0.3-0.3,0.6-0.6,1-0.9l-2.7-0.9c-2.6-0.9-5.2-1.6-8-1.6c-0.8,0-1.5,0.2-2.1,0.7c-0.1,0.1-0.2,0.2-0.3,0.2
		s-0.2,0-0.1,0.2l0,0c-0.1,0-0.2,0-0.2,0.1l0,0L36.8,12l0,0c-0.1,0-0.1,0-0.1,0.1l0,0c-0.2,0-0.3,0.2-0.3,0.3l0,0
		c-0.1,0-0.1,0-0.1,0.1l0,0C36.2,12.5,36.2,12.6,36.2,12.6L36.2,12.6z M40.9,64.1l-0.2,0.1l0,0c-0.3,0.1-0.3,0.2-0.2,0.4
		c0.1,0.4,0.2,0.8,0.4,1.3c0.9,2.1,2,4,3.1,6c0,0.1,0.1,0.2,0.2,0.1l0,0c0,0.2,0.1,0.3,0.3,0.4c0.4,0.5,0.9,1,1.4,1.3
		c0,0.1,0.1,0.1,0.2,0.1l0,0l0.2,0.1l0,0l0.2,0.1l0,0c0.1,0.1,0.1,0.1,0.2,0.1l0,0l0.4,0.2c1.2,0.5,2.5,0.7,3.7,0.9
		c2.5,0.3,5,0.1,7.4-0.2c2.5-0.3,4.9-1.2,7-2.8c0.7-0.6,1.4-1.2,1.7-2.2c-0.1-0.1-0.3-0.1-0.4,0c-0.9,0.3-1.8,0.4-2.7,0.5
		c-2.6,0.3-5.2,0.3-7.7-0.6c-3.7-1.2-5.3-3.8-4.4-7.5c0.1-0.5-0.1-0.5-0.4-0.4c-1.4,0.3-2.8,0.5-4.2,0.7c-1.8,0.3-3.6,0.4-5.3,1.2
		c-0.1,0-0.2,0-0.2,0.1l0,0c-0.1,0-0.2,0-0.3,0.1l0,0H40.9L40.9,64.1z M4.7,36.3c0-0.3,0.4-0.2,0.4-0.5c-0.6-0.1-1.1,0.1-1.5,0.5
		H4.7c0,0.2-0.3,0.2-0.3,0.4L5.6,37C5.8,37,6,37,6,36.8c0.1-0.2-0.1-0.3-0.3-0.3C5.7,36.4,5.1,36.3,4.7,36.3z M26.1,60.6h0.1H26.1
		c-0.4-1.2-1-2.2-1.6-3.2c-0.5-0.8-0.9-1.6-1.2-2.4c-0.8-1.9-1.2-3.9-0.6-5.9c0.2-0.7,0.1-1.5,0-2.2c-0.4-1.8-1.3-3.5-2.7-4.7
		c-0.7-0.6-0.9-1.2-0.7-2.1s0.2-1.5,0.5-2.2c0.2-0.5,0.6-0.8,1.2-0.7c0.6,0,1.4,0,2.2,0c0.4,0,0.5-0.1,0.5-0.5
		c0-1.5-0.2-2.9-0.7-4.3c-0.6-1.8-1.1-3.5-1.2-5.4c-0.1-1.6,0-3.3,0.2-4.9c0.2-2.2,0.5-4.5,1.4-6.6c0-0.1,0.2-0.2,0-0.4
		c-0.2-0.1-0.3,0-0.4,0.1s-0.2,0.2-0.3,0.3c-1.2,1.7-2.7,3.2-3.9,4.9c-1.3,1.7-2.7,2.9-4.1,4.3c-1.1,1.2-1.7,2.5-1.6,4.1
		c0.1,1,0.1,1.9,1.3,2.2c0.1,0.1,0.3,0.1,0.4,0.2c1.5,1,2,2.7,1.3,4.3c-0.6,1.4-2,2-3.7,1.6C9.6,36.6,8.6,34.2,10,32
		c0.1-0.2,0.3-0.3,0.3-0.6c-0.3,0-0.5,0-0.7-0.2c-0.6-0.6-1-0.6-1.7,0s-1.2,0.6-1.8,0.9c-1.3,0.6-1.6,1.7-0.8,2.9
		c0.4,0.6,1,1.2,1.4,1.8c0.2,0.2,0.4,0.4,0.7,0.3c0.7,0,1.4-0.2,2,0C9,37.4,8.7,37.8,8,37.7c-1.1-0.2-2.2-0.3-3.3-0.5
		C3.4,37,2,36.7,1.1,35.4c0-0.1-0.1-0.1-0.2-0.1c-0.3-0.2-0.5-0.1-0.5,0.2c0,1.7,0.4,3.3,1.3,4.8s2.4,2.7,3.9,3.6
		c2.9,1.9,5.7,3.9,8.3,6.1c1.8,1.4,3.3,3.2,4.8,4.9c1.4,1.5,2.9,2.9,4.5,4.2C24.1,59.7,25.1,60.2,26.1,60.6z M82.5,52.7
		c1.8-3.9,2.7-8,3.2-12.2c0.3-2.9,0.3-5.7,0-8.6c-0.3-2.5-0.8-4.9-1.7-7.2c-0.1-0.3-0.2-0.3-0.5-0.1c-0.7,0.5-1.4,1-2.1,1.6
		c-2.1,2-3.6,4.3-5,6.8l-1.6,2.6l-0.4-0.9c-1.7-3.7-4.3-6.7-7.3-9.4s-6.2-5.1-9.1-7.9c-0.2-0.2-0.3-0.2-0.5,0
		c-1,1.1-1.7,2.5-2.2,3.9c-1,2.7-1.4,5.4-1,8.2c0.5,3.4,2,6.4,4.3,8.9c0.1,0.1,0.3,0.3,0.3,0.5c0.6,1.8,1.9,3.1,3.5,4.2
		c1.6,1.1,3.6,2,5.3,3.3c0.1,0.1,0.3,0.1,0.4,0c1.1-0.7,2.4-1,3.6-1.6c1.2-0.5,2.3-1.2,2.4-2.7c0-0.3,0.2-0.6,0.6-0.7
		c0.4-0.1,0.8,0.1,1,0.4c0.4,0.5,0.6,1.1,0.9,1.7c0.7,1.9,1.5,3.7,2.5,5.4C80.1,50.5,81,51.7,82.5,52.7z M73.3,6.6l-0.6-0.5
		C70.9,4.8,69,3.7,67,2.8c-5.1-2.3-10.5-2.9-16-1.7c-3.2,0.7-6.3,2-9.3,3.2c-0.6,0.3-1,0.6-1.1,1.3c-0.2,1.4-0.9,2.6-1.4,3.9
		c-0.2,0.6-0.2,0.6,0.4,0.6c1.4,0.1,2.7,0.2,4.1,0.5c2.3,0.4,4.5,1.2,6.7,2.1c0.2,0.1,0.4,0.2,0.6,0c1.5-0.8,3.1-1.1,4.7-1
		c0.3,0,0.5-0.1,0.7-0.3c1-1,1.9-2,2.9-2.9c1.8-1.7,4-2.6,6.5-2.5c1.5,0,3,0.3,4.5,0.5C71.3,6.7,72.2,6.8,73.3,6.6z M9.8,33.9
		c-0.1,1.7,1.1,2.9,2.7,3s3-1.1,3.1-2.9c0.1-0.8-0.2-1.6-0.7-2.2c-0.7-0.8-1.7-0.8-2.6-0.7C11.3,31.1,9.8,32.2,9.8,33.9z M2.4,35.3
		c0,0.7,0.3,0.9,0.9,0.7c0.1,0,0.3-0.1,0.4-0.2c0.2-0.1,0.6-0.2,0.6-0.5c0-0.2-0.4-0.5-0.7-0.7c-0.1-0.1-0.3-0.1-0.4-0.1
		C2.8,34.6,2.4,34.9,2.4,35.3z"/>
	<path class="st1" d="M32.9,21.6L33,21c0.2-0.4,0.2-0.9,0.3-1.3c0.4-2.1,1-4.1,2.2-6c0.1-0.1,0.2-0.2,0.2-0.4l0,0
		c0.2,0,0.3-0.2,0.3-0.3l0,0c0.1,0,0.2-0.1,0.1-0.2l0,0c0.1,0,0.1,0,0.1-0.1l0,0c0.1,0,0.1,0,0.1-0.1l0,0c0.1,0,0.1,0,0.1-0.1l0,0
		c0.2,0,0.3-0.1,0.3-0.3l0,0l0,0c0.1,0,0.1,0,0.1-0.1l0,0c0.1,0,0.1,0,0.1-0.1l0,0c0.1,0,0.2,0,0.2-0.1l0,0c0.1,0,0.1-0.1,0.1-0.2
		c0.1-0.1,0.2-0.1,0.3-0.2c0.6-0.5,1.4-0.8,2.1-0.7c2.8,0,5.4,0.7,8,1.6l2.7,0.9c-0.3,0.3-0.7,0.6-1,0.9c-1.6,1.8-2.6,4-3.4,6.3
		c-1.2,4-1.7,8-1.4,12.2c0.1,1.6,0.5,3.1,0.9,4.7c0.5,2.4,0.8,4.8,1.3,7.2c0.5,2.8,1.3,5.6,2.7,8.1c1.7,3,4.2,4.9,7.6,5.6l0.2,0.1
		c-1,1.2-2.3,2-3.6,2.5c-2.9,1.2-6,1.7-9.2,1.8c-2,0-3.9-0.1-5.9-0.3c-0.1-0.3-0.2-0.5-0.5-0.7l0,0c0-0.1,0-0.3-0.2-0.2l0,0
		c0.1-0.2,0-0.3-0.2-0.3l0,0c0-0.4-0.3-0.6-0.5-0.8l0,0c0-0.1-0.1-0.3-0.2-0.3l0,0c0-0.1,0-0.3-0.2-0.2l0,0c0.1-0.2,0-0.3-0.2-0.4
		l0,0c0.1-0.2-0.1-0.3-0.2-0.5c-1.6-2.4-2.5-5.1-2.9-8c-0.2-1.8-0.2-3.5,0.9-5.1c0-0.1,0.1-0.1,0-0.2l0,0c0.2,0,0.3-0.1,0.2-0.3l0,0
		c0.2,0,0.3-0.1,0.2-0.3l0,0c0.2,0,0.2-0.1,0.2-0.2l0,0c0.1,0,0.2-0.2,0.2-0.3l0,0c0.3-0.3,0.6-0.6,0.7-1l0,0
		c0.2,0.1,0.2-0.1,0.2-0.2c0.7-1.5,1.5-2.9,2-4.4c0.3-0.8,0.5-1.6,0.3-2.5c-0.1-0.4-0.2-0.9-0.6-1.2l0,0c0.1-0.1,0-0.2-0.1-0.2l0,0
		c0-0.2-0.1-0.1-0.2-0.1c-0.7-0.7-1.6-1-2.5-1.1c-0.9-0.2-1.9-0.2-2.8,0c-0.4,0.1-0.4-0.1-0.4-0.4c0-0.3,0.2-0.5,0.1-0.8
		c0.2-0.1,0.2-0.4,0.2-0.5c0.3-2.6,0.3-5.3,0.6-7.9C32.8,23,33,22.3,32.9,21.6z"/>
	<path class="st1" d="M82.5,52.7c-1.5-1-2.6-2.4-3.5-3.9s-1.8-3.5-2.5-5.4c-0.2-0.6-0.5-1.2-0.9-1.7c-0.2-0.3-0.6-0.5-1-0.4
		S74,41.7,74,42c-0.2,1.5-1.2,2.2-2.4,2.7c-1.3,0.5-2.5,0.9-3.6,1.6c-0.1,0.1-0.3,0.1-0.4,0c-1.7-1.2-3.6-2.1-5.3-3.3
		s-2.8-2.3-3.5-4.2c-0.1-0.2-0.2-0.3-0.3-0.5c-2.3-2.5-3.9-5.4-4.3-8.9c-0.4-2.8,0.1-5.6,1-8.2c0.5-1.4,1.2-2.8,2.2-3.9
		c0.2-0.2,0.3-0.2,0.5,0c2.9,2.8,6.1,5.2,9.1,7.9s5.6,5.7,7.3,9.4l0.4,0.9l1.6-2.6c1.5-2.4,3-4.8,5-6.8c0.6-0.6,1.3-1.1,2.1-1.6
		c0.2-0.2,0.3-0.2,0.5,0.1c1,2.3,1.5,4.7,1.7,7.2c0.3,2.9,0.3,5.7,0,8.6C85.2,44.7,84.3,48.8,82.5,52.7z"/>
	<path class="st1" d="M26.1,60.6c-1-0.4-2-0.9-2.9-1.6c-1.6-1.3-3.1-2.7-4.5-4.2c-1.5-1.7-3-3.4-4.8-4.9c-2.7-2.2-5.5-4.2-8.3-6.1
		c-1.5-1-2.9-2.1-3.9-3.6s-1.3-3.1-1.3-4.8c0-0.4,0.2-0.5,0.5-0.2c0.1,0,0.1,0.1,0.2,0.1c0.9,1.3,2.3,1.7,3.8,2
		c1.1,0.2,2.2,0.3,3.3,0.5c0.7,0.1,1-0.3,1.4-0.6c-0.7-0.3-1.3,0-2,0c-0.3,0-0.5-0.1-0.7-0.3c-0.5-0.6-1-1.2-1.4-1.8
		c-0.8-1.2-0.5-2.3,0.8-2.9c0.6-0.3,1.3-0.4,1.8-0.9c0.5-0.4,1.1-0.6,1.7,0c0.2,0.2,0.4,0.2,0.7,0.2c0,0.3-0.2,0.4-0.3,0.6
		c-1.4,2.3-0.3,4.6,2.2,5.2c1.7,0.4,3.2-0.3,3.7-1.6c0.7-1.7,0.2-3.3-1.3-4.3c-0.1-0.1-0.3-0.2-0.4-0.2c-1.2-0.3-1.2-1.2-1.3-2.2
		c-0.1-1.6,0.5-3,1.6-4.1c1.4-1.4,2.9-2.7,4.1-4.3s2.7-3.2,3.9-4.9c0.1-0.1,0.2-0.2,0.3-0.3c0.1-0.1,0.3-0.1,0.4-0.1
		c0.1,0.1,0,0.3,0,0.4c-0.8,2.1-1.1,4.4-1.4,6.6c-0.2,1.6-0.2,3.2-0.2,4.9c0.1,1.9,0.6,3.6,1.2,5.4c0.5,1.4,0.7,2.8,0.7,4.3
		c0,0.4-0.1,0.5-0.5,0.5c-0.7,0-1.4,0-2.2,0c-0.7,0-0.9,0.2-1.2,0.7c-0.3,0.7-0.4,1.5-0.5,2.2c-0.2,0.7,0,1.5,0.7,2.1
		c1.4,1.3,2.3,2.9,2.7,4.7c0.2,0.7,0.2,1.5,0,2.2c-0.6,2.1-0.2,4,0.6,5.9c0.4,0.8,0.8,1.6,1.2,2.4C25.2,58.4,25.7,59.5,26.1,60.6
		L26.1,60.6z"/>
	<path class="st1" d="M73.3,6.6c-1,0.2-2,0-3,0c-1.5-0.1-3-0.4-4.5-0.5c-2.5-0.1-4.7,0.8-6.5,2.5c-1,0.9-1.9,1.9-2.9,2.9
		c-0.2,0.2-0.4,0.3-0.7,0.3c-1.7-0.1-3.3,0.2-4.7,1c-0.2,0.1-0.4,0-0.6,0c-2.2-0.8-4.4-1.6-6.7-2.1c-1.3-0.3-2.7-0.4-4.1-0.5
		c-0.6,0-0.6,0-0.4-0.6c0.5-1.3,1.2-2.5,1.4-3.9c0.1-0.7,0.5-1,1.1-1.3c3-1.3,6.1-2.5,9.3-3.2c5.5-1.3,10.8-0.6,16,1.7
		c2,0.9,3.9,2,5.7,3.3L73.3,6.6z"/>
	<path class="st1" d="M34,45.6c-0.2,0-0.2,0.2-0.3,0.4c-0.8,1.4-1.6,2.7-2.9,3.8c-1.5,1.3-3.2,1.9-5.2,1.4c-0.3-0.1-0.5-0.2-0.7-0.5
		c-1-1.5-1.5-3.1-2.1-4.8c-0.6-1.6-1.2-3.1-2.4-4.3c-0.5-0.5-0.8-0.8-0.6-1.6c0.2-0.7,0.2-1.4,0.2-2c0-0.3,0.1-0.4,0.5-0.3
		c1.4,0.5,2.6,0.2,3.9-0.4c1.3-0.5,2.2-1.1,3.2-1.7c1.4-0.8,2.9-1.5,4.5-1.9c1-0.2,2.1-0.2,3.2,0c1.6,0.4,2.4,1.6,2.1,3.3
		s-1,3.4-1.8,5c-0.5,1.1-1.1,2.1-1.7,3.1C34,45.4,33.8,45.5,34,45.6L34,45.6z"/>
	<path class="st1" d="M45.8,73.7c-0.6-0.3-1-0.8-1.4-1.3c0-0.2-0.1-0.3-0.3-0.4l0,0c-0.6-1.2-1.2-2.3-1.8-3.5
		c-0.5-0.9-1-1.8-1.3-2.8c-0.2-0.5-0.4-1-0.3-1.5l0,0c0.1,0,0.2,0,0.2-0.1l0,0c0.1,0,0.2,0,0.2-0.1l0,0l0.3-0.1l0,0l0.2-0.1
		c1.7-0.7,3.5-0.9,5.3-1.2c1.4-0.2,2.8-0.4,4.2-0.7c0.4-0.1,0.6-0.1,0.4,0.4c-0.8,3.7,0.8,6.3,4.4,7.5c2.5,0.8,5.1,0.9,7.7,0.6
		c0.9-0.1,1.8-0.3,2.7-0.5c0.1-0.1,0.3,0,0.4,0c-0.3,1-1,1.6-1.7,2.2c-2.1,1.6-4.4,2.5-7,2.8s-4.9,0.5-7.4,0.2
		c-1.3-0.1-2.5-0.3-3.7-0.9L46.5,74l0,0c0-0.1-0.1-0.1-0.2-0.1l0,0c0-0.1-0.1-0.1-0.2-0.1l0,0C46.1,73.7,46,73.7,45.8,73.7
		L45.8,73.7C46,73.7,45.9,73.7,45.8,73.7z"/>
	<path class="st2" d="M9.8,33.9c0-1.7,1.4-2.8,2.5-2.9c1-0.1,1.9-0.1,2.6,0.7c0.5,0.6,0.8,1.4,0.7,2.2c-0.1,1.8-1.3,3-3.1,2.9
		C10.7,36.8,9.7,35.6,9.8,33.9z M13.9,35.1c0.7-0.7,0.8-2,0.1-2.6c-0.2-0.2-0.5-0.4-0.8-0.4c-0.8-0.1-1.5,0.2-2.1,0.7
		c-0.6,0.6-0.5,1.5,0.2,2.2c0.7,0.8,1.6,1,2.3,0.5c0.1-0.1,0.2-0.2,0.2-0.2c-0.4-0.2-0.1-0.5,0-0.8s0.1-0.9-0.1-1.3
		c-0.2-0.4-0.6-0.5-1.2-0.5c0.5-0.3,0.8-0.2,1.1,0.1C14.3,33.5,14.4,34.3,13.9,35.1L13.9,35.1z"/>
	<path class="st2" d="M34.4,45.2c0.1,0.1,0,0.2,0,0.2c-1.1,1.5-1.1,3.3-0.9,5.1c0.4,2.9,1.2,5.6,2.9,8c0.1,0.1,0.2,0.3,0.2,0.5
		c-1.6-2.2-2.6-4.8-3-7.5c-0.2-1.4-0.4-2.7-0.1-4.1c0.1-0.6,0.5-1.1,0.7-1.7l0,0C34.2,45.6,34.2,45.3,34.4,45.2z"/>
	<path class="st2" d="M32.9,21.6c0.1,0.7-0.1,1.4-0.2,2.1c-0.3,2.6-0.3,5.3-0.6,7.9c0,0.2,0,0.4-0.2,0.5c0.3-3.4,0.3-6.9,0.9-10.3
		C32.8,21.7,32.8,21.6,32.9,21.6z"/>
	<path class="st2" d="M2.4,35.3c0-0.4,0.4-0.7,0.8-0.7c0.1,0,0.3,0,0.4,0.1c0.3,0.1,0.7,0.3,0.7,0.7S4,35.7,3.8,35.8
		C3.7,35.9,3.5,36,3.4,36C2.8,36.2,2.4,36,2.4,35.3z"/>
	<path class="st2" d="M37.7,34.8c0.5,0.2,0.5,0.7,0.6,1.2c0.2,0.8,0,1.7-0.3,2.5c-0.5,1.5-1.3,3-2,4.4c0,0.1-0.1,0.2-0.2,0.2
		c0.6-1.5,1.4-2.8,2-4.3c0.3-0.9,0.6-1.8,0.4-2.8C38.1,35.5,37.9,35.2,37.7,34.8z"/>
	<path class="st2" d="M40.7,64.2c-0.1,0.5,0.1,1,0.3,1.5c0.3,1,0.8,1.9,1.3,2.8c0.6,1.2,1.2,2.3,1.8,3.5C44,72.1,44,72,44,71.9
		c-1.1-2-2.2-3.9-3.1-6c-0.2-0.4-0.3-0.8-0.4-1.3C40.4,64.5,40.4,64.3,40.7,64.2z"/>
	<path class="st2" d="M35.6,13.3c0.1,0.2-0.1,0.3-0.2,0.4c-1.2,1.8-1.7,3.9-2.2,6c-0.1,0.4-0.1,0.9-0.3,1.3
		c-0.2-0.4,0.1-0.8,0.1-1.2c0.4-2.1,1-4.2,2.2-6.1C35.4,13.5,35.5,13.3,35.6,13.3z"/>
	<path class="st2" d="M4.7,36.3c0.4,0,0.8,0,1.1,0.2s0.3,0.1,0.3,0.3S5.8,37,5.6,37l-1.2-0.3C4.5,36.5,4.7,36.5,4.7,36.3L4.7,36.3z"
		/>
	<path class="st2" d="M4.7,36.3H3.6c0.4-0.4,1-0.6,1.5-0.5C5.2,36.1,4.7,36.1,4.7,36.3L4.7,36.3z"/>
	<path class="st2" d="M35.8,43c0,0.5-0.3,0.8-0.7,1C35.3,43.6,35.6,43.3,35.8,43z"/>
	<path class="st2" d="M37.1,59.9c0.3,0.2,0.5,0.5,0.5,0.8C37.4,60.5,37.2,60.3,37.1,59.9z"/>
	<path class="st2" d="M38,61.3c0.2,0.2,0.4,0.4,0.5,0.7C38.3,61.9,38.1,61.6,38,61.3z"/>
	<path class="st2" d="M44.1,72c0.2,0.1,0.3,0.2,0.3,0.4C44.2,72.4,44.1,72.2,44.1,72z"/>
	<path class="st2" d="M36.7,12.1c0,0.2-0.1,0.3-0.3,0.3l0,0C36.4,12.3,36.5,12.1,36.7,12.1z"/>
	<path class="st2" d="M36,12.9c0,0.2-0.1,0.3-0.3,0.3C35.7,13.1,35.7,12.9,36,12.9z"/>
	<path class="st2" d="M36.5,59c0.2,0.1,0.3,0.2,0.2,0.4C36.6,59.3,36.4,59.2,36.5,59z"/>
	<path class="st2" d="M46.6,74.1l0.4,0.2L46.6,74.1z"/>
	<path class="st2" d="M37.6,60.8c0.2,0,0.3,0.1,0.2,0.3C37.7,61,37.7,60.9,37.6,60.8z"/>
	<path class="st2" d="M35.2,44c0,0.1-0.1,0.3-0.2,0.3C34.9,44.2,35,44.1,35.2,44L35.2,44z"/>
	<path class="st2" d="M36.9,59.6c0.1,0,0.2,0.2,0.2,0.3C37,59.9,36.9,59.8,36.9,59.6L36.9,59.6z"/>
	<path class="st2" d="M34.8,44.6c0.1,0.2,0,0.3-0.2,0.3C34.6,44.8,34.7,44.6,34.8,44.6z"/>
	<path class="st2" d="M34.6,44.9c0.1,0.2,0,0.3-0.2,0.3C34.4,45.1,34.5,45,34.6,44.9z"/>
	<path class="st2" d="M37.8,61.1c0.2,0,0.2,0.1,0.2,0.2C38.1,61.5,37.9,61.2,37.8,61.1z"/>
	<path class="st2" d="M36.7,59.4c0.2,0,0.2,0.1,0.2,0.2C36.9,59.8,36.7,59.5,36.7,59.4z"/>
	<path class="st2" d="M35,44.4c0,0.1,0,0.3-0.2,0.2C34.6,44.6,34.8,44.3,35,44.4z"/>
	<path class="st2" d="M41.4,63.9L41.1,64C41.2,63.9,41.3,63.9,41.4,63.9z"/>
	<path class="st2" d="M46.4,74c0.1,0,0.2,0,0.2,0.1C46.5,74.1,46.4,74.1,46.4,74z"/>
	<path class="st2" d="M46.1,73.9c0.1,0,0.2,0,0.2,0.1L46.1,73.9z"/>
	<path class="st2" d="M37.5,34.5c0.1,0,0.2,0,0.2,0.1S37.5,34.6,37.5,34.5z"/>
	<path class="st2" d="M45.9,73.8c0.1,0,0.2,0,0.2,0.1L45.9,73.8z"/>
	<path class="st2" d="M36.1,12.7c0.1,0.1,0,0.2-0.1,0.2C35.8,13,36,12.8,36.1,12.7z"/>
	<path class="st2" d="M41.6,63.8l-0.2,0.1C41.4,63.8,41.5,63.8,41.6,63.8z"/>
	<path class="st2" d="M41.1,64c0,0.1-0.1,0.1-0.2,0.1L41.1,64z"/>
	<path class="st2" d="M40.9,64.1c0,0.1-0.1,0.1-0.2,0.1L40.9,64.1z"/>
	<path class="st2" d="M45.8,73.7c0.1,0,0.2,0,0.2,0.1C46,73.9,45.8,73.8,45.8,73.7z"/>
	<path class="st2" d="M37.1,11.8c0,0.1-0.1,0.2-0.2,0.1C36.8,11.8,37,11.7,37.1,11.8z"/>
	<path class="st2" d="M37.2,11.6c0,0.1,0,0.2-0.1,0.2C37,11.8,37.2,11.7,37.2,11.6z"/>
	<path class="st2" d="M37.6,34.6c0.1,0,0.2,0.1,0.1,0.2C37.7,35,37.6,34.7,37.6,34.6z"/>
	<path class="st2" d="M36.4,12.4c0,0.1,0,0.1-0.1,0.1C36.2,12.5,36.3,12.4,36.4,12.4z"/>
	<path class="st2" d="M36.9,11.9c0,0.1,0,0.1-0.1,0.1L36.9,11.9z"/>
	<path class="st2" d="M36.3,12.5c0,0.1,0,0.1-0.1,0.1C36.2,12.6,36.2,12.5,36.3,12.5z"/>
	<path class="st1" d="M26.2,60.6L26.2,60.6C26.2,60.7,26.2,60.7,26.2,60.6L26.2,60.6z"/>
	<path class="st2" d="M36.2,12.6c0,0.1,0,0.2-0.1,0.1C36.1,12.7,36.1,12.6,36.2,12.6z"/>
	<path class="st2" d="M36.8,12c0,0.1,0,0.1-0.1,0.1C36.6,12.1,36.7,12,36.8,12z"/>
	<path class="st0" d="M13.9,35.1c0.5-0.9,0.4-1.7-0.3-2.4c-0.3-0.3-0.6-0.4-1.1-0.1c0.5,0,1,0.1,1.2,0.5s0.2,0.8,0.1,1.3
		c-0.1,0.5-0.3,0.5,0,0.8c0,0-0.1,0.2-0.2,0.2c-0.6,0.5-1.5,0.3-2.3-0.5c-0.7-0.8-0.8-1.7-0.2-2.2c0.5-0.5,1.3-0.8,2.1-0.7
		c0.3,0,0.6,0.2,0.8,0.4C14.7,33.1,14.6,34.5,13.9,35.1z"/>
</g>
</svg>
