<?xml version="1.0" encoding="utf-8"?>
<!-- Generator: Adobe Illustrator 21.0.2, SVG Export Plug-In . SVG Version: 6.00 Build 0)  -->
<svg version="1.1" id="Layer_1" xmlns="http://www.w3.org/2000/svg" xmlns:xlink="http://www.w3.org/1999/xlink" x="0px" y="0px"
	 viewBox="0 0 150 141.3" style="enable-background:new 0 0 150 141.3;" xml:space="preserve">
<style type="text/css">
	.st0{fill:#FFFFFF;}
	.st1{fill:#464646;}
	.st2{fill:#F47C23;}
	.st3{fill:#969696;}
	.st4{fill:#C8C8C8;}
	.st5{fill:#D3D3D3;}
	.st6{fill:#C3C3C3;}
	.st7{fill:#9D9D9D;}
	.st8{fill:#CCCCCC;}
	.st9{fill:#F0F0F0;}
	.st10{fill:#BABABA;}
	.st11{fill:#727272;}
	.st12{fill:#B3B3B3;}
	.st13{fill:#040404;}
	.st14{fill:#666666;}
	.st15{fill:#585858;}
	.st16{fill:#131313;}
	.st17{fill:#1F1F1F;}
	.st18{fill:#BF1324;}
</style>
<title>Artboard 1</title>
<g>
	<path class="st0" d="M0,141.3V0h150v141.3H0z M111.1,20.9c-0.2,0.2-0.5,0.4-0.8,0.5l-7.7,4.1l-12,6.4l-12,6.4L67.8,44
		c-0.3,0.2-0.6,0.5-1,0.2c0,0-0.2,0.1-0.3,0.1l-6.2,3.3L53.7,51l-8.1,4.3l-6.3,3.3l-7.8,4.1L25,66.3c-0.3,0.2-0.7,0.3-1.1,0.3
		c-1.3,0-2.6,0-3.9,0c-1.5,0-2.9,1.5-2.8,2.9c0,0.6,0,1.3,0,1.9c0,0.6,0,0.5-0.6,0.5H8.5l-0.9,0c-1.4,0.1-2.8,1.3-2.7,2.9
		c0,0.1,0,0.3,0,0.4c0,20.6,0,41.2,0,61.7c0,0.2,0,0.4,0,0.6c0,0.7,0.3,1.3,0.8,1.8c0.8,0.7,1.7,0.9,2.6,0.9h107c0.2,0,0.4,0,0.6,0
		c1-0.1,1.7-0.4,2.4-1.2s0.6-1.3,0.6-2.1c0-10.4,0-20.9,0-31.3c0-0.2,0-0.3,0-0.5c0-0.5,0-0.5,0.6-0.5c1.6,0,3.1,0,4.7,0
		c1.5,0.1,3.2-1.3,3.2-3.2c-0.1-5.4,0-10.8,0-16.2c0-0.2,0-0.4,0-0.6c0-0.4-0.2-0.9-0.4-1.2c-0.7-1-1.6-1.4-2.7-1.4H120
		c-1,0-1,0-1-1c0-2.1,0-4.1,0-6.2c0-1.4-1-2.6-2.3-2.9c-0.5-0.1-1-0.1-1.5-0.1H28c-0.2,0-0.3-0.1-0.3-0.3s0-0.8,0-1.2
		c0-1.2-0.2-0.9,0.9-1.5l0.4-0.2l6.5-3.4l9.2-4.8l6.5-3.4l8-4.3l5.5-2.9l3.8-2.1c0.2-0.1,0.4-0.1,0.4-0.3s0.1-0.4,0.3-0.5l1.2-0.6
		l9.1-4.8l6.5-3.4l9.1-4.8l6.5-3.4c3.1-1.6,6.1-3.3,9.2-4.9c0.7-0.4,1.4-0.8,2.1-1.1c0.1,0.3,0.3,0.4,0.4,0.7
		c0.1,0.2,0.3,0.3,0.6,0.2l4-2.2c0.4-0.2,0.4-0.3,0.2-0.7c-0.8-1.3-1.6-2.7-2.4-4.1c-0.2-0.3-0.3-0.3-0.6-0.1
		c-1.1,0.6-2.3,1.2-3.4,1.8c-0.3,0.2-0.8,0.3-1,0.6C110.7,20.3,111,20.6,111.1,20.9z M136.4,8.8l0-0.1l4.5-2.9
		c1.7-1.1,3.4-2.2,5.2-3.3c0.8-0.5,0.6-0.4,0.3-1c-0.1-0.1-0.2-0.2-0.2-0.4c-0.1-0.1-0.3-0.2-0.5-0.1c-0.5,0.2-1.1,0.4-1.6,0.7
		l-11.5,4.5l-10.2,4c-0.3,0.1-0.7,0.2-1.1,0.5l7.1,1.3l-0.7,0.5l-3.8,2.4l-5.2,3.3c-0.6,0.4-0.6,0.4-0.3,1.1l0.1,0.2
		c0.1,0.3,0.3,0.4,0.7,0.2c1.6-0.6,3.2-1.3,4.8-1.9l9.1-3.6l10-3.9c0.2,0,0.3-0.2,0.4-0.3L136.4,8.8z"/>
	<path class="st1" d="M111.1,20.9c0-0.4-0.3-0.6-0.4-1c0.3-0.3,0.7-0.4,1-0.6c1.1-0.6,2.3-1.2,3.4-1.8c0.3-0.1,0.4-0.1,0.6,0.1
		c0.8,1.4,1.6,2.7,2.4,4.1c0.3,0.4,0.2,0.4-0.2,0.7l-4,2.2c-0.3,0.1-0.4,0.1-0.6-0.2c-0.1-0.3-0.2-0.4-0.4-0.7
		c-0.8,0.3-1.4,0.7-2.1,1.1c-3.1,1.6-6.1,3.3-9.2,4.9l-6.5,3.4L85.9,38l-6.5,3.4l-9.1,4.8l-1.2,0.6c-0.2,0.1-0.4,0.2-0.3,0.5
		c0,0.3-0.2,0.3-0.4,0.3l-3.8,2.1l-5.5,2.9l-8,4.3l-6.5,3.4l-9.1,4.8L29,68.7l-0.4,0.2c-1.2,0.6-0.9,0.3-0.9,1.5c0,0.4,0,0.8,0,1.2
		c0,0.4,0.1,0.3,0.3,0.3h87.1c0.5,0,1,0,1.5,0.1c1.4,0.3,2.3,1.5,2.3,2.9c0,2.1,0,4.1,0,6.2c0,1,0,1,1,1h4.2c1.1,0,2,0.4,2.7,1.4
		c0.2,0.4,0.4,0.8,0.4,1.2c0,0.2,0,0.4,0,0.6c0,5.4,0,10.8,0,16.2c0,1.8-1.5,3.3-3.2,3.2c-1.7-0.1-3.1,0-4.7,0c-0.5,0-0.5,0-0.6,0.5
		c0,0.2,0,0.3,0,0.5c0,10.4,0,20.9,0,31.3c0,0.7-0.1,1.4-0.6,2.1s-1.4,1.2-2.4,1.2c-0.2,0-0.4,0-0.6,0H8.4c-1,0-1.9-0.2-2.6-0.9
		c-0.5-0.5-0.8-1.1-0.8-1.8c0-0.2,0-0.4,0-0.6c0-20.6,0-41.2,0-61.7c0-0.1,0-0.3,0-0.4C4.9,73.2,6.3,72,7.7,72l0.9,0h8.1
		c0.5,0,0.5,0,0.6-0.5c0-0.5,0-1.3,0-1.9c-0.1-1.4,1.3-2.9,2.8-2.9c1.3,0,2.6,0,3.9,0c0.4,0,0.7-0.1,1.1-0.3l6.5-3.5l7.8-4.2
		l6.3-3.3l8.1-4.3l6.6-3.5l6.2-3.3c0.1,0,0.3-0.2,0.3-0.1c0.4,0.4,0.7,0,1-0.2l10.8-5.7l12-6.4l12-6.4l7.7-4.1
		C110.6,21.3,110.9,21.2,111.1,20.9z M26.2,71.4c0-0.1,0-0.3,0-0.4c0.1-0.2,0.1-0.4,0-0.6v-0.3c0-0.3,0.1-0.6,0-0.9
		c0-0.5-0.4-0.7-0.7-1C25.2,68.1,25,68,24.7,68h-4.5c-0.3,0-0.5,0.1-0.7,0.2c-0.4,0.1-0.5,0.4-0.6,0.7s-0.1,0.8-0.1,1.1v0.3
		c-0.1,0.2-0.1,0.4,0,0.6v0.4c-0.1,0.5,0.3,0.5,0.6,0.5h6.5C26.2,71.9,26.2,71.7,26.2,71.4z M125.8,92.6v-3.7c0.1-0.5,0.1-1,0-1.6
		c0-0.3,0-0.7,0-1v-0.9c0.1-1.2-0.5-1.9-1.6-1.9c-1.6,0-3.2,0-4.8,0c-0.4,0-0.4,0.2-0.4,0.5c0,0.3,0,1,0,1.5c0,0.3,0,0.6,0,0.9
		c0,0.3,0,0.7,0,1c-0.1,0.5-0.1,1,0,1.6c0,0.4,0,0.8,0,1.1v2.5c0,0.1,0,0.3,0,0.4c-0.1,0.5-0.1,0.9,0,1.4c-0.1,0.2-0.1,0.5,0,0.7
		c0,0.8,0,1.6,0,2.4c-0.1,0.7-0.1,1.3,0,2v2.7c0,0.1,0,0.3,0,0.4c0,0.7,0,0.7,0.7,0.7c1.5,0,2.9,0,4.4,0c0.9,0,1.4-0.4,1.7-1.1
		c0-0.6,0.2-1.1,0-1.7v-1c0.1-0.7,0.1-1.3,0-2c0-0.8,0-1.6,0-2.4c0-0.2,0-0.5,0-0.7c0.1-0.5,0.1-0.9,0-1.4
		C125.8,92.9,125.8,92.7,125.8,92.6L125.8,92.6z M115.4,20.3c-0.1-0.2-0.2-0.4-0.3-0.6c-0.2-0.4-0.2-0.4-0.7-0.2l-1,0.5
		c-0.8,0.4-0.8,0.4-0.3,1.2l0,0c0,0.3,0.2,0.5,0.3,0.7c0.5,0.8,0.5,0.8,1.4,0.4c0.1-0.1,0.2-0.1,0.4-0.2c0.3-0.2,0.8-0.3,0.9-0.6
		s-0.3-0.5-0.4-0.8C115.6,20.6,115.5,20.4,115.4,20.3z M6.5,92.4c0,0.2,0,0.4,0,0.6c0,5.2,0,10.5,0,15.8c0,0.2,0,0.3,0,0.5
		s0,0.5,0,0.8c0,4.6,0,9.2,0,13.8c0,0.2,0,0.5,0,0.7c0,2,0,3.9,0,5.9c0,2.3,0,4.7,0,7c0,1,0.5,1.5,1.5,1.5h108
		c0.5,0,0.8-0.2,1.1-0.5c0.3-0.3,0.3-0.9,0.3-1.3c0-17,0-34,0-50.9c0-3.7,0-7.4,0-11.1c0-0.8-0.3-1.2-1.1-1.6c-0.3-0.1-0.6,0-0.8,0
		h-14l-0.7,0l-0.4,0H83l-0.5,0l-0.5,0H65.4l-0.5,0l-0.6,0H8.4c-0.2,0-0.4,0-0.6,0C7,73.5,6.5,74,6.4,74.8c0,0.8,0,1.7,0,2.5
		C6.4,82.4,6.4,87.4,6.5,92.4z M26.6,67.1c0,0.2,0.2,0.4,0.3,0.5c0.1,0.1,0.4,0.3,0.8,0.1c0.8-0.5,1.7-0.9,2.6-1.4l6.5-3.4l6.8-3.6
		l5.2-2.8l7.9-4.2l6.7-3.6l3-1.6c0.1-0.1,0.4-0.1,0.4-0.3s-0.2-0.5-0.4-0.7c-0.2-0.2-0.3,0-0.5,0l-2.4,1.3l-10.2,5.4l-7.8,4.2
		L36.1,62l-6.7,3.5L26.6,67.1z M68,45.9c0.2,0,0.3-0.1,0.4-0.2l6.3-3.4l6.4-3.4l9-4.7l6.6-3.5l8-4.2l6.7-3.5l0.6-0.4
		c0.1,0,0.1-0.1,0.1-0.2c0-0.1-0.1-0.1-0.2-0.1c0,0,0,0,0,0c-0.1,0-0.2,0.1-0.3,0.2l-3.2,1.7l-6.5,3.4L94,31.7l-7.8,4.1l-8.9,4.7
		l-8.2,4.4L68,45.5c-0.1,0-0.1,0.1-0.1,0.2c0,0,0,0,0,0C67.9,45.8,67.9,45.9,68,45.9L68,45.9z"/>
	<path class="st2" d="M136.4,8.8l6.9,1.3c-0.1,0.1-0.3,0.3-0.4,0.3l-10,3.9l-9.1,3.6c-1.6,0.6-3.2,1.2-4.8,1.9
		c-0.4,0.1-0.5,0.1-0.7-0.2l-0.1-0.2c-0.4-0.7-0.4-0.7,0.3-1.1l5.2-3.3l3.8-2.4l0.7-0.5l-7.1-1.3c0.4-0.3,0.8-0.4,1.1-0.5l10.2-4
		l11.5-4.5c0.5-0.2,1.1-0.4,1.6-0.7c0.2-0.1,0.4-0.1,0.5,0.1s0.2,0.2,0.2,0.4c0.3,0.6,0.5,0.5-0.3,1c-1.7,1.1-3.5,2.2-5.2,3.3
		l-4.5,2.9L136.4,8.8z"/>
	<path class="st3" d="M116.3,73.4c0.8,0.3,1.1,0.7,1.1,1.6c0,3.7,0,7.4,0,11.1c0,17,0,34,0,50.9c0,0.5,0,0.9-0.3,1.3
		c-0.4,0.4-0.6,0.5-1.1,0.5H8c-1,0-1.5-0.5-1.5-1.5c0-2.3,0-4.7,0-7c0-2,0-3.9,0-5.9c2.6,0.7,5.1,1.5,7.7,2c2.9,0.6,5.9,1.1,8.9,1.5
		c0.5,0.1,1.1,0,1.6,0.2c0.8,0.2,1.5,0.1,2.2,0c0.2,0.1,0.3,0.2,0.5,0.3c2.3,1.9,4.8,3.4,7.5,4.6c2.9,1.3,6.1,2.1,9.2,2.4
		c2.8,0.3,5.6,0.2,8.4-0.3c3-0.5,6-1.4,8.8-2.8c2.9-1.4,5.5-3.2,7.8-5.5c1.8-1.7,3.4-3.7,4.7-5.9c0.2-0.3,0.4-0.6,0.6-0.9
		c0.4,0.3,0.7,0.1,1.1-0.1c1.9-1,3.8-2,5.6-3.2c1.6-1,3.2-2,4.7-3.1c0.5-0.3,0.9-0.8,1.5-0.8c0,0.3,0,0.6,0,0.8c0,6.4,0,12.7,0,19.1
		c0,1.7,1.2,3,2.9,3c4.8,0,9.6,0,14.4,0c1.3,0,2.9-1.1,2.9-3c0-13.6,0-27.2,0-40.9c0-0.3,0-0.6,0-0.9c0.2,0,0.5-0.1,0.6-0.3
		c0.3-0.5,0.6-0.9,0.8-1.4c0.9-1.5,1.7-3,2.5-4.4c0.9-1.7,1.8-3.5,2.6-5.3c0.8-1.8,1.4-3.3,1.9-5c0-0.1,0.1-0.2,0.1-0.3
		C116.3,74.3,116.3,73.8,116.3,73.4z"/>
	<path class="st4" d="M6.5,77.3c0-0.9,0-1.7,0-2.5c0-0.9,0.5-1.3,1.3-1.4c0.2,0,0.4,0,0.6,0h55.9l0.6,0c0,0.3-0.2,0.5-0.4,0.7
		c-1.2,1.3-2.5,2.5-3.8,3.6c-1,0.8-1.9,1.7-3.1,2.3c-0.1,0-0.1,0.1-0.2,0.2c-0.3,0-0.6-0.1-0.9-0.2c-1.7-0.5-3.4-0.9-5.1-1.1
		c-2.8-0.4-5.5-0.3-8.3,0c-3.2,0.4-6.4,1.3-9.4,2.7c-1.3,0.6-2.6,1.4-3.9,2.2c-1.3,0.8-2.6,1.8-3.7,2.9c-0.2-0.4-0.6-0.3-0.9-0.4
		c-1.6-0.3-3.1-0.7-4.7-1.2c-1.4-0.4-2.7-1-4-1.6c-1.9-0.8-3.8-1.8-5.5-2.9c-1.5-0.9-2.9-1.9-4.2-3C6.9,77.4,6.7,77.3,6.5,77.3z"/>
	<path class="st4" d="M82.6,73.4l0.5,0h17.3l0.4,0c0,0.2,0,0.4-0.1,0.6c-0.5,1.1-0.9,2.2-1.5,3.2c-0.2,0.3-0.4,0.6-0.4,1l-0.8,0
		c-2.5,0-5,0-7.5,0c-2,0-3.3,1.3-3.3,3.3c0,3.6,0,7.2,0,10.8c0,0.3,0,0.5,0,0.8c-0.2,0-0.4,0.1-0.5,0.3c-1,1-2,1.9-3,2.9
		c-1.4,1.4-3,2.6-4.6,3.9c-0.2,0.2-0.5,0.3-0.7,0.5c-0.4,0.4-1,0.3-1.5,0.4c-0.2-0.7-0.4-1.4-0.6-2.1c-0.7-2.1-1.6-4.1-2.8-6
		c-1-1.6-2.1-3.1-3.4-4.5c0.3-0.6,0.9-1,1.4-1.4c0.9-0.8,1.8-1.6,2.6-2.5c0.8-0.8,1.6-1.6,2.3-2.5c0.8-0.9,1.7-2,2.6-3.1
		c1.2-1.5,2.2-3.1,3.2-4.8C82.4,74,82.6,73.7,82.6,73.4z"/>
	<path class="st3" d="M26.9,128.2c-0.8,0.1-1.5,0.1-2.2,0c-0.5-0.1-1.1-0.1-1.6-0.2c-3-0.4-6-0.9-8.9-1.5c-2.6-0.6-5.2-1.3-7.7-2
		c0-0.2,0-0.5,0-0.7c0-4.6,0-9.2,0-13.8c0-0.3,0-0.5,0-0.8c0.2,0,0.4,0.1,0.5,0.2c1.9,0.8,3.8,1.5,5.8,2c1.3,0.4,2.5,0.7,3.8,1
		c0.3,0.1,0.5,0.1,0.6-0.3c0-0.1,0.1-0.1,0.2-0.1c0.1,0.2,0.2,0.5,0.2,0.7c0.5,2.5,1.3,4.8,2.6,7c0.7,1.3,1.5,2.6,2.4,3.9
		c0.7,1,1.5,1.9,2.3,2.7C25.6,127,26.2,127.7,26.9,128.2z"/>
	<path class="st4" d="M6.5,77.3c0.2,0,0.4,0,0.5,0.2c1.3,1.1,2.7,2.1,4.2,3c1.8,1.1,3.6,2.1,5.5,2.9c1.3,0.6,2.7,1.1,4.1,1.6
		c1.5,0.5,3.1,0.9,4.7,1.2c0.3,0,0.7,0,0.9,0.4c-1.1,1-2.1,2.1-3,3.2c-1.2,1.5-2.2,3.1-3.1,4.7c-0.5,0.9-0.8,1.8-1.2,2.7
		c-0.4,0-0.7,0-1.1-0.1c-1.2-0.3-2.3-0.7-3.5-1.2c-2.4-0.9-4.6-1.9-6.9-3c-0.3-0.2-0.6-0.5-1-0.5C6.4,87.4,6.4,82.4,6.5,77.3z"/>
	<path class="st4" d="M82.6,73.4c0,0.3-0.1,0.6-0.3,0.9c-1,1.7-2,3.3-3.2,4.8c-0.8,1.1-1.7,2.1-2.6,3.1s-1.5,1.7-2.3,2.5
		c-0.8,0.8-1.7,1.7-2.6,2.5c-0.5,0.4-1.1,0.7-1.4,1.4C69,87.1,67.8,86,66.4,85c-1.7-1.3-3.6-2.4-5.6-3.4c-1.1-0.5-2.3-0.9-3.4-1.4
		c0.1-0.1,0.1-0.2,0.2-0.2c1.1-0.6,2.1-1.5,3.1-2.3c1.4-1.1,2.6-2.3,3.8-3.6c0.2-0.2,0.4-0.4,0.4-0.7l0.5,0h16.7L82.6,73.4z"/>
	<path class="st4" d="M6.5,92.4c0.4,0,0.7,0.3,1,0.5c2.2,1.1,4.5,2.2,6.9,3c1.1,0.4,2.3,0.8,3.5,1.2c0.4,0.1,0.7,0.1,1.1,0.1
		c0,0,0,0.1,0,0.1c-0.7,1.5-1.1,3.2-1.4,4.9c-0.5,2.3-0.5,4.6-0.4,6.9c0.1,1,0.2,2,0.3,2.9c-0.1,0-0.2,0-0.2,0.1
		c-0.1,0.4-0.4,0.3-0.6,0.3c-1.3-0.3-2.5-0.7-3.8-1c-2-0.6-3.9-1.2-5.8-2c-0.2-0.1-0.4-0.1-0.5-0.2c0-0.2,0-0.3,0-0.5
		c0-5.2,0-10.5,0-15.8C6.4,92.8,6.5,92.6,6.5,92.4z"/>
	<path class="st3" d="M98.8,78.1c0.1-0.4,0.3-0.7,0.4-1c0.6-1,0.9-2.1,1.5-3.2c0.1-0.2,0.1-0.4,0.1-0.6l0.7,0h14c0.3,0,0.6,0,0.8,0
		c0.1,0.4,0,0.9-0.3,1.2c-0.1,0.1-0.1,0.2-0.1,0.3c-0.5,1.7-1.2,3.3-1.9,5c-0.7,1.6-1.6,3.6-2.6,5.3c-0.8,1.5-1.7,3-2.5,4.4
		c-0.3,0.5-0.6,0.9-0.8,1.4c-0.1,0.2-0.3,0.3-0.6,0.3c0-1.9,0-3.7,0-5.6c0-1.6,0-3.1,0-4.7c0-1-0.4-1.8-1.3-2.4
		c-0.5-0.3-1.1-0.5-1.7-0.4L98.8,78.1z"/>
	<path class="st5" d="M26.6,67.1l2.8-1.5l6.7-3.5l9.3-4.9l7.8-4.2l10.2-5.4l2.4-1.3c0.2-0.1,0.3-0.2,0.5,0c0.2,0.2,0.4,0.4,0.4,0.7
		c0,0.3-0.2,0.2-0.4,0.3l-3,1.6l-6.7,3.6l-7.9,4.2l-5.2,2.8l-6.8,3.6l-6.5,3.4c-0.9,0.4-1.7,0.9-2.6,1.4c-0.3,0.2-0.6,0.2-0.8-0.1
		S26.7,67.3,26.6,67.1z"/>
	<path class="st5" d="M68,45.9c-0.1,0-0.1,0-0.2-0.1c0-0.1,0-0.2,0.1-0.2c0,0,0,0,0,0l1.1-0.6l8.2-4.4l8.9-4.7l7.8-4.1l7.8-4.1
		l6.5-3.4l3.2-1.7c0.1-0.1,0.2-0.1,0.3-0.2c0.1,0,0.2,0,0.2,0.1c0,0,0,0,0,0c0,0.1,0,0.1-0.1,0.2l-0.6,0.4l-6.7,3.5l-8,4.2l-6.6,3.5
		l-9,4.7l-6.4,3.4l-6.3,3.4C68.3,45.8,68.2,45.9,68,45.9z"/>
	<path class="st6" d="M119,97.5c0-0.8,0-1.6,0-2.4h6.8c0,0.8,0,1.6,0,2.4H119z"/>
	<path class="st7" d="M119,92v-2h6.8v2H119z"/>
	<path class="st8" d="M119,97.5h6.8c0.1,0.7,0.1,1.3,0,2H119C118.9,98.8,118.9,98.2,119,97.5z"/>
	<path class="st7" d="M119,85.5c0-0.5,0-1,0-1.5c0-0.5,0.1-0.5,0.4-0.5c1.6,0,3.2,0,4.8,0c1.1,0,1.7,0.8,1.6,1.9L119,85.5z"/>
	<path class="st7" d="M125.8,100.5c0.2,0.6-0.1,1.1,0,1.7H119c0-0.6,0-1.1,0-1.7H125.8z"/>
	<path class="st8" d="M119,88.9c-0.1-0.5-0.1-1,0-1.6h6.8c0.1,0.5,0.1,1,0,1.6H119z"/>
	<path class="st9" d="M125.8,93c0.1,0.5,0.1,0.9,0,1.4H119c-0.1-0.5-0.1-0.9,0-1.4L125.8,93z"/>
	<path class="st10" d="M119,88.9h6.8c0,0.4,0,0.7,0,1.1H119C118.9,89.7,118.9,89.3,119,88.9z"/>
	<path class="st11" d="M119,102.2h6.8c-0.3,0.8-0.9,1.2-1.7,1.1c-1.5,0-2.9,0-4.4,0c-0.7,0-0.7,0-0.7-0.7
		C119,102.5,119,102.3,119,102.2z"/>
	<path class="st10" d="M125.8,100.5H119v-1h6.8V100.5z"/>
	<path class="st6" d="M125.8,87.4H119c0-0.3,0-0.7,0-1h6.8C125.8,86.7,125.8,87,125.8,87.4z"/>
	<path class="st9" d="M18.7,70.1c0-0.4-0.1-0.8,0.1-1.1c0.1,0.3,0.3,0.3,0.6,0.3l6.7,0c0.1,0.3,0.1,0.6,0,0.9L18.7,70.1z"/>
	<path class="st5" d="M26.1,69.3l-6.7,0c-0.2,0-0.5,0-0.6-0.3c-0.1-0.3,0.2-0.6,0.6-0.7c0.1,0.2,0.4,0.2,0.6,0.2h4.8
		c0.2,0,0.4,0,0.6-0.2C25.7,68.6,26.2,68.7,26.1,69.3z"/>
	<path class="st12" d="M125.8,86.4H119c0-0.3,0-0.6,0-0.9h6.8L125.8,86.4z"/>
	<path class="st5" d="M119,94.4h6.8c0.1,0.2,0.1,0.5,0,0.7H119C118.9,94.9,118.9,94.6,119,94.4z"/>
	<path class="st10" d="M18.7,71c-0.1-0.2-0.1-0.4,0-0.6h7.4c0.1,0.2,0.1,0.4,0,0.6H18.7z"/>
	<path class="st5" d="M115.4,20.3c0.1,0.1,0.2,0.3,0.3,0.4c0.1,0.3,0.5,0.5,0.4,0.8c-0.1,0.3-0.6,0.4-0.9,0.6
		c-0.1,0.1-0.2,0.1-0.4,0.2c-0.9,0.4-0.9,0.4-1.4-0.4c-0.1-0.2-0.3-0.4-0.3-0.7c0.3,0,0.5-0.2,0.7-0.3
		C114.4,20.7,114.8,20.3,115.4,20.3z"/>
	<path class="st12" d="M119,92h6.8v0.6H119L119,92z"/>
	<path class="st10" d="M26.2,71.4c0.1,0.3,0,0.5-0.3,0.5h-6.5c-0.3,0-0.6,0-0.6-0.5L26.2,71.4z"/>
	<path class="st8" d="M26.2,71.4h-7.4c0-0.1,0-0.3,0-0.4h7.4C26.2,71.1,26.2,71.3,26.2,71.4z"/>
	<path class="st8" d="M119,92.6h6.8c0,0.1,0,0.3,0,0.4H119C118.9,92.9,118.9,92.7,119,92.6z"/>
	<path class="st6" d="M115.4,20.3c-0.6,0-1.1,0.4-1.6,0.7c-0.2,0.1-0.4,0.3-0.7,0.3l0,0c-0.5-0.8-0.5-0.8,0.3-1.2l1-0.5
		c0.5-0.2,0.5-0.3,0.7,0.2C115.2,19.9,115.3,20.1,115.4,20.3z"/>
	<path class="st6" d="M25.4,68.2c-0.1,0.2-0.4,0.2-0.6,0.2H20c-0.2,0-0.4,0-0.6-0.2c0.2-0.2,0.4-0.3,0.7-0.2h4.5
		C25,68,25.2,68.1,25.4,68.2z"/>
	<path class="st5" d="M26.2,70.4h-7.4v-0.3l7.4,0V70.4z"/>
	<path class="st13" d="M17.5,112.1c-0.1-1-0.2-2-0.3-2.9c-0.2-2.3-0.1-4.6,0.4-6.9c0.3-1.7,0.7-3.3,1.4-4.9c0,0,0-0.1,0-0.1
		c0.4-0.9,0.8-1.8,1.2-2.7c0.9-1.7,1.9-3.3,3.1-4.7c0.9-1.2,2-2.2,3-3.2c1.1-1.1,2.3-2,3.7-2.8c1.3-0.8,2.5-1.5,3.9-2.2
		c3-1.4,6.1-2.3,9.4-2.7c2.8-0.4,5.5-0.4,8.3,0c1.7,0.2,3.4,0.6,5.1,1.1c0.3,0.1,0.6,0.2,0.9,0.2c1.1,0.5,2.3,0.9,3.4,1.4
		c2,0.9,3.8,2.1,5.6,3.4c1.4,1,2.6,2.2,3.8,3.4c1.2,1.4,2.4,2.9,3.4,4.5c1.2,1.9,2.1,3.9,2.8,6c0.2,0.7,0.4,1.4,0.6,2.1
		c0.2,1.3,0.4,2.6,0.6,3.9c0.4,4.1-0.2,8.3-1.8,12.2c-0.4,1.1-0.9,2.1-1.4,3.2c-0.2,0.3-0.4,0.6-0.6,0.9c-1.3,2.2-2.9,4.1-4.7,5.9
		c-2.3,2.2-4.9,4.1-7.8,5.5c-2.8,1.4-5.7,2.3-8.8,2.8c-2.8,0.5-5.6,0.5-8.4,0.3c-3.2-0.3-6.3-1.1-9.2-2.4c-2.7-1.1-5.2-2.7-7.5-4.6
		c-0.2-0.1-0.3-0.2-0.5-0.3c-0.7-0.5-1.3-1.3-2-1.9c-0.9-0.8-1.6-1.7-2.3-2.7c-0.9-1.2-1.6-2.5-2.4-3.9c-1.2-2.2-2.1-4.6-2.6-7
		C17.7,112.5,17.6,112.3,17.5,112.1z M50.8,80.5c-1,0-1.9-0.2-2.9-0.2c-0.5,0.1-1.1-0.2-1.6,0.1c-0.3,0-0.5-0.2-0.8-0.1
		c-0.9,0.1-1.8,0.1-2.7,0.5c-0.6,0.3-1.3,0.5-1.9,0.7c-0.3,0.1-0.5,0.1-0.8,0c-1-0.4-1.9,0.1-2.8,0.6c-0.3-0.1-0.6,0-0.8,0.3
		c-0.2,0-0.4,0.1-0.6,0.2c-0.5,0.2-1.1,0.5-1.7,0.7c-1.1,0.6-2.3,1.1-3.3,2c-0.3,0.1-0.5,0.3-0.6,0.4c-0.5,0.2-0.9,0.6-1.4,1
		c0,0,0,0.1,0,0.1c-0.2,0-0.3,0.2-0.3,0.4c-0.3,0-0.5,0.1-0.7,0.3l-0.8,0.8c-0.2,0.2-0.6,0.4-0.6,0.8c-0.9,0.6-1.5,1.5-2.2,2.3
		c-0.2,0.3-0.5,0.5-0.5,0.9c-0.2,0.1-0.5,0.3-0.6,0.6l-0.9,1.5c-0.1,0.1-0.2,0.3-0.2,0.5c-0.4,0.3-0.5,0.8-0.7,1.3L21,96.8
		c-0.1,0.4-0.4,0.8-0.4,1.3c-0.2,0.1-0.1,0.4-0.2,0.5c-0.3,0.4-0.4,0.9-0.5,1.4c-0.1,0.2-0.2,0.4-0.2,0.6c-0.2,0.5-0.3,0.9-0.3,1.4
		c-0.2,0.2-0.1,0.4-0.1,0.7c-0.2,0.4-0.2,0.9-0.2,1.4l0,0.7c-0.1,0.5-0.1,0.9-0.1,1.4v0.8c0,0.5-0.1,1,0.1,1.5v0.7
		c0,0.5,0,1.1,0.2,1.6c-0.1,0.3-0.1,0.5,0.1,0.8c0,0.5,0.2,1,0.3,1.6l0.2,0.8c0.1,0.6,0.4,1.2,0.6,1.7c0.1,0.3,0.1,0.6,0.3,0.8
		c0.2,0.2,0.2,0.7,0.4,0.9s0.2,0.8,0.6,0.9c0,0.3,0,0.6,0.3,0.8c0.1,0.6,0.6,1,0.9,1.5c0,0.3,0.2,0.4,0.4,0.5c0,0.6,0.5,0.9,0.8,1.3
		c0,0.3,0.2,0.4,0.4,0.5c0.2,0.5,0.6,0.8,1,1.1c0,0.3,0.2,0.4,0.4,0.6c0.4,0.6,1,1.1,1.7,1.4c0.2,0.5,0.5,0.9,1,1.1
		c0.2,0.3,0.4,0.5,0.7,0.8c0.6,0.4,1.3,0.8,1.8,1.3c0.4,0.3,0.8,0.3,1.2,0.1c0.9-0.4,1.8-0.7,2.8-1.1c0.5-0.2,1-0.2,1.4,0
		c1.1,0.4,2.2,0.8,3.4,1.3c0.3,0.1,0.6,0.1,0.9,0l3.6-1.3c0.3-0.1,0.7-0.1,1,0c1.1,0.4,2.3,0.8,3.4,1.3c0.4,0.2,0.9,0.2,1.3,0
		c1-0.4,2-0.7,3-1.1c0.6-0.2,1.1-0.3,1.7,0c1,0.4,2.1,0.8,3.2,1.2c0.4,0.2,0.8,0.2,1.1,0c1-0.4,2-0.7,3-1.1c0.7-0.3,1.3-0.3,1.9,0
		c0.1,0.1,0.4,0.2,0.5,0.1c0.4-0.3,0.8-0.5,1.1-0.9c-0.8-0.3-1.5-0.6-2.2-0.9c-0.3-0.1-0.5-0.1-0.8,0c-1.2,0.4-2.3,0.9-3.5,1.3
		c-0.4,0.2-0.8,0.2-1.2,0c-1-0.4-2.1-0.7-3.2-1.2c-0.6-0.3-1.2-0.2-1.8,0.1c-1,0.4-2.1,0.8-3.1,1.1c-0.2,0.1-0.5,0.1-0.7,0
		c-1.2-0.4-2.4-0.9-3.6-1.3c-0.4-0.2-0.8-0.2-1.2,0c-1.2,0.4-2.3,0.9-3.5,1.3c-0.3,0.1-0.5,0.2-0.8,0.1c-1.1-0.5-2.3-0.8-3.4-1.3
		c0-0.2,0.1-0.4,0.3-0.5c1,0.3,1.9,0.7,2.8,1c0.3,0.1,0.6,0.2,1,0.1c1.2-0.4,2.4-0.9,3.6-1.3c0.3-0.1,0.7-0.1,1.1,0
		c1.1,0.4,2.3,0.8,3.4,1.3c0.4,0.2,0.8,0.1,1.2,0c1.1-0.4,2.2-0.8,3.3-1.2c0.2-0.1,0.4-0.2,0.7-0.1c1.3,0.6,2.6,0.9,3.9,1.3
		c0.3,0.1,0.6,0.1,0.9,0c1.2-0.4,2.3-0.8,3.5-1.3c0.4-0.2,0.8-0.2,1.1,0c0.8,0.3,1.5,0.6,2.3,0.9c0.1,0,0.3,0.2,0.5,0
		c0.2-0.1,0.8-0.5,0.9-0.9c0-0.1-0.1-0.2-0.2-0.2l-3.8-1.4c-0.2-0.1-0.4-0.1-0.5,0c-1.2,0.5-2.5,0.9-3.7,1.4c-0.3,0.1-0.7,0.1-1.1,0
		c-1.1-0.4-2.3-0.8-3.4-1.3c-0.4-0.2-0.8-0.1-1.2,0l-3.2,1.2c-0.4,0.2-0.9,0.2-1.4,0c-1.1-0.4-2.2-0.8-3.3-1.2c-0.3-0.1-0.6-0.2-1,0
		c-0.8,0.3-1.7,0.7-2.5,0.9c-1.6,0.5-1.3,0.8-2.9,0.1c-0.2-0.1-0.4-0.1-0.5-0.2c-0.2-0.1-0.1-0.4,0.2-0.6c0.4,0,0.8,0.2,1.2,0.4
		c0.3,0.2,0.6,0.2,0.9,0c1.2-0.5,2.4-0.9,3.6-1.4c0.3-0.1,0.7-0.1,1,0c1.1,0.5,2.3,0.8,3.4,1.3c0.4,0.2,0.8,0.1,1.1,0
		c1.1-0.4,2.2-0.8,3.3-1.2c0.4-0.2,0.8-0.2,1.3,0c0.2,0.1,0.4,0.2,0.6,0.3c0.8,0.3,1.6,0.6,2.4,0.9c0.5,0.2,1,0.2,1.5,0
		c1.2-0.4,2.3-0.9,3.5-1.3c0.3-0.1,0.6-0.1,0.9,0c1.2,0.4,2.3,0.9,3.5,1.3c0.6,0.3,1.2,0.1,1.7-0.3c0.3-0.2,0.5-0.5,0.7-0.7
		c0.2-0.4,0.6-0.6,0.8-1.2c-0.7,0.3-1.3,0.5-1.9,0.7c-0.4,0.2-0.9,0.2-1.3,0c-1.1-0.4-2.2-0.8-3.3-1.2c-0.4-0.2-0.8-0.2-1.2,0
		c-1,0.4-2,0.7-3,1.1c-0.7,0.3-1.3,0.3-1.9,0c-1-0.4-2-0.8-3-1.1c-0.4-0.1-0.8-0.1-1.1,0c-1.1,0.4-2.1,0.8-3.2,1.2
		c-0.5,0.2-1,0.3-1.5,0l0.1-0.6c0.4,0.2,0.8,0.1,1.2,0l3.5-1.3c0.3-0.1,0.6-0.1,0.9,0c1.2,0.4,2.3,0.8,3.5,1.3
		c0.3,0.2,0.7,0.2,1.1,0c1.2-0.5,2.4-0.8,3.5-1.3c0.2-0.1,0.5-0.1,0.7,0c1.3,0.5,2.6,0.9,3.9,1.4c0.3,0.1,0.6,0.1,0.8,0
		c0.7-0.3,1.4-0.6,2.2-0.8s1.3-0.7,1.7-1.4c0.1-0.2,0.3-0.4,0.3-0.8l-0.3,0.1c-1.1,0.4-2.2,0.8-3.4,1.3c-0.5,0.2-1,0.3-1.5,0
		c-1.1-0.4-2.3-0.8-3.4-1.3c-0.3-0.1-0.6-0.1-0.9,0c-1.2,0.4-2.4,0.9-3.6,1.3c-0.4,0.1-0.7,0.1-1.1,0c-0.8-0.3-1.7-0.6-2.5-1
		c-0.8-0.4-1.7-0.6-2.6-0.1v-0.6c0.3-0.2,0.6-0.3,0.9-0.4c0.2-0.1,0.4-0.1,0.6,0l3.6,1.4c0.3,0.1,0.7,0.2,1,0
		c1.2-0.5,2.4-0.9,3.6-1.3c0.3-0.1,0.6-0.2,0.9,0.1c0.1,0.1,0.2,0.1,0.3,0.1c1.1,0.4,2.3,0.9,3.4,1.2c0.3,0.1,0.6,0.1,0.8,0
		c0.7-0.3,1.3-0.5,2-0.8s1.5-0.7,2.4-0.7c0.3,0,0.8-0.8,0.7-1.1c0-0.1-0.1-0.1-0.1-0.1c-0.4-0.1-0.8-0.4-1.3-0.2
		c-1.2,0.4-2.3,0.8-3.5,1.3c-0.6,0.2-1.1,0.2-1.7-0.1c-1-0.4-2.1-0.8-3.2-1.2c-0.2-0.1-0.5-0.1-0.7,0c-1.2,0.5-2.5,0.9-3.7,1.4
		c-0.3,0.1-0.6,0.1-0.9,0l-3.7-1.3c-0.2-0.1-0.5-0.1-0.7,0c-1,0.3-2,0.7-2.9,1.1c-0.8,0.4-1.5,0.4-2.2,0.1c-0.8-0.3-1.9-0.7-2.9-1.1
		c-0.3-0.1-0.6-0.2-1-0.1c-0.8,0.3-1.6,0.6-2.4,0.9c-2,0.7-1.3,0.8-3.3,0l-0.1,0l0.1-0.5c0.4,0,0.8,0.2,1.2,0.4
		c0.2,0.1,0.4,0.1,0.7,0c1.2-0.4,2.4-0.9,3.6-1.3c0.5-0.2,1-0.2,1.5,0c1,0.4,2.1,0.8,3.2,1.2c0.4,0.2,0.8,0.2,1.2,0
		c1-0.4,2-0.7,3-1.1c0.5-0.2,1.2-0.2,1.7,0c1,0.5,2.1,0.8,3.2,1.2c0.3,0.1,0.7,0.1,1,0c0.8-0.3,1.7-0.6,2.4-0.9c1-0.5,1.9-0.6,2.9,0
		c0.1,0,0.1,0.1,0.2,0.1c0.7,0.3,1.3,0.4,2,0.8c0.6,0.3,1,0.3,1.6,0.1c1.1-0.4,2.1-0.8,3.2-1.2c0.4-0.2,0.8-0.2,1.2-0.1
		c1.1,0.4,0.8,0.4,1.3-0.6c0.1-0.2,0-0.4-0.2-0.4l-1-0.4c-0.4-0.2-0.9-0.2-1.4,0c-0.9,0.4-1.9,0.6-2.8,1c-0.9,0.4-1.4,0.3-2.2,0
		c-0.7-0.3-1.8-0.7-2.7-1c-0.4-0.2-0.9-0.2-1.4,0c-0.9,0.4-1.8,0.7-2.8,1v-0.6l3.1-1.2c0.4-0.1,0.7,0,1,0.1l3.4,1.3
		c0.3,0.1,0.6,0.1,0.9,0c1-0.4,2.1-0.8,3.1-1.2c0.6-0.2,1.2-0.4,1.8-0.1c0.2,0.1,0.4,0.1,0.5,0.2c0.9,0.4,0.9,0.3,1.2-0.6
		c0.1-0.4,0-0.5-0.3-0.6s-0.9-0.3-1.3-0.5c-0.6-0.3-1.2-0.2-1.8,0c-1,0.4-2.1,0.8-3.1,1.2c-0.3,0.1-0.6,0.1-0.9,0
		c-1.1-0.4-2.2-0.8-3.4-1.3c-0.4-0.2-0.9-0.2-1.4,0c-0.8,0.3-1.6,0.6-2.4,0.9c-1.6,0.6-1.1,0.7-2.9-0.1c0-0.2,0.1-0.4,0.3-0.5
		c0.1,0,0.2,0,0.3,0.1c0.5,0.3,1.1,0.2,1.6,0c1.1-0.4,2.2-0.8,3.4-1.3c0.2-0.1,0.5-0.1,0.8,0c1.2,0.4,2.3,0.8,3.5,1.3
		c0.5,0.2,0.9,0.2,1.4,0l3.3-1.2c0.3-0.1,0.6-0.1,0.9,0c0.5,0.2,1,0.4,1.5,0.5c0.8,0.3,0.8,0.3,1.1-0.6c0.1-0.4,0.1-0.5-0.3-0.6
		c-0.7-0.3-1.5-0.5-2.2-0.8c-0.4-0.2-0.9-0.2-1.3,0c-1,0.4-2.1,0.8-3.2,1.2c-0.4,0.2-0.9,0.2-1.4,0c-1.1-0.4-2.2-0.8-3.3-1.2
		c-0.3-0.1-0.6-0.2-1,0c-1.2,0.5-2.3,0.9-3.5,1.3c-0.4,0.2-0.8,0.2-1.2,0c0-0.2,0-0.4,0.1-0.6c0.3,0,0.6,0.1,1,0
		c1.2-0.4,2.3-0.9,3.5-1.3c0.4-0.2,0.8-0.1,1.1,0c1,0.4,2.1,0.8,3.2,1.2c0.5,0.2,1.1,0.2,1.6,0c1-0.4,2.1-0.8,3.1-1.2
		c0.4-0.2,0.8-0.2,1.1,0c0.6,0.3,1.3,0.5,2,0.7c0.7,0.2,0.8,0.3,0.9-0.5c0,0,0-0.1,0-0.1c0.1-0.3-0.1-0.5-0.4-0.6
		c-0.7-0.3-1.5-0.5-2.2-0.8c-0.7-0.3-1.2-0.2-1.8,0c-1,0.4-2.1,0.8-3.1,1.2c-0.2,0.1-0.5,0.2-0.7,0.1c-1-0.4-2.1-0.7-3.1-1.2v-0.6
		c0.9,0.2,1.8,0.6,2.6,0.9c0.5,0.2,1,0.2,1.4,0c1.1-0.4,2.2-0.8,3.4-1.2c0.3-0.1,0.6-0.2,0.8,0c0.7,0.4,1.5,0.6,2.2,0.9
		c1,0.4,1,0.3,1-0.8c0-0.3-0.1-0.5-0.4-0.6c-0.8-0.3-1.7-0.6-2.5-0.9c-0.5-0.2-1-0.2-1.5,0c-1,0.4-2,0.8-3,1.1
		c-0.3,0.1-0.6,0.3-0.9,0.2c-0.8-0.3-1.7-0.5-2.4-0.9c0-0.2,0.1-0.4,0.3-0.5c0.6,0.1,1.2,0.4,1.7,0.6c0.4,0.2,0.9,0.2,1.3,0
		c1.1-0.4,2.2-0.8,3.3-1.3c0.4-0.2,0.9-0.1,1.3,0.1c0.6,0.3,1.3,0.5,2,0.8c0.3,0.1,0.6,0.5,0.9,0.2c0.3-0.3,0-0.6,0-0.9
		c0.1-0.3-0.1-0.5-0.4-0.6l-2.6-1c-0.4-0.1-0.8-0.1-1.2,0c-1,0.4-2.1,0.8-3.2,1.1v-0.6c1-0.4,2.1-0.8,3.1-1.2c0.4-0.2,0.8-0.3,1.3,0
		c0.3,0.1,0.5,0.2,0.8,0.3c0.7,0.2,1.4,0.6,2.1,0.7c0.1-0.4-0.1-0.7-0.1-1.1c0-0.3-0.2-0.4-0.4-0.5c-0.7-0.3-1.4-0.5-2-0.8
		c-0.7-0.3-1.3-0.3-2,0c-1,0.4-2,0.8-3,1.1c-0.2,0.1-0.4,0.2-0.7,0.1c-0.6-0.2-1.1-0.4-1.7-0.7c0-0.2,0.1-0.4,0.1-0.6
		c0.3,0.1,0.7,0.2,1,0.3c0.5,0.3,1.1,0.2,1.6,0c1.1-0.4,2.2-0.8,3.3-1.2c0.3-0.1,0.6-0.1,0.9,0c0.6,0.2,1.1,0.5,1.7,0.7
		c0.3,0.1,0.7,0.3,1.1,0.1c-0.1-0.3-0.1-0.6-0.2-0.8c-0.1-0.3-0.3-0.7-0.8-0.9c-0.5-0.1-0.9-0.3-1.3-0.5c-0.6-0.3-1.2-0.4-1.8-0.1
		c-0.9,0.4-1.9,0.7-2.9,1.1c-0.3,0.1-0.7,0.3-1.1,0.2c-0.4-0.1-0.8-0.2-1.1-0.4l0-0.6c0.2,0.1,0.5,0.1,0.7,0.2
		c0.5,0.2,0.9,0.2,1.3,0c1-0.4,2-0.7,3-1.2c0.7-0.3,1.3-0.2,1.9,0.1c0.1,0,0.2,0.1,0.3,0.2c0.3,0.2,0.6,0.3,0.9,0.3
		c0.2,0,0.3-0.1,0.3-0.3s-0.2-0.8-0.3-1.2c0-0.1-0.1-0.2-0.2-0.2c-0.5-0.2-1-0.4-1.6-0.6c-0.3-0.1-0.6-0.1-0.8,0
		c-1,0.4-2.1,0.7-3.1,1.2c-0.7,0.3-1.3,0.4-2,0l0.1-0.6c0.7,0.3,1.3,0.1,1.9-0.1c1-0.4,2.1-0.8,3.1-1.1c0.2-0.1,0.4-0.2,0.6,0
		c0.2,0.1,0.6,0.2,0.9,0.4s0.4,0.1,0.6,0l-0.6-1.4c0-0.1-0.1-0.2-0.2-0.3c-0.4-0.1-0.9-0.4-1.4-0.2c-0.2,0.1-0.5,0.2-0.7,0.3
		c-1.1,0.4-2.1,0.8-3.2,1.1v-0.6c0.8-0.4,1.6-0.6,2.3-0.9c0.8-0.3,1.5-0.8,2.5-0.7c-0.1-0.4-0.3-0.7-0.5-1c-0.2-0.3-0.4-0.4-0.7-0.3
		c-0.6,0.2-1.1,0.4-1.7,0.6c-0.6,0.2-1.4,0.6-2.1,0.7v-0.6c1-0.3,2-0.7,3-1.1c1-0.3,1-0.4,0.4-1.2c-0.2-0.3-0.4-0.3-0.7-0.2
		c-0.5,0.2-1.1,0.4-1.7,0.6l-0.1-0.5c0.5-0.4,1.2-0.3,1.7-0.8c-0.1-0.3-0.4-0.5-0.5-0.8S69.3,90,69,90.1c-0.3,0.1-0.7,0.4-1.1,0.4
		l-0.1-0.5c0.3-0.2,0.7-0.2,1-0.5c-0.6-0.9-0.8-1-1.7-1.3l-0.5-0.2c-0.1-0.3,0.2-0.6-0.2-0.8l-0.2-0.2h0c-0.9-0.9-1.9-1.5-3-2.2
		c-0.2-0.1-0.4-0.1-0.5-0.1c0-0.3-0.2-0.5-0.5-0.6c-0.5-0.3-1.1-0.7-1.7-0.8c-0.3-0.2-0.5-0.4-0.8-0.5c-2.1-1-4.4-1.6-6.7-2.1
		c-0.3,0-0.5,0-0.8,0C51.6,80.4,51.1,80.6,50.8,80.5z M32.7,130c1,0.9,1.5,1,2.6,0.6c0.2-0.1,0.4-0.1,0.5-0.2c0.2-0.1,0.4-0.1,0.5,0
		c1.2,0.5,2.5,0.9,3.7,1.4c0.3,0.1,0.7,0.1,1.1,0c1.2-0.5,2.4-0.9,3.6-1.3c0.2-0.1,0.5-0.1,0.7,0c1.2,0.5,2.5,0.9,3.7,1.4
		c0.3,0.1,0.7,0.1,1,0l3.4-1.3c0.4-0.1,0.7-0.2,1.1,0c1.1,0.5,2.2,0.8,3.4,1.3c0.3,0.1,0.6,0.1,0.9,0c1.3-0.5,2.5-1.1,3.6-1.8
		c0.4-0.3,0.9-0.4,1.3-0.9c-0.4-0.2-0.7-0.2-1.1,0c-1.2,0.4-2.3,0.8-3.5,1.3c-0.4,0.2-0.8,0.1-1.1,0c-1.1-0.4-2.2-0.8-3.3-1.2
		c-0.4-0.2-0.9-0.2-1.3,0l-3.4,1.3c-0.3,0.1-0.6,0.1-0.9,0c-1.1-0.4-2.2-0.8-3.4-1.3c-0.4-0.2-0.9-0.2-1.4,0
		c-1.1,0.4-2.2,0.8-3.4,1.3c-0.3,0.1-0.7,0.1-1,0c-1.2-0.4-2.3-0.9-3.5-1.3c-0.3-0.1-0.5-0.2-0.8-0.1L32.7,130z M35.2,131.3
		c0,0.1,0.1,0.1,0.2,0.1c1.9,0.8,3.9,1.5,6,1.9c0.5,0.1,0.9,0.2,1.4,0s1.2-0.5,1.8-0.7c0.3-0.1,0.6-0.1,0.8,0c0.9,0.3,1.7,0.6,2.6,1
		s1.9,0.3,2.9,0c0.9-0.3,1.6-0.6,2.4-0.9c0.3-0.1,0.7-0.4,1.1-0.2c1,0.5,1.9-0.1,2.8-0.4c-0.8-0.4-1.6-0.6-2.3-1
		c-0.8-0.3-1.1-0.2-1.7,0c-1,0.4-2,0.8-3,1.2c-0.4,0.2-0.8,0.2-1.2,0c-1.2-0.5-2.4-0.9-3.5-1.3c-0.2-0.1-0.5-0.1-0.7,0
		c-1.2,0.5-2.4,0.9-3.6,1.4c-0.4,0.2-0.8,0.2-1.2,0c-1.1-0.4-2.2-0.8-3.4-1.3C36.1,131,35.7,131,35.2,131.3z M43.8,133.8
		c1.1,0,2,0.3,3.1,0.1C45.8,133.4,44.9,132.9,43.8,133.8z"/>
	<path class="st1" d="M98.8,78.1l5.6,0c0.6,0,1.2,0.1,1.7,0.4c0.9,0.5,1.3,1.4,1.3,2.4c0,1.6,0,3.1,0,4.7c0,1.9,0,3.7,0,5.6
		c0,0.3,0,0.6,0,0.9c0,13.6,0,27.2,0,40.9c0,1.8-1.6,3-2.9,3c-4.8,0-9.6,0-14.4,0c-1.7,0-2.9-1.3-2.9-3c0-6.4,0-12.7,0-19.1
		c0-0.3,0-0.6,0-0.8c0-0.3,0-0.4,0-0.6c0-6.3,0-12.6,0-18.8c0-0.2,0-0.4,0-0.6c0-0.2,0-0.5,0-0.8c0-3.6,0-7.2,0-10.8
		c0-2,1.3-3.3,3.3-3.3c2.5,0,5,0,7.5,0L98.8,78.1z M88.8,132.5c0,0.2,0,0.5,0,0.7c0,0.8,0.5,1.3,1.2,1.4c0.2,0,0.4,0,0.6,0h13.9
		c0.9-0.1,1.4-0.6,1.5-1.5c0-0.2,0-0.4,0-0.6c0.1-0.9,0.1-1.9,0-2.8c0-1.1,0.1-2.2,0-3.2c0-2.4,0-4.8,0-7.2c0-0.5,0-0.9,0-1.4
		c0-0.1,0-0.2,0-0.4c0-6,0-12,0-18.1c0-0.2,0-0.3,0-0.5c0.1-0.9,0.1-1.8,0-2.7c0.1-1.7,0-3.4,0-5.1c0.1-2.4,0-4.7,0-7.1
		c0-1,0-2.1,0-3.1c0-0.8-0.5-1.3-1.3-1.4c-0.2,0-0.4,0-0.6,0H90.6c-0.2,0-0.4,0-0.6,0c-0.8,0.1-1.3,0.6-1.3,1.4c0,1,0,2.1,0,3.1
		c0,1.2,0,2.5,0,3.7c0,1.2,0,2.2,0,3.4c0,1.7-0.1,3.4,0,5.1c0,0.9,0,1.8,0,2.7c0,0.2,0,0.4,0,0.6c0,5.9,0,11.8,0,17.7
		c0,0.2,0,0.4,0,0.6c-0.1,2.9,0,5.7,0,8.6c0,1.1,0,2.2,0,3.2C88.8,130.8,88.7,131.6,88.8,132.5z"/>
	<path class="st3" d="M87.2,93c0,0.2,0,0.4,0,0.6c0,6.3,0,12.6,0,18.8c0,0.2,0,0.4,0,0.6c-0.6,0-1.1,0.5-1.5,0.8
		c-1.5,1.1-3.1,2.1-4.7,3.1c-1.8,1.1-3.7,2.1-5.6,3.2c-0.3,0.2-0.7,0.4-1.1,0.1c0.5-1.1,1-2.1,1.4-3.2c1.5-3.9,2.1-8,1.8-12.2
		c-0.1-1.3-0.3-2.6-0.6-3.9c0.5-0.1,1.1,0.1,1.5-0.4c0.2-0.2,0.4-0.3,0.7-0.5c1.5-1.3,3.1-2.5,4.6-3.9c1-1,2-1.9,3-2.9
		C86.8,93.1,86.9,93,87.2,93z"/>
	<path class="st14" d="M65,107.3c0.8,0.4,1.6,0.6,2.4,0.9c0.3,0.1,0.6-0.1,0.9-0.2c1-0.4,2-0.7,3-1.1c0.5-0.2,1-0.2,1.5,0
		c0.8,0.4,1.7,0.6,2.5,0.9c0.3,0.1,0.4,0.3,0.4,0.6c0,1.1,0,1.1-1,0.8c-0.7-0.3-1.5-0.5-2.2-0.9c-0.3-0.1-0.5-0.1-0.8,0
		c-1.1,0.4-2.3,0.8-3.4,1.2c-0.4,0.2-1,0.2-1.4,0c-0.9-0.3-1.7-0.7-2.6-0.9c-0.6-0.4-1.3-0.5-2.1-0.2c-1,0.4-2.1,0.8-3.1,1.2
		c-0.5,0.2-1,0.2-1.5,0c-0.9-0.5-1.8-0.7-2.7-1.1c-0.6-0.3-1.2-0.2-1.8,0c-1,0.4-2.1,0.8-3.1,1.2c-0.3,0.1-0.5,0.2-0.8,0.1
		c-1.2-0.5-2.4-0.7-3.6-1.3c-0.4-0.2-0.9-0.2-1.3-0.1c-1.2,0.5-2.3,0.9-3.5,1.3c-0.3,0.1-0.6,0.1-0.9,0c-1-0.4-2.1-0.8-3.1-1.2
		c-0.7-0.3-1.3-0.2-2,0c-1,0.4-2,0.8-3,1.1c-0.3,0.1-0.6,0.1-0.9,0c-1-0.4-2.1-0.7-3.1-1.1c-0.4-0.2-0.8-0.5-1.2-0.3
		c-1.2,0.4-2.3,0.9-3.5,1.3c-0.4,0.2-1,0.2-1.4,0c-0.9-0.4-1.8-0.7-2.8-1c-0.2-0.5-0.1-1-0.1-1.5c0.9,0.3,1.9,0.7,2.8,1
		c0.5,0.2,1,0.2,1.5,0c1-0.4,2-0.8,3-1.2c0.5-0.2,0.9-0.3,1.4-0.1c1,0.4,2.1,0.8,3.1,1.2c0.6,0.2,1,0.2,1.5,0c1-0.4,2.1-0.8,3.2-1.2
		c0.3-0.1,0.7-0.1,1,0c1.1,0.4,2.2,0.8,3.3,1.2c0.4,0.2,0.8,0.2,1.2,0c1.1-0.4,2.1-0.8,3.2-1.2c0.6-0.2,1.1-0.2,1.6,0
		c1,0.4,2,0.7,3,1.2c0.5,0.2,1,0.2,1.5,0c1.1-0.4,2.1-0.8,3.2-1.2c0.3-0.1,0.7-0.1,1,0c1.1,0.4,2.2,0.8,3.3,1.2
		c0.5,0.2,0.9,0.2,1.4,0c1.1-0.4,2.2-0.8,3.3-1.3c0.4-0.2,0.8-0.2,1.2,0C64.2,107,64.6,107.2,65,107.3z"/>
	<path class="st14" d="M68.4,105.8c1.1-0.4,2.1-0.8,3.2-1.1c0.4-0.2,0.8-0.2,1.2,0l2.6,1c0.3,0.1,0.5,0.3,0.4,0.6s0.2,0.7,0,0.9
		c-0.3,0.3-0.6-0.1-0.9-0.2c-0.7-0.2-1.3-0.4-2-0.8c-0.4-0.2-0.9-0.3-1.3-0.1c-1.1,0.4-2.2,0.8-3.3,1.3c-0.4,0.2-0.9,0.2-1.3,0
		c-0.6-0.2-1.1-0.5-1.7-0.6c-0.5-0.4-1.2-0.4-1.7-0.7c-0.3-0.1-0.6-0.1-0.9,0c-1.1,0.4-2.3,0.8-3.4,1.3c-0.4,0.2-1,0.2-1.4,0
		c-1.1-0.4-2.2-0.8-3.2-1.2c-0.4-0.2-0.8-0.1-1.2,0l-3.2,1.2c-0.4,0.2-0.8,0.2-1.3,0c-0.9-0.4-1.9-0.7-2.8-1
		c-0.2-0.1-0.4-0.1-0.5-0.2c-0.4-0.3-0.7-0.2-1.1-0.1c-1.2,0.4-2.4,0.9-3.5,1.3c-0.3,0.1-0.6,0.1-0.9,0c-1.2-0.4-2.3-0.9-3.5-1.3
		c-0.3-0.1-0.7-0.1-1,0c-1,0.4-2,0.7-3,1.1c-1,0.4-1.5,0.3-2.3,0c-0.8-0.3-1.6-0.7-2.5-0.9c-0.4-0.3-0.9-0.3-1.4-0.1
		c-1.2,0.4-2.3,0.9-3.5,1.3c-0.3,0.1-0.6,0.1-0.9,0l-3.1-1.2c0-0.5,0-0.9,0.1-1.4c0.9,0.3,1.8,0.6,2.7,1c0.5,0.2,1,0.2,1.5,0
		c1-0.4,2-0.7,3-1.1c0.6-0.2,1.1-0.2,1.6,0s1.3,0.4,1.9,0.7c0.2,0.1,0.5,0.2,0.7,0.3c0.6,0.3,1.3,0.3,2,0c1-0.4,2.1-0.8,3.2-1.2
		c0.3-0.1,0.6-0.1,0.9,0c1.1,0.4,2.3,0.8,3.4,1.3c0.4,0.2,0.8,0.2,1.2,0c1.1-0.4,2.2-0.8,3.4-1.3c0.4-0.2,0.8-0.1,1.2,0
		c1.1,0.4,2.2,0.8,3.2,1.2c0.4,0.2,0.9,0.2,1.4,0c1.1-0.4,2.2-0.8,3.2-1.2c0.4-0.2,0.8-0.2,1.2,0c1,0.4,2.1,0.8,3.2,1.2
		c0.4,0.2,0.8,0.3,1.3,0.1c1.2-0.4,2.3-0.9,3.5-1.3c0.3-0.1,0.7-0.1,1,0c1.2,0.4,2.3,0.9,3.5,1.3C67.6,106.1,68,106,68.4,105.8z"/>
	<path class="st14" d="M65.8,103.1c0.6,0.2,1.1,0.4,1.7,0.7c0.3,0.1,0.5,0,0.7-0.1c1-0.4,2-0.7,3-1.1c0.7-0.3,1.3-0.3,2,0
		c0.7,0.3,1.3,0.5,2,0.8c0.3,0.1,0.4,0.2,0.4,0.5c0,0.3,0.2,0.7,0.1,1.1c-0.8-0.1-1.4-0.5-2.1-0.7c-0.3-0.1-0.5-0.2-0.8-0.3
		c-0.4-0.2-0.8-0.2-1.3,0c-1,0.4-2.1,0.8-3.1,1.2c-0.4,0.1-0.8,0.2-1.2,0.1c-0.9-0.3-1.8-0.6-2.7-0.9c-0.3-0.1-0.7-0.2-1-0.4
		s-0.5-0.2-0.8-0.1c-1.2,0.4-2.4,0.9-3.6,1.3c-0.4,0.2-0.8,0.2-1.2,0c-1.1-0.4-2.2-0.8-3.4-1.3c-0.3-0.1-0.7-0.1-1.1,0
		c-1.1,0.4-2.2,0.8-3.3,1.2c-0.4,0.2-0.9,0.2-1.3,0c-1.1-0.4-2.2-0.8-3.2-1.2c-0.4-0.2-0.9-0.2-1.3,0c-1.2,0.5-2.4,0.9-3.6,1.3
		c-0.2,0.1-0.5,0.2-0.7,0c-1.2-0.6-2.5-0.9-3.8-1.4c-0.2-0.1-0.5-0.1-0.7,0c-1.1,0.4-2.1,0.8-3.2,1.2c-0.5,0.2-1,0.3-1.5,0.1
		c-0.3-0.1-0.6-0.3-1-0.3c-0.8-0.4-1.7-0.7-2.6-1c-0.3-0.1-0.5,0-0.7,0.1c-1.1,0.4-2.3,0.8-3.4,1.3c-0.4,0.1-0.7,0.2-1.1,0.1l-3-1.1
		c0-0.5,0.1-0.9,0.2-1.4c0.9,0.3,1.8,0.6,2.6,1c0.3,0.1,0.7,0.1,1.1,0c1.1-0.4,2.3-0.8,3.4-1.3c0.3-0.2,0.7-0.2,1.1,0
		c1.2,0.5,2.4,0.9,3.6,1.3c0.3,0.1,0.6,0.1,0.9,0c1-0.4,2.1-0.7,3.1-1.2c0.6-0.3,1.3-0.3,2,0c1,0.4,2,0.8,3,1.2
		c0.4,0.2,0.8,0.2,1.2-0.1c1.2-0.4,2.3-0.8,3.4-1.2c0.3-0.1,0.6-0.1,0.9,0c1.2,0.4,2.4,0.9,3.6,1.3c0.4,0.2,0.8,0.1,1.1,0l2.9-1.1
		c0.6-0.2,1.1-0.4,1.7-0.1c1,0.4,2.1,0.8,3.2,1.2c0.4,0.2,0.9,0.2,1.3,0c1.1-0.4,2.2-0.8,3.2-1.2c0.4-0.2,0.9-0.2,1.4,0
		C64.5,102.7,65.1,103,65.8,103.1z"/>
	<path class="st14" d="M19.2,110.9c-0.2-0.5-0.2-1.1-0.2-1.6c1,0.4,2,0.7,3,1.1c0.4,0.2,0.7,0.1,1.1,0c1-0.4,2-0.7,3-1.2
		c0.6-0.2,1.1-0.3,1.7-0.1c1,0.5,2.1,0.8,3.2,1.2c0.3,0.1,0.7,0.1,1.1,0c1-0.4,2.1-0.8,3.2-1.2c0.5-0.2,1-0.2,1.4,0
		c1.1,0.4,2.2,0.9,3.4,1.3c0.3,0.1,0.5,0.2,0.8,0.1c1.2-0.5,2.4-0.9,3.6-1.4c0.4-0.2,0.8-0.1,1.1,0c1.2,0.4,2.4,0.9,3.5,1.3
		c0.3,0.1,0.6,0.1,0.9,0c1-0.4,2.1-0.8,3.1-1.2c0.6-0.3,1.3-0.3,1.9,0c1,0.4,2.1,0.8,3.1,1.2c0.3,0.1,0.7,0.1,1,0
		c0.9-0.3,1.8-0.6,2.6-1c0.9-0.4,1.7-0.5,2.6-0.1c0.9,0.4,2.1,0.8,3.1,1.2c0.3,0.1,0.5,0,0.7-0.1c1-0.4,2.1-0.7,3.1-1.2
		c0.6-0.2,1.2-0.3,1.8,0c0.6,0.3,1.5,0.6,2.2,0.8c0.3,0.1,0.5,0.3,0.4,0.6c0,0,0,0.1,0,0.1c-0.1,0.8-0.1,0.8-0.9,0.5s-1.3-0.5-2-0.7
		c-0.4-0.2-0.8-0.1-1.1,0c-1,0.4-2.1,0.8-3.1,1.2c-0.5,0.2-1.1,0.2-1.6,0c-1-0.4-2.1-0.8-3.2-1.2c-0.4-0.2-0.8-0.2-1.1,0
		c-1.2,0.5-2.3,0.9-3.5,1.3c-0.3,0.1-0.6,0.1-1,0c-1.1-0.6-2.3-0.9-3.5-1.4c-0.4-0.2-0.8-0.2-1.1,0c-1.1,0.4-2.2,0.8-3.3,1.2
		c-0.3,0.1-0.5,0.2-0.8,0.1c-0.8-0.2-1.5-0.5-2.2-0.7c-0.6-0.2-1.2-0.4-1.8-0.7c-0.3-0.1-0.5-0.1-0.7,0c-1.1,0.4-2.3,0.8-3.4,1.3
		c-0.4,0.2-0.9,0.2-1.4,0c-1.1-0.4-2.3-0.8-3.4-1.3c-0.3-0.1-0.5-0.1-0.8,0c-1,0.4-2,0.7-2.9,1.1c-0.7,0.3-1.4,0.4-2.1,0.2
		c-1.1-0.6-2.3-0.9-3.4-1.3c-0.2-0.1-0.4,0-0.6,0.1c-1.1,0.4-2.2,0.8-3.3,1.2c-0.6,0.3-1.1,0.2-1.7,0
		C20.8,111.4,20.1,111.1,19.2,110.9z"/>
	<path class="st14" d="M19.4,102c0-0.5,0.1-1,0.3-1.4c0.8,0.3,1.5,0.6,2.3,0.9c0.3,0.1,0.6,0.1,0.9,0c1.1-0.4,2.3-0.8,3.4-1.3
		c0.4-0.2,0.8-0.2,1.2,0c1,0.4,2.1,0.8,3.2,1.2c0.5,0.2,1,0.2,1.5,0c0.9-0.4,1.8-0.7,2.8-1.1c0.6-0.3,1.4-0.3,2,0
		c0.9,0.4,1.9,0.8,2.9,1.1c0.3,0.1,0.6,0.2,1,0.1c0.9-0.4,1.9-0.7,2.8-1c0.9-0.4,1.6-0.6,2.5-0.2s1.8,0.7,2.7,1.1
		c0.4,0.2,0.9,0.2,1.3,0l0.5-0.2l2.8-1c0.3-0.1,0.6-0.1,0.9,0c1.1,0.4,2.2,0.8,3.4,1.3c0.4,0.2,0.9,0.2,1.4,0c1-0.4,2.1-0.8,3.2-1.2
		c0.5-0.2,1-0.2,1.5,0c0.8,0.3,1.6,0.7,2.4,0.8c0.3,0.2,0.7,0.3,1.1,0.4c0.4,0.1,0.7-0.1,1.1-0.2c1-0.4,1.9-0.7,2.9-1.1
		c0.6-0.3,1.2-0.2,1.8,0.1c0.4,0.2,0.8,0.4,1.3,0.5c0.5,0.1,0.7,0.4,0.8,0.9c0.1,0.4,0.1,0.5,0.2,0.8c-0.4,0.2-0.7,0-1.1-0.1
		c-0.6-0.2-1.1-0.5-1.7-0.7c-0.3-0.1-0.6-0.1-0.9,0c-1.1,0.4-2.2,0.8-3.3,1.2c-0.5,0.2-1,0.3-1.6,0c-0.3-0.2-0.7-0.2-1-0.3
		c-0.8-0.4-1.7-0.6-2.5-1c-0.2-0.1-0.4,0-0.7,0L59,103c-0.2,0.1-0.4,0.1-0.6,0l-3.2-1.1c-0.7-0.2-1.3-0.4-2-0.1c-1,0.4-2,0.7-3,1.1
		c-0.4,0.2-0.8,0.1-1.1,0c-1.1-0.4-2.2-0.8-3.4-1.3c-0.4-0.2-0.8-0.2-1.2,0c-1,0.4-2.1,0.8-3.2,1.2c-0.6,0.3-1.2,0.2-1.8-0.1
		c-1-0.4-2.1-0.8-3.1-1.2c-0.3-0.1-0.6-0.1-0.9,0c-1.1,0.4-2.3,0.9-3.4,1.3c-0.4,0.1-0.7,0.2-1.1,0c-1.2-0.5-2.4-0.9-3.6-1.3
		c-0.3-0.1-0.6-0.1-0.9,0c-1.2,0.5-2.4,0.9-3.6,1.3c-0.3,0.1-0.6,0.1-0.9,0C21.2,102.7,20.3,102.4,19.4,102z"/>
	<path class="st15" d="M19.6,113.2c-0.1-0.5-0.3-1-0.3-1.6c0.4,0,0.7,0.2,1,0.3l1.6,0.6c0.3,0.1,0.7,0.1,1,0
		c1.2-0.4,2.3-0.9,3.5-1.3c0.4-0.1,0.8-0.1,1.1,0c1,0.4,1.9,0.7,2.9,1.1c0.6,0.4,1.2,0.4,1.9,0.1c1-0.4,2.1-0.8,3.2-1.2
		c0.3-0.1,0.7-0.1,1,0c1.1,0.4,2.1,0.8,3.2,1.2c0.4,0.2,0.8,0.3,1.3,0.1c1.1-0.4,2.3-0.8,3.4-1.3c0.4-0.2,0.8-0.2,1.2,0
		c1,0.4,2.1,0.8,3.1,1.2c0.6,0.3,1.2,0.2,1.7-0.1c1-0.4,2-0.8,3-1.2c0.3-0.1,0.7-0.1,1.1,0c1.1,0.4,2.2,0.8,3.4,1.2
		c0.4,0.2,0.8,0.2,1.2,0c1.2-0.4,2.3-0.9,3.5-1.3c0.4-0.1,0.7-0.1,1,0c1.1,0.4,2.2,0.8,3.3,1.2c0.4,0.2,0.9,0.2,1.4,0
		c1-0.4,2.1-0.8,3.2-1.2c0.4-0.2,0.9-0.2,1.3,0c0.7,0.3,1.4,0.6,2.2,0.8c0.3,0.1,0.4,0.3,0.3,0.6c-0.3,0.8-0.3,0.9-1.1,0.6
		c-0.5-0.2-1-0.3-1.5-0.5c-0.3-0.1-0.6-0.1-0.9,0l-3.3,1.2c-0.5,0.2-0.9,0.2-1.4,0c-1.1-0.5-2.3-0.9-3.5-1.3c-0.2-0.1-0.5-0.1-0.8,0
		c-1.1,0.4-2.2,0.8-3.4,1.3c-0.6,0.2-1.1,0.3-1.6,0c-0.1,0-0.2-0.1-0.3-0.1c-0.9-0.5-1.9-0.7-2.8-1.1c-0.3-0.2-0.7-0.2-1.1,0
		c-1.1,0.4-2.1,0.8-3.2,1.2c-0.4,0.2-0.9,0.3-1.4,0.1c-1.1-0.5-2.3-0.9-3.4-1.3c-0.3-0.1-0.6-0.1-0.9,0c-1.2,0.4-2.3,0.8-3.5,1.3
		c-0.4,0.2-0.8,0.2-1.2,0c-1.1-0.4-2.2-0.8-3.2-1.2c-0.5-0.2-1-0.2-1.5,0c-1,0.4-2.1,0.8-3.1,1.2c-0.4,0.2-0.8,0.2-1.2,0
		c-1.1-0.4-2.2-0.8-3.3-1.2c-0.4-0.2-0.9-0.2-1.3,0c-1.1,0.4-2.2,0.8-3.2,1.2c-0.4,0.2-0.9,0.2-1.3,0
		C21.1,113.7,20.4,113.5,19.6,113.2z"/>
	<path class="st14" d="M66.8,99.1c0.7,0.4,1.3,0.3,2,0c1-0.4,2.1-0.8,3.1-1.2c0.3-0.1,0.6-0.1,0.8,0c0.5,0.2,1,0.4,1.6,0.6
		c0.1,0,0.2,0.1,0.2,0.2c0.1,0.4,0.2,0.8,0.3,1.2c0.1,0.4-0.1,0.3-0.3,0.3c-0.3,0-0.6-0.1-0.9-0.3c-0.1,0-0.2-0.1-0.3-0.2
		c-0.6-0.3-1.2-0.4-1.9-0.1c-1,0.4-2,0.8-3,1.2c-0.5,0.2-0.9,0.2-1.3,0c-0.2-0.1-0.5-0.2-0.7-0.2c-0.9-0.5-1.9-0.7-2.9-1.1
		c-0.3-0.1-0.5,0-0.8,0.1c-1.2,0.4-2.3,0.8-3.5,1.3c-0.4,0.2-0.8,0.2-1.1,0c-1.2-0.4-2.3-0.9-3.5-1.3c-0.3-0.1-0.6-0.1-0.9,0
		c-1,0.4-2.1,0.8-3.2,1.2c-0.6,0.2-1.1,0.4-1.7,0c-0.2-0.1-0.4-0.2-0.6-0.2c-0.7-0.2-1.3-0.6-2.1-0.7c-0.6-0.4-1.2-0.5-1.8-0.2
		c-1.1,0.4-2.2,0.8-3.3,1.2c-0.4,0.2-0.8,0.1-1.2,0c-1.1-0.4-2.1-0.9-3.3-1.3c-0.3-0.1-0.7-0.1-1,0c-1.2,0.4-2.3,0.9-3.5,1.3
		c-0.3,0.1-0.7,0.1-1,0c-1.2-0.4-2.3-0.9-3.5-1.3c-0.3-0.1-0.7-0.1-1.1,0c-1.2,0.4-2.3,0.9-3.5,1.3c-0.3,0.1-0.6,0.1-0.9,0
		c-0.7-0.3-1.4-0.5-2.1-0.7c0.1-0.5,0.2-1,0.5-1.4c0.4,0.3,1,0.4,1.5,0.6c0.5,0.2,0.8,0.1,1.2,0c1.1-0.4,2.2-0.8,3.3-1.2
		c0.4-0.2,0.9-0.2,1.3,0c1,0.4,2.1,0.8,3.2,1.2c0.5,0.2,1,0.2,1.4,0c1.1-0.4,2.2-0.8,3.4-1.3c0.3-0.1,0.6-0.1,0.9,0l3.5,1.3
		c0.3,0.2,0.7,0.2,1.1,0c0.9-0.3,1.7-0.6,2.6-1c0.9-0.4,1.7-0.6,2.6-0.1h0.1c0.9,0.3,1.8,0.7,2.6,1c0.4,0.2,0.9,0.2,1.4,0
		c1-0.4,2.1-0.8,3.1-1.2c0.5-0.2,1-0.2,1.4,0c1.1,0.4,2.1,0.8,3.2,1.2c0.4,0.1,0.8,0.2,1.2,0c1.2-0.4,2.3-0.9,3.5-1.3
		c0.3-0.1,0.7-0.1,1.1,0C64.7,98.3,65.7,98.8,66.8,99.1z"/>
	<path class="st15" d="M20.5,115.7c-0.2-0.6-0.5-1.1-0.6-1.7c0.7,0.2,1.3,0.4,2,0.7c0.4,0.2,0.9,0.2,1.3,0c1.1-0.4,2.1-0.8,3.2-1.2
		c0.5-0.2,1-0.2,1.4,0c1,0.4,1.9,0.7,2.9,1.1c0.6,0.3,1.2,0.2,1.8,0c1-0.4,2.1-0.8,3.1-1.2c0.3-0.1,0.5-0.2,0.8,0
		c1.1,0.4,2.3,0.8,3.4,1.3c0.4,0.2,1,0.2,1.4,0c1.1-0.4,2.2-0.8,3.4-1.3c0.3-0.1,0.7-0.1,1,0c1.1,0.4,2.3,0.8,3.4,1.3
		c0.4,0.2,0.8,0.1,1.2,0c1-0.4,2.1-0.8,3.1-1.2c0.5-0.2,1.2-0.2,1.7,0c0.7,0.3,1.4,0.6,2.2,0.8c1.8,0.8,1.3,0.6,2.9,0.1
		c0.8-0.3,1.6-0.6,2.4-0.9c0.4-0.2,0.9-0.2,1.4,0c1.1,0.4,2.2,0.8,3.4,1.3c0.3,0.1,0.6,0.1,0.9,0c1-0.4,2.1-0.8,3.1-1.2
		c0.6-0.2,1.2-0.4,1.8,0c0.4,0.2,0.9,0.3,1.3,0.5s0.4,0.2,0.3,0.6c-0.3,0.9-0.3,0.9-1.2,0.6c-0.2-0.1-0.4-0.1-0.5-0.2
		c-0.6-0.3-1.2-0.1-1.8,0.1c-1,0.4-2.1,0.8-3.1,1.2c-0.3,0.1-0.6,0.1-0.9,0l-3.4-1.3c-0.3-0.1-0.7-0.2-1-0.1l-3.1,1.2
		c-0.2,0-0.3,0-0.4,0.2c-0.3,0.1-0.6,0.2-1,0.1c-0.1-0.1-0.3-0.2-0.5-0.2c-1.1-0.4-2.2-0.7-3.3-1.1c-0.3-0.1-0.6-0.1-0.9,0
		c-1.1,0.4-2.3,0.8-3.4,1.2c-0.4,0.2-0.9,0.2-1.3,0c-1.1-0.4-2.2-0.8-3.2-1.2c-0.4-0.2-0.9-0.2-1.3,0c-1.1,0.4-2.2,0.8-3.4,1.3
		c-0.3,0.1-0.6,0.2-0.9,0.1c-1-0.4-2.1-0.8-3.1-1.2c-0.6-0.3-1.3-0.3-1.9,0c-1,0.4-2.1,0.8-3.1,1.2c-0.3,0.1-0.6,0.1-0.9,0
		c-1.1-0.4-2.2-0.8-3.4-1.3c-0.4-0.2-0.8-0.2-1.3,0c-1.1,0.4-2.2,0.8-3.2,1.2c-0.4,0.2-1,0.2-1.4,0C21.4,116,20.9,115.9,20.5,115.7z
		"/>
	<path class="st15" d="M21.7,118.4c-0.4-0.1-0.4-0.6-0.6-0.9c-0.2-0.3-0.3-0.6-0.4-0.9c0.4,0.1,0.8,0.2,1.1,0.4
		c0.4,0.2,0.8,0.2,1.3,0c1.1-0.4,2.1-0.8,3.2-1.2c0.4-0.2,0.9-0.2,1.4,0c1.1,0.4,2.2,0.8,3.3,1.2c0.3,0.1,0.7,0.1,1.1,0
		c1-0.4,2-0.7,3-1.2c0.6-0.3,1.2-0.3,1.8,0c1,0.4,2.1,0.8,3.1,1.2c0.3,0.1,0.6,0.1,0.9,0c1.2-0.4,2.3-0.9,3.5-1.3
		c0.4-0.2,0.9-0.2,1.3,0c1.1,0.4,2.3,0.9,3.4,1.3c0.3,0.1,0.6,0.1,0.8,0c1.1-0.4,2.2-0.8,3.2-1.2c0.5-0.2,1-0.4,1.6-0.1
		c0.1,0.1,0.3,0.1,0.4,0.2c1,0.4,2,0.8,3.1,1.1c0.4,0.3,0.8,0,1.1-0.2l0.3-0.1c0.9-0.3,1.9-0.6,2.8-1c0.4-0.2,0.9-0.2,1.4,0
		c0.9,0.4,1.8,0.7,2.7,1s1.4,0.3,2.2,0s1.9-0.7,2.8-1c0.4-0.2,0.9-0.2,1.4,0l1,0.4c0.2,0.1,0.3,0.2,0.2,0.4c-0.5,1.1-0.2,1-1.3,0.6
		c-0.4-0.2-0.8-0.1-1.2,0.1c-1.1,0.4-2.1,0.8-3.2,1.2c-0.6,0.2-1,0.2-1.6-0.1c-0.5-0.3-1.3-0.5-2-0.8c-0.1,0-0.1,0-0.2-0.1
		c-1-0.6-1.9-0.4-2.9,0c-0.8,0.4-1.6,0.6-2.4,0.9c-0.3,0.1-0.7,0.2-1,0c-1.1-0.3-2.2-0.7-3.2-1.2c-0.5-0.3-1.2-0.3-1.7,0
		c-1,0.4-2,0.7-3,1.1c-0.4,0.2-0.8,0.2-1.2,0c-1-0.4-2.1-0.8-3.2-1.2c-0.5-0.2-1-0.2-1.5,0c-1.2,0.5-2.4,0.9-3.6,1.3
		c-0.2,0.1-0.5,0.1-0.7,0c-0.4-0.2-0.8-0.4-1.2-0.4c-0.8-0.4-1.6-0.6-2.4-1c-0.3-0.2-0.7-0.2-1,0c-1,0.4-2.1,0.8-3.1,1.2
		c-0.6,0.2-1.1,0.3-1.7,0c-1-0.4-2.1-0.8-3.1-1.2c-0.4-0.2-0.9-0.2-1.3,0c-0.8,0.4-1.7,0.7-2.6,1C23.1,118.4,22.5,118.8,21.7,118.4z
		"/>
	<path class="st11" d="M67.9,97.1C69,96.8,70,96.4,71,96c0.2-0.1,0.5-0.2,0.7-0.3c0.5-0.3,0.9,0,1.4,0.2c0.1,0,0.2,0.2,0.2,0.3
		l0.6,1.4c-0.2,0.1-0.4,0.1-0.6,0c-0.2-0.1-0.6-0.2-0.9-0.4s-0.4,0-0.6,0c-1,0.4-2.1,0.7-3.1,1.1c-0.6,0.3-1.2,0.4-1.9,0.1
		c-1.1-0.5-2.3-0.9-3.5-1.3c-0.3-0.1-0.5,0-0.7,0.1c-1.2,0.4-2.4,0.9-3.6,1.3c-0.3,0.1-0.7,0.1-1,0c-1.2-0.4-2.4-0.9-3.6-1.3
		c-0.2-0.1-0.5-0.1-0.7,0c-1.1,0.4-2.2,0.8-3.4,1.3c-0.5,0.2-1.1,0.2-1.6,0c-0.8-0.3-1.6-0.6-2.4-0.9c-0.2-0.2-0.5-0.2-0.8-0.3
		c-0.3-0.1-0.8-0.2-1.3,0c-1.1,0.4-2.2,0.8-3.4,1.2c-0.2,0.1-0.4,0.2-0.7,0.1c-0.5-0.1-1.1-0.2-1.6-0.5c-0.7-0.4-1.5-0.6-2.3-0.9
		c-0.3-0.1-0.6-0.1-0.9,0c-1.1,0.4-2.2,0.8-3.2,1.2c-0.6,0.3-1.2,0.2-1.8,0c-1-0.4-2-0.8-3-1.2c-0.3-0.1-0.7-0.1-1.1,0
		c-1.2,0.5-2.3,0.9-3.5,1.3c-0.3,0.1-0.7,0.1-1,0c-0.4-0.2-0.9-0.3-1.3-0.5c0-0.4,0.3-0.8,0.4-1.3c0.4-0.1,0.7,0.1,1,0.3
		s0.5,0.2,0.8,0c1.2-0.5,2.5-0.9,3.7-1.4c0.3-0.1,0.6-0.1,0.9,0c1.1,0.4,2.2,0.8,3.4,1.3c0.4,0.2,1,0.2,1.4,0
		c1.1-0.4,2.1-0.8,3.2-1.2c0.3-0.2,0.7-0.2,1.1,0c1.1,0.4,2.2,0.8,3.2,1.2c0.4,0.2,0.9,0.2,1.4,0c1.1-0.4,2.3-0.8,3.4-1.3
		c0.3-0.1,0.7-0.1,1,0c1,0.4,1.9,0.8,2.9,1.1c0.1,0,0.3,0.1,0.4,0.2c0.5,0.3,1.1,0.2,1.6,0c0.9-0.4,1.9-0.7,2.8-1.1
		c0.5-0.2,1.1-0.3,1.6,0c1,0.4,2,0.7,3,1.2c0.4,0.2,1,0.2,1.4,0c1.1-0.5,2.3-0.9,3.4-1.3c0.3-0.1,0.6-0.1,0.9,0
		c1.3,0.5,2.5,0.9,3.8,1.4C67.5,97.2,67.7,97.3,67.9,97.1z"/>
	<path class="st15" d="M22.8,120.7c-0.3-0.5-0.7-0.9-0.9-1.5c0.3,0,0.5,0.2,0.8,0c1.2-0.5,2.4-0.9,3.6-1.4c0.4-0.2,0.8-0.2,1.2,0
		c1,0.4,2.1,0.8,3.1,1.2c0.6,0.3,1.2,0.2,1.7-0.1c1-0.4,2.1-0.8,3.1-1.2c0.3-0.1,0.7-0.1,1,0c0.7,0.3,1.5,0.6,2.3,0.8l0.1,0
		c2.1,0.8,1.4,0.7,3.3,0c0.8-0.3,1.6-0.6,2.4-0.9c0.4-0.2,0.7-0.1,1,0.1c1,0.4,1.9,0.7,2.9,1.1c0.9,0.4,1.5,0.3,2.2-0.1
		c1-0.4,1.9-0.8,2.9-1.1c0.2-0.1,0.5-0.1,0.7,0l3.8,1.4c0.3,0.1,0.6,0.1,0.9,0c1.2-0.5,2.5-0.9,3.7-1.4c0.2-0.1,0.5-0.1,0.7,0
		c1.1,0.4,2.1,0.8,3.2,1.2c0.6,0.2,1.1,0.3,1.7,0.1c1.2-0.4,2.3-0.8,3.5-1.3c0.5-0.2,0.9,0,1.3,0.2c0.1,0,0.1,0.1,0.1,0.1
		c0.1,0.3-0.4,1.1-0.7,1.1c-0.9,0-1.6,0.5-2.4,0.7c-0.8,0.3-1.3,0.5-2,0.8c-0.3,0.1-0.6,0.1-0.8,0c-1.2-0.4-2.3-0.8-3.4-1.2
		c-0.1,0-0.2-0.1-0.3-0.1c-0.3-0.3-0.6-0.2-0.9-0.1c-1.2,0.5-2.4,0.9-3.6,1.3c-0.3,0.1-0.7,0.1-1,0l-3.6-1.4c-0.2-0.1-0.4-0.1-0.6,0
		c-0.3,0.1-0.6,0.2-0.9,0.4c-0.9,0.2-1.7,0.6-2.5,0.9c-0.5,0.2-1,0.3-1.5,0.1c-1.1-0.4-2.2-0.7-3.3-1.2c-0.4-0.2-0.8-0.2-1.1,0
		c-1.1,0.4-2.3,0.8-3.4,1.3c-0.3,0.1-0.7,0.1-1.1,0c-1.1-0.4-2.2-0.7-3.2-1.2c-0.6-0.3-1.1-0.2-1.6,0c-1,0.4-2.1,0.8-3.1,1.2
		c-0.3,0.1-0.7,0.1-1.1,0c-1.2-0.4-2.3-0.9-3.5-1.3c-0.3-0.1-0.5-0.2-0.8-0.1c-0.3,0.1-0.8,0.3-1.2,0.4
		C24.6,120.1,23.8,120.5,22.8,120.7z"/>
	<path class="st11" d="M67.6,94.9c0.8-0.1,1.4-0.5,2.1-0.7c0.7-0.2,1.1-0.4,1.7-0.6c0.3-0.1,0.6-0.1,0.7,0.3c0.2,0.3,0.4,0.6,0.5,1
		c-0.9-0.1-1.7,0.4-2.5,0.7c-0.8,0.3-1.6,0.5-2.3,0.9c-0.1,0-0.3,0-0.4-0.1L63.6,95c-0.2-0.1-0.5-0.1-0.7,0
		c-1.2,0.5-2.4,0.9-3.6,1.4c-0.4,0.2-0.8,0.2-1.2,0c-1.1-0.4-2.2-0.8-3.4-1.3c-0.3-0.1-0.7-0.1-1,0c-0.9,0.4-1.9,0.6-2.8,1
		c-0.9,0.4-1.5,0.5-2.3,0.1s-1.9-0.8-2.8-1.1c-0.5-0.2-1.1-0.2-1.6,0.1c-1,0.4-2,0.7-3,1.1c-0.4,0.2-0.8,0.1-1.2,0
		c-1.1-0.4-2.2-0.8-3.3-1.2c-0.5-0.2-0.9-0.1-1.3,0c-1.1,0.4-2.2,0.8-3.3,1.3c-0.3,0.1-0.6,0.1-0.9,0c-1.2-0.5-2.4-0.9-3.6-1.3
		c-0.2-0.1-0.5-0.2-0.7-0.1c-1.2,0.5-2.5,0.9-3.8,1.4c-0.3,0.1-0.6,0.1-0.9,0l-0.6-0.3c0.2-0.5,0.3-0.9,0.7-1.3
		c0.2,0.2,0.5,0.2,0.7,0.1c1.2-0.4,2.3-0.9,3.5-1.3c0.4-0.2,0.8-0.2,1.2,0c1,0.4,2,0.7,3,1.2c0.7,0.3,1.2,0.3,1.9,0
		c1-0.4,2.1-0.8,3.1-1.2c0.3-0.1,0.6-0.1,0.9,0c1.1,0.4,2.2,0.8,3.4,1.3c0.4,0.2,0.8,0.2,1.3,0c1.1-0.5,2.3-0.8,3.4-1.3
		c0.3-0.1,0.7-0.1,1,0c0.5,0.2,0.9,0.4,1.4,0.5c0.6,0.3,1.3,0.5,2,0.8c0.6,0.3,0.9,0.2,1.3,0l3.3-1.2c0.4-0.2,0.8-0.2,1.2,0
		c1.1,0.4,2.1,0.8,3.2,1.2c0.4,0.2,0.9,0.2,1.3,0c1-0.4,2.1-0.8,3.2-1.2c0.5-0.2,1-0.2,1.6,0C65.2,94.1,66.4,94.6,67.6,94.9z"/>
	<path class="st11" d="M22.4,94.3l0.9-1.5c0.1-0.2,0.3-0.4,0.6-0.6c0.9-0.2,1.8-0.6,2.6-0.9c0.3-0.1,0.7-0.1,1,0c1,0.4,2,0.7,3,1.1
		c0.7,0.3,1.4,0.3,2.1,0c1-0.4,2-0.7,3-1.1c0.3-0.1,0.7-0.1,1.1,0c1.1,0.4,2.2,0.8,3.4,1.3c0.4,0.2,0.8,0.2,1.2,0
		c0.9-0.3,1.7-0.6,2.6-1c0.9-0.4,1.6-0.6,2.5-0.1c0.2,0.1,0.4,0.2,0.7,0.2c0.9,0.3,1.8,0.7,2.7,0.9c1.3-0.3,2.4-0.8,3.6-1.3
		c0.7-0.2,1.2-0.3,1.9,0c1,0.4,2.1,0.8,3.1,1.2c0.3,0.1,0.6,0.1,0.9,0c1.3-0.5,2.5-0.9,3.8-1.4c0.3-0.1,0.6-0.1,0.9,0
		c1.1,0.4,2.2,0.8,3.4,1.3c0.6,0.2,1.1,0.2,1.6-0.1c0.5-0.4,1.1-0.4,1.7-0.6c0.3-0.1,0.5-0.1,0.7,0.2c0.6,0.9,0.6,0.9-0.4,1.2
		c-1,0.3-2,0.8-3,1.1l-4.1-1.5c-0.3-0.1-0.6-0.1-0.8,0l-3.6,1.3c-0.2,0.1-0.5,0.2-0.7,0.1c-0.9-0.5-2-0.6-3-1.1
		c-0.9-0.5-1.6-0.5-2.5-0.1s-1.9,0.7-2.9,1.1c-0.3,0.1-0.7,0.1-1.1,0c-0.6-0.2-1.1-0.5-1.7-0.6c-0.5-0.4-1.2-0.4-1.7-0.7
		c-0.3-0.1-0.6-0.1-0.9,0c-1.1,0.4-2.3,0.8-3.4,1.3c-0.4,0.2-0.9,0.2-1.3,0c-1.1-0.4-2.2-0.8-3.2-1.2c-0.4-0.2-0.9-0.2-1.3,0
		L32,94.1c-0.3,0.1-0.6,0.1-0.9,0c-1.2-0.4-2.3-0.9-3.5-1.3c-0.3-0.1-0.6-0.1-0.9,0c-0.8,0.3-1.7,0.6-2.5,0.9
		C23.5,93.9,23,94.2,22.4,94.3z"/>
	<path class="st15" d="M52.9,120.3c0.9-0.4,1.7-0.3,2.6,0.1c0.9,0.4,1.7,0.6,2.5,1c0.3,0.2,0.7,0.2,1.1,0c1.2-0.4,2.4-0.9,3.6-1.3
		c0.3-0.1,0.6-0.1,0.9,0c1.1,0.4,2.3,0.8,3.4,1.3c0.5,0.2,1,0.1,1.5,0c1.1-0.4,2.2-0.8,3.4-1.3l0.3-0.1c0,0.3-0.2,0.5-0.3,0.8
		c-0.4,0.7-0.9,1.2-1.7,1.4c-0.8,0.2-1.5,0.5-2.2,0.8c-0.3,0.1-0.6,0.1-0.8,0c-1.3-0.5-2.6-0.9-3.9-1.4c-0.2-0.1-0.5-0.1-0.7,0
		c-1.2,0.5-2.4,0.9-3.5,1.3c-0.3,0.1-0.7,0.1-1.1,0c-1.2-0.4-2.3-0.9-3.5-1.3c-0.3-0.1-0.6-0.1-0.9,0l-3.5,1.3
		c-0.4,0.2-0.8,0.2-1.2,0c-1.2-0.5-2.4-0.9-3.5-1.4c-0.3-0.1-0.6-0.1-0.9,0.1l-3.4,1.3c-0.4,0.2-0.8,0.2-1.1,0
		c-1-0.4-2.1-0.8-3.1-1.2c-0.6-0.3-1.2-0.2-1.8,0c-1,0.4-2,0.7-3,1.1c-0.4,0.2-0.8,0.1-1.2,0c-1.1-0.4-2.2-0.8-3.3-1.2
		c-0.3-0.1-0.7-0.2-1-0.1l-2.5,1c-0.3-0.4-0.8-0.7-0.8-1.3c0.2,0,0.4-0.1,0.6-0.2c0.9-0.3,1.7-0.6,2.6-1c0.4-0.2,0.8-0.1,1.2,0
		c1,0.4,2.1,0.8,3.2,1.2c0.6,0.2,1.1,0.2,1.6,0c1-0.4,2.1-0.8,3.1-1.2c0.3-0.1,0.6-0.2,0.9,0c1.2,0.5,2.3,0.9,3.5,1.3
		c0.4,0.2,0.8,0.2,1.2,0c1.1-0.4,2.3-0.9,3.4-1.3c0.4-0.2,0.8-0.1,1.2,0c1.2,0.4,2.3,0.9,3.5,1.3c0.2,0.1,0.4,0.2,0.7,0.1
		C50.9,121.1,51.9,120.8,52.9,120.3z"/>
	<path class="st11" d="M67.9,90.5c0.4,0,0.7-0.2,1.1-0.4s0.5-0.1,0.7,0.2c0.2,0.2,0.4,0.5,0.5,0.8c-0.5,0.5-1.2,0.4-1.7,0.8
		s-1.1,0.1-1.6-0.1c-1-0.4-2.1-0.8-3.2-1.2c-0.3-0.1-0.5-0.2-0.8-0.1c-1.3,0.5-2.5,0.9-3.8,1.4c-0.5,0.2-0.9,0.2-1.2-0.1
		c-0.1-0.1-0.3-0.2-0.4-0.2c-0.9-0.3-1.9-0.6-2.8-1c-0.4-0.2-0.8-0.1-1.1,0l-4,1.5c-0.3-0.1-0.5-0.2-0.8-0.3
		c-1.2-0.4-2.4-0.7-3.4-1.3c-0.2-0.1-0.4-0.1-0.5,0c-1.2,0.5-2.5,0.9-3.7,1.4c-0.4,0.1-0.8,0.1-1.2,0c-1.1-0.4-2.2-0.8-3.4-1.3
		c-0.3-0.1-0.7-0.1-1.1,0c-1.1,0.4-2.1,0.8-3.2,1.2c-0.5,0.2-1.2,0.2-1.7,0c-1-0.4-2.1-0.8-3.2-1.2c-0.3-0.1-0.7-0.1-1,0
		c-0.7,0.3-1.4,0.6-2.1,0.7c0.7-0.8,1.2-1.7,2.2-2.3c0.4-0.1,0.7,0,1.1,0.1c1.1,0.4,2.2,0.8,3.2,1.2c0.5,0.2,1,0.2,1.5,0
		c1.1-0.4,2.1-0.8,3.2-1.2c0.3-0.1,0.7-0.1,1,0c1.1,0.4,2.3,0.9,3.4,1.3c0.3,0.1,0.6,0.3,0.9,0.1c1.2-0.5,2.5-0.9,3.8-1.4
		c0.3-0.1,0.6-0.1,0.9,0c0.4,0.2,0.9,0.4,1.3,0.4c0.7,0.4,1.4,0.5,2.1,0.9c0.4,0.2,0.9,0.2,1.3,0c0.9-0.4,1.9-0.7,2.8-1.1
		c0.6-0.3,1.3-0.3,2,0c1,0.4,2.1,0.8,3.1,1.2c0.3,0.1,0.5,0.2,0.9,0c1.2-0.5,2.5-0.9,3.7-1.4c0.3-0.1,0.6-0.1,0.9,0
		c1.2,0.5,2.5,0.9,3.8,1.4C67.5,90.6,67.7,90.7,67.9,90.5z"/>
	<path class="st15" d="M48.8,123.5c0.5,0.3,1,0.2,1.5,0c1-0.4,2.1-0.8,3.2-1.2c0.4-0.1,0.7-0.1,1.1,0c1,0.4,2,0.7,3,1.1
		c0.7,0.3,1.3,0.3,1.9,0c1-0.4,2-0.7,3-1.1c0.4-0.1,0.8-0.1,1.2,0c1.1,0.4,2.2,0.8,3.3,1.2c0.4,0.2,0.9,0.2,1.3,0
		c0.6-0.2,1.2-0.4,1.9-0.7c-0.2,0.6-0.6,0.8-0.8,1.2c-0.2,0.3-0.4,0.5-0.7,0.7c-0.5,0.4-1,0.6-1.7,0.3c-1.2-0.4-2.3-0.9-3.5-1.3
		c-0.3-0.1-0.6-0.1-0.9,0c-1.2,0.4-2.3,0.9-3.5,1.3c-0.5,0.2-1,0.2-1.5,0c-0.8-0.3-1.6-0.6-2.4-0.9c-0.2-0.1-0.4-0.2-0.6-0.3
		c-0.4-0.2-0.8-0.2-1.3,0c-1.1,0.4-2.2,0.8-3.3,1.2c-0.4,0.2-0.8,0.2-1.1,0c-1.1-0.4-2.3-0.8-3.4-1.3c-0.3-0.1-0.7-0.1-1,0
		c-1.2,0.5-2.4,0.9-3.6,1.4c-0.3,0.1-0.6,0.1-0.9,0c-0.4-0.2-0.8-0.4-1.2-0.4c-0.7-0.4-1.5-0.5-2.1-0.9c-0.5-0.2-0.9-0.2-1.3,0
		c-1,0.4-1.9,0.7-2.9,1.1c-0.6,0.2-1.2,0.3-1.8,0s-1.3-0.5-1.9-0.7c-1.7-0.7-1.7-0.7-3.1-0.1l-0.1,0.1c-0.4-0.3-0.8-0.7-1-1.1
		c0.6-0.2,1.3-0.5,1.9-0.7c0.4-0.2,0.8-0.2,1.2,0c1.1,0.4,2.2,0.8,3.4,1.3c0.3,0.1,0.7,0.1,1.1,0c1-0.4,2.1-0.8,3.1-1.2
		c0.5-0.2,1-0.3,1.6,0c1.1,0.4,2.2,0.8,3.3,1.2c0.3,0.1,0.6,0.2,0.9,0c1.1-0.4,2.3-0.8,3.4-1.3c0.5-0.2,1-0.2,1.4,0
		C46.8,122.8,47.8,123.2,48.8,123.5z"/>
	<path class="st15" d="M38.7,125.3c0.2,0.1,0.4,0.1,0.5,0.2c1.7,0.7,1.3,0.4,2.9-0.1c0.9-0.3,1.7-0.6,2.5-0.9c0.4-0.2,0.7-0.1,1,0
		c1.1,0.4,2.2,0.8,3.3,1.2c0.4,0.2,0.9,0.2,1.4,0l3.2-1.2c0.4-0.2,0.8-0.2,1.2,0c1.1,0.5,2.3,0.9,3.4,1.3c0.3,0.1,0.7,0.1,1.1,0
		c1.2-0.5,2.5-0.9,3.7-1.4c0.2-0.1,0.4-0.1,0.5,0l3.8,1.4c0.1,0,0.2,0.1,0.2,0.2c-0.2,0.4-0.6,0.6-0.9,0.9c-0.3,0.3-0.3,0-0.5,0
		c-0.8-0.3-1.5-0.5-2.3-0.9c-0.4-0.2-0.8-0.1-1.1,0c-1.2,0.5-2.3,0.9-3.5,1.3c-0.3,0.1-0.6,0.1-0.9,0c-1.3-0.5-2.6-0.8-3.9-1.3
		c-0.3-0.1-0.5,0-0.7,0.1c-1.1,0.4-2.2,0.8-3.3,1.2c-0.4,0.2-0.8,0.2-1.2,0c-1.1-0.4-2.3-0.8-3.4-1.3c-0.3-0.2-0.7-0.2-1.1,0
		c-1.2,0.5-2.4,0.9-3.6,1.3c-0.3,0.1-0.6,0.1-1-0.1c-0.9-0.4-1.9-0.8-2.8-1c-0.5-0.2-1-0.5-1.7-0.3c-1,0.4-2,0.7-3,1.1
		c-0.6,0.3-1.2,0.4-1.9,0c-0.1-0.1-0.3-0.1-0.5-0.2c-0.8-0.3-1.6-0.7-2.5-0.9c-0.9-0.2-1.3-0.8-1.7-1.4c0.7-0.4,1.3-0.4,2-0.1
		c0.9,0.4,1.9,0.7,2.8,1.1c0.6,0.3,1.2,0.2,1.7-0.1c1-0.4,2.1-0.8,3.1-1.2c0.3-0.1,0.6-0.1,0.9,0C37.2,124.8,37.9,125,38.7,125.3z"
		/>
	<path class="st11" d="M27.2,88.2l0.8-0.8c0.2-0.2,0.4-0.3,0.7-0.3c0.1,0.2,0.4,0.3,0.6,0.3c0.6,0.2,1.2,0.4,1.7,0.6
		c0.3,0.2,0.7,0.2,1.1,0l3.5-1.3c0.3-0.1,0.7-0.1,1,0c1,0.4,2.1,0.8,3.2,1.2c0.5,0.2,1.1,0.2,1.6,0c1-0.4,2.1-0.8,3.2-1.2
		c0.4-0.2,0.8-0.2,1.2,0l3.5,1.3c0.3,0.1,0.6,0.1,0.8,0c1-0.4,1.9-0.7,2.9-1.1c0.9-0.4,1.5-0.4,2.3-0.1c0.8,0.3,1.8,0.7,2.8,1.1
		c0.5,0.2,0.9,0.3,1.5,0c1-0.4,2.1-0.8,3.1-1.2c0.5-0.2,1-0.2,1.6,0c0.8,0.3,1.7,0.6,2.5,0.9l0.5,0.2c0.9,0.3,1.1,0.5,1.7,1.3
		c-0.2,0.3-0.7,0.3-1,0.5l-4.2-1.5c-0.2-0.1-0.5-0.2-0.7,0c-1.3,0.5-2.5,0.9-3.8,1.4c-0.3,0.1-0.5,0.2-0.7,0c-1-0.5-2.2-0.6-3.2-1.1
		c-0.7-0.3-1.5-0.3-2.2,0c-0.9,0.4-1.8,0.7-2.7,1c-0.4,0.2-0.8,0.2-1.1,0c-0.7-0.3-1.3-0.6-2.1-0.7c-0.7-0.1-1.2-0.5-1.7-0.7
		c-0.2-0.1-0.3,0-0.5,0c-1.3,0.5-2.5,0.9-3.8,1.4c-0.3,0.1-0.6,0.1-0.9,0c-1.2-0.4-2.4-0.9-3.6-1.3c-0.3-0.1-0.7-0.1-1,0l-3.2,1.2
		c-0.5,0.2-1,0.3-1.6,0C29.6,89.1,28.3,88.8,27.2,88.2z"/>
	<path class="st11" d="M62.5,84.7c0.2,0,0.4,0,0.5,0.1c1.1,0.7,2.1,1.3,3,2.2c-0.3,0.1-0.5,0-0.8-0.1c-0.5-0.2-1.1-0.4-1.6-0.6
		c-0.3-0.2-0.7-0.2-1.1,0c-1.2,0.5-2.4,0.9-3.6,1.3c-0.3,0.1-0.6,0.1-0.9,0c-1.2-0.5-2.4-0.9-3.7-1.3c-0.4-0.1-0.8-0.1-1.1,0.1
		L50,87.5c-0.3,0.1-0.6,0.1-0.9,0c-1.2-0.4-2.3-0.9-3.5-1.3c-0.4-0.1-0.8-0.1-1.2,0c-1,0.4-2.1,0.7-3,1.2c-1,0.5-1.5,0.1-2.1-0.1
		c-0.9-0.3-1.7-0.6-2.6-1c-0.5-0.2-0.9-0.2-1.4,0c-1.1,0.4-2.2,0.8-3.3,1.2c-0.3,0.1-0.7,0.1-1,0c-0.7-0.3-1.3-0.6-2.1-0.7
		c0,0,0-0.1,0-0.1c0.4-0.4,0.9-0.7,1.4-1c0.7,0.4,1.4,0.6,2.1,0.1c0.1-0.1,0.3-0.1,0.4-0.2c0.9-0.3,1.9-0.7,2.8-1
		c0.2-0.1,0.5-0.1,0.7,0c1.2,0.4,2.3,0.9,3.5,1.3c0.4,0.2,0.8,0.2,1.2,0c1.2-0.4,2.3-0.9,3.5-1.3c0.3-0.1,0.6-0.1,0.9,0
		c1.1,0.4,2.2,0.8,3.3,1.2c0.5,0.2,1.1,0.2,1.6,0c1-0.4,1.9-0.7,2.9-1.1c0.5-0.2,1-0.3,1.6,0c1,0.4,2.1,0.8,3.2,1.2
		c0.4,0.2,0.8,0.2,1.2,0c0.4-0.2,0.4-0.2,0.7-0.2C60.7,85.4,61.7,85.1,62.5,84.7z"/>
	<path class="st15" d="M36.8,126.8c1.1,0.5,2.3,0.9,3.4,1.3c0.3,0.1,0.5,0,0.8-0.1c1.2-0.4,2.3-0.9,3.5-1.3c0.4-0.1,0.8-0.1,1.2,0
		c1.2,0.5,2.4,0.9,3.6,1.3c0.2,0.1,0.5,0.1,0.7,0c1-0.4,2.1-0.7,3.1-1.1c0.6-0.3,1.2-0.4,1.8-0.1c1,0.4,2.1,0.8,3.2,1.2
		c0.4,0.2,0.8,0.2,1.2,0c1.2-0.4,2.3-0.9,3.5-1.3c0.3-0.1,0.5-0.2,0.8,0c0.7,0.3,1.4,0.6,2.2,0.9c-0.3,0.4-0.8,0.6-1.1,0.9
		c-0.2,0.2-0.4,0-0.5-0.1c-0.6-0.3-1.2-0.3-1.9,0c-1,0.4-2,0.7-3,1.1c-0.4,0.2-0.8,0.1-1.1,0c-1-0.4-2.1-0.8-3.2-1.2
		c-0.6-0.2-1.1-0.2-1.7,0c-1,0.4-2,0.7-3,1.1c-0.4,0.2-0.9,0.2-1.3,0c-1.1-0.5-2.2-0.8-3.4-1.3c-0.3-0.1-0.7-0.1-1,0l-3.6,1.3
		c-0.3,0.1-0.6,0.1-0.9,0c-1.1-0.4-2.2-0.8-3.4-1.3c-0.5-0.2-1-0.2-1.4,0c-0.9,0.4-1.8,0.7-2.8,1.1c-0.5,0.2-0.8,0.2-1.2-0.1
		c-0.6-0.5-1.2-0.9-1.8-1.3c-0.3-0.2-0.6-0.4-0.7-0.7c0.7,0.3,1.5,0.5,2.2,0.8c0.4,0.2,0.9,0.2,1.4,0c0.9-0.4,1.8-0.6,2.7-1
		C35.5,126.7,36.1,126.5,36.8,126.8z"/>
	<path class="st11" d="M60.3,83.3c0.6,0.1,1.2,0.5,1.7,0.8c-0.2,0.3-0.5,0.3-0.8,0.4c-0.7,0.3-1.3,0.5-2,0.7c-0.4,0.2-0.9,0.1-1.3,0
		c-1.1-0.4-2.3-0.8-3.4-1.3c-0.3-0.1-0.6-0.1-0.8,0c-1,0.4-2.1,0.7-3,1.2c-1,0.4-1.7,0.2-2.5-0.1c-0.8-0.3-1.7-0.7-2.6-1.1
		c-0.3-0.1-0.7-0.1-1,0c-1.2,0.4-2.3,0.9-3.5,1.3c-0.4,0.1-0.8,0.1-1.2,0c-1.1-0.4-2.3-0.8-3.4-1.3c-0.3-0.1-0.7-0.1-1,0
		c-1.2,0.4-2.3,0.9-3.5,1.3c-0.4,0.1-0.7,0.2-1-0.1c1-0.8,2.2-1.4,3.3-2c0.5-0.3,1.1-0.5,1.7-0.7c0.2-0.1,0.4-0.1,0.6-0.2
		c1.2,0.6,2.5,1,3.8,1.5c0.2,0.1,0.4,0,0.5,0c1.3-0.5,2.5-0.9,3.8-1.4c0.3-0.1,0.6-0.1,0.9,0c1.1,0.4,2.2,0.8,3.2,1.2
		c0.6,0.2,1.1,0.2,1.7,0c1.1-0.4,2.2-0.8,3.4-1.2c0.2-0.1,0.5-0.1,0.7,0c1.2,0.5,2.4,0.9,3.6,1.3c0.2,0.1,0.5,0.3,0.7,0.1
		C59.3,83.7,59.8,83.6,60.3,83.3z"/>
	<path class="st1" d="M32.7,130l3-1.1c0.3-0.1,0.5,0,0.8,0.1c1.2,0.4,2.3,0.8,3.5,1.3c0.3,0.1,0.7,0.2,1,0c1.1-0.4,2.3-0.8,3.4-1.3
		c0.4-0.2,0.9-0.2,1.4,0c1.1,0.4,2.2,0.8,3.4,1.3c0.3,0.1,0.6,0.1,0.9,0l3.4-1.3c0.4-0.2,0.9-0.2,1.3,0c1.1,0.4,2.2,0.8,3.3,1.2
		c0.4,0.2,0.8,0.2,1.1,0c1.2-0.5,2.3-0.9,3.5-1.3c0.3-0.1,0.7-0.2,1.1,0c-0.4,0.4-0.9,0.6-1.3,0.9c-1.2,0.7-2.4,1.3-3.6,1.8
		c-0.3,0.1-0.6,0.1-0.9,0c-1.1-0.4-2.3-0.8-3.4-1.3c-0.4-0.2-0.7-0.1-1.1,0l-3.4,1.3c-0.3,0.1-0.7,0.1-1,0c-1.2-0.5-2.5-0.9-3.7-1.4
		c-0.2-0.1-0.5-0.1-0.7,0c-1.2,0.4-2.4,0.9-3.6,1.3c-0.3,0.2-0.7,0.2-1.1,0c-1.2-0.5-2.5-0.9-3.7-1.4c-0.2-0.1-0.4-0.1-0.5,0
		c-0.2,0.1-0.4,0.1-0.5,0.2C34.2,131,33.7,130.9,32.7,130z"/>
	<path class="st16" d="M29.9,104.8c0.4,0,0.7,0.2,1,0.3c0.5,0.2,1,0.1,1.5-0.1c1.1-0.4,2.1-0.8,3.2-1.2c0.2-0.1,0.5-0.1,0.7,0
		c1.3,0.5,2.6,0.9,3.8,1.4c0.3,0.1,0.5,0,0.7,0c1.2-0.4,2.4-0.9,3.6-1.3c0.4-0.2,0.9-0.2,1.3,0c1.1,0.4,2.2,0.8,3.2,1.2
		c0.4,0.2,0.9,0.2,1.3,0c1.1-0.4,2.2-0.8,3.3-1.2c0.3-0.1,0.7-0.2,1.1,0c1.1,0.4,2.2,0.8,3.4,1.3c0.4,0.2,0.8,0.2,1.2,0
		c1.2-0.5,2.4-0.9,3.6-1.3c0.3-0.1,0.5-0.1,0.8,0.1s0.6,0.3,1,0.4c0.9,0.3,1.8,0.6,2.7,0.9c0.4,0.2,0.8,0,1.2-0.1v0.6
		c-0.4,0.3-0.9,0.3-1.3,0.1c-1.2-0.4-2.3-0.9-3.5-1.3c-0.3-0.1-0.7-0.1-1,0c-1.2,0.4-2.3,0.9-3.5,1.3c-0.5,0.2-0.9,0-1.3-0.1
		c-1.1-0.4-2.1-0.8-3.2-1.2c-0.4-0.2-0.8-0.1-1.2,0c-1.1,0.4-2.2,0.8-3.2,1.2c-0.4,0.2-0.9,0.2-1.4,0c-1.1-0.4-2.1-0.8-3.2-1.2
		c-0.4-0.2-0.8-0.2-1.2,0c-1.1,0.4-2.2,0.8-3.4,1.3c-0.4,0.2-0.8,0.1-1.2,0c-1.1-0.4-2.3-0.9-3.4-1.3c-0.3-0.1-0.6-0.1-0.9,0
		c-1.1,0.4-2.1,0.7-3.2,1.2c-0.7,0.3-1.3,0.3-2,0c-0.2-0.1-0.5-0.2-0.7-0.3C29.8,105.2,29.8,105,29.9,104.8z"/>
	<path class="st16" d="M57.1,114.3c-0.8-0.1-1.5-0.5-2.2-0.8c-0.5-0.2-1.2-0.3-1.7,0c-1,0.4-2.1,0.8-3.1,1.2c-0.4,0.2-0.8,0.2-1.2,0
		c-1.1-0.4-2.3-0.8-3.4-1.3c-0.3-0.1-0.7-0.2-1,0c-1.1,0.4-2.2,0.8-3.4,1.3c-0.5,0.2-1,0.2-1.4,0c-1.1-0.5-2.3-0.9-3.4-1.3
		c-0.3-0.1-0.5,0-0.8,0c-1,0.4-2.1,0.7-3.1,1.2c-0.6,0.3-1.2,0.3-1.8,0c-0.9-0.4-1.9-0.7-2.9-1.1c-0.4-0.2-1-0.2-1.4,0
		c-1.1,0.4-2.1,0.8-3.2,1.2c-0.4,0.2-0.9,0.2-1.3,0c-0.6-0.3-1.3-0.5-2-0.7l-0.2-0.8c0.8,0.3,1.5,0.5,2.2,0.8c0.4,0.2,0.9,0.2,1.3,0
		c1.1-0.4,2.1-0.8,3.2-1.2c0.4-0.2,0.9-0.2,1.3,0c1.1,0.4,2.2,0.8,3.3,1.2c0.4,0.2,0.8,0.2,1.2,0c1-0.4,2.1-0.8,3.1-1.2
		c0.5-0.2,0.9-0.3,1.5,0c1.1,0.5,2.1,0.8,3.2,1.2c0.4,0.2,0.8,0.2,1.2,0c1.2-0.5,2.3-0.9,3.5-1.3c0.3-0.1,0.6-0.1,0.9,0
		c1.1,0.4,2.3,0.8,3.4,1.3c0.5,0.2,0.9,0.1,1.4-0.1c1.1-0.4,2.1-0.8,3.2-1.2c0.3-0.2,0.7-0.2,1.1,0c0.9,0.4,1.9,0.6,2.8,1.1
		C57.3,113.9,57.1,114.1,57.1,114.3z"/>
	<path class="st11" d="M51.9,80.8c0.2-0.1,0.5-0.1,0.8,0c2.3,0.4,4.6,1.1,6.7,2.1c-0.4,0.4-0.9,0.4-1.4,0.2
		c-1.1-0.4-2.2-0.8-3.2-1.2c-0.6-0.3-1.1-0.1-1.6,0.1c-1.1,0.4-2.2,0.8-3.3,1.2c-0.3,0.1-0.7,0.2-1-0.1c-0.1-0.1-0.2-0.1-0.3-0.1
		c-1.1-0.4-2.2-0.8-3.2-1.2c-0.2-0.1-0.5-0.1-0.7,0c-1.2,0.4-2.4,0.9-3.6,1.3c-0.5,0.2-0.8,0.1-1.3,0c-0.8-0.3-1.6-0.7-2.5-0.9
		c0.9-0.5,1.8-0.9,2.8-0.6c0.3,0.1,0.5,0.1,0.8,0c0.6-0.3,1.3-0.4,1.9-0.7c0.9-0.4,1.8-0.4,2.7-0.5c0.3,0,0.5,0.1,0.8,0.1
		c1,0.5,2,0.8,3,1.2c0.1,0.1,0.3,0.1,0.4,0C50.5,81.4,51.3,81.2,51.9,80.8z"/>
	<path class="st17" d="M28.9,86.8c0.7,0.1,1.4,0.4,2.1,0.7c0.3,0.1,0.7,0.1,1,0c1.1-0.4,2.2-0.8,3.3-1.2c0.5-0.2,0.9-0.2,1.4,0
		c0.8,0.4,1.7,0.7,2.6,1c0.7,0.3,1.4,0.5,2.1,0.1c0.8-0.4,2-0.8,3-1.2c0.4-0.2,0.8-0.2,1.2,0c1.2,0.4,2.3,0.9,3.5,1.3
		c0.3,0.1,0.6,0.1,0.9,0l3.4-1.3c0.4-0.2,0.8-0.2,1.1-0.1c1.3,0.4,2.5,0.9,3.7,1.3c0.3,0.1,0.6,0.1,0.9,0c1.2-0.5,2.4-0.9,3.6-1.3
		c0.4-0.1,0.7-0.1,1.1,0c0.5,0.2,1.1,0.4,1.6,0.6c0.2,0.1,0.5,0.2,0.8,0.1h0c0,0.1,0.1,0.1,0.2,0.2c0.4,0.2,0.1,0.6,0.2,0.8
		c-0.8-0.3-1.7-0.6-2.5-0.9c-0.5-0.2-1-0.3-1.6,0c-1,0.4-2.1,0.7-3.1,1.2c-0.5,0.2-1,0.2-1.5,0c-0.9-0.4-1.9-0.7-2.8-1.1
		s-1.5-0.3-2.3,0.1c-0.8,0.3-1.9,0.7-2.9,1.1c-0.3,0.1-0.6,0.1-0.8,0l-3.5-1.3c-0.4-0.2-0.8-0.2-1.2,0c-1,0.4-2.1,0.8-3.2,1.2
		c-0.5,0.2-1.1,0.2-1.6,0c-1-0.4-2.1-0.8-3.2-1.2c-0.3-0.1-0.7-0.1-1,0L32,88.2c-0.3,0.1-0.7,0.1-1.1,0c-0.6-0.3-1.1-0.4-1.7-0.6
		c-0.2-0.1-0.5-0.1-0.6-0.3C28.6,87,28.7,86.8,28.9,86.8C28.9,86.8,28.9,86.8,28.9,86.8z"/>
	<path class="st16" d="M58.3,117c-1.1-0.3-2.1-0.7-3.1-1.1c-0.1,0-0.3-0.1-0.4-0.2c-0.5-0.3-1-0.2-1.6,0.1c-1.1,0.4-2.1,0.8-3.2,1.2
		c-0.3,0.1-0.6,0.1-0.8,0c-1.1-0.4-2.3-0.8-3.4-1.3c-0.4-0.2-0.9-0.2-1.3,0c-1.2,0.4-2.3,0.9-3.5,1.3c-0.3,0.1-0.6,0.1-0.9,0
		c-1-0.4-2.1-0.8-3.1-1.2c-0.6-0.3-1.3-0.2-1.8,0c-1,0.4-2,0.8-3,1.2c-0.3,0.1-0.7,0.2-1.1,0c-1.1-0.4-2.2-0.8-3.3-1.2
		c-0.4-0.2-0.9-0.2-1.4,0c-1.1,0.4-2.1,0.8-3.2,1.2c-0.4,0.2-0.9,0.2-1.3,0c-0.4-0.2-0.7-0.3-1.1-0.4c-0.2-0.2-0.2-0.6-0.3-0.8
		c0.4,0.1,0.9,0.3,1.3,0.5c0.4,0.2,1,0.2,1.4,0c1.1-0.4,2.1-0.8,3.2-1.2c0.4-0.2,0.9-0.1,1.3,0c1.1,0.4,2.2,0.8,3.4,1.3
		c0.3,0.1,0.6,0.1,0.9,0c1-0.4,2.1-0.8,3.1-1.2c0.6-0.3,1.3-0.3,1.9,0c1,0.4,2.1,0.8,3.1,1.2c0.4,0.1,0.6,0,0.9-0.1
		c1.1-0.4,2.2-0.8,3.4-1.3c0.4-0.2,0.9-0.2,1.3,0c1.1,0.4,2.2,0.8,3.2,1.2c0.4,0.2,0.9,0.2,1.3,0c1.1-0.4,2.2-0.9,3.4-1.2
		c0.3-0.1,0.6-0.1,0.9,0c1.1,0.4,2.2,0.8,3.3,1.1c0.2,0,0.4,0.1,0.5,0.2L58.3,117z"/>
	<path class="st1" d="M35.2,131.3c0.5-0.3,0.9-0.3,1.4-0.1c1.1,0.4,2.2,0.8,3.4,1.3c0.4,0.2,0.8,0.2,1.2,0c1.2-0.5,2.4-0.9,3.6-1.4
		c0.2-0.1,0.5-0.1,0.7,0c1.2,0.5,2.4,0.9,3.5,1.3c0.4,0.2,0.8,0.2,1.2,0c1-0.4,2-0.7,3-1.2c0.6-0.2,1.1-0.3,1.7,0s1.6,0.6,2.3,1
		c-0.9,0.3-1.8,0.9-2.8,0.4c-0.4-0.2-0.7,0-1.1,0.2c-0.8,0.3-1.6,0.7-2.4,0.9c-0.8,0.2-1.9,0.4-2.9,0c-1-0.5-1.7-0.6-2.6-1
		c-0.3-0.1-0.6-0.1-0.8,0c-0.6,0.2-1.2,0.4-1.8,0.7c-0.6,0.3-1,0.1-1.4,0c-2.1-0.4-4.1-1.1-6-1.9C35.3,131.4,35.3,131.4,35.2,131.3z
		"/>
	<path class="st16" d="M27.8,106.3c0.9,0.2,1.7,0.6,2.5,0.9c0.8,0.3,1.5,0.4,2.3,0c0.8-0.4,2-0.7,3-1.1c0.3-0.1,0.7-0.1,1,0
		c1.2,0.5,2.3,0.9,3.5,1.3c0.3,0.1,0.6,0.1,0.9,0c1.2-0.4,2.4-0.9,3.5-1.3c0.4-0.2,0.8-0.2,1.1,0.1c0.1,0.1,0.3,0.1,0.5,0.2
		c0.9,0.3,1.9,0.6,2.8,1c0.5,0.2,0.9,0.1,1.3,0l3.2-1.2c0.4-0.2,0.8-0.2,1.2,0c1.1,0.4,2.2,0.8,3.2,1.2c0.4,0.2,1,0.2,1.4,0
		c1.1-0.5,2.2-0.8,3.4-1.3c0.3-0.1,0.6-0.1,0.9,0c0.6,0.3,1.2,0.4,1.7,0.7c-0.2,0.1-0.3,0.3-0.3,0.5c-0.4,0-0.9-0.2-1.3-0.4
		c-0.4-0.2-0.8-0.2-1.2,0c-1.1,0.4-2.2,0.8-3.3,1.3c-0.5,0.2-0.9,0.1-1.4,0c-1.1-0.4-2.2-0.8-3.3-1.2c-0.3-0.1-0.7-0.1-1,0
		c-1.1,0.4-2.2,0.8-3.2,1.2c-0.5,0.2-1,0.3-1.5,0c-1-0.4-2-0.7-3-1.2c-0.5-0.2-1.1-0.3-1.6,0c-1.1,0.4-2.2,0.8-3.2,1.2
		c-0.4,0.2-0.8,0.1-1.2,0c-1.1-0.4-2.2-0.8-3.3-1.2c-0.3-0.1-0.7-0.1-1,0c-1.1,0.4-2.1,0.8-3.2,1.2c-0.5,0.2-1,0.3-1.5,0
		c-1-0.4-2.1-0.8-3.1-1.2L27.8,106.3z"/>
	<path class="st16" d="M64.3,109.2c-0.9-0.4-1.7-0.3-2.6,0.1c-0.9,0.4-1.8,0.7-2.6,1c-0.3,0.1-0.7,0.1-1,0c-1-0.4-2.1-0.8-3.1-1.2
		c-0.6-0.3-1.3-0.3-1.9,0c-1,0.4-2.1,0.8-3.1,1.2c-0.3,0.1-0.6,0.1-0.9,0c-1.2-0.4-2.4-0.9-3.5-1.3c-0.4-0.2-0.8-0.2-1.1,0
		c-1.2,0.5-2.4,0.9-3.6,1.4c-0.3,0.1-0.5,0-0.8-0.1c-1.1-0.4-2.2-0.8-3.4-1.3c-0.5-0.2-1-0.2-1.4,0c-1,0.4-2.1,0.8-3.2,1.2
		c-0.3,0.2-0.7,0.2-1.1,0c-1.1-0.4-2.2-0.8-3.2-1.2l0.1-0.6c1,0.4,2.1,0.7,3.1,1.1c0.3,0.1,0.6,0.1,0.9,0c1-0.4,2-0.7,3-1.1
		c0.7-0.3,1.3-0.3,2,0c1,0.4,2.1,0.8,3.1,1.2c0.3,0.1,0.6,0.1,0.9,0c1.2-0.4,2.3-0.8,3.5-1.3c0.4-0.2,0.9-0.1,1.3,0.1
		c1.1,0.5,2.4,0.8,3.6,1.3c0.3,0.1,0.6,0,0.8-0.1c1-0.4,2.1-0.7,3.1-1.2c0.6-0.3,1.2-0.3,1.8,0c0.9,0.4,1.9,0.6,2.7,1.1
		c0.5,0.3,1,0.3,1.5,0c1-0.4,2.1-0.7,3.1-1.2c0.8-0.3,1.4-0.2,2.1,0.2L64.3,109.2z"/>
	<path class="st17" d="M31,85.2c0.3,0.3,0.6,0.2,1,0.1c1.2-0.4,2.3-0.9,3.5-1.3c0.3-0.1,0.7-0.2,1,0c1.1,0.4,2.3,0.8,3.4,1.3
		c0.4,0.2,0.8,0.2,1.2,0c1.2-0.4,2.3-0.9,3.5-1.3c0.3-0.1,0.7-0.1,1,0c0.9,0.4,1.7,0.8,2.6,1.1s1.6,0.5,2.5,0.1c0.9-0.4,2-0.8,3-1.2
		c0.3-0.1,0.6-0.1,0.8,0c1.1,0.4,2.3,0.8,3.4,1.3c0.4,0.2,0.8,0.2,1.3,0c0.6-0.3,1.3-0.5,2-0.7c0.3-0.1,0.6-0.2,0.8-0.4
		c0.3,0.1,0.5,0.2,0.5,0.6c-0.9,0.4-1.8,0.7-2.7,1.1c-0.2,0.1-0.4,0.1-0.7,0.2c-0.2,0.1-0.8,0.1-1.2,0c-1-0.4-2.1-0.8-3.2-1.2
		c-0.6-0.2-1.1-0.2-1.6,0c-1,0.4-1.9,0.7-2.9,1.1c-0.5,0.2-1.1,0.2-1.6,0c-1.1-0.4-2.2-0.8-3.3-1.2c-0.3-0.1-0.6-0.1-0.9,0
		c-1.2,0.4-2.3,0.9-3.5,1.3c-0.4,0.1-0.8,0.1-1.2,0c-1.2-0.4-2.3-0.9-3.5-1.3c-0.2-0.1-0.5-0.1-0.7,0c-0.9,0.4-1.9,0.7-2.8,1
		c-0.1,0-0.3,0.1-0.4,0.2c-0.7,0.4-1.4,0.3-2.1-0.1C30.5,85.5,30.7,85.3,31,85.2z"/>
	<path class="st16" d="M52.9,120.3c-1,0.5-2.1,0.8-3.1,1.2c-0.2,0.1-0.5,0-0.7-0.1c-1.2-0.4-2.3-0.8-3.5-1.3c-0.4-0.2-0.8-0.2-1.2,0
		c-1.1,0.4-2.3,0.9-3.4,1.3c-0.4,0.2-0.8,0.1-1.2,0c-1.2-0.5-2.3-0.9-3.5-1.3c-0.3-0.1-0.6-0.1-0.9,0c-1,0.4-2.1,0.8-3.1,1.2
		c-0.5,0.2-1.1,0.3-1.6,0c-1-0.4-2.1-0.8-3.2-1.2c-0.4-0.2-0.7-0.2-1.2,0c-0.9,0.3-1.7,0.6-2.6,1c-0.2,0.1-0.4,0.2-0.6,0.2
		c-0.2,0-0.4-0.3-0.4-0.5c0.9-0.2,1.7-0.7,2.6-0.9c0.4-0.1,0.8-0.3,1.2-0.4c0.4-0.2,0.5,0,0.8,0.1c1.2,0.4,2.3,0.9,3.5,1.3
		c0.3,0.1,0.7,0.1,1.1,0c1-0.4,2.1-0.8,3.1-1.2c0.5-0.2,1-0.3,1.6,0c1.1,0.5,2.1,0.8,3.2,1.2c0.3,0.1,0.7,0.1,1.1,0
		c1.1-0.4,2.3-0.8,3.4-1.3c0.4-0.2,0.8-0.2,1.1,0c1.1,0.5,2.2,0.8,3.3,1.2c0.5,0.2,1,0.1,1.5-0.1c0.8-0.3,1.6-0.7,2.5-0.9
		L52.9,120.3z"/>
	<path class="st16" d="M58,112.5c-1.1-0.4-2.3-0.8-3.4-1.2c-0.3-0.1-0.7-0.1-1.1,0c-1,0.4-2,0.7-3,1.2c-0.6,0.2-1.1,0.3-1.7,0.1
		c-1-0.4-2.1-0.8-3.1-1.2c-0.4-0.2-0.8-0.2-1.2,0c-1.1,0.4-2.3,0.9-3.4,1.3c-0.5,0.2-0.9,0.1-1.3-0.1c-1.1-0.4-2.2-0.8-3.2-1.2
		c-0.3-0.1-0.7-0.1-1,0c-1.1,0.4-2.1,0.8-3.2,1.2c-0.7,0.3-1.3,0.3-1.9-0.1c0-0.2-0.1-0.4,0.2-0.6c0.7,0.3,1.4,0.1,2.1-0.2
		c0.9-0.4,1.9-0.7,2.9-1.1c0.3-0.1,0.5-0.1,0.8,0c1.1,0.4,2.3,0.8,3.4,1.3c0.4,0.2,0.9,0.2,1.4,0c1.1-0.4,2.3-0.9,3.4-1.3
		c0.2-0.1,0.5-0.2,0.7,0c0.6,0.3,1.2,0.5,1.8,0.7c0.7,0.3,1.5,0.5,2.2,0.7c0.3,0.1,0.5,0,0.8-0.1c1.1-0.4,2.2-0.8,3.3-1.2
		c0.4-0.2,0.8-0.2,1.1,0c1.1,0.5,2.3,0.8,3.5,1.4C58,112.1,58,112.3,58,112.5z"/>
	<path class="st17" d="M21.4,96.1l0.6,0.3c0.3,0.1,0.6,0.1,0.9,0c1.2-0.5,2.5-0.9,3.8-1.4c0.3-0.1,0.5,0,0.7,0.1
		c1.2,0.4,2.4,0.9,3.6,1.3c0.3,0.1,0.6,0.1,0.9,0c1.1-0.4,2.2-0.8,3.3-1.3c0.4-0.2,0.9-0.2,1.3,0c1.1,0.4,2.2,0.8,3.3,1.2
		c0.4,0.2,0.8,0.2,1.2,0c1-0.4,2-0.7,3-1.1c0.5-0.2,1.1-0.3,1.6-0.1c0.9,0.3,1.9,0.6,2.8,1.1c-0.1,0.2-0.2,0.4-0.1,0.6
		c-1-0.3-1.9-0.7-2.9-1.1c-0.3-0.1-0.7-0.1-1,0c-1.1,0.4-2.3,0.8-3.4,1.3c-0.4,0.2-0.9,0.2-1.4,0c-1.1-0.4-2.2-0.8-3.2-1.2
		c-0.3-0.1-0.7-0.1-1.1,0c-1.1,0.4-2.1,0.8-3.2,1.2c-0.5,0.2-1,0.2-1.4,0c-1.1-0.4-2.2-0.8-3.4-1.3c-0.3-0.1-0.6-0.1-0.9,0
		c-1.2,0.5-2.5,0.9-3.7,1.4c-0.3,0.1-0.5,0-0.8,0c-0.3-0.1-0.6-0.3-1-0.3L21.4,96.1z"/>
	<path class="st17" d="M19.9,100c0.7,0.2,1.4,0.5,2.1,0.7c0.3,0.1,0.6,0.1,0.9,0c1.2-0.4,2.3-0.9,3.5-1.3c0.3-0.1,0.7-0.2,1.1,0
		c1.2,0.4,2.3,0.9,3.5,1.3c0.3,0.1,0.7,0.1,1,0c1.2-0.4,2.3-0.9,3.5-1.3c0.3-0.1,0.7-0.1,1,0c1.1,0.4,2.2,0.9,3.3,1.3
		c0.4,0.2,0.8,0.2,1.2,0c1.1-0.4,2.2-0.8,3.3-1.2c0.7-0.3,1.3-0.2,1.8,0.2v0.6c-0.9-0.4-1.7-0.2-2.5,0.2c-0.8,0.3-1.8,0.7-2.8,1
		c-0.4,0.1-0.7,0-1-0.1c-1-0.4-1.9-0.7-2.9-1.1c-0.6-0.3-1.4-0.3-2,0c-0.9,0.4-1.8,0.7-2.8,1.1c-0.5,0.2-1,0.2-1.5,0
		c-1-0.4-2.1-0.8-3.2-1.2c-0.4-0.2-0.8-0.2-1.2,0c-1.1,0.4-2.3,0.8-3.4,1.3c-0.3,0.1-0.6,0.1-0.9,0c-0.8-0.3-1.5-0.6-2.3-0.9
		C19.7,100.4,19.8,100.2,19.9,100z"/>
	<path class="st17" d="M20.6,98.1c0.4,0.2,0.9,0.3,1.3,0.5c0.3,0.1,0.7,0.2,1,0c1.2-0.4,2.3-0.9,3.5-1.3c0.3-0.2,0.7-0.2,1.1,0
		c1,0.4,2,0.7,3,1.2c0.6,0.3,1.2,0.3,1.8,0c1.1-0.4,2.1-0.8,3.2-1.2c0.3-0.1,0.6-0.1,0.9,0c0.8,0.3,1.5,0.5,2.3,0.9
		c0.5,0.3,1.1,0.3,1.6,0.5c0.2,0.1,0.5,0,0.7-0.1c1.1-0.4,2.3-0.8,3.4-1.2c0.4-0.2,0.8-0.2,1.3,0c0.4,0.2,0.5,0.1,0.8,0.3
		c-0.1,0.2-0.2,0.4-0.1,0.6h-0.1c-0.9-0.6-1.7-0.3-2.6,0.1c-0.9,0.4-1.7,0.7-2.6,1c-0.4,0.1-0.7,0.1-1.1,0l-3.5-1.3
		c-0.3-0.1-0.6-0.1-0.9,0c-1.1,0.4-2.2,0.8-3.4,1.3c-0.5,0.2-1,0.2-1.4,0c-1-0.4-2.1-0.8-3.2-1.2c-0.4-0.2-0.9-0.2-1.3,0
		c-1.1,0.4-2.2,0.8-3.3,1.2c-0.4,0.2-0.8,0.2-1.2,0c-0.4-0.2-1-0.3-1.5-0.6C20.5,98.4,20.4,98.2,20.6,98.1z"/>
	<path class="st17" d="M24.3,91.3c0.8-0.1,1.4-0.4,2.1-0.7c0.3-0.1,0.7-0.1,1,0c1,0.4,2.1,0.8,3.2,1.2c0.5,0.2,1.2,0.2,1.7,0
		c1-0.4,2.1-0.8,3.2-1.2c0.3-0.1,0.7-0.2,1.1,0c1.1,0.4,2.2,0.8,3.4,1.3c0.4,0.2,0.8,0.2,1.2,0c1.2-0.5,2.5-0.9,3.7-1.4
		c0.2-0.1,0.4-0.1,0.5,0c1.1,0.6,2.3,0.9,3.4,1.3c0.3,0.1,0.5,0.2,0.8,0.3v0.6c-0.9-0.2-1.8-0.6-2.7-0.9c-0.2-0.1-0.5-0.1-0.7-0.2
		c-0.9-0.6-1.7-0.3-2.5,0.1c-0.8,0.3-1.7,0.6-2.6,1c-0.4,0.1-0.8,0.1-1.2,0c-1.1-0.4-2.2-0.8-3.4-1.3c-0.3-0.1-0.7-0.1-1.1,0
		c-1,0.4-2,0.7-3,1.1c-0.7,0.3-1.4,0.3-2.1,0c-1-0.4-2-0.7-3-1.1c-0.3-0.1-0.7-0.1-1,0c-0.9,0.3-1.7,0.7-2.6,0.9
		C23.8,91.9,24.1,91.6,24.3,91.3z"/>
	<path class="st17" d="M22.4,94.3c0.6-0.1,1.1-0.4,1.7-0.5c0.8-0.3,1.7-0.6,2.5-0.9c0.3-0.1,0.6-0.1,0.9,0c1.2,0.4,2.3,0.8,3.5,1.3
		c0.3,0.1,0.6,0.1,0.9,0l3.4-1.3c0.4-0.2,0.9-0.2,1.3,0c1.1,0.4,2.1,0.8,3.2,1.2c0.4,0.2,0.9,0.2,1.3,0c1.1-0.5,2.3-0.8,3.4-1.3
		c0.3-0.1,0.6-0.1,0.9,0c0.6,0.3,1.2,0.4,1.7,0.7C47.1,93.6,47,93.8,47,94c-0.5,0-0.9-0.3-1.4-0.5c-0.3-0.1-0.7-0.1-1,0
		c-1.1,0.4-2.3,0.8-3.4,1.3c-0.5,0.2-0.9,0.1-1.3,0c-1.1-0.4-2.2-0.8-3.4-1.3c-0.3-0.1-0.6-0.1-0.9,0c-1,0.4-2.1,0.8-3.1,1.2
		c-0.6,0.3-1.2,0.3-1.9,0c-1-0.4-2-0.8-3-1.2c-0.4-0.2-0.8-0.2-1.2,0c-1.2,0.5-2.3,0.9-3.5,1.3c-0.2,0.1-0.5,0.2-0.7-0.1
		C22.2,94.6,22.2,94.4,22.4,94.3z"/>
	<path class="st16" d="M48.8,123.5c-1-0.3-2-0.7-3-1.1c-0.5-0.2-1-0.2-1.4,0c-1.1,0.4-2.3,0.8-3.4,1.3c-0.3,0.1-0.6,0.1-0.9,0
		c-1.1-0.4-2.2-0.8-3.3-1.2c-0.5-0.2-1-0.2-1.6,0c-1,0.4-2.1,0.8-3.1,1.2c-0.3,0.1-0.7,0.2-1.1,0c-1.1-0.4-2.2-0.8-3.4-1.3
		c-0.4-0.2-0.8-0.2-1.2,0c-0.6,0.3-1.3,0.5-1.9,0.7c-0.2-0.1-0.4-0.3-0.4-0.5l2.5-1c0.4-0.1,0.7,0,1,0.1c1.1,0.4,2.2,0.8,3.3,1.2
		c0.4,0.2,0.8,0.2,1.2,0c1-0.4,2-0.7,3-1.1c0.6-0.3,1.2-0.3,1.8,0c1,0.4,2.1,0.8,3.1,1.2c0.4,0.2,0.8,0.2,1.1,0l3.4-1.3
		c0.3-0.1,0.6-0.2,0.9-0.1c1.2,0.5,2.4,0.8,3.5,1.4L48.8,123.5z"/>
	<path class="st16" d="M41.4,102.9c1.1-0.4,2.1-0.8,3.2-1.2c0.4-0.2,0.8-0.2,1.2,0c1.1,0.4,2.2,0.8,3.4,1.3c0.4,0.2,0.8,0.2,1.1,0
		c1-0.4,2-0.7,3-1.1c0.7-0.3,1.3-0.2,2,0.1l3.2,1.1c0.2,0.1,0.4,0.1,0.6,0l3.8-1.4c0.2-0.1,0.4-0.1,0.7,0c0.8,0.4,1.7,0.6,2.5,1
		c-0.1,0.2-0.2,0.4-0.1,0.6c-0.7-0.1-1.3-0.4-1.9-0.7c-0.4-0.2-0.9-0.2-1.4,0c-1.1,0.4-2.2,0.8-3.2,1.2c-0.4,0.2-0.9,0.2-1.3,0
		c-1-0.4-2.1-0.8-3.2-1.2c-0.6-0.3-1.2-0.1-1.7,0.1l-2.9,1.1c-0.4,0.2-0.8,0.2-1.1,0c-1.2-0.5-2.4-0.9-3.6-1.3
		c-0.3-0.1-0.6-0.1-0.9,0c-1.1,0.4-2.3,0.8-3.4,1.2C41.2,103.3,41.3,103.1,41.4,102.9z"/>
	<path class="st17" d="M37.3,82.1c0.9,0.2,1.7,0.6,2.5,0.9c0.4,0.2,0.8,0.2,1.3,0c1.2-0.5,2.4-0.9,3.6-1.3c0.2-0.1,0.5-0.1,0.7,0
		c1.1,0.4,2.1,0.8,3.2,1.2c0.1,0,0.3,0,0.3,0.1c0.3,0.3,0.6,0.2,1,0.1c1.1-0.4,2.2-0.8,3.3-1.2c0.5-0.2,1-0.3,1.6-0.1
		c1,0.5,2.1,0.8,3.2,1.2c0.5,0.2,1,0.2,1.4-0.2c0.3,0.1,0.6,0.3,0.8,0.5c-0.4,0.3-1,0.4-1.5,0.6c-0.3,0.1-0.5-0.1-0.7-0.1
		c-1.2-0.4-2.4-0.9-3.6-1.3c-0.2-0.1-0.5-0.1-0.7,0c-1.1,0.4-2.2,0.8-3.4,1.2c-0.6,0.2-1.1,0.3-1.7,0c-1.1-0.4-2.1-0.8-3.2-1.2
		c-0.3-0.1-0.6-0.1-0.9,0c-1.3,0.5-2.5,0.9-3.8,1.4c-0.2,0.1-0.3,0.1-0.5,0c-1.3-0.5-2.6-0.9-3.8-1.5C36.8,82.2,37.1,82.1,37.3,82.1
		z"/>
	<path class="st17" d="M41.4,102.9c0,0.2-0.2,0.4-0.1,0.7c-0.4,0.3-0.8,0.3-1.2,0.1c-1-0.4-2-0.7-3-1.2c-0.6-0.3-1.3-0.3-2,0
		c-1,0.4-2.1,0.8-3.1,1.2c-0.3,0.1-0.6,0.1-0.9,0c-1.2-0.4-2.4-0.9-3.6-1.3c-0.3-0.1-0.7-0.1-1.1,0c-1.1,0.5-2.3,0.9-3.4,1.3
		c-0.3,0.1-0.7,0.1-1.1,0c-0.9-0.3-1.8-0.7-2.6-1c0-0.2-0.1-0.5,0.1-0.7c0.9,0.3,1.7,0.6,2.6,1c0.3,0.1,0.6,0.1,0.9,0
		c1.2-0.5,2.4-0.9,3.6-1.3c0.3-0.1,0.6-0.1,0.9,0c1.2,0.4,2.4,0.8,3.6,1.3c0.4,0.2,0.8,0.1,1.1,0c1.1-0.4,2.3-0.9,3.4-1.3
		c0.3-0.1,0.6-0.1,0.9,0c1,0.4,2.1,0.7,3.1,1.2C40.2,103.1,40.7,103.2,41.4,102.9z"/>
	<path class="st16" d="M47,89c0.7,0.2,1.4,0.4,2.1,0.7c0.4,0.1,0.8,0.1,1.1,0c0.9-0.4,1.8-0.7,2.7-1c0.7-0.3,1.5-0.3,2.2,0
		c1,0.5,2.2,0.7,3.2,1.1c0.3,0.1,0.5,0,0.7,0c1.3-0.5,2.5-0.9,3.8-1.4c0.3-0.1,0.5,0,0.7,0l4.2,1.5l0.1,0.5c-0.2,0.2-0.3,0.1-0.5,0
		c-1.3-0.5-2.5-0.9-3.8-1.4c-0.3-0.1-0.6-0.1-0.9,0c-1.2,0.5-2.5,0.9-3.7,1.4c-0.3,0.1-0.6,0-0.9,0c-1-0.4-2.1-0.7-3.1-1.2
		c-0.6-0.3-1.3-0.3-2,0c-0.9,0.4-1.9,0.7-2.8,1.1c-0.4,0.2-0.8,0.2-1.3,0c-0.7-0.3-1.5-0.5-2.1-0.9L47,89z"/>
	<path class="st16" d="M46.3,98.2c0-0.2,0.1-0.4,0.1-0.6c0.8,0.2,1.6,0.5,2.4,0.9c0.5,0.2,1.1,0.2,1.6,0c1.1-0.4,2.2-0.8,3.4-1.3
		c0.2-0.1,0.5-0.1,0.7,0c1.2,0.5,2.4,0.9,3.6,1.3c0.3,0.1,0.7,0.1,1,0c1.2-0.4,2.4-0.9,3.6-1.3c0.2-0.1,0.5-0.2,0.7-0.1
		c1.1,0.5,2.4,0.8,3.5,1.3L66.8,99c-1-0.3-2-0.7-3-1.1c-0.3-0.1-0.7-0.1-1.1,0c-1.2,0.4-2.3,0.9-3.5,1.3c-0.4,0.2-0.8,0.1-1.2,0
		c-1.1-0.4-2.2-0.8-3.2-1.2c-0.5-0.2-1-0.2-1.4,0c-1,0.4-2.1,0.8-3.1,1.2c-0.4,0.2-0.9,0.2-1.4,0C48,98.9,47.2,98.5,46.3,98.2z"/>
	<path class="st17" d="M47,89l-0.2,0.5c-0.5,0-0.9-0.3-1.3-0.4c-0.3-0.1-0.6-0.1-0.9,0c-1.2,0.5-2.5,0.9-3.8,1.4
		c-0.4,0.1-0.6,0-0.9-0.1c-1.1-0.4-2.3-0.8-3.4-1.3c-0.3-0.1-0.7-0.1-1,0c-1.1,0.4-2.1,0.8-3.2,1.2c-0.5,0.2-0.9,0.2-1.5,0
		c-1.1-0.4-2.1-0.8-3.2-1.2c-0.4-0.1-0.7-0.2-1.1-0.1c0.1-0.4,0.4-0.5,0.6-0.8c1.2,0.6,2.4,0.9,3.6,1.4c0.6,0.3,1.1,0.2,1.6,0
		l3.2-1.2c0.3-0.1,0.7-0.1,1,0c1.2,0.5,2.4,0.9,3.6,1.3c0.3,0.1,0.6,0.1,0.9,0c1.2-0.5,2.5-0.9,3.8-1.4c0.2-0.1,0.3-0.1,0.5,0
		C45.8,88.5,46.5,88.7,47,89z"/>
	<path class="st16" d="M47,94c0-0.2,0.1-0.4,0.3-0.4c0.6,0.1,1.2,0.4,1.7,0.6c0.3,0.1,0.7,0.2,1.1,0c1-0.4,2-0.7,2.9-1.1
		s1.7-0.3,2.5,0.1c0.8,0.4,2,0.6,3,1.1c0.2,0.1,0.5,0,0.7-0.1l3.5-1.3c0.3-0.1,0.5-0.1,0.8,0l4.1,1.5v0.6c-1.2-0.4-2.4-0.8-3.6-1.3
		c-0.5-0.2-1-0.3-1.6,0c-1,0.4-2.1,0.8-3.2,1.2c-0.5,0.2-0.9,0.1-1.3,0c-1.1-0.4-2.2-0.8-3.2-1.2c-0.4-0.2-0.8-0.2-1.2,0l-3.3,1.2
		c-0.4,0.2-0.8,0.2-1.3,0C48.5,94.5,47.6,94.3,47,94z"/>
	<path class="st16" d="M46.1,100.3v-0.6c0.7,0.1,1.4,0.5,2.1,0.7c0.2,0.1,0.4,0.1,0.6,0.2c0.6,0.3,1.1,0.2,1.7,0
		c1-0.4,2.1-0.8,3.2-1.2c0.3-0.1,0.6-0.1,0.9,0c1.2,0.4,2.3,0.8,3.5,1.3c0.4,0.2,0.8,0.1,1.1,0c1.2-0.4,2.3-0.9,3.5-1.3
		c0.3-0.1,0.5-0.2,0.8-0.1c0.9,0.4,2,0.7,2.9,1.1l0,0.6c-0.8-0.2-1.6-0.5-2.4-0.8c-0.5-0.2-1-0.2-1.5,0c-1,0.4-2.1,0.8-3.2,1.2
		c-0.4,0.2-0.9,0.2-1.4,0c-1.1-0.4-2.2-0.9-3.4-1.3c-0.3-0.1-0.6-0.1-0.9,0l-2.8,1l-0.5,0.2c-0.4,0.2-0.9,0.2-1.3,0
		C48,101,47,100.8,46.1,100.3z"/>
	<path class="st16" d="M48.4,96.8c0-0.2,0.1-0.4,0.1-0.6c0.8,0.4,1.5,0.2,2.3-0.1s1.9-0.7,2.8-1c0.3-0.1,0.7-0.1,1,0
		c1.1,0.4,2.2,0.8,3.4,1.3c0.4,0.2,0.8,0.2,1.2,0c1.2-0.5,2.4-0.9,3.6-1.4c0.2-0.1,0.5-0.1,0.7,0l3.9,1.5c0.1,0,0.3,0.1,0.4,0.1v0.6
		c-0.2,0.2-0.3,0.1-0.5,0c-1.3-0.5-2.5-0.9-3.8-1.4c-0.3-0.1-0.6-0.1-0.9,0c-1.1,0.4-2.3,0.8-3.4,1.3c-0.5,0.2-1,0.2-1.4,0
		c-1-0.4-2-0.8-3-1.2c-0.5-0.2-1.1-0.2-1.6,0c-0.9,0.4-1.9,0.7-2.8,1.1c-0.5,0.2-1.1,0.3-1.6,0C48.7,96.9,48.5,96.8,48.4,96.8z"/>
	<path class="st16" d="M49.5,92.7v-0.6l4-1.5c0.4-0.1,0.7-0.2,1.1,0c0.9,0.4,1.8,0.7,2.8,1c0.2,0,0.3,0.1,0.4,0.2
		c0.4,0.3,0.8,0.3,1.2,0.1c1.2-0.5,2.5-0.9,3.8-1.4c0.3-0.1,0.5,0,0.8,0.1c1.1,0.4,2.1,0.8,3.2,1.2c0.5,0.2,1.1,0.3,1.6,0.1l0.1,0.5
		c-0.5,0.4-1,0.4-1.6,0.1c-1.1-0.4-2.2-0.8-3.4-1.3c-0.3-0.1-0.6-0.2-0.9,0c-1.2,0.5-2.5,0.9-3.8,1.4c-0.3,0.1-0.6,0.1-0.9,0
		c-1-0.4-2.1-0.8-3.1-1.2c-0.6-0.3-1.2-0.2-1.9,0C52,91.9,50.8,92.4,49.5,92.7z"/>
	<path class="st16" d="M38.8,118.7c-0.8-0.2-1.5-0.5-2.3-0.8c-0.3-0.1-0.7-0.1-1,0c-1,0.4-2.1,0.8-3.1,1.2c-0.6,0.2-1.1,0.3-1.7,0.1
		c-1-0.4-2.1-0.8-3.1-1.2c-0.4-0.2-0.8-0.2-1.2,0c-1.2,0.5-2.4,0.9-3.6,1.4c-0.3,0.1-0.5,0-0.8,0c-0.2-0.2-0.3-0.5-0.3-0.8
		c0.7,0.4,1.4,0,2.1-0.2c0.9-0.3,1.7-0.6,2.6-1c0.4-0.2,0.9-0.2,1.3,0c1,0.4,2.1,0.8,3.1,1.2c0.6,0.2,1.1,0.2,1.7,0
		c1-0.4,2.1-0.8,3.1-1.2c0.3-0.1,0.7-0.1,1,0c0.8,0.4,1.6,0.5,2.4,1L38.8,118.7z"/>
	<path class="st16" d="M38.7,125.3c-0.7-0.3-1.5-0.5-2.2-0.8c-0.3-0.1-0.6-0.1-0.9,0c-1,0.4-2.1,0.8-3.1,1.2
		c-0.6,0.2-1.1,0.3-1.7,0.1c-0.9-0.4-1.9-0.7-2.8-1.1c-0.7-0.3-1.3-0.4-2,0.1c-0.2-0.1-0.4-0.3-0.4-0.6l0.1-0.1
		c1.4-0.5,1.4-0.5,3.1,0.1c0.6,0.2,1.3,0.5,1.9,0.7c0.6,0.3,1.2,0.2,1.8,0c1-0.4,1.9-0.7,2.9-1.1c0.4-0.2,0.9-0.2,1.3,0
		c0.7,0.3,1.5,0.5,2.1,0.9C38.6,124.9,38.7,125.1,38.7,125.3z"/>
	<path class="st17" d="M30.6,111.8c-0.2,0.1-0.1,0.4-0.2,0.6c-1-0.4-1.9-0.7-2.9-1.1c-0.4-0.2-0.8-0.2-1.1,0
		c-1.2,0.4-2.3,0.9-3.5,1.3c-0.3,0.1-0.7,0.1-1,0l-1.6-0.6c-0.3-0.1-0.6-0.3-1-0.3c-0.1-0.2-0.2-0.5-0.1-0.8
		c0.8,0.2,1.6,0.5,2.4,0.8c0.6,0.2,1.1,0.3,1.7,0c1.1-0.5,2.2-0.8,3.3-1.2c0.2-0.1,0.4-0.2,0.6-0.1
		C28.3,110.9,29.5,111.2,30.6,111.8z"/>
	<path class="st17" d="M29.9,104.8c-0.1,0.2-0.1,0.4-0.1,0.5c-0.6-0.2-1.3-0.4-1.9-0.7c-0.6-0.3-1-0.3-1.6,0c-1,0.4-2,0.7-3,1.1
		c-0.5,0.2-1,0.2-1.5,0c-0.9-0.4-1.8-0.7-2.7-1l0-0.7l3,1.1c0.4,0.1,0.7,0.1,1.1-0.1c1.1-0.4,2.3-0.9,3.4-1.3
		c0.2-0.1,0.5-0.2,0.7-0.1C28.2,104.2,29.1,104.4,29.9,104.8z"/>
	<path class="st16" d="M36.8,126.8c-0.7-0.3-1.3-0.1-1.9,0.2c-0.9,0.4-1.8,0.7-2.7,1c-0.4,0.2-0.9,0.2-1.4,0
		c-0.7-0.3-1.4-0.5-2.2-0.8c-0.7-0.3-0.9-0.5-1-1.1c0.9,0.2,1.7,0.6,2.5,0.9c0.2,0,0.3,0.1,0.5,0.2c0.6,0.4,1.2,0.2,1.9,0
		c1-0.4,2-0.7,3-1.1c0.6-0.3,1.1,0,1.7,0.3C36.9,126.4,36.8,126.6,36.8,126.8z"/>
	<path class="st17" d="M27.8,106.3l-0.1,0.5c-0.5-0.2-0.9-0.1-1.4,0.1c-1,0.4-2,0.7-3,1.2c-0.5,0.2-1,0.2-1.5,0
		c-0.9-0.4-1.9-0.7-2.8-1c0-0.3,0-0.5,0-0.8l3.1,1.2c0.3,0.1,0.6,0.1,0.9,0c1.2-0.4,2.3-0.9,3.5-1.3
		C26.9,105.9,27.4,105.9,27.8,106.3z"/>
	<path class="st17" d="M27.9,108.5l-0.1,0.6c-0.6-0.2-1.1-0.2-1.7,0.1c-1,0.4-2,0.8-3,1.2c-0.4,0.1-0.7,0.2-1.1,0
		c-1-0.4-2-0.7-3-1.1v-0.7c0.9,0.3,1.9,0.6,2.8,1c0.4,0.2,1,0.2,1.4,0c1.2-0.5,2.3-0.9,3.5-1.3C27.2,108.1,27.5,108.4,27.9,108.5z"
		/>
	<path class="st17" d="M51.9,80.8c-0.7,0.4-1.5,0.6-2.2,0.9c-0.1,0.1-0.3,0-0.4,0c-1-0.4-2.1-0.7-3-1.2c0.5-0.3,1-0.1,1.6-0.1
		c0.3,0.3,0.8,0.4,1.2,0.5c0.7,0.3,1.2,0.1,1.7-0.4C51.1,80.6,51.6,80.4,51.9,80.8z"/>
	<path class="st1" d="M43.8,133.8c1.1-0.9,2-0.4,3.1,0.1C45.7,134,44.8,133.8,43.8,133.8z"/>
	<path class="st11" d="M50.8,80.5c-0.5,0.4-1.1,0.7-1.7,0.4c-0.4-0.2-0.9-0.2-1.2-0.5C48.8,80.2,49.8,80.4,50.8,80.5z"/>
	<path class="st16" d="M59.7,116.7l-0.3,0.1c0-0.2,0.1-0.4-0.2-0.6c0.1-0.1,0.3-0.1,0.4-0.2L59.7,116.7z"/>
	<path class="st11" d="M66.2,87.1c-0.1,0-0.2,0-0.2-0.2L66.2,87.1z"/>
	<path class="st9" d="M105.9,98.9c0,0.2,0,0.3,0,0.5c0,6,0,12,0,18.1c0,0.1,0,0.2,0,0.4H88.8c0-0.2,0-0.4,0-0.6c0-5.9,0-11.8,0-17.7
		c0-0.2,0-0.4,0-0.6L105.9,98.9z M96.6,117.3h1.6c0.8,0,0.8,0,0.8-0.9c0-0.5,0-0.5-0.6-0.6H95c-0.7,0-0.7,0-0.7,0.7
		c0,0.1,0,0.2,0,0.3c0,0.3,0.1,0.5,0.4,0.4C95.4,117.3,96,117.3,96.6,117.3z M96.6,106.4h1.8c0.5,0,0.6,0,0.6-0.5c0-0.1,0-0.2,0-0.3
		c0-0.3-0.1-0.5-0.5-0.5c-1.3-0.1-2.6-0.1-3.8,0c-0.3,0-0.5,0.2-0.4,0.5c0,0.1,0,0.3,0,0.4c0,0.3,0.1,0.5,0.5,0.4
		C95.4,106.4,96,106.4,96.6,106.4z M95.8,99.6H95c-0.7,0-0.7,0-0.7,0.7c0,0.1,0,0.2,0,0.3c0,0.5,0.1,0.5,0.5,0.5c0.5,0,1,0,1.5,0
		c0.9,0,0.9,0,0.9-0.9c0,0,0-0.1,0-0.1c0-0.3-0.1-0.4-0.4-0.4L95.8,99.6z M95.7,109.2h0.6c1,0,0.9,0.2,0.9-1c0-0.3-0.1-0.5-0.5-0.5
		h-1.5c-0.9,0-0.9,0-0.9,0.9c0,0.1,0,0.1,0,0.2c0,0.1,0.1,0.3,0.4,0.3L95.7,109.2z M95.8,102.3h-0.6c-0.9,0-0.9,0-0.9,0.9
		c0,0.5,0,0.5,0.5,0.5h1.5c1,0,1,0,0.9-1c0-0.3-0.1-0.4-0.4-0.4H95.8z M95.7,114.6h0.6c0.9,0,0.9,0,0.9-0.9c0,0,0,0,0-0.1
		c0-0.3-0.1-0.4-0.4-0.4h-1.6c-0.9,0-0.9,0-0.9,0.9c0,0,0,0.1,0,0.1c0,0.2,0.1,0.3,0.4,0.3H95.7z M95.7,110.5h-0.6
		c-0.9,0-0.9,0-0.8,0.9c0,0.1,0,0.1,0,0.2c0,0.3,0.1,0.4,0.4,0.4h1.8c0.7,0,0.7,0,0.7-0.7c0-0.1,0-0.2,0-0.3c0-0.3-0.1-0.4-0.4-0.4
		H95.7z"/>
	<path class="st4" d="M88.8,117.8h17.2c0.1,0.5,0,0.9,0,1.4c0,2.4,0,4.8,0,7.2h-6.2c-0.2,0-0.5-0.1-0.7,0.2c-1.6,0-3.2,0-4.8,0
		c-0.2-0.3-0.5-0.2-0.7-0.2h-4.8C88.7,123.6,88.7,120.7,88.8,117.8z M95.7,125.3h0.6c0.9,0,1-0.1,0.9-1c0-0.3-0.1-0.4-0.4-0.4h-1.7
		c-0.9,0-0.9,0-0.9,0.9c0,0,0,0.1,0,0.1c0,0.2,0.1,0.3,0.4,0.3L95.7,125.3z M95.8,121.2h-0.6c-0.9,0-0.9,0-0.9,0.9
		c0,0.4,0.2,0.5,0.5,0.5s1,0,1.5,0c0.9,0,0.9,0,0.9-0.9c0,0,0,0,0-0.1c0-0.3-0.1-0.4-0.4-0.4L95.8,121.2z M95.8,118.5h-0.6
		c-0.9,0-0.9,0-0.9,0.9c0,0.4,0.2,0.5,0.5,0.5c0.5,0,1.1,0,1.6,0c0.8,0,0.8,0,0.8-0.9c0-0.1,0-0.1,0-0.2s-0.1-0.3-0.4-0.3
		L95.8,118.5z"/>
	<path class="st4" d="M105.9,84.1c0,2.4,0.1,4.7,0,7.1h-0.8c-2.9,0.1-5.7-0.1-8.6,0.1c-0.9,0.1-1.9,0-2.9-0.1c-1.6-0.1-3.3,0-4.9,0
		c-0.1-1.1,0-2.2,0-3.4c0-1.1,0-2.5,0-3.7h5.5c0,0.1,0,0.1,0,0.2c0,0.6,0,0.6,0.7,0.6h3.2c1,0,0.9,0,0.9-0.9L105.9,84.1z M95.8,87.6
		h0.7c0.7,0,0.7,0,0.7-0.7c0,0,0-0.1,0-0.1c0-0.5,0-0.6-0.5-0.6h-1.8c-0.6,0-0.6,0-0.6,0.6c0,0.1,0,0.1,0,0.2c0,0.6,0,0.6,0.5,0.6
		L95.8,87.6z M95.8,88.9h-0.6c-0.9,0-0.9,0-0.9,0.9c0,0.4,0.2,0.5,0.5,0.5c0.3,0,1,0,1.5,0c0.9,0,0.9,0,0.9-0.9
		c0-0.3-0.1-0.5-0.4-0.5C96.4,88.9,96.1,88.9,95.8,88.9L95.8,88.9z"/>
	<path class="st9" d="M88.8,91.2c1.6,0,3.3-0.1,4.9,0c1,0,1.9,0.2,2.9,0.1c2.9-0.3,5.7,0,8.6-0.1h0.8c0,1.7,0.1,3.4,0,5.1H88.8
		C88.7,94.5,88.8,92.9,88.8,91.2z M96.7,94.3h-1.8c-0.6,0-0.6,0-0.6,0.6c0,0.1,0,0.2,0,0.3c0,0.5,0,0.5,0.5,0.5h3.4
		c0.9,0,0.9,0,0.9-0.9c0,0,0,0,0-0.1c0-0.3-0.1-0.4-0.4-0.4L96.7,94.3z M95.7,91.6H95c-0.8,0-0.8,0-0.8,0.8c0,0.1,0,0.1,0,0.2
		c0,0.3,0.1,0.5,0.4,0.4c0.6,0,1.1,0,1.7,0c0.9,0,0.9,0,0.8-0.9c0,0,0-0.1,0-0.1c0-0.3-0.2-0.4-0.4-0.4L95.7,91.6z"/>
	<path class="st4" d="M105.9,84.1h-6.9c-0.1-0.5-0.1-0.6-0.5-0.6h-3.7c-0.5,0-0.5,0-0.5,0.6h-5.5c0-1,0-2.1,0-3.1
		c0-0.8,0.5-1.3,1.3-1.4c0.2,0,0.4,0,0.6,0h13.5c0.2,0,0.4,0,0.6,0c0.8,0.1,1.3,0.6,1.3,1.4C106,82.1,105.9,83.1,105.9,84.1z
		 M95.7,82.3h0.6c0.9,0,0.9,0,0.9-0.9c0-0.3-0.1-0.5-0.4-0.5h-2.1c-0.1,0-0.3,0-0.4,0.1c-0.1,0.4-0.1,0.7,0,1.1
		c0.1,0.3,0.4,0.1,0.7,0.2S95.5,82.3,95.7,82.3L95.7,82.3z"/>
	<path class="st4" d="M99.1,126.6c0.2-0.3,0.5-0.2,0.7-0.2h6.2c0.1,1.1,0,2.2,0,3.2h-8.7c0-0.3-0.1-0.4-0.4-0.4h-2.2
		c-0.3,0-0.4,0.2-0.4,0.4h-5.5c0-1.1,0-2.2,0-3.2h4.8c0.2,0,0.5-0.1,0.7,0.2c0,0.3,0,0.6,0,0.9c0,0.3,0.1,0.5,0.5,0.5h3.8
		c0.4,0,0.5-0.1,0.5-0.5C99,127.1,99.1,126.9,99.1,126.6z"/>
	<path class="st18" d="M88.8,96.2h17.1c0.1,0.9,0.1,1.8,0,2.7H88.8C88.7,98,88.7,97.1,88.8,96.2z"/>
	<path class="st4" d="M88.8,129.7h5.5c0,0.1,0,0.3,0,0.4c0,0.6,0,0.6,0.6,0.6h1.3c1.2,0,1,0.1,1-1h8.7c0.1,0.9,0.1,1.9,0,2.8h-8.7
		c-0.1-0.5-0.1-0.6-0.5-0.6h-1.9c-0.5,0-0.5,0-0.5,0.6h-5.5C88.7,131.6,88.7,130.6,88.8,129.7z"/>
	<path class="st4" d="M88.8,132.5h5.5c0,0.1,0,0.2,0,0.3c0,0.6,0,0.6,0.6,0.6h1.5c0.9,0,0.8,0,0.8-0.9h8.7c0,0.2,0,0.4,0,0.6
		c0,0.9-0.6,1.4-1.5,1.5H90.6c-0.2,0-0.4,0-0.6,0c-0.8-0.1-1.2-0.6-1.2-1.4C88.7,133,88.8,132.8,88.8,132.5z"/>
	<path class="st13" d="M59.3,116.3c0.2,0.1,0.1,0.4,0.2,0.6c-0.4,0.2-0.7,0.4-1.1,0.2v-0.6C58.6,116.5,58.9,116.4,59.3,116.3z"/>
	<path class="st7" d="M96.6,117.3c-0.6,0-1.3,0-1.9,0c-0.3,0-0.5-0.1-0.4-0.4c0-0.1,0-0.2,0-0.3c0-0.7,0-0.7,0.7-0.7h3.5
		c0.5,0,0.5,0,0.6,0.6c0,0.9,0,0.9-0.8,0.9L96.6,117.3z"/>
	<path class="st7" d="M96.6,106.4c-0.6,0-1.3,0-1.9,0c-0.3,0-0.5-0.1-0.5-0.4c0-0.1,0-0.3,0-0.4c0-0.3,0.1-0.4,0.4-0.5
		c1.3-0.1,2.6-0.1,3.8,0c0.4,0,0.5,0.2,0.5,0.5c0,0.1,0,0.2,0,0.3c0,0.5,0,0.5-0.6,0.5L96.6,106.4z"/>
	<path class="st7" d="M95.8,99.6h1.1c0.3,0,0.4,0.1,0.4,0.4c0,0,0,0.1,0,0.1c0,0.9,0,0.9-0.9,0.9c-0.5,0-1,0-1.5,0
		c-0.5,0-0.5-0.1-0.5-0.5c0-0.1,0-0.2,0-0.3c0-0.7,0-0.7,0.7-0.7L95.8,99.6L95.8,99.6z"/>
	<path class="st7" d="M95.7,109.2h-1.1c-0.2,0-0.4-0.1-0.4-0.3c0-0.2,0-0.1,0-0.2c0-0.9,0-0.9,0.9-0.9h1.6c0.3,0,0.5,0.1,0.5,0.5
		c0,1.2,0,1-0.9,1L95.7,109.2L95.7,109.2z"/>
	<path class="st7" d="M95.8,102.3h1.1c0.3,0,0.4,0.1,0.4,0.4c0.1,1,0,1-0.9,1h-1.5c-0.5,0-0.5,0-0.5-0.5c0-0.9,0-0.9,0.9-0.9H95.8
		L95.8,102.3z"/>
	<path class="st7" d="M95.7,114.6h-1.1c-0.2,0-0.4-0.1-0.4-0.3c0,0,0-0.1,0-0.1c0-0.9,0-0.9,0.9-0.9h1.6c0.3,0,0.4,0.1,0.4,0.4
		c0,0,0,0,0,0.1c0.1,0.9,0.1,0.9-0.9,0.9H95.7L95.7,114.6z"/>
	<path class="st7" d="M95.7,110.5h1.1c0.3,0,0.4,0.1,0.4,0.4c0,0.1,0,0.2,0,0.3c0,0.7,0,0.7-0.7,0.7h-1.8c-0.3,0-0.4-0.1-0.4-0.4
		c0-0.1,0-0.1,0-0.2c0-0.9,0-0.9,0.8-0.9H95.7z"/>
	<path class="st7" d="M99.1,126.6c0,0.3,0,0.6,0,0.9s-0.1,0.5-0.5,0.5h-3.8c-0.4,0-0.5-0.1-0.5-0.5c0-0.4,0-0.6,0-0.9
		C95.9,126.6,97.5,126.6,99.1,126.6z"/>
	<path class="st7" d="M95.7,125.3h-1c-0.2,0-0.4-0.1-0.4-0.3c0,0,0-0.1,0-0.1c0-0.9,0-0.9,0.9-0.9h1.7c0.3,0,0.4,0.1,0.4,0.4
		c0.1,1,0,1-0.9,1L95.7,125.3L95.7,125.3z"/>
	<path class="st7" d="M95.8,121.2h1c0.3,0,0.4,0.1,0.4,0.4c0,0,0,0,0,0.1c0.1,0.9,0.1,0.9-0.9,0.9c-0.5,0-1,0-1.5,0
		c-0.5,0-0.5-0.1-0.5-0.5c0-0.9,0-0.9,0.9-0.9L95.8,121.2L95.8,121.2z"/>
	<path class="st7" d="M95.8,118.5h1.1c0.2,0,0.4,0.1,0.4,0.3c0,0.2,0,0.1,0,0.2c0,0.9,0,0.9-0.8,0.9c-0.5,0-1.1,0-1.6,0
		c-0.4,0-0.5-0.1-0.5-0.5c0-0.9,0-0.9,0.9-0.9L95.8,118.5L95.8,118.5z"/>
	<path class="st7" d="M94.3,84.1c0.1-0.5,0.1-0.6,0.5-0.6h3.7c0.5,0,0.5,0,0.5,0.6c0,0.9,0.1,0.9-0.9,0.9H95c-0.7,0-0.7,0-0.7-0.6
		C94.3,84.2,94.3,84.2,94.3,84.1z"/>
	<path class="st7" d="M95.8,87.6h-1c-0.5,0-0.5,0-0.5-0.6c0-0.1,0-0.1,0-0.2c0-0.6,0-0.6,0.6-0.6h1.8c0.5,0,0.5,0,0.5,0.6
		c0,0,0,0.1,0,0.1c0,0.7,0,0.7-0.7,0.7L95.8,87.6z"/>
	<path class="st7" d="M95.8,88.9c0.3,0,0.7,0,1,0c0.3,0,0.4,0.1,0.4,0.5c0,0.9,0,0.9-0.9,0.9c-0.5,0-1,0-1.5,0
		c-0.5,0-0.5-0.1-0.5-0.5c0-0.9,0-0.9,0.9-0.9L95.8,88.9z"/>
	<path class="st7" d="M96.7,94.3h1.9c0.3,0,0.4,0.1,0.4,0.4c0,0,0,0,0,0.1c0,0.9,0,0.9-0.9,0.9h-3.4c-0.5,0-0.5,0-0.5-0.5
		c0-0.1,0-0.2,0-0.3c0-0.6,0-0.6,0.6-0.6L96.7,94.3L96.7,94.3z"/>
	<path class="st7" d="M95.7,91.6h1c0.3,0,0.4,0.1,0.4,0.4c0,0,0,0.1,0,0.1c0,0.9,0,0.9-0.8,0.9c-0.6,0-1.1,0-1.7,0
		c-0.3,0-0.5-0.1-0.4-0.4c0-0.1,0-0.1,0-0.2c0-0.8,0-0.8,0.8-0.8L95.7,91.6L95.7,91.6z"/>
	<path class="st7" d="M95.7,82.3c-0.2,0-0.5,0-0.7,0c-0.2,0-0.6,0.1-0.7-0.2c-0.1-0.4-0.1-0.7,0-1.1c0-0.2,0.2-0.1,0.4-0.1h2.1
		c0.3,0,0.4,0.2,0.4,0.5c0,0.9,0,0.9-0.9,0.9L95.7,82.3z"/>
	<path class="st7" d="M97.2,129.7c0,1.1,0.1,1-1,1h-1.3c-0.6,0-0.6,0-0.6-0.6c0-0.1,0-0.3,0-0.4s0.1-0.4,0.4-0.4h2.2
		C97.1,129.3,97.2,129.4,97.2,129.7z"/>
	<path class="st7" d="M97.2,132.5c0,0.9,0.1,0.9-0.8,0.9h-1.5c-0.6,0-0.6,0-0.6-0.6c0-0.1,0-0.2,0-0.3c0.1-0.5,0.1-0.6,0.5-0.6h1.9
		C97.2,132,97.2,132,97.2,132.5z"/>
</g>
</svg>
