<?xml version="1.0" encoding="utf-8"?>
<!-- Generator: Adobe Illustrator 21.0.2, SVG Export Plug-In . SVG Version: 6.00 Build 0)  -->
<svg version="1.1" id="Layer_1" xmlns="http://www.w3.org/2000/svg" xmlns:xlink="http://www.w3.org/1999/xlink" x="0px" y="0px"
	 viewBox="0 0 100 98.3" style="enable-background:new 0 0 100 98.3;" xml:space="preserve">
<style type="text/css">
	.st0{fill:#FFFFFF;}
	.st1{fill:#464646;}
	.st2{fill:#F47C23;}
	.st3{fill:#969696;}
	.st4{fill:#C8C8C8;}
	.st5{fill:#D3D3D3;}
	.st6{fill:#C3C3C3;}
	.st7{fill:#9D9D9D;}
	.st8{fill:#CCCCCC;}
	.st9{fill:#F0F0F0;}
	.st10{fill:#BABABA;}
	.st11{fill:#727272;}
	.st12{fill:#B3B3B3;}
	.st13{fill:#040404;}
	.st14{fill:#666666;}
	.st15{fill:#585858;}
	.st16{fill:#131313;}
	.st17{fill:#1F1F1F;}
	.st18{fill:#BF1324;}
</style>
<title>Artboard 1</title>
<g>
	<path class="st0" d="M74.9,14.1c-0.1,0.1-0.4,0.3-0.6,0.4l-5.4,2.9l-8.5,4.5L52,26.3l-7.6,4c-0.2,0.1-0.4,0.4-0.7,0.1
		c0,0-0.1,0.1-0.2,0.1l-4.4,2.3l-4.7,2.4l-5.7,3l-4.4,2.3l-5.5,2.9l-4.6,2.5c-0.2,0.1-0.5,0.2-0.8,0.2c-0.9,0-1.8,0-2.8,0
		c-1.1,0-2,1.1-2,2c0,0.4,0,0.9,0,1.3s0,0.4-0.4,0.4H2.5H1.9c-1,0.1-2,0.9-1.9,2c0,0.1,0,0.2,0,0.3c0,14.5,0,29.1,0,43.5
		c0,0.1,0,0.3,0,0.4c0,0.5,0.2,0.9,0.6,1.3c0.6,0.5,1.2,0.6,1.8,0.6h75.5c0.1,0,0.3,0,0.4,0c0.7-0.1,1.2-0.3,1.7-0.8
		s0.4-0.9,0.4-1.5c0-7.3,0-14.7,0-22.1c0-0.1,0-0.2,0-0.4c0-0.4,0-0.4,0.4-0.4c1.1,0,2.2,0,3.3,0c1.1,0.1,2.3-0.9,2.3-2.3
		c-0.1-3.8,0-7.6,0-11.4c0-0.1,0-0.3,0-0.4c0-0.3-0.1-0.6-0.3-0.8c-0.5-0.7-1.1-1-1.9-1h-3c-0.7,0-0.7,0-0.7-0.7c0-1.5,0-2.9,0-4.4
		c0-1-0.7-1.8-1.6-2C78.5,50,78.2,50,77.8,50H16.3c-0.1,0-0.2-0.1-0.2-0.2s0-0.6,0-0.8c0-0.8-0.1-0.6,0.6-1.1l0.3-0.1l4.6-2.4
		l6.5-3.4l4.6-2.4l5.6-3l3.9-2l2.7-1.5c0.1-0.1,0.3-0.1,0.3-0.2s0.1-0.3,0.2-0.4l0.8-0.4l6.4-3.4l4.6-2.4l6.4-3.4l4.6-2.4
		c2.2-1.1,4.3-2.3,6.5-3.5c0.5-0.3,1-0.6,1.5-0.8c0.1,0.2,0.2,0.3,0.3,0.5c0.1,0.1,0.2,0.2,0.4,0.1l2.8-1.6c0.3-0.1,0.3-0.2,0.1-0.5
		c-0.6-0.9-1.1-1.9-1.7-2.9c-0.1-0.2-0.2-0.2-0.4-0.1c-0.8,0.4-1.6,0.8-2.4,1.3c-0.2,0.1-0.6,0.2-0.7,0.4
		C74.6,13.6,74.8,13.9,74.9,14.1z M92.8,5.5L92.8,5.5l3.2-2.1c1.2-0.8,2.4-1.6,3.7-2.3c0.6-0.4,0.4-0.3,0.2-0.7
		c-0.1-0.1-0.1-0.1-0.1-0.3C99.6,0,99.5,0,99.3,0c-0.4,0.1-0.8,0.3-1.1,0.5l-8.1,3.2l-7.2,2.8c-0.2,0.1-0.5,0.1-0.8,0.4l5,0.9
		l-0.5,0.4l-2.7,1.7l-3.7,2.3c-0.4,0.3-0.4,0.3-0.2,0.8l0.1,0.1c0.1,0.2,0.2,0.3,0.5,0.1c1.1-0.4,2.3-0.9,3.4-1.3l6.4-2.5l7.1-2.8
		c0.1,0,0.2-0.1,0.3-0.2L92.8,5.5z"/>
	<path class="st1" d="M74.9,14.1c0-0.3-0.2-0.4-0.3-0.7c0.2-0.2,0.5-0.3,0.7-0.4c0.8-0.4,1.6-0.8,2.4-1.3c0.2-0.1,0.3-0.1,0.4,0.1
		c0.6,1,1.1,1.9,1.7,2.9c0.2,0.3,0.1,0.3-0.1,0.5l-2.8,1.6c-0.2,0.1-0.3,0.1-0.4-0.1c-0.1-0.2-0.1-0.3-0.3-0.5
		c-0.6,0.2-1,0.5-1.5,0.8c-2.2,1.1-4.3,2.3-6.5,3.5l-4.6,2.4l-6.5,3.5l-4.6,2.4l-6.4,3.4l-0.8,0.4c-0.1,0.1-0.3,0.1-0.2,0.4
		c0,0.2-0.1,0.2-0.3,0.2l-2.7,1.5l-3.9,2l-5.6,3L28,41.9l-6.4,3.4L17,47.8l-0.3,0.1c-0.8,0.4-0.6,0.2-0.6,1.1c0,0.3,0,0.6,0,0.8
		c0,0.3,0.1,0.2,0.2,0.2h61.4c0.4,0,0.7,0,1.1,0.1c1,0.2,1.6,1.1,1.6,2c0,1.5,0,2.9,0,4.4c0,0.7,0,0.7,0.7,0.7h3
		c0.8,0,1.4,0.3,1.9,1c0.1,0.3,0.3,0.6,0.3,0.8c0,0.1,0,0.3,0,0.4c0,3.8,0,7.6,0,11.4c0,1.3-1.1,2.3-2.3,2.3c-1.2-0.1-2.2,0-3.3,0
		c-0.4,0-0.4,0-0.4,0.4c0,0.1,0,0.2,0,0.4c0,7.3,0,14.7,0,22.1c0,0.5-0.1,1-0.4,1.5c-0.4,0.5-1,0.8-1.7,0.8c-0.1,0-0.3,0-0.4,0H2.5
		c-0.7,0-1.3-0.1-1.8-0.6c-0.4-0.4-0.6-0.8-0.6-1.3c0-0.1,0-0.3,0-0.4c0-14.5,0-29.1,0-43.5c0-0.1,0-0.2,0-0.3C0,51,1,50.1,2,50.1
		h0.6h5.7c0.4,0,0.4,0,0.4-0.4c0-0.4,0-0.9,0-1.3c-0.1-1,0.9-2,2-2c0.9,0,1.8,0,2.8,0c0.3,0,0.5-0.1,0.8-0.2l4.6-2.5l5.5-3l4.4-2.3
		l5.7-3l4.7-2.5l4.4-2.3c0.1,0,0.2-0.1,0.2-0.1c0.3,0.3,0.5,0,0.7-0.1l7.6-4l8.5-4.5l8.5-4.5l5.4-2.9C74.6,14.3,74.8,14.3,74.9,14.1
		z M15,49.7c0-0.1,0-0.2,0-0.3c0.1-0.1,0.1-0.3,0-0.4v-0.2c0-0.2,0.1-0.4,0-0.6c0-0.4-0.3-0.5-0.5-0.7c-0.2-0.1-0.4-0.1-0.6-0.1
		h-3.2c-0.2,0-0.4,0.1-0.5,0.1c-0.3,0.1-0.4,0.3-0.4,0.5c-0.1,0.2-0.1,0.6-0.1,0.8v0.2c-0.1,0.1-0.1,0.3,0,0.4v0.3
		C9.7,50,10,50,10.2,50h4.6C15,50,15,49.9,15,49.7z M85.3,64.6V62c0.1-0.4,0.1-0.7,0-1.1c0-0.2,0-0.5,0-0.7v-0.6
		c0.1-0.8-0.4-1.3-1.1-1.3c-1.1,0-2.3,0-3.4,0c-0.3,0-0.3,0.1-0.3,0.4c0,0.2,0,0.7,0,1.1c0,0.2,0,0.4,0,0.6s0,0.5,0,0.7
		c-0.1,0.4-0.1,0.7,0,1.1c0,0.3,0,0.6,0,0.8v1.8c0,0.1,0,0.2,0,0.3c-0.1,0.4-0.1,0.6,0,1c-0.1,0.1-0.1,0.4,0,0.5c0,0.6,0,1.1,0,1.7
		c-0.1,0.5-0.1,0.9,0,1.4v1.9c0,0.1,0,0.2,0,0.3c0,0.5,0,0.5,0.5,0.5c1.1,0,2,0,3.1,0c0.6,0,1-0.3,1.2-0.8c0-0.4,0.1-0.8,0-1.2v-0.7
		c0.1-0.5,0.1-0.9,0-1.4c0-0.6,0-1.1,0-1.7c0-0.1,0-0.4,0-0.5c0.1-0.4,0.1-0.6,0-1C85.3,64.9,85.3,64.7,85.3,64.6L85.3,64.6z
		 M77.9,13.6c-0.1-0.1-0.1-0.3-0.2-0.4c-0.1-0.3-0.1-0.3-0.5-0.1l-0.7,0.4c-0.6,0.3-0.6,0.3-0.2,0.8l0,0c0,0.2,0.1,0.4,0.2,0.5
		c0.4,0.6,0.4,0.6,1,0.3c0.1-0.1,0.1-0.1,0.3-0.1c0.2-0.1,0.6-0.2,0.6-0.4s-0.2-0.4-0.3-0.6C78.1,13.9,78,13.7,77.9,13.6z M1.1,64.5
		c0,0.1,0,0.3,0,0.4c0,3.7,0,7.4,0,11.1c0,0.1,0,0.2,0,0.4c0,0.1,0,0.4,0,0.6c0,3.2,0,6.5,0,9.7c0,0.1,0,0.4,0,0.5
		c0,1.4,0,2.8,0,4.2c0,1.6,0,3.3,0,4.9c0,0.7,0.4,1.1,1.1,1.1h76.2c0.4,0,0.6-0.1,0.8-0.4c0.2-0.2,0.2-0.6,0.2-0.9c0-12,0-24,0-35.9
		c0-2.6,0-5.2,0-7.8c0-0.6-0.2-0.8-0.8-1.1c-0.2-0.1-0.4,0-0.6,0h-9.9h-0.5h-0.3H55.1h-0.4h-0.4H42.7h-0.4h-0.4H2.5
		c-0.1,0-0.3,0-0.4,0c-0.6-0.1-0.9,0.3-1,0.8c0,0.6,0,1.2,0,1.8C1.1,57.4,1.1,61,1.1,64.5z M15.3,46.7c0,0.1,0.1,0.3,0.2,0.4
		c0.1,0.1,0.3,0.2,0.6,0.1c0.6-0.4,1.2-0.6,1.8-1l4.6-2.4l4.8-2.5l3.7-2l5.6-3l4.7-2.5l2.1-1.1c0.1-0.1,0.3-0.1,0.3-0.2
		s-0.1-0.4-0.3-0.5c-0.1-0.1-0.2,0-0.4,0l-1.7,0.9l-7.2,3.8l-5.5,3L22,43.1l-4.7,2.5L15.3,46.7z M44.5,31.7c0.1,0,0.2-0.1,0.3-0.1
		l4.4-2.4l4.5-2.4l6.3-3.3l4.7-2.5l5.6-3l4.7-2.5l0.4-0.3c0.1,0,0.1-0.1,0.1-0.1c0-0.1-0.1-0.1-0.1-0.1l0,0c-0.1,0-0.1,0.1-0.2,0.1
		L73,16.4l-4.6,2.4l-5.6,2.9l-5.5,2.9l-6.3,3.3L45.3,31l-0.8,0.4c-0.1,0-0.1,0.1-0.1,0.1l0,0C44.4,31.6,44.4,31.7,44.5,31.7
		L44.5,31.7z"/>
	<path class="st2" d="M92.8,5.5l4.9,0.9c-0.1,0.1-0.2,0.2-0.3,0.2l-7.1,2.8L83.9,12c-1.1,0.4-2.3,0.8-3.4,1.3
		c-0.3,0.1-0.4,0.1-0.5-0.1L79.9,13c-0.3-0.5-0.3-0.5,0.2-0.8l3.7-2.3l2.7-1.7L87,7.9l-5-0.9c0.3-0.2,0.6-0.3,0.8-0.4l7.2-2.8
		l8.1-3.2c0.4-0.1,0.8-0.3,1.1-0.5C99.3,0,99.5,0,99.5,0.2s0.1,0.1,0.1,0.3c0.2,0.4,0.4,0.4-0.2,0.7c-1.2,0.8-2.5,1.6-3.7,2.3
		l-3.2,2L92.8,5.5z"/>
	<path class="st3" d="M78.6,51.1c0.6,0.2,0.8,0.5,0.8,1.1c0,2.6,0,5.2,0,7.8c0,12,0,24,0,35.9c0,0.4,0,0.6-0.2,0.9
		c-0.3,0.3-0.4,0.4-0.8,0.4H2.2c-0.7,0-1.1-0.4-1.1-1.1c0-1.6,0-3.3,0-4.9c0-1.4,0-2.8,0-4.2c1.8,0.5,3.6,1.1,5.4,1.4
		c2,0.4,4.2,0.8,6.3,1.1c0.4,0.1,0.8,0,1.1,0.1c0.6,0.1,1.1,0.1,1.6,0c0.1,0.1,0.2,0.1,0.4,0.2c1.6,1.3,3.4,2.4,5.3,3.2
		c2,0.9,4.3,1.5,6.5,1.7c2,0.2,4,0.1,5.9-0.2c2.1-0.4,4.2-1,6.2-2c2-1,3.9-2.3,5.5-3.9c1.3-1.2,2.4-2.6,3.3-4.2
		c0.1-0.2,0.3-0.4,0.4-0.6c0.3,0.2,0.5,0.1,0.8-0.1c1.3-0.7,2.7-1.4,4-2.3c1.1-0.7,2.3-1.4,3.3-2.2c0.4-0.2,0.6-0.6,1.1-0.6
		c0,0.2,0,0.4,0,0.6c0,4.5,0,9,0,13.5c0,1.2,0.8,2.1,2,2.1c3.4,0,6.8,0,10.2,0c0.9,0,2-0.8,2-2.1c0-9.6,0-19.2,0-28.8
		c0-0.2,0-0.4,0-0.6c0.1,0,0.4-0.1,0.4-0.2c0.2-0.4,0.4-0.6,0.6-1c0.6-1.1,1.2-2.1,1.8-3.1c0.6-1.2,1.3-2.5,1.8-3.7
		c0.6-1.3,1-2.3,1.3-3.5c0-0.1,0.1-0.1,0.1-0.2C78.6,51.7,78.6,51.4,78.6,51.1z"/>
	<path class="st4" d="M1.1,53.8c0-0.6,0-1.2,0-1.8c0-0.6,0.4-0.9,0.9-1c0.1,0,0.3,0,0.4,0h39.4h0.4c0,0.2-0.1,0.4-0.3,0.5
		c-0.8,0.9-1.8,1.8-2.7,2.5c-0.7,0.6-1.3,1.2-2.2,1.6c-0.1,0-0.1,0.1-0.1,0.1c-0.2,0-0.4-0.1-0.6-0.1c-1.2-0.4-2.4-0.6-3.6-0.8
		c-2-0.3-3.9-0.2-5.9,0c-2.3,0.3-4.5,0.9-6.6,1.9c-0.9,0.4-1.8,1-2.8,1.6c-0.9,0.6-1.8,1.3-2.6,2c-0.1-0.3-0.4-0.2-0.6-0.3
		c-1.1-0.2-2.2-0.5-3.3-0.8c-1-0.3-1.9-0.7-2.8-1.1c-1.3-0.6-2.7-1.3-3.9-2c-1.1-0.6-2-1.3-3-2.1C1.4,53.9,1.3,53.8,1.1,53.8z"/>
	<path class="st4" d="M54.8,51.1h0.4h12.2h0.3c0,0.1,0,0.3-0.1,0.4c-0.4,0.8-0.6,1.6-1.1,2.3c-0.1,0.2-0.3,0.4-0.3,0.7h-0.6
		c-1.8,0-3.5,0-5.3,0c-1.4,0-2.3,0.9-2.3,2.3c0,2.5,0,5.1,0,7.6c0,0.2,0,0.4,0,0.6c-0.1,0-0.3,0.1-0.4,0.2c-0.7,0.7-1.4,1.3-2.1,2
		c-1,1-2.1,1.8-3.2,2.8c-0.1,0.1-0.4,0.2-0.5,0.4c-0.3,0.3-0.7,0.2-1.1,0.3c-0.1-0.5-0.3-1-0.4-1.5c-0.5-1.5-1.1-2.9-2-4.2
		c-0.7-1.1-1.5-2.2-2.4-3.2c0.2-0.4,0.6-0.7,1-1c0.6-0.6,1.3-1.1,1.8-1.8c0.6-0.6,1.1-1.1,1.6-1.8c0.6-0.6,1.2-1.4,1.8-2.2
		c0.8-1.1,1.6-2.2,2.3-3.4C54.7,51.5,54.8,51.3,54.8,51.1z"/>
	<path class="st3" d="M15.5,89.8c-0.6,0.1-1.1,0.1-1.6,0c-0.4-0.1-0.8-0.1-1.1-0.1c-2.1-0.3-4.2-0.6-6.3-1.1
		c-1.8-0.4-3.7-0.9-5.4-1.4c0-0.1,0-0.4,0-0.5c0-3.2,0-6.5,0-9.7c0-0.2,0-0.4,0-0.6c0.1,0,0.3,0.1,0.4,0.1c1.3,0.6,2.7,1.1,4.1,1.4
		c0.9,0.3,1.8,0.5,2.7,0.7c0.2,0.1,0.4,0.1,0.4-0.2c0-0.1,0.1-0.1,0.1-0.1C8.9,78.5,9,78.7,9,78.8c0.4,1.8,0.9,3.4,1.8,4.9
		c0.5,0.9,1.1,1.8,1.7,2.8c0.5,0.7,1.1,1.3,1.6,1.9C14.6,88.9,15,89.4,15.5,89.8z"/>
	<path class="st4" d="M1.1,53.8c0.1,0,0.3,0,0.4,0.1c0.9,0.8,1.9,1.5,3,2.1c1.3,0.8,2.5,1.5,3.9,2c0.9,0.4,1.9,0.8,2.9,1.1
		c1.1,0.4,2.2,0.6,3.3,0.8c0.2,0,0.5,0,0.6,0.3c-0.8,0.7-1.5,1.5-2.1,2.3c-0.8,1.1-1.6,2.2-2.2,3.3c-0.4,0.6-0.6,1.3-0.8,1.9
		c-0.3,0-0.5,0-0.8-0.1c-0.8-0.2-1.6-0.5-2.5-0.8c-1.7-0.6-3.2-1.3-4.9-2.1c-0.2-0.1-0.4-0.4-0.7-0.4C1.1,61,1.1,57.4,1.1,53.8z"/>
	<path class="st4" d="M54.8,51.1c0,0.2-0.1,0.4-0.2,0.6c-0.7,1.2-1.4,2.3-2.3,3.4c-0.6,0.8-1.2,1.5-1.8,2.2
		c-0.6,0.7-1.1,1.2-1.6,1.8c-0.6,0.6-1.2,1.2-1.8,1.8c-0.4,0.3-0.8,0.5-1,1c-0.8-1.1-1.7-1.8-2.7-2.5c-1.2-0.9-2.5-1.7-4-2.4
		c-0.8-0.4-1.6-0.6-2.4-1c0.1-0.1,0.1-0.1,0.1-0.1c0.8-0.4,1.5-1.1,2.2-1.6c1-0.8,1.8-1.6,2.7-2.5c0.1-0.1,0.3-0.3,0.3-0.5h0.4h11.8
		H54.8z"/>
	<path class="st4" d="M1.1,64.5c0.3,0,0.5,0.2,0.7,0.4C3.4,65.6,5,66.4,6.7,67c0.8,0.3,1.6,0.6,2.5,0.8c0.3,0.1,0.5,0.1,0.8,0.1V68
		c-0.5,1.1-0.8,2.3-1,3.5c-0.4,1.6-0.4,3.2-0.3,4.9c0.1,0.7,0.1,1.4,0.2,2c-0.1,0-0.1,0-0.1,0.1c-0.1,0.3-0.3,0.2-0.4,0.2
		c-0.9-0.2-1.8-0.5-2.7-0.7c-1.4-0.4-2.8-0.8-4.1-1.4c-0.1-0.1-0.3-0.1-0.4-0.1c0-0.1,0-0.2,0-0.4c0-3.7,0-7.4,0-11.1
		C1.1,64.8,1.1,64.6,1.1,64.5z"/>
	<path class="st3" d="M66.2,54.4c0.1-0.3,0.2-0.5,0.3-0.7c0.4-0.7,0.6-1.5,1.1-2.3c0.1-0.1,0.1-0.3,0.1-0.4h0.5H78
		c0.2,0,0.4,0,0.6,0c0.1,0.3,0,0.6-0.2,0.8c-0.1,0.1-0.1,0.1-0.1,0.2c-0.4,1.2-0.8,2.3-1.3,3.5c-0.5,1.1-1.1,2.5-1.8,3.7
		c-0.6,1.1-1.2,2.1-1.8,3.1c-0.2,0.4-0.4,0.6-0.6,1c-0.1,0.1-0.2,0.2-0.4,0.2c0-1.3,0-2.6,0-4c0-1.1,0-2.2,0-3.3
		c0-0.7-0.3-1.3-0.9-1.7c-0.4-0.2-0.8-0.4-1.2-0.3L66.2,54.4z"/>
	<path class="st5" d="M15.3,46.7l2-1.1l4.7-2.5l6.6-3.5l5.5-3l7.2-3.8L43,32c0.1-0.1,0.2-0.1,0.4,0c0.1,0.1,0.3,0.3,0.3,0.5
		s-0.1,0.1-0.3,0.2l-2.1,1.1l-4.7,2.5l-5.6,3l-3.7,2l-4.8,2.5l-4.6,2.4c-0.6,0.3-1.2,0.6-1.8,1c-0.2,0.1-0.4,0.1-0.6-0.1
		C15.3,46.9,15.4,46.8,15.3,46.7z"/>
	<path class="st5" d="M44.5,31.7c-0.1,0-0.1,0-0.1-0.1c0-0.1,0-0.1,0.1-0.1l0,0l0.8-0.4L51,28l6.3-3.3l5.5-2.9l5.5-2.9l4.6-2.4
		l2.3-1.2c0.1-0.1,0.1-0.1,0.2-0.1c0.1,0,0.1,0,0.1,0.1l0,0c0,0.1,0,0.1-0.1,0.1L75,15.6l-4.7,2.5l-5.6,3L60,23.5l-6.3,3.3l-4.5,2.4
		l-4.4,2.4C44.7,31.6,44.7,31.7,44.5,31.7z"/>
	<path class="st6" d="M80.5,68.1c0-0.6,0-1.1,0-1.7h4.8c0,0.6,0,1.1,0,1.7H80.5z"/>
	<path class="st7" d="M80.5,64.2v-1.4h4.8v1.4H80.5z"/>
	<path class="st8" d="M80.5,68.1h4.8c0.1,0.5,0.1,0.9,0,1.4h-4.8C80.4,69,80.4,68.6,80.5,68.1z"/>
	<path class="st7" d="M80.5,59.6c0-0.4,0-0.7,0-1.1s0.1-0.4,0.3-0.4c1.1,0,2.3,0,3.4,0c0.8,0,1.2,0.6,1.1,1.3L80.5,59.6z"/>
	<path class="st7" d="M85.3,70.2c0.1,0.4-0.1,0.8,0,1.2h-4.8c0-0.4,0-0.8,0-1.2H85.3z"/>
	<path class="st8" d="M80.5,62c-0.1-0.4-0.1-0.7,0-1.1h4.8c0.1,0.4,0.1,0.7,0,1.1H80.5z"/>
	<path class="st9" d="M85.3,64.9c0.1,0.4,0.1,0.6,0,1h-4.8c-0.1-0.4-0.1-0.6,0-1H85.3z"/>
	<path class="st10" d="M80.5,62h4.8c0,0.3,0,0.5,0,0.8h-4.8C80.4,62.6,80.4,62.3,80.5,62z"/>
	<path class="st11" d="M80.5,71.4h4.8c-0.2,0.6-0.6,0.8-1.2,0.8c-1.1,0-2,0-3.1,0c-0.5,0-0.5,0-0.5-0.5
		C80.5,71.6,80.5,71.5,80.5,71.4z"/>
	<path class="st10" d="M85.3,70.2h-4.8v-0.7h4.8V70.2z"/>
	<path class="st6" d="M85.3,61h-4.8c0-0.2,0-0.5,0-0.7h4.8C85.3,60.5,85.3,60.7,85.3,61z"/>
	<path class="st9" d="M9.7,48.8c0-0.3-0.1-0.6,0.1-0.8c0.1,0.2,0.2,0.2,0.4,0.2H15c0.1,0.2,0.1,0.4,0,0.6L9.7,48.8z"/>
	<path class="st5" d="M15,48.2h-4.7c-0.1,0-0.4,0-0.4-0.2c-0.1-0.2,0.1-0.4,0.4-0.5c0.1,0.1,0.3,0.1,0.4,0.1H14c0.1,0,0.3,0,0.4-0.1
		C14.7,47.7,15,47.8,15,48.2z"/>
	<path class="st12" d="M85.3,60.3h-4.8c0-0.2,0-0.4,0-0.6h4.8V60.3z"/>
	<path class="st5" d="M80.5,65.9h4.8c0.1,0.1,0.1,0.4,0,0.5h-4.8C80.4,66.3,80.4,66.1,80.5,65.9z"/>
	<path class="st10" d="M9.7,49.4c-0.1-0.1-0.1-0.3,0-0.4H15c0.1,0.1,0.1,0.3,0,0.4H9.7z"/>
	<path class="st5" d="M77.9,13.6c0.1,0.1,0.1,0.2,0.2,0.3c0.1,0.2,0.4,0.4,0.3,0.6s-0.4,0.3-0.6,0.4c-0.1,0.1-0.1,0.1-0.3,0.1
		c-0.6,0.3-0.6,0.3-1-0.3c-0.1-0.1-0.2-0.3-0.2-0.5c0.2,0,0.4-0.1,0.5-0.2C77.2,13.9,77.5,13.6,77.9,13.6z"/>
	<path class="st12" d="M80.5,64.2h4.8v0.4h-4.8V64.2z"/>
	<path class="st10" d="M15,49.7c0.1,0.2,0,0.4-0.2,0.4h-4.6c-0.2,0-0.4,0-0.4-0.4H15z"/>
	<path class="st8" d="M15,49.7H9.8c0-0.1,0-0.2,0-0.3H15C15,49.5,15,49.6,15,49.7z"/>
	<path class="st8" d="M80.5,64.6h4.8c0,0.1,0,0.2,0,0.3h-4.8C80.4,64.9,80.4,64.7,80.5,64.6z"/>
	<path class="st6" d="M77.9,13.6c-0.4,0-0.8,0.3-1.1,0.5c-0.1,0.1-0.3,0.2-0.5,0.2l0,0c-0.4-0.6-0.4-0.6,0.2-0.8l0.7-0.4
		c0.4-0.1,0.4-0.2,0.5,0.1C77.8,13.4,77.9,13.5,77.9,13.6z"/>
	<path class="st6" d="M14.5,47.4c-0.1,0.1-0.3,0.1-0.4,0.1h-3.4c-0.1,0-0.3,0-0.4-0.1c0.1-0.1,0.3-0.2,0.5-0.1h3.2
		C14.2,47.3,14.3,47.4,14.5,47.4z"/>
	<path class="st5" d="M15,49H9.8v-0.2H15V49z"/>
	<path class="st13" d="M8.9,78.4c-0.1-0.7-0.1-1.4-0.2-2c-0.1-1.6-0.1-3.2,0.3-4.9c0.2-1.2,0.5-2.3,1-3.5V68
		c0.3-0.6,0.6-1.3,0.8-1.9c0.6-1.2,1.3-2.3,2.2-3.3c0.6-0.8,1.4-1.6,2.1-2.3c0.8-0.8,1.6-1.4,2.6-2c0.9-0.6,1.8-1.1,2.8-1.6
		c2.1-1,4.3-1.6,6.6-1.9c2-0.3,3.9-0.3,5.9,0c1.2,0.1,2.4,0.4,3.6,0.8c0.2,0.1,0.4,0.1,0.6,0.1c0.8,0.4,1.6,0.6,2.4,1
		c1.4,0.6,2.7,1.5,4,2.4c1,0.7,1.8,1.6,2.7,2.4c0.8,1,1.7,2,2.4,3.2c0.8,1.3,1.5,2.8,2,4.2c0.1,0.5,0.3,1,0.4,1.5
		c0.1,0.9,0.3,1.8,0.4,2.8c0.3,2.9-0.1,5.9-1.3,8.6c-0.3,0.8-0.6,1.5-1,2.3c-0.1,0.2-0.3,0.4-0.4,0.6c-0.9,1.6-2,2.9-3.3,4.2
		c-1.6,1.6-3.5,2.9-5.5,3.9c-2,1-4,1.6-6.2,2c-2,0.4-4,0.4-5.9,0.2c-2.3-0.2-4.4-0.8-6.5-1.7c-1.9-0.8-3.7-1.9-5.3-3.2
		c-0.1-0.1-0.2-0.1-0.4-0.2c-0.5-0.4-0.9-0.9-1.4-1.3c-0.6-0.6-1.1-1.2-1.6-1.9C12,85.9,11.5,85,10.9,84c-0.8-1.6-1.5-3.2-1.8-4.9
		C9,78.7,9,78.5,8.9,78.4z M32.4,56.1c-0.7,0-1.3-0.1-2-0.1C30,56,29.6,55.8,29.2,56c-0.2,0-0.4-0.1-0.6-0.1
		C28,56,27.4,56,26.7,56.3c-0.4,0.2-0.9,0.4-1.3,0.5c-0.2,0.1-0.4,0.1-0.6,0c-0.7-0.3-1.3,0.1-2,0.4c-0.2-0.1-0.4,0-0.6,0.2
		c-0.1,0-0.3,0.1-0.4,0.1c-0.4,0.1-0.8,0.4-1.2,0.5c-0.8,0.4-1.6,0.8-2.3,1.4c-0.2,0.1-0.4,0.2-0.4,0.3c-0.4,0.1-0.6,0.4-1,0.7v0.1
		c-0.1,0-0.2,0.1-0.2,0.3c-0.2,0-0.4,0.1-0.5,0.2l-0.6,0.6c-0.1,0.1-0.4,0.3-0.4,0.6c-0.6,0.4-1.1,1.1-1.6,1.6
		c-0.1,0.2-0.4,0.4-0.4,0.6c-0.1,0.1-0.4,0.2-0.4,0.4l-0.6,1.1c-0.1,0.1-0.1,0.2-0.1,0.4c-0.3,0.2-0.4,0.6-0.5,0.9l-0.3,0.4
		c-0.1,0.3-0.3,0.6-0.3,0.9c-0.1,0.1-0.1,0.3-0.1,0.4c-0.2,0.3-0.3,0.6-0.4,1c-0.1,0.1-0.1,0.3-0.1,0.4c-0.1,0.4-0.2,0.6-0.2,1
		c-0.1,0.1-0.1,0.3-0.1,0.5C10,72,10,72.4,10,72.8v0.5c-0.1,0.4-0.1,0.6-0.1,1v0.6c0,0.4-0.1,0.7,0.1,1.1v0.5c0,0.4,0,0.8,0.1,1.1
		c-0.1,0.2-0.1,0.4,0.1,0.6c0,0.4,0.1,0.7,0.2,1.1l0.1,0.6c0.1,0.4,0.3,0.8,0.4,1.2c0.1,0.2,0.1,0.4,0.2,0.6
		c0.1,0.1,0.1,0.5,0.3,0.6c0.1,0.1,0.1,0.6,0.4,0.6c0,0.2,0,0.4,0.2,0.6c0.1,0.4,0.4,0.7,0.6,1.1c0,0.2,0.1,0.3,0.3,0.4
		c0,0.4,0.4,0.6,0.6,0.9c0,0.2,0.1,0.3,0.3,0.4c0.1,0.4,0.4,0.6,0.7,0.8c0,0.2,0.1,0.3,0.3,0.4c0.3,0.4,0.7,0.8,1.2,1
		c0.1,0.4,0.4,0.6,0.7,0.8c0.1,0.2,0.3,0.4,0.5,0.6c0.4,0.3,0.9,0.6,1.3,0.9c0.3,0.2,0.6,0.2,0.8,0.1c0.6-0.3,1.3-0.5,2-0.8
		c0.4-0.1,0.7-0.1,1,0c0.8,0.3,1.6,0.6,2.4,0.9c0.2,0.1,0.4,0.1,0.6,0l2.5-0.9c0.2-0.1,0.5-0.1,0.7,0c0.8,0.3,1.6,0.6,2.4,0.9
		c0.3,0.1,0.6,0.1,0.9,0c0.7-0.3,1.4-0.5,2.1-0.8c0.4-0.1,0.8-0.2,1.2,0c0.7,0.3,1.5,0.6,2.3,0.8c0.3,0.1,0.6,0.1,0.8,0
		c0.7-0.3,1.4-0.5,2.1-0.8c0.5-0.2,0.9-0.2,1.3,0c0.1,0.1,0.3,0.1,0.4,0.1c0.3-0.2,0.6-0.4,0.8-0.6c-0.6-0.2-1.1-0.4-1.6-0.6
		c-0.2-0.1-0.4-0.1-0.6,0c-0.8,0.3-1.6,0.6-2.5,0.9c-0.3,0.1-0.6,0.1-0.8,0c-0.7-0.3-1.5-0.5-2.3-0.8c-0.4-0.2-0.8-0.1-1.3,0.1
		c-0.7,0.3-1.5,0.6-2.2,0.8c-0.1,0.1-0.4,0.1-0.5,0c-0.8-0.3-1.7-0.6-2.5-0.9c-0.3-0.1-0.6-0.1-0.8,0c-0.8,0.3-1.6,0.6-2.5,0.9
		c-0.2,0.1-0.4,0.1-0.6,0.1c-0.8-0.4-1.6-0.6-2.4-0.9c0-0.1,0.1-0.3,0.2-0.4c0.7,0.2,1.3,0.5,2,0.7c0.2,0.1,0.4,0.1,0.7,0.1
		c0.8-0.3,1.7-0.6,2.5-0.9c0.2-0.1,0.5-0.1,0.8,0c0.8,0.3,1.6,0.6,2.4,0.9c0.3,0.1,0.6,0.1,0.8,0c0.8-0.3,1.6-0.6,2.3-0.8
		c0.1-0.1,0.3-0.1,0.5-0.1c0.9,0.4,1.8,0.6,2.8,0.9c0.2,0.1,0.4,0.1,0.6,0c0.8-0.3,1.6-0.6,2.5-0.9c0.3-0.1,0.6-0.1,0.8,0
		c0.6,0.2,1.1,0.4,1.6,0.6c0.1,0,0.2,0.1,0.4,0c0.1-0.1,0.6-0.4,0.6-0.6c0-0.1-0.1-0.1-0.1-0.1l-2.7-1c-0.1-0.1-0.3-0.1-0.4,0
		c-0.8,0.4-1.8,0.6-2.6,1c-0.2,0.1-0.5,0.1-0.8,0c-0.8-0.3-1.6-0.6-2.4-0.9c-0.3-0.1-0.6-0.1-0.8,0l-2.3,0.8c-0.3,0.1-0.6,0.1-1,0
		c-0.8-0.3-1.6-0.6-2.3-0.8c-0.2-0.1-0.4-0.1-0.7,0c-0.6,0.2-1.2,0.5-1.8,0.6c-1.1,0.4-0.9,0.6-2,0.1c-0.1-0.1-0.3-0.1-0.4-0.1
		c-0.1-0.1-0.1-0.3,0.1-0.4c0.3,0,0.6,0.1,0.8,0.3c0.2,0.1,0.4,0.1,0.6,0c0.8-0.4,1.7-0.6,2.5-1c0.2-0.1,0.5-0.1,0.7,0
		c0.8,0.4,1.6,0.6,2.4,0.9c0.3,0.1,0.6,0.1,0.8,0c0.8-0.3,1.6-0.6,2.3-0.8c0.3-0.1,0.6-0.1,0.9,0c0.1,0.1,0.3,0.1,0.4,0.2
		c0.6,0.2,1.1,0.4,1.7,0.6c0.4,0.1,0.7,0.1,1.1,0c0.8-0.3,1.6-0.6,2.5-0.9c0.2-0.1,0.4-0.1,0.6,0c0.8,0.3,1.6,0.6,2.5,0.9
		c0.4,0.2,0.8,0.1,1.2-0.2c0.2-0.1,0.4-0.4,0.5-0.5c0.1-0.3,0.4-0.4,0.6-0.8c-0.5,0.2-0.9,0.4-1.3,0.5c-0.3,0.1-0.6,0.1-0.9,0
		c-0.8-0.3-1.6-0.6-2.3-0.8c-0.3-0.1-0.6-0.1-0.8,0c-0.7,0.3-1.4,0.5-2.1,0.8c-0.5,0.2-0.9,0.2-1.3,0c-0.7-0.3-1.4-0.6-2.1-0.8
		c-0.3-0.1-0.6-0.1-0.8,0c-0.8,0.3-1.5,0.6-2.3,0.8c-0.4,0.1-0.7,0.2-1.1,0l0.1-0.4c0.3,0.1,0.6,0.1,0.8,0l2.5-0.9
		c0.2-0.1,0.4-0.1,0.6,0c0.8,0.3,1.6,0.6,2.5,0.9c0.2,0.1,0.5,0.1,0.8,0c0.8-0.4,1.7-0.6,2.5-0.9c0.1-0.1,0.4-0.1,0.5,0
		c0.9,0.4,1.8,0.6,2.8,1c0.2,0.1,0.4,0.1,0.6,0c0.5-0.2,1-0.4,1.6-0.6c0.6-0.1,0.9-0.5,1.2-1c0.1-0.1,0.2-0.3,0.2-0.6l-0.2,0.1
		c-0.8,0.3-1.6,0.6-2.4,0.9c-0.4,0.1-0.7,0.2-1.1,0c-0.8-0.3-1.6-0.6-2.4-0.9c-0.2-0.1-0.4-0.1-0.6,0c-0.8,0.3-1.7,0.6-2.5,0.9
		c-0.3,0.1-0.5,0.1-0.8,0c-0.6-0.2-1.2-0.4-1.8-0.7c-0.6-0.3-1.2-0.4-1.8-0.1v-0.4c0.2-0.1,0.4-0.2,0.6-0.3c0.1-0.1,0.3-0.1,0.4,0
		l2.5,1c0.2,0.1,0.5,0.1,0.7,0c0.8-0.4,1.7-0.6,2.5-0.9c0.2-0.1,0.4-0.1,0.6,0.1c0.1,0.1,0.1,0.1,0.2,0.1c0.8,0.3,1.6,0.6,2.4,0.8
		c0.2,0.1,0.4,0.1,0.6,0c0.5-0.2,0.9-0.4,1.4-0.6c0.5-0.2,1.1-0.5,1.7-0.5c0.2,0,0.6-0.6,0.5-0.8c0-0.1-0.1-0.1-0.1-0.1
		c-0.3-0.1-0.6-0.3-0.9-0.1c-0.8,0.3-1.6,0.6-2.5,0.9c-0.4,0.1-0.8,0.1-1.2-0.1c-0.7-0.3-1.5-0.6-2.3-0.8c-0.1-0.1-0.4-0.1-0.5,0
		c-0.8,0.4-1.8,0.6-2.6,1c-0.2,0.1-0.4,0.1-0.6,0l-2.6-0.9c-0.1-0.1-0.4-0.1-0.5,0c-0.7,0.2-1.4,0.5-2,0.8c-0.6,0.3-1.1,0.3-1.6,0.1
		c-0.6-0.2-1.3-0.5-2-0.8c-0.2-0.1-0.4-0.1-0.7-0.1c-0.6,0.2-1.1,0.4-1.7,0.6c-1.4,0.5-0.9,0.6-2.3,0h-0.1l0.1-0.4
		c0.3,0,0.6,0.1,0.8,0.3c0.1,0.1,0.3,0.1,0.5,0c0.8-0.3,1.7-0.6,2.5-0.9c0.4-0.1,0.7-0.1,1.1,0c0.7,0.3,1.5,0.6,2.3,0.8
		c0.3,0.1,0.6,0.1,0.8,0c0.7-0.3,1.4-0.5,2.1-0.8c0.4-0.1,0.8-0.1,1.2,0c0.7,0.4,1.5,0.6,2.3,0.8c0.2,0.1,0.5,0.1,0.7,0
		c0.6-0.2,1.2-0.4,1.7-0.6c0.7-0.4,1.3-0.4,2,0c0.1,0,0.1,0.1,0.1,0.1c0.5,0.2,0.9,0.3,1.4,0.6c0.4,0.2,0.7,0.2,1.1,0.1
		c0.8-0.3,1.5-0.6,2.3-0.8c0.3-0.1,0.6-0.1,0.8-0.1c0.8,0.3,0.6,0.3,0.9-0.4c0.1-0.1,0-0.3-0.1-0.3l-0.7-0.3c-0.3-0.1-0.6-0.1-1,0
		c-0.6,0.3-1.3,0.4-2,0.7s-1,0.2-1.6,0c-0.5-0.2-1.3-0.5-1.9-0.7c-0.3-0.1-0.6-0.1-1,0c-0.6,0.3-1.3,0.5-2,0.7v-0.4l2.2-0.8
		c0.3-0.1,0.5,0,0.7,0.1l2.4,0.9c0.2,0.1,0.4,0.1,0.6,0c0.7-0.3,1.5-0.6,2.2-0.8c0.4-0.1,0.8-0.3,1.3-0.1c0.1,0.1,0.3,0.1,0.4,0.1
		c0.6,0.3,0.6,0.2,0.8-0.4c0.1-0.3,0-0.4-0.2-0.4c-0.2-0.1-0.6-0.2-0.9-0.4c-0.4-0.2-0.8-0.1-1.3,0c-0.7,0.3-1.5,0.6-2.2,0.8
		c-0.2,0.1-0.4,0.1-0.6,0c-0.8-0.3-1.6-0.6-2.4-0.9c-0.3-0.1-0.6-0.1-1,0c-0.6,0.2-1.1,0.4-1.7,0.6c-1.1,0.4-0.8,0.5-2-0.1
		c0-0.1,0.1-0.3,0.2-0.4c0.1,0,0.1,0,0.2,0.1c0.4,0.2,0.8,0.1,1.1,0c0.8-0.3,1.6-0.6,2.4-0.9c0.1-0.1,0.4-0.1,0.6,0
		c0.8,0.3,1.6,0.6,2.5,0.9c0.4,0.1,0.6,0.1,1,0l2.3-0.8c0.2-0.1,0.4-0.1,0.6,0c0.4,0.1,0.7,0.3,1.1,0.4c0.6,0.2,0.6,0.2,0.8-0.4
		c0.1-0.3,0.1-0.4-0.2-0.4c-0.5-0.2-1.1-0.4-1.6-0.6c-0.3-0.1-0.6-0.1-0.9,0c-0.7,0.3-1.5,0.6-2.3,0.8c-0.3,0.1-0.6,0.1-1,0
		c-0.8-0.3-1.6-0.6-2.3-0.8c-0.2-0.1-0.4-0.1-0.7,0c-0.8,0.4-1.6,0.6-2.5,0.9c-0.3,0.1-0.6,0.1-0.8,0c0-0.1,0-0.3,0.1-0.4
		c0.2,0,0.4,0.1,0.7,0c0.8-0.3,1.6-0.6,2.5-0.9c0.3-0.1,0.6-0.1,0.8,0c0.7,0.3,1.5,0.6,2.3,0.8c0.4,0.1,0.8,0.1,1.1,0
		c0.7-0.3,1.5-0.6,2.2-0.8c0.3-0.1,0.6-0.1,0.8,0c0.4,0.2,0.9,0.4,1.4,0.5c0.5,0.1,0.6,0.2,0.6-0.4v-0.1c0.1-0.2-0.1-0.4-0.3-0.4
		c-0.5-0.2-1.1-0.4-1.6-0.6c-0.5-0.2-0.8-0.1-1.3,0c-0.7,0.3-1.5,0.6-2.2,0.8c-0.1,0.1-0.4,0.1-0.5,0.1c-0.7-0.3-1.5-0.5-2.2-0.8
		v-0.4c0.6,0.1,1.3,0.4,1.8,0.6c0.4,0.1,0.7,0.1,1,0c0.8-0.3,1.6-0.6,2.4-0.8c0.2-0.1,0.4-0.1,0.6,0c0.5,0.3,1.1,0.4,1.6,0.6
		c0.7,0.3,0.7,0.2,0.7-0.6c0-0.2-0.1-0.4-0.3-0.4c-0.6-0.2-1.2-0.4-1.8-0.6c-0.4-0.1-0.7-0.1-1.1,0c-0.7,0.3-1.4,0.6-2.1,0.8
		c-0.2,0.1-0.4,0.2-0.6,0.1c-0.6-0.2-1.2-0.4-1.7-0.6c0-0.1,0.1-0.3,0.2-0.4c0.4,0.1,0.8,0.3,1.2,0.4c0.3,0.1,0.6,0.1,0.9,0
		c0.8-0.3,1.6-0.6,2.3-0.9c0.3-0.1,0.6-0.1,0.9,0.1c0.4,0.2,0.9,0.4,1.4,0.6c0.2,0.1,0.4,0.4,0.6,0.1c0.2-0.2,0-0.4,0-0.6
		c0.1-0.2-0.1-0.4-0.3-0.4l-1.8-0.7c-0.3-0.1-0.6-0.1-0.8,0c-0.7,0.3-1.5,0.6-2.3,0.8v-0.4c0.7-0.3,1.5-0.6,2.2-0.8
		c0.3-0.1,0.6-0.2,0.9,0c0.2,0.1,0.4,0.1,0.6,0.2c0.5,0.1,1,0.4,1.5,0.5c0.1-0.3-0.1-0.5-0.1-0.8c0-0.2-0.1-0.3-0.3-0.4
		c-0.5-0.2-1-0.4-1.4-0.6c-0.5-0.2-0.9-0.2-1.4,0c-0.7,0.3-1.4,0.6-2.1,0.8c-0.1,0.1-0.3,0.1-0.5,0.1c-0.4-0.1-0.8-0.3-1.2-0.5
		c0-0.1,0.1-0.3,0.1-0.4c0.2,0.1,0.5,0.1,0.7,0.2c0.4,0.2,0.8,0.1,1.1,0c0.8-0.3,1.6-0.6,2.3-0.8c0.2-0.1,0.4-0.1,0.6,0
		c0.4,0.1,0.8,0.4,1.2,0.5c0.2,0.1,0.5,0.2,0.8,0.1c-0.1-0.2-0.1-0.4-0.1-0.6c-0.1-0.2-0.2-0.5-0.6-0.6c-0.4-0.1-0.6-0.2-0.9-0.4
		c-0.4-0.2-0.8-0.3-1.3-0.1c-0.6,0.3-1.3,0.5-2,0.8c-0.2,0.1-0.5,0.2-0.8,0.1c-0.3-0.1-0.6-0.1-0.8-0.3v-0.4
		c0.1,0.1,0.4,0.1,0.5,0.1c0.4,0.1,0.6,0.1,0.9,0c0.7-0.3,1.4-0.5,2.1-0.8c0.5-0.2,0.9-0.1,1.3,0.1c0.1,0,0.1,0.1,0.2,0.1
		c0.2,0.1,0.4,0.2,0.6,0.2c0.1,0,0.2-0.1,0.2-0.2c0-0.1-0.1-0.6-0.2-0.8c0-0.1-0.1-0.1-0.1-0.1c-0.4-0.1-0.7-0.3-1.1-0.4
		c-0.2-0.1-0.4-0.1-0.6,0c-0.7,0.3-1.5,0.5-2.2,0.8c-0.5,0.2-0.9,0.3-1.4,0l0.1-0.4c0.5,0.2,0.9,0.1,1.3-0.1
		c0.7-0.3,1.5-0.6,2.2-0.8c0.1-0.1,0.3-0.1,0.4,0c0.1,0.1,0.4,0.1,0.6,0.3c0.2,0.1,0.3,0.1,0.4,0l-0.4-1c0-0.1-0.1-0.1-0.1-0.2
		c-0.3-0.1-0.6-0.3-1-0.1c-0.1,0.1-0.4,0.1-0.5,0.2c-0.8,0.3-1.5,0.6-2.3,0.8v-0.4c0.6-0.3,1.1-0.4,1.6-0.6c0.6-0.2,1.1-0.6,1.8-0.5
		c-0.1-0.3-0.2-0.5-0.4-0.7c-0.1-0.2-0.3-0.3-0.5-0.2c-0.4,0.1-0.8,0.3-1.2,0.4c-0.4,0.1-1,0.4-1.5,0.5v-0.4
		c0.7-0.2,1.4-0.5,2.1-0.8c0.7-0.2,0.7-0.3,0.3-0.8c-0.1-0.2-0.3-0.2-0.5-0.1c-0.4,0.1-0.8,0.3-1.2,0.4l-0.1-0.4
		c0.4-0.3,0.8-0.2,1.2-0.6c-0.1-0.2-0.3-0.4-0.4-0.6s0-0.7-0.2-0.6c-0.2,0.1-0.5,0.3-0.8,0.3l-0.1-0.4c0.2-0.1,0.5-0.1,0.7-0.4
		c-0.4-0.6-0.6-0.7-1.2-0.9l-0.4-0.1c-0.1-0.2,0.1-0.4-0.1-0.6l-0.1-0.1l0,0c-0.6-0.6-1.3-1.1-2.1-1.6c-0.1-0.1-0.3-0.1-0.4-0.1
		c0-0.2-0.1-0.4-0.4-0.4c-0.4-0.2-0.8-0.5-1.2-0.6c-0.2-0.1-0.4-0.3-0.6-0.4c-1.5-0.7-3.1-1.1-4.7-1.5c-0.2,0-0.4,0-0.6,0
		C32.9,56,32.6,56.2,32.4,56.1z M19.6,91c0.7,0.6,1.1,0.7,1.8,0.4c0.1-0.1,0.3-0.1,0.4-0.1c0.1-0.1,0.3-0.1,0.4,0
		c0.8,0.4,1.8,0.6,2.6,1c0.2,0.1,0.5,0.1,0.8,0c0.8-0.4,1.7-0.6,2.5-0.9c0.1-0.1,0.4-0.1,0.5,0c0.8,0.4,1.8,0.6,2.6,1
		c0.2,0.1,0.5,0.1,0.7,0l2.4-0.9c0.3-0.1,0.5-0.1,0.8,0c0.8,0.4,1.6,0.6,2.4,0.9c0.2,0.1,0.4,0.1,0.6,0c0.9-0.4,1.8-0.8,2.5-1.3
		c0.3-0.2,0.6-0.3,0.9-0.6c-0.3-0.1-0.5-0.1-0.8,0c-0.8,0.3-1.6,0.6-2.5,0.9c-0.3,0.1-0.6,0.1-0.8,0c-0.8-0.3-1.6-0.6-2.3-0.8
		c-0.3-0.1-0.6-0.1-0.9,0l-2.4,0.9c-0.2,0.1-0.4,0.1-0.6,0c-0.8-0.3-1.6-0.6-2.4-0.9c-0.3-0.1-0.6-0.1-1,0c-0.8,0.3-1.6,0.6-2.4,0.9
		c-0.2,0.1-0.5,0.1-0.7,0c-0.8-0.3-1.6-0.6-2.5-0.9c-0.2-0.1-0.4-0.1-0.6-0.1L19.6,91z M21.4,91.9c0,0.1,0.1,0.1,0.1,0.1
		c1.3,0.6,2.8,1.1,4.2,1.3c0.4,0.1,0.6,0.1,1,0c0.4-0.1,0.8-0.4,1.3-0.5c0.2-0.1,0.4-0.1,0.6,0c0.6,0.2,1.2,0.4,1.8,0.7
		c0.6,0.3,1.3,0.2,2,0c0.6-0.2,1.1-0.4,1.7-0.6c0.2-0.1,0.5-0.3,0.8-0.1c0.7,0.4,1.3-0.1,2-0.3c-0.6-0.3-1.1-0.4-1.6-0.7
		c-0.6-0.2-0.8-0.1-1.2,0c-0.7,0.3-1.4,0.6-2.1,0.8c-0.3,0.1-0.6,0.1-0.8,0c-0.8-0.4-1.7-0.6-2.5-0.9c-0.1-0.1-0.4-0.1-0.5,0
		c-0.8,0.4-1.7,0.6-2.5,1c-0.3,0.1-0.6,0.1-0.8,0c-0.8-0.3-1.6-0.6-2.4-0.9C22,91.7,21.7,91.7,21.4,91.9z M27.4,93.7
		c0.8,0,1.4,0.2,2.2,0.1C28.9,93.4,28.2,93.1,27.4,93.7z"/>
	<path class="st1" d="M66.2,54.4h4c0.4,0,0.8,0.1,1.2,0.3c0.6,0.4,0.9,1,0.9,1.7c0,1.1,0,2.2,0,3.3c0,1.3,0,2.6,0,4
		c0,0.2,0,0.4,0,0.6c0,9.6,0,19.2,0,28.8c0,1.3-1.1,2.1-2,2.1c-3.4,0-6.8,0-10.2,0c-1.2,0-2-0.9-2-2.1c0-4.5,0-9,0-13.5
		c0-0.2,0-0.4,0-0.6c0-0.2,0-0.3,0-0.4c0-4.4,0-8.9,0-13.3c0-0.1,0-0.3,0-0.4c0-0.1,0-0.4,0-0.6c0-2.5,0-5.1,0-7.6
		c0-1.4,0.9-2.3,2.3-2.3c1.8,0,3.5,0,5.3,0L66.2,54.4z M59.2,92.8c0,0.1,0,0.4,0,0.5c0,0.6,0.4,0.9,0.8,1c0.1,0,0.3,0,0.4,0h9.8
		c0.6-0.1,1-0.4,1.1-1.1c0-0.1,0-0.3,0-0.4c0.1-0.6,0.1-1.3,0-2c0-0.8,0.1-1.6,0-2.3c0-1.7,0-3.4,0-5.1c0-0.4,0-0.6,0-1
		c0-0.1,0-0.1,0-0.3c0-4.2,0-8.5,0-12.8c0-0.1,0-0.2,0-0.4c0.1-0.6,0.1-1.3,0-1.9c0.1-1.2,0-2.4,0-3.6c0.1-1.7,0-3.3,0-5
		c0-0.7,0-1.5,0-2.2c0-0.6-0.4-0.9-0.9-1c-0.1,0-0.3,0-0.4,0h-9.5c-0.1,0-0.3,0-0.4,0c-0.6,0.1-0.9,0.4-0.9,1c0,0.7,0,1.5,0,2.2
		c0,0.8,0,1.8,0,2.6c0,0.8,0,1.6,0,2.4c0,1.2-0.1,2.4,0,3.6c0,0.6,0,1.3,0,1.9c0,0.1,0,0.3,0,0.4c0,4.2,0,8.3,0,12.5
		c0,0.1,0,0.3,0,0.4c-0.1,2,0,4,0,6.1c0,0.8,0,1.6,0,2.3C59.2,91.6,59.1,92.2,59.2,92.8z"/>
	<path class="st3" d="M58.1,64.9c0,0.1,0,0.3,0,0.4c0,4.4,0,8.9,0,13.3c0,0.1,0,0.3,0,0.4c-0.4,0-0.8,0.4-1.1,0.6
		c-1.1,0.8-2.2,1.5-3.3,2.2c-1.3,0.8-2.6,1.5-4,2.3c-0.2,0.1-0.5,0.3-0.8,0.1c0.4-0.8,0.7-1.5,1-2.3c1.1-2.8,1.5-5.6,1.3-8.6
		c-0.1-0.9-0.2-1.8-0.4-2.8c0.4-0.1,0.8,0.1,1.1-0.3c0.1-0.1,0.3-0.2,0.5-0.4c1.1-0.9,2.2-1.8,3.2-2.8c0.7-0.7,1.4-1.3,2.1-2
		C57.8,65,57.8,64.9,58.1,64.9z"/>
	<path class="st14" d="M42.4,75c0.6,0.3,1.1,0.4,1.7,0.6c0.2,0.1,0.4-0.1,0.6-0.1c0.7-0.3,1.4-0.5,2.1-0.8c0.4-0.1,0.7-0.1,1.1,0
		c0.6,0.3,1.2,0.4,1.8,0.6c0.2,0.1,0.3,0.2,0.3,0.4c0,0.8,0,0.8-0.7,0.6c-0.5-0.2-1.1-0.4-1.6-0.6c-0.2-0.1-0.4-0.1-0.6,0
		c-0.8,0.3-1.6,0.6-2.4,0.8c-0.3,0.1-0.7,0.1-1,0c-0.6-0.2-1.2-0.5-1.8-0.6c-0.4-0.3-0.9-0.4-1.5-0.1c-0.7,0.3-1.5,0.6-2.2,0.8
		c-0.4,0.1-0.7,0.1-1.1,0c-0.6-0.4-1.3-0.5-1.9-0.8c-0.4-0.2-0.8-0.1-1.3,0c-0.7,0.3-1.5,0.6-2.2,0.8c-0.2,0.1-0.4,0.1-0.6,0.1
		c-0.8-0.4-1.7-0.5-2.5-0.9c-0.3-0.1-0.6-0.1-0.9-0.1c-0.8,0.4-1.6,0.6-2.5,0.9c-0.2,0.1-0.4,0.1-0.6,0c-0.7-0.3-1.5-0.6-2.2-0.8
		c-0.5-0.2-0.9-0.1-1.4,0c-0.7,0.3-1.4,0.6-2.1,0.8c-0.2,0.1-0.4,0.1-0.6,0c-0.7-0.3-1.5-0.5-2.2-0.8c-0.3-0.1-0.6-0.4-0.8-0.2
		c-0.8,0.3-1.6,0.6-2.5,0.9c-0.3,0.1-0.7,0.1-1,0c-0.6-0.3-1.3-0.5-2-0.7c-0.1-0.4-0.1-0.7-0.1-1.1c0.6,0.2,1.3,0.5,2,0.7
		c0.4,0.1,0.7,0.1,1.1,0c0.7-0.3,1.4-0.6,2.1-0.8c0.4-0.1,0.6-0.2,1-0.1c0.7,0.3,1.5,0.6,2.2,0.8c0.4,0.1,0.7,0.1,1.1,0
		c0.7-0.3,1.5-0.6,2.3-0.8c0.2-0.1,0.5-0.1,0.7,0c0.8,0.3,1.6,0.6,2.3,0.8c0.3,0.1,0.6,0.1,0.8,0c0.8-0.3,1.5-0.6,2.3-0.8
		c0.4-0.1,0.8-0.1,1.1,0c0.7,0.3,1.4,0.5,2.1,0.8c0.4,0.1,0.7,0.1,1.1,0c0.8-0.3,1.5-0.6,2.3-0.8c0.2-0.1,0.5-0.1,0.7,0
		c0.8,0.3,1.6,0.6,2.3,0.8c0.4,0.1,0.6,0.1,1,0c0.8-0.3,1.6-0.6,2.3-0.9c0.3-0.1,0.6-0.1,0.8,0C41.8,74.8,42.1,74.9,42.4,75z"/>
	<path class="st14" d="M44.8,74c0.8-0.3,1.5-0.6,2.3-0.8c0.3-0.1,0.6-0.1,0.8,0l1.8,0.7c0.2,0.1,0.4,0.2,0.3,0.4
		c-0.1,0.2,0.1,0.5,0,0.6c-0.2,0.2-0.4-0.1-0.6-0.1c-0.5-0.1-0.9-0.3-1.4-0.6c-0.3-0.1-0.6-0.2-0.9-0.1c-0.8,0.3-1.6,0.6-2.3,0.9
		c-0.3,0.1-0.6,0.1-0.9,0c-0.4-0.1-0.8-0.4-1.2-0.4c-0.4-0.3-0.8-0.3-1.2-0.5c-0.2-0.1-0.4-0.1-0.6,0c-0.8,0.3-1.6,0.6-2.4,0.9
		c-0.3,0.1-0.7,0.1-1,0c-0.8-0.3-1.6-0.6-2.3-0.8c-0.3-0.1-0.6-0.1-0.8,0L32,75.1c-0.3,0.1-0.6,0.1-0.9,0c-0.6-0.3-1.3-0.5-2-0.7
		c-0.1-0.1-0.3-0.1-0.4-0.1c-0.3-0.2-0.5-0.1-0.8-0.1c-0.8,0.3-1.7,0.6-2.5,0.9c-0.2,0.1-0.4,0.1-0.6,0c-0.8-0.3-1.6-0.6-2.5-0.9
		c-0.2-0.1-0.5-0.1-0.7,0c-0.7,0.3-1.4,0.5-2.1,0.8s-1.1,0.2-1.6,0c-0.6-0.2-1.1-0.5-1.8-0.6c-0.3-0.2-0.6-0.2-1-0.1
		c-0.8,0.3-1.6,0.6-2.5,0.9c-0.2,0.1-0.4,0.1-0.6,0l-2.2-0.8c0-0.4,0-0.6,0.1-1c0.6,0.2,1.3,0.4,1.9,0.7c0.4,0.1,0.7,0.1,1.1,0
		c0.7-0.3,1.4-0.5,2.1-0.8c0.4-0.1,0.8-0.1,1.1,0c0.4,0.1,0.9,0.3,1.3,0.5c0.1,0.1,0.4,0.1,0.5,0.2c0.4,0.2,0.9,0.2,1.4,0
		c0.7-0.3,1.5-0.6,2.3-0.8c0.2-0.1,0.4-0.1,0.6,0c0.8,0.3,1.6,0.6,2.4,0.9c0.3,0.1,0.6,0.1,0.8,0c0.8-0.3,1.6-0.6,2.4-0.9
		c0.3-0.1,0.6-0.1,0.8,0c0.8,0.3,1.6,0.6,2.3,0.8c0.3,0.1,0.6,0.1,1,0c0.8-0.3,1.6-0.6,2.3-0.8c0.3-0.1,0.6-0.1,0.8,0
		c0.7,0.3,1.5,0.6,2.3,0.8c0.3,0.1,0.6,0.2,0.9,0.1c0.8-0.3,1.6-0.6,2.5-0.9c0.2-0.1,0.5-0.1,0.7,0c0.8,0.3,1.6,0.6,2.5,0.9
		C44.2,74.2,44.5,74.1,44.8,74z"/>
	<path class="st14" d="M43,72c0.4,0.1,0.8,0.3,1.2,0.5c0.2,0.1,0.4,0,0.5-0.1c0.7-0.3,1.4-0.5,2.1-0.8c0.5-0.2,0.9-0.2,1.4,0
		c0.5,0.2,0.9,0.4,1.4,0.6c0.2,0.1,0.3,0.1,0.3,0.4s0.1,0.5,0.1,0.8c-0.6-0.1-1-0.4-1.5-0.5c-0.2-0.1-0.4-0.1-0.6-0.2
		c-0.3-0.1-0.6-0.1-0.9,0c-0.7,0.3-1.5,0.6-2.2,0.8c-0.3,0.1-0.6,0.1-0.8,0.1c-0.6-0.2-1.3-0.4-1.9-0.6c-0.2-0.1-0.5-0.1-0.7-0.3
		c-0.2-0.1-0.4-0.1-0.6-0.1c-0.8,0.3-1.7,0.6-2.5,0.9c-0.3,0.1-0.6,0.1-0.8,0c-0.8-0.3-1.6-0.6-2.4-0.9c-0.2-0.1-0.5-0.1-0.8,0
		c-0.8,0.3-1.6,0.6-2.3,0.8c-0.3,0.1-0.6,0.1-0.9,0c-0.8-0.3-1.6-0.6-2.3-0.8c-0.3-0.1-0.6-0.1-0.9,0c-0.8,0.4-1.7,0.6-2.5,0.9
		c-0.1,0.1-0.4,0.1-0.5,0c-0.8-0.4-1.8-0.6-2.7-1c-0.1-0.1-0.4-0.1-0.5,0c-0.8,0.3-1.5,0.6-2.3,0.8c-0.4,0.1-0.7,0.2-1.1,0.1
		c-0.2-0.1-0.4-0.2-0.7-0.2c-0.6-0.3-1.2-0.5-1.8-0.7c-0.2-0.1-0.4,0-0.5,0.1c-0.8,0.3-1.6,0.6-2.4,0.9c-0.3,0.1-0.5,0.1-0.8,0.1
		l-2.1-0.8c0-0.4,0.1-0.6,0.1-1c0.6,0.2,1.3,0.4,1.8,0.7c0.2,0.1,0.5,0.1,0.8,0c0.8-0.3,1.6-0.6,2.4-0.9c0.2-0.1,0.5-0.1,0.8,0
		c0.8,0.4,1.7,0.6,2.5,0.9c0.2,0.1,0.4,0.1,0.6,0c0.7-0.3,1.5-0.5,2.2-0.8c0.4-0.2,0.9-0.2,1.4,0c0.7,0.3,1.4,0.6,2.1,0.8
		c0.3,0.1,0.6,0.1,0.8-0.1c0.8-0.3,1.6-0.6,2.4-0.8c0.2-0.1,0.4-0.1,0.6,0c0.8,0.3,1.7,0.6,2.5,0.9c0.3,0.1,0.6,0.1,0.8,0l2-0.8
		c0.4-0.1,0.8-0.3,1.2-0.1c0.7,0.3,1.5,0.6,2.3,0.8c0.3,0.1,0.6,0.1,0.9,0c0.8-0.3,1.6-0.6,2.3-0.8c0.3-0.1,0.6-0.1,1,0
		C42,71.8,42.5,72,43,72z"/>
	<path class="st14" d="M10.1,77.6c-0.1-0.4-0.1-0.8-0.1-1.1c0.7,0.3,1.4,0.5,2.1,0.8c0.3,0.1,0.5,0.1,0.8,0c0.7-0.3,1.4-0.5,2.1-0.8
		c0.4-0.1,0.8-0.2,1.2-0.1c0.7,0.4,1.5,0.6,2.3,0.8c0.2,0.1,0.5,0.1,0.8,0c0.7-0.3,1.5-0.6,2.3-0.8c0.4-0.1,0.7-0.1,1,0
		c0.8,0.3,1.6,0.6,2.4,0.9c0.2,0.1,0.4,0.1,0.6,0.1c0.8-0.4,1.7-0.6,2.5-1c0.3-0.1,0.6-0.1,0.8,0c0.8,0.3,1.7,0.6,2.5,0.9
		c0.2,0.1,0.4,0.1,0.6,0c0.7-0.3,1.5-0.6,2.2-0.8c0.4-0.2,0.9-0.2,1.3,0c0.7,0.3,1.5,0.6,2.2,0.8c0.2,0.1,0.5,0.1,0.7,0
		c0.6-0.2,1.3-0.4,1.8-0.7c0.6-0.3,1.2-0.4,1.8-0.1c0.6,0.3,1.5,0.6,2.2,0.8c0.2,0.1,0.4,0,0.5-0.1c0.7-0.3,1.5-0.5,2.2-0.8
		c0.4-0.1,0.8-0.2,1.3,0c0.4,0.2,1.1,0.4,1.6,0.6c0.2,0.1,0.4,0.2,0.3,0.4v0.1c-0.1,0.6-0.1,0.6-0.6,0.4c-0.6-0.2-0.9-0.4-1.4-0.5
		c-0.3-0.1-0.6-0.1-0.8,0c-0.7,0.3-1.5,0.6-2.2,0.8c-0.4,0.1-0.8,0.1-1.1,0c-0.7-0.3-1.5-0.6-2.3-0.8c-0.3-0.1-0.6-0.1-0.8,0
		c-0.8,0.4-1.6,0.6-2.5,0.9c-0.2,0.1-0.4,0.1-0.7,0c-0.8-0.4-1.6-0.6-2.5-1c-0.3-0.1-0.6-0.1-0.8,0c-0.8,0.3-1.6,0.6-2.3,0.8
		c-0.2,0.1-0.4,0.1-0.6,0.1c-0.6-0.1-1.1-0.4-1.6-0.5c-0.4-0.1-0.8-0.3-1.3-0.5c-0.2-0.1-0.4-0.1-0.5,0c-0.8,0.3-1.6,0.6-2.4,0.9
		c-0.3,0.1-0.6,0.1-1,0c-0.8-0.3-1.6-0.6-2.4-0.9c-0.2-0.1-0.4-0.1-0.6,0c-0.7,0.3-1.4,0.5-2,0.8c-0.5,0.2-1,0.3-1.5,0.1
		c-0.8-0.4-1.6-0.6-2.4-0.9c-0.1-0.1-0.3,0-0.4,0.1c-0.8,0.3-1.6,0.6-2.3,0.8c-0.4,0.2-0.8,0.1-1.2,0C11.2,77.9,10.7,77.7,10.1,77.6
		z"/>
	<path class="st14" d="M10.2,71.3c0-0.4,0.1-0.7,0.2-1c0.6,0.2,1.1,0.4,1.6,0.6c0.2,0.1,0.4,0.1,0.6,0c0.8-0.3,1.6-0.6,2.4-0.9
		c0.3-0.1,0.6-0.1,0.8,0c0.7,0.3,1.5,0.6,2.3,0.8c0.4,0.1,0.7,0.1,1.1,0c0.6-0.3,1.3-0.5,2-0.8c0.4-0.2,1-0.2,1.4,0
		c0.6,0.3,1.3,0.6,2,0.8c0.2,0.1,0.4,0.1,0.7,0.1c0.6-0.3,1.3-0.5,2-0.7c0.6-0.3,1.1-0.4,1.8-0.1c0.6,0.3,1.3,0.5,1.9,0.8
		c0.3,0.1,0.6,0.1,0.9,0l0.4-0.1l2-0.7c0.2-0.1,0.4-0.1,0.6,0c0.8,0.3,1.6,0.6,2.4,0.9c0.3,0.1,0.6,0.1,1,0c0.7-0.3,1.5-0.6,2.3-0.8
		c0.4-0.1,0.7-0.1,1.1,0c0.6,0.2,1.1,0.5,1.7,0.6c0.2,0.1,0.5,0.2,0.8,0.3c0.3,0.1,0.5-0.1,0.8-0.1c0.7-0.3,1.3-0.5,2-0.8
		c0.4-0.2,0.8-0.1,1.3,0.1c0.3,0.1,0.6,0.3,0.9,0.4c0.4,0.1,0.5,0.3,0.6,0.6c0.1,0.3,0.1,0.4,0.1,0.6c-0.3,0.1-0.5,0-0.8-0.1
		c-0.4-0.1-0.8-0.4-1.2-0.5c-0.2-0.1-0.4-0.1-0.6,0c-0.8,0.3-1.6,0.6-2.3,0.8c-0.4,0.1-0.7,0.2-1.1,0c-0.2-0.1-0.5-0.1-0.7-0.2
		c-0.6-0.3-1.2-0.4-1.8-0.7c-0.1-0.1-0.3,0-0.5,0l-2.6,1C38,72,37.9,72,37.7,72l-2.3-0.8c-0.5-0.1-0.9-0.3-1.4-0.1
		c-0.7,0.3-1.4,0.5-2.1,0.8c-0.3,0.1-0.6,0.1-0.8,0c-0.8-0.3-1.6-0.6-2.4-0.9c-0.3-0.1-0.6-0.1-0.8,0c-0.7,0.3-1.5,0.6-2.3,0.8
		c-0.4,0.2-0.8,0.1-1.3-0.1c-0.7-0.3-1.5-0.6-2.2-0.8c-0.2-0.1-0.4-0.1-0.6,0c-0.8,0.3-1.6,0.6-2.4,0.9c-0.3,0.1-0.5,0.1-0.8,0
		c-0.8-0.4-1.7-0.6-2.5-0.9c-0.2-0.1-0.4-0.1-0.6,0c-0.8,0.4-1.7,0.6-2.5,0.9c-0.2,0.1-0.4,0.1-0.6,0C11.5,71.8,10.9,71.6,10.2,71.3
		z"/>
	<path class="st15" d="M10.4,79.2c-0.1-0.4-0.2-0.7-0.2-1.1c0.3,0,0.5,0.1,0.7,0.2l1.1,0.4c0.2,0.1,0.5,0.1,0.7,0
		c0.8-0.3,1.6-0.6,2.5-0.9c0.3-0.1,0.6-0.1,0.8,0c0.7,0.3,1.3,0.5,2,0.8c0.4,0.3,0.8,0.3,1.3,0.1c0.7-0.3,1.5-0.6,2.3-0.8
		c0.2-0.1,0.5-0.1,0.7,0c0.8,0.3,1.5,0.6,2.3,0.8c0.3,0.1,0.6,0.2,0.9,0.1c0.8-0.3,1.6-0.6,2.4-0.9c0.3-0.1,0.6-0.1,0.8,0
		c0.7,0.3,1.5,0.6,2.2,0.8c0.4,0.2,0.8,0.1,1.2-0.1c0.7-0.3,1.4-0.6,2.1-0.8c0.2-0.1,0.5-0.1,0.8,0c0.8,0.3,1.6,0.6,2.4,0.8
		c0.3,0.1,0.6,0.1,0.8,0c0.8-0.3,1.6-0.6,2.5-0.9c0.3-0.1,0.5-0.1,0.7,0c0.8,0.3,1.6,0.6,2.3,0.8c0.3,0.1,0.6,0.1,1,0
		c0.7-0.3,1.5-0.6,2.3-0.8c0.3-0.1,0.6-0.1,0.9,0c0.5,0.2,1,0.4,1.6,0.6c0.2,0.1,0.3,0.2,0.2,0.4c-0.2,0.6-0.2,0.6-0.8,0.4
		c-0.4-0.1-0.7-0.2-1.1-0.4c-0.2-0.1-0.4-0.1-0.6,0l-2.3,0.8c-0.4,0.1-0.6,0.1-1,0c-0.8-0.4-1.6-0.6-2.5-0.9c-0.1-0.1-0.4-0.1-0.6,0
		c-0.8,0.3-1.6,0.6-2.4,0.9c-0.4,0.1-0.8,0.2-1.1,0c-0.1,0-0.1-0.1-0.2-0.1c-0.6-0.4-1.3-0.5-2-0.8c-0.2-0.1-0.5-0.1-0.8,0
		c-0.8,0.3-1.5,0.6-2.3,0.8c-0.3,0.1-0.6,0.2-1,0.1c-0.8-0.4-1.6-0.6-2.4-0.9c-0.2-0.1-0.4-0.1-0.6,0c-0.8,0.3-1.6,0.6-2.5,0.9
		c-0.3,0.1-0.6,0.1-0.8,0c-0.8-0.3-1.6-0.6-2.3-0.8c-0.4-0.1-0.7-0.1-1.1,0c-0.7,0.3-1.5,0.6-2.2,0.8c-0.3,0.1-0.6,0.1-0.8,0
		c-0.8-0.3-1.6-0.6-2.3-0.8c-0.3-0.1-0.6-0.1-0.9,0c-0.8,0.3-1.6,0.6-2.3,0.8c-0.3,0.1-0.6,0.1-0.9,0C11.4,79.5,10.9,79.4,10.4,79.2
		z"/>
	<path class="st14" d="M43.7,69.2c0.5,0.3,0.9,0.2,1.4,0c0.7-0.3,1.5-0.6,2.2-0.8c0.2-0.1,0.4-0.1,0.6,0c0.4,0.1,0.7,0.3,1.1,0.4
		c0.1,0,0.1,0.1,0.1,0.1c0.1,0.3,0.1,0.6,0.2,0.8c0.1,0.3-0.1,0.2-0.2,0.2c-0.2,0-0.4-0.1-0.6-0.2c-0.1,0-0.1-0.1-0.2-0.1
		c-0.4-0.2-0.8-0.3-1.3-0.1c-0.7,0.3-1.4,0.6-2.1,0.8c-0.4,0.1-0.6,0.1-0.9,0c-0.1-0.1-0.4-0.1-0.5-0.1c-0.6-0.4-1.3-0.5-2-0.8
		c-0.2-0.1-0.4,0-0.6,0.1c-0.8,0.3-1.6,0.6-2.5,0.9c-0.3,0.1-0.6,0.1-0.8,0c-0.8-0.3-1.6-0.6-2.5-0.9c-0.2-0.1-0.4-0.1-0.6,0
		c-0.7,0.3-1.5,0.6-2.3,0.8c-0.4,0.1-0.8,0.3-1.2,0c-0.1-0.1-0.3-0.1-0.4-0.1c-0.5-0.1-0.9-0.4-1.5-0.5c-0.4-0.3-0.8-0.4-1.3-0.1
		c-0.8,0.3-1.6,0.6-2.3,0.8c-0.3,0.1-0.6,0.1-0.8,0c-0.8-0.3-1.5-0.6-2.3-0.9c-0.2-0.1-0.5-0.1-0.7,0c-0.8,0.3-1.6,0.6-2.5,0.9
		c-0.2,0.1-0.5,0.1-0.7,0c-0.8-0.3-1.6-0.6-2.5-0.9c-0.2-0.1-0.5-0.1-0.8,0c-0.8,0.3-1.6,0.6-2.5,0.9c-0.2,0.1-0.4,0.1-0.6,0
		c-0.5-0.2-1-0.4-1.5-0.5c0.1-0.4,0.1-0.7,0.4-1c0.3,0.2,0.7,0.3,1.1,0.4c0.4,0.1,0.6,0.1,0.8,0c0.8-0.3,1.6-0.6,2.3-0.8
		c0.3-0.1,0.6-0.1,0.9,0c0.7,0.3,1.5,0.6,2.3,0.8c0.4,0.1,0.7,0.1,1,0c0.8-0.3,1.6-0.6,2.4-0.9c0.2-0.1,0.4-0.1,0.6,0l2.5,0.9
		c0.2,0.1,0.5,0.1,0.8,0c0.6-0.2,1.2-0.4,1.8-0.7c0.6-0.3,1.2-0.4,1.8-0.1h0.1c0.6,0.2,1.3,0.5,1.8,0.7c0.3,0.1,0.6,0.1,1,0
		c0.7-0.3,1.5-0.6,2.2-0.8c0.4-0.1,0.7-0.1,1,0c0.8,0.3,1.5,0.6,2.3,0.8c0.3,0.1,0.6,0.1,0.8,0c0.8-0.3,1.6-0.6,2.5-0.9
		c0.2-0.1,0.5-0.1,0.8,0C42.2,68.7,42.9,69,43.7,69.2z"/>
	<path class="st15" d="M11,80.9c-0.1-0.4-0.4-0.8-0.4-1.2c0.5,0.1,0.9,0.3,1.4,0.5c0.3,0.1,0.6,0.1,0.9,0c0.8-0.3,1.5-0.6,2.3-0.8
		c0.4-0.1,0.7-0.1,1,0c0.7,0.3,1.3,0.5,2,0.8c0.4,0.2,0.8,0.1,1.3,0c0.7-0.3,1.5-0.6,2.2-0.8c0.2-0.1,0.4-0.1,0.6,0
		c0.8,0.3,1.6,0.6,2.4,0.9c0.3,0.1,0.7,0.1,1,0c0.8-0.3,1.6-0.6,2.4-0.9c0.2-0.1,0.5-0.1,0.7,0c0.8,0.3,1.6,0.6,2.4,0.9
		c0.3,0.1,0.6,0.1,0.8,0c0.7-0.3,1.5-0.6,2.2-0.8c0.4-0.1,0.8-0.1,1.2,0c0.5,0.2,1,0.4,1.6,0.6c1.3,0.6,0.9,0.4,2,0.1
		c0.6-0.2,1.1-0.4,1.7-0.6c0.3-0.1,0.6-0.1,1,0c0.8,0.3,1.6,0.6,2.4,0.9c0.2,0.1,0.4,0.1,0.6,0c0.7-0.3,1.5-0.6,2.2-0.8
		c0.4-0.1,0.8-0.3,1.3,0c0.3,0.1,0.6,0.2,0.9,0.4c0.3,0.1,0.3,0.1,0.2,0.4c-0.2,0.6-0.2,0.6-0.8,0.4c-0.1-0.1-0.3-0.1-0.4-0.1
		c-0.4-0.2-0.8-0.1-1.3,0.1c-0.7,0.3-1.5,0.6-2.2,0.8c-0.2,0.1-0.4,0.1-0.6,0l-2.4-0.9c-0.2-0.1-0.5-0.1-0.7-0.1l-2.2,0.8
		c-0.1,0-0.2,0-0.3,0.1c-0.2,0.1-0.4,0.1-0.7,0.1c-0.1-0.1-0.2-0.1-0.4-0.1c-0.8-0.3-1.6-0.5-2.3-0.8c-0.2-0.1-0.4-0.1-0.6,0
		c-0.8,0.3-1.6,0.6-2.4,0.8c-0.3,0.1-0.6,0.1-0.9,0c-0.8-0.3-1.6-0.6-2.3-0.8c-0.3-0.1-0.6-0.1-0.9,0c-0.8,0.3-1.6,0.6-2.4,0.9
		c-0.2,0.1-0.4,0.1-0.6,0.1c-0.7-0.3-1.5-0.6-2.2-0.8c-0.4-0.2-0.9-0.2-1.3,0c-0.7,0.3-1.5,0.6-2.2,0.8c-0.2,0.1-0.4,0.1-0.6,0
		c-0.8-0.3-1.6-0.6-2.4-0.9c-0.3-0.1-0.6-0.1-0.9,0c-0.8,0.3-1.6,0.6-2.3,0.8c-0.3,0.1-0.7,0.1-1,0C11.6,81.1,11.3,81.1,11,80.9z"/>
	<path class="st15" d="M11.9,82.8c-0.3-0.1-0.3-0.4-0.4-0.6s-0.2-0.4-0.3-0.6c0.3,0.1,0.6,0.1,0.8,0.3c0.3,0.1,0.6,0.1,0.9,0
		c0.8-0.3,1.5-0.6,2.3-0.8c0.3-0.1,0.6-0.1,1,0c0.8,0.3,1.6,0.6,2.3,0.8c0.2,0.1,0.5,0.1,0.8,0c0.7-0.3,1.4-0.5,2.1-0.8
		c0.4-0.2,0.8-0.2,1.3,0c0.7,0.3,1.5,0.6,2.2,0.8c0.2,0.1,0.4,0.1,0.6,0c0.8-0.3,1.6-0.6,2.5-0.9c0.3-0.1,0.6-0.1,0.9,0
		c0.8,0.3,1.6,0.6,2.4,0.9c0.2,0.1,0.4,0.1,0.6,0c0.8-0.3,1.6-0.6,2.3-0.8c0.4-0.1,0.7-0.3,1.1-0.1c0.1,0.1,0.2,0.1,0.3,0.1
		c0.7,0.3,1.4,0.6,2.2,0.8c0.3,0.2,0.6,0,0.8-0.1l0.2-0.1c0.6-0.2,1.3-0.4,2-0.7c0.3-0.1,0.6-0.1,1,0c0.6,0.3,1.3,0.5,1.9,0.7
		c0.6,0.2,1,0.2,1.6,0c0.6-0.2,1.3-0.5,2-0.7c0.3-0.1,0.6-0.1,1,0l0.7,0.3c0.1,0.1,0.2,0.1,0.1,0.3c-0.4,0.8-0.1,0.7-0.9,0.4
		c-0.3-0.1-0.6-0.1-0.8,0.1c-0.8,0.3-1.5,0.6-2.3,0.8c-0.4,0.1-0.7,0.1-1.1-0.1c-0.4-0.2-0.9-0.4-1.4-0.6c-0.1,0-0.1,0-0.1-0.1
		c-0.7-0.4-1.3-0.3-2,0c-0.6,0.3-1.1,0.4-1.7,0.6c-0.2,0.1-0.5,0.1-0.7,0c-0.8-0.2-1.6-0.5-2.3-0.8c-0.4-0.2-0.8-0.2-1.2,0
		c-0.7,0.3-1.4,0.5-2.1,0.8c-0.3,0.1-0.6,0.1-0.8,0c-0.7-0.3-1.5-0.6-2.3-0.8c-0.4-0.1-0.7-0.1-1.1,0c-0.8,0.4-1.7,0.6-2.5,0.9
		c-0.1,0.1-0.4,0.1-0.5,0c-0.3-0.1-0.6-0.3-0.8-0.3c-0.6-0.3-1.1-0.4-1.7-0.7c-0.2-0.1-0.5-0.1-0.7,0c-0.7,0.3-1.5,0.6-2.2,0.8
		c-0.4,0.1-0.8,0.2-1.2,0c-0.7-0.3-1.5-0.6-2.2-0.8c-0.3-0.1-0.6-0.1-0.9,0c-0.6,0.3-1.2,0.5-1.8,0.7C12.8,82.8,12.4,83.1,11.9,82.8
		z"/>
	<path class="st11" d="M44.4,67.8c0.8-0.2,1.5-0.5,2.2-0.8c0.1-0.1,0.4-0.1,0.5-0.2c0.4-0.2,0.6,0,1,0.1c0.1,0,0.1,0.1,0.1,0.2
		l0.4,1c-0.1,0.1-0.3,0.1-0.4,0c-0.1-0.1-0.4-0.1-0.6-0.3c-0.2-0.1-0.3,0-0.4,0c-0.7,0.3-1.5,0.5-2.2,0.8c-0.4,0.2-0.8,0.3-1.3,0.1
		c-0.8-0.4-1.6-0.6-2.5-0.9c-0.2-0.1-0.4,0-0.5,0.1c-0.8,0.3-1.7,0.6-2.5,0.9c-0.2,0.1-0.5,0.1-0.7,0c-0.8-0.3-1.7-0.6-2.5-0.9
		c-0.1-0.1-0.4-0.1-0.5,0c-0.8,0.3-1.6,0.6-2.4,0.9c-0.4,0.1-0.8,0.1-1.1,0c-0.6-0.2-1.1-0.4-1.7-0.6C29.1,68,28.9,68,28.6,68
		c-0.2-0.1-0.6-0.1-0.9,0c-0.8,0.3-1.6,0.6-2.4,0.8c-0.1,0.1-0.3,0.1-0.5,0.1c-0.4-0.1-0.8-0.1-1.1-0.4c-0.5-0.3-1.1-0.4-1.6-0.6
		c-0.2-0.1-0.4-0.1-0.6,0c-0.8,0.3-1.6,0.6-2.3,0.8c-0.4,0.2-0.8,0.1-1.3,0c-0.7-0.3-1.4-0.6-2.1-0.8c-0.2-0.1-0.5-0.1-0.8,0
		c-0.8,0.4-1.6,0.6-2.5,0.9c-0.2,0.1-0.5,0.1-0.7,0c-0.3-0.1-0.6-0.2-0.9-0.4c0-0.3,0.2-0.6,0.3-0.9c0.3-0.1,0.5,0.1,0.7,0.2
		c0.2,0.1,0.4,0.1,0.6,0c0.8-0.4,1.8-0.6,2.6-1c0.2-0.1,0.4-0.1,0.6,0c0.8,0.3,1.6,0.6,2.4,0.9c0.3,0.1,0.7,0.1,1,0
		c0.8-0.3,1.5-0.6,2.3-0.8c0.2-0.1,0.5-0.1,0.8,0c0.8,0.3,1.6,0.6,2.3,0.8c0.3,0.1,0.6,0.1,1,0c0.8-0.3,1.6-0.6,2.4-0.9
		c0.2-0.1,0.5-0.1,0.7,0c0.7,0.3,1.3,0.6,2,0.8c0.1,0,0.2,0.1,0.3,0.1c0.4,0.2,0.8,0.1,1.1,0c0.6-0.3,1.3-0.5,2-0.8
		c0.4-0.1,0.8-0.2,1.1,0c0.7,0.3,1.4,0.5,2.1,0.8c0.3,0.1,0.7,0.1,1,0c0.8-0.4,1.6-0.6,2.4-0.9c0.2-0.1,0.4-0.1,0.6,0
		c0.9,0.4,1.8,0.6,2.7,1C44.2,67.9,44.3,68,44.4,67.8z"/>
	<path class="st15" d="M12.6,84.5c-0.2-0.4-0.5-0.6-0.6-1.1c0.2,0,0.4,0.1,0.6,0c0.8-0.4,1.7-0.6,2.5-1c0.3-0.1,0.6-0.1,0.8,0
		c0.7,0.3,1.5,0.6,2.2,0.8c0.4,0.2,0.8,0.1,1.2-0.1c0.7-0.3,1.5-0.6,2.2-0.8c0.2-0.1,0.5-0.1,0.7,0c0.5,0.2,1.1,0.4,1.6,0.6h0.1
		c1.5,0.6,1,0.5,2.3,0c0.6-0.2,1.1-0.4,1.7-0.6c0.3-0.1,0.5-0.1,0.7,0.1c0.7,0.3,1.3,0.5,2,0.8c0.6,0.3,1.1,0.2,1.6-0.1
		c0.7-0.3,1.3-0.6,2-0.8c0.1-0.1,0.4-0.1,0.5,0l2.7,1c0.2,0.1,0.4,0.1,0.6,0c0.8-0.4,1.8-0.6,2.6-1c0.1-0.1,0.4-0.1,0.5,0
		c0.8,0.3,1.5,0.6,2.3,0.8c0.4,0.1,0.8,0.2,1.2,0.1c0.8-0.3,1.6-0.6,2.5-0.9c0.4-0.1,0.6,0,0.9,0.1c0.1,0,0.1,0.1,0.1,0.1
		c0.1,0.2-0.3,0.8-0.5,0.8c-0.6,0-1.1,0.4-1.7,0.5c-0.6,0.2-0.9,0.4-1.4,0.6c-0.2,0.1-0.4,0.1-0.6,0c-0.8-0.3-1.6-0.6-2.4-0.8
		c-0.1,0-0.1-0.1-0.2-0.1c-0.2-0.2-0.4-0.1-0.6-0.1c-0.8,0.4-1.7,0.6-2.5,0.9c-0.2,0.1-0.5,0.1-0.7,0l-2.5-1c-0.1-0.1-0.3-0.1-0.4,0
		c-0.2,0.1-0.4,0.1-0.6,0.3c-0.6,0.1-1.2,0.4-1.8,0.6c-0.4,0.1-0.7,0.2-1.1,0.1c-0.8-0.3-1.6-0.5-2.3-0.8c-0.3-0.1-0.6-0.1-0.8,0
		c-0.8,0.3-1.6,0.6-2.4,0.9c-0.2,0.1-0.5,0.1-0.8,0c-0.8-0.3-1.6-0.5-2.3-0.8c-0.4-0.2-0.8-0.1-1.1,0c-0.7,0.3-1.5,0.6-2.2,0.8
		c-0.2,0.1-0.5,0.1-0.8,0c-0.8-0.3-1.6-0.6-2.5-0.9c-0.2-0.1-0.4-0.1-0.6-0.1s-0.6,0.2-0.8,0.3C13.9,84,13.3,84.3,12.6,84.5z"/>
	<path class="st11" d="M44.2,66.3c0.6-0.1,1-0.4,1.5-0.5c0.5-0.1,0.8-0.3,1.2-0.4c0.2-0.1,0.4-0.1,0.5,0.2c0.1,0.2,0.3,0.4,0.4,0.7
		c-0.6-0.1-1.2,0.3-1.8,0.5c-0.6,0.2-1.1,0.4-1.6,0.6c-0.1,0-0.2,0-0.3-0.1l-2.7-1c-0.1-0.1-0.4-0.1-0.5,0c-0.8,0.4-1.7,0.6-2.5,1
		c-0.3,0.1-0.6,0.1-0.8,0c-0.8-0.3-1.6-0.6-2.4-0.9c-0.2-0.1-0.5-0.1-0.7,0c-0.6,0.3-1.3,0.4-2,0.7s-1.1,0.4-1.6,0.1s-1.3-0.6-2-0.8
		c-0.4-0.1-0.8-0.1-1.1,0.1c-0.7,0.3-1.4,0.5-2.1,0.8c-0.3,0.1-0.6,0.1-0.8,0c-0.8-0.3-1.6-0.6-2.3-0.8c-0.4-0.1-0.6-0.1-0.9,0
		c-0.8,0.3-1.6,0.6-2.3,0.9c-0.2,0.1-0.4,0.1-0.6,0c-0.8-0.4-1.7-0.6-2.5-0.9c-0.1-0.1-0.4-0.1-0.5-0.1c-0.8,0.4-1.8,0.6-2.7,1
		c-0.2,0.1-0.4,0.1-0.6,0l-0.4-0.2c0.1-0.4,0.2-0.6,0.5-0.9c0.1,0.1,0.4,0.1,0.5,0.1c0.8-0.3,1.6-0.6,2.5-0.9c0.3-0.1,0.6-0.1,0.8,0
		c0.7,0.3,1.4,0.5,2.1,0.8c0.5,0.2,0.8,0.2,1.3,0c0.7-0.3,1.5-0.6,2.2-0.8c0.2-0.1,0.4-0.1,0.6,0c0.8,0.3,1.6,0.6,2.4,0.9
		c0.3,0.1,0.6,0.1,0.9,0c0.8-0.4,1.6-0.6,2.4-0.9c0.2-0.1,0.5-0.1,0.7,0c0.4,0.1,0.6,0.3,1,0.4c0.4,0.2,0.9,0.4,1.4,0.6
		c0.4,0.2,0.6,0.1,0.9,0l2.3-0.8c0.3-0.1,0.6-0.1,0.8,0c0.8,0.3,1.5,0.6,2.3,0.8c0.3,0.1,0.6,0.1,0.9,0c0.7-0.3,1.5-0.6,2.3-0.8
		c0.4-0.1,0.7-0.1,1.1,0C42.5,65.7,43.4,66.1,44.2,66.3z"/>
	<path class="st11" d="M12.3,65.8l0.6-1.1c0.1-0.1,0.2-0.3,0.4-0.4c0.6-0.1,1.3-0.4,1.8-0.6c0.2-0.1,0.5-0.1,0.7,0
		c0.7,0.3,1.4,0.5,2.1,0.8c0.5,0.2,1,0.2,1.5,0c0.7-0.3,1.4-0.5,2.1-0.8c0.2-0.1,0.5-0.1,0.8,0c0.8,0.3,1.6,0.6,2.4,0.9
		c0.3,0.1,0.6,0.1,0.8,0c0.6-0.2,1.2-0.4,1.8-0.7c0.6-0.3,1.1-0.4,1.8-0.1c0.1,0.1,0.3,0.1,0.5,0.1c0.6,0.2,1.3,0.5,1.9,0.6
		c0.9-0.2,1.7-0.6,2.5-0.9c0.5-0.1,0.8-0.2,1.3,0c0.7,0.3,1.5,0.6,2.2,0.8c0.2,0.1,0.4,0.1,0.6,0c0.9-0.4,1.8-0.6,2.7-1
		c0.2-0.1,0.4-0.1,0.6,0c0.8,0.3,1.6,0.6,2.4,0.9c0.4,0.1,0.8,0.1,1.1-0.1c0.4-0.3,0.8-0.3,1.2-0.4c0.2-0.1,0.4-0.1,0.5,0.1
		c0.4,0.6,0.4,0.6-0.3,0.8c-0.7,0.2-1.4,0.6-2.1,0.8l-2.9-1.1c-0.2-0.1-0.4-0.1-0.6,0l-2.5,0.9c-0.1,0.1-0.4,0.1-0.5,0.1
		c-0.6-0.4-1.4-0.4-2.1-0.8c-0.6-0.4-1.1-0.4-1.8-0.1s-1.3,0.5-2,0.8c-0.2,0.1-0.5,0.1-0.8,0c-0.4-0.1-0.8-0.4-1.2-0.4
		c-0.4-0.3-0.8-0.3-1.2-0.5c-0.2-0.1-0.4-0.1-0.6,0c-0.8,0.3-1.6,0.6-2.4,0.9c-0.3,0.1-0.6,0.1-0.9,0c-0.8-0.3-1.6-0.6-2.3-0.8
		c-0.3-0.1-0.6-0.1-0.9,0l-2.7,0.9c-0.2,0.1-0.4,0.1-0.6,0c-0.8-0.3-1.6-0.6-2.5-0.9c-0.2-0.1-0.4-0.1-0.6,0
		c-0.6,0.2-1.2,0.4-1.8,0.6C13.1,65.6,12.8,65.8,12.3,65.8z"/>
	<path class="st15" d="M33.9,84.2c0.6-0.3,1.2-0.2,1.8,0.1s1.2,0.4,1.8,0.7c0.2,0.1,0.5,0.1,0.8,0c0.8-0.3,1.7-0.6,2.5-0.9
		c0.2-0.1,0.4-0.1,0.6,0c0.8,0.3,1.6,0.6,2.4,0.9c0.4,0.1,0.7,0.1,1.1,0c0.8-0.3,1.6-0.6,2.4-0.9l0.2-0.1c0,0.2-0.1,0.4-0.2,0.6
		c-0.3,0.5-0.6,0.8-1.2,1c-0.6,0.1-1.1,0.4-1.6,0.6c-0.2,0.1-0.4,0.1-0.6,0c-0.9-0.4-1.8-0.6-2.8-1c-0.1-0.1-0.4-0.1-0.5,0
		c-0.8,0.4-1.7,0.6-2.5,0.9c-0.2,0.1-0.5,0.1-0.8,0c-0.8-0.3-1.6-0.6-2.5-0.9c-0.2-0.1-0.4-0.1-0.6,0L31.9,86
		c-0.3,0.1-0.6,0.1-0.8,0c-0.8-0.4-1.7-0.6-2.5-1c-0.2-0.1-0.4-0.1-0.6,0.1L25.5,86c-0.3,0.1-0.6,0.1-0.8,0
		c-0.7-0.3-1.5-0.6-2.2-0.8c-0.4-0.2-0.8-0.1-1.3,0c-0.7,0.3-1.4,0.5-2.1,0.8c-0.3,0.1-0.6,0.1-0.8,0c-0.8-0.3-1.6-0.6-2.3-0.8
		C15.8,85,15.5,85,15.3,85l-1.8,0.7c-0.2-0.3-0.6-0.5-0.6-0.9c0.1,0,0.3-0.1,0.4-0.1c0.6-0.2,1.2-0.4,1.8-0.7c0.3-0.1,0.6-0.1,0.8,0
		c0.7,0.3,1.5,0.6,2.3,0.8c0.4,0.1,0.8,0.1,1.1,0c0.7-0.3,1.5-0.6,2.2-0.8c0.2-0.1,0.4-0.1,0.6,0c0.8,0.4,1.6,0.6,2.5,0.9
		c0.3,0.1,0.6,0.1,0.8,0c0.8-0.3,1.6-0.6,2.4-0.9c0.3-0.1,0.6-0.1,0.8,0c0.8,0.3,1.6,0.6,2.5,0.9c0.1,0.1,0.3,0.1,0.5,0.1
		C32.5,84.7,33.2,84.5,33.9,84.2z"/>
	<path class="st11" d="M44.4,63.2c0.3,0,0.5-0.1,0.8-0.3c0.3-0.1,0.4-0.1,0.5,0.1c0.1,0.1,0.3,0.4,0.4,0.6c-0.4,0.4-0.8,0.3-1.2,0.6
		s-0.8,0.1-1.1-0.1c-0.7-0.3-1.5-0.6-2.3-0.8c-0.2-0.1-0.4-0.1-0.6-0.1c-0.9,0.4-1.8,0.6-2.7,1c-0.4,0.1-0.6,0.1-0.8-0.1
		c-0.1-0.1-0.2-0.1-0.3-0.1c-0.6-0.2-1.3-0.4-2-0.7c-0.3-0.1-0.6-0.1-0.8,0l-2.8,1.1c-0.2-0.1-0.4-0.1-0.6-0.2
		c-0.8-0.3-1.7-0.5-2.4-0.9c-0.1-0.1-0.3-0.1-0.4,0c-0.8,0.4-1.8,0.6-2.6,1c-0.3,0.1-0.6,0.1-0.8,0c-0.8-0.3-1.6-0.6-2.4-0.9
		c-0.2-0.1-0.5-0.1-0.8,0c-0.8,0.3-1.5,0.6-2.3,0.8c-0.4,0.1-0.8,0.1-1.2,0c-0.7-0.3-1.5-0.6-2.3-0.8c-0.2-0.1-0.5-0.1-0.7,0
		c-0.5,0.2-1,0.4-1.5,0.5c0.5-0.6,0.8-1.2,1.6-1.6c0.3-0.1,0.5,0,0.8,0.1c0.8,0.3,1.6,0.6,2.3,0.8c0.4,0.1,0.7,0.1,1.1,0
		c0.8-0.3,1.5-0.6,2.3-0.8c0.2-0.1,0.5-0.1,0.7,0c0.8,0.3,1.6,0.6,2.4,0.9c0.2,0.1,0.4,0.2,0.6,0.1c0.8-0.4,1.8-0.6,2.7-1
		c0.2-0.1,0.4-0.1,0.6,0c0.3,0.1,0.6,0.3,0.9,0.3c0.5,0.3,1,0.4,1.5,0.6c0.3,0.1,0.6,0.1,0.9,0c0.6-0.3,1.3-0.5,2-0.8
		c0.4-0.2,0.9-0.2,1.4,0c0.7,0.3,1.5,0.6,2.2,0.8c0.2,0.1,0.4,0.1,0.6,0c0.8-0.4,1.8-0.6,2.6-1c0.2-0.1,0.4-0.1,0.6,0
		c0.8,0.4,1.8,0.6,2.7,1C44.2,63.2,44.3,63.3,44.4,63.2z"/>
	<path class="st15" d="M31,86.4c0.4,0.2,0.7,0.1,1.1,0c0.7-0.3,1.5-0.6,2.3-0.8c0.3-0.1,0.5-0.1,0.8,0c0.7,0.3,1.4,0.5,2.1,0.8
		c0.5,0.2,0.9,0.2,1.3,0c0.7-0.3,1.4-0.5,2.1-0.8c0.3-0.1,0.6-0.1,0.8,0c0.8,0.3,1.6,0.6,2.3,0.8c0.3,0.1,0.6,0.1,0.9,0
		c0.4-0.1,0.8-0.3,1.3-0.5c-0.1,0.4-0.4,0.6-0.6,0.8c-0.1,0.2-0.3,0.4-0.5,0.5c-0.4,0.3-0.7,0.4-1.2,0.2c-0.8-0.3-1.6-0.6-2.5-0.9
		c-0.2-0.1-0.4-0.1-0.6,0c-0.8,0.3-1.6,0.6-2.5,0.9c-0.4,0.1-0.7,0.1-1.1,0c-0.6-0.2-1.1-0.4-1.7-0.6c-0.1-0.1-0.3-0.1-0.4-0.2
		c-0.3-0.1-0.6-0.1-0.9,0c-0.8,0.3-1.6,0.6-2.3,0.8c-0.3,0.1-0.6,0.1-0.8,0c-0.8-0.3-1.6-0.6-2.4-0.9c-0.2-0.1-0.5-0.1-0.7,0
		c-0.8,0.4-1.7,0.6-2.5,1c-0.2,0.1-0.4,0.1-0.6,0c-0.3-0.1-0.6-0.3-0.8-0.3c-0.5-0.3-1.1-0.4-1.5-0.6c-0.4-0.1-0.6-0.1-0.9,0
		c-0.7,0.3-1.3,0.5-2,0.8c-0.4,0.1-0.8,0.2-1.3,0c-0.4-0.2-0.9-0.4-1.3-0.5c-1.2-0.5-1.2-0.5-2.2-0.1l-0.1,0.1
		c-0.3-0.2-0.6-0.5-0.7-0.8c0.4-0.1,0.9-0.4,1.3-0.5c0.3-0.1,0.6-0.1,0.8,0c0.8,0.3,1.6,0.6,2.4,0.9c0.2,0.1,0.5,0.1,0.8,0
		c0.7-0.3,1.5-0.6,2.2-0.8c0.4-0.1,0.7-0.2,1.1,0c0.8,0.3,1.6,0.6,2.3,0.8c0.2,0.1,0.4,0.1,0.6,0c0.8-0.3,1.6-0.6,2.4-0.9
		c0.4-0.1,0.7-0.1,1,0C29.6,85.9,30.3,86.2,31,86.4z"/>
	<path class="st15" d="M23.8,87.7c0.1,0.1,0.3,0.1,0.4,0.1c1.2,0.5,0.9,0.3,2-0.1c0.6-0.2,1.2-0.4,1.8-0.6c0.3-0.1,0.5-0.1,0.7,0
		c0.8,0.3,1.6,0.6,2.3,0.8c0.3,0.1,0.6,0.1,1,0l2.3-0.8c0.3-0.1,0.6-0.1,0.8,0c0.8,0.4,1.6,0.6,2.4,0.9c0.2,0.1,0.5,0.1,0.8,0
		c0.8-0.4,1.8-0.6,2.6-1c0.1-0.1,0.3-0.1,0.4,0l2.7,1c0.1,0,0.1,0.1,0.1,0.1c-0.1,0.3-0.4,0.4-0.6,0.6c-0.2,0.2-0.2,0-0.4,0
		c-0.6-0.2-1.1-0.4-1.6-0.6c-0.3-0.1-0.6-0.1-0.8,0c-0.8,0.4-1.6,0.6-2.5,0.9c-0.2,0.1-0.4,0.1-0.6,0c-0.9-0.4-1.8-0.6-2.8-0.9
		c-0.2-0.1-0.4,0-0.5,0.1c-0.8,0.3-1.6,0.6-2.3,0.8c-0.3,0.1-0.6,0.1-0.8,0c-0.8-0.3-1.6-0.6-2.4-0.9c-0.2-0.1-0.5-0.1-0.8,0
		c-0.8,0.4-1.7,0.6-2.5,0.9c-0.2,0.1-0.4,0.1-0.7-0.1c-0.6-0.3-1.3-0.6-2-0.7c-0.4-0.1-0.7-0.4-1.2-0.2c-0.7,0.3-1.4,0.5-2.1,0.8
		c-0.4,0.2-0.8,0.3-1.3,0c-0.1-0.1-0.2-0.1-0.4-0.1c-0.6-0.2-1.1-0.5-1.8-0.6c-0.6-0.1-0.9-0.6-1.2-1c0.5-0.3,0.9-0.3,1.4-0.1
		c0.6,0.3,1.3,0.5,2,0.8c0.4,0.2,0.8,0.1,1.2-0.1c0.7-0.3,1.5-0.6,2.2-0.8c0.2-0.1,0.4-0.1,0.6,0C22.8,87.4,23.3,87.5,23.8,87.7z"/>
	<path class="st11" d="M15.7,61.5l0.6-0.6c0.1-0.1,0.3-0.2,0.5-0.2c0.1,0.1,0.3,0.2,0.4,0.2c0.4,0.1,0.8,0.3,1.2,0.4
		c0.2,0.1,0.5,0.1,0.8,0l2.5-0.9c0.2-0.1,0.5-0.1,0.7,0c0.7,0.3,1.5,0.6,2.3,0.8c0.4,0.1,0.8,0.1,1.1,0c0.7-0.3,1.5-0.6,2.3-0.8
		c0.3-0.1,0.6-0.1,0.8,0l2.5,0.9c0.2,0.1,0.4,0.1,0.6,0c0.7-0.3,1.3-0.5,2-0.8c0.6-0.3,1.1-0.3,1.6-0.1c0.6,0.2,1.3,0.5,2,0.8
		c0.4,0.1,0.6,0.2,1.1,0c0.7-0.3,1.5-0.6,2.2-0.8c0.4-0.1,0.7-0.1,1.1,0c0.6,0.2,1.2,0.4,1.8,0.6l0.4,0.1c0.6,0.2,0.8,0.4,1.2,0.9
		c-0.1,0.2-0.5,0.2-0.7,0.4l-3-1.1c-0.1-0.1-0.4-0.1-0.5,0c-0.9,0.4-1.8,0.6-2.7,1c-0.2,0.1-0.4,0.1-0.5,0c-0.7-0.4-1.6-0.4-2.3-0.8
		c-0.5-0.2-1.1-0.2-1.6,0c-0.6,0.3-1.3,0.5-1.9,0.7c-0.3,0.1-0.6,0.1-0.8,0c-0.5-0.2-0.9-0.4-1.5-0.5c-0.5-0.1-0.8-0.4-1.2-0.5
		c-0.1-0.1-0.2,0-0.4,0c-0.9,0.4-1.8,0.6-2.7,1c-0.2,0.1-0.4,0.1-0.6,0c-0.8-0.3-1.7-0.6-2.5-0.9c-0.2-0.1-0.5-0.1-0.7,0l-2.3,0.8
		c-0.4,0.1-0.7,0.2-1.1,0C17.4,62.2,16.5,62,15.7,61.5z"/>
	<path class="st11" d="M40.6,59.1c0.1,0,0.3,0,0.4,0.1c0.8,0.5,1.5,0.9,2.1,1.6c-0.2,0.1-0.4,0-0.6-0.1c-0.4-0.1-0.8-0.3-1.1-0.4
		c-0.2-0.1-0.5-0.1-0.8,0c-0.8,0.4-1.7,0.6-2.5,0.9c-0.2,0.1-0.4,0.1-0.6,0c-0.8-0.4-1.7-0.6-2.6-0.9c-0.3-0.1-0.6-0.1-0.8,0.1
		L31.8,61c-0.2,0.1-0.4,0.1-0.6,0c-0.8-0.3-1.6-0.6-2.5-0.9c-0.3-0.1-0.6-0.1-0.8,0c-0.7,0.3-1.5,0.5-2.1,0.8
		c-0.7,0.4-1.1,0.1-1.5-0.1c-0.6-0.2-1.2-0.4-1.8-0.7c-0.4-0.1-0.6-0.1-1,0c-0.8,0.3-1.6,0.6-2.3,0.8c-0.2,0.1-0.5,0.1-0.7,0
		c-0.5-0.2-0.9-0.4-1.5-0.5v-0.1c0.3-0.3,0.6-0.5,1-0.7c0.5,0.3,1,0.4,1.5,0.1c0.1-0.1,0.2-0.1,0.3-0.1c0.6-0.2,1.3-0.5,2-0.7
		c0.1-0.1,0.4-0.1,0.5,0c0.8,0.3,1.6,0.6,2.5,0.9c0.3,0.1,0.6,0.1,0.8,0c0.8-0.3,1.6-0.6,2.5-0.9c0.2-0.1,0.4-0.1,0.6,0
		c0.8,0.3,1.6,0.6,2.3,0.8c0.4,0.1,0.8,0.1,1.1,0c0.7-0.3,1.3-0.5,2-0.8c0.4-0.1,0.7-0.2,1.1,0c0.7,0.3,1.5,0.6,2.3,0.8
		c0.3,0.1,0.6,0.1,0.8,0c0.3-0.1,0.3-0.1,0.5-0.1C39.4,59.6,40.1,59.4,40.6,59.1z"/>
	<path class="st15" d="M22.5,88.8c0.8,0.4,1.6,0.6,2.4,0.9c0.2,0.1,0.4,0,0.6-0.1c0.8-0.3,1.6-0.6,2.5-0.9c0.3-0.1,0.6-0.1,0.8,0
		c0.8,0.4,1.7,0.6,2.5,0.9c0.1,0.1,0.4,0.1,0.5,0c0.7-0.3,1.5-0.5,2.2-0.8c0.4-0.2,0.8-0.3,1.3-0.1c0.7,0.3,1.5,0.6,2.3,0.8
		c0.3,0.1,0.6,0.1,0.8,0c0.8-0.3,1.6-0.6,2.5-0.9c0.2-0.1,0.4-0.1,0.6,0c0.5,0.2,1,0.4,1.6,0.6c-0.2,0.3-0.6,0.4-0.8,0.6
		c-0.1,0.1-0.3,0-0.4-0.1c-0.4-0.2-0.8-0.2-1.3,0c-0.7,0.3-1.4,0.5-2.1,0.8c-0.3,0.1-0.6,0.1-0.8,0c-0.7-0.3-1.5-0.6-2.3-0.8
		c-0.4-0.1-0.8-0.1-1.2,0c-0.7,0.3-1.4,0.5-2.1,0.8c-0.3,0.1-0.6,0.1-0.9,0c-0.8-0.4-1.6-0.6-2.4-0.9c-0.2-0.1-0.5-0.1-0.7,0
		l-2.5,0.9c-0.2,0.1-0.4,0.1-0.6,0c-0.8-0.3-1.6-0.6-2.4-0.9c-0.4-0.1-0.7-0.1-1,0c-0.6,0.3-1.3,0.5-2,0.8c-0.4,0.1-0.6,0.1-0.8-0.1
		c-0.4-0.4-0.8-0.6-1.3-0.9c-0.2-0.1-0.4-0.3-0.5-0.5c0.5,0.2,1.1,0.4,1.6,0.6c0.3,0.1,0.6,0.1,1,0c0.6-0.3,1.3-0.4,1.9-0.7
		C21.6,88.7,22,88.6,22.5,88.8z"/>
	<path class="st11" d="M39.1,58.1c0.4,0.1,0.8,0.4,1.2,0.6c-0.1,0.2-0.4,0.2-0.6,0.3c-0.5,0.2-0.9,0.4-1.4,0.5
		c-0.3,0.1-0.6,0.1-0.9,0c-0.8-0.3-1.6-0.6-2.4-0.9c-0.2-0.1-0.4-0.1-0.6,0c-0.7,0.3-1.5,0.5-2.1,0.8c-0.7,0.3-1.2,0.1-1.8-0.1
		c-0.6-0.2-1.2-0.5-1.8-0.8c-0.2-0.1-0.5-0.1-0.7,0c-0.8,0.3-1.6,0.6-2.5,0.9c-0.3,0.1-0.6,0.1-0.8,0c-0.8-0.3-1.6-0.6-2.4-0.9
		c-0.2-0.1-0.5-0.1-0.7,0c-0.8,0.3-1.6,0.6-2.5,0.9c-0.3,0.1-0.5,0.1-0.7-0.1c0.7-0.6,1.6-1,2.3-1.4c0.4-0.2,0.8-0.4,1.2-0.5
		c0.1-0.1,0.3-0.1,0.4-0.1c0.8,0.4,1.8,0.7,2.7,1.1c0.1,0.1,0.3,0,0.4,0c0.9-0.4,1.8-0.6,2.7-1c0.2-0.1,0.4-0.1,0.6,0
		c0.8,0.3,1.6,0.6,2.3,0.8c0.4,0.1,0.8,0.1,1.2,0c0.8-0.3,1.6-0.6,2.4-0.8c0.1-0.1,0.4-0.1,0.5,0c0.8,0.4,1.7,0.6,2.5,0.9
		c0.1,0.1,0.4,0.2,0.5,0.1C38.4,58.4,38.7,58.3,39.1,58.1z"/>
	<path class="st1" d="M19.6,91l2.1-0.8c0.2-0.1,0.4,0,0.6,0.1c0.8,0.3,1.6,0.6,2.5,0.9c0.2,0.1,0.5,0.1,0.7,0
		c0.8-0.3,1.6-0.6,2.4-0.9c0.3-0.1,0.6-0.1,1,0c0.8,0.3,1.6,0.6,2.4,0.9c0.2,0.1,0.4,0.1,0.6,0l2.4-0.9c0.3-0.1,0.6-0.1,0.9,0
		c0.8,0.3,1.6,0.6,2.3,0.8c0.3,0.1,0.6,0.1,0.8,0c0.8-0.4,1.6-0.6,2.5-0.9c0.2-0.1,0.5-0.1,0.8,0c-0.3,0.3-0.6,0.4-0.9,0.6
		c-0.8,0.5-1.7,0.9-2.5,1.3c-0.2,0.1-0.4,0.1-0.6,0c-0.8-0.3-1.6-0.6-2.4-0.9c-0.3-0.1-0.5-0.1-0.8,0l-2.4,0.9
		c-0.2,0.1-0.5,0.1-0.7,0c-0.8-0.4-1.8-0.6-2.6-1c-0.1-0.1-0.4-0.1-0.5,0c-0.8,0.3-1.7,0.6-2.5,0.9c-0.2,0.1-0.5,0.1-0.8,0
		c-0.8-0.4-1.8-0.6-2.6-1c-0.1-0.1-0.3-0.1-0.4,0c-0.1,0.1-0.3,0.1-0.4,0.1C20.7,91.7,20.3,91.7,19.6,91z"/>
	<path class="st16" d="M17.6,73.2c0.3,0,0.5,0.1,0.7,0.2c0.4,0.1,0.7,0.1,1.1-0.1c0.8-0.3,1.5-0.6,2.3-0.8c0.1-0.1,0.4-0.1,0.5,0
		c0.9,0.4,1.8,0.6,2.7,1c0.2,0.1,0.4,0,0.5,0c0.8-0.3,1.7-0.6,2.5-0.9c0.3-0.1,0.6-0.1,0.9,0c0.8,0.3,1.6,0.6,2.3,0.8
		c0.3,0.1,0.6,0.1,0.9,0c0.8-0.3,1.6-0.6,2.3-0.8c0.2-0.1,0.5-0.1,0.8,0c0.8,0.3,1.6,0.6,2.4,0.9c0.3,0.1,0.6,0.1,0.8,0
		c0.8-0.4,1.7-0.6,2.5-0.9c0.2-0.1,0.4-0.1,0.6,0.1s0.4,0.2,0.7,0.3c0.6,0.2,1.3,0.4,1.9,0.6c0.3,0.1,0.6,0,0.8-0.1V74
		c-0.3,0.2-0.6,0.2-0.9,0.1c-0.8-0.3-1.6-0.6-2.5-0.9c-0.2-0.1-0.5-0.1-0.7,0c-0.8,0.3-1.6,0.6-2.5,0.9c-0.4,0.1-0.6,0-0.9-0.1
		c-0.8-0.3-1.5-0.6-2.3-0.8c-0.3-0.1-0.6-0.1-0.8,0c-0.8,0.3-1.6,0.6-2.3,0.8c-0.3,0.1-0.6,0.1-1,0c-0.8-0.3-1.5-0.6-2.3-0.8
		c-0.3-0.1-0.6-0.1-0.8,0c-0.8,0.3-1.6,0.6-2.4,0.9c-0.3,0.1-0.6,0.1-0.8,0c-0.8-0.3-1.6-0.6-2.4-0.9c-0.2-0.1-0.4-0.1-0.6,0
		c-0.8,0.3-1.5,0.5-2.3,0.8c-0.5,0.2-0.9,0.2-1.4,0c-0.1-0.1-0.4-0.1-0.5-0.2C17.6,73.5,17.6,73.4,17.6,73.2z"/>
	<path class="st16" d="M36.8,79.9c-0.6-0.1-1.1-0.4-1.6-0.6c-0.4-0.1-0.8-0.2-1.2,0c-0.7,0.3-1.5,0.6-2.2,0.8
		c-0.3,0.1-0.6,0.1-0.8,0c-0.8-0.3-1.6-0.6-2.4-0.9c-0.2-0.1-0.5-0.1-0.7,0c-0.8,0.3-1.6,0.6-2.4,0.9c-0.4,0.1-0.7,0.1-1,0
		c-0.8-0.4-1.6-0.6-2.4-0.9c-0.2-0.1-0.4,0-0.6,0c-0.7,0.3-1.5,0.5-2.2,0.8c-0.4,0.2-0.8,0.2-1.3,0c-0.6-0.3-1.3-0.5-2-0.8
		c-0.3-0.1-0.7-0.1-1,0c-0.8,0.3-1.5,0.6-2.3,0.8c-0.3,0.1-0.6,0.1-0.9,0c-0.4-0.2-0.9-0.4-1.4-0.5l-0.1-0.6
		c0.6,0.2,1.1,0.4,1.6,0.6c0.3,0.1,0.6,0.1,0.9,0c0.8-0.3,1.5-0.6,2.3-0.8c0.3-0.1,0.6-0.1,0.9,0c0.8,0.3,1.6,0.6,2.3,0.8
		c0.3,0.1,0.6,0.1,0.8,0c0.7-0.3,1.5-0.6,2.2-0.8c0.4-0.1,0.6-0.2,1.1,0c0.8,0.4,1.5,0.6,2.3,0.8c0.3,0.1,0.6,0.1,0.8,0
		c0.8-0.4,1.6-0.6,2.5-0.9c0.2-0.1,0.4-0.1,0.6,0c0.8,0.3,1.6,0.6,2.4,0.9c0.4,0.1,0.6,0.1,1-0.1c0.8-0.3,1.5-0.6,2.3-0.8
		c0.2-0.1,0.5-0.1,0.8,0c0.6,0.3,1.3,0.4,2,0.8C37,79.7,36.8,79.8,36.8,79.9z"/>
	<path class="st11" d="M33.2,56.3c0.1-0.1,0.4-0.1,0.6,0c1.6,0.3,3.2,0.8,4.7,1.5c-0.3,0.3-0.6,0.3-1,0.1c-0.8-0.3-1.6-0.6-2.3-0.8
		c-0.4-0.2-0.8-0.1-1.1,0.1c-0.8,0.3-1.6,0.6-2.3,0.8c-0.2,0.1-0.5,0.1-0.7-0.1c-0.1-0.1-0.1-0.1-0.2-0.1c-0.8-0.3-1.6-0.6-2.3-0.8
		c-0.1-0.1-0.4-0.1-0.5,0c-0.8,0.3-1.7,0.6-2.5,0.9c-0.4,0.1-0.6,0.1-0.9,0c-0.6-0.2-1.1-0.5-1.8-0.6c0.6-0.4,1.3-0.6,2-0.4
		c0.2,0.1,0.4,0.1,0.6,0c0.4-0.2,0.9-0.3,1.3-0.5c0.6-0.3,1.3-0.3,1.9-0.4c0.2,0,0.4,0.1,0.6,0.1c0.7,0.4,1.4,0.6,2.1,0.8
		c0.1,0.1,0.2,0.1,0.3,0C32.2,56.7,32.7,56.6,33.2,56.3z"/>
	<path class="st17" d="M16.9,60.6c0.5,0.1,1,0.3,1.5,0.5c0.2,0.1,0.5,0.1,0.7,0c0.8-0.3,1.6-0.6,2.3-0.8c0.4-0.1,0.6-0.1,1,0
		c0.6,0.3,1.2,0.5,1.8,0.7c0.5,0.2,1,0.4,1.5,0.1c0.6-0.3,1.4-0.6,2.1-0.8c0.3-0.1,0.6-0.1,0.8,0c0.8,0.3,1.6,0.6,2.5,0.9
		c0.2,0.1,0.4,0.1,0.6,0l2.4-0.9c0.3-0.1,0.6-0.1,0.8-0.1c0.9,0.3,1.8,0.6,2.6,0.9c0.2,0.1,0.4,0.1,0.6,0c0.8-0.4,1.7-0.6,2.5-0.9
		c0.3-0.1,0.5-0.1,0.8,0c0.4,0.1,0.8,0.3,1.1,0.4c0.1,0.1,0.4,0.1,0.6,0.1l0,0c0,0.1,0.1,0.1,0.1,0.1c0.3,0.1,0.1,0.4,0.1,0.6
		c-0.6-0.2-1.2-0.4-1.8-0.6c-0.4-0.1-0.7-0.2-1.1,0c-0.7,0.3-1.5,0.5-2.2,0.8c-0.4,0.1-0.7,0.1-1.1,0c-0.6-0.3-1.3-0.5-2-0.8
		c-0.6-0.3-1.1-0.2-1.6,0.1c-0.6,0.2-1.3,0.5-2,0.8c-0.2,0.1-0.4,0.1-0.6,0l-2.5-0.9c-0.3-0.1-0.6-0.1-0.8,0
		c-0.7,0.3-1.5,0.6-2.3,0.8c-0.4,0.1-0.8,0.1-1.1,0c-0.7-0.3-1.5-0.6-2.3-0.8c-0.2-0.1-0.5-0.1-0.7,0l-2.4,0.9
		c-0.2,0.1-0.5,0.1-0.8,0c-0.4-0.2-0.8-0.3-1.2-0.4C17,61,16.8,61,16.7,60.9C16.7,60.7,16.8,60.6,16.9,60.6L16.9,60.6z"/>
	<path class="st16" d="M37.7,81.9c-0.8-0.2-1.5-0.5-2.2-0.8c-0.1,0-0.2-0.1-0.3-0.1c-0.4-0.2-0.7-0.1-1.1,0.1
		c-0.8,0.3-1.5,0.6-2.3,0.8c-0.2,0.1-0.4,0.1-0.6,0c-0.8-0.3-1.6-0.6-2.4-0.9c-0.3-0.1-0.6-0.1-0.9,0c-0.8,0.3-1.6,0.6-2.5,0.9
		c-0.2,0.1-0.4,0.1-0.6,0c-0.7-0.3-1.5-0.6-2.2-0.8c-0.4-0.2-0.9-0.1-1.3,0c-0.7,0.3-1.4,0.6-2.1,0.8c-0.2,0.1-0.5,0.1-0.8,0
		c-0.8-0.3-1.6-0.6-2.3-0.8c-0.3-0.1-0.6-0.1-1,0c-0.8,0.3-1.5,0.6-2.3,0.8c-0.3,0.1-0.6,0.1-0.9,0c-0.3-0.1-0.5-0.2-0.8-0.3
		c-0.1-0.1-0.1-0.4-0.2-0.6c0.3,0.1,0.6,0.2,0.9,0.4c0.3,0.1,0.7,0.1,1,0c0.8-0.3,1.5-0.6,2.3-0.8c0.3-0.1,0.6-0.1,0.9,0
		c0.8,0.3,1.6,0.6,2.4,0.9c0.2,0.1,0.4,0.1,0.6,0c0.7-0.3,1.5-0.6,2.2-0.8c0.4-0.2,0.9-0.2,1.3,0c0.7,0.3,1.5,0.6,2.2,0.8
		c0.3,0.1,0.4,0,0.6-0.1c0.8-0.3,1.6-0.6,2.4-0.9c0.3-0.1,0.6-0.1,0.9,0c0.8,0.3,1.6,0.6,2.3,0.8c0.3,0.1,0.6,0.1,0.9,0
		c0.8-0.3,1.6-0.6,2.4-0.8c0.2-0.1,0.4-0.1,0.6,0c0.8,0.3,1.6,0.6,2.3,0.8c0.1,0,0.3,0.1,0.4,0.1L37.7,81.9z"/>
	<path class="st1" d="M21.4,91.9c0.4-0.2,0.6-0.2,1-0.1c0.8,0.3,1.6,0.6,2.4,0.9c0.3,0.1,0.6,0.1,0.8,0c0.8-0.4,1.7-0.6,2.5-1
		c0.1-0.1,0.4-0.1,0.5,0c0.8,0.4,1.7,0.6,2.5,0.9c0.3,0.1,0.6,0.1,0.8,0c0.7-0.3,1.4-0.5,2.1-0.8c0.4-0.1,0.8-0.2,1.2,0
		s1.1,0.4,1.6,0.7c-0.6,0.2-1.3,0.6-2,0.3c-0.3-0.1-0.5,0-0.8,0.1c-0.6,0.2-1.1,0.5-1.7,0.6s-1.3,0.3-2,0c-0.7-0.4-1.2-0.4-1.8-0.7
		c-0.2-0.1-0.4-0.1-0.6,0c-0.4,0.1-0.8,0.3-1.3,0.5c-0.4,0.2-0.7,0.1-1,0c-1.5-0.3-2.9-0.8-4.2-1.3C21.4,92,21.4,92,21.4,91.9z"/>
	<path class="st16" d="M16.2,74.3c0.6,0.1,1.2,0.4,1.8,0.6s1.1,0.3,1.6,0c0.6-0.3,1.4-0.5,2.1-0.8c0.2-0.1,0.5-0.1,0.7,0
		c0.8,0.4,1.6,0.6,2.5,0.9c0.2,0.1,0.4,0.1,0.6,0c0.8-0.3,1.7-0.6,2.5-0.9c0.3-0.1,0.6-0.1,0.8,0.1c0.1,0.1,0.2,0.1,0.4,0.1
		c0.6,0.2,1.3,0.4,2,0.7c0.4,0.1,0.6,0.1,0.9,0l2.3-0.8c0.3-0.1,0.6-0.1,0.8,0c0.8,0.3,1.6,0.6,2.3,0.8c0.3,0.1,0.7,0.1,1,0
		c0.8-0.4,1.6-0.6,2.4-0.9c0.2-0.1,0.4-0.1,0.6,0c0.4,0.2,0.8,0.3,1.2,0.5c-0.1,0.1-0.2,0.2-0.2,0.4c-0.3,0-0.6-0.1-0.9-0.3
		c-0.3-0.1-0.6-0.1-0.8,0c-0.8,0.3-1.6,0.6-2.3,0.9c-0.4,0.1-0.6,0.1-1,0c-0.8-0.3-1.6-0.6-2.3-0.8c-0.2-0.1-0.5-0.1-0.7,0
		c-0.8,0.3-1.6,0.6-2.3,0.8c-0.4,0.1-0.7,0.2-1.1,0c-0.7-0.3-1.4-0.5-2.1-0.8c-0.4-0.1-0.8-0.2-1.1,0c-0.8,0.3-1.6,0.6-2.3,0.8
		c-0.3,0.1-0.6,0.1-0.8,0c-0.8-0.3-1.6-0.6-2.3-0.8c-0.2-0.1-0.5-0.1-0.7,0c-0.8,0.3-1.5,0.6-2.3,0.8c-0.4,0.1-0.7,0.2-1.1,0
		c-0.7-0.3-1.5-0.6-2.2-0.8L16.2,74.3z"/>
	<path class="st16" d="M41.9,76.4c-0.6-0.3-1.2-0.2-1.8,0.1c-0.6,0.3-1.3,0.5-1.8,0.7c-0.2,0.1-0.5,0.1-0.7,0
		c-0.7-0.3-1.5-0.6-2.2-0.8c-0.4-0.2-0.9-0.2-1.3,0c-0.7,0.3-1.5,0.6-2.2,0.8c-0.2,0.1-0.4,0.1-0.6,0c-0.8-0.3-1.7-0.6-2.5-0.9
		c-0.3-0.1-0.6-0.1-0.8,0c-0.8,0.4-1.7,0.6-2.5,1c-0.2,0.1-0.4,0-0.6-0.1c-0.8-0.3-1.6-0.6-2.4-0.9c-0.4-0.1-0.7-0.1-1,0
		c-0.7,0.3-1.5,0.6-2.3,0.8c-0.2,0.1-0.5,0.1-0.8,0c-0.8-0.3-1.6-0.6-2.3-0.8l0.1-0.4c0.7,0.3,1.5,0.5,2.2,0.8
		c0.2,0.1,0.4,0.1,0.6,0c0.7-0.3,1.4-0.5,2.1-0.8c0.5-0.2,0.9-0.2,1.4,0c0.7,0.3,1.5,0.6,2.2,0.8c0.2,0.1,0.4,0.1,0.6,0
		c0.8-0.3,1.6-0.6,2.5-0.9c0.3-0.1,0.6-0.1,0.9,0.1c0.8,0.4,1.7,0.6,2.5,0.9c0.2,0.1,0.4,0,0.6-0.1c0.7-0.3,1.5-0.5,2.2-0.8
		c0.4-0.2,0.8-0.2,1.3,0c0.6,0.3,1.3,0.4,1.9,0.8c0.4,0.2,0.7,0.2,1.1,0c0.7-0.3,1.5-0.5,2.2-0.8c0.6-0.2,1-0.1,1.5,0.1L41.9,76.4z"
		/>
	<path class="st17" d="M18.4,59.4c0.2,0.2,0.4,0.1,0.7,0.1c0.8-0.3,1.6-0.6,2.5-0.9c0.2-0.1,0.5-0.1,0.7,0c0.8,0.3,1.6,0.6,2.4,0.9
		c0.3,0.1,0.6,0.1,0.8,0c0.8-0.3,1.6-0.6,2.5-0.9c0.2-0.1,0.5-0.1,0.7,0c0.6,0.3,1.2,0.6,1.8,0.8s1.1,0.4,1.8,0.1
		c0.6-0.3,1.4-0.6,2.1-0.8c0.2-0.1,0.4-0.1,0.6,0c0.8,0.3,1.6,0.6,2.4,0.9c0.3,0.1,0.6,0.1,0.9,0c0.4-0.2,0.9-0.4,1.4-0.5
		c0.2-0.1,0.4-0.1,0.6-0.3c0.2,0.1,0.4,0.1,0.4,0.4c-0.6,0.3-1.3,0.5-1.9,0.8c-0.1,0.1-0.3,0.1-0.5,0.1c-0.1,0.1-0.6,0.1-0.8,0
		c-0.7-0.3-1.5-0.6-2.3-0.8c-0.4-0.1-0.8-0.1-1.1,0c-0.7,0.3-1.3,0.5-2,0.8c-0.4,0.1-0.8,0.1-1.1,0c-0.8-0.3-1.6-0.6-2.3-0.8
		c-0.2-0.1-0.4-0.1-0.6,0c-0.8,0.3-1.6,0.6-2.5,0.9c-0.3,0.1-0.6,0.1-0.8,0c-0.8-0.3-1.6-0.6-2.5-0.9c-0.1-0.1-0.4-0.1-0.5,0
		c-0.6,0.3-1.3,0.5-2,0.7c-0.1,0-0.2,0.1-0.3,0.1c-0.5,0.3-1,0.2-1.5-0.1C18.1,59.6,18.2,59.5,18.4,59.4z"/>
	<path class="st16" d="M33.9,84.2c-0.7,0.4-1.5,0.6-2.2,0.8c-0.1,0.1-0.4,0-0.5-0.1c-0.8-0.3-1.6-0.6-2.5-0.9
		c-0.3-0.1-0.6-0.1-0.8,0c-0.8,0.3-1.6,0.6-2.4,0.9c-0.3,0.1-0.6,0.1-0.8,0c-0.8-0.4-1.6-0.6-2.5-0.9c-0.2-0.1-0.4-0.1-0.6,0
		c-0.7,0.3-1.5,0.6-2.2,0.8c-0.4,0.1-0.8,0.2-1.1,0c-0.7-0.3-1.5-0.6-2.3-0.8c-0.3-0.1-0.5-0.1-0.8,0c-0.6,0.2-1.2,0.4-1.8,0.7
		c-0.1,0.1-0.3,0.1-0.4,0.1c-0.1,0-0.3-0.2-0.3-0.4c0.6-0.1,1.2-0.5,1.8-0.6c0.3-0.1,0.6-0.2,0.8-0.3c0.3-0.1,0.4,0,0.6,0.1
		c0.8,0.3,1.6,0.6,2.5,0.9c0.2,0.1,0.5,0.1,0.8,0c0.7-0.3,1.5-0.6,2.2-0.8c0.4-0.1,0.7-0.2,1.1,0c0.8,0.4,1.5,0.6,2.3,0.8
		c0.2,0.1,0.5,0.1,0.8,0c0.8-0.3,1.6-0.6,2.4-0.9c0.3-0.1,0.6-0.1,0.8,0c0.8,0.4,1.6,0.6,2.3,0.8c0.4,0.1,0.7,0.1,1.1-0.1
		c0.6-0.2,1.1-0.5,1.8-0.6L33.9,84.2z"/>
	<path class="st16" d="M37.5,78.7c-0.8-0.3-1.6-0.6-2.4-0.8c-0.2-0.1-0.5-0.1-0.8,0c-0.7,0.3-1.4,0.5-2.1,0.8
		c-0.4,0.1-0.8,0.2-1.2,0.1c-0.7-0.3-1.5-0.6-2.2-0.8c-0.3-0.1-0.6-0.1-0.8,0c-0.8,0.3-1.6,0.6-2.4,0.9c-0.4,0.1-0.6,0.1-0.9-0.1
		c-0.8-0.3-1.6-0.6-2.3-0.8c-0.2-0.1-0.5-0.1-0.7,0c-0.8,0.3-1.5,0.6-2.3,0.8c-0.5,0.2-0.9,0.2-1.3-0.1c0-0.1-0.1-0.3,0.1-0.4
		c0.5,0.2,1,0.1,1.5-0.1c0.6-0.3,1.3-0.5,2-0.8c0.2-0.1,0.4-0.1,0.6,0c0.8,0.3,1.6,0.6,2.4,0.9c0.3,0.1,0.6,0.1,1,0
		c0.8-0.3,1.6-0.6,2.4-0.9c0.1-0.1,0.4-0.1,0.5,0c0.4,0.2,0.8,0.4,1.3,0.5c0.5,0.2,1.1,0.4,1.6,0.5c0.2,0.1,0.4,0,0.6-0.1
		c0.8-0.3,1.6-0.6,2.3-0.8c0.3-0.1,0.6-0.1,0.8,0c0.8,0.4,1.6,0.6,2.5,1C37.5,78.4,37.5,78.5,37.5,78.7z"/>
	<path class="st17" d="M11.6,67.1l0.4,0.2c0.2,0.1,0.4,0.1,0.6,0c0.8-0.4,1.8-0.6,2.7-1c0.2-0.1,0.4,0,0.5,0.1
		c0.8,0.3,1.7,0.6,2.5,0.9c0.2,0.1,0.4,0.1,0.6,0c0.8-0.3,1.6-0.6,2.3-0.9c0.3-0.1,0.6-0.1,0.9,0c0.8,0.3,1.6,0.6,2.3,0.8
		c0.3,0.1,0.6,0.1,0.8,0c0.7-0.3,1.4-0.5,2.1-0.8c0.4-0.1,0.8-0.2,1.1-0.1c0.6,0.2,1.3,0.4,2,0.8c-0.1,0.1-0.1,0.3-0.1,0.4
		c-0.7-0.2-1.3-0.5-2-0.8c-0.2-0.1-0.5-0.1-0.7,0c-0.8,0.3-1.6,0.6-2.4,0.9c-0.3,0.1-0.6,0.1-1,0c-0.8-0.3-1.6-0.6-2.3-0.8
		c-0.2-0.1-0.5-0.1-0.8,0c-0.8,0.3-1.5,0.6-2.3,0.8c-0.4,0.1-0.7,0.1-1,0c-0.8-0.3-1.6-0.6-2.4-0.9c-0.2-0.1-0.4-0.1-0.6,0
		c-0.8,0.4-1.8,0.6-2.6,1c-0.2,0.1-0.4,0-0.6,0c-0.2-0.1-0.4-0.2-0.7-0.2L11.6,67.1z"/>
	<path class="st17" d="M10.6,69.9c0.5,0.1,1,0.4,1.5,0.5c0.2,0.1,0.4,0.1,0.6,0c0.8-0.3,1.6-0.6,2.5-0.9c0.2-0.1,0.5-0.1,0.8,0
		c0.8,0.3,1.6,0.6,2.5,0.9c0.2,0.1,0.5,0.1,0.7,0c0.8-0.3,1.6-0.6,2.5-0.9c0.2-0.1,0.5-0.1,0.7,0c0.8,0.3,1.6,0.6,2.3,0.9
		c0.3,0.1,0.6,0.1,0.8,0c0.8-0.3,1.6-0.6,2.3-0.8c0.5-0.2,0.9-0.1,1.3,0.1v0.4c-0.6-0.3-1.2-0.1-1.8,0.1c-0.6,0.2-1.3,0.5-2,0.7
		c-0.3,0.1-0.5,0-0.7-0.1c-0.7-0.3-1.3-0.5-2-0.8c-0.4-0.2-1-0.2-1.4,0c-0.6,0.3-1.3,0.5-2,0.8c-0.4,0.1-0.7,0.1-1.1,0
		c-0.7-0.3-1.5-0.6-2.3-0.8c-0.3-0.1-0.6-0.1-0.8,0c-0.8,0.3-1.6,0.6-2.4,0.9c-0.2,0.1-0.4,0.1-0.6,0c-0.6-0.2-1.1-0.4-1.6-0.6
		C10.4,70.1,10.5,70,10.6,69.9z"/>
	<path class="st17" d="M11.1,68.5c0.3,0.1,0.6,0.2,0.9,0.4c0.2,0.1,0.5,0.1,0.7,0c0.8-0.3,1.6-0.6,2.5-0.9c0.2-0.1,0.5-0.1,0.8,0
		c0.7,0.3,1.4,0.5,2.1,0.8c0.4,0.2,0.8,0.2,1.3,0c0.8-0.3,1.5-0.6,2.3-0.8c0.2-0.1,0.4-0.1,0.6,0c0.6,0.2,1.1,0.4,1.6,0.6
		c0.4,0.2,0.8,0.2,1.1,0.4c0.1,0.1,0.4,0,0.5-0.1c0.8-0.3,1.6-0.6,2.4-0.8c0.3-0.1,0.6-0.1,0.9,0c0.3,0.1,0.4,0.1,0.6,0.2
		c-0.1,0.1-0.1,0.3-0.1,0.4h-0.1c-0.6-0.4-1.2-0.2-1.8,0.1c-0.6,0.3-1.2,0.5-1.8,0.7c-0.3,0.1-0.5,0.1-0.8,0l-2.5-0.9
		c-0.2-0.1-0.4-0.1-0.6,0c-0.8,0.3-1.6,0.6-2.4,0.9c-0.4,0.1-0.7,0.1-1,0c-0.7-0.3-1.5-0.6-2.3-0.8c-0.3-0.1-0.6-0.1-0.9,0
		c-0.8,0.3-1.6,0.6-2.3,0.8c-0.3,0.1-0.6,0.1-0.8,0c-0.3-0.1-0.7-0.2-1.1-0.4C11,68.7,10.9,68.6,11.1,68.5z"/>
	<path class="st17" d="M13.7,63.7c0.6-0.1,1-0.3,1.5-0.5c0.2-0.1,0.5-0.1,0.7,0c0.7,0.3,1.5,0.6,2.3,0.8c0.4,0.1,0.8,0.1,1.2,0
		c0.7-0.3,1.5-0.6,2.3-0.8c0.2-0.1,0.5-0.1,0.8,0c0.8,0.3,1.6,0.6,2.4,0.9c0.3,0.1,0.6,0.1,0.8,0c0.8-0.4,1.8-0.6,2.6-1
		c0.1-0.1,0.3-0.1,0.4,0c0.8,0.4,1.6,0.6,2.4,0.9c0.2,0.1,0.4,0.1,0.6,0.2v0.4c-0.6-0.1-1.3-0.4-1.9-0.6c-0.1-0.1-0.4-0.1-0.5-0.1
		c-0.6-0.4-1.2-0.2-1.8,0.1c-0.6,0.2-1.2,0.4-1.8,0.7c-0.3,0.1-0.6,0.1-0.8,0c-0.8-0.3-1.6-0.6-2.4-0.9c-0.2-0.1-0.5-0.1-0.8,0
		c-0.7,0.3-1.4,0.5-2.1,0.8c-0.5,0.2-1,0.2-1.5,0c-0.7-0.3-1.4-0.5-2.1-0.8c-0.2-0.1-0.5-0.1-0.7,0c-0.6,0.2-1.2,0.5-1.8,0.6
		C13.3,64.1,13.5,63.9,13.7,63.7z"/>
	<path class="st17" d="M12.3,65.8c0.4-0.1,0.8-0.3,1.2-0.4c0.6-0.2,1.2-0.4,1.8-0.6c0.2-0.1,0.4-0.1,0.6,0c0.8,0.3,1.6,0.6,2.5,0.9
		c0.2,0.1,0.4,0.1,0.6,0l2.4-0.9c0.3-0.1,0.6-0.1,0.9,0c0.8,0.3,1.5,0.6,2.3,0.8c0.3,0.1,0.6,0.1,0.9,0c0.8-0.4,1.6-0.6,2.4-0.9
		c0.2-0.1,0.4-0.1,0.6,0c0.4,0.2,0.8,0.3,1.2,0.5c0,0.1-0.1,0.2-0.1,0.4c-0.4,0-0.6-0.2-1-0.4c-0.2-0.1-0.5-0.1-0.7,0
		c-0.8,0.3-1.6,0.6-2.4,0.9c-0.4,0.1-0.6,0.1-0.9,0c-0.8-0.3-1.6-0.6-2.4-0.9c-0.2-0.1-0.4-0.1-0.6,0c-0.7,0.3-1.5,0.6-2.2,0.8
		c-0.4,0.2-0.8,0.2-1.3,0c-0.7-0.3-1.4-0.6-2.1-0.8c-0.3-0.1-0.6-0.1-0.8,0c-0.8,0.4-1.6,0.6-2.5,0.9c-0.1,0.1-0.4,0.1-0.5-0.1
		C12.2,66.1,12.2,65.9,12.3,65.8z"/>
	<path class="st16" d="M31,86.4c-0.7-0.2-1.4-0.5-2.1-0.8c-0.4-0.1-0.7-0.1-1,0c-0.8,0.3-1.6,0.6-2.4,0.9c-0.2,0.1-0.4,0.1-0.6,0
		c-0.8-0.3-1.6-0.6-2.3-0.8c-0.4-0.1-0.7-0.1-1.1,0c-0.7,0.3-1.5,0.6-2.2,0.8c-0.2,0.1-0.5,0.1-0.8,0c-0.8-0.3-1.6-0.6-2.4-0.9
		c-0.3-0.1-0.6-0.1-0.8,0c-0.4,0.2-0.9,0.4-1.3,0.5c-0.1-0.1-0.3-0.2-0.3-0.4l1.8-0.7c0.3-0.1,0.5,0,0.7,0.1
		c0.8,0.3,1.6,0.6,2.3,0.8c0.3,0.1,0.6,0.1,0.8,0c0.7-0.3,1.4-0.5,2.1-0.8c0.4-0.2,0.8-0.2,1.3,0c0.7,0.3,1.5,0.6,2.2,0.8
		c0.3,0.1,0.6,0.1,0.8,0l2.4-0.9c0.2-0.1,0.4-0.1,0.6-0.1c0.8,0.4,1.7,0.6,2.5,1L31,86.4z"/>
	<path class="st16" d="M25.7,71.9c0.8-0.3,1.5-0.6,2.3-0.8c0.3-0.1,0.6-0.1,0.8,0c0.8,0.3,1.6,0.6,2.4,0.9c0.3,0.1,0.6,0.1,0.8,0
		c0.7-0.3,1.4-0.5,2.1-0.8c0.5-0.2,0.9-0.1,1.4,0.1l2.3,0.8c0.1,0.1,0.3,0.1,0.4,0l2.7-1c0.1-0.1,0.3-0.1,0.5,0
		c0.6,0.3,1.2,0.4,1.8,0.7c-0.1,0.1-0.1,0.3-0.1,0.4c-0.5-0.1-0.9-0.3-1.3-0.5c-0.3-0.1-0.6-0.1-1,0c-0.8,0.3-1.6,0.6-2.3,0.8
		c-0.3,0.1-0.6,0.1-0.9,0c-0.7-0.3-1.5-0.6-2.3-0.8c-0.4-0.2-0.8-0.1-1.2,0.1l-2,0.8c-0.3,0.1-0.6,0.1-0.8,0
		c-0.8-0.4-1.7-0.6-2.5-0.9c-0.2-0.1-0.4-0.1-0.6,0c-0.8,0.3-1.6,0.6-2.4,0.8C25.6,72.2,25.7,72,25.7,71.9z"/>
	<path class="st17" d="M22.9,57.2c0.6,0.1,1.2,0.4,1.8,0.6c0.3,0.1,0.6,0.1,0.9,0c0.8-0.4,1.7-0.6,2.5-0.9c0.1-0.1,0.4-0.1,0.5,0
		c0.8,0.3,1.5,0.6,2.3,0.8c0.1,0,0.2,0,0.2,0.1c0.2,0.2,0.4,0.1,0.7,0.1c0.8-0.3,1.6-0.6,2.3-0.8c0.4-0.1,0.7-0.2,1.1-0.1
		c0.7,0.4,1.5,0.6,2.3,0.8c0.4,0.1,0.7,0.1,1-0.1c0.2,0.1,0.4,0.2,0.6,0.4c-0.3,0.2-0.7,0.3-1.1,0.4c-0.2,0.1-0.4-0.1-0.5-0.1
		c-0.8-0.3-1.7-0.6-2.5-0.9c-0.1-0.1-0.4-0.1-0.5,0c-0.8,0.3-1.6,0.6-2.4,0.8c-0.4,0.1-0.8,0.2-1.2,0c-0.8-0.3-1.5-0.6-2.3-0.8
		c-0.2-0.1-0.4-0.1-0.6,0c-0.9,0.4-1.8,0.6-2.7,1c-0.1,0.1-0.2,0.1-0.4,0c-0.9-0.4-1.8-0.6-2.7-1.1C22.5,57.3,22.7,57.2,22.9,57.2z"
		/>
	<path class="st17" d="M25.7,71.9c0,0.1-0.1,0.3-0.1,0.5c-0.3,0.2-0.6,0.2-0.8,0.1c-0.7-0.3-1.4-0.5-2.1-0.8c-0.4-0.2-0.9-0.2-1.4,0
		c-0.7,0.3-1.5,0.6-2.2,0.8c-0.2,0.1-0.4,0.1-0.6,0c-0.8-0.3-1.7-0.6-2.5-0.9c-0.2-0.1-0.5-0.1-0.8,0c-0.8,0.4-1.6,0.6-2.4,0.9
		c-0.2,0.1-0.5,0.1-0.8,0c-0.6-0.2-1.3-0.5-1.8-0.7c0-0.1-0.1-0.4,0.1-0.5c0.6,0.2,1.2,0.4,1.8,0.7c0.2,0.1,0.4,0.1,0.6,0
		c0.8-0.4,1.7-0.6,2.5-0.9c0.2-0.1,0.4-0.1,0.6,0c0.8,0.3,1.7,0.6,2.5,0.9c0.3,0.1,0.6,0.1,0.8,0c0.8-0.3,1.6-0.6,2.4-0.9
		c0.2-0.1,0.4-0.1,0.6,0c0.7,0.3,1.5,0.5,2.2,0.8C24.9,72,25.3,72.1,25.7,71.9z"/>
	<path class="st16" d="M29.7,62.1c0.5,0.1,1,0.3,1.5,0.5c0.3,0.1,0.6,0.1,0.8,0c0.6-0.3,1.3-0.5,1.9-0.7c0.5-0.2,1.1-0.2,1.6,0
		c0.7,0.4,1.6,0.5,2.3,0.8c0.2,0.1,0.4,0,0.5,0c0.9-0.4,1.8-0.6,2.7-1c0.2-0.1,0.4,0,0.5,0l3,1.1l0.1,0.4c-0.1,0.1-0.2,0.1-0.4,0
		c-0.9-0.4-1.8-0.6-2.7-1c-0.2-0.1-0.4-0.1-0.6,0c-0.8,0.4-1.8,0.6-2.6,1c-0.2,0.1-0.4,0-0.6,0c-0.7-0.3-1.5-0.5-2.2-0.8
		c-0.4-0.2-0.9-0.2-1.4,0c-0.6,0.3-1.3,0.5-2,0.8c-0.3,0.1-0.6,0.1-0.9,0c-0.5-0.2-1.1-0.4-1.5-0.6L29.7,62.1z"/>
	<path class="st16" d="M29.2,68.6c0-0.1,0.1-0.3,0.1-0.4c0.6,0.1,1.1,0.4,1.7,0.6c0.4,0.1,0.8,0.1,1.1,0c0.8-0.3,1.6-0.6,2.4-0.9
		c0.1-0.1,0.4-0.1,0.5,0c0.8,0.4,1.7,0.6,2.5,0.9c0.2,0.1,0.5,0.1,0.7,0c0.8-0.3,1.7-0.6,2.5-0.9c0.1-0.1,0.4-0.1,0.5-0.1
		c0.8,0.4,1.7,0.6,2.5,0.9l-0.1,0.4c-0.7-0.2-1.4-0.5-2.1-0.8c-0.2-0.1-0.5-0.1-0.8,0c-0.8,0.3-1.6,0.6-2.5,0.9
		c-0.3,0.1-0.6,0.1-0.8,0c-0.8-0.3-1.6-0.6-2.3-0.8c-0.4-0.1-0.7-0.1-1,0c-0.7,0.3-1.5,0.6-2.2,0.8c-0.3,0.1-0.6,0.1-1,0
		C30.4,69.1,29.8,68.8,29.2,68.6z"/>
	<path class="st17" d="M29.7,62.1l-0.1,0.4c-0.4,0-0.6-0.2-0.9-0.3c-0.2-0.1-0.4-0.1-0.6,0c-0.8,0.4-1.8,0.6-2.7,1
		c-0.3,0.1-0.4,0-0.6-0.1c-0.8-0.3-1.6-0.6-2.4-0.9c-0.2-0.1-0.5-0.1-0.7,0c-0.8,0.3-1.5,0.6-2.3,0.8c-0.4,0.1-0.6,0.1-1.1,0
		c-0.8-0.3-1.5-0.6-2.3-0.8c-0.3-0.1-0.5-0.1-0.8-0.1c0.1-0.3,0.3-0.4,0.4-0.6c0.8,0.4,1.7,0.6,2.5,1c0.4,0.2,0.8,0.1,1.1,0l2.3-0.8
		c0.2-0.1,0.5-0.1,0.7,0c0.8,0.4,1.7,0.6,2.5,0.9c0.2,0.1,0.4,0.1,0.6,0c0.8-0.4,1.8-0.6,2.7-1c0.1-0.1,0.2-0.1,0.4,0
		C28.9,61.7,29.3,61.9,29.7,62.1z"/>
	<path class="st16" d="M29.7,65.6c0-0.1,0.1-0.3,0.2-0.3c0.4,0.1,0.8,0.3,1.2,0.4c0.2,0.1,0.5,0.1,0.8,0c0.7-0.3,1.4-0.5,2-0.8
		s1.2-0.2,1.8,0.1s1.4,0.4,2.1,0.8c0.1,0.1,0.4,0,0.5-0.1l2.5-0.9c0.2-0.1,0.4-0.1,0.6,0l2.9,1.1v0.4c-0.8-0.3-1.7-0.6-2.5-0.9
		c-0.4-0.1-0.7-0.2-1.1,0c-0.7,0.3-1.5,0.6-2.3,0.8c-0.4,0.1-0.6,0.1-0.9,0c-0.8-0.3-1.6-0.6-2.3-0.8c-0.3-0.1-0.6-0.1-0.8,0
		L32,66.3c-0.3,0.1-0.6,0.1-0.9,0C30.8,66,30.1,65.8,29.7,65.6z"/>
	<path class="st16" d="M29.1,70.1v-0.4c0.5,0.1,1,0.4,1.5,0.5c0.1,0.1,0.3,0.1,0.4,0.1c0.4,0.2,0.8,0.1,1.2,0
		c0.7-0.3,1.5-0.6,2.3-0.8c0.2-0.1,0.4-0.1,0.6,0c0.8,0.3,1.6,0.6,2.5,0.9c0.3,0.1,0.6,0.1,0.8,0c0.8-0.3,1.6-0.6,2.5-0.9
		c0.2-0.1,0.4-0.1,0.6-0.1c0.6,0.3,1.4,0.5,2,0.8v0.4c-0.6-0.1-1.1-0.4-1.7-0.6c-0.4-0.1-0.7-0.1-1.1,0c-0.7,0.3-1.5,0.6-2.3,0.8
		c-0.3,0.1-0.6,0.1-1,0c-0.8-0.3-1.6-0.6-2.4-0.9c-0.2-0.1-0.4-0.1-0.6,0l-2,0.7L32,70.8c-0.3,0.1-0.6,0.1-0.9,0
		C30.4,70.6,29.7,70.4,29.1,70.1z"/>
	<path class="st16" d="M30.7,67.6c0-0.1,0.1-0.3,0.1-0.4c0.6,0.3,1.1,0.1,1.6-0.1c0.6-0.2,1.3-0.5,2-0.7c0.2-0.1,0.5-0.1,0.7,0
		c0.8,0.3,1.6,0.6,2.4,0.9c0.3,0.1,0.6,0.1,0.8,0c0.8-0.4,1.7-0.6,2.5-1c0.1-0.1,0.4-0.1,0.5,0l2.8,1.1c0.1,0,0.2,0.1,0.3,0.1v0.4
		c-0.1,0.1-0.2,0.1-0.4,0c-0.9-0.4-1.8-0.6-2.7-1c-0.2-0.1-0.4-0.1-0.6,0c-0.8,0.3-1.6,0.6-2.4,0.9c-0.4,0.1-0.7,0.1-1,0
		c-0.7-0.3-1.4-0.6-2.1-0.8c-0.4-0.1-0.8-0.1-1.1,0c-0.6,0.3-1.3,0.5-2,0.8c-0.4,0.1-0.8,0.2-1.1,0C30.9,67.7,30.8,67.6,30.7,67.6z"
		/>
	<path class="st16" d="M31.5,64.7v-0.4l2.8-1.1c0.3-0.1,0.5-0.1,0.8,0c0.6,0.3,1.3,0.5,2,0.7c0.1,0,0.2,0.1,0.3,0.1
		c0.3,0.2,0.6,0.2,0.8,0.1c0.8-0.4,1.8-0.6,2.7-1c0.2-0.1,0.4,0,0.6,0.1c0.8,0.3,1.5,0.6,2.3,0.8c0.4,0.1,0.8,0.2,1.1,0.1l0.1,0.4
		c-0.4,0.3-0.7,0.3-1.1,0.1c-0.8-0.3-1.6-0.6-2.4-0.9c-0.2-0.1-0.4-0.1-0.6,0c-0.8,0.4-1.8,0.6-2.7,1c-0.2,0.1-0.4,0.1-0.6,0
		c-0.7-0.3-1.5-0.6-2.2-0.8c-0.4-0.2-0.8-0.1-1.3,0C33.2,64.1,32.4,64.5,31.5,64.7z"/>
	<path class="st16" d="M23.9,83.1c-0.6-0.1-1.1-0.4-1.6-0.6c-0.2-0.1-0.5-0.1-0.7,0c-0.7,0.3-1.5,0.6-2.2,0.8
		c-0.4,0.1-0.8,0.2-1.2,0.1c-0.7-0.3-1.5-0.6-2.2-0.8c-0.3-0.1-0.6-0.1-0.8,0c-0.8,0.4-1.7,0.6-2.5,1c-0.2,0.1-0.4,0-0.6,0
		c-0.1-0.1-0.2-0.4-0.2-0.6c0.5,0.3,1,0,1.5-0.1c0.6-0.2,1.2-0.4,1.8-0.7c0.3-0.1,0.6-0.1,0.9,0c0.7,0.3,1.5,0.6,2.2,0.8
		c0.4,0.1,0.8,0.1,1.2,0c0.7-0.3,1.5-0.6,2.2-0.8c0.2-0.1,0.5-0.1,0.7,0c0.6,0.3,1.1,0.4,1.7,0.7L23.9,83.1z"/>
	<path class="st16" d="M23.8,87.7c-0.5-0.2-1.1-0.4-1.6-0.6c-0.2-0.1-0.4-0.1-0.6,0c-0.7,0.3-1.5,0.6-2.2,0.8
		c-0.4,0.1-0.8,0.2-1.2,0.1c-0.6-0.3-1.3-0.5-2-0.8c-0.5-0.2-0.9-0.3-1.4,0.1c-0.1-0.1-0.3-0.2-0.3-0.4l0.1-0.1c1-0.4,1-0.4,2.2,0.1
		c0.4,0.1,0.9,0.4,1.3,0.5c0.4,0.2,0.8,0.1,1.3,0c0.7-0.3,1.3-0.5,2-0.8c0.3-0.1,0.6-0.1,0.9,0c0.5,0.2,1.1,0.4,1.5,0.6
		C23.8,87.4,23.8,87.6,23.8,87.7z"/>
	<path class="st17" d="M18.1,78.2c-0.1,0.1-0.1,0.3-0.1,0.4c-0.7-0.3-1.3-0.5-2-0.8c-0.3-0.1-0.6-0.1-0.8,0
		c-0.8,0.3-1.6,0.6-2.5,0.9c-0.2,0.1-0.5,0.1-0.7,0l-1.1-0.4c-0.2-0.1-0.4-0.2-0.7-0.2c-0.1-0.1-0.1-0.4-0.1-0.6
		c0.6,0.1,1.1,0.4,1.7,0.6c0.4,0.1,0.8,0.2,1.2,0c0.8-0.4,1.6-0.6,2.3-0.8c0.1-0.1,0.3-0.1,0.4-0.1C16.5,77.6,17.4,77.8,18.1,78.2z"
		/>
	<path class="st17" d="M17.6,73.2c-0.1,0.1-0.1,0.3-0.1,0.4c-0.4-0.1-0.9-0.3-1.3-0.5c-0.4-0.2-0.7-0.2-1.1,0
		c-0.7,0.3-1.4,0.5-2.1,0.8c-0.4,0.1-0.7,0.1-1.1,0c-0.6-0.3-1.3-0.5-1.9-0.7v-0.5l2.1,0.8c0.3,0.1,0.5,0.1,0.8-0.1
		c0.8-0.3,1.6-0.6,2.4-0.9c0.1-0.1,0.4-0.1,0.5-0.1C16.4,72.8,17.1,73,17.6,73.2z"/>
	<path class="st16" d="M22.5,88.8c-0.5-0.2-0.9-0.1-1.3,0.1c-0.6,0.3-1.3,0.5-1.9,0.7c-0.3,0.1-0.6,0.1-1,0c-0.5-0.2-1-0.4-1.6-0.6
		c-0.5-0.2-0.6-0.4-0.7-0.8c0.6,0.1,1.2,0.4,1.8,0.6c0.1,0,0.2,0.1,0.4,0.1c0.4,0.3,0.8,0.1,1.3,0c0.7-0.3,1.4-0.5,2.1-0.8
		c0.4-0.2,0.8,0,1.2,0.2C22.6,88.5,22.5,88.6,22.5,88.8z"/>
	<path class="st17" d="M16.2,74.3l-0.1,0.4c-0.4-0.1-0.6-0.1-1,0.1c-0.7,0.3-1.4,0.5-2.1,0.8c-0.4,0.1-0.7,0.1-1.1,0
		c-0.6-0.3-1.3-0.5-2-0.7c0-0.2,0-0.4,0-0.6l2.2,0.8c0.2,0.1,0.4,0.1,0.6,0c0.8-0.3,1.6-0.6,2.5-0.9C15.5,74,15.9,74,16.2,74.3z"/>
	<path class="st17" d="M16.2,75.9l-0.1,0.4c-0.4-0.1-0.8-0.1-1.2,0.1c-0.7,0.3-1.4,0.6-2.1,0.8c-0.3,0.1-0.5,0.1-0.8,0
		c-0.7-0.3-1.4-0.5-2.1-0.8v-0.5c0.6,0.2,1.3,0.4,2,0.7c0.3,0.1,0.7,0.1,1,0c0.8-0.4,1.6-0.6,2.5-0.9C15.7,75.6,15.9,75.8,16.2,75.9
		z"/>
	<path class="st17" d="M33.2,56.3c-0.5,0.3-1.1,0.4-1.6,0.6c-0.1,0.1-0.2,0-0.3,0c-0.7-0.3-1.5-0.5-2.1-0.8c0.4-0.2,0.7-0.1,1.1-0.1
		c0.2,0.2,0.6,0.3,0.8,0.4c0.5,0.2,0.8,0.1,1.2-0.3C32.6,56.2,32.9,56,33.2,56.3z"/>
	<path class="st1" d="M27.4,93.7c0.8-0.6,1.4-0.3,2.2,0.1C28.8,93.8,28.1,93.7,27.4,93.7z"/>
	<path class="st11" d="M32.4,56.1c-0.4,0.3-0.8,0.5-1.2,0.3c-0.3-0.1-0.6-0.1-0.8-0.4C31,55.9,31.7,56,32.4,56.1z"/>
	<path class="st16" d="M38.7,81.6l-0.2,0.1c0-0.1,0.1-0.3-0.1-0.4c0.1-0.1,0.2-0.1,0.3-0.1L38.7,81.6z"/>
	<path class="st11" d="M43.2,60.8c-0.1,0-0.1,0-0.1-0.1L43.2,60.8z"/>
	<path class="st9" d="M71.2,69.1c0,0.1,0,0.2,0,0.4c0,4.2,0,8.5,0,12.8c0,0.1,0,0.1,0,0.3H59.2c0-0.1,0-0.3,0-0.4
		c0-4.2,0-8.3,0-12.5c0-0.1,0-0.3,0-0.4L71.2,69.1z M64.7,82.1h1.1c0.6,0,0.6,0,0.6-0.6c0-0.4,0-0.4-0.4-0.4h-2.4
		c-0.5,0-0.5,0-0.5,0.5c0,0.1,0,0.1,0,0.2c0,0.2,0.1,0.4,0.3,0.3C63.8,82.1,64.3,82.1,64.7,82.1z M64.7,74.4H66c0.4,0,0.4,0,0.4-0.4
		c0-0.1,0-0.1,0-0.2c0-0.2-0.1-0.4-0.4-0.4c-0.9-0.1-1.8-0.1-2.7,0c-0.2,0-0.4,0.1-0.3,0.4c0,0.1,0,0.2,0,0.3c0,0.2,0.1,0.4,0.4,0.3
		C63.8,74.4,64.3,74.4,64.7,74.4z M64.1,69.6h-0.6c-0.5,0-0.5,0-0.5,0.5c0,0.1,0,0.1,0,0.2c0,0.4,0.1,0.4,0.4,0.4c0.4,0,0.7,0,1.1,0
		c0.6,0,0.6,0,0.6-0.6v-0.1c0-0.2-0.1-0.3-0.3-0.3L64.1,69.6z M64.1,76.4h0.4c0.7,0,0.6,0.1,0.6-0.7c0-0.2-0.1-0.4-0.4-0.4h-1.1
		c-0.6,0-0.6,0-0.6,0.6c0,0.1,0,0.1,0,0.1s0.1,0.2,0.3,0.2L64.1,76.4z M64.1,71.5h-0.4c-0.6,0-0.6,0-0.6,0.6c0,0.4,0,0.4,0.4,0.4
		h1.1c0.7,0,0.7,0,0.6-0.7c0-0.2-0.1-0.3-0.3-0.3H64.1z M64.1,80.2h0.4c0.6,0,0.6,0,0.6-0.6c0,0,0,0,0-0.1c0-0.2-0.1-0.3-0.3-0.3
		h-1.1c-0.6,0-0.6,0-0.6,0.6v0.1c0,0.1,0.1,0.2,0.3,0.2L64.1,80.2L64.1,80.2z M64.1,77.3h-0.4c-0.6,0-0.6,0-0.6,0.6
		c0,0.1,0,0.1,0,0.1c0,0.2,0.1,0.3,0.3,0.3h1.3c0.5,0,0.5,0,0.5-0.5c0-0.1,0-0.1,0-0.2c0-0.2-0.1-0.3-0.3-0.3L64.1,77.3L64.1,77.3z"
		/>
	<path class="st4" d="M59.2,82.4h12.1c0.1,0.4,0,0.6,0,1c0,1.7,0,3.4,0,5.1h-4.4c-0.1,0-0.4-0.1-0.5,0.1c-1.1,0-2.3,0-3.4,0
		c-0.1-0.2-0.4-0.1-0.5-0.1h-3.4C59.1,86.5,59.1,84.5,59.2,82.4z M64.1,87.7h0.4c0.6,0,0.7-0.1,0.6-0.7c0-0.2-0.1-0.3-0.3-0.3h-1.2
		c-0.6,0-0.6,0-0.6,0.6v0.1c0,0.1,0.1,0.2,0.3,0.2L64.1,87.7z M64.1,84.8h-0.4c-0.6,0-0.6,0-0.6,0.6c0,0.3,0.1,0.4,0.4,0.4
		c0.2,0,0.7,0,1.1,0c0.6,0,0.6,0,0.6-0.6c0,0,0,0,0-0.1c0-0.2-0.1-0.3-0.3-0.3H64.1z M64.1,82.9h-0.4c-0.6,0-0.6,0-0.6,0.6
		c0,0.3,0.1,0.4,0.4,0.4c0.4,0,0.8,0,1.1,0c0.6,0,0.6,0,0.6-0.6c0-0.1,0-0.1,0-0.1s-0.1-0.2-0.3-0.2H64.1z"/>
	<path class="st4" d="M71.2,58.6c0,1.7,0.1,3.3,0,5h-0.6c-2,0.1-4-0.1-6.1,0.1c-0.6,0.1-1.3,0-2-0.1c-1.1-0.1-2.3,0-3.5,0
		c-0.1-0.8,0-1.6,0-2.4c0-0.8,0-1.8,0-2.6H63c0,0.1,0,0.1,0,0.1c0,0.4,0,0.4,0.5,0.4h2.3c0.7,0,0.6,0,0.6-0.6L71.2,58.6z M64.1,61.1
		h0.5c0.5,0,0.5,0,0.5-0.5v-0.1c0-0.4,0-0.4-0.4-0.4h-1.3c-0.4,0-0.4,0-0.4,0.4c0,0.1,0,0.1,0,0.1c0,0.4,0,0.4,0.4,0.4H64.1z
		 M64.1,62h-0.4c-0.6,0-0.6,0-0.6,0.6c0,0.3,0.1,0.4,0.4,0.4c0.2,0,0.7,0,1.1,0c0.6,0,0.6,0,0.6-0.6c0-0.2-0.1-0.4-0.3-0.4
		C64.5,62,64.3,62,64.1,62L64.1,62z"/>
	<path class="st9" d="M59.2,63.7c1.1,0,2.3-0.1,3.5,0c0.7,0,1.3,0.1,2,0.1c2-0.2,4,0,6.1-0.1h0.6c0,1.2,0.1,2.4,0,3.6H59.2
		C59.1,66,59.2,64.9,59.2,63.7z M64.8,65.8h-1.3c-0.4,0-0.4,0-0.4,0.4c0,0.1,0,0.1,0,0.2c0,0.4,0,0.4,0.4,0.4h2.4
		c0.6,0,0.6,0,0.6-0.6c0,0,0,0,0-0.1c0-0.2-0.1-0.3-0.3-0.3H64.8z M64.1,63.9h-0.5c-0.6,0-0.6,0-0.6,0.6c0,0.1,0,0.1,0,0.1
		c0,0.2,0.1,0.4,0.3,0.3c0.4,0,0.8,0,1.2,0c0.6,0,0.6,0,0.6-0.6v-0.1c0-0.2-0.1-0.3-0.3-0.3H64.1z"/>
	<path class="st4" d="M71.2,58.6h-4.9c-0.1-0.4-0.1-0.4-0.4-0.4h-2.6c-0.4,0-0.4,0-0.4,0.4h-3.9c0-0.7,0-1.5,0-2.2
		c0-0.6,0.4-0.9,0.9-1c0.1,0,0.3,0,0.4,0H70c0.1,0,0.3,0,0.4,0c0.6,0.1,0.9,0.4,0.9,1C71.3,57.2,71.2,57.9,71.2,58.6z M64.1,57.4
		h0.4c0.6,0,0.6,0,0.6-0.6c0-0.2-0.1-0.4-0.3-0.4h-1.5c-0.1,0-0.2,0-0.3,0.1c-0.1,0.3-0.1,0.5,0,0.8c0.1,0.2,0.3,0.1,0.5,0.1
		C63.8,57.4,63.9,57.4,64.1,57.4L64.1,57.4z"/>
	<path class="st4" d="M66.4,88.6c0.1-0.2,0.4-0.1,0.5-0.1h4.4c0.1,0.8,0,1.6,0,2.3h-6.1c0-0.2-0.1-0.3-0.3-0.3h-1.6
		c-0.2,0-0.3,0.1-0.3,0.3h-3.9c0-0.8,0-1.6,0-2.3h3.4c0.1,0,0.4-0.1,0.5,0.1c0,0.2,0,0.4,0,0.6s0.1,0.4,0.4,0.4h2.7
		c0.3,0,0.4-0.1,0.4-0.4C66.4,89,66.4,88.8,66.4,88.6z"/>
	<path class="st18" d="M59.2,67.2h12.1c0.1,0.6,0.1,1.3,0,1.9H59.2C59.1,68.5,59.1,67.8,59.2,67.2z"/>
	<path class="st4" d="M59.2,90.8h3.9c0,0.1,0,0.2,0,0.3c0,0.4,0,0.4,0.4,0.4h0.9c0.8,0,0.7,0.1,0.7-0.7h6.1c0.1,0.6,0.1,1.3,0,2
		h-6.1c-0.1-0.4-0.1-0.4-0.4-0.4h-1.3c-0.4,0-0.4,0-0.4,0.4h-3.9C59.1,92.2,59.1,91.4,59.2,90.8z"/>
	<path class="st4" d="M59.2,92.8h3.9c0,0.1,0,0.1,0,0.2c0,0.4,0,0.4,0.4,0.4h1.1c0.6,0,0.6,0,0.6-0.6h6.1c0,0.1,0,0.3,0,0.4
		c0,0.6-0.4,1-1.1,1.1h-9.7c-0.1,0-0.3,0-0.4,0c-0.6-0.1-0.8-0.4-0.8-1C59.1,93.1,59.2,93,59.2,92.8z"/>
	<path class="st13" d="M38.4,81.4c0.1,0.1,0.1,0.3,0.1,0.4c-0.3,0.1-0.5,0.3-0.8,0.1v-0.4C37.9,81.5,38.1,81.4,38.4,81.4z"/>
	<path class="st7" d="M64.7,82.1c-0.4,0-0.9,0-1.3,0c-0.2,0-0.4-0.1-0.3-0.3c0-0.1,0-0.1,0-0.2c0-0.5,0-0.5,0.5-0.5H66
		c0.4,0,0.4,0,0.4,0.4c0,0.6,0,0.6-0.6,0.6L64.7,82.1z"/>
	<path class="st7" d="M64.7,74.4c-0.4,0-0.9,0-1.3,0c-0.2,0-0.4-0.1-0.4-0.3c0-0.1,0-0.2,0-0.3c0-0.2,0.1-0.3,0.3-0.4
		c0.9-0.1,1.8-0.1,2.7,0c0.3,0,0.4,0.1,0.4,0.4c0,0.1,0,0.1,0,0.2c0,0.4,0,0.4-0.4,0.4H64.7z"/>
	<path class="st7" d="M64.1,69.6h0.8c0.2,0,0.3,0.1,0.3,0.3v0.1c0,0.6,0,0.6-0.6,0.6c-0.4,0-0.7,0-1.1,0s-0.4-0.1-0.4-0.4
		c0-0.1,0-0.1,0-0.2c0-0.5,0-0.5,0.5-0.5L64.1,69.6L64.1,69.6z"/>
	<path class="st7" d="M64.1,76.4h-0.8c-0.1,0-0.3-0.1-0.3-0.2c0-0.1,0-0.1,0-0.1c0-0.6,0-0.6,0.6-0.6h1.1c0.2,0,0.4,0.1,0.4,0.4
		c0,0.8,0,0.7-0.6,0.7L64.1,76.4L64.1,76.4z"/>
	<path class="st7" d="M64.1,71.5h0.8c0.2,0,0.3,0.1,0.3,0.3c0.1,0.7,0,0.7-0.6,0.7h-1.1c-0.4,0-0.4,0-0.4-0.4c0-0.6,0-0.6,0.6-0.6
		H64.1L64.1,71.5z"/>
	<path class="st7" d="M64.1,80.2h-0.8c-0.1,0-0.3-0.1-0.3-0.2v-0.1c0-0.6,0-0.6,0.6-0.6h1.1c0.2,0,0.3,0.1,0.3,0.3c0,0,0,0,0,0.1
		c0.1,0.6,0.1,0.6-0.6,0.6L64.1,80.2L64.1,80.2z"/>
	<path class="st7" d="M64.1,77.3h0.8c0.2,0,0.3,0.1,0.3,0.3c0,0.1,0,0.1,0,0.2c0,0.5,0,0.5-0.5,0.5h-1.3c-0.2,0-0.3-0.1-0.3-0.3
		c0-0.1,0-0.1,0-0.1c0-0.6,0-0.6,0.6-0.6L64.1,77.3L64.1,77.3z"/>
	<path class="st7" d="M66.4,88.6c0,0.2,0,0.4,0,0.6s-0.1,0.4-0.4,0.4h-2.7c-0.3,0-0.4-0.1-0.4-0.4s0-0.4,0-0.6
		C64.2,88.6,65.3,88.6,66.4,88.6z"/>
	<path class="st7" d="M64.1,87.7h-0.7c-0.1,0-0.3-0.1-0.3-0.2v-0.1c0-0.6,0-0.6,0.6-0.6h1.2c0.2,0,0.3,0.1,0.3,0.3
		c0.1,0.7,0,0.7-0.6,0.7L64.1,87.7L64.1,87.7z"/>
	<path class="st7" d="M64.1,84.8h0.7c0.2,0,0.3,0.1,0.3,0.3c0,0,0,0,0,0.1c0.1,0.6,0.1,0.6-0.6,0.6c-0.4,0-0.7,0-1.1,0
		s-0.4-0.1-0.4-0.4c0-0.6,0-0.6,0.6-0.6H64.1L64.1,84.8z"/>
	<path class="st7" d="M64.1,82.9h0.8c0.1,0,0.3,0.1,0.3,0.2c0,0.1,0,0.1,0,0.1c0,0.6,0,0.6-0.6,0.6c-0.4,0-0.8,0-1.1,0
		c-0.3,0-0.4-0.1-0.4-0.4c0-0.6,0-0.6,0.6-0.6H64.1L64.1,82.9z"/>
	<path class="st7" d="M63.1,58.6c0.1-0.4,0.1-0.4,0.4-0.4H66c0.4,0,0.4,0,0.4,0.4c0,0.6,0.1,0.6-0.6,0.6h-2.2c-0.5,0-0.5,0-0.5-0.4
		C63.1,58.7,63.1,58.7,63.1,58.6z"/>
	<path class="st7" d="M64.1,61.1h-0.7c-0.4,0-0.4,0-0.4-0.4c0-0.1,0-0.1,0-0.1c0-0.4,0-0.4,0.4-0.4h1.3c0.4,0,0.4,0,0.4,0.4v0.1
		c0,0.5,0,0.5-0.5,0.5H64.1z"/>
	<path class="st7" d="M64.1,62c0.2,0,0.5,0,0.7,0s0.3,0.1,0.3,0.4c0,0.6,0,0.6-0.6,0.6c-0.4,0-0.7,0-1.1,0s-0.4-0.1-0.4-0.4
		c0-0.6,0-0.6,0.6-0.6H64.1z"/>
	<path class="st7" d="M64.8,65.8h1.3c0.2,0,0.3,0.1,0.3,0.3c0,0,0,0,0,0.1c0,0.6,0,0.6-0.6,0.6h-2.4c-0.4,0-0.4,0-0.4-0.4
		c0-0.1,0-0.1,0-0.2c0-0.4,0-0.4,0.4-0.4H64.8L64.8,65.8z"/>
	<path class="st7" d="M64.1,63.9h0.7c0.2,0,0.3,0.1,0.3,0.3v0.1c0,0.6,0,0.6-0.6,0.6c-0.4,0-0.8,0-1.2,0c-0.2,0-0.4-0.1-0.3-0.3
		c0-0.1,0-0.1,0-0.1c0-0.6,0-0.6,0.6-0.6H64.1L64.1,63.9z"/>
	<path class="st7" d="M64.1,57.4c-0.1,0-0.4,0-0.5,0c-0.1,0-0.4,0.1-0.5-0.1c-0.1-0.3-0.1-0.5,0-0.8c0-0.1,0.1-0.1,0.3-0.1h1.5
		c0.2,0,0.3,0.1,0.3,0.4c0,0.6,0,0.6-0.6,0.6L64.1,57.4z"/>
	<path class="st7" d="M65.1,90.8c0,0.8,0.1,0.7-0.7,0.7h-0.9c-0.4,0-0.4,0-0.4-0.4c0-0.1,0-0.2,0-0.3s0.1-0.3,0.3-0.3h1.6
		C65,90.5,65.1,90.6,65.1,90.8z"/>
	<path class="st7" d="M65.1,92.8c0,0.6,0.1,0.6-0.6,0.6h-1.1c-0.4,0-0.4,0-0.4-0.4c0-0.1,0-0.1,0-0.2c0.1-0.4,0.1-0.4,0.4-0.4h1.3
		C65.1,92.4,65.1,92.4,65.1,92.8z"/>
</g>
</svg>
