<?xml version="1.0" encoding="utf-8"?>
<!-- Generator: Adobe Illustrator 21.0.2, SVG Export Plug-In . SVG Version: 6.00 Build 0)  -->
<svg version="1.1" id="master-artboard" xmlns="http://www.w3.org/2000/svg" xmlns:xlink="http://www.w3.org/1999/xlink" x="0px"
	 y="0px" viewBox="0 0 150 107.1" style="enable-background:new 0 0 150 107.1;" xml:space="preserve">
<style type="text/css">
	.st0{fill:#FFFFFF;fill-opacity:0;}
	.st1{fill:#D85335;}
	.st2{opacity:0.2;fill:#8C877C;enable-background:new    ;}
	.st3{fill:#6D893B;}
	.st4{fill:#E8E1D4;}
	.st5{fill:#FFF4DC;}
	.st6{fill:#EACB9D;}
	.st7{fill:#D6B890;}
	.st8{fill:#3F0C04;}
	.st9{fill:#D85B1D;}
	.st10{fill:#7D9F3D;}
	.st11{fill:#EACE57;}
	.st12{fill:#634253;}
	.st13{fill:#AB483A;}
	.st14{fill:#EDE9D6;}
	.st15{fill:#FCF9EB;}
	.st16{fill:#47331B;}
	.st17{fill:#DDDACA;}
	.st18{opacity:0.4;fill:#7C776D;enable-background:new    ;}
	.st19{fill:#D1A63D;}
	.st20{fill:#EF4E29;}
	.st21{fill:#D72E2A;}
	.st22{fill:#E0AA48;}
	.st23{fill:#F4BF3D;}
	.st24{fill:#FFFFFF;}
	.st25{fill:#F9BB21;}
	.st26{fill:#FFF7E3;}
	.st27{opacity:0.1;fill:#8C877C;enable-background:new    ;}
	.st28{fill:#BA4D42;}
	.st29{opacity:0.2;}
	.st30{fill:#8C877C;}
	.st31{fill:#DDC697;}
	.st32{fill:#5B4736;}
	.st33{fill:#66E836;}
	.st34{fill:#9E0820;}
	.st35{fill:#F9DC87;}
	.st36{fill:none;}
	.st37{fill:#E0792D;}
	.st38{fill:#F99D58;}
	.st39{fill:#EFDDAB;}
	.st40{opacity:0.4;}
	.st41{fill:#FCFCF7;}
</style>
<rect id="ee-background" class="st0" width="150" height="107.1"/>
<g transform="matrix(1, 0, 0, 1, 20.432701110839844, 17.02724266052246)">
</g>
<path class="st1" d="M94.4,79.4C94.5,79.4,94.5,79.4,94.4,79.4c0.4-0.2,1-0.4,1-0.4c0-0.1-1.1-0.2-1.6-0.7c-0.7-0.5-1-1.1-1.1-1.1
	c0,0,0.1,0.2,0.1,1c0,0.2-0.1,0.4-0.1,0.6c0,0.1,0,0.2,0,0.2c0,0,0,0,0,0s0,0-0.1,0c-0.1,0-0.4-0.1-0.6-0.2
	c-0.5-0.1-1.1-0.1-1.7,0.3c-1,0.7-2.3,2.4-2.9,3c-0.6,0.6-3,2.3-3.8,2.6c-1,0.4-3.6,1.2-4.9,1.1c-1.3-0.1-3.6-0.6-4-0.7
	c-0.5-0.2-2.3-0.9-2.8-1.2c-0.5-0.4-2.5-0.4-3.5,0.6c-0.1-0.1-0.3-0.3-0.6-0.6c-0.2-0.4-0.4-0.9-0.5-0.9c-0.1,0-0.1,0.3-0.2,0.7
	c-0.1,0.3-0.2,0.6-0.3,0.8c0,0,0,0.1,0,0.1c-0.1,0.1-0.2,0.2-0.2,0.3c-0.4,0.5-0.8,0.8-0.8,0.9c0,0,0.1-0.1,0.4-0.1
	c0.2,0,0.6,0,1.2,0.1c0.1,0,0.2,0,0.3,0c-0.3,0.7-0.4,1.6,0.3,2.4c1.3,1.3,3.5,2.3,4.6,2.7c1,0.4,3.6,1.2,6.8,1
	c2.6-0.2,4.8-0.5,8-2.3c3.2-1.7,5.8-4.8,5.8-4.8s0.6-0.6,1-1.3c0.4-0.7,0.6-1.6,0.2-2.4c-0.1-0.3-0.2-0.5-0.4-0.6
	c-0.1-0.1-0.1-0.2-0.2-0.3c0,0,0,0,0,0C93.8,79.9,94.1,79.7,94.4,79.4z"/>
<path class="st2" d="M28,95.3c-0.3-2.1-5.9-12.7-5.9-12.7c-0.3-0.7-0.7-1.4-0.9-2c-1.2-2.7-3.8-10.3-4.4-12
	c-0.5-1.8-0.3-1.7-0.2-2.7c0.1-1,0.9-2.1,0.5-4c-0.4-1.9-2.3-5.8-4-9.6c-1.7-3.8-1.5-3.1-1.3-2.5c0.2,0.6,3.7,10.4,3.8,11
	c0.1,0.6-0.7,0.8-0.9,0.4c-0.2-0.4-0.3-0.7-1.2-2.8c-0.9-2.1-3.4-8.2-3.5-8.1c-0.1,0.1,3.7,10.8,3.9,11.3c0.1,0.5-0.2,0.5-0.2,0.6
	l0,0c-0.1,0-0.3,0.3-0.5-0.2c-0.2-0.5-3.9-11.3-4-11.3c-0.1,0,1.7,6.4,2.3,8.7c0.6,2.2,0.7,2.6,0.8,3c0.1,0.4-0.6,0.9-0.9,0.4
	c-0.3-0.5-3.6-10.4-3.8-10.9c-0.2-0.6-0.5-1.3,0.6,2.9c1,4.2,2,8.6,2.9,10.2c0.9,1.7,2.1,1.7,2.7,2.3c0.7,0.6,0.8,0.4,1.4,2.1
	c0.7,1.7,3.3,9.3,4,12.2c0.4,1.6,0.8,3.6,1.2,5.4c0,0,1.9,9.5,2.7,10.3C25,99.5,28.3,97.4,28,95.3z"/>
<path class="st2" d="M25.6,41.9l24.1,56L11,82.7L25.6,41.9z"/>
<path class="st2" d="M37.3,23.3c0,7.9-6.6,14.3-14.7,14.3c-8.1,0-14.7-6.4-14.7-14.3C7.8,15.4,14.4,9,22.5,9
	C30.7,9,37.3,15.4,37.3,23.3z"/>
<path class="st3" d="M27.8,41.9l24.1,56L13.2,82.7L27.8,41.9z"/>
<path class="st4" d="M29,94.6c-0.3-2.1-5.9-12.7-5.9-12.7c-0.3-0.7-0.7-1.4-0.9-2c-1.2-2.7-3.8-10.3-4.4-12
	c-0.5-1.8-0.3-1.7-0.2-2.7c0.1-1,0.9-2.1,0.5-4c-0.4-1.9-2.3-5.8-4-9.6c-1.7-3.8-1.5-3.1-1.3-2.5c0.2,0.6,3.7,10.4,3.8,11
	c0.1,0.6-0.7,0.8-0.9,0.4c-0.2-0.4-0.3-0.7-1.2-2.8c-0.9-2.1-3.4-8.2-3.5-8.1c-0.1,0.1,3.7,10.8,3.9,11.3c0.1,0.5-0.2,0.5-0.2,0.6
	l0,0c-0.1,0-0.3,0.3-0.5-0.2c-0.2-0.5-3.9-11.3-4-11.3c-0.1,0,1.7,6.4,2.3,8.7c0.6,2.2,0.7,2.6,0.8,3c0.1,0.4-0.6,0.9-0.9,0.4
	c-0.3-0.5-3.6-10.4-3.8-10.9c-0.2-0.6-0.5-1.3,0.6,2.9c1,4.2,2,8.6,2.9,10.2c0.9,1.7,2.1,1.7,2.7,2.3c0.7,0.6,0.8,0.4,1.4,2.1
	c0.7,1.7,3.3,9.3,4,12.2c0.4,1.6,0.8,3.6,1.2,5.4c0,0,1.9,9.5,2.7,10.3C26,98.8,29.3,96.7,29,94.6z"/>
<path class="st2" d="M118.4,54.8c0,23.7-20.2,42.9-45.1,42.9c-24.9,0-45.1-19.2-45.1-42.9c0-23.7,20.2-42.9,45.1-42.9
	C98.2,11.9,118.4,31.1,118.4,54.8z"/>
<path class="st5" d="M116.2,56.8c0,23.7-19.2,42.9-42.9,42.9c-23.7,0-42.9-19.2-42.9-42.9c0-23.7,19.2-42.9,42.9-42.9
	C97,13.9,116.2,33.1,116.2,56.8z"/>
<path class="st2" d="M102.9,56.8c0,16.4-13.3,29.6-29.6,29.6c-16.4,0-29.6-13.3-29.6-29.6c0-16.4,13.3-29.6,29.6-29.6
	C89.7,27.2,102.9,40.4,102.9,56.8z"/>
<g transform="matrix(0.5670307874679565, 0, 0, 0.5670307874679565, 20.432701110839844, 17.02724266052246)">
	<path class="st6" d="M42.1,42.6C26,58.4,26.8,63.8,30.3,67.9c1.6,1.9,3.4,2.7,9.7,3.5c0,0,14.3,17.6,18.2,21.2
		c0.9,0.8,1.8,1.3,2.8,1.5c0-22.2,1.7-44.1,1.7-66.2C58.5,28.7,52.3,32.6,42.1,42.6z"/>
	<path class="st7" d="M93.1,58.3c-3.5-4-20.9-18.5-20.9-18.5c-0.5-6.5-1.3-8.3-3.1-10c-1.7-1.5-3.6-2.4-6.5-1.9
		c0,22.1-1.7,43.9-1.7,66.2c6,1.3,13.4-7.3,15.5-8.9c0.6-0.5,2.1-1.9,3.9-3.6c1.9-1.9,3.5-3.5,4-4.2C86.4,74.8,98.8,64.8,93.1,58.3z
		"/>
</g>
<g transform="matrix(0.5670307874679565, 0, 0, 0.5670307874679565, 20.432701110839844, 17.02724266052246)">
	<g>
		<path class="st8" d="M158.4,86.9l-1.1,0.7l-35.4-62.2l1.1-0.7L158.4,86.9z"/>
	</g>
	<g>
		<path class="st9" d="M144.5,78.1c-0.5-0.8,1.9-3.1,5.3-5c3.4-1.9,6.5-2.8,7-2c0.5,0.8-1.9,3.1-5.3,5
			C148.1,78.1,145,78.9,144.5,78.1z"/>
	</g>
	<g>
		<path class="st10" d="M130.7,53.8c-0.6-1,1.7-3.5,5-5.4s6.6-2.6,7.2-1.6c0.6,1-1.7,3.5-5,5.4C134.5,54.2,131.3,54.9,130.7,53.8z"
			/>
	</g>
	<g>
		<path class="st11" d="M140.8,71.6c-0.9-1.6,1.1-4.4,4.5-6.3c3.4-1.9,6.8-2.2,7.7-0.6c0.9,1.6-1.1,4.4-4.5,6.3
			C145.2,72.9,141.7,73.2,140.8,71.6z"/>
	</g>
	<g>
		<path class="st12" d="M135.7,63.9c-0.9-1.6,1.1-4.4,4.5-6.3c3.4-1.9,6.8-2.2,7.7-0.6c0.9,1.6-1.1,4.4-4.5,6.3
			C140.1,65.2,136.6,65.5,135.7,63.9z"/>
	</g>
	<g>
		<path class="st13" d="M125.1,44c-1.5-2.6,0.1-6.2,3.5-8.2c3.4-1.9,7.3-1.4,8.8,1.2c1.5,2.6-0.1,6.2-3.5,8.2
			C130.5,47.1,126.6,46.6,125.1,44z"/>
	</g>
	<g>
		<path class="st8" d="M114.8,13.9c1.8-1,4.1-2,6.4-1.4c1.6,0.4,3,1.6,4.1,3.5c1.2,2.1,1.5,4.1,0.9,5.9c-1,2.8-4,4-4.1,4l-0.4-1.1
			c0,0,2.6-1.1,3.4-3.4c0.5-1.4,0.2-3.1-0.8-4.9c-0.9-1.7-2.1-2.7-3.4-3c-2.1-0.6-4.4,0.6-6.2,1.7l-0.6-1
			C114.3,14.1,114.6,14,114.8,13.9z"/>
	</g>
</g>
<path class="st14" d="M38.8,23.1c0,7.9-6.6,14.3-14.7,14.3C16,37.4,9.4,31,9.4,23.1c0-7.9,6.6-14.3,14.7-14.3
	C32.2,8.8,38.8,15.2,38.8,23.1z"/>
<path class="st2" d="M35.5,21.5c0,6.5-5.1,11.8-11.4,11.8c-6.3,0-11.4-5.3-11.4-11.8c0-6.5,5.1-11.8,11.4-11.8
	C30.4,9.7,35.5,15,35.5,21.5z"/>
<path class="st15" d="M34.6,21.2c0,5.8-4.7,10.5-10.5,10.5S13.6,27,13.6,21.2s4.7-10.5,10.5-10.5S34.6,15.4,34.6,21.2z"/>
<path class="st16" d="M33.2,21.2c0,5-4.1,9-9.1,9l0,0c-5,0-9.1-4-9.1-9l0,0c0-5,4.1-9,9.1-9l0,0C29.1,12.2,33.2,16.3,33.2,21.2
	L33.2,21.2z"/>
<path class="st16" d="M32.8,21.5c0,5-4.2,9.1-9.2,9.1c-5,0-9-4.1-9-9.1c0-5,4.1-9,9.1-9C28.8,12.5,32.8,16.5,32.8,21.5z"/>
<path class="st15" d="M15.5,15.2l-1.1,2.1c0,0-2.7-2.2-3.7-2.4c-0.7-0.1-0.6,0.1-0.5,0.5c0.1,0.4-1.5-1.7,0.8-2.4
	C11.9,12.8,15.5,15.2,15.5,15.2z"/>
<path class="st17" d="M13.9,18.8l0.5-1.5c0,0-2.7-2.4-4-2.4c-0.4,0-0.4,0.5-0.2,0.6L13.9,18.8z"/>
<path class="st18" d="M10.1,15.4l3.6,4.5c0-0.4,0.2-1.1,0.2-1.1L10.1,15.4z"/>
<g transform="matrix(0.5670307874679565, 0, 0, 0.5670307874679565, 20.432701110839844, 17.02724266052246)">
	<g>
		<path class="st19" d="M76.4,70.8c-3.8-26.6,7-35.6,7.5-36l2.3,2.9L85,36.2l1.2,1.4c-0.1,0.1-9.6,8.2-6.1,32.6L76.4,70.8z"/>
	</g>
</g>
<g transform="matrix(0.5670307874679565, 0, 0, 0.5670307874679565, 20.432701110839844, 17.02724266052246)">
	<g>
		<path class="st19" d="M83,70.3l-3.6-0.9c7.5-29.2,7.7-45.8,7.7-46l3.7,0C90.8,24.1,90.6,40.6,83,70.3z"/>
	</g>
</g>
<g transform="matrix(0.5670307874679565, 0, 0, 0.5670307874679565, 20.432701110839844, 17.02724266052246)">
	<g>
		<path class="st19" d="M110,58.5l-3.7-0.5c2-16.1,13.7-22.2,14.2-22.4l1.7,3.3l-0.8-1.7l0.8,1.6C121.7,39.1,111.7,44.4,110,58.5z"
			/>
	</g>
</g>
<g transform="matrix(0.5670307874679565, 0, 0, 0.5670307874679565, 20.432701110839844, 17.02724266052246)">
	<g>
		<path class="st19" d="M93,62c-2.8-21.8-0.1-38.2,0-38.8l3.6,0.6c0,0.2-2.7,16.6,0,37.8L93,62z"/>
	</g>
</g>
<g transform="matrix(0.5670307874679565, 0, 0, 0.5670307874679565, 20.432701110839844, 17.02724266052246)">
	<g>
		<path class="st19" d="M106.5,65c-7.1-23.9-1.9-28.7-0.8-29.4l2,3.1c0,0,0,0,0.1-0.1c0,0-4.1,4.1,2.2,25.3L106.5,65z"/>
	</g>
</g>
<g transform="matrix(0.5670307874679565, 0, 0, 0.5670307874679565, 20.432701110839844, 17.02724266052246)">
	<g>
		<path class="st19" d="M103,65.2c-8.4-23.1-3.4-46.2-3.2-47.1l3.6,0.8c0,0.2-4.9,23,3.1,45.1L103,65.2z"/>
	</g>
</g>
<g transform="matrix(0.5670307874679565, 0, 0, 0.5670307874679565, 20.432701110839844, 17.02724266052246)">
	<g>
		<path class="st20" d="M69.6,74.2c0,0,1-1.5,1-3c-0.1-2.8-2.5-7.1-9-7.5C51.4,63,47.3,74.3,46.8,77.2c-0.5,2.8-2.2,10.9,5.3,17.5
			c7.5,6.6,15.1,7.1,23.6,2.1c8.7-5.2,6.8-13.7,6.1-15.8c-0.7-2.1-4.8-7.4-10.5-5.3C68,76.9,69.5,74.8,69.6,74.2z"/>
	</g>
	<g>
		<g>
			<path class="st21" d="M64,76.8c0,0,3.9-5.2,0.6-8.2c-2.5-2.3-6.4-1.5-9.8,1.9c-3.5,3.5-6.2,11.2-3.8,15.1
				c1.6,2.6,4.5,4.2,7.6-0.6c1.2-1.8-1.4-5.1,0-6.9C59.2,77.3,61.4,75.2,64,76.8z"/>
		</g>
		<g>
			<g>
				<path class="st22" d="M62.7,71.8c0,0-0.3-2.3,0.7-2C64.4,70,63.8,70.8,62.7,71.8z"/>
			</g>
			<g>
				<path class="st22" d="M60,71.4c0,0-1.7-1.6-0.8-2C60.2,68.9,60.2,70,60,71.4z"/>
			</g>
			<g>
				<path class="st22" d="M56.5,74.1c0,0-2.3,0.1-2-0.8C54.9,72.3,55.7,72.9,56.5,74.1z"/>
			</g>
			<g>
				<path class="st22" d="M55.3,78.5c0,0-2.3,0.6-2.1-0.5C53.3,77,54.2,77.6,55.3,78.5z"/>
			</g>
			<g>
				<path class="st22" d="M54.8,82.2c0,0-1.9,1.4-2.1,0.4C52.4,81.6,53.4,81.8,54.8,82.2z"/>
			</g>
			<g>
				<path class="st22" d="M54.9,85.3c0,0-1.4,1.9-1.9,1C52.5,85.4,53.5,85.2,54.9,85.3z"/>
			</g>
			<g>
				<path class="st22" d="M54.6,80.1c0,0-1.5,0.9-1.6,0.1C52.8,79.4,53.6,79.6,54.6,80.1z"/>
			</g>
			<g>
				<path class="st22" d="M55.6,76.1c0,0-1.8,0-1.5-0.7C54.4,74.7,55,75.2,55.6,76.1z"/>
			</g>
			<g>
				<path class="st22" d="M57.9,72c0,0-1.7-0.4-1.3-1C57,70.3,57.5,71,57.9,72z"/>
			</g>
		</g>
	</g>
	<g>
		<g>
			<path class="st21" d="M69.5,81.8c0,0,8-3.7,8.9,3.1c0.9,6.9-8.7,10.1-11.8,10.1c-2.1,0-16.7-0.9-6-7.8c1.7-1.1,8.6,2.4,9.9-1.1
				C71.7,82.6,69.5,81.8,69.5,81.8z"/>
		</g>
		<g>
			<g>
				<path class="st22" d="M74.3,83.5c0,0,2.3,0.4,2.1-0.6C76.1,81.9,75.2,82.5,74.3,83.5z"/>
			</g>
			<g>
				<path class="st22" d="M74.6,86.2c0,0,1.5,1.8,2,0.8C77,86.2,76,86.1,74.6,86.2z"/>
			</g>
			<g>
				<path class="st22" d="M71.8,89.6c0,0-0.2,2.3,0.8,2C73.5,91.3,72.9,90.6,71.8,89.6z"/>
			</g>
			<g>
				<path class="st22" d="M67.3,90.8c0,0-0.6,2.2,0.4,2.1C68.7,92.8,68.2,91.9,67.3,90.8z"/>
			</g>
			<g>
				<path class="st22" d="M63.6,91.1c0,0-1.4,1.8-0.5,2.1C64.1,93.5,64,92.5,63.6,91.1z"/>
			</g>
			<g>
				<path class="st22" d="M60.5,90.9c0,0-1.9,1.3-1.1,1.9C60.3,93.3,60.5,92.3,60.5,90.9z"/>
			</g>
			<g>
				<path class="st22" d="M65.7,91.4c0,0-0.9,1.5-0.2,1.6C66.3,93.2,66.1,92.4,65.7,91.4z"/>
			</g>
			<g>
				<path class="st22" d="M69.8,90.5c0,0-0.1,1.7,0.6,1.5C71.1,91.7,70.6,91.1,69.8,90.5z"/>
			</g>
			<g>
				<path class="st22" d="M73.9,88.4c0,0,0.3,1.7,0.9,1.3C75.5,89.3,74.9,88.8,73.9,88.4z"/>
			</g>
		</g>
	</g>
</g>
<g transform="matrix(0.5670307874679565, 0, 0, 0.5670307874679565, 20.432701110839844, 17.02724266052246)">
	<g>
		<path class="st19" d="M76.8,61.8l-3.7-0.2c0.7-11.1-3.1-25.4-3.2-25.5l3.6-1C73.6,35.7,77.5,50.1,76.8,61.8z"/>
	</g>
</g>
<g transform="matrix(0.5670307874679565, 0, 0, 0.5670307874679565, 20.432701110839844, 17.02724266052246)">
	<g>
		<path class="st19" d="M89.6,39.7h3.7v24.9h-3.7V39.7z"/>
	</g>
</g>
<g transform="matrix(0.5670307874679565, 0, 0, 0.5670307874679565, 20.432701110839844, 17.02724266052246)">
	<g>
		<g>
			<path class="st23" d="M81.5,64.1l-3.6-0.9c4.7-17.9-3.7-31.5-3.8-31.7l3.1-2C77.7,30.1,86.6,44.6,81.5,64.1z"/>
		</g>
	</g>
	<g>
		<g>
			<path class="st23" d="M87.5,64.4l-3.3-1.7c8.6-17.3-4.5-43.2-4.6-43.5l3.3-1.7C83.4,18.8,97,45.5,87.5,64.4z"/>
		</g>
	</g>
	<g>
		<g>
			<path class="st23" d="M73.2,58.5L69.6,58c1.7-13.3-5.1-19.3-5.2-19.3l2.4-2.8C67.1,36.2,75.2,43.2,73.2,58.5z"/>
		</g>
	</g>
	<g>
		<g>
			<path class="st23" d="M110.5,60.2c-0.3-18.4,3.9-33.9,4.1-34.5l3.6,1c0,0.2-4.2,15.7-3.9,33.5L110.5,60.2z"/>
		</g>
	</g>
	<g>
		<g>
			<path class="st23" d="M105,66.4c-2.8-15.7,3.2-36.5,3.5-37.4l3.5,1c-0.1,0.2-6,20.9-3.4,35.7L105,66.4z"/>
		</g>
	</g>
	<g>
		<g>
			<path class="st23" d="M95.7,68.2c-0.4-1.4-9.6-34.5-3.3-48.8l3.4,1.5c-5.8,13.1,3.3,46,3.4,46.3L95.7,68.2z"/>
		</g>
	</g>
	<g>
		<g>
			<path class="st23" d="M102.2,64c-0.4-0.6-8.7-15.4-4.5-27.9c1.9-5.8,6.2-10.2,12.6-13l1.5,3.4c-5.5,2.4-9,6-10.6,10.8
				c-3.7,11,4.1,24.8,4.2,24.9L102.2,64z"/>
		</g>
	</g>
</g>
<path class="st24" d="M65.7,51.6c4.9-5.3,12.3-0.1,17.3-1.3c7.7-1.9,8.5,5.6,9.7,9.8c1.9,6.6-3.2,13.7-11.4,16.8
	c-8.2,3.1-21.3-4.3-21.1-13C60.3,57.4,63.6,53.9,65.7,51.6z"/>
<path class="st25" d="M83.8,63c0,4-3.2,7.2-7.2,7.2c-4,0-7.2-3.2-7.2-7.2c0-4,3.2-7.2,7.2-7.2C80.6,55.8,83.8,59,83.8,63z"/>
<path class="st26" d="M80.8,59.9c0,0.6-0.5,1-1,1c-0.6,0-1-0.5-1-1c0-0.6,0.5-1,1-1C80.4,58.8,80.8,59.3,80.8,59.9z"/>
<path class="st2" d="M74.1,68.3c-3.9-1.9-4.3-5.6-4.1-8.1c-0.4,0.9-0.6,1.8-0.6,2.8c0,4,3.2,7.2,7.2,7.2c2.2,0,4.2-1,5.5-2.6
	C80.1,69,77.4,69.9,74.1,68.3z"/>
<path class="st27" d="M88.1,53.9c0.6,1.1,0.5,2.3-0.3,2.8c-0.8,0.5-2,0-2.6-1.1c-0.6-1.1-0.5-2.3,0.3-2.8
	C86.3,52.4,87.5,52.9,88.1,53.9z"/>
<path class="st27" d="M87.9,59.4c0.3,0.5,0.3,1.2-0.1,1.4c-0.4,0.2-1,0-1.3-0.6c-0.3-0.5-0.3-1.2,0.1-1.4
	C87,58.6,87.6,58.9,87.9,59.4z"/>
<g transform="matrix(0.5670307874679565, 0, 0, 0.5670307874679565, 20.432701110839844, 17.02724266052246)">
	<g>
		<path class="st28" d="M82.7,109.1c3.2,0.7,6.2,1.1,9.2,1.2c16.1,0.1,31-7.6,43.9-17.2c-0.1-0.7-0.2-1.4-0.6-2.1
			c-0.3-0.6-0.7-1.2-1-1.7c-0.2-0.3-0.4-0.5-0.5-0.7c0,0,0,0,0,0c0.3-0.1,0.8-0.8,1.8-1.4c0,0,0.1,0,0.1,0c1-0.6,2.4-1,2.4-1.1
			c-0.1-0.3-2.8-0.6-4.2-1.7c-1.8-1.4-2.8-2.9-3-2.8c-0.1,0.1,0.4,0.6,0.2,2.5c0,0.5-0.1,1-0.3,1.7c0,0.2-0.1,0.4,0,0.6
			c0,0-0.1,0-0.1,0s-0.1-0.1-0.3-0.1c-0.9-0.3-3.8-1.2-6,0.4c-2.7,2-5.7,6.3-7.3,8.1c-1.6,1.7-7.7,6-9.8,7
			c-2.5,1.1-9.3,3.3-12.7,3.1c-3.5-0.2-9.5-1.2-10.4-1.6c-1.4-0.5-6.2-2.2-7.5-3c-1.4-0.9-6.6-0.8-9.1,1.8c-0.2-0.3-0.9-0.8-1.5-1.6
			c-0.7-1-1.2-2.4-1.3-2.4c-0.2,0.1-0.3,0.9-0.5,1.9c0,0.2-0.1,0.3-0.1,0.5c1.9,1.7,4,2.8,6.3,3.6C74.5,105.6,78.2,108.1,82.7,109.1
			z"/>
		<path class="st13" d="M91.9,110.4c-3-0.2-6-0.5-9.2-1.2c-4.4-1.1-8.2-3.6-12.4-5.2c-2.2-0.8-4.3-1.9-6.3-3.6
			c-0.2,0.6-0.4,1.2-0.7,1.7c0,0.1-0.1,0.1-0.1,0.2c-1.3,1.9-2.7,3-2.6,3.2c0,0,0.3-0.2,1-0.3c0.6-0.1,1.6-0.1,3.1,0.1
			c0.3,0.1,0.6,0,0.9-0.1c-0.6,1.9-0.9,4.3,1,6.1c3.4,3.4,9.1,5.7,12.2,6.7c2.7,0.9,9.5,3,17.8,2.2c6.9-0.7,12.5-1.7,20.9-6.3
			c8.3-4.6,14.8-12.9,14.8-12.9s1.4-1.5,2.4-3.6c0.6-1.3,1.1-2.8,0.9-4.3C123,102.8,108,110.5,91.9,110.4z"/>
	</g>
</g>
<g transform="matrix(0.5670307874679565, 0, 0, 0.5670307874679565, 20.432701110839844, 17.02724266052246)" class="st29">
	<path class="st30" d="M199.1,35.9L199.1,35.9c-0.1-0.1-0.3-0.1-0.4-0.2c0,0-0.1,0-0.1,0l0,0c-0.1,0-0.1,0-0.2-0.1
		c-0.3-0.1-0.6-0.1-0.9-0.2c-2.5-0.4-4.9,0.1-7.1,1.2c0,0,0,0,0,0c-3.3,1.8-6,5.2-7.2,9.5l-11.4,43.7l3.3,4.7l4.4,6.4l1.4,2.2l0,0
		l8.6,12.5l0.4,0.6l16.4-62.7l0.3-1.2C208.4,45.4,205.3,38.3,199.1,35.9z M197.4,38.2L197.4,38.2C197.4,38.2,197.4,38.2,197.4,38.2
		C197.4,38.2,197.4,38.2,197.4,38.2z"/>
	<path class="st30" d="M179.8,105.2l-1.5-2.1l-4.7-6.8l-3-4.3l-2.9,11.1l3.2,4.5l4.5,6.3l1.5,2.1l8.4,11.8l0.8,1.1l2.7-10.4
		l-0.9-1.3L179.8,105.2z"/>
	<path class="st30" d="M170.4,108.9l-3-4.3l-2.9,11.1l3.2,4.5l4.5,6.3l2.9-10.7L170.4,108.9z"/>
	<path class="st30" d="M176.6,117.8L176.6,117.8l-1.4-2l-2.9,10.7l1.5,2.1l0,0l8.4,11.7l0.8,1.1l2.7-10.4l-0.9-1.3L176.6,117.8z"/>
</g>
<g transform="matrix(0.5670307874679565, 0, 0, 0.5670307874679565, 20.432701110839844, 17.02724266052246)">
	<path class="st3" d="M110.3,118.1c1.3-0.1,2-0.2,2.2-0.2c0.2,0.1,2.7,2.4,3.5,2.9c0.7,0.5,1.2,0.6,1.4,0.4c0.1-0.1,0-0.7,0-0.9
		c0.1-0.1,0.8,0.6,1,0.5c0.2-0.1,0-0.6,0.1-0.6c0.1-0.1,0.5,0.3,0.7,0.1c0.2-0.2,0.4-0.1,0.6-0.5c0.2-0.4-0.4-0.7-0.6-0.9
		c-0.2-0.2-0.1-0.4-0.2-0.6c-0.2-0.3-1.6-0.4-2-0.5c-0.3-0.1-0.5-0.2-0.2-0.2c0.2,0,3,0.7,3.4,0.7c0.4,0.1,0.5,0.3,0.6-0.3
		c0.1-0.4,0.7,0.1,1.2-0.5c0,0,0.3-0.2-0.4-0.6c-0.5-0.4,0.4-0.2,0.4-0.2s0.9,0.1,1.1-0.3c0.2-0.4-0.3-0.2-0.3-0.4
		c0.1-0.1,0.7-0.1,0.9-0.3c0.2-0.2-0.2-0.4,0-0.4c0.2-0.1,0.9,0,0.8-0.4c-0.1-0.4-1-0.8-1.7-0.9c-0.7-0.2-0.2-0.3,0-0.5
		c0.2-0.2-0.7-0.3-1.5-0.1c-0.3,0.1,0-0.1-0.1-0.3c0,0-2.1,0.2-2.5,0.4c-0.5,0.2-0.4,0-0.2-0.2c0.2-0.2,1-0.7,0.5-1.3
		c-0.5-0.6-3,0.1-3.1,0.2c-0.1,0.1-0.2,0.5-0.3,0.3c-0.1-0.2-0.3-0.3-0.7-0.1c-0.4,0.2-0.7,0.8-0.8,1.2c-0.1,0.5-0.1,0.8-0.2,1.3
		c-0.1,0.5-1,2.1-1.4,2.3c-0.3,0.2-1.9,0.6-3.2,0.6C109.3,117.8,110,118.1,110.3,118.1z"/>
	<path class="st3" d="M125.4,122.1c-0.4-0.1-0.5-0.1-0.6-0.1c-0.1-0.1,0.2-0.4,0.3-0.4c0.1,0-1.4-0.4-1.8-0.3
		c-0.4,0.1,0.2-0.6,0.4-0.7c0.2,0-1.5-0.9-2.8-0.3c-1.3,0.6-1.9,1.6-2.6,1.9c-0.3,0.1-0.9,0.3-1.1,0.2c-0.3-0.2-0.7-0.4-1.1-0.7
		c-1.2-0.8-2.5-2.1-4.3-3.1c-1.2-0.7-10.1-3.2-15.4-2.1c-5.3,1-10.1,3.8-14.4,6.9c-0.1,0.1,0.3,0.2,0.4,0.1
		c4.1-2.9,8.6-5.5,13.5-6.7c5.1-1.2,14.3,1.3,15.5,1.9c0.5,0.2,0.8,0.4,1.1,0.6c1.2,0.9,2.7,2.1,3.2,2.6c0.7,0.8,0.9,1.8,0.3,2.7
		c-0.6,0.9-1.3,3.2-1.3,4.4c0,0.6,0.6,0.1,0.7-0.1c-0.1,0.3-0.5,1.4,0,2c0.3,0.3,0.4-0.5,0.4-0.5s0.1,1.4,0.6,1.7
		c0.5,0.3,0.9-1.2,0.9-1.2s0.2,0.5,0.4,0.3c0.2-0.2,0-1.6-0.1-1.9c-0.1-0.3,0.4,0.9,0.8,0.5c0.4-0.4-0.6-5.3-0.8-5.8
		c-0.2-0.5,0.9,1.4,1,2.2c0.2,0.8,0.2,3.5,0.3,3.8c0.1,0.3,0.4-0.3,0.5-0.1c0.1,0.2,0.4,1.4,0.9,1.2c0.5-0.2,0.5-1.2,0.5-1.2
		s0.3-0.1,0.4,0.1c0.1,0.3,0.4,0.9,0.9,1c0.5,0.1,0.3-0.7,0.3-0.7l0.7,0.8c0,0,0.3-0.3,0.3-0.6c0-0.3,0.6,0.5,1.3,0.3
		c0,0,0.4-0.6,0.1-1.3c-0.3-0.6,0.3-0.3,0.4-0.3c0.1,0-0.2-0.6-0.5-0.8c-0.3-0.2,0.2-0.2,0.5-0.3c0.3-0.1-0.6-1-0.8-1
		c-0.2-0.1,0.9,0,1.3-0.2c0.4-0.2-1.2-1.3-1.2-1.3l0.1-0.3c0,0-0.6-0.4-1.9-0.7c0.2,0,0.8-0.1,1-0.2c0.3-0.1-0.1-0.5,0-0.4
		c0.1,0,1,0.5,1.5,0.1c0.1-0.1-0.2-0.2-0.2-0.2s1.2-0.3,1.5-0.6C126.7,122.9,125.7,122.2,125.4,122.1z M121,124.3
		c-0.2,0-0.6-0.2-1.1-0.5c0.6,0.1,1.2,0.3,1.5,0.4c0.3,0.1,0.5,0.2,0.6,0.3C121.7,124.5,121.4,124.4,121,124.3z"/>
	<path class="st3" d="M113.7,122.1c-0.6-0.4-2.3-1.5-2.9-2c-0.5-0.4-0.8-1-0.8-1s0-0.7-0.2-0.9c-0.3-0.4-0.5-0.1-0.5-0.1
		s0.5-0.1,0.5,1c0,0-0.1,0.3-0.3,0.5c-0.1,0.2-2.2,2.8-4.7,4.2c-2.6,1.3-0.1,1.5,0.5,1c0.5-0.5-0.8,1-0.8,1.3
		c-0.1,0.3,0.4,0.3,0.5,0.4c0.1,0.1-0.6,1.4-0.2,1.9c0.2,0.3,1.2,0,1.6-0.9c0,0,0.2,0.5,0.5,0.5c0.3-0.1,0.2-0.5,0.6-0.7
		c0.3-0.2,0.2,1.9,0.5,2.2c0.3,0.3,0.7-0.9,0.8-1c0.1-0.1,0,1.9,0.4,2.2c0.4,0.2,0.5-0.3,0.5-0.3s0.1,1.1,0.4,1.2
		c0.2,0.1,0.2-0.3,0.3-0.2c0.1,0.1,0.5,0.8,0.8,0.7c0.3-0.1,0.4-1.5,0.5-1.5c0.2,0,0.4,0.3,0.4,0.2s0.2-0.9,0-1.2
		c-0.1-0.3,0.3,0,0.5,0c0.2-0.1-0.2-2.1-0.2-2.5c0-0.4,0-0.4,0.3-0.3c0.2,0.1,0.6,0.8,0.9,0.6c0.3-0.2,0.5-0.9,0.4-1.5
		c-0.1-0.6,0.4,0.1,0.4,0.1s0.1-0.8-0.5-1.4c-0.6-0.6,0-0.3,0.1-0.2c0.1,0.1,0.8,0.7,1.1,0.3C115.2,123.9,114.3,122.4,113.7,122.1z"
		/>
</g>
<g transform="matrix(0.5670307874679565, 0, 0, 0.5670307874679565, 20.432701110839844, 17.02724266052246)">
	<path class="st26" d="M36.3-5.7c-0.1-0.4-0.2-0.9,0.1-1.6c0.3-0.5,0.8-1.6,0.2-3.2c-0.6-1.7-1.1-2.1-3.3-5.4
		c-2.2-3.3-6.5-0.6-4.9,3c1.6,3.7,1.6,4,2.7,5.4C32.1-6,32.9-6,33.8-5.9c0.6,0.1,1,0.5,1.2,0.7"/>
	<path class="st26" d="M35.1-5.2C35.2-5,35.4-4.7,35.8-4C36.6-2.7,40,3.3,41,5.6c1.1,2.3,2.5,5.7,3.1,7.2c0.6,1.5,1.4,3.7,2.3,4.3
		c0.9,0.5,1.7,0.4,1.8,0.3l0,0c0.1-0.1,0.7-0.7,0.7-1.7c0-1.1-1.5-3-2.4-4.3c-1-1.3-3.1-4.4-4.4-6.5c-1.4-2.1-4.7-8.2-5.4-9.6
		c-0.3-0.6-0.4-0.9-0.5-1.1"/>
</g>
<g transform="matrix(0.5670307874679565, 0, 0, 0.5670307874679565, 20.432701110839844, 17.02724266052246)">
	<g class="st29">
		<g>
			<g>
				<g>
					<g>
						<path class="st30" d="M158.5,8c0,14.1,11.5,25.6,25.6,25.6c14.1,0,25.6-11.5,25.6-25.6c0-14.1-11.5-25.6-25.6-25.6
							C169.9-17.6,158.5-6.1,158.5,8z M176.6,8c0-4.1,3.4-7.5,7.5-7.5c4.1,0,7.5,3.4,7.5,7.5c0,4.1-3.4,7.5-7.5,7.5
							C179.9,15.5,176.6,12.1,176.6,8z"/>
					</g>
				</g>
			</g>
		</g>
	</g>
	<g>
		<g>
			<g>
				<g>
					<g>
						<path class="st31" d="M160.7,7.2c0,13.6,11,24.6,24.6,24.6c13.6,0,24.6-11,24.6-24.6c0-13.6-11-24.6-24.6-24.6
							C171.7-17.4,160.7-6.4,160.7,7.2z M178.1,7.2c0-4,3.2-7.2,7.2-7.2c4,0,7.2,3.2,7.2,7.2c0,4-3.2,7.2-7.2,7.2
							C181.3,14.4,178.1,11.1,178.1,7.2z"/>
					</g>
				</g>
			</g>
		</g>
	</g>
	<g>
		<g>
			<g>
				<g>
					<g>
						<path class="st32" d="M163.9,15.4c1.1,2.9,2.9,5.4,5,7.6c2.3,2.3,4.8,2.1,7.9,3.2c2.4,0.8,5.3,3.3,8,3.3
							c3.5,0,6.8-0.8,9.8-2.2c3.4-1.6,6.2-4,8.4-7c1.4-1.8,1.9-5.1,2.7-7.3c1.2-3.6,1.5-1.5,1.6-5.8c0.1-4.7-2.4-4.5-3.5-6.7
							c-0.9-1.8-0.4-3.6-1.4-5.1c-1.9-3.1-4.1-4.6-6.9-6.4c-3-2-6.5-4.1-10.8-4.1c-3.6,0-7.1,0.9-10.1,2.4c-1.9,1-3,3.2-4.6,4.6
							c-1.3,1.2-3.1,1.5-4,3c-2.4,3.5-2.4,7.8-2.4,12.4C163.6,10.1,162.9,12.9,163.9,15.4z M178.2,7.2c0-2.8,2.2-5.4,4.7-6.3
							c1-0.2,3.4-1.4,6.4,0.5c2.2,1.4,3.6,4,3.1,6.6c-0.5,2.5-1,3.5-3.4,5.3c-2,1.5-5.9,0.3-5.4,0.3
							C180.6,13.1,178.2,10.4,178.2,7.2z"/>
					</g>
				</g>
			</g>
		</g>
	</g>
	<g>
		<g>
			<g>
				<g>
					<g>
						<path class="st33" d="M193.3-5.8c0.1,0.2,0.4,0.4,0.7,0.2l0,0c0.2-0.1,0.4-0.4,0.2-0.7l-0.9-2c-0.1-0.2-0.4-0.4-0.7-0.2l0,0
							c-0.2,0.1-0.4,0.4-0.2,0.7L193.3-5.8z"/>
					</g>
				</g>
			</g>
		</g>
	</g>
	<g>
		<g>
			<g>
				<g>
					<g>
						<path class="st33" d="M175-1.3c0.1,0.2,0.4,0.4,0.7,0.2l0,0c0.2-0.1,0.4-0.4,0.2-0.7l-0.9-2c-0.1-0.2-0.4-0.4-0.7-0.2l0,0
							c-0.2,0.1-0.4,0.4-0.2,0.7L175-1.3z"/>
					</g>
				</g>
			</g>
		</g>
	</g>
	<g>
		<g>
			<g>
				<g>
					<g>
						<path class="st33" d="M170,19.9c0.1,0.2,0.4,0.4,0.7,0.2l0,0c0.2-0.1,0.4-0.4,0.2-0.7l-0.9-2c-0.1-0.2-0.4-0.4-0.7-0.2l0,0
							c-0.2,0.1-0.4,0.4-0.2,0.7L170,19.9z"/>
					</g>
				</g>
			</g>
		</g>
	</g>
	<g>
		<g>
			<g>
				<g>
					<g>
						<path class="st33" d="M175,9.9c0.1,0.2,0.4,0.4,0.7,0.2l0,0c0.2-0.1,0.4-0.4,0.2-0.7l-0.9-2c-0.1-0.2-0.4-0.4-0.7-0.2l0,0
							c-0.2,0.1-0.4,0.4-0.2,0.7L175,9.9z"/>
					</g>
				</g>
			</g>
		</g>
	</g>
	<g>
		<g>
			<g>
				<g>
					<g>
						<path class="st33" d="M192.3-5.9c0.1,0.2,0.4,0.4,0.7,0.2l0,0c0.2-0.1,0.4-0.4,0.2-0.7l-0.9-2c-0.1-0.2-0.4-0.4-0.7-0.2l0,0
							c-0.2,0.1-0.4,0.4-0.2,0.7L192.3-5.9z"/>
					</g>
				</g>
			</g>
		</g>
	</g>
	<g>
		<g>
			<g>
				<g>
					<g>
						<path class="st33" d="M187.1-2.8c0.1,0.2,0.4,0.4,0.7,0.2l0,0c0.2-0.1,0.4-0.4,0.2-0.7l-0.9-2c-0.1-0.2-0.4-0.4-0.7-0.2l0,0
							c-0.2,0.1-0.4,0.4-0.2,0.7L187.1-2.8z"/>
					</g>
				</g>
			</g>
		</g>
	</g>
	<g>
		<g>
			<g>
				<g>
					<g>
						<path class="st33" d="M195,10.7c0.1,0.2,0.4,0.4,0.7,0.2l0,0c0.2-0.1,0.4-0.4,0.2-0.7l-0.9-2c-0.1-0.2-0.4-0.4-0.7-0.2l0,0
							c-0.2,0.1-0.4,0.4-0.2,0.7L195,10.7z"/>
					</g>
				</g>
			</g>
		</g>
	</g>
	<g>
		<g>
			<g>
				<g>
					<g>
						<path class="st33" d="M187.2,25.4c0.1,0.2,0.4,0.4,0.7,0.2l0,0c0.2-0.1,0.4-0.4,0.2-0.7l-0.9-2c-0.1-0.2-0.4-0.4-0.7-0.2l0,0
							c-0.2,0.1-0.4,0.4-0.2,0.7L187.2,25.4z"/>
					</g>
				</g>
			</g>
		</g>
	</g>
	<g>
		<g>
			<g>
				<g>
					<g>
						<path class="st34" d="M200,1.1c0.1,0.2,0.4,0.3,0.7,0.2l0,0c0.2-0.1,0.3-0.4,0.2-0.7l-1-2c-0.1-0.2-0.4-0.3-0.7-0.2l0,0
							c-0.2,0.1-0.4,0.4-0.2,0.7L200,1.1z"/>
					</g>
				</g>
			</g>
		</g>
	</g>
	<g>
		<g>
			<g>
				<g>
					<g>
						<path class="st34" d="M199,17.7c0.1,0.2,0.4,0.3,0.7,0.2l0,0c0.2-0.1,0.3-0.4,0.2-0.7l-1-2c-0.1-0.2-0.4-0.3-0.7-0.2l0,0
							c-0.2,0.1-0.3,0.4-0.2,0.7L199,17.7z"/>
					</g>
				</g>
			</g>
		</g>
	</g>
	<g>
		<g>
			<g>
				<g>
					<g>
						<path class="st34" d="M168.2,2.6c0.1,0.2,0.4,0.3,0.7,0.2l0,0c0.2-0.1,0.3-0.4,0.2-0.7l-1-2c-0.1-0.2-0.4-0.3-0.7-0.2l0,0
							c-0.2,0.1-0.4,0.4-0.2,0.7L168.2,2.6z"/>
					</g>
				</g>
			</g>
		</g>
	</g>
	<g>
		<g>
			<g>
				<g>
					<g>
						<path class="st34" d="M205.7,6.9c0.1,0.2,0.4,0.3,0.7,0.2l0,0c0.2-0.1,0.3-0.4,0.2-0.7l-1-2c-0.1-0.2-0.4-0.4-0.7-0.2l0,0
							c-0.2,0.1-0.4,0.4-0.2,0.7L205.7,6.9z"/>
					</g>
				</g>
			</g>
		</g>
	</g>
	<g>
		<g>
			<g>
				<g>
					<g>
						<path class="st34" d="M169.3,9.5c0.1,0.2,0.4,0.3,0.7,0.2l0,0c0.2-0.1,0.3-0.4,0.2-0.7l-1-2c-0.1-0.2-0.4-0.3-0.7-0.2l0,0
							c-0.2,0.1-0.3,0.4-0.2,0.7L169.3,9.5z"/>
					</g>
				</g>
			</g>
		</g>
	</g>
	<g>
		<g>
			<g>
				<g>
					<g>
						<path class="st34" d="M180.4-4.3c0.1,0.2,0.4,0.3,0.7,0.2l0,0c0.2-0.1,0.3-0.4,0.2-0.7l-1-2c-0.1-0.2-0.4-0.3-0.7-0.2l0,0
							c-0.2,0.1-0.4,0.4-0.2,0.7L180.4-4.3z"/>
					</g>
				</g>
			</g>
		</g>
	</g>
	<g>
		<g>
			<g>
				<g>
					<g>
						<path class="st34" d="M188.1-10.4c0.1,0.2,0.4,0.3,0.7,0.2l0,0c0.2-0.1,0.3-0.4,0.2-0.7l-1-2c-0.1-0.2-0.4-0.4-0.7-0.2l0,0
							c-0.2,0.1-0.4,0.4-0.2,0.7L188.1-10.4z"/>
					</g>
				</g>
			</g>
		</g>
	</g>
	<g>
		<g>
			<g>
				<g>
					<g>
						<path class="st34" d="M175.1,17.7c0.1,0.2,0.4,0.3,0.7,0.2l0,0c0.2-0.1,0.3-0.4,0.2-0.7l-1-2c-0.1-0.2-0.4-0.3-0.7-0.2l0,0
							c-0.2,0.1-0.3,0.4-0.2,0.7L175.1,17.7z"/>
					</g>
				</g>
			</g>
		</g>
	</g>
	<g>
		<g>
			<g>
				<g>
					<g>
						<path class="st35" d="M201.4,9.3c-0.1,0.2-0.1,0.5,0.2,0.7l0,0c0.2,0.1,0.5,0.1,0.7-0.2l1.2-1.9c0.1-0.2,0.1-0.5-0.2-0.7l0,0
							c-0.2-0.1-0.5-0.1-0.7,0.2L201.4,9.3z"/>
					</g>
				</g>
			</g>
		</g>
	</g>
	<g>
		<g>
			<g>
				<g>
					<g>
						<path class="st35" d="M177.8,17.1c-0.1,0.2-0.1,0.5,0.2,0.7l0,0c0.2,0.1,0.5,0.1,0.7-0.2l1.2-1.9c0.1-0.2,0.1-0.5-0.2-0.7l0,0
							c-0.2-0.1-0.5-0.1-0.7,0.2L177.8,17.1z"/>
					</g>
				</g>
			</g>
		</g>
	</g>
	<g>
		<g>
			<g>
				<g>
					<g>
						<path class="st35" d="M195,3.5c-0.1,0.2-0.1,0.5,0.2,0.7l0,0c0.2,0.1,0.5,0.1,0.7-0.2l1.2-1.9c0.1-0.2,0.1-0.5-0.2-0.7l0,0
							c-0.2-0.1-0.5-0.1-0.7,0.2L195,3.5z"/>
					</g>
				</g>
			</g>
		</g>
	</g>
	<g>
		<g>
			<g>
				<g>
					<g>
						<path class="st35" d="M197.9-4.8c-0.1,0.2-0.1,0.5,0.2,0.7l0,0c0.2,0.1,0.5,0.1,0.7-0.2l1.2-1.9c0.1-0.2,0.1-0.5-0.2-0.7l0,0
							c-0.2-0.1-0.5-0.1-0.7,0.2L197.9-4.8z"/>
					</g>
				</g>
			</g>
		</g>
	</g>
	<g>
		<g>
			<g>
				<g>
					<g>
						<path class="st35" d="M169.7,5.5c-0.3,0.1-0.4,0.3-0.3,0.6l0,0c0.1,0.3,0.4,0.4,0.6,0.3l2.1-0.6c0.3-0.1,0.4-0.4,0.3-0.6l0,0
							c-0.1-0.3-0.4-0.4-0.6-0.3L169.7,5.5z"/>
					</g>
				</g>
			</g>
		</g>
	</g>
	<g>
		<g>
			<g>
				<g>
					<g>
						<path class="st35" d="M179.1,20.9c-0.3,0.1-0.4,0.4-0.3,0.6l0,0c0.1,0.3,0.4,0.4,0.6,0.3l2.1-0.6c0.3-0.1,0.4-0.4,0.3-0.6l0,0
							c-0.1-0.3-0.4-0.4-0.6-0.3L179.1,20.9z"/>
					</g>
				</g>
			</g>
		</g>
	</g>
	<g>
		<g>
			<g>
				<g>
					<g>
						<path class="st35" d="M169.7-4.2c-0.3,0.1-0.4,0.3-0.3,0.6l0,0c0.1,0.3,0.4,0.4,0.6,0.3l2.1-0.6c0.3-0.1,0.4-0.4,0.3-0.6l0,0
							c-0.1-0.3-0.4-0.4-0.6-0.3L169.7-4.2z"/>
					</g>
				</g>
			</g>
		</g>
	</g>
	<g>
		<g>
			<g>
				<g>
					<g>
						<path class="st35" d="M191.1-1.7c-0.3,0.1-0.4,0.4-0.3,0.6l0,0c0.1,0.3,0.4,0.4,0.6,0.3l2.1-0.6c0.3-0.1,0.4-0.4,0.3-0.6l0,0
							c-0.1-0.3-0.3-0.4-0.6-0.3L191.1-1.7z"/>
					</g>
				</g>
			</g>
		</g>
	</g>
	<g>
		<g>
			<g>
				<g>
					<g>
						<path class="st35" d="M193.7,23.2c-0.3,0.1-0.4,0.4-0.3,0.6l0,0c0.1,0.3,0.3,0.4,0.6,0.3l2.1-0.6c0.3-0.1,0.4-0.4,0.3-0.6l0,0
							c-0.1-0.3-0.3-0.4-0.6-0.3L193.7,23.2z"/>
					</g>
				</g>
			</g>
		</g>
	</g>
	<g>
		<g>
			<g>
				<g>
					<g>
						<path class="st35" d="M177.3-10.9c-0.1,0.2-0.1,0.5,0.2,0.7l0,0c0.2,0.1,0.5,0.1,0.7-0.2l1.2-1.9c0.1-0.2,0.1-0.5-0.2-0.7l0,0
							c-0.2-0.1-0.5-0.1-0.7,0.2L177.3-10.9z"/>
					</g>
				</g>
			</g>
		</g>
	</g>
	<g>
		<g>
			<g>
				<g>
					<g>
						<path class="st35" d="M184.8-7.8c-0.1,0.2-0.1,0.5,0.2,0.7l0,0c0.2,0.1,0.5,0.1,0.7-0.2l1.2-1.9c0.1-0.2,0.1-0.5-0.2-0.7l0,0
							c-0.2-0.1-0.5-0.1-0.7,0.2L184.8-7.8z"/>
					</g>
				</g>
			</g>
		</g>
	</g>
	<g>
		<g>
			<g>
				<g>
					<g>
						<path class="st35" d="M191.3,19.4c-0.1,0.2-0.1,0.5,0.2,0.7l0,0c0.2,0.1,0.5,0.1,0.7-0.2l1.2-1.9c0.1-0.2,0.1-0.5-0.2-0.7l0,0
							c-0.2-0.1-0.5-0.1-0.7,0.2L191.3,19.4z"/>
					</g>
				</g>
			</g>
		</g>
	</g>
	<g>
		<g>
			<g>
				<g>
					<g>
						<path class="st36" d="M182.9,0.8c1.1,0,2.8-0.2,4.7,0.4c2.1,0.6,3.9,1.4,3.9,6.6c0,5.7-5.4,6-7.4,6c-3.2-0.5-5.6-3.3-5.6-6.7
							C178.5,4.3,180.4,1.8,182.9,0.8z"/>
					</g>
				</g>
			</g>
		</g>
	</g>
</g>
<path class="st2" d="M36.6,92.7c-1.5-3.3-7.1-16.6-7.1-16.6c-1.5-3.4-1.7-4.3-2.1-5.7c-0.5-1.6-1.4-4.7-1.7-5.8
	c-0.4-1.1-7.7-20.1-8.4-21.7c-0.7-1.6-1.4-1-1.8-0.4c-0.4,0.6-0.6,2.8-0.6,2.8c0,1.9,0.7,5.3,2.4,10c1.6,4.7,3.9,10.2,4.7,11.8
	c0.8,1.6,2.4,4.5,3,5.9c0.3,0.8,0.6,1.6,1.2,3.8c0.4,1.4,1,3.3,1.9,6.1c2.3,7.3,3.8,10.7,3.8,10.7C33.6,97.8,38.3,96.4,36.6,92.7z"
	/>
<path class="st4" d="M37.2,92c-1.5-3.3-7.1-16.6-7.1-16.6c-1.5-3.4-1.7-4.3-2.1-5.7c-0.5-1.6-1.4-4.7-1.7-5.8
	c-0.4-1.1-7.7-20.1-8.4-21.7c-0.7-1.6-1.4-1-1.8-0.4c-0.4,0.6-0.6,2.8-0.6,2.8c0,1.9,0.7,5.3,2.4,10c1.6,4.7,3.9,10.2,4.7,11.8
	c0.8,1.6,2.4,4.5,3,5.9c0.3,0.8,0.6,1.6,1.2,3.8c0.4,1.4,1,3.3,1.9,6.1c2.3,7.3,3.8,10.7,3.8,10.7C34.2,97.1,38.9,95.7,37.2,92z"/>
<path class="st37" d="M134.1,38.7c0.2,0.1,0.4,0.2,0.5,0.3l0.4-1.6c-0.1,0-0.3-0.1-0.4-0.1c-0.2,0-0.4-0.1-0.5-0.1
	c-1.4-0.2-2.8,0-4,0.7c0,0,0,0,0,0c-1.9,1-3.4,2.9-4.1,5.4L119.5,68l1.9,2.7l2.6,3.7L134.1,38.7z"/>
<path class="st38" d="M134.7,37.3l-0.4,1.5c-0.3-0.2,0,0-0.3-0.1l-10.1,35.7l0.8,1.3l0,0l4.9,7.1l0.2,0.4l9.3-35.5l0.2-0.7
	C140.3,42.6,138.5,38.5,134.7,37.3z"/>
<path class="st37" d="M123.3,75.5l-2.7-3.9l-1.7-2.5l-1.6,6.3l1.8,2.6l2.5,3.5L123.3,75.5z"/>
<path class="st37" d="M121.5,82.6l-2.7-3.9l-1.7-2.5l-1.6,6.3l1.8,2.6l2.5,3.5L121.5,82.6z"/>
<g transform="matrix(0.5670307874679565, 0, 0, 0.5670307874679565, 20.432701110839844, 17.02724266052246)">
	<path class="st38" d="M191,116.9l-8.1-11.8l-1.5-2.1l-2.9,10.7l1.5,2.1l8.4,11.8l0.8,1.1l2.7-10.4L191,116.9z"/>
	<path class="st38" d="M179.6,117.8L179.6,117.8l-1.4-2l-2.9,10.7l1.5,2.1l0,0l8.4,11.7l0.8,1.1l2.7-10.4l-0.9-1.3L179.6,117.8z"/>
</g>
<path class="st39" d="M134.9,56.6C134.9,56.6,134.9,56.6,134.9,56.6c0.6-3.4,0-7.1-2.3-8.5c-3.6-2.2-4.3-4.3-4.4-4.9
	c0,0.3-0.1,0.5,0,0.8c0-0.3,0-0.6,0-0.8c0-0.1,0-0.2-0.1-0.2c-1.8,3.8-0.4,6.6,3.1,8.5c3.1,1.7,3.6,4.5,3.7,5.3
	C134.8,56.7,134.9,56.6,134.9,56.6z"/>
<path class="st39" d="M129.5,77.3c0-0.1,0-0.1,0-0.2c0-0.3,0-0.6,0-0.8c0.4-3.2-0.3-6.5-2.5-7.8c-3.2-1.9-4.1-3.8-4.4-4.6
	c0-0.1,0-0.2,0-0.2c0-0.1,0-0.1-0.1-0.2c-1.8,3.8-0.4,6.6,3.1,8.5c2.7,1.5,3.4,3.7,3.6,4.9c0,0.1,0,0.1,0,0.2c0,0,0-0.1,0-0.1
	C129.5,77.1,129.5,77.2,129.5,77.3z"/>
<path class="st39" d="M131.7,66.5c0-0.1,0-0.2,0-0.2C131.7,66.4,131.7,66.5,131.7,66.5c0.6-3.4,0-7.1-2.3-8.5
	c-3.6-2.2-4.3-4.3-4.4-4.9c0,0.3-0.1,0.6,0,0.8c0-0.3,0-0.6,0-0.9c0-0.1,0-0.2-0.1-0.2c-1.8,3.8-0.4,6.6,3.1,8.5
	c3.1,1.7,3.6,4.5,3.7,5.3C131.7,66.6,131.7,66.6,131.7,66.5z"/>
<g transform="matrix(0.5670307874679565, 0, 0, 0.5670307874679565, 20.432701110839844, 17.02724266052246)" class="st40">
	<g>
		<g>
			<path class="st41" d="M194.8,89.2c-5.5,0.5-14-7-16-12.2c-4-11.7,10-3.4,12.4-11.5c2.6-8.4-12.4-14.4,3.6-17
				c3.4-0.5,16-2.1,17.4-6.2c-2.5,5.4-5.2,6.8-10.7,8.6c-9.5,3.3-5.4,4.5-3.2,12c2.4,8.1-3.5,8.3-6.7,14.2
				C189.6,80.7,188.6,89.3,194.8,89.2"/>
		</g>
	</g>
</g>
</svg>
