<?xml version="1.0" encoding="utf-8"?>
<!-- Generator: Adobe Illustrator 21.0.2, SVG Export Plug-In . SVG Version: 6.00 Build 0)  -->
<svg version="1.1" id="Layer_1" xmlns="http://www.w3.org/2000/svg" xmlns:xlink="http://www.w3.org/1999/xlink" x="0px" y="0px"
	 viewBox="0 0 150 143.5" style="enable-background:new 0 0 150 143.5;" xml:space="preserve">
<style type="text/css">
	.st0{fill:#4EB04D;}
	.st1{fill:#969696;}
	.st2{fill:#35B131;}
	.st3{fill:#5CD963;}
	.st4{fill:#3CB9EA;}
	.st5{fill:#094710;}
	.st6{fill:#2DD147;}
	.st7{fill:#FCFDFC;}
	.st8{fill:#FBFCFB;}
	.st9{fill:#01C401;}
	.st10{fill:#01A201;}
	.st11{fill:#26A407;}
	.st12{fill:#FDFEFD;}
	.st13{fill:#202120;}
	.st14{fill:#68BF51;}
	.st15{fill:#979797;}
</style>
<title>Artboard 1</title>
<g>
	<path class="st0" d="M9.4,94.7c-0.3-0.3-0.4-0.6-0.6-1c0-0.1,0-0.2,0-0.3c0.2-1,0.1-1,0.9-1.3C9.9,92,10,92,10.2,92l0.3,0.1h0.1
		h0.2c0.2,0.1,0.6,0.3,0.8,0.4l0.5,0.2c0.2,0.1,0.3-0.1,0.5-0.2c0.2-0.2,0.1-0.3,0-0.4c-0.1-0.2-0.2-0.4-0.2-0.5
		c-0.2-0.5-0.4-1.1-0.6-1.6c-0.2-0.7,0.1-1.4,0.6-1.8c0.2-0.1,0.3-0.2,0.5-0.1c0.2,0.1,0.6,0.2,0.8,0.4c0.3,0.4,0.6,0.9,0.7,1.3
		c0.2,0.4,0.4,1,0.7,1.4c0.1,0.2,0.2,0.3,0.2,0.4c0.1,0.4,0.3,0.6,0.5,1c0,0.1,0.1,0.2,0.2,0.2c0,0,0,0,0.1,0
		c0.2-0.1,0.5-0.2,0.6-0.4h0.1c0,0,0.1,0,0.1-0.1l1.8-0.9c0.2-0.1,0.5-0.2,0.8-0.3c0.1,0,0.2,0,0.2-0.1h0.2c0.1,0,0.2,0.1,0.3-0.1
		h0.9c0.7,0,1.5,0.1,2.2,0.2c1.1,0.2,2.2,0.4,3.3,0.7c1.1,0.3,2,0.8,3,1.1c0.6,0.2,0.6,0.3,0.9-0.4v0l0.2-0.3
		c0.5-0.9,1.1-1.6,1.8-2.2l0.6-0.7c1.1-1.2,2.3-2.5,3.4-3.6c1.2-1.2,1.9-1.8,2.8-2.6l0.2-0.1c0.2-0.1,0.2-0.3,0.1-0.4
		c-0.2-0.6-0.4-1.3-0.7-2c-0.6-1.6-0.9-3.3-1.3-5c-0.2-1.1-0.3-2.2-0.3-3.3c0-0.6,0.1-1.2,0.2-1.8c0-0.1,0.1-0.2,0.2-0.3l0.9-2.3
		c0.1-0.2,0.1-0.4,0.2-0.5c0.1-0.1,0.2-0.2,0.2-0.3c0.1-0.3,0.1-0.3-0.2-0.4l-0.4-0.2l-2.4-1.3c-0.1-0.1-0.2-0.2-0.3-0.2l0,0
		c0,0,0-0.1-0.1-0.1l0,0c-0.3-0.2-0.6-0.5-0.7-1c0-0.2-0.1-0.3-0.2-0.4c-0.1-0.2-0.1-0.4,0.1-0.5c0.4-0.4,0.9-0.7,1.5-0.6
		c0.2,0.1,0.3,0.1,0.5,0.2c0.5,0.2,1,0.4,1.5,0.7c0.2,0.1,0.2,0.1,0.4,0.1c0.2,0,0.3-0.2,0.2-0.4c-0.1-0.4-0.2-0.6-0.4-1
		c-0.1-0.4-0.2-0.8-0.3-1.1c-0.1-0.2,0-0.4,0.1-0.6c0.4-1,0.2-0.7,0.9-1h0.2c0.6,0,1.2,0.5,1.3,1.2c0.1,0.4,0.3,0.6,0.5,0.9
		c0.1,0.1,0.1,0.1,0.2,0.2c0.1,0.1,0.2,0.1,0.2-0.1l0.3-1.3c0.2-0.3,0.3-0.5,0.5-0.8l0.2-0.3c0.2-0.2,0.4-0.3,0.6-0.3h0.3
		c0.1,0.1,0.2,0.1,0.3,0.1c0.2,0,0.2,0,0.4,0.1c0.2,0.4,0.4,0.9,0.5,1.4c0.1,0.5,0.1,1.1-0.1,1.5c-0.2,0.4-0.4,0.8-0.6,1.2
		c-0.2,0.4-0.3,0.8-0.3,1.1c0,0.4,0.1,0.4,0.4,0.4h1.2c0.1,0.1,0.2,0.1,0.2,0.1h0.4h0.1l0.3,0.1l0.5,0.5c0.2,0.3,0.4,0.5,0.5,0.9
		c0.2,0.7-0.2,1.4-0.8,1.7c-0.2,0.1-0.6,0.2-0.8,0.2h-2.3c-0.9,0-1.3,0.6-1.5,1.4c-0.1,0.7-0.1,1.5,0,2.2c0.2,1.2,0.4,2.5,0.8,3.6
		c0.4,1.1,0.8,2.1,1.3,3.2c0.2,0.4,0.5,0.7,0.8,1c0.1,0.1,0.2,0.1,0.2,0.1c0.1-0.1,0.5-0.2,0.6-0.4c2-1.1,3.9-2.1,5.8-3.4
		c0.4-0.3,0.7-0.6,1-0.9c0.4-0.4,0.7-0.8,0.9-1.3l3.5-6.5c0.5-0.8,0.9-1.6,1.5-2.3c1-1.3,2.1-2.5,3.2-3.6c0.1-0.1,0.2-0.2,0.3-0.3
		l1.8-1c0.9-0.5,1.7-0.9,2.7-1.1c1.3-0.4,2.7-0.6,4-0.8c0.6-0.1,1.2-0.1,1.7-0.2c0.4,0,0.9,0,1.3,0h0.7C74,58,74.1,58,74.1,58h0.4
		c0.1,0.1,0.2,0.1,0.2,0.1h0.2l0.1,0.1c0.7,0.1,1.4,0.4,2.1,0.8c0.5,0.3,0.8,0.7,0.9,1.2c0,0.1,0.1,0.2,0.1,0.2
		c0.2,0.4,0.3,0.8,0.3,1.3c0.1,1.4,0,2.8-0.2,4.1c-0.2,0.8-0.2,1.6-0.4,2.4c-0.3,1.3-0.7,2.6-1.2,3.9c-0.4,1.1-0.9,1.9-1.7,2.8
		c-0.6,0.8-1.3,1.5-2.1,2c-0.8,0.5-1.7,1-2.5,1.3l-1.5,0.4c-0.8,0.4-1.6,0.5-2.4,0.8l-3.4,0.9c-1,0.3-2.1,0.6-3.1,1
		c-1,0.4-2.1,0.9-3,1.5c-0.7,0.4-1.3,1.1-1.5,2c-0.2,0.5-0.3,1.1-0.6,1.6c-0.2,0.5-0.6,1.7-0.9,2.4c-0.2,0.4-0.3,0.9-0.5,1.3
		c-0.1,0.6,0.2,1.2,0.6,1.6c0.6,0.4,1.2,0.6,1.7,1c1.2,0.6,2.5,1.1,3.9,1.3c0.5,0.1,0.9,0.2,1.4,0.2h0.5c0.1,0,0.2,0,0.2-0.1
		c0.4-0.1,0.8-0.2,1.2-0.3c0.2,0,0.2-0.2,0.2-0.3c0-0.2,0-1.1,0-1.8s0-1.8,0-2.6c0-0.2,0.1-0.4,0.2-0.5c0.4-0.5,0.9-0.7,1.4-0.8
		c0.2,0,0.3,0.1,0.5,0.2c0.1,0.2,0.2,0.3,0.3,0.4c0.2,0.2,0.2,0.4,0.2,0.6c0,0.1,0,0.2,0.1,0.3c0.1,0.1,0.1,0.2,0.2,0.4
		c0.1,0.3,0.1,0.6,0.2,1c0,0.3,0,0.5,0.1,0.8c0,0.2,0.1,0.4,0.2,0.5c0.1,0.1,0.2,0.2,0.2,0.1c0.1-0.1,0.3-0.2,0.5-0.4
		c0.5-0.3,0.9-0.5,1.3-0.9c0.5-0.4,1-0.4,1.7-0.4c0.2,0.1,0.4,0.1,0.6,0.3c0.2,0.1,0.3,0.2,0.4,0.4c0.2,0.3,0.2,0.6,0.3,0.9
		c0.2,0.5-0.1,1.1-0.5,1.3l-0.9,0.7c-0.2,0.1-0.3,0.3-0.4,0.4c-0.1,0.3-0.1,0.4,0.2,0.5l0.4,0.2c0.2,0.1,0.3,0.2,0.4,0.4
		s0.2,0.4,0.4,0.6c0.1,0.1,0.1,0.1,0.1,0.2c0.2,0.5,0,1.2-0.6,1.5c-0.1,0.1-0.2,0.1-0.4,0.1c-0.3,0.1-0.7,0-1-0.2
		c-0.2-0.1-0.5-0.2-0.7-0.1c-0.4,0.1-0.7,0.6-0.6,1.1c0.2,0.5,0.2,0.9,0.3,1.3c0.1,0.4,0,0.8-0.2,1.1c-0.3,0.5-0.7,0.6-1.3,0.4
		c-0.3-0.1-0.6-0.3-0.8-0.4c-0.2-0.2-0.3-0.4-0.4-0.6l-0.9-2.1c0-0.1-0.1-0.2-0.1-0.3c-0.1-0.2-0.2-0.4-0.2-0.5
		c-0.1-0.4-0.2-0.4-0.4-0.4h-0.3c-0.5,0.1-0.9,0.3-1.3,0.5c-0.8,0.4-1.6,0.6-2.4,0.7c-0.3,0-0.6-0.1-0.9-0.1c-0.7,0-1.3-0.1-2-0.3
		c-0.9-0.2-1.8-0.4-2.7-0.6c-0.6-0.2-1.1-0.4-1.7-0.5c-0.6-0.2-0.9-0.4-1.3-0.6c-0.6-0.3-1.3-0.2-1.8,0.4c-0.5,0.6-0.9,1.2-1.4,1.8
		c-0.5,0.6-1,1.2-1.5,1.8c-0.5,0.6-0.6,0.8-0.9,1.1c-0.3,0.4-1.2,1.4-1.9,2.1c-0.6,0.6-0.9,1-1.4,1.5c-0.3,0.4-0.5,0.7-0.5,1.2
		c0,0.5,0.1,1.1,0.3,1.6c0.3,1,0.6,1.8,0.9,2.8c0.2,0.8,0.3,1.6,0.4,2.4c0.2,0.8,0.2,1.6,0.2,2.5c0,0.4,0,0.7,0,1.1
		c0,0.8-0.2,1.7-0.5,2.4c-0.2,0.4-0.3,0.9-0.5,1.3s-0.2,0.9-0.2,1.4c0,0.3,0.2,0.5,0.4,0.7l0.6,0.4l1.7,1.1c0.2,0.2,0.4,0.4,0.6,0.6
		c0.1,0.2,0.2,0.3,0.2,0.4c0.2,0.4,0.2,0.9-0.1,1.1c-0.3,0.4-0.8,0.4-1.3,0.4c-0.4-0.1-0.9-0.2-1.3-0.4c-0.2-0.1-0.3-0.1-0.4,0
		c-0.4,0.2-0.6,0.6-0.6,1.1c0,0.3,0.1,0.5,0.2,0.8c0.1,0.2,0.1,0.4,0.1,0.5c0,0.5-0.3,1.1-0.8,1.1c-0.3,0.1-0.6,0.1-0.9,0
		c-0.2,0-0.3-0.1-0.5-0.3c-0.1-0.1-0.1-0.1-0.2-0.1l-0.2-0.2c-0.1-0.3-0.2-0.6-0.3-0.9c-0.1-0.3-0.1-0.3-0.3-0.2l-0.2,0.2
		c-0.2,0.3-0.5,0.6-0.7,1c-0.3,0.5-0.9,0.8-1.4,0.6c-0.2-0.1-0.6-0.1-0.8-0.1c-0.3-0.4-0.5-0.8-0.6-1.2c0-0.4,0-0.6,0-1
		c0-0.2,0.1-0.4,0.2-0.5c0.2-0.4,0.5-0.9,0.7-1.3c0-0.1,0.2-0.2,0.2-0.3c0.3-0.4,0.6-1,0.9-1.5c-0.6,0.1-1-0.1-1.5-0.1
		s-1-0.1-1.5-0.2c-0.2,0-0.4-0.2-0.6-0.4c-0.1-0.1-0.2-0.3-0.3-0.4c-0.2-0.3-0.2-0.5-0.2-0.8c0.1-0.6,0.4-1.1,0.9-1.5
		c1.3,0,2.6,0,3.9,0.2c0.6,0.1,0.6,0.2,0.7-0.7c0.2-1,0.3-1.9,0.2-2.9c-0.1-1.1-0.2-2.1-0.6-3.1c-0.3-1.1-0.6-2-1.1-3
		c0-0.1-0.1-0.2-0.2-0.3l0,0c0-0.2-0.1-0.4-0.2-0.5c-0.2-0.4-0.6-0.7-0.9-0.5l0,0c-0.2,0-0.4,0.1-0.6,0.3c-0.9,0.6-1.8,1.2-2.7,1.9
		l-1.7,1.3c-0.5,0.4-0.9,0.8-1.4,1.2l-1.3,1.2c-0.6,0.5-1.1,1.1-1.7,1.6s-1.2,1.1-1.8,1.8l-1.7,1.7c-0.7,0.7-1.4,1.4-2.1,2.1
		l-0.7,0.7c-0.6,0.5-1.1,1.1-1.7,1.7l-0.9,0.8l-0.6,0.7l-1.7,1.7c-0.3,0.4-0.6,0.7-0.9,1c-0.3,0.3-0.5,0.5-0.8,0.8l-1.7,1.6
		c-0.4,0.4-0.7,0.8-1.1,1.1l-0.8,0.8l-1.9,1.8c-0.8,0.7-1.5,1.6-2.2,2.3l-0.2,0.3c-0.3,0.3-0.6,0.7-1,1c-0.4,0.4-0.8,0.8-1.1,1.1
		c-0.6,0.6-1.2,1.1-1.7,1.7c-0.2,0.2-0.3,0.3-0.6,0.3c-0.1,0-0.2,0.1-0.2,0.2l-0.2,0.2l-1.1,1.1c-0.1,0.1-0.3,0.1-0.4,0l0,0
		c-0.1-0.2-0.1-0.4,0-0.5l2.8-3.9c1.8-2.6,3.6-5.2,5.5-7.8c2.9-4.2,5.8-8.5,8.5-12.9c1.7-2.8,3.5-5.6,5-8.5c0.7-1.3,1.3-2.7,1.9-4.1
		c0.2-0.5,0.5-1.1,0.8-1.6h0v0.1l-0.9,2.1l-0.4,1c0,0.1-0.1,0.2,0,0.2c0.1,0,0.2,0,0.2-0.1l0,0c0.1,0,0.1-0.1,0.1-0.2
		c0.1-0.3,0.3-0.4,0.5-0.6l0.3-0.3c0.4-0.4,0.8-0.9,1.2-1.2c0.4-0.4,0.8-0.9,1.3-1.3c0.5-0.4,0.9-1,1.3-1.3c0.5-0.4,0.8-0.9,1.3-1.3
		s0.8-0.9,1.2-1.2c0.4-0.4,0.8-0.9,1.3-1.3c0.5-0.4,0.9-1,1.3-1.4s0.8-0.9,1.2-1.2c0.4-0.4,0.8-0.9,1.3-1.3c0.5-0.4,0.9-0.9,1.3-1.4
		c0.5-0.4,1.5-1.5,2.1-2.3l0.1-0.1c0.2-0.1,0.3-0.4,0.6-0.4s0,0.1,0,0.1l-0.9,1.2l-0.9,1.2l-1.2,1.8c-0.6,0.9-1.2,1.8-1.8,2.7
		c-0.3,0.6-0.7,1.1-1.2,1.7c-0.8,0.9-1.6,1.7-2.4,2.5l-1.2,1.3l-2.6,2.7l-1.1,1.1l-2.6,3.1c-0.6,0.7-1.3,1.4-2,2.1l-0.1,0.1
		c-0.5,0.4-0.9,0.8-1.1,1.3c-0.2,0.4-0.3,0.6-0.6,0.9c-0.9,1.6-1.9,3.1-2.8,4.6l-0.9,1.5c-0.3,0.5-0.7,1.1-1.1,1.7l-1.8,2.7
		l-2.1,3.2l-2.1,3.1L6.9,134l-1.7,2.4L3,139.6c-0.1,0.1-0.2,0.2-0.1,0.4l0.9-1l1.6-1.6l1.5-1.5l2.2-2.2l1.5-1.5l2.2-2.2l1.4-1.4
		l2.1-2.1c0.6-0.5,1.1-1.1,1.7-1.7l0.7-0.7c0.6-0.5,1.1-1.1,1.7-1.6l0.9-0.9c0.7-0.7,1.4-1.3,2.1-2c0.7-0.7,0.9-1,1.3-1.3l0.6-0.6
		l1.3-1.2l1.3-1.2l1.5-1.4c0.6-0.5,1.1-1.1,1.7-1.5c0.6-0.5,1.5-1.1,2.2-1.8c0.7-0.6,1.7-1.2,2.6-1.9l0.9-0.6c0.2-0.2,0.4-0.2,0.6,0
		l0.1,0.1c0.1,0.2,0.2,0.3,0.3,0.4c0.4,0.4,0.7,1,0.9,1.5c0.3,0.7,0.6,1.4,0.8,2.1c0.4,1.1,0.6,2.1,0.8,3.2c0.1,0.6,0.2,1.1,0.2,1.8
		c0.1,0.6,0,1.1-0.1,1.8c-0.1,0.5-0.2,1.1-0.4,1.6c-0.1,0.3-0.2,0.4-0.4,0.4c-0.3,0-0.6,0-0.9-0.1l-1-0.1c-0.7,0-1.4,0-2.1-0.1
		c-0.2,0-0.5,0.1-0.6,0.4c-0.2,0.3-0.3,0.6-0.2,1c0.1,0.4,0.4,0.5,0.7,0.5l0.6,0.1c0.6,0.1,1.3,0.2,1.9,0.2h0.7
		c0.4,0,0.5,0.2,0.2,0.5c-0.2,0.4-0.5,0.9-0.7,1.3l-1.3,2.2c-0.1,0.1-0.1,0.2-0.1,0.4c0,0.4,0,0.6,0,1c0,0.3,0.1,0.6,0.5,0.6
		l0.5,0.1c0.1,0,0.2,0,0.2-0.1c0.2-0.2,0.2-0.4,0.4-0.6c0.4-0.9,0.7-1.8,0.9-2.6l0.4-1.6c0.1-0.2,0.2-0.4,0.3-0.3
		c0.2,0,0.2,0.2,0.2,0.4c0.1,0.2,0.2,0.9,0.2,1.3c0.1,0.4,0.2,1.4,0.3,2.1c0,0.3,0.1,0.5,0.2,0.8c0.2,0.4,0.6,0.5,1,0.4
		c0.2-0.1,0.4-0.6,0.3-0.9c-0.1-0.4-0.1-0.6-0.2-1c-0.2-0.5-0.3-1.1-0.6-1.6c-0.2-0.5-0.2-0.7-0.4-1.1c-0.1-0.2-0.1-0.4,0.1-0.4
		c0.1,0,0.2-0.1,0.2,0c0.1,0,0.2,0.1,0.3,0.1l1.1,0.6c0.6,0.4,1.3,0.7,1.9,1c0.3,0.1,0.7,0.1,1-0.1c0.2-0.1,0.2-0.2,0.2-0.4
		c0-0.4-0.2-0.8-0.6-1l-1.2-0.6l-2.3-1.3l-0.2-0.2c-0.2-0.1-0.2-0.3-0.2-0.4l0,0l0.2-0.6c0.3-0.8,0.6-1.6,0.9-2.4
		c0.2-0.6,0.4-1.3,0.4-2c0-0.4,0-1,0-1.4c0.2,0,0.2,0.3,0.3,0.3l0.1-0.1c0-0.1,0-0.2,0-0.3c0-1-0.1-1.8-0.2-2.8
		c-0.2-1.1-0.4-2.1-0.7-3.2c-0.2-0.5-0.3-1.1-0.5-1.6s-0.4-1.1-0.6-1.6c0-0.1-0.1-0.2-0.2-0.2s-0.2,0.1-0.2,0.2c0,0.1,0,0.2,0,0.3
		l0.5,1.5c0.2,0.7,0.5,1.3,0.6,2c0.3,1.3,0.6,2.5,0.7,3.9c0.1,0.4,0.1,0.7,0.1,1.1c-0.2-0.1-0.2-0.4-0.2-0.5
		c-0.2-0.7-0.3-1.4-0.6-2.1l-1.4-5.4c0-0.2-0.1-0.3,0.1-0.4c0.2-0.1,0.2-0.3,0.1-0.4c-0.1-0.3-0.1-0.4,0.2-0.5
		c0.8-0.6,1.5-1.4,2.1-2.1c0.7-0.7,1.9-2.1,2.8-3.2l0.1-0.1l1.7-2l0.9-1.2c0.3-0.4,0.6-0.8,0.9-1.2c0.1-0.2,0.3-0.2,0.5-0.1l1.7,0.8
		c0.6,0.3,1.1,0.5,1.7,0.7c1.4,0.4,2.8,0.8,4.3,1.1c0.4,0.1,0.8,0.1,1.2,0.1h0.9c0.4,0,0.9-0.1,1.3-0.3l1.9-0.9l1-0.4
		c0.3-0.1,0.4-0.1,0.6,0.3l1.7,3.9c0.2,0.3,0.3,0.5,0.6,0.5c0.3,0.1,0.5,0,0.6-0.4c0.1-0.3,0.1-0.5,0.1-0.8c0-0.2-0.1-0.3-0.1-0.4
		c-0.2-0.8-0.6-1.6-0.9-2.4c-0.2-0.4-0.2-0.7-0.4-1c-0.2-0.4,0.1-0.4,0.2-0.4s0.2,0.1,0.4,0.1l0.9,0.4c0.6,0.4,1.2,0.6,1.9,0.8
		c0.3,0.1,0.6,0,0.9-0.3c0.2-0.4,0.2-0.9-0.2-1.1l0,0c-0.2-0.1-0.4-0.2-0.6-0.3L68.4,95l-1.9-0.4c-0.2-0.1-0.3-0.1-0.3-0.4
		c0-0.2,0.1-0.3,0.3-0.4l0.7-0.2c0.9-0.3,1.8-0.5,2.7-0.9c0.3-0.1,0.6-0.4,0.9-0.6c0.1-0.1,0.2-0.2,0.2-0.3c-0.1-0.1,0-0.5-0.2-0.8
		l-0.1-0.1c-0.4-0.3-0.9-0.3-1.3-0.2L69.3,91l-1.8,1.2l-1.3,0.9c-0.1,0.1-0.2,0.1-0.4,0c-0.2-0.1-0.2-0.3-0.2-0.4
		c0-0.1,0.1-0.2,0.1-0.3c0-1.1,0-2.2-0.1-3.3c-0.1-0.5-0.5-0.9-0.9-0.8c-0.3,0.1-0.7,0.4-0.7,0.6c0,0.4,0,0.9-0.1,1.3
		c0,0.1,0,0.1,0,0.2c0.1,0.3,0.1,0.4,0.1,0.7c0,0.8,0,1.6,0,2.4c0,0.1,0,0.2,0,0.3c0,0.2-0.1,0.4-0.2,0.4c0,0,0,0-0.1,0l-0.4,0.3
		c-0.7,0.3-1.5,0.4-2.3,0.4c-0.3,0-0.7-0.1-1-0.2c-0.6-0.1-1.2-0.3-1.7-0.4c-0.6-0.2-1.3-0.5-1.9-0.5h-0.1l-1.7-0.4l-2.1-0.5
		c-0.4-0.1-0.5-0.3-0.2-0.6c0.2-0.3,0.2-0.6,0.3-0.9c0-0.1,0.1-0.3,0-0.4c-0.1-0.1-0.1-0.4,0-0.6c0.4-0.9,0.8-1.8,1.1-2.5
		c0.6-1.5,1.1-3,1.5-4.5c0.1-0.2,0.2-0.4,0.3-0.4l0.4-0.3c1.2-0.7,2.4-1.2,3.6-1.8c1.2-0.4,2.4-0.8,3.7-1.1l2.1-0.5
		c0.9-0.2,1.8-0.4,2.8-0.8l1.9-0.8c1-0.4,2-0.9,2.8-1.6c0.9-0.7,1.6-1.5,2.1-2.4c0.9-1.6,1.6-3.4,2-5.3c0.3-1.4,0.6-2.8,0.7-4.3
		c0.1-0.7,0.1-1.4,0.2-2.1c0.1-0.7-0.1-0.9-0.1-1.3c0-0.5-0.2-1.1-0.7-1.4c-0.2-0.2-0.6-0.4-0.9-0.5c-1-0.4-2.1-0.5-3.1-0.5
		c-0.2,0-0.3,0.1-0.4,0.2l-0.9,1.1l-2.6,2.7l-2.1,2.3L65.3,66l-0.2,0.2l-1.2,1l-1.7,1.4l-1.6,1.4l-1.6,1.6l-1,1l-1.6,1.5l-1,1
		L54,76.2l-1,1l-1.9,1.8c-0.5,0.4-0.9,0.9-1.4,1.2l-1.1,1c-0.5,0.4-0.9,0.9-1.5,1.3c0-0.2,0-0.3,0.2-0.4c0.2-0.1,0.2-0.2,0.4-0.4
		l1.2-1.2l2.6-2.7l1.2-1.2c0.9-0.9,1.7-1.8,2.5-2.6l1.2-1.2c0.9-0.9,1.7-1.8,2.5-2.6l1.2-1.2c0.6-0.5,1.1-1.1,1.7-1.8
		c0.6-0.6,1.2-1.2,1.7-1.8l0.1-0.1c0.6-0.5,1.1-1.2,1.7-1.8c0.2-0.2,0.2-0.3,0-0.5h0.3c0.7,0.3,1.3-0.3,1.5-1
		c0.1-0.3,0.1-0.5,0.1-0.8c0.2,0.2,0.4,0.1,0.6-0.1l0,0c0.3-0.4,0.6-0.7,0.9-1.1c0.4-0.4,0.6-0.8,1-1.1c0.1-0.1,0.2-0.3,0.2-0.4
		c-0.2,0-0.4,0-0.6,0l-0.9,0.2L67,58.9c-0.3,0.1-0.7,0.2-1,0.4c-0.4,0.1-0.8,0.2-1.1,0.4c-0.9,0.4-1.9,1-2.8,1.5
		c-0.2,0.1-0.3,0.2-0.5,0.4l-2.5,2.8L58.4,65c0,0.1-0.1,0.1-0.1,0.2l0,0c-0.1,0-0.1,0.1-0.1,0.2l0,0c-0.1,0-0.2,0-0.2,0.1
		c-0.4,0.5-0.7,1.1-1.1,1.7c-0.2,0.3-0.4,0.5-0.4,0.9l0,0c-0.2,0-0.2,0.2-0.2,0.3l0,0c-0.1,0-0.1,0.1-0.1,0.2l0,0l-0.1,0.1l0,0
		c-0.1,0-0.1,0.1-0.1,0.2c-0.2,0.4-0.5,0.9-0.7,1.2l-2.8,4.7c-0.2,0.2-0.3,0.4-0.5,0.5l-1.8,1.3c-1,0.7-2.1,1.4-3.1,1.9
		c-1,0.6-1.6,0.9-2.4,1.3c-0.2,0.2-0.5,0.4-0.7,0.4L44,79.8c0.1-0.2,0-0.3-0.1-0.4c-0.2-0.3-0.5-0.6-0.7-1c-0.6-0.9-0.9-1.8-1.3-2.8
		c-0.3-0.9-0.6-1.8-0.7-2.6c-0.2-0.9-0.3-1.8-0.3-2.7c0-0.8,0-1.5,0.2-2.2c0.1-0.2,0-0.3-0.2-0.4l0,0c0-0.6,0.1-0.7,0.6-0.7
		c0.6,0,1.1,0.1,1.7,0.1s1.4,0,2.1,0c0.3,0,0.6-0.2,0.8-0.5c0.2-0.4,0.2-1.1-0.5-1.2c-0.4-0.1-0.8-0.2-1.2-0.2c-0.3,0-0.7,0-1-0.1
		c-0.2,0-0.2,0-0.4,0c-0.2,0.1-0.6,0.1-0.9,0.1c-0.2,0.1-0.3,0-0.4-0.2c-0.1-0.2,0-0.3,0.1-0.4c0.6-1.1,1.2-2.1,1.7-3.2
		c0.2-0.5,0.3-1.1,0.2-1.7c0-0.2-0.1-0.3-0.2-0.4c-0.4-0.3-0.9-0.1-1.2,0.4L42.3,60c-0.4,0.9-0.6,1.8-0.9,2.6
		c-0.2,0.5-0.2,1.1-0.3,1.6c0,0.6,0,0.4-0.2,0.4c-0.2,0-0.2-0.2-0.2-0.4s-0.1-0.5-0.2-0.8c-0.1-0.3-0.2-1-0.2-1.4
		c0-0.4-0.2-1-0.2-1.5c-0.1-0.5-0.2-0.7-0.6-0.8c-0.4-0.1-0.6,0-0.7,0.2c-0.2,0.3-0.2,0.6-0.1,1c0,0.2,0.1,0.4,0.2,0.6
		c0.3,0.9,0.7,1.8,1,2.5c0.1,0.2,0,0.4-0.1,0.4c-0.1,0.2-0.2,0.1-0.4,0l-1.7-0.9c-0.5-0.3-1-0.5-1.6-0.6c-0.3-0.1-0.6,0-0.9,0.2
		c-0.2,0-0.2,0.2-0.2,0.4c0.1,0.4,0.2,0.8,0.6,1c1.2,0.6,2.2,1.3,3.4,1.8c0.3,0.2,0.4,0.4,0.2,0.7c-0.3,1-0.7,1.8-1,2.8
		c-0.2,0.3-0.2,0.6-0.3,0.9c-0.1,0.6-0.2,1.1-0.2,1.8c0,0.3,0.1,0.5,0.1,0.8c0,0.4,0,0.7,0.1,1.1c0.2,1.1,0.4,2.4,0.6,3.5
		c0.1,0.4,0.2,1,0.3,1.4c0.4,1.1,0.7,2.1,1.1,3.1c0.1,0.1,0.1,0.3,0.2,0.4l0,0.1c-1.1,0.7-2.1,1.6-3,2.5c-1.5,1.6-2.8,3.2-4.3,4.7
		L32.9,90l-1.7,2.1c-0.2,0.3-0.4,0.5-0.6,0.9c-0.2,0.3-0.3,0.6-0.6,0.8c-0.2,0-0.3-0.1-0.5-0.2c0.1,0,0.2-0.1,0.2-0.2
		c0.1-0.2,0.1-0.2-0.1-0.3l-0.9-0.3l-0.9-0.4c-0.5-0.2-0.9-0.4-1.4-0.5C26,91.9,26,92,25.7,91.9l-0.9-0.2l-1.7-0.3
		c-0.6-0.1-1.3-0.2-1.9-0.2c-0.2,0-0.5,0.1-0.7,0.1c-0.6,0-1.2,0.1-1.7,0.4c-0.8,0.4-1.6,0.7-2.4,1.2c-0.2,0-0.2,0.2-0.2,0.4v0.1
		c0,0.1-0.1,0.1-0.2,0.1s-0.5,0.2-0.6-0.3c-0.6-1.2-1.2-2.5-1.7-3.7c-0.2-0.4-0.4-0.6-0.8-0.7c-0.2-0.1-0.3,0-0.4,0.2v0.1
		c-0.2,0.3-0.2,0.6-0.1,1c0.2,0.5,0.3,1,0.5,1.4l0.9,2.1c0.1,0.2,0.1,0.3,0,0.4c-0.1,0.1-0.2,0.2-0.4,0.1l-1.3-0.6
		c-0.6-0.3-1.2-0.5-1.8-0.7c-0.2-0.1-0.6,0.1-0.7,0.3c-0.2,0.4-0.2,0.9,0.2,1.1c0.1,0,0.2,0.1,0.2,0.1l0.6,0.2l2.4,0.4l0.9,0.2
		c0.2,0.1,0.3,0.4,0.2,0.5c-0.1,0.1-0.2,0.1-0.2,0.1c-0.9,0.3-1.8,0.5-2.6,0.9c-0.4,0.2-0.8,0.4-1.2,0.6c-0.6,0.4-0.6,0.4-0.5,1.1
		c0,0.2,0.2,0.4,0.3,0.4c0.4,0.1,0.8,0.1,1.2,0.1l0.1-0.1l1.5-1.1l1.7-1.2c0.2-0.2,0.4-0.1,0.5,0.3c0,0.1,0,0.1,0,0.2
		c0,1.1,0,2.3,0.2,3.3c0,0.4,0.2,0.7,0.6,1c0.4,0.3,1.1-0.3,1.1-0.8c0-1.1-0.1-2.1-0.1-3.1v-0.1c-0.1-0.5,0-1-0.1-1.5
		c0-0.2,0.1-0.4,0.2-0.4l0,0l0.6-0.2c0.6-0.2,1.2-0.3,1.8-0.4c0.4,0,0.8,0.1,1.3,0.2c0.6,0.1,1.2,0.2,1.7,0.4
		c1.5,0.4,2.9,1.1,4.3,1.8c0.2,0.1,0.4,0.3,0.6,0.4l0.9,0.9c0,0.1-0.1,0.3-0.2,0.4c-0.5,0.9-1,1.8-1.5,2.7c-0.1,0.3-0.2,0.4-0.4,0.7
		l0,0c0.2-0.4,0.3-0.8,0.5-1.1l0.9-1.8c0.3-0.4,0.3-0.4-0.1-0.8l-0.2-0.3c-0.2-0.2-0.3-0.4-0.6-0.4c-0.7-0.4-1.4-0.8-2.1-1.1
		c-1.1-0.5-2.2-0.8-3.3-1c-0.7-0.1-1.4-0.1-2.1,0c-0.7,0.2-1.2,0.5-1.3,1.4v0.1c0,0.7,0,1.3,0,2c0.1,0.6,0.1,1.1-0.1,1.8
		c-0.1,0.4-0.5,0.8-0.9,0.9c-0.4,0.1-0.9,0.1-1.3,0.1l0,0c0-0.1-0.1-0.2-0.2-0.2l-0.1-0.1c-0.4-0.4-0.6-0.9-0.6-1.4
		c0-0.3-0.1-0.6-0.1-0.9s0-0.4-0.1-0.7c0-0.3-0.1-0.4-0.4-0.4c-0.2,0.1-0.6,0.2-0.8,0.4c-0.3,0.3-0.6,0.4-1,0.7
		c-0.3,0.2-0.7,0.3-1.1,0.3c-0.6,0-1.1-0.2-1.7-0.4c-0.2-0.1-0.3-0.4-0.3-0.6s-0.1-0.4-0.1-0.7c-0.1-0.3,0-0.5,0.2-0.7
		c0.2-0.3,0.5-0.5,0.8-0.7l0.5-0.3l0.9-0.4c0.1,0,0.2-0.1,0.2-0.2c-0.1-0.3-0.2-0.4-0.5-0.5C10.3,95,9.9,94.8,9.4,94.7z M66.9,96.2
		L66.9,96.2L66.9,96.2c0,0.4,0.2,0.6,0.4,1c0.1,0.4,0.2,0.2,0.2,0l0.2-0.3c0.2-0.3,0.2-0.3-0.1-0.4L66.9,96.2z M55.7,92.8
		c0-0.1,0-0.1-0.1-0.2c-0.2-0.2-0.4-0.4-0.6-0.4c-0.7-0.3-1.4-0.8-1.9-1.4l-0.2-0.3c-0.2-0.2-0.2-0.1-0.3,0.1l-0.2,0.6
		c-0.1,0.4-0.1,0.4,0.2,0.5c0.5,0.2,0.9,0.3,1.5,0.4c0.1,0,0.2,0.1,0.3,0.1l1.1,0.5C55.5,92.9,55.6,92.9,55.7,92.8L55.7,92.8z
		 M39.7,125.4L39.7,125.4l-0.6,1.9c0,0.1,0,0.1,0.1,0.1l0,0c0.1,0,0.1,0,0.1-0.1c0.2-0.2,0.3-0.4,0.6-0.4c0.1,0,0.1-0.2,0.1-0.3
		c0-0.3,0-0.5-0.1-0.7C39.8,125.7,39.7,125.6,39.7,125.4z M42.2,125.9C42.3,125.9,42.3,125.8,42.2,125.9c0.2-0.3,0.2-0.4,0.4-0.5
		c0.1-0.1,0.1-0.2,0-0.3c-0.1-0.1-0.6-0.4-0.9-0.5c0,0-0.1-0.1-0.1,0l0,0c0,0,0,0.1,0,0.2l0.4,1.1C42.1,125.8,42.2,125.9,42.2,125.9
		L42.2,125.9z M69.2,93.7l-1.4,0.4v0.1l1.2,0.3c0.1,0,0.2,0,0.2-0.1C69.1,94.1,69.2,93.9,69.2,93.7L69.2,93.7z M16.8,96.9
		c0-0.4,0.2-0.7,0.5-1l0.2-0.3v-0.1c0-0.1-0.1-0.1-0.1-0.1h-0.1c-0.6,0.1-0.7,0.2-0.7,1C16.6,96.6,16.7,96.8,16.8,96.9L16.8,96.9z
		 M41.3,69c0.2-0.2,0.3-0.4,0.4-0.7c0.2-0.3,0.5-0.3,0.5-0.6c-0.1,0-0.2-0.1-0.3,0c-0.3,0-0.3,0-0.4,0.4
		C41.4,68.3,41.3,68.7,41.3,69L41.3,69z"/>
	<path class="st1" d="M40.4,128.7c0.1,0,0.2,0,0.2,0.1c0.1,0.2,0.2,0.3,0.5,0.3c0.3,0.1,0.6,0.1,0.9,0c0.5-0.1,0.8-0.6,0.8-1.1
		c0-0.2,0-0.4-0.1-0.5c-0.1-0.3-0.1-0.5-0.2-0.8c-0.1-0.4,0.2-0.9,0.6-1.1c0.2-0.1,0.3,0,0.4,0c0.4,0.2,0.8,0.4,1.3,0.4
		c0.5,0.1,0.9,0.1,1.3-0.4c0.2-0.4,0.3-0.8,0.1-1.1c-0.1-0.1-0.2-0.3-0.2-0.4c-0.1-0.3-0.3-0.4-0.6-0.6l-1.7-1.2L43,122
		c-0.2-0.1-0.4-0.4-0.4-0.7c-0.1-0.4,0-1,0.2-1.4c0.2-0.4,0.4-0.9,0.5-1.3c0.3-0.8,0.5-1.6,0.5-2.4c0-0.4,0-0.7,0-1.1
		c0-0.8-0.1-1.7-0.2-2.5c-0.1-0.8-0.2-1.6-0.4-2.4c-0.2-1-0.5-1.9-0.9-2.8c-0.2-0.5-0.3-1.1-0.3-1.6c0-0.4,0.2-0.9,0.5-1.2
		c0.5-0.5,0.9-1.1,1.4-1.5c0.5-0.4,1.3-1.4,1.9-2.1c0.6-0.7,0.6-0.7,0.9-1.1c0.3-0.4,1-1.2,1.5-1.8c0.5-0.6,0.9-1.2,1.4-1.8
		c0.5-0.5,1.2-0.7,1.8-0.4c0.5,0.2,0.9,0.4,1.3,0.6c0.5,0.2,1.1,0.4,1.7,0.5c0.9,0.3,1.7,0.4,2.7,0.6c0.6,0.2,1.3,0.3,2,0.3
		c0.3,0,0.6,0.1,0.9,0.1c0.8-0.1,1.7-0.3,2.4-0.7c0.4-0.3,0.9-0.4,1.3-0.5H64c0.3,0,0.3,0,0.4,0.4c0.1,0.2,0.2,0.4,0.2,0.5
		c0.1,0.1,0.1,0.2,0.1,0.3c-0.1,0-0.2-0.1-0.2-0.2c-0.2-0.4-0.6-0.4-1-0.4s-0.7,0.3-1,0.4c-0.6,0.3-1.3,0.5-1.9,0.6h-1.3
		c-0.9,0-1.8-0.2-2.7-0.4l-1.9-0.4c-0.6-0.2-1.3-0.4-1.9-0.7l-1.4-0.6c-0.5-0.2-0.9-0.3-1.3,0.1c-0.2,0.3-0.5,0.4-0.6,0.8l-0.6,0.7
		l-0.5,0.6c-0.3,0.4-0.6,0.9-1,1.2c-0.3,0.4-0.5,0.6-0.7,0.9c-0.8,0.8-1.4,1.8-2.2,2.5c-0.1,0.1-0.2,0.2-0.3,0.3
		c-0.2,0.1-0.2,0.3-0.3,0.4c-0.1,0.1-0.6,0.6-0.8,0.9c-0.3,0.3-0.5,1.1-0.3,1.7c0.2,0.6,0.4,1.2,0.6,1.8c0.2,0.6,0.5,2.1,0.7,3.1
		c0.1,0.4,0.1,0.7,0.2,1.1c0.1,0.4,0.2,1,0.2,1.4c0,0.1,0,0.2,0,0.3c0,0.9,0,1.7,0,2.5c0,0.6-0.2,1.1-0.4,1.8
		c-0.1,0.4-0.2,0.6-0.3,1s-0.2,0.4-0.3,0.7c-0.1,0.3-0.2,1,0.2,1.4c0.2,0.2,0.4,0.4,0.6,0.5l1.3,0.8c0.6,0.4,1.2,0.9,1.4,1.7
		c0.1,0.3,0.1,0.6-0.1,0.9l-0.1,0.2c-0.2,0.6-0.6,0.8-1.2,0.9c-0.6,0.1-1,0-1.6-0.2c-0.5-0.1-0.6,0-0.6,0.5s0,0.8,0,1.1
		c0,0.4-0.1,0.7-0.3,1c-0.2,0.3-0.5,0.5-0.7,0.6c-0.5,0.2-0.9,0.2-1.3-0.2C40.7,129.2,40.5,129,40.4,128.7z"/>
	<path class="st1" d="M61.3,93.9c-0.5,0-0.9,0-1.4-0.2c-1.3-0.3-2.6-0.6-3.9-1.3c-0.6-0.4-1.2-0.6-1.7-1c-0.5-0.4-0.7-1-0.6-1.6
		c0.1-0.4,0.2-0.9,0.5-1.3c0.3-0.8,0.6-1.6,0.9-2.4c0.3-0.8,0.4-1.1,0.6-1.6c0.2-0.9,0.8-1.6,1.5-2c0.9-0.6,2-1.1,3-1.5
		c1-0.4,2-0.7,3.1-1l3.4-0.9c0.8-0.3,1.6-0.4,2.4-0.8l1.4-0.6c0.9-0.4,1.7-0.8,2.5-1.3s1.5-1.2,2.1-2c0.6-0.9,1.2-1.8,1.7-2.8
		c0.6-1.2,0.9-2.5,1.2-3.9c0.2-0.8,0.3-1.6,0.4-2.4c0.2-1.4,0.2-2.8,0.2-4.1c0-0.4-0.1-0.9-0.3-1.3c0-0.1-0.1-0.1-0.1-0.2
		c-0.2-0.5-0.5-1.1-0.9-1.3c-0.6-0.4-1.3-0.7-1.9-0.8l-0.1-0.1c0.1-0.1,0.1-0.1,0.2-0.1c0.6,0.3,1.3,0.4,2,0.8
		c0.6,0.3,0.9,0.7,1.3,1.2c0.2,0.4,0.3,0.9,0.4,1.4c0.1,0.6,0.1,1.2,0.1,1.8c0,0.5-0.1,1.1-0.1,1.6c0,0.5-0.1,0.9-0.2,1.3
		c-0.1,1-0.3,1.9-0.6,2.9c-0.3,1.3-0.8,2.6-1.3,3.9c-0.6,1.4-1.5,2.7-2.6,3.8c-0.5,0.4-1,0.9-1.6,1.1c-1.1,0.6-2.2,1.1-3.3,1.6
		c-0.8,0.4-1.7,0.6-2.5,0.9c-1.5,0.4-3,0.7-4.5,1.1c-1.1,0.4-2.3,0.7-3.3,1.1c-0.6,0.3-1.3,0.6-2,1c-0.5,0.3-0.9,0.8-1,1.4
		c-0.2,0.7-0.5,1.4-0.7,2.1s-0.6,1.7-0.9,2.5C54,90,54,90,54.1,90.5c0.1,0.3,0.2,0.4,0.3,0.6c0.2,0.3,0.6,0.5,0.9,0.7l1.5,0.8
		c0.8,0.4,1.7,0.7,2.5,1c0.6,0.2,1.1,0.3,1.7,0.4C61.1,93.8,61.2,93.8,61.3,93.9z"/>
	<path class="st1" d="M0.5,143.1l1.1-1.1l0.3-0.3c0.1-0.1,0.2-0.2,0.2-0.2c0.2,0,0.4-0.1,0.6-0.3c0.6-0.5,1.2-1.1,1.7-1.7
		c0.3-0.3,0.7-0.7,1-1.1c0.4-0.3,0.6-0.6,1-1l0.2-0.3c0.7-0.8,1.5-1.6,2.2-2.3l1.9-1.8l0.8-0.8c0.4-0.4,0.7-0.7,1.1-1.1l1.7-1.6
		c0.2-0.3,0.5-0.5,0.8-0.8c0.2-0.3,0.6-0.7,0.9-1l1.7-1.7l0.6-0.7l1-1.1c0.6-0.5,1.1-1.1,1.7-1.7l0.7-0.7c0.7-0.7,1.4-1.4,2.1-2.1
		l1.7-1.7c0.6-0.5,1.2-1.1,1.8-1.8c0.6-0.5,1.1-1.1,1.7-1.6l1.3-1.2c0.5-0.4,0.9-0.9,1.4-1.2l1.7-1.3c0.9-0.7,1.7-1.3,2.7-1.9
		c0.2-0.1,0.4-0.2,0.6-0.3c0.4-0.2,0.8,0.1,0.9,0.5l0,0c0.1,0.2,0.2,0.4,0.2,0.5c-0.2,0-0.2-0.1-0.2-0.2c-0.1-0.1-0.8-0.2-1.3,0
		c-0.4,0.3-0.9,0.5-1.3,0.9l-1.7,1.2c-0.6,0.4-1.2,0.9-1.7,1.4l-2.4,2.1l-1.7,1.6c-0.8,0.7-1.6,1.4-2.3,2.2l-0.9,1l-0.7,0.8l-1,1.1
		c-0.2,0.3-0.6,0.5-0.9,0.8l-0.1,0.1c-0.2,0.3-0.5,0.5-0.7,0.7c-0.2,0.2-0.3,0.4-0.5,0.5l-1,1c-0.2,0.4-0.6,0.6-0.9,0.9l-0.1,0.1
		c-0.3,0.4-0.6,0.7-1,1.1c-0.2,0.4-0.6,0.6-0.9,0.9l-0.1,0.1c-0.3,0.4-0.7,0.7-1.1,1.1c-0.3,0.4-0.4,0.4-0.6,0.5l-1.2,1.1l-0.8,0.8
		l-1.1,1.1c-0.6,0.5-1.1,1.1-1.7,1.8c-0.6,0.5-0.6,0.7-1,1.1l-2,2l-0.8,0.8c-0.7,0.7-1.4,1.5-2.1,2.1l-0.9,1
		c-0.6,0.5-1.1,1.1-1.7,1.6l-0.3,0.2c-0.2,0.1-0.5,0.1-0.6-0.1C0.6,143.2,0.5,143.1,0.5,143.1z"/>
	<path class="st1" d="M14.8,101.6c0.4,0,0.9,0,1.3-0.1s0.7-0.4,0.9-0.9c0.2-0.6,0.2-1.1,0.1-1.8c-0.1-0.7-0.1-1.3,0-2v-0.1
		c0.2-0.9,0.7-1.2,1.3-1.4c0.7-0.1,1.4-0.2,2.1,0c1.2,0.2,2.3,0.5,3.3,1c0.7,0.4,1.4,0.7,2.1,1.1c0.2,0.1,0.4,0.3,0.6,0.4l0.2,0.3
		c0.3,0.4,0.3,0.4,0.1,0.8c-0.2-0.6-0.7-1-1.3-1.2c-0.7-0.4-1.4-0.7-2.1-1c-0.8-0.3-1.7-0.5-2.5-0.7c-0.5-0.1-0.9-0.1-1.3-0.2
		c-0.4,0-0.8,0-1.2,0.2c-0.4,0.1-0.7,0.5-0.7,1c0,0.4,0,0.8,0,1.2c0,0.6,0,1.2,0,1.8c0,0.3,0,0.4-0.1,0.7c-0.2,0.7-0.6,1.1-1.3,1.3
		c-0.5,0.2-0.9,0-1.3-0.4C14.9,101.8,14.8,101.7,14.8,101.6z"/>
	<path class="st1" d="M66,100.9c0.2,0.2,0.6,0.3,0.8,0.4c0.6,0.2,0.9,0.1,1.3-0.4c0.2-0.4,0.2-0.7,0.2-1.1c-0.1-0.4-0.2-0.9-0.3-1.3
		c-0.1-0.4,0.2-1.1,0.6-1.1c0.2-0.1,0.5,0,0.7,0.1c0.3,0.2,0.6,0.2,1,0.2c0.6,0,0.9-0.5,0.9-1.1c0-0.2,0-0.3-0.1-0.4
		c0-0.1,0-0.1-0.1-0.2c-0.2-0.2-0.3-0.4-0.4-0.6c-0.1-0.2-0.2-0.4-0.4-0.4l-0.4-0.2c-0.2-0.1-0.3-0.3-0.2-0.5
		c0.1-0.2,0.2-0.4,0.4-0.4l0.9-0.7c0.4-0.3,0.6-0.8,0.5-1.3c-0.1-0.3-0.2-0.6-0.3-0.9c-0.1-0.2-0.2-0.3-0.4-0.4
		c-0.2-0.1-0.4-0.2-0.6-0.3C70,90,70,90,70.1,90c0.5,0,0.9,0.3,1.3,0.6c0.2,0.3,0.4,0.7,0.5,1.1c0,0.4-0.1,0.9-0.3,1.2
		c-0.1,0.1-0.2,0.2-0.2,0.3c-0.2,0.2-0.5,0.4-0.6,0.7c-0.2,0.2-0.2,0.4,0,0.6l0,0l0.5,0.6c0.6,0.8,0.6,2.4-0.8,2.7
		c-0.4,0.1-0.8,0.1-1.1,0h-0.5c-0.2,0-0.3,0.2-0.4,0.4c0,0.2,0,0.4,0,0.5c0.1,0.3,0.2,0.6,0.2,0.9c0.1,0.6-0.1,1.3-0.6,1.8
		c-0.2,0.2-0.5,0.4-0.7,0.4c-0.6,0.1-1.1-0.4-1.5-0.9C66,101,66.1,100.9,66,100.9z"/>
	<path class="st1" d="M44.8,64.6h-0.9c-0.3,0-0.4-0.1-0.4-0.4c0-0.4,0.2-0.8,0.3-1.1c0.2-0.4,0.4-0.8,0.6-1.2c0.2-0.4,0.2-1,0.1-1.5
		c-0.1-0.5-0.2-1-0.5-1.4c0.4-0.1,0.7,0.3,0.9,0.6c0.4,0.6,0.5,1.4,0.2,2.1c-0.1,0.4-0.2,0.8-0.5,1.1c-0.2,0.3-0.3,0.5-0.4,0.9
		c-0.2,0.4,0,0.7,0.2,0.9c0,0,0,0,0.1,0C44.8,64.6,44.8,64.6,44.8,64.6z"/>
	<path class="st1" d="M30.4,92.6L30.4,92.6c-0.4,0.7-0.3,0.6-0.9,0.4c-1-0.4-2-0.9-3-1.1c-1-0.3-2.2-0.5-3.3-0.7
		c-0.7-0.1-1.5-0.2-2.2-0.2h-0.7c0-0.1,0.1-0.2,0.2-0.2l0,0c0.5,0,0.9-0.2,1.3-0.1c0.5,0.1,0.9,0.1,1.4,0.1l1.7,0.3
		c0.6,0.1,1,0.3,1.6,0.4c0.9,0.2,1.8,0.5,2.6,0.9l0.6,0.2c0.2,0.1,0.3,0.1,0.6,0L30.4,92.6z"/>
	<path class="st1" d="M34,122.5c0.2,0.1,0.2,0.2,0.3,0.4c0.2,0.2,0.3,0.3,0.6,0.4c0.5,0.1,1,0.2,1.5,0.2c0.5,0,0.9,0.2,1.5,0.1
		c-0.2,0.5-0.6,1.1-0.9,1.5l0,0c-0.1-0.6-0.5-0.7-0.9-0.7c-0.3,0-0.6-0.1-0.9-0.3c-0.5-0.2-0.9-0.5-1.1-1.1
		C34,122.8,34,122.7,34,122.5z"/>
	<path class="st1" d="M9.1,99c0.6,0.3,1.1,0.4,1.7,0.4c0.4,0,0.7-0.1,1.1-0.3c0.4-0.2,0.7-0.4,1-0.7c0.2-0.2,0.5-0.3,0.8-0.4
		c0.2-0.1,0.4,0,0.4,0.4c0,0.3,0.1,0.4,0.1,0.7c-0.4-0.4-0.8-0.3-1.2,0l-0.8,0.5c-0.7,0.4-1.6,0.5-2.3,0.2C9.4,99.6,9.1,99.3,9.1,99
		z"/>
	<path class="st1" d="M16.6,92.3c-0.2,0.2-0.5,0.3-0.6,0.4c-0.1,0.1-0.2,0-0.2-0.1c0,0,0,0,0-0.1c-0.2-0.4-0.4-0.6-0.5-1
		c-0.1-0.2-0.2-0.3-0.2-0.4c-0.2-0.4-0.5-1-0.7-1.4c-0.2-0.4-0.4-0.9-0.7-1.3c0.1-0.1,0.1-0.1,0.2,0c0.5,0.3,0.9,0.6,1.1,1.1
		c0.4,0.6,0.6,1.3,1,2C16.1,91.8,16.3,92.1,16.6,92.3z"/>
	<path class="st1" d="M36.6,129.1c0.2,0,0.6,0,0.8,0.1c0.6,0.2,1.1-0.1,1.4-0.6c0.2-0.4,0.4-0.7,0.7-1l0.2-0.2
		c0.2-0.2,0.2-0.1,0.3,0.2c0.1,0.3,0.2,0.6,0.3,0.9c-0.2,0-0.3,0-0.6,0c-0.2,0.1-0.4,0.3-0.6,0.5c-0.2,0.4-0.6,0.6-0.9,0.8
		C37.6,130,36.9,129.8,36.6,129.1z"/>
	<path class="st1" d="M67.2,91.4c-0.1,0.2-0.3,0.2-0.5,0.4c-0.2,0.2-0.2,0-0.2-0.1c-0.2-0.2-0.2-0.4-0.2-0.5
		c-0.1-0.3-0.1-0.5-0.1-0.8c0-0.4-0.1-0.6-0.2-1c0-0.1,0-0.3-0.2-0.4c-0.1-0.1-0.1-0.2-0.1-0.3c0-0.3-0.1-0.4-0.2-0.6
		c-0.1-0.1-0.2-0.3-0.3-0.4c0.3,0,0.6,0.2,0.9,0.4c0.3,0.4,0.5,0.9,0.6,1.3c0,0.4,0.1,0.6,0.2,1c0,0.3,0.1,0.5,0.3,0.7
		C67.2,91.3,67.2,91.3,67.2,91.4z"/>
	<path class="st1" d="M41.8,60.1l-0.4,1.1c-0.1,0.2-0.2,0.2-0.2,0.1c-0.1,0-0.1-0.1-0.2-0.2c-0.2-0.4-0.4-0.5-0.5-0.9
		c-0.1-0.7-0.7-1.2-1.3-1.2c0.6-0.2,1.2,0,1.7,0.4l0.3,0.4C41.3,60,41.5,60.1,41.8,60.1z"/>
	<path class="st1" d="M38.3,61.9c0.2,0.3,0.3,0.5,0.4,0.9c0.1,0.3,0,0.4-0.2,0.4c-0.2,0-0.3,0-0.4-0.1c-0.5-0.3-0.9-0.4-1.5-0.7
		c-0.2-0.1-0.3,0-0.5-0.2c0.2-0.1,0.4-0.1,0.6-0.1l0.9,0.2C37.8,62.5,38.1,62.3,38.3,61.9C38.2,62,38.2,61.9,38.3,61.9z"/>
	<path class="st1" d="M35.4,65c0.2,0,0.2,0.1,0.3,0.2l2.4,1.3l0.4,0.2c0.2,0.1,0.2,0.2,0.2,0.4c0,0.1-0.1,0.2-0.2,0.3
		c-0.2-0.3-0.6-0.5-0.9-0.7l-1-0.6c-0.4-0.2-0.7-0.4-1-0.7C35.4,65.3,35.4,65.1,35.4,65z"/>
	<path class="st1" d="M9.4,94.7c0.4,0.2,0.9,0.3,1.3,0.4c0.2,0.1,0.4,0.3,0.5,0.5c0,0.1-0.1,0.2-0.2,0.2l-0.9,0.4
		c0.1-0.4-0.1-0.6-0.3-0.8C9.5,95,9.4,94.9,9.4,94.7z"/>
	<path class="st1" d="M39.4,119.8c-0.2,0.8-0.1,0.7-0.7,0.7c-1.3-0.1-2.6-0.2-3.9-0.2c0.2-0.2,0.6-0.1,0.8-0.1
		c0.6-0.1,1.3-0.1,1.9,0c0.4,0,0.7,0,1.1,0C38.8,120,39.2,120,39.4,119.8z"/>
	<path class="st1" d="M12.3,91.6c0.1,0.2,0.2,0.4,0.2,0.5c0.1,0.1,0.2,0.3,0,0.4c-0.1,0.1-0.3,0.3-0.5,0.2l-0.5-0.2
		c-0.2-0.1-0.6-0.2-0.8-0.4c0.2-0.1,0.4-0.1,0.6,0c0.2,0.1,0.6,0,0.7-0.3C12.2,91.9,12.1,91.7,12.3,91.6z"/>
	<path class="st0" d="M24.4,104c0.2-0.4,0.3-0.7,0.5-1.1l0,0C24.9,103.3,24.7,103.7,24.4,104L24.4,104z"/>
	<path class="st1" d="M73.2,57.6c-0.4,0-0.9,0-1.3,0C72.3,57.6,72.7,57.6,73.2,57.6z"/>
	<path class="st0" d="M25,102.6c0.1-0.3,0.2-0.5,0.3-0.7l0,0C25.4,102.2,25.3,102.5,25,102.6L25,102.6z"/>
	<path class="st1" d="M20,91c-0.1,0.1-0.2,0.1-0.3,0.1C19.6,91.1,20,90.8,20,91z"/>
	<path class="st1" d="M74.7,57.8c-0.1,0-0.2,0-0.2-0.1C74.4,57.6,74.7,57.6,74.7,57.8z"/>
	<path class="st1" d="M37.7,110.6c0.1,0,0.2,0.1,0.2,0.3C37.7,110.8,37.7,110.7,37.7,110.6z"/>
	<path class="st1" d="M45.3,64.7c-0.1,0-0.2,0-0.2-0.1C45,64.6,45.2,64.6,45.3,64.7z"/>
	<path class="st1" d="M43.7,58.9c-0.1,0-0.2,0.1-0.3-0.1C43.5,58.8,43.6,58.8,43.7,58.9z"/>
	<path class="st1" d="M14.7,101.5c0.1,0,0.2,0.1,0.2,0.2C14.8,101.6,14.7,101.6,14.7,101.5z"/>
	<path class="st1" d="M61.9,93.8c-0.1,0.1-0.2,0.1-0.2,0.1C61.7,93.8,61.8,93.8,61.9,93.8z"/>
	<path class="st1" d="M74.1,57.7c-0.1,0-0.2,0-0.2-0.1C74,57.6,74.1,57.6,74.1,57.7z"/>
	<path class="st1" d="M19.5,91.1c0,0.1-0.1,0.1-0.2,0.1C19.4,91.1,19.4,91,19.5,91.1z"/>
	<path class="st0" d="M24.9,102.8c0-0.1,0-0.1,0.1-0.2l0,0C25.1,102.7,25,102.8,24.9,102.8L24.9,102.8z"/>
	<path class="st0" d="M24.9,103c0-0.1,0-0.1,0.1-0.2l0,0C25,102.9,25,102.9,24.9,103L24.9,103z"/>
	<path class="st0" d="M25.4,102L25.4,102L25.4,102C25.5,101.9,25.4,102,25.4,102z"/>
	<path class="st1" d="M45.8,64.8C45.7,64.8,45.7,64.8,45.8,64.8L45.8,64.8z"/>
	<path class="st1" d="M35.3,64.9C35.3,64.9,35.4,64.9,35.3,64.9C35.4,64.9,35.4,64.9,35.3,64.9L35.3,64.9z"/>
	<path class="st1" d="M10.6,92.1C10.6,92.1,10.6,92.1,10.6,92.1L10.6,92.1z"/>
	<path class="st1" d="M16.8,92.2C16.8,92.3,16.7,92.3,16.8,92.2L16.8,92.2z"/>
	<path class="st2" d="M42.9,114.9c0,0.4,0,1,0,1.4c0,0.7-0.2,1.4-0.4,2c-0.3,0.8-0.6,1.6-0.9,2.4l-0.2,0.6c-0.1,0.2-0.1,0.4,0.1,0.4
		l0,0l0.2,0.2l2.3,1.3l1,0.6c0.3,0.2,0.6,0.5,0.6,1c0,0.2-0.1,0.3-0.2,0.4c-0.3,0.2-0.6,0.2-1,0.1c-0.6-0.3-1.3-0.6-1.9-1l-1.1-0.6
		c-0.1-0.1-0.2-0.1-0.3-0.1c-0.2,0-0.3,0.1-0.3,0.2s0,0.2,0,0.3c0.1,0.4,0.2,0.7,0.4,1.1c0.2,0.4,0.4,1.1,0.6,1.6
		c0.1,0.3,0.2,0.6,0.2,1c0.1,0.3-0.2,0.8-0.3,0.9c-0.4,0.2-0.8,0-1-0.4c-0.1-0.3-0.2-0.5-0.2-0.8c-0.1-0.7-0.2-1.4-0.3-2.1
		c-0.1-0.7-0.1-0.9-0.2-1.3s-0.1-0.3-0.2-0.4c-0.2,0-0.2,0.1-0.3,0.3l-0.4,1.6c-0.2,1-0.6,1.8-0.9,2.6c-0.1,0.2-0.2,0.4-0.4,0.6
		c-0.1,0.1-0.2,0.2-0.2,0.1l-0.5-0.1c-0.3-0.1-0.4-0.4-0.5-0.6c0-0.4,0-0.6,0-1c0-0.1,0.1-0.3,0.1-0.4l1.3-2.1
		c0.2-0.4,0.5-0.9,0.7-1.3c0.2-0.4,0.1-0.5-0.2-0.5h-0.7c-0.6,0-1.3-0.1-1.9-0.2l-0.6-0.1c-0.3,0-0.6-0.2-0.7-0.5
		c-0.1-0.4-0.1-0.7,0.2-1c0.2-0.2,0.4-0.4,0.6-0.4c0.7,0.1,1.4,0.1,2.1,0.1l1,0.1c0.3,0,0.6,0.1,0.9,0.1c0.2,0,0.3-0.1,0.4-0.4
		c0.2-0.5,0.3-1.1,0.4-1.6c0.1-0.6,0.2-1.1,0.1-1.8c-0.1-0.6-0.2-1.1-0.2-1.8c-0.2-1.1-0.5-2.2-0.8-3.2c-0.2-0.7-0.6-1.4-0.8-2.1
		c-0.2-0.5-0.6-1.1-0.9-1.5c-0.1-0.2-0.2-0.3-0.3-0.4s-0.3-0.3-0.6-0.2l-0.1,0.1l-0.8,0.6c-0.9,0.6-1.7,1.2-2.6,1.9
		c-0.9,0.7-1.5,1.1-2.2,1.8s-1.1,1-1.7,1.5l-1.5,1.4l-1.3,1.2l-1.3,1.2l-0.6,0.6c-0.5,0.4-0.9,0.9-1.3,1.3c-0.4,0.4-1.4,1.3-2.1,2
		l-0.9,0.9c-0.6,0.5-1,1.1-1.7,1.6l-0.8,0.7c-0.6,0.5-1.1,1.1-1.7,1.7l-2.1,2.1l-1.4,1.4l-2.2,2.2l-1.5,1.5L6.6,136l-1.5,1.5
		L3.5,139l-0.9,1c-0.1-0.2,0-0.3,0.1-0.4l2.3-3.2l1.7-2.4l2.1-3.2l2.1-3.1l2.1-3.2l1.8-2.7c0.4-0.5,0.7-1.1,1.1-1.7l0.9-1.5
		c0.9-1.6,1.9-3.1,2.8-4.6c0.2-0.3,0.4-0.6,0.6-0.9c0.3-0.5,0.7-1,1.1-1.3l0.1-0.1c0.6-0.8,1.3-1.4,2-2.1L26,107l1.1-1.1l2.6-2.7
		l1.2-1.3c0.8-0.8,1.6-1.7,2.4-2.5c0.4-0.5,0.8-1.1,1.2-1.7c0.6-0.9,1.2-1.8,1.8-2.7l1.2-1.8l0.9-1.2l0.9-1.2v-0.1
		c0.1-0.1,0.2-0.2,0.2-0.3c0.2-0.4,0.4-0.6,0.6-0.9l0.1-0.1c0.6-0.8,1.1-1.5,1.7-2.1l1-1.1l1.4-1.4l1.5-1.4l1.2-1.1
		c0.6-0.4,0.9-0.9,1.5-1.3l1.1-1c0.5-0.4,0.9-0.8,1.4-1.2l1.9-1.8l1-1l1.5-1.3l1-1l1.6-1.5l1-1l1.7-1.6l1.6-1.4L64,67l1.2-1l0.2-0.2
		l1.5-1.6L69,62l2.6-2.7l0.8-0.9c0.1-0.1,0.2-0.2,0.4-0.2c1-0.1,2.1,0.2,3.1,0.5c0.3,0.1,0.6,0.3,0.9,0.5c0.4,0.4,0.6,0.8,0.6,1.4
		c0,0.4,0.1,0.9,0.1,1.3s-0.1,1.3-0.1,2c-0.1,1.4-0.3,2.9-0.6,4.3c-0.4,1.8-1.1,3.5-2.1,5.1c-0.6,1-1.3,1.8-2.1,2.4
		c-0.9,0.6-1.8,1.2-2.8,1.6l-1.9,0.8c-0.9,0.4-1.8,0.6-2.8,0.8l-2.1,0.5c-1.3,0.3-2.5,0.7-3.7,1.1c-1.3,0.4-2.4,1.1-3.6,1.8
		l-0.4,0.2c-0.2,0.1-0.2,0.3-0.3,0.4c-0.5,1.6-0.9,3-1.5,4.5c-0.3,0.9-0.7,1.8-1.1,2.5c-0.1,0.2-0.2,0.4,0,0.6c0.2,0.2,0,0.2,0,0.4
		c-0.1,0.3-0.2,0.6-0.3,0.9c-0.2,0.4-0.1,0.5,0.2,0.6l2.1,0.5l1.7,0.4h0.1c0.7,0,1.3,0.4,1.9,0.5c0.6,0.2,1.2,0.3,1.7,0.4
		c0.3,0.1,0.7,0.1,1,0.2c0.8,0,1.6-0.1,2.3-0.4l0.4-0.1c0.2,0,0.2-0.1,0.2-0.3c0,0,0,0,0-0.1s0-0.2,0-0.3c0-0.8,0-1.6,0-2.4
		c0-0.3,0-0.4-0.1-0.7c0-0.1,0-0.1,0-0.2c0.1-0.4,0.1-0.9,0.1-1.3c0-0.3,0.4-0.6,0.7-0.6c0.5-0.1,0.9,0.3,0.9,0.8
		c0.1,1.1,0.2,2.2,0.1,3.3c0,0.1,0,0.2-0.1,0.3c-0.1,0.2,0,0.4,0.2,0.4c0.2,0.1,0.3,0.1,0.4,0l1.3-0.9l1.8-1.2l0.1-0.1
		c0.5,0,0.9-0.1,1.3,0.2l0.1,0.1c0.2,0.3,0,0.5,0.2,0.8c0.1,0.3-0.1,0.2-0.2,0.3c-0.2,0.3-0.6,0.5-0.9,0.6c-0.9,0.4-1.8,0.7-2.7,0.9
		l-0.6,0.2C66.1,93.9,66,94,66,94.1s0.1,0.3,0.3,0.4l1.9,0.4l1.3,0.3c0.2,0,0.4,0.1,0.6,0.3c0.3,0.3,0.4,0.8,0.2,1.1l0,0
		c-0.2,0.2-0.6,0.3-0.9,0.3c-0.6-0.2-1.3-0.5-1.9-0.8l-0.9-0.4c-0.1-0.1-0.2-0.1-0.4-0.1c-0.2,0-0.3,0.2-0.2,0.4s0.2,0.7,0.4,1
		c0.3,0.8,0.6,1.6,0.9,2.4c0.1,0.2,0.1,0.3,0.1,0.4c0,0.3,0,0.5-0.1,0.8c-0.1,0.4-0.2,0.4-0.6,0.4c-0.2-0.1-0.5-0.3-0.6-0.5
		l-1.7-4.2c-0.2-0.4-0.2-0.4-0.6-0.3l-1,0.4L61,97.1c-0.4,0.2-0.8,0.3-1.3,0.3h-0.9c-0.4,0-0.8,0-1.2-0.1c-1.4-0.3-2.9-0.5-4.3-1.1
		c-0.6-0.2-1.1-0.4-1.7-0.7l-1.7-0.8c-0.2-0.1-0.4-0.1-0.5,0.1c-0.3,0.4-0.6,0.8-0.9,1.2l-0.9,1.2l-1.7,2l-0.1,0.1
		c-0.9,1.1-1.8,2.2-2.8,3.2c-1,1-1.4,1.5-2.1,2.1c-0.2,0.2-0.2,0.3-0.2,0.5c0.1,0.2,0,0.4-0.1,0.4c-0.1,0.1-0.1,0.2-0.1,0.4l1.4,5.4
		c0.2,0.7,0.3,1.4,0.6,2.1c0.1,0.2,0,0.4,0.2,0.5C42.9,114.4,43,114.6,42.9,114.9z M70.7,70.4c-0.2-0.2-0.4-0.2-0.6-0.2
		c-0.6,0.1-1,0.8-0.9,1.5c0,0.1,0,0.1,0.1,0.2c0.2,0.6,0.7,0.9,1.3,0.7c0.2-0.1,0.4-0.2,0.5-0.4c0.2-0.3,0.3-0.7,0.2-1.1
		c-0.2,0.5-0.4,0.7-0.8,0.7c-0.3-0.1-0.6-0.4-0.6-0.8c0-0.1,0.1-0.3,0.2-0.4C70.2,70.4,70.4,70.4,70.7,70.4z"/>
	<path class="st3" d="M47.1,82.3L46,83.5l-1.5,1.4L43,86.3l-0.9,1.1c-0.6,0.6-1.2,1.4-1.7,2.1l-0.1,0.1c-0.2,0.3-0.5,0.5-0.6,0.9
		c-0.1,0.1-0.2,0.2-0.2,0.3c-0.2,0.1-0.4,0.4-0.6,0.4l-0.1,0.1c-0.7,0.8-1.4,1.5-2.1,2.3s-0.9,1-1.3,1.4c-0.5,0.4-0.8,0.9-1.3,1.3
		c-0.5,0.4-0.8,0.9-1.2,1.2c-0.4,0.4-0.9,1-1.3,1.4c-0.5,0.4-0.8,0.9-1.3,1.3c-0.5,0.4-0.8,0.9-1.2,1.2c-0.4,0.4-0.8,0.9-1.3,1.3
		c-0.4,0.4-0.9,1-1.3,1.3c-0.4,0.4-0.8,0.9-1.3,1.3c-0.5,0.4-0.8,0.8-1.2,1.2l-0.1,0.1c-0.2,0.2-0.4,0.4-0.5,0.6
		c0,0.1-0.1,0.1-0.1,0.2c0,0.1-0.1,0.1-0.2,0.1l0,0c-0.1-0.1-0.1-0.1,0-0.2l0.4-1l0.9-2.1v-0.1c0.2-0.4,0.4-0.7,0.5-1.1
		c0.1,0,0.1-0.1,0.1-0.2c0.1,0,0.1-0.1,0.1-0.2c0.2-0.2,0.3-0.4,0.3-0.7l0.1-0.1c0.2-0.2,0.3-0.4,0.4-0.7c0.5-1,1-1.8,1.5-2.7
		c0.1-0.1,0.1-0.3,0.2-0.4c0.2-0.1,0.2-0.2,0.2-0.4c0.7-1.3,1.5-2.5,2.2-3.9c0.1-0.1,0.1-0.1,0.1-0.2c0.2-0.3,0.4-0.5,0.6-0.8
		c0.2-0.3,0.4-0.6,0.6-0.9l1.7-2.1l0.1-0.1c1.4-1.7,2.8-3.2,4.3-4.7c0.9-1,1.9-1.8,3-2.5l0.1-0.1c0.6-0.3,1.1-0.5,1.7-0.9
		c0.6-0.4,1.2-0.8,1.7-1.2c0.2-0.1,0.5-0.3,0.6-0.5c0.2-0.1,0.5-0.3,0.7-0.4c0.8-0.5,1.6-0.9,2.4-1.3s2.1-1.3,3.1-1.9l1.8-1.3
		c0.2-0.2,0.3-0.4,0.5-0.5l2.8-4.7c0.2-0.4,0.6-0.8,0.7-1.2c0.1,0,0.1-0.1,0.1-0.2l0,0l0.1-0.1l0,0c0.1,0,0.1-0.1,0.1-0.2l0,0
		c0.2,0,0.2-0.2,0.2-0.3l0,0c0.1-0.1,0.2-0.2,0.2-0.3l1-1.8c0.2-0.2,0.3-0.4,0.4-0.7l0,0c0.1,0,0.1-0.1,0.1-0.2l0,0
		c0.1,0,0.2-0.1,0.2-0.2c0.6-0.7,1.3-1.4,1.9-2.1l1.3-1.2c0.9-0.9,2-1.5,3.1-1.9c0.4-0.2,0.8-0.4,1.2-0.6c0.3-0.2,0.6-0.3,1-0.4
		l1.5-0.3l0.5,0.2c0.2,0,0.4,0,0.6,0c-0.1,0.2-0.2,0.3-0.2,0.4c-0.4,0.3-0.6,0.7-1,1.1c-0.3,0.4-0.6,0.7-0.9,1.1
		c-0.2,0.2-0.4,0.3-0.6,0.1l0,0c0-0.4-0.3-0.7-0.6-1c-0.2-0.2-0.4-0.3-0.6-0.3c-0.2-0.2-0.2-0.2-0.4,0h-0.2c-0.1-0.1-0.2,0-0.2,0.1
		h-0.1c-0.1,0-0.2,0.1-0.2,0.2c-0.1,0.1-0.2,0.2-0.2,0.3c-0.1,0-0.2,0.1-0.2,0.2v0.1c-0.1,0-0.2,0.1-0.2,0.2l0,0
		c-0.1,0-0.1,0.1,0,0.1c0,0,0,0,0,0.1c-0.1,0-0.1,0-0.1,0.1s0,0.1,0.1,0.1l0,0v0.4c-0.1,0.2,0,0.4,0.2,0.5l0,0
		c0,0.3,0.2,0.5,0.5,0.6h0.1c0.2,0.3,0.2,0.4,0,0.5c-0.6,0.5-1.1,1.3-1.7,1.8l-0.1,0.1c-0.6,0.7-1.2,1.2-1.7,1.8
		c-0.6,0.6-1.1,1.1-1.7,1.8l-1.2,1.1c-0.9,0.9-1.7,1.8-2.5,2.6l-1.2,1.2c-0.9,0.9-1.7,1.8-2.5,2.6l-1.2,1.2l-2.6,2.8l-1.2,1.2
		c-0.1,0.2-0.2,0.3-0.4,0.4C47.2,82,47.1,82.1,47.1,82.3L47.1,82.3z"/>
	<path class="st2" d="M30.1,93.8c0,0.1,0,0.2-0.1,0.2c-0.8,1.3-1.5,2.5-2.2,3.9c-0.1,0.1-0.1,0.3-0.2,0.4l-0.9-0.9
		c-0.2-0.2-0.4-0.3-0.6-0.4c-1.3-0.8-2.8-1.4-4.3-1.8c-0.6-0.2-1.2-0.3-1.7-0.4c-0.4-0.1-0.8-0.1-1.3-0.2c-0.6,0-1.3,0.1-1.8,0.4
		l-0.7,0.4c-0.2,0-0.2,0.2-0.2,0.4l0,0c0,0.5-0.1,1.1,0.1,1.5v0.1c0,1.1,0.1,2.1,0.1,3.1c0,0.5-0.7,1.1-1.1,0.8
		c-0.3-0.2-0.5-0.5-0.6-1c-0.1-1.1-0.2-2.3-0.2-3.3c0-0.1,0-0.1,0-0.2c0-0.3-0.2-0.4-0.5-0.3l-1.7,1.2l-1.5,1.1l-0.1,0.1
		c-0.4,0.1-0.8,0-1.2-0.1c-0.2-0.1-0.3-0.3-0.3-0.4c-0.1-0.7-0.1-0.8,0.5-1.1c0.4-0.3,0.8-0.4,1.2-0.6c0.9-0.4,1.7-0.6,2.6-0.9
		c0.1,0,0.2,0,0.2-0.1c0.2-0.2,0.1-0.4-0.2-0.5l-0.9-0.2l-2.4-0.4l-0.6-0.2c-0.4-0.2-0.6-0.6-0.5-1c0-0.1,0.1-0.2,0.1-0.2
		c0.2-0.3,0.5-0.4,0.7-0.3c0.6,0.2,1.3,0.4,1.8,0.7l1.3,0.6c0.2,0.1,0.3,0.1,0.4-0.1c0.1-0.2,0.1-0.3,0-0.4l-0.9-2.1
		c-0.2-0.4-0.4-0.9-0.5-1.4c-0.1-0.4,0-0.7,0.1-1c0.1-0.2,0.2-0.3,0.4-0.3h0.1c0.3,0.1,0.6,0.4,0.8,0.7c0.6,1.2,1.2,2.5,1.7,3.7
		c0.2,0.4,0.2,0.4,0.6,0.3c0.4-0.2,0.2,0,0.2-0.1c0-0.1,0.8-0.4,1.2-0.5c0.4-0.2,0.2-0.1,0.2-0.1c0.2,0.1,0.5,0.1,0.8,0.1
		c0.2,0,0.5,0,0.7,0c0.2,0.1,0.6,0.1,0.8,0c0.5-0.2,0.9-0.3,1.5-0.3s1.2,0.1,1.7,0.2c0.9,0.1,1.7,0.3,2.5,0.4
		c0.2,0.1,0.3,0.1,0.5,0.1c0.4-0.1,0.8-0.1,1.2,0c0.2,0.1,0.4,0.1,0.6,0c0.2-0.1,0.3,0,0.5,0c0.6,0.2,1,0.4,1.6,0.6
		C29.8,93.8,29.9,93.8,30.1,93.8z"/>
	<path class="st2" d="M44.3,80c-0.2,0.2-0.4,0.4-0.6,0.5c-0.6,0.4-1.1,0.9-1.7,1.2c-0.6,0.4-1.1,0.6-1.7,0.9
		c-0.2-0.1-0.2-0.2-0.2-0.4c-0.4-1.1-0.7-2.1-1.1-3.1c-0.2-0.4-0.2-1-0.3-1.4c-0.2-1.1-0.5-2.3-0.6-3.5c-0.1-0.4-0.1-0.8-0.1-1.1
		c0-0.3-0.1-0.5-0.1-0.8c0-0.6,0.1-1.1,0.2-1.8c0.1-0.4,0.2-0.6,0.3-0.9c0.3-1,0.7-1.8,1-2.8c0.2-0.4,0.1-0.5-0.2-0.7
		c-1.2-0.6-2.2-1.2-3.4-1.8c-0.3-0.2-0.6-0.5-0.6-1c0-0.2,0.1-0.3,0.2-0.4c0.2-0.2,0.6-0.3,0.9-0.2c0.6,0.2,1,0.4,1.6,0.6l1.7,0.9
		c0.1,0.1,0.2,0.2,0.3,0.1c0.1-0.2,0.2-0.4,0-0.5c-0.3-0.9-0.7-1.7-1-2.5c0-0.3-0.1-0.4-0.1-0.6c-0.1-0.4,0-0.6,0.2-1
		c0.1-0.2,0.5-0.3,0.7-0.2c0.2,0.1,0.5,0.4,0.6,0.8c0.1,0.4,0.2,1,0.2,1.5c0.1,0.5,0.2,1,0.2,1.4c0.1,0.4,0.1,0.5,0.2,0.8
		c0,0.4,0,0.4,0.2,0.4c0.2,0,0.2-0.1,0.3-0.4s0.2-1.1,0.3-1.6c0.2-1,0.5-1.8,0.9-2.6l0.1-0.2c0.2-0.4,0.8-0.6,1.2-0.4
		c0.1,0.1,0.2,0.2,0.2,0.4c0.2,0.5,0.2,1.1-0.2,1.7c-0.6,1.1-1.2,2.1-1.7,3.2c0,0.2-0.1,0.3,0,0.4c0.1,0.2,0.2,0.3,0.4,0.2
		c0.3,0,0.6,0,0.9-0.1c0.2,0,0.2,0,0.4,0c0.3,0.1,0.7,0.1,1,0.1c0.4,0,0.8,0.1,1.2,0.2c0.6,0.2,0.6,0.8,0.5,1.2
		c-0.2,0.4-0.5,0.5-0.8,0.5c-0.7,0-1.4,0-2.1,0c-0.7,0-1.1-0.1-1.7-0.1c-0.6,0-0.6,0.1-0.6,0.7c-0.2,0-0.3,0-0.5-0.1
		C40.1,67.4,40,67.5,40,68v0.1c0,0-0.1,0.2-0.1,0.3v0.5l-0.1,0.1c0,0-0.1,0.8-0.1,1.2c0,0.9,0,1.8,0.1,2.6c0.1,0.4,0,1,0.1,1.4
		c0.1,0.4,0.2,1.2,0.2,1.8c0.2,1.1,0.6,2.2,0.9,3.2c0.2,0.5,0.5,1.1,0.7,1.7c0.2,0.4,0.4,0.4,0.6,0c0.2-0.4,0.3-0.1,0.4-0.2
		c0.4-0.3,0.8-0.5,1.2-0.8L44.3,80z"/>
	<path class="st3" d="M29.6,93.7c-0.6-0.2-1-0.4-1.6-0.6c-0.2-0.1-0.3-0.1-0.5,0c-0.2,0.1-0.4,0.1-0.6,0c-0.4-0.1-0.8-0.1-1.2,0
		c-0.2,0-0.3,0-0.5-0.1c-0.8-0.2-1.7-0.4-2.5-0.4c-0.6-0.1-1.2-0.2-1.7-0.2c-0.5,0-1,0.1-1.5,0.3c-0.2,0.1-0.5,0.1-0.8,0
		c-0.2,0-0.5-0.1-0.7,0c-0.2,0-0.5,0-0.8-0.1c-0.1,0-0.2,0-0.2,0.1s-0.8,0.4-1.2,0.5c-0.1-0.1-0.1-0.3,0.1-0.4H16
		c0.8-0.4,1.6-0.9,2.4-1.2c0.6-0.3,1.1-0.4,1.7-0.4c0.2,0,0.5-0.1,0.7-0.1c0.6,0,1.3,0.1,1.9,0.2l1.7,0.3l1.2,0.3
		c0.2,0.1,0.6,0.1,0.8,0.2c0.2,0.1,0.9,0.4,1.4,0.5l0.9,0.4l0.9,0.3c0.2,0.1,0.2,0.1,0.1,0.3C29.8,93.5,29.7,93.6,29.6,93.7z"/>
	<path class="st3" d="M40,68.8v-0.5c0.2,0,0.2-0.1,0.1-0.3c-0.1-0.1,0-0.1,0-0.1c0-0.5,0-0.5,0.5-0.3c0.2,0.1,0.3,0.2,0.5,0.1
		c0.2,0.1,0.2,0.2,0.2,0.4l0,0c-0.1,0.7-0.2,1.5-0.2,2.2c0,0.9,0.1,1.8,0.3,2.7c0.2,0.9,0.4,1.8,0.7,2.6c0.3,1,0.7,1.9,1.3,2.8
		c0.2,0.4,0.5,0.6,0.7,1c0.1,0.1,0.2,0.2,0.1,0.4c-0.4,0.3-0.8,0.5-1.2,0.8c-0.2,0.1-0.2,0.3-0.4,0.2c-0.2,0-0.2-0.2-0.2-0.4
		l-0.6-2.6l-0.5-2.2c-0.3-1.6-0.6-3.2-0.9-4.8c-0.2-0.5-0.2-1.1-0.2-1.7C40,69,40.1,68.8,40,68.8z"/>
	<path class="st3" d="M42.9,114.9c0-0.2,0-0.4-0.1-0.6c0-0.4,0-0.7-0.1-1.1c-0.2-1.3-0.4-2.6-0.7-3.9c-0.2-0.7-0.4-1.4-0.6-2
		l-0.4-1.5c0-0.1-0.1-0.2,0-0.3c0-0.1,0.1-0.2,0.2-0.2c0.1,0,0.1,0.1,0.2,0.2c0.2,0.5,0.4,1.1,0.6,1.6s0.3,1.1,0.5,1.6
		c0.3,1.1,0.6,2.1,0.7,3.2c0.2,0.9,0.2,1.8,0.2,2.8c0,0.1,0,0.2,0,0.3l-0.1,0.1C43.1,115.1,43.2,114.8,42.9,114.9z"/>
	<path class="st2" d="M64.9,60.4c0.1-0.1,0.2-0.2,0.2-0.3c0.1,0,0.2-0.1,0.2-0.2h0.1c0.1,0,0.2,0,0.2-0.1h0.2c0.2,0,0.2,0,0.4,0
		c0.2,0,0.4,0.1,0.6,0.3c0.2,0.4,0.5,0.6,0.5,1.1c0,0.3-0.1,0.4-0.1,0.7c-0.2,0.7-0.8,1.1-1.5,1h-0.3c-0.1-0.3-0.2-0.4-0.5-0.6l0,0
		c0-0.2-0.1-0.4-0.2-0.5v-0.5c0.1-0.1,0.1-0.1,0-0.2c0,0,0,0,0-0.1v-0.1l0,0c0.2,0,0.2,0,0.2-0.2v-0.1
		C64.8,60.5,64.9,60.4,64.9,60.4z M66.8,61.2c-0.1,0-0.2,0.2-0.2,0.2c-0.2,0.3-0.6,0.4-0.9,0.1c-0.2-0.2-0.3-0.5-0.2-0.9
		c0.1-0.1,0.1-0.2,0.2-0.2c0.2-0.1,0.3-0.2,0.6-0.2c-0.4-0.3-0.9-0.2-1.2,0.3c-0.3,0.4-0.3,0.9-0.1,1.3c0.2,0.4,0.7,0.6,1.1,0.4
		C66.6,62.2,66.9,61.8,66.8,61.2L66.8,61.2z"/>
	<path class="st2" d="M66,59.2c-0.4,0.3-0.7,0.4-1.2,0.6c-1.1,0.4-2.2,1.1-3.1,1.9L60.5,63c-0.7,0.6-1.3,1.4-1.9,2.1
		c-0.1,0.1-0.2,0.2-0.2,0.2c0-0.1,0-0.1,0.1-0.2l0.6-0.8l2.5-2.8c0.2-0.2,0.3-0.3,0.5-0.4c0.9-0.5,1.9-1.1,2.9-1.5
		C65.2,59.5,65.6,59.3,66,59.2z"/>
	<path class="st3" d="M55.7,92.8c-0.1,0.1-0.2,0-0.2,0l-1.1-0.5c-0.1-0.1-0.2-0.1-0.3-0.1c-0.5-0.1-1-0.2-1.5-0.4
		c-0.3-0.1-0.4-0.2-0.2-0.5l0.2-0.6c0.1-0.2,0.2-0.3,0.3-0.1l0.2,0.3c0.6,0.6,1.2,1.1,1.9,1.4c0.2,0.1,0.4,0.2,0.6,0.4
		C55.7,92.7,55.7,92.8,55.7,92.8z"/>
	<path class="st2" d="M39.7,125.4c0.1,0.2,0.1,0.4,0.1,0.5c0.1,0.3,0.1,0.4,0.1,0.7c0,0.1,0,0.2-0.1,0.3c-0.2,0.1-0.4,0.3-0.6,0.4
		l-0.1,0.1c-0.1,0-0.1-0.1-0.1-0.1l0,0L39.7,125.4L39.7,125.4z"/>
	<path class="st2" d="M42.2,125.9C42.1,125.9,42.1,125.8,42.2,125.9l-0.5-1.2c0,0,0-0.1,0-0.2c0,0,0.1-0.1,0.1,0l0,0
		c0.2,0.2,0.6,0.4,0.9,0.5c0.3,0.2,0.1,0.2,0,0.3c-0.2,0.1-0.2,0.3-0.3,0.4C42.3,125.8,42.2,125.9,42.2,125.9z"/>
	<path class="st2" d="M69.2,93.7c0,0.2,0,0.4-0.1,0.6c0,0.2-0.2,0.1-0.2,0.1l-1.2-0.3v-0.1L69.2,93.7z"/>
	<path class="st2" d="M66.9,96.2l0.7,0.4c0.2,0.2,0.2,0.2,0.1,0.4l-0.2,0.3c-0.1,0.1-0.2,0.1-0.2,0C67.2,97.1,67,96.6,66.9,96.2
		L66.9,96.2z"/>
	<path class="st2" d="M16.8,96.9c-0.2-0.1-0.2-0.3-0.2-0.4c0-0.8,0-0.8,0.7-1h0.1c0.1,0,0.1,0,0.1,0.1v0.1l-0.2,0.3
		C17,96.1,16.9,96.4,16.8,96.9z"/>
	<path class="st2" d="M58.4,65.3c-0.1,0.3-0.2,0.5-0.4,0.7l-1,1.8c-0.1,0.1-0.2,0.2-0.2,0.3c0-0.4,0.2-0.6,0.4-0.9
		c0.3-0.6,0.7-1.1,1.1-1.7C58.2,65.3,58.3,65.3,58.4,65.3z"/>
	<path class="st2" d="M41.3,68.9c0-0.4,0.1-0.7,0.2-1c0.1-0.3,0.1-0.4,0.4-0.4c0.1,0,0.2,0,0.3,0c0,0.4-0.3,0.4-0.5,0.6
		C41.5,68.5,41.4,68.8,41.3,68.9z"/>
	<path class="st2" d="M56.7,68c0,0.2-0.1,0.3-0.2,0.3C56.3,68.2,56.5,68,56.7,68z"/>
	<path class="st2" d="M58.4,65.2c0,0.1,0,0.1-0.1,0.2C58.3,65.3,58.4,65.3,58.4,65.2z"/>
	<path class="st2" d="M56.3,68.5c0,0.1,0,0.1-0.1,0.2C56.2,68.6,56.3,68.5,56.3,68.5z"/>
	<path class="st2" d="M56.5,68.2c0,0.1,0,0.1-0.1,0.2C56.4,68.3,56.5,68.3,56.5,68.2z"/>
	<path class="st2" d="M56.4,68.4L56.4,68.4L56.4,68.4z"/>
	<path class="st2" d="M66.9,96.3L66.9,96.3C66.9,96.2,66.9,96.2,66.9,96.3z"/>
	<path class="st4" d="M70.7,70.4c-0.2,0.1-0.6,0.1-0.7,0.4c-0.2,0.3-0.2,0.7,0.1,1c0.1,0.1,0.2,0.1,0.3,0.2c0.4,0.1,0.6-0.2,0.8-0.7
		c0.2,0.6-0.1,1.2-0.6,1.5c-0.2,0.1-0.4,0.1-0.6,0.1c-0.3-0.1-0.6-0.4-0.7-0.8c-0.2-0.6,0.2-1.4,0.7-1.6c0.1,0,0.1,0,0.2-0.1
		C70.4,70.2,70.5,70.2,70.7,70.4z"/>
	<path class="st0" d="M64.7,62.1c0.2,0.2,0.4,0.4,0.5,0.6C65,62.6,64.7,62.4,64.7,62.1z"/>
	<path class="st0" d="M64.6,61.6c0.1,0.2,0.2,0.4,0.2,0.5C64.6,62,64.5,61.8,64.6,61.6z"/>
	<path class="st0" d="M66.1,59.9c-0.2,0-0.2,0-0.4,0C65.9,59.7,65.9,59.7,66.1,59.9z"/>
	<path class="st0" d="M65.5,59.9c0,0.1-0.1,0.1-0.2,0.1C65.4,59.9,65.4,59.8,65.5,59.9z"/>
	<path class="st0" d="M65.2,60c0,0.1-0.1,0.2-0.2,0.2C65.1,60.1,65.1,60,65.2,60z"/>
	<path class="st0" d="M64.9,60.4c0,0.1-0.1,0.2-0.2,0.2C64.7,60.4,64.8,60.4,64.9,60.4z"/>
	<path class="st0" d="M64.7,60.6c0,0.1,0,0.2-0.2,0.2C64.6,60.7,64.7,60.6,64.7,60.6z"/>
	<path class="st0" d="M64.6,61c0.1,0.1,0.1,0.1,0,0.2C64.5,61.1,64.5,61.1,64.6,61C64.5,61,64.6,61,64.6,61L64.6,61z"/>
	<path class="st0" d="M64.6,60.8L64.6,60.8C64.6,60.9,64.6,60.9,64.6,60.8z"/>
	<path class="st0" d="M40,68.8c0.1,0.1,0.1,0.3,0.1,0.4c0,0.5,0.1,1.1,0.2,1.7c0.3,1.6,0.6,3.2,0.9,4.8l0.5,2.2l0.6,2.6
		c0,0.2,0.1,0.4,0.2,0.4c-0.2,0.4-0.5,0.4-0.6,0c-0.2-0.5-0.5-1.1-0.7-1.7c-0.4-1.1-0.7-2.1-0.9-3.2c-0.2-0.6-0.2-1.2-0.2-1.8
		c-0.1-0.6,0-1-0.1-1.4c-0.1-0.9-0.1-1.8-0.1-2.6C39.9,69.6,39.9,69.2,40,68.8C39.9,68.4,39.9,68.8,40,68.8z"/>
	<path class="st0" d="M40,68c0.1,0.1,0.1,0.2-0.1,0.3C39.9,68.2,39.9,68.1,40,68z"/>
	<path class="st4" d="M66.8,61.2c0.1,0.5-0.2,1.1-0.7,1.2c-0.4,0.2-0.9,0-1.1-0.4s-0.2-1,0.1-1.3c0.3-0.4,0.8-0.4,1.2-0.3
		c-0.2,0-0.4,0.1-0.6,0.2c-0.2,0-0.3,0.4-0.2,0.7c0.1,0.1,0.1,0.2,0.2,0.2c0.3,0.3,0.7,0.2,0.9-0.1C66.7,61.3,66.7,61.2,66.8,61.2z"
		/>
</g>
<g>
	<path class="st5" d="M80.6,51.5c0.7-0.8,0.6-1.8,0.9-2.7c1.6-4.5,4.9-6.8,9.5-7.4c0.7-0.1,1.4-0.3,2.1-0.2c1.9,0.4,2.5-0.6,2.7-2.3
		c0.3-2.4,1.7-4.3,3-6.2c-2.5-1.6-5-3.2-7.1-5.2c-4.6-4.3-6.5-9.7-5.9-15.8c0.5-4.9,3.1-6.8,8.6-7.4c4.4-0.5,8.8,0,13.1,0.9
		c1.2,0.2,2.2,0.2,2.9-1c0.9-1.4,2.2-2.5,3.8-3.2c3.5-1.7,5.9-0.8,7.4,2.7c3.6-1.6,7,0.1,7.7,4.2c0.3,1.8,1.1,2.7,2.6,3.4
		c2.8,1.4,5.3,3.1,7.5,5.3c4.2,4.2,4.1,8.3-0.2,12.3c-1.4,1.3-3,2.6-4.7,3.5c-0.8,0.5-1,0.9-0.7,1.7c1.3,3,2,6.1,2.6,9.3
		c0.2,1,0.5,1.4,1.6,1.3c1.4-0.1,2.8-0.1,4.2,0.2c3.7,0.7,6.1,2.9,7.1,6.5c1,3.8-0.1,7.1-3.2,9.6c-2.2,1.8-4.7,3-7.4,4.1
		c0.8,1.8,2.1,3.3,2.4,5.3c0.3,1.7-0.3,2.5-2,2.5c-1.7,0-3.1-0.8-4.5-1.6c-3.3-1.7-2.7-1.6-3.7,1.4c-0.4,1.1-0.8,2.2-1.3,3.3
		c-0.3,0.6-0.5,1.4-1.4,1.4c-0.9,0-1.2-0.7-1.5-1.3c-0.6-1.4-1.2-2.8-1.8-4.2c-1-2.1-2.1-2.3-3.9-0.8c-0.4,0.3-0.8,0.7-1.3,0.9
		c-0.9,0.4-1.6,0.2-1.8-0.9c-0.2-0.7,0.3-1.8-0.3-2.1c-0.7-0.4-1.8-0.2-2.8-0.2c0.2,1.7,1.2,3,1.2,4.7c0,2-0.7,2.5-2.6,1.8
		c-1.5-0.5-2.7-1.5-4.1-2.3c-0.6-0.3-1.2-0.7-1.9-1c-1-0.5-1.6-0.5-1.7,0.9c0,0.8-0.2,1.6-0.2,2.4c-0.1,1.8-1.2,3.2-2.8,3.2
		c-1.7,0-2-1.3-2.2-2.7c-0.3-2-0.6-3.9-1.4-5.8c-0.5-1.2-0.9-1.1-1.8-0.3c-1.8,1.6-3.9,2.8-6.4,2.5c-2.1-0.3-2.6-1.2-1.5-3.1
		c0.4-0.7,0.9-1.2,1.3-1.8c0.4-0.5,0.9-1.1,1.5-1.7c-1.2-0.4-2.2-0.7-3.3-1c-4.1-1.4-7.1-3.9-8.5-8.2C80.6,54.7,80.6,53.1,80.6,51.5
		z M125.6,51.3c0.3,0.1,0.4,0.1,0.4,0.1c0.4,0.5,0.2,1.2,0.3,1.7c0.5,4.5,0.3,8.7-4,11.6c-1.3,0.9-2.7,1.8-3.3,3.5
		c-0.3,1-0.8,2.3,0.1,2.9c0.8,0.5,1.5-0.8,2.1-1.3c0,0,0-0.1,0.1-0.1c1.1-1.2,2.3-1.1,3.4,0.2c1.4,1.7,1.9,3.7,2.9,5.6
		c0.2,0.4,0.3,0.9,0.8,0.9c0.5,0,0.6-0.6,0.7-1c0.7-1.7,1.4-3.4,1.9-5.2c0.4-1.5,1.2-1.6,2.4-1c1,0.6,2,1.3,3,1.8
		c1.2,0.6,2.7,1.6,3.7,0.6c1.1-1.1,0-2.7-0.7-3.9c-1.4-2.3-2.9-4.6-4.4-6.9c-1.1-1.6-2.3-3.2-2.8-5.1c-0.4-1.4-0.4-2.8,0.2-4.3
		c-0.2,3,0.8,5.6,2.7,8c0.3-1,0.5-1.8,0.7-2.6c1.6-7.4,0.2-14.5-2.2-21.6c-0.7-2.1-0.7-2.1-2.8-1.4c-0.6,0.2-1.2,0.4-1.9,0.6
		c-3.8,0.8-7.8,0.3-11.5,1.6c-0.9,0.3-1.8,0.3-2.7,0.4c-5.1,0.4-9.8-0.6-14.3-2.9c-0.6-0.3-1-0.4-1.5,0.3c-2.5,3.5-3.6,7.3-2.6,11.5
		c0.6,2.5,1.3,4.9,2.1,7.3c1,3.2,0.4,6-1.6,8.5c-1.8,2.3-3.6,4.5-5.5,6.6c-0.8,0.8-2,2-1.2,3c0.7,1,2.3,0.5,3.5,0.2
		c1.4-0.4,2.3-1.6,3.5-2.3c1.5-0.9,2.3-0.7,2.9,1c0.7,1.9,1.1,4,1.3,6c0.1,0.7,0.2,1.7,1.3,1.8c1.1,0,1.7-0.6,2-1.6
		c0.2-0.7,0.2-1.5,0.2-2.3c0.1-2.9,1-3.5,3.7-2.1c0.9,0.4,1.7,1,2.5,1.5c0.8,0.5,1.7,1,2.6,1.4c1.3,0.5,1.7,0.1,1.5-1.2
		c-0.3-2.1-1.3-4-2.4-5.8c-2.5-4.1-4.9-8.3-7.3-12.5c-0.6-1.1-1.4-2.2-1.7-3.8c0.8,0.4,1,0.9,1.2,1.4c2.5,5,5.5,9.7,8.4,14.5
		c0.6,1,4.1,1.7,4.7,0.7c1.1-1.8,2.8-3,4.4-4.3c2.2-1.8,3-4,2.9-6.7C125.6,55,125.6,53.2,125.6,51.3z M125.8,34.1
		c1.2,0.2,2.3,0.1,3.3-0.2c3.8-1,6.8-3.3,9.7-5.7c3.9-3.3,4.2-7.1,0.7-10.8c-2.2-2.3-4.9-3.9-7.6-5.5c-1.7-1-1.7-1-2.2,0.8
		c-0.9,2.9-2.9,4.7-5.4,4.6c-2.4,0-4.5-2-5.2-4.8c-0.1-0.4-0.1-0.9-0.5-1.2c-1.1,1-2.4,1.8-3.9,2.3c-2.9,0.9-5.5-0.4-6-3
		c-0.2-1-0.2-2.1,0.2-3.1c0.5-1.1-0.1-1.4-1-1.5c-2.4-0.3-4.8-0.8-7.2-0.9c-3.2-0.2-6.4-0.3-9.5,0.9c-1.1,0.4-2.1,1-2.9,2
		c-2.2,2.8-1.7,6-1.2,9.1c0.9,5.5,4.3,9.4,8.6,12.6c9.9,7.4,20.3,8.1,31.2,3c4.1-1.9,6.6-5.2,6.9-9.9c0-0.4,0-0.9,0.7-1.1
		C134.5,27.9,131.1,31.6,125.8,34.1z M93.2,42c-5.4,0.1-9,2.4-10.8,6.8c-2.1,5.5-0.8,10.5,3.5,13.2c2,1.3,4.2,2,6.5,2.5
		c0.5,0.1,0.8,0.1,1.2-0.2c4.4-3.7,5.6-7.8,3.8-13.3c-0.7-2.3-1.6-4.5-1.8-6.9C95.3,42,95.3,42,93.2,42z M137.2,50.1
		c0.2,3.2-0.2,6.3-1.1,9.3c-0.3,1.1,1.1,4.2,2.2,4.7c0.4,0.2,0.7,0,1.1-0.1c2.1-0.8,4.2-1.8,6-3.2c2-1.5,3.6-3.3,3.7-6
		c0.3-7.2-4.8-9.7-10.7-9.4c-0.8,0-1.1,0.4-1.1,1.3C137.3,47.8,137.2,48.9,137.2,50.1z M129.1,10.3c0.1-1-0.1-1.9-0.4-2.8
		c-0.5-2-2.3-3.7-4-3.8c-2-0.2-3.7,1-4.6,3.2c-0.9,2.1-0.9,4.3,0,6.4c0.7,1.9,2,3.3,4.2,3.3c2.1,0.1,3.3-1.4,4.2-3.1
		C129,12.5,129.2,11.4,129.1,10.3z M112.8,13c3.1,0,5.7-2.2,6.2-5.3c0.2-0.9,0.5-1.7,1-2.4c0.9-1,1.1-1.9,0.4-3
		c-0.8-1.1-1.9-1.7-3.2-1.5c-4,0.4-7.8,4.5-7.9,8.6C109.3,11.5,110.7,13,112.8,13z"/>
	<path class="st6" d="M125.6,51.3c0,1.9,0,3.6,0,5.4c0.1,2.7-0.7,4.9-2.9,6.7c-1.6,1.3-3.3,2.5-4.4,4.3c-0.6,0.9-4.1,0.3-4.7-0.7
		c-2.8-4.8-5.8-9.5-8.4-14.5c-0.2-0.5-0.4-1-1.2-1.4c0.3,1.6,1,2.7,1.7,3.8c2.4,4.2,4.9,8.3,7.3,12.5c1.1,1.8,2,3.7,2.4,5.8
		c0.2,1.3-0.2,1.7-1.5,1.2c-0.9-0.4-1.7-0.9-2.6-1.4c-0.8-0.5-1.7-1-2.5-1.5c-2.6-1.4-3.5-0.8-3.7,2.1c0,0.8,0,1.5-0.2,2.3
		c-0.3,1-0.9,1.6-2,1.6c-1.1,0-1.2-1-1.3-1.8c-0.2-2.1-0.6-4.1-1.3-6c-0.6-1.7-1.4-2-2.9-1c-1.2,0.7-2,1.9-3.5,2.3
		c-1.2,0.3-2.8,0.8-3.5-0.2c-0.8-1.1,0.5-2.2,1.2-3c1.9-2.1,3.8-4.3,5.5-6.6c2-2.6,2.6-5.4,1.6-8.5c-0.8-2.4-1.6-4.9-2.1-7.3
		c-1-4.2,0.2-8,2.6-11.5c0.5-0.7,0.9-0.6,1.5-0.3c4.5,2.3,9.2,3.4,14.3,2.9c0.9-0.1,1.9-0.1,2.7-0.4c3.7-1.3,7.7-0.8,11.5-1.6
		c0.6-0.1,1.3-0.3,1.9-0.6c2-0.8,2.1-0.8,2.8,1.4c2.3,7,3.8,14.1,2.2,21.6c-0.2,0.8-0.4,1.6-0.7,2.6c-1.9-2.4-2.9-5-2.7-8
		c-0.7,1.4-0.6,2.8-0.2,4.3c0.6,1.9,1.8,3.5,2.8,5.1c1.5,2.3,3,4.5,4.4,6.9c0.7,1.2,1.7,2.7,0.7,3.9c-1,1.1-2.6,0-3.7-0.6
		c-1.1-0.5-2-1.2-3-1.8c-1.2-0.7-2-0.5-2.4,1c-0.5,1.8-1.2,3.5-1.9,5.2c-0.2,0.4-0.3,1-0.7,1c-0.5,0-0.6-0.6-0.8-0.9
		c-0.9-1.9-1.5-4-2.9-5.6c-1.1-1.3-2.2-1.4-3.4-0.2c0,0,0,0.1-0.1,0.1c-0.7,0.6-1.3,1.8-2.1,1.3c-0.9-0.6-0.4-1.9-0.1-2.9
		c0.6-1.6,2-2.6,3.3-3.5c4.3-2.9,4.5-7.1,4-11.6c-0.1-0.6,0.1-1.2-0.3-1.7C126,51.4,125.9,51.4,125.6,51.3z"/>
	<path class="st6" d="M125.8,34.1c5.3-2.5,8.7-6.2,8.7-12.5c-0.7,0.2-0.7,0.7-0.7,1.1c-0.3,4.7-2.8,8-6.9,9.9
		c-10.9,5.1-21.4,4.4-31.2-3c-4.4-3.3-7.8-7.1-8.6-12.6c-0.5-3.1-0.9-6.2,1.2-9.1c0.8-1,1.7-1.6,2.9-2c3.1-1.2,6.3-1.1,9.5-0.9
		c2.4,0.2,4.8,0.6,7.2,0.9c0.9,0.1,1.5,0.4,1,1.5c-0.4,1-0.4,2-0.2,3.1c0.4,2.6,3.1,3.9,6,3c1.5-0.5,2.7-1.3,3.9-2.3
		c0.4,0.3,0.4,0.8,0.5,1.2c0.7,2.8,2.8,4.8,5.2,4.8c2.4,0.1,4.5-1.7,5.4-4.6c0.5-1.8,0.5-1.8,2.2-0.8c2.7,1.6,5.4,3.2,7.6,5.5
		c3.5,3.7,3.2,7.5-0.7,10.8c-2.9,2.5-5.9,4.7-9.7,5.7C128,34.2,127,34.3,125.8,34.1z"/>
	<path class="st6" d="M93.2,42c2.2,0,2.2,0,2.4,2.1c0.2,2.4,1.1,4.6,1.8,6.9c1.8,5.5,0.6,9.6-3.8,13.3c-0.4,0.3-0.7,0.3-1.2,0.2
		c-2.3-0.5-4.5-1.3-6.5-2.5c-4.4-2.8-5.7-7.7-3.5-13.2C84.1,44.4,87.8,42.1,93.2,42z"/>
	<path class="st6" d="M137.2,50.1c0-1.1,0.1-2.3,0-3.4c-0.1-0.9,0.3-1.2,1.1-1.3c5.9-0.4,11.1,2.1,10.7,9.4c-0.1,2.7-1.8,4.5-3.7,6
		c-1.8,1.4-3.9,2.4-6,3.2c-0.4,0.1-0.7,0.3-1.1,0.1c-1-0.5-2.5-3.6-2.2-4.7C137,56.3,137.5,53.2,137.2,50.1z"/>
	<path class="st7" d="M129.1,10.3c0.1,1.1-0.2,2.2-0.7,3.2c-0.9,1.7-2.1,3.2-4.2,3.1c-2.1-0.1-3.4-1.5-4.2-3.3
		c-0.8-2.1-0.8-4.3,0-6.4c0.9-2.1,2.6-3.3,4.6-3.2c1.7,0.1,3.5,1.8,4,3.8C129,8.3,129.3,9.3,129.1,10.3z M123,10
		c0.1,1,0.3,2.2,1.6,2.3c1.1,0.2,1.8-0.7,1.7-1.7c-0.1-1-0.4-2.1-0.8-3c-0.2-0.4-1.1-0.4-1.4,0.1C123.5,8.4,122.9,9.1,123,10z"/>
	<path class="st7" d="M112.8,13c-2.1,0-3.5-1.5-3.5-3.6c0.1-4.1,3.9-8.2,7.9-8.6c1.3-0.1,2.4,0.4,3.2,1.5c0.8,1.1,0.5,2.1-0.4,3
		c-0.6,0.6-0.9,1.5-1,2.4C118.5,10.9,115.9,13,112.8,13z M117.5,6c0-0.8-0.4-1.4-1.3-1.4c-1.1,0-2.4,1.5-2.4,2.9
		c0,0.9,0.3,1.6,1.4,1.6C116.4,9.1,117.5,7.6,117.5,6z"/>
	<path class="st5" d="M123,10c-0.1-1,0.5-1.6,1-2.3c0.3-0.5,1.2-0.4,1.4-0.1c0.4,0.9,0.8,2,0.8,3c0.1,1-0.6,1.8-1.7,1.7
		C123.3,12.2,123.1,11.1,123,10z"/>
	<path class="st5" d="M117.5,6c0,1.6-1.1,3.1-2.3,3.1c-1,0-1.4-0.7-1.4-1.6c0-1.3,1.2-2.9,2.4-2.9C117.1,4.6,117.5,5.2,117.5,6z"/>
</g>
<g>
	<path class="st8" d="M60.9,20.2c0.3-0.1,0.5-0.2,0.5-0.5l0,0c1.2-0.8,1.7-2.1,1.5-3.4c-0.3-2.2-1.6-4-3.3-5.3
		c-2-1.5-3.5-3.4-4.6-5.6c-1.3-2.8-4.3-4.4-7.1-4.3c-2.4,0.1-4.5,1-6.5,2c-1,0.5-1.9,1.3-2.5,2.5c-1.6,3-2.2,6.2-2.1,9.6
		c0,1.1,0,2.2,0,3.3c0,0.5,0.2,1.2-0.7,1.2c-0.7,0-0.9-0.5-1-1.2c-0.4-2.1-0.1-4.3-0.2-6.4c0-2.6,0.1-5.2-1-7.6
		c-1-2.1-2.4-3.6-4.6-4.1c-1-0.2-1.9,0.1-2.9,0c-3-0.4-4.8,1.4-6.6,3.3c-0.9,1-1.7,2.3-3.2,2.6c-3,0.7-5.7,2.1-7.7,4.6
		c-1.9,2.3-2.6,5.3-0.2,7.7l0,0c0,0.2,0.1,0.3,0.3,0.3l0,0c0.1,0.4,0.5,0.4,0.8,0.5l0-0.1l-0.1,0.1c0.3,0.4,0.6,0.7,1.1,0.9
		c0.1,0.1,0.2,0.2,0.4,0.3c0.4,0.5,1,0.6,1.6,0.8l0,0c0.4,0.4,1,0.6,1.6,0.8c2.6,0.6,4.9,1.9,7.6,2.1c0.3,0.3,0.7,0.4,1.1,0.5
		c0.8,0.3,1.7-0.1,2.5,0.4c0.3,0,0.7,0,1,0c1.1,0.2,2.2,0.4,3.3,0.7c-0.4,0.8-1.4,0.9-1.8,0.6c-1.9-1.1-4-0.9-6-1.2
		c-3.7-0.5-7.4-0.2-10.7,1.8c-1.8,1.1-3.5,2.4-3.7,4.8c0,0.3-0.5,0.6-0.3,1c-0.6,1-0.6,2-0.2,3.1c-0.1,0.4,0.3,0.6,0.3,1
		c0.1,0.5,0.3,1,0.7,1.3c0,0,0,0,0,0c0.1,0.1,0.1,0.2,0.2,0.3l0,0c0.1,0.4,0.2,0.7,0.6,0.9c0.5,0.6,1.4,1,1.5,1.9
		c0.2,0.3,0.4,0.6,0.6,0.8L11,42l-0.1,0.1c0.4,1,0.7,2.1,1.6,2.9c1.1,2.4,3.1,3.7,5.3,4.6c0.1,0,0.2,0,0.2,0l0,0
		c1.8,0.6,3.6,0.5,5.3-0.2c2.1-0.5,3.6-1.7,4.6-3.6c0.6-0.5,1.2-1,1.3-1.8l0,0c0.4-0.6,0.6-1.3,0.7-2c0.1-0.1,0.1-0.1,0.1-0.2
		c0.6-1.3,0.8-2.7,0.9-4.1c0.3-1.7,0.5-3.4,1.2-4.9c0.3-0.6,0.2-2.1,1.7-1.4c0.1,1.5,0.2,3,0.2,4.5c0,2.3-0.2,4.6-0.2,6.9
		c0,2.9-0.3,5.9,1.1,8.7c0.5,1.2,0.9,2.4,2.3,3c0.4,0.5,0.9,0.6,1.5,0.4c-1.5-1.5-1.8-3.6-2-5.4c-0.5-6-0.2-12-0.3-18.1
		c0.3-0.1,0.7-0.2,1-0.3c0.5,0.4,0.3,0.9,0.3,1.3c0,1.1,0,2.2,0.2,3.3c0.1,1.9,0.5,3.7,1,5.5c-0.1,0.5,0.1,0.9,0.2,1.4
		c0.2,1.1,1.1,1.7,1.5,2.6c0,0.1,0.1,0.2,0.1,0.3c0.1,0.2,0.1,0.5,0.3,0.6l0,0c0.2,0.7,0.5,1.3,1.1,1.7l0,0c0,0.2,0.1,0.3,0.2,0.3
		c1,0.6,1.7,1.5,2.8,2c1.7,0.7,3.3,0.6,5,0c2.2-0.8,4.1-2.2,5.3-4.2c1.1-1.7,2.4-3.2,4-4.4c2-1.6,4.2-3.2,4.7-6c1-3.7-1.6-7-4.8-8.2
		c-4.1-1.5-8.3-1.1-12.6-0.8c-2.2,0.1-4.3,0.6-6.5,0.3c0.1-0.6,0.5-0.8,0.8-1.2l0,0c0.1-0.1,0.2-0.1,0.3-0.2l0,0
		c0.5-0.2,1-0.4,1.5-0.5l0,0l0.1,0l0.1-0.1c0.6-0.1,1.2-0.2,1.8-0.5c0.5,0,1.1,0.2,1.5-0.3l0,0c0.7,0.1,1.4-0.1,2-0.3
		c2.7-0.3,5.4-1.1,8.1-1.6c0.5,0,0.9-0.1,1.3-0.4l0,0c0.2,0,0.4,0,0.6-0.2l0,0c0.6-0.3,1.3-0.2,1.8-0.8l0,0
		C60.5,20.7,60.8,20.6,60.9,20.2L60.9,20.2z"/>
	<path class="st9" d="M26.5,25.2c-0.3,0-0.7,0-1,0c0-0.4-0.2-0.6-0.6-0.7c-1,0-1.9-0.4-2.9-0.3c-2.7-0.3-5-1.5-7.6-2.1
		c-0.3-0.6-0.9-0.8-1.6-0.8c0,0,0,0,0,0c-0.3-0.8-1-0.7-1.6-0.8c-0.1-0.1-0.2-0.2-0.4-0.3c-0.1-0.6-0.4-1-1.1-0.9l0.1-0.1
		c0,0,0,0.1,0,0.1c0.1-0.6-0.3-0.6-0.8-0.5c0,0,0,0,0,0c-0.1-0.1-0.2-0.2-0.3-0.3c0,0,0,0,0,0c0-1-1.2-1.8-0.8-3
		c0.8,0.3,0.5,1.4,1.5,1.7c2.6,0.9,5.3,0.3,7.9,0c1.5-0.1,3-0.4,4.5-0.2c0.4,0,0.7,0.1,0.9-0.4c0.4-1,0.9-1,1.4-0.2
		c0.8,1.2,1.8,2,2.7,3.1c0.4,0.4,0.9,0.6,1.2,0.3c1.3-1.2,2.8-0.8,4.2-0.9c0.4,0,0.6,0.2,0.9,0.4c1.6,1.7,4,2.1,6,0.9
		c0.4-0.2,0.7-0.4,1.2-0.3c1.3,0.2,2.5,0.7,3.8,0.4c1.5-0.4,3.1,0.1,4.5-0.5c1-0.4,2-0.6,3.1-0.5c1.2,0,2.4,0,3.7,0
		c0.4,0,0.9-0.2,1.2,0.2c0.4,0.5-0.7,0.4-0.4,1c1.6-0.1,3-0.5,4.3-1.4c0.5-0.3,1-0.6,1,0.4c0,0,0,0,0,0c-0.4,0-0.5,0.1-0.5,0.5
		c0,0,0,0,0,0c-0.4,0-0.8,0-0.8,0.5c0,0,0,0,0,0c-0.8-0.1-1.4,0.1-1.8,0.8c0,0,0,0,0,0c-0.2-0.1-0.5-0.1-0.6,0.2c0,0,0,0,0,0
		c-0.5,0-1-0.1-1.3,0.4c-2.7,0.4-5.4,1.3-8.1,1.6c-0.7-0.5-1.4,0-2,0.3c0,0,0,0,0,0c-0.5,0.1-1.1-0.2-1.5,0.3
		c-0.5,0.3-1.2,0.4-1.8,0.5c0,0-0.1-0.1-0.1-0.1c0,0.1,0,0.1,0,0.2c0,0,0,0,0,0c-0.6,0-1.3-0.4-1.5,0.5c0,0,0,0,0,0
		c-0.1,0.1-0.2,0.1-0.3,0.2c0,0,0,0,0,0c-0.7-0.2-0.9,0.5-1.4,0.7c-0.5,0.2-1,0.2-0.9,0.8c0.1,0.6,0.5,1.1,1.2,1.2
		c0.9,0.1,1.8,0.1,2.6,0c4.3-0.6,8.6-0.9,12.9-0.3c1.1,0.2,2.3-0.1,3.3,0.4c3,1.5,4.9,3.8,5.2,7.1c-0.5,2.8-2.7,4.4-4.7,6
		c-1.6,1.3-2.9,2.7-4,4.4c-1.3,2-3.1,3.4-5.3,4.2c-1.7,0-3.3,0.3-5,0c-1.1-0.5-1.8-1.4-2.8-2c-0.1-0.1-0.2-0.2-0.2-0.3c0,0,0,0,0,0
		c0-0.8-0.4-1.4-1.1-1.7c0,0,0,0,0,0c0.1-0.3,0-0.5-0.3-0.6c0-0.1-0.1-0.2-0.1-0.3c-0.1-1.6-1-2.8-1.7-4c-0.5-1.8-0.9-3.7-1-5.5
		c0.5-1.3,0.2-2.7,0.4-4.1c0.1-0.7-0.4-0.9-1-0.6c-0.3,0.1-0.7,0.2-1,0.3c-0.7,0.8-1.5,1.2-2.2,0c0-0.1-0.2,0-0.4,0
		c-1.5-0.7-1.4,0.8-1.7,1.4c-0.7,1.6-0.9,3.3-1.2,4.9C30.3,39,30,40.3,30,41.8c0,0.1,0,0.2-0.1,0.2c-0.6,0.5-0.7,1.3-0.7,2
		c0,0,0,0,0,0c-1,0.2-1.2,0.9-1.3,1.8c-1,1.9-2.5,3.1-4.6,3.6c-1.8,0.3-3.6,0.2-5.3,0.2c0,0,0,0,0,0c-0.1-0.1-0.1-0.2-0.2,0
		c-2.3-1-4.3-2.3-5.3-4.6c-0.2-1.1-0.6-2.1-1.6-2.9L11,42c0,0-0.1,0.1-0.1,0.1c0.2-0.6-0.1-0.8-0.6-0.8c-0.2-0.9-1.1-1.2-1.5-1.9
		c0-0.4-0.1-0.8-0.6-0.9c0,0,0,0,0,0c-0.1-0.1-0.1-0.2-0.2-0.3c0,0,0,0,0,0c0-0.6,0-1.1-0.7-1.3c0-0.4-0.4-0.6-0.3-1
		c0.4-1,0.3-2.1,0.2-3.1c-0.2-0.4,0.3-0.6,0.3-1c0.5-0.3,1-0.7,1.4-1.2c1.4-1.8,3.2-3.1,5.5-3.6c4.6-1.1,9.1-1.1,13.5,0.7
		c0.6,0.2,1.3,0.2,1.9,0c0.5-0.2,1.2-0.5,1.2-1.1c0-0.7-0.6-1.1-1.1-1.2C28.7,25.1,27.6,24.8,26.5,25.2z M17.1,38.7
		c-0.5,0.1-0.9,0.3-0.9,1C16.8,39.6,17,39.2,17.1,38.7c0.4,0,0.8,0,0.8-0.5c1.5-0.8,2.8-1.9,4-3c0.8-0.5,1.7-0.7,2.1-1.6
		c-0.8,0.3-1.9,0.4-2.2,1.5c-1.8,0.4-3.2,1.4-4.1,3C17.5,38.2,17.1,38.2,17.1,38.7z M48.5,38c-1.4-1-1.9-2.7-3.4-3.7
		C45.3,35.7,47.2,37.7,48.5,38z M49.1,39.2c0.7,0.4,1,1.5,2.3,1.4C50.6,39.9,50,39.3,49.1,39.2z M24.5,33.3c1.2,0.1,1.9-0.7,2.7-1.1
		C26.2,32.2,25.3,32.4,24.5,33.3z M44.2,33.6c0.1-1.1,0-1.2-0.8-1.4C43.6,32.7,43.7,33.2,44.2,33.6z M44.8,33.8c0,0.1,0,0.1,0,0.2
		c0,0,0.1-0.1,0.1-0.1C44.9,33.9,44.8,33.8,44.8,33.8z"/>
	<path class="st10" d="M61.4,19.7c0-1-0.5-0.8-1-0.4c-1.3,0.9-2.8,1.3-4.3,1.4c-0.3-0.6,0.8-0.5,0.4-1c-0.3-0.4-0.8-0.2-1.2-0.2
		c-1.2,0-2.4,0-3.7,0c-1.1,0-2,0.1-3.1,0.5c-1.4,0.6-3,0.1-4.5,0.5c-1.3,0.3-2.5-0.2-3.8-0.4c-0.5-0.1-0.8,0-1.2,0.3
		c-2,1.2-4.4,0.8-6-0.9c-0.2-0.3-0.5-0.5-0.9-0.4c-1.4,0.1-3-0.3-4.2,0.9c-0.3,0.3-0.9,0.2-1.2-0.3c-0.9-1.1-1.9-1.9-2.7-3.1
		c-0.5-0.9-1.1-0.9-1.4,0.2c-0.2,0.5-0.5,0.4-0.9,0.4c-1.5-0.1-3,0.1-4.5,0.2c-2.6,0.3-5.2,0.8-7.9,0c-0.9-0.3-0.7-1.4-1.5-1.7
		c-0.4,1.2,0.8,1.9,0.8,3c-2.4-2.4-1.7-5.4,0.2-7.7c2-2.4,4.7-3.9,7.7-4.6c1.5-0.4,2.3-1.6,3.2-2.6c1.8-2,3.6-3.8,6.6-3.3
		c1,0.1,1.9-0.2,2.9,0c2.3,0.6,3.6,2,4.6,4.1c1.2,2.5,1,5.1,1,7.6c0,2.1-0.3,4.3,0.2,6.4c0.1,0.7,0.4,1.1,1,1.2
		c0.9,0.1,0.7-0.7,0.7-1.2c0.1-1.1,0-2.2,0-3.3c0-3.4,0.6-6.6,2.1-9.6c0.6-1.1,1.5-2,2.5-2.5c2-1,4.1-1.9,6.5-2
		c2.8-0.1,5.8,1.5,7.1,4.3c1,2.2,2.6,4.1,4.6,5.6c1.8,1.3,3,3.1,3.3,5.3C63.1,17.7,62.7,18.9,61.4,19.7z"/>
	<path class="st10" d="M64.2,35.5c-0.4-3.4-2.2-5.7-5.2-7.1c-1.1-0.5-2.2-0.3-3.3-0.4c-4.3-0.6-8.6-0.2-12.9,0.3
		c-0.9,0.1-1.8,0.1-2.6,0c-0.6-0.1-1.1-0.5-1.2-1.2c-0.1-0.6,0.4-0.7,0.9-0.8c0.5-0.2,0.7-0.9,1.4-0.7c-0.3,0.3-0.8,0.5-0.8,1.2
		c2.2,0.3,4.3-0.1,6.5-0.3c4.2-0.3,8.5-0.6,12.6,0.8C62.6,28.4,65.1,31.7,64.2,35.5z"/>
	<path class="st10" d="M26.5,25.2c1.1-0.4,2.2-0.2,3.3,0.2c0.5,0.2,1.2,0.5,1.1,1.2c0,0.6-0.7,1-1.2,1.1c-0.6,0.2-1.3,0.2-1.9,0
		c-4.4-1.8-8.9-1.7-13.5-0.7c-2.3,0.5-4.1,1.8-5.5,3.6c-0.4,0.5-0.8,0.9-1.4,1.2c0.2-2.4,1.9-3.7,3.7-4.8c3.3-1.9,7-2.2,10.7-1.8
		c2,0.2,4.1,0,6,1.2c0.5,0.3,1.4,0.2,1.8-0.6C28.6,25.6,27.6,25.4,26.5,25.2z"/>
	<path class="st10" d="M33.8,31.3c0.1,0,0.3,0,0.4,0c0.8,1.2,1.5,0.8,2.2,0c0.1,6-0.2,12.1,0.3,18.1c0.1,1.9,0.5,3.9,2,5.4
		C37.9,55,37.4,55,37,54.4c0.4-0.7-0.5-1.1-0.5-1.8c0-2.4-0.6-4.8-0.5-7.3c0-2.4,0.1-4.9,0-7.3c-0.1-1.5-0.4-3-0.6-4.6
		c-0.8,1.2,0.5,2.7-0.7,3.8c0,0,0,0.1,0.1,0.1c0.5,0.6,0.2,1.1,0,1.6c-0.2,0.5-0.3,1,0,1.4c0.4,0.6,0.3,1.2,0.2,1.8
		c-0.3,2.2-1.1,4.3-0.4,6.6c0.2,0.8,0.5,1.7,0.3,2.6c-1.3-2.8-1-5.8-1.1-8.7c0-2.3,0.2-4.6,0.2-6.9C33.9,34.3,33.8,32.8,33.8,31.3z"
		/>
	<path class="st9" d="M34.8,51.5c0.2-0.9-0.1-1.8-0.3-2.6c-0.7-2.3,0.1-4.4,0.4-6.6c0.1-0.6,0.2-1.2-0.2-1.8c-0.3-0.5-0.2-1,0-1.4
		c0.3-0.5,0.5-1.1,0-1.6c0,0-0.1-0.1-0.1-0.1c1.3-1.1-0.1-2.6,0.7-3.8c0.2,1.5,0.5,3,0.6,4.6c0.1,2.4,0.1,4.9,0,7.3
		c0,2.4,0.5,4.8,0.5,7.3c0,0.7,0.9,1,0.5,1.8C35.7,53.9,35.3,52.7,34.8,51.5z"/>
	<path class="st10" d="M37.3,31c0.6-0.3,1.1-0.1,1,0.6c-0.2,1.4,0,2.8-0.4,4.1c-0.2-1.1-0.3-2.2-0.2-3.3
		C37.7,31.9,37.8,31.4,37.3,31z"/>
	<path class="st10" d="M38.9,41.2c0.7,1.3,1.6,2.5,1.7,4c-0.4-0.9-1.3-1.5-1.5-2.6C39,42.2,38.8,41.7,38.9,41.2z"/>
	<path class="st10" d="M18.1,49.6c1.8,0,3.6,0.1,5.3-0.2C21.7,50.1,19.9,50.2,18.1,49.6z"/>
	<path class="st10" d="M45.2,50.1c1.7,0.3,3.3,0,5,0C48.5,50.7,46.8,50.8,45.2,50.1z"/>
	<path class="st10" d="M21.9,24.3c1-0.2,1.9,0.2,2.9,0.3c0.4,0,0.6,0.3,0.6,0.7c-0.8-0.5-1.7-0.1-2.5-0.4
		C22.6,24.7,22.2,24.6,21.9,24.3z"/>
	<path class="st10" d="M30,41.8c0-1.4,0.3-2.8,0.9-4.1C30.8,39.1,30.6,40.5,30,41.8z"/>
	<path class="st10" d="M10.9,42.1c1,0.7,1.4,1.7,1.6,2.9C11.6,44.2,11.3,43.1,10.9,42.1z"/>
	<path class="st10" d="M7.2,32.8c0.1,1,0.2,2.1-0.2,3.1C6.6,34.9,6.6,33.8,7.2,32.8z"/>
	<path class="st10" d="M28,45.8c0.1-0.8,0.3-1.6,1.3-1.8C29.1,44.8,28.5,45.3,28,45.8z"/>
	<path class="st10" d="M41.1,46.1c0.7,0.4,1.1,1,1.1,1.7C41.6,47.3,41.3,46.8,41.1,46.1z"/>
	<path class="st10" d="M29.2,44c0-0.8,0.1-1.5,0.7-2C29.9,42.7,29.6,43.4,29.2,44z"/>
	<path class="st10" d="M46.4,24c0.7-0.3,1.3-0.7,2-0.3C47.8,23.9,47.1,24.1,46.4,24z"/>
	<path class="st10" d="M11.1,20.5c0.6,0.1,1.3,0,1.6,0.8C12.1,21.1,11.5,21,11.1,20.5z"/>
	<path class="st10" d="M58.4,21.6c0.4-0.7,1-0.9,1.8-0.8C59.7,21.4,59,21.3,58.4,21.6z"/>
	<path class="st10" d="M12.7,21.3c0.7,0,1.3,0.2,1.6,0.8C13.7,21.9,13.1,21.8,12.7,21.3z"/>
	<path class="st10" d="M9.7,19.3c0.7-0.1,0.9,0.3,1.1,0.9C10.3,20,9.9,19.7,9.7,19.3z"/>
	<path class="st10" d="M7.3,36.9C7.9,37.1,8,37.6,8,38.2C7.6,37.9,7.4,37.4,7.3,36.9z"/>
	<path class="st10" d="M41.5,25.4c0.2-0.9,1-0.5,1.5-0.5C42.5,25,42,25.2,41.5,25.4z"/>
	<path class="st10" d="M56.6,22.2c0.3-0.5,0.8-0.5,1.3-0.4C57.5,22.1,57.1,22.2,56.6,22.2z"/>
	<path class="st10" d="M8.1,38.5c0.5,0.1,0.6,0.4,0.6,0.9C8.4,39.2,8.2,38.9,8.1,38.5z"/>
	<path class="st10" d="M10.3,41.2c0.5,0.1,0.8,0.3,0.6,0.8C10.7,41.8,10.5,41.5,10.3,41.2z"/>
	<path class="st10" d="M8.9,18.8c0.4-0.1,0.8-0.1,0.8,0.5C9.4,19.1,9,19.2,8.9,18.8z"/>
	<path class="st10" d="M44.9,24.3c0.4-0.5,1-0.2,1.5-0.3C46,24.4,45.5,24.3,44.9,24.3z"/>
	<path class="st10" d="M60.2,20.8c0-0.6,0.4-0.6,0.8-0.5C60.8,20.6,60.5,20.7,60.2,20.8z"/>
	<path class="st10" d="M60.9,20.2c0-0.4,0.2-0.5,0.5-0.5C61.4,20,61.2,20.2,60.9,20.2z"/>
	<path class="st10" d="M40.7,45.5c0.3,0.1,0.4,0.3,0.3,0.6C40.8,46,40.8,45.7,40.7,45.5z"/>
	<path class="st10" d="M57.9,21.8c0.1-0.3,0.3-0.3,0.6-0.2C58.3,21.8,58.1,21.8,57.9,21.8z"/>
	<path class="st10" d="M8.7,18.5c0.1,0.1,0.2,0.2,0.3,0.3C8.8,18.8,8.7,18.6,8.7,18.5z"/>
	<path class="st10" d="M17.9,49.6c0.1-0.1,0.2-0.1,0.2,0C18,49.6,17.9,49.6,17.9,49.6z"/>
	<path class="st10" d="M42.1,47.8c0.1,0.1,0.2,0.2,0.2,0.3C42.2,48.1,42.1,48,42.1,47.8z"/>
	<path class="st10" d="M43,24.9c0-0.1,0-0.1,0-0.2c0,0,0.1,0.1,0.1,0.1c0,0-0.1,0.1-0.1,0.1L43,24.9z"/>
	<path class="st10" d="M41.1,25.6c0.1-0.1,0.2-0.1,0.3-0.2C41.4,25.4,41.2,25.5,41.1,25.6z"/>
	<path class="st10" d="M7.9,38.2c0.1,0.1,0.1,0.2,0.2,0.3C8.1,38.4,8,38.3,7.9,38.2z"/>
	<path class="st10" d="M48.5,38c-1.4-0.3-3.2-2.3-3.4-3.7C46.7,35.3,47.2,37.1,48.5,38z"/>
	<path class="st10" d="M21.9,35.2c-1.2,1.2-2.5,2.2-4,3l0,0C18.7,36.5,20.1,35.6,21.9,35.2L21.9,35.2z"/>
	<path class="st10" d="M49.1,39.2c0.9,0.1,1.5,0.7,2.3,1.4C50.1,40.7,49.8,39.6,49.1,39.2z"/>
	<path class="st10" d="M24.5,33.3c0.8-0.9,1.7-1.1,2.7-1.1C26.4,32.6,25.7,33.4,24.5,33.3z"/>
	<path class="st10" d="M21.9,35.1c0.3-1.1,1.3-1.2,2.2-1.5C23.6,34.5,22.7,34.7,21.9,35.1C21.9,35.2,21.9,35.1,21.9,35.1z"/>
	<path class="st10" d="M44.2,33.6c-0.5-0.4-0.6-0.9-0.8-1.4C44.2,32.4,44.3,32.5,44.2,33.6z"/>
	<path class="st10" d="M17.1,38.7c-0.1,0.5-0.3,0.8-0.9,0.9C16.2,39,16.6,38.8,17.1,38.7C17.1,38.7,17.1,38.7,17.1,38.7z"/>
	<path class="st10" d="M17.9,38.2c0,0.5-0.4,0.5-0.8,0.5c0,0,0-0.1-0.1-0.1C17.1,38.2,17.5,38.2,17.9,38.2
		C17.8,38.2,17.9,38.2,17.9,38.2z"/>
	<path class="st10" d="M44.8,33.8c0,0,0.1,0.1,0.1,0.1c0,0,0,0.1-0.1,0.1C44.8,33.9,44.8,33.9,44.8,33.8z"/>
</g>
<g>
	<path class="st11" d="M147.9,116.1c0,0.8,0,1.6,0,2.4c-0.1,0-0.1,0.1-0.1,0.2c-0.3,1.9-0.8,3.7-1.3,5.5c-0.3,1.2-0.6,2.3-1,3.5
		c-0.4,0-0.6-0.2-0.6-0.6c0-1.9-0.1-3.7-0.4-5.6c-0.4-2.3-1.2-4.5-2.7-6.5c-0.5-0.6-1.2-1.1-1.6-1.7c0.3-0.3,0-0.4-0.1-0.6
		c-2.3-2.2-4.6-2.5-7.4-1.2c-1.8,0.9-3.1,2.4-4,4c-1.1,1.9-1.5,3.9-1.7,5.9c0,0.2-0.2,0.6,0.2,0.7c-0.3,2.5-0.3,4.9-0.1,7.4
		c-1.8,0-3.6,0.1-5.5,0.1c-7.6,0.1-15.2-0.2-22.8,0.2c-1.8,0.1-3.5,0-5.3,0c-2.9,0-5.8,0-8.7-0.2c0.6-3.9,0.3-7.6-1.4-11.3
		c-0.6-1.2-1.2-2.5-2.2-3.5c-1-1.1-2.4-2.1-4.2-2.4c0-0.2,0-0.3-0.3-0.4c-1.7-0.6-3.4-0.5-5.1,0.3c-1.6,0.8-2.6,2.1-3.3,3.5
		c-0.1,0.2-0.3,0.4-0.1,0.6c0,0.2,0,0.4-0.1,0.5c-0.6,1-1,2.1-1.3,3.2c-0.6,2-0.9,4.1-1,6.2c-0.1,0.2-0.2,0.2-0.3,0.1
		c-0.8-0.2-1.5-0.6-2.1-1c-1.1-0.6-1.3-1.6-1.3-2.6c0-3.9,0.7-7.7,2.5-11.3c1-2,2.3-3.9,4.1-5.4c0.6-0.5,1.3-0.8,1.8-1.3
		c1.5-1.7,2.9-3.4,4.3-5.1c1.3-1.6,2.7-3.1,4.1-4.6c1.9-2,3.9-3.8,6.2-5.5c1-0.7,2-1.4,3.1-2c1.5-0.8,3-1.6,4.7-2.1
		c1.5-0.5,3-0.9,4.6-1.1c0.7-0.1,1.5-0.1,2.2-0.1c0.3,0,0.5,0,0.7-0.2c1.5,0,3,0,4.6,0c0.1,0.1,0.2,0.2,0.4,0.2c1,0.1,2,0.3,3,0.6
		c2.3,0.6,4.3,1.6,6.3,2.7c1.9,1.1,3.6,2.4,5.2,3.8c2.5,2.2,4.8,4.6,6.8,7.2c0.5,0.7,1,1.3,2,1.6c0.8,0.2,1.7,0.4,2.5,0.6
		c1.6,0.4,3.3,0.6,4.9,1.2c1.1,0.4,2.2,0.8,3.1,1.4c1.6,1.2,2.9,2.6,4,4.1c0.1,0,0.1,0.1,0.2,0.1c0,0,0,0,0,0c0,0.1,0,0.2,0.1,0.3
		c0.9,1.3,1.6,2.7,2.3,4.1c0.7,1.3,1.2,2.6,2,3.8C147.8,115.8,147.6,116,147.9,116.1z M72.8,104.9c-0.3,0.1-0.7,0.1-1,0.2
		c-1.7,0.8-3.2,1.9-4.2,3.3c-0.2,0.2-0.5,0.4-0.6,0.6c-1.1,1.5-1.8,3.2-2.4,4.9c-0.1,0.2-0.3,0.4,0.1,0.5c0.3,0.1,0.5-0.1,0.6-0.4
		c0.3-0.7,0.7-1.4,1.1-2c1-1.6,2.2-3.1,3.8-4.2c1.6-1.1,3.5-1.7,5.6-1.7c0.5,0,1,0.1,1.4-0.2c0.2-0.2,0.4-0.3,0.4-0.6
		c-0.1-0.2-0.3-0.4-0.6-0.4c-0.6-0.1-1.2-0.4-1.8-0.6C74.3,104.3,73.5,104.4,72.8,104.9z M99.5,101.3c0,0.1,0.1,0.2,0.3,0.2
		c2,0,4,0.1,6,0c1.7,0,3.4,0,5.1,0c0.1,0.1,0.2,0.2,0.3,0.2c2.3,0,4.5,0.1,6.8,0c1.5,0,3,0,4.6,0c-0.4-0.9-0.5-1.8-0.2-2.7
		c0.1,0.4,0.1,0.8,0.3,1.2c0.2,0.3,0.3,0.5,0.7,0.5c0.4,0,0.7-0.1,0.8-0.5c0.3-0.5,0.2-0.9,0.2-1.4c0-0.4-0.2-0.8-0.6-1
		c-0.4-0.2-0.6,0.2-0.9,0.3c0,0-0.1,0-0.1,0c-0.6-0.7-1.1-1.3-1.7-1.9c-1.4-1.5-2.8-2.9-4.4-4.2c-1.3-1-2.6-1.9-4-2.7
		c-1.6-0.9-3.3-1.6-5.1-2.1c-1.5-0.4-2.9-0.6-4.4-0.8c-1.8-0.2-3.7-0.1-5.5,0.3c-0.5,0.1-0.6,0.2-0.6,0.7c0.1,3.3,0.2,6.7,0.3,10
		c0,1.1,0.1,2.3,0.1,3.4c0,0.3,0.1,0.4,0.5,0.4C98.5,101.3,99,101.3,99.5,101.3z M126.5,100.4c-0.2,0.5-0.2,1,0,1.5
		c0.2,0.4,0,0.5-0.5,0.5c-0.5,0-0.9,0.1-1.3,0.3c-0.2,0.1-0.4,0.2-0.5,0.1c-1.2-0.7-2.7-0.4-4-0.5c-3.4-0.3-6.9,0-10.3-0.3
		c-4-0.3-8.1,0-12.2-0.2c-0.6,0-0.8-0.2-0.8-0.7c0-0.6,0-1.3,0-1.9c0-0.4-0.3-0.6-0.8-0.6c-0.5,0-0.4,0.3-0.5,0.6
		c0,0.4-0.1,0.7-0.1,1.1c0,2,0,3.9,0,5.9c0,0.6,0.2,0.8,0.9,0.8c9.8,0,19.6,0,29.5,0c0.6,0,0.9-0.2,1.3-0.5c1.6-1.7,3.5-3,6-3.4
		c0.2,0,0.4,0,0.4-0.2c0-0.2-0.3-0.3-0.5-0.3c-1.7-0.3-3.4-0.5-5-1.2C127.4,101.1,127.1,100.6,126.5,100.4z M94.1,87.8
		c-0.1,0-0.2,0.2-0.3,0.2c-1.6,0.4-3,1.3-4.4,2.1c-1.9,1.2-3.6,2.6-5.1,4.1c-1.9,1.9-3.6,4-5,6.2c-0.3,0.6-0.1,0.6,0.4,0.6
		c0.1,0,0.1,0,0.2,0c4.4,0,8.9,0.1,13.3,0.2c0.4,0,0.5-0.1,0.5-0.5c0.1-2.9,0.2-5.7,0.3-8.6C94.1,90.7,94.1,89.3,94.1,87.8z
		 M72.8,103.7c0.4,0.1,0.6,0,0.9,0c2-0.2,4-0.2,5.9,0.7c1.4,0.7,2.7,1.6,3.7,2.7c0.2,0.2,0.3,0.4,0.6,0.3c0.6-0.1,1.2-0.1,1.8-0.1
		c3,0,6,0,9.1,0c0.3,0,0.7,0.1,0.7-0.4c0-2.7,0-5.3,0-8c0-0.4-0.2-0.4-0.5-0.4c-0.3,0-0.5,0-0.6,0.4c0,0.6-0.1,1.2-0.1,1.8
		c0,0.5-0.2,0.7-0.8,0.7c-5,0-10,0-15,0c-0.3,0-0.5,0.1-0.8-0.1c0.5-0.7,0.9-1.5,1.2-2.3c0.1-0.2,0.2-0.4-0.1-0.5
		c-0.6,0-1.2-0.2-1.6,0.3c-0.4,0.5-0.9,1-1.3,1.5C74.7,101.6,73.9,102.8,72.8,103.7z M136.4,105.9c0.3-0.1,0.6,0,0.9-0.2
		c0.4-0.3,0.6-0.5,0-0.8c-1.2-0.7-2.4-1-3.8-0.9c-1.9,0.1-3.4,0.9-4.7,2c-2.2,1.8-3.6,4.1-4.5,6.7c-0.1,0.2-0.3,0.6-0.1,0.7
		c0.3,0.1,0.6-0.2,0.8-0.5c0-0.1,0.1-0.1,0.1-0.2c1.1-1.7,2.2-3.4,4-4.8c1.6-1.3,3.3-2,5.5-2C135.2,105.9,135.8,105.8,136.4,105.9z"
		/>
	<path class="st12" d="M122.5,99c-0.4,0.9-0.2,1.8,0.2,2.7c-1.6,0-3.1,0-4.6,0c0-0.2-0.2-0.2-0.4-0.2c-2.3,0-4.5,0-6.8,0
		c-1.7,0-3.4,0-5.1,0c0-0.2-0.2-0.2-0.4-0.2c-2,0-4-0.1-5.9,0c-0.5,0-1,0-1.6,0c-0.4,0-0.5-0.1-0.5-0.4c0-1.1-0.1-2.3-0.1-3.4
		c-0.1-3.3-0.2-6.7-0.3-10c0-0.4,0.1-0.6,0.6-0.7c1.8-0.3,3.7-0.4,5.5-0.3c1.5,0.1,3,0.4,4.4,0.8c1.8,0.5,3.5,1.2,5.1,2.1
		c1.4,0.8,2.8,1.7,4,2.7c1.6,1.3,3.1,2.7,4.4,4.2c0.6,0.6,1.1,1.3,1.7,1.9C122.8,98.5,122.5,98.7,122.5,99z"/>
	<path class="st13" d="M67.8,131.2c-0.5-1.5-1-3-1.1-4.6c0-0.5-0.4-0.3-0.7-0.4c0-2.1,0.4-4.1,1-6.2c0.3-1.1,0.8-2.2,1.3-3.2
		c0.1-0.2,0.1-0.4,0.1-0.5c0.3,0,0.3-0.3,0.5-0.4c1.6-2.4,3.9-3.6,7-3.7c0.4,0,0.8,0.1,1.2,0.1c1.7,0.3,3.1,1.3,4.2,2.4
		c0.9,1,1.6,2.3,2.2,3.5c1.7,3.6,2,7.4,1.4,11.3c-0.7-0.2-1,0.1-1,0.7c0,0.4-0.2,0.7-0.3,1.1c-0.4,0.7-0.7,1.5-1.2,2.2
		c-1,1.5-2.1,2.8-3.9,3.6c-2.2,1-4.7,0.8-6.6-0.5c-1.1-0.8-1.9-1.8-2.7-2.8c0-0.4-0.4-0.6-0.6-0.9C68.3,132.3,68.2,131.7,67.8,131.2
		z M82,124.3c0-1-0.1-2-0.3-3c-0.2-0.8-0.4-1.5-0.8-2.2c-0.7-1.4-1.6-2.7-3.2-3.5c-1.8-0.9-3.4-0.5-4.7,0.3c-1.2,0.8-2,2-2.6,3.2
		c-1.1,2.5-1.3,5.1-0.9,7.7c0.4,2.1,1.2,4.1,3.1,5.7c1.6,1.3,3.6,1.5,5.4,0.5c0.9-0.5,1.5-1.2,2.1-1.9C81.5,128.9,82,126.6,82,124.3
		z"/>
	<path class="st13" d="M145.4,127.6c0,0.1,0,0.3-0.2,0.3c-0.7-0.1-0.7,0.3-0.7,0.7c-0.4,1.2-0.7,2.4-1.1,3.5c-1,2-2.2,3.8-4.4,5
		c-1.8,1-3.8,1.1-5.6,0.3c-1.8-0.7-3-2-4-3.5c-0.6-0.8-0.9-1.8-1.4-2.6c-0.1-0.5-0.3-1-0.4-1.5c-0.1-0.2-0.2-0.2-0.4-0.3
		c-0.2-2.5-0.2-4.9,0.1-7.4c0.1-1.2,0.5-2.4,0.9-3.6c1-2.6,2.3-5,5.4-6.2c1.4-0.6,2.7-0.6,4.2-0.2c0.9,0.2,1.7,0.7,2.6,1.1
		c0.5,0.6,1.2,1.1,1.6,1.7c1.5,2,2.3,4.2,2.7,6.5c0.3,1.9,0.4,3.7,0.4,5.6C144.8,127.4,145.1,127.6,145.4,127.6z M132.3,116.9
		L132.3,116.9c-0.5,0.2-0.7,0.6-0.9,1c-2.1,3.5-2.4,7.2-1.1,10.9c0.7,1.9,1.7,3.7,4,4.6c1.1,0.5,3.1,0.3,4.1-0.4
		c1.9-1.3,2.9-3.1,3.4-5.2c0.7-2.7,0.6-5.4-0.4-8.1c-0.7-1.8-1.8-3.5-3.9-4.3c-0.6-0.3-1.3-0.5-2-0.3c-0.6,0.2-1.2,0.4-1.8,0.6
		c-0.2,0.1-0.5,0.2-0.4,0.5c0,0-0.1,0-0.1,0C132.6,116.3,132.4,116.6,132.3,116.9z"/>
	<path class="st14" d="M126.5,100.4c0.6,0.1,0.9,0.6,1.4,0.9c1.6,0.7,3.3,1,5,1.2c0.2,0,0.5,0.1,0.5,0.3c0,0.2-0.2,0.2-0.4,0.2
		c-2.5,0.4-4.4,1.7-6,3.4c-0.4,0.4-0.7,0.5-1.3,0.5c-9.8,0-19.6,0-29.5,0c-0.7,0-0.9-0.2-0.9-0.8c0-2,0-3.9,0-5.9
		c0-0.4,0.1-0.7,0.1-1.1c0-0.3,0-0.5,0.5-0.6c0.5,0,0.7,0.2,0.8,0.6c0,0.6,0.1,1.3,0,1.9c0,0.6,0.2,0.7,0.8,0.7
		c4.1,0.2,8.1-0.1,12.2,0.2c3.4,0.2,6.9,0,10.3,0.3c1.3,0.1,2.8-0.2,4,0.5c0.2,0.1,0.4,0,0.5-0.1c0.4-0.2,0.8-0.3,1.3-0.3
		c0.4,0,0.7-0.1,0.5-0.5C126.3,101.4,126.4,100.9,126.5,100.4z"/>
	<path class="st12" d="M94.1,87.8c0,1.5,0,2.9,0,4.4c-0.1,2.9-0.2,5.7-0.3,8.6c0,0.3-0.1,0.5-0.5,0.5c-4.4-0.1-8.9-0.1-13.3-0.2
		c-0.1,0-0.1,0-0.2,0c-0.5,0-0.8,0-0.4-0.6c1.4-2.3,3.1-4.3,5-6.2c1.5-1.6,3.2-2.9,5.1-4.1c1.3-0.9,2.7-1.7,4.4-2.1
		C93.9,88,93.9,87.8,94.1,87.8z"/>
	<path class="st14" d="M72.8,103.7c1.2-0.9,1.9-2.1,2.9-3.2c0.5-0.5,0.9-1,1.3-1.5c0.4-0.6,1.1-0.4,1.6-0.3c0.3,0,0.2,0.3,0.1,0.5
		c-0.3,0.8-0.7,1.6-1.2,2.3c0.3,0.1,0.5,0.1,0.8,0.1c5,0,10,0,15,0c0.6,0,0.8-0.1,0.8-0.7c0-0.6,0.1-1.2,0.1-1.8
		c0-0.4,0.2-0.4,0.6-0.4c0.3,0,0.5,0,0.5,0.4c0,2.7,0,5.3,0,8c0,0.5-0.4,0.4-0.7,0.4c-3,0-6,0-9.1,0c-0.6,0-1.2-0.1-1.8,0.1
		c-0.3,0.1-0.5-0.1-0.6-0.3c-1-1.1-2.3-2-3.7-2.7c-1.8-0.9-3.8-0.9-5.9-0.7C73.4,103.8,73.1,103.8,72.8,103.7z"/>
	<path class="st15" d="M127.1,129.5c0.2,0,0.3,0,0.4,0.3c0.1,0.5,0.3,1,0.4,1.5c-0.3,0.1-0.6,0.1-0.9,0.1c-14.2,0-28.4,0-42.5,0
		c-0.3,0-0.7,0-1-0.1c0.1-0.4,0.3-0.7,0.3-1.1c0.1-0.6,0.3-0.9,1-0.7c2.9,0.3,5.8,0.2,8.7,0.2c1.8,0,3.5,0.1,5.3,0
		c7.6-0.4,15.2-0.1,22.8-0.2C123.4,129.5,125.2,129.5,127.1,129.5z"/>
	<path class="st14" d="M136.4,105.9c-0.6-0.1-1.2-0.1-1.8-0.1c-2.1,0-3.9,0.8-5.5,2c-1.7,1.4-2.8,3.1-4,4.8c0,0.1-0.1,0.1-0.1,0.2
		c-0.2,0.3-0.5,0.6-0.8,0.5c-0.2-0.1,0-0.4,0.1-0.7c0.8-2.6,2.2-4.8,4.5-6.7c1.3-1.1,2.8-1.9,4.7-2c1.4-0.1,2.6,0.2,3.8,0.9
		c0.6,0.3,0.4,0.5,0,0.8C137,105.9,136.7,105.9,136.4,105.9z"/>
	<path class="st14" d="M72.8,104.9c0.7-0.5,1.5-0.6,2.4-0.4c0.6,0.1,1.1,0.5,1.8,0.6c0.3,0,0.5,0.2,0.6,0.4c0.1,0.3-0.2,0.4-0.4,0.6
		c-0.4,0.3-0.9,0.2-1.4,0.2c-2.1,0-4,0.6-5.6,1.7c-1.6,1.1-2.8,2.6-3.8,4.2c-0.4,0.6-0.8,1.3-1.1,2c-0.1,0.2-0.3,0.4-0.6,0.4
		c-0.3-0.1-0.1-0.3-0.1-0.5c0.5-1.7,1.3-3.4,2.4-4.9c0.2-0.2,0.4-0.4,0.6-0.6c0.2,0,0.4-0.1,0.6-0.2c0.8-0.5,1.7-1,2.5-1.5
		c0.7-0.5,1.5-0.9,2.2-1.4C72.9,105.2,73.3,105.1,72.8,104.9z"/>
	<path class="st14" d="M140.1,113.2c-0.9-0.4-1.6-0.9-2.6-1.1c-1.4-0.4-2.8-0.4-4.2,0.2c-3,1.3-4.4,3.6-5.4,6.2
		c-0.4,1.2-0.8,2.3-0.9,3.6c-0.5-0.1-0.3-0.5-0.2-0.7c0.2-2.1,0.7-4.1,1.7-5.9c0.9-1.7,2.1-3.1,4-4c2.7-1.3,5.1-1,7.4,1.2
		C140.2,112.8,140.4,113,140.1,113.2z"/>
	<path class="st15" d="M143.3,107.5c1,0.5,1.6,1.3,2.3,2c1.6,1.8,2.4,3.8,2.1,6.1c-0.8-1.2-1.3-2.6-2-3.8c-0.7-1.4-1.4-2.8-2.3-4.1
		C143.4,107.7,143.3,107.6,143.3,107.5z"/>
	<path class="st14" d="M77.1,112.3c-0.4,0-0.8-0.1-1.2-0.1c-3.1,0.1-5.5,1.3-7,3.7c-0.1,0.2-0.2,0.4-0.5,0.4c-0.3-0.2,0-0.4,0.1-0.6
		c0.7-1.4,1.7-2.7,3.3-3.5c1.6-0.8,3.3-0.8,5.1-0.3C77.1,112,77.1,112.1,77.1,112.3z"/>
	<path class="st15" d="M72.8,104.9c0.5,0.2,0.1,0.3,0,0.5c-0.7,0.5-1.5,0.9-2.2,1.4c-0.8,0.6-1.6,1-2.5,1.5
		c-0.2,0.1-0.4,0.2-0.6,0.2c1.1-1.4,2.6-2.5,4.2-3.3C72.1,105,72.5,105,72.8,104.9z"/>
	<path class="st14" d="M122.5,99c-0.1-0.4,0.3-0.6,0.4-0.9c0,0,0.1,0,0.1,0c0.3-0.1,0.5-0.6,0.9-0.3c0.4,0.2,0.6,0.6,0.6,1
		c0,0.5,0.1,1-0.2,1.4c-0.2,0.3-0.4,0.5-0.8,0.5c-0.4,0-0.6-0.2-0.7-0.5C122.6,99.8,122.6,99.4,122.5,99z M124,99.4
		c0-0.4-0.1-0.9-0.5-0.9c-0.3,0-0.5,0.4-0.5,0.7c0,0.3,0,0.8,0.5,0.8C124,100,124,99.6,124,99.4z"/>
	<path class="st14" d="M110.9,101.5c2.3,0,4.5,0,6.8,0c0.2,0,0.3,0,0.4,0.2c-2.3,0.1-4.5,0-6.8,0C111.1,101.7,111,101.7,110.9,101.5
		z"/>
	<path class="st14" d="M99.5,101.3c2-0.1,4,0,5.9,0c0.2,0,0.3,0,0.4,0.2c-2,0.1-4,0-6,0C99.7,101.5,99.6,101.4,99.5,101.3z"/>
	<path class="st15" d="M143.2,107.4c0.1,0,0.1,0.1,0.2,0.1C143.3,107.5,143.2,107.5,143.2,107.4z"/>
	<path class="st15" d="M82,124.3c0,2.4-0.6,4.6-1.9,6.7c-0.5,0.8-1.2,1.4-2.1,1.9c-1.8,1-3.7,0.8-5.4-0.5c-1.9-1.5-2.7-3.5-3.1-5.7
		c-0.5-2.6-0.3-5.2,0.9-7.7c0.6-1.2,1.3-2.4,2.6-3.2c1.3-0.8,2.9-1.2,4.7-0.3c1.6,0.8,2.5,2.1,3.2,3.5c0.3,0.7,0.6,1.4,0.8,2.2
		C81.9,122.2,82,123.2,82,124.3z M80.2,120.2c0-0.4-0.1-0.8-0.4-1c-0.2-0.2-0.4-0.3-0.7-0.2c-0.8,0.4-1.2,1.4-0.9,2.2
		c0.3,0.6,0.9,0.8,1.5,0.3C80,121,80.1,120.6,80.2,120.2z M73.1,120.3c0-0.4-0.2-0.9-0.5-1.3c-0.2-0.3-0.5-0.3-0.8-0.2
		c-0.2,0-0.5,0-0.5,0.3c-0.1,0.6-0.2,1.2,0.2,1.8c0.2,0.4,0.4,0.9,0.9,1C72.7,121.9,73.1,121.1,73.1,120.3z M81,125.8
		c0-0.4-0.1-0.8-0.3-1.1c-0.2-0.3-0.6-0.5-1-0.5c-0.3,0-0.7,0.3-0.7,0.7c-0.2,0.7,0,1.3,0.5,1.8c0.4,0.4,1,0.4,1.3-0.1
		C80.9,126.3,81,126,81,125.8z M76.5,117.6c0-0.4-0.1-0.7-0.3-1.1c-0.2-0.4-0.8-0.4-1.1-0.1c-0.5,0.6-0.5,2-0.1,2.6
		c0.3,0.4,0.7,0.4,1,0C76.4,118.7,76.5,118.2,76.5,117.6z M78.5,130.3c0-0.7-0.1-1.2-0.5-1.7c-0.4-0.5-0.7-0.5-1.1,0.1
		c-0.5,0.7-0.3,1.5,0,2.2c0.2,0.4,0.4,0.5,0.8,0.5c0.4,0,0.5-0.3,0.6-0.6C78.5,130.6,78.5,130.4,78.5,130.3z M72.4,125.5
		c0-0.7-0.5-1.4-1.1-1.3c-0.6,0-1.1,0.6-1.1,1.3c0,0.7,0.5,1.2,1.2,1.2C71.9,126.7,72.4,126.2,72.4,125.5z M72.6,130.3
		c0,0.1,0,0.4,0.1,0.6c0.2,0.5,0.9,0.6,1.2,0.2c0.6-0.6,0.8-1.4,0.5-2.2c-0.2-0.6-0.8-0.7-1.3-0.2C72.8,129.2,72.7,129.7,72.6,130.3
		z"/>
	<path class="st15" d="M133.2,116.2c-0.1-0.3,0.1-0.4,0.4-0.5c0.6-0.2,1.2-0.5,1.8-0.6c0.7-0.2,1.4,0.1,2,0.3
		c2.1,0.9,3.2,2.5,3.9,4.3c1.1,2.7,1.1,5.4,0.4,8.1c-0.5,2-1.5,3.8-3.4,5.2c-1,0.7-3,0.8-4.1,0.4c-2.2-0.9-3.3-2.7-4-4.6
		c-1.3-3.7-1.1-7.4,1.1-10.9c0.2-0.4,0.4-0.8,0.9-1c0.2,0.2,0.1,0.3,0,0.5c-0.1,0.1-0.4,0.2-0.2,0.4c0.1,0.2,0.4,0.1,0.6,0.1
		c0.8-0.1,1.5-0.2,2.3-0.4c0.1,0.5,0,1,0.2,1.4c0.1,0.2,0.2,0.5,0.6,0.5c0.3,0,0.6-0.1,0.7-0.4c0.3-0.5,0.3-1.1,0.4-1.6
		c0.6-0.1,1.2-0.2,1.8-0.3c0.5-0.1,0.4-0.2,0.2-0.5c-1-1.2-3.4-1.4-4.6-0.8C133.8,116.1,133.6,116.4,133.2,116.2z M133.3,120.8
		c0-0.7-0.2-1.3-0.7-1.7c-0.4-0.4-0.9-0.3-1.1,0.2c-0.2,0.6-0.2,1.1,0.1,1.6c0.2,0.4,0.4,1,1.1,0.9
		C133.3,121.7,133.2,121.1,133.3,120.8z M140.4,120.3c-0.1-0.2-0.1-0.5-0.2-0.7c-0.2-0.3-0.4-0.6-0.9-0.5c-1,0.4-1.4,1.7-0.7,2.5
		c0.3,0.3,0.8,0.3,1.1,0C140.1,121.3,140.4,120.8,140.4,120.3z M130.3,125.6c0,0.7,0.5,1.3,1.1,1.3c0.6,0,1.1-0.5,1.2-1.2
		c0-0.7-0.5-1.3-1.1-1.3C130.8,124.3,130.3,124.9,130.3,125.6z M141.2,126c0-0.6-0.2-0.9-0.4-1.2c-0.3-0.3-0.6-0.4-1-0.4
		c-0.4,0-0.5,0.3-0.6,0.6c-0.2,0.4-0.1,0.9,0.1,1.3c0.2,0.5,0.6,0.9,1.3,0.7C141.1,126.8,141.1,126.3,141.2,126z M134.8,129.8
		c0-0.2-0.1-0.4-0.1-0.6c0-0.3-0.3-0.5-0.6-0.6c-0.3-0.1-0.6,0.1-0.7,0.3c-0.5,0.7-0.7,1.5-0.4,2.3c0.2,0.5,0.6,0.6,1.1,0.2
		C134.6,131,134.7,130.4,134.8,129.8z M138.7,130.4c0-0.5-0.1-1-0.4-1.4c-0.1-0.2-0.3-0.5-0.7-0.5c-0.3,0-0.5,0.3-0.6,0.6
		c-0.2,0.7-0.2,1.3,0.1,1.9c0.2,0.3,0.4,0.7,0.9,0.6c0.5-0.1,0.6-0.4,0.6-0.8C138.7,130.7,138.7,130.5,138.7,130.4z"/>
	<path class="st12" d="M133.2,116.2c0.4,0.2,0.7-0.2,0.9-0.3c1.2-0.6,3.7-0.4,4.6,0.8c0.2,0.3,0.3,0.4-0.2,0.5
		c-0.6,0.1-1.2,0.2-1.8,0.3c-0.1-0.3-0.1-0.6-0.3-0.8c-0.3-0.5-0.8-0.5-1.2,0c-0.2,0.3-0.3,0.6-0.4,1c-0.8,0.1-1.5,0.3-2.3,0.4
		c-0.2,0-0.5,0.1-0.6-0.1c-0.1-0.2,0.1-0.3,0.2-0.4c0.1-0.2,0.2-0.3,0-0.5c0,0,0,0,0,0c0.6,0.1,0.8-0.2,0.8-0.6
		C133.1,116.2,133.2,116.2,133.2,116.2z"/>
	<path class="st15" d="M133.1,116.3c0,0.4-0.2,0.7-0.8,0.6C132.4,116.6,132.6,116.3,133.1,116.3z"/>
	<path class="st15" d="M124,99.4c-0.1,0.2-0.1,0.7-0.5,0.6c-0.5,0-0.5-0.4-0.5-0.8c0-0.3,0.1-0.8,0.5-0.7
		C124,98.5,124.1,98.9,124,99.4z"/>
	<path class="st13" d="M80.2,120.2c-0.1,0.4-0.1,0.9-0.6,1.2c-0.6,0.5-1.2,0.4-1.5-0.3c-0.3-0.7,0.2-1.8,0.9-2.2
		c0.3-0.2,0.5,0,0.7,0.2C80.1,119.4,80.2,119.7,80.2,120.2z"/>
	<path class="st13" d="M73.1,120.3c0,0.7-0.5,1.6-0.8,1.5c-0.5-0.1-0.7-0.6-0.9-1c-0.3-0.6-0.2-1.2-0.2-1.8c0-0.3,0.3-0.3,0.5-0.3
		c0.3-0.1,0.6,0,0.8,0.2C73,119.4,73.2,119.9,73.1,120.3z"/>
	<path class="st13" d="M81,125.8c0,0.3-0.1,0.5-0.2,0.7c-0.3,0.5-0.9,0.5-1.3,0.1c-0.5-0.5-0.7-1.1-0.5-1.8c0.1-0.4,0.4-0.6,0.7-0.7
		c0.4,0,0.8,0.2,1,0.5C80.9,125,81,125.4,81,125.8z"/>
	<path class="st13" d="M76.5,117.6c0,0.5-0.1,1-0.5,1.5c-0.3,0.4-0.7,0.4-1,0c-0.4-0.6-0.4-2.1,0.1-2.6c0.3-0.3,0.9-0.3,1.1,0.1
		C76.5,116.9,76.6,117.2,76.5,117.6z"/>
	<path class="st13" d="M78.5,130.3c0,0.1-0.1,0.3-0.1,0.5c-0.1,0.3-0.2,0.6-0.6,0.6c-0.5,0-0.7-0.2-0.8-0.5c-0.3-0.7-0.5-1.5,0-2.2
		c0.3-0.6,0.7-0.6,1.1-0.1C78.4,129.1,78.5,129.6,78.5,130.3z"/>
	<path class="st13" d="M72.4,125.5c0,0.7-0.5,1.2-1.1,1.2c-0.7,0-1.2-0.5-1.2-1.2c0-0.7,0.5-1.3,1.1-1.3
		C71.9,124.1,72.4,124.7,72.4,125.5z"/>
	<path class="st13" d="M72.6,130.3c0-0.6,0.1-1.1,0.5-1.6c0.5-0.5,1.1-0.4,1.3,0.2c0.2,0.8,0,1.5-0.5,2.2c-0.3,0.4-1,0.3-1.2-0.2
		C72.7,130.7,72.7,130.5,72.6,130.3z"/>
	<path class="st13" d="M134.9,117.6c0.1-0.3,0.2-0.7,0.4-1c0.3-0.5,0.9-0.5,1.2,0c0.1,0.3,0.2,0.5,0.3,0.8c-0.1,0.6-0.1,1.1-0.4,1.6
		c-0.1,0.3-0.4,0.4-0.7,0.4c-0.4,0-0.5-0.2-0.6-0.5C134.9,118.5,135,118.1,134.9,117.6z"/>
	<path class="st13" d="M133.3,120.8c-0.1,0.3,0,1-0.6,1.1c-0.7,0.1-0.9-0.5-1.1-0.9c-0.2-0.5-0.3-1.1-0.1-1.6
		c0.2-0.5,0.7-0.6,1.1-0.2C133.1,119.5,133.3,120,133.3,120.8z"/>
	<path class="st13" d="M140.4,120.3c0,0.6-0.3,1-0.7,1.4c-0.3,0.3-0.9,0.3-1.1,0c-0.7-0.8-0.3-2.1,0.7-2.5c0.5-0.2,0.7,0.1,0.9,0.5
		C140.3,119.8,140.3,120.1,140.4,120.3z"/>
	<path class="st13" d="M130.3,125.6c0-0.8,0.5-1.3,1.2-1.3c0.6,0,1.1,0.6,1.1,1.3c0,0.7-0.5,1.2-1.2,1.2
		C130.8,126.9,130.3,126.3,130.3,125.6z"/>
	<path class="st13" d="M141.2,126c-0.1,0.3,0,0.8-0.7,1c-0.7,0.1-1.1-0.2-1.3-0.7c-0.2-0.4-0.3-0.8-0.1-1.3c0.1-0.3,0.2-0.6,0.6-0.6
		c0.4,0,0.8,0.1,1,0.4C141,125.1,141.2,125.5,141.2,126z"/>
	<path class="st13" d="M134.8,129.8c-0.1,0.6-0.2,1.2-0.7,1.6c-0.5,0.4-0.9,0.3-1.1-0.2c-0.3-0.8-0.1-1.6,0.4-2.3
		c0.1-0.2,0.4-0.4,0.7-0.3c0.3,0.1,0.6,0.2,0.6,0.6C134.7,129.4,134.7,129.6,134.8,129.8z"/>
	<path class="st13" d="M138.7,130.4c0,0.1,0,0.3-0.1,0.4c-0.1,0.3-0.2,0.7-0.6,0.8c-0.5,0.1-0.7-0.3-0.9-0.6
		c-0.3-0.6-0.3-1.3-0.1-1.9c0.1-0.3,0.2-0.5,0.6-0.6c0.4-0.1,0.6,0.2,0.7,0.5C138.6,129.4,138.7,129.9,138.7,130.4z"/>
</g>
</svg>
