<svg id="Layer_1" data-name="Layer 1" xmlns="http://www.w3.org/2000/svg" width="311.2" height="308" viewBox="0 0 311.2 308">
  <defs>
    <style>
      .cls-1 {
        fill: #fff;
      }

      .cls-2 {
        fill: #4eb04d;
      }

      .cls-3 {
        fill: #969696;
      }

      .cls-4 {
        fill: #35b131;
      }

      .cls-5 {
        fill: #5cd963;
      }

      .cls-6 {
        fill: #3cb9ea;
      }
    </style>
  </defs>
  <title>Artboard 1</title>
  <g>
    <path class="cls-1" d="M311.7,308.6H.2V.2H311.7Z"/>
    <path class="cls-2" d="M41,133c-1.3-.8-1.6-2.2-2.3-3.4a1.1,1.1,0,0,1,0-.8c.9-3.4.3-3.2,3.6-4.6a2.7,2.7,0,0,1,1.9-.2l1.2.2a.3.3,0,0,0,.3.1h.7a21.5,21.5,0,0,0,3,1.1l1.7.7c.8.3,1.3-.2,1.8-.7s.2-1-.1-1.4a6.4,6.4,0,0,0-1-1.8,42.1,42.1,0,0,1-2-5.4,5.9,5.9,0,0,1,2.3-6.3,2,2,0,0,1,1.8-.3,22.6,22.6,0,0,1,3,1.1,18.7,18.7,0,0,1,2.8,4.5c.8,1.6,1.6,3.4,2.6,4.9a6.5,6.5,0,0,1,.8,1.5c.4,1.3,1.3,2.2,1.8,3.4a.6.6,0,0,0,.9.4c.8-.4,1.8-.5,2.5-1.2h.4a.3.3,0,0,0,.3-.2l6.8-3a10.6,10.6,0,0,1,3-.9.5.5,0,0,0,.6-.2h1c.4.1.8.2,1.1-.2h3.4a52.4,52.4,0,0,1,8.4.6c4.3.6,8.5,1.5,12.7,2.4s7.6,2.7,11.5,3.9c2.3.7,2,1,3.5-1.2v-.2l.7-.9a35.4,35.4,0,0,1,7-7.7l2.5-2.4c4.3-4.2,8.7-8.4,13.1-12.5s7.1-6.2,10.7-9.2l.5-.4a1.2,1.2,0,0,0,.4-1.6c-.9-2.2-1.6-4.5-2.6-6.8-2.4-5.5-3.6-11.4-4.8-17.3a65.8,65.8,0,0,1-1.2-11.4c0-2.1.4-4.1.5-6.2,0-.4.3-.7.5-1l3.2-7.8c.3-.6.4-1.3.6-1.9a1.3,1.3,0,0,0,.5-.9c.3-.9.3-1-.6-1.4l-1.6-.7-9.2-4.6c-.4-.2-.8-.5-1.3-.5h0a.2.2,0,0,0-.3-.2,5.1,5.1,0,0,1-2.6-3.2,7.1,7.1,0,0,0-.5-1.5,1.5,1.5,0,0,1,.3-1.9,7,7,0,0,1,5.7-2.2c.5.4,1.1.3,1.7.5a46.6,46.6,0,0,1,5.6,2.3,3.2,3.2,0,0,0,1.6.4c.9-.1,1.3-.6,1-1.5a16.1,16.1,0,0,0-1.4-3.2c-.4-1.3-.9-2.6-1.1-4a3.4,3.4,0,0,1,.2-2.1c1.4-3.2.5-2.4,3.7-3.4h.5a5.1,5.1,0,0,1,5.1,4.2c.3,1.2,1.2,2,1.8,3.1a1.7,1.7,0,0,0,.6.5c.4.3.8.2,1-.3l1.4-4a20.1,20.1,0,0,1,1.7-2.7l.8-1a2.6,2.6,0,0,1,2.5-.8h1.1c.3.3.7.3,1.1.2a2.8,2.8,0,0,1,1.5.4,10.6,10.6,0,0,1,1.9,4.7,8.7,8.7,0,0,1-.4,5.2c-.6,1.5-1.5,2.8-2.2,4.2a8.7,8.7,0,0,0-1.3,4c0,1.1.4,1.5,1.5,1.5h4.5c.2.3.5.3.8.2h1.5a.3.3,0,0,0,.3.1l1.2.2,1.7,1.7a6.6,6.6,0,0,1,1.8,2.9,4.5,4.5,0,0,1-3,5.6,8.3,8.3,0,0,1-3.1.6h-8.9c-3.7.1-5,2.2-5.6,4.9a20,20,0,0,0,.1,7.6,55.9,55.9,0,0,0,3.1,12.3,65.6,65.6,0,0,0,5.2,10.8,9.7,9.7,0,0,0,3.1,3.3c.3.2.5.4.8.2s1.7-.5,2.3-1.1c7.5-3.6,15.1-7.1,21.9-11.9,1.4-1,2.7-2,4-3.1a16.5,16.5,0,0,0,3.6-4.5l13.2-22.5a57.5,57.5,0,0,1,5.8-7.8c3.8-4.5,8.1-8.4,12.2-12.5a4.7,4.7,0,0,1,1.2-.8l6.8-3.4a43,43,0,0,1,10.4-3.8c5.1-1.1,10.3-2.1,15.5-2.7a64.9,64.9,0,0,1,6.7-.5,30.4,30.4,0,0,0,4.8,0h2.8c.2.3.5.3.8.2h1.5c.2.3.5.3.9.2h.7l.4.3A21.6,21.6,0,0,1,299.4,9a7.1,7.1,0,0,1,3.6,4.2,1.9,1.9,0,0,0,.3.7,6.9,6.9,0,0,1,1.2,4.4,75.5,75.5,0,0,1-.7,14.3c-.5,2.8-.9,5.5-1.5,8.2a70.9,70.9,0,0,1-4.6,13.4,41.7,41.7,0,0,1-6.3,9.7,35.4,35.4,0,0,1-8.1,7,52.8,52.8,0,0,1-9.6,4.5l-5.3,2c-3,1.1-6,1.9-9,2.7l-13.1,3c-3.9,1-7.8,2-11.7,3.3a77,77,0,0,0-11.6,5,11.2,11.2,0,0,0-5.8,6.9c-.6,1.8-1.3,3.7-2,5.4s-2.2,5.6-3.5,8.3a22.5,22.5,0,0,0-1.7,4.6,5.2,5.2,0,0,0,2.3,5.4c2.2,1.3,4.5,2.2,6.7,3.3a55.5,55.5,0,0,0,14.7,4.4,17.2,17.2,0,0,0,5.4.5h1.7c.3.1.6.1.8-.2a28.9,28.9,0,0,0,4.4-.9c.6-.1.7-.5.7-1s0-4,0-6,0-6.1,0-9.2a2.8,2.8,0,0,1,.7-1.8c1.4-1.9,3.4-2.4,5.5-2.6a5.3,5.3,0,0,1,1.9.7,12.1,12.1,0,0,0,1.1,1.4,3.2,3.2,0,0,1,1,2.2c0,.3,0,.6.3.8s.4.7.5,1.1a18.1,18.1,0,0,1,.5,3.2,19.9,19.9,0,0,0,.3,2.8,4.1,4.1,0,0,0,.9,1.9c.2.3.5.5.7.2s1.3-.5,1.7-1.2a36.9,36.9,0,0,0,5.2-3,8.5,8.5,0,0,1,6.2-1.1c.7.3,1.6.4,2.3.8a3,3,0,0,1,1.4,1.2,15.8,15.8,0,0,1,1.1,3,4,4,0,0,1-1.9,4.6l-3.3,2.3a3.6,3.6,0,0,0-1.4,1.5c-.4.9-.2,1.5.8,1.9l1.4.6a2.8,2.8,0,0,1,1.6,1.4,5.8,5.8,0,0,0,1.4,2,1.2,1.2,0,0,1,.3.6,3.8,3.8,0,0,1-3.4,5.3,7.5,7.5,0,0,1-3.8-.5,4.8,4.8,0,0,0-2.7-.3c-1.6.2-2.7,2.1-2.2,4s.8,2.9,1.1,4.4a4.7,4.7,0,0,1-.7,3.9c-1.3,1.7-2.8,2-4.8,1.5a17.1,17.1,0,0,1-3.1-1.4,6.6,6.6,0,0,1-1.4-2l-3.5-7.1a3.2,3.2,0,0,0-.4-1,20.1,20.1,0,0,1-1-1.9c-.3-1.1-.5-1.2-1.6-1.2h-1.2a23.7,23.7,0,0,0-5,1.8,29.9,29.9,0,0,1-9.2,2.3c-1.2.1-2.3-.2-3.5-.2a59,59,0,0,1-7.7-.9,88.7,88.7,0,0,1-10.2-2.1c-2.1-.5-4.2-1.1-6.2-1.7s-3.5-1.3-5.2-2.1a6.1,6.1,0,0,0-6.8,1.3c-1.9,2-3.7,4.1-5.5,6.2s-3.8,4.1-5.6,6.3-2.4,2.6-3.6,3.9-4.6,4.9-7.1,7.1-3.5,3.4-5.3,5.1a5.5,5.5,0,0,0-1.7,4.1,14.8,14.8,0,0,0,1.1,5.3,66.9,66.9,0,0,1,3.2,9.8c.5,2.7,1.2,5.5,1.6,8.2a62.7,62.7,0,0,1,.9,8.4c0,1.3,0,2.5,0,3.8a21.9,21.9,0,0,1-1.7,8.3c-.6,1.5-1.3,2.9-1.9,4.4a9,9,0,0,0-.8,4.7,2.5,2.5,0,0,0,1.4,2.3l2.3,1.2,6.6,3.6a4.6,4.6,0,0,1,2,2.1,5.6,5.6,0,0,0,.8,1.3,3.2,3.2,0,0,1-.2,4c-1.3,1.5-3,1.5-4.8,1.3a16.8,16.8,0,0,1-4.8-1.4,2.2,2.2,0,0,0-1.6-.1,3.3,3.3,0,0,0-2.2,3.6,27.3,27.3,0,0,0,.6,2.8,5.1,5.1,0,0,1,.2,1.8,4,4,0,0,1-3.1,4,8,8,0,0,1-3.6,0,2.7,2.7,0,0,1-1.7-.9.9.9,0,0,0-.7-.3l-.5-.5c-.4-1-.7-2-1.1-3s-.4-1-1.2-.5l-.7.6a17.9,17.9,0,0,0-2.6,3.3,5.2,5.2,0,0,1-5.5,2.1,7.8,7.8,0,0,0-3-.3,6,6,0,0,1-2-4.2,14.7,14.7,0,0,1,0-3.2,4,4,0,0,1,.5-1.7,34.8,34.8,0,0,0,2.7-4.6c.1-.3.6-.5.7-.9a41.8,41.8,0,0,0,3.2-5.2c-2.1.2-3.9-.3-5.8-.2a43.4,43.4,0,0,1-5.8-.6,3.3,3.3,0,0,1-2.1-1.1,4,4,0,0,0-1.2-1.1,3.2,3.2,0,0,1-.5-2.8,6.5,6.5,0,0,1,3.4-5.1c5,0,10,.1,14.9.5,2.3.2,2.1.6,2.7-2.3a21.7,21.7,0,0,0,.7-10A65.8,65.8,0,0,0,154,199a72.3,72.3,0,0,0-4.1-10.2.8.8,0,0,0-.5-.8h0a7.1,7.1,0,0,0-.7-1.8,2.8,2.8,0,0,0-3.6-1.8,6.9,6.9,0,0,0-2.2.8c-3.5,2.1-6.8,4.3-10.2,6.6l-6.4,4.6c-1.8,1.4-3.6,2.8-5.3,4.3l-5.1,4.2c-2.1,1.8-4.2,3.7-6.3,5.5s-4.5,3.9-6.8,5.9l-6.4,5.6c-2.6,2.4-5.4,4.7-8,7.1l-2.7,2.4c-2.1,1.9-4.2,3.7-6.3,5.6l-3.9,3.6-2.5,2.3-6.6,5.8c-1.3,1.1-2.4,2.4-3.7,3.4s-1.9,1.8-2.9,2.7l-6.3,5.5c-1.4,1.2-2.7,2.6-4.1,3.8l-3,2.8L39.2,273c-3,2.5-5.7,5.3-8.5,7.9l-.9.8c-1.3,1-2.4,2.3-3.8,3.3a48.9,48.9,0,0,0-4.2,4c-2.2,2-4.4,3.9-6.7,5.6a3.3,3.3,0,0,1-2.1.9,1.3,1.3,0,0,0-1,.5l-1.1.9-4.1,3.8a1.1,1.1,0,0,1-1.6-.1,1.3,1.3,0,0,1,.1-1.7l10.6-13.4q10.5-13.4,20.8-27c11.1-14.6,22-29.3,32.5-44.3,6.7-9.6,13.2-19.2,19.1-29.3a121.1,121.1,0,0,0,7.3-14.1,29.9,29.9,0,0,1,2.9-5.3h.2a1.7,1.7,0,0,1-.1.4l-3.3,7.3-1.5,3.4c-.1.2-.2.5.1.7a.5.5,0,0,0,.7-.2,1.5,1.5,0,0,0,.4-.5c.3-1,1.2-1.5,1.9-2.2l1.2-1c1.5-1.4,2.9-2.9,4.5-4.3s3.1-3.1,4.8-4.5,3.2-3.2,4.9-4.6,3-3,4.7-4.4,3-3,4.6-4.3,3-3,4.7-4.4,3.2-3.2,5-4.7,3-3,4.6-4.3,3-3,4.7-4.4,3.3-3.1,5-4.7,5.6-5,8.1-7.8l.2-.2c.8-.4,1.3-1.3,2.2-1.5s0,.3-.1.4l-3.5,4.3-3.4,4.2-4.6,6.4c-2.3,3.1-4.5,6.3-6.9,9.3a49.2,49.2,0,0,1-4.4,5.6q-4.5,4.4-9.1,8.6l-4.6,4.4-9.9,9.3-4.1,3.9-10.1,9.6c-2.5,2.5-5.2,4.8-7.7,7.3l-.4.4a16,16,0,0,0-4.3,4.6c-.6,1.1-1.3,2.1-2,3.1-3.5,5.4-7.2,10.6-10.8,15.9l-3.6,5.2c-1.3,1.9-2.7,3.8-4.1,5.7l-6.8,9.4-8,10.8-8,10.7L31.1,269l-6.2,8.1L16,288.3c-.2.3-.5.6-.2,1.1l3.4-3.2,5.9-5.4,5.6-5.1,8.4-7.6,5.6-5,8.4-7.6,5.4-4.9,7.9-7.1c2.2-1.9,4.2-3.9,6.4-5.8l2.8-2.5c2.1-1.7,4.1-3.7,6.2-5.5l3.4-3c2.6-2.4,5.3-4.6,8-7s3.4-3.2,5.2-4.6l2.5-2.2,4.9-4.2,4.7-4.1,5.8-4.8c2.1-1.7,4.1-3.5,6.3-5.2s5.6-4,8.4-6,6.6-4.3,10-6.5l3.4-2.1a1.5,1.5,0,0,1,2.4.4,13.2,13.2,0,0,0,1.2,1.5,17.3,17.3,0,0,1,3.6,5.2c1.1,2.4,2.1,4.8,3.1,7.2a52,52,0,0,1,3.1,11c.3,2,.5,4,.8,6a20.2,20.2,0,0,1-.3,6,42.2,42.2,0,0,1-1.4,5.5c-.3.9-.5,1.1-1.4,1.1a27.4,27.4,0,0,1-3.7-.2l-4-.2c-2.6-.1-5.3-.1-7.9-.3a2.6,2.6,0,0,0-2.3,1.1,3.3,3.3,0,0,0-.7,3.4,2.9,2.9,0,0,0,2.7,1.8l2.4.2a61.5,61.5,0,0,0,7.3.5h2.6c1.4,0,1.7.6,1,1.8s-1.8,2.9-2.8,4.4l-4.7,7.3a2,2,0,0,0-.4,1.1,23.9,23.9,0,0,0,0,3.2c.1,1,.4,2,1.7,2.2l1.8.3c.4.1.6-.1.9-.4a7.4,7.4,0,0,0,1.4-2,44.2,44.2,0,0,0,3.5-9.2l1.5-5.3c.2-.6.5-1.1,1.2-1s.8.5,1,1.1.5,3,.7,4.6.7,4.7,1.1,7.1a10.1,10.1,0,0,0,.7,2.7,3,3,0,0,0,3.8,1.3c.6-.2,1.4-2.1,1.3-2.9a20.2,20.2,0,0,0-.8-3.2c-.7-1.8-1.3-3.5-2.1-5.3s-1-2.5-1.5-3.7a1,1,0,0,1,1.1-1.5,2.4,2.4,0,0,1,1.1.4l4.1,2a62.1,62.1,0,0,0,7.3,3.3,5.5,5.5,0,0,0,3.8-.3,1.1,1.1,0,0,0,.7-1.2,3.9,3.9,0,0,0-2.1-3.3l-3.9-2-8.7-4.5-1-.6a1.1,1.1,0,0,1-.4-1.6l1-2.1c1.2-2.8,2.4-5.5,3.7-8.3a16.6,16.6,0,0,0,1.6-7c0-1.6,0-3.2,0-4.8.6-.1.6.8,1.1.9l.2-.2a8.7,8.7,0,0,0,0-.9,64.6,64.6,0,0,0-1-9.6,76.3,76.3,0,0,0-2.6-10.9c-.6-1.8-1.3-3.6-1.9-5.5s-1.4-3.7-2.1-5.5c-.1-.2-.2-.6-.5-.5a.9.9,0,0,0-.7.7,1.2,1.2,0,0,0,.1.8l1.7,5c.8,2.3,1.7,4.6,2.3,7a133.9,133.9,0,0,1,2.8,13.4,11.9,11.9,0,0,1,.3,3.5c-.9-.3-.8-1.2-1-1.8-.7-2.4-1.3-4.8-2-7.2l-5.4-18.8c-.1-.5-.2-.9.2-1.2a1.2,1.2,0,0,0,.4-1.6c-.4-1-.3-1.3.5-1.9,3-2.2,5.6-4.9,8.3-7.4s7.1-7.3,10.7-10.9l.2-.2,6.2-7,3.5-4.1c1.2-1.3,2.2-2.8,3.5-4.2a1.5,1.5,0,0,1,1.9-.4l6.5,2.6a65.8,65.8,0,0,0,6.3,2.4,116.6,116.6,0,0,0,16.5,3.5,24.8,24.8,0,0,0,4.6.3h3.6a12.5,12.5,0,0,0,4.7-.9l7.4-3,4-1.6c1.2-.4,1.5-.2,2,.9l6.6,13.5a3.5,3.5,0,0,0,2.4,1.9c1.2.3,1.8,0,2.2-1.1a4.8,4.8,0,0,0,.3-2.6,12.1,12.1,0,0,0-.4-1.4,75.4,75.4,0,0,0-3.5-8.1c-.5-1.1-1-2.3-1.5-3.4s.2-1.3,1-1.3a3.4,3.4,0,0,1,1.4.4l3.5,1.6a44.5,44.5,0,0,0,7.1,2.8,3.8,3.8,0,0,0,3.2-.8,2.8,2.8,0,0,0-.8-3.9,8.2,8.2,0,0,0-2.3-.8l-4.8-.9-7.2-1.4c-.8-.2-1.2-.4-1.2-1.1s.2-.9,1.1-1.2l2.8-.6a72.1,72.1,0,0,0,10.4-3.1,9,9,0,0,0,3.4-2.1c.3-.3.7-.6.5-1s0-1.8-.5-2.6l-.3-.2c-1.6-1-3.4-.8-5.2-.7l-.3.2-7,4.1-5.2,3.1a1.3,1.3,0,0,1-1.5.1,1.2,1.2,0,0,1-.5-1.4,4.5,4.5,0,0,0,.2-.9,81.5,81.5,0,0,0-.4-11.5,3.1,3.1,0,0,0-3.4-2.7c-1.2.2-2.6,1.3-2.6,2.2a33.1,33.1,0,0,1-.3,4.6,1.3,1.3,0,0,0,0,.6,6.9,6.9,0,0,1,.2,2.4c0,2.7,0,5.4,0,8.2,0,.3,0,.5,0,.8a1,1,0,0,1-1,1.2l-1.4.4a32.3,32.3,0,0,1-8.8,1.2,35.3,35.3,0,0,1-4-.5c-2.2-.3-4.4-.8-6.6-1.3s-4.7-1.9-7.3-1.8h-.4l-6.3-1.4-8.3-1.9c-1.5-.3-1.7-.9-1-2.2a28.9,28.9,0,0,0,1.2-3c.1-.4.3-.8,0-1.1s-.3-1.3.1-2c1.5-2.9,2.9-5.9,4.2-8.9,2.1-5.1,4.1-10.2,5.8-15.5a2.8,2.8,0,0,1,1.2-1.6l1.6-.9a87,87,0,0,1,13.7-5.9,138.7,138.7,0,0,1,14.2-3.9l8.2-1.8a80.3,80.3,0,0,0,10.5-2.8l7.2-2.6a46.2,46.2,0,0,0,10.8-5.4,35.2,35.2,0,0,0,8.2-8.3A52.8,52.8,0,0,0,298.5,42a88.9,88.9,0,0,0,2.6-14.8c.2-2.4.3-4.7.5-7.1s-.3-2.9-.3-4.4a5.8,5.8,0,0,0-2.6-4.7,14.1,14.1,0,0,0-3.3-1.7,31.5,31.5,0,0,0-11.8-1.8,2,2,0,0,0-1.5.6l-3.7,3.5-9.9,9.3-8.2,7.8-5.6,5.4-.7.6-4.5,3.2-6.4,4.8-6,4.9L231,52.9l-3.8,3.3-6,5.1-3.9,3.3-5.6,4.6-3.9,3.3-7.2,6c-1.7,1.5-3.5,2.9-5.3,4.3L191,86.1c-1.8,1.5-3.6,3.1-5.6,4.4a1.1,1.1,0,0,1,.6-1.2,6.8,6.8,0,0,0,1.4-1.2l4.5-4.3,9.9-9.3,4.4-4.2c3.3-3.1,6.5-6.2,9.8-9.2l4.5-4.3c3.3-3.1,6.5-6.2,9.8-9.2l4.5-4.3c2.1-1.9,4.2-3.9,6.2-5.9s4.6-4.2,6.7-6.4l.2-.2c2.4-1.9,4.3-4.3,6.7-6.2.9-.7.8-.8.1-1.8h.9c2.7.8,4.9-.9,5.8-3.2a9.2,9.2,0,0,0,.4-2.4,1.5,1.5,0,0,0,2.1-.4,42.4,42.4,0,0,1,3.7-3.6c1.4-1.1,2.4-2.6,3.9-3.6a3.3,3.3,0,0,0,.9-1.4,5.8,5.8,0,0,0-2.1,0l-3.2.5-5.7.8a19.7,19.7,0,0,0-3.8,1.2,14.2,14.2,0,0,0-4.3,1.3c-3.8,1.5-7.5,3.3-11.1,5.1a6.2,6.2,0,0,0-1.7,1.2L230.9,28l-2.5,2.8a.9.9,0,0,0-.2.6h0a.5.5,0,0,0-.3.5h0a.8.8,0,0,0-.7.3,57,57,0,0,0-4.1,5.7c-.6,1-1.4,1.8-1.5,3.1h0c-.6.1-.7.6-.8,1h0a.5.5,0,0,0-.3.5h0l-.3.3h0a.5.5,0,0,0-.3.5,32.3,32.3,0,0,1-2.8,4.3L206.4,63.8a6.2,6.2,0,0,1-1.8,1.8L197.8,70c-3.8,2.4-7.8,4.7-11.8,6.7s-6.1,2.9-9,4.6a9.9,9.9,0,0,1-2.7,1.4l-.8-1.1c.4-.5.1-.9-.3-1.2a24.7,24.7,0,0,1-2.8-3.2,35.6,35.6,0,0,1-4.9-9.6,64.7,64.7,0,0,1-2.7-9.1,40.2,40.2,0,0,1-1.1-9.4,36.3,36.3,0,0,1,.5-7.7.9.9,0,0,0-.5-1.2c.1-2,.4-2.3,2.4-2.3s4.1.2,6.2.2,5.5-.1,8.3.1a3.1,3.1,0,0,0,3-1.8c.8-1.5.6-3.7-1.7-4.3a20.6,20.6,0,0,0-4.5-.5,15.1,15.1,0,0,1-3.9-.2,2.7,2.7,0,0,0-1.4,0,13.5,13.5,0,0,1-3.2.2,1.3,1.3,0,0,1-1.5-.6c-.3-.5,0-1,.3-1.4,2.2-3.7,4.4-7.4,6.7-11a6.5,6.5,0,0,0,.5-5.6,1.9,1.9,0,0,0-.7-1.2,3.4,3.4,0,0,0-4.5,1.1l-.4.7a43.2,43.2,0,0,0-3.3,9.2c-.5,1.8-.9,3.6-1.3,5.4s-.5,1.1-1.2,1.1-.9-.6-1-1.1-.3-1.9-.5-2.8-.7-3.3-.9-4.9-.6-3.5-1-5.2-.7-2.3-2.1-2.7-2.5,0-2.7.6a4.2,4.2,0,0,0-.5,3.2c.2.7.4,1.4.6,2.1,1.1,3,2.6,5.9,3.9,8.9A1.4,1.4,0,0,1,157,29c-.4.5-.9.2-1.4,0l-6.7-3.1a31.7,31.7,0,0,0-5.9-2.2,4.7,4.7,0,0,0-3.2.6,1,1,0,0,0-.7,1.1,4.1,4.1,0,0,0,2.3,3.2c4.4,2,8.6,4.4,13,6.4,1.3.6,1.5,1.2,1,2.5-1.3,3.2-2.7,6.4-4,9.7a14.1,14.1,0,0,0-1.2,3.1,41.3,41.3,0,0,0-.5,6c0,1,.3,1.9.3,2.8a16,16,0,0,0,.3,3.7,111,111,0,0,0,2.5,12,37.9,37.9,0,0,0,1.3,4.9c1.5,3.5,2.8,7.1,4.2,10.7.2.4.3.9.8,1.1l-.2.2a55.9,55.9,0,0,0-11.4,8.8c-5.6,5.3-10.9,10.8-16.2,16.4l-.3.3-6.5,7.3a19.6,19.6,0,0,0-2.3,2.9,11.9,11.9,0,0,1-2,2.8,3.8,3.8,0,0,1-1.8-.5,1.2,1.2,0,0,0,.9-.6c.3-.5.3-.7-.3-.9l-3.2-1-3.4-1.1c-1.8-.7-3.5-1.4-5.3-1.9s-2-.4-3-.6l-4.4-.8-6.4-.9a67.1,67.1,0,0,0-7.4-.7c-1,0-1.9.3-2.8.3a18.3,18.3,0,0,0-6.6,1.2,75.4,75.4,0,0,0-9.1,4.1.9.9,0,0,0-.5,1.4c-.1.3-.4.3-.7.4s-1.7.6-2.5-.9c-2.1-4.3-4.4-8.4-6.5-12.6a4.2,4.2,0,0,0-2.9-2.3,1.2,1.2,0,0,0-1.7.8,4.5,4.5,0,0,0-.4,3.3,24.9,24.9,0,0,0,1.9,4.8l3.7,7.4c.2.5.4,1,0,1.4a1.2,1.2,0,0,1-1.5.2l-5-2.1a37.4,37.4,0,0,0-7-2.3,2.8,2.8,0,0,0-2.7,1,2.7,2.7,0,0,0,1.4,4.1l2.2.6,9,1.5,3.2.5c1,.2,1.2,1.1.6,1.7a1.8,1.8,0,0,1-.8.3c-3.4,1-6.8,1.8-10.1,3.1a24.6,24.6,0,0,0-4.6,2c-2.1,1.3-2.2,1.6-1.8,4a1.7,1.7,0,0,0,1.2,1.5,13.1,13.1,0,0,0,4.5.2l.4-.2,5.7-3.6,6.4-4.1c.9-.6,1.6-.2,1.7.9a4.4,4.4,0,0,1,0,.5,87.1,87.1,0,0,0,.5,11.6,3.8,3.8,0,0,0,2,3.2c1.6.8,4.1-1,4.2-2.8.1-3.5-.3-7.1-.3-10.6a1.5,1.5,0,0,0,0-.4c-.4-1.7-.1-3.4-.2-5.2a1.1,1.1,0,0,1,1-1.2l2.5-.7a26.9,26.9,0,0,1,7-1.1,41.2,41.2,0,0,1,4.7.5,52.4,52.4,0,0,1,6.7,1.2,74.9,74.9,0,0,1,16.2,6.3,10.4,10.4,0,0,1,2.2,1.4l3.3,2.9a2.9,2.9,0,0,1-.5,1.2c-1.9,3.1-3.9,6.2-5.7,9.4a6.3,6.3,0,0,1-1.5,2.3h-.1a28.5,28.5,0,0,1,1.9-3.8l3.2-6.2c1.1-1.5,1.1-1.5-.2-2.7l-.8-.8a8.1,8.1,0,0,0-2.1-1.5,77.5,77.5,0,0,0-8.1-3.7,50.8,50.8,0,0,0-12.8-3.4,25.8,25.8,0,0,0-8,.1c-2.6.5-4.6,1.8-5.2,4.7a2,2,0,0,0-.1.4,68.2,68.2,0,0,0,.1,7,16.2,16.2,0,0,1-.3,6,4.1,4.1,0,0,1-3.2,2.9,29,29,0,0,1-4.9.3h0a.5.5,0,0,0-.5-.5l-.2-.2a6.7,6.7,0,0,1-2.3-4.9c-.1-1-.2-2-.3-3.1a12.7,12.7,0,0,0-.2-2.3c0-1-.4-1.3-1.4-1.1a9.7,9.7,0,0,0-3,1.1,27.8,27.8,0,0,1-3.9,2.3,10,10,0,0,1-4.1,1,15.9,15.9,0,0,1-6.3-1.5,2.5,2.5,0,0,1-1.2-2c-.1-.8-.2-1.5-.3-2.3a2.8,2.8,0,0,1,.8-2.5,10.9,10.9,0,0,1,3.1-2.3l1.7-.9,3.5-1.3c.3-.1.6-.2.6-.6a3.5,3.5,0,0,0-1.9-1.9A20.5,20.5,0,0,1,41,133Zm219.9,5.7c-.1-.1-.1-.1-.1,0h.1c.1,1.3,1,2.2,1.4,3.4s.6.5.9.1l.8-1c.7-.9.7-.9-.3-1.4Zm-43-11.8c.1-.3,0-.4-.2-.6a5.5,5.5,0,0,0-2.3-1.3,18.5,18.5,0,0,1-7.4-4.8l-.9-.9c-.6-.5-.9-.3-1.2.3l-.6,2c-.4,1.2-.2,1.5,1,1.8a27.6,27.6,0,0,0,5.6,1.1,2.7,2.7,0,0,1,1.1.4l4.1,1.9C217.4,127,217.7,127.2,218,126.9ZM156.8,239h-.2l-2.2,6.5a.3.3,0,0,0,.2.4c.2.1.3-.1.4-.2a4.9,4.9,0,0,1,2-1.5c.4-.1.4-.5.4-.9a9.5,9.5,0,0,0-.3-2.5A8.3,8.3,0,0,0,156.8,239Zm9.6,1.9c.3,0,.3-.2.4-.4a4,4,0,0,1,1.2-1.6c.4-.3.3-.5,0-.8s-2.2-1.1-3.2-1.9a.3.3,0,0,0-.5,0,.4.4,0,0,0,0,.5l1.6,3.8C166,240.7,166.1,240.8,166.3,240.9Zm103-111.2-5.5,1.5v.3l4.4.8c.3.1.8.1.8-.4A7.8,7.8,0,0,0,269.4,129.7Zm-200,10.9a4.5,4.5,0,0,1,1.7-3.3l.8-.8a.4.4,0,0,0,.1-.3c-.1-.2-.2-.2-.4-.2h-.3c-2.5.4-2.7.7-2.6,3.3A1.5,1.5,0,0,0,69.4,140.6Zm93.4-96.1a8.5,8.5,0,0,0,1.5-2.4c.5-.8,1.7-.9,1.8-2a2.7,2.7,0,0,0-1.3-.1c-1.1,0-1.1,0-1.4,1.1A12.7,12.7,0,0,0,162.8,44.4Z"/>
    <path class="cls-3" d="M159.5,250.5a.9.9,0,0,1,.7.3,2.7,2.7,0,0,0,1.7.9,8,8,0,0,0,3.6,0,4,4,0,0,0,3.1-4,5.1,5.1,0,0,0-.2-1.8,27.3,27.3,0,0,1-.6-2.8,3.3,3.3,0,0,1,2.2-3.6,2.2,2.2,0,0,1,1.6.1,16.8,16.8,0,0,0,4.8,1.4c1.8.2,3.4.2,4.8-1.3a3.2,3.2,0,0,0,.2-4,5.6,5.6,0,0,1-.8-1.3,4.6,4.6,0,0,0-2-2.1l-6.6-3.6-2.3-1.2a2.5,2.5,0,0,1-1.4-2.3,9,9,0,0,1,.8-4.7c.7-1.5,1.4-2.9,1.9-4.4a21.9,21.9,0,0,0,1.7-8.3c0-1.3,0-2.5,0-3.8a62.7,62.7,0,0,0-.9-8.4c-.4-2.8-1-5.5-1.6-8.2a66.9,66.9,0,0,0-3.2-9.8,14.8,14.8,0,0,1-1.1-5.3,5.5,5.5,0,0,1,1.7-4.1c1.8-1.7,3.5-3.5,5.3-5.1s4.9-4.7,7.1-7.1,2.5-2.5,3.6-3.9,3.8-4.1,5.6-6.3,3.6-4.2,5.5-6.2a6.1,6.1,0,0,1,6.8-1.3c1.7.7,3.4,1.5,5.2,2.1s4.1,1.3,6.2,1.7a88.7,88.7,0,0,0,10.2,2.1,59,59,0,0,0,7.7.9c1.1,0,2.3.3,3.5.2a29.9,29.9,0,0,0,9.2-2.3,23.7,23.7,0,0,1,5-1.8h1.2c1.2,0,1.3.1,1.6,1.2a20.1,20.1,0,0,0,1,1.9,3.2,3.2,0,0,1,.4,1c-.4.1-.6-.2-.8-.5a3.6,3.6,0,0,0-3.9-1.1,34.2,34.2,0,0,0-4,1.5,32.8,32.8,0,0,1-7.3,2.1h-4.9a52.5,52.5,0,0,1-10.2-1.2l-7.1-1.5a60.9,60.9,0,0,1-7.4-2.3l-5.3-2.1c-1.8-.7-3.6-.9-5.2.4a18.6,18.6,0,0,0-2.5,2.6l-2.2,2.4-1.9,2.1c-1.3,1.3-2.5,2.9-3.8,4.2s-1.8,2.1-2.8,3c-2.9,2.8-5.4,5.9-8.4,8.6a4.3,4.3,0,0,1-1.3,1c-.6.2-.8.9-1.2,1.3s-2,2.1-3.1,3-1.9,3.6-1.3,5.7,1.4,4.3,2.2,6.4,1.9,7.1,2.7,10.7c.3,1.2.3,2.5.6,3.6s.5,3.3.9,4.9a3.9,3.9,0,0,1,.1.9c0,2.9,0,5.8,0,8.7a18.8,18.8,0,0,1-1.4,5.9c-.4,1.1-.9,2.2-1.3,3.4s-.9,1.6-1.2,2.4-.8,3.3.5,4.8a8,8,0,0,0,2.3,1.7l5.1,2.8a10.4,10.4,0,0,1,5.4,5.7,3,3,0,0,1-.2,2.9l-.2.5c-.7,2.2-2.5,2.8-4.4,3a17.1,17.1,0,0,1-6-.6c-1.7-.4-2.4.1-2.4,1.9s0,2.6,0,3.9a4.1,4.1,0,0,1-1.2,3.2,8.5,8.5,0,0,1-2.8,2.2,5,5,0,0,1-5.1-.6A4.2,4.2,0,0,1,159.5,250.5Z"/>
    <path class="cls-3" d="M239.2,130.4a17.2,17.2,0,0,1-5.4-.5,55.5,55.5,0,0,1-14.7-4.4c-2.2-1.1-4.6-2-6.7-3.3a5.2,5.2,0,0,1-2.3-5.4,22.5,22.5,0,0,1,1.7-4.6c1.3-2.7,2.3-5.5,3.5-8.3s1.4-3.6,2-5.4a11.2,11.2,0,0,1,5.8-6.9,77,77,0,0,1,11.6-5c3.8-1.3,7.7-2.3,11.7-3.3l13.1-3c3-.8,6.1-1.6,9-2.7l5.3-2a52.8,52.8,0,0,0,9.6-4.5,35.4,35.4,0,0,0,8.1-7,41.7,41.7,0,0,0,6.3-9.7,70.9,70.9,0,0,0,4.6-13.4c.6-2.7,1.1-5.5,1.5-8.2a75.5,75.5,0,0,0,.7-14.3,6.9,6.9,0,0,0-1.2-4.4,1.9,1.9,0,0,1-.3-.7A7.1,7.1,0,0,0,299.4,9a21.6,21.6,0,0,0-7.4-2.8l-.4-.3a.6.6,0,0,1,.7-.2,29.2,29.2,0,0,1,8.1,2.5,11.7,11.7,0,0,1,4.8,4.3,12.8,12.8,0,0,1,1.5,4.8,29.8,29.8,0,0,1,.2,6.2c-.1,1.8-.2,3.6-.4,5.4s-.3,3-.5,4.5a80.3,80.3,0,0,1-2,10.1,70.7,70.7,0,0,1-5,13.3,42.3,42.3,0,0,1-10,12.9,31.8,31.8,0,0,1-5.9,4,89.7,89.7,0,0,1-12.7,5.5,81.4,81.4,0,0,1-9.6,3c-5.7,1.3-11.4,2.5-17.1,4a105.9,105.9,0,0,0-12.8,4,67.4,67.4,0,0,0-7.5,3.4,9,9,0,0,0-4,4.7c-1,2.4-1.7,4.9-2.7,7.3s-2.4,5.8-3.7,8.7-1.3,2.9-.8,4.6a4.8,4.8,0,0,0,1.3,2.1,13.3,13.3,0,0,0,3.5,2.3l5.4,2.5a55.7,55.7,0,0,0,9.7,3.2,35.1,35.1,0,0,0,6.5,1.1A.7.7,0,0,1,239.2,130.4Z"/>
    <path class="cls-3" d="M6.7,300.5l4.1-3.8,1.1-.9a1.3,1.3,0,0,1,1-.5,3.3,3.3,0,0,0,2.1-.9c2.3-1.8,4.6-3.6,6.7-5.6a48.9,48.9,0,0,1,4.2-4c1.4-1,2.5-2.2,3.8-3.3l.9-.8c2.8-2.7,5.6-5.4,8.5-7.9l7.1-6.2,3-2.8c1.4-1.2,2.7-2.5,4.1-3.8l6.3-5.5c1-.9,1.9-1.9,2.9-2.7s2.5-2.3,3.7-3.4l6.6-5.8,2.5-2.3,3.9-3.6c2-1.9,4.2-3.7,6.3-5.6l2.7-2.4c2.6-2.5,5.4-4.7,8-7.1l6.4-5.6c2.3-1.9,4.5-4,6.8-5.9s4.2-3.7,6.3-5.5l5.1-4.2c1.7-1.5,3.5-2.9,5.3-4.3l6.4-4.6c3.3-2.3,6.7-4.5,10.2-6.6a6.9,6.9,0,0,1,2.2-.8,2.8,2.8,0,0,1,3.6,1.8,7.1,7.1,0,0,1,.7,1.8c-.5,0-.7-.3-1-.6s-2.6-1.4-4.3-.7a31.2,31.2,0,0,0-4.7,2.9l-6.3,4.2c-2.2,1.5-4.4,3.1-6.5,4.7l-9.1,7.4-6.3,5.5c-2.9,2.5-5.9,4.9-8.7,7.5l-3.5,3.2L96,224.6l-4,3.6a26.7,26.7,0,0,1-3.2,2.8l-.3.3a25.4,25.4,0,0,1-2.6,2.4,17.9,17.9,0,0,0-1.9,1.7L80,238.8a25.5,25.5,0,0,1-3.4,3l-.2.2a38.4,38.4,0,0,1-3.9,3.6,26.7,26.7,0,0,1-3.4,3l-.4.3c-1.2,1.5-2.8,2.5-4.1,3.8s-1.4,1.2-2.1,1.8l-4.5,4-3,2.7-4.2,3.8c-2.2,1.9-4.3,4-6.5,5.9s-2.5,2.4-3.8,3.5l-7.7,6.9-3.6,3.3c-2.7,2.4-5.3,5-8,7.3l-3.7,3.4a60.9,60.9,0,0,1-6.3,5.3l-1.2.7a1.9,1.9,0,0,1-2.3-.4A1.3,1.3,0,0,0,6.7,300.5Z"/>
    <path class="cls-3" d="M61.7,157.1a29,29,0,0,0,4.9-.3,4.1,4.1,0,0,0,3.2-2.9,16.2,16.2,0,0,0,.3-6,68.2,68.2,0,0,1-.1-7,2,2,0,0,1,.1-.4c.6-2.9,2.6-4.2,5.2-4.7a25.8,25.8,0,0,1,8-.1,50.8,50.8,0,0,1,12.8,3.4,77.5,77.5,0,0,1,8.1,3.7,8.1,8.1,0,0,1,2.1,1.5l.8.8c1.3,1.2,1.3,1.2.2,2.7-.9-2.2-2.8-3.2-4.7-4.1a82.5,82.5,0,0,0-8.1-3.3,63.2,63.2,0,0,0-9.6-2.4,42.9,42.9,0,0,0-5.2-.5,12.4,12.4,0,0,0-4.6.6,3.8,3.8,0,0,0-2.8,3.3,23.2,23.2,0,0,0,0,4.2c.1,2.1,0,4.2,0,6.3a7.1,7.1,0,0,1-.4,2.4,6.5,6.5,0,0,1-4.9,4.5,5.4,5.4,0,0,1-4.9-1.1A1,1,0,0,1,61.7,157.1Z"/>
    <path class="cls-3" d="M257.5,154.5a17.1,17.1,0,0,0,3.1,1.4c2.1.5,3.5.2,4.8-1.5a4.7,4.7,0,0,0,.7-3.9c-.3-1.5-.8-2.9-1.1-4.4s.6-3.8,2.2-4a4.8,4.8,0,0,1,2.7.3,7.5,7.5,0,0,0,3.8.5,3.8,3.8,0,0,0,3.4-5.3,1.2,1.2,0,0,0-.3-.6,5.8,5.8,0,0,1-1.4-2,2.8,2.8,0,0,0-1.6-1.4l-1.4-.6c-1-.4-1.2-.9-.8-1.9a3.6,3.6,0,0,1,1.4-1.5l3.3-2.3a4,4,0,0,0,1.9-4.6,15.8,15.8,0,0,0-1.1-3,3,3,0,0,0-1.4-1.2c-.7-.4-1.5-.5-2.3-.8a.5.5,0,0,1,.6-.3,8,8,0,0,1,5,2.1,5.7,5.7,0,0,1,1.7,3.9,6.6,6.6,0,0,1-1.3,4.3,4,4,0,0,1-1,1A13.9,13.9,0,0,0,276,131a1.4,1.4,0,0,0,0,2.1l1.9,2.1c2.4,2.7,2,8.1-2.9,9.3a10.4,10.4,0,0,1-4.3.1h-1.9a1.4,1.4,0,0,0-1.4,1.3,4.9,4.9,0,0,0,.1,1.9,15.5,15.5,0,0,1,.6,3,7.1,7.1,0,0,1-2,6,4.2,4.2,0,0,1-2.8,1.2c-2.5.2-4.2-1.2-5.7-3C257.5,154.8,257.6,154.7,257.5,154.5Z"/>
    <path class="cls-3" d="M176.4,29.5h-3.5c-1.1,0-1.5-.4-1.5-1.5a8.7,8.7,0,0,1,1.3-4c.8-1.4,1.6-2.7,2.2-4.2a8.7,8.7,0,0,0,.4-5.2,10.6,10.6,0,0,0-1.9-4.7c1.6-.2,2.6.8,3.4,2a8.4,8.4,0,0,1,1,7.3,15.4,15.4,0,0,1-1.8,4,11,11,0,0,0-1.4,2.9,2.2,2.2,0,0,0,1.2,3C176.1,29.1,176.3,29.2,176.4,29.5Z"/>
    <path class="cls-3" d="M121.1,125.8v.2c-1.5,2.2-1.2,1.9-3.5,1.2-3.9-1.2-7.5-3-11.5-3.9s-8.4-1.9-12.7-2.4a52.4,52.4,0,0,0-8.4-.6H82.2a.6.6,0,0,1,.7-.5c1.7.1,3.3-.5,5-.2s3.5.2,5.3.4l6.6.9c2,.3,4,.9,6,1.2a58.3,58.3,0,0,1,10.1,3.1l2.2.7a3.1,3.1,0,0,0,2,0Z"/>
    <path class="cls-3" d="M135.1,229.3a4,4,0,0,1,1.2,1.1,3.3,3.3,0,0,0,2.1,1.1,43.4,43.4,0,0,0,5.8.6c1.9,0,3.7.5,5.8.2a41.8,41.8,0,0,1-3.2,5.2h-.1c-.2-2.1-1.9-2.3-3.4-2.5a19.4,19.4,0,0,1-3.7-.8,7.9,7.9,0,0,1-4.1-3.5A2.5,2.5,0,0,1,135.1,229.3Z"/>
    <path class="cls-3" d="M39.6,147.8a15.9,15.9,0,0,0,6.3,1.5,10,10,0,0,0,4.1-1,27.8,27.8,0,0,0,3.9-2.3,9.7,9.7,0,0,1,3-1.1c1-.2,1.4.1,1.4,1.1a12.7,12.7,0,0,1,.2,2.3c-1.4-1.4-2.9-.9-4.4-.1L51,150.1a9.5,9.5,0,0,1-8.7.5A4.2,4.2,0,0,1,39.6,147.8Z"/>
    <path class="cls-3" d="M68.5,125c-.7.7-1.7.8-2.5,1.2a.6.6,0,0,1-.9-.4c-.5-1.2-1.4-2.2-1.8-3.4a6.5,6.5,0,0,0-.8-1.5c-1-1.6-1.7-3.3-2.6-4.9a18.7,18.7,0,0,0-2.8-4.5c.2-.3.4-.2.7-.1a8.9,8.9,0,0,1,4.2,3.9c1.4,2.2,2.4,4.6,3.8,6.8A7.9,7.9,0,0,0,68.5,125Z"/>
    <path class="cls-3" d="M144.9,252.1a7.8,7.8,0,0,1,3,.3,5.2,5.2,0,0,0,5.5-2.1,17.9,17.9,0,0,1,2.6-3.3l.7-.6c.7-.5.9-.4,1.2.5s.7,2,1.1,3a9,9,0,0,0-2,.1,5.1,5.1,0,0,0-2.2,1.7,6.6,6.6,0,0,1-3.6,2.7C148.8,255,146.2,254.5,144.9,252.1Z"/>
    <path class="cls-3" d="M262,121.9c-.4.7-1.1.7-1.7,1.2s-.5,0-.7-.2a4.1,4.1,0,0,1-.9-1.9,19.9,19.9,0,0,1-.3-2.8,18.1,18.1,0,0,0-.5-3.2c-.1-.4-.1-.9-.5-1.1s-.3-.5-.3-.8a3.2,3.2,0,0,0-1-2.2,12.1,12.1,0,0,1-1.1-1.4,3.8,3.8,0,0,1,3.2,1.5,7.9,7.9,0,0,1,2,4.6c.1,1.1.4,2.1.5,3.2a4,4,0,0,0,1.1,2.5A.8.8,0,0,1,262,121.9Z"/>
    <path class="cls-3" d="M164.7,13.8l-1.4,4c-.2.5-.5.6-1,.3a1.7,1.7,0,0,1-.6-.5c-.5-1.1-1.4-1.8-1.8-3.1a5.1,5.1,0,0,0-5.1-4.2,7,7,0,0,1,6.4,1.4l1.1,1.1A3.4,3.4,0,0,0,164.7,13.8Z"/>
    <path class="cls-3" d="M151.5,20a16.1,16.1,0,0,1,1.4,3.2c.3.9-.1,1.4-1,1.5a3.2,3.2,0,0,1-1.6-.4,46.6,46.6,0,0,0-5.6-2.3c-.6-.2-1.2-.1-1.7-.5a3.3,3.3,0,0,1,2.2-.2l3.6.7a1.9,1.9,0,0,0,2.3-1.2C151.2,20.5,151.1,20.1,151.5,20Z"/>
    <path class="cls-3" d="M140.3,30.6c.5-.1.9.3,1.3.5l9.2,4.6,1.6.7c.8.4.9.5.6,1.4a1.3,1.3,0,0,1-.5.9,16.2,16.2,0,0,0-3.4-2.5l-4-2.1a26.5,26.5,0,0,1-4-2.3A1.4,1.4,0,0,1,140.3,30.6Z"/>
    <path class="cls-3" d="M41,133a20.5,20.5,0,0,0,5,1.1,3.5,3.5,0,0,1,1.9,1.9c0,.4-.4.5-.6.6l-3.5,1.3c.3-1.3-.4-2.1-1.3-2.8S41,134,41,133Z"/>
    <path class="cls-3" d="M155.6,219.7c-.6,2.8-.4,2.5-2.7,2.3-5-.4-10-.5-14.9-.5,1-.5,2-.2,3-.4a24.7,24.7,0,0,1,7.4-.1,29.5,29.5,0,0,0,4.1,0A6.7,6.7,0,0,0,155.6,219.7Z"/>
    <path class="cls-3" d="M51.9,122.4a6.4,6.4,0,0,1,1,1.8c.2.4.5,1,.1,1.4s-1.1.9-1.8.7l-1.7-.7a21.5,21.5,0,0,1-3-1.1,2.6,2.6,0,0,1,2.2-.1,2.6,2.6,0,0,0,2.7-.8C51.6,123.3,51.4,122.7,51.9,122.4Z"/>
    <path class="cls-2" d="M98.4,165.3a19.7,19.7,0,0,1,1.9-3.6h.1a15.3,15.3,0,0,1-1.8,3.6Z"/>
    <path class="cls-3" d="M284.8,5.3a30.4,30.4,0,0,1-4.8,0A11.5,11.5,0,0,1,284.8,5.3Z"/>
    <path class="cls-2" d="M100.8,160.7a9.2,9.2,0,0,1,1.3-2.4h.1a3.4,3.4,0,0,1-1.3,2.3Z"/>
    <path class="cls-3" d="M81.7,120.4c-.3.3-.7.2-1.1.2S81.2,119.9,81.7,120.4Z"/>
    <path class="cls-3" d="M290.8,5.9c-.3.1-.6.1-.9-.2S290.6,5.4,290.8,5.9Z"/>
    <path class="cls-3" d="M149.4,188a.8.8,0,0,1,.5.8C149.4,188.8,149.3,188.4,149.4,188Z"/>
    <path class="cls-3" d="M178.2,29.7c-.3.1-.6.1-.8-.2S178,29.5,178.2,29.7Z"/>
    <path class="cls-3" d="M172,9.5c-.4.1-.8.2-1.1-.2A1.3,1.3,0,0,1,172,9.5Z"/>
    <path class="cls-3" d="M61.2,156.6a.5.5,0,0,1,.5.5C61.4,157.1,61.2,157,61.2,156.6Z"/>
    <path class="cls-3" d="M241.7,130.2c-.2.3-.5.3-.8.2A.9.9,0,0,1,241.7,130.2Z"/>
    <path class="cls-3" d="M288.4,5.6c-.3.1-.6.1-.8-.2A.9.9,0,0,1,288.4,5.6Z"/>
    <path class="cls-3" d="M79.6,120.6a.5.5,0,0,1-.6.2A.5.5,0,0,1,79.6,120.6Z"/>
    <path class="cls-2" d="M100.5,161.2a.7.7,0,0,1,.3-.5h.1a.5.5,0,0,1-.3.5Z"/>
    <path class="cls-2" d="M100.3,161.7a.8.8,0,0,1,.3-.5h.1a.5.5,0,0,1-.3.5Z"/>
    <path class="cls-2" d="M102.1,158.4l.2-.3h.1l-.3.3Z"/>
    <path class="cls-3" d="M180,30a.3.3,0,0,1-.3-.1Z"/>
    <path class="cls-3" d="M140,30.4a.2.2,0,0,1,.3.2Z"/>
    <path class="cls-3" d="M45.7,124.4a.3.3,0,0,1-.3-.1Z"/>
    <path class="cls-3" d="M69.2,124.7a.3.3,0,0,1-.3.2Z"/>
    <path class="cls-4" d="M169.3,202.8c0,1.6,0,3.2,0,4.8a16.6,16.6,0,0,1-1.6,7c-1.3,2.7-2.4,5.5-3.7,8.3l-1,2.1a1.1,1.1,0,0,0,.4,1.6l1,.6,8.7,4.5,3.9,2a3.9,3.9,0,0,1,2.1,3.3,1.1,1.1,0,0,1-.7,1.2,5.5,5.5,0,0,1-3.8.3,62.1,62.1,0,0,1-7.3-3.3l-4.1-2a2.4,2.4,0,0,0-1.1-.4,1,1,0,0,0-1.1,1.5c.4,1.3.9,2.5,1.5,3.7s1.5,3.5,2.1,5.3a20.2,20.2,0,0,1,.8,3.2c.2.8-.7,2.7-1.3,2.9a3,3,0,0,1-3.8-1.3,10.1,10.1,0,0,1-.7-2.7c-.4-2.4-.7-4.8-1.1-7.1s-.4-3.1-.7-4.6-.4-1-1-1.1-1,.4-1.2,1l-1.5,5.3a44.2,44.2,0,0,1-3.5,9.2,7.4,7.4,0,0,1-1.4,2c-.3.2-.6.5-.9.4l-1.8-.3c-1.3-.2-1.6-1.2-1.7-2.2a23.9,23.9,0,0,1,0-3.2,2,2,0,0,1,.4-1.1l4.7-7.3c.9-1.5,1.9-2.9,2.8-4.4s.3-1.8-1-1.8h-2.6a61.5,61.5,0,0,1-7.3-.5l-2.4-.2a2.9,2.9,0,0,1-2.7-1.8,3.3,3.3,0,0,1,.7-3.4,2.6,2.6,0,0,1,2.3-1.1c2.6.2,5.3.2,7.9.3l4,.2a27.4,27.4,0,0,0,3.7.2c1,0,1.2-.2,1.4-1.1a42.2,42.2,0,0,0,1.4-5.5,20.2,20.2,0,0,0,.3-6c-.3-2-.5-4-.8-6a52,52,0,0,0-3.1-11c-1-2.4-2-4.9-3.1-7.2a17.3,17.3,0,0,0-3.6-5.2,13.2,13.2,0,0,1-1.2-1.5,1.5,1.5,0,0,0-2.4-.4l-3.4,2.1c-3.3,2.1-6.7,4.2-10,6.5s-5.7,3.9-8.4,6-4.2,3.4-6.3,5.2l-5.8,4.8-4.7,4.1-4.9,4.2-2.5,2.2c-1.8,1.5-3.5,3.1-5.2,4.6s-5.4,4.6-8,7l-3.4,3c-2.1,1.8-4,3.7-6.2,5.5l-2.8,2.5c-2.2,1.9-4.2,3.9-6.4,5.8l-7.9,7.1-5.4,4.9-8.4,7.6-5.6,5-8.4,7.6-5.6,5.1-5.9,5.4-3.4,3.2c-.3-.6,0-.9.2-1.1l8.9-11.2,6.2-8.1,8.3-10.8,8-10.7,8-10.8,6.8-9.4c1.4-1.9,2.8-3.7,4.1-5.7l3.6-5.2c3.7-5.3,7.3-10.5,10.8-15.9.7-1,1.4-2.1,2-3.1a16,16,0,0,1,4.3-4.6l.4-.4c2.4-2.6,5.1-4.9,7.7-7.3l10.1-9.6,4.1-3.9,9.9-9.3,4.6-4.4q4.6-4.2,9.1-8.6a49.2,49.2,0,0,0,4.4-5.6c2.4-3.1,4.6-6.2,6.9-9.3l4.6-6.4,3.4-4.2,3.5-4.3c.1-.1.1-.2.1-.4a2.3,2.3,0,0,0,.8-.8,13,13,0,0,1,2.5-3.1l.2-.2a60.1,60.1,0,0,1,6.5-7.3l3.8-3.7,5.5-4.8,5.6-4.7,4.6-3.9c2-1.3,3.7-2.9,5.6-4.4l4.1-3.3c1.8-1.4,3.6-2.8,5.3-4.3l7.2-6,3.9-3.3,5.6-4.6,3.9-3.3,6-5.1,3.8-3.3,6.3-5.3,6-4.9,6.4-4.8,4.5-3.2.7-.6,5.6-5.4,8.2-7.8,9.9-9.3,3.7-3.5a2,2,0,0,1,1.5-.6,31.5,31.5,0,0,1,11.8,1.8,14.1,14.1,0,0,1,3.3,1.7,5.8,5.8,0,0,1,2.6,4.7c0,1.5.4,2.9.3,4.4s-.3,4.7-.5,7.1A88.9,88.9,0,0,1,298.5,42a52.8,52.8,0,0,1-7.8,17.4,35.2,35.2,0,0,1-8.2,8.3,46.2,46.2,0,0,1-10.8,5.4l-7.2,2.6A80.3,80.3,0,0,1,254,78.5l-8.2,1.8a138.7,138.7,0,0,0-14.2,3.9A87,87,0,0,0,218,90.2l-1.6.9a2.8,2.8,0,0,0-1.2,1.6c-1.7,5.3-3.7,10.4-5.8,15.5-1.2,3-2.6,6-4.2,8.9-.3.7-.7,1.3-.1,2s.1.7,0,1.1a28.9,28.9,0,0,1-1.2,3c-.7,1.3-.4,1.9,1,2.2l8.3,1.9,6.3,1.4h.4c2.6-.1,4.9,1.2,7.3,1.8s4.4,1,6.6,1.3a35.3,35.3,0,0,0,4,.5,32.3,32.3,0,0,0,8.8-1.2l1.4-.4a1,1,0,0,0,1-1.2c0-.3,0-.5,0-.8,0-2.7,0-5.4,0-8.2a6.9,6.9,0,0,0-.2-2.4,1.3,1.3,0,0,1,0-.6,33.1,33.1,0,0,0,.3-4.6c0-.9,1.5-2,2.6-2.2a3.1,3.1,0,0,1,3.4,2.7,81.5,81.5,0,0,1,.4,11.5,4.5,4.5,0,0,1-.2.9,1.2,1.2,0,0,0,.5,1.4,1.3,1.3,0,0,0,1.5-.1l5.2-3.1,7-4.1.3-.2c1.8-.1,3.5-.3,5.2.7l.3.2c.5.8.1,1.8.5,2.6s-.3.7-.5,1a9,9,0,0,1-3.4,2.1,72.1,72.1,0,0,1-10.4,3.1l-2.8.6c-.9.2-1.1.5-1.1,1.2s.4.9,1.2,1.1l7.2,1.4,4.8.9a8.2,8.2,0,0,1,2.3.8,2.8,2.8,0,0,1,.8,3.9,3.8,3.8,0,0,1-3.2.8,44.5,44.5,0,0,1-7.1-2.8l-3.5-1.6a3.4,3.4,0,0,0-1.4-.4c-.8,0-1.3.6-1,1.3s.9,2.3,1.5,3.4a75.4,75.4,0,0,1,3.5,8.1,12.1,12.1,0,0,1,.4,1.4,4.8,4.8,0,0,1-.3,2.6c-.4,1.2-1,1.4-2.2,1.1a3.5,3.5,0,0,1-2.4-1.9l-6.6-13.5c-.5-1.1-.8-1.3-2-.9l-4,1.6-7.4,3a12.5,12.5,0,0,1-4.7.9h-3.6a24.8,24.8,0,0,1-4.6-.3,116.6,116.6,0,0,1-16.5-3.5,65.8,65.8,0,0,1-6.3-2.4l-6.5-2.6a1.5,1.5,0,0,0-1.9.4c-1.2,1.3-2.3,2.8-3.5,4.2l-3.5,4.1-6.2,7-.2.2c-3.6,3.6-6.9,7.5-10.7,10.9s-5.3,5.1-8.3,7.4c-.8.6-.9.9-.5,1.9a1.2,1.2,0,0,1-.4,1.6c-.4.3-.4.7-.2,1.2l5.4,18.8c.7,2.4,1.3,4.8,2,7.2.2.6.1,1.5,1,1.8A4.1,4.1,0,0,1,169.3,202.8ZM275.3,49.4a2.9,2.9,0,0,0-2.2-.5,4.3,4.3,0,0,0-3.3,5.6,3.8,3.8,0,0,0,6.6,1.3,3.6,3.6,0,0,0,.6-3.8q-.8,2.6-2.9,2.3a2.3,2.3,0,0,1-1.5-3.7C273.3,49.5,274.3,49.5,275.3,49.4Z"/>
    <path class="cls-5" d="M185.4,90.5l-4.6,3.9-5.6,4.7-5.5,4.8-3.8,3.7a60.1,60.1,0,0,0-6.5,7.3l-.2.2a13,13,0,0,0-2.5,3.1,2.3,2.3,0,0,1-.8.8c-.9.2-1.4,1.1-2.2,1.5l-.2.2c-2.6,2.7-5.4,5.2-8.1,7.8s-3.2,3.3-5,4.7-3,3.1-4.7,4.4-3,3-4.6,4.3-3.2,3.2-5,4.7-3,3.1-4.7,4.4-3,3-4.6,4.3-3.1,3.1-4.7,4.4-3.2,3.2-4.9,4.6-3.1,3.1-4.8,4.5-3,2.8-4.5,4.3l-1.2,1c-.7.7-1.6,1.2-1.9,2.2a1.5,1.5,0,0,1-.4.5.5.5,0,0,1-.7.2c-.3-.2-.2-.4-.1-.7l1.5-3.4,3.3-7.3a1.7,1.7,0,0,0,.1-.4,15.3,15.3,0,0,0,1.8-3.6.5.5,0,0,0,.3-.5.5.5,0,0,0,.3-.5,3.4,3.4,0,0,0,1.3-2.3l.3-.3a6.3,6.3,0,0,0,1.5-2.3c1.8-3.2,3.8-6.3,5.7-9.4a2.9,2.9,0,0,0,.5-1.2c.5-.2.6-.7.9-1.1q4.2-6.7,8.6-13.3a1.2,1.2,0,0,0,.3-.7,11.9,11.9,0,0,0,2-2.8,19.6,19.6,0,0,1,2.3-2.9l6.5-7.3.3-.3c5.3-5.6,10.6-11.1,16.2-16.4a55.9,55.9,0,0,1,11.4-8.8l.2-.2c2.1-.9,4.2-1.9,6.2-3s4.4-2.8,6.7-4.2a8,8,0,0,0,2.4-1.7,9.9,9.9,0,0,0,2.7-1.4c2.9-1.7,6-3.1,9-4.6s7.9-4.4,11.8-6.7l6.9-4.4a6.2,6.2,0,0,0,1.8-1.8l10.9-16.2a32.2,32.2,0,0,0,2.8-4.3.6.6,0,0,0,.3-.5h0l.3-.3h0a.5.5,0,0,0,.3-.5h0c.6-.1.7-.6.8-1h0a2.3,2.3,0,0,0,.8-.8l4-5.9a11.7,11.7,0,0,0,1.5-2.4h0a.6.6,0,0,0,.3-.5h0c.4,0,.7-.4.9-.6,2.4-2.4,4.8-4.9,7.4-7.1l4.7-4.1a41.8,41.8,0,0,1,11.9-6.7,17.4,17.4,0,0,0,4.4-2,19.7,19.7,0,0,1,3.8-1.2l5.7-.8,3.2-.5a5.8,5.8,0,0,1,2.1,0,3.3,3.3,0,0,1-.9,1.4c-1.5,1-2.5,2.5-3.9,3.6a42.4,42.4,0,0,0-3.7,3.6,1.5,1.5,0,0,1-2.1.4c-.1-1.5-1.1-2.4-2-3.4a3.4,3.4,0,0,0-2.2-.8c-.6-.6-.8-.6-1.4,0h-.7c-.4-.3-.5,0-.6.3h-.4a.5.5,0,0,0-.5.5,2.7,2.7,0,0,1-.8.8.5.5,0,0,0-.5.5v.4a.6.6,0,0,0-.5.6h0c-.2.1-.2.2,0,.3a1.4,1.4,0,0,1,0,.2.3.3,0,0,0-.1.6v1.5a1.4,1.4,0,0,0,.6,1.8h0a2.6,2.6,0,0,0,1.8,2.1h.2c.7,1,.7,1.1-.1,1.8-2.4,1.9-4.3,4.4-6.7,6.2l-.2.2c-2.1,2.3-4.5,4.3-6.7,6.4s-4.1,3.9-6.2,5.9l-4.5,4.3c-3.3,3-6.5,6.2-9.8,9.2l-4.5,4.3c-3.3,3-6.5,6.2-9.8,9.2l-4.4,4.2-9.9,9.3-4.5,4.3a6.8,6.8,0,0,1-1.4,1.2A1.1,1.1,0,0,0,185.4,90.5Z"/>
    <path class="cls-4" d="M120,130.2a1.2,1.2,0,0,1-.3.7q-4.4,6.6-8.6,13.3c-.2.4-.4.9-.9,1.1l-3.3-2.9a10.4,10.4,0,0,0-2.2-1.4,74.9,74.9,0,0,0-16.2-6.3,52.4,52.4,0,0,0-6.7-1.2,41.2,41.2,0,0,0-4.7-.5,26.9,26.9,0,0,0-7,1.1l-2.5.7a1.1,1.1,0,0,0-1,1.2c.1,1.7-.2,3.5.2,5.2a1.5,1.5,0,0,1,0,.4c0,3.5.4,7.1.3,10.6-.1,1.8-2.6,3.6-4.2,2.8a3.8,3.8,0,0,1-2-3.2,87.1,87.1,0,0,1-.5-11.6,4.4,4.4,0,0,0,0-.5c-.1-1-.8-1.4-1.7-.9l-6.4,4.1-5.7,3.6-.4.2a13.1,13.1,0,0,1-4.5-.2,1.7,1.7,0,0,1-1.2-1.5c-.4-2.4-.3-2.7,1.8-4a24.6,24.6,0,0,1,4.6-2c3.3-1.3,6.7-2.1,10.1-3.1a1.8,1.8,0,0,0,.8-.3c.7-.6.4-1.5-.6-1.7l-3.2-.5-9-1.5-2.2-.6a2.7,2.7,0,0,1-1.4-4.1,2.8,2.8,0,0,1,2.7-1,37.4,37.4,0,0,1,7,2.3l5,2.1a1.2,1.2,0,0,0,1.5-.2c.4-.5.3-1,0-1.4l-3.7-7.4a24.9,24.9,0,0,1-1.9-4.8,4.5,4.5,0,0,1,.4-3.3,1.2,1.2,0,0,1,1.7-.8,4.2,4.2,0,0,1,2.9,2.3c2.1,4.2,4.5,8.4,6.5,12.6.7,1.5.9,1.6,2.5.9s.5-.1.7-.4,2.9-1.2,4.4-1.8.5-.3.9-.2a10.1,10.1,0,0,0,2.9.2,12.5,12.5,0,0,1,2.6.1,5.1,5.1,0,0,0,2.9-.1,20.2,20.2,0,0,1,5.6-1,58,58,0,0,1,6.7.5,73.8,73.8,0,0,1,9.6,1.5,4,4,0,0,0,1.8.3,11,11,0,0,1,4.5,0,4,4,0,0,0,2.1,0,2.6,2.6,0,0,1,1.8.1c2,.6,3.9,1.5,6,2A3.8,3.8,0,0,0,120,130.2Z"/>
    <path class="cls-4" d="M174.3,82.7a8,8,0,0,1-2.4,1.7c-2.3,1.3-4.3,2.9-6.7,4.2s-4.1,2.1-6.2,3c-.5-.2-.6-.7-.8-1.1-1.4-3.6-2.7-7.2-4.2-10.7a37.9,37.9,0,0,1-1.3-4.9,111,111,0,0,1-2.5-12,16,16,0,0,1-.3-3.7c.1-.9-.3-1.9-.3-2.8a41.3,41.3,0,0,1,.5-6,14.1,14.1,0,0,1,1.2-3.1c1.3-3.2,2.7-6.4,4-9.7.5-1.3.3-1.9-1-2.5-4.4-2-8.6-4.3-13-6.4a4.1,4.1,0,0,1-2.3-3.2,1,1,0,0,1,.7-1.1,4.7,4.7,0,0,1,3.2-.6,31.7,31.7,0,0,1,5.9,2.2l6.7,3.1c.5.2,1,.5,1.4,0a1.4,1.4,0,0,0,.1-1.7c-1.3-3-2.8-5.8-3.9-8.9-.2-.7-.4-1.4-.6-2.1a4.2,4.2,0,0,1,.5-3.2c.3-.6,1.9-.8,2.7-.6s1.8,1.5,2.1,2.7.8,3.4,1,5.2.6,3.3.9,4.9.3,1.9.5,2.8.2,1.1,1,1.1,1-.3,1.2-1.1.8-3.6,1.3-5.4a43.2,43.2,0,0,1,3.3-9.2l.4-.7a3.4,3.4,0,0,1,4.5-1.1,1.9,1.9,0,0,1,.7,1.2,6.5,6.5,0,0,1-.5,5.6c-2.3,3.6-4.5,7.4-6.7,11-.3.4-.6.9-.3,1.4a1.3,1.3,0,0,0,1.5.6,13.5,13.5,0,0,0,3.2-.2,2.7,2.7,0,0,1,1.4,0,15.1,15.1,0,0,0,3.9.2,20.6,20.6,0,0,1,4.5.5c2.3.5,2.5,2.7,1.7,4.3a3.1,3.1,0,0,1-3,1.8c-2.8-.1-5.5,0-8.3-.1s-4.1-.3-6.2-.2-2.2.3-2.4,2.3a2.7,2.7,0,0,1-1.7-.4c-1.5-.8-1.7-.7-1.7,1,0,.1,0,.2,0,.3s-.3.5-.2.8v1.8c-.1.1-.2.2-.2.3s-.3,2.7-.3,4.1a91.4,91.4,0,0,0,.2,9.2c.2,1.6,0,3.3.3,4.9s.5,4.2,1,6.3a72.8,72.8,0,0,0,3.5,11.2,52.6,52.6,0,0,0,2.7,5.6c.8,1.4,1.5,1.3,2.4,0s1.1-.4,1.6-.7a47.4,47.4,0,0,1,4.4-2.7Z"/>
    <path class="cls-5" d="M118.3,129.7c-2-.5-4-1.4-6-2a2.6,2.6,0,0,0-1.8-.1,4,4,0,0,1-2.1,0,11,11,0,0,0-4.5,0,4,4,0,0,1-1.8-.3,73.8,73.8,0,0,0-9.6-1.5,58,58,0,0,0-6.7-.5,20.2,20.2,0,0,0-5.6,1,5.1,5.1,0,0,1-2.9.1,12.5,12.5,0,0,0-2.6-.1,10.1,10.1,0,0,1-2.9-.2c-.3-.1-.6.1-.9.2s-2.9,1.3-4.4,1.8a.9.9,0,0,1,.5-1.4,75.4,75.4,0,0,1,9.1-4.1,18.3,18.3,0,0,1,6.6-1.2c1,0,1.9-.3,2.8-.3a67.1,67.1,0,0,1,7.4.7l6.4.9,4.4.8c1,.2,2,.3,3,.6s3.6,1.2,5.3,1.9l3.4,1.1,3.2,1c.6.2.7.4.3.9A1.2,1.2,0,0,1,118.3,129.7Z"/>
    <path class="cls-5" d="M158,43.6V41.8c.5-.1.6-.4.2-.8s0-.2,0-.3c0-1.7.1-1.8,1.7-1a2.7,2.7,0,0,0,1.7.4.9.9,0,0,1,.5,1.2,36.3,36.3,0,0,0-.5,7.7,40.2,40.2,0,0,0,1.1,9.4,64.7,64.7,0,0,0,2.7,9.1,35.6,35.6,0,0,0,4.9,9.6,24.7,24.7,0,0,0,2.8,3.2c.4.3.7.7.3,1.2a47.4,47.4,0,0,0-4.4,2.7c-.5.3-.9.8-1.6.7s-.9-.7-1-1.3l-2.1-9.2-1.8-7.5c-1.3-5.5-2.4-11.1-3.7-16.6a20.2,20.2,0,0,1-.7-5.6C158.2,44.5,158.4,44,158,43.6Z"/>
    <path class="cls-5" d="M169.3,202.8a4.1,4.1,0,0,0-.3-2.1,11.9,11.9,0,0,0-.3-3.5,133.9,133.9,0,0,0-2.8-13.4c-.6-2.4-1.5-4.7-2.3-7l-1.7-5a1.2,1.2,0,0,1-.1-.8.9.9,0,0,1,.7-.7c.3,0,.4.3.5.5.7,1.8,1.6,3.7,2.1,5.5s1.3,3.7,1.9,5.5a76.3,76.3,0,0,1,2.6,10.9,64.6,64.6,0,0,1,1,9.6,8.7,8.7,0,0,1,0,.9l-.2.2C169.9,203.6,170,202.7,169.3,202.8Z"/>
    <path class="cls-4" d="M253.1,14.8a2.7,2.7,0,0,0,.8-.8.5.5,0,0,0,.5-.5h.4a.5.5,0,0,0,.6-.3h.7a2.9,2.9,0,0,0,1.4,0,3.4,3.4,0,0,1,2.2.8c.9,1,1.9,1.9,2,3.4a9.2,9.2,0,0,1-.4,2.4c-.9,2.3-3.1,4-5.8,3.2h-1.1a4.3,4.3,0,0,0-1.8-2.1h0a3.3,3.3,0,0,0-.6-1.8V17.4c.3-.2.3-.3.1-.6a1.5,1.5,0,0,0,0-.2v-.3h0c.4,0,.5-.2.5-.6v-.4A.5.5,0,0,0,253.1,14.8Zm7.4,2.8c-.4.1-.5.5-.7.7a2.6,2.6,0,0,1-3.5.4,2.1,2.1,0,0,1,.1-3.6,4.9,4.9,0,0,1,2-.5,3.5,3.5,0,0,0-4.4.8,3.9,3.9,0,0,0-.4,4.6,3.7,3.7,0,0,0,4.3,1.6A3.9,3.9,0,0,0,260.6,17.6Z"/>
    <path class="cls-4" d="M257.5,10.9a17.4,17.4,0,0,1-4.4,2,41.8,41.8,0,0,0-11.9,6.7l-4.7,4.1c-2.6,2.2-4.9,4.7-7.4,7.1-.3.3-.5.6-.9.6a.9.9,0,0,1,.2-.6l2.5-2.8,9.5-9.5a6.2,6.2,0,0,1,1.7-1.2c3.7-1.8,7.3-3.6,11.1-5.1A14.2,14.2,0,0,1,257.5,10.9Z"/>
    <path class="cls-5" d="M218,126.9c-.3.2-.6,0-.8-.1l-4.1-1.9a2.7,2.7,0,0,0-1.1-.4,27.6,27.6,0,0,1-5.6-1.1c-1.3-.3-1.4-.6-1-1.8l.6-2c.2-.7.6-.8,1.2-.3l.9.9a18.5,18.5,0,0,0,7.4,4.8,5.5,5.5,0,0,1,2.3,1.3C217.9,126.5,218.1,126.7,218,126.9Z"/>
    <path class="cls-4" d="M156.8,239a8.3,8.3,0,0,1,.3,1.9,9.5,9.5,0,0,1,.3,2.5c0,.3,0,.7-.4.9a4.9,4.9,0,0,0-2,1.5c-.1.1-.3.3-.4.2a.3.3,0,0,1-.2-.4l2.2-6.5Z"/>
    <path class="cls-4" d="M166.3,240.9c-.2,0-.4-.2-.4-.4l-1.6-3.8a.4.4,0,0,1,0-.5.3.3,0,0,1,.5,0c1,.7,2.2,1.1,3.2,1.9s.4.5,0,.8a4,4,0,0,0-1.2,1.6C166.7,240.7,166.6,240.9,166.3,240.9Z"/>
    <path class="cls-4" d="M269.4,129.7a7.8,7.8,0,0,1-.2,2.2c0,.5-.5.4-.8.4l-4.4-.8v-.3Z"/>
    <path class="cls-4" d="M260.9,138.7l2.7,1.1c1,.5,1,.6.3,1.4l-.8,1c-.3.4-.8.4-.9-.1s-1.2-2.2-1.4-3.4Z"/>
    <path class="cls-4" d="M69.4,140.6a1.5,1.5,0,0,1-.7-1.4c-.1-2.6.1-2.8,2.6-3.3h.3c.2,0,.4,0,.4.2a.4.4,0,0,1-.1.3l-.8.8A4.5,4.5,0,0,0,69.4,140.6Z"/>
    <path class="cls-4" d="M228,31.9a11.7,11.7,0,0,1-1.5,2.4l-4,5.9a2.3,2.3,0,0,1-.8.8c0-1.2.9-2.1,1.5-3.1a57,57,0,0,1,4.1-5.7A.8.8,0,0,1,228,31.9Z"/>
    <path class="cls-4" d="M162.8,44.4a12.7,12.7,0,0,1,.5-3.4c.3-1,.3-1.1,1.4-1.1a2.7,2.7,0,0,1,1.3.1c-.1,1.1-1.3,1.2-1.8,2A8.5,8.5,0,0,1,162.8,44.4Z"/>
    <path class="cls-4" d="M221.7,41c-.1.5-.2.9-.8,1S221.1,41,221.7,41Z"/>
    <path class="cls-4" d="M228.2,31.4a.6.6,0,0,1-.3.5A.5.5,0,0,1,228.2,31.4Z"/>
    <path class="cls-4" d="M220.4,42.8a.6.6,0,0,1-.3.5A.5.5,0,0,1,220.4,42.8Z"/>
    <path class="cls-4" d="M221,42a.5.5,0,0,1-.3.5A.5.5,0,0,1,221,42Z"/>
    <path class="cls-4" d="M220.7,42.5l-.3.3Z"/>
    <path class="cls-4" d="M260.9,138.8h-.1c0-.1.1-.1.1,0Z"/>
    <path class="cls-6" d="M275.3,49.4c-1,.2-2,.2-2.6,1.1a2.3,2.3,0,0,0,1.5,3.7q2.1.3,2.9-2.3a3.9,3.9,0,0,1-4.4,5.2,3.7,3.7,0,0,1-2.8-2.6,4.3,4.3,0,0,1,3.3-5.6A2.9,2.9,0,0,1,275.3,49.4Z"/>
    <path class="cls-2" d="M252.6,20.7a4.3,4.3,0,0,1,1.8,2.1A2.6,2.6,0,0,1,252.6,20.7Z"/>
    <path class="cls-2" d="M252,18.9a3.3,3.3,0,0,1,.6,1.8A1.4,1.4,0,0,1,252,18.9Z"/>
    <path class="cls-2" d="M257.6,13.1a2.9,2.9,0,0,1-1.4,0C256.8,12.5,257,12.5,257.6,13.1Z"/>
    <path class="cls-2" d="M255.5,13.2a.5.5,0,0,1-.6.3C255,13.1,255.1,12.9,255.5,13.2Z"/>
    <path class="cls-2" d="M254.4,13.5a.5.5,0,0,1-.5.5A.5.5,0,0,1,254.4,13.5Z"/>
    <path class="cls-2" d="M253.1,14.8a.5.5,0,0,1-.5.5A.5.5,0,0,1,253.1,14.8Z"/>
    <path class="cls-2" d="M252.5,15.7c.1.4-.1.6-.5.6A.6.6,0,0,1,252.5,15.7Z"/>
    <path class="cls-2" d="M252.1,16.8c.3.2.2.4-.1.6A.3.3,0,0,1,252.1,16.8Z"/>
    <path class="cls-2" d="M252.1,16.3v.3C251.9,16.5,251.9,16.4,252.1,16.3Z"/>
    <path class="cls-2" d="M158,43.6c.4.4.2.9.2,1.4a20.2,20.2,0,0,0,.7,5.6c1.3,5.5,2.5,11,3.7,16.6l1.8,7.5,2.1,9.2c.1.6.3,1.2,1,1.3-.9,1.4-1.7,1.4-2.4,0a52.6,52.6,0,0,1-2.7-5.6,72.8,72.8,0,0,1-3.5-11.2c-.5-2.1-.7-4.2-1-6.3s-.1-3.3-.3-4.9a91.4,91.4,0,0,1-.2-9.2c0-1.4.4-2.7.3-4.1S157.9,43.7,158,43.6Z"/>
    <path class="cls-2" d="M158.2,41c.4.4.3.7-.2.8S157.9,41.2,158.2,41Z"/>
    <path class="cls-6" d="M260.6,17.6a3.9,3.9,0,0,1-2.6,4.1,3.7,3.7,0,0,1-4.3-1.6,3.9,3.9,0,0,1,.4-4.6,3.5,3.5,0,0,1,4.4-.8,4.9,4.9,0,0,0-2,.5,2.1,2.1,0,0,0-.1,3.6,2.6,2.6,0,0,0,3.5-.4C260.1,18.1,260.2,17.7,260.6,17.6Z"/>
  </g>
</svg>
