<?xml version="1.0" encoding="utf-8"?>
<!-- Generator: Adobe Illustrator 21.0.2, SVG Export Plug-In . SVG Version: 6.00 Build 0)  -->
<svg version="1.1" id="Layer_1" xmlns="http://www.w3.org/2000/svg" xmlns:xlink="http://www.w3.org/1999/xlink" x="0px" y="0px"
	 viewBox="0 0 100 98.2" style="enable-background:new 0 0 100 98.2;" xml:space="preserve">
<style type="text/css">
	.st0{fill:#4EB04D;}
	.st1{fill:#969696;}
	.st2{fill:#35B131;}
	.st3{fill:#5CD963;}
	.st4{fill:#3CB9EA;}
</style>
<title>Artboard 1</title>
<g>
	<path class="st0" d="M11.9,42.4c-0.4-0.3-0.5-0.7-0.8-1.1c0-0.1,0-0.2,0-0.3c0.3-1.1,0.1-1.1,1.2-1.5c0.2-0.1,0.4-0.1,0.6-0.1
		l0.4,0.1c0,0,0.1,0,0.1,0h0.2c0.3,0.1,0.7,0.3,1,0.4l0.6,0.2c0.3,0.1,0.4-0.1,0.6-0.2c0.2-0.2,0.1-0.3,0-0.5
		c-0.1-0.2-0.2-0.4-0.3-0.6c-0.3-0.6-0.5-1.2-0.7-1.8c-0.2-0.8,0.1-1.6,0.8-2.1c0.2-0.1,0.4-0.2,0.6-0.1c0.3,0.1,0.7,0.2,1,0.4
		c0.4,0.5,0.7,1,0.9,1.5c0.3,0.5,0.5,1.1,0.9,1.6c0.1,0.2,0.2,0.3,0.3,0.5c0.1,0.4,0.4,0.7,0.6,1.1c0,0.1,0.1,0.2,0.2,0.2
		c0,0,0,0,0.1,0c0.3-0.1,0.6-0.2,0.8-0.4h0.1c0,0,0.1,0,0.1-0.1l2.3-1c0.3-0.1,0.6-0.2,1-0.3c0.1,0,0.2,0,0.2-0.1H25
		c0.1,0,0.3,0.1,0.4-0.1h1.1c0.9,0,1.9,0.1,2.8,0.2c1.4,0.2,2.8,0.5,4.2,0.8c1.4,0.3,2.5,0.9,3.8,1.3c0.8,0.2,0.7,0.3,1.2-0.4V40
		l0.2-0.3c0.6-1,1.4-1.8,2.3-2.5l0.8-0.8c1.4-1.4,2.9-2.8,4.3-4.1c1.5-1.4,2.4-2.1,3.5-3l0.2-0.1c0.2-0.1,0.2-0.3,0.1-0.5
		c-0.3-0.7-0.5-1.5-0.9-2.3c-0.8-1.8-1.2-3.8-1.6-5.7c-0.2-1.2-0.4-2.5-0.4-3.8c0-0.7,0.1-1.4,0.2-2.1c0-0.1,0.1-0.2,0.2-0.3
		l1.1-2.6c0.1-0.2,0.1-0.4,0.2-0.6c0.1-0.1,0.2-0.2,0.2-0.3c0.1-0.3,0.1-0.3-0.2-0.5l-0.5-0.2l-3-1.5c-0.1-0.1-0.3-0.2-0.4-0.2l0,0
		c0,0,0-0.1-0.1-0.1c0,0,0,0,0,0c-0.4-0.2-0.7-0.6-0.9-1.1c0-0.2-0.1-0.3-0.2-0.5c-0.1-0.2-0.1-0.5,0.1-0.6c0.5-0.5,1.2-0.8,1.9-0.7
		c0.2,0.1,0.4,0.1,0.6,0.2c0.6,0.2,1.3,0.5,1.9,0.8c0.2,0.1,0.3,0.1,0.5,0.1c0.3,0,0.4-0.2,0.3-0.5c-0.1-0.4-0.3-0.7-0.5-1.1
		c-0.1-0.4-0.3-0.9-0.4-1.3c-0.1-0.2,0-0.5,0.1-0.7c0.5-1.1,0.2-0.8,1.2-1.1h0.2c0.8,0,1.5,0.6,1.7,1.4c0.1,0.4,0.4,0.7,0.6,1
		c0.1,0.1,0.1,0.1,0.2,0.2c0.1,0.1,0.3,0.1,0.3-0.1L52.7,3c0.2-0.3,0.4-0.6,0.6-0.9l0.3-0.3c0.2-0.2,0.5-0.3,0.8-0.3h0.4
		c0.1,0.1,0.2,0.1,0.4,0.1c0.2,0,0.3,0,0.5,0.1c0.3,0.5,0.5,1,0.6,1.6c0.1,0.6,0.1,1.2-0.1,1.7c-0.2,0.5-0.5,0.9-0.7,1.4
		c-0.2,0.4-0.4,0.9-0.4,1.3c0,0.4,0.1,0.5,0.5,0.5h1.5c0.1,0.1,0.2,0.1,0.3,0.1h0.5c0,0,0.1,0,0.1,0l0.4,0.1l0.6,0.6
		c0.3,0.3,0.5,0.6,0.6,1c0.2,0.8-0.2,1.6-1,1.9c-0.3,0.1-0.7,0.2-1,0.2h-2.9c-1.2,0-1.7,0.7-1.9,1.6c-0.1,0.8-0.1,1.7,0,2.5
		c0.2,1.4,0.5,2.8,1,4.1c0.5,1.2,1,2.4,1.7,3.6c0.3,0.4,0.6,0.8,1,1.1c0.1,0.1,0.2,0.1,0.3,0.1c0.1-0.1,0.6-0.2,0.8-0.4
		c2.5-1.2,5-2.4,7.3-3.9c0.5-0.3,0.9-0.7,1.3-1c0.5-0.4,0.9-0.9,1.2-1.5l4.4-7.4c0.6-0.9,1.2-1.8,1.9-2.6c1.3-1.5,2.7-2.8,4-4.1
		c0.1-0.1,0.3-0.2,0.4-0.3l2.3-1.1c1.1-0.6,2.2-1,3.4-1.3c1.7-0.4,3.4-0.7,5.1-0.9c0.7-0.1,1.5-0.1,2.2-0.2c0.5,0,1.1,0,1.6,0h0.9
		c0.1,0.1,0.2,0.1,0.3,0.1h0.5c0.1,0.1,0.2,0.1,0.3,0.1h0.2l0.1,0.1c0.9,0.1,1.8,0.4,2.6,0.9c0.6,0.3,1,0.8,1.2,1.4
		c0,0.1,0.1,0.2,0.1,0.2c0.3,0.4,0.4,0.9,0.4,1.5c0.1,1.6,0,3.2-0.2,4.7c-0.2,0.9-0.3,1.8-0.5,2.7c-0.4,1.5-0.9,3-1.5,4.4
		c-0.5,1.2-1.2,2.2-2.1,3.2c-0.8,0.9-1.7,1.7-2.7,2.3c-1,0.6-2.1,1.1-3.2,1.5L87.2,24c-1,0.4-2,0.6-3,0.9l-4.3,1
		c-1.3,0.3-2.6,0.7-3.9,1.1c-1.3,0.4-2.6,1-3.8,1.7c-0.9,0.5-1.6,1.3-1.9,2.3c-0.2,0.6-0.4,1.2-0.7,1.8c-0.2,0.6-0.7,1.9-1.2,2.7
		c-0.2,0.5-0.4,1-0.6,1.5c-0.1,0.7,0.2,1.4,0.8,1.8c0.7,0.4,1.5,0.7,2.2,1.1c1.5,0.7,3.2,1.2,4.9,1.5c0.6,0.1,1.2,0.2,1.8,0.2h0.6
		c0.1,0,0.2,0,0.3-0.1c0.5-0.1,1-0.2,1.5-0.3c0.2,0,0.2-0.2,0.2-0.3c0-0.2,0-1.3,0-2c0-0.7,0-2,0-3c0-0.2,0.1-0.4,0.2-0.6
		c0.5-0.6,1.1-0.8,1.8-0.9c0.2,0,0.4,0.1,0.6,0.2c0.1,0.2,0.2,0.3,0.4,0.5c0.2,0.2,0.3,0.5,0.3,0.7c0,0.1,0,0.2,0.1,0.3
		c0.1,0.1,0.1,0.2,0.2,0.4c0.1,0.3,0.1,0.7,0.2,1.1c0,0.3,0,0.6,0.1,0.9c0,0.2,0.1,0.4,0.3,0.6c0.1,0.1,0.2,0.2,0.2,0.1
		c0.1-0.1,0.4-0.2,0.6-0.4c0.6-0.3,1.2-0.6,1.7-1c0.6-0.4,1.3-0.5,2.1-0.4c0.2,0.1,0.5,0.1,0.8,0.3c0.2,0.1,0.4,0.2,0.5,0.4
		c0.2,0.3,0.3,0.7,0.4,1c0.2,0.6-0.1,1.2-0.6,1.5l-1.1,0.8c-0.2,0.1-0.4,0.3-0.5,0.5c-0.1,0.3-0.1,0.5,0.3,0.6l0.5,0.2
		c0.2,0.1,0.4,0.2,0.5,0.5c0.1,0.3,0.3,0.5,0.5,0.7c0.1,0.1,0.1,0.1,0.1,0.2c0.3,0.6,0,1.4-0.7,1.7c-0.1,0.1-0.3,0.1-0.5,0.1
		c-0.4,0.1-0.9,0-1.3-0.2c-0.3-0.1-0.6-0.2-0.9-0.1c-0.5,0.1-0.9,0.7-0.7,1.3s0.3,1,0.4,1.5c0.1,0.4,0,0.9-0.2,1.3
		c-0.4,0.6-0.9,0.7-1.6,0.5c-0.4-0.1-0.7-0.3-1-0.5c-0.2-0.2-0.4-0.4-0.5-0.7l-1.2-2.4c0-0.1-0.1-0.2-0.1-0.3
		c-0.1-0.2-0.2-0.4-0.3-0.6c-0.1-0.4-0.2-0.4-0.5-0.4h-0.4c-0.6,0.1-1.1,0.3-1.7,0.6c-1,0.4-2,0.7-3,0.8c-0.4,0-0.8-0.1-1.2-0.1
		c-0.9,0-1.7-0.1-2.5-0.3c-1.1-0.2-2.3-0.4-3.4-0.7c-0.7-0.2-1.4-0.4-2.1-0.6c-0.7-0.2-1.2-0.4-1.7-0.7c-0.8-0.3-1.7-0.2-2.3,0.4
		c-0.6,0.7-1.2,1.4-1.8,2.1s-1.3,1.4-1.9,2.1c-0.6,0.7-0.8,0.9-1.2,1.3s-1.5,1.6-2.4,2.4c-0.8,0.7-1.2,1.1-1.8,1.7
		c-0.4,0.4-0.6,0.8-0.6,1.4c0,0.6,0.1,1.2,0.4,1.8c0.4,1.1,0.8,2.1,1.1,3.2c0.2,0.9,0.4,1.8,0.5,2.7c0.2,0.9,0.3,1.8,0.3,2.8
		c0,0.4,0,0.8,0,1.3c0,0.9-0.2,1.9-0.6,2.7c-0.2,0.5-0.4,1-0.6,1.5c-0.2,0.5-0.3,1-0.3,1.6c0,0.3,0.2,0.6,0.5,0.8l0.8,0.4l2.2,1.2
		c0.3,0.2,0.5,0.4,0.7,0.7c0.1,0.2,0.2,0.3,0.3,0.4c0.3,0.4,0.3,1-0.1,1.3c-0.4,0.5-1,0.5-1.6,0.4c-0.5-0.1-1.1-0.2-1.6-0.5
		c-0.2-0.1-0.4-0.1-0.5,0c-0.5,0.2-0.8,0.7-0.7,1.2c0,0.3,0.1,0.6,0.2,0.9c0.1,0.2,0.1,0.4,0.1,0.6c0,0.6-0.4,1.2-1,1.3
		c-0.4,0.1-0.8,0.1-1.2,0c-0.2,0-0.4-0.1-0.6-0.3c-0.1-0.1-0.1-0.1-0.2-0.1l-0.2-0.2c-0.1-0.3-0.2-0.7-0.4-1
		c-0.1-0.3-0.1-0.3-0.4-0.2l-0.2,0.2c-0.3,0.3-0.6,0.7-0.9,1.1c-0.4,0.6-1.1,0.9-1.8,0.7c-0.3-0.1-0.7-0.1-1-0.1
		c-0.4-0.4-0.6-0.9-0.7-1.4c0-0.4,0-0.7,0-1.1c0-0.2,0.1-0.4,0.2-0.6c0.3-0.5,0.6-1,0.9-1.5c0-0.1,0.2-0.2,0.2-0.3
		c0.4-0.5,0.7-1.1,1.1-1.7c-0.7,0.1-1.3-0.1-1.9-0.1c-0.6,0-1.3-0.1-1.9-0.2c-0.3,0-0.5-0.2-0.7-0.4c-0.1-0.1-0.2-0.3-0.4-0.4
		c-0.2-0.3-0.3-0.6-0.2-0.9c0.1-0.7,0.5-1.3,1.1-1.7c1.7,0,3.3,0,4.9,0.2c0.8,0.1,0.7,0.2,0.9-0.8c0.3-1.1,0.4-2.2,0.2-3.3
		c-0.1-1.2-0.3-2.4-0.7-3.5c-0.4-1.2-0.8-2.3-1.4-3.4c0-0.1-0.1-0.2-0.2-0.3l0,0c0-0.2-0.1-0.4-0.2-0.6c-0.2-0.5-0.7-0.8-1.2-0.6
		c0,0,0,0,0,0c-0.3,0-0.5,0.1-0.7,0.3c-1.2,0.7-2.3,1.4-3.4,2.2l-2.1,1.5c-0.6,0.5-1.2,0.9-1.8,1.4l-1.7,1.4
		c-0.7,0.6-1.4,1.2-2.1,1.8s-1.5,1.3-2.3,2l-2.1,1.9c-0.9,0.8-1.8,1.6-2.6,2.4l-0.9,0.8c-0.7,0.6-1.4,1.2-2.1,1.9L23.4,78l-0.8,0.8
		l-2.2,1.9c-0.4,0.4-0.8,0.8-1.2,1.1c-0.4,0.3-0.6,0.6-1,0.9l-2.1,1.8c-0.5,0.4-0.9,0.9-1.4,1.3l-1,0.9l-2.4,2
		c-1,0.8-1.9,1.8-2.8,2.6l-0.3,0.3c-0.4,0.3-0.8,0.8-1.3,1.1c-0.5,0.4-1,0.9-1.4,1.3c-0.7,0.7-1.5,1.3-2.2,1.9
		c-0.2,0.2-0.4,0.3-0.7,0.3c-0.1,0-0.3,0.1-0.3,0.2L2,96.6l-1.4,1.3c-0.1,0.1-0.4,0.1-0.5,0c0,0,0,0,0,0c-0.1-0.2-0.1-0.4,0-0.6
		l3.5-4.4c2.3-3,4.6-5.9,6.9-8.9c3.7-4.8,7.3-9.7,10.8-14.7c2.2-3.2,4.4-6.4,6.3-9.7c0.9-1.5,1.7-3.1,2.4-4.7c0.3-0.6,0.6-1.2,1-1.8
		H31c0,0,0,0.1,0,0.1l-1.1,2.4l-0.5,1.1c0,0.1-0.1,0.2,0,0.2c0.1,0,0.2,0,0.2-0.1c0,0,0,0,0,0c0.1,0,0.1-0.1,0.1-0.2
		c0.1-0.3,0.4-0.5,0.6-0.7l0.4-0.3c0.5-0.5,1-1,1.5-1.4c0.5-0.5,1-1,1.6-1.5c0.6-0.5,1.1-1.1,1.6-1.5c0.6-0.5,1-1,1.6-1.5
		c0.6-0.5,1-1,1.5-1.4c0.5-0.4,1-1,1.6-1.5s1.1-1.1,1.7-1.6c0.6-0.5,1-1,1.5-1.4c0.5-0.4,1-1,1.6-1.5c0.6-0.5,1.1-1,1.7-1.6
		c0.6-0.5,1.9-1.7,2.7-2.6l0.1-0.1c0.3-0.1,0.4-0.4,0.7-0.5c0.3-0.1,0,0.1,0,0.1l-1.2,1.4l-1.1,1.4l-1.5,2.1c-0.8,1-1.5,2.1-2.3,3.1
		c-0.4,0.7-0.9,1.3-1.5,1.9c-1,1-2,1.9-3,2.8l-1.5,1.5l-3.3,3.1l-1.4,1.3L30,59.7c-0.8,0.8-1.7,1.6-2.5,2.4l-0.1,0.1
		c-0.6,0.4-1.1,0.9-1.4,1.5c-0.2,0.4-0.4,0.7-0.7,1c-1.2,1.8-2.4,3.5-3.6,5.3l-1.2,1.7c-0.4,0.6-0.9,1.3-1.4,1.9l-2.3,3.1l-2.6,3.6
		l-2.6,3.5l-2.8,3.5l-2.1,2.7l-2.9,3.7c-0.1,0.1-0.2,0.2-0.1,0.4l1.1-1.1l2-1.8l1.9-1.7l2.8-2.5l1.9-1.7l2.8-2.5l1.8-1.6l2.6-2.4
		c0.7-0.6,1.4-1.3,2.1-1.9l0.9-0.8c0.7-0.6,1.4-1.2,2.1-1.8l1.1-1c0.9-0.8,1.8-1.5,2.6-2.3c0.9-0.8,1.1-1.1,1.7-1.5l0.8-0.7l1.6-1.4
		l1.6-1.4l1.9-1.6c0.7-0.6,1.4-1.2,2.1-1.7c0.7-0.6,1.9-1.3,2.8-2c0.9-0.7,2.2-1.4,3.3-2.2l1.1-0.7c0.2-0.2,0.5-0.2,0.7,0
		c0,0,0.1,0.1,0.1,0.1c0.1,0.2,0.3,0.3,0.4,0.5c0.5,0.5,0.9,1.1,1.2,1.7c0.4,0.8,0.7,1.6,1,2.4c0.5,1.2,0.8,2.4,1,3.6
		c0.1,0.7,0.2,1.3,0.3,2c0.1,0.7,0,1.3-0.1,2c-0.1,0.6-0.3,1.2-0.5,1.8c-0.1,0.3-0.2,0.4-0.5,0.4c-0.4,0-0.8,0-1.2-0.1l-1.3-0.1
		c-0.9,0-1.8,0-2.6-0.1c-0.3,0-0.6,0.1-0.8,0.4c-0.3,0.3-0.4,0.7-0.2,1.1c0.1,0.4,0.5,0.6,0.9,0.6l0.8,0.1c0.8,0.1,1.6,0.2,2.4,0.2
		h0.9c0.5,0,0.6,0.2,0.3,0.6c-0.2,0.4-0.6,1-0.9,1.5L46.5,79c-0.1,0.1-0.1,0.2-0.1,0.4c0,0.4,0,0.7,0,1.1c0,0.3,0.1,0.7,0.6,0.7
		l0.6,0.1c0.1,0,0.2,0,0.3-0.1c0.2-0.2,0.3-0.4,0.5-0.7c0.5-1,0.9-2,1.2-3l0.5-1.8c0.1-0.2,0.2-0.4,0.4-0.3c0.2,0,0.3,0.2,0.3,0.4
		c0.1,0.2,0.2,1,0.2,1.5c0.1,0.5,0.2,1.6,0.4,2.4c0,0.3,0.1,0.6,0.2,0.9c0.2,0.4,0.8,0.6,1.3,0.4c0.2-0.1,0.5-0.7,0.4-1
		c-0.1-0.4-0.1-0.7-0.3-1.1c-0.2-0.6-0.4-1.2-0.7-1.8c-0.3-0.6-0.3-0.8-0.5-1.2c-0.1-0.2-0.1-0.4,0.1-0.5c0.1,0,0.2-0.1,0.3,0
		c0.1,0,0.3,0.1,0.4,0.1l1.4,0.7c0.8,0.4,1.6,0.8,2.4,1.1c0.4,0.1,0.9,0.1,1.3-0.1c0.2-0.1,0.3-0.2,0.2-0.4c0-0.5-0.3-0.9-0.7-1.1
		L55.7,75l-2.9-1.5l-0.3-0.2c-0.2-0.1-0.2-0.3-0.2-0.5c0,0,0,0,0,0l0.3-0.7c0.4-0.9,0.8-1.8,1.2-2.7c0.3-0.7,0.5-1.5,0.5-2.3
		c0-0.5,0-1.1,0-1.6c0.2,0,0.2,0.3,0.4,0.3l0.1-0.1c0-0.1,0-0.2,0-0.3c0-1.1-0.1-2.1-0.3-3.2c-0.2-1.2-0.5-2.4-0.9-3.6
		c-0.2-0.6-0.4-1.2-0.6-1.8s-0.5-1.2-0.7-1.8c0-0.1-0.1-0.2-0.2-0.2c-0.1,0-0.2,0.1-0.2,0.2c0,0.1,0,0.2,0,0.3l0.6,1.7
		c0.3,0.8,0.6,1.5,0.8,2.3c0.4,1.5,0.7,2.9,0.9,4.4c0.1,0.4,0.1,0.8,0.1,1.2c-0.3-0.1-0.3-0.4-0.3-0.6c-0.2-0.8-0.4-1.6-0.7-2.4
		l-1.8-6.2c0-0.2-0.1-0.3,0.1-0.4c0.2-0.1,0.2-0.3,0.1-0.5c-0.1-0.3-0.1-0.4,0.2-0.6c1-0.7,1.9-1.6,2.7-2.4c0.9-0.8,2.4-2.4,3.5-3.6
		l0.1-0.1l2.1-2.3l1.2-1.4c0.4-0.4,0.7-0.9,1.2-1.4c0.1-0.2,0.4-0.2,0.6-0.1l2.2,0.9c0.7,0.3,1.4,0.6,2.1,0.8
		c1.8,0.5,3.6,0.9,5.5,1.2c0.5,0.1,1,0.1,1.5,0.1h1.2c0.5,0,1.1-0.1,1.6-0.3l2.4-1l1.3-0.5c0.4-0.1,0.5-0.1,0.7,0.3l2.2,4.5
		c0.2,0.3,0.4,0.6,0.8,0.6c0.4,0.1,0.6,0,0.7-0.4c0.1-0.3,0.1-0.6,0.1-0.9c0-0.2-0.1-0.3-0.1-0.5c-0.3-0.9-0.7-1.8-1.2-2.7
		c-0.2-0.4-0.3-0.8-0.5-1.1c-0.2-0.4,0.1-0.4,0.3-0.4c0.2,0,0.3,0.1,0.5,0.1l1.2,0.5c0.8,0.4,1.5,0.7,2.4,0.9c0.4,0.1,0.8,0,1.1-0.3
		c0.3-0.4,0.2-1-0.3-1.3c0,0,0,0,0,0c-0.2-0.1-0.5-0.2-0.8-0.3l-1.6-0.3l-2.4-0.5c-0.3-0.1-0.4-0.1-0.4-0.4c0-0.2,0.1-0.3,0.4-0.4
		l0.9-0.2c1.2-0.3,2.3-0.6,3.4-1c0.4-0.1,0.8-0.4,1.1-0.7c0.1-0.1,0.2-0.2,0.2-0.3c-0.1-0.1,0-0.6-0.2-0.9l-0.1-0.1
		c-0.5-0.3-1.1-0.3-1.7-0.2l-0.1,0.1l-2.3,1.4l-1.7,1c-0.1,0.1-0.3,0.1-0.5,0c-0.2-0.1-0.2-0.3-0.2-0.5c0-0.1,0.1-0.2,0.1-0.3
		c0-1.3,0-2.5-0.1-3.8c-0.1-0.6-0.6-1-1.1-0.9c-0.4,0.1-0.9,0.4-0.9,0.7c0,0.5,0,1-0.1,1.5c0,0.1,0,0.1,0,0.2
		c0.1,0.3,0.1,0.5,0.1,0.8c0,0.9,0,1.8,0,2.7c0,0.1,0,0.2,0,0.3c0,0.2-0.1,0.4-0.3,0.4c0,0,0,0-0.1,0L80.1,42
		c-0.9,0.3-1.9,0.4-2.9,0.4c-0.4,0-0.9-0.1-1.3-0.2c-0.7-0.1-1.5-0.3-2.2-0.4c-0.7-0.2-1.6-0.6-2.4-0.6h-0.1L69,40.7l-2.7-0.6
		c-0.5-0.1-0.6-0.3-0.3-0.7c0.2-0.3,0.3-0.7,0.4-1c0-0.1,0.1-0.3,0-0.4c-0.1-0.1-0.1-0.4,0-0.7c0.5-1,1-2,1.4-2.9
		c0.7-1.7,1.4-3.4,1.9-5.1c0.1-0.2,0.2-0.4,0.4-0.5l0.5-0.3c1.5-0.8,3-1.4,4.5-2c1.5-0.5,3.1-0.9,4.7-1.3l2.7-0.6
		c1.2-0.2,2.3-0.5,3.5-0.9l2.4-0.9c1.3-0.4,2.5-1,3.6-1.8c1.1-0.8,2-1.7,2.7-2.7c1.2-1.8,2-3.9,2.5-6c0.4-1.6,0.7-3.2,0.9-4.9
		c0.1-0.8,0.1-1.6,0.2-2.4c0.1-0.8-0.1-1-0.1-1.5c0-0.6-0.3-1.2-0.9-1.6c-0.3-0.2-0.7-0.4-1.1-0.6c-1.3-0.4-2.6-0.6-3.9-0.6
		c-0.2,0-0.4,0.1-0.5,0.2l-1.2,1.2l-3.3,3.1l-2.7,2.6l-1.9,1.8l-0.2,0.2L81,10.9l-2.1,1.6l-2,1.6l-2,1.8l-1.3,1.1l-2,1.7l-1.3,1.1
		l-1.9,1.5l-1.3,1.1l-2.4,2c-0.6,0.5-1.2,1-1.8,1.4l-1.4,1.1c-0.6,0.5-1.2,1-1.9,1.5c0-0.2,0-0.3,0.2-0.4c0.2-0.1,0.3-0.2,0.5-0.4
		l1.5-1.4l3.3-3.1l1.5-1.4c1.1-1,2.2-2.1,3.2-3l1.5-1.4c1.1-1,2.2-2.1,3.2-3l1.5-1.4c0.7-0.6,1.4-1.3,2.1-2c0.7-0.7,1.5-1.4,2.2-2.1
		l0.1-0.1c0.8-0.6,1.4-1.4,2.2-2.1c0.3-0.2,0.3-0.3,0-0.6H83c0.9,0.3,1.6-0.3,1.9-1.1C85,4.6,85,4.3,85,4c0.2,0.2,0.5,0.1,0.7-0.1
		c0,0,0,0,0,0c0.4-0.4,0.8-0.8,1.2-1.2c0.5-0.4,0.8-0.9,1.3-1.2c0.1-0.1,0.2-0.3,0.3-0.5c-0.2,0-0.5,0-0.7,0l-1.1,0.2l-1.9,0.3
		c-0.4,0.1-0.9,0.2-1.3,0.4c-0.5,0.1-1,0.2-1.4,0.4C81,2.8,79.7,3.4,78.6,4c-0.2,0.1-0.4,0.2-0.6,0.4l-3.2,3.2L74,8.5
		c0,0.1-0.1,0.1-0.1,0.2l0,0c-0.1,0-0.1,0.1-0.1,0.2l0,0c-0.1,0-0.2,0-0.2,0.1c-0.5,0.6-0.9,1.2-1.4,1.9c-0.2,0.3-0.5,0.6-0.5,1l0,0
		c-0.2,0-0.2,0.2-0.3,0.3l0,0c-0.1,0-0.1,0.1-0.1,0.2l0,0l-0.1,0.1l0,0c-0.1,0-0.1,0.1-0.1,0.2c-0.3,0.5-0.6,1-0.9,1.4l-3.5,5.4
		c-0.2,0.2-0.4,0.4-0.6,0.6l-2.3,1.5c-1.3,0.8-2.6,1.6-3.9,2.2c-1.3,0.7-2,1-3,1.5c-0.3,0.2-0.6,0.4-0.9,0.5l-0.3-0.4
		c0.1-0.2,0-0.3-0.1-0.4c-0.3-0.3-0.6-0.7-0.9-1.1c-0.7-1-1.2-2-1.6-3.2c-0.4-1-0.7-2-0.9-3c-0.2-1-0.4-2.1-0.4-3.1
		c0-0.9,0-1.7,0.2-2.5c0.1-0.2,0-0.3-0.2-0.4c0,0,0,0,0,0c0-0.7,0.1-0.8,0.8-0.8c0.7,0,1.4,0.1,2.1,0.1c0.7,0,1.8,0,2.7,0
		c0.4,0,0.8-0.2,1-0.6c0.3-0.5,0.2-1.2-0.6-1.4c-0.5-0.1-1-0.2-1.5-0.2c-0.4,0-0.9,0-1.3-0.1c-0.2,0-0.3,0-0.5,0
		c-0.3,0.1-0.7,0.1-1.1,0.1c-0.2,0.1-0.4,0-0.5-0.2c-0.1-0.2,0-0.3,0.1-0.5c0.7-1.2,1.5-2.4,2.2-3.6c0.3-0.6,0.4-1.2,0.2-1.9
		c0-0.2-0.1-0.3-0.2-0.4c-0.5-0.3-1.2-0.1-1.5,0.4l-0.1,0.2c-0.5,1-0.8,2-1.1,3c-0.2,0.6-0.3,1.2-0.4,1.8C52.1,8.3,52.1,8,51.8,8
		s-0.3-0.2-0.3-0.4c0-0.2-0.1-0.6-0.2-0.9c-0.1-0.3-0.2-1.1-0.3-1.6C51,4.6,50.8,4,50.7,3.4S50.5,2.6,50,2.5c-0.5-0.1-0.8,0-0.9,0.2
		C48.9,3,48.9,3.4,49,3.8C49,4,49.1,4.2,49.2,4.5c0.4,1,0.9,2,1.3,2.9c0.1,0.2,0,0.4-0.1,0.5c-0.1,0.2-0.3,0.1-0.5,0l-2.2-1
		c-0.6-0.3-1.3-0.6-2-0.7c-0.4-0.1-0.7,0-1.1,0.2c-0.2,0-0.3,0.2-0.2,0.4c0.1,0.5,0.3,0.9,0.8,1.1c1.5,0.7,2.8,1.5,4.3,2.1
		c0.4,0.2,0.5,0.4,0.3,0.8c-0.4,1.1-0.9,2.1-1.3,3.2c-0.2,0.3-0.3,0.7-0.4,1c-0.1,0.7-0.2,1.3-0.2,2c0,0.3,0.1,0.6,0.1,0.9
		c0,0.4,0,0.8,0.1,1.2c0.2,1.3,0.5,2.7,0.8,4c0.1,0.5,0.3,1.1,0.4,1.6c0.5,1.2,0.9,2.4,1.4,3.5c0.1,0.1,0.1,0.3,0.3,0.4L51,28.7
		c-1.4,0.8-2.6,1.8-3.8,2.9c-1.9,1.8-3.6,3.6-5.4,5.4l-0.1,0.1l-2.2,2.4c-0.3,0.3-0.5,0.6-0.8,1c-0.2,0.3-0.4,0.7-0.7,0.9
		c-0.2,0-0.4-0.1-0.6-0.2c0.1,0,0.2-0.1,0.3-0.2c0.1-0.2,0.1-0.2-0.1-0.3l-1.1-0.3l-1.1-0.4c-0.6-0.2-1.2-0.5-1.8-0.6
		c-0.6-0.2-0.7-0.1-1-0.2L31.4,39l-2.1-0.3c-0.8-0.1-1.6-0.2-2.4-0.2c-0.3,0-0.6,0.1-0.9,0.1c-0.7,0-1.5,0.1-2.2,0.4
		c-1,0.4-2,0.8-3,1.4c-0.2,0-0.3,0.2-0.2,0.4c0,0,0,0.1,0,0.1c0,0.1-0.1,0.1-0.2,0.1c-0.1,0-0.6,0.2-0.8-0.3
		c-0.7-1.4-1.5-2.8-2.2-4.2c-0.2-0.4-0.5-0.7-1-0.8c-0.2-0.1-0.4,0-0.5,0.2c0,0,0,0.1,0,0.1c-0.2,0.3-0.2,0.7-0.1,1.1
		c0.2,0.6,0.4,1.1,0.6,1.6l1.2,2.4c0.1,0.2,0.1,0.3,0,0.5c-0.1,0.1-0.3,0.2-0.5,0.1l-1.7-0.7c-0.7-0.3-1.5-0.6-2.3-0.8
		c-0.3-0.1-0.7,0.1-0.9,0.3c-0.3,0.4-0.2,1,0.2,1.2c0.1,0,0.2,0.1,0.2,0.1l0.7,0.2l3,0.5l1.1,0.2c0.3,0.1,0.4,0.4,0.2,0.6
		c-0.1,0.1-0.2,0.1-0.3,0.1c-1.1,0.3-2.3,0.6-3.3,1c-0.5,0.2-1,0.4-1.5,0.7c-0.7,0.4-0.7,0.5-0.6,1.3c0,0.2,0.2,0.4,0.4,0.5
		c0.5,0.1,1,0.1,1.5,0.1l0.1-0.1l1.9-1.2l2.1-1.4c0.3-0.2,0.5-0.1,0.6,0.3c0,0.1,0,0.1,0,0.2c0,1.3,0,2.6,0.2,3.8
		c0,0.4,0.3,0.8,0.7,1.1c0.5,0.3,1.4-0.3,1.4-0.9c0-1.2-0.1-2.4-0.1-3.5c0,0,0-0.1,0-0.1c-0.1-0.6,0-1.1-0.1-1.7
		c0-0.2,0.1-0.4,0.3-0.4c0,0,0,0,0,0l0.8-0.2c0.8-0.2,1.5-0.3,2.3-0.4c0.5,0,1,0.1,1.6,0.2c0.7,0.1,1.5,0.2,2.2,0.4
		c1.9,0.5,3.7,1.2,5.4,2.1c0.3,0.1,0.5,0.3,0.7,0.5l1.1,1c0,0.1-0.1,0.3-0.2,0.4c-0.6,1-1.3,2.1-1.9,3.1c-0.1,0.3-0.3,0.5-0.5,0.8h0
		c0.2-0.4,0.4-0.9,0.6-1.3l1.1-2.1c0.4-0.5,0.4-0.5-0.1-0.9l-0.3-0.3c-0.2-0.2-0.4-0.4-0.7-0.5c-0.9-0.5-1.8-0.9-2.7-1.2
		c-1.4-0.6-2.8-0.9-4.2-1.1c-0.9-0.1-1.8-0.1-2.6,0c-0.9,0.2-1.5,0.6-1.7,1.6c0,0,0,0.1,0,0.1c0,0.8,0,1.5,0,2.3
		c0.1,0.7,0.1,1.3-0.1,2c-0.1,0.5-0.6,0.9-1.1,1c-0.5,0.1-1.1,0.1-1.6,0.1l0,0c0-0.1-0.1-0.2-0.2-0.2l-0.1-0.1
		c-0.5-0.4-0.7-1-0.8-1.6c0-0.3-0.1-0.7-0.1-1c0-0.3,0-0.5-0.1-0.8c0-0.3-0.1-0.4-0.5-0.4c-0.3,0.1-0.7,0.2-1,0.4
		c-0.4,0.3-0.8,0.5-1.3,0.8c-0.4,0.2-0.9,0.3-1.4,0.3c-0.7,0-1.4-0.2-2.1-0.5c-0.2-0.1-0.4-0.4-0.4-0.7c0-0.3-0.1-0.5-0.1-0.8
		c-0.1-0.3,0-0.6,0.3-0.8c0.3-0.3,0.6-0.6,1-0.8l0.6-0.3l1.2-0.4c0.1,0,0.2-0.1,0.2-0.2c-0.1-0.3-0.3-0.5-0.6-0.6
		C13.1,42.8,12.5,42.6,11.9,42.4z M84.7,44.2C84.7,44.2,84.7,44.2,84.7,44.2L84.7,44.2c0,0.4,0.3,0.7,0.5,1.1c0.1,0.4,0.2,0.2,0.3,0
		l0.3-0.3c0.2-0.3,0.2-0.3-0.1-0.5L84.7,44.2z M70.5,40.3c0-0.1,0-0.1-0.1-0.2c-0.2-0.2-0.5-0.4-0.8-0.4c-0.9-0.3-1.8-0.9-2.4-1.6
		l-0.3-0.3c-0.2-0.2-0.3-0.1-0.4,0.1l-0.2,0.7c-0.1,0.4-0.1,0.5,0.3,0.6c0.6,0.2,1.2,0.3,1.9,0.4c0.1,0,0.3,0.1,0.4,0.1l1.4,0.6
		C70.3,40.4,70.4,40.4,70.5,40.3L70.5,40.3z M50.3,77.5L50.3,77.5l-0.8,2.2c0,0.1,0,0.1,0.1,0.1c0,0,0,0,0,0c0.1,0,0.1,0,0.1-0.1
		c0.2-0.2,0.4-0.4,0.7-0.5c0.1,0,0.1-0.2,0.1-0.3c0-0.3,0-0.6-0.1-0.8C50.4,77.9,50.3,77.7,50.3,77.5z M53.5,78.1
		c0.1,0,0.1-0.1,0.1-0.1c0.1-0.2,0.2-0.4,0.4-0.5c0.1-0.1,0.1-0.2,0-0.3c-0.1-0.1-0.7-0.4-1.1-0.6c0,0-0.1-0.1-0.1,0c0,0,0,0,0,0
		c0,0,0,0.1,0,0.2l0.5,1.3C53.3,78,53.4,78.1,53.5,78.1L53.5,78.1z M87.6,41.3l-1.8,0.5v0.1l1.5,0.3c0.1,0,0.3,0,0.3-0.1
		C87.5,41.8,87.6,41.5,87.6,41.3L87.6,41.3z M21.3,44.9c0-0.4,0.2-0.8,0.6-1.1l0.3-0.3c0,0,0-0.1,0-0.1c0-0.1-0.1-0.1-0.1-0.1H22
		c-0.8,0.1-0.9,0.2-0.9,1.1C21.1,44.6,21.2,44.8,21.3,44.9L21.3,44.9z M52.3,13.1c0.2-0.2,0.4-0.5,0.5-0.8c0.2-0.3,0.6-0.3,0.6-0.7
		c-0.1,0-0.3-0.1-0.4,0c-0.4,0-0.4,0-0.5,0.4C52.4,12.3,52.3,12.7,52.3,13.1L52.3,13.1z"/>
	<path class="st1" d="M51.2,81.3c0.1,0,0.2,0,0.2,0.1c0.1,0.2,0.3,0.3,0.6,0.3c0.4,0.1,0.8,0.1,1.2,0c0.6-0.1,1-0.7,1-1.3
		c0-0.2,0-0.4-0.1-0.6c-0.1-0.3-0.1-0.6-0.2-0.9c-0.1-0.5,0.2-1,0.7-1.2c0.2-0.1,0.4,0,0.5,0c0.5,0.2,1,0.4,1.6,0.5
		c0.6,0.1,1.1,0.1,1.6-0.4c0.3-0.4,0.4-0.9,0.1-1.3c-0.1-0.1-0.2-0.3-0.3-0.4c-0.1-0.3-0.4-0.5-0.7-0.7L55.3,74l-0.8-0.4
		c-0.3-0.1-0.5-0.4-0.5-0.8c-0.1-0.5,0-1.1,0.3-1.6c0.2-0.5,0.5-1,0.6-1.5c0.4-0.9,0.6-1.8,0.6-2.7c0-0.4,0-0.8,0-1.3
		c0-0.9-0.1-1.9-0.3-2.8c-0.1-0.9-0.3-1.8-0.5-2.7c-0.3-1.1-0.6-2.2-1.1-3.2c-0.2-0.6-0.4-1.2-0.4-1.8c0-0.5,0.2-1,0.6-1.4
		c0.6-0.6,1.2-1.2,1.8-1.7c0.6-0.5,1.6-1.6,2.4-2.4s0.8-0.8,1.2-1.3c0.4-0.5,1.3-1.4,1.9-2.1s1.2-1.4,1.8-2.1
		c0.6-0.6,1.5-0.8,2.3-0.4c0.6,0.2,1.1,0.5,1.7,0.7c0.6,0.2,1.4,0.4,2.1,0.6c1.1,0.3,2.2,0.5,3.4,0.7c0.8,0.2,1.7,0.3,2.5,0.3
		c0.4,0,0.8,0.1,1.2,0.1c1-0.1,2.1-0.3,3-0.8c0.5-0.3,1.1-0.5,1.7-0.6H81c0.4,0,0.4,0,0.5,0.4c0.1,0.2,0.2,0.4,0.3,0.6
		c0.1,0.1,0.1,0.2,0.1,0.3c-0.1,0-0.2-0.1-0.3-0.2c-0.3-0.4-0.8-0.5-1.3-0.4c-0.5,0.1-0.9,0.3-1.3,0.5c-0.8,0.3-1.6,0.6-2.4,0.7
		h-1.6c-1.1,0-2.3-0.2-3.4-0.4l-2.4-0.5c-0.8-0.2-1.7-0.5-2.4-0.8l-1.8-0.7c-0.6-0.2-1.2-0.3-1.7,0.1c-0.3,0.3-0.6,0.5-0.8,0.9
		l-0.7,0.8l-0.6,0.7c-0.4,0.4-0.8,1-1.3,1.4c-0.4,0.4-0.6,0.7-0.9,1c-1,0.9-1.8,2-2.8,2.8c-0.1,0.1-0.3,0.2-0.4,0.3
		c-0.2,0.1-0.3,0.3-0.4,0.4c-0.1,0.1-0.7,0.7-1,1c-0.4,0.3-0.6,1.2-0.4,1.9c0.2,0.7,0.5,1.4,0.7,2.1c0.3,0.7,0.6,2.4,0.9,3.5
		c0.1,0.4,0.1,0.8,0.2,1.2s0.2,1.1,0.3,1.6c0,0.1,0,0.2,0,0.3c0,1,0,1.9,0,2.9c0,0.7-0.2,1.3-0.5,2c-0.1,0.4-0.3,0.7-0.4,1.1
		c-0.1,0.4-0.3,0.5-0.4,0.8s-0.3,1.1,0.2,1.6c0.2,0.2,0.5,0.4,0.8,0.6l1.7,0.9c0.8,0.4,1.5,1,1.8,1.9c0.1,0.3,0.1,0.7-0.1,1
		l-0.1,0.2c-0.2,0.7-0.8,0.9-1.5,1c-0.7,0.1-1.3,0-2-0.2c-0.6-0.1-0.8,0-0.8,0.6c0,0.6,0,0.9,0,1.3c0,0.4-0.1,0.8-0.4,1.1
		c-0.3,0.3-0.6,0.6-0.9,0.7c-0.6,0.2-1.2,0.2-1.7-0.2C51.6,81.9,51.3,81.6,51.2,81.3z"/>
	<path class="st1" d="M77.6,41.5c-0.6,0-1.2,0-1.8-0.2c-1.7-0.3-3.3-0.7-4.9-1.5c-0.7-0.4-1.5-0.7-2.2-1.1c-0.6-0.4-0.9-1.1-0.8-1.8
		c0.1-0.5,0.3-1,0.6-1.5c0.4-0.9,0.8-1.8,1.2-2.7c0.4-0.9,0.5-1.2,0.7-1.8c0.3-1,1-1.8,1.9-2.3c1.2-0.7,2.5-1.2,3.8-1.7
		c1.3-0.4,2.5-0.8,3.9-1.1l4.3-1c1-0.3,2-0.5,3-0.9l1.8-0.7c1.1-0.4,2.2-0.9,3.2-1.5c1-0.6,1.9-1.4,2.7-2.3c0.8-1,1.5-2,2.1-3.2
		c0.7-1.4,1.2-2.9,1.5-4.4c0.2-0.9,0.4-1.8,0.5-2.7c0.2-1.6,0.3-3.2,0.2-4.7c0-0.5-0.1-1-0.4-1.5c0-0.1-0.1-0.1-0.1-0.2
		c-0.2-0.6-0.6-1.2-1.2-1.5c-0.8-0.5-1.6-0.8-2.4-0.9l-0.1-0.1c0.1-0.1,0.1-0.1,0.2-0.1C96.1,0.4,97,0.6,97.8,1
		c0.7,0.3,1.2,0.8,1.6,1.4c0.3,0.5,0.4,1,0.5,1.6c0.1,0.7,0.1,1.4,0.1,2.1c0,0.6-0.1,1.2-0.1,1.8s-0.1,1-0.2,1.5
		c-0.1,1.1-0.4,2.2-0.7,3.3c-0.4,1.5-1,3-1.7,4.4c-0.8,1.6-1.9,3.1-3.3,4.3c-0.6,0.5-1.3,1-2,1.3c-1.4,0.7-2.8,1.3-4.2,1.8
		c-1,0.4-2.1,0.7-3.2,1c-1.9,0.4-3.8,0.8-5.7,1.3c-1.4,0.4-2.9,0.8-4.2,1.3c-0.8,0.3-1.7,0.7-2.5,1.1c-0.6,0.3-1.1,0.9-1.3,1.6
		c-0.3,0.8-0.6,1.6-0.9,2.4c-0.3,0.8-0.8,1.9-1.2,2.9c-0.4,1-0.4,1-0.3,1.5c0.1,0.3,0.2,0.5,0.4,0.7c0.3,0.3,0.7,0.6,1.2,0.8L72,40
		c1,0.5,2.1,0.8,3.2,1.1c0.7,0.2,1.4,0.3,2.2,0.4C77.4,41.4,77.5,41.4,77.6,41.5z"/>
	<path class="st1" d="M0.6,97.8l1.4-1.3l0.4-0.3c0.1-0.1,0.2-0.2,0.3-0.2c0.3,0,0.5-0.1,0.7-0.3c0.8-0.6,1.5-1.2,2.2-1.9
		C6,93.5,6.5,93,6.9,92.6c0.5-0.3,0.8-0.7,1.3-1.1l0.3-0.3c0.9-0.9,1.9-1.8,2.8-2.6l2.4-2.1l1-0.9c0.5-0.4,0.9-0.8,1.4-1.3l2.1-1.8
		c0.3-0.3,0.6-0.6,1-0.9c0.3-0.3,0.8-0.8,1.2-1.1l2.2-1.9l0.8-0.8l1.3-1.2c0.7-0.6,1.4-1.2,2.1-1.9l0.9-0.8c0.9-0.8,1.8-1.6,2.6-2.4
		l2.1-1.9c0.8-0.6,1.5-1.3,2.3-2c0.8-0.6,1.4-1.2,2.1-1.8l1.7-1.4c0.6-0.5,1.2-1,1.8-1.4l2.1-1.5c1.1-0.8,2.2-1.5,3.4-2.2
		c0.2-0.1,0.5-0.2,0.7-0.3c0.5-0.2,1,0.1,1.2,0.6c0,0,0,0,0,0c0.1,0.2,0.2,0.4,0.2,0.6c-0.2,0-0.2-0.1-0.3-0.2S46.6,59.8,46,60
		c-0.5,0.3-1.1,0.6-1.6,1l-2.1,1.4c-0.7,0.5-1.5,1-2.2,1.6l-3,2.4l-2.1,1.8c-1,0.8-2,1.6-2.9,2.5l-1.2,1.1l-0.9,0.9l-1.3,1.2
		c-0.3,0.3-0.7,0.6-1.1,0.9l-0.1,0.1c-0.3,0.3-0.6,0.6-0.9,0.8c-0.2,0.2-0.4,0.4-0.6,0.6l-1.3,1.1c-0.3,0.4-0.7,0.7-1.1,1l-0.1,0.1
		c-0.4,0.4-0.8,0.8-1.3,1.2c-0.3,0.4-0.7,0.7-1.1,1l-0.1,0.1c-0.4,0.5-0.9,0.8-1.4,1.3c-0.4,0.4-0.5,0.4-0.7,0.6l-1.5,1.3l-1,0.9
		l-1.4,1.3c-0.7,0.6-1.4,1.3-2.2,2c-0.7,0.6-0.8,0.8-1.3,1.2l-2.5,2.3L8,92.6c-0.9,0.8-1.8,1.7-2.6,2.4l-1.2,1.1
		c-0.7,0.6-1.4,1.2-2.1,1.8l-0.4,0.2c-0.3,0.1-0.6,0.1-0.8-0.1C0.8,97.9,0.7,97.8,0.6,97.8z"/>
	<path class="st1" d="M18.8,50.3c0.5,0,1.1,0,1.6-0.1c0.5-0.1,0.9-0.5,1.1-1c0.2-0.7,0.2-1.3,0.1-2c-0.1-0.8-0.1-1.5,0-2.3
		c0,0,0-0.1,0-0.1c0.2-1,0.9-1.4,1.7-1.6c0.9-0.1,1.8-0.2,2.6,0c1.5,0.2,2.9,0.6,4.2,1.1c0.9,0.4,1.8,0.8,2.7,1.2
		c0.3,0.1,0.5,0.3,0.7,0.5l0.3,0.3c0.4,0.4,0.4,0.4,0.1,0.9c-0.3-0.7-0.9-1.1-1.6-1.4c-0.9-0.4-1.8-0.8-2.7-1.1
		c-1-0.3-2.1-0.6-3.2-0.8c-0.6-0.1-1.1-0.1-1.7-0.2c-0.5,0-1,0-1.5,0.2c-0.5,0.1-0.9,0.6-0.9,1.1c0,0.5,0,0.9,0,1.4
		c0,0.7,0,1.4,0,2.1c0,0.3,0,0.5-0.1,0.8c-0.2,0.8-0.8,1.3-1.6,1.5c-0.6,0.2-1.2,0-1.6-0.4C18.9,50.5,18.8,50.4,18.8,50.3z"/>
	<path class="st1" d="M83.6,49.5c0.3,0.2,0.7,0.3,1,0.5c0.7,0.2,1.2,0.1,1.6-0.5c0.3-0.4,0.3-0.8,0.2-1.3c-0.1-0.5-0.3-1-0.4-1.5
		s0.2-1.3,0.7-1.3c0.3-0.1,0.6,0,0.9,0.1c0.4,0.2,0.8,0.2,1.3,0.2c0.7,0,1.2-0.6,1.2-1.3c0-0.2,0-0.3-0.1-0.5c0-0.1,0-0.1-0.1-0.2
		c-0.2-0.2-0.4-0.4-0.5-0.7c-0.1-0.2-0.3-0.4-0.5-0.5l-0.5-0.2c-0.3-0.1-0.4-0.3-0.3-0.6c0.1-0.2,0.3-0.4,0.5-0.5l1.1-0.8
		c0.5-0.3,0.8-0.9,0.6-1.5c-0.1-0.3-0.2-0.7-0.4-1c-0.1-0.2-0.3-0.3-0.5-0.4c-0.2-0.1-0.5-0.2-0.8-0.3c0-0.1,0.1-0.1,0.2-0.1
		c0.6,0,1.2,0.3,1.7,0.7c0.3,0.3,0.5,0.8,0.6,1.3c0,0.5-0.1,1-0.4,1.4c-0.1,0.1-0.2,0.2-0.3,0.3c-0.3,0.2-0.6,0.5-0.8,0.8
		c-0.2,0.2-0.2,0.5,0,0.7c0,0,0,0,0,0l0.6,0.7c0.8,0.9,0.7,2.7-1,3.1c-0.5,0.1-1,0.1-1.4,0h-0.6c-0.2,0-0.4,0.2-0.5,0.4
		c0,0.2,0,0.4,0,0.6c0.1,0.3,0.2,0.7,0.2,1c0.1,0.7-0.1,1.5-0.7,2c-0.2,0.2-0.6,0.4-0.9,0.4c-0.8,0.1-1.4-0.4-1.9-1
		C83.6,49.6,83.7,49.5,83.6,49.5z"/>
	<path class="st1" d="M56.8,8.1h-1.2c-0.4,0-0.5-0.1-0.5-0.5c0-0.5,0.2-0.9,0.4-1.3c0.3-0.5,0.5-0.9,0.7-1.4
		c0.2-0.5,0.3-1.1,0.1-1.7c-0.1-0.6-0.3-1.1-0.6-1.6c0.5-0.1,0.9,0.3,1.1,0.7c0.5,0.7,0.6,1.6,0.3,2.4c-0.1,0.5-0.3,0.9-0.6,1.3
		c-0.2,0.3-0.4,0.6-0.5,1c-0.2,0.4,0,0.8,0.3,1c0,0,0,0,0.1,0C56.7,8,56.7,8,56.8,8.1z"/>
	<path class="st1" d="M38.5,40L38.5,40c-0.5,0.8-0.4,0.7-1.2,0.5c-1.3-0.4-2.5-1-3.8-1.3c-1.3-0.3-2.8-0.6-4.2-0.8
		c-0.9-0.1-1.9-0.2-2.8-0.2h-0.9c0-0.1,0.1-0.2,0.2-0.2c0,0,0,0,0,0c0.6,0,1.1-0.2,1.7-0.1c0.6,0.1,1.2,0.1,1.8,0.1l2.2,0.3
		c0.7,0.1,1.3,0.3,2,0.4c1.1,0.2,2.3,0.6,3.3,1l0.7,0.2c0.2,0.1,0.4,0.1,0.7,0L38.5,40z"/>
	<path class="st1" d="M43.1,74.2c0.2,0.1,0.3,0.2,0.4,0.4c0.2,0.2,0.4,0.3,0.7,0.4c0.6,0.1,1.3,0.2,1.9,0.2c0.6,0,1.2,0.2,1.9,0.1
		c-0.3,0.6-0.7,1.2-1.1,1.7h0c-0.1-0.7-0.6-0.8-1.1-0.8c-0.4,0-0.8-0.1-1.2-0.3c-0.6-0.2-1.1-0.6-1.4-1.2
		C43.1,74.6,43.1,74.4,43.1,74.2z"/>
	<path class="st1" d="M11.5,47.3c0.7,0.3,1.4,0.5,2.1,0.5c0.5,0,0.9-0.1,1.4-0.3c0.5-0.2,0.9-0.5,1.3-0.8c0.3-0.2,0.6-0.3,1-0.4
		c0.3-0.1,0.5,0,0.5,0.4c0,0.3,0.1,0.5,0.1,0.8c-0.5-0.5-1-0.3-1.5,0l-1,0.6c-0.9,0.5-2,0.6-2.9,0.2C11.9,48,11.6,47.7,11.5,47.3z"
		/>
	<path class="st1" d="M21,39.7c-0.2,0.2-0.6,0.3-0.8,0.4c-0.1,0.1-0.2,0-0.3-0.1c0,0,0,0,0-0.1c-0.2-0.4-0.5-0.7-0.6-1.1
		c-0.1-0.2-0.2-0.3-0.3-0.5c-0.3-0.5-0.6-1.1-0.9-1.6c-0.2-0.5-0.5-1-0.9-1.5c0.1-0.1,0.1-0.1,0.2,0c0.6,0.3,1.1,0.7,1.4,1.3
		c0.5,0.7,0.8,1.5,1.3,2.3C20.4,39.1,20.7,39.5,21,39.7z"/>
	<path class="st1" d="M46.3,81.8c0.3,0,0.7,0,1,0.1c0.7,0.2,1.4-0.1,1.8-0.7c0.2-0.4,0.5-0.8,0.9-1.1l0.2-0.2
		c0.2-0.2,0.3-0.1,0.4,0.2s0.2,0.7,0.4,1c-0.2,0-0.4,0-0.7,0c-0.3,0.1-0.5,0.3-0.7,0.6c-0.3,0.4-0.7,0.7-1.2,0.9
		C47.6,82.8,46.8,82.6,46.3,81.8z"/>
	<path class="st1" d="M85.1,38.7c-0.1,0.2-0.4,0.2-0.6,0.4s-0.2,0-0.2-0.1c-0.2-0.2-0.3-0.4-0.3-0.6c-0.1-0.3-0.1-0.6-0.1-0.9
		c0-0.4-0.1-0.7-0.2-1.1c0-0.1,0-0.3-0.2-0.4c-0.1-0.1-0.1-0.2-0.1-0.3c0-0.3-0.1-0.5-0.3-0.7c-0.1-0.1-0.3-0.3-0.4-0.5
		c0.4,0,0.8,0.2,1.1,0.5c0.4,0.4,0.6,1,0.7,1.5c0,0.4,0.1,0.7,0.2,1.1c0,0.3,0.1,0.6,0.4,0.8C85.1,38.5,85.1,38.6,85.1,38.7z"/>
	<path class="st1" d="M52.9,2.9l-0.5,1.3c-0.1,0.2-0.2,0.2-0.3,0.1c-0.1,0-0.1-0.1-0.2-0.2c-0.2-0.4-0.5-0.6-0.6-1
		c-0.1-0.8-0.9-1.4-1.7-1.4c0.7-0.2,1.5,0,2.1,0.5l0.4,0.4C52.3,2.8,52.6,2.9,52.9,2.9z"/>
	<path class="st1" d="M48.5,5C48.7,5.3,48.9,5.6,49,6c0.1,0.3,0,0.5-0.3,0.5c-0.2,0-0.4,0-0.5-0.1c-0.6-0.3-1.2-0.5-1.9-0.8
		c-0.2-0.1-0.4,0-0.6-0.2c0.2-0.1,0.5-0.1,0.7-0.1l1.2,0.2c0.3,0.1,0.7-0.1,0.8-0.4C48.4,5.1,48.4,5,48.5,5z"/>
	<path class="st1" d="M44.8,8.5c0.2,0,0.3,0.1,0.4,0.2l3,1.5l0.5,0.2c0.3,0.1,0.3,0.2,0.2,0.5c0,0.1-0.1,0.2-0.2,0.3
		c-0.3-0.3-0.7-0.6-1.1-0.8l-1.3-0.7c-0.5-0.2-0.9-0.5-1.3-0.8C44.9,8.8,44.8,8.6,44.8,8.5z"/>
	<path class="st1" d="M11.9,42.4c0.5,0.2,1.1,0.3,1.7,0.4c0.3,0.1,0.5,0.3,0.6,0.6c0,0.1-0.1,0.2-0.2,0.2L12.9,44
		c0.1-0.4-0.1-0.7-0.4-0.9C12.1,42.8,11.9,42.7,11.9,42.4z"/>
	<path class="st1" d="M49.9,71.1c-0.2,0.9-0.1,0.8-0.9,0.8c-1.7-0.1-3.3-0.2-4.9-0.2c0.3-0.2,0.7-0.1,1-0.1c0.8-0.1,1.6-0.1,2.4,0
		c0.5,0,0.9,0,1.4,0C49.2,71.4,49.6,71.3,49.9,71.1z"/>
	<path class="st1" d="M15.6,38.9c0.1,0.2,0.3,0.4,0.3,0.6c0.1,0.1,0.2,0.3,0,0.5c-0.1,0.1-0.4,0.3-0.6,0.2l-0.6-0.2
		c-0.3-0.1-0.7-0.2-1-0.4c0.2-0.1,0.5-0.1,0.7,0c0.3,0.1,0.7,0,0.9-0.3C15.5,39.2,15.4,39,15.6,38.9z"/>
	<path class="st0" d="M30.9,53.1c0.2-0.4,0.4-0.8,0.6-1.2h0C31.5,52.3,31.3,52.7,30.9,53.1L30.9,53.1z"/>
	<path class="st1" d="M92.7,0.1c-0.5,0-1.1,0-1.6,0C91.6,0,92.1,0,92.7,0.1z"/>
	<path class="st0" d="M31.7,51.5c0.1-0.3,0.2-0.6,0.4-0.8h0C32.2,51,32,51.3,31.7,51.5L31.7,51.5z"/>
	<path class="st1" d="M25.4,38.2c-0.1,0.1-0.2,0.1-0.4,0.1C24.9,38.3,25.3,38,25.4,38.2z"/>
	<path class="st1" d="M94.6,0.3c-0.1,0-0.2,0-0.3-0.1S94.6,0.1,94.6,0.3z"/>
	<path class="st1" d="M47.8,60.6c0.1,0,0.2,0.1,0.2,0.3C47.8,60.8,47.8,60.7,47.8,60.6z"/>
	<path class="st1" d="M57.4,8.2c-0.1,0-0.2,0-0.3-0.1C57,8,57.3,8.1,57.4,8.2z"/>
	<path class="st1" d="M55.3,1.5c-0.1,0-0.3,0.1-0.4-0.1C55.1,1.4,55.2,1.4,55.3,1.5z"/>
	<path class="st1" d="M18.6,50.2c0.1,0,0.2,0.1,0.2,0.2C18.7,50.3,18.6,50.3,18.6,50.2z"/>
	<path class="st1" d="M78.4,41.4c-0.1,0.1-0.2,0.1-0.3,0.1C78.2,41.4,78.3,41.4,78.4,41.4z"/>
	<path class="st1" d="M93.8,0.2c-0.1,0-0.2,0-0.3-0.1C93.7,0.1,93.8,0.1,93.8,0.2z"/>
	<path class="st1" d="M24.7,38.3c0,0.1-0.1,0.1-0.2,0.1C24.6,38.3,24.6,38.2,24.7,38.3z"/>
	<path class="st0" d="M31.6,51.7c0-0.1,0-0.1,0.1-0.2h0C31.8,51.6,31.7,51.7,31.6,51.7L31.6,51.7z"/>
	<path class="st0" d="M31.6,51.9c0-0.1,0-0.1,0.1-0.2h0C31.7,51.8,31.7,51.8,31.6,51.9L31.6,51.9z"/>
	<path class="st0" d="M32.2,50.8L32.2,50.8L32.2,50.8C32.3,50.7,32.2,50.8,32.2,50.8z"/>
	<path class="st1" d="M58,8.3C57.9,8.3,57.9,8.3,58,8.3L58,8.3z"/>
	<path class="st1" d="M44.7,8.4C44.7,8.4,44.8,8.4,44.7,8.4C44.8,8.4,44.8,8.4,44.7,8.4L44.7,8.4z"/>
	<path class="st1" d="M13.5,39.5C13.5,39.5,13.4,39.5,13.5,39.5L13.5,39.5z"/>
	<path class="st1" d="M21.3,39.6C21.3,39.7,21.2,39.7,21.3,39.6L21.3,39.6z"/>
	<path class="st2" d="M54.4,65.5c0,0.5,0,1.1,0,1.6c0,0.8-0.2,1.6-0.5,2.3c-0.4,0.9-0.8,1.8-1.2,2.7l-0.3,0.7
		c-0.1,0.2-0.1,0.4,0.1,0.5c0,0,0,0,0,0l0.3,0.2l2.9,1.5l1.3,0.7c0.4,0.2,0.7,0.6,0.7,1.1c0,0.2-0.1,0.3-0.2,0.4
		c-0.4,0.2-0.8,0.2-1.3,0.1c-0.8-0.3-1.6-0.7-2.4-1.1l-1.4-0.7c-0.1-0.1-0.2-0.1-0.4-0.1c-0.2,0-0.4,0.1-0.4,0.2c0,0.1,0,0.2,0,0.3
		c0.1,0.4,0.3,0.8,0.5,1.2c0.2,0.4,0.5,1.2,0.7,1.8c0.1,0.3,0.2,0.7,0.3,1.1c0.1,0.3-0.2,0.9-0.4,1c-0.5,0.2-1,0-1.3-0.4
		c-0.1-0.3-0.2-0.6-0.2-0.9c-0.1-0.8-0.2-1.6-0.4-2.4c-0.1-0.8-0.1-1-0.2-1.5s-0.1-0.3-0.3-0.4c-0.2,0-0.3,0.1-0.4,0.3l-0.5,1.8
		c-0.3,1.1-0.7,2.1-1.2,3c-0.1,0.2-0.3,0.5-0.5,0.7c-0.1,0.1-0.2,0.2-0.3,0.1l-0.6-0.1c-0.4-0.1-0.5-0.4-0.6-0.7c0-0.4,0-0.7,0-1.1
		c0-0.1,0.1-0.3,0.1-0.4l1.6-2.4c0.3-0.5,0.6-1,0.9-1.5c0.3-0.5,0.1-0.6-0.3-0.6h-0.9c-0.8,0-1.6-0.1-2.4-0.2l-0.8-0.1
		c-0.4,0-0.7-0.2-0.9-0.6c-0.1-0.4-0.1-0.8,0.2-1.1c0.2-0.2,0.5-0.4,0.8-0.4c0.9,0.1,1.8,0.1,2.6,0.1l1.3,0.1c0.4,0,0.8,0.1,1.2,0.1
		c0.3,0,0.4-0.1,0.5-0.4c0.2-0.6,0.4-1.2,0.5-1.8c0.1-0.7,0.2-1.3,0.1-2c-0.1-0.7-0.2-1.3-0.3-2c-0.2-1.2-0.6-2.5-1-3.6
		c-0.3-0.8-0.7-1.6-1-2.4c-0.3-0.6-0.7-1.2-1.2-1.7c-0.1-0.2-0.3-0.3-0.4-0.5c-0.1-0.2-0.4-0.3-0.7-0.2c0,0-0.1,0.1-0.1,0.1L45,58.6
		c-1.1,0.7-2.2,1.4-3.3,2.2c-1.1,0.8-1.9,1.3-2.8,2c-0.9,0.7-1.4,1.1-2.1,1.7l-1.9,1.6l-1.6,1.4l-1.6,1.4l-0.8,0.7
		c-0.6,0.5-1.2,1-1.7,1.5s-1.8,1.5-2.6,2.3l-1.1,1c-0.7,0.6-1.3,1.2-2.1,1.8L22.4,77c-0.7,0.6-1.4,1.3-2.1,1.9l-2.6,2.4l-1.8,1.6
		l-2.8,2.5l-1.9,1.7l-2.8,2.5l-1.9,1.7l-2,1.8l-1.1,1.1c-0.1-0.2,0-0.3,0.1-0.4l2.9-3.7l2.1-2.7l2.7-3.6l2.6-3.5l2.6-3.6l2.3-3.1
		c0.5-0.6,0.9-1.2,1.4-1.9l1.2-1.7c1.2-1.8,2.4-3.5,3.6-5.3c0.2-0.3,0.5-0.7,0.7-1c0.4-0.6,0.9-1.1,1.4-1.5l0.1-0.1
		c0.8-0.9,1.7-1.6,2.5-2.4l3.3-3.2l1.4-1.3l3.3-3.1l1.5-1.5c1-0.9,2-1.9,3-2.8c0.5-0.6,1-1.2,1.5-1.9c0.8-1,1.5-2.1,2.3-3.1l1.5-2.1
		l1.1-1.4l1.2-1.4c0,0,0-0.1,0-0.1c0.1-0.1,0.2-0.2,0.3-0.3c0.2-0.4,0.5-0.7,0.8-1l0.1-0.1c0.7-0.9,1.4-1.7,2.2-2.4l1.3-1.2l1.8-1.6
		l1.9-1.6l1.5-1.3c0.7-0.4,1.2-1,1.9-1.5l1.4-1.1c0.6-0.5,1.2-0.9,1.8-1.4l2.4-2l1.3-1.1l1.9-1.5l1.3-1.1l2-1.7l1.3-1.1l2.1-1.8
		l2-1.6l2.1-1.6l1.5-1.1l0.2-0.2l1.9-1.8l2.7-2.6l3.3-3.1L91.7,1c0.1-0.1,0.3-0.2,0.5-0.2c1.3-0.1,2.7,0.2,3.9,0.6
		c0.4,0.1,0.8,0.3,1.1,0.6C97.7,2.4,98,2.9,98,3.6c0,0.5,0.1,1,0.1,1.5S98,6.6,98,7.4c-0.1,1.6-0.4,3.3-0.8,4.9
		c-0.5,2.1-1.4,4-2.6,5.8c-0.7,1.1-1.7,2-2.7,2.7c-1.1,0.7-2.3,1.4-3.6,1.8l-2.4,0.9c-1.1,0.4-2.3,0.7-3.5,0.9l-2.7,0.6
		c-1.6,0.3-3.2,0.8-4.7,1.3c-1.6,0.5-3.1,1.2-4.5,2L70,28.5c-0.2,0.1-0.3,0.3-0.4,0.5c-0.6,1.8-1.2,3.4-1.9,5.1
		c-0.4,1-0.9,2-1.4,2.9c-0.1,0.2-0.2,0.4,0,0.7c0.2,0.2,0,0.2,0,0.4c-0.1,0.3-0.2,0.7-0.4,1c-0.2,0.4-0.1,0.6,0.3,0.7l2.7,0.6
		l2.1,0.5h0.1c0.9,0,1.6,0.4,2.4,0.6c0.8,0.2,1.5,0.3,2.2,0.4c0.4,0.1,0.9,0.1,1.3,0.2c1,0,2-0.1,2.9-0.4l0.5-0.1
		c0.2,0,0.3-0.1,0.3-0.3c0,0,0,0,0-0.1c0-0.1,0-0.2,0-0.3c0-0.9,0-1.8,0-2.7c0-0.3,0-0.5-0.1-0.8c0-0.1,0-0.1,0-0.2
		c0.1-0.5,0.1-1,0.1-1.5c0-0.3,0.5-0.7,0.9-0.7c0.6-0.1,1.1,0.3,1.1,0.9c0.1,1.3,0.2,2.5,0.1,3.8c0,0.1,0,0.2-0.1,0.3
		c-0.1,0.2,0,0.4,0.2,0.5c0.2,0.1,0.4,0.1,0.5,0l1.7-1l2.3-1.4l0.1-0.1c0.6,0,1.2-0.1,1.7,0.2l0.1,0.1c0.2,0.3,0,0.6,0.2,0.9
		c0.1,0.3-0.1,0.2-0.2,0.3c-0.3,0.3-0.7,0.6-1.1,0.7c-1.1,0.4-2.3,0.8-3.4,1L84,41.4c-0.3,0.1-0.4,0.2-0.4,0.4
		c0,0.2,0.1,0.3,0.4,0.4l2.4,0.5l1.6,0.3c0.3,0,0.5,0.1,0.8,0.3c0.4,0.3,0.5,0.9,0.3,1.3c0,0,0,0,0,0c-0.3,0.2-0.7,0.3-1.1,0.3
		c-0.8-0.2-1.6-0.6-2.4-0.9l-1.2-0.5c-0.1-0.1-0.3-0.1-0.5-0.1c-0.3,0-0.4,0.2-0.3,0.4c0.1,0.2,0.3,0.8,0.5,1.1
		c0.4,0.9,0.8,1.8,1.2,2.7c0.1,0.2,0.1,0.3,0.1,0.5c0,0.3,0,0.6-0.1,0.9c-0.1,0.4-0.3,0.5-0.7,0.4c-0.3-0.1-0.6-0.3-0.8-0.6L81.7,44
		c-0.2-0.4-0.3-0.4-0.7-0.3l-1.3,0.5l-2.4,1c-0.5,0.2-1,0.3-1.6,0.3h-1.2c-0.5,0-1,0-1.5-0.1c-1.8-0.3-3.7-0.6-5.5-1.2
		c-0.7-0.2-1.4-0.5-2.1-0.8l-2.2-0.9c-0.2-0.1-0.5-0.1-0.6,0.1c-0.4,0.4-0.8,0.9-1.2,1.4l-1.2,1.4l-2.1,2.3l-0.1,0.1
		c-1.2,1.2-2.3,2.5-3.5,3.6c-1.3,1.1-1.8,1.7-2.7,2.4c-0.3,0.2-0.3,0.3-0.2,0.6c0.1,0.2,0,0.4-0.1,0.5c-0.1,0.1-0.1,0.2-0.1,0.4
		l1.8,6.2c0.2,0.8,0.4,1.6,0.7,2.4c0.1,0.2,0,0.5,0.3,0.6C54.4,64.9,54.5,65.2,54.4,65.5z M89.5,14.7c-0.2-0.2-0.5-0.2-0.7-0.2
		c-0.8,0.1-1.3,0.9-1.1,1.7c0,0.1,0,0.1,0.1,0.2c0.2,0.7,0.9,1,1.6,0.8c0.2-0.1,0.5-0.2,0.6-0.4c0.3-0.3,0.4-0.8,0.2-1.3
		c-0.2,0.6-0.5,0.8-1,0.8c-0.4-0.1-0.7-0.4-0.7-0.9c0-0.1,0.1-0.3,0.2-0.4C88.9,14.7,89.2,14.7,89.5,14.7z"/>
	<path class="st3" d="M59.7,28.3l-1.5,1.3l-1.9,1.6l-1.8,1.6L53.3,34c-0.8,0.7-1.5,1.6-2.2,2.4l-0.1,0.1c-0.3,0.3-0.6,0.6-0.8,1
		c-0.1,0.1-0.2,0.2-0.3,0.3c-0.3,0.1-0.5,0.4-0.7,0.5l-0.1,0.1c-0.9,0.9-1.8,1.7-2.7,2.6s-1.1,1.1-1.7,1.6c-0.6,0.5-1,1-1.6,1.5
		c-0.6,0.4-1,1-1.5,1.4c-0.5,0.4-1.1,1.1-1.7,1.6c-0.6,0.5-1,1-1.6,1.5c-0.6,0.4-1,1-1.5,1.4c-0.5,0.4-1,1-1.6,1.5
		c-0.5,0.4-1.1,1.1-1.6,1.5s-1,1-1.6,1.5c-0.6,0.5-1,0.9-1.5,1.4L30.4,56c-0.2,0.2-0.5,0.4-0.6,0.7c0,0.1-0.1,0.1-0.1,0.2
		c0,0.1-0.1,0.1-0.2,0.1c0,0,0,0,0,0c-0.1-0.1-0.1-0.1,0-0.2l0.5-1.1l1.1-2.4c0,0,0-0.1,0-0.1c0.3-0.4,0.5-0.8,0.6-1.2
		c0.1,0,0.1-0.1,0.1-0.2c0.1,0,0.1-0.1,0.1-0.2c0.2-0.2,0.4-0.5,0.4-0.8l0.1-0.1c0.2-0.2,0.4-0.5,0.5-0.8c0.6-1.1,1.3-2.1,1.9-3.1
		c0.1-0.1,0.1-0.3,0.2-0.4c0.2-0.1,0.2-0.2,0.3-0.4c0.9-1.5,1.9-2.9,2.8-4.4c0.1-0.1,0.1-0.1,0.1-0.2c0.3-0.3,0.5-0.6,0.7-0.9
		c0.2-0.3,0.5-0.7,0.8-1l2.2-2.4l0.1-0.1c1.8-1.9,3.5-3.7,5.4-5.4c1.1-1.1,2.4-2.1,3.8-2.9l0.1-0.1c0.7-0.3,1.4-0.6,2.1-1
		c0.7-0.4,1.5-0.9,2.2-1.4c0.3-0.1,0.6-0.3,0.8-0.6c0.3-0.1,0.6-0.3,0.9-0.5c1-0.6,2-1,3-1.5c1-0.5,2.6-1.5,3.9-2.2l2.3-1.5
		c0.2-0.2,0.4-0.4,0.6-0.6l3.6-5.4c0.3-0.4,0.7-0.9,0.9-1.4c0.1,0,0.1-0.1,0.1-0.2l0,0l0.1-0.1l0,0c0.1,0,0.1-0.1,0.1-0.2l0,0
		c0.2,0,0.2-0.2,0.3-0.3l0,0c0.1-0.1,0.2-0.2,0.3-0.3l1.3-2c0.2-0.2,0.4-0.5,0.5-0.8l0,0c0.1,0,0.1-0.1,0.1-0.2l0,0
		c0.1,0,0.2-0.1,0.3-0.2c0.8-0.8,1.6-1.6,2.4-2.4l1.6-1.4c1.2-1,2.5-1.7,3.9-2.2c0.5-0.2,1-0.4,1.5-0.7c0.4-0.2,0.8-0.3,1.3-0.4
		l1.9-0.3L87.9,1c0.2,0,0.5,0,0.7,0c-0.1,0.2-0.2,0.3-0.3,0.5c-0.5,0.3-0.8,0.8-1.3,1.2c-0.4,0.4-0.8,0.8-1.2,1.2
		c-0.2,0.2-0.5,0.3-0.7,0.1c0,0,0,0,0,0c0-0.5-0.4-0.8-0.7-1.1c-0.2-0.2-0.5-0.3-0.7-0.3c-0.2-0.2-0.3-0.2-0.5,0H83
		c-0.1-0.1-0.2,0-0.2,0.1h-0.1c-0.1,0-0.2,0.1-0.2,0.2c-0.1,0.1-0.2,0.2-0.3,0.3c-0.1,0-0.2,0.1-0.2,0.2v0.1c-0.1,0-0.2,0.1-0.2,0.2
		l0,0c-0.1,0-0.1,0.1,0,0.1c0,0,0,0,0,0.1c-0.1,0-0.1,0-0.1,0.1c0,0.1,0,0.1,0.1,0.1l0,0v0.5c-0.1,0.2,0,0.5,0.2,0.6l0,0
		c0,0.3,0.3,0.6,0.6,0.7h0.1c0.2,0.3,0.2,0.4,0,0.6c-0.8,0.6-1.4,1.5-2.2,2.1l-0.1,0.1c-0.7,0.8-1.5,1.4-2.2,2.1
		c-0.7,0.7-1.4,1.3-2.1,2L74.6,14c-1.1,1-2.2,2.1-3.2,3l-1.5,1.4c-1.1,1-2.2,2.1-3.2,3l-1.5,1.4L61.9,26l-1.5,1.4
		c-0.1,0.2-0.3,0.3-0.5,0.4C59.8,27.9,59.7,28.1,59.7,28.3C59.7,28.3,59.7,28.3,59.7,28.3z"/>
	<path class="st2" d="M38.1,41.4c0,0.1,0,0.2-0.1,0.2c-1,1.5-1.9,2.9-2.8,4.4c-0.1,0.1-0.1,0.3-0.3,0.4l-1.1-1
		c-0.2-0.2-0.5-0.3-0.7-0.5c-1.7-0.9-3.5-1.6-5.4-2.1c-0.7-0.2-1.5-0.3-2.2-0.4c-0.5-0.1-1-0.1-1.6-0.2c-0.8,0-1.6,0.1-2.3,0.4
		L20.7,43c-0.2,0-0.3,0.2-0.3,0.4c0,0,0,0,0,0c0,0.6-0.1,1.2,0.1,1.7c0,0,0,0.1,0,0.1c0,1.2,0.1,2.4,0.1,3.5c0,0.6-0.9,1.2-1.4,0.9
		c-0.4-0.2-0.6-0.6-0.7-1.1c-0.1-1.3-0.2-2.6-0.2-3.8c0-0.1,0-0.1,0-0.2c0-0.3-0.3-0.5-0.6-0.3l-2.1,1.4l-1.9,1.2l-0.1,0.1
		c-0.5,0.1-1,0-1.5-0.1c-0.2-0.1-0.4-0.3-0.4-0.5c-0.1-0.8-0.1-0.9,0.6-1.3c0.5-0.3,1-0.5,1.5-0.7c1.1-0.4,2.2-0.7,3.3-1
		c0.1,0,0.2,0,0.3-0.1c0.2-0.2,0.1-0.5-0.2-0.6l-1.1-0.2l-3-0.5l-0.7-0.2c-0.5-0.2-0.7-0.7-0.6-1.1c0-0.1,0.1-0.2,0.1-0.2
		c0.2-0.3,0.6-0.4,0.9-0.3c0.8,0.2,1.6,0.4,2.3,0.8l1.7,0.7c0.2,0.1,0.4,0.1,0.5-0.1c0.1-0.2,0.1-0.3,0-0.5l-1.2-2.4
		c-0.3-0.5-0.5-1-0.6-1.6c-0.1-0.4,0-0.8,0.1-1.1c0.1-0.2,0.3-0.3,0.5-0.3c0,0,0.1,0,0.1,0c0.4,0.1,0.8,0.4,1,0.8
		c0.7,1.4,1.5,2.8,2.2,4.2c0.2,0.5,0.3,0.5,0.8,0.3c0.5-0.2,0.2,0,0.2-0.1s1-0.4,1.5-0.6s0.2-0.1,0.3-0.1c0.3,0.1,0.6,0.1,1,0.1
		c0.3,0,0.6,0,0.9,0c0.3,0.1,0.7,0.1,1,0c0.6-0.2,1.2-0.3,1.9-0.3c0.7,0,1.5,0.1,2.2,0.2c1.1,0.1,2.1,0.3,3.2,0.5
		c0.2,0.1,0.4,0.1,0.6,0.1c0.5-0.1,1-0.1,1.5,0c0.2,0.1,0.5,0.1,0.7,0c0.2-0.1,0.4,0,0.6,0c0.7,0.2,1.3,0.5,2,0.7
		C37.8,41.4,37.9,41.4,38.1,41.4z"/>
	<path class="st2" d="M56.1,25.7c-0.2,0.2-0.5,0.4-0.8,0.6c-0.8,0.4-1.4,1-2.2,1.4c-0.8,0.4-1.4,0.7-2.1,1c-0.2-0.1-0.2-0.2-0.3-0.4
		c-0.5-1.2-0.9-2.4-1.4-3.5c-0.2-0.5-0.3-1.1-0.4-1.6c-0.3-1.3-0.6-2.6-0.8-4C48,18.8,48,18.3,48,17.9c0-0.3-0.1-0.6-0.1-0.9
		c0-0.7,0.1-1.3,0.2-2c0.1-0.4,0.2-0.7,0.4-1c0.4-1.1,0.9-2.1,1.3-3.2c0.2-0.4,0.1-0.6-0.3-0.8c-1.5-0.7-2.8-1.4-4.3-2.1
		c-0.4-0.2-0.7-0.6-0.8-1.1c0-0.2,0.1-0.3,0.2-0.4c0.3-0.2,0.7-0.3,1.1-0.2c0.7,0.2,1.3,0.4,2,0.7l2.2,1C50,8,50.2,8.1,50.3,8
		c0.1-0.2,0.2-0.4,0-0.6c-0.4-1-0.9-1.9-1.3-2.9C49,4.2,48.9,4,48.9,3.8c-0.1-0.4,0-0.7,0.2-1.1c0.1-0.2,0.6-0.3,0.9-0.2
		c0.3,0.1,0.6,0.5,0.7,0.9s0.3,1.1,0.3,1.7c0.1,0.6,0.2,1.1,0.3,1.6c0.1,0.5,0.1,0.6,0.2,0.9C51.5,8,51.5,8,51.7,8
		c0.3,0,0.3-0.1,0.4-0.4c0.1-0.3,0.3-1.2,0.4-1.8c0.2-1.1,0.6-2.1,1.1-3l0.1-0.2c0.3-0.5,1-0.7,1.5-0.4c0.1,0.1,0.2,0.2,0.2,0.4
		c0.2,0.6,0.2,1.3-0.2,1.9c-0.8,1.2-1.5,2.4-2.2,3.6C53,8.3,52.9,8.4,53,8.6c0.1,0.2,0.3,0.3,0.5,0.2c0.4,0,0.7,0,1.1-0.1
		c0.2,0,0.3,0,0.5,0c0.4,0.1,0.9,0.1,1.3,0.1c0.5,0,1,0.1,1.5,0.2c0.8,0.2,0.8,0.9,0.6,1.4c-0.2,0.4-0.6,0.6-1,0.6
		c-0.9,0-1.8,0-2.7,0c-0.9,0-1.4-0.1-2.1-0.1c-0.7,0-0.7,0.1-0.8,0.8c-0.2,0-0.4,0-0.6-0.1c-0.5-0.3-0.6-0.2-0.6,0.3
		c0,0,0,0.1,0,0.1s-0.1,0.2-0.1,0.3v0.6c0,0-0.1,0.1-0.1,0.1c0,0-0.1,0.9-0.1,1.4c0,1,0,2,0.1,3c0.1,0.5,0,1.1,0.1,1.6
		s0.2,1.4,0.3,2.1c0.3,1.3,0.7,2.5,1.2,3.7c0.3,0.6,0.6,1.3,0.9,1.9c0.3,0.5,0.5,0.4,0.8,0c0.3-0.4,0.4-0.1,0.5-0.2
		c0.5-0.3,1-0.6,1.5-0.9L56.1,25.7z"/>
	<path class="st3" d="M37.5,41.3c-0.7-0.2-1.3-0.5-2-0.7c-0.2-0.1-0.4-0.1-0.6,0c-0.2,0.1-0.5,0.1-0.7,0c-0.5-0.1-1-0.1-1.5,0
		c-0.2,0-0.4,0-0.6-0.1c-1-0.2-2.1-0.4-3.2-0.5c-0.7-0.1-1.5-0.2-2.2-0.2c-0.6,0-1.3,0.1-1.9,0.3c-0.3,0.1-0.6,0.1-1,0
		c-0.3,0-0.6-0.1-0.9,0c-0.3,0-0.6,0-1-0.1c-0.1,0-0.2,0-0.3,0.1s-1,0.4-1.5,0.6c-0.1-0.1-0.1-0.3,0.1-0.4c0,0,0.1,0,0.1,0
		c1-0.5,2-1,3-1.4c0.7-0.3,1.4-0.4,2.2-0.4c0.3,0,0.6-0.1,0.9-0.1c0.8,0,1.6,0.1,2.4,0.2l2.1,0.3l1.5,0.3c0.3,0.1,0.7,0.1,1,0.2
		c0.3,0.1,1.2,0.4,1.8,0.6l1.1,0.4l1.1,0.3c0.2,0.1,0.2,0.1,0.1,0.3C37.7,41.1,37.6,41.2,37.5,41.3z"/>
	<path class="st3" d="M50.7,12.8v-0.6c0.2,0,0.2-0.1,0.1-0.3c-0.1-0.1,0-0.1,0-0.1c0-0.6,0-0.6,0.6-0.3c0.2,0.1,0.4,0.2,0.6,0.1
		c0.2,0.1,0.2,0.2,0.2,0.4c0,0,0,0,0,0c-0.1,0.8-0.2,1.7-0.2,2.5c0,1,0.1,2.1,0.4,3.1c0.2,1,0.5,2,0.9,3c0.4,1.1,0.9,2.2,1.6,3.2
		c0.3,0.4,0.6,0.7,0.9,1.1c0.1,0.1,0.2,0.2,0.1,0.4c-0.5,0.3-1,0.6-1.5,0.9c-0.2,0.1-0.3,0.3-0.5,0.2c-0.2,0-0.3-0.2-0.3-0.4l-0.7-3
		l-0.6-2.5c-0.4-1.8-0.8-3.7-1.2-5.5c-0.2-0.6-0.2-1.2-0.2-1.9C50.7,13.1,50.8,12.9,50.7,12.8z"/>
	<path class="st3" d="M54.4,65.5c0-0.2,0-0.5-0.1-0.7c0-0.4,0-0.8-0.1-1.2c-0.2-1.5-0.5-3-0.9-4.4c-0.2-0.8-0.5-1.6-0.8-2.3L52,55.2
		c0-0.1-0.1-0.2,0-0.3c0-0.1,0.1-0.2,0.2-0.2c0.1,0,0.1,0.1,0.2,0.2c0.2,0.6,0.5,1.2,0.7,1.8c0.2,0.6,0.4,1.2,0.6,1.8
		c0.4,1.2,0.7,2.4,0.9,3.6c0.2,1,0.3,2.1,0.3,3.2c0,0.1,0,0.2,0,0.3l-0.1,0.1C54.6,65.7,54.7,65.4,54.4,65.5z"/>
	<path class="st2" d="M82.2,3.2c0.1-0.1,0.2-0.2,0.3-0.3c0.1,0,0.2-0.1,0.2-0.2h0.1c0.1,0,0.2,0,0.2-0.1h0.2c0.2,0,0.3,0,0.5,0
		c0.3,0,0.5,0.1,0.7,0.3C84.6,3.3,85,3.6,85,4.1c0,0.3-0.1,0.5-0.1,0.8c-0.3,0.8-1,1.3-1.9,1.1h-0.4c-0.1-0.3-0.3-0.5-0.6-0.7l0,0
		c0-0.2-0.1-0.4-0.2-0.6V4.1c0.1-0.1,0.1-0.1,0-0.2c0,0,0,0,0-0.1V3.7l0,0C82,3.7,82,3.7,82,3.5V3.4C82.1,3.4,82.2,3.3,82.2,3.2z
		 M84.6,4.2c-0.1,0-0.2,0.2-0.2,0.2c-0.3,0.3-0.8,0.4-1.2,0.1c-0.3-0.2-0.4-0.6-0.2-1c0.1-0.1,0.1-0.2,0.2-0.2
		c0.2-0.1,0.4-0.2,0.7-0.2c-0.5-0.3-1.1-0.2-1.5,0.3c-0.4,0.4-0.4,1-0.1,1.5c0.3,0.5,0.9,0.7,1.4,0.5C84.3,5.3,84.7,4.8,84.6,4.2
		L84.6,4.2z"/>
	<path class="st2" d="M83.6,1.9c-0.5,0.3-0.9,0.5-1.5,0.7c-1.4,0.5-2.8,1.3-3.9,2.2l-1.6,1.4c-0.9,0.7-1.6,1.6-2.4,2.4
		c-0.1,0.1-0.2,0.2-0.3,0.2c0-0.1,0-0.1,0.1-0.2l0.8-0.9L78,4.5c0.2-0.2,0.4-0.3,0.6-0.4c1.2-0.6,2.4-1.2,3.7-1.7
		C82.6,2.2,83.1,2,83.6,1.9z"/>
	<path class="st3" d="M70.5,40.3c-0.1,0.1-0.2,0-0.3,0l-1.4-0.6c-0.1-0.1-0.2-0.1-0.4-0.1c-0.6-0.1-1.3-0.2-1.9-0.4
		c-0.4-0.1-0.5-0.2-0.3-0.6l0.2-0.7c0.1-0.2,0.2-0.3,0.4-0.1l0.3,0.3c0.7,0.7,1.5,1.3,2.4,1.6c0.3,0.1,0.5,0.2,0.8,0.4
		C70.5,40.2,70.6,40.3,70.5,40.3z"/>
	<path class="st2" d="M50.3,77.5c0.1,0.2,0.1,0.4,0.1,0.6c0.1,0.3,0.1,0.5,0.1,0.8c0,0.1,0,0.2-0.1,0.3c-0.3,0.1-0.5,0.3-0.7,0.5
		c0,0-0.1,0.1-0.1,0.1c-0.1,0-0.1-0.1-0.1-0.1c0,0,0,0,0,0L50.3,77.5L50.3,77.5z"/>
	<path class="st2" d="M53.4,78.1c-0.1,0-0.1-0.1-0.1-0.1l-0.5-1.3c0,0,0-0.1,0-0.2c0,0,0.1-0.1,0.1,0c0,0,0,0,0,0
		c0.3,0.2,0.7,0.4,1.1,0.6s0.1,0.2,0,0.3c-0.2,0.1-0.3,0.3-0.4,0.5C53.6,78,53.5,78.1,53.4,78.1z"/>
	<path class="st2" d="M87.6,41.3c0,0.2,0,0.5-0.1,0.7c0,0.2-0.2,0.1-0.3,0.1l-1.5-0.3v-0.1L87.6,41.3z"/>
	<path class="st2" d="M84.7,44.2l0.9,0.4c0.3,0.2,0.3,0.2,0.1,0.5l-0.3,0.3c-0.1,0.1-0.3,0.1-0.3,0C85.1,45.2,84.8,44.6,84.7,44.2
		L84.7,44.2z"/>
	<path class="st2" d="M21.3,44.9c-0.2-0.1-0.2-0.3-0.2-0.5c0-0.9,0-0.9,0.9-1.1h0.1c0.1,0,0.1,0,0.1,0.1c0,0,0,0.1,0,0.1l-0.3,0.3
		C21.6,44,21.4,44.4,21.3,44.9z"/>
	<path class="st2" d="M73.9,8.9c-0.1,0.3-0.3,0.6-0.5,0.8l-1.3,2c-0.1,0.1-0.2,0.2-0.3,0.3c0-0.4,0.3-0.7,0.5-1
		c0.4-0.7,0.9-1.3,1.4-1.9C73.7,8.9,73.8,8.9,73.9,8.9z"/>
	<path class="st2" d="M52.3,13c0-0.4,0.1-0.8,0.2-1.1c0.1-0.3,0.1-0.4,0.5-0.4c0.1,0,0.3,0,0.4,0c0,0.4-0.4,0.4-0.6,0.7
		C52.6,12.5,52.5,12.8,52.3,13z"/>
	<path class="st2" d="M71.8,11.9c0,0.2-0.1,0.3-0.3,0.3S71.6,11.9,71.8,11.9z"/>
	<path class="st2" d="M73.9,8.7c0,0.1,0,0.1-0.1,0.2C73.8,8.8,73.9,8.8,73.9,8.7z"/>
	<path class="st2" d="M71.3,12.5c0,0.1,0,0.1-0.1,0.2C71.2,12.6,71.3,12.5,71.3,12.5z"/>
	<path class="st2" d="M71.5,12.2c0,0.1,0,0.1-0.1,0.2C71.4,12.3,71.5,12.3,71.5,12.2z"/>
	<path class="st2" d="M71.4,12.4L71.4,12.4L71.4,12.4z"/>
	<path class="st2" d="M84.7,44.3L84.7,44.3C84.7,44.2,84.7,44.2,84.7,44.3z"/>
	<path class="st4" d="M89.5,14.7c-0.3,0.1-0.7,0.1-0.9,0.4c-0.3,0.3-0.2,0.8,0.1,1.1c0.1,0.1,0.2,0.1,0.4,0.2c0.5,0.1,0.8-0.2,1-0.8
		c0.3,0.7-0.1,1.4-0.8,1.7c-0.2,0.1-0.5,0.1-0.7,0.1c-0.4-0.1-0.8-0.4-0.9-0.9c-0.3-0.7,0.2-1.6,0.9-1.8c0.1,0,0.1,0,0.2-0.1
		C89.1,14.5,89.3,14.5,89.5,14.7z"/>
	<path class="st0" d="M82,5.2c0.3,0.2,0.5,0.4,0.6,0.7C82.3,5.8,82,5.5,82,5.2z"/>
	<path class="st0" d="M81.8,4.6C81.9,4.8,82,5,82,5.2C81.8,5.1,81.7,4.8,81.8,4.6z"/>
	<path class="st0" d="M83.7,2.7c-0.2,0-0.3,0-0.5,0C83.4,2.5,83.5,2.5,83.7,2.7z"/>
	<path class="st0" d="M83,2.7c0,0.1-0.1,0.1-0.2,0.1C82.8,2.7,82.8,2.6,83,2.7z"/>
	<path class="st0" d="M82.6,2.8c0,0.1-0.1,0.2-0.2,0.2C82.4,2.9,82.5,2.8,82.6,2.8z"/>
	<path class="st0" d="M82.2,3.2c0,0.1-0.1,0.2-0.2,0.2C82,3.3,82.1,3.2,82.2,3.2z"/>
	<path class="st0" d="M82,3.5c0,0.1,0,0.2-0.2,0.2C81.8,3.6,81.9,3.5,82,3.5z"/>
	<path class="st0" d="M81.8,3.9c0.1,0.1,0.1,0.1,0,0.2c-0.1,0-0.1-0.1-0.1-0.1C81.7,3.9,81.8,3.9,81.8,3.9L81.8,3.9z"/>
	<path class="st0" d="M81.8,3.7L81.8,3.7C81.8,3.8,81.8,3.8,81.8,3.7z"/>
	<path class="st0" d="M50.7,12.8c0.1,0.1,0.1,0.3,0.1,0.5c0,0.6,0.1,1.2,0.2,1.9c0.4,1.8,0.8,3.6,1.2,5.5l0.6,2.5l0.7,3
		c0,0.2,0.1,0.4,0.3,0.4c-0.3,0.5-0.6,0.5-0.8,0c-0.3-0.6-0.6-1.2-0.9-1.9c-0.5-1.2-0.9-2.4-1.2-3.7c-0.2-0.7-0.2-1.4-0.3-2.1
		c-0.1-0.7,0-1.1-0.1-1.6c-0.1-1-0.1-2-0.1-3C50.5,13.8,50.6,13.3,50.7,12.8C50.5,12.4,50.6,12.8,50.7,12.8z"/>
	<path class="st0" d="M50.7,11.9c0.1,0.1,0.1,0.2-0.1,0.3C50.5,12.2,50.6,12,50.7,11.9z"/>
	<path class="st4" d="M84.6,4.2c0.1,0.6-0.3,1.2-0.9,1.4c-0.5,0.2-1.1,0-1.4-0.5c-0.3-0.5-0.2-1.1,0.1-1.5c0.4-0.4,1-0.5,1.5-0.3
		c-0.2,0-0.5,0.1-0.7,0.2C83,3.5,82.8,4,83,4.3c0.1,0.1,0.1,0.2,0.2,0.2c0.4,0.3,0.9,0.2,1.2-0.1C84.5,4.3,84.5,4.2,84.6,4.2z"/>
</g>
</svg>
