<svg id="Layer_1" data-name="Layer 1" xmlns="http://www.w3.org/2000/svg" width="605" height="720" viewBox="0 0 605 720">
  <defs>
    <style>
      .cls-1 {
        fill: #fefefe;
      }

      .cls-2 {
        fill: #fefefd;
      }

      .cls-3 {
        fill: #fefdfd;
      }

      .cls-4 {
        fill: #fdc312;
      }

      .cls-5 {
        fill: #723d3d;
      }

      .cls-6 {
        fill: #4d2c2b;
      }

      .cls-7 {
        fill: #f47c23;
      }

      .cls-8 {
        fill: #fd8002;
      }
    </style>
  </defs>
  <title>Artboard 1</title>
  <g>
    <path class="cls-1" d="M361,1H602c3.4,0,4.1.7,4.1,4.1q-.2,261-.1,522c-2.1-.3-3.8-.7-2.3-3.6s.3-3.5-.4-5.1-2.3-1.4-3.5-1.2a47.9,47.9,0,0,0-9.2,2.1c-4.6,1.8-8.6.7-12.8-1a139.6,139.6,0,0,1-38.3-23c-19.7-16.6-34.9-37.1-50.1-57.5-12.3-16.4-28.4-24.4-48.5-23.9-14.9.4-29.6-.5-44.4-1-19.5-.7-38.9-1.8-58.4-2.8-2-27.4-2-54.9-1.8-82.4l1.8-41.7c1.9-26.4,3.5-52.8,5.9-79.1,2.2-23.4,4.4-46.7,6.9-70,.5-4.8,1.8-4,5-2.2,10.9,6.1,22.5,9.9,35.2,9.3,20.4-1,32.7-15.6,30.1-35.7-1.8-13.6-8.5-24.7-17.7-34.5-7-7.6-15.4-13.5-25-18.7,11.5-6.7,14.7-16.8,14.7-28.7,0-4.1-1.8-5.3-5.4-5.2-7.2.2-12.6,3.9-17.1,9.1a65.5,65.5,0,0,0-9.3,15.3c-.7,1.4-.8,3.8-3,3.2s-1.2-2.7-1-4.2c.5-4.1,1-8.3,1.8-12.3,1.4-7.1,1-14.6,5-21.1C366.6,6.9,364.6,3.6,361,1Z"/>
    <path class="cls-2" d="M1,503Q1,254.1.9,5.3C.9,1.8,1.5.9,5.2.9H354c-8,5.3-8.2,6.3-2.2,14.2,1.3,1.7,1.2,3.5,1,5.2-.8,6-.7,12-.9,17.9-.4,9.8-.4,9.6-10,11-2.3.3-3-.1-3.2-2.2-1-11-4.4-21.8-2.7-33,.4-2.8,1.3-6.3-1.9-8.2s-6.8-.9-9.9,1c-5.4,3.3-6.7,8.8-1.9,11.5s5.4,6.7,6.3,11c1.6,7.3,3.1,14.6,4.6,21.9-3.2-3.5-5.6-7.3-8.5-10.7-5.1-6.3-11.5-10.5-19.8-11.3-5.5-.5-6.9.9-6.8,6.3s2.7,11.9,6.1,17.1c-2.9,5.9,1.2,8.5,5.4,10.6-2.2,3-6.9-3.3-7.7,2.6-.3,2.4-.4,5.3.7,7.2s4.5,0,6.8,1.2c-8.2,4.8-8.2,4.8-7.3,15.3,2.2.7,4.3-1.6,6.7-.4-.4.5-.6,1-1,1.2-6.1,2.4-6.1,7.4-5.7,12.7.1,1.8.6,2.4,2.3,2.1l1,1.1-2.6,3c-3.4,4.4-2.1,12.1,2.2,13.8-3,2.4-4.7,8.6-4.1,12.3s3,.2,3.6,1.9c-5,4.5-5.7,9.5-2.5,16.9.1.2.2.7,0,.8-4.9,4-1.1,9.9-3.2,14.2s4.8,4.3,1.1,7.8-.7,7-1.3,10.5,2,5.1,1.5,6.4c-3.1,7.7-1.3,15.6-2,23.4-1.2,12.1-1.5,24.2-2.1,36.4-.1,1.6-.7,3.4,1,4.6-2.4,6.1-1.7,12.7-2.8,19.1-1.8,10.8-3.7,21.6-5.6,32.4-4.4,19-8.7,38-14.6,56.7-.9.9-.5,2.9-2.5,3l-4.9-17L258.1,315c-.4-18.9-3.7-37.7-3.3-56.7.1-5.7-1.8-11.3-.9-17.3s.1-10.6-.2-15.9c-.8-14.2-1.1-28.4-4.3-42.3-.1-.4-.3-1.1-.1-1.3,3.6-4.8,2.2-9.3-.5-13.9-.3-.5-1.1-.8-.4-1.6,3-3.2.9-7.1,1.3-10.6s-2.7-2.5-3.6-4.2c3.5.7,5.1-.2,4.3-4.1a45.3,45.3,0,0,1-.5-6.2c.7-3-2.6-2.3-3.6-3.7,2.4,0,4.1-.6,3.9-3.6s0-4.2.1-6.4c.2-3.9-3.2-.8-4.2-2.2,4.1-1.4,2.7-4.3,1.9-7a5.1,5.1,0,0,1,1.5-4.9c3.3-3.1,4.6-7.3,5.2-11.6.8-5.9-.2-7.1-6.2-7.2-13.1,0-22.7,6.5-30.7,16.2-1.3,1.5-1.9,3.8-4.7,4.7,2.5-9,4.9-17.4,7.3-25.9a4.9,4.9,0,0,1,3.3-3.3c2.8-1.1,6.1-2.4,6-5.9s-3.5-5.4-6.6-6.7a16.6,16.6,0,0,0-5.3-1.2c-6.5-.4-9.3,2.5-7.6,8.7a20.5,20.5,0,0,1,.2,9.7c-.9,4.4-1.5,8.9-2.2,13.3-1.3,8.7-1.3,8.7-9.7,8.2a20.2,20.2,0,0,0-3-.1c-2.6.2-3.4-1-3.5-3.5-.3-6.7-.6-13.3-1.4-19.9-.4-3.7-.3-6.4,3.1-9s3.4-7-1.5-9.2a16.6,16.6,0,0,0-12.2-.9c-4.3,1.3-5.2,3.8-3.6,8.1,1,2.5,3.4,4,3.9,6.9,1.3,8.2,3.1,16.4,4.5,24.5.2,1.1,1.1,2.7-.9,3.3s-2.7-.6-3.5-2a57.9,57.9,0,0,0-9.1-12.5c-6.2-6.5-13.5-10.6-22.8-10.7-5-.1-6.3,1.9-6.1,6.4.5,11.7,6.3,19.7,17.8,24.4-8.9,3.6-16.8,7.3-24,12.5-11.3,8.1-21.1,17.5-25.7,31s.6,26.5,13.9,32.8c9.3,4.4,19.1,5.4,29.3,4.6,13.3-1,25.8-4.8,38-10.6.3,1.6.7,2.9.9,4.1q6.8,46.7,11.4,93.7c1.4,14.7,2.6,29.5,3.9,44.3l1.8,37.9-.2,9.7L181.7,379l-24.7,1.8a72.9,72.9,0,0,1-9-.1c-19.3-2.6-35.9,5.4-46,22.3-7.5,12.6-15,25.1-22.8,37.5C64,464.8,45.8,486.1,18.7,498c-3.5-2.5-7.9-2.4-11.6-4.1s-4,.1-4.3,3.3,2.6,2.4,3.5,4C4.5,502.2,2.9,503.1,1,503Z"/>
    <path class="cls-3" d="M606,531q0,93,.1,186c0,3.4-.7,4.1-4.1,4.1H267l-1.2-5.9c-.6-9.6-1.2-19.3-1.7-28.9q-2.5-48.7-4.8-97.3c-.7-14.8-1.5-29.6-2.1-44.4-.1-1.6-1.4-4.5,2.3-4.1,11.8,1.3,23.6.2,35.5.7.3,9.7-.4,19.3-.8,28.9-.6,15-.9,30-1.4,44.9q-1.8,46.9-3.7,93.8a11.9,11.9,0,0,1-.4,1.9c-1.6,4.1,0,5,4,4.7,5.6-.4,11.3-.3,16.9-.4s6.4-.1,4.4-6.3c-4.3-20.1-4.4-40.6-4.8-60.9-.7-35.5.5-71.1,1.8-106.6h11.7c.7,23.1,1.5,46.1,2,69.2.6,27.4.9,54.8,1.3,82.2.1,3.5.1,7,.2,10.5-.7,7.1-.7,7.1,6.5,7h6.5c10.1-.1,10.1-.1,6.7-9.9-3.6-14.7-5.1-29.8-6.2-44.8-3-38-4.1-76-4.6-114.1l8-.3c1.4,2.1,3.4,2.2,5.6,2.1,11.9-.1,23.8-.1,35.7,0a12.8,12.8,0,0,0,7.9-2.2c4.7.1,9.3.4,14,.1s4.9,1.1,4.8,5c-.7,24.3-1.3,48.5-3.1,72.8-2.3,29.9-2.9,60.1-13.8,88.7-1.7,7.7-1.7,6.4,5.3,6.8s11.6.4,17.3,1.1,6.7-.9,5.6-5.8a38.6,38.6,0,0,0,.5-3.9c.7-25,1.3-50,2-74.9.8-29,2-57.9,4-86.9.1-1.7-.4-3.7,2.3-4.2,5.2-1,10.3-2.3,15.7-3.5.1,1.5.3,2.8.4,4.1.8,18.5,2.1,36.9,2.2,55.4.3,37.4,3.4,75-6.3,111.8-1.6,6-1.6,6,4.7,6h23.3c6.1,0,6.1,0,5.2-6.2q-1.7-33.4-3.4-66.8-2.9-56.8-5.9-113.7c5.5-1.7,9.1-5.9,12.8-9.7,11.1-11.6,18.4-25,18.1-41.6.6-1.9,0-4.2,1.8-6.6,21.3,28.8,48,49.5,82,60.3a19.3,19.3,0,0,0,5.9,10.5c1.3,1.2,4.3-1.4,6.3-2.8s1.9.2,2.4.8,2.6.5,4.1-.2S603.1,532.1,606,531Z"/>
    <path class="cls-3" d="M234,721H5c-3.4,0-4.1-.7-4.1-4.1Q1.1,612,1,507c1.3.5,1.2,1.6,1.6,2.6s4.1,5.6,4.5,5.2c4.2-3.6,6.2,1.2,9.4,1.9l5.2-10.5c6.2-2.1,11.8-5.3,17.4-8.7,19.6-11.8,33.9-28.8,46.1-47.8l6.3-9.5.7,5.6c.6,22.4,8.7,41.4,25.7,56.3a6.5,6.5,0,0,1,.9,4.3q-1.8,41.2-3.6,82.3c-.6,13.8-.8,27.6-1.4,41.4-1.1,23.3-2.4,46.5-2.8,69.9.5,2.4-3.5,6.6,1.8,6.9,8.9.6,17.9.2,27.1.2-.7-2.7-.4-5.1-1.7-7.1-4.1-19.8-4.8-39.9-5-60-.3-26.5-.3-52.9.8-79.4.6-14.1.9-28.3,1.2-42.4.1-2.9.3-4.5,3.8-2.9a35,35,0,0,0,8.6,2.6c2.7.5,3.4,1.8,3.5,4.4.5,13.1,1.4,26.2,1.8,39.4.9,33.3,1.6,66.6,2.4,99.8q.5,20.7,1,41.4c-.8,4.8.5,7.1,6,6.2a111.7,111.7,0,0,1,15.3-1.2c3.3-.1,4-1.5,3.1-4.3-.4-1.2-.8-2.5-1.3-3.7-.8-3.1-1.7-6.1-2.4-9.2-5.2-24-6.2-48.5-7.9-72.8-.8-11.8-1.2-23.6-1.5-35.4-.6-19.8-1.1-39.6-1.6-59.4-.1-2.4.9-3.2,3.2-3.2,5,.1,10-.1,15-.2l27.6.2c.2,30.4-1,60.9-2.3,91.3-.8,19.6-2.2,39.2-4.4,58.7a222,222,0,0,1-7.2,37h.1c-.8,0-.8.6-.8,1.2a15.2,15.2,0,0,1-.6,2.4c-1.8,4.3-.5,5.9,4.2,5.5s10.2,0,15.4.1,6.2,0,5.3-6.1c.2-.5.3-1-.5-1h0c.2-2.6.6-5.3.6-7.9q1-64.5,3.5-128.9c.5-13.1,1.3-26.3,2.1-39.4.1-1.4-.6-4,2.5-2.5,5.3,2.6,9.2,5.2,9.4,12.7.8,28.3,2.4,56.6,2.5,84.9s1.5,58.7-6.4,87.3Z"/>
    <path class="cls-4" d="M271.7,369.5c2,0,1.5-2.1,2.5-3,17.9-2.4,32.9-19.5,33-37.5.1-12.2-6.3-18.8-18.5-19.1,1.9-10.8,3.8-21.6,5.6-32.4,1-6.3.3-12.9,2.8-19.1,2.6-11.2,3.4-22.8,5.4-34.2,7.4,4.4,11.3,3.3,14.9-3.5a27.5,27.5,0,0,0,2.9-13c0-10.9-1.2-21.4-11-28.6-1.7-1.3-.9-2.6-.8-4,2.5-25.2,4.6-50.4,7.7-75.5,1.6-13-1.3-26.7,6.7-39.1-7.6-.4-13.3-3.7-18.7-7.7-3.4-5.2-5.9-10.8-6.1-17.1s1.3-6.8,6.8-6.3c8.3.8,14.7,5,19.8,11.3,2.8,3.4,5.2,7.2,8.5,10.7-1.5-7.3-3-14.6-4.6-21.9-.9-4.3-1.6-8.3-6.3-11s-3.5-8.2,1.9-11.5c3.1-1.9,6.5-3,9.9-1s2.4,5.4,1.9,8.2c-1.7,11.3,1.7,22,2.7,33,.2,2.1.9,2.6,3.2,2.2,9.6-1.4,9.6-1.2,10-11,.2-6,.1-12,.9-17.9.2-1.7.3-3.5-1-5.2-6-7.9-5.8-9,2.2-14.2h7c3.6,2.6,5.6,5.9,3.1,10.1-3.9,6.6-3.6,14-5,21.1-.8,4.1-1.3,8.2-1.8,12.3-.2,1.5-1.4,3.6,1,4.2s2.4-1.8,3-3.2a65.5,65.5,0,0,1,9.3-15.3c4.5-5.2,9.9-8.9,17.1-9.1,3.6-.1,5.4,1.1,5.4,5.2,0,11.9-3.2,22-14.7,28.7,9.6,5.2,18,11.1,25,18.7,9.1,9.9,15.9,20.9,17.7,34.5,2.6,20.1-9.7,34.8-30.1,35.7-12.7.6-24.3-3.2-35.2-9.3-3.3-1.8-4.5-2.6-5,2.2-2.6,23.3-4.8,46.6-6.9,70-2.4,26.3-4,52.7-5.9,79.1-7-.4-11,1.8-13.8,8.2a27.5,27.5,0,0,0,1.3,25.4c2.3,4.2,5.8,7.2,10.8,8.1-.2,27.5-.2,55,1.8,82.4l-42.2-1.2c-5.5-.1-10.5-1.1-12.6-7.2A191.6,191.6,0,0,1,271.7,369.5Zm109-229.7c1.2.1,2.6.4,3-1.1s-1.1-1.6-2.2-1.8c-12.1-1.6-19.6-8.2-21.9-20.4-.2-1-.1-2.8-1.6-2.6s-1,2.1-.9,3.2C358.3,129,368.9,139.2,380.7,139.8ZM361,70.9c-.1-3.7-3.1-7.9-5.8-7.7s-3.3,2.3-3.3,4.7,3.1,7.9,5.8,7.7S361.1,73.3,361,70.9Zm17.7-3.3c-.7-2.8-.9-6.4-4.7-6.7s-3.7,2.9-3.6,5.3.8,6.4,4.5,6.7S378.2,70,378.7,67.6Zm40.3,44c-.3-1.8-.7-3.7-3-3.7s-2.2,1.8-2.1,3.3.6,3.9,3,3.8S419,113.3,419,111.6Zm-15.2-1.5c-1.6.1-2,1.2-1.9,2.4s.8,4.1,3,4.6,2.2-1.1,2.1-2.5A4.7,4.7,0,0,0,403.9,110.1Z"/>
    <path class="cls-5" d="M606,531c-2.9,1.1-2.5,5-5.4,6.3s-2.6,2-4.1.2-1.1-1.7-2.4-.8-5,4.1-6.3,2.8a19.3,19.3,0,0,1-5.9-10.5c2.1-6,6.8-8.2,12.8-8.9,2.9-.3,5.8-1.2,8.7-1.8.6,1.7,1.1,3.6.4,5.1s.2,3.2,2.3,3.6Z"/>
    <path class="cls-6" d="M21.7,506.3l-5.2,10.4c-3.2-.7-5.2-5.6-9.4-1.9-.4.4-3.6-2.9-4.5-5.2S2.3,507.5,1,507v-4c1.9.1,3.5-.8,5.2-1.8-.9-1.6-3.8-.9-3.5-4s.4-5.1,4.3-3.3,8.1,1.6,11.6,4.1Z"/>
    <path class="cls-5" d="M234,721l1.2-5.8c10.2-.8,20.4-.5,30.7-.2L267,721Z"/>
    <path class="cls-7" d="M265.8,715.1c-10.2-.4-20.5-.7-30.7.2,7.9-28.7,6.4-58.1,6.4-87.3s-1.7-56.6-2.5-84.9c-.2-7.5-4.1-10.1-9.4-12.7-3.1-1.5-2.4,1.2-2.5,2.5-.7,13.1-1.6,26.3-2.1,39.4q-2.5,64.4-3.5,128.9c0,2.6-.4,5.3-.6,7.9-7.8.2-15.4-1.6-23.2-2.1a222,222,0,0,0,7.2-37c2.2-19.5,3.5-39.1,4.4-58.7,1.3-30.4,2.5-60.8,2.3-91.3,0-2.2,1-3.5,3.1-4.4a26.9,26.9,0,0,0,11.7-9.8c7.4-10.8,9.1-22.3,3.7-34.4-4.6-10.2-12.9-15.2-24.2-14.9.8-8.5,1.9-17.1,2.4-25.6s1.6-18,.8-27.1c1.2-8.7.8-17.5.2-26.2l.2-9.7c11.2-1.9,18.7-11.7,17.2-22.8-1.2-9.2-8.6-16.9-19-15.1-1.3-14.8-2.5-29.5-3.9-44.3q-4.6-47-11.4-93.7c-.2-1.3-.5-2.5-.9-4.1-12.2,5.8-24.7,9.6-38,10.6-10.1.7-20-.2-29.3-4.6-13.4-6.3-18.7-18.8-13.9-32.8s14.4-22.9,25.7-31c7.2-5.1,15.1-8.9,24-12.5-11.6-4.7-17.3-12.7-17.8-24.4-.2-4.5,1.2-6.5,6.1-6.4,9.4.1,16.6,4.2,22.8,10.7a57.9,57.9,0,0,1,9.1,12.5c.8,1.4,1.6,2.5,3.5,2s1.1-2.2.9-3.3c-1.5-8.2-3.2-16.3-4.5-24.5-.5-2.9-2.9-4.4-3.9-6.9-1.6-4.2-.7-6.7,3.6-8.1a16.6,16.6,0,0,1,12.2.9c4.8,2.2,5.7,6,1.5,9.2s-3.5,5.4-3.1,9c.7,6.6,1.1,13.3,1.4,19.9.1,2.5.9,3.7,3.5,3.5a20.2,20.2,0,0,1,3,.1c8.4.5,8.4.5,9.7-8.2.7-4.4,1.3-8.9,2.2-13.3a20.5,20.5,0,0,0-.2-9.7c-1.7-6.2,1.1-9.1,7.6-8.7a16.6,16.6,0,0,1,5.3,1.2c3.1,1.3,6.5,3,6.6,6.7s-3.2,4.8-6,5.9a4.9,4.9,0,0,0-3.3,3.3c-2.3,8.5-4.7,16.9-7.3,25.9,2.8-.9,3.5-3.2,4.7-4.7,8-9.7,17.6-16.2,30.7-16.2,6,0,7,1.2,6.2,7.2-.6,4.4-1.9,8.5-5.2,11.6a5.1,5.1,0,0,0-1.5,4.9c-7.1,2.9-14,6.5-22.5,6.8a27.7,27.7,0,0,1,6.5,20.2,34.4,34.4,0,0,0,.4,6.5c3.3,25.9,6.7,51.7,10.1,77.6.3,2.3-.3,3.1-2.2,4.1-11.9,7.1-15.9,26.7-8,38,3.3,4.6,8.3,6.1,13.6,4.2,1.2-.4,2.2-1.6,3.8-1.2.5,2.6.8,5.2,1.4,7.8,2.4,11,3.5,22.3,7,33.1l8.7,37.5c-10.5-2.4-20.6,3.2-22.5,12.7-1.2,6,.4,11.6,3.5,16.7,7,11.4,17.3,18.1,30.2,20.9,1.6.3,3.9,1.7,5.2-1,2.2,6,7.1,7,12.6,7.2l42.2,1.2c19.5.9,38.9,2.1,58.4,2.8,14.8.5,29.6,1.4,44.4,1,20.1-.5,36.2,7.5,48.5,23.9,15.3,20.4,30.5,40.9,50.1,57.5a139.6,139.6,0,0,0,38.3,23c4.3,1.7,8.3,2.7,12.8,1a47.9,47.9,0,0,1,9.2-2.1c1.2-.2,3.1-1.4,3.5,1.2-2.9.6-5.8,1.5-8.7,1.8-5.9.7-10.6,2.9-12.8,8.9-34-10.8-60.7-31.5-82-60.3-1.9,2.5-1.2,4.7-1.8,6.6-11.2-12.9-25.6-11.2-34.5-4.9-11,7.8-15.7,18.7-14.5,32,1.1,11.6,7.3,19.7,18,24.2q2.9,56.8,5.9,113.7,1.7,33.4,3.4,66.8H443.1c9.7-36.8,6.7-74.4,6.3-111.8-.2-18.5-1.5-36.9-2.2-55.4-.1-1.3-.2-2.6-.4-4.1-5.4,1.2-10.5,2.5-15.7,3.5-2.7.5-2.1,2.5-2.3,4.2-2.1,28.9-3.2,57.9-4,86.9-.7,25-1.3,50-2,74.9a38.4,38.4,0,0,1-.5,3.9c-9.4-.5-18.7-2.3-28.2-2.1,10.9-28.6,11.5-58.8,13.8-88.7,1.8-24.2,2.4-48.5,3.1-72.8.1-3.9-.8-5.3-4.8-5s-9.3,0-14-.1c5.5-4.7,10.4-9.7,13.2-16.6,5.4-13.5-1.7-25.8-16.2-27.2-17.5-1.8-31.5,5-42.3,18.6-5.9,7.5-8.1,16-3.9,25.2l-8,.3H295c-11.8-.5-23.7.6-35.5-.7-3.7-.4-2.4,2.5-2.3,4.1.6,14.8,1.4,29.6,2.1,44.4q2.4,48.7,4.8,97.3C264.6,695.8,265.3,705.4,265.8,715.1Zm41.5-218c21.7.2,31.2-11.5,26.5-27.6-5.5-18.8-30.5-36.3-50-35s-27.2,14.8-19.4,31.2C273.7,485.3,290.1,494.9,307.4,497.1Zm83.1-55a58.6,58.6,0,0,0,24.9-5.9c3.5-1.7,6.6-3.9,8.6-7.4,3.5-6.2-.1-12.6-7.1-12.9l-55.9-2.6c-5.4-.3-9.7,2.1-11.9,7s0,8.7,3.4,12a25.6,25.6,0,0,0,8,5C368.9,440.8,377.7,442.1,390.5,442.1ZM156.8,196.9c2.1-.3,4.3-.5,6.4-1,10.2-2.5,18.4-7.5,21.7-18.2.4-1.3,2-3.5-.3-4.3s-2.2,1.7-2.6,3.2a20.5,20.5,0,0,1-4.3,8.3c-5.5,6.2-12.9,8.4-20.8,9.2-1.2.1-3.1-.3-2.9,1.7S155.7,196.8,156.8,196.9Zm34.4-65.3c.1-2.5-.8-4.2-3.4-4.5s-7.3,3.3-7.5,6.6,1.2,4.4,4.1,4.5S191,135,191.2,131.6ZM169.3,130c-.1-2.9-.8-5.3-4.2-5.1s-5.1,2.8-5.3,6.1.7,5.2,4.1,5S168.8,133.1,169.3,130ZM118,170.6c-.1-1.9-1.1-3-2.8-3s-3.2,1.6-3.3,3.7.9,3.3,3,3.1S117.9,172.5,118,170.6Zm10.6,5.6a4.4,4.4,0,0,0,3.4-4c.2-1.7-.8-2.5-2.5-2.2a4.1,4.1,0,0,0-3.5,4.2C126,175.6,126.9,176.2,128.6,176.2Z"/>
    <path class="cls-6" d="M336.1,327.7c-5-.9-8.4-3.9-10.8-8.1a27.5,27.5,0,0,1-1.3-25.4c2.8-6.4,6.9-8.6,13.8-8.2Z"/>
    <path class="cls-4" d="M209.2,403.8c.8,9.1-.2,18.1-.8,27.1s-1.6,17.1-2.4,25.6l-3.5,15.8-3.8-1.3c-8.1-2.9-16.1-3.5-23,2.6s-7.7,13.9-6,22.4,7.5,17.2,14.4,23.9c-5,.1-10,.2-15,.2-2.3,0-3.3.8-3.2,3.2.6,19.8,1,39.6,1.6,59.4.4,11.8.7,23.6,1.5,35.4,1.7,24.4,2.6,48.8,7.9,72.8.7,3.1,1.6,6.1,2.4,9.2l-23.2,3q-.5-20.7-1-41.4c-.8-33.3-1.5-66.6-2.4-99.8-.4-13.1-1.3-26.2-1.8-39.4-.1-2.6-.8-3.9-3.5-4.4a35,35,0,0,1-8.6-2.6c-3.5-1.6-3.8-.1-3.8,2.9-.3,14.1-.7,28.3-1.2,42.4-1,26.5-1,52.9-.8,79.4.2,20.1.9,40.2,5,60H110.9c.4-23.3,1.7-46.6,2.8-69.9.7-13.8.9-27.6,1.4-41.4q1.7-41.2,3.6-82.3a6.6,6.6,0,0,0-.9-4.3c6.8-3,11-8.4,13.4-15.2a45,45,0,0,0-3-38c-9.3-17.2-24.3-18.3-36.1-3.1l-.7-5.6-6.3,9.5c-12.2,19-26.4,36-46.1,47.8-5.6,3.3-11.2,6.6-17.4,8.7l-3-8.2c27.1-11.9,45.3-33.2,60.5-57.6,7.8-12.4,15.3-25,22.8-37.5,10.1-16.8,26.7-24.9,46-22.3a73,73,0,0,0,9,.1c-5,8.3-3.7,14.9,4,20.8a29.9,29.9,0,0,0,8.7,4.7A50,50,0,0,0,209.2,403.8Z"/>
    <path class="cls-5" d="M258.1,315c-3.5-10.8-4.6-22.1-7-33.1-.6-2.6-.9-5.2-1.4-7.8-1.6-.5-2.6.7-3.8,1.2-5.3,2-10.3.5-13.6-4.2-7.9-11.3-3.9-30.9,8-38,1.8-1.1,2.5-1.8,2.2-4.1-3.5-25.8-6.8-51.7-10.1-77.6a34.4,34.4,0,0,1-.4-6.5,27.7,27.7,0,0,0-6.5-20.2c8.5-.4,15.4-3.9,22.5-6.8.8,2.7,2.2,5.6-1.9,7l-5.7,2.8c3.9.7,6.9-.4,10-.6,0,2.1-.2,4.3-.1,6.4s-1.5,3.6-3.9,3.6-3.5-.5-5.5.4l9.1,3.3a45.3,45.3,0,0,0,.5,6.2c.9,3.9-.8,4.9-4.3,4.1-1.7-.2-3.4-1.4-5.8-.6l9.4,4.8c-.3,3.6,1.8,7.4-1.3,10.6-.7.8.1,1.1.4,1.6,2.7,4.5,4.2,9.1.5,13.9-.2.3,0,.9.1,1.3,3.2,13.9,3.4,28.1,4.3,42.3.3,5.3,1.1,10.8.2,15.9s1,11.6.9,17.3C254.4,277.3,257.6,296,258.1,315Z"/>
    <path class="cls-6" d="M304.2,52.7c5.4,4,11.1,7.3,18.7,7.7-8,12.4-5.1,26.2-6.7,39.1-3.1,25.1-5.2,50.3-7.7,75.5-.1,1.4-.9,2.7.8,4,9.7,7.1,10.9,17.7,11,28.6a27.5,27.5,0,0,1-2.9,13c-3.6,6.9-7.5,7.9-14.9,3.5-2,11.5-2.8,23-5.4,34.2-1.7-1.2-1.1-3-1-4.6.6-12.1.9-24.3,2.1-36.4.8-7.7-1-15.7,2-23.4.5-1.3-1.9-3.9-1.5-6.4s-1.7-7.8,1.3-10.5-2.7-4.5-1.1-7.8-1.8-10.2,3.2-14.2c.1-.1.1-.6,0-.8-3.2-7.4-2.5-12.4,2.5-16.9-.6-1.7-3.2.7-3.6-1.9s1.1-9.9,4.1-12.3c-4.3-1.7-5.6-9.4-2.2-13.8l2.6-3,.3-1.2h-1.2c-1.7.3-2.2-.3-2.3-2.1-.3-5.3-.4-10.3,5.7-12.7.4-.1.6-.7,1-1.2-2.4-1.2-4.5,1-6.7.4-.9-10.5-.9-10.5,7.3-15.3-2.3-1.2-5.6.8-6.8-1.2s-1.1-4.9-.7-7.2c.8-5.9,5.5.4,7.7-2.6C305.4,61.2,301.3,58.7,304.2,52.7Z"/>
    <path class="cls-6" d="M209.2,403.8a50,50,0,0,1-39.6,2.5,29.9,29.9,0,0,1-8.7-4.7c-7.7-5.9-8.9-12.5-4-20.8l24.7-1.8,27.8-1.5C210,386.3,210.5,395,209.2,403.8Z"/>
    <path class="cls-5" d="M283.1,401.7c-1.2,2.7-3.6,1.4-5.2,1-12.9-2.8-23.2-9.5-30.2-20.9-3.1-5.1-4.7-10.7-3.5-16.7,1.9-9.5,12-15.1,22.5-12.7l4.9,17A191.4,191.4,0,0,0,283.1,401.7Z"/>
    <path class="cls-6" d="M288.7,309.9c12.2.3,18.5,6.9,18.5,19.1-.1,18-15.2,35.1-33,37.5C280,347.9,284.3,328.9,288.7,309.9Z"/>
    <path class="cls-5" d="M207.8,330c10.5-1.8,17.8,5.9,19,15.1,1.5,11.1-6,20.9-17.2,22.8Z"/>
    <path class="cls-8" d="M250.2,127.1c-3,.2-6,1.3-10,.6l5.7-2.8C247,126.4,250.4,123.3,250.2,127.1Z"/>
    <path class="cls-8" d="M249.6,155.3l-9.4-4.8c2.4-.8,4,.4,5.8.6C246.9,152.8,250.2,152.4,249.6,155.3Z"/>
    <path class="cls-8" d="M249.8,140.7l-9.1-3.3c2-.9,3.8-.5,5.5-.4S250.4,137.7,249.8,140.7Z"/>
    <path class="cls-4" d="M295,541h16.1c-1.4,35.5-2.5,71.1-1.8,106.6.4,20.4.5,40.8,4.8,60.9H289.1q1.9-46.9,3.7-93.8c.6-15,.8-30,1.4-44.9C294.6,560.3,295.3,550.7,295,541Z"/>
    <path class="cls-5" d="M343.1,540.8c-4.1-9.3-2-17.7,3.9-25.2,10.7-13.6,24.8-20.4,42.3-18.6,14.4,1.5,21.6,13.7,16.2,27.2-2.7,6.9-7.7,11.9-13.2,16.6a12.8,12.8,0,0,1-7.9,2.2c-11.9-.2-23.8-.1-35.7,0C346.5,543,344.4,542.9,343.1,540.8Z"/>
    <path class="cls-4" d="M322.8,541.1h12.2c.5,38.1,1.7,76.1,4.6,114.1,1.2,15.1,2.7,30.1,6.2,44.8l-19.6,3c-.1-3.5-.2-7-.2-10.5-.4-27.4-.7-54.8-1.3-82.2C324.3,587.3,323.5,564.2,322.8,541.1Z"/>
    <path class="cls-5" d="M467.1,526.6c-10.8-4.5-17-12.6-18-24.2-1.2-13.3,3.5-24.2,14.5-32,8.9-6.3,23.3-8,34.5,4.9.2,16.6-7,30-18.1,41.6C476.2,520.8,472.5,525,467.1,526.6Z"/>
    <path class="cls-5" d="M443.1,707.2h33.2c1,6.2,1,6.2-5.2,6.2H447.8C441.5,713.2,441.5,713.2,443.1,707.2Z"/>
    <path class="cls-5" d="M394.1,707.3c9.5-.2,18.8,1.6,28.2,2.1,1.1,4.8-.8,6.4-5.6,5.8s-11.5-.8-17.3-1.1S392.4,715,394.1,707.3Z"/>
    <path class="cls-6" d="M326.3,703l19.6-3c3.4,9.8,3.4,9.8-6.7,9.9h-6.5C325.6,710.1,325.6,710.1,326.3,703Z"/>
    <path class="cls-6" d="M289.1,708.7H314c2,6.2,2,6.2-4.4,6.3s-11.3,0-16.9.4c-4,.3-5.6-.6-4-4.7A11.9,11.9,0,0,0,289.1,708.7Z"/>
    <path class="cls-6" d="M198.8,470.9l3.8,1.3"/>
    <path class="cls-6" d="M211.8,520l-27.6-.2c-6.9-6.7-12.4-14.2-14.4-23.9s-.8-16.4,6-22.4,13.8-6.5,26.8-1.2"/>
    <path class="cls-5" d="M202.6,472.3l3.5-15.8c11.3-.2,19.6,4.7,24.2,14.9,5.5,12,3.7,23.6-3.7,34.4a26.9,26.9,0,0,1-11.7,9.8c-2.2.9-3.2,2.2-3.1,4.4"/>
    <path class="cls-6" d="M92.2,445.8c11.9-15.3,26.8-14.1,36.1,3.1a45,45,0,0,1,3,38c-2.4,6.8-6.6,12.2-13.4,15.2C100.8,487.2,92.8,468.2,92.2,445.8Z"/>
    <path class="cls-6" d="M110.9,700h27.2c1.3,2,1,4.4,1.7,7.1-9.2,0-18.2.4-27.1-.2C107.4,706.6,111.4,702.4,110.9,700Z"/>
    <path class="cls-5" d="M197.9,707c7.7.4,15.4,2.3,23.2,2.1h0c-.3.6.1.8.5,1,.8,6.1.8,6.1-5.3,6.1s-10.3-.4-15.4-.1-6-1.2-4.2-5.5a15.2,15.2,0,0,0,.6-2.4l.8-1.2Z"/>
    <path class="cls-6" d="M156.2,702.9l23.2-3c.4,1.2.9,2.5,1.3,3.7.8,2.8.2,4.2-3.1,4.3a111.7,111.7,0,0,0-15.3,1.2C156.7,710,155.4,707.7,156.2,702.9Z"/>
    <path class="cls-8" d="M198,706.9l-.8,1.2C197.2,707.5,197.1,706.9,198,706.9Z"/>
    <path class="cls-8" d="M221.5,710c-.5-.2-.8-.4-.5-1S221.7,709.5,221.5,710Z"/>
    <path class="cls-6" d="M380.7,139.8c-11.8-.6-22.4-10.8-23.7-22.6-.1-1.2-1.1-3,.9-3.2s1.5,1.6,1.6,2.6c2.2,12.2,9.8,18.8,21.9,20.4,1.1.2,2.7.1,2.2,1.8S381.8,139.9,380.7,139.8Z"/>
    <path class="cls-6" d="M361,70.9c.1,2.4-.7,4.4-3.4,4.6s-5.7-3.9-5.8-7.7.5-4.4,3.3-4.7S361,67.2,361,70.9Z"/>
    <path class="cls-6" d="M378.7,67.6c-.5,2.4-.3,5.7-3.8,5.4s-4.3-3.8-4.5-6.7.2-5.6,3.6-5.3S378,64.7,378.7,67.6Z"/>
    <path class="cls-6" d="M419,111.6c0,1.7-.3,3.4-2.2,3.4s-2.9-1.9-3-3.8.1-3.3,2.1-3.3S418.8,109.8,419,111.6Z"/>
    <path class="cls-6" d="M403.9,110.1a4.7,4.7,0,0,1,3.1,4.5c.1,1.4-.2,2.9-2.1,2.5s-2.9-2.5-3-4.6S402.3,110.2,403.9,110.1Z"/>
    <path class="cls-5" d="M307.4,497.1c-17.3-2.1-33.7-11.8-42.9-31.4-7.7-16.4,1.1-30,19.4-31.2s44.5,16.2,50,35C338.6,485.6,329,497.2,307.4,497.1Z"/>
    <path class="cls-5" d="M390.5,442.1c-12.7,0-21.6-1.2-30-4.8a25.6,25.6,0,0,1-8-5c-3.4-3.3-5.7-7-3.4-12s6.5-7.3,11.9-7l55.9,2.6c7,.3,10.6,6.7,7.1,12.9-2,3.5-5.1,5.6-8.6,7.4A58.6,58.6,0,0,1,390.5,442.1Z"/>
    <path class="cls-5" d="M156.8,196.9c-1.1-.1-2.8.3-2.9-1.1s1.7-1.5,2.9-1.7c8-.8,15.3-3,20.8-9.2a20.5,20.5,0,0,0,4.3-8.3c.4-1.5.3-4,2.6-3.2s.7,3,.3,4.3c-3.2,10.7-11.4,15.8-21.7,18.2C161.1,196.3,159,196.5,156.8,196.9Z"/>
    <path class="cls-5" d="M191.2,131.6c-.2,3.5-3.5,6.7-6.8,6.6s-4.2-1.8-4.1-4.5,4.3-7,7.5-6.6S191.3,129.1,191.2,131.6Z"/>
    <path class="cls-5" d="M169.3,130c-.4,3.1-1.8,5.8-5.4,6s-4.2-2.2-4.1-5,1.6-5.9,5.3-6.1S169.2,127.1,169.3,130Z"/>
    <path class="cls-5" d="M118,170.6c-.1,1.9-1,3.5-3.1,3.8s-3.1-1-3-3.1,1.2-3.6,3.3-3.7S117.9,168.7,118,170.6Z"/>
    <path class="cls-5" d="M128.6,176.2c-1.8,0-2.7-.6-2.6-2a4.1,4.1,0,0,1,3.5-4.2c1.6-.3,2.6.5,2.5,2.2A4.4,4.4,0,0,1,128.6,176.2Z"/>
    <path class="cls-2" d="M304.5,105.3h1.2l-.3,1.2Z"/>
  </g>
</svg>
