<?xml version="1.0" encoding="utf-8"?>
<!-- Generator: Adobe Illustrator 21.0.2, SVG Export Plug-In . SVG Version: 6.00 Build 0)  -->
<svg version="1.1" id="Layer_1" xmlns="http://www.w3.org/2000/svg" xmlns:xlink="http://www.w3.org/1999/xlink" x="0px" y="0px"
	 viewBox="0 0 150 178.5" style="enable-background:new 0 0 150 178.5;" xml:space="preserve">
<style type="text/css">
	.st0{fill:#FDC312;}
	.st1{fill:#723D3D;}
	.st2{fill:#4D2C2B;}
	.st3{fill:#F47C23;}
	.st4{fill:#FD8002;}
	.st5{fill:#FEFEFD;}
</style>
<title>Artboard 1</title>
<g>
	<path class="st0" d="M67.1,91.4c0.4,0,0.3-0.5,0.6-0.8c4.5-0.6,8.1-4.8,8.2-9.3c0-3-1.5-4.7-4.6-4.8c0.4-2.7,0.9-5.4,1.3-8.1
		c0.3-1.5,0-3.1,0.8-4.8c0.6-2.9,0.9-5.7,1.4-8.6c1.8,1.1,2.8,0.8,3.8-0.9c0.4-1,0.8-2.1,0.8-3.1c0-2.7-0.3-5.2-2.7-7.1
		c-0.5-0.3-0.2-0.6-0.2-1c0.6-6.3,1.2-12.4,1.9-18.8c0.5-3.2-0.3-6.6,1.7-9.8c-1.9-0.2-3.3-0.9-4.7-2c-0.9-1.3-1.5-2.7-1.5-4.2
		s0.3-1.6,1.7-1.5c2.1,0.1,3.6,1.2,4.9,2.9c0.8,0.9,1.4,1.8,2.1,2.7c-0.3-1.8-0.8-3.6-1.2-5.4c-0.1-1-0.4-2.1-1.5-2.7
		c-1.2-0.6-0.9-2.1,0.5-2.8C81,0.9,81.9,0.6,82.7,1s0.6,1.3,0.4,2.1c-0.4,2.9,0.4,5.4,0.6,8.2c0,0.6,0.3,0.6,0.7,0.6
		c2.4-0.3,2.4-0.3,2.6-2.7c0-1.5,0-3,0.1-4.5c0-0.4,0-0.9-0.3-1.4c-1.3-1.9-1.3-2.1,0.6-3.4h1.8c0.9,0.6,1.4,1.5,0.8,2.6
		c-0.9,1.7-0.9,3.4-1.2,5.2c-0.2,1-0.3,2.1-0.4,3c0,0.3-0.3,0.9,0.3,1.1c0.6,0.1,0.6-0.4,0.8-0.8c0.6-1.4,1.4-2.7,2.2-3.8
		c1.1-1.4,2.4-2.2,4.2-2.2c0.9,0,1.3,0.3,1.3,1.4c0,3-0.8,5.4-3.6,7.1c2.4,1.3,4.5,2.7,6.1,4.7c2.2,2.4,3.9,5.2,4.4,8.5
		c0.6,4.9-2.4,8.7-7.5,8.9c-3.2,0.1-6-0.8-8.7-2.2c-0.8-0.5-1-0.6-1.2,0.6c-0.6,5.8-1.2,11.5-1.7,17.4c-0.6,6.4-1,13.1-1.5,19.7
		c-1.8-0.2-2.7,0.4-3.4,2.1c-0.9,2.1-0.8,4.3,0.3,6.3c0.6,1,1.5,1.8,2.7,1.9c0,6.8,0,13.7,0.4,20.4l-10.5-0.3
		c-1.3,0-2.5-0.3-3.1-1.8C68.9,96.8,67.8,94.1,67.1,91.4z M94.1,34.3c0.3,0,0.6,0.2,0.8-0.3c0.1-0.3-0.3-0.5-0.6-0.5
		c-3-0.4-4.8-2.1-5.4-5.1c0-0.3,0-0.8-0.4-0.6c-0.3,0-0.3,0.4-0.2,0.8C88.5,31.7,91.2,34.2,94.1,34.3z M89.2,17.2c0-0.9-0.8-2-1.5-2
		c-0.6,0-0.8,0.6-0.8,1.2c0,0.6,0.8,2,1.5,2C89.1,18.5,89.2,17.8,89.2,17.2z M93.6,16.5c-0.2-0.8-0.2-1.7-1.2-1.7
		c-1,0-0.9,0.8-0.9,1.4c0,0.6,0.1,1.6,1.1,1.6C93.6,17.8,93.4,17.1,93.6,16.5z M103.6,27.4c0-0.4-0.1-0.9-0.8-0.9
		c-0.6,0-0.6,0.4-0.4,0.8c0.1,0.3,0.1,0.9,0.8,0.9C103.6,28.2,103.6,27.8,103.6,27.4z M99.9,27c-0.4,0-0.4,0.3-0.4,0.6
		c0,0.3,0.1,1.1,0.8,1.2c0.6,0.1,0.6-0.3,0.4-0.6C100.6,27.6,100.4,27.2,99.9,27L99.9,27z"/>
	<path class="st1" d="M150,131.4c-0.8,0.3-0.6,1.2-1.4,1.5c-0.8,0.3-0.6,0.5-1,0c-0.4-0.4-0.3-0.4-0.6-0.1c-0.3,0.1-1.2,1-1.5,0.8
		c-0.8-0.8-1.2-1.6-1.5-2.5c0.5-1.5,1.6-2.1,3.1-2.2c0.8,0,1.5-0.3,2.1-0.5c0.1,0.5,0.3,0.9,0.1,1.2c-0.1,0.3,0,0.8,0.6,0.9V131.4z"
		/>
	<path class="st2" d="M5.1,125.2l-1.4,2.5c-0.8-0.2-1.2-1.3-2.2-0.4c-0.2,0.1-0.9-0.8-1-1.4s0-0.5-0.5-0.6v-1c0.5,0,0.9-0.2,1.3-0.5
		c-0.1-0.4-0.9-0.1-0.9-1c0-0.9,0.1-1.2,1-0.8c0.9,0.4,1.9,0.4,2.8,1L5.1,125.2z"/>
	<path class="st1" d="M57.8,178.5l0.3-1.5c2.5-0.1,5.1-0.1,7.6,0l0.3,1.5H57.8z"/>
	<path class="st3" d="M65.7,177c-2.5-0.1-5.1-0.1-7.6,0c1.9-7,1.6-14.4,1.6-21.6c0-7.2-0.4-14.1-0.6-21c0-1.8-1.1-2.5-2.4-3.1
		c-0.8-0.3-0.6,0.3-0.6,0.6c-0.2,3.3-0.5,6.4-0.5,9.8c-0.5,10.6-0.8,21.3-0.9,31.9c0,0.6-0.1,1.4-0.1,2c-2,0-3.8-0.5-5.7-0.5
		c0.9-3,1.5-6,1.8-9.1c0.6-4.8,0.9-9.8,1.1-14.5c0.3-7.5,0.6-15,0.6-22.6c0-0.6,0.3-0.9,0.8-1.1c1.2-0.5,2.2-1.4,2.9-2.4
		c1.8-2.7,2.2-5.6,0.9-8.6c-1.2-2.5-3.1-3.8-6-3.8c0.2-2.1,0.5-4.2,0.6-6.3c0.1-2.1,0.4-4.5,0.1-6.8c0.3-2.1,0.2-4.4,0-6.5v-2.4
		c2.9-0.5,4.7-2.9,4.2-5.7c-0.3-2.2-2.1-4.2-4.6-3.8c-0.3-3.6-0.6-7.3-0.9-10.9c-0.8-7.8-1.6-15.4-2.8-23.2c0-0.3-0.2-0.6-0.2-1
		c-3,1.5-6.2,2.4-9.5,2.7c-2.5,0.1-4.9,0-7.2-1.2c-3.3-1.5-4.7-4.7-3.4-8.1c1.2-3.5,3.6-5.7,6.3-7.7c1.8-1.2,3.8-2.2,6-3.2
		c-2.8-1.2-4.3-3.1-4.3-6c0-1,0.3-1.6,1.5-1.6c2.4,0,4,1,5.7,2.7c0.9,0.9,1.7,1.9,2.2,3.2c0.2,0.3,0.5,0.6,0.9,0.4
		c0.5-0.1,0.3-0.6,0.2-0.8c-0.3-2.1-0.8-4-1.1-6c-0.1-0.8-0.8-1-0.9-1.6c-0.5-1-0.2-1.6,0.9-2c1.1-0.3,2.1-0.3,3,0.2
		c1.2,0.6,1.4,1.5,0.3,2.2c-1.1,0.8-0.9,1.3-0.8,2.2c0.1,1.6,0.3,3.3,0.3,4.9c0,0.6,0.2,0.9,0.9,0.9c0.3,0,0.4,0,0.8,0
		c2.1,0.2,2.1,0.2,2.4-2.1c0.1-1.1,0.3-2.2,0.6-3.3c0.1-0.8,0.1-1.6,0-2.4c-0.4-1.5,0.3-2.2,1.9-2.1c0.5,0,0.9,0.2,1.4,0.3
		c0.8,0.3,1.6,0.8,1.6,1.6s-0.8,1.2-1.5,1.5c-0.4,0.1-0.8,0.5-0.8,0.8c-0.6,2.1-1.2,4.2-1.8,6.4c0.8-0.2,0.9-0.8,1.2-1.2
		c1.9-2.4,4.3-4,7.6-4c1.5,0,1.8,0.3,1.5,1.8c-0.1,1.1-0.4,2.1-1.3,2.9c-0.3,0.3-0.5,0.8-0.3,1.2c-1.8,0.8-3.4,1.7-5.6,1.7
		c1.2,1.3,1.8,3.2,1.7,4.9c0,0.6,0,1.1,0.1,1.7c0.8,6.5,1.7,12.8,2.6,19.2c0,0.6,0,0.8-0.6,1c-3,1.8-3.9,6.6-2,9.5
		c0.8,1.2,2.1,1.5,3.3,1c0.3-0.1,0.6-0.4,0.9-0.3c0.1,0.6,0.1,1.3,0.3,1.9c0.6,2.7,0.9,5.6,1.8,8.2l2.1,9.3
		c-2.5-0.6-5.1,0.8-5.5,3.1c-0.3,1.5,0.1,2.9,0.9,4.2c1.8,2.8,4.4,4.5,7.5,5.2c0.5,0,0.9,0.4,1.4-0.3c0.6,1.5,1.8,1.8,3.1,1.8
		l10.5,0.3c4.8,0.2,9.6,0.5,14.6,0.8c3.6,0.2,7.3,0.3,11,0.3c5-0.2,9,1.8,12,5.8c3.8,5.1,7.5,10.2,12.4,14.2c2.9,2.4,6,4.3,9.5,5.7
		c1,0.5,2.1,0.6,3.1,0.3c0.8-0.3,1.5-0.4,2.2-0.4c0.3,0,0.8-0.3,0.9,0.3c-0.8,0.1-1.5,0.3-2.1,0.4c-1.5,0.1-2.7,0.8-3.2,2.2
		c-8.4-2.7-15-7.8-20.4-15c-0.4,0.6-0.3,1.2-0.4,1.6c-2.9-3.1-6.3-2.8-8.6-1.2c-2.7,1.9-3.9,4.6-3.6,7.9c0.3,2.9,1.8,5,4.5,6
		c0.5,9.5,0.9,18.8,1.5,28.2c0.3,5.5,0.6,11.1,0.9,16.5h-8.1c2.4-9.1,1.6-18.5,1.5-27.8c0-4.6-0.3-9.1-0.6-13.8c0-0.3,0-0.6-0.1-1.1
		c-1.4,0.3-2.5,0.6-3.9,0.9c-0.6,0.2-0.5,0.6-0.6,1.1c-0.5,7.2-0.8,14.4-1,21.6c-0.2,6.1-0.3,12.4-0.5,18.6c0,0.3,0,0.6-0.1,0.9
		c-2.4-0.2-4.7-0.6-7.1-0.5c2.7-7,2.9-14.5,3.5-22c0.4-6,0.6-12,0.8-18c0-0.9-0.2-1.4-1.2-1.2c-1,0-2.2,0-3.4,0
		c1.3-1.2,2.5-2.4,3.3-4c1.4-3.3-0.4-6.5-4-6.8c-4.4-0.5-7.8,1.2-10.5,4.7c-1.5,1.8-2,3.9-0.9,6.3h-1.9h-9.9c-3-0.1-5.8,0.1-8.8-0.1
		c-0.9-0.1-0.6,0.6-0.6,1c0.2,3.6,0.3,7.4,0.5,11c0.4,8.1,0.8,16,1.2,24.1C65.4,172.2,65.6,174.6,65.7,177z M75.9,123
		c5.4,0,7.8-2.9,6.6-6.9c-1.4-4.7-7.5-9-12.4-8.7c-4.8,0.3-6.8,3.6-4.8,7.8C67.6,120,71.7,122.4,75.9,123L75.9,123z M96.6,109.4
		c2.1,0,4.2-0.6,6.1-1.5c0.9-0.5,1.6-0.9,2.1-1.8c0.9-1.5,0-3.1-1.8-3.1l-13.8-0.6c-1.4,0-2.4,0.5-3,1.8c-0.6,1.2,0,2.1,0.9,3
		c0.6,0.6,1.2,0.9,2,1.2C91.2,109,93.4,109.4,96.6,109.4L96.6,109.4z M38.6,48.6c0.4,0,1-0.1,1.6-0.3c2.6-0.6,4.5-1.8,5.4-4.5
		c0.2-0.3,0.5-0.9,0-1.1c-0.6-0.3-0.6,0.4-0.8,0.8c-0.2,0.8-0.6,1.5-1,2.1c-1.4,1.5-3.2,2.1-5.1,2.2c-0.3,0-0.8,0-0.8,0.5
		C37.9,48.8,38.4,48.4,38.6,48.6z M47.1,32.4c0-0.6-0.2-1.1-0.9-1.1c-0.6,0-1.8,0.8-1.8,1.7c0,0.8,0.3,1.1,1,1.1
		S47.1,33.2,47.1,32.4L47.1,32.4z M41.7,31.9c0-0.8-0.1-1.4-1-1.2s-1.2,0.8-1.3,1.5c0,0.8,0.1,1.3,1,1.2
		C41.2,33.4,41.6,32.7,41.7,31.9z M28.9,42c0-0.4-0.3-0.8-0.8-0.8s-0.8,0.4-0.8,0.9c0,0.4,0.1,0.8,0.8,0.8
		C28.8,42.9,28.9,42.4,28.9,42z M31.7,43.3c0.4-0.2,0.8-0.4,0.9-1c0-0.5-0.2-0.6-0.6-0.6c-0.4,0.2-0.9,0.5-0.9,1.1
		C31.1,43.2,31.2,43.3,31.7,43.3L31.7,43.3z"/>
	<path class="st2" d="M83.1,81c-1.2-0.1-2.1-0.9-2.7-1.9c-1.2-1.9-1.2-4.2-0.3-6.3c0.8-1.6,1.6-2.1,3.4-2.1L83.1,81z"/>
	<path class="st0" d="M51.6,99.9c0.1,2.2,0,4.5-0.1,6.8s-0.4,4.2-0.6,6.3l-0.9,3.9l-0.9-0.3c-2-0.8-4-0.9-5.7,0.6
		c-1.6,1.5-1.9,3.5-1.5,5.6c0.5,2.1,1.8,4.2,3.6,5.8c-1.2,0-2.6,0-3.8,0c-0.6,0-0.8,0.2-0.8,0.8c0.1,5,0.3,9.8,0.4,14.7
		c0.2,3,0.2,5.9,0.3,8.9c0.4,6,0.6,12.1,1.9,18c0.2,0.8,0.5,1.5,0.6,2.2l-5.7,0.8c-0.2-3.5-0.2-6.9-0.3-10.2
		c-0.2-8.2-0.3-16.5-0.6-24.8c-0.1-3.3-0.3-6.4-0.4-9.8c0-0.6-0.2-0.9-0.9-1c-0.8-0.2-1.5-0.3-2.1-0.6c-0.9-0.5-0.9,0-0.9,0.8
		c0,3.5-0.2,7-0.3,10.5c-0.3,6.6-0.3,13-0.2,19.6c0,5,0.2,9.9,1.2,14.9h-6.8c0.2-5.9,0.5-11.5,0.8-17.4c0.2-3.5,0.2-6.9,0.3-10.2
		c0.3-6.8,0.6-13.6,0.9-20.4c0-0.3,0-0.8-0.1-1c1.6-0.8,2.7-2.1,3.3-3.8c1.2-3.2,0.9-6.6-0.8-9.5c-2.2-4.2-6-4.5-9-0.8l-0.1-1.4
		l-1.5,2.4c-3,4.7-6.6,8.8-11.4,11.8c-1.4,0.8-2.9,1.7-4.4,2.1l-0.8-2.1c6.8-3,11.2-8.2,15-14.2c2-3,3.8-6.1,5.7-9.3
		c2.6-4.2,6.6-6.2,11.4-5.6c0.8,0,1.5,0,2.2,0c-1.2,2.1-0.9,3.7,1,5.1c0.6,0.5,1.4,0.9,2.1,1.2C45,101.5,48.6,101.4,51.6,99.9z"/>
	<path class="st1" d="M63.8,77.9c-0.9-2.7-1.2-5.6-1.8-8.2c-0.1-0.6-0.1-1.4-0.3-2c-0.5-0.1-0.6,0.2-0.9,0.3
		c-1.4,0.4-2.6,0.2-3.3-1.1c-1.9-2.8-0.9-7.6,2-9.4c0.5-0.3,0.6-0.4,0.6-1.1c-0.9-6.4-1.6-12.8-2.6-19.2c-0.1-0.6-0.1-1.1-0.1-1.7
		c0.1-1.8-0.5-3.6-1.7-4.9c2.1-0.2,3.8-0.9,5.6-1.7c0.1,0.6,0.6,1.3-0.4,1.8l-1.4,0.8c0.9,0.1,1.7-0.1,2.6-0.1c0,0.4,0,1,0,1.7
		c0,0.4-0.3,0.9-0.9,0.9c-0.6,0-0.9-0.1-1.4,0.2l2.2,0.8c0,0.5,0,1,0.1,1.5c0.1,0.9-0.1,1.2-1,1c-0.5,0-0.9-0.3-1.5-0.1l2.4,1.2
		c0,0.9,0.5,1.8-0.3,2.7c-0.1,0.2,0,0.3,0.1,0.4c0.6,1.1,1.1,2.2,0.1,3.5c0,0,0,0.1,0,0.3c0.8,3.5,0.9,6.9,1,10.5
		c0,1.4,0.3,2.7,0,3.9c-0.1,1.2,0.3,2.9,0.2,4.3C62.9,68.4,63.6,73.1,63.8,77.9z"/>
	<path class="st2" d="M75.1,12.8c1.4,1,2.7,1.8,4.7,2c-1.9,3-1.2,6.5-1.7,9.7c-0.8,6.1-1.3,12.4-1.9,18.7c0,0.3-0.1,0.6,0.2,1.1
		c2.4,1.8,2.7,4.4,2.7,7.1c0,1-0.2,2.2-0.8,3.1c-0.9,1.7-1.8,2-3.8,0.9c-0.4,2.8-0.8,5.7-1.3,8.5c-0.5-0.3-0.3-0.8-0.3-1.2
		c0.1-3,0.1-6,0.4-9c0.1-1.9-0.3-3.9,0.4-5.8c0.2-0.3-0.4-0.9-0.3-1.7c0.2-0.6-0.4-1.9,0.3-2.5c0.8-0.6-0.6-1-0.3-2
		c0.5-0.8-0.4-2.5,0.8-3.4v-0.2c-0.8-1.8-0.6-3,0.6-4.2c-0.1-0.5-0.8,0.2-0.9-0.5c-0.2-0.6,0.3-2.4,1-3c-1-0.4-1.3-2.4-0.6-3.4
		l0.6-0.8V26h-0.3c-0.5,0-0.6,0-0.6-0.4c0-1.4-0.1-2.6,1.4-3.2c0.1,0,0.1-0.2,0.3-0.3c-0.6-0.3-1,0.3-1.6,0.1
		c-0.2-2.5-0.2-2.5,1.8-3.8c-0.6-0.3-1.3,0.2-1.6-0.3c-0.3-0.5-0.3-1.2-0.1-1.8c0.1-1.5,1.3,0.1,1.9-0.6
		C75.4,14.8,74.4,14.2,75.1,12.8z"/>
	<path class="st2" d="M51.6,99.9c-3,1.5-6.6,1.8-9.8,0.6c-0.8-0.3-1.5-0.6-2.1-1.2c-2-1.5-2.2-3.2-1.1-5.1l6.2-0.5l6.9-0.3
		C51.8,95.6,51.9,97.6,51.6,99.9z"/>
	<path class="st1" d="M69.9,99.3c-0.3,0.6-0.9,0.3-1.3,0.3c-3.2-0.8-5.7-2.4-7.5-5.2c-0.8-1.2-1.2-2.7-0.9-4.2
		c0.5-2.4,3-3.8,5.5-3.2l1.2,4.2C67.8,94.1,68.7,96.8,69.9,99.3z"/>
	<path class="st2" d="M71.2,76.5c3,0,4.6,1.6,4.6,4.8c0,4.5-3.8,8.7-8.2,9.3C69.1,85.9,70.2,81.3,71.2,76.5z"/>
	<path class="st1" d="M51.3,81.6c2.5-0.5,4.3,1.5,4.6,3.8c0.3,2.7-1.5,5.2-4.2,5.7L51.3,81.6z"/>
	<path class="st4" d="M61.8,31.2c-0.8,0-1.5,0.3-2.6,0.1l1.4-0.8C61.1,31.1,61.8,30.3,61.8,31.2z"/>
	<path class="st4" d="M61.6,38.2l-2.4-1.2c0.6-0.2,1.1,0.1,1.5,0.1C60.9,37.7,61.8,37.5,61.6,38.2z"/>
	<path class="st4" d="M61.6,34.7l-2.2-0.8c0.5-0.2,0.9-0.2,1.4-0.2S61.8,33.9,61.6,34.7z"/>
	<path class="st0" d="M72.9,133.8h4.1c-0.4,8.9-0.8,17.7-0.4,26.4c0.1,5.1,0.1,10,1.2,15.1h-6.1c0.3-7.8,0.6-15.5,0.9-23.2
		c0.2-3.8,0.2-7.5,0.3-11.1C72.8,138.6,72.9,136.2,72.9,133.8z"/>
	<path class="st1" d="M84.8,133.8c-1.1-2.2-0.4-4.3,0.9-6.3c2.7-3.3,6.2-5.1,10.5-4.6c3.6,0.3,5.4,3.4,4.1,6.8c-0.6,1.6-2,3-3.3,4
		c-0.6,0.5-1.2,0.6-1.9,0.6c-3,0-5.8,0-8.8,0C85.6,134.4,85.2,134.2,84.8,133.8z"/>
	<path class="st0" d="M79.8,133.8h3c0.1,9.5,0.4,18.9,1.2,28.4c0.3,3.8,0.6,7.5,1.5,11.1l-4.8,0.8c0-0.9,0-1.8,0-2.5
		c-0.1-6.8-0.1-13.7-0.3-20.4C80.1,145.4,79.9,139.6,79.8,133.8z"/>
	<path class="st1" d="M115.5,130.2c-2.7-1.1-4.2-3.2-4.5-6c-0.3-3.3,0.9-6,3.6-8c2.2-1.5,5.8-2,8.5,1.2c0,4-1.8,7.5-4.5,10.3
		C117.8,128.9,116.9,129.9,115.5,130.2z"/>
	<path class="st1" d="M109.6,175h8.2c0.3,1.5,0.3,1.5-1.3,1.5h-5.8C109.2,176.5,109.2,176.5,109.6,175z"/>
	<path class="st1" d="M97.5,175c2.4,0,4.6,0.5,7,0.5c0.3,1.2-0.2,1.6-1.3,1.5c-1.2-0.1-2.9-0.1-4.4-0.3C97.3,176.6,97,177,97.5,175z
		"/>
	<path class="st2" d="M80.7,174l4.8-0.8c0.9,2.4,0.9,2.4-1.6,2.4h-1.7C80.4,175.8,80.4,175.8,80.7,174z"/>
	<path class="st2" d="M71.4,175.4h6.2c0.4,1.5,0.4,1.5-1.1,1.5c-1.6,0-2.8,0-4.2,0.1c-1.1,0-1.3-0.1-1.1-1.2
		C71.4,175.8,71.4,175.6,71.4,175.4z"/>
	<path class="st2" d="M49.1,116.4l0.9,0.3"/>
	<path class="st2" d="M52.2,128.7h-6.9c-1.7-1.7-3-3.5-3.6-5.9c-0.4-2.4-0.1-4.1,1.5-5.6c1.7-1.5,3.5-1.6,6.6-0.3"/>
	<path class="st1" d="M49.9,116.9l0.9-3.9c2.8,0,4.8,1.2,6,3.8c1.3,3,0.9,5.8-0.9,8.5c-0.8,1-1.6,2-2.8,2.4
		c-0.6,0.2-0.8,0.6-0.8,1.1"/>
	<path class="st2" d="M22.7,110.2c3-3.8,6.6-3.5,9,0.8c1.7,2.9,1.9,6.3,0.8,9.5c-0.6,1.7-1.7,3-3.3,3.8
		C24.8,120.5,22.8,115.8,22.7,110.2z"/>
	<path class="st2" d="M27.3,173.2h6.8c0.3,0.5,0.3,1,0.4,1.8c-2.2,0-4.5,0.2-6.8,0C26.4,174.9,27.3,173.9,27.3,173.2z"/>
	<path class="st1" d="M48.8,175c1.9,0.2,3.8,0.6,5.7,0.5l0,0c0,0.1,0,0.1,0.2,0.3c0.1,1.5,0.1,1.5-1.4,1.5s-2.5-0.1-3.8,0
		c-1.2,0-1.5-0.3-1-1.3c0-0.2,0.1-0.5,0.1-0.6L48.8,175L48.8,175z"/>
	<path class="st2" d="M38.4,174l5.7-0.8c0.2,0.3,0.2,0.6,0.3,0.9c0.2,0.8,0,1.1-0.8,1.1c-1.2,0-2.6,0.1-3.8,0.3
		C38.6,175.8,38.2,175.2,38.4,174z"/>
	<path class="st4" d="M48.9,174.9l-0.1,0.3C48.6,175,48.6,174.9,48.9,174.9z"/>
	<path class="st4" d="M54.6,175.8c-0.1,0-0.1-0.1-0.1-0.3C54.6,175.4,54.8,175.6,54.6,175.8z"/>
	<path class="st2" d="M94.1,34.3c-3-0.2-5.6-2.7-5.9-5.5c0-0.3-0.3-0.8,0.2-0.8c0.4,0,0.3,0.4,0.4,0.6c0.6,3,2.4,4.7,5.4,5.1
		c0.3,0,0.6,0,0.6,0.5C94.8,34.6,94.4,34.3,94.1,34.3z"/>
	<path class="st2" d="M89.2,17.2c0,0.6-0.1,1-0.9,1.2c-0.6,0-1.4-0.9-1.5-2c0-0.9,0.1-1,0.8-1.2C88.2,15.1,89.2,16.3,89.2,17.2z"/>
	<path class="st2" d="M93.6,16.5c-0.2,0.6,0,1.3-0.9,1.3s-1.1-0.9-1.1-1.6s0-1.3,0.9-1.3C93.4,14.8,93.4,15.8,93.6,16.5z"/>
	<path class="st2" d="M103.6,27.4c0,0.4,0,0.9-0.6,0.9c-0.5,0-0.8-0.4-0.8-0.9s0-0.8,0.5-0.8C103.4,26.4,103.5,27,103.6,27.4z"/>
	<path class="st2" d="M99.9,27c0.5,0.2,0.8,0.6,0.8,1.1c0,0.3,0,0.8-0.4,0.6c-0.5-0.2-0.8-0.6-0.8-1.2C99.3,27.2,99.5,27,99.9,27z"
		/>
	<path class="st1" d="M75.9,123c-4.3-0.5-8.4-3-10.6-7.8c-1.9-4,0.3-7.5,4.8-7.8s11.1,4,12.4,8.7C83.7,120.1,81.3,123,75.9,123z"/>
	<path class="st1" d="M96.6,109.4c-3.2,0-5.4-0.3-7.5-1.2c-0.8-0.3-1.4-0.8-2-1.2c-0.9-0.8-1.3-1.8-0.9-3c0.6-1.2,1.6-1.8,3-1.8
		l13.8,0.6c1.8,0,2.7,1.6,1.8,3.1c-0.5,0.9-1.2,1.4-2.1,1.8C100.8,108.8,98.7,109.4,96.6,109.4z"/>
	<path class="st1" d="M38.6,48.6c-0.3,0-0.8,0-0.8-0.3c0-0.3,0.4-0.3,0.8-0.5c1.9-0.2,3.8-0.8,5.1-2.2c0.4-0.6,0.9-1.3,1-2.1
		c0.2-0.3,0-1.1,0.6-0.8c0.6,0.1,0.1,0.8,0,1c-0.8,2.7-2.9,3.9-5.4,4.5C39.8,48.4,39.2,48.4,38.6,48.6z"/>
	<path class="st1" d="M47.1,32.4c0,0.9-0.9,1.7-1.7,1.7s-1-0.5-1-1.1c0-0.6,1-1.8,1.8-1.7C46.9,31.5,47.1,31.8,47.1,32.4z"/>
	<path class="st1" d="M41.7,31.9c-0.1,0.7-0.4,1.5-1.3,1.5s-1-0.6-1-1.2c0-0.8,0.4-1.5,1.3-1.5C41.6,30.6,41.7,31.2,41.7,31.9z"/>
	<path class="st1" d="M28.9,42c0,0.4-0.3,0.9-0.8,0.9s-0.8-0.3-0.8-0.8c0-0.5,0.3-0.9,0.8-0.9C28.8,41.2,28.9,41.6,28.9,42z"/>
	<path class="st1" d="M31.7,43.3c-0.5,0-0.6-0.2-0.6-0.4c0-0.5,0.3-0.9,0.9-1.1c0.5,0,0.6,0.2,0.6,0.6
		C32.4,42.9,32.1,43.3,31.7,43.3z"/>
	<path class="st5" d="M75.3,25.8h0.3v0.3L75.3,25.8z"/>
</g>
</svg>
