<?xml version="1.0" encoding="utf-8"?>
<!-- Generator: Adobe Illustrator 21.0.2, SVG Export Plug-In . SVG Version: 6.00 Build 0)  -->
<svg version="1.1" id="Layer_1" xmlns="http://www.w3.org/2000/svg" xmlns:xlink="http://www.w3.org/1999/xlink" x="0px" y="0px"
	 viewBox="0 0 100 119" style="enable-background:new 0 0 100 119;" xml:space="preserve">
<style type="text/css">
	.st0{fill:#FDC312;}
	.st1{fill:#723D3D;}
	.st2{fill:#4D2C2B;}
	.st3{fill:#F47C23;}
	.st4{fill:#FD8002;}
	.st5{fill:#FEFEFD;}
</style>
<title>Artboard 1</title>
<g>
	<path class="st0" d="M44.7,60.9c0.3,0,0.2-0.3,0.4-0.5c3-0.4,5.4-3.2,5.5-6.2c0-2-1-3.1-3.1-3.2c0.3-1.8,0.6-3.6,0.9-5.4
		c0.2-1,0-2.1,0.5-3.2c0.4-1.9,0.6-3.8,0.9-5.7c1.2,0.7,1.9,0.5,2.5-0.6c0.3-0.7,0.5-1.4,0.5-2.1c0-1.8-0.2-3.5-1.8-4.7
		c-0.3-0.2-0.1-0.4-0.1-0.7c0.4-4.2,0.8-8.3,1.3-12.5c0.3-2.1-0.2-4.4,1.1-6.5c-1.3-0.1-2.2-0.6-3.1-1.3c-0.6-0.9-1-1.8-1-2.8
		s0.2-1.1,1.1-1c1.4,0.1,2.4,0.8,3.3,1.9c0.5,0.6,0.9,1.2,1.4,1.8c-0.2-1.2-0.5-2.4-0.8-3.6c-0.1-0.7-0.3-1.4-1-1.8
		c-0.8-0.4-0.6-1.4,0.3-1.9c0.5-0.3,1.1-0.5,1.6-0.2s0.4,0.9,0.3,1.4c-0.3,1.9,0.3,3.6,0.4,5.5C55.8,8,56,8,56.3,8
		c1.6-0.2,1.6-0.2,1.7-1.8c0-1,0-2,0.1-3c0-0.3,0-0.6-0.2-0.9C57,1,57,0.9,58.3,0h1.2c0.6,0.4,0.9,1,0.5,1.7
		c-0.6,1.1-0.6,2.3-0.8,3.5c-0.1,0.7-0.2,1.4-0.3,2c0,0.2-0.2,0.6,0.2,0.7c0.4,0.1,0.4-0.3,0.5-0.5c0.4-0.9,0.9-1.8,1.5-2.5
		c0.7-0.9,1.6-1.5,2.8-1.5c0.6,0,0.9,0.2,0.9,0.9c0,2-0.5,3.6-2.4,4.7c1.6,0.9,3,1.8,4.1,3.1c1.5,1.6,2.6,3.5,2.9,5.7
		c0.4,3.3-1.6,5.8-5,5.9c-2.1,0.1-4-0.5-5.8-1.5c-0.5-0.3-0.7-0.4-0.8,0.4c-0.4,3.9-0.8,7.7-1.1,11.6c-0.4,4.3-0.7,8.7-1,13.1
		c-1.2-0.1-1.8,0.3-2.3,1.4c-0.6,1.4-0.5,2.9,0.2,4.2c0.4,0.7,1,1.2,1.8,1.3c0,4.5,0,9.1,0.3,13.6l-7-0.2c-0.9,0-1.7-0.2-2.1-1.2
		C45.9,64.5,45.2,62.7,44.7,60.9z M62.7,22.9c0.2,0,0.4,0.1,0.5-0.2c0.1-0.2-0.2-0.3-0.4-0.3c-2-0.3-3.2-1.4-3.6-3.4
		c0-0.2,0-0.5-0.3-0.4c-0.2,0-0.2,0.3-0.1,0.5C59,21.1,60.8,22.8,62.7,22.9z M59.5,11.5c0-0.6-0.5-1.3-1-1.3c-0.4,0-0.5,0.4-0.5,0.8
		c0,0.4,0.5,1.3,1,1.3C59.4,12.3,59.5,11.9,59.5,11.5z M62.4,11c-0.1-0.5-0.1-1.1-0.8-1.1S61,10.4,61,10.8c0,0.4,0.1,1.1,0.7,1.1
		C62.4,11.9,62.3,11.4,62.4,11z M69.1,18.3c0-0.3-0.1-0.6-0.5-0.6c-0.4,0-0.4,0.3-0.3,0.5s0.1,0.6,0.5,0.6
		C69.1,18.8,69.1,18.5,69.1,18.3z M66.6,18c-0.3,0-0.3,0.2-0.3,0.4c0,0.2,0.1,0.7,0.5,0.8c0.4,0.1,0.4-0.2,0.3-0.4
		C67.1,18.4,66.9,18.1,66.6,18L66.6,18z"/>
	<path class="st1" d="M100,87.6c-0.5,0.2-0.4,0.8-0.9,1s-0.4,0.3-0.7,0s-0.2-0.3-0.4-0.1c-0.2,0.1-0.8,0.7-1,0.5
		c-0.5-0.5-0.8-1.1-1-1.7c0.3-1,1.1-1.4,2.1-1.5c0.5,0,1-0.2,1.4-0.3c0.1,0.3,0.2,0.6,0.1,0.8c-0.1,0.2,0,0.5,0.4,0.6L100,87.6z"/>
	<path class="st2" d="M3.4,83.5l-0.9,1.7C2,85.1,1.7,84.3,1,84.9C0.9,85,0.4,84.4,0.3,84s0-0.3-0.3-0.4v-0.7c0.3,0,0.6-0.1,0.9-0.3
		c-0.1-0.3-0.6-0.1-0.6-0.7s0.1-0.8,0.7-0.5s1.3,0.3,1.9,0.7L3.4,83.5z"/>
	<path class="st1" d="M38.5,119l0.2-1c1.7-0.1,3.4-0.1,5.1,0l0.2,1H38.5z"/>
	<path class="st3" d="M43.8,118c-1.7-0.1-3.4-0.1-5.1,0c1.3-4.7,1.1-9.6,1.1-14.4s-0.3-9.4-0.4-14c0-1.2-0.7-1.7-1.6-2.1
		c-0.5-0.2-0.4,0.2-0.4,0.4c-0.1,2.2-0.3,4.3-0.3,6.5c-0.3,7.1-0.5,14.2-0.6,21.3c0,0.4-0.1,0.9-0.1,1.3c-1.3,0-2.5-0.3-3.8-0.3
		c0.6-2,1-4,1.2-6.1c0.4-3.2,0.6-6.5,0.7-9.7c0.2-5,0.4-10,0.4-15.1c0-0.4,0.2-0.6,0.5-0.7c0.8-0.3,1.5-0.9,1.9-1.6
		c1.2-1.8,1.5-3.7,0.6-5.7c-0.8-1.7-2.1-2.5-4-2.5c0.1-1.4,0.3-2.8,0.4-4.2c0.1-1.4,0.3-3,0.1-4.5c0.2-1.4,0.1-2.9,0-4.3l0-1.6
		c1.9-0.3,3.1-1.9,2.8-3.8c-0.2-1.5-1.4-2.8-3.1-2.5c-0.2-2.4-0.4-4.9-0.6-7.3c-0.5-5.2-1.1-10.3-1.9-15.5c0-0.2-0.1-0.4-0.1-0.7
		c-2,1-4.1,1.6-6.3,1.8c-1.7,0.1-3.3,0-4.8-0.8c-2.2-1-3.1-3.1-2.3-5.4s2.4-3.8,4.2-5.1c1.2-0.8,2.5-1.5,4-2.1
		c-1.9-0.8-2.9-2.1-2.9-4c0-0.7,0.2-1.1,1-1.1c1.6,0,2.7,0.7,3.8,1.8c0.6,0.6,1.1,1.3,1.5,2.1c0.1,0.2,0.3,0.4,0.6,0.3
		c0.3-0.1,0.2-0.4,0.1-0.5c-0.2-1.4-0.5-2.7-0.7-4c-0.1-0.5-0.5-0.7-0.6-1.1c-0.3-0.7-0.1-1.1,0.6-1.3c0.7-0.2,1.4-0.2,2,0.1
		c0.8,0.4,0.9,1,0.2,1.5c-0.7,0.5-0.6,0.9-0.5,1.5c0.1,1.1,0.2,2.2,0.2,3.3c0,0.4,0.1,0.6,0.6,0.6c0.2,0,0.3,0,0.5,0
		c1.4,0.1,1.4,0.1,1.6-1.4c0.1-0.7,0.2-1.5,0.4-2.2c0.1-0.5,0.1-1.1,0-1.6c-0.3-1,0.2-1.5,1.3-1.4c0.3,0,0.6,0.1,0.9,0.2
		c0.5,0.2,1.1,0.5,1.1,1.1c0,0.6-0.5,0.8-1,1c-0.3,0.1-0.5,0.3-0.5,0.5c-0.4,1.4-0.8,2.8-1.2,4.3c0.5-0.1,0.6-0.5,0.8-0.8
		c1.3-1.6,2.9-2.7,5.1-2.7c1,0,1.2,0.2,1,1.2c-0.1,0.7-0.3,1.4-0.9,1.9c-0.2,0.2-0.3,0.5-0.2,0.8c-1.2,0.5-2.3,1.1-3.7,1.1
		c0.8,0.9,1.2,2.1,1.1,3.3c0,0.4,0,0.7,0.1,1.1c0.5,4.3,1.1,8.5,1.7,12.8c0,0.4,0,0.5-0.4,0.7c-2,1.2-2.6,4.4-1.3,6.3
		c0.5,0.8,1.4,1,2.2,0.7c0.2-0.1,0.4-0.3,0.6-0.2c0.1,0.4,0.1,0.9,0.2,1.3c0.4,1.8,0.6,3.7,1.2,5.5l1.4,6.2
		c-1.7-0.4-3.4,0.5-3.7,2.1c-0.2,1,0.1,1.9,0.6,2.8c1.2,1.9,2.9,3,5,3.5c0.3,0,0.6,0.3,0.9-0.2c0.4,1,1.2,1.2,2.1,1.2l7,0.2
		c3.2,0.1,6.4,0.3,9.7,0.5c2.4,0.1,4.9,0.2,7.3,0.2c3.3-0.1,6,1.2,8,3.9c2.5,3.4,5,6.8,8.3,9.5c1.9,1.6,4,2.9,6.3,3.8
		c0.7,0.3,1.4,0.4,2.1,0.2c0.5-0.2,1-0.3,1.5-0.3c0.2,0,0.5-0.2,0.6,0.2c-0.5,0.1-1,0.2-1.4,0.3c-1,0.1-1.8,0.5-2.1,1.5
		c-5.6-1.8-10-5.2-13.6-10c-0.3,0.4-0.2,0.8-0.3,1.1c-1.9-2.1-4.2-1.9-5.7-0.8c-1.8,1.3-2.6,3.1-2.4,5.3c0.2,1.9,1.2,3.3,3,4
		c0.3,6.3,0.6,12.5,1,18.8c0.2,3.7,0.4,7.4,0.6,11h-5.4c1.6-6.1,1.1-12.3,1-18.5c0-3.1-0.2-6.1-0.4-9.2c0-0.2,0-0.4-0.1-0.7
		c-0.9,0.2-1.7,0.4-2.6,0.6c-0.4,0.1-0.3,0.4-0.4,0.7c-0.3,4.8-0.5,9.6-0.7,14.4c-0.1,4.1-0.2,8.3-0.3,12.4c0,0.2,0,0.4-0.1,0.6
		c-1.6-0.1-3.1-0.4-4.7-0.3c1.8-4.7,1.9-9.7,2.3-14.7c0.3-4,0.4-8,0.5-12c0-0.6-0.1-0.9-0.8-0.8c-0.7,0-1.5,0-2.3,0
		c0.9-0.8,1.7-1.6,2.2-2.7c0.9-2.2-0.3-4.3-2.7-4.5c-2.9-0.3-5.2,0.8-7,3.1c-1,1.2-1.3,2.6-0.6,4.2l-1.3,0h-6.6
		c-2-0.1-3.9,0.1-5.9-0.1c-0.6-0.1-0.4,0.4-0.4,0.7c0.1,2.4,0.2,4.9,0.3,7.3c0.3,5.4,0.5,10.7,0.8,16.1
		C43.6,114.8,43.7,116.4,43.8,118z M50.6,82c3.6,0,5.2-1.9,4.4-4.6c-0.9-3.1-5-6-8.3-5.8c-3.2,0.2-4.5,2.4-3.2,5.2
		C45.1,80,47.8,81.6,50.6,82L50.6,82z M64.4,72.9c1.4,0,2.8-0.4,4.1-1c0.6-0.3,1.1-0.6,1.4-1.2c0.6-1,0-2.1-1.2-2.1l-9.2-0.4
		c-0.9,0-1.6,0.3-2,1.2c-0.4,0.8,0,1.4,0.6,2c0.4,0.4,0.8,0.6,1.3,0.8C60.8,72.7,62.3,72.9,64.4,72.9L64.4,72.9z M25.7,32.4
		c0.3,0,0.7-0.1,1.1-0.2c1.7-0.4,3-1.2,3.6-3c0.1-0.2,0.3-0.6,0-0.7C30,28.3,30,28.8,29.9,29c-0.1,0.5-0.4,1-0.7,1.4
		c-0.9,1-2.1,1.4-3.4,1.5c-0.2,0-0.5,0-0.5,0.3C25.3,32.5,25.6,32.3,25.7,32.4z M31.4,21.6c0-0.4-0.1-0.7-0.6-0.7
		c-0.4,0-1.2,0.5-1.2,1.1c0,0.5,0.2,0.7,0.7,0.7S31.4,22.1,31.4,21.6L31.4,21.6z M27.8,21.3c0-0.5-0.1-0.9-0.7-0.8s-0.8,0.5-0.9,1
		c0,0.5,0.1,0.9,0.7,0.8C27.5,22.3,27.7,21.8,27.8,21.3z M19.3,28c0-0.3-0.2-0.5-0.5-0.5c-0.3,0-0.5,0.3-0.5,0.6
		c0,0.3,0.1,0.5,0.5,0.5C19.2,28.6,19.3,28.3,19.3,28z M21.1,28.9c0.3-0.1,0.5-0.3,0.6-0.7c0-0.3-0.1-0.4-0.4-0.4
		c-0.3,0.1-0.6,0.3-0.6,0.7C20.7,28.8,20.8,28.9,21.1,28.9L21.1,28.9z"/>
	<path class="st2" d="M55.4,54c-0.8-0.1-1.4-0.6-1.8-1.3c-0.8-1.3-0.8-2.8-0.2-4.2c0.5-1.1,1.1-1.4,2.3-1.4L55.4,54z"/>
	<path class="st0" d="M34.4,66.6c0.1,1.5,0,3-0.1,4.5c-0.1,1.5-0.3,2.8-0.4,4.2l-0.6,2.6l-0.6-0.2c-1.3-0.5-2.7-0.6-3.8,0.4
		c-1.1,1-1.3,2.3-1,3.7s1.2,2.8,2.4,3.9c-0.8,0-1.7,0-2.5,0c-0.4,0-0.5,0.1-0.5,0.5c0.1,3.3,0.2,6.5,0.3,9.8c0.1,2,0.1,3.9,0.2,5.9
		c0.3,4,0.4,8.1,1.3,12c0.1,0.5,0.3,1,0.4,1.5l-3.8,0.5c-0.1-2.3-0.1-4.6-0.2-6.8c-0.1-5.5-0.2-11-0.4-16.5
		c-0.1-2.2-0.2-4.3-0.3-6.5c0-0.4-0.1-0.6-0.6-0.7c-0.5-0.1-1-0.2-1.4-0.4c-0.6-0.3-0.6,0-0.6,0.5c0,2.3-0.1,4.7-0.2,7
		c-0.2,4.4-0.2,8.7-0.1,13.1c0,3.3,0.1,6.6,0.8,9.9h-4.5c0.1-3.9,0.3-7.7,0.5-11.6c0.1-2.3,0.1-4.6,0.2-6.8
		c0.2-4.5,0.4-9.1,0.6-13.6c0-0.2,0-0.5-0.1-0.7c1.1-0.5,1.8-1.4,2.2-2.5c0.8-2.1,0.6-4.4-0.5-6.3c-1.5-2.8-4-3-6-0.5l-0.1-0.9
		l-1,1.6c-2,3.1-4.4,5.9-7.6,7.9c-0.9,0.5-1.9,1.1-2.9,1.4l-0.5-1.4c4.5-2,7.5-5.5,10-9.5c1.3-2,2.5-4.1,3.8-6.2
		c1.7-2.8,4.4-4.1,7.6-3.7c0.5,0,1,0,1.5,0c-0.8,1.4-0.6,2.5,0.7,3.4c0.4,0.3,0.9,0.6,1.4,0.8C30,67.7,32.4,67.6,34.4,66.6z"/>
	<path class="st1" d="M42.5,51.9c-0.6-1.8-0.8-3.7-1.2-5.5c-0.1-0.4-0.1-0.9-0.2-1.3c-0.3-0.1-0.4,0.1-0.6,0.2
		c-0.9,0.3-1.7,0.1-2.2-0.7c-1.3-1.9-0.6-5.1,1.3-6.3c0.3-0.2,0.4-0.3,0.4-0.7c-0.6-4.3-1.1-8.5-1.7-12.8c-0.1-0.4-0.1-0.7-0.1-1.1
		c0.1-1.2-0.3-2.4-1.1-3.3c1.4-0.1,2.5-0.6,3.7-1.1c0.1,0.4,0.4,0.9-0.3,1.2l-0.9,0.5c0.6,0.1,1.1-0.1,1.7-0.1c0,0.3,0,0.7,0,1.1
		c0,0.3-0.2,0.6-0.6,0.6c-0.4,0-0.6-0.1-0.9,0.1l1.5,0.5c0,0.3,0,0.7,0.1,1c0.1,0.6-0.1,0.8-0.7,0.7c-0.3,0-0.6-0.2-1-0.1l1.6,0.8
		c0,0.6,0.3,1.2-0.2,1.8c-0.1,0.1,0,0.2,0.1,0.3c0.4,0.7,0.7,1.5,0.1,2.3c0,0,0,0.1,0,0.2c0.5,2.3,0.6,4.6,0.7,7
		c0,0.9,0.2,1.8,0,2.6c-0.1,0.8,0.2,1.9,0.1,2.9C41.9,45.6,42.4,48.7,42.5,51.9z"/>
	<path class="st2" d="M50.1,8.5c0.9,0.7,1.8,1.2,3.1,1.3c-1.3,2-0.8,4.3-1.1,6.5c-0.5,4.1-0.9,8.3-1.3,12.5c0,0.2-0.1,0.4,0.1,0.7
		c1.6,1.2,1.8,2.9,1.8,4.7c0,0.7-0.1,1.5-0.5,2.1c-0.6,1.1-1.2,1.3-2.5,0.6c-0.3,1.9-0.5,3.8-0.9,5.7c-0.3-0.2-0.2-0.5-0.2-0.8
		c0.1-2,0.1-4,0.3-6c0.1-1.3-0.2-2.6,0.3-3.9c0.1-0.2-0.3-0.6-0.2-1.1c0.1-0.4-0.3-1.3,0.2-1.7c0.5-0.4-0.4-0.7-0.2-1.3
		c0.3-0.5-0.3-1.7,0.5-2.3c0,0,0-0.1,0-0.1c-0.5-1.2-0.4-2,0.4-2.8c-0.1-0.3-0.5,0.1-0.6-0.3c-0.1-0.4,0.2-1.6,0.7-2
		c-0.7-0.3-0.9-1.6-0.4-2.3l0.4-0.5l0-0.2h-0.2c-0.3,0-0.4,0-0.4-0.3c0-0.9-0.1-1.7,0.9-2.1c0.1,0,0.1-0.1,0.2-0.2
		c-0.4-0.2-0.7,0.2-1.1,0.1c-0.1-1.7-0.1-1.7,1.2-2.5c-0.4-0.2-0.9,0.1-1.1-0.2c-0.2-0.3-0.2-0.8-0.1-1.2c0.1-1,0.9,0.1,1.3-0.4
		C50.3,9.9,49.6,9.5,50.1,8.5z"/>
	<path class="st2" d="M34.4,66.6c-2,1-4.4,1.2-6.5,0.4c-0.5-0.2-1-0.4-1.4-0.8c-1.3-1-1.5-2.1-0.7-3.4l4.1-0.3l4.6-0.2
		C34.5,63.7,34.6,65.1,34.4,66.6z"/>
	<path class="st1" d="M46.6,66.2c-0.2,0.4-0.6,0.2-0.9,0.2c-2.1-0.5-3.8-1.6-5-3.5c-0.5-0.8-0.8-1.8-0.6-2.8c0.3-1.6,2-2.5,3.7-2.1
		l0.8,2.8C45.2,62.7,45.8,64.5,46.6,66.2z"/>
	<path class="st2" d="M47.5,51c2,0,3.1,1.1,3.1,3.2c0,3-2.5,5.8-5.5,6.2C46.1,57.3,46.8,54.2,47.5,51z"/>
	<path class="st1" d="M34.2,54.4c1.7-0.3,2.9,1,3.1,2.5c0.2,1.8-1,3.5-2.8,3.8L34.2,54.4z"/>
	<path class="st4" d="M41.2,20.8c-0.5,0-1,0.2-1.7,0.1l0.9-0.5C40.7,20.7,41.2,20.2,41.2,20.8z"/>
	<path class="st4" d="M41.1,25.5l-1.6-0.8c0.4-0.1,0.7,0.1,1,0.1C40.6,25.1,41.2,25,41.1,25.5z"/>
	<path class="st4" d="M41.1,23.1l-1.5-0.5c0.3-0.1,0.6-0.1,0.9-0.1S41.2,22.6,41.1,23.1z"/>
	<path class="st0" d="M48.6,89.2h2.7C51,95.1,50.8,101,51,106.8c0.1,3.4,0.1,6.7,0.8,10.1h-4.1c0.2-5.2,0.4-10.3,0.6-15.5
		c0.1-2.5,0.1-5,0.2-7.4C48.5,92.4,48.6,90.8,48.6,89.2z"/>
	<path class="st1" d="M56.5,89.2c-0.7-1.5-0.3-2.9,0.6-4.2c1.8-2.2,4.1-3.4,7-3.1c2.4,0.2,3.6,2.3,2.7,4.5c-0.4,1.1-1.3,2-2.2,2.7
		c-0.4,0.3-0.8,0.4-1.3,0.4c-2,0-3.9,0-5.9,0C57.1,89.6,56.8,89.5,56.5,89.2z"/>
	<path class="st0" d="M53.2,89.2h2c0.1,6.3,0.3,12.6,0.8,18.9c0.2,2.5,0.4,5,1,7.4l-3.2,0.5c0-0.6,0-1.2,0-1.7
		c-0.1-4.5-0.1-9.1-0.2-13.6C53.4,96.9,53.3,93.1,53.2,89.2z"/>
	<path class="st1" d="M77,86.8c-1.8-0.7-2.8-2.1-3-4c-0.2-2.2,0.6-4,2.4-5.3c1.5-1,3.9-1.3,5.7,0.8c0,2.7-1.2,5-3,6.9
		C78.5,85.9,77.9,86.6,77,86.8z"/>
	<path class="st1" d="M73.1,116.7h5.5c0.2,1,0.2,1-0.9,1h-3.9C72.8,117.7,72.8,117.7,73.1,116.7z"/>
	<path class="st1" d="M65,116.7c1.6,0,3.1,0.3,4.7,0.3c0.2,0.8-0.1,1.1-0.9,1s-1.9-0.1-2.9-0.2S64.7,118,65,116.7z"/>
	<path class="st2" d="M53.8,116l3.2-0.5c0.6,1.6,0.6,1.6-1.1,1.6h-1.1C53.6,117.2,53.6,117.2,53.8,116z"/>
	<path class="st2" d="M47.6,116.9h4.1c0.3,1,0.3,1-0.7,1c-1.1,0-1.9,0-2.8,0.1c-0.7,0-0.9-0.1-0.7-0.8
		C47.6,117.2,47.6,117.1,47.6,116.9z"/>
	<path class="st2" d="M32.7,77.6l0.6,0.2"/>
	<path class="st2" d="M34.8,85.8l-4.6,0c-1.1-1.1-2-2.3-2.4-3.9c-0.3-1.6-0.1-2.7,1-3.7c1.1-1,2.3-1.1,4.4-0.2"/>
	<path class="st1" d="M33.3,77.9l0.6-2.6c1.9,0,3.2,0.8,4,2.5c0.9,2,0.6,3.9-0.6,5.7c-0.5,0.7-1.1,1.3-1.9,1.6
		c-0.4,0.1-0.5,0.4-0.5,0.7"/>
	<path class="st2" d="M15.1,73.5c2-2.5,4.4-2.3,6,0.5c1.1,1.9,1.3,4.2,0.5,6.3c-0.4,1.1-1.1,2-2.2,2.5
		C16.5,80.3,15.2,77.2,15.1,73.5z"/>
	<path class="st2" d="M18.2,115.5h4.5c0.2,0.3,0.2,0.7,0.3,1.2c-1.5,0-3,0.1-4.5,0C17.6,116.6,18.2,115.9,18.2,115.5z"/>
	<path class="st1" d="M32.5,116.7c1.3,0.1,2.5,0.4,3.8,0.3l0,0c0,0.1,0,0.1,0.1,0.2c0.1,1,0.1,1-0.9,1s-1.7-0.1-2.5,0
		c-0.8,0-1-0.2-0.7-0.9c0-0.1,0.1-0.3,0.1-0.4L32.5,116.7L32.5,116.7z"/>
	<path class="st2" d="M25.6,116l3.8-0.5c0.1,0.2,0.1,0.4,0.2,0.6c0.1,0.5,0,0.7-0.5,0.7c-0.8,0-1.7,0.1-2.5,0.2
		C25.7,117.2,25.5,116.8,25.6,116z"/>
	<path class="st4" d="M32.6,116.6l-0.1,0.2C32.4,116.7,32.4,116.6,32.6,116.6z"/>
	<path class="st4" d="M36.4,117.2c-0.1,0-0.1-0.1-0.1-0.2C36.4,116.9,36.5,117.1,36.4,117.2z"/>
	<path class="st2" d="M62.7,22.9c-2-0.1-3.7-1.8-3.9-3.7c0-0.2-0.2-0.5,0.1-0.5c0.3,0,0.2,0.3,0.3,0.4c0.4,2,1.6,3.1,3.6,3.4
		c0.2,0,0.4,0,0.4,0.3S62.9,22.9,62.7,22.9z"/>
	<path class="st2" d="M59.5,11.5c0,0.4-0.1,0.7-0.6,0.8c-0.4,0-0.9-0.6-1-1.3c0-0.6,0.1-0.7,0.5-0.8S59.5,10.9,59.5,11.5z"/>
	<path class="st2" d="M62.4,11c-0.1,0.4,0,0.9-0.6,0.9c-0.6,0-0.7-0.6-0.7-1.1s0-0.9,0.6-0.9S62.3,10.5,62.4,11z"/>
	<path class="st2" d="M69.1,18.3c0,0.3,0,0.6-0.4,0.6c-0.3,0-0.5-0.3-0.5-0.6s0-0.5,0.3-0.5C68.9,17.6,69,18,69.1,18.3z"/>
	<path class="st2" d="M66.6,18c0.3,0.1,0.5,0.4,0.5,0.7c0,0.2,0,0.5-0.3,0.4s-0.5-0.4-0.5-0.8C66.2,18.1,66.3,18,66.6,18z"/>
	<path class="st1" d="M50.6,82c-2.9-0.3-5.6-2-7.1-5.2c-1.3-2.7,0.2-5,3.2-5.2c3-0.2,7.4,2.7,8.3,5.8C55.8,80.1,54.2,82,50.6,82z"/>
	<path class="st1" d="M64.4,72.9c-2.1,0-3.6-0.2-5-0.8c-0.5-0.2-0.9-0.5-1.3-0.8c-0.6-0.5-0.9-1.2-0.6-2c0.4-0.8,1.1-1.2,2-1.2
		l9.2,0.4c1.2,0,1.8,1.1,1.2,2.1c-0.3,0.6-0.8,0.9-1.4,1.2C67.2,72.5,65.8,72.9,64.4,72.9z"/>
	<path class="st1" d="M25.7,32.4c-0.2,0-0.5,0-0.5-0.2c0-0.2,0.3-0.2,0.5-0.3c1.3-0.1,2.5-0.5,3.4-1.5c0.3-0.4,0.6-0.9,0.7-1.4
		c0.1-0.2,0-0.7,0.4-0.5c0.4,0.1,0.1,0.5,0,0.7c-0.5,1.8-1.9,2.6-3.6,3C26.5,32.3,26.1,32.3,25.7,32.4z"/>
	<path class="st1" d="M31.4,21.6c0,0.6-0.6,1.1-1.1,1.1c-0.5,0-0.7-0.3-0.7-0.7c0-0.4,0.7-1.2,1.2-1.1S31.4,21.2,31.4,21.6z"/>
	<path class="st1" d="M27.8,21.3c-0.1,0.5-0.3,1-0.9,1c-0.6,0-0.7-0.4-0.7-0.8c0-0.5,0.3-1,0.9-1C27.7,20.4,27.8,20.8,27.8,21.3z"/>
	<path class="st1" d="M19.3,28c0,0.3-0.2,0.6-0.5,0.6s-0.5-0.2-0.5-0.5c0-0.3,0.2-0.6,0.5-0.6C19.2,27.5,19.3,27.7,19.3,28z"/>
	<path class="st1" d="M21.1,28.9c-0.3,0-0.4-0.1-0.4-0.3c0-0.3,0.2-0.6,0.6-0.7c0.3,0,0.4,0.1,0.4,0.4
		C21.6,28.6,21.4,28.9,21.1,28.9z"/>
	<path class="st5" d="M50.2,17.2h0.2l0,0.2L50.2,17.2z"/>
</g>
</svg>
