<?xml version="1.0" encoding="utf-8"?>
<!-- Generator: Adobe Illustrator 21.0.2, SVG Export Plug-In . SVG Version: 6.00 Build 0)  -->
<svg version="1.1" id="Layer_1" xmlns="http://www.w3.org/2000/svg" xmlns:xlink="http://www.w3.org/1999/xlink" x="0px" y="0px"
	 viewBox="0 0 97.1 150" style="enable-background:new 0 0 97.1 150;" xml:space="preserve">
<style type="text/css">
	.st0{fill:#0C0706;}
	.st1{fill:#C3A68B;}
	.st2{fill:#BA894B;}
	.st3{fill:#C37E47;}
	.st4{fill:#BB7B49;}
</style>
<title>Artboard 1</title>
<g>
	<path class="st0" d="M54.4,149.6c-8.8,0-17.6-0.6-26.4-0.6c-3.7,0-7.3-0.7-10.8-1.9c-2.1-0.7-4.4-1-6.4-2.2
		c-3.9-2.5-7.1-5.9-9.6-9.8c-0.9-1.5-1.3-3.3-1.2-5c0.4-9.1,0-18.1,0-27.2c0-4.8,0.9-9.4,1.5-14.1s0.9-11,1.8-16.4
		c0.6-3.5,0.9-6.9,1.3-10.4c0.4-3.5,1.8-5.1,4.8-5.9c3-0.8,6.4-2.7,9.7-3.7c3.3-1,3.9-2.2,5.5-3.9c3-3.1,5.8-6.5,8.2-10.1
		c0.9-1.3,1.7-2.7,2.5-4c1-1.5,1.5-3.2,1.7-4.9c0.2-3.4,1.7-6.5,3.2-9.5c1.7-3.7,3.8-7.2,6.3-10.4c1.9-2.3,4-4.4,7.3-4.6
		c1.3-0.2,2.5-0.7,3.5-1.5C61.5,0.7,66.2,0,71.1,0c1.7,0,3.3,0.8,4.2,2.3c3.3,5.2,3.4,11.8,0.2,17c-3.9,5.9-7,12.3-10.7,18.3
		c-0.4,0.6,0,1,0.2,1.5c1.1,2.5,2.9,4.6,4.1,7.1c1.2,2.5,1.1,2,1.5,3c0.2,0.7,0.9,1,1.6,0.9h12.6c2.8,0,5.6,0.5,8.3,1.4
		c2.2,0.8,3.7,2.9,3.7,5.2c0.1,1.5,0.1,3,0,4.5c-0.6,8-0.7,16-0.1,24c0.3,5.3,0,10.6,0.3,15.9c0.4,9.1-0.3,18.3-2.1,27.2
		c-0.2,1.4-0.4,2.9-0.5,4.3c-0.3,4.7-2.9,8.3-6,11.5c-2.6,2.7-6,4.4-9.7,4.8c-4,0.7-8.1,1-12.1,1H54.4V149.6z M44.3,138.7l0.5,0.4
		H45c1.5,1.5,3.1,2.9,4.9,4.1l1.7,1.7c0.4,0.4,0.6,0.4,0.9,0c1.4-1.5,2.9-2.9,4.5-4.1c0.5-0.5,0.6-0.8,0.1-1.3
		c-2.7-2.8-5.5-5.4-8-8.4c-0.5-0.6-0.9-0.7-1.6-0.2l-5.8,4.3c-0.9,0.4-0.9,0.9-0.1,1.4l0.6,0.4c0.4,0.4,0.8,0.8,1.3,1l0.8,0.5
		L44.3,138.7z M50.7,8l-0.3,0.3l0,0L50,8.5c-1,0.5-0.7,1.4-0.3,2c0.4,0.6,0.8-0.3,1.3-0.4c0.3,0,0.6-0.2,0.7-0.5
		c0.1-0.5,0.1-1-0.1-1.5c0-0.2,0-0.5-0.1-0.6C51.4,7.4,50.9,7.7,50.7,8z M63.4,43.9h-0.2c-0.9,0.3-1.3,0.7-0.5,1.5s0.3,1,1.1,0.6
		s2-0.3,2.5-1.3s0-0.2-0.1-0.2c-0.1,0-0.8-1.4-1.4-1.8c-0.6-0.4-0.9,0.6-1.4,0.9h-0.1L63.4,43.9z M58.6,17.3c-0.4,0.6-0.6,1.1,0.4,1
		h2.6c0.5-0.4,0.7-1.1,0.4-1.7c-0.1-0.4-0.6-0.1-0.9-0.1h-0.5C60,16.8,58.9,16,58.6,17.3z M42.4,74.7c1.8,1.1,2.9,0.5,4.4-2.4
		c-2,0-3.9,0.2-5.8-0.7c-1.9-0.9-0.6,0.2-0.8,0.5c-0.2,0.2-0.2,0.6,0,0.8c0,0,0,0,0.1,0.1c0.5,0.7,1.1,1.2,1.9,1.6L42.4,74.7z
		 M93.4,122.5L89,126c-0.4,0.3-0.3,0.5,0,0.8l3.1,3.3l0.4-0.2C92.7,127.4,93.4,125,93.4,122.5c0.1,0.1,0.1,0.1,0.2,0h-0.1
		L93.4,122.5z M40.2,146.4c-0.4,0.3-0.8,0.7,0.1,0.7l9.5,0.3c0.3,0,0.6,0,0.8-0.3c0.2-0.3-0.1-0.5-0.3-0.8c-0.4-0.5-0.9-1-1.5-1.3
		l-3-2.4c-0.3-0.2-0.5-0.5-0.9-0.1S41.4,144.7,40.2,146.4z M68.9,79.8c1.5-1.1,1.5-1.1,0-2l-3.4-2.7c-0.4-0.4-1-0.5-1.4-0.1
		c0,0-0.1,0.1-0.1,0.1l-7.1,6.1c-0.5,0.2-0.6,0.7-0.4,1.2c0.1,0.1,0.1,0.2,0.2,0.3c1,1.3,2.2,2.4,3.3,3.6c1.1,1.2,0.7,0.3,1.1,0
		L68.9,79.8z M26.9,119.8l-1,0.8c-1.1,0.6-0.9,1.3-0.1,2c2.4,2.5,5,4.7,7.5,7.1c0.5,0.5,0.9,0.4,1.4,0l6.4-4.9
		c0.7-0.5,0.3-0.8-0.1-1.1l-7.6-6.3c-2.4-2-2.4-1.9-4.6,0.3L26.9,119.8z M57.6,11.4c-2.1,2.1-3.1,4.8-4.9,6.8c-1.2,1.4-2.2,3-3,4.6
		c-1,2.3-2.3,4.5-3.8,6.6c-0.9,1-1.2,2.4-0.8,3.7c1.1,5.2,2.2,10.4,3.7,15.5c0.2,0.6,0.5,0.9,1.1,0.9h5c0.7,0,0.9-0.3,1.1-0.9
		c0.4-1.4,0.9-2.8,1.4-4.1c0.8-1.7,0.7-3.7-0.2-5.3c-0.3-0.6-0.6-1.2-0.8-1.9C54.3,30.1,54,23,57,16C57.6,14.5,57.8,12.9,57.6,11.4z
		 M8.2,58.8c2.1,1.1,4.5,1.6,6.8,1.3c3.2-0.3,6.4-0.5,9.6-0.5c5.7-0.1,11.3-0.1,17-0.5c0.5,0,1,0,1-0.8s-0.1-3.7-0.1-5.6
		c0-1.9-0.3-1-1.1-1c-6.4-0.1-12.8,0.6-19,2c-3.3,0.7-6.2,2.5-9.3,3.5L8.2,58.8z M70.4,110.6l0.8-0.6l8.6-7.3l8.6-6.8
		c0.7-0.5,0.7-0.9,0-1.4c-1.2-0.8-2.4-1.8-3.4-2.9c-0.5-0.5-0.8-0.6-1.3-0.1l-4.2,3.7c-4.2,3.5-8.6,6.8-12.6,10.4
		c-0.6,0.5-0.8,0.9-0.1,1.5l3,3L70.4,110.6z M79.5,71.9l-0.7,0.6l-5.1,5.4c-0.6,0.6-0.4,0.8,0.1,1.3l9.9,8.5c0.7,0.6,1,0.5,1.6,0
		l5.9-5.2c0.6-0.5,0.5-0.7-0.1-1.1l-10.7-8.9L79.5,71.9z M75.9,83.4l-0.6-0.7l-2.8-2.2c-0.6-0.5-1-0.4-1.5,0.1l-4.6,3.8
		c-3.7,3.1-7.5,6.1-11.1,9.4c-0.5,0.5-0.6,0.8-0.1,1.3l2.8,3c0.5,0.5,0.8,0.6,1.3,0.1l3.7-3.3l12.1-10.8L75.9,83.4z M63.3,73.1
		l-0.7-0.4l-3-2.5c-0.5-0.5-0.9-0.5-1.4,0l-4,3.8l-10.6,9.4c-0.6,0.5-0.7,0.9,0,1.4l3.2,2.6c0.6,0.5,0.9,0.5,1.4-0.1
		c4.4-4.8,9.1-9.3,14.2-13.4L63.3,73.1z M46.1,89.5L45.7,89l-9-7.4c-0.3-0.3-0.6-0.2-0.9,0l-5.5,4.7c-0.3,0.3-0.6,0.5-0.1,1
		c2.9,2.7,5.7,5.5,8.7,8.1c0.4,0.4,0.7,0.4,1.2-0.1l5.4-5.3L46.1,89.5z M62.8,29.1c2.5-4,4.6-8.2,7.2-12.1c1.4-2.3,1.9-5,1.3-7.6
		c-0.1-1.9-1.8-3.4-3.7-3.3c0,0,0,0,0,0c-2,0-4,0.3-5.9,0.8c1.9,2.2,2.8,5.1,2.5,8c-0.4,4-0.4,8-1.4,11.9
		C62.6,27.5,62.6,28.3,62.8,29.1z M53.1,95.8l-0.4,0.3l-5.8,4.9c-0.5,0.4-0.2,0.6,0.1,0.9c3.6,2.6,6.9,5.4,10.1,8.4
		c0.5,0.5,0.8,0.4,1.3,0s2.6-2.4,4-3.4s0.7-1,0.1-1.7c-2.9-3-6.1-5.7-8.8-8.9L53.1,95.8z M23.9,81.8l0.6-0.5l4.7-4.5
		c0.7-0.6,0.5-0.9-0.1-1.3C26,73,22.8,70.7,20,68c-0.5-0.5-0.9-0.4-1.4,0s-2.7,2.5-4.1,3.6c-1.4,1.1-0.9,1.1-0.1,1.8
		c2.9,2.7,5.9,5.3,8.9,7.9L23.9,81.8z M55.5,51.6h-5c-0.3,0-0.9-0.1-0.7,0.6c0.2,0.7,0.1,4.1,1.1,6c1,1.9,0.5,0.8,1.1,0.9
		c4.9,0.1,9.7-0.9,14.5-1.1c0.4,0,0.6-0.2,0.5-0.6c-0.3-1.6-0.9-3.1-1.7-4.5c-0.2-0.4-0.5-0.6-0.9-0.6
		C61.4,52.2,58.4,51.6,55.5,51.6z M26.4,108.5l0.5-0.5c3.4-3.5,6.9-6.9,10.6-10.2c0.4-0.4,0.5-0.6,0.1-1l-4-3.6
		c-0.4-0.4-0.7-0.3-1.1,0c-3.5,3.3-6.8,6.7-9.9,10.3c-0.4,0.4-0.4,0.7,0,1.2l3.3,3.3L26.4,108.5z M37.6,118.3
		c0.4-0.1,0.6-0.3,0.7-0.6c3.2-4,6.8-7.7,10.7-10.9c0.6-0.5,0.4-0.8-0.1-1.1c-0.5-0.3-2-1.4-2.9-2.1c-0.4-0.6-1.3-0.8-1.9-0.4
		c-0.1,0.1-0.3,0.2-0.4,0.4l-10.6,10c-0.5,0.5-0.4,0.8,0.1,1.2L37,118L37.6,118.3z M59.3,138.9l1.4-1.2c3.3-3.5,6.8-6.9,10.4-10
		c0.5-0.4,0.4-0.7,0-1.1l-2.4-2.5c-0.4-0.5-0.7-0.5-1.3-0.1c-4.2,3-8,6.6-12.1,9.8c-0.4,0.3-0.6,0.6-0.1,1.1l3.4,3.4L59.3,138.9z
		 M15.8,101.4l-0.3,0.4c-1.3,1.4-2.5,2.9-3.7,4.4c-1.2,1.5-0.3,0.8,0.1,1.3l6.6,7.3c0.6,0.7,1,0.6,1.6,0c0.6-0.6,2.7-2.8,4.1-4.1
		c1.4-1.3,0.6-1,0-1.6c-2.4-2.6-5.1-4.9-7.6-7.4C16.4,101.5,16.1,101.4,15.8,101.4z M82.8,89.6l-0.3-0.4L78,85
		c-0.2-0.3-0.6-0.4-0.8-0.2c-0.1,0-0.1,0.1-0.2,0.2l-8.3,7.3c-0.4,0.4-0.5,0.6,0,1l3.9,3.9c0.2,0.4,0.7,0.5,1.1,0.3
		c0.1,0,0.1-0.1,0.2-0.2c3-2.2,5.8-4.7,8.5-7.2L82.8,89.6z M94.9,103l-2,1.4c-4.6,3.2-8.8,7-13.2,10.5c-0.7,0.6-2,1.1-2.1,1.8
		c-0.1,0.7,1.3,1.3,1.8,2c0.5,0.7,1.5,1,2.5,0.1c3.9-3.4,8.1-6.5,12.5-9.3c0.4-0.2,0.6-0.5,0.6-0.9c-0.1-1.9-0.1-3.6-0.1-5.7V103z
		 M72.1,52.2c0.9,1.7,1.8,3.1,2.5,4.6c0.2,0.6,0.8,0.9,1.4,0.9c4.7,0.2,9.4-0.3,14-1.4c1.1-0.1,2.3-0.5,3.3-1c0.7-0.5,0.7-0.9,0-1.3
		c-0.9-0.6-1.9-0.9-3-1.1C84.3,51.7,78.4,52.5,72.1,52.2z M4,84.9c-0.1,0.8-0.1,1.5-0.2,2.3s0.7,1,1.2,1.5c0.5,0.5,0.7-0.1,1-0.3
		L16.3,79c0.6-0.5,0.4-0.8-0.1-1.2l-3.5-3.2c-0.5-0.5-0.8-0.4-1.3,0.1c-1.4,1.5-3,2.9-4.6,4.2C4.7,80.3,3.6,82.2,4,84.9z
		 M71.4,147.8c1.3,0.3,2.2-0.6,3.1-1.4l8.1-7.6c0.5-0.4,0.5-0.7,0.1-1.2c-0.8-1-1.7-1.9-2.7-2.7c-0.5-0.4-0.8-0.5-1.3,0l-11,10.1
		c-0.2,0.2-0.6,0.5-0.2,0.8C67.9,146.1,69.5,148.1,71.4,147.8z M94.8,57.2c-0.5,0.1-0.6,0.4-0.8,0.6c-1.7,2.2-3.6,4.3-5.7,6.1
		c-2.3,1.8-4.5,3.7-6.6,5.8c-0.6,0.6-0.6,0.9,0.1,1.4c0.7,0.5,2.3,1.8,3.3,2.8s1.1,0.5,1.7-0.2c2.1-2.5,4.3-4.9,6.3-7.6
		C95.1,63.4,94.5,60.3,94.8,57.2z M61.6,60.4l-3.5,0.4c-0.9,0.8-1.6,1.8-2.1,2.9l0.3,0.4c2.4,2.7,5,5.3,7.9,7.5c0.4,0.3,0.6,0.4,1,0
		c1.5-1.4,2.7-3,3.6-4.8c0.3-1.1,0-2.2-0.8-3l-3.4-2.3C63.8,60.7,62.7,60.3,61.6,60.4z M61.7,117.6c-1.3-1.1-2.4-2.2-3.5-3.5
		c-0.5-0.5-0.8-0.4-1.2,0c-3.4,3.2-7,6.2-10.7,9.1c-1.5,1.2-1.5,1.2,0,2.6l1.6,1.6c0.5,0.6,0.9,0.5,1.4,0.1l4.5-3.6L61.7,117.6z
		 M79.4,120.9l-0.9-0.6l-7.6-6.6c-0.5-0.5-0.9-0.3-1.3,0l-4.2,3.3c-0.7,0.5-0.7,0.9-0.1,1.4l7.3,6.9c0.4,0.3,0.6,0.3,1,0l5-4.1
		L79.4,120.9z M23.4,122.8l-0.7,0.6l-8.1,7.6c-1.6,1.5-1.6,1.5-0.3,3.1l1,1.3c1.3,1.6,1.3,1.6,2.8,0.2L27,128
		c0.5-0.5,0.8-0.8,0.1-1.3c-1.2-1-2.3-2.1-3.3-3.3L23.4,122.8z M92.3,132.8c0-0.2-0.1-0.4-0.3-0.6l-4.5-4.2
		c-0.2-0.2-0.6-0.3-0.8-0.1c0,0,0,0-0.1,0.1l-5.2,4.5c-0.2,0.2-0.6,0.4-0.2,0.8c2.6,2,4.4,4.9,6.9,6.9c0.4,0.3,0.6,0.3,0.8-0.1
		c1.8-2,3-4.6,3.3-7.3L92.3,132.8z M37.4,135.8l-0.3-0.2c-1-0.6-1.9-1.4-2.7-2.3c-0.2-0.3-0.6-0.4-1-0.2c-0.1,0.1-0.2,0.1-0.2,0.2
		l-9.8,8.4l-0.8,1c-0.2,0.2-0.3,0.6-0.1,0.8c0,0,0,0,0.1,0.1l2,2.7c0.2,0.5,0.7,0.7,1.2,0.5c0.2-0.1,0.3-0.2,0.4-0.4
		c3.2-3.7,6.8-7,10.8-9.8c0.2-0.2,0.4-0.5,0.3-0.8L37.4,135.8z M84.4,108.5l0.5-0.3c3-2.5,6.2-4.9,9.5-7.2c0.8-0.6,0.6-1.1,0-1.7
		l-1.9-1.5c-1.6-1.3-1.6-1.3-3.3,0l-7.5,5.8c-0.7,0.5-1,0.9-0.2,1.7s1.7,1.8,2.5,2.7L84.4,108.5z M11.5,134.1l-0.4,0.3
		c-1.4,1.2-2.6,2.6-3.6,4.1c-0.4,0.6,0,0.8,0.3,1.2c2,2.3,4.6,3.9,7.5,4.7c1.4,0.4,2.5,0.4,3.5-0.8c1-1.2,0.7-0.7,0.2-1.4
		c-2.2-2.6-4.7-4.9-6.8-7.7C12,134.4,11.9,134.1,11.5,134.1z M35.3,61.5c-2.9-0.1-5.6,0-8.3,0.1c-0.3,0-0.6,0.1-0.9,0.3l-4.6,3.7
		c-0.5,0.4-0.5,0.7,0,1.1l3.4,2.9c0.4,0.5,1.1,0.5,1.5,0.2c0.1,0,0.1-0.1,0.2-0.2l7.4-6.7C34.5,62.6,35,62.1,35.3,61.5z M64.9,104.9
		l0.5-0.4l5.8-5c0.5-0.4,0.4-0.6,0-1l-3.8-3.8c-0.5-0.5-0.9-0.5-1.5,0c-0.6,0.5-3.5,3.4-5.4,4.9c-0.4,0.3-0.5,0.6-0.1,1l3.9,3.9
		L64.9,104.9z M17.9,116.9l-0.4-0.5l-2.6-2.9c-0.4-0.5-0.7-0.3-1,0.1c-2.5,2.8-5.3,5.4-8.1,8c-0.4,0.4-0.5,0.6-0.1,1l2,2.5
		c0.4,0.5,0.7,0.4,1.1,0l8.4-7.6L17.9,116.9z M29.9,50.1c4-0.2,7.7-0.8,11.4-0.5c0.7,0.1,0.7-0.4,0.6-0.9c-0.7-2.2-1.3-4.5-2.1-6.7
		c-0.8-2.2-0.8-2.1-2.3-0.4c-1.5,1.7-4.9,5.6-7.7,8.5H29.9z M26.7,86.9c-0.4-0.6-0.9-1.1-1.5-1.6c-0.7-0.7-1.2-0.9-2.1,0
		c-2.6,2.7-5.3,5.3-8,7.9c-2.7,2.6-2.5,2.4,0.1,4.6c0.6,0.5,0.8,0.3,1.2-0.1c3-3.6,6.3-7,9.7-10.2L26.7,86.9z M49.8,117.6l-0.4-0.4
		l-3.8-3.9c-0.5-0.5-0.7-0.1-1,0.2c-1.7,1.8-3.4,3.7-5,5.7c-0.3,0.4-0.4,0.6,0.1,1l3.2,2.6c0.3,0.2,0.5,0.4,0.9,0.1l5.7-4.7
		L49.8,117.6z M85.5,126.4l-0.3-0.4l-4.2-3.6c-0.4-0.4-0.7-0.1-1,0.1l-5,4.1c-0.6,0.5-0.6,0.8-0.1,1.3c0.5,0.5,2.7,2.2,4,3.4
		c1.3,1.2,0.6,0.1,0.9-0.1l5.3-4.6L85.5,126.4z M94.7,88.3c-0.1-1.5-0.2-2.7-0.2-3.9c0-0.5-0.3-1-0.7-1.2c-0.5-0.3-0.8,0.2-1.1,0.5
		l-6.3,5.4c-0.5,0.4-0.5,0.6-0.1,1.1c1.2,1.2,2.5,2.3,3.9,3.3c0.2,0.2,0.5,0.5,0.8,0.2c0.3-0.3,4.4-2.6,3.8-5.4L94.7,88.3z
		 M77.7,133l-0.3-0.3c-1.5-1.1-2.8-2.3-4.1-3.6c-0.3-0.4-0.6-0.2-0.9,0l-4.8,4.4c-0.3,0.3-0.4,0.5,0,0.8l3.9,3.5
		c0.5,0.5,0.8,0.4,1.3-0.1l4.6-4.2C77.5,133.4,77.7,133.3,77.7,133z M17.2,88.3l-0.3-0.4l-2.8-3c-0.5-0.6-1-0.6-1.6,0l-5,4.7
		C7,90,7,90.2,7.5,90.7l3.6,3.1c0.5,0.5,0.7,0.2,1-0.1l4.6-4.7C16.9,88.8,17.2,88.7,17.2,88.3z M2.4,97.8c-0.2,0.6,0.1,1.3,0.7,1.6
		c0,0,0.1,0,0.1,0c0.7,0.3,1.3,0.7,1.9,1.2c0.6,0.4,0.9,0.4,1.3-0.2c0.4-0.6,2.1-2.8,3.3-4.1c1.2-1.3,0.4-1-0.2-1.4l-5.2-4.5
		c-0.5-0.4-0.8-0.5-0.9,0.3C2.9,93.1,2.5,95.4,2.4,97.8z M82.8,109.8l-0.3-0.4l-2.9-3.2c-0.4-0.5-0.7-0.2-0.9,0.1l-6.1,5.2
		c-0.4,0.3-0.6,0.5-0.1,1l2.8,2.5c0.3,0.4,0.8,0.4,1.1,0.2c0,0,0.1,0,0.1-0.1l5.8-4.6L82.8,109.8z M39.2,134.8l0.8-0.5l6.5-4.7
		c0.6-0.4,0.4-0.7,0-1s-1.6-1.4-2.3-2.2s-1.1-0.5-1.7,0l-5.5,4.3c-1.5,1.1-1.5,1.1-0.1,2.4L39.2,134.8z M47.9,90.8
		c-0.4,0-0.6,0.3-0.8,0.5l-3.7,3.5c-0.8,0.8-2.1,1.5-2,2.4c0.1,0.9,1.4,1.3,2.2,1.9l0.8,0.6c0.2,0.3,0.6,0.4,0.8,0.2
		c0.1,0,0.1-0.1,0.2-0.2c1.9-1.7,4-3.2,5.9-4.9c1.9-1.7,0.5-0.7,0-1.1L48.4,91L47.9,90.8z M31.2,112.9l0.5-0.4
		c1.3-1.2,2.6-2.4,3.9-3.7c1.3-1.3,2.4-1.5,2.2-2.5s-1.4-1.8-2.2-2.7s-0.9-0.6-1.4-0.1l-4.5,4.5c-2,2-2,2,0.1,3.8l0.9,0.8
		L31.2,112.9z M59,88l-0.3-0.5c-1.3-1.2-2.5-2.6-3.6-4c-0.4-0.5-0.6,0-0.8,0.2l-3,3.1c-0.7,0.7-1.9,1.5-1.9,2.3s1.3,1.4,2,2.1
		l1.2,1.1c0.5,0.5,0.8,0.6,1.4,0l4.6-4.1L59,88z M65.8,135.3l-0.4,0.3L61,140c-0.4,0.4-0.1,0.6,0.1,0.8c1.1,1.2,2.4,2.4,3.8,3.3
		c0.3,0.3,0.7,0.3,1,0c0,0,0.1-0.1,0.1-0.1l4.1-3.9c0.4-0.3,0.5-0.6,0-1l-3.7-3.3L65.8,135.3z M82.2,120.9l4.5,3.8
		c0.3,0.3,0.5,0.4,1,0.1c0.5-0.3,3-2.3,4.3-3.6c1.3-1.3,0.3-0.6,0-0.9l-3.6-3.4c-0.2-0.3-0.7-0.4-1-0.1c0,0-0.1,0.1-0.1,0.1
		L82.2,120.9z M63.4,116.2l0.3-0.2l4.8-3.8c0.5-0.4,0.2-0.6-0.1-0.9l-3.2-3.3c-0.4-0.4-0.7-0.5-1.2-0.1l-4.3,3.8
		c-0.4,0.3-0.4,0.6-0.1,0.9c1,1.1,2,2.2,3.1,3.2c0.2,0.2,0.4,0.5,0.7,0.5L63.4,116.2z M37.4,68.8L37,68.3L34.8,66
		c-0.5-0.6-0.8-0.5-1.3,0l-5.7,5c-0.5,0.4-0.6,0.7,0,1.1l2.8,2.1c0.3,0.4,0.9,0.4,1.3,0c0,0,0.1-0.1,0.1-0.1l4.8-4.7L37.4,68.8z
		 M20.7,103l0.5-0.8c1.1-1.3,2.4-2.6,3.4-3.9c1-1.3,2.1-1.2,1.7-2.5c-0.5-1-1.2-1.8-2.2-2.4H24c-0.4-0.5-0.7-0.4-1.1,0.1L19,97.7
		c-1.9,2.1-1.9,2.1,0.3,4.1L20.7,103z M51.2,107.7l-0.5,0.3l-3.6,3.2c-0.5,0.5-0.1,0.8,0.2,1l3.7,3.7c0.5,0.5,0.8,0.4,1.1,0l3.6-3.2
		c0.4-0.4,0.5-0.7,0-1.1l-3.9-3.5L51.2,107.7z M49.5,75.4l0.8-0.6c2-1.8,4-3.7,6.1-5.5c2.1-1.8,1-1.5,0.1-2.4
		c-0.9-0.9-1.9-1.9-4-0.2c-1.3,0.9-2.1,2.2-2.5,3.7c-0.2,1.1-0.7,2.1-1.4,3c-0.2,0.3-0.7,0.5-0.4,0.9C48.6,74.7,49,75.1,49.5,75.4z
		 M59.4,127.8l-0.4-0.5l-2.2-2.5c-0.4-0.6-0.7-0.5-1.2-0.1l-2.7,2.1c-3.3,2.6-3.3,2.7-0.2,5.6c0.4,0.4,0.7,0.4,1,0l5.1-4.2
		L59.4,127.8z M23.5,120l0.8-0.6c1-1,2.1-1.9,3-2.9c0.9-1,2.4-1.3,2.1-2.4c-0.3-1.1-1.6-1.5-2.5-2.3c-0.9-0.8-0.7-0.4-1.2,0
		s-2.4,2.3-3.5,3.5c-1.1,1.2-1.5,1.6,0,3.3L23.5,120z M18,66.3l-0.4-0.5l-3.1-2.7c-0.4-0.3-0.6,0-0.8,0.2l-2.3,2.3
		c-0.8,0.9-2.5,1.6-2.3,2.5c0.2,0.9,1.7,1.7,2.5,2.6c0.8,0.9,0.8,0.4,1.3,0l4.5-4L18,66.3z M57.8,147.5L57.8,147.5l3.3,0.2
		c1.3,0.1,1.8-1.1,2.7-1.7c0.9-0.6,0-0.4-0.2-0.5c-1.5-1-2.9-2.2-4.1-3.6c-0.2-0.2-0.4-0.2-0.6,0c-1.8,1.6-3.7,2.9-5.2,4.8
		c-1.5,1.9-0.3,0.7,0.4,0.7L57.8,147.5z M28.3,85.6l0.6-0.5l4-3.4c1.8-1.6,1.8-1.6,0-3.2l-0.8-0.7c-0.5-0.6-0.9-0.4-1.3,0.1
		c-0.4,0.5-2.8,2.8-4.3,4.1c-1.5,1.3-1,1.4,0.1,2.1C27.2,84.6,27.8,85.1,28.3,85.6z M90.7,58.4c-3.5,0.4-6.9,1.7-10.4,1.5l-0.4,0.2
		c-0.3,0.3-0.4,0.5,0,0.8c1.3,1,2.5,2.2,3.4,3.5c0.4,0.5,0.7,0.5,1.2,0.1l4.9-4.1C90.1,59.9,90.5,59.2,90.7,58.4z M49,64
		c-1.3,1-2.6,2.1-4.1,2c-1.5-0.1-2.6,0.8-3,2.5c-0.1,0.2-0.2,0.5-0.3,0.7c-0.3,0.5-0.2,0.8,0.4,1c1.7,0.6,3.6,0.6,5.3,0.1
		c0.5-0.1,0.8-0.4,1-0.9C49,67.7,49.2,65.8,49,64z M38.9,144.7h0.3l4.1-3.3c0.5-0.4,0.1-0.7-0.2-0.9c-1.2-0.8-2.3-1.7-3.4-2.7
		c-0.2-0.3-0.6-0.4-1-0.2c0,0-0.1,0.1-0.1,0.1l-3,2.3c-0.4,0.3-0.5,0.5-0.1,0.9l2.9,3.4L38.9,144.7z M20.7,141.7l0.5-0.4
		c1.3-1.8,3.2-2.7,4.7-4.3c1.5-1.6,0.8-0.5,0.3-1l-2-2.2c-0.2-0.2-0.4-0.4-0.7-0.1l-4.8,4.2c-0.3,0.3-0.6,0.6-0.2,1l2,2.3
		c0.1,0.1,0.2,0.3,0.2,0.4V141.7z M66.2,122.5l-2.6-3c-0.2-0.3-0.5-0.4-0.8-0.3c-0.1,0-0.1,0.1-0.2,0.2l-4.1,3.1
		c-0.5,0.4-0.6,0.8-0.2,1.3l2.1,2.4c0.3,0.4,0.6,0.4,1,0.1L66.2,122.5z M2.2,113l2.4-2.1l2.1-2c2.1-2.2,2.1-2.2-0.1-4.3l-0.2-0.2
		c-0.3-0.4-0.6-0.4-1,0c-0.9,1.1-1.9,2.2-3,3.1c-0.2,0.2-0.3,0.4-0.3,0.7C2.1,109.7,2.2,111.2,2.2,113z M90.5,72.4L88,75.1
		c-0.5,0.4-0.4,0.7,0,1.1c1.5,1.4,3.2,2.7,4.9,3.9c0.7,0.5,1.3,0.2,1.3-0.7c0-0.9,0-2.1,0-3.2c0.1-0.4-0.1-0.7-0.4-0.9
		C92.7,74.4,91.6,73.4,90.5,72.4z M10.4,132.3c-0.6-1.1-1.4-2.1-2.2-3.1c-0.2-0.1-0.3,0-0.4,0.2c-1,0.9-1.9,1.8-2.8,2.7
		c-1.9,2.3-1.8,2.8,0.3,4.9c0.5,0.5,0.7,0.4,1-0.1c0.9-1.5,2.1-2.9,3.5-4C10.1,132.7,10.4,132.6,10.4,132.3z M14,123l-0.5,0.5
		c-0.9,1-1.9,2-3,2.8c-1.3,1.1-1.3,1.1-0.2,2.5c0.4,0.5,0.8,1,1.1,1.5c0.4,0.7,0.7,0.5,1.1,0.1l2.9-2.7c1.8-1.9,1.9-1.2,0-3.3
		L14,123z M11.7,96.6l-0.6,1.1l-2,2.3c-1.9,2.5-1.9,2.4,0.3,4.7c0.5,0.5,0.8,0.6,1.2,0l2.3-2.9c1.6-1.9,1.6-1.9-0.2-3.7
		C12.3,97.6,12,97.1,11.7,96.6z M18.3,79.7L18,79.9l-2.9,2.7c-0.3,0.3-0.1,0.5,0.1,0.7l3,3.1c0.3,0.3,0.5,0.6,0.9,0.2l3.1-3.1
		l0.2-0.3C21.2,81.9,19.8,80.7,18.3,79.7z M2.3,117.7c-0.3,0.9,0.3,1.6,1,2.5c0.7,0.9,0.6,0.6,1.1,0.1l3.5-3.4
		c0.3-0.3,0.5-0.6,0.1-1c-0.6-1-1.3-1.9-2.1-2.7c-0.2-0.2-0.5-0.7-0.8-0.3C4.8,113.3,2.1,115.3,2.3,117.7z M48,76.9
		c-0.1-0.6-1.4-1.1-1.8-0.8c-0.4,0.3-3.9,2.7-6.5,2.5c-0.8-0.1-1.3,0.7-1.6,1.3s0.5,0.7,0.8,1l1.9,1.6c0.2,0.3,0.7,0.4,1,0.1
		c0,0,0.1-0.1,0.1-0.1l5.8-5.2L48,76.9z M28.2,146.4l0.3,0.5h8.1c0.5,0,1.3-0.3,0.7-1c-1.1-1.4-2.3-2.7-3.6-3.8
		c-0.3-0.3-0.6-0.4-0.9-0.1L28.2,146.4z M2.5,132c0.9-1.1,1.9-2.2,3-3.1c1.7-1.5,1.7-1.5,0.2-3.3l-1.4-1.7c-0.5-0.9-1.2-1.7-2-2.3
		C2.1,125.1,2.2,128.6,2.5,132z M81.8,146.1c1.3-0.5,2.4-1.2,3.5-2c2.3-1.9,2.2-2.4-0.1-4.1c-0.4-0.3-0.7-0.3-1.1,0l-3.5,3.3
		c-0.3,0.3-1.1,0.5-0.6,1.1C80.4,145.2,81.1,145.8,81.8,146.1z M40.3,61.1c-0.6,0.1-1.5-0.2-2.1,0.5l-2,1.9c-0.5,0.4-0.4,0.7,0,1.1
		l2.1,2.2c0.4,0.4,0.7,0.6,1.1,0c1-1.1,1.8-2.4,2.4-3.8C42.4,61.1,42.5,61.1,40.3,61.1z M69.7,69.1c-0.9,1.3-1.9,2.5-3,3.6
		c-0.4,0.4-0.4,0.7,0.1,1l2.9,2.1c2.2,1.6,2.2,1.6,3.9-0.5c0,0,0-0.1,0-0.2C70.9,74.1,70.4,71.7,69.7,69.1z M94.9,111.3
		c-1.7,1.1-3.3,2.2-4.9,3.5c-0.4,0.3-0.6,0.5-0.1,1l3.4,3.1c0.6,0.5,1,0.4,1.1-0.4C94.7,116.2,94.7,113.9,94.9,111.3z M77.9,62
		c-0.4,0.3-1.1,0.3-0.9,1.1c0.4,1.5,0.6,3,0.6,4.5c0,0.8,0.8,1,1.4,1.4s0.7-0.3,1-0.5c2.6-2.4,2.6-2.4,0.2-5L79,62.4L77.9,62z
		 M32.2,131.4c-0.8-1-1.9-1.9-3-2.6l-0.4,0.3l-2.9,2.5c-0.2,0.2-0.6,0.4-0.3,0.7l2.3,2.5c0.2,0.2,0.5,0,0.7-0.2l3.4-2.8L32.2,131.4z
		 M39.3,105.1l0.8-0.7l1.4-1.3c1.9-1.7,1.9-1.7-0.1-3.2c-2-1.5-1.8-1.4-3.5,0.1c-1.7,1.5-1.5,1.4-0.2,2.8l1.4,1.6
		C39.2,104.6,39.3,104.9,39.3,105.1z M13.1,111.6l-1-1.2c-2-2.3-1.9-2.2-4-0.2c-2.1,2-1.3,1.5-0.1,2.4c1.2,0.9,1,2.3,2,2.1
		s1.5-1.4,2.2-2.2L13.1,111.6z M31.7,91.6l-1.1-1.2c-2.2-2.2-2.2-2.2-4.5-0.1s-1.3,1.2,0,2.2c1.3,1,1.1,2.3,2.3,1.9
		c1.2-0.4,1.6-1.4,2.4-2.2L31.7,91.6z M18.9,124.4l1.4-1.3c1.8-1.8,1.7-1.7,0.1-3.6s-1.3-1.2-2.3-0.2c-2.6,2.5-2.7,2.5,0.1,4.8
		C18.3,124.4,18.6,124.5,18.9,124.4z M12,62.3V62c-1.6-0.1-3.1-0.5-4.5-1.2c-0.7-0.4-0.7,0.2-0.7,0.6s-0.3,3.3-0.5,5
		c-0.2,1.7-0.1,0.5,0.1,0.7s0.6,0,0.8-0.2L12,62.3z M39.1,70l-5.9,5.6c-0.4,0.4-0.1,0.6,0.2,0.8l2.4,1.9c0.4,0.3,0.7,0.3,1,0
		c0.3-0.3,1-0.6,0.6-1.2c-0.4-0.6-0.2-3.4,0.7-4.9C38.6,71.6,39,70.8,39.1,70z M48.8,60.8l-0.2-1.5c0-0.2,0-0.6-0.3-0.6
		s-0.5,0.2-0.6,0.4c-0.7,0.7-1.5,1.2-2.4,1.6c-0.7,0.4-1.9,3.3-1.5,3.5c0.4,0.2,1.8-0.2,2.7-0.6l0.6-0.4c0.8-0.6,1.5-1.4,1.8-2.4
		H48.8z M41.3,33.8h-1.6c-0.5,0-0.8,0.1-0.7,0.7s0.1,3,1.2,3.6c1.1,0.6,2-0.9,2.9-1.7l0.3-0.4c0.6-0.6,0.3-1.2,0.1-1.8
		s-0.8-0.3-1.2-0.3L41.3,33.8z M41,32.5h1.4c0.4,0,0.7-0.3,0.7-0.7v0c0.3-1.3-0.3-2.6-1.6-3.1l-1.3-0.8c-0.5-0.3-0.8-0.3-0.8,0.4
		c0,0.7-0.2,1.9-0.4,2.9c-0.2,1,0.1,1.5,1.2,1.4L41,32.5z M45.2,41.5l-2.4,2.3c-0.3,0.2-0.3,0.6-0.2,0.9l0.9,3.3
		c0.1,0.3,0.1,0.6,0.6,0.4c1.3-0.6,2.1-2,1.9-3.5C45.7,43.8,45.4,42.7,45.2,41.5z M8.3,74.7h0.2c0.7-0.6,1.8-1.1,2-2
		S9.6,71.5,9.1,71l-0.6-0.5c-1.2-1.1-1.2-1.1-2.4,0.1S5.5,71.4,5.9,72l1.6,2.3C7.8,74.4,7.9,74.8,8.3,74.7z M47.8,52.8
		c-0.6,0.8-1.2,1.6-2,2.2c-1.6,1-1.3,2.4-1.3,3.8s0.3,0.7,0.7,0.4C47.9,57.6,48.9,55.9,47.8,52.8z M46.8,48c-3.1,1.2-3,3.5-2.1,6.1
		C47.3,52.3,48,50.4,46.8,48z M73.5,67.7h0.4c0.7-0.1,1.7,0.4,1.6-1c-0.1-1.4,0-1.9-1.7-1.8h-2.1c-0.2,0-0.5,0-0.6,0.3
		c-0.3,1,0.3,2.1,1.3,2.4c0.1,0,0.1,0,0.2,0L73.5,67.7z M73.6,69c-2.2,0-2.2,0-1.4,2.1l0.3,0.6c0.4,0.8,1,1.6,2,1.4s0.9-1.2,0.9-2
		s0.3-2-1.7-2L73.6,69z M61.1,34l-1.4,0.9c-1.7,0.9-1.7,0.9-1.2,2.7c0.1,0.4,0.2,0.7,0.4,1.1c0.1,0.2,0.2,0.3,0.4,0.4
		c0.7,0.2,2.6-1.5,2.5-2.2S61.3,35,61.1,34z M59.5,44c-0.5,1.6-0.9,3.1-1.3,4.7c-0.4,1.6-0.5,1,0.2,1s2.1,0.6,2.2-0.3
		S61.6,45.6,59.5,44z M64,41.1c-0.5-0.7-0.7-2.3-1.5-2.2c-1.1,0.3-2,0.9-2.6,1.8c-0.3,0.4,1.3,2.6,1.7,2.5s2.4-1.5,2.3-2.1H64z
		 M16.1,62l2.9,2.4c0.3,0.3,0.5,0.3,0.9,0l3.3-2.8C20.8,61.5,18.7,62,16.1,62z M44.1,37.3c-0.8,0.7-1.7,1.4-2.7,1.9
		c-0.3,0.2-0.6,0.4-0.4,0.8l0.8,2.3c0.1,0.4,0.4,0.3,0.7,0.1c1.8-1,2.5-3.3,1.6-5.2V37.3z M61.2,26c-1.1,0.5-2.2,0.9-3.4,1
		c-0.9,0-1.1,0.3-1,1.2c0.1,0.9,0.1,0.8,0.1,1.3S57,30,57.5,30C59.6,29.8,61.2,28.1,61.2,26z M42.9,27.8c0.7-3,0.4-3.5-2.1-5
		C39.6,26,39.8,26.5,42.9,27.8z M49.9,18.7c0.1-0.3-0.1-0.6-0.4-0.7L48,17.2c-0.4-0.2-0.9-0.7-1.1,0.1s-1.1,1.9-1,3.1H46
		c0.8,0.2,1.8,0.7,2.3,0.4c0.5-0.3,1.2-1.5,1.7-2.1L49.9,18.7z M72.4,63.7l1.9-0.2c0.4,0,0.7-0.2,0.7-0.7s-0.5-1.6-1.7-1.5h-2.4
		c-0.5,0-0.7,0.1-0.7,0.7S70.4,63.8,72.4,63.7z M60.8,30c-1,0.6-2.1,1-3.2,1.3c-0.3,0-0.6,0.4-0.5,0.7c0,0,0,0,0,0l0.4,1.7
		c0.1,0.4,0.3,0.5,0.7,0.3C60.5,33.4,61.1,32.5,60.8,30z M56.9,24.8c0,0.4-0.2,1,0.6,1c1.4-0.1,2.8-0.6,3.9-1.5
		c0.3-0.3,0.4-0.7,0.2-1.1c-0.1-0.4-0.5-0.1-0.8-0.1c-0.8,0.1-1.6,0.2-2.4,0.2C57.2,23.2,56.7,23.6,56.9,24.8z M71.6,60.2h1.2
		c1,0,1.1-0.4,0.8-1.3c-0.3-0.9-1-1.9-2.6-1.6s-1.8,0.2-1.4,2C70,61.1,70.9,60,71.6,60.2z M62.2,13.6c-0.2-0.3,0.6-1.3-0.6-1.3
		s-2.2,0.8-2.2,2.4s0.7,0.6,1.1,0.6S62.6,15.3,62.2,13.6z M68.4,52.6c0.5-0.2,1.4,0.3,1.7-0.6c0.3-0.9-1.2-2.2-1.4-2s-1.9,0.1-2,1.1
		c-0.1,1,0.3,1.7,1.7,1.4V52.6z M59.4,19.7h-1.1c-1.2,0-0.7,1-0.9,1.6c-0.2,0.6,0.4,0.7,0.8,0.7c0.9,0,1.9-0.1,2.8-0.3
		c0.9-0.2,0.9-0.8,0.9-1.5c0-0.7-0.7-0.5-1.1-0.5L59.4,19.7z M43.5,23.1l0.5-2.4c0.2-1.1-0.8-1-1.3-1.5s-0.6-0.1-0.7,0.2
		s-1.1,1.3-0.5,2C42,22.1,42.7,22.7,43.5,23.1z M70.2,56.1c0.5-0.1,1.2,0.3,1.6-0.5c0.4-0.8-1.1-2.1-1.4-2c-0.3,0.1-1.8-0.2-2.1,0.6
		C68,55,69.1,56.1,70.2,56.1z M69,22.4c-0.5,0.5-0.9,1.1-1.2,1.8c-0.3,0.5,0.3,2.3,0.8,2.4c0.5,0.1,0.7-0.8,1.1-1.2
		c0.1-0.2,0.3-0.5,0.4-0.7c0.4-0.6,0.5-1-0.2-1.5L69,22.4z M94,72.9c0.3-1.5,0.2-3-0.1-4.4l-1.8,2c-0.2,0.3-0.3,0.5,0,0.7
		C92.4,71.4,93.2,72.5,94,72.9z M61.6,10.7c0-0.6-1.3-2.4-1.6-2.3s-1.4,0.8-1.3,1.3c0.1,0.5,0.3,1.6,1.2,1.6
		C60.5,11.4,61.2,11.1,61.6,10.7z M45.2,23.6c-0.2,0.9,0.6,1,1.1,1.2c0.5,0.2,1.6-1.8,1.5-2.3s-1.1-0.7-1.6-0.8
		C45.7,21.6,45.6,23.1,45.2,23.6z M5.2,73.4l-0.3,2.4c-0.1,0.7-0.1,1.4-0.2,2.3C7.7,75.5,7.4,76.1,5.2,73.4z M49,14.5
		c-0.6-0.1-0.7,0.4-0.9,0.7s0.2,0.5,0.5,0.7l2,1.1c0.2,0.2,0.5,0.3,0.7,0.1c0.1-0.1,0.2-0.2,0.2-0.3c0.2-0.3,0.6-0.5,0.2-0.9
		C50.9,15.2,50,14.7,49,14.5z M66.1,49.4l1.7-0.6c0.2-0.1,0.4-0.3,0.3-0.6c-0.1-0.3-0.4-1.3-0.8-1.6s-1.6,0.7-2.6,0.7
		c-1,0-0.5,0-0.5,0.4S65.5,49.4,66.1,49.4z M73,8.7c-0.1,0.9,0.3,1.2,1.2,0.5l1.1-0.7c0.5-0.5,0.2-1,0.1-1.5c-0.1-0.5,0-0.5-0.3-0.6
		C74.8,6.3,73,8,73,8.7z M2.1,105.1c0.5-0.6,1-1.2,1.6-1.8c0.7-0.6,0.7-1-0.1-1.4l-0.7-0.5c-0.5-0.3-0.8-0.3-0.8,0.4
		C2.1,102.5,2.1,103.7,2.1,105.1z M44.1,18.5l0.3-0.2c0.4-0.8,0.8-1.6,1.1-2.5c0.1-0.4-0.3-0.8-0.6-1s-0.5,0.3-0.6,0.5
		c-0.4,0.6-0.8,1.3-1.1,2C42.9,18.1,43.7,18.1,44.1,18.5z M94.7,93.1l-1.9,1.6c-0.3,0.3-0.6,0.6-0.1,0.9c0.6,0.6,1.3,1.2,2.1,1.5
		L94.7,93.1z M35,37.7c-1,0.7-1.2,2-0.6,2.9c0,0,0,0.1,0.1,0.1c0.2,0.3,0.3,1,0.8,0.7s1.2-0.7,0.8-1.5L35,37.7z M74.4,15.8
		c1.3,0.1,1.1-1,1.3-1.7s0-0.6-0.5-0.6c-0.5,0-2.3,0.5-2.3,1.3C72.9,15.6,73.9,15.5,74.4,15.8z M69,2l0.7,2.3
		c0.1,0.5,0.5,0.6,0.9,0.8c0.4,0.2,0.4,0,0.5-0.3c0.3-0.9,0.2-1.9-0.2-2.7C70.4,1.6,69.7,1.9,69,2z M48,10.4
		c-0.9,0.7-1.6,1.6-2.2,2.6c-0.3,0.3,0.1,0.6,0.3,0.9c0.2,0.3,0.3,0.3,0.4,0.2c0.7-0.7,1.3-1.4,1.8-2.1C48.6,11.6,48.3,11,48,10.4z
		 M51,12.1c-0.5,0.1-0.9,0.5-1.1,0.9c-0.2,0.5,0.5,0.5,0.7,0.7l1.5,0.9c0.2,0.1,0.4,0.5,0.6,0.2c0.2-0.2,0.4-0.5,0.4-0.8
		c0.1-0.4-1.5-1.8-2.1-1.8V12.1z M54,7c-0.7-0.1-1.4-0.1-1.2,0.8s-0.3,1.3,0.8,1.3S55,8.5,55,7.7S54.3,7.1,54,7z M74.4,17.2
		c-0.9-0.2-1.9-1.4-2.6,0.4s0.4,1.2,0.9,1.3C73.2,19,73.7,17.8,74.4,17.2z M32.2,45l1.6-2c0.5-0.8-0.2-1.2-0.6-1.6s-0.7,0-0.9,0.4
		C32.1,42.2,31.8,43.6,32.2,45z M68,28l-1.1-1.4c-0.1-0.1-0.3,0-0.4,0.2c-0.3,0.4-0.5,0.9-0.7,1.3c-0.2,0.7,0.3,1.1,0.7,1.5
		s0.4,0.3,0.5,0.1L68,28z M72.4,2.2c0.3,1.2,0.2,2.5-0.3,3.7C72,6.1,72,6.3,72.2,6.5s0.4,0,0.6-0.1s1.5-0.9,1.5-1.8
		C74.1,3.5,73.4,2.6,72.4,2.2z M75.7,10c-0.7,0.2-1.4,0.6-2,1c-0.5,0.2-0.4,0.7-0.3,1.1c0.1,0.4,0.6,0.3,0.9,0.2
		C74.6,12.2,76.1,12,75.7,10z M36.8,34.9c-1.1,1.3-0.4,2.4,0,3.5c0.4,1.1,0.1,0.9,0.7,0.7s0.6-0.6,0.3-1.2
		C37.5,37.3,37.1,36,36.8,34.9z M63.6,4.6l1.3-0.2c0.3-0.1,0.4-0.2,0.3-0.5c-0.5-1-1.7-1.3-2.7-0.9c-0.2,0.1-0.5,0.2-0.3,0.4
		S62.9,4.7,63.6,4.6z M65.2,32.9c1.2-1.5,1.2-1.5,0.1-2.6c-1.1-1.1-0.3-0.6-0.7-0.3c-0.3,0.2-0.4,0.5-0.3,0.8
		C64.4,31.6,64.7,32.3,65.2,32.9z M63.1,32.2c-0.3,1.2-0.1,2.5,0.5,3.6C65.3,34.3,63.5,33.3,63.1,32.2z M51,65.5
		c0.8-0.8,1.9-1,1.9-1.9s-0.8-1.2-1.6-1.5L51,65.5z M58.8,7.5l-1.4-0.3c-0.4-0.1-0.9-0.2-1,0.4s-0.5,1,0.1,1.4
		c0.6,0.4,0.9,0,1.3-0.5L58.8,7.5z M38.9,74.3c-0.1,0.6-0.5,1.1,0,1.6c0.7,0.7,1.8,0.9,2.7,0.5C40.6,75.8,39.7,75.1,38.9,74.3z
		 M65.6,2.3L66.8,4c0.3,0.4,0.9,0.5,1.3,0.3c0.6-0.2,0.1-0.7,0-1C68,3,66.8,1.9,65.6,2.3z M70.9,19.3c-0.5,0.4-0.8,1-0.8,1.6
		c0,0.6,0.4,1.4,0.9,1.3s1.1-1.1,1.2-1.8c0.1-0.7-0.8-0.6-1.3-1L70.9,19.3z M30.5,44.3c-0.3,0.9-1.7,1.1-1,2.3
		c0.7,1.2,0.3,0.7,0.8,0.3C30.8,46.5,31.3,45.4,30.5,44.3z M52.4,11.4c0.8,0.4,1.1,1.3,1.7,1.2s0.9-0.9,1.1-1.6
		C54.3,10.9,53.3,11,52.4,11.4z M61.8,5c-1.2-1.2-1.8-1.1-3.3,0.3C59.6,5.5,60.5,4.9,61.8,5z M28.2,47.2c-0.4,0.1-0.8,0.5-0.9,0.9
		c-0.1,0.5,0.5,0.8,0.9,0.9c0.4,0.1,0.8-0.3,0.9-0.7c0,0,0-0.1,0-0.1C29,47.8,28.6,47.4,28.2,47.2z M22.1,146.3
		c-1.3-2.1-1.4-2.1-2.4-0.6L22.1,146.3z M76.6,147.2l1.8-0.3c0.3-0.1,0.7,0.1,0.7-0.3s-0.3-0.5-0.5-0.7c-0.2-0.2-0.5-0.1-0.7,0.1
		L76.6,147.2z M25.1,50.8c0.7,0,1.5,0.5,1.9-0.4s-0.3-0.8-0.6-0.8C26.1,49.6,25.5,50.2,25.1,50.8z M44.7,26.8
		c0.1,0.3-0.2,0.9,0.4,0.9s0.6-0.7,0.7-1.1s-0.4-0.7-0.7-0.7s-0.2,0.5-0.3,0.8L44.7,26.8z M62.5,48.8c0.1,0.5-0.5,1.1,0.4,1.5
		s0.6,0.1,0.7-0.2s-0.5-1.1-1-1.4L62.5,48.8z M53.5,61.1c1.1,1.3,1.1,1.3,1.5,0H53.5z"/>
	<path class="st1" d="M8.2,58.8l4.8-1.7c3.1-1.1,6-2.8,9.3-3.5c6.2-1.4,12.6-2.1,19-2c0.8,0,1.1,0.2,1.1,1s0,3.8,0.1,5.6
		s-0.4,0.8-1,0.8c-5.7,0.4-11.3,0.3-17,0.5c-3.2,0.1-6.4,0.3-9.6,0.5C12.6,60.3,10.2,59.9,8.2,58.8z"/>
	<path class="st2" d="M70.4,110.6l-0.6-0.5l-3-3c-0.7-0.6-0.5-0.9,0.1-1.5c4-3.7,8.4-6.9,12.6-10.4l4.2-3.7c0.6-0.5,0.9-0.4,1.3,0.1
		c1,1.1,2.2,2.1,3.4,2.9c0.7,0.5,0.7,0.9,0,1.4l-8.6,6.8l-8.6,7.3L70.4,110.6z"/>
	<path class="st3" d="M79.5,71.9l0.8,0.6l10.8,8.7c0.5,0.4,0.6,0.7,0.1,1.1l-5.9,5.2c-0.6,0.5-0.9,0.6-1.6,0L73.8,79
		c-0.5-0.4-0.7-0.7-0.1-1.3l5.1-5.4L79.5,71.9z"/>
	<path class="st2" d="M75.9,83.4l-0.8,0.8L63,94.9l-3.7,3.3c-0.5,0.5-0.9,0.4-1.3-0.1l-2.8-3c-0.5-0.5-0.4-0.8,0.1-1.3
		c3.6-3.3,7.4-6.3,11.1-9.4l4.6-3.8c0.5-0.5,0.9-0.6,1.5-0.1l2.8,2.2L75.9,83.4z"/>
	<path class="st3" d="M28.9,117.8c2.2-2.3,2.2-2.3,4.6-0.3l7.6,6.3c0.4,0.3,0.8,0.6,0.1,1.1l-6.4,4.9c-0.5,0.4-0.9,0.5-1.4,0
		c-2.5-2.4-5.1-4.6-7.5-7.1c-0.7-0.8-1-1.4,0.1-2l1-0.8c1,0.1,1.9-0.7,1.9-1.7C28.9,118.1,28.9,118,28.9,117.8z"/>
	<path class="st2" d="M63.3,73.1l-0.9,0.8c-5.1,4.1-9.8,8.6-14.2,13.4c-0.5,0.6-0.9,0.6-1.4,0.1l-3.2-2.6c-0.7-0.5-0.6-0.9,0-1.4
		L54.2,74l4-3.8c0.5-0.5,0.8-0.5,1.4,0l3,2.5L63.3,73.1z"/>
	<path class="st3" d="M46.1,89.5l-0.7,0.7L40,95.5c-0.4,0.4-0.7,0.4-1.2,0.1c-3-2.6-5.9-5.3-8.7-8.1c-0.5-0.5-0.2-0.7,0.1-1l5.5-4.7
		c0.3-0.3,0.5-0.3,0.9,0l9,7.4L46.1,89.5z"/>
	<path class="st3" d="M53.1,95.8l0.5,0.5c2.7,3.2,5.9,5.9,8.8,8.9c0.6,0.7,0.8,1-0.1,1.7c-0.9,0.7-2.7,2.2-4,3.4s-0.8,0.5-1.3,0
		c-3.1-3-6.5-5.8-10-8.4c-0.3-0.2-0.6-0.5-0.1-0.9l5.9-4.9L53.1,95.8z"/>
	<path class="st3" d="M43.5,138.2c-0.5-0.2-0.9-0.6-1.3-1c0.1-0.7-0.5-1.2-0.5-1.9l5.8-4.3c0.7-0.5,1.1-0.4,1.6,0.2
		c2.5,3,5.3,5.6,8,8.4c0.5,0.5,0.5,0.8-0.1,1.3c-1.6,1.2-3.1,2.6-4.5,4.1c-0.3,0.4-0.6,0.4-0.9,0l-1.7-1.7c-1.2-1.8-2.9-3.3-4.9-4.1
		h-0.2c-0.1-0.2-0.3-0.4-0.5-0.4l0,0C44.2,138.5,43.9,138.2,43.5,138.2C43.5,138.2,43.5,138.2,43.5,138.2z"/>
	<path class="st3" d="M23.9,81.8l-0.6-0.5c-3-2.6-6-5.1-8.9-7.9c-0.8-0.8-0.8-1.2,0.1-1.8c0.9-0.6,2.8-2.4,4.1-3.6
		c1.3-1.2,0.8-0.5,1.4,0c2.8,2.7,6,5,9.1,7.4c0.6,0.5,0.8,0.7,0.1,1.3l-4.7,4.5L23.9,81.8z"/>
	<path class="st1" d="M55.5,51.6c3-0.1,5.9,0.6,8.9,0.6c0.4,0,0.7,0.2,0.9,0.6c0.8,1.4,1.4,2.9,1.7,4.5c0.1,0.5-0.1,0.6-0.5,0.6
		c-4.8,0.2-9.6,1.2-14.5,1.1c-0.7,0-0.8-0.3-1.1-0.9s-0.6-4-1.1-6c-0.5-2,0.3-0.6,0.7-0.6L55.5,51.6z"/>
	<path class="st2" d="M26.4,108.5l-0.5-0.4l-3.3-3.3c-0.4-0.4-0.4-0.7,0-1.2c3.1-3.6,6.4-7.1,9.9-10.3c0.4-0.4,0.6-0.4,1.1,0l4,3.6
		c0.5,0.4,0.3,0.6-0.1,1c-3.7,3.3-7.2,6.7-10.6,10.2L26.4,108.5z"/>
	<path class="st2" d="M37.6,118.3l-0.5-0.3l-3.8-3.2c-0.5-0.4-0.6-0.7-0.1-1.2l10.6-10c0.4-0.6,1.3-0.8,1.9-0.4
		c0.1,0.1,0.3,0.2,0.4,0.4c0.9,0.8,1.9,1.4,2.9,2.1c1,0.7,0.7,0.6,0.1,1.1c-3.9,3.3-7.5,6.9-10.7,10.9C38.1,118,38,118.3,37.6,118.3
		z"/>
	<path class="st2" d="M59.3,138.9l-0.7-0.6l-3.4-3.4c-0.5-0.5-0.3-0.8,0.1-1.1c4.1-3.2,7.9-6.8,12.1-9.8c0.5-0.4,0.8-0.4,1.3,0.1
		l2.4,2.5c0.4,0.4,0.5,0.7,0,1.1c-3.6,3.1-7.1,6.5-10.4,10L59.3,138.9z"/>
	<path class="st3" d="M15.8,101.4c0.3,0,0.6,0.1,0.8,0.4c2.5,2.5,5.2,4.8,7.6,7.4c0.6,0.6,0.7,1,0,1.6c-0.7,0.6-2.7,2.7-4.1,4.1
		c-1.4,1.4-1,0.7-1.6,0l-6.5-7.4c-0.4-0.4-0.6-0.7-0.1-1.3c0.5-0.6,2.3-3,3.7-4.4L15.8,101.4z"/>
	<path class="st3" d="M82.9,89.6l-0.5,0.6c-2.7,2.5-5.5,4.9-8.5,7.2c-0.3,0.3-0.8,0.4-1.1,0.1c-0.1-0.1-0.1-0.1-0.2-0.2l-3.9-3.9
		c-0.4-0.4-0.4-0.7,0-1L77,85c0.2-0.3,0.6-0.4,0.8-0.2c0.1,0,0.1,0.1,0.2,0.2l4.5,4.1L82.9,89.6z"/>
	<path class="st2" d="M94.9,102.9c0,2.1,0,3.8,0,5.5c0,0.4-0.2,0.7-0.6,0.9c-4.4,2.8-8.6,5.9-12.5,9.3c-1,0.8-1.7,0.9-2.5-0.1
		s-2-1.1-1.8-2c0.2-0.9,1.3-1.2,2.1-1.8c4.4-3.5,8.6-7.3,13.2-10.5L94.9,102.9z"/>
	<path class="st1" d="M72.1,52.2c6.2,0.3,12.2-0.5,18.1,0.7c1.1,0.2,2.1,0.5,3,1.1c0.7,0.5,0.7,0.9,0,1.3c-1,0.5-2.2,0.9-3.3,1
		c-4.5,1.1-9.2,1.6-13.9,1.4c-0.6,0-1.2-0.3-1.4-0.9C73.9,55.3,73.1,53.9,72.1,52.2z"/>
	<path class="st2" d="M4,84.9c-0.4-2.7,0.7-4.5,2.9-6.1c1.6-1.3,3.2-2.7,4.6-4.2c0.5-0.5,0.8-0.6,1.3-0.1l3.5,3.2
		c0.5,0.4,0.6,0.7,0.1,1.2L6,88.3c-0.3,0.2-0.5,0.7-1,0.3S3.7,88,3.8,87.1C3.9,86.2,3.9,85.6,4,84.9z"/>
	<path class="st2" d="M71.4,147.8c-1.9,0.3-2.8-1-3.9-1.9c-1.1-0.9,0-0.6,0.2-0.8l11.1-10.2c0.5-0.5,0.8-0.4,1.3,0
		c1,0.8,1.9,1.7,2.7,2.7c0.4,0.5,0.4,0.8-0.1,1.2l-8.1,7.6C73.7,147.2,72.7,148.1,71.4,147.8z"/>
	<path class="st2" d="M94.8,57.2c-0.3,3,0.3,6-1.8,8.9c-2.1,2.9-4.2,5.1-6.3,7.6c-0.5,0.7-1,0.8-1.7,0.2c-0.7-0.6-2.2-1.9-3.3-2.8
		c-1.1-0.9-0.7-0.8-0.1-1.4c2.1-2.1,4.3-4,6.6-5.8c2.1-1.8,4.1-3.9,5.8-6.1C94.1,57.6,94.3,57.3,94.8,57.2z"/>
	<path class="st3" d="M61.6,60.4c1.1-0.1,2.2,0.3,3,1l3.4,2.3c0.8,0.8,1.1,1.9,0.8,3c-0.9,1.8-2.1,3.4-3.6,4.8c-0.4,0.4-0.6,0.2-1,0
		c-2.9-2.2-5.5-4.8-7.9-7.5L56,63.6c0.5-1.1,1.2-2.1,2.1-2.9L61.6,60.4z"/>
	<path class="st2" d="M61.7,117.6l-7.9,6.2l-4.5,3.6c-0.5,0.4-0.9,0.5-1.4-0.1l-1.6-1.6c-1.4-1.4-1.5-1.4,0-2.6
		c3.7-2.9,7.3-5.9,10.7-9.1c0.5-0.4,0.8-0.5,1.2,0C59.3,115.3,60.4,116.5,61.7,117.6z"/>
	<path class="st3" d="M79.4,120.9l-0.8,0.5l-5,4.1c-0.4,0.3-0.6,0.3-1,0l-7.3-6.9c-0.6-0.6-0.6-0.9,0.1-1.4l4.2-3.3
		c0.4-0.4,0.8-0.5,1.3,0l7.6,6.6L79.4,120.9z"/>
	<path class="st2" d="M23.4,122.8l0.5,0.5c1,1.2,2.1,2.3,3.3,3.3c0.7,0.6,0.5,0.9-0.1,1.3l-8.9,7.6c-1.5,1.3-1.5,1.4-2.8-0.2l-1-1.3
		c-1.3-1.6-1.3-1.6,0.3-3.1l8.1-7.6L23.4,122.8z"/>
	<path class="st3" d="M68.9,79.8l-7.7,6.5c-0.4,0.3-0.7,0.5-1.1,0c-0.4-0.5-2.3-2.3-3.3-3.6c-0.4-0.3-0.4-0.9-0.1-1.3
		c0.1-0.1,0.2-0.2,0.3-0.2l7.1-6.1c0.4-0.4,1-0.5,1.4-0.1c0,0,0.1,0.1,0.1,0.1l3.4,2.7L68.9,79.8z"/>
	<path class="st3" d="M92.2,132.8c-0.3,2.7-1.4,5.3-3.2,7.4c-0.3,0.3-0.5,0.3-0.8,0.1c-2.6-2-4.3-4.9-6.9-6.9
		c-0.5-0.3-0.1-0.6,0.2-0.8l5.2-4.5c0.2-0.2,0.6-0.3,0.8-0.1c0,0,0,0,0.1,0.1l4.4,4.2C92.1,132.5,92.2,132.7,92.2,132.8z"/>
	<path class="st2" d="M37.3,135.8c0,0.3-0.2,0.6-0.5,0.7c-4,2.8-7.6,6.1-10.8,9.8c-0.3,0.4-0.8,0.6-1.2,0.3
		c-0.2-0.1-0.3-0.2-0.4-0.4l-2-2.7c-0.2-0.2-0.3-0.6-0.1-0.8c0,0,0,0,0.1-0.1l0.8-1l9.8-8.4c0.2-0.3,0.6-0.4,1-0.2
		c0.1,0.1,0.2,0.1,0.2,0.2c0.8,0.9,1.7,1.7,2.7,2.3L37.3,135.8z"/>
	<path class="st3" d="M84.3,108.5l-0.5-0.4c-0.8-0.9-1.6-1.9-2.5-2.7c-0.9-0.8-0.5-1.1,0.2-1.7l7.5-5.8c1.7-1.3,1.7-1.3,3.3,0
		l1.9,1.5c0.6,0.5,0.8,1.1,0,1.7c-3.3,2.3-6.4,4.6-9.5,7.2L84.3,108.5z"/>
	<path class="st3" d="M11.5,134.1c0.3,0,0.5,0.3,0.6,0.5c2,2.7,4.5,5.1,6.8,7.7c0.6,0.7,0.3,0.9-0.2,1.4s-2.1,1.2-3.5,0.8
		c-2.9-0.8-5.5-2.4-7.5-4.7c-0.3-0.3-0.7-0.6-0.3-1.2c1-1.5,2.2-2.9,3.6-4.1L11.5,134.1z"/>
	<path class="st2" d="M35.3,61.5c-0.3,0.6-0.7,1.1-1.3,1.4l-7.5,6.7c-0.4,0.5-1.1,0.5-1.5,0.2c-0.1,0-0.1-0.1-0.2-0.2l-3.4-2.9
		c-0.5-0.4-0.5-0.7,0-1.1l4.6-3.7c0.3-0.2,0.6-0.3,0.9-0.3C29.7,61.4,32.4,61.4,35.3,61.5z"/>
	<path class="st1" d="M64.8,104.9l-0.5-0.4l-3.9-3.9c-0.4-0.4-0.3-0.7,0.1-1c1.9-1.5,3.6-3.2,5.4-4.9c1.8-1.7,1-0.5,1.5,0l3.8,3.8
		c0.4,0.4,0.5,0.6,0,1l-5.8,5L64.8,104.9z"/>
	<path class="st2" d="M17.8,116.9l-0.6,0.6l-8.4,7.6c-0.4,0.4-0.7,0.5-1.1,0l-2-2.5c-0.4-0.4-0.3-0.7,0.1-1c2.7-2.6,5.5-5.2,8.1-8
		c0.3-0.4,0.6-0.6,1-0.1l2.6,2.9L17.8,116.9z"/>
	<path class="st2" d="M26.7,86.9l-0.6,0.7c-3.5,3.2-6.7,6.6-9.7,10.2c-0.4,0.5-0.6,0.6-1.2,0.1c-2.6-2.3-2.6-2.2-0.1-4.6
		c2.5-2.4,5.4-5.2,8-7.9c0.8-0.9,1.4-0.7,2.1,0C25.7,85.8,26.2,86.4,26.7,86.9z"/>
	<path class="st1" d="M49.9,117.7l-0.4,0.5l-5.7,4.7c-0.3,0.3-0.6,0.2-0.9-0.1l-3.2-2.6c-0.5-0.4-0.4-0.6-0.1-1c1.5-2,3.3-3.8,5-5.7
		c0.3-0.3,0.5-0.7,1-0.2l3.8,3.9L49.9,117.7z"/>
	<path class="st1" d="M85.6,126.4l-0.4,0.3l-5.3,4.6c-0.3,0.2-0.5,0.4-0.9,0.1s-2.8-2.1-4-3.4c-1.2-1.3-0.5-0.8,0.1-1.3l5-4.1
		c0.3-0.3,0.6-0.5,1-0.1l4.2,3.6L85.6,126.4z"/>
	<path class="st1" d="M94.8,88.3c0.7,2.8-2.2,3.6-3.7,5.3c-1.5,1.7-0.5,0-0.8-0.2c-1.4-1-2.7-2.1-3.9-3.3c-0.5-0.5-0.4-0.7,0.1-1.1
		l6.3-5.4c0.3-0.3,0.5-0.8,1.1-0.5c0.4,0.2,0.7,0.7,0.7,1.2C94.6,85.6,94.7,86.8,94.8,88.3z"/>
	<path class="st3" d="M77.7,133c0,0.3-0.2,0.4-0.3,0.5l-4.6,4.2c-0.4,0.4-0.8,0.5-1.3,0.1l-3.9-3.5c-0.4-0.3-0.3-0.6,0-0.8l4.8-4.4
		c0.3-0.2,0.5-0.4,0.9,0c1.3,1.3,2.6,2.5,4.1,3.6L77.7,133z"/>
	<path class="st1" d="M17.2,88.3c0,0.4-0.3,0.5-0.5,0.7l-4.6,4.6c-0.3,0.3-0.5,0.6-1,0.1l-3.6-3c-0.5-0.4-0.5-0.6,0-1.1l5.1-4.7
		c0.6-0.6,1.1-0.5,1.6,0l2.8,3L17.2,88.3z"/>
	<path class="st3" d="M2.4,97.8c0.2-2.4,0.5-4.8,1-7.1c0.1-0.8,0.4-0.7,0.9-0.3l5.3,4.5c0.5,0.5,0.7,0.8,0.2,1.4
		c-0.5,0.6-2.3,2.7-3.4,4.1c-1.1,1.4-0.8,0.6-1.3,0.2c-0.6-0.5-1.2-0.9-1.9-1.2c-0.6-0.2-1-0.8-0.8-1.5C2.3,97.9,2.4,97.9,2.4,97.8z
		"/>
	<path class="st1" d="M82.7,109.8l-0.6,0.5l-5.8,4.7c-0.3,0.3-0.8,0.3-1.1,0c0,0,0-0.1-0.1-0.1l-2.8-2.5c-0.5-0.4-0.3-0.6,0.1-1
		l6.1-5.2c0.3-0.3,0.5-0.6,0.9-0.1l2.9,3.2L82.7,109.8z"/>
	<path class="st1" d="M39.1,134.8l-2.3-1.8c-1.5-1.3-1.4-1.3,0.1-2.4l5.5-4.3c0.6-0.5,1.1-0.6,1.7,0s1.5,1.5,2.3,2.2
		c0.8,0.7,0.6,0.6,0,1l-6.5,4.7L39.1,134.8z"/>
	<path class="st1" d="M47.8,90.8l0.5,0.4l2.9,2.7c0.5,0.4,0.4,0.7,0,1.1s-3.9,3.3-5.9,4.9c-0.2,0.3-0.6,0.4-0.8,0.2
		c-0.1,0-0.1-0.1-0.2-0.2l-0.8-0.6c-0.8-0.6-2.2-1.3-2.2-1.9s1.3-1.7,2-2.4l3.7-3.5C47.3,91.1,47.4,90.8,47.8,90.8z"/>
	<path class="st1" d="M31.2,112.9l-0.5-0.4l-0.9-0.8c-2.1-1.8-2.1-1.8-0.1-3.8l4.5-4.5c0.5-0.5,0.9-0.5,1.4,0.1s2,1.8,2.2,2.7
		c0.2,0.9-1.4,1.7-2.2,2.5s-2.6,2.5-3.9,3.7L31.2,112.9z"/>
	<path class="st1" d="M59,88l-0.5,0.3l-4.6,4.1c-0.5,0.5-0.9,0.4-1.4,0l-1.2-1.1c-0.7-0.7-2.1-1.3-2-2.1s1.2-1.5,1.9-2.3l3-3.1
		c0.2-0.2,0.4-0.7,0.8-0.2c1.1,1.4,2.3,2.8,3.6,4L59,88z"/>
	<path class="st1" d="M65.8,135.3l0.6,0.5l3.7,3.3c0.5,0.4,0.3,0.6,0,1L66,144c-0.2,0.3-0.6,0.4-1,0.2c0,0-0.1-0.1-0.1-0.1
		c-1.4-0.9-2.7-2.1-3.8-3.3c-0.2-0.3-0.5-0.5-0.1-0.8l4.4-4.3L65.8,135.3z"/>
	<path class="st1" d="M82.1,120.9l5-4c0.2-0.3,0.7-0.4,1-0.1c0,0,0.1,0.1,0.1,0.1l3.6,3.4c0.4,0.3,0.4,0.5,0,0.9s-2.9,2.4-4.3,3.6
		s-0.7,0.2-1-0.1L82.1,120.9z"/>
	<path class="st1" d="M63.4,116.3c-0.3,0-0.5-0.2-0.7-0.4c-1.1-1-2.1-2.1-3.1-3.2c-0.3-0.4-0.3-0.6,0.1-0.9L64,108
		c0.5-0.4,0.8-0.3,1.2,0.1l3.2,3.3c0.3,0.3,0.5,0.5,0.1,0.9l-4.8,3.8L63.4,116.3z"/>
	<path class="st1" d="M37.4,68.9l-0.5,0.6L32,74.2c-0.3,0.4-0.8,0.5-1.3,0.2c-0.1,0-0.1-0.1-0.1-0.1l-2.8-2.1
		c-0.6-0.4-0.5-0.7,0-1.1l5.7-5.1c0.5-0.4,0.8-0.6,1.3,0l2.1,2.3L37.4,68.9z"/>
	<path class="st1" d="M20.7,103l-1.4-1.3c-2.1-2-2.1-2-0.3-4.1l3.9-4.2c0.4-0.5,0.7-0.5,1.1-0.1h0.1c1,0.6,1.7,1.4,2.2,2.4
		c0.4,1.3-1.1,1.7-1.7,2.5c-0.6,0.8-2.3,2.6-3.4,3.9L20.7,103z"/>
	<path class="st3" d="M51.2,107.7l0.6,0.4l3.9,3.5c0.5,0.4,0.4,0.7,0,1.1l-3.6,3.2c-0.4,0.4-0.7,0.5-1.1,0l-3.7-3.7
		c-0.3-0.3-0.7-0.6-0.2-1l3.6-3.2L51.2,107.7z"/>
	<path class="st3" d="M49.5,75.4c-0.5-0.3-1-0.7-1.4-1.1c-0.3-0.4,0.2-0.7,0.4-0.9c0.7-0.9,1.2-1.9,1.4-3c0.4-1.5,1.2-2.8,2.5-3.7
		c2.2-1.7,2.1-1.7,4,0.2c1.9,1.9,1,1.5-0.1,2.4c-1.1,0.9-4,3.7-6.1,5.5L49.5,75.4z"/>
	<path class="st1" d="M59.4,127.9l-0.5,0.4l-5.1,4.2c-0.4,0.3-0.6,0.4-1,0c-3.1-2.9-3.2-3,0.2-5.6l2.7-2.1c0.5-0.4,0.8-0.5,1.2,0.1
		l2.2,2.5L59.4,127.9z"/>
	<path class="st1" d="M23.5,120l-1.3-1.3c-1.5-1.7-1.5-1.7,0-3.3c1.5-1.6,2.3-2.4,3.5-3.5c1.2-1.1,0.7-0.4,1.2,0
		c0.5,0.4,2.2,1.4,2.5,2.3s-1.4,1.6-2.1,2.4s-2,2-3,2.9L23.5,120z"/>
	<path class="st1" d="M18,66.3l-0.6,0.4l-4.5,4c-0.5,0.4-0.8,0.5-1.3,0C11.1,70.2,9.2,69,9,68s1.5-1.6,2.3-2.5l2.3-2.3
		c0.2-0.2,0.4-0.6,0.8-0.2l3.1,2.7L18,66.3z"/>
	<path class="st1" d="M57.8,147.5H54c-0.7,0-0.7-0.2-0.4-0.7c0.3-0.5,3.5-3.2,5.2-4.8c0.2-0.2,0.4-0.2,0.6,0
		c1.2,1.4,2.6,2.6,4.1,3.6c0.2,0.1,0.4,0.3,0.2,0.5c-0.2,0.2-1.4,1.8-2.7,1.7l-3.3-0.2L57.8,147.5z"/>
	<path class="st1" d="M28.3,85.6c-0.5-0.5-1-1-1.6-1.5c-1.1-0.7-1.1-1.3-0.1-2.1c1-0.8,2.9-2.7,4.2-4.1c1.3-1.4,0.8-0.6,1.3-0.1
		l0.8,0.7c1.9,1.6,1.9,1.6,0,3.2l-4,3.4L28.3,85.6z"/>
	<path class="st3" d="M90.7,58.4c-0.3,0.8-0.7,1.4-1.4,1.9l-4.9,4.1c-0.5,0.4-0.8,0.4-1.2-0.1c-0.9-1.3-2.1-2.5-3.4-3.5
		c-0.4-0.3-0.3-0.6,0-0.8l0.4-0.2C83.9,60.1,87.2,58.8,90.7,58.4z"/>
	<path class="st3" d="M49,64c0.3,1.9,0.1,3.7-0.6,5.5c-0.2,0.5-0.5,0.8-1,0.9c-1.7,0.5-3.6,0.5-5.3-0.1c-0.6-0.2-0.7-0.5-0.4-1
		c0.1-0.2,0.2-0.5,0.3-0.7c0.3-1.6,1.1-2.5,3-2.5C46.9,66.1,47.7,64.9,49,64z"/>
	<path class="st3" d="M38.9,144.7l-0.5-0.5l-2.9-3.4c-0.4-0.4-0.3-0.6,0.1-0.9l3-2.3c0.3-0.3,0.7-0.3,1,0c0,0,0.1,0.1,0.1,0.1
		c1.1,1,2.2,1.9,3.4,2.7c0.3,0.2,0.7,0.5,0.2,0.9l-4.1,3.3L38.9,144.7z"/>
	<path class="st1" d="M20.7,141.6c0-0.2-0.1-0.3-0.2-0.5l-2-2.3c-0.4-0.5-0.2-0.8,0.2-1l4.8-4.2c0.3-0.3,0.5-0.2,0.7,0.1l2,2.2
		c0.5,0.5,0,0.7-0.3,1c-0.3,0.3-3.4,2.5-4.7,4.3L20.7,141.6z"/>
	<path class="st3" d="M66.2,122.5l-4.7,3.7c-0.4,0.3-0.7,0.3-1-0.1l-2.1-2.4c-0.4-0.5-0.4-0.9,0.2-1.3l4.1-3.1
		c0.2-0.3,0.6-0.3,0.8-0.1c0.1,0.1,0.1,0.1,0.2,0.2L66.2,122.5z"/>
	<path class="st2" d="M2.2,113c0-1.8,0-3.3,0-4.8c0-0.3,0.1-0.5,0.3-0.7c1.1-1,2.1-2,3-3.1c0.4-0.4,0.7-0.4,1,0l0.2,0.2
		c2.2,2.1,2.2,2.1,0.1,4.3l-2.1,2L2.2,113z"/>
	<path class="st1" d="M90.5,72.4c1,1,2.1,2,3.2,2.9c0.3,0.2,0.5,0.5,0.4,0.9c0,1.1,0.1,2.1,0,3.2c-0.1,1.1-0.6,1.2-1.3,0.7
		c-1.7-1.2-3.3-2.5-4.8-3.9c-0.4-0.4-0.5-0.7,0-1.1L90.5,72.4z"/>
	<path class="st1" d="M10.4,132.3c0,0.3-0.3,0.5-0.5,0.7c-1.4,1.1-2.6,2.5-3.5,4c-0.3,0.5-0.6,0.6-1,0.1c-2.1-2.1-2.2-2.6-0.3-4.9
		c0.9-1,1.8-1.9,2.8-2.8c0.1-0.1,0.2-0.3,0.4-0.2C9.1,130.2,9.8,131.2,10.4,132.3z"/>
	<path class="st1" d="M14.1,123l1.4,1.3c1.8,2.1,1.8,1.4,0,3.3l-2.9,2.7c-0.5,0.5-0.8,0.6-1.1-0.1c-0.3-0.5-0.7-1-1.1-1.5
		c-1.1-1.4-1.1-1.4,0.2-2.5c1.1-0.8,2.1-1.8,3-2.8L14.1,123z"/>
	<path class="st1" d="M11.7,96.6c0.3,0.6,0.7,1.1,1.1,1.6c1.8,1.8,1.8,1.7,0.2,3.7l-2.3,2.9c-0.5,0.6-0.7,0.6-1.2,0
		c-2.2-2.3-2.2-2.3-0.3-4.7l1.9-2.4L11.7,96.6z"/>
	<path class="st3" d="M18.3,79.7c1.5,1,2.9,2.2,4.1,3.6l-0.2,0.3l-3.1,3.1c-0.4,0.5-0.6,0.1-0.9-0.2l-3-3.1
		c-0.2-0.2-0.4-0.4-0.1-0.7l2.9-2.8L18.3,79.7z"/>
	<path class="st1" d="M2.3,117.7c-0.2-2.4,1.5-3.4,2.7-4.7s0.6,0.1,0.8,0.3c0.8,0.8,1.5,1.7,2.2,2.7c0.3,0.4,0.2,0.7-0.1,1l-3.5,3.4
		c-0.5,0.5-0.7,0.3-1.1-0.1S2,118.6,2.3,117.7z"/>
	<path class="st1" d="M48,76.9l-0.4,0.4l-5.8,5.2c-0.2,0.3-0.7,0.4-1,0.1c0,0-0.1-0.1-0.1-0.1l-1.9-1.6c-0.3-0.3-1.2-0.5-0.8-1
		c0.4-0.5,0.8-1.4,1.6-1.3c2.6,0.3,4.6-1,6.5-2.5C48,74.6,47.9,76.2,48,76.9z"/>
	<path class="st1" d="M28.2,146.4l4.6-4.4c0.4-0.4,0.6-0.2,0.9,0.1c1.3,1.1,2.5,2.4,3.6,3.8c0.6,0.7-0.2,1-0.7,1h-8.1L28.2,146.4z"
		/>
	<path class="st2" d="M40.2,146.4c1.2-1.7,3.2-2.5,4.6-4c1.4-1.5,0.6-0.1,0.9,0.1l3,2.4l0.5,0.9c0.2,0.3,0.7,0.4,0.5,0.8
		s-0.7,0.3-1,0.3h-7.3C40.9,146.9,40.4,147,40.2,146.4z"/>
	<path class="st3" d="M2.5,132c-0.3-3.4-0.4-6.9-0.2-10.3c0.8,0.7,1.5,1.4,2,2.3l1.4,1.7c1.5,1.8,1.5,1.8-0.2,3.3
		C4.4,129.9,3.4,131,2.5,132z"/>
	<path class="st4" d="M81.8,146.1c-0.8-0.3-1.5-0.9-1.9-1.6c-0.5-0.6,0.3-0.8,0.6-1.1l3.5-3.3c0.4-0.4,0.6-0.4,1.1,0
		c2.4,1.8,2.4,2.2,0.1,4.1C84.2,145,83,145.7,81.8,146.1z"/>
	<path class="st4" d="M40.3,61.1c2.2,0,2.2-0.1,1.5,1.9c-0.6,1.4-1.4,2.8-2.5,3.9c-0.4,0.5-0.7,0.4-1.1,0l-2.1-2.2
		c-0.4-0.4-0.5-0.7,0-1.1l2-1.9C38.8,60.9,39.7,61.3,40.3,61.1z"/>
	<path class="st1" d="M69.7,69.1c0.7,2.6,1.3,5,3.8,6c0,0.1,0,0.2,0,0.2c-1.8,2.1-1.8,2.1-3.9,0.5l-2.9-2.1c-0.5-0.3-0.5-0.6-0.1-1
		C67.7,71.6,68.8,70.4,69.7,69.1z"/>
	<path class="st4" d="M94.9,111.3c-0.1,2.6-0.2,4.9-0.6,7.2c-0.1,0.8-0.6,0.9-1.1,0.4l-3.4-3.1c-0.5-0.4-0.3-0.7,0.1-1
		C91.5,113.5,93.2,112.4,94.9,111.3z"/>
	<path class="st1" d="M77.9,62.1l1,0.5l1.2,1.1c2.4,2.6,2.4,2.6-0.2,5c-0.3,0.3-0.5,0.8-1,0.5c-0.5-0.3-1.4-0.5-1.4-1.4
		c0-1.5-0.2-3-0.6-4.5C76.8,62.4,77.5,62.4,77.9,62.1z"/>
	<path class="st4" d="M32.2,131.4l-0.3,0.3l-3.4,2.8c-0.2,0.2-0.4,0.4-0.7,0.2l-2.3-2.5c-0.3-0.3,0.1-0.5,0.3-0.7l2.9-2.5l0.4-0.3
		C30.3,129.5,31.3,130.4,32.2,131.4z"/>
	<path class="st3" d="M39.3,105.1c-0.1-0.2-0.2-0.4-0.3-0.6l-1.4-1.6c-1.3-1.5-1.2-1.5,0.2-2.8c1.4-1.3,1.7-1.6,3.5-0.1
		c1.8,1.5,2,1.5,0.1,3.2l-1.4,1.3L39.3,105.1z"/>
	<path class="st4" d="M13.1,111.6l-0.9,1c-0.7,0.8-1.4,2-2.2,2.2c-0.8,0.2-1.2-1.5-2-2.1s-0.8-1.5,0.1-2.4c0.9-0.9,2-2.1,4,0.2
		L13.1,111.6z"/>
	<path class="st4" d="M31.7,91.6l-0.9,0.6c-0.8,0.7-1.5,1.9-2.4,2.2c-0.9,0.3-1.5-1.3-2.3-1.9c-0.8-0.6-1.3-1.1,0-2.2
		c1.3-1.1,2.3-2.1,4.5,0.1L31.7,91.6z"/>
	<path class="st4" d="M18.9,124.4c-0.2,0-0.5-0.1-0.6-0.3c-2.8-2.4-2.8-2.3-0.1-4.8c1-1,1.5-0.8,2.3,0.2s1.7,1.9-0.1,3.6L18.9,124.4
		z"/>
	<path class="st4" d="M12,62.3l-4.9,4.6c-0.2,0.2-0.5,0.4-0.8,0.2c-0.3-0.2-0.1-0.5-0.1-0.7s0.3-3.3,0.5-5c0.2-1.7,0-1,0.7-0.6
		c1.4,0.7,2.9,1.1,4.5,1.2L12,62.3z"/>
	<path class="st2" d="M39.1,70c-0.1,0.9-0.5,1.7-1.1,2.3c-0.9,1.5-1.6,3.1-0.7,4.9c0.9,1.8-0.3,0.9-0.6,1.2c-0.3,0.3-0.6,0.3-1,0
		l-2.4-1.9c-0.3-0.2-0.6-0.4-0.2-0.8L39.1,70z"/>
	<path class="st2" d="M93.4,122.6c0,2.5-0.7,4.9-0.9,7.4l-0.4,0.2l-3.1-3.3c-0.3-0.3-0.3-0.5,0-0.8L93.4,122.6z"/>
	<path class="st4" d="M48.9,60.8c-0.3,0.9-0.9,1.7-1.7,2.3l-0.6,0.4c-0.9,0.4-1.7,1.2-2.7,0.6s0.8-3.2,1.5-3.5
		c0.9-0.4,1.6-0.9,2.3-1.6c0.2-0.2,0.3-0.5,0.6-0.4s0.3,0.4,0.3,0.6L48.9,60.8z"/>
	<path class="st4" d="M41.4,33.8h1c0.4,0,0.9-0.4,1.2,0.3c0.3,0.7,0.4,1.2-0.1,1.8l-0.3,0.4c-0.9,0.8-2,2.1-2.9,1.7
		c-0.9-0.4-1-2.3-1.2-3.6c-0.2-1.3,0.2-0.7,0.7-0.7h1.7L41.4,33.8z"/>
	<path class="st4" d="M41,32.5h-0.8c-1.1,0.1-1.4-0.4-1.2-1.4s0.3-1.9,0.4-2.9c0.1-1,0.3-0.7,0.8-0.4l1.3,0.8
		c1.3,0.5,1.9,1.8,1.6,3.1c0,0.4-0.3,0.7-0.7,0.7l0,0L41,32.5z"/>
	<path class="st4" d="M45.2,41.5c0.3,1.2,0.5,2.3,0.8,3.4c0.2,1.5-0.6,2.9-1.9,3.5c-0.5,0.2-0.5-0.2-0.6-0.4l-0.9-3.3
		c-0.1-0.3-0.1-0.7,0.2-0.9L45.2,41.5z"/>
	<path class="st4" d="M8.3,74.7c-0.4,0-0.5-0.3-0.7-0.5L6,71.9c-0.4-0.6-0.3-0.9,0.2-1.4c0.5-0.5,1.2-1.2,2.4-0.1l0.6,0.5
		c0.5,0.5,1.6,1,1.4,1.6s-1.3,1.4-2,2L8.3,74.7z"/>
	<path class="st4" d="M47.8,52.8c1.1,3.1,0.1,4.8-2.5,6.4c-0.4,0.3-0.7,0.2-0.7-0.4S44.2,56,45.8,55C46.6,54.4,47.2,53.6,47.8,52.8z
		"/>
	<path class="st4" d="M46.8,48c1.1,2.4,0.5,4.3-2.1,6.1C43.8,51.5,43.7,49.2,46.8,48z"/>
	<path class="st4" d="M73.5,67.7h-1c-1-0.2-1.7-1.2-1.5-2.2c0-0.1,0-0.1,0-0.2c0.1-0.3,0.4-0.3,0.6-0.3h2.2c1.7-0.1,1.6-0.1,1.7,1.8
		c0.1,1.9-1,0.9-1.6,1h-0.4L73.5,67.7z"/>
	<path class="st3" d="M73.7,69.1c2,0,2.1,0,1.9,2.1c-0.2,2.1,0.1,1.8-0.9,2s-1.6-0.6-2-1.4l-0.3-0.6C71.4,69.1,71.5,69,73.7,69.1z"
		/>
	<path class="st4" d="M61.1,34c0.2,1,0.5,1.9,0.7,2.8S60,39.3,59.3,39c-0.2-0.1-0.3-0.2-0.4-0.4c-0.2-0.4-0.3-0.7-0.4-1.1
		c-0.5-1.8-0.4-1.8,1.2-2.7L61.1,34z"/>
	<path class="st4" d="M59.5,44c2.1,1.6,1.4,3.6,1.1,5.4s-1.5,0.3-2.2,0.3s-0.3-0.7-0.2-1S59,45.6,59.5,44z"/>
	<path class="st4" d="M63.9,41.1c0,0.6-1.7,2.1-2.4,2.2s-2-2.1-1.7-2.5c0.6-0.9,1.5-1.5,2.6-1.8C63.3,38.9,63.4,40.4,63.9,41.1z"/>
	<path class="st1" d="M16.1,62c2.5,0,4.7-0.4,7.1-0.3l-3.3,2.8c-0.3,0.3-0.6,0.2-0.9,0L16.1,62z"/>
	<path class="st4" d="M44.1,37.2c0.8,1.9,0.1,4.1-1.7,5.1c-0.3,0.2-0.5,0.3-0.7-0.1L41,39.9c-0.2-0.4,0.1-0.6,0.4-0.8
		C42.4,38.5,43.3,37.9,44.1,37.2z"/>
	<path class="st4" d="M61.2,26c0,2.1-1.6,3.8-3.7,4c-0.4,0-0.5-0.2-0.6-0.5s0-0.9-0.1-1.3s0.1-1.1,1-1.2C59,26.8,60.1,26.5,61.2,26z
		"/>
	<path class="st4" d="M42.9,27.8c-3.1-1.3-3.3-1.8-2.1-5C43.3,24.3,43.6,24.9,42.9,27.8z"/>
	<path class="st4" d="M50,18.7c-0.5,0.7-0.8,1.7-1.6,2.1c-0.8,0.4-1.5-0.2-2.3-0.4H46c-0.1-1.2,0.6-2.1,1-3.1s0.8-0.2,1.1-0.1
		l1.5,0.8C49.9,18.1,50.1,18.4,50,18.7z"/>
	<path class="st4" d="M72.4,63.7c-2,0-2,0-2.2-1.5c-0.2-1.5,0.1-0.7,0.7-0.7h2.4c1.2-0.1,1.6,0.2,1.7,1.5c0.1,1.3-0.2,0.7-0.7,0.7
		H72.4z"/>
	<path class="st4" d="M60.8,30c0.4,2.5-0.3,3.5-2.6,4.1c-0.4,0.1-0.6,0.1-0.7-0.3L57.1,32c-0.1-0.3,0.2-0.6,0.5-0.7c0,0,0,0,0,0
		C58.7,31,59.8,30.5,60.8,30z"/>
	<path class="st4" d="M42.2,74.7c-0.8-0.4-1.4-0.9-1.9-1.6c-0.3-0.2-0.3-0.6-0.2-0.8c0,0,0,0,0.1-0.1c0.2-0.3,0.4-0.7,0.8-0.5
		c0.4,0.2,3.8,0.7,5.8,0.7c-1.4,2.9-2.6,3.5-4.4,2.4c0.3-0.3,0.7-0.4,1.1-0.2c1,0.4,1.6-0.4,2.1-1.1c0.5-0.7,0.1-0.9-0.4-0.7
		s-1.8,0.3-2.7,0.7S41.9,74.2,42.2,74.7z"/>
	<path class="st4" d="M56.9,24.8c-0.2-1.1,0.3-1.6,1.4-1.5c0.8,0,1.6-0.1,2.4-0.2c0.3,0,0.6-0.3,0.8,0.1c0.2,0.4,0.1,0.8-0.2,1.1
		c-1.1,0.9-2.5,1.4-3.9,1.5C56.7,25.8,56.9,25.2,56.9,24.8z"/>
	<path class="st4" d="M71.6,60.2c-0.7-0.2-1.7,0.4-2-0.9c-0.3-1.3-0.4-1.6,1.4-2s2.1,0.4,2.6,1.6c0.5,1.2,0.2,1.3-0.8,1.3L71.6,60.2
		z M71.7,58.6c0.4,0.1,0.4,1.1,1.1,0.4c0.7-0.7,0.1-0.6-0.2-0.8c-0.3-0.2-1.3-0.4-2-0.4s-0.5,0.2-0.3,0.4s0,1.3,0.6,1.4
		C71.5,59.7,71.3,58.9,71.7,58.6z"/>
	<path class="st4" d="M62.2,13.6c0.4,1.8-0.7,1.7-1.7,1.7c-1,0-1.1,0.4-1.1-0.6s0.7-2.4,2.2-2.4S61.9,13.3,62.2,13.6z"/>
	<path class="st4" d="M68.4,52.5c-1.3,0.3-1.7-0.8-1.7-1.5s1.3-0.6,2-1.1c0.7-0.5,1.5,1.5,1.4,2C70,52.4,68.9,52.3,68.4,52.5z"/>
	<path class="st4" d="M59.4,19.7h1.4c0.4,0,1-0.3,1.1,0.5c0.1,0.8,0,1.3-0.9,1.5c-0.9,0.2-1.9,0.3-2.8,0.3c-0.5,0-1.1,0.1-0.8-0.7
		c0.3-0.8-0.3-1.6,0.9-1.6L59.4,19.7z M61,20.9c0-0.3-0.2-0.5-0.5-0.5c-0.6,0-1.2-0.1-1.7-0.3c-0.2-0.1-0.4-0.1-0.5,0.1
		c-0.1,0.2,0,0.4,0.1,0.5c0,0,0.1,0,0.2,0.1c0.7,0.1,1.4,0.2,2,0.5c0.2,0.1,0.5-0.1,0.5-0.4L61,20.9z"/>
	<path class="st4" d="M43.5,23.1c-0.8-0.4-1.5-1-2-1.7c-0.6-0.7,0.3-1.3,0.5-2s0.4-0.5,0.7-0.2s1.5,0.4,1.3,1.5L43.5,23.1z"/>
	<path class="st4" d="M70.2,56.1c-1.1,0-2.3-1.1-2-1.9c0.3-0.8,1.4-0.3,2.1-0.6c0.7-0.3,1.6,1.6,1.4,2S70.7,55.9,70.2,56.1z"/>
	<path class="st4" d="M69,22.4l0.8,0.8c0.7,0.4,0.6,0.9,0.2,1.5c-0.1,0.2-0.3,0.5-0.4,0.7c-0.4,0.4-0.3,1.3-1.1,1.2s-1-1.8-0.8-2.4
		C68,23.5,68.5,22.9,69,22.4z"/>
	<path class="st4" d="M94,72.9c-0.8-0.4-1.2-1.2-1.9-1.7c-0.7-0.5-0.2-0.5,0-0.7l1.8-2C94.3,69.9,94.3,71.4,94,72.9z"/>
	<path class="st4" d="M61.6,10.7c-0.4,0.5-1.1,0.7-1.7,0.6c-0.9,0-1.1-1-1.2-1.6c-0.1-0.6,0.7-1.1,1.3-1.3
		C60.6,8.2,61.6,10.1,61.6,10.7z"/>
	<path class="st4" d="M45.2,23.6c0.5-0.5-0.5-1.8,1-1.8c1.5,0,1.5-0.1,1.6,0.8c0.1,0.9-1.3,2.4-1.5,2.3S45,24.5,45.2,23.6z"/>
	<path class="st1" d="M5.2,73.4c2.2,2.8,2.5,2.1-0.6,4.7c0.1-0.9,0.1-1.6,0.2-2.3L5.2,73.4z"/>
	<path class="st4" d="M49,14.5c1,0.3,1.9,0.8,2.6,1.5c0.4,0.3-0.1,0.6-0.2,0.9c0,0.3-0.3,0.5-0.6,0.4c-0.1,0-0.2-0.1-0.3-0.2l-2-1.1
		c-0.2-0.1-0.8-0.2-0.5-0.7C48.3,14.8,48.4,14.5,49,14.5z"/>
	<path class="st4" d="M40.2,146.4c0.3,0.5,0.7,0.5,1.2,0.5h7.3c0.4,0,0.8,0.1,1-0.3s-0.3-0.5-0.5-0.8l-0.5-0.9
		c0.6,0.3,1.1,0.8,1.5,1.3c0.2,0.2,0.5,0.4,0.3,0.8c-0.2,0.4-0.5,0.3-0.8,0.3l-9.5-0.3C39.4,147.1,39.8,146.7,40.2,146.4z"/>
	<path class="st4" d="M66.1,49.4c-0.6,0-1.9-1.3-1.9-1.7s0.3-0.4,0.5-0.4s1.6-1.3,2.6-0.7c1,0.6,0.6,1,0.8,1.6s-0.1,0.5-0.3,0.6
		L66.1,49.4z M66.5,48.6c0.3-0.1,1,0.2,1-0.4c0-0.5-0.4-0.9-0.9-0.9l0,0c-0.5,0-1,0.5-1,1c0,0.4,0.6,0.2,1,0.3L66.5,48.6z"/>
	<path class="st4" d="M63.4,43.8h0.1c0.5-0.3,0.9-1.2,1.4-0.9c0.5,0.3,0.9,1.2,1.4,1.8s0.1,0.2,0.1,0.2s-1.7,0.9-2.5,1.3
		c-0.8,0.4-0.9-0.1-1.1-0.6h1c0.4,0,0.8,0,0.9-0.5c0.1-0.5-0.2-0.7-0.6-0.9L63.4,43.8z"/>
	<path class="st4" d="M73,8.7c0-0.7,1.6-2.4,2-2.3s0.3,0.4,0.3,0.6c0,0.2,0.5,1.1-0.1,1.5l-1.1,0.7C73.3,9.9,72.9,9.5,73,8.7z"/>
	<path class="st4" d="M2.1,105.1c0-1.4,0-2.3,0-3.3s0.3-0.7,0.8-0.4l0.7,0.5c0.8,0.4,0.8,0.8,0.1,1.4C3.1,103.9,2.6,104.5,2.1,105.1
		z"/>
	<path class="st4" d="M44.1,18.5c-0.4-0.4-1.2-0.5-0.9-1.3c0.3-0.7,0.7-1.4,1.1-2c0.1-0.2,0.3-0.7,0.6-0.5c0.3,0.2,0.7,0.6,0.6,1
		c-0.3,0.9-0.7,1.7-1.1,2.5L44.1,18.5z"/>
	<path class="st4" d="M94.7,93.1v4c-0.8-0.3-1.5-0.9-2.1-1.5c-0.4-0.4-0.2-0.6,0.1-0.9L94.7,93.1z"/>
	<path class="st4" d="M35,37.7l1.1,2.3c0.4,0.8-0.3,1.2-0.8,1.5s-0.6-0.4-0.8-0.7c-0.7-0.9-0.6-2.2,0.3-3
		C34.9,37.8,34.9,37.7,35,37.7z"/>
	<path class="st4" d="M74.4,15.8c-0.4-0.3-1.4,0-1.4-0.9s0.9-1.4,2.3-1.3s0.6,0.2,0.5,0.6C75.7,14.6,75.7,15.9,74.4,15.8z"/>
	<path class="st4" d="M69,2c0.7-0.1,1.5-0.4,1.9,0.2C71.4,3,71.4,4,71.1,4.9c-0.1,0.2-0.2,0.4-0.5,0.3c-0.3-0.1-0.8-0.3-0.9-0.8
		L69,2z"/>
	<path class="st4" d="M48,10.4c0.3,0.6,0.6,1.1,0.3,1.6c-0.5,0.7-1.1,1.4-1.8,2.1c-0.1,0.1-0.3-0.1-0.4-0.2s-0.5-0.6-0.3-0.9
		C46.4,12,47.1,11.1,48,10.4z"/>
	<path class="st4" d="M51,12.2c0.5,0,2.2,1.4,2.1,1.9c0,0.3-0.2,0.6-0.4,0.8c-0.3,0.3-0.4-0.1-0.6-0.2l-1.5-0.9
		c-0.3-0.2-0.9-0.1-0.7-0.7C50.1,12.6,50.5,12.3,51,12.2z"/>
	<path class="st4" d="M54,7c0.3,0.1,1.1-0.3,1,0.7c-0.1,1-0.2,1.5-1.4,1.5s-0.7-0.8-0.8-1.3S53.3,6.9,54,7z"/>
	<path class="st3" d="M42.2,74.7c-0.3-0.5-0.4-0.8,0.3-1.2s1.8-0.3,2.7-0.7c0.9-0.4,0.7,0.3,0.4,0.7s-1,1.4-2.1,1.1
		c-0.4-0.2-0.8-0.1-1.1,0.2L42.2,74.7z"/>
	<path class="st4" d="M74.4,17.2c-0.7,0.5-0.3,2.1-1.7,1.7c-1.4-0.4-1.2-0.4-0.9-1.3C72.1,16.7,73.4,17.1,74.4,17.2z"/>
	<path class="st4" d="M32.2,45c-0.4-1.4-0.5-2.3,0.1-3.2c0.6-0.9,0.5-0.9,0.9-0.4s1.2,0.8,0.6,1.6L32.2,45z"/>
	<path class="st4" d="M68,28l-1,1.7c-0.1,0.2-0.4,0.1-0.5-0.1s-0.9-0.8-0.7-1.5c0.2-0.5,0.4-0.9,0.7-1.3c0.1-0.2,0.3-0.3,0.4-0.2
		L68,28z"/>
	<path class="st4" d="M72.4,2.2c1,0.5,1.6,1.4,1.8,2.4c0.1,0.8-0.8,1.3-1.5,1.8c-0.7,0.5-0.4,0.3-0.6,0.1S71.9,6.2,72,5.9
		C72.5,4.7,72.6,3.4,72.4,2.2z M73.2,4c-0.3,0.3-0.3,0.8-0.1,1.2c0.1,0.2,0.3,0.1,0.4-0.1C73.7,4.7,73.6,4.2,73.2,4
		C73.2,4,73.2,4,73.2,4z"/>
	<path class="st4" d="M75.7,10c0.4,2,0.3,2.1-1.5,2.4c-1.8,0.3-0.7,0.2-0.9-0.2c-0.2-0.4-0.2-0.9,0.3-1.1C74.3,10.6,75,10.2,75.7,10
		z"/>
	<path class="st4" d="M36.8,34.9c0.4,1.1,0.7,2,1.1,3c0.4,1,0.1,1-0.3,1.2s-0.6-0.4-0.7-0.7S35.6,36.2,36.8,34.9z"/>
	<path class="st4" d="M63.6,4.6c-0.7,0-0.9-0.8-1.3-1.2s0.1-0.3,0.3-0.4c1-0.4,2.1,0,2.6,0.9c0.2,0.3,0,0.5-0.3,0.5L63.6,4.6z"/>
	<path class="st3" d="M61.7,18.3h-2.6c-1.1,0-0.9-0.5-0.4-1c0.7,0.1,1.5-0.1,2-0.7h0.5C61.2,17.2,61.8,17.6,61.7,18.3z"/>
	<path class="st4" d="M65.2,32.9c-0.5-0.6-0.9-1.3-0.9-2.1c-0.1-0.3,0-0.6,0.3-0.8c0.4-0.2,0.5,0.1,0.7,0.3S66.4,31.4,65.2,32.9z"/>
	<path class="st4" d="M63.1,32.2c0.5,1.1,2.2,2.1,0.5,3.6C63,34.7,62.8,33.4,63.1,32.2z"/>
	<path class="st2" d="M51,65.5l0.3-3.4c0.8,0.3,1.6,1,1.6,1.5S51.7,64.7,51,65.5z"/>
	<path class="st4" d="M58.8,7.5l-1,1.1c-0.3,0.4-0.7,0.8-1.3,0.5c-0.6-0.3-0.1-0.9-0.1-1.4s0.6-0.5,1-0.4L58.8,7.5z"/>
	<path class="st4" d="M38.9,74.3c0.8,0.8,1.8,1.5,2.8,2.1c-0.9,0.4-2,0.3-2.7-0.4C38.4,75.5,38.8,75,38.9,74.3z"/>
	<path class="st4" d="M65.6,2.3c1.2-0.5,2-0.2,2.4,1s0.5,0.8,0,1c-0.4,0.2-0.9,0.1-1.2-0.3L65.6,2.3z"/>
	<path class="st4" d="M70.9,19.4c0.5,0.4,1.4,0.6,1.3,1.2c-0.1,0.6-0.5,1.6-1.2,1.8s-0.9-0.7-0.9-1.3C70.1,20.4,70.4,19.8,70.9,19.4
		z M70.9,21.3c0.2,0,0.4-0.2,0.4-0.4c0,0,0,0,0,0c0-0.2-0.1-0.4-0.3-0.4c-0.2-0.1-0.4,0.1-0.5,0.3c0,0,0,0.1,0,0.1
		C70.5,21.1,70.7,21.3,70.9,21.3L70.9,21.3z"/>
	<path class="st4" d="M30.5,44.3c0.8,1.1,0.7,1.9-0.2,2.6c-0.9,0.7-0.6-0.1-0.8-0.3S30.2,45.2,30.5,44.3z"/>
	<path class="st4" d="M45,139.3c2,0.8,3.7,2.3,4.9,4.1C48.1,142.3,46.5,140.9,45,139.3z"/>
	<path class="st3" d="M63.4,43.8l0.7,0.3c0.3,0.2,0.6,0.5,0.6,0.9s-0.5,0.4-0.9,0.5h-1c-0.8-0.8-0.4-1.3,0.5-1.5h0.2L63.4,43.8z"/>
	<path class="st4" d="M52.4,11.4c0.9-0.3,1.9-0.5,2.8-0.4c-0.2,0.7-0.6,1.5-1.1,1.6S53.2,11.8,52.4,11.4z"/>
	<path class="st4" d="M61.8,5c-1.3-0.1-2.2,0.5-3.3,0.3C60,3.9,60.5,3.8,61.8,5z"/>
	<path class="st4" d="M28.2,47.2c0.4,0.3,0.8,0.6,0.8,1.1c0,0.4-0.4,0.8-0.8,0.8c0,0-0.1,0-0.1,0c-0.4-0.1-1-0.4-0.9-0.9
		C27.3,47.7,27.7,47.3,28.2,47.2z"/>
	<path class="st4" d="M51.5,9.7c-0.1,0.3-0.4,0.5-0.7,0.5c-0.5,0.1-0.8,1.1-1.3,0.4s-0.7-1.5,0.3-2l0.4-0.2c0.3,0.6-0.8,0.9-0.4,1.4
		C50.2,10.3,51,9.4,51.5,9.7z"/>
	<path class="st1" d="M22.1,146.2l-2.4-0.6C20.7,144.1,20.8,144.2,22.1,146.2z"/>
	<path class="st1" d="M76.6,147.2l1.2-1.2c0.2-0.2,0.5-0.4,0.7-0.1c0.2,0.3,0.5,0.4,0.5,0.7s-0.4,0.3-0.7,0.3L76.6,147.2z"/>
	<path class="st3" d="M51.5,9.7c-0.5-0.2-1.1,0.6-1.6,0c-0.5-0.6,0.7-0.8,0.4-1.4l0,0L50.6,8h0.8C51.6,8.5,51.6,9.1,51.5,9.7z"/>
	<path class="st4" d="M25.1,50.8c0.4-0.5,0.5-1.4,1.3-1.3c0.8,0.1,0.8,0.4,0.6,0.8S25.8,50.8,25.1,50.8z"/>
	<path class="st4" d="M28.9,117.8c0.1,1-0.6,1.9-1.6,2c-0.1,0-0.3,0-0.4,0L28.9,117.8z"/>
	<path class="st4" d="M44.8,26.7c0.2-0.3-0.3-0.8,0.3-0.9s0.8,0.2,0.7,0.7s-0.2,1.1-0.7,1.1S44.9,27,44.8,26.7z"/>
	<path class="st4" d="M68.9,79.8v-2C70.3,78.7,70.3,78.7,68.9,79.8z"/>
	<path class="st4" d="M61.7,18.3c0.1-0.7-0.5-1.1-0.5-1.7c0-0.6,0.8-0.3,0.9,0.1C62.3,17.2,62.2,17.9,61.7,18.3z"/>
	<path class="st4" d="M41.7,135.4c0,0.7,0.6,1.2,0.5,1.9l-0.6-0.4C40.8,136.3,40.9,135.8,41.7,135.4z"/>
	<path class="st4" d="M60.7,16.6c-0.5,0.6-1.3,0.8-2,0.7C58.9,16,60,16.8,60.7,16.6z"/>
	<path class="st1" d="M53.5,61.1H55C54.5,62.4,54.5,62.4,53.5,61.1z"/>
	<path class="st4" d="M51.4,8.1h-0.8c0.2-0.3,0.4-0.6,0.8-0.5S51.4,7.9,51.4,8.1z"/>
	<path class="st4" d="M43.5,138.2c0.4-0.1,0.7,0.2,0.8,0.5L43.5,138.2z"/>
	<path class="st4" d="M44.3,138.7c0.2,0,0.4,0.2,0.5,0.4L44.3,138.7z"/>
	<path class="st4" d="M63.4,43.9L63.4,43.9z"/>
	<path class="st4" d="M50.7,8l-0.3,0.3L50.7,8z"/>
	<path class="st2" d="M93.5,122.6h0.1c0,0.1-0.1,0.1-0.2,0H93.5z"/>
	<path class="st3" d="M71.7,58.6c-0.4,0.3-0.1,1.3-0.9,1.1s-0.4-1-0.6-1.4s0.1-0.4,0.3-0.4s1.5-0.2,2,0.4c0.5,0.6,0.3,0.6,0.2,0.8
		C72.6,59.3,72.1,58.7,71.7,58.6z"/>
	<path class="st3" d="M61.1,20.9c0,0.3-0.3,0.5-0.5,0.4c-0.6-0.3-1.3-0.4-2-0.5c-0.2,0-0.4-0.2-0.4-0.4c0-0.1,0-0.1,0.1-0.2
		c0.1-0.2,0.3-0.2,0.5-0.1c0.5,0.2,1.1,0.3,1.7,0.3c0.3-0.1,0.5,0.1,0.6,0.4C61.1,20.8,61.1,20.8,61.1,20.9z"/>
	<path class="st3" d="M66.6,48.6c-0.4-0.1-1,0.2-1-0.3c0-0.5,0.5-1,1-1c0.5,0,0.9,0.4,0.9,0.9v0C67.5,48.8,66.9,48.4,66.6,48.6z"/>
	<path class="st3" d="M73.2,4c0.4,0.2,0.5,0.7,0.3,1.1c0,0,0,0,0,0c-0.1,0.2-0.3,0.3-0.4,0.1C72.9,4.8,72.9,4.3,73.2,4z"/>
	<path class="st3" d="M70.9,21.3c-0.2,0-0.4-0.2-0.4-0.4c0,0,0,0,0,0c0-0.2,0.2-0.4,0.4-0.4c0,0,0.1,0,0.1,0c0.2,0,0.3,0.2,0.3,0.4
		C71.3,21.1,71.1,21.3,70.9,21.3L70.9,21.3z"/>
</g>
</svg>
