<?xml version="1.0" encoding="utf-8"?>
<!-- Generator: Adobe Illustrator 21.0.2, SVG Export Plug-In . SVG Version: 6.00 Build 0)  -->
<svg version="1.1" id="Layer_1" xmlns="http://www.w3.org/2000/svg" xmlns:xlink="http://www.w3.org/1999/xlink" x="0px" y="0px"
	 viewBox="0 0 150 150.4" style="enable-background:new 0 0 150 150.4;" xml:space="preserve">
<style type="text/css">
	.st0{fill:#0B0706;}
	.st1{fill:#BF1324;}
	.st2{fill:#FC3A3B;}
	.st3{fill:#FDC312;}
</style>
<title>Artboard 1</title>
<g>
	<path class="st0" d="M89.6,104.9c1.3,1.8,2,3.8,2.7,5.9c2.4,7.2,4.8,14.5,9.2,20.8c1,1.4,0.9,2.1-0.3,2.5c-0.8,0.3-1.4,0.1-1.8-0.7
		c-0.2-0.6-0.4-1.2-0.5-1.8c-0.4-2.3-1.2-4.6-2.5-6.6c-2.1-3.4-3.3-7.2-4.5-10.9c-1.5-4.6-4.2-8.6-6.9-12.5c-0.4-0.7-1-1.3-2-1
		c1,1,1.7,2.3,2.4,3.6c1,1.8,1.9,3.6,2.8,5.4c1.1,2.1,1.8,4.4,2.3,6.7c1.6,7.5,3.3,15,7.1,21.7c0.7,1.3,0.6,1.9-0.4,2.3
		c-1,0.4-1.7,0-1.9-1c-0.1-0.4-0.2-0.8-0.2-1.2c-0.1-2.7-0.8-5.3-2-7.7c-1.9-3.9-2.4-8.1-3.5-12.2s-3.2-8.2-5.3-12
		c-0.1-0.2-0.3-0.4-0.5-0.6c-0.1-0.1-0.1-0.3-0.3-0.2c-0.2,0.1,0,0.2,0,0.3l3.4,8.7c0.6,1.6,0.9,3.2,1,4.9
		c0.4,6.4,1.7,12.6,3.2,18.8c0.4,1.5,1.1,3,1.7,4.5c0.2,0.6,0.5,1.2-0.1,1.7c-0.4,0.4-1.1,0.5-1.6,0.3c-0.7-0.2-1-0.9-0.9-1.5
		c0.4-4.2-1.1-8.1-2.1-12c-0.9-3.2-0.8-6.6-1.4-9.8c-0.8-4.1-2.3-8-3.9-11.8c-0.2-0.4-0.3-1-1-1c1.3,3.9,2.4,7.8,3.3,11.8
		c0.2,0.7,0.2,1.4,0.2,2.2c-0.4,6.4,0.3,12.8,1,19.1c0.2,2,1,3.9,1.5,5.8c0.1,0.5,0.3,1.1-0.3,1.5c-0.5,0.4-1.1,0.5-1.6,0.2
		c-0.5-0.2-0.7-0.6-0.8-1.1c0-0.2,0-0.4,0-0.5c0.8-3.9-0.1-7.7-0.8-11.5c-0.5-2.9-0.3-5.8-0.4-8.7c0-4.9-1.4-9.4-2.7-14
		c-0.2-0.7-0.7-1.3-1.3-1.7c-0.8-0.4-1-1.2-1-2s-0.3-0.8-0.9-0.7c-0.7,0.1-1.3,0.1-1.8-0.2c-1-0.4-1.4,0.1-2.2,0.6
		c-1.3,1-1.7,2.2-2,3.7c-0.2,1.4-0.6,2.8-1,4.1c-0.4,1.3-1.1,2.4-2.4,3.2c-0.4,0.2-0.4,0.5-0.4,0.9c0,4.3-1.7,7.5-5.8,9.2
		c-0.5,0.2-0.7,0.6-1,0.9c-2.1,2.5-4.4,4.8-7.4,6.3c-0.2,0.1-0.3,0.2-0.4,0.3c-1.9,2.6-4.7,3.5-7.7,4.1c-3,0.5-6,0.7-9,0
		c-0.6-0.2-0.7,0-0.8,0.6c-0.3,1.8,0,3.6,0.2,5.4c0.1,1,0.1,1.9-1,2.3H34c-0.8-0.6-0.7-1.4-0.5-2.2c0.6-1.9,1.2-3.8,1.4-5.8
		c0.1-0.5,0-0.8-0.5-0.9c-0.9-0.3-1.9-0.6-2.8-1c-0.6-0.2-0.7,0-0.7,0.5c0,1.2,0,2.3-0.1,3.5c0,0.6-0.3,1.2-0.9,1.3
		c-0.6,0.2-1.2,0.1-1.6-0.3c-0.5-0.5-0.3-1-0.1-1.5c0.5-1.2,0.9-2.3,1.4-3.4c0.1-0.3,0.4-0.7-0.2-0.9c-1.1-0.4-2.1-1-3.1-1.7
		c-0.2,0.9-0.2,1.7-0.4,2.5c-0.2,0.8-1,1.3-1.9,1s-1-0.9-0.6-1.9c0.1-0.4,0.3-0.7,0.6-1c0.9-1.2,1.2-2.3,0-3.5
		c-0.1-0.1-0.1-0.3-0.2-0.5c-0.1-0.2,0-0.8-0.6-0.7c-0.6,0.1-1.1-0.2-1.3,0.6c-0.3,1.2-1.8,1.2-2.4,0.4c-0.7-0.8-0.8-0.6-1.4-0.5
		c-2.8,0.2-5.6,0.4-8.5,0.2c-2.8-0.2-4.5-1.6-4.8-3.9c-0.1-0.9-0.1-1.9,0.1-2.8c0.5-2.6,1.3-3.4,4.1-3.6c0,0,0.1-0.1,0.1-0.1
		c-1.2-1.5-1.3-2.4-0.2-4c0.5-0.7,1.1-1.4,1.7-2.1c2.1-2.3,3.4-2.6,6.3-1.5c0,0.1,0.1,0.2,0.2,0.1c0.1-0.1,0-0.2-0.1-0.3
		c-0.7-2,0-3.8,2-4.6c2.6-1,5.1-0.9,7.5,0.9c0.1-1.6,0.7-2.8,2.2-3.2s1.6-1.4,2.1-2.5c-2.1,0-4.1-0.2-6.2-0.5
		c-7.8-1.2-14.2-5-19.8-10.1c-2.2-2-4-4.4-4.5-7.4c0-0.2-0.1-0.3-0.2-0.3V84c0.6-0.7,0.6-1.7,1.1-2.5c0.5-0.8,0.7-1.5,1.5-1.5
		c0.9,0,1,0.9,1.2,1.5c0.5,1.3,1.1,2.6,1.5,3.9c1.3,3.8,3.8,6.5,7.4,8.1c4.3,2,8.6,3.8,13.2,4.7c0.4,0.1,0.7,0.1,1.1,0.1h1.4l-1-0.8
		c-5.8-4.1-11.4-8.3-17.2-12.3c-1-0.7-1.9-1.5-2.5-2.5c-0.2-0.5-0.5-1-0.2-1.4c0.3-0.5,0.9-0.5,1.4-0.4c2.2,0.2,4.4,0.8,6.5,1.7
		c4.4,2,8.8,4.2,12.7,7.1c0.2,0.1,0.3,0.4,0.5,0.3c0.2-0.1,0.2-0.4,0.2-0.7c-0.2-1.1-0.4-2.2-0.6-3.2c-0.4-2-0.3-4,0.1-6
		c0.5-2.4,1.9-4,4-5.1c0.6-0.3,1-0.6,1.1-1.3s1-1.5,1.8-1.9c2.9-1.9,6.4-2.9,9.9-2.9c2.3,0,4.6-0.1,6.8-0.5c0.4,0,0.8-0.2,1.1-0.5
		c0.8-0.9,1.7-1.7,2.8-2.2c0.3-0.1,0.5-0.4,0.5-0.7c0-3.1,1-5.8,2.4-8.5c1.4-2.7,3.2-5.5,5.7-7.9c-1.1-0.2-2-0.6-2.6-1.4
		c-0.6-0.8-0.7-2.1-0.1-2.7c0.6-0.6,0.2-0.7-0.1-1C59.4,40.8,57,38,55,34.8c-3.7-6.1-7.5-12.1-9.7-18.9c-1.6-5-2.7-10.2-3.8-15.4
		c0-0.2,0-0.3,0-0.5c0.4,0.2,0.3,0.5,0.4,0.8c0.8,3.3,1.7,6.5,2.5,9.8c1.2,5,3.3,9.6,5.8,14c3.7,6.4,7.3,12.9,12.1,18.6
		c0.5,0.5,0.8,0.9,1.6,0.6c1.5-0.4,2.3,0.7,2.9,1.8c0.5,1.1,0.9,1.1,1.9,0.6c2.1-1,4.1-0.9,6.2,0.3l1.2,0.7c0.4-2.3,1.7-3.1,4-2.4
		c0.6,0.2,0.7-0.2,0.9-0.5c2.5-2.7,4.7-5.5,6.7-8.6c3.9-6.1,7.8-12.3,10.6-19c1.9-4.5,2.8-9.4,4.1-14.1c0.2-0.8,0.5-1.7,0.7-2.5
		c0.4,0.2,0.2,0.5,0.2,0.7c-1.4,6.3-2.5,12.8-5.3,18.7c-4.3,9.2-9.4,17.8-16.6,25.1c-0.5,0.5-0.6,0.9-0.1,1.5
		c1.5,2.1,1.2,2.6-1.3,3.1L79,49.5c2.5,4.8,2.7,10,2.2,15.2c-0.1,0.9-0.6,2-0.3,2.8c0.3,0.8,1.6,0.4,2.4,0.7c3.1,1.1,6,2.8,8.4,5.1
		c0.8,0.7,1.6,1,2.6,1c7.5-0.1,14.9,0.8,22.1,3.2c4.8,1.5,9.1,4,13.3,6.7c4.7,3.1,9.4,6.2,13.5,10.1c3.5,3.3,5.6,7.3,6.5,11.9
		c0,0.2,0,0.5,0.2,0.5v2.2c-0.9-0.1-1.5-0.8-2.1-1.3c-5.7-5-11.9-9.2-18.7-12.4c-4-1.9-8.4-3.1-12.8-3.5c-1-0.1-2-0.1-2.9,0.3
		c-0.9,0.5-0.9,0.6-0.2,1.3c6.3,5.9,13.5,10.4,21.2,14.1c3.6,1.7,7.2,3.3,10.8,5c-1.3,1.4-3,1.8-4.7,1.9c-6.7,0.5-12.8-0.8-18.4-4.8
		c-6.7-4.9-13-10.3-19-15.9c-0.5-0.5-1-0.7-1.7-0.6c-4.8,0.7-8.9-0.5-12.3-4.1l-6.4-7l-1-1.1c0,1.9,0,3.8,0,5.5
		c0,2.3-0.2,4.6-0.8,6.8c-0.1,0.5,0.1,0.8,0.3,1.3c0.5,0.9,1.2,1.4,2.1,2c0.8,0.6,1.1,1.2,1.6,1.8c1.3,1.8,2.5,3.6,3.6,5.4l-0.2,0.2
		l-1.9-2.5c-0.2-0.3-0.5-0.7-1-0.5c0-0.8-1.8-3.6-2.5-3.9c-0.2-0.1-0.4-0.1-0.6,0.1c-0.4,0.4-0.3,2.4,0.2,2.5c1,0.3,1.8,1.1,2.9,1.2
		c0,0.2,0,0.5,0.2,0.7c1.8,1.9,2.8,4.3,4.2,6.5c0.3,0.4,0.4,0.9,1.1,1.1c-0.3-1.4-1.1-2.6-1.6-3.8L89.6,104.9z M25.9,131.3
		L25.9,131.3c-0.1,0-0.2,0.1-0.3,0.2c-1.2,1.4-1.4,3.1-0.5,4.6c0.5-1,1-1.9,1.2-3c0.4-0.9,0.7-1.8,0.9-2.8c-0.5,0.3-0.9,0.4-1.1,0.8
		h0C26,131,25.9,131.1,25.9,131.3z M58.4,65.6c-0.1,0.2,0.1,0.3,0.3,0.3c1.4,1.1,2.8,2,4.6,2.3c2,0.9,4.2,0.8,6.3,1
		c2.8,0.2,5.6,0.4,8.4,0.3c1.4-0.1,1.6-0.2,1.7-1.6c0.1-2.5,0.3-4.9,0.4-7.4c0.2-4-0.2-7.8-3.1-10.9c-2.6-2.8-5.7-4.1-8.9-2
		c-0.1,0.1-0.3,0.1-0.2,0.3v-0.1h-0.1c-1.7,0.9-3.2,1.9-4.5,3.3c-1.2,1.1-2.2,2.5-2.8,4.1l-0.1,0.2h0c-0.3,0.3-0.5,0.7-0.5,1.1h0
		c-1.3,2.7-1.9,5.5-2.1,8.5c0,0.2,0,0.3,0.3,0.3h0.1v-0.1C58.1,65.7,58.3,65.7,58.4,65.6L58.4,65.6z M33.8,113.8L33.8,113.8
		c-0.2,0.2-0.3,0.4-0.3,0.7h0c-0.7,0.9-1,2-1.3,3.1c-0.5,0.7-0.5,1.6-0.7,2.4l-0.7,3.2c-0.9,1.8,0.3,3.2,0.9,4.7
		c0.1,0.2,0.2,0.3,0.4,0.2c0,0,0,0,0,0c0.2-0.1,0.3-0.3,0.3-0.5c0.2-1.6,0.6-3.2,0.7-4.8l0.1-3.3c0.3-2.2,1.2-4.2,1.9-6.3
		c0.2-0.5,0.5-1.1,0.7-1.7c0.3-0.5-0.1-0.4-0.3-0.5s-0.5-0.2-0.6,0.1l-0.4,1l-0.7,1.5C33.8,113.7,33.8,113.8,33.8,113.8z
		 M39.5,109.5c-1.3,0.6-1.8,2-1,2.8L39.5,109.5L39.5,109.5L39.5,109.5z M37.7,106.5c-0.8,0.9-1.3,1.9-1.8,2.9
		c-0.1,0.2-0.3,0.4,0,0.6s0.5,0.3,0.5,0C36.8,108.8,37.7,107.8,37.7,106.5l0.1,0.2l0.1,0L37.7,106.5z M31,111l-0.4,0.9
		c-0.8,1.6-1.4,3.3-1.9,5c-0.3,0.6-0.6,1.3-0.1,2l0.5,1.5l0.5,1.9c0.3-0.8,0.5-1.4,0.5-2c0.2-0.6,0.4-1.2,0.4-1.8
		c0.1-0.5,0.3-1,0.2-1.5c0.2-1.4,0.6-2.8,1.2-4.1c0.2-0.3,0.4-0.6,0.5-0.9c0.2-0.3,0.3-0.5,0.5-0.8c0.1-0.3,0.6-0.6,0.3-0.9
		c-0.4-0.3-1-0.3-1.4-0.1C31.3,110.1,31.2,110.6,31,111L31,111z M77,104.9c-0.7,0.6-0.9,1.5-1.4,2.3c-0.2,0.2-0.7,0.6-0.1,0.9
		c0.6,0.3,1,0.2,1.2-0.5C77,106.7,77.1,105.8,77,104.9L77,104.9c0.1,0,0.1,0,0.1-0.1L77,104.9z M27.3,112.1c-0.3,1.2,0,2.3,0.3,3.7
		c0.6-1.3,1.1-2.7,1.4-4.1c0.1-0.4,0.4-0.9,0.2-1.4C28.3,110.7,27.5,111.1,27.3,112.1z M78.8,45.3c-1.6,0-2.1,0.6-1.8,1.9
		c0.3,1.2,0.6,1.4,1.7,0.9c0.5-0.3,0.9-0.7,1.2-1.2C80.2,45.9,79.9,45.4,78.8,45.3z M38.1,101.6c-2.2,0.3-2.5,2.3-3.7,3.7
		c1,0.2,1.5,0,1.9-0.9C36.8,103.4,37.4,102.5,38.1,101.6l0.2,0C38.3,101.4,38.2,101.4,38.1,101.6z M62.6,46.6c0,0.7,0.3,1.1,1.1,0.8
		s1.3-0.6,1.6-1.4s0-1.5-1.1-1.6C62.5,44.6,62,45.2,62.6,46.6z M35.7,106.8c-1.9,2.6-3.5,5.4-3.9,8.7c1.8-2.5,2.5-5.7,4.4-8.2
		c0.7-0.6,1.1-1.4,2-1.7c0.5-0.2,0.7-0.6,1-1c0.5-0.6,0.4-1.5-0.2-2c-0.7-0.5-1,0.3-1.2,0.8C37,104.5,36.4,105.7,35.7,106.8z
		 M85.1,105.3c-0.5-1-1.1-2-1.7-2.9c-0.3-0.4-0.5-1.2-1.3-0.9c-0.4,0.1-0.6,1.5-0.3,2c0.3,0.5,0.5,0.8,0.8,0.9
		c1,0.3,1.5,1.1,2.2,1.7c0.7,0.6,0.9,1.4,1.3,2.1c0.8,1.6,1.5,3.3,2.2,5c0.3,0.7,0.3,0.7,1,1.1C88.7,110.9,87,108.1,85.1,105.3
		L85.1,105.3z M37.5,110.7c0.6-0.7,1-1.5,1.8-2c0.9-0.5,1.4-1.1,0.9-2.4c-0.1-0.3-0.2-0.7-0.6-0.8c-0.4-0.1-0.6,0.3-0.8,0.7
		c-0.7,1.3-1.3,2.7-1.9,4.1c-1.5,2.7-2.8,5.5-2.9,8.8C35.7,116.5,36,113.3,37.5,110.7L37.5,110.7z M39.3,114.4
		c0.6-0.6,0.8-1.5,1.6-2s1.2-1.2,0.6-2.4c-0.2-0.3-0.3-0.7-0.7-0.8c-0.4,0-0.6,0.4-0.7,0.7c-0.6,1.2-0.9,2.6-1.3,3.9
		c-1.2,3-2.4,6.1-2.1,9.5C37.9,120.4,38,117.2,39.3,114.4L39.3,114.4z M34.8,102.3c-0.2,0.3-0.5,0.6-0.8,0.9
		c-0.5,0.4-0.6,1.2-1.3,1.3c0.1-0.8,0.9-1.3,1.1-2.1l1.1-1.6l1.8-2.4c-1.7,0.1-3.2-0.3-4.5,0.7c-0.5,0.3-1.1,0.4-1.7,0.7
		c-1.4,0.2-2.9,0.2-4.3,0c-5.6-1.1-10.8-3.2-15.7-6c-1.7-1-3.2-2.3-4.1-4.2s-1.7-3.5-2.2-5.3c-0.2-0.8-0.5-1.6-0.9-2.3
		C2.8,81,2.4,81,1.9,81.8c-0.6,0.9-1,2-1,3.1c-0.1,2.7,0.8,5.3,2.2,7.5c2.7,4.2,6.7,7,11,9.3c1,0.6,2,1.1,3.1,1.4
		c0.1,0.1,0.2,0.2,0.3,0.2c2.9,1.1,5.9,1.8,9,2.2c1.8,0.2,3.7,0.5,5.5-0.2c0.3,0.5-0.2,0.7-0.3,1c-0.6,1.2-1.1,2.4-1.5,3.7
		c2-2.2,3-5.1,4.9-7.3c0.8-0.6,1.4-1.4,2.3-1.7c1.3-0.4,1.5-0.7,1.4-2.1c0-0.4,0-0.9-0.5-1c-0.5-0.1-0.7,0.2-0.9,0.5
		C36.6,99.7,35.7,101,34.8,102.3L34.8,102.3z M82.6,113.6c-0.5-1.5-1-3.1-1.5-4.6c-0.2-0.4-0.3-1-0.9-0.8c-0.7,0.2-1.1,2.3-0.5,2.7
		c1.2,0.7,1.7,1.8,2.3,2.8c0.9,2.4,1.2,4.9,1.8,7.4c0.1,0.5,0.2,0.9,0.7,1.3C84.5,119.2,83.8,116.3,82.6,113.6z M84.2,109.7
		c-0.7-1.5-1.3-3-2-4.5c-0.2-0.4-0.4-0.9-1-0.6c-0.6,0.3-0.8,2.4-0.2,2.7c1.4,0.6,2.1,1.9,2.9,3c1.1,2.6,1.6,5.3,3,7.8
		C86.9,114.9,85.7,112.3,84.2,109.7L84.2,109.7z M34.5,122.8l-0.1,0.6c-0.2,1.2-0.3,2.4-0.4,3.6c0,0.4-0.2,0.9,0.5,0.7
		c0.7-0.2,1.3,0.4,1.4-0.6c0.2-1.7,0.1-3.5,0.2-5.3c0.5-2.5,1.3-4.9,1.9-7.3c0.2-0.7,0.2-1.3-0.4-1.9c-1.2,3.2-2.4,6.3-3,9.6
		L34.5,122.8z M26.7,135.6c-0.5,1.2-0.1,1.8,1,2.4c2.6,1.3,2.7,1.2,3.1-1.7c0.2-0.7,0.5-1.4,0.4-2.2c0.4-1.7,0.8-3.5,1-5.3
		c-3.2,0.7-3.2,0.7-4.3,3.5l-0.2,0.6C27.2,133.9,26.9,134.7,26.7,135.6z M35.5,136.5c0.1-1,0.3-2.1,0.2-3.1c0.1-1.5,0.2-3,0.3-4.6
		c0-0.2,0.1-0.5-0.2-0.6c-0.8-0.3-2,0.4-2.2,1.3c-0.3,1.6-0.6,3.2-1,4.7l-0.7,2.2c-0.2,0.5-0.4,1-0.4,1.6c-0.5,1.3-0.5,1.3,0.8,1.7
		l2.2,0.6c0.5,0.1,0.7,0,0.8-0.6C35.4,138.8,35.4,137.7,35.5,136.5z M95.3,90.5h0.2c0.2,0.2,0.4,0.2,0.7,0.2c4.3,0.5,8.7,0.3,13-0.7
		c1.6-0.4,3.3-0.5,5-0.4c2,0.2,4,0.7,6,1c3.3,0.9,6.5,1.9,9.6,3.4c6.5,3.3,12.7,7.2,18.4,11.8c-0.3-1.8-0.9-3.5-1.7-5.1
		c-2.4-4.6-6.3-7.7-10.5-10.4c-0.9-0.6-1.6-1.4-2.7-1.7c-2.8-2.1-5.6-4.1-8.6-5.9c-1.7-1-3.3-2.1-5.2-2.6c-1.5-0.8-3-1.5-4.8-1.5
		c-0.2-0.3-0.5-0.3-0.8-0.4c-3.1-0.8-6.3-1.5-9.5-2c-1.8-0.3-3.5-0.8-5.3-0.7c-1.8-0.5-3.5-0.5-5.3-0.2c-1,0.7-1.4,1.8-1.7,2.9
		c-0.7,2.2-0.8,4.6-0.6,6.9C91.3,87.9,92.8,89.9,95.3,90.5z M85.5,71.1c-1.5-0.7-3-1.5-4.8-1.8l0.7,4.4c-0.1,0.9,0.2,1.7,0.2,2.6
		v0.9c-0.2,1,0.2,2,0.9,2.7c0.7,0.7,1.4,1.5,2.1,2.3c1.7,2.1,3.7,4,5.7,5.8c-0.9-2.6-0.7-5.1-0.4-7.7c0.3-1.2,0.7-2.4,0.9-3.6
		c0.2-1.2,1.4-1.8,0.8-2.7c-0.6-0.8-1.7-1-2.6-1.5l-0.2-0.1l-0.7-0.3C87.2,72,86.5,71.3,85.5,71.1L85.5,71.1z M21.8,121.4
		c0.7,1.1,1.5,1.9,2.4,3c0.7-1.7,1.3-3.4,2.1-5c1-1.9,0.7-3.6-0.3-5.3c-0.6-1-1.6-1.5-2.7-1.7c-0.8-0.3-1.7-0.5-2.5-0.4
		c-1.2,0.1-2.3,0.2-2.7,1.7c-0.5,0.7-0.5,1.4-0.2,2.1c0.4,1,1,2,1.7,2.8c0.3,0.6,0.8,1.2,1.3,1.7C21.1,120.7,21.5,121,21.8,121.4z
		 M37.3,71.8c-0.6,0.4-1,1-1.2,1.7c-0.6,1.2-0.7,2.5-0.1,3.8c0.9,2.1,2,2.7,4.2,2.3c2.9-0.6,5.6-1.7,8.4-2.6
		c0.4-0.1,0.5-0.4,0.6-0.8c0.5-1.4,0.9-2.7,1.4-4.1l1.6-2.8c-0.8,0-1.4-0.1-2,0.1c-1.3,0-2.5,0.1-3.7,0.4L43.8,70l-0.7,0.1H43
		L43,70.2l-0.2,0.1C40.8,70.3,38.9,70.5,37.3,71.8z M39.7,131.3c0.4,0.7,0.9,1.3,1.5,1.9c0.1,0.2,0.2,0.3,0.4,0.5
		c2.3,2.6,5.4,3,8.6,3.2c1.9,0.3,3.8,0,5.3-1.2c1.6-1.2,3-2.3,4.3-3.7c0.2-0.2,0.5-0.4,0.5-0.9c-1.5,0.3-3,0.2-4.4,0.3
		c-2.8-0.2-5.6-0.4-8.2-1.3l-2-0.9l-2-1.1c-1.7-1.1-3.2-2.4-4.1-4.2c-0.2-0.3-0.3-0.3-0.5-0.2l-0.8,0.7c-0.9,0.7-1.2,3.4-0.5,4.3
		C38.3,129.7,39,130.4,39.7,131.3z M13,117.3l-0.2-0.1c-1.5,0.7-2.6,1.9-3.5,3.1s-0.9,2.5,0.3,3.3c0.7,0.5,1.3,1,2.1,1.2l2.4,1
		l4.6,2.3c0.7,0.6,1.6,0.9,2.4,1.3c0.2,0.1,0.5,0.2,0.7-0.1c0.8-1.2,1.5-2.6,1.8-3.9c0.2-0.8-1-1.6-1.6-2.3c-1-1.4-2-2.8-3.4-3.9
		c-0.6-0.6-1.2-1.3-2.1-1.7c-0.8-0.7-2-0.9-3.1-0.6C13.3,117.1,13.1,117,13,117.3z M50.2,120.8L50.2,120.8l-3.1-1.4
		c-1.8-0.9-3.3-2.2-4.6-3.8l-1.2-1.8c-1.3,2.4-1.7,5.2-1.2,7.9c0,1.1,0.6,1.9,1.3,2.7c1.9,2.2,4.3,3.8,7.1,4.6c1,0.3,2,0.7,3,0.5
		c0.2,0.1,0.3,0.2,0.5-0.1c0,0.4,0.3,0.4,0.5,0.4c2.4,0.2,4.8,0.4,7.1,0c2.4-0.4,4.4-1,5.6-3.3c0.8-1.5,1.6-3.1,1.5-5.1
		c-2.6,1.2-5.2,1.5-7.9,1.4l-1.1-0.1h-0.6l-5.1-1.3c-0.5-0.4-1.1-0.5-1.7-0.6C50.3,120.8,50.3,120.7,50.2,120.8L50.2,120.8z
		 M5.3,129.7c-0.1,1.1,0.1,2,1,2.7s1.6,0.9,2.4,1c2.9,0.6,5.8,0.2,8.7,0.2c1.2,0.3,1.9-0.3,2.5-1.3c1.4-2.2,1.4-2.1-0.9-3.1
		l-3.7-1.9c-0.4-0.3-0.8-0.5-1.3-0.6c-0.7-0.4-1.4-0.7-2.2-0.9c-1.7-0.6-3.3-0.8-5-0.2C5.4,126.7,5.3,128.2,5.3,129.7z M36.6,80.2
		c-1.4-0.8-2.4-2.2-2.8-3.8c-0.3-0.9-0.7-0.8-1.2-0.4l-0.5,0.4c-1.7,1.5-2.6,3.4-2.6,5.7c-0.2,0.7,0,1.4,0,2.2
		c0.1,0.7,0.1,1.3,0.2,2c0.1,1.6,0.3,3.2,0.6,4.8c0.2,1.4,0.5,2.9,1.1,4.2c0.4,1,1.3,1.7,2.4,1.8c1.2,0.2,2.4,0.2,3.6,0
		c0.9-0.2,1.8-0.2,2.1-1.4c0.1-0.3,0.5-0.5,0.8-0.7c0.3-0.2,0.9-0.8,1.1-1.4c0.7-2.7,1-5.4-0.1-8.1c-0.3-1.2-0.9-2.4-1-3.6
		s-0.8-1.4-1.7-1.2L36.6,80.2z M44.7,110.1l-1.8,0c-0.2,0-0.5-0.1-0.5,0.3c0,0.4-0.3,1.1-0.1,1.7c0.3,1.2,0.9,2.2,1.7,3.2
		c0.8,0.9,1.5,1.6,2.5,2.2c2.8,1.5,5.7,2.8,8.8,3.6c3.5,0.9,7,1.1,10.4-0.6c2.1-1.1,4.2-2.2,4.6-5c0.2-1.1,0.3-2.2,0.4-3.3
		c0.1-0.5-0.1-0.6-0.6-0.5c-1.5,0.4-3.1,0.6-4.6,0.8c-3.6,0.3-7.2,0.1-10.6-0.7l-1.6-0.4c-1-0.3-1.9-1-3-1.1
		C48.5,110.1,46.6,109,44.7,110.1z M37.1,135.8c-0.1,0.7-0.2,1.4-0.3,2.1c-0.1,0.7-0.8,2.1-0.3,2.8c0.5,0.7,1.9,0.4,2.9,0.6
		c3.7,0.4,11-1.4,12.5-3.1l-2.2-0.2c-2.3-0.2-4.6-0.9-6.8-1.7c-1.9-1.3-3.3-3-4.7-4.8l-0.9-1.4C37.3,132.2,37.4,134,37.1,135.8z
		 M122.3,101.6l-2.5-1.7l-3.2-2.4c-1.8-1.5-3.7-3-5.1-4.9c-0.8-1-1.6-1.3-2.8-1c-1.2,0.3-2.8,0.2-4.2,0.9c3.3,3.6,6.7,7,10.5,9.9
		c0.8,0.8,1.7,1.5,2.6,2.1c2.1,1.8,4.4,3.4,6.8,4.8c1.4,1,3,1.7,4.6,2.2c3.8,1.3,7.8,1.4,11.7,1c0.8-0.1,1.7,0,2.6-0.4
		c-5.1-1.7-9.8-4.1-14.4-6.7c-0.2-0.1-0.3-0.3-0.6-0.2C126.3,103.9,124.3,102.8,122.3,101.6z M17.1,88.6c4.2,3,8.5,5.7,12.4,9
		c0.7,0.6,0.8,0.5,1.8,0c-1-1-1.4-2.3-1.7-3.6c-0.1-0.5-0.2-1-0.6-1.3c-3.4-2.9-7-5.7-11.1-7.5c-2.3-1.2-4.7-2.2-7.2-3
		C10.2,81.9,9.4,81.4,9,82c-0.3,0.6,0.4,1.2,0.9,1.6C12.3,85.4,14.6,87,17.1,88.6z M62.4,69.4c-1.6-0.6-3.1-1.6-4.3-2.8
		c-0.5-0.5-0.9-0.6-1.4-0.1c-2.2,2-3.8,4.3-5.1,6.9c-1,2-1.5,4.2-2.2,6.3c0,0.2-0.1,0.5-0.2,0.7c-0.9,3.5-1.7,7-2.3,10.6
		c-0.2,1.2-0.4,2.5-0.7,3.7s0.1,1.1,0.9,1.3c1.3,0.4,2.5,0.8,3.4,1.9c0.9,1,1.1,1.7,0.6,2.8c-0.1,0.2-0.3,0.4-0.1,0.6
		c0.6,0.6,0.7,1.5,1.1,2.2c0.7,1.2,0.8,2.6,1.6,3.7c0.2,0.2,0.1,0.7-0.1,0.9c-0.5,0.9,0,1.1,0.7,1.3c4.3,1.2,8.8,1.5,13.3,1
		c4-0.4,6.9-2.3,8.3-6.2c1.3-3.4,2.5-6.8,3.4-10.3c0.9-3.5,1.5-6.8,1.5-10.3V80c0-1.2,0-2.5-0.4-3.6c0-0.2,0-0.4-0.3-0.4h0.1v-0.1
		c0.1-1.7-0.3-3.4-0.8-5c-0.1-0.4-0.4-0.3-0.7-0.3c-2.8,0.2-5.6,0-8.5,0.1C67.5,70.5,64.9,70.1,62.4,69.4L62.4,69.4z M48.6,78.1
		c-1.5,0.5-2.9,0.9-4.3,1.4c-0.9,0.4-2.3,0-2.6,1.2c-0.3,1.2,0.2,2.1,0.5,3.1c0,0.1,0.1,0.3,0.2,0.4c1.3,3.3,1.3,6.7,0.5,10.2
		c0.2,0,0.4,0,0.7,0c1,0.1,1.5-0.2,1.5-1.3c0.1-1.5,0.5-3,0.9-4.5C46.9,85.2,47.7,81.7,48.6,78.1L48.6,78.1z M47.7,105.3l-1.7,0.2
		c-2.5,0.3-2.6,0.1-2,2.9c0.2,0.8,0.6,1.1,1.4,0.8c0.8-0.3,1.4-0.5,2-0.2c1.4,0.7,2.8,0.3,4.2,0c0.9-0.2,1.2-0.8,1.1-1.6
		c-0.1-0.8-0.8-1.4-1.5-1.6C50.3,105.5,48.9,105.4,47.7,105.3L47.7,105.3z M50.4,99.7c-0.1-0.7-0.4-1.3-1-1.7c-1.5-1.1-3.2-1.6-5-2
		c-1.8-0.3-2.1-0.3-2.4,1.7c-0.2,0.8,0,1.2,1,1.4c2.2,0.3,4.4,0.6,6.5,1.4C50.3,100.8,50.2,100.1,50.4,99.7L50.4,99.7z M45.7,102.3
		c-2.5,0-2.6,0.1-2.5,1.9c0,0.7,0.4,0.9,1,0.8c2.3-0.3,4.7-0.3,7,0c0.6,0.1,0.6-0.2,0.4-0.6s-0.9-1.1-1.6-1.4
		C48.5,102.6,47,102.4,45.7,102.3L45.7,102.3z M27.8,128.4c1.6-3.8,1.5-5.1,0-8.7c-0.7,1.8-1.5,3.6-2.5,5.4
		c-0.2,0.2-0.1,0.5,0.1,0.7L27.8,128.4z M50.6,102.5c-0.3-0.9-1-1.2-1.7-1.5c-1.9-0.8-3.9-1.2-5.9-1.1c-0.6,0-1,0.1-1,0.9
		s0.4,0.8,1,0.9C45.5,101.7,48,101.9,50.6,102.5z M26.8,129.2l-2.2-2.8c-0.5,1-1,1.8-1.4,2.7c-0.2,0.4-0.7,0.9-0.1,1.2
		s1.2,0.6,1.8,0C25.5,129.8,26.1,129.5,26.8,129.2z M32.2,109c1.8,0.3,2,0.1,2.6-2.1C33,106.4,32.8,107.9,32.2,109L32.2,109z
		 M22.1,133.3c1,0.3,1.3-0.2,1.6-1c0.3-0.8-0.2-0.9-0.6-1.1c-0.8-0.3-0.5,0.4-0.7,0.7C22.3,132.4,22.2,132.8,22.1,133.3L22.1,133.3z
		 M29.5,128.3c0.3,0.2,0.8,0.2,0.9,0c0.1-0.2-0.2-1-0.4-1.5L29.5,128.3z M38.1,121.8l-0.3,1.7C38.3,123.1,38.5,122.5,38.1,121.8
		L38.1,121.8z"/>
	<path class="st0" d="M88.6,103.5l0.6,0.8l-0.2,0.2l-0.6-0.7L88.6,103.5z"/>
	<path class="st0" d="M89.2,104.3l0.4,0.6l-0.2,0.2l-0.4-0.7L89.2,104.3z"/>
	<path class="st1" d="M80.3,76.4c0.4,1.2,0.4,2.4,0.4,3.6c-0.4,1.2-0.4,2.5,0,3.7c0,3.5-0.7,6.9-1.5,10.3c-0.8,3.4-2.1,6.9-3.4,10.3
		c-1.4,3.9-4.3,5.8-8.3,6.2c-4.4,0.5-8.9,0.1-13.3-1c-0.7-0.2-1.2-0.4-0.7-1.3c0.1-0.3,0.2-0.7,0.1-0.9c-0.8-1.1-0.9-2.5-1.6-3.7
		c-0.4-0.7-0.5-1.6-1.1-2.2c-0.2-0.2,0-0.4,0.1-0.6c0.5-1.1,0.2-1.9-0.6-2.8s-2.1-1.5-3.4-1.9c-0.7-0.2-1.1-0.4-0.9-1.3
		c0.3-0.9,0.5-2.5,0.7-3.7c2.9,0.5,5.9,0.6,8.9,0.3c5-0.5,9.5-2.2,13.7-4.8c4.2-2.6,7.2-5.8,9.7-9.8c0.2-0.4,0.3-0.9,1-0.9V76h-0.1
		L80.3,76.4z"/>
	<path class="st2" d="M80.2,75.9c-0.7-0.1-0.7,0.5-1,0.9c-2.6,3.9-5.7,7.3-9.7,9.8c-4,2.5-8.7,4.3-13.7,4.8
		c-2.9,0.3-5.9,0.2-8.9-0.3c0.6-3.6,1.4-7.1,2.3-10.6c0.1-0.2,0.1-0.5,0.2-0.7c0-0.2,0.5-0.4,1-0.3c1.7,0.2,3.4,0.2,5.1-0.1
		c4.7-0.8,8.9-3.2,12-6.8c0.8-0.9,1.3-2.1,2.8-1.9c2.8-0.1,5.7,0.1,8.5-0.1c0.3,0,0.6,0,0.7,0.3C79.8,72.6,80.2,74.2,80.2,75.9z"/>
	<path class="st2" d="M68,47.6c3.2-2.1,6.3-0.8,8.9,2c2.9,3.1,3.2,6.9,3.1,10.9c-0.1,2.5-0.2,4.9-0.4,7.4c-0.1,1.5-0.2,1.5-1.7,1.6
		c-2.8,0.2-5.6,0-8.4-0.3c0-0.2,0.1-0.4,0.1-0.6c0.9-2.1,1.7-4.1,1.9-6.4c0.1-1-0.2-2.1,0.5-2.9c2.1-0.3,3.6-1.4,4.2-3.6
		C75,56.5,74,57.6,72.6,58c-0.3-0.5-1.2,0.2-1.3-0.9c-0.2-2.7-1.3-5.1-2.7-7.4c-0.3-0.6-0.8-1.1-0.9-1.8h0.1v0.1L68,47.6z"/>
	<path class="st2" d="M93.6,75.3c1.8-0.3,3.6-0.3,5.3,0.2c0.4,0.2,0.9,0.4,0.8,1.1c0,0.5,0,1,0.2,1.5c1,3.1,3,5.2,6.3,5.6
		c3.3,0.5,5.4-0.9,7.2-3.3c0.5-0.6,0.5-1.4,1.1-1.9c1.7,0.1,3.2,0.8,4.8,1.5c0,0.7-0.2,1.3-0.5,2c-0.8,1.5-1.9,2.9-3.2,4.1
		c-2.3,2-5.3,3.1-8.4,3.1c-2.2,0-4.4-0.6-6.3-1.8c-4-2.5-6.3-6-6.4-10.8C94.4,75.8,94.2,75.4,93.6,75.3z"/>
	<path class="st2" d="M93.6,75.3c0.7,0.2,0.9,0.6,0.9,1.3c0.2,4.8,2.4,8.2,6.4,10.8c1.9,1.2,4,1.8,6.3,1.8c3.1,0,6.1-1,8.4-3.1
		c1.3-1.1,2.4-2.5,3.2-4.1c0.3-0.6,0.6-1.2,0.5-2c1.9,0.5,3.6,1.5,5.2,2.6c-1.1,2.5-2.5,4.8-4.5,6.7c-0.5,0.5-0.2,0.8,0.1,1.2
		c-2-0.3-4-0.9-6-1c-1.7-0.1-3.3,0-5,0.4c-4.3,1-8.6,1.2-13,0.7c0-0.4-0.1-0.9-0.5-1.2c-1.4-1.4-2.7-2.8-3.7-4.5
		c-0.3-0.6-0.6-0.5-0.9,0.1c-0.2-2.3,0-4.6,0.6-6.9C92.2,77,92.5,75.9,93.6,75.3z"/>
	<path class="st1" d="M14.1,101.7c-4.3-2.3-8.3-5.1-11-9.3c-1.5-2.2-2.3-4.8-2.2-7.5c0-1.1,0.4-2.2,1-3.1C2.5,81,2.8,81,3.2,81.9
		c0.3,0.8,0.6,1.5,0.9,2.3c0.6,1.9,1.4,3.6,2.2,5.3s2.4,3.1,4.1,4.1c4.9,2.8,10.1,4.9,15.7,6c-0.1,0.4,0.5,0.3,0.5,0.8
		c-1.3,0-2.6,0.2-4,0.2c-2.5,0.1-5.1,0-7.6,0.2C14.6,101,14.2,101.1,14.1,101.7z"/>
	<path class="st2" d="M70.2,70.7c-1.5-0.1-2,1-2.8,1.9c-3.1,3.6-7.3,6-12,6.8c-1.7,0.3-3.4,0.3-5.1,0.1c-0.5-0.1-0.6,0.3-1,0.3
		c0.7-2.1,1.2-4.3,2.2-6.3c2.6-0.1,5.2-0.5,7.6-1.9c1.2-0.7,1.9-1.8,3.2-2.2C64.9,70.1,67.5,70.5,70.2,70.7z"/>
	<path class="st1" d="M133.2,88.5c1.1,0.2,1.9,1.1,2.7,1.7c4.2,2.8,8.1,5.8,10.5,10.4c0.9,1.6,1.4,3.3,1.7,5.1
		c-5.7-4.6-11.9-8.5-18.4-11.8c0-0.3,0.1-0.6,0.3-0.8c0.9-1.4,1.8-2.7,2.6-4.2C132.7,88.7,132.9,88.6,133.2,88.5z"/>
	<path class="st1" d="M65.6,112.4c1.5-0.2,3.1-0.3,4.6-0.8c0.5-0.2,0.7-0.1,0.6,0.5c-0.2,1.1-0.3,2.2-0.4,3.3
		c-0.4,2.7-2.5,3.9-4.6,5c-3.4,1.7-6.9,1.5-10.4,0.6c0-0.5,0.3-0.8,0.7-1c2.1-1.4,3.9-3.1,4.9-5.4c0.7-1.5,1.5-2.1,3.1-1.9
		C64.5,112.8,65.2,113.1,65.6,112.4z"/>
	<path class="st2" d="M60.4,55.4c0.6-1.6,1.6-3,2.8-4.1c1,1,1.4,2.3,2.2,3.4c0,0.2-0.1,0.4,0.2,0.3h0c-0.1,0.9,0.6,1.6,0.9,2.4
		c-0.4,0.3-0.6,0.9-0.4,1.4c0.4,1.2,0,2.4-0.2,3.6c-0.3,2.2-1.3,4.2-2.7,5.9c-1.7-0.3-3.2-1.2-4.6-2.3l-0.3-0.3h0l-0.3-0.2v0.1h0
		c0.3-0.5-0.1-1.2,0.4-1.5s0.7-0.9,0.9-1.4c0.8-1.9,0-3.9,0.5-5.9h0c0.5-0.2,0.5-0.7,0.5-1.1h0C60.5,55.6,60.6,55.5,60.4,55.4z"/>
	<path class="st2" d="M65.6,112.4c-0.4,0.7-1.1,0.4-1.5,0.3c-1.6-0.2-2.4,0.3-3.1,1.9c-1,2.3-2.9,3.9-4.9,5.4
		c-0.4,0.3-0.7,0.5-0.7,1c-3.1-0.8-6-2-8.8-3.6c-1-0.5-1.9-1.2-2.5-2.2c0.5-0.6,0.9-0.1,1.4,0c3.1,0.5,6,0.1,8.2-2.3
		c0.4-0.4,0.8-0.9,1.3-1.2C58.5,112.5,62.1,112.7,65.6,112.4z"/>
	<path class="st1" d="M41.1,85.5c1,2.7,0.8,5.4,0.1,8.1c-0.2,0.6-0.6,1-1.1,1.4s-0.7,0.5-0.8,0.7c-0.3,1.2-1.2,1.2-2.1,1.4
		c-1.2,0.2-2.4,0.2-3.6,0c-1.1-0.1-2-0.8-2.4-1.8c-0.6-1.3-0.9-2.8-1.1-4.2c0.3-0.3,0.5-0.7,1.2-0.7c3.6,0.1,6.5-1.4,8.7-4.2
		C40.4,85.9,40.7,85.6,41.1,85.5z"/>
	<path class="st2" d="M114.5,78.5c-0.7,0.5-0.7,1.3-1.1,1.9c-1.8,2.4-4.1,3.7-7.2,3.3c-3-0.4-5.3-2.5-6.3-5.6
		c-0.2-0.5-0.2-1-0.2-1.5c0.1-0.7-0.4-0.9-0.8-1.1c1.8-0.1,3.6,0.4,5.3,0.7c3.2,0.5,6.3,1.1,9.5,2C114,78.2,114.4,78.2,114.5,78.5z"
		/>
	<path class="st2" d="M133.2,88.5c-0.3,0.1-0.5,0.2-0.6,0.5c-0.7,1.5-1.7,2.8-2.6,4.2c-0.2,0.2-0.3,0.5-0.3,0.8
		c-3.1-1.5-6.3-2.4-9.6-3.4c-0.3-0.4-0.6-0.7-0.1-1.2c2-1.9,3.4-4.2,4.5-6.7C127.5,84.5,130.4,86.4,133.2,88.5z"/>
	<path class="st1" d="M58.8,122.8c2.7,0.1,5.3-0.2,7.9-1.4c0.1,2-0.7,3.6-1.5,5.1c-1.2,2.3-3.3,2.9-5.6,3.3c-2.3,0.4-4.8,0.2-7.1,0
		c0-0.4-0.3-0.4-0.5-0.4s-0.3,0.2-0.5,0.1c-0.1-0.8,0.6-0.9,1.1-1.2c2-1.5,3.7-3.1,4.6-5.5h0.6C58.1,123.1,58.5,123.1,58.8,122.8z"
		/>
	<path class="st1" d="M128.2,105.3c0.2-0.1,0.4,0.1,0.6,0.2c4.6,2.6,9.3,5,14.4,6.7c-0.9,0.4-1.8,0.4-2.6,0.4c-4,0.3-7.9,0.3-11.7-1
		c-1.6-0.5-3.2-1.2-4.6-2.2c-0.1-0.5,0.2-1,0.7-1.3c0.9-0.6,1.5-1.4,2.3-2.1C127.5,105.7,127.7,105.3,128.2,105.3z"/>
	<path class="st2" d="M57.1,122.7c-0.9,2.4-2.6,4-4.6,5.5c-0.4,0.3-1.2,0.4-1.1,1.2c-1.1,0.2-2.1-0.2-3-0.5
		c-2.7-0.8-5.2-2.4-7.1-4.6c0.3,0,0.6,0.1,0.9,0.2c2.7,0.9,5.2,0.5,7.5-1.2c0.8-0.6,1.2-1.5,2.2-1.9L57.1,122.7z"/>
	<path class="st2" d="M63.3,68.2c1.4-1.7,2.4-3.7,2.7-5.9c0.2-1.2,0.6-2.4,0.2-3.6c-0.2-0.5,0-1.1,0.4-1.4c1.6,1.4,3.4,2.5,5.6,2
		c-0.7,0.9-0.4,1.9-0.5,2.9c-0.2,2.3-1,4.3-1.9,6.4c-0.1,0.2-0.1,0.4-0.1,0.6C67.4,69,65.3,69.1,63.3,68.2z"/>
	<path class="st2" d="M17.9,85.1c4.1,1.9,7.7,4.6,11.1,7.5c0.4,0.4,0.5,0.9,0.6,1.3c0.3,1.3,0.7,2.6,1.7,3.6c-1,0.6-1.1,0.6-1.8,0
		c-3.9-3.3-8.2-6-12.4-9c0.5,0,0.6-0.4,0.6-0.8C17.6,86.8,17.6,85.9,17.9,85.1z"/>
	<path class="st2" d="M41.1,85.5c-0.5,0.1-0.7,0.5-1,0.8c-2.2,2.9-5.1,4.3-8.7,4.2c-0.7,0-0.9,0.4-1.2,0.7c-0.3-1.6-0.5-3.2-0.6-4.8
		c0.3-0.3,0.5-0.4,0.9-0.3c2.8,0.6,6.3-1.2,7-4.3c0.1-0.4,0.4-0.8,0.8-1.1c1-0.2,1.5,0,1.7,1.2C40.3,83.1,40.8,84.3,41.1,85.5z"/>
	<path class="st2" d="M88.8,72.7l0.2,0.1c0.9,0.5,2.1,0.8,2.6,1.5s-0.6,1.7-0.8,2.7c-0.2,0.9-0.6,2.4-0.9,3.6
		c-0.3-0.5-0.7-0.4-1.2-0.1c-1,0.7-2.1,1.2-3.3,1.4c-0.3,0-0.6,0.2-0.8,0.5c-0.7-0.8-1.4-1.6-2.1-2.3c-0.7-0.7-1.1-1.7-0.9-2.7
		c0.7,0,1.4,0,2.2-0.1C86.4,76.6,87.9,75,88.8,72.7z"/>
	<path class="st2" d="M46.4,69.7c1.2-0.3,2.5-0.4,3.7-0.4c0,0.9-0.2,1.8,0.4,2.6c-0.5,1.4-1,2.7-1.4,4.1c-0.1,0.3-0.2,0.6-0.6,0.8
		c-2.8,0.9-5.5,2.1-8.4,2.6c-2.2,0.4-3.2-0.2-4.2-2.3c0.5-0.3,1-0.1,1.4,0.1c3.3,1.6,7.4-0.7,8.5-3.9C46.3,72.2,46,70.9,46.4,69.7z"
		/>
	<path class="st2" d="M47.5,130c2.7,0.9,5.5,1.2,8.2,1.3c-0.7,0.4-1.5,0.2-2.2,0.2c-0.7,0-0.9,0.2-1.1,0.7c-0.5,1.1-1.4,2-2.2,2.9
		s-1.1,1-0.1,1.8c-3.2-0.2-6.3-0.6-8.6-3.2c-0.1-0.2-0.3-0.3-0.4-0.5c0.1-0.2,0.4-0.4,0.6-0.3c1.6,0.1,2.9-0.7,4.2-1.5
		C46.6,130.9,46.8,130.2,47.5,130z"/>
	<path class="st1" d="M32.1,105.3c-1.8,0.7-3.7,0.3-5.5,0.2c-3.1-0.4-6.1-1.1-9-2.2c-0.1-0.1-0.2-0.1-0.3-0.2c0-0.5,0.3-0.6,0.7-0.6
		c1,0,2-0.1,3-0.2c3-0.2,5.9-0.2,8.9-0.2c0.9,0,1.7,0,2.6-0.2c0.4-0.1,1.2-0.4,1.4,0.5c-0.2,0.8-1,1.2-1.1,2.1l0,0
		C32.3,104.6,32.2,104.9,32.1,105.3L32.1,105.3z"/>
	<path class="st2" d="M65.4,54.6c-0.8-1.1-1.2-2.4-2.2-3.4c1.2-1.5,2.8-2.5,4.5-3.4c0.1,0.7,0.5,1.2,0.9,1.8
		c1.4,2.3,2.4,4.7,2.7,7.4c0.1,1.1,1,0.4,1.3,0.9c-0.5,0.2-1.1,0.3-1.6,0.2c-1.6-0.3-2.9-1.2-4-2.3c-0.4-0.4-0.8-0.9-1.4-0.9h0
		C65.7,54.8,65.5,54.7,65.4,54.6z"/>
	<path class="st2" d="M116.5,97.5l3.2,2.4c-1.4,1.3-3.2,1.8-4.8,2.6c-3.8-2.9-7.2-6.3-10.5-9.9c1.4-0.7,2.8-0.9,4.2-0.9
		c0.4,0.2,0.6,0.4,0.5,1c-0.3,1.1-0.2,2.3,0.4,3.3C111,98.3,113.3,98.9,116.5,97.5z"/>
	<path class="st2" d="M128.2,105.3c-0.5,0-0.6,0.4-0.9,0.7c-0.8,0.7-1.4,1.5-2.3,2.1c-0.5,0.3-0.7,0.8-0.7,1.3
		c-2.4-1.4-4.7-3-6.8-4.8c0-0.6,0.5-0.7,0.9-0.9c0.9-0.4,1.8-0.8,2.4-1.6c0.4-0.4,0.9-0.6,1.4-0.6
		C124.3,102.8,126.3,103.9,128.2,105.3z"/>
	<path class="st2" d="M62.4,69.4c-1.3,0.4-2.1,1.6-3.2,2.2c-2.4,1.3-4.9,1.7-7.6,1.9c1.3-2.6,2.9-5,5.1-6.9c0.5-0.5,0.9-0.5,1.4,0.1
		C59.3,67.8,60.8,68.8,62.4,69.4z"/>
	<path class="st2" d="M40.2,121.7c-0.5-2.7-0.1-5.5,1.2-7.9l1.2,1.8c-0.3,0.3-0.5,0.7-0.4,1.1c0,1.3,0.3,2.4,1.5,3
		c1.2,0.7,2.4,0.4,3.6-0.3l3.1,1.4c-0.4,0-0.6,0.2-0.9,0.5c-0.4,0.5-0.8,0.9-1.4,1.2c-2.5,1.1-4.8,0.9-6.9-0.9
		C40.6,121.2,40.4,121.4,40.2,121.7z"/>
	<path class="st1" d="M42.9,136.3c2.2,0.7,4.4,1.4,6.8,1.7l2.2,0.2c-1.5,1.7-8.8,3.6-12.5,3.1c-0.1-0.4-0.3-0.9,0.2-1.3
		c1-0.9,1.7-2,2.3-3.1C42.1,136.4,42.4,136.2,42.9,136.3z"/>
	<path class="st2" d="M33.8,102.4c-0.2-0.9-0.9-0.6-1.4-0.5c-0.9,0.2-1.7,0.2-2.6,0.2c-3,0.1-5.9,0.1-8.9,0.2c-1,0-2,0.2-3,0.2
		c-0.4,0-0.7,0.1-0.7,0.6c-1.1-0.3-2.1-0.8-3.1-1.4c0-0.6,0.5-0.7,1-0.7c2.5-0.2,5.1-0.2,7.6-0.2c1.3,0,2.6-0.2,4-0.2
		c0.1-0.5-0.6-0.4-0.5-0.8c1.4,0.2,2.9,0.2,4.3,0c0,0.5,0.3,0.6,0.8,0.6h2.6c0.4,0,0.9,0,1.1,0.5L33.8,102.4z"/>
	<path class="st1" d="M50.1,136.9c-1-0.8-1-0.8,0.1-1.8s1.7-1.8,2.2-2.9c0.2-0.5,0.6-0.6,1.1-0.7c0.5,0,1.5,0.2,2.2-0.2
		c1.5-0.1,3,0.1,4.4-0.3c0.1,0.5-0.3,0.6-0.5,0.9c-1.3,1.4-2.8,2.6-4.3,3.7C54,136.8,52.1,137.2,50.1,136.9z"/>
	<path class="st2" d="M17.4,133.6c-2.9,0-5.8,0.4-8.7-0.2c-0.9-0.2-1.8-0.4-2.4-1c0.4-0.5,0.8,0,1.2,0.1c3.2,0.9,6.3-0.9,7.2-4.1
		c0.1-0.4,0.3-0.8,0.6-1.1l3.7,1.9c-0.1,0.8-0.4,1.6-0.7,2.3C18,132.3,17.3,132.8,17.4,133.6z"/>
	<path class="st2" d="M46.4,69.7c-0.5,1.2-0.1,2.4-0.5,3.6c-1,3.2-5.2,5.5-8.5,3.9c-0.4-0.2-0.9-0.5-1.4-0.1
		c-0.6-1.3-0.5-2.5,0.1-3.8c0.2,0.2,0.4,0.5,0.6,0.7c1.3,1.8,4.8,1.9,6.4-0.3c0.9-1.2,0.7-2.5,0.7-3.8L46.4,69.7z"/>
	<path class="st2" d="M42.9,136.3c-0.4,0-0.7,0.2-1,0.5c-0.6,1.1-1.3,2.3-2.3,3.1c-0.5,0.4-0.2,0.9-0.2,1.3c-1-0.2-2.3,0.1-2.9-0.6
		s0.2-1.9,0.3-2.8c0.1-0.9,0.2-1.4,0.3-2.1c0.6-0.3,0.3-0.8,0.3-1.2c0-1.1,0.1-2.2,0.7-3.1C39.5,133.3,41,135,42.9,136.3z"/>
	<path class="st2" d="M18.7,128.2l-4.6-2.3c0-0.4,0.3-0.4,0.6-0.5c1.9-0.9,3.1-2.4,3.4-4.5c0.1-0.5,0-1.2,0.5-1.6
		c1.4,1.1,2.4,2.5,3.4,3.9c-0.9,1.5-1.6,3.1-3,4.3C18.8,127.6,18.8,127.9,18.7,128.2z"/>
	<path class="st1" d="M47.6,105.4c1.3,0,2.4,0.1,3.4,0.5c1,0.4,1.4,0.7,1.5,1.6s-0.2,1.4-1.1,1.6c-1.4,0.3-2.8,0.7-4.2,0
		c-0.7-0.3-1.4-0.1-2,0.2c-0.6,0.3-1.2,0-1.4-0.8c-0.5-2.9-0.5-2.7,2-2.9L47.6,105.4z"/>
	<path class="st2" d="M116.5,97.5c-3.2,1.4-5.5,0.8-7-1.6c-0.6-1-0.8-2.2-0.4-3.3c0.2-0.6-0.1-0.8-0.5-1c1.1-0.3,2,0,2.8,1
		C112.8,94.5,114.7,96,116.5,97.5z"/>
	<path class="st2" d="M11.8,124.9c-0.8-0.2-1.5-0.7-2.1-1.2c-1.2-0.8-1.3-2.3-0.3-3.3c0.3,0.5,0.7,0.9,1,1.4c0.8,1,1.9,1,3,0.6
		c1.1-0.5,1.4-1.3,1.5-2.4c0-1.5-0.9-2.1-2-2.7l0.2,0.1c0.3,0.1,0.4-0.1,0.5-0.3c1.1-0.4,2.2-0.1,3.1,0.6c0,0.3,0,0.7,0.1,1.1
		c0.9,2.6-1.1,5.7-4.3,5.8C11.9,124.4,11.8,124.5,11.8,124.9z"/>
	<path class="st2" d="M55,111.7c-0.6,0.3-0.9,0.8-1.3,1.2c-2.3,2.4-5.1,2.9-8.2,2.3c-0.4-0.1-0.9-0.6-1.4,0
		c-0.8-0.9-1.4-1.9-1.7-3.2c0.3-0.6,0.5-0.6,1-0.2c2.2,2,6,2,8.2,0.1c0.6-0.5,1.1-0.9,1.8-0.8L55,111.7z"/>
	<path class="st1" d="M17.9,85.1c-0.3,0.9-0.2,1.8-0.2,2.7c0,0.4,0,0.8-0.6,0.8c-2.4-1.5-4.8-3.2-7.1-4.9C9.4,83.2,8.6,82.7,9,82
		c0.4-0.7,1.2-0.1,1.7,0.1C13.2,82.9,15.6,83.9,17.9,85.1z"/>
	<path class="st2" d="M53.4,111.2c-0.8-0.1-1.3,0.3-1.8,0.8c-2.2,1.9-6,1.9-8.2-0.1c-0.5-0.5-0.8-0.5-1,0.2
		c-0.2-0.6,0.1-1.1,0.1-1.7c-0.1-0.6,0.3-0.3,0.5-0.3l1.8,0c1.9,0.4,3.8,0.5,5.7,0C51.5,110.2,52.4,111,53.4,111.2z"/>
	<path class="st2" d="M32.1,76.5l0.5-0.4c0.6-0.4,1-0.5,1.2,0.4c0.4,1.6,1.4,2.9,2.8,3.7c-0.1,0.2-0.1,0.3-0.2,0.5
		c-0.4,1.8-1.4,3-3.1,3.7c-1.3,0.5-2.6,0.1-3.8-0.1c-0.1-0.7-0.2-1.4,0-2.2c0.3-0.4,0.6-0.5,1.1-0.2c0.9,0.5,1.7,0.6,2.6-0.1
		c1.7-1.5,1.5-3.4-0.6-4.4C32,77.3,31.9,77,32.1,76.5z"/>
	<path class="st1" d="M50.4,99.7c-0.2,0.4,0,1.1-0.9,0.7c-2.1-0.9-4.3-1.2-6.5-1.4c-1-0.1-1.1-0.5-1-1.4c0.4-2,0.4-2.1,2.4-1.7
		c2,0.4,3.5,0.9,5,2C49.9,98.4,50.3,99,50.4,99.7z"/>
	<path class="st2" d="M18.1,113.6c0.4-1.4,1.5-1.6,2.7-1.7c0.9-0.1,1.7,0.1,2.5,0.4c0,0.4,0.2,0.7,0.4,1c1.6,2.6,0.5,5.5-2.4,6.4
		c-0.2,0.1-0.4,0.3-0.4,0.5c-0.5-0.5-0.9-1.1-1.3-1.7c0.1-0.8,0.8-0.6,1.2-0.8c0.8-0.2,1.3-0.7,1.4-1.6c0.1-0.9,0.1-1.8-0.9-2.4
		c-1-0.6-2.2-0.4-3.2,0.6L18.1,113.6z"/>
	<path class="st2" d="M11.8,125.9c0.8,0.2,1.5,0.4,2.2,0.9c-0.2,0.2-0.4,0.5-0.4,0.8c-0.1,1.7-1.2,2.9-2.6,3.5s-3.3,0.5-4.7-0.9
		c-0.3-0.3-0.5-0.5-0.9-0.4c0-1.5,0.1-3.1,1.5-4.1c0.1,0.2,0.2,0.5,0.1,0.8c-0.3,1.2,0.3,2,1.2,2.7c0.7,0.5,1.6,0.6,2.3,0.1
		c0.9-0.5,1.4-1.4,1.2-2.4C11.5,126.5,11.4,126.1,11.8,125.9z"/>
	<path class="st2" d="M40.2,121.7c0.3-0.3,0.4-0.5,0.9-0.1c2.1,1.8,4.4,2.1,6.9,0.9c0.5-0.3,1-0.7,1.4-1.2c0.2-0.3,0.5-0.5,0.9-0.5
		h0c0,0.1,0,0.2,0.2,0.1c0.6,0.1,1.2,0.2,1.7,0.6c-0.9,0.3-1.4,1.3-2.2,1.9c-2.3,1.7-4.8,2.1-7.5,1.2c-0.3-0.1-0.6-0.1-0.9-0.2
		C40.7,123.6,40.2,122.7,40.2,121.7z"/>
	<path class="st1" d="M84.6,82.3c0.2-0.3,0.5-0.5,0.8-0.5c1.2-0.3,2.3-0.7,3.3-1.4c0.5-0.3,0.8-0.3,1.2,0.1
		c-0.3,2.6-0.5,5.1,0.4,7.7C88.2,86.3,86.3,84.4,84.6,82.3z"/>
	<path class="st2" d="M12.9,117.2c1.1,0.6,2,1.2,2,2.7c0,1.2-0.4,2-1.5,2.4c-1,0.4-2.1,0.4-3-0.6c-0.4-0.4-0.7-0.9-1-1.4
		C10.3,119.1,11.4,117.9,12.9,117.2z"/>
	<path class="st2" d="M43.6,128.1l2,1.1c-1.5,1.3-3.1,2.2-5.2,1.7c-0.3-0.1-0.5,0.3-0.7,0.4c-0.7-0.9-1.4-1.7-2.1-2.6
		c-0.7-0.9-0.3-3.6,0.5-4.3c0.1,0.2,0.2,0.5,0.1,0.8c-0.1,0.9,0,1.8,0.7,2.5C40.4,129.1,41.8,129.3,43.6,128.1z"/>
	<path class="st1" d="M45.7,102.4c1.3,0.1,2.8,0.2,4.3,0.8c0.7,0.3,1.3,0.7,1.6,1.4c0.3,0.7,0.2,0.7-0.4,0.6c-2.3-0.4-4.7-0.4-7,0
		c-0.6,0.1-0.9,0-1-0.8C43.1,102.5,43.2,102.4,45.7,102.4z"/>
	<path class="st2" d="M43.8,70c0,1.3,0.2,2.7-0.7,3.8c-1.7,2.2-5.1,2.1-6.4,0.3c-0.2-0.3-0.4-0.5-0.6-0.7c0.1-0.7,0.5-1.3,1.2-1.7
		c0.1,0.3,0.3,0.5,0.4,0.7c0.7,0.8,1.5,1.5,2.7,1.1c1.2-0.4,1.7-1,1.7-2.4c0-0.6,0.4-0.7,0.7-1l0.2-0.1h0.1l0.1-0.1L43.8,70z"/>
	<path class="st2" d="M32.1,76.5c-0.2,0.5-0.1,0.7,0.5,1c2.1,0.9,2.3,2.9,0.6,4.4c-0.9,0.7-1.8,0.6-2.6,0.1
		c-0.5-0.3-0.8-0.2-1.1,0.2C29.4,79.9,30.4,78.1,32.1,76.5z"/>
	<path class="st2" d="M26,114c1,1.7,1.2,3.4,0.3,5.3c-0.8,1.5-1.4,3.2-2.1,5c-0.9-1-1.8-1.9-2.4-3c0.1-0.9,1-0.6,1.5-1
		c1.7-1.5,2.8-3.3,2.4-5.7C25.6,114.2,25.7,114.1,26,114z"/>
	<path class="st1" d="M27.8,128.4l-2.4-2.7c-0.2-0.2-0.2-0.5-0.1-0.7c1-1.7,1.8-3.5,2.5-5.4C29.3,123.3,29.3,124.6,27.8,128.4z"/>
	<path class="st2" d="M5.3,129.7c0.4,0,0.7,0.2,0.9,0.4c1.4,1.4,3,1.5,4.7,0.9s2.5-1.8,2.6-3.5c0-0.3,0.2-0.6,0.4-0.8
		c0.5,0.1,0.9,0.3,1.3,0.6c-0.3,0.3-0.5,0.7-0.6,1.1c-0.9,3.2-3.9,5-7.2,4.1c-0.4-0.1-0.7-0.6-1.2-0.1
		C5.4,131.8,5.1,130.8,5.3,129.7z"/>
	<path class="st2" d="M11.8,125.9c-0.4,0.3-0.3,0.6-0.2,1c0.2,1.1-0.3,1.9-1.2,2.4c-0.7,0.4-1.7,0.4-2.3-0.1
		c-0.9-0.7-1.5-1.5-1.2-2.7c0.1-0.3,0.1-0.6-0.1-0.8C8.5,125,10.1,125.2,11.8,125.9z"/>
	<path class="st2" d="M18.1,113.6l0.1,0.9c1-1,2-1.4,3.2-0.6c1.2,0.8,0.9,1.5,0.9,2.4c-0.1,0.9-0.6,1.3-1.4,1.6
		c-0.5,0.2-1.2,0-1.2,0.8c-0.7-0.8-1.3-1.8-1.7-2.8C17.6,115,17.6,114.3,18.1,113.6z"/>
	<path class="st1" d="M18.7,128.2c0-0.3,0-0.6,0.3-0.8c1.4-1.1,2.1-2.8,3-4.3c0.6,0.7,1.7,1.5,1.6,2.3c-0.3,1.4-1,2.7-1.8,3.9
		c-0.2,0.3-0.5,0.2-0.7,0.1C20.3,129.1,19.5,128.8,18.7,128.2z"/>
	<path class="st2" d="M33.6,129.6c0.2-0.9,1.4-1.6,2.2-1.3c0.3,0.1,0.2,0.4,0.2,0.6c-0.1,1.5-0.2,3-0.3,4.6c-1.2,1-2.3,2.3-3.8,3.1
		l0.7-2.2C33.4,132.8,34,131.3,33.6,129.6z"/>
	<path class="st2" d="M81.6,76.3c-0.1-0.9-0.3-1.7-0.2-2.6c0.1-0.2,0.3-0.4,0.4-0.4c1.8,0.6,3,0,3.4-1.9c0-0.1,0.2-0.2,0.3-0.3
		c1,0.2,1.7,0.9,2.6,1.3c-0.7-0.1-0.9,0.4-1.1,0.9c-0.9,1.7-2.4,2.6-4.3,2.6C82.3,75.9,81.9,75.9,81.6,76.3z"/>
	<path class="st2" d="M29.5,84.4c1.3,0.1,2.5,0.6,3.8,0.1c1.7-0.7,2.8-1.9,3.1-3.7c0.1-0.2,0.1-0.3,0.2-0.5l1.7,0.4
		c-0.4,0.2-0.7,0.6-0.8,1.1c-0.7,3.1-4.2,4.9-7,4.3c-0.5-0.1-0.7,0.1-0.9,0.3C29.6,85.7,29.4,85.1,29.5,84.4z"/>
	<path class="st2" d="M27.6,133l0.2-0.6c1.2-2.8,1.2-2.8,4.3-3.5c-0.2,1.8-0.5,3.5-1,5.3c-0.2-0.2-0.3-0.6-0.4-0.6
		C29.6,133.7,28.7,133,27.6,133z"/>
	<path class="st2" d="M11.8,124.9c0-0.3,0.1-0.5,0.5-0.5c3.2,0,5.2-3.2,4.3-5.8c-0.1-0.3,0-0.7-0.1-1.1c0.8,0.4,1.4,1.1,2.1,1.7
		c-0.5,0.4-0.4,1-0.5,1.6c-0.3,2.1-1.5,3.6-3.4,4.5c-0.3,0.1-0.5,0.2-0.6,0.5L11.8,124.9z"/>
	<path class="st2" d="M122.3,101.6c-0.5-0.1-1.1,0.2-1.4,0.6c-0.7,0.7-1.6,1.1-2.4,1.6c-0.4,0.2-0.9,0.3-0.9,0.9
		c-0.9-0.6-1.8-1.3-2.6-2.1c1.6-0.8,3.5-1.3,4.8-2.6L122.3,101.6z"/>
	<path class="st2" d="M43.6,128.1c-1.8,1.2-3.2,1-4.6-0.4c-0.7-0.7-0.8-1.6-0.7-2.5c0.1-0.3,0-0.6-0.1-0.8l0.8-0.7
		c0.2-0.2,0.4-0.2,0.5,0.2C40.5,125.7,42,126.9,43.6,128.1z"/>
	<path class="st2" d="M85.5,71.1c-0.1,0.1-0.3,0.2-0.3,0.3c-0.5,1.9-1.6,2.5-3.4,1.9c-0.1,0-0.3,0.3-0.4,0.4l-0.7-4.4
		C82.5,69.6,84,70.5,85.5,71.1z"/>
	<path class="st2" d="M39.7,131.3c0.2-0.2,0.3-0.5,0.7-0.4c2.1,0.5,3.7-0.4,5.2-1.7l2,0.9c-0.7,0.2-1,0.9-1.5,1.3
		c-1.3,0.9-2.6,1.6-4.2,1.5c-0.3-0.1-0.5,0.1-0.6,0.3C40.6,132.6,40.1,132,39.7,131.3z"/>
	<path class="st2" d="M26,114c-0.4,0-0.5,0.2-0.4,0.6c0.4,2.4-0.6,4.2-2.4,5.7c-0.5,0.4-1.4,0.2-1.5,1c-0.3-0.3-0.7-0.7-0.9-1.1
		c0-0.3,0.2-0.5,0.4-0.5c2.9-0.9,4-3.9,2.4-6.4c-0.2-0.3-0.4-0.6-0.4-1C24.5,112.5,25.4,113,26,114z"/>
	<path class="st1" d="M50.6,102.5c-2.6-0.6-5.1-0.8-7.6-0.9c-0.6,0-1,0-1-0.9c0-0.9,0.4-0.9,1-0.9c2-0.1,4.1,0.3,5.9,1.1
		C49.5,101.3,50.2,101.6,50.6,102.5z"/>
	<path class="st2" d="M42.8,70.2c-0.3,0.3-0.7,0.4-0.7,1c0,1.4-0.6,2.1-1.7,2.4s-2-0.3-2.7-1.1c-0.2-0.2-0.3-0.5-0.4-0.7
		C38.9,70.5,40.8,70.3,42.8,70.2z"/>
	<path class="st2" d="M34.5,122.3c0.6-3.3,1.8-6.5,3-9.6c0.6,0.6,0.6,1.2,0.4,1.9c-0.7,2.4-1.5,4.8-1.9,7.3L34.5,122.3z"/>
	<path class="st2" d="M91.2,85c0.3-0.6,0.5-0.7,0.9-0.1c0.9,1.7,2.2,3.2,3.7,4.5c0.3,0.3,0.5,0.7,0.5,1.2c-0.2,0-0.5,0-0.7-0.2
		c0-0.1-0.1-0.2-0.2,0C92.8,89.9,91.3,87.9,91.2,85z"/>
	<path class="st2" d="M81.6,76.3c0.3-0.4,0.7-0.4,1.1-0.4c1.9-0.1,3.4-0.9,4.3-2.6c0.2-0.5,0.4-0.9,1.1-0.9l0.7,0.3
		c-0.9,2.3-2.4,4-5,4.4c-0.7,0.1-1.4,0.1-2.2,0.1V76.3z"/>
	<path class="st2" d="M35.5,136.5c-0.1,1.1-0.2,2.2-0.2,3.3c0,0.5-0.3,0.7-0.8,0.6l-2.2-0.6c-1.4-0.4-1.4-0.4-0.8-1.7
		c0.5-0.1,1-0.2,1.5-0.4C34,137.5,34.6,136.6,35.5,136.5z"/>
	<path class="st2" d="M27.6,133c1.1,0,2,0.7,3.1,0.5c0.1,0,0.3,0.4,0.4,0.6c0,0.8-0.2,1.5-0.4,2.2c-1.1-0.4-2.4-0.3-3.4-0.9
		c-0.1-0.1-0.4,0.2-0.7,0.2C26.9,134.7,27.2,133.9,27.6,133z"/>
	<path class="st1" d="M34.5,122.3l1.5-0.4c-0.1,1.8,0.1,3.5-0.2,5.3c-0.2,1-0.9,0.5-1.4,0.6c-0.5,0.1-0.5-0.4-0.5-0.7
		c0.1-1.2,0.3-2.4,0.4-3.6c0.5-0.1,0.4-0.3,0.1-0.6L34.5,122.3z"/>
	<path class="st2" d="M26.7,135.6c0.2-0.1,0.5-0.3,0.7-0.2c1.1,0.6,2.3,0.5,3.4,0.9c-0.3,2.9-0.5,2.9-3.1,1.7
		C26.5,137.4,26.2,136.8,26.7,135.6z"/>
	<path class="st2" d="M47.1,119.4c-1.1,0.7-2.3,1-3.6,0.3c-1.2-0.7-1.5-1.7-1.5-3c0-0.4,0.1-0.8,0.4-1.1
		C43.8,117.1,45.3,118.4,47.1,119.4z"/>
	<path class="st1" d="M33.1,122.8c0,1.6-0.5,3.2-0.7,4.8c0,0.2-0.1,0.4-0.3,0.5c-0.2,0.1-0.4,0-0.4-0.2c0,0,0,0,0,0
		c-0.5-1.5-1.8-2.9-0.9-4.7C31.6,123,32.3,122.7,33.1,122.8z"/>
	<path class="st1" d="M26.8,129.2c-0.7,0.3-1.4,0.7-1.9,1.2c-0.5,0.5-1.3,0.3-1.8,0s-0.1-0.9,0.1-1.2c0.4-0.9,0.9-1.7,1.4-2.7
		L26.8,129.2z"/>
	<path class="st2" d="M35.5,136.5c-1,0.1-1.5,0.9-2.4,1.2c-0.5,0.2-1,0.3-1.5,0.4c0-0.6,0.2-1.1,0.4-1.6c1.5-0.8,2.6-2,3.8-3.1
		C35.8,134.5,35.6,135.5,35.5,136.5z"/>
	<path class="st1" d="M34.9,100.8c-0.2-0.5-0.6-0.5-1.1-0.5h-2.6c-0.5,0-0.8-0.1-0.8-0.6c0.6-0.2,1.2-0.3,1.7-0.7
		c1.4-1,2.9-0.6,4.5-0.7L34.9,100.8z"/>
	<path class="st2" d="M33.8,113.6l0.7-1.5c0.3,0.3,0.1,0.9,0.6,1.1c-0.7,2.1-1.6,4.1-1.9,6.3c-0.6,0-1.2,0.2-1.7,0.5
		c0.2-0.8,0.3-1.7,0.7-2.4c0.7-0.9,1.2-2,1.3-3.1h0c0.4-0.1,0.3-0.4,0.3-0.7h0C33.9,113.8,34,113.7,33.8,113.6z"/>
	<path class="st1" d="M17.4,133.6c-0.1-0.8,0.5-1.4,0.9-2c0.4-0.7,0.6-1.5,0.7-2.3c2.3,1,2.3,0.9,0.9,3.1
		C19.3,133.3,18.6,133.9,17.4,133.6z"/>
	<path class="st2" d="M28.7,116.9c0.5-1.7,1-3.4,1.9-5c0.3,0.5,0.7,0.9,1.3,0.9c-0.5,1.3-0.9,2.7-1.1,4.1
		C30,116.3,29.4,116.9,28.7,116.9z"/>
	<path class="st2" d="M83.9,110.2c-0.9-1.1-1.5-2.4-2.9-3c-0.7-0.3-0.5-2.4,0.2-2.7c0.7-0.3,0.8,0.2,1,0.6c0.7,1.5,1.4,3,2,4.5
		L83.9,110.2z"/>
	<path class="st2" d="M82,113.6c-0.7-1-1.2-2.1-2.3-2.8c-0.7-0.4-0.2-2.4,0.5-2.7c0.7-0.2,0.8,0.4,0.9,0.8c0.5,1.5,1,3.1,1.5,4.6
		L82,113.6z"/>
	<path class="st2" d="M60,56.7c-0.5,1.9,0.3,4-0.5,5.9c-0.2,0.5-0.3,1.1-0.9,1.4s-0.2,1-0.4,1.5c-0.2,0-0.3-0.1-0.3-0.3
		C58,62.2,58.7,59.4,60,56.7z"/>
	<path class="st2" d="M34.8,102.3c0.9-1.2,1.8-2.5,2.7-3.8c0.2-0.3,0.5-0.6,0.9-0.5c0.4,0.1,0.4,0.6,0.5,1c0.1,1.3-0.1,1.6-1.4,2.1
		c-1,0.3-1.5,1.1-2.3,1.7C35.1,102.5,35,102.3,34.8,102.3z"/>
	<path class="st1" d="M39.3,114.4c-1.3,2.9-1.3,6.1-2.6,8.9c-0.3-3.4,0.9-6.4,2.1-9.5C39.2,113.9,39.3,114.1,39.3,114.4z"/>
	<path class="st1" d="M88.9,104.5l0.4,0.7c0.5,1.3,1.2,2.4,1.6,3.8c-0.7-0.1-0.8-0.7-1.1-1.1c-1.4-2.2-2.4-4.6-4.2-6.5
		c-0.2-0.2-0.2-0.5-0.2-0.7l0,0c0.5-0.2,0.7,0.2,1,0.5l1.9,2.5L88.9,104.5z"/>
	<path class="st2" d="M37.1,110.3c0.5-1.4,1.2-2.8,1.9-4.1c0.2-0.3,0.3-0.7,0.8-0.7s0.5,0.5,0.6,0.8c0.4,1.2,0.2,1.7-0.9,2.4
		c-1.2,0.6-1.2,1.3-1.8,2C37.5,110.5,37.3,110.3,37.1,110.3z"/>
	<path class="st1" d="M85.1,105.3c1.9,2.8,3.6,5.6,4.3,8.9c-0.7-0.3-0.7-0.3-1-1.1c-0.7-1.7-1.5-3.3-2.2-5c-0.3-0.7-0.9-1.4-1.3-2.1
		L85.1,105.3z"/>
	<path class="st1" d="M37.1,110.3c0.2,0,0.4,0.1,0.5,0.3c-1.5,2.6-1.9,5.8-3.4,8.4C34.2,115.9,35.5,113.1,37.1,110.3z"/>
	<path class="st1" d="M36.2,107.3c-1.9,2.5-2.6,5.6-4.4,8.2c0.5-3.3,2.1-6,3.9-8.7C35.8,107,36,107.2,36.2,107.3z"/>
	<path class="st2" d="M36.2,107.3c-0.2-0.1-0.4-0.2-0.5-0.5c0.6-1.1,1.2-2.3,1.9-3.4c0.3-0.4,0.6-1.3,1.2-0.8c0.6,0.5,0.7,1.4,0.2,2
		c-0.3,0.4-0.5,0.8-1,1C37.3,105.9,36.9,106.7,36.2,107.3z"/>
	<path class="st2" d="M39.3,114.4c0-0.3-0.1-0.5-0.4-0.5c0.4-1.3,0.7-2.6,1.3-3.9c0.2-0.3,0.3-0.7,0.7-0.7c0.5,0,0.5,0.4,0.7,0.8
		c0.5,1.2,0.4,1.7-0.6,2.4S39.9,113.7,39.3,114.4z"/>
	<path class="st1" d="M34.8,102.3c0.2,0.1,0.4,0.3,0.3,0.5c-1.9,2.3-2.9,5.1-4.9,7.3c0.3-1.3,0.8-2.5,1.5-3.7c0.2-0.3,0.6-0.6,0.3-1
		l0,0c0.6,0,0.7-0.4,0.7-0.9l0,0c0.8-0.1,0.9-0.9,1.3-1.3C34.3,102.8,34.6,102.6,34.8,102.3z"/>
	<path class="st1" d="M82,113.6h0.6c1.2,2.7,2,5.6,1.9,8.7c-0.5-0.4-0.6-0.8-0.7-1.3C83.2,118.5,82.8,116,82,113.6z"/>
	<path class="st2" d="M85.5,100.7c-1.1-0.1-1.9-0.9-2.9-1.2c-0.5-0.2-0.6-2.1-0.2-2.5c0.1-0.2,0.4-0.2,0.6-0.1
		C83.7,97.2,85.5,100,85.5,100.7L85.5,100.7z"/>
	<path class="st2" d="M85.1,105.3l-0.3,0.8c-0.7-0.6-1.2-1.4-2.2-1.7c-0.3-0.1-0.6-0.5-0.8-0.9s-0.1-1.9,0.3-2
		c0.8-0.3,1,0.5,1.3,0.9C84,103.3,84.5,104.3,85.1,105.3z"/>
	<path class="st1" d="M83.9,110.2l0.3-0.6c1.4,2.6,2.6,5.3,2.7,8.3C85.5,115.5,85,112.8,83.9,110.2z"/>
	<path class="st2" d="M31.5,120c0.5-0.3,1.1-0.6,1.7-0.5l-0.1,3.3c-0.8-0.1-1.5,0.2-2.3,0.4L31.5,120z"/>
	<path class="st2" d="M26.4,133c-0.2,1.1-0.7,2-1.2,3c-1-1.4-0.8-3.1,0.5-4.6l0.3-0.2h0l0.3-0.2h0c0.4,0.1,0.5,0.3,0.4,0.7
		C26.5,132.1,26.1,132.6,26.4,133z"/>
	<path class="st2" d="M64.2,44.5c1.1,0,1.5,0.6,1.1,1.6s-0.9,1.1-1.6,1.4c-0.7,0.2-1.1-0.1-1.1-0.8c0.1-0.3,0.3-0.4,0.6-0.3
		c0.9,0.1,1-0.4,1-1.1C64.1,44.9,64.2,44.7,64.2,44.5z"/>
	<path class="st1" d="M38.2,101.6c-0.8,0.8-1.4,1.7-1.9,2.7c-0.4,0.8-0.9,1.1-1.9,0.9C35.6,103.9,35.9,101.8,38.2,101.6L38.2,101.6z
		"/>
	<path class="st2" d="M78.8,45.3c1.1,0.1,1.4,0.6,1,1.5c-0.2,0.5-0.6,1-1.2,1.2c-1,0.5-1.4,0.4-1.7-0.9c1.3,0.1,1.9-0.4,1.8-1.7
		C78.8,45.4,78.8,45.3,78.8,45.3z"/>
	<path class="st2" d="M32.1,109c0.7-1.1,0.9-2.6,2.6-2.1C34.1,109.1,33.9,109.3,32.1,109z"/>
	<path class="st2" d="M28.9,111.7c-0.3,1.4-0.8,2.8-1.4,4.1c-0.3-1.4-0.6-2.5-0.3-3.7c0.2,0.2,0.4,0.5,0.8,0.2
		C28.3,112,28.6,111.8,28.9,111.7z"/>
	<path class="st2" d="M28.7,116.9c0.7,0,1.3-0.6,2,0c0.1,0.5-0.2,1-0.2,1.5c-0.7-0.3-1.4-0.3-1.9,0.4
		C28.1,118.2,28.4,117.5,28.7,116.9z"/>
	<path class="st1" d="M50.6,72c-0.6-0.8-0.4-1.7-0.4-2.6c0.6-0.2,1.2-0.2,2-0.1L50.6,72z"/>
	<path class="st1" d="M22.1,133.3c0.1-0.5,0.2-0.9,0.3-1.4c0.1-0.3-0.2-1.1,0.7-0.7c0.5,0.2,1,0.3,0.6,1.1
		C23.4,133.1,23.1,133.6,22.1,133.3z"/>
	<path class="st2" d="M50.4,110.1c-1.9,0.5-3.8,0.5-5.7,0C46.6,109,48.5,110.1,50.4,110.1z"/>
	<path class="st1" d="M77,104.9c0.1,0.9,0,1.8-0.3,2.7c-0.2,0.7-0.7,0.7-1.2,0.5c-0.5-0.2-0.1-0.6,0.1-0.9
		C76.1,106.5,76.3,105.5,77,104.9L77,104.9z"/>
	<path class="st2" d="M28.6,118.8c0.5-0.8,1.2-0.8,1.9-0.4c0,0.6-0.2,1.2-0.4,1.8c-0.4-0.3-0.8-0.2-1,0.2L28.6,118.8z"/>
	<path class="st2" d="M31,111c0.2-0.3,0.3-0.8,0.6-1c0.5-0.2,1-0.2,1.4,0.1c0.3,0.3-0.1,0.6-0.3,0.9c-0.1,0.3-0.3,0.6-0.5,0.8
		C31.7,111.8,31.5,111.2,31,111z"/>
	<path class="st3" d="M78.8,45.3c0,0,0,0.1,0,0.1c0.1,1.3-0.5,1.8-1.8,1.7C76.7,45.9,77.3,45.3,78.8,45.3z"/>
	<path class="st2" d="M37.7,106.5c0,1.4-0.9,2.4-1.3,3.6c-0.1,0.3-0.4,0.1-0.5,0c-0.2-0.1-0.1-0.4,0-0.6
		C36.4,108.4,36.9,107.4,37.7,106.5L37.7,106.5z"/>
	<path class="st3" d="M64.2,44.5c0,0.2-0.1,0.4-0.1,0.6c0,0.7-0.1,1.2-1,1.1c-0.3,0-0.5,0-0.6,0.3C62,45.2,62.5,44.6,64.2,44.5z"/>
	<path class="st2" d="M38.2,131.5c-0.6,1-0.7,2.1-0.7,3.1c0,0.4,0.2,1-0.3,1.2c0.3-1.8,0.1-3.7,0.2-5.8L38.2,131.5z"/>
	<path class="st2" d="M28.9,111.7c-0.3,0.2-0.6,0.4-0.9,0.6c-0.4,0.4-0.5,0.1-0.8-0.2c0.2-1,1-1.4,1.9-1.8
		C29.4,110.8,29,111.2,28.9,111.7z"/>
	<path class="st2" d="M35.1,113.2c-0.6-0.2-0.3-0.8-0.6-1.1l0.4-1c0.1-0.3,0.3-0.3,0.6-0.1s0.5,0.2,0.3,0.5S35.4,112.6,35.1,113.2z"
		/>
	<path class="st2" d="M39.5,109.5l-1,2.8C37.7,111.5,38.2,110.1,39.5,109.5L39.5,109.5z"/>
	<path class="st2" d="M31,111c0.5,0.2,0.7,0.8,1.3,0.9c-0.1,0.3-0.2,0.6-0.5,0.9c-0.6,0-1-0.4-1.3-0.9L31,111z"/>
	<path class="st2" d="M33.6,129.6c0.4,1.7-0.2,3.2-1,4.7C33,132.7,33.4,131.2,33.6,129.6z"/>
	<path class="st2" d="M29.1,120.4c0.3-0.4,0.6-0.5,1-0.2c0,0.7-0.2,1.3-0.5,2L29.1,120.4z"/>
	<path class="st2" d="M26.4,133c-0.2-0.5,0.1-0.9,0.2-1.3s0-0.6-0.4-0.7c0.2-0.4,0.7-0.5,1.1-0.8C27.1,131.2,26.8,132.1,26.4,133z"
		/>
	<path class="st1" d="M29.5,128.4l0.5-1.6c0.2,0.6,0.6,1,0.4,1.5C30.2,128.8,29.8,128.5,29.5,128.4z"/>
	<path class="st2" d="M33.5,114.4c-0.1,1.1-0.6,2.2-1.3,3.1C32.6,116.5,32.9,115.4,33.5,114.4z"/>
	<path class="st1" d="M38,121.9c0.4,0.7,0.2,1.2-0.3,1.7L38,121.9z"/>
	<path class="st2" d="M80.7,83.7c-0.4-1.2-0.4-2.5,0-3.7V83.7z"/>
	<path class="st2" d="M60.4,55.6c0,0.4,0,0.9-0.5,1.1C60,56.3,60.1,55.9,60.4,55.6z"/>
	<path class="st2" d="M58.8,122.8c-0.4,0.3-0.7,0.3-1.1-0.1L58.8,122.8z"/>
	<path class="st2" d="M34.5,122.8c0.3,0.3,0.3,0.5-0.1,0.6L34.5,122.8z"/>
	<path class="st2" d="M52,129.3c0.3,0,0.5,0,0.5,0.4C52.3,129.7,52,129.8,52,129.3z"/>
	<path class="st2" d="M33.8,113.8c0,0.2,0.1,0.5-0.3,0.7C33.5,114.2,33.6,114,33.8,113.8z"/>
	<path class="st2" d="M13.5,117c-0.1,0.2-0.2,0.4-0.5,0.3S13.3,117.1,13.5,117z"/>
	<path class="st2" d="M68,47.6L67.8,48C67.7,47.7,67.9,47.7,68,47.6z"/>
	<path class="st2" d="M60.4,55.4c0.2,0.1,0,0.2-0.1,0.2L60.4,55.4z"/>
	<path class="st2" d="M58.2,65.4l0.3,0.2C58.3,65.7,58.1,65.7,58.2,65.4z"/>
	<path class="st2" d="M26,131.3l-0.3,0.2C25.7,131.4,25.8,131.2,26,131.3z"/>
	<path class="st2" d="M58.4,65.6l0.3,0.3C58.5,65.9,58.4,65.8,58.4,65.6z"/>
	<path class="st2" d="M16.9,116.4c0,0.1,0.1,0.2,0.1,0.3c0,0-0.2,0-0.2-0.1L16.9,116.4z"/>
	<path class="st2" d="M26.2,131l-0.3,0.2C25.9,131.1,26,131,26.2,131z"/>
	<path class="st2" d="M33.8,113.6c0.2,0.1,0,0.2-0.1,0.2C33.8,113.7,33.8,113.7,33.8,113.6z"/>
	<path class="st2" d="M50.4,120.8c-0.1,0.2-0.2,0-0.2-0.1C50.3,120.8,50.3,120.8,50.4,120.8z"/>
	<path class="st2" d="M43.1,70.1L43.1,70.1L43,70.2l0.1-0.1H43.1z"/>
	<path class="st2" d="M39.5,109.5L39.5,109.5L39.5,109.5L39.5,109.5z"/>
	<path class="st2" d="M80.3,76.4L80,76C80.4,76,80.4,76.2,80.3,76.4z"/>
	<path class="st2" d="M83.4,105.9c0-0.1-0.2-0.2,0-0.3c0.2-0.1,0.2,0.1,0.3,0.2L83.4,105.9z"/>
	<path class="st2" d="M95.3,90.5c0.1-0.1,0.2-0.1,0.2,0L95.3,90.5L95.3,90.5z"/>
	<path class="st2" d="M37.7,106.5l0.2,0.1l-0.1,0L37.7,106.5L37.7,106.5z"/>
	<path class="st1" d="M38.1,101.6c0.1-0.1,0.2-0.2,0.3,0L38.1,101.6L38.1,101.6z"/>
	<path class="st1" d="M77,104.9L77,104.9C77.1,104.8,77.1,104.8,77,104.9L77,104.9L77,104.9z"/>
	<path class="st0" d="M65.6,54.9c0.6,0,1,0.5,1.4,0.9c1.1,1.1,2.4,2,4,2.3c0.5,0.1,1.1,0.1,1.6-0.2c1.4-0.4,2.4-1.4,3.8-2.2
		c-0.7,2.2-2.1,3.2-4.2,3.6c-2.1,0.3-4-0.7-5.6-2C66.2,56.5,65.6,55.9,65.6,54.9z"/>
	<path class="st0" d="M65.4,54.6c0.1,0.1,0.3,0.1,0.2,0.3S65.4,54.8,65.4,54.6z"/>
	<path class="st0" d="M32.7,104.5c0.1,0.5-0.1,0.9-0.7,0.9C32.2,105,32.3,104.6,32.7,104.5z"/>
</g>
</svg>
