<svg id="Layer_1" data-name="Layer 1" xmlns="http://www.w3.org/2000/svg" width="960" height="640" viewBox="0 0 960 640">
  <defs>
    <style>
      .cls-1 {
        fill: #fefefe;
      }

      .cls-2 {
        fill: #4d2c2b;
      }

      .cls-3 {
        fill: #fdfcfc;
      }
    </style>
  </defs>
  <title>Artboard 1</title>
  <g>
    <path class="cls-1" d="M162,1H956.5c3.7,0,4.6.8,4.6,4.6q-.2,315.5,0,631c0,3.7-.8,4.6-4.6,4.6q-475.5-.2-951,0c-3.7,0-4.6-.8-4.6-4.6Q1.1,388.8,1,141c2.4,4.3,1.9,9.2,3,13.8,6.5,29,16.9,56,37.9,78A74.7,74.7,0,0,1,50,243.6c14,21.4,23.7,44.9,33,68.6,2.4,6.3,4.7,12.6,7.2,19.4,8.7-13.2,19.3-23.7,30.5-33.7,16.8-15,35.2-28,52.9-41.8,31.3-24.3,63.4-47.7,92.5-74.7,10.2-9.4,16.2-20.9,18.8-34.4s2.1-26.1-.1-40.1a57.1,57.1,0,0,1,12,15.5c8.6,15.6,15.1,31.5,10.1,49.9-1.2,4.3-1.2,8.9-1.6,13.4a22.9,22.9,0,0,0,3.5,14.8c5.1,8,11.1,15.4,16.9,22.9,4.2,5.4,8.5,10.7,11.7,16.7s1.9,9.3-3.7,12.4a60.6,60.6,0,0,0-11.5,7.8c-8.3,7.4-8.3,8.8,0,16a14.9,14.9,0,0,1,1.7,1.8c3.7,4.5,2.9,8.2-2.4,10.8-1.8.9-3.8,1.5-5.6,2.3,1.8,3.4,3.6,6.5,5,9.6,2.7,5.8,1.4,8.9-4.4,11.5-7.5,3.4-8.3,5.5-5.1,13.2l1.6,3.7c5.1,12.2,2.5,19.3-9.3,25.4a30.9,30.9,0,0,1-15.9,3.8c-6.8-.3-13.8-.4-20.3-2.3-22.8-6.5-43.1-1.8-62.4,11.6-29,20.2-51.3,45.3-60.9,80.1-9,32.4,6.5,54.6,27.8,65.9,14.9,7.9,31.2,12.3,48.1,14.2,24.5,2.7,47-4.3,69.2-13.9,11.2-4.8,19.4-11.9,23.7-23.4.1-.2.5-.3.8-.4l2.9,1.8a150.7,150.7,0,0,0,82.8,23.7,148.8,148.8,0,0,0,68.7-16.9c1.6-.8,3-2.7,5.1-.3,9.4,10.8,19.1,21.6,24.3,35.1,6.3,16.2,7.3,33.4,6.3,50.6s-6.2,32.7-8.2,49.2c-.1,1.1-2.3,2.5-.1,3.3s2-1.4,2.6-2.4c10.4-19.2,19.9-38.7,22.2-61,1.5-15.1,3.8-30.2,2.1-45.3-1.9-17.6-10.1-32.9-19.2-47.8-1.4-2.3-1.9-3.6.7-5.6,13.2-10.4,26.3-21,38.8-32.3,2.6-2.3,4.4-2.7,7.6-.5,10.8,7.5,21.8,14.7,34,19.9,28,12.2,58.6,7.6,78.6-11.9a2.7,2.7,0,0,0,2.8-2.8c2.2-.5,2.3,1.5,3,2.7,3.2,5.2,5.2,10.9,7.7,18,1.2-7.9-1.8-13.8-2.6-20.1l1.3.2a348.2,348.2,0,0,0,132.1,25.4c2.7,0,3.3,1.2,3.7,3.5a166.7,166.7,0,0,1,2.2,21.8c.7,20.3.2,40.6-3.1,60.7-.2.9-.7,2.2.6,2.5s1.8-1.2,2.3-2.1c14.2-26.4,26.9-53.3,23.7-84.6-.2-2.4.3-3.1,2.7-3.4,4.7-.6,9.6-.3,15.3-2.7-5.8,0-10.4-.2-15.1.1-3.1.2-3.9-1.1-4.4-3.8-4-22.2-14.2-41.4-28.1-58.8-23.3-29.2-52.8-50.6-85.8-67.3s-66.6-25.9-101.2-35.1c-1.2-.3-2.7-.1-3.5-1.9,12.9-11.7,23.9-25.4,38.2-35.7,16.9-12.2,35.1-18.9,56.3-13.5a132.2,132.2,0,0,1,26.6,9.8c20.3,10.1,37.7,24.4,55.8,37.7,21.6,15.9,43.9,30.7,68.8,41.1a262.6,262.6,0,0,0,89,20.3,49.6,49.6,0,0,0-7.5-1.7,251.8,251.8,0,0,1-118.6-51.5c-16-12.6-29.3-28.1-43.9-42.3s-27.5-25.2-43.9-34.5c-14.7-8.3-30.4-14-48.5-15.5,6.2-3.8,11.5-6.8,16.4-10.2,3-2.1,5.2-2.2,8.5-.5a143.6,143.6,0,0,0,49.5,14.6c12.8,1.5,25.5.3,38.2-.4,3.6-.4,7.1-.7,11-2.6-4.3-1-7.8,1.1-11.4.9-.5.8-1.4.7-2.2.8a147,147,0,0,1-31.2-.1,139.2,139.2,0,0,1-54.8-17.5A512.9,512.9,0,0,0,782.7,144a692.7,692.7,0,0,0,59.9-67.6c-1.1-.3-1.5-.5-1.7-.4l-3.5,2.8a487.2,487.2,0,0,1-158.1,92.5c-3.7,1.3-5.9.8-8.7-1.9-12.6-12.2-25.4-24.1-38.1-36.1-22.4-21-47.7-37.2-76.9-47.1C513,71.6,469.1,67.8,424.5,69.5c-2.2.1-4.2.4-6.3-.8-8.8-4.9-18.3-7.9-27.7-11.1C321.6,33.7,251.9,13,179.4,3.4,173.6,2.7,167.6,3,162,1Z"/>
    <path class="cls-2" d="M162,1c5.6,2,11.6,1.7,17.4,2.4,72.5,9.6,142.1,30.3,211,54.1,9.4,3.3,19,6.3,27.7,11.1,2.1,1.1,4.1.9,6.3.8,44.6-1.7,88.5,2.2,131.1,16.7,29.2,9.9,54.5,26.1,76.9,47.1,12.8,12,25.5,23.9,38.1,36.1,2.8,2.7,5,3.2,8.7,1.9A487.2,487.2,0,0,0,837.3,78.7l3.5-2.8c.2-.1.6.1,1.7.4A692.7,692.7,0,0,1,782.7,144a512.9,512.9,0,0,1-69.6,57.5A139.2,139.2,0,0,0,767.9,219a147,147,0,0,0,31.2.1c.8-.1,1.7,0,2.2-.8l.4,1.7c-12.7.8-25.4,1.9-38.2.4A143.6,143.6,0,0,1,714,205.7c-3.3-1.7-5.6-1.5-8.5.5-5,3.5-10.3,6.4-16.4,10.2,18.1,1.5,33.8,7.2,48.5,15.5,16.4,9.2,30.4,21.4,43.9,34.5s27.8,29.7,43.9,42.3a251.8,251.8,0,0,0,118.6,51.5,49.6,49.6,0,0,1,7.5,1.7,262.6,262.6,0,0,1-89-20.3c-24.9-10.4-47.2-25.2-68.8-41.1-18.1-13.3-35.5-27.6-55.8-37.7a132.2,132.2,0,0,0-26.6-9.8c-21.2-5.4-39.3,1.3-56.3,13.5-14.3,10.3-25.3,24-38.2,35.7.8,1.8,2.3,1.6,3.5,1.9,34.6,9.2,69.1,18.9,101.2,35.1s62.5,38.1,85.8,67.3c13.9,17.4,24.1,36.7,28.1,58.8.5,2.7,1.3,4,4.4,3.8,4.6-.3,9.2-.1,15.1-.1-5.7,2.3-10.5,2-15.3,2.7-2.4.3-3,1.1-2.7,3.4,3.2,31.3-9.5,58.2-23.7,84.6-.5.9-.8,2.5-2.3,2.1s-.8-1.6-.6-2.5c3.4-20.1,3.9-40.4,3.1-60.7a166.7,166.7,0,0,0-2.2-21.8c-.4-2.3-.9-3.5-3.7-3.5A348.2,348.2,0,0,1,675.3,448l-1.3-.2c.9,6.3,3.9,12.2,2.6,20.1-2.5-7-4.5-12.8-7.7-18-.7-1.1-.8-3.1-3-2.7.1-3.8-3-4.6-5.6-5.9l-56.7-26.9a10.8,10.8,0,0,0-7.2-.9c-14.2,2.7-26.6,9.3-38.4,17.2-2.5,1.7-2.2,2.6,0,4.2,7.7,5.6,15.1,11.4,23.4,16.2,26.5,15.4,52.7,16.9,78.6-1.2,1.1-.8,2.2-1.9,3.1.1-20,19.5-50.6,24.1-78.6,11.9-12.1-5.3-23.2-12.4-34-19.9-3.1-2.2-5-1.8-7.6.5-12.5,11.3-25.6,21.9-38.8,32.3-2.6,2-2.1,3.3-.7,5.6,9.1,14.8,17.2,30.2,19.2,47.8,1.7,15.1-.6,30.2-2.1,45.3-2.3,22.3-11.8,41.7-22.2,61-.6,1.1-.9,3.1-2.6,2.4s0-2.2.1-3.3c2-16.5,7.3-32.5,8.2-49.2s0-34.4-6.3-50.6c-5.3-13.5-14.9-24.3-24.3-35.1-2.1-2.4-3.5-.5-5.1.3a148.8,148.8,0,0,1-68.7,16.9A150.7,150.7,0,0,1,316.9,492l-2.9-1.8c-.3.2-.8.2-.8.4-4.3,11.5-12.5,18.6-23.7,23.4-22.2,9.5-44.6,16.6-69.2,13.9-16.9-1.9-33.2-6.3-48.1-14.2-21.3-11.3-36.8-33.4-27.8-65.9,9.6-34.8,31.9-59.9,60.9-80.1,19.2-13.4,39.5-18.2,62.4-11.6,6.6,1.9,13.5,1.9,20.3,2.3a30.9,30.9,0,0,0,15.9-3.8c11.8-6.1,14.4-13.2,9.3-25.4l-1.6-3.7c-3.2-7.7-2.3-9.8,5.1-13.2,5.8-2.6,7.1-5.7,4.4-11.5-1.4-3.2-3.2-6.2-5-9.6,1.8-.7,3.8-1.4,5.6-2.3,5.3-2.6,6.1-6.2,2.4-10.8a14.9,14.9,0,0,0-1.7-1.8c-8.3-7.3-8.3-8.6,0-16a60.6,60.6,0,0,1,11.5-7.8c5.7-3.1,6.8-6.8,3.7-12.4s-7.6-11.3-11.7-16.7c-5.8-7.5-11.8-14.9-16.9-22.9a22.9,22.9,0,0,1-3.5-14.8c.4-4.5.5-9.1,1.6-13.4,4.9-18.4-1.6-34.4-10.1-49.9a57.1,57.1,0,0,0-12-15.5c2.2,13.9,2.7,27,.1,40.1s-8.7,24.9-18.8,34.4c-29.1,27-61.2,50.4-92.5,74.7-17.8,13.8-36.1,26.8-52.9,41.8-11.2,10-21.9,20.5-30.5,33.7-2.5-6.8-4.8-13.1-7.2-19.4-9.3-23.7-19-47.2-33-68.6a74.7,74.7,0,0,0-8.1-10.7c-20.9-22-31.3-49-37.9-78-1-4.6-.5-9.5-3-13.8V115c.3-.4.8-.7.9-1.1C6.4,91.8,16.7,72.4,29.8,54.4,51.3,24.7,82.6,10.9,117.1,3c2.6-.6,5.6,0,7.9-2ZM623.3,228.3c-89.7-20.8-170.2-61-251.3-100.8l.6,2.9a237,237,0,0,0,28.5,69.4c17,27.7,39.3,49.3,69.8,61.9,20.4,8.4,41.4,14.6,62.5,20.5a11.4,11.4,0,0,0,10.6-1.8C569.9,262.8,592.6,240.2,623.3,228.3Zm45.1-53.7c-20.5-17.2-38.9-35.4-60-50.4a198.1,198.1,0,0,0-42.8-23.3c-34.3-13.4-70.1-18-106.6-18.8-5.5-.1-11.1,0-17,0,.5.9.6,1.3.8,1.4,28.2,19.4,55,41,84.2,59,22.7,14.1,46.5,25.9,72.7,31.9C622.2,179.7,644.8,180.9,668.4,174.6ZM808.5,466.3a41.5,41.5,0,0,0-7.8-16c-10.3-12.9-22.9-23.2-36.7-32C727,394.8,686.4,380.8,643.7,372a214.5,214.5,0,0,0-27.7-4.1C668,423.5,732.3,455.9,808.5,466.3ZM553.5,395.1c-35.7-10.3-70.8-9.1-105.2,5,23.8-2.9,47.1-1.7,69.4,8.3a4.4,4.4,0,0,0,4.2,0A280.9,280.9,0,0,1,553.5,395.1ZM504.6,418c-15-4.8-40.3-5.2-50.8-.9,5.7,6.4,11.3,12.7,16.8,19.1,1.4,1.7,2.5,1.6,4.1.5Zm-78.4,37.7a125.6,125.6,0,0,0-31-17.7,3.4,3.4,0,0,0-2.9-.2l-20,9.2C389.7,455.4,407,458,426.2,455.7Zm-66.9-25.4-.2-.7c-2,.2-4.1.3-6.1.6s-2.7-.2-2.1,1.7a2.1,2.1,0,0,0,2.9,1.1Z"/>
    <path class="cls-3" d="M125,1c-2.3,2-5.2,1.4-7.9,2C82.6,10.9,51.3,24.7,29.8,54.4c-13,18-23.4,37.4-27.9,59.5-.1.4-.6.7-.9,1.1C1,78.2,1,41.3.9,4.5.9,1.5,1.5.9,4.5.9Z"/>
    <path class="cls-3" d="M663.2,450c-1-2-2-.9-3.1-.1-25.9,18.1-52.2,16.7-78.6,1.2-8.2-4.8-15.7-10.6-23.4-16.2-2.2-1.6-2.5-2.5,0-4.2,11.8-8,24.2-14.5,38.4-17.2a10.8,10.8,0,0,1,7.2.9l56.7,26.9c2.6,1.2,5.7,2.1,5.6,5.9A2.7,2.7,0,0,1,663.2,450Z"/>
    <path class="cls-3" d="M801.7,219.9l-.4-1.7c3.6.2,7.1-1.9,11.4-.9C808.8,219.2,805.3,219.5,801.7,219.9Z"/>
    <path class="cls-3" d="M623.3,228.3c-30.7,11.9-53.4,34.4-79.3,52a11.4,11.4,0,0,1-10.6,1.8c-21.2-5.9-42.2-12.1-62.5-20.5-30.5-12.5-52.8-34.2-69.8-61.9a237,237,0,0,1-28.5-69.4l-.6-2.9C453.1,167.3,533.6,207.5,623.3,228.3Z"/>
    <path class="cls-3" d="M668.4,174.6c-23.6,6.3-46.1,5.1-68.7-.1-26.2-6-50-17.9-72.7-31.9-29.2-18.1-55.9-39.6-84.2-59-.2-.2-.3-.5-.8-1.4,5.9,0,11.4-.1,17,0,36.5.8,72.3,5.4,106.6,18.8a198.1,198.1,0,0,1,42.8,23.3C629.5,139.2,647.8,157.4,668.4,174.6Z"/>
    <path class="cls-3" d="M808.5,466.3c-76.2-10.4-140.4-42.8-192.5-98.4a214.5,214.5,0,0,1,27.7,4.1c42.7,8.7,83.4,22.7,120.3,46.3,13.8,8.8,26.4,19.1,36.7,32A41.5,41.5,0,0,1,808.5,466.3Z"/>
    <path class="cls-3" d="M553.5,395.1A280.9,280.9,0,0,0,522,408.4a4.4,4.4,0,0,1-4.2,0c-22.3-10-45.6-11.2-69.4-8.3C482.8,386.1,517.8,384.9,553.5,395.1Z"/>
    <path class="cls-3" d="M504.6,418l-29.9,18.7c-1.7,1.1-2.7,1.1-4.1-.5-5.5-6.4-11.2-12.7-16.8-19.1C464.3,412.8,489.6,413.2,504.6,418Z"/>
    <path class="cls-3" d="M426.2,455.7c-19.2,2.3-36.5-.3-53.9-8.7l20-9.2a3.4,3.4,0,0,1,2.9.2A125.6,125.6,0,0,1,426.2,455.7Z"/>
    <path class="cls-3" d="M359.3,430.4l-5.5,2.6a2.1,2.1,0,0,1-2.9-1.1c-.6-1.8,1.2-1.5,2.1-1.7s4-.4,6.1-.6Z"/>
  </g>
</svg>
