<?xml version="1.0" encoding="utf-8"?>
<!-- Generator: Adobe Illustrator 21.0.2, SVG Export Plug-In . SVG Version: 6.00 Build 0)  -->
<svg version="1.1" id="Layer_1" xmlns="http://www.w3.org/2000/svg" xmlns:xlink="http://www.w3.org/1999/xlink" x="0px" y="0px"
	 viewBox="0 0 150 100.4" style="enable-background:new 0 0 150 100.4;" xml:space="preserve">
<style type="text/css">
	.st0{fill:#4D2C2B;}
	.st1{fill:#FDFCFC;}
</style>
<title>Artboard 1</title>
<g>
	<path class="st0" d="M25.4,0c0.9,0.3,1.8,0.3,2.7,0.4c11.4,1.5,22.4,4.8,33.3,8.5c1.5,0.5,3,1,4.4,1.8c0.3,0.2,0.6,0.1,1,0.1
		c7-0.3,14,0.3,20.7,2.6c4.6,1.6,8.6,4.1,12.1,7.4c2,1.9,4,3.8,6,5.7c0.4,0.4,0.8,0.5,1.4,0.3c9.2-3.2,17.6-8.2,25-14.6l0.6-0.4
		c0,0,0.1,0,0.3,0.1c-2.9,3.8-6.1,7.3-9.4,10.7c-3.4,3.3-7.1,6.4-11,9.1c2.7,1.5,5.6,2.5,8.6,2.8c1.6,0.2,3.3,0.2,4.9,0
		c0.1,0,0.3,0,0.3-0.1l0.1,0.3c-2,0.1-4,0.3-6,0.1c-2.7-0.3-5.4-1.1-7.8-2.3c-0.5-0.3-0.9-0.2-1.3,0.1c-0.8,0.6-1.6,1-2.6,1.6
		c2.9,0.2,5.3,1.1,7.7,2.4c2.6,1.5,4.8,3.4,6.9,5.4s4.4,4.7,6.9,6.7c5.4,4.3,11.9,7.1,18.7,8.1c0.4,0.1,0.8,0.1,1.2,0.3
		c-4.8-0.2-9.6-1.3-14-3.2c-3.9-1.6-7.5-4-10.9-6.5c-2.9-2.1-5.6-4.4-8.8-6c-1.3-0.7-2.7-1.2-4.2-1.5c-3.3-0.9-6.2,0.2-8.9,2.1
		c-2.3,1.6-4,3.8-6,5.6c0.1,0.3,0.4,0.3,0.6,0.3c5.5,1.5,10.9,3,16,5.5c5.1,2.6,9.9,6,13.5,10.6c2.2,2.7,3.8,5.8,4.4,9.3
		c0.1,0.4,0.2,0.6,0.7,0.6c0.7,0,1.5,0,2.4,0c-0.9,0.4-1.7,0.3-2.4,0.4c-0.4,0-0.5,0.2-0.4,0.5c0.5,4.9-1.5,9.2-3.7,13.4
		c-0.1,0.1-0.1,0.4-0.4,0.3c-0.2-0.1-0.1-0.3-0.1-0.4c0.5-3.2,0.6-6.4,0.5-9.6c0-1.2-0.2-2.3-0.3-3.4c-0.1-0.4-0.1-0.6-0.6-0.6
		c-7.1,0-14.2-1.3-20.9-4l-0.2,0c0.1,1,0.6,1.9,0.4,3.2c-0.4-1.1-0.7-2-1.2-2.8c-0.1-0.2-0.1-0.5-0.5-0.4c0-0.6-0.5-0.7-0.9-0.9
		l-8.9-4.2c-0.4-0.2-0.8-0.2-1.1-0.1c-2.2,0.4-4.2,1.5-6.1,2.7c-0.4,0.3-0.3,0.4,0,0.7c1.2,0.9,2.4,1.8,3.7,2.6
		c4.2,2.4,8.3,2.7,12.4-0.2c0.2-0.1,0.3-0.3,0.5,0c-3.2,3.1-8,3.8-12.4,1.9c-1.9-0.8-3.7-2-5.4-3.1c-0.5-0.3-0.8-0.3-1.2,0.1
		c-2,1.8-4,3.5-6.1,5.1c-0.4,0.3-0.3,0.5-0.1,0.9c1.4,2.3,2.7,4.8,3,7.5c0.3,2.4-0.1,4.8-0.3,7.2c-0.4,3.5-1.9,6.6-3.5,9.6
		c-0.1,0.2-0.1,0.5-0.4,0.4c-0.3-0.1,0-0.3,0-0.5c0.3-2.6,1.2-5.1,1.3-7.8c0.1-2.6,0-5.4-1-8c-0.8-2.1-2.4-3.8-3.8-5.5
		c-0.3-0.4-0.6-0.1-0.8,0c-3.3,1.7-7.1,2.7-10.8,2.7c-4.6,0-9.2-1.3-13.1-3.8l-0.5-0.3c0,0-0.1,0-0.1,0.1c-0.7,1.8-2,2.9-3.7,3.7
		c-3.5,1.5-7,2.6-10.9,2.2c-2.7-0.3-5.2-1-7.6-2.2c-3.4-1.8-5.8-5.3-4.4-10.4c1.5-5.5,5-9.5,9.6-12.6c3-2.1,6.2-2.9,9.8-1.8
		c1,0.3,2.1,0.3,3.2,0.4c0.9,0,1.7-0.2,2.5-0.6c1.9-1,2.3-2.1,1.5-4L49,51.2c-0.5-1.2-0.4-1.5,0.8-2.1c0.9-0.4,1.1-0.9,0.7-1.8
		c-0.2-0.5-0.5-1-0.8-1.5c0.3-0.1,0.6-0.2,0.9-0.4c0.8-0.4,1-1,0.4-1.7c-0.1-0.1-0.2-0.2-0.3-0.3c-1.3-1.2-1.3-1.4,0-2.5
		c0.6-0.5,1.2-0.9,1.8-1.2c0.9-0.5,1.1-1.1,0.6-2s-1.2-1.8-1.8-2.6c-0.9-1.2-1.9-2.4-2.7-3.6c-0.4-0.7-0.6-1.5-0.6-2.3
		c0.1-0.7,0.1-1.4,0.3-2.1c0.8-2.9-0.3-5.4-1.6-7.9c-0.5-0.9-1.1-1.7-1.9-2.4c0.3,2.2,0.4,4.3,0,6.3c-0.4,2.1-1.4,3.9-3,5.4
		c-4.6,4.3-9.7,8-14.6,11.8c-2.8,2.2-5.7,4.2-8.3,6.6c-1.8,1.6-3.5,3.2-4.8,5.3c-0.4-1.1-0.8-2.1-1.1-3.1c-1.5-3.7-3-7.5-5.2-10.8
		c-0.4-0.6-0.8-1.2-1.3-1.7c-3.3-3.5-4.9-7.7-6-12.3c-0.2-0.7-0.1-1.5-0.5-2.2V18c0-0.1,0.1-0.1,0.1-0.2c0.7-3.5,2.3-6.6,4.4-9.4
		c3.4-4.7,8.3-6.9,13.8-8.1c0.4-0.1,0.9,0,1.2-0.3H25.4z M98.2,35.9C84,32.6,71.3,26.2,58.5,20l0.1,0.5c0.9,3.9,2.4,7.6,4.5,11
		c2.7,4.4,6.2,7.8,11,9.8c3.2,1.3,6.5,2.3,9.9,3.2c0.6,0.2,1.2,0.1,1.7-0.3C89.8,41.3,93.3,37.8,98.2,35.9z M105.3,27.4
		c-3.2-2.7-6.1-5.6-9.5-8c-2.1-1.5-4.4-2.7-6.8-3.7c-5.4-2.1-11.1-2.8-16.8-3c-0.9,0-1.8,0-2.7,0c0.1,0.1,0.1,0.2,0.1,0.2
		c4.5,3.1,8.7,6.5,13.3,9.3c3.6,2.2,7.3,4.1,11.5,5C98,28.2,101.6,28.4,105.3,27.4L105.3,27.4z M127.4,73.4
		c-0.2-0.9-0.6-1.8-1.2-2.5c-1.6-2-3.6-3.7-5.8-5.1c-5.8-3.7-12.2-5.9-19-7.3c-1.4-0.3-2.9-0.5-4.4-0.6
		C105.3,66.7,115.4,71.8,127.4,73.4z M87.2,62.2C81.5,60.6,76,60.8,70.6,63c3.8-0.5,7.4-0.3,11,1.3c0.2,0.1,0.5,0.1,0.7,0
		C83.8,63.5,85.5,62.8,87.2,62.2z M79.5,65.8c-2.4-0.8-6.4-0.8-8-0.1c0.9,1,1.8,2,2.7,3c0.2,0.3,0.4,0.3,0.6,0.1L79.5,65.8z
		 M67.1,71.8c-1.5-1.2-3.1-2.1-4.9-2.8c-0.1-0.1-0.3-0.1-0.5,0l-3.2,1.5C61.3,71.7,64.1,72.1,67.1,71.8z M56.5,67.8l0-0.1
		c-0.3,0-0.6,0-1,0.1c-0.3,0-0.4,0-0.3,0.3c0.1,0.2,0.3,0.3,0.4,0.2c0,0,0,0,0,0L56.5,67.8z"/>
	<path class="st1" d="M126.4,34.6l-0.1-0.3c0.6,0,1.1-0.3,1.8-0.1C127.5,34.4,126.9,34.5,126.4,34.6z"/>
</g>
</svg>
