<svg id="Layer_1" data-name="Layer 1" xmlns="http://www.w3.org/2000/svg" width="856" height="720" viewBox="0 0 856 720">
  <defs>
    <style>
      .cls-1 {
        fill: #fdfdfe;
      }

      .cls-2 {
        fill: #fefefe;
      }

      .cls-3 {
        fill: #061834;
      }

      .cls-4 {
        fill: #aad4fe;
      }

      .cls-5 {
        fill: #fdc312;
      }

      .cls-6 {
        fill: #3cb9ea;
      }
    </style>
  </defs>
  <title>Artboard 1</title>
  <g>
    <path class="cls-1" d="M183,721q-89,0-178,.1c-3.4,0-4.1-.7-4.1-4.1Q1.1,361,.9,5C.9,1.6,1.6.9,5,.9H297q0,.5,0,.9l-1.8,3.5C284,26,285,45.8,298.5,64.9c3.4,4.8,7.7,8.6,11.5,13l-.6.7A178.7,178.7,0,0,1,281,62.3c-2.5-1.8-3.4-1.5-4.4,1.4a63.6,63.6,0,0,0-3.6,15c-2,21.3,7,37.3,23.5,50,1.4,1.1,3.7,1.5,3.6,4.7L276.3,122c-5.6,21.8-1.8,40.9,15.2,56.1,3.5,3.1,4.2,5.7,3.3,10-3.8,19.2,1.1,35.9,15.4,49.6,2.7,2.6,5.6,3.5,9.3,3.5,38.3.1,76.7-1.3,114.9.9,24.6,1.4,48.9,5.4,72.4,13a179,179,0,0,1,50.6,26.1l4.3,4.1a112.9,112.9,0,0,1,30.1,41.8c9.6,23.3,11,47.4,7.8,72.1-2.1,16.2-7,31.4-16.3,45-17.4,25.5-42.4,40.3-71,49.8-31.7,10.6-64.4,13.4-97.5,12-13.2-.6-26.1-.6-38.4,5.1a28.6,28.6,0,0,1-5.8,1.5c-21.7,4.9-42.3,3.2-61.2-9.6-6.7-4.5-11.2-4.5-17.8.3l-37,27.3c-1.2.9-3.3,1.2-2.9,3.5l-1.5,1.2c-20.3,12-40.6,24-61,35.8-29.3,17.1-58.6,34-88.5,49.9-11.1,5.9-22.3,12-34,16.6-2.3.9-2.7,1.8-1.1,3.9a36,36,0,0,0,11.5,10.1c9,5.3,19,5.5,29,5.4-3.3,3.6-7.7,5.6-11.9,7.8s-2.8,2.5-.4,4.4c11.1,9.1,23.7,12.7,37.9,11.3,3.8-.4,7.4-1.9,11.3-1.4-5.9,7.4-14.4,11.9-21.7,18.2,9.1,7.3,19.2,10,30.3,9.1s20-5.4,29-10.8c.9,2.3-1,3.3-2.2,4.5-3.5,3.7-7.1,7.3-10.8,10.8s-2.4,3.3.6,4.8C173,718,178.2,718.8,183,721ZM138.8,372.3c-12.4,7.4-25.6,11.3-38.9,14.9-4,1.1-4.6,2.1-2.1,5.6q21,29.7,57.1,27c3.7-.3,5.6.7,7.1,4.1a60.3,60.3,0,0,0,17.6,22.6c14.8,11.9,31.8,15.3,50.2,12.3,3-.5,4.8.2,6.5,2.8,16,23.9,38.6,31.8,66.3,26.9a9.7,9.7,0,0,1,9,2.4c10.2,8.5,22,12.7,35.2,13.2s28.3-3.3,41.7-8.5c2-.8,3.9-1.7,6.2-1.5a341.9,341.9,0,0,0,53.4.8c25.5-1.7,50.5-6,74.1-16.1s45.7-25.9,58.1-50.7c6.9-13.8,9.2-28.7,10-43.9,2.3-45.9-15.2-81.6-55.3-105.1-29.1-17-61.3-23.3-94.3-26-27.4-2.3-54.9-1.8-82.4-1.6-52.3.2-104.6,1.6-156.9,3.6-17.5.7-35,1.6-52.4,2.4-24.1,1.1-48.2,3.4-72.3,3.6-21.1.2-42.3.5-63.9-1,5.1,20.4,16.2,35.5,35.4,43.8,11.7,5,24,6.5,36.6,6.1,3.3-.1,6.7,1.6,7.1,4.2s-1.5,6-5.1,6.9c-.8.2-1.5.6-2.3.9a231.6,231.6,0,0,1-35,7.8c-4.2.6-4.9,1.3-2.9,5.3,14.7,28.6,41.1,38.4,71.8,33.2C126,367,132.2,368.9,138.8,372.3Z"/>
    <path class="cls-2" d="M857,306q0,205.4.1,410.8c0,3.8-1,4.3-4.4,4.3H197c4.3-2.2,9.1-2.7,13.5-4.6,15.6-7,26.4-19.2,36.5-32.3,14-18.2,26.4-37.4,38.2-57s24-40.1,34.8-60.9l7.4,2.7c18.9,7.4,38,14.2,57.6,19.8,47.7,13.5,96.1,22.2,146,16.4,32.7-3.8,62.8-14.6,89.9-33.4,32.3-22.4,55.8-52.6,75.4-86.2,21-36,36.7-74.6,52.8-113,9-21.3,17.4-42.9,28-63.4l56.7-2.5C841.5,306.1,849.2,305.3,857,306Z"/>
    <path class="cls-2" d="M299,1H852.7c3.4,0,4.4.4,4.4,4.3q-.2,149.4-.1,298.8c-.9.7-1.5,0-2.2-.4-24.6-16.8-52.9-23.1-81.4-28.8-1.5-4.4-2.9-8.8-4.5-13.2-15-39.8-46.7-57.6-88.5-49.6-26.7,5.1-50.4,17.6-73.1,32-7.9,5-15.5,10.3-23.2,15.4-12.9-19-28.5-35.5-45.5-50.9C477.1,152.3,413,98.9,347.7,47A514.9,514.9,0,0,1,302.6,6C301.2,4.6,299.1,3.4,299,1Z"/>
    <path class="cls-3" d="M299,1c.1,2.4,2.2,3.6,3.6,5a514.9,514.9,0,0,0,45.1,41c65.3,52,129.4,105.3,191,161.6,16.9,15.4,32.6,31.9,45.4,50.9-1.4,1.2-2.7,2.4-4.1,3.6-7.6,6-15.5,11.5-22.5,18.2a179,179,0,0,0-50.6-26.1c-23.5-7.6-47.8-11.6-72.4-13-38.3-2.2-76.6-.8-114.9-.9-3.7,0-6.6-.8-9.3-3.5-14.3-13.7-19.3-30.4-15.4-49.6.9-4.3.2-6.9-3.3-10-17.1-15.2-20.9-34.3-15.2-56.1L300,133.3c.1-3.2-2.2-3.6-3.6-4.7-16.4-12.7-25.4-28.7-23.5-50a63.6,63.6,0,0,1,3.6-15c1-2.9,1.9-3.2,4.4-1.4a178.6,178.6,0,0,0,28.5,16.4c.5.3,1,.7,1.5,0l-.9-.7c-3.8-4.3-8.2-8.2-11.5-13C285,45.8,284,26,295.2,5.4L297,1.9l1-.9Z"/>
    <path class="cls-4" d="M320,566.1c-10.8,20.8-22.8,40.9-34.8,60.9S261,665.9,247,684c-10.1,13.1-20.9,25.4-36.5,32.3-4.4,2-9.3,2.4-13.5,4.6H183c-4.8-2.2-10-3-14.7-5.3-3.1-1.5-3.1-2.6-.6-4.8s7.3-7.1,10.8-10.8c1.2-1.2,3.1-2.2,2.2-4.5h.1c1.4.2,2.9.6,2.3-1.8,5.2-3.9,9.5-8.8,13.6-13.7,18.4-21.5,36.8-42.9,55-64.7,16.1-19.3,31.7-38.9,47.6-58.4Z"/>
    <path class="cls-5" d="M773.5,274.8c28.5,5.6,56.8,11.9,81.4,28.8.6.4,1.3,1.1,2.2.4v2c-7.8-.7-15.5.1-23.3.5L777.1,309c.8-2.8,1.8-5.3,1.4-8.5C777.2,291.9,775.5,283.3,773.5,274.8Z"/>
    <path class="cls-2" d="M298,1l-1,.9q0-.5,0-.9Z"/>
    <path class="cls-3" d="M138.8,372.3c-6.6-3.4-12.7-5.2-20.5-3.9-30.6,5.2-57-4.6-71.8-33.2-2-3.9-1.3-4.7,2.9-5.3a231.6,231.6,0,0,0,35-7.8c.8-.2,1.5-.7,2.3-.9,3.6-.9,5.6-4.2,5.1-6.9S88,310,84.7,310c-12.6.3-24.9-1.1-36.6-6.1-19.3-8.3-30.3-23.4-35.4-43.8,21.6,1.5,42.7,1.1,63.9,1,24.2-.2,48.2-2.6,72.3-3.6,17.5-.8,34.9-1.7,52.4-2.4,52.3-2,104.6-3.3,156.9-3.6,27.5-.1,55-.6,82.4,1.6,33,2.8,65.3,9,94.3,26,40.1,23.5,57.6,59.2,55.3,105.1-.8,15.2-3.1,30.1-10,43.9-12.4,24.8-33.3,40.2-58.1,50.7s-48.6,14.4-74.1,16.1a341.9,341.9,0,0,1-53.4-.8c-2.3-.2-4.2.7-6.2,1.5-13.4,5.1-27,9.1-41.7,8.5s-25.1-4.7-35.2-13.2a9.7,9.7,0,0,0-9-2.4c-27.6,5-50.3-3-66.3-26.9-1.8-2.6-3.5-3.3-6.5-2.8-18.4,3-35.4-.4-50.2-12.3A60.3,60.3,0,0,1,162,424c-1.5-3.5-3.4-4.4-7.1-4.1q-36.1,2.6-57.1-27c-2.5-3.5-1.9-4.5,2.1-5.6C113.2,383.6,126.4,379.7,138.8,372.3Z"/>
    <path class="cls-6" d="M773.5,274.8c2,8.5,3.7,17,5,25.7.5,3.2-.5,5.7-1.4,8.5-10.6,20.6-19,42.1-28,63.4-16.1,38.3-31.8,76.9-52.8,113-19.6,33.6-43.1,63.7-75.4,86.2-27.1,18.8-57.2,29.6-89.9,33.4-49.9,5.8-98.2-2.8-146-16.4-19.5-5.5-38.7-12.4-57.6-19.8l-7.4-2.7-20.8-9c-2.7-1.3-5.6-2.3-8.1-3.9-5.2-3.5-8.8-1.9-13.1,2.3q-54.5,53-111,103.7c-7.8,7-15.1,14.6-24.1,20.1-3.9-.5-7.5,1.1-11.3,1.4-14.2,1.4-26.8-2.3-37.9-11.3-2.4-1.9-2.4-2.9.4-4.4s8.6-4.2,11.9-7.8H106l.9-.2c1.3.1,2.1-.9,3-1.5,43.9-29.4,85.9-61.3,128.1-93l27.9-21.2-14-7.1c-.5-2.3,1.7-2.6,2.9-3.5l37-27.3c6.5-4.8,11.1-4.8,17.8-.3,18.9,12.8,39.5,14.5,61.2,9.6a28.6,28.6,0,0,0,5.8-1.5c12.3-5.7,25.2-5.6,38.4-5.1,33.1,1.4,65.9-1.4,97.5-12,28.6-9.5,53.5-24.3,71-49.8,9.3-13.6,14.2-28.8,16.3-45,3.2-24.6,1.8-48.8-7.8-72.1a112.9,112.9,0,0,0-30.1-41.8l-4.3-4.1c7-6.7,14.9-12.2,22.5-18.2,1.4-1.1,2.8-2.4,4.1-3.6,7.7-5.1,15.4-10.4,23.2-15.4,22.7-14.4,46.3-26.9,73.1-32,41.8-8,73.5,9.8,88.5,49.6C770.6,266,772,270.5,773.5,274.8ZM726.2,264a11.8,11.8,0,0,0-12-12,12.1,12.1,0,1,0,.2,24.1A11.6,11.6,0,0,0,726.2,264Z"/>
    <path class="cls-3" d="M143,679.2c9-5.5,16.3-13.1,24.1-20.1q56.6-50.7,111-103.7c4.3-4.2,7.8-5.8,13.1-2.3,2.5,1.6,5.4,2.6,8.1,3.9-15.8,19.5-31.5,39.1-47.6,58.4-18.1,21.7-36.6,43.1-55,64.7-4.2,4.9-8.4,9.8-13.6,13.7l-2.3,1.8h-.1c-9,5.4-18.3,9.9-29,10.8s-21.2-1.8-30.3-9.1C128.6,691,137.1,686.6,143,679.2Z"/>
    <path class="cls-4" d="M252,534.1l14,7.1L238,562.4c-42.2,31.7-84.2,63.6-128.1,93-.9.6-1.7,1.6-3,1.5s-.7-.5-.9.2h.2c-10,.1-19.9-.1-29-5.4a36,36,0,0,1-11.5-10.1c-1.5-2.1-1.2-3,1.1-3.9,11.8-4.6,22.9-10.7,34-16.6,29.9-15.9,59.3-32.9,88.5-49.9,20.4-11.9,40.7-23.9,61-35.8Z"/>
    <path class="cls-1" d="M310.1,77.9l.9.7c-.4.7-1,.3-1.5,0Z"/>
    <path class="cls-1" d="M180.8,695.8l2.3-1.8C183.7,696.3,182.2,696,180.8,695.8Z"/>
    <path class="cls-3" d="M726.2,264a11.6,11.6,0,0,1-11.8,12.1A12.1,12.1,0,1,1,726.2,264Z"/>
    <path class="cls-1" d="M106,657.1c.2-.6.4-1.1.9-.2Z"/>
  </g>
</svg>
