<?xml version="1.0" encoding="utf-8"?>
<!-- Generator: Adobe Illustrator 21.0.2, SVG Export Plug-In . SVG Version: 6.00 Build 0)  -->
<svg version="1.1" id="Layer_1" xmlns="http://www.w3.org/2000/svg" xmlns:xlink="http://www.w3.org/1999/xlink" x="0px" y="0px"
	 viewBox="0 0 150 127.9" style="enable-background:new 0 0 150 127.9;" xml:space="preserve">
<style type="text/css">
	.st0{fill:#FDFDFE;}
	.st1{fill:#061834;}
	.st2{fill:#AAD4FE;}
	.st3{fill:#FDC312;}
	.st4{fill:#FEFEFE;}
	.st5{fill:#ED58AE;}
</style>
<title>Artboard 1</title>
<g>
	<path class="st0" d="M22.4,66c-2.2,1.3-4.5,2-6.9,2.6c-0.7,0.2-0.8,0.4-0.4,1c2.5,3.5,5.9,5.1,10.1,4.8c0.7-0.1,1,0.1,1.3,0.7
		c0.7,1.6,1.8,2.9,3.1,4c2.6,2.1,5.6,2.7,8.9,2.2c0.5-0.1,0.9,0,1.2,0.5c2.8,4.2,6.9,5.6,11.8,4.8c0.6-0.1,1.2,0,1.6,0.4
		c1.8,1.5,3.9,2.3,6.3,2.3c2.3,0.1,5-0.6,7.4-1.5c0.4-0.1,0.7-0.3,1.1-0.3c3.2,0.3,6.3,0.3,9.5,0.1c4.5-0.3,9-1.1,13.2-2.9
		s8.1-4.6,10.3-9c1.2-2.5,1.6-5.1,1.8-7.8c0.4-8.2-2.7-14.5-9.8-18.7c-5.2-3-10.9-4.1-16.8-4.6c-4.9-0.4-9.8-0.3-14.6-0.3
		c-9.3,0-18.6,0.3-27.9,0.6c-3.1,0.1-6.2,0.3-9.3,0.4c-4.3,0.2-8.6,0.6-12.8,0.6C7.6,46.2,3.9,46.3,0,46c0.9,3.6,2.9,6.3,6.3,7.8
		c2.1,0.9,4.3,1.2,6.5,1.1c0.6,0,1.2,0.3,1.3,0.7c0.1,0.5-0.3,1.1-0.9,1.2c-0.1,0-0.3,0.1-0.4,0.2c-2,0.6-4.1,1.1-6.2,1.4
		c-0.7,0.1-0.9,0.2-0.5,0.9c2.6,5.1,7.3,6.8,12.8,5.9C20.1,65,21.2,65.4,22.4,66z"/>
	<path class="st1" d="M50.9,0c0,0.4,0.4,0.6,0.6,0.9c2.5,2.6,5.2,5,8,7.3c11.6,9.2,23,18.7,33.9,28.7c3,2.7,5.8,5.7,8.1,9
		c-0.2,0.2-0.5,0.4-0.7,0.6c-1.4,1.1-2.8,2-4,3.2c-2.7-2-5.8-3.6-9-4.6c-4.2-1.4-8.5-2.1-12.9-2.3c-6.8-0.4-13.6-0.1-20.4-0.2
		c-0.7,0-1.2-0.1-1.7-0.6c-2.5-2.4-3.4-5.4-2.7-8.8c0.2-0.8,0-1.2-0.6-1.8c-3-2.7-3.7-6.1-2.7-10l4.2,2c0-0.6-0.4-0.6-0.6-0.8
		c-2.9-2.3-4.5-5.1-4.2-8.9c0.1-0.9,0.3-1.8,0.6-2.7c0.2-0.5,0.3-0.6,0.8-0.2c1.6,1.1,3.3,2.1,5.1,2.9c0.1,0.1,0.2,0.1,0.3,0
		l-0.2-0.1c-0.7-0.8-1.5-1.5-2-2.3C48.4,8,48.2,4.4,50.2,0.8l0.3-0.6L50.7,0H50.9z"/>
	<path class="st2" d="M54.6,100.4c-1.9,3.7-4.1,7.3-6.2,10.8s-4.3,6.9-6.8,10.1c-1.8,2.3-3.7,4.5-6.5,5.7c-0.8,0.4-1.7,0.4-2.4,0.8
		h-2.5c-0.9-0.4-1.8-0.5-2.6-0.9c-0.6-0.3-0.6-0.5-0.1-0.9c0.4-0.4,1.3-1.3,1.9-1.9c0.2-0.2,0.6-0.4,0.4-0.8l0,0
		c0.2,0,0.5,0.1,0.4-0.3c0.9-0.7,1.7-1.6,2.4-2.4c3.3-3.8,6.5-7.6,9.8-11.5c2.9-3.4,5.6-6.9,8.5-10.4L54.6,100.4z"/>
	<path class="st3" d="M135.1,48.6c5.1,1,10.1,2.1,14.5,5.1c0.1,0.1,0.2,0.2,0.4,0.1v0.4c-1.4-0.1-2.8,0-4.1,0.1l-10.1,0.4
		c0.1-0.5,0.3-0.9,0.2-1.5C135.8,51.7,135.5,50.1,135.1,48.6z"/>
	<path class="st4" d="M50.7,0l-0.2,0.2c0-0.1,0-0.1,0-0.2H50.7z"/>
	<path class="st1" d="M22.4,66c-1.2-0.6-2.3-0.9-3.6-0.7C13.3,66.2,8.6,64.4,6,59.4c-0.4-0.7-0.2-0.8,0.5-0.9
		c2.1-0.3,4.2-0.8,6.2-1.4c0.1,0,0.3-0.1,0.4-0.2c0.6-0.2,1-0.7,0.9-1.2s-0.7-0.8-1.3-0.8c-2.2,0.1-4.4-0.2-6.5-1.1
		C2.9,52.3,0.9,49.7,0,46c3.8,0.3,7.6,0.2,11.4,0.2c4.3,0,8.6-0.5,12.8-0.6c3.1-0.1,6.2-0.3,9.3-0.4c9.3-0.4,18.6-0.6,27.9-0.6
		c4.9,0,9.8-0.1,14.6,0.3c5.9,0.5,11.6,1.6,16.8,4.6c7.1,4.2,10.2,10.5,9.8,18.7c-0.1,2.7-0.6,5.3-1.8,7.8c-2.2,4.4-5.9,7.1-10.3,9
		s-8.6,2.6-13.2,2.9c-3.2,0.2-6.3,0.2-9.5-0.1c-0.4,0-0.7,0.1-1.1,0.3c-2.4,0.9-4.8,1.6-7.4,1.5c-2.6-0.1-4.5-0.8-6.3-2.3
		c-0.4-0.4-1-0.6-1.6-0.4c-4.9,0.9-8.9-0.5-11.8-4.8c-0.3-0.5-0.6-0.6-1.2-0.5c-3.3,0.5-6.3-0.1-8.9-2.2c-1.3-1.1-2.4-2.4-3.1-4
		c-0.3-0.6-0.6-0.8-1.3-0.7c-4.3,0.3-7.7-1.3-10.1-4.8c-0.4-0.6-0.3-0.8,0.4-1C17.9,68,20.2,67.3,22.4,66z"/>
	<path class="st5" d="M135.1,48.6c0.4,1.5,0.7,3,0.9,4.6c0.1,0.6-0.1,1-0.2,1.5c-1.9,3.7-3.4,7.5-5,11.3c-2.9,6.8-5.6,13.7-9.4,20.1
		c-3.5,6-7.7,11.3-13.4,15.3c-4.8,3.3-10.2,5.3-16,5.9c-8.9,1-17.4-0.5-25.9-2.9c-3.5-1-6.9-2.2-10.2-3.5l-1.3-0.5l-3.7-1.6
		c-0.5-0.2-1-0.4-1.4-0.7c-0.9-0.6-1.6-0.3-2.3,0.4c-6.5,6.3-13,12.4-19.7,18.4c-1.4,1.2-2.7,2.6-4.3,3.6c-0.7-0.1-1.3,0.2-2,0.2
		c-2.5,0.2-4.8-0.4-6.7-2c-0.4-0.3-0.4-0.5,0.1-0.8s1.5-0.7,2.1-1.4l0,0h0.2c0.2,0,0.4-0.2,0.5-0.3c7.8-5.2,15.3-10.9,22.8-16.5
		l5-3.8l-2.5-1.3c-0.1-0.4,0.3-0.5,0.5-0.6l6.6-4.8c1.2-0.9,2-0.9,3.2-0.1c3.4,2.3,7,2.6,10.9,1.7c0.4-0.1,0.7-0.1,1-0.3
		c2.2-1,4.5-1,6.8-0.9c5.9,0.2,11.7-0.2,17.3-2.1c5.1-1.7,9.5-4.3,12.6-8.8c1.7-2.4,2.5-5.1,2.9-8c0.6-4.4,0.3-8.7-1.4-12.8
		c-1.2-2.9-3-5.4-5.3-7.4L97,49.8c1.2-1.2,2.6-2.2,4-3.2c0.2-0.2,0.5-0.4,0.7-0.6c1.4-0.9,2.7-1.8,4.1-2.7c4-2.6,8.2-4.8,13-5.7
		c7.4-1.4,13.1,1.7,15.7,8.8C134.6,47.1,134.9,47.9,135.1,48.6z M126.7,46.7c0-1.2-0.9-2.1-2.1-2.1c0,0,0,0-0.1,0
		c-1.2-0.1-2.2,0.8-2.3,2c-0.1,1.2,0.8,2.2,2,2.3c0.1,0,0.3,0,0.4,0c1.1,0,2.1-0.9,2.1-2C126.7,46.8,126.7,46.8,126.7,46.7z"/>
	<path class="st1" d="M23.1,120.5c1.6-1,2.9-2.3,4.3-3.6c6.7-6,13.3-12.1,19.7-18.4c0.8-0.7,1.4-1,2.3-0.4c0.4,0.3,1,0.5,1.4,0.7
		c-2.8,3.5-5.6,6.9-8.5,10.4c-3.2,3.9-6.5,7.7-9.8,11.5c-0.7,0.9-1.5,1.7-2.4,2.4l-0.4,0.3l0,0c-1.6,1-3.3,1.8-5.2,1.9
		c-1.9,0.2-3.8-0.3-5.4-1.6C20.6,122.6,22.1,121.8,23.1,120.5z"/>
	<path class="st2" d="M42.5,94.7L45,96l-5,3.8c-7.5,5.6-15,11.3-22.8,16.5c-0.2,0.1-0.3,0.3-0.5,0.3s-0.1-0.1-0.2,0l0,0
		c-1.8,0-3.5,0-5.2-1c-0.8-0.4-1.5-1.1-2-1.8c-0.3-0.4-0.2-0.5,0.2-0.7c2.1-0.8,4.1-1.9,6-2.9c5.3-2.8,10.5-5.8,15.7-8.9
		c3.6-2.1,7.2-4.2,10.8-6.4L42.5,94.7z"/>
	<path class="st0" d="M52.8,13.7l0.2,0.1c-0.1,0.1-0.2,0.1-0.3,0L52.8,13.7z"/>
	<path class="st0" d="M29.9,123.4l0.4-0.3C30.4,123.5,30.1,123.5,29.9,123.4z"/>
	<path class="st1" d="M126.7,46.7c0,1.1-0.8,2.1-2,2.1h-0.1c-1.2,0-2.2-0.9-2.2-2.1c0-1.2,0.9-2.2,2.1-2.2S126.7,45.5,126.7,46.7
		L126.7,46.7z"/>
	<path class="st0" d="M16.6,116.6c0-0.1,0.1-0.2,0.2,0H16.6z"/>
</g>
</svg>
