<?xml version="1.0" encoding="utf-8"?>
<!-- Generator: Adobe Illustrator 21.0.2, SVG Export Plug-In . SVG Version: 6.00 Build 0)  -->
<svg version="1.1" id="Layer_1" xmlns="http://www.w3.org/2000/svg" xmlns:xlink="http://www.w3.org/1999/xlink" x="0px" y="0px"
	 viewBox="0 0 100 100" style="enable-background:new 0 0 100 100;" xml:space="preserve">
<style type="text/css">
	.st0{fill:#3CB9EA;}
	.st1{fill:#F5F5F5;}
	.st2{fill:#E8E8E8;}
	.st3{fill:#989898;}
	.st4{fill:#061834;}
	.st5{fill:#0B172B;}
	.st6{fill:#F1F5F6;}
	.st7{fill:#142242;}
	.st8{fill:#16254D;}
	.st9{fill:#C0C0C0;}
	.st10{fill:#838383;}
</style>
<title>Artboard 1</title>
<rect x="0.1" class="st0" width="99.9" height="99.9"/>
<g>
	<path class="st1" d="M88.4,90.7c1.4-0.4,2.7-0.9,4.2-1.1c2.4-0.3,4.8-0.1,7.1,0.7c0.1,0,0.2,0,0.3,0c0,3,0,6,0,9
		c0,0.5-0.1,0.6-0.6,0.6h-24c0-0.2,0.1-0.3,0.2-0.4c0.8-0.6,1.6-1.2,2.5-1.7c1.6-1,3.3-1.9,5-2.9c0.2-0.1,0.4-0.1,0.3-0.4
		c-0.1-0.2-0.3-0.2-0.5-0.2c-0.8,0-1.5,0.1-2.3,0.3c-2.3,0.7-4.2,1.9-6,3.4c-0.8,0.6-1.7,1.1-2.4,1.9h-2.7c0-0.2-0.1-0.3-0.3-0.4
		c-1.5-0.9-2.9-2.1-4.1-3.4c-0.1-0.1-0.2-0.2-0.4,0c0.7,1.3,1.6,2.5,2.2,3.8H43.8c0-0.1,0-0.1,0-0.2c1.9-3.2,4.7-5.3,8.3-6.2
		c1.6-0.4,3.2-0.6,4.9-0.4c-0.7-0.6-1.5-1.1-2.4-1.4c-2.1-0.8-4.2-0.9-6.2,0.1c-2,1-3.4,2.5-4.4,4.4c-0.3,0.6-0.8,0.9-1.6,0.8
		c-1-0.2-2-0.4-3-0.7c-1.3-0.5-2.5-1.1-3.8-1.5c-2.6-0.9-5.4-1.2-8.1-0.7c-0.9,0.1-1.7,0.3-2.4,0.9c-1.7,1.4-3.1,3-4.1,5H2
		c1.7-4.1,3.8-8,8.4-9.9c-0.5,0-0.9-0.1-1.2,0c-3.3,0.7-6.1,2.3-8.3,4.9c-0.2,0.2-0.4,0.5-0.8,0.6v-2.4c0.8-0.4,1.3-1.2,2.1-1.7
		c4.6-3.4,9.6-4,15-1.9c0.1,0,0.2,0.1,0.3,0.1c2.4,1.2,4.5,2.9,6.1,5.1c0.1,0.2,0.3,0.3,0.5,0.1c2-1.8,4.5-2.8,7.1-3.4
		c1.6-0.2,3.3-0.2,4.9,0c2.5,0.5,4.8,1.4,6.8,3c0.5,0.4,0.6,0.3,1-0.2c2-2.6,4.7-4.4,7.8-5.3c2.2-0.6,4.3-0.7,6.5-0.4
		c4.4,0.9,7.9,3.2,10.2,7c0.2,0.3,0.4,0.3,0.6,0.1c1.4-0.3,2.8-0.6,4.2-0.4c1.4,0.2,2.2-0.2,3.1-1c1.9-1,3.9-1.6,6-1.8l2.8,0
		c0.2,0,0.4,0,0.5-0.1C86.4,91.7,87.4,91.3,88.4,90.7z"/>
	<path class="st2" d="M21.1,99.9c1-2,2.4-3.6,4.1-5c0.7-0.6,1.6-0.7,2.4-0.9c2.7-0.5,5.5-0.2,8.1,0.7c1.3,0.5,2.5,1.1,3.8,1.5
		c1,0.4,2,0.5,3,0.7c0.7,0.2,1.2-0.1,1.6-0.8c1-1.9,2.4-3.5,4.4-4.4c1.9-0.9,4.1-0.9,6.2-0.1c0.9,0.3,1.7,0.8,2.4,1.4
		c-1.7-0.2-3.3,0-4.9,0.4c-3.7,0.9-6.4,3-8.3,6.2c0,0.1,0,0.1,0,0.2h-7.2c0-0.1,0-0.2-0.1-0.2c-2.2-1.3-4.5-2.3-7.2-2.2
		c-1.9,0.1-3.7,0.7-4.9,2.4L21.1,99.9z"/>
	<path class="st2" d="M0.1,95.6c0.4,0,0.6-0.3,0.8-0.6c2.2-2.6,4.9-4.3,8.3-4.9c0.4-0.1,0.7,0,1.2,0c-4.6,1.9-6.7,5.7-8.4,9.9
		c-0.6,0-1.5,0.3-1.9-0.1S0.1,98.6,0.1,98L0.1,95.6z"/>
	<path class="st1" d="M24.5,99.9c1.2-1.6,2.9-2.3,4.9-2.4c2.6-0.1,4.9,0.9,7.2,2.2c0,0,0.1,0.1,0.1,0.2L24.5,99.9z"/>
	<path class="st2" d="M72.2,99.9c0.7-0.8,1.6-1.2,2.4-1.9c1.8-1.5,3.8-2.7,6-3.4c0.7-0.2,1.5-0.4,2.3-0.3c0.2,0,0.4-0.1,0.5,0.2
		s-0.2,0.3-0.3,0.4c-1.7,1-3.4,1.9-5,2.9c-0.9,0.5-1.6,1.1-2.5,1.7c-0.1,0.1-0.2,0.3-0.2,0.4H72.2z"/>
	<path class="st2" d="M66.9,99.9c-0.6-1.3-1.5-2.6-2.2-3.8c0.1-0.2,0.3-0.1,0.4,0c1.2,1.4,2.6,2.5,4.1,3.4c0.1,0.1,0.2,0.2,0.3,0.4
		L66.9,99.9z"/>
	<path class="st2" d="M27.3,77.7c1.4-1.5,3.1-2.8,4.6-4.2c3.2-2.8,6.4-5.6,9.6-8.4c0.3-0.2,7.1-6.2,7.4-6.5c0.5-0.4,1-0.8,1.5-1.4
		c0.8-0.4,1.3-1.2,2.1-1.6l0.1,0.9c0,0.2,0,0.3,0,0.5c0,6.4,0,12.7,0,19c0,0.3,0.1,0.5,0.2,0.7c1.2,2.1,2.4,4.3,3.7,6.4
		c0.8,1.4,1.5,2.8,1.9,4.4c0,0.2,0.2,0.4-0.1,0.6l-18-7.1c-0.1-0.5,0.2-0.9,0.4-1.4l4-8.2l6.8-13.7c0.1-0.2,0.3-0.4,0.2-0.9
		c-0.9,1.3-1.7,2.6-2.5,3.8c-4.2,6.4-8.3,12.8-12.5,19.3c-0.5,0.7-1.1,1.4-1.3,2.3l0,0l-0.4,0L27.3,77.7z"/>
	<path class="st3" d="M52.5,56.5l-0.1-0.9c2,0.8,3.8,2,5.7,3c1.9,0.9,3.6,1.8,5.4,2.8c0.6,0.3,1.2,0.8,1.3,1.5l0,0
		c-0.3-0.3-0.5-0.3-0.5,0.2c0.1,0.5,0.3,1.4,0.4,2.1l3.1,14.7c0.1,0.6,0.3,1.1,0.6,1.6c1,1.7,2,3.4,3,5.1c0.1,0.2,0.1,0.3-0.1,0.5
		c-1-0.2-2-0.4-3-0.6c-1.3-0.2-2.5-0.7-3.8-0.7c0,0,0-0.1,0-0.1c0-0.7-0.4-1.3-0.7-1.8c-1.5-2.5-3.1-4.9-4.6-7.4
		c-0.7-1.2-1.7-2.3-2.1-3.7c-1.4-5.1-2.8-10.2-4.3-15.3C52.9,57.1,52.9,56.7,52.5,56.5z"/>
	<path class="st4" d="M27.3,77.7l7.5,4.7c0.1,0.2,0.3,0.1,0.4,0.1c-0.2,0.2-0.4,0.3-0.5,0.6c-0.8,1.8-1.7,3.5-2.4,5.4
		c-0.4,1-1,1.9-1.2,3c-2.6,0.6-5,1.6-7.1,3.4c-0.2,0.2-0.4,0.1-0.5-0.1c-1.6-2.3-3.7-3.9-6.1-5.1c2.5-3.2,5.1-6.4,7.6-9.5
		C25.7,79.3,26.3,78.3,27.3,77.7z"/>
	<path class="st5" d="M88.4,90.7c-0.9,0.6-1.9,1.1-2.8,1.8c-0.2,0.1-0.3,0.2-0.5,0.1l-2.8,0c-0.2-0.6-0.7-1-1.1-1.4
		c-0.4-0.4-1.5-1.2-1.9-2c-1.1-2.1-2.4-4.2-3.6-6.3c-0.1-0.3-0.3-0.5-0.6-0.6l0.1-0.1l0.1-0.2c0,0,0-0.1,0-0.1l2.5-3.5l10,11.9
		C88,90.3,88.2,90.5,88.4,90.7z"/>
	<path class="st3" d="M77.9,78.2l-2.5,3.5c-0.4,0-0.5-0.4-0.6-0.6c-0.8-1.4-1.6-2.9-2.4-4.4c-1.9-3.5-3.9-7.1-5.8-10.7
		c-0.6-1.1-1.4-2-1.7-3.2l0,0c0.6,0.3,0.9,0.8,1.3,1.3c1.6,2,3.3,4,4.9,5.9c1.7,1.9,3.5,4.3,5.3,6.5C76.9,77.1,77.6,77.5,77.9,78.2z
		"/>
	<path class="st6" d="M28.3,32c-3.9,0-7.7,0-11.6,0c-1.1,0-1.4-0.4-1.5-1.5c-0.3-2.5,1.7-4.8,4.2-4.7c0.6,0,1.1-0.2,1.6-0.3
		c2.7-0.8,5.5-1.1,8.2-1.1c0.3,0,0.6,0.2,0.7,0.4c0.6,0.6,1.2,0.6,1.9,0.1c1.7-1,3.7-0.6,4.9,1.1c0.4,0.6,1,1.1,1.6,1.3
		c1.3,0.5,2,1.6,2.4,2.9c0.3,0.9,0.1,1.5-1.1,1.5c-3.9-0.1-7.7,0-11.6,0L28.3,32z"/>
	<path class="st6" d="M68,14.2c-2.1,0-4.2,0-6.4,0c-0.7,0-0.9-0.3-0.9-0.9c0-1.3,1-2.4,2.3-2.4c0.4,0,0.7-0.2,1-0.2
		c1.5-0.3,2.9-0.4,4.4-0.5c0.2,0,0.5,0.1,0.6,0.3c0.3,0.2,0.5,0.2,0.9,0.1c1.2-0.6,2.1-0.4,3,0.6c0.2,0.2,0.5,0.4,0.7,0.5
		c0.7,0.3,1.3,0.8,1.5,1.6c0.1,0.5,0,0.8-0.6,0.8c-2.2,0-4.4,0-6.6,0L68,14.2z"/>
	<path class="st6" d="M80.4,64.8c-1.5,0-3,0-4.5,0c-0.6,0-0.8-0.2-0.8-0.8c0-0.8,0.7-1.5,1.5-1.6c0.4,0,0.8-0.1,1.2-0.3
		c0.3-0.2,0.6-0.2,0.9-0.1c0.4,0.1,0.7,0,1.1-0.1c0.4-0.1,0.3-0.2,0.4-0.1c1,0.4,2,0,2.9,0.2s1.8,1,2.5,1.8c0.6,0.8,0.2,0.9-0.6,1
		h-4.6V64.8z"/>
	<path class="st4" d="M40.1,81.1l18,7.1l0.2,0.1c0.1,0.2,0,0.3-0.2,0.3c-2.2-0.3-4.4-0.2-6.5,0.4c-3.1,0.9-5.9,2.7-7.8,5.3
		c-0.3,0.4-0.5,0.5-1,0.2c-2-1.6-4.3-2.5-6.8-3c0.6-0.7,0.6-1.6,0.9-2.4c0.8-2.2,1.2-4.6,2.3-6.7c0.2-0.4,0.5-0.7,0.6-1.2L40.1,81.1
		z"/>
	<path class="st5" d="M64.7,85.7c1.3,0,2.5,0.5,3.8,0.7c1,0.2,2,0.4,3,0.6c0.2,0.1,0.4,0.1,0.5,0c0.1,0.4,0.2,0.8,0.4,1.1
		c0.6,1,1.2,2,1.8,3c0.6,1,1.3,2.2,2,3.2c-0.9,0.7-1.8,1.2-3.1,1c-1.3-0.2-2.8,0.1-4.2,0.4l-0.9-2.3c-0.7-1.6-1.3-3.2-2-4.8
		C65.7,87.7,65.4,86.6,64.7,85.7z"/>
	<path class="st7" d="M76.3,94.4c-0.8-1-1.4-2.1-2-3.2s-1.2-2-1.8-3c-0.2-0.3-0.4-0.7-0.4-1.1c1-1.7,2-3.3,3.1-4.9
		c0.3,0.1,0.4,0.3,0.6,0.6c1.2,2.1,2.4,4.2,3.6,6.3c0.4,0.8,1.2,1.3,1.9,2c0.6,0.7,0.9,0.8,1.1,1.4C80.2,92.8,78.1,93.4,76.3,94.4z"
		/>
	<path class="st8" d="M39.8,81.1c0,0.5-0.4,0.8-0.6,1.2c-1.1,2.1-1.5,4.5-2.3,6.7c-0.3,0.8-0.3,1.7-0.9,2.4c-1.6-0.2-3.3-0.2-4.9,0
		c0.2-1.1,0.8-2,1.2-3c0.7-1.8,1.6-3.6,2.4-5.4c0.1-0.3,0.4-0.4,0.5-0.6c0,0,0-0.1,0-0.1l0,0c0.3-0.1,0.6-0.1,0.9-0.2
		C37.3,81.8,38.6,81.3,39.8,81.1z"/>
	<path class="st8" d="M64.7,85.7c0.7,0.8,1,1.9,1.4,2.9c0.7,1.6,1.3,3.2,2,4.8l0.9,2.3c-0.3,0.1-0.4,0.2-0.6-0.1
		c-2.4-3.8-5.8-6.1-10.2-7c0.2,0,0.3-0.1,0.2-0.3L64.7,85.7C64.7,85.7,64.7,85.7,64.7,85.7z"/>
	<path class="st9" d="M64.7,85.7l-6.4,2.6l-0.2-0.1c0.2-0.2,0.1-0.4,0.1-0.6c-0.3-1.6-1-3-1.9-4.4c-1.3-2.1-2.5-4.3-3.7-6.4
		c-0.1-0.2-0.2-0.5-0.2-0.7c0-6.4,0-12.7,0-19c0-0.2,0-0.3,0-0.5c0.4,0.2,0.4,0.7,0.5,1c1.4,5.1,2.8,10.2,4.3,15.3
		c0.4,1.4,1.4,2.5,2.1,3.7c1.5,2.5,3.1,4.9,4.6,7.4C64.3,84.4,64.7,85,64.7,85.7z"/>
	<path class="st9" d="M39.8,81.1c-1.3,0.3-2.5,0.7-3.7,1.1c-0.3,0.1-0.6,0.1-0.9,0.2c0.2-0.9,0.8-1.6,1.3-2.3
		c4.1-6.4,8.3-12.9,12.5-19.3c0.8-1.2,1.6-2.5,2.5-3.8c0.1,0.4-0.1,0.6-0.2,0.9l-6.8,13.7l-4,8.2c-0.2,0.4-0.4,0.9-0.4,1.4
		L39.8,81.1z"/>
	<path class="st9" d="M35.2,82.4c0,0,0,0.1,0,0.1c-0.1,0-0.3,0-0.4-0.1L35.2,82.4z"/>
	<path class="st10" d="M75.2,82.2c-1.1,1.6-2.2,3.2-3.1,4.9c-0.2,0.1-0.4,0.1-0.5,0c0.2-0.1,0.2-0.3,0.1-0.5c-1-1.7-2-3.4-3-5.1
		c-0.3-0.5-0.5-1.1-0.6-1.6l-3.1-14.7c-0.1-0.7-0.3-1.4-0.4-2.1c-0.1-0.7,0.2-0.5,0.5-0.2c0.3,1.2,1.1,2.1,1.7,3.2
		c1.9,3.6,3.9,7.1,5.8,10.7c0.8,1.5,1.6,2.9,2.4,4.4c0.1,0.2,0.3,0.5,0.6,0.6c0,0,0,0.1,0,0.1L75.2,82L75.2,82.2z"/>
	<path class="st7" d="M75.2,82l0.1-0.2L75.2,82z"/>
</g>
</svg>
