<svg id="Layer_1" data-name="Layer 1" xmlns="http://www.w3.org/2000/svg" width="626.7" height="626.7" viewBox="0 0 626.7 626.7">
  <defs>
    <style>
      .cls-1 {
        fill: #3cb9ea;
      }

      .cls-2 {
        fill: #f5f5f5;
      }

      .cls-3 {
        fill: #e8e8e8;
      }

      .cls-4 {
        fill: #989898;
      }

      .cls-5 {
        fill: #061834;
      }

      .cls-6 {
        fill: #0b172b;
      }

      .cls-7 {
        fill: #f1f5f6;
      }

      .cls-8 {
        fill: #142242;
      }

      .cls-9 {
        fill: #16254d;
      }

      .cls-10 {
        fill: silver;
      }

      .cls-11 {
        fill: #838383;
      }
    </style>
  </defs>
  <title>Artboard 1</title>
  <rect class="cls-1" x="0.6" width="626.2" height="626.18"/>
  <g>
    <path class="cls-2" d="M553.9,568.3c8.7-2.6,17.1-5.9,26.2-7.2a92.9,92.9,0,0,1,44.5,4.7,11.8,11.8,0,0,0,1.9.3c0,18.8-.1,37.7.1,56.5,0,3-.6,3.6-3.6,3.6H472.6a3.3,3.3,0,0,1,1.3-2.6c5.2-3.6,10.1-7.5,15.5-10.8,10.3-6.3,20.9-12.2,31.4-18.3,1-.6,2.5-.9,2.1-2.3s-1.9-1-3-1c-4.9-.3-9.6.7-14.2,2.1-14.3,4.2-26.5,12.1-37.9,21.3-5,4-10.9,6.7-15.2,11.6h-17a3,3,0,0,0-1.7-2.3,103.6,103.6,0,0,1-25.8-21.5c-.5-.6-1.3-1.1-2.2-.1,4.5,8,9.8,15.5,13.6,24h-145a3,3,0,0,1,.2-1c12.1-20.2,29.3-33.5,52.3-39.1,10-2.4,20.2-3.9,30.7-2.7a52.1,52.1,0,0,0-15.1-8.6c-13-5.2-26.1-5.4-38.7.6s-21.3,15.6-27.5,27.8c-2,4-5.2,5.9-9.8,4.9-6.3-1.4-12.7-2.3-18.8-4.7-8.1-3.1-15.9-6.8-24-9.7a98.7,98.7,0,0,0-50.6-4.3c-5.4.9-10.8,1.7-15.3,5.4-10.7,8.7-19.5,18.9-25.5,31.3H12.6c10.8-26,23.8-50,52.5-61.8-3.1,0-5.4-.4-7.6.1-20.9,4.2-38.1,14.7-51.9,31C4.3,597,3,598.9.6,599.1v-15c5-2.6,8.3-7.3,12.9-10.6,29.1-21.1,60.3-25.2,93.7-11.8a10.7,10.7,0,0,0,1.9.4c15.2,7.7,28.4,17.9,38.2,32.1.9,1.3,1.6,1.9,3.1.6,12.7-11.4,27.9-17.7,44.3-21.6a129.6,129.6,0,0,1,31-.3c15.7,3,30.3,8.6,42.9,18.8,2.9,2.4,4,1.6,6-1a92.3,92.3,0,0,1,49-33.2c13.5-3.9,27.2-4.1,41-2.4,27.5,5.8,49.2,19.9,64.1,44,1.2,2,2.4,1.8,4,.9,8.7-1.6,17.5-3.8,26.2-2.5s13.8-1.5,19.4-6.2a109.4,109.4,0,0,1,37.4-11.4l17.4.3a4.5,4.5,0,0,0,3.3-.8C541.7,574.9,548.1,572.1,553.9,568.3Z"/>
    <path class="cls-3" d="M132.6,626.1c6-12.4,14.8-22.6,25.5-31.3,4.5-3.7,10-4.4,15.3-5.4a98.7,98.7,0,0,1,50.6,4.3c8.1,2.9,15.9,6.6,24,9.7,6.1,2.3,12.5,3.3,18.8,4.7,4.5,1,7.7-.9,9.8-4.9,6.2-12.2,15.3-21.9,27.5-27.8s25.7-5.9,38.7-.6a52.1,52.1,0,0,1,15.1,8.6c-10.5-1.2-20.6.3-30.7,2.7-23,5.6-40.2,18.9-52.3,39.1a3,3,0,0,0-.2,1h-45c-.2-.5-.2-1.1-.6-1.3-13.9-8-28.5-14.4-44.9-13.6-12.1.6-22.9,4.7-30.5,14.9Z"/>
    <path class="cls-3" d="M.6,599.1c2.5-.2,3.7-2.1,5.1-3.7,13.7-16.3,30.9-26.8,51.9-31,2.2-.4,4.5-.1,7.6-.1-28.7,11.8-41.8,35.8-52.5,61.8-4,0-9.6,1.6-11.6-.4s-.4-7.6-.4-11.6Z"/>
    <path class="cls-2" d="M153.6,626.1c7.6-10.2,18.4-14.3,30.5-14.9,16.5-.8,31,5.6,44.9,13.6.3.2.4.9.6,1.3Z"/>
    <path class="cls-3" d="M452.6,626.1c4.3-4.9,10.2-7.6,15.2-11.6,11.4-9.2,23.7-17.1,37.9-21.3,4.6-1.4,9.3-2.4,14.2-2.1,1.1.1,2.6-.4,3,1s-1.2,1.8-2.1,2.3c-10.5,6.1-21,12-31.4,18.3-5.4,3.3-10.3,7.2-15.5,10.8a3.3,3.3,0,0,0-1.3,2.6Z"/>
    <path class="cls-3" d="M419.6,626.1c-3.8-8.4-9.1-16-13.6-24,.9-1,1.6-.5,2.2.1a103.6,103.6,0,0,0,25.8,21.5,3,3,0,0,1,1.7,2.3Z"/>
    <path class="cls-3" d="M171.1,486.7c9-9.6,19.4-17.5,29.1-26.2,19.9-17.8,40.1-35.2,60.1-52.8,1.6-1.4,44.2-38.7,46.3-40.7a51.5,51.5,0,0,0,9.1-8.5c5-2.4,7.9-7.6,12.9-10.1l.4,5.5a26.1,26.1,0,0,0-.3,3q0,59.7,0,119.3a9,9,0,0,0,1.2,4.7c7.8,13.4,15.3,26.9,23.2,40.1,5.2,8.8,9.6,17.8,11.7,27.8.3,1.3,1,2.6-.5,3.6L251.6,508c-.4-3.2,1-5.9,2.3-8.5L279,448.3l42.4-86c.7-1.4,2-2.8,1.3-5.4-5.5,8.3-10.8,16-15.8,23.8Q267.8,441,228.8,501.5c-3,4.7-7,8.9-8.2,14.7h0l-2.5.2Z"/>
    <path class="cls-4" d="M328.9,353.9l-.4-5.5c12.6,4.9,23.8,12.6,35.9,18.5s22.7,11.4,33.9,17.3c4,2.1,7.5,4.8,8.4,9.6l-.2.2c-1.9-2-3.3-2-2.9,1.1s1.6,8.8,2.5,13.2l19.5,91.9a31.6,31.6,0,0,0,3.8,10.2c6.5,10.6,12.7,21.4,19.1,32.1.7,1.2.7,2.1-.4,3-6.3-1.3-12.6-2.8-18.9-3.9-7.9-1.4-15.5-4.4-23.7-4.3a.5.5,0,0,1,0-.5c0-4.4-2.4-8-4.5-11.5-9.5-15.4-19.4-30.6-28.9-46.1-4.7-7.6-10.9-14.4-13.4-23.3-9-31.9-17.7-63.8-26.7-95.6C331.4,358.1,331.5,355.3,328.9,353.9Z"/>
    <path class="cls-5" d="M171.1,486.7l47,29.7c.6,1,1.6.6,2.4.7-1.1,1.2-2.6,2-3.3,3.6-5,11.2-10.6,22.2-15.1,33.7-2.5,6.3-6.2,12.1-7.6,18.8-16.4,3.9-31.6,10.2-44.3,21.6-1.5,1.3-2.2.7-3.1-.6-9.8-14.2-22.9-24.4-38.2-32.1,15.9-19.9,31.8-39.9,47.8-59.8C161.3,496.8,164.7,490.4,171.1,486.7Z"/>
    <path class="cls-6" d="M553.9,568.3c-5.8,3.8-12.2,6.7-17.6,11.1a4.5,4.5,0,0,1-3.3.8l-17.4-.3c-1-3.9-4.2-6.3-6.7-9s-9.1-7.7-11.7-12.6c-7.2-13.3-15-26.3-22.4-39.5-.9-1.7-1.8-3.1-3.7-3.8l.6-.9.9-1.1a3,3,0,0,0,0-.9l15.9-21.9L550.9,565C551.8,566.1,552.9,567.2,553.9,568.3Z"/>
    <path class="cls-4" d="M488.4,490.2l-15.9,21.9c-2.2-.3-2.9-2.2-3.7-3.7q-7.7-13.6-15.2-27.3c-12.2-22.2-24.4-44.4-36.4-66.8-3.6-6.7-8.5-12.7-10.6-20.1l.2-.2c3.6,1.9,5.9,5.2,8.4,8.2,10.3,12.4,20.4,24.8,31,36.9s22.2,27.1,33.3,40.7C482.3,483.3,486.2,486,488.4,490.2Z"/>
    <path class="cls-7" d="M177.4,200.8c-24.2,0-48.4-.3-72.6.2-6.7.1-8.8-2.8-9.6-9.1-1.8-15.7,10.9-30.3,26.3-29.6,3.7.2,6.7-1,10.1-2.1,16.8-5.2,34.2-6.6,51.7-6.7a7.7,7.7,0,0,1,4.7,2.4c4,3.9,7.4,3.7,12.2.8,10.8-6.5,23.5-3.7,30.9,6.8a20.6,20.6,0,0,0,10.3,8.1c8.3,3,12.7,9.9,15.1,18.3,1.7,5.9.4,9.3-6.6,9.1-24.2-.4-48.4-.1-72.6-.1Z"/>
    <path class="cls-7" d="M426.2,88.8c-13.3,0-26.6-.2-39.9.1-4.5.1-5.8-1.7-5.8-5.8,0-8.4,6.3-14.9,14.7-14.8,2.4,0,4.4-1.1,6.5-1.5,9.1-2.1,18.4-2.6,27.7-3a5.9,5.9,0,0,1,4,1.7c1.7,1.5,3.3,1.4,5.4.4,7.4-3.8,13.4-2.5,18.6,3.8a10.8,10.8,0,0,0,4.7,3.3c4.7,1.9,8.1,5,9.3,10.2.8,3.4.1,4.9-3.8,4.9-13.8-.2-27.6-.1-41.4-.1Z"/>
    <path class="cls-7" d="M503.9,406c-9.5,0-19-.2-28.4.1-3.9.1-5-1.4-4.9-5a10.2,10.2,0,0,1,9.3-10c2.7-.3,5.2-.6,7.6-2.1a6.7,6.7,0,0,1,5.8-.7c2.4.9,4.5.3,6.7-.6s2.1-1,2.8-.7c6,2.3,12.4,0,18.2,1.1s11.5,6,15.4,11.2,1.3,5.9-3.6,6H503.9Z"/>
    <path class="cls-5" d="M251.6,508l112.6,44.4,1.4.9c.9,1.4,0,1.7-1.1,1.8-13.8-1.8-27.5-1.5-41,2.4a92.3,92.3,0,0,0-49,33.2c-2,2.6-3,3.3-6,1-12.5-10.1-27.1-15.8-42.9-18.8,4-4.2,4-10,5.9-15,5.2-13.9,7.5-28.8,14.5-42.1,1.3-2.4,3.2-4.7,3.5-7.6Z"/>
    <path class="cls-6" d="M405.6,537.4c8.2-.1,15.8,2.9,23.7,4.3,6.3,1.1,12.6,2.6,18.9,3.9a3.7,3.7,0,0,0,3.4.3,21.2,21.2,0,0,0,2.8,6.8c3.8,6.2,7.5,12.5,11.2,18.7s7.9,13.7,12.8,20c-5.7,4.6-11.5,7.4-19.4,6.2s-17.5.9-26.2,2.5l-5.9-14.7c-4.1-9.9-7.9-20-12.3-29.8C411.6,549.4,409.9,542.7,405.6,537.4Z"/>
    <path class="cls-8" d="M478.2,591.4c-4.9-6.3-8.7-13.2-12.8-20s-7.3-12.5-11.2-18.7a21.2,21.2,0,0,1-2.8-6.8c6-10.6,12.7-20.8,19.6-30.9,1.9.6,2.7,2.1,3.7,3.8,7.4,13.2,15.2,26.2,22.4,39.5,2.7,4.9,7.8,8.4,11.7,12.6s5.7,5.1,6.7,9A109.4,109.4,0,0,0,478.2,591.4Z"/>
    <path class="cls-9" d="M249.6,508.2c-.3,2.9-2.2,5.2-3.5,7.6-7.1,13.3-9.4,28.2-14.5,42.1-1.9,5-1.9,10.8-5.9,15a129.6,129.6,0,0,0-31,.3c1.4-6.7,5.1-12.5,7.6-18.8,4.5-11.4,10-22.4,15.1-33.7.7-1.6,2.2-2.4,3.3-3.6a2.3,2.3,0,0,0,.1-.9h0c1.9-.4,3.9-.7,5.8-1.2C234.1,512.7,241.7,509.8,249.6,508.2Z"/>
    <path class="cls-9" d="M405.6,537.4c4.4,5.3,6,12,8.8,18.1,4.5,9.8,8.3,19.8,12.3,29.8l5.9,14.7c-1.6.9-2.8,1.1-4-.9-14.9-24.1-36.6-38.2-64.1-44,1.1-.2,2-.5,1.1-1.8l40.1-16.4A.5.5,0,0,0,405.6,537.4Z"/>
    <path class="cls-10" d="M405.6,536.9l-40.1,16.4-1.4-.9c1.5-1,.8-2.3.5-3.6-2.1-10-6.5-19.1-11.7-27.8-7.9-13.3-15.4-26.8-23.2-40.1a9,9,0,0,1-1.2-4.7q0-59.7,0-119.3a26.1,26.1,0,0,1,.3-3c2.6,1.4,2.5,4.2,3.2,6.5,9,31.9,17.7,63.8,26.7,95.6,2.5,8.8,8.7,15.6,13.4,23.3,9.5,15.5,19.4,30.7,28.9,46.1C403.2,528.9,405.6,532.4,405.6,536.9Z"/>
    <path class="cls-10" d="M249.6,508.2c-7.9,1.6-15.5,4.5-23.2,6.8-1.9.5-3.8.8-5.8,1.2,1.2-5.8,5.2-10,8.2-14.7q38.9-60.5,78.1-120.7c5-7.8,10.3-15.4,15.8-23.8.7,2.6-.6,4-1.3,5.4l-42.4,86-25.1,51.1c-1.3,2.7-2.8,5.4-2.3,8.5Z"/>
    <path class="cls-10" d="M220.7,516.2a2.3,2.3,0,0,1-.1.9c-.8-.1-1.8.3-2.4-.7Z"/>
    <path class="cls-11" d="M471.1,515c-6.9,10-13.6,20.2-19.6,30.9a3.7,3.7,0,0,1-3.4-.3c1.2-.8,1.2-1.7.4-3-6.4-10.7-12.6-21.5-19.1-32.1a31.6,31.6,0,0,1-3.8-10.2l-19.5-91.9c-.9-4.4-1.9-8.7-2.5-13.2s1-3.1,2.9-1.1c2.1,7.4,7,13.4,10.6,20.1,12,22.3,24.2,44.5,36.4,66.8q7.5,13.7,15.2,27.3c.9,1.5,1.6,3.4,3.7,3.7a3,3,0,0,1,0,.9l-.9,1.1Z"/>
    <path class="cls-8" d="M471.6,514.1l.9-1.1Z"/>
  </g>
</svg>
