<?xml version="1.0" encoding="utf-8"?>
<!-- Generator: Adobe Illustrator 21.0.2, SVG Export Plug-In . SVG Version: 6.00 Build 0)  -->
<svg version="1.1" id="Layer_1" xmlns="http://www.w3.org/2000/svg" xmlns:xlink="http://www.w3.org/1999/xlink" x="0px" y="0px"
	 viewBox="0 0 100 100" style="enable-background:new 0 0 100 100;" xml:space="preserve">
<style type="text/css">
	.st0{fill:#F5F5F5;}
	.st1{fill:#E8E8E8;}
	.st2{fill:#989898;}
	.st3{fill:#061834;}
	.st4{fill:#0B172B;}
	.st5{fill:#F1F5F6;}
	.st6{fill:#142242;}
	.st7{fill:#16254D;}
	.st8{fill:#C0C0C0;}
	.st9{fill:#838383;}
</style>
<title>Artboard 1</title>
<g>
	<path class="st0" d="M88.4,87.1c1.4-0.6,2.7-1.2,4.2-1.5c2.4-0.4,4.8-0.1,7.1,1c0.1,0,0.2,0,0.3,0c0,4.2,0,8.3,0,12.5
		c0,0.7-0.1,0.8-0.6,0.8h-24c0-0.3,0.1-0.4,0.2-0.6c0.8-0.8,1.6-1.7,2.5-2.4c1.6-1.4,3.3-2.6,5-4c0.2-0.1,0.4-0.1,0.3-0.6
		C83.3,92,83.1,92,82.9,92c-0.8,0-1.5,0.1-2.3,0.4c-2.3,1-4.2,2.6-6,4.7c-0.8,0.8-1.7,1.5-2.4,2.6h-2.7c0-0.3-0.1-0.4-0.3-0.6
		c-1.5-1.2-2.9-2.9-4.1-4.7c-0.1-0.1-0.2-0.3-0.4,0c0.7,1.8,1.6,3.5,2.2,5.3H43.8c0-0.1,0-0.1,0-0.3c1.9-4.4,4.7-7.4,8.3-8.6
		c1.6-0.6,3.2-0.8,4.9-0.6c-0.7-0.8-1.5-1.5-2.4-1.9c-2.1-1.1-4.2-1.2-6.2,0.1S45,92,44,94.7c-0.3,0.8-0.8,1.2-1.6,1.1
		c-1-0.3-2-0.6-3-1c-1.3-0.7-2.5-1.5-3.8-2.1c-2.6-1.2-5.4-1.7-8.1-1c-0.9,0.1-1.7,0.4-2.4,1.2C23.4,95,22,97.2,21,100H2
		c1.7-5.7,3.8-11.1,8.4-13.7c-0.5,0-0.9-0.1-1.2,0c-3.3,1-6.1,3.2-8.3,6.8c-0.2,0.3-0.4,0.7-0.8,0.8v-3.3c0.8-0.6,1.3-1.7,2.1-2.4
		c4.6-4.7,9.6-5.5,15-2.6c0.1,0,0.2,0.1,0.3,0.1c2.4,1.7,4.5,4,6.1,7.1c0.1,0.3,0.3,0.4,0.5,0.1c2-2.5,4.5-3.9,7.1-4.7
		c1.6-0.3,3.3-0.3,4.9,0c2.5,0.7,4.8,1.9,6.8,4.2c0.5,0.6,0.6,0.4,1-0.3c2-3.6,4.7-6.1,7.8-7.4c2.2-0.8,4.3-1,6.5-0.6
		c4.4,1.2,7.9,4.4,10.2,9.7c0.2,0.4,0.4,0.4,0.6,0.1c1.4-0.4,2.8-0.8,4.2-0.6c1.4,0.3,2.2-0.3,3.1-1.4c1.9-1.4,3.9-2.2,6-2.5h2.8
		c0.2,0,0.4,0,0.5-0.1C86.4,88.4,87.4,87.9,88.4,87.1z"/>
	<path class="st1" d="M21.1,99.8c1-2.8,2.4-5,4.1-6.9c0.7-0.8,1.6-1,2.4-1.2c2.7-0.7,5.5-0.3,8.1,1c1.3,0.7,2.5,1.5,3.8,2.1
		c1,0.6,2,0.7,3,1c0.7,0.3,1.2-0.1,1.6-1.1c1-2.6,2.4-4.9,4.4-6.1c1.9-1.2,4.1-1.2,6.2-0.1c0.9,0.4,1.7,1.1,2.4,1.9
		c-1.7-0.3-3.3,0-4.9,0.6c-3.7,1.2-6.4,4.2-8.3,8.6c0,0.1,0,0.1,0,0.3h-7.2c0-0.1,0-0.3-0.1-0.3c-2.2-1.8-4.5-3.2-7.2-3.1
		c-1.9,0.1-3.7,1-4.9,3.3L21.1,99.8z"/>
	<path class="st1" d="M0.1,93.9c0.4,0,0.6-0.4,0.8-0.8c2.2-3.6,4.9-6,8.3-6.8c0.4-0.1,0.7,0,1.2,0C5.8,88.9,3.7,94.1,2,100
		c-0.6,0-1.5,0.4-1.9-0.1s0-1.8,0-2.6C0.1,97.2,0.1,93.9,0.1,93.9z"/>
	<path class="st0" d="M24.5,99.8c1.2-2.2,2.9-3.2,4.9-3.3c2.6-0.1,4.9,1.2,7.2,3.1c0,0,0.1,0.1,0.1,0.3L24.5,99.8z"/>
	<path class="st1" d="M72.2,99.8c0.7-1.1,1.6-1.7,2.4-2.6c1.8-2.1,3.8-3.7,6-4.7c0.7-0.3,1.5-0.6,2.3-0.4c0.2,0,0.4-0.1,0.5,0.3
		c0.1,0.4-0.2,0.4-0.3,0.6c-1.7,1.4-3.4,2.6-5,4c-0.9,0.7-1.6,1.5-2.5,2.4c-0.1,0.1-0.2,0.4-0.2,0.6C75.4,99.8,72.2,99.8,72.2,99.8z
		"/>
	<path class="st1" d="M66.9,99.8c-0.6-1.8-1.5-3.6-2.2-5.3c0.1-0.3,0.3-0.1,0.4,0c1.2,1.9,2.6,3.5,4.1,4.7c0.1,0.1,0.2,0.3,0.3,0.6
		H66.9z"/>
	<path class="st1" d="M27.3,69c1.4-2.1,3.1-3.9,4.6-5.8c3.2-3.9,6.4-7.8,9.6-11.7c0.3-0.3,7.1-8.6,7.4-9c0.5-0.6,1-1.1,1.5-1.9
		c0.8-0.6,1.3-1.7,2.1-2.2l0.1,1.2c0,0.3,0,0.4,0,0.7c0,8.9,0,17.6,0,26.4c0,0.4,0.1,0.7,0.2,1c1.2,2.9,2.4,6,3.7,8.9
		c0.8,1.9,1.5,3.9,1.9,6.1c0,0.3,0.2,0.6-0.1,0.8l-18-9.9c-0.1-0.7,0.2-1.2,0.4-1.9l4-11.4l6.8-19c0.1-0.3,0.3-0.6,0.2-1.2
		c-0.9,1.8-1.7,3.6-2.5,5.3c-4.2,8.9-8.3,17.8-12.5,26.8c-0.5,1-1.1,1.9-1.3,3.2l0,0H35L27.3,69z"/>
	<path class="st2" d="M52.5,39.6l-0.1-1.2c2,1.1,3.8,2.8,5.7,4.2c1.9,1.2,3.6,2.5,5.4,3.9c0.6,0.4,1.2,1.1,1.3,2.1l0,0
		c-0.3-0.4-0.5-0.4-0.5,0.3c0.1,0.7,0.3,1.9,0.4,2.9l3.1,20.4c0.1,0.8,0.3,1.5,0.6,2.2c1,2.4,2,4.7,3,7.1c0.1,0.3,0.1,0.4-0.1,0.7
		c-1-0.3-2-0.6-3-0.8c-1.3-0.3-2.5-1-3.8-1v-0.1c0-1-0.4-1.8-0.7-2.5c-1.5-3.5-3.1-6.8-4.6-10.3c-0.7-1.7-1.7-3.2-2.1-5.1
		c-1.4-7.1-2.8-14.2-4.3-21.2C52.9,40.4,52.9,39.9,52.5,39.6z"/>
	<path class="st3" d="M27.3,69l7.5,6.5c0.1,0.3,0.3,0.1,0.4,0.1c-0.2,0.3-0.4,0.4-0.5,0.8C33.9,79,33,81.4,32.3,84
		c-0.4,1.4-1,2.6-1.2,4.2c-2.6,0.8-5,2.2-7.1,4.7c-0.2,0.3-0.4,0.1-0.5-0.1c-1.6-3.2-3.7-5.4-6.1-7.1c2.5-4.4,5.1-8.9,7.6-13.2
		C25.7,71.2,26.3,69.9,27.3,69z"/>
	<path class="st4" d="M88.4,87.1c-0.9,0.8-1.9,1.5-2.8,2.5c-0.2,0.1-0.3,0.3-0.5,0.1h-2.8c-0.2-0.8-0.7-1.4-1.1-1.9
		c-0.4-0.6-1.5-1.7-1.9-2.8c-1.1-2.9-2.4-5.8-3.6-8.7c-0.1-0.4-0.3-0.7-0.6-0.8l0.1-0.1l0.1-0.3v-0.1l2.5-4.9l10,16.5
		C88,86.5,88.2,86.8,88.4,87.1z"/>
	<path class="st2" d="M77.9,69.7l-2.5,4.9c-0.4,0-0.5-0.6-0.6-0.8c-0.8-1.9-1.6-4-2.4-6.1c-1.9-4.9-3.9-9.9-5.8-14.8
		c-0.6-1.5-1.4-2.8-1.7-4.4l0,0c0.6,0.4,0.9,1.1,1.3,1.8c1.6,2.8,3.3,5.5,4.9,8.2c1.7,2.6,3.5,6,5.3,9
		C76.9,68.2,77.6,68.7,77.9,69.7z"/>
	<path class="st5" d="M24.6,30.3c-5,0-9.9,0-15,0c-1.4,0-1.8-0.8-1.9-3c-0.4-5.1,2.2-9.7,5.4-9.5c0.8,0,1.4-0.4,2.1-0.6
		c3.5-1.6,7.1-2.2,10.6-2.2c0.4,0,0.8,0.4,0.9,0.8c0.8,1.2,1.5,1.2,2.5,0.2c2.2-2,4.8-1.2,6.3,2.2c0.5,1.2,1.3,2.2,2.1,2.6
		c1.7,1,2.6,3.2,3.1,5.9c0.4,1.8,0.1,3-1.4,3c-5-0.2-9.9,0-15,0L24.6,30.3z"/>
	<path class="st5" d="M62,13.6c-2.1,0-4.2,0-6.4,0c-0.7,0-0.9-0.4-0.9-1.2c0-1.8,1-3.3,2.3-3.3c0.4,0,0.7-0.3,1-0.3
		c1.5-0.4,2.9-0.6,4.4-0.7c0.2,0,0.5,0.1,0.6,0.4c0.3,0.3,0.5,0.3,0.9,0.1c1.2-0.8,2.1-0.6,3,0.8c0.2,0.3,0.5,0.6,0.7,0.7
		c0.7,0.4,1.3,1.1,1.5,2.2c0.1,0.7,0,1.1-0.6,1.1c-2.2,0-4.4,0-6.6,0L62,13.6z"/>
	<path class="st5" d="M79.4,38.4c-2.4,0-4.9,0-7.3,0c-1,0-1.3-0.5-1.3-2c0-2,1.1-3.7,2.4-4c0.7,0,1.3-0.2,2-0.7
		c0.5-0.5,1-0.5,1.5-0.2c0.7,0.2,1.1,0,1.8-0.2c0.7-0.2,0.5-0.5,0.7-0.2c1.6,1,3.3,0,4.7,0.5c1.5,0.5,2.9,2.5,4.1,4.5
		c1,2,0.3,2.2-1,2.5H79.4L79.4,38.4z"/>
	<path class="st3" d="M40.1,73.7l18,9.9l0.2,0.1c0.1,0.3,0,0.4-0.2,0.4c-2.2-0.4-4.4-0.3-6.5,0.6c-3.1,1.2-5.9,3.7-7.8,7.4
		c-0.3,0.6-0.5,0.7-1,0.3c-2-2.2-4.3-3.5-6.8-4.2c0.6-1,0.6-2.2,0.9-3.3c0.8-3.1,1.2-6.4,2.3-9.3c0.2-0.6,0.5-1,0.6-1.7L40.1,73.7z"
		/>
	<path class="st4" d="M64.7,80.1c1.3,0,2.5,0.7,3.8,1c1,0.3,2,0.6,3,0.8c0.2,0.1,0.4,0.1,0.5,0c0.1,0.6,0.2,1.1,0.4,1.5
		c0.6,1.4,1.2,2.8,1.8,4.2c0.6,1.4,1.3,3.1,2,4.4c-0.9,1-1.8,1.7-3.1,1.4c-1.3-0.3-2.8,0.1-4.2,0.6L68,90.8c-0.7-2.2-1.3-4.4-2-6.7
		C65.7,82.9,65.4,81.4,64.7,80.1z"/>
	<path class="st6" d="M76.3,92.2c-0.8-1.4-1.4-2.9-2-4.4s-1.2-2.8-1.8-4.2c-0.2-0.4-0.4-1-0.4-1.5c1-2.4,2-4.6,3.1-6.8
		c0.3,0.1,0.4,0.4,0.6,0.8c1.2,2.9,2.4,5.8,3.6,8.7c0.4,1.1,1.2,1.8,1.9,2.8c0.6,1,0.9,1.1,1.1,1.9C80.2,90,78.1,90.8,76.3,92.2z"/>
	<path class="st7" d="M39.8,73.7c0,0.7-0.4,1.1-0.6,1.7c-1.1,2.9-1.5,6.2-2.3,9.3c-0.3,1.1-0.3,2.4-0.9,3.3c-1.6-0.3-3.3-0.3-4.9,0
		c0.2-1.5,0.8-2.8,1.2-4.2c0.7-2.5,1.6-5,2.4-7.5c0.1-0.4,0.4-0.6,0.5-0.8v-0.1l0,0c0.3-0.1,0.6-0.1,0.9-0.3
		C37.3,74.7,38.6,74,39.8,73.7z"/>
	<path class="st7" d="M64.7,80.1c0.7,1.1,1,2.6,1.4,4c0.7,2.2,1.3,4.4,2,6.7L69,94c-0.3,0.1-0.4,0.3-0.6-0.1
		c-2.4-5.3-5.8-8.5-10.2-9.7c0.2,0,0.3-0.1,0.2-0.4L64.7,80.1L64.7,80.1z"/>
	<path class="st8" d="M64.7,80.1l-6.4,3.6l-0.2-0.1c0.2-0.3,0.1-0.6,0.1-0.8c-0.3-2.2-1-4.2-1.9-6.1c-1.3-2.9-2.5-6-3.7-8.9
		c-0.1-0.3-0.2-0.7-0.2-1c0-8.9,0-17.6,0-26.4c0-0.3,0-0.4,0-0.7c0.4,0.3,0.4,1,0.5,1.4c1.4,7.1,2.8,14.2,4.3,21.2
		c0.4,1.9,1.4,3.5,2.1,5.1c1.5,3.5,3.1,6.8,4.6,10.3C64.3,78.3,64.7,79.1,64.7,80.1z"/>
	<path class="st8" d="M39.8,73.7c-1.3,0.4-2.5,1-3.7,1.5c-0.3,0.1-0.6,0.1-0.9,0.3c0.2-1.2,0.8-2.2,1.3-3.2
		c4.1-8.9,8.3-17.9,12.5-26.8c0.8-1.7,1.6-3.5,2.5-5.3c0.1,0.6-0.1,0.8-0.2,1.2l-6.8,19l-4,11.4c-0.2,0.6-0.4,1.2-0.4,1.9L39.8,73.7
		z"/>
	<path class="st8" d="M35.2,75.5L35.2,75.5c-0.1,0.1-0.3,0.1-0.4,0H35.2z"/>
	<path class="st9" d="M75.2,75.3c-1.1,2.2-2.2,4.4-3.1,6.8c-0.2,0.1-0.4,0.1-0.5,0c0.2-0.1,0.2-0.4,0.1-0.7c-1-2.4-2-4.7-3-7.1
		c-0.3-0.7-0.5-1.5-0.6-2.2L65,51.7c-0.1-1-0.3-1.9-0.4-2.9c-0.1-1,0.2-0.7,0.5-0.3c0.3,1.7,1.1,2.9,1.7,4.4c1.9,5,3.9,9.9,5.8,14.8
		c0.8,2.1,1.6,4,2.4,6.1c0.1,0.3,0.3,0.7,0.6,0.8v0.1L75.2,75V75.3z"/>
	<path class="st6" d="M75.2,75l0.1-0.3L75.2,75z"/>
</g>
</svg>
