<?xml version="1.0" encoding="utf-8"?>
<!-- Generator: Adobe Illustrator 21.0.2, SVG Export Plug-In . SVG Version: 6.00 Build 0)  -->
<svg version="1.1" id="master-artboard" xmlns="http://www.w3.org/2000/svg" xmlns:xlink="http://www.w3.org/1999/xlink" x="0px"
	 y="0px" viewBox="0 0 150 104" style="enable-background:new 0 0 150 104;" xml:space="preserve">
<style type="text/css">
	.st0{fill:#624817;}
	.st1{fill:#F9F0E8;}
	.st2{fill:#AA5237;}
	.st3{fill:#95472A;}
	.st4{fill:#C97865;}
	.st5{fill:#C29D67;}
	.st6{fill:#F2DEDA;}
	.st7{fill:#E0790A;}
	.st8{fill:#CC6C0D;}
</style>
<g>
	<g>
		<g>
			<path class="st0" d="M75,92.7c-19.7,0-38.3-3.2-52.4-9.1C8,77.5,0,69.2,0,60.2c0-9,8.1-17.3,22.6-23.4
				c14.1-5.9,32.7-9.1,52.4-9.1c19.7,0,38.3,3.2,52.4,9.1C142,43,150,51.3,150,60.2c0,9-8.1,17.3-22.6,23.4
				C113.4,89.5,94.8,92.7,75,92.7z M75,28.8c-19.5,0-37.9,3.2-51.7,9C9.2,43.7,1.4,51.7,1.4,60.2s7.7,16.5,21.9,22.4
				c13.8,5.8,32.2,9,51.7,9s37.9-3.2,51.7-9c14.1-5.9,21.9-13.9,21.9-22.4s-7.7-16.5-21.9-22.4C112.9,32,94.5,28.8,75,28.8z"/>
		</g>
		<path class="st0" d="M74.5,95.2c-17.7,0-34.3-2.9-46.9-8.2c-13-5.4-20-12.7-20-20.6s7.2-15.2,20-20.6c12.5-5.2,29.2-8.2,46.9-8.2
			s34.3,2.9,46.9,8.2c13,5.4,20,12.7,20,20.6s-7.2,15.2-20,20.6C108.8,92.4,92.2,95.2,74.5,95.2z"/>
		<g>
			<path class="st1" d="M147.1,60.2c0,16.7-32.3,30.2-72.1,30.2l0,0c-39.8,0-72.1-13.5-72.1-30.2S35.2,30,75,30
				S147.1,43.5,147.1,60.2L147.1,60.2z"/>
			<path class="st0" d="M75,91C34.8,91,2.1,77.2,2.1,60.2S34.8,29.4,75,29.4c40.2,0,72.9,13.8,72.9,30.8S115.2,91,75,91z M75,30.6
				c-39.4,0-71.4,13.3-71.4,29.6c0,16.3,32.1,29.6,71.4,29.6s71.4-13.3,71.4-29.6C146.5,43.9,114.4,30.6,75,30.6z"/>
		</g>
		<g>
			<path class="st1" d="M147.1,60.2c0,16.7-32.3,30.2-72.1,30.2l0,0c-39.8,0-72.1-13.5-72.1-30.2S35.2,30,75,30
				S147.1,43.5,147.1,60.2L147.1,60.2z"/>
			<path class="st0" d="M75,91C34.8,91,2.1,77.2,2.1,60.2S34.8,29.4,75,29.4c40.2,0,72.9,13.8,72.9,30.8S115.2,91,75,91z M75,30.6
				c-39.4,0-71.4,13.3-71.4,29.6c0,16.3,32.1,29.6,71.4,29.6s71.4-13.3,71.4-29.6C146.5,43.9,114.4,30.6,75,30.6z"/>
		</g>
	</g>
	<g>
		<g>
			<path class="st2" d="M62.8,16.8c9-5.3,34.7,8.4,34.7,8.4s30.1,15.1,12.1,27.5c-12.9,7-23.6-3.5-44.1-1.3
				c-9.4,1-35.4,14.9-42.5,8.6c-7-6.1,1.4-8.8,17.8-26C50.9,23.6,53.4,22.4,62.8,16.8z"/>
			<path class="st3" d="M63.6,16.9c-1.7,0.3-2.7,1.1-4,2.1c-2.4,1.9-5.1,3.5-7.6,5.4c-4.6,3.7-8.9,8-13,12.4
				c-4.5,4.9-9.8,9.1-14.6,13.9c-2.4,2.5-5.6,6.1-1.3,8.3c0.6,0.3,1.3-0.4,1.1-1c-1.7-4,6.7-10,9.4-12.6c3.1-3,6.1-5.9,9-9.3
				c3.2-3.7,7.1-6.7,10.8-9.8c1.7-1.4,3.5-2.7,5.4-3.9c1.7-1.1,3.4-2.8,5.3-3.5C65.2,18.5,64.7,16.7,63.6,16.9z"/>
			<path class="st3" d="M104.9,34.5c-0.5-0.4-1,0.3-0.6,0.8c3.2,3.2,10.9,9.7,5.7,14.2c-3.8,3.4-9.3,2.9-14,2.6
				c-4.6-0.3-9-1.9-13.6-2c-5.2-0.2-8.6,0.1-13.4,2.3c-0.6,0.3-0.3,1.2,0.4,0.9c4-1.5,7.1-1.8,11.4-1.3c3.4,0.3,6.6,1.2,9.8,1.9
				c5.7,1.2,10.8,2,16.4-0.1c2.8-1,7.1-3.9,7.1-7.2C114.1,41.1,108.5,37.5,104.9,34.5z"/>
			<path class="st3" d="M98.4,51.5c0.5,0.5-0.2,1.3-0.7,0.8c-2.5-2.5-5.1-4.7-6.8-7.9c-1.1-2.2-2.9-3.8-4-5.9
				c-0.8-1.5-1.8-4.2-4-3.8c-0.3,0.1-0.6-0.3-0.4-0.6c0-0.1,0.1-0.3,0.1-0.3c0.1-0.3,0.6-0.4,0.8-0.3c3.4,1.4,4,5,6.2,7.7
				c1.4,1.8,2.4,4,4,5.6C95.1,48.4,96.8,49.9,98.4,51.5z M107.6,51.5c-1.9-3-4-5.7-5.6-8.8c-1.2-2.3-2.4-4.6-4.3-6.4
				c-0.7-0.6-6.1-5.6-7-5.1c-0.1,0-0.1,0.1-0.2,0.1c-0.3,0.2-0.3,0.5-0.1,0.7c2.1,2.8,5.6,4.2,7.7,7.1c3.2,4.1,5.8,8.7,8.3,13.2
				C107,52.9,108.1,52.2,107.6,51.5z M76.8,37.2c-0.1-0.1-0.2-0.1-0.2,0.1c0.1,2,1.3,3.3,2.6,4.7c1.1,1.3,1.7,2.9,2.5,4.5
				s1.8,2.8,2.5,4.4c0.1,0.3,0.5,0.1,0.4-0.2c-0.8-2.7-2.3-5.4-3.5-7.9C80,40.5,77.9,39.3,76.8,37.2z M69.6,40.9
				c0.4,1.5,1.3,2.6,2.3,3.9c1.2,1.5,1.3,3.6,2.6,5.1c0.3,0.3,0.7,0.1,0.7-0.3c0-3.7-3.5-5.9-5-8.9C70,40.3,69.5,40.5,69.6,40.9z
				 M63.8,43.3c-0.1,1.2,0.3,2.1,0.8,3.2c0.6,1.5,1.3,2.7,1.5,4.3c0.1,0.6,1.1,0.7,1.1,0C67.3,48,65.2,45.6,63.8,43.3
				C64,43.2,63.9,43.2,63.8,43.3z M57.9,44.5c-0.3,0.5-0.5,1-0.7,1.5c-0.2,0.6,0.2,1.4-0.1,2c-0.3,0.5,0.3,1,0.4,1.4
				c0.4,1.2,0.7,2.1,0.3,3.4c-0.2,0.5,0.7,0.8,0.8,0.3c0.4-1.3,0.3-2.5,0-4c-0.3-1.5-1-2.7-0.2-4.4C58.7,44.5,58.1,44.2,57.9,44.5z
				 M53.1,47.1c-0.9,0.4-1.3,1.8-1.3,2.7c0,0.8,0.1,1.6,0.2,2.4c0.1,0.8-0.2,1.8-0.1,2.6c0.1,0.4,0.5,0.5,0.8,0.3
				c0.8-0.8,0.5-2.3,0.5-3.4c0-0.7-0.1-1.3-0.1-1.9c0-0.8,0.3-1.4,0.4-2.3C53.5,47.2,53.3,47,53.1,47.1z M74.3,24.8
				c-2.9-0.6-5-1.9-8-1.9c-1.8,0-3.5,0.1-5.2,0.3C59,23.4,57,23,54.9,23.3c-0.3,0.1-0.3,0.5,0.1,0.5c3,0,5.8,0.2,8.8-0.1
				c3.7-0.3,6.9,0.8,10.5,1.3C74.5,25,74.5,24.8,74.3,24.8z M75.7,25.6l-0.3-0.3c0,0-0.1,0-0.1,0.1L75.7,25.6
				C75.7,25.7,75.8,25.6,75.7,25.6z M72.1,29.6c-1.7-0.5-3-0.1-4.8-0.3c-1.7-0.2-3-0.7-4.7-0.7c-3.9,0.1-8.1,0.4-11.9-0.8
				c-0.4-0.2-0.7,0.4-0.3,0.6c2.6,1.1,5.6,1.3,8.4,1.3c2.4,0,4.8-0.3,7.2,0.2c2,0.4,4-0.4,6,0.1C72.2,30,72.3,29.6,72.1,29.6z
				 M63.6,34.1c-2.7-0.8-5.8-0.8-8.6-1.1c-3.6-0.4-7.7,0.7-11.3,1.2c-0.3,0.1-0.3,0.6,0.1,0.6c3.4-0.3,6.7-0.7,10.1-1
				c1.8-0.2,3.6,0.4,5.3,0.6c1.4,0.2,2.9-0.1,4.3,0.1C63.7,34.6,63.8,34.2,63.6,34.1z M65.4,34.4c-0.2,0-0.3,0-0.5,0c0,0-0.1,0,0,0
				C65.1,34.5,65.2,34.5,65.4,34.4L65.4,34.4z M47.2,38.3c3.5,0.2,6.6,2,10.1,2c0.3,0,0.3-0.5,0-0.5c-2.7-0.3-5.3-1.2-8-1.9
				c-2.7-0.7-6.5,0.7-8.8-0.9c-0.1-0.1-0.3,0.1-0.2,0.2C42.3,39,44.9,38.2,47.2,38.3z M50,44.9c-2.3-0.9-4.5-1.8-6.9-2.2
				c-2.3-0.4-5.3-1.5-7.6-1.1c-0.3,0.1-0.3,0.6,0.1,0.6c2.3-0.4,5.2,0.8,7.4,1.2c2.4,0.4,4.5,1.5,6.8,2.2
				C50.2,45.7,50.3,45.1,50,44.9z M49.6,46.1c-1.9-0.6-21.2-0.8-20.9,2.3c0,0.3,0.4,0.3,0.5,0c0.3-1.2,6.3-1,7.5-1.1
				c3.8-0.2,7.5-0.4,11.3-0.4c-4.4,1.2-8.6,2.4-12.6,4.3c-2.4,1.1-4.9,1.6-7.5,1.9c-1.9,0.2-3.5,1.3-5.3,1.9c-0.1,0,0,0.2,0.1,0.1
				c2.2-0.6,4.3-1.5,6.6-1.7c1.9-0.2,3.4-0.4,5.2-1.1c4.8-1.8,9.2-3.8,14.2-4.9c0.3-0.1,0.3-0.3,0.2-0.5c0.3,0,0.5,0,0.8,0
				C49.9,46.8,50,46.2,49.6,46.1z M48.7,47.5c-2.4,2.4-5.1,5.4-7.9,7.3c-2.7,1.8-7.2,4.5-10.4,5.1c-0.1,0-0.2,0.2,0,0.3
				c3.2,0.2,7-2.4,9.7-3.9c3.6-2,6.4-5.2,9.3-8.2C49.6,47.7,49,47.2,48.7,47.5z M49.6,48.2c-0.3,1.2-0.7,2.4-1,3.5
				c-0.4,1.4-1,2.9-1.4,4.3c-0.1,0.3,0.3,0.4,0.4,0.2C49.3,54.1,49.2,50.7,49.6,48.2C49.7,48.2,49.7,48.1,49.6,48.2z"/>
			<path class="st0" d="M102.4,55.4c-4.5,0.5-8.8-0.5-14-1.6c-6.4-1.4-13.6-3-22.9-2c-3.2,0.3-8.3,2.2-13.8,4.2
				c-6.8,2.4-14.6,5.2-20.5,5.9c-4,0.4-6.7-0.1-8.4-1.6c-1.8-1.6-2.6-2.9-2.6-4.4c0-2.8,3-5.6,8.5-10.6c3.2-2.9,7.2-6.6,12-11.5
				c9.7-10.1,12.3-11.6,20.9-16.7l1.1-0.7c1-0.6,2.4-1,3.9-1.2c10.9-1.2,30.4,9.2,31.2,9.6c0.7,0.3,17.3,8.8,18,18.4
				c0.3,3.6-1.7,6.8-5.8,9.8C107.5,54.4,105.1,55.2,102.4,55.4z M65.5,51.1c9.4-1,16.8,0.6,23.1,2c5.1,1.1,9.3,2,13.7,1.6
				c2.5-0.3,4.8-1,7.1-2.3c3.9-2.7,5.7-5.7,5.5-9c-0.7-9.3-17.4-17.8-17.6-17.8c-0.2-0.1-20.1-10.7-30.7-9.5
				c-1.4,0.2-2.6,0.5-3.5,1.1L62,17.8c-8.5,5.1-11.1,6.6-20.7,16.6c-4.7,4.9-8.8,8.6-12,11.6c-5.1,4.7-8.2,7.6-8.2,10.1
				c0,1.2,0.8,2.4,2.4,3.8c1.5,1.3,4.1,1.9,7.8,1.4c5.9-0.7,13.6-3.5,20.4-5.9C57.2,53.2,62.2,51.5,65.5,51.1z"/>
		</g>
		<g>
			<path class="st4" d="M116.2,51.9c0.6,3.4-0.8,6.9-5.6,10.2c-12.9,7-24.4-3.5-44.9-1.3c-9.4,1-34,14.4-41.7,8.6
				c-2.5-1.9-3.5-13.2-3.5-13.1c0.2,0.8,0.9,2.4,2.4,3.7c7.2,6.4,33-7.5,42.5-8.6c20.5-2.3,31.2,8.2,44.1,1.3
				c5-3.5,6.2-7.1,5.6-10.5L116.2,51.9z"/>
			<path class="st2" d="M116.5,53.2c-4.9,7.4-10.8,10.2-19.7,9.3c-8.6-0.9-17.4-3.5-26-3.3c-8.8,0.3-17.7,3.3-25.8,6.3
				c-5.9,2.2-15.9,7.5-21.4,2c-0.3-0.3-0.7,0.2-0.4,0.4c3.5,4.8,10.4,2.9,15.2,1.3c10.9-3.5,22-9.1,33.8-8.7
				c10.2,0.3,20.5,4.5,30.7,3.6c5.5-0.4,13.4-4.7,14.1-10.8C117,53.2,116.7,52.9,116.5,53.2z"/>
			<path class="st2" d="M115.5,47c-0.3-0.3-0.7-0.3-1,0l0,0l-0.1,0.1c-4.8,7.6-12.2,8.9-20.1,7.8c-4.1-0.6-9.1-2.4-13.2-2.7
				c-3.5-0.3-7.2-1-10.6-1c-8.1,0.2-16.5,3.3-24.1,5.9c-6,2.1-20.9,9.9-25.1,1.6c-0.1-0.3-0.6-0.2-0.5,0.1c1.3,5.9,9.8,5.1,14,3.9
				c11.1-3,21.5-8,33.1-9.8c2.5-0.4,5.1,0.1,7.7,0.5c2.6,0.4,5.4,0.3,8,0.6c5,0.6,10.5,2.6,15.5,3.1c6,0.6,14.2-3,16.8-9.3
				C115.9,47.5,115.7,47.2,115.5,47z"/>
			<path class="st0" d="M103.5,64.8c-4.6,0.5-9.2-0.5-14.5-1.6c-6.6-1.4-14-3-23.2-1.9c-3.2,0.3-8.3,2.2-13.7,4.1
				c-6.6,2.4-14.1,5.1-19.9,5.7l0,0c-3.7,0.4-6.4-0.1-8.2-1.4c-2.6-2-3.8-13-3.6-13.6l0.4-1.4l0.3,1.4c0.3,0.9,1,2.4,2.4,3.5
				c1.5,1.3,4.1,1.9,7.8,1.4c5.9-0.7,13.6-3.5,20.4-5.9c5.8-2.1,10.8-3.9,14-4.2c9.4-1,16.8,0.6,23.1,2c5.1,1.1,9.3,2,13.7,1.6
				c2.5-0.3,4.8-1,7.1-2.3c3.7-2.5,5.6-5.5,5.5-8.6l-0.2-1.6l0.8-0.1c0.1,0.6,0.2,1.1,0.2,1.7l0.9,8.1c0.7,3.9-1.3,7.4-5.7,10.5
				C108.5,63.8,106.1,64.5,103.5,64.8z M65.7,60.5c9.3-1,16.8,0.6,23.5,2c5.2,1.1,9.8,2.1,14.2,1.6c2.5-0.3,4.9-1,7.2-2.3
				c4.1-2.9,6-6.2,5.4-9.8l-0.6-5.3c-0.8,2.3-2.6,4.5-5.4,6.4c-2.4,1.3-4.8,2.1-7.4,2.4c-4.5,0.5-8.8-0.5-14-1.6
				c-6.4-1.4-13.6-3-22.9-2c-3.2,0.3-8.3,2.2-13.8,4.2C45,58.5,37.3,61.3,31.3,62c-4,0.4-6.7-0.1-8.4-1.6c-0.7-0.6-1.2-1.2-1.5-1.8
				c0.4,3.5,1.4,9.3,3.1,10.5c1.6,1.3,4.1,1.6,7.7,1.3l0,0c5.7-0.7,13.2-3.3,19.8-5.7C57.2,62.7,62.4,60.8,65.7,60.5z"/>
		</g>
		<g>
			<path class="st5" d="M72.1,15.9c11,1.6,25.5,9.3,25.5,9.3s8.2,4.3,13.6,9.9c5.4,5.6,4.5,12.8,3.4,10.1
				c-2.4-5.4-13.7-17.1-22.8-16.2C82.2,30,51.5,48.2,49.2,47.3c-1-0.4,13.6-8.4,28.5-21.3c3.5-2.9,7.5-8.2-14.8-9.2
				c-0.7,0,1.2-0.8,3.7-1.1C68.2,15.5,70.2,15.6,72.1,15.9z"/>
			<path class="st6" d="M115.2,44.2c-1.3-2.5-1.3-4.4-3.3-6.6c-2-2.4-4.5-4.4-6.7-6.4c-4.8-4-10.4-7.2-16-10.1
				c-6.5-3.4-17.3-9.8-24.6-5.6c-0.4,0.3,0,1,0.4,0.8c7.2-3.5,17.3,2.7,23.6,6c5.1,2.7,10.1,5.6,14.7,9.1c2,1.6,3.9,3.4,5.8,5.2
				c2.5,2.4,3.3,5.1,4.8,8.1C114.2,45.5,115.6,45,115.2,44.2z"/>
			<path class="st6" d="M77.4,26.8c-7.5,7.4-17.5,11.9-25.4,18.9c-0.1,0.1,0,0.3,0.2,0.3c5.1-2.4,9.8-6.1,14.5-9.4
				c3.6-2.6,8.9-5.4,11.3-9.3C78,26.7,77.5,26.6,77.4,26.8z"/>
			<path class="st3" d="M79,23.3c-1.9,2.4-4.8,4.1-7.2,6.1c-2.5,2.2-5.3,3.9-8.2,5.6c-3.1,1.9-6.1,4-8.8,6.5
				c-1.9,1.7-4.4,2.7-5.9,4.8c-0.3,0.3,0.2,0.8,0.6,0.6c5.6-4.1,11-8.3,16.9-12.1c2.4-1.6,4.8-3.1,6.7-5.4c1.9-2.2,4.5-3.3,6-5.9
				C79.4,23.3,79.1,23.2,79,23.3z"/>
			<path class="st3" d="M98.7,30.2c-6.6-4.5-14.7,2.6-20.8,4.4c-5.1,1.5-9.4,4.8-14.3,6.9c-4.5,1.9-9,4.4-13.6,6.1
				c-0.3,0.1-0.2,0.7,0.2,0.6c3.6-0.3,6.8-2.3,10.1-3.8c4.4-1.9,8.7-3.9,13-5.9c3.9-1.8,7.7-3.4,11.5-5.3c4.1-2.1,8.7-3.4,13.1-1.8
				C98.7,31.6,99.3,30.6,98.7,30.2z"/>
			<path class="st0" d="M115.1,46.2c-0.5,0.1-0.8-0.6-0.9-0.8c-1-2.4-4.2-6.6-8.8-10.3c-5-4-9.8-6-13.6-5.6
				c-5.5,0.6-17.8,6.8-27.9,11.8c-7,3.5-12.5,6.2-14.3,6.5c-0.3,0-0.4,0-0.6-0.1l-0.3-0.1l-0.1-0.3c-0.1-0.5,0.4-0.8,5.1-4
				c5.4-3.6,14.4-9.7,23.7-17.6c2-1.8,2.9-3.1,2.4-4.2c-0.6-1.6-4-3.6-17.1-4.2c-0.5,0-0.5-0.4-0.5-0.4c0-0.9,4.1-1.5,4.2-1.5l0,0
				c1.9-0.3,4.1,0,5.6,0.2c10.9,1.6,25.4,9.3,25.6,9.4c0.1,0,8.2,4.4,13.6,9.9c4.1,4.4,4.7,9.5,4.2,10.8
				C115.4,46.1,115.2,46.2,115.1,46.2L115.1,46.2z M91.5,28.7L91.5,28.7c9.5-1,21,11,23.3,16.4c0,0.1,0.1,0.2,0.1,0.2
				c0.3-1.2-0.3-5.8-4.1-9.8c-5.3-5.6-13.4-9.8-13.5-9.8c-0.2-0.1-14.5-7.7-25.3-9.3c-1.4-0.2-3.5-0.4-5.3-0.3
				c-0.9,0.1-1.8,0.3-2.4,0.4c10,0.6,15.4,2.1,16.2,4.7c0.7,1.9-1.2,3.8-2.7,5.1c-9.3,7.9-18.4,14-23.7,17.7
				c-1.8,1.2-3.3,2.3-4.1,2.9c2.2-0.6,7.4-3.3,13.5-6.2C73.5,35.5,85.9,29.3,91.5,28.7z"/>
		</g>
		<g>
			<path class="st6" d="M90.1,23.9c-1.3-0.8-5-2.3-6.3-1c-0.5,0.4-0.3,1.3-0.4,1.9c-0.3,2.2-3.1,3.1-4.6,4.2
				c-0.3,0.3-0.1,0.8,0.3,0.8c1.7-0.4,3.2-1.7,4.4-2.9c1.6-1.6,0-4,3.2-3.4c0.5,0.1,5.8,2.1,3.5,3.2c-0.9,0.5-2.3,0.4-3.3,0.5
				c-2.6,0.3-5,1-7.2,2.6c-0.3,0.3,0,0.7,0.3,0.4c3.4-2.1,6.8-1.5,10.4-2.6C92.8,27.1,91.4,24.8,90.1,23.9z"/>
			<path class="st2" d="M83.9,23.9c2.8,0.4,5.2,1.8,5.2,1.8s1.8,0.9,1.3,1c-0.2,0-1.1-0.6-3.4-0.4c-2.4,0.3-6.9,3.5-7.2,3.4
				c-0.3-0.2,0.8-0.5,4.6-3.6C86.1,24.7,83.5,23.8,83.9,23.9z"/>
			<path class="st0" d="M80.1,29.9h-0.2l-0.3-0.3v-0.3c0-0.3,0.2-0.4,0.8-0.8c0.7-0.5,1.9-1.3,4-2.9c0.2-0.2,0.3-0.3,0.3-0.5
				c0-0.3-0.6-0.7-0.8-0.8c-0.2-0.1-0.4-0.3-0.3-0.5l0.1-0.3h0.3H84c2.8,0.4,5.3,1.8,5.4,1.8c1.6,0.8,1.6,1.2,1.5,1.3
				c0,0.2-0.2,0.3-0.4,0.3l0,0c-0.2,0-0.3,0-0.4-0.1c-0.3-0.2-1.3-0.5-2.9-0.3c-1.5,0.2-4,1.6-5.5,2.5
				C80.6,29.7,80.3,29.9,80.1,29.9z M85.3,24.5c0.1,0.2,0.2,0.3,0.2,0.6c0,0.4-0.2,0.8-0.7,1.2c-0.3,0.3-0.5,0.4-0.8,0.6
				c1.1-0.5,2.2-1,3-1.1c0.7-0.1,1.3-0.1,1.7,0C88.2,25.6,86.9,24.9,85.3,24.5z"/>
		</g>
		<path class="st0" d="M115.6,44.2c0,0.1,0,0.2,0,0.3C115.6,44.4,115.5,44.4,115.6,44.2c0-0.3,0.1-0.8,0.2-1.2
			c0-0.3-0.2-0.3-0.4-0.3c-0.3-2.6-1.8-5.1-3.5-7.2c-0.5-0.8-1.1-1.4-1.7-2.1c-2.9-3.4-7.2-5.3-10.8-7.7c-0.1-0.1-0.3,0.1-0.2,0.2
			c0.8,0.7,1.8,1.3,2.7,1.9c-0.8-0.4-1.8-0.8-2.5-1.3c-1.1-0.8-2.2-1.6-3.4-2.3c-2.4-1.4-5.1-2.4-7.6-3.7c-2.4-1.2-4.9-2.3-7.3-3.3
			c-4.3-1.8-9.6-3.4-14.2-2.2c-3.6-0.1-7.5,2.9-10,4.7c-2.7,2-5.1,4.3-7.6,6.6c-2.7,2.6-5.6,4.9-8.4,7.2
			c-5.5,4.5-10.6,9.5-15.3,14.7c-1.7,1.9-3.9,3.5-5,5.7c-0.2,0.3-0.3,0.8-0.3,1.3c0,0-0.1,0-0.1,0.1c-0.2,0.3-0.2,0.2-0.3,0.5
			c0,0.2,0.3,0.2,0.3,0c-0.5,2,0.3,4.6,0.8,6.6c0.6,2.3,1.3,4.6,2.8,6.4c2.4,2.9,6.3,2.4,9.6,1.7c5.9-1.3,11.7-3.1,17.5-5
			c6.2-2,12.3-4,18.9-4.5c6.4-0.4,12.8,0.8,19,1.6c5.5,0.7,10.7,2.2,16.2,1c4.2-0.9,8.4-2.9,10.6-6.7c2.3-3.9-0.3-8.5,0.4-12.6
			C116.1,44.1,115.7,44,115.6,44.2z M21.7,52.9c0.7-0.9,1.6-1.8,2.5-2.5c1.9-1.8,3.5-3.7,5.2-5.5c4.5-4.5,9-8.7,14-12.7
			c4.2-3.5,7.9-7.4,12.2-10.8c3.5-2.7,8.8-7,13.4-5.4c0.3,0.1,0.6-0.3,0.3-0.5c-0.5-0.3-0.9-0.3-1.4-0.4c9.3-0.8,18.4,4.8,26.3,8.7
			c2.4,1.1,4.3,2.9,6.6,4c2.5,1.3,4.8,2.3,6.9,4.3c1.8,1.8,3.5,3.5,4.8,5.3c1.1,1.9,1.9,4.1,2.4,6.3c0,0.3,0,0.4,0,0.7
			c-0.1,0.4-0.3,0.8-0.3,1.3c-1.5-2.1-2.9-4.4-4.4-6.5c-1.8-2.4-3.8-4.2-6.2-5.9c-2-1.4-4.3-2.8-6.6-3.5c-3.1-0.8-5.7,0-8.8,0.3
			c-1.4,0.2-2.9,0.2-4.2,0.6c-1.5,0.5-2.9,1.3-4.4,2c-3.1,1.6-6.5,2.9-9.7,4.4C64,40,58.3,44.3,51.8,46.4c-0.1,0-0.1,0.1,0,0.2
			c-0.3,0.2-0.8,0.3-1.1,0.3c2.9-2.1,5.8-4.2,8.8-6.3s6.1-4,9.1-6.1c2.8-2.2,5.1-4.9,7.9-7c1.6-1.2,3.6-2.6,3.9-4.8
			c0.3-2.9-4.2-4-6.2-4.5c-3.3-0.8-7-1.3-10.4-0.9c-0.2,0-0.1,0.2,0,0.2c3.2-0.1,18,0.5,16,6.1c-0.9,2.5-4.4,4.1-6.2,5.9
			c-2.4,2.2-4.6,4.5-7.3,6.3c-5.6,3.9-11.1,7.7-16.7,11.4c-0.3,0.2-0.1,0.5,0.2,0.5c1.2,0,2.2-0.7,3.4-0.9c0.2-0.1,0.2-0.3,0-0.4
			c5.3-1.5,10-5.2,14.8-7.6c2.8-1.3,5.6-2.6,8.4-3.9c3.1-1.3,6.1-3.4,9.5-4c1.3-0.3,2.8-0.3,4.2-0.5c1.8-0.2,3.3-0.8,5.1-0.6
			c3.2,0.2,6.2,2.1,8.8,3.9c2.4,1.6,4.5,3.5,6.1,5.8c1.7,2.2,3,4.5,4.6,6.8c-1.1,3.1-3.2,5.5-6.5,7c-4.4,2-9.5,1.7-14.1,1.2
			c-5.5-0.7-10.8-2.1-16.2-2.8c-5.1-0.6-10.2-0.3-15.2,0.6c-2.4,0.4-4.5,1.3-6.6,2.4c-2.8,1.3-5.6,1.8-8.6,2.4
			c-2.4,0.5-4.6,1.6-6.9,2.4c-1.7,0.6-3.5,0.9-5.2,1.3c-2.9,0.6-5.9,1.1-8.8,0.8c-2.5-0.3-4.1-1.8-4.8-3.8c0,0,0,0,0.1,0
			c0.2,0,0.3-0.3,0.1-0.3c-0.1,0-0.2-0.1-0.3-0.1c-0.2-0.7-0.3-1.3-0.3-2.1C21,54.1,21.5,53.2,21.7,52.9z M115.4,56.3
			c-2,4.8-8.3,6.7-13,7.3c-2.6,0.3-5.3-0.2-7.8-0.7c-2.6-0.4-5.1-0.8-7.7-1.1c-5.2-0.6-10.4-1.4-15.6-1.3
			c-5.4,0.1-10.4,1.3-15.5,2.9c-5.2,1.7-10.5,3.4-15.8,4.8c-2.9,0.8-5.6,1.5-8.5,2.1c-1.9,0.4-3.9,0.3-5.6-0.6
			c-2.1-1.1-2.9-3.4-3.6-5.5c-0.8-2.4-1.4-4.8-1.6-7.3c0.1,0.1,0.2,0.2,0.3,0.3c0.4,1.5,1.2,2.8,2.7,3.6c2.4,1.3,5.6,1.2,8.2,0.8
			c3.5-0.4,6.8-1.3,10.1-2.4c2.9-1,5.7-1.9,8.8-2.5c2.8-0.5,5.3-1.9,7.8-2.9c5.5-2.4,12.5-2.4,18.3-1.9c6,0.6,11.7,2.2,17.7,2.9
			c7.8,0.9,17.8-0.1,20.7-8.7c0.1-0.3,0.2-0.7,0.3-1c0.1,0,0.1,0,0.1,0C115.2,48.9,116.9,52.6,115.4,56.3z M80.4,29.2
			C80.3,29.3,80.4,29.3,80.4,29.2c0.3,0,0.3-0.1,0.5-0.2c-0.1,0.2,0.1,0.3,0.3,0.3c1.3-0.8,2.7-1.3,4.2-1.9c1.9-0.7,3.6-0.7,5.6-0.8
			c0.2,0,0.3-0.3,0.3-0.3c-0.9-1.9-4.2-3.3-6.2-3.2c-0.5,0-1.7,0.2-1.7,1c0.1,0.5,0.7,1,0.5,1.5C83.3,27.2,81.6,28.3,80.4,29.2z
			 M84.8,23.6c1.2-0.2,2.6,0.5,3.6,1c0.3,0.2,2.5,1.6,1.9,1.6c-1.3,0-2.6,0-4,0.3c-1,0.3-2.4,0.6-3.7,1.2c0.2-0.2,0.4-0.4,0.6-0.6
			c0.3-0.3,1.3-1.4,1.2-1.9C84.3,24.6,83.5,23.8,84.8,23.6z"/>
	</g>
	<g>
		<path class="st0" d="M78.5,80.7c0-1.4,8.8-2.5,19.7-2.5c10.9,0,19.7,1.2,19.7,2.6c0,1.4-8.8,2.5-19.7,2.5
			C87.3,83.3,78.5,82.1,78.5,80.7z"/>
		<g>
			<g>
				<g>
					<path class="st1" d="M39.2,69.6c2.5,0.1,4.5,1.7,6,1.9c7.3,1.3,29.5-4.4,29.5-4.4l1.1,7c0,0-23.4,0.3-29.5,4.5
						c-1.3,0.9-1.7,2.8-5.1,4c-3.6,1.2-5.5-0.2-6.5-2.5c-1.1-2.6,4-4,4-4s-5,1.1-5.3-2.2C33.2,69.6,36.7,69.6,39.2,69.6z"/>
					<path class="st0" d="M75.8,74.6c-0.2,0-15.2,0.2-24.2,2.4c-2.4,0.6-4,1.3-5.1,2c-0.3,0.3-0.7,0.6-1,1c-0.8,0.9-1.8,2.1-4.2,2.9
						c-0.3,0.1-0.5,0.2-0.8,0.3c-3,0.8-5.1-0.3-6.3-3c-0.3-0.7-0.3-1.3,0-1.9c0.3-0.7,1-1.3,1.8-1.7c-0.7-0.1-1.3-0.3-1.9-0.7
						c-0.7-0.5-1-1.2-1.1-2c-0.3-2.5,0.8-4.1,2.9-4.7c1-0.3,2.2-0.3,3.2-0.3c1.6,0.1,2.9,0.7,4.2,1.3c0.8,0.3,1.3,0.7,1.9,0.8
						c6.7,1.2,26.8-3.7,29-4.3l0.8-0.3l1.3,8L75.8,74.6z M45.1,72c-0.7-0.1-1.3-0.4-2.1-0.8c-1.1-0.5-2.4-1.1-3.8-1.2
						c-0.9,0-2,0-2.9,0.2c-1.1,0.3-2.5,0.9-2.3,3.7c0.1,0.6,0.3,1,0.8,1.3c1.3,0.9,4,0.4,4,0.4l0.2,0.9c-1.1,0.3-3.2,1.1-3.8,2.2
						c-0.2,0.3-0.2,0.7,0,1.1c1,2.4,2.7,3.1,5.2,2.4c0.3-0.1,0.5-0.1,0.7-0.2c2.2-0.7,3-1.8,3.7-2.6c0.3-0.4,0.8-0.9,1.2-1.2
						c1.2-0.8,2.9-1.5,5.4-2.1c8.1-2,21-2.4,23.8-2.4l-0.9-6C70.5,68.7,51.9,73.2,45.1,72z"/>
				</g>
				<g>
					<path class="st2" d="M66.8,74.5c1-0.9,1.8-1.3,1.8-1.3s-1.9-1-2.1-1.2c1.3-0.6,2-1,2.9-1.2c-0.8-0.6-1.7-1.3-2.1-1.9
						c1-0.6,3.9-0.6,5.2-2c3.7-5.9,11.9-11.4,22.8-14.3c20.5-5.5,30.6,3.5,32,7.7S128.2,76,117,80c-9.3,3.4-35.7,1-44-4l0,0l0,0
						c-0.5-0.3-0.9-0.6-1.3-0.9c-0.7-0.4-1.4-0.7-2.6-0.5C68.1,74.7,66.6,74.7,66.8,74.5z"/>
					<path class="st0" d="M72.7,76.4L72.7,76.4l-0.2-0.1c-0.4-0.3-0.8-0.6-1.2-0.8c-0.6-0.3-1.2-0.6-2.3-0.4
						c-2.4,0.3-2.6-0.1-2.7-0.3l-0.2-0.3l0.3-0.3c0.4-0.4,0.8-0.8,1.2-0.9c-0.6-0.3-1.3-0.8-1.5-0.8l-0.7-0.5l0.8-0.3
						c0.3-0.2,0.6-0.3,0.8-0.4c0.4-0.3,0.8-0.4,1.3-0.6c-0.6-0.5-1.1-1-1.4-1.4l-0.3-0.4l0.4-0.3c0.3-0.2,0.6-0.3,1.1-0.4
						c0.3-0.1,0.5-0.1,0.8-0.2s0.6-0.1,0.8-0.2c0.8-0.2,1.9-0.5,2.4-1.2c4-6.3,12.6-11.8,23.1-14.5c0.3-0.1,0.5-0.2,0.8-0.2
						c19.9-5,30.1,3.5,31.7,8.1c1.3,3.8,1.3,16.1-10.7,20.4c-0.5,0.2-1.1,0.3-1.7,0.5C104.5,83.6,80.6,81.1,72.7,76.4z M95.4,53
						c-10.3,2.7-18.7,8-22.6,14.1l-0.1,0.1c-0.8,0.8-1.9,1.3-2.9,1.5c-0.3,0.1-0.6,0.2-0.8,0.2c-0.3,0.1-0.6,0.2-0.9,0.3
						c0.4,0.4,1,0.9,1.6,1.3l1,0.7l-1.2,0.2c-0.6,0.1-1.2,0.3-2,0.8c0,0,0,0-0.1,0c0.4,0.3,0.8,0.5,1.3,0.7l0.7,0.3l-0.7,0.4
						c0,0-0.3,0.3-0.8,0.6c0.3,0,0.7-0.1,0.9-0.1c1.2-0.2,2,0,2.9,0.6l0.1,0.1c0.3,0.3,0.7,0.5,1.1,0.8l0.1,0.1
						c7.5,4.5,31.5,7.1,42,4.5c0.6-0.2,1.1-0.3,1.6-0.5c11.3-4.1,11.4-15.7,10.1-19.2c-0.6-1.6-2.9-4.8-8.3-7.1
						c-4.2-1.7-11.5-3.2-22.3-0.5C96,52.9,95.6,52.9,95.4,53z"/>
				</g>
				<path class="st3" d="M79.1,76.3c4.8,0.7,8,0.3,11,0.5c5.7,0.2,11.4,0.1,17.2,0c4.5-0.1,8.7-1.1,12.1-4.3
					c3.4-3.1,6.6-13.3,7.2-12c1.9,4.2,0.7,8.4-1.6,12.4c-2.5,4.5-7.9,6.8-12.8,7.8c-6.3,1.3-13,0.8-19.2-0.1
					c-3.4-0.5-6.7-1.1-10.1-1.9c-3.3-0.8-7-1.3-9.9-2.9C70.7,74.8,75,75.8,79.1,76.3z"/>
				<path class="st7" d="M91.5,73L91.5,73C91.6,73.1,91.6,73,91.5,73c0.1-0.1,0.2-0.2,0.3-0.1c0.3,0.2-0.1,0.3-0.3,0.4
					C91.3,73.3,91.3,73,91.5,73z M88,68.1c0.2,0,0.1-0.3,0-0.3C87.9,67.9,87.9,68.1,88,68.1z M80,68.5c0.2,0,0.1-0.3,0-0.2
					C79.9,68.3,79.9,68.5,80,68.5z M83.4,75.6c-0.1,0.2,0.2,0.3,0.3,0.1c0-0.1,0.1-0.2,0.1-0.3c0-0.1-0.2-0.1-0.3,0
					C83.5,75.6,83.5,75.6,83.4,75.6z M112.1,68.5L112.1,68.5c0.2,0,0.2-0.3,0.1-0.3h-0.1C112,68.2,112,68.6,112.1,68.5z M114.6,60.7
					C114.6,60.7,114.6,60.7,114.6,60.7C114.5,60.7,114.6,60.7,114.6,60.7z M114.5,56.4C114.5,56.4,114.6,56.4,114.5,56.4
					C114.6,56.4,114.6,56.4,114.5,56.4L114.5,56.4C114.4,56.4,114.4,56.4,114.5,56.4z M119.2,56c0.3,0,0.5,0,0.8-0.1
					c0.1,0,0-0.1,0-0.1c-0.3,0-0.4,0-0.7,0C119.1,55.9,119,55.9,119.2,56z M121.9,59.2c0.1,0,0.1,0.1,0.2,0.1c0.1,0.1,0.2,0,0.1-0.1
					c-0.1-0.1-0.1-0.2-0.3-0.2C121.8,59,121.7,59.1,121.9,59.2z M119.7,65.2c0,0.1,0.1,0.1,0.2,0c0,0,0.1-0.1,0.1-0.2
					c0.1-0.1-0.1-0.2-0.1-0.1C119.7,65,119.7,65,119.7,65.2z M117.1,68.8c0.3-0.1,0.3-0.5-0.1-0.4C116.8,68.5,116.8,68.9,117.1,68.8
					z M114.2,70.5C114.2,70.5,114.2,70.4,114.2,70.5C114.1,70.4,114.2,70.5,114.2,70.5z M113.8,58.7c-0.1,0.1,0.1,0.3,0.2,0.1
					c0,0,0-0.1,0.1-0.1c0.1,0,0.1-0.2,0-0.2C114,58.5,113.9,58.6,113.8,58.7z M110.4,53.5C110.5,53.5,110.5,53.4,110.4,53.5
					C110.4,53.5,110.4,53.6,110.4,53.5z M103.5,55.1c0.3-0.1,0.3-0.5-0.1-0.4C103.1,54.7,103.2,55.2,103.5,55.1z M99.2,54.2
					C99.2,54.2,99.2,54.1,99.2,54.2C99.1,54.1,99.1,54.2,99.2,54.2z M108.6,52.7C108.6,52.8,108.7,52.9,108.6,52.7
					c0.3-0.2,0-0.3-0.3-0.3c-0.1,0-0.1,0.1,0,0.1C108.4,52.5,108.7,52.6,108.6,52.7z M105.2,52.7c0.3-0.1,0.3-0.5-0.1-0.4
					C104.8,52.2,104.9,52.7,105.2,52.7z M97.1,53.5C97.1,53.5,97.1,53.4,97.1,53.5C97,53.4,97.1,53.5,97.1,53.5z M92.1,55.9
					c0.3-0.1,0.3-0.5-0.1-0.4C91.8,55.4,91.8,55.9,92.1,55.9z M90.3,59.6c0.1,0,0.2-0.1,0.2-0.2c0-0.1-0.2-0.1-0.2,0l0,0
					C90.2,59.5,90.2,59.6,90.3,59.6z M94.3,61.7C94.3,61.7,94.4,61.7,94.3,61.7c0.2,0.1,0.2,0,0.2,0H94.3
					C94.3,61.5,94.2,61.7,94.3,61.7z M101.1,64.4C101,64.4,101,64.5,101.1,64.4C101.3,64.5,101.2,64.4,101.1,64.4z M103.9,68.1
					c0.2,0,0.2-0.3,0-0.3C103.6,67.8,103.7,68.1,103.9,68.1z M109.3,73.2c0.1,0,0.2,0.1,0.3,0.1c0,0,0.1,0,0-0.1
					c-0.1-0.1-0.2-0.1-0.3-0.2C109.3,73.1,109.3,73.2,109.3,73.2z M111.7,74.4c0.1,0,0.1-0.2,0-0.2S111.6,74.4,111.7,74.4z
					 M104.2,75.2c0.3-0.1,0.3-0.5-0.1-0.4C103.8,74.8,103.9,75.2,104.2,75.2z M99.4,76c0,0.2,0.3,0.2,0.3,0v-0.1
					C99.6,75.8,99.5,75.8,99.4,76L99.4,76z M102.4,71.8c0.3-0.1,0.3-0.5-0.1-0.4C102,71.4,102,71.8,102.4,71.8z M108.2,66.8
					c0.3-0.1,0.3-0.5-0.1-0.4C107.9,66.4,108,66.8,108.2,66.8z M111,62.6C110.9,62.7,111.1,62.8,111,62.6c0.1,0.1,0.1,0,0.2,0
					C111.2,62.5,111.1,62.4,111,62.6C111,62.5,111,62.5,111,62.6z M105.7,59.9C105.8,59.9,105.8,59.8,105.7,59.9
					C105.6,59.8,105.7,59.9,105.7,59.9z M97,60.2c0.3-0.1,0.3-0.5-0.1-0.4C96.6,59.8,96.7,60.3,97,60.2z M92.2,66.8
					C92.3,66.8,92.3,66.6,92.2,66.8C92.1,66.7,92.1,66.8,92.2,66.8z M97.5,66.2C97.5,66.2,97.6,66.2,97.5,66.2
					c0.2,0.1,0.3,0,0.2-0.1L97.6,66C97.5,65.9,97.3,66.1,97.5,66.2z M99.1,65C99.2,65,99.2,64.9,99.1,65C99,64.9,99,65,99.1,65z
					 M88.6,61.6c0,0.1,0,0.1,0,0.2s0.1,0,0.1,0C88.6,61.7,88.6,61.7,88.6,61.6C88.6,61.6,88.5,61.6,88.6,61.6z M88.2,60
					C88.2,60.1,88.2,60.1,88.2,60C88.2,60.1,88.4,60.1,88.2,60L88.2,60L88.2,60z M85,59.6c0.2,0,0.1-0.3,0-0.3
					C84.8,59.4,84.9,59.6,85,59.6z M83.2,61.3c0-0.2,0.1-0.3,0.1-0.3c0.1-0.1-0.2-0.2-0.2-0.1C83,61.1,83,61.2,83,61.3
					C83,61.5,83.2,61.5,83.2,61.3z M81.6,64.7c0,0.1,0,0.1,0.1,0.2c0.1,0.1,0.2,0.1,0.2,0c0-0.1,0-0.1,0-0.2
					C81.9,64.5,81.6,64.5,81.6,64.7z M82.3,61.1C82.3,61.1,82.3,61.2,82.3,61.1c0.1,0.1,0.1,0.1,0.2,0.2c0.1,0.1,0.2-0.1,0.1-0.1
					C82.5,61,82.4,60.9,82.3,61.1z M77.5,64.1c0,0.1,0,0.1,0,0.2c0,0.1,0.1,0.1,0.2,0.1c0.1-0.1,0.1-0.1,0.2-0.2
					C77.9,63.9,77.5,63.9,77.5,64.1z M75.3,68c0,0.1,0,0.1,0,0.2s0.2,0.1,0.2,0s0-0.1,0-0.2C75.6,67.8,75.3,67.8,75.3,68z M76.9,71
					c0.1,0.1,0.2,0.1,0.3,0c0.2,0,0.2-0.3,0-0.3c-0.1,0-0.1,0-0.2,0C76.8,70.7,76.6,70.9,76.9,71z M83.4,72.3
					c0.3-0.1,0.3-0.5-0.1-0.4C83,71.8,83.1,72.4,83.4,72.3z M77.5,73.8c0,0.1,0.1,0.3,0.2,0.2c0,0,0.1,0,0.1-0.1
					C78,73.7,77.6,73.4,77.5,73.8C77.5,73.7,77.5,73.7,77.5,73.8z M75.8,75.2c-0.1,0.1,0,0.2,0,0.2c0.1,0,0.2-0.1,0.3-0.1
					c0.2-0.1,0.1-0.3-0.1-0.3C75.9,75,75.8,75.1,75.8,75.2z M72.6,74.9c0,0.2,0.1,0.2,0.3,0.2c0.2,0,0.2-0.3,0-0.3
					C72.7,74.7,72.6,74.7,72.6,74.9z M71.5,74.3c0.2,0,0.2-0.3,0-0.3C71.3,74.1,71.3,74.4,71.5,74.3z M72.4,72.2
					c-0.2,0-0.1,0.3,0,0.3C72.6,72.4,72.6,72.2,72.4,72.2z M71.9,71.4c0.1,0,0.1-0.2,0-0.2C71.8,71.3,71.8,71.4,71.9,71.4z
					 M70.4,69.3L70.4,69.3C70.4,69.5,70.5,69.5,70.4,69.3L70.4,69.3C70.5,69.2,70.4,69.2,70.4,69.3z M70.7,68.5
					C70.8,68.5,70.8,68.4,70.7,68.5C70.7,68.4,70.7,68.5,70.7,68.5z M71,67.9L71,67.9C71,68,71,68,71,67.9C71,68,71,68,71.1,68
					s0.1,0,0.1-0.1l0,0c0.1,0,0-0.2-0.1-0.2C71,67.8,71,67.8,71,67.9z M69.4,68.8c0.1,0,0.1,0,0.2,0.1c0.1,0,0.1-0.1,0.1-0.1
					s0-0.1-0.1-0.1l0,0C69.5,68.7,69.5,68.7,69.4,68.8L69.4,68.8L69.4,68.8C69.4,68.7,69.4,68.7,69.4,68.8
					C69.4,68.7,69.4,68.8,69.4,68.8z M70.5,68.1c0.1-0.1,0.3-0.1,0.3-0.1s0.1-0.2,0-0.2C70.7,67.9,70.6,68,70.5,68.1
					C70.5,68.1,70.5,68.1,70.5,68.1z M69.3,68.7C69.2,68.7,69.2,68.9,69.3,68.7C69.4,68.9,69.4,68.7,69.3,68.7z M68.5,68.9
					C68.5,68.9,68.6,68.9,68.5,68.9c0.2,0.1,0.2,0,0.2,0H68.5C68.5,68.7,68.4,68.9,68.5,68.9z M69.9,72.5c0.1,0,0.1-0.2,0-0.2
					C69.7,72.4,69.8,72.5,69.9,72.5z M69.4,74C69.4,74,69.4,74,69.4,74L69.4,74z M124.9,58.8L124.9,58.8c0,0.2,0.2,0.2,0.2,0.1v-0.1
					C125,58.8,125,58.8,124.9,58.8z M125.7,58.5L125.7,58.5c0.2,0.1,0.3-0.1,0.2-0.1c-0.1-0.1-0.1-0.1-0.3-0.1
					C125.5,58.5,125.6,58.6,125.7,58.5z M127,60.8c0.3-0.1,0.3-0.5-0.1-0.4C126.7,60.4,126.7,60.8,127,60.8z M125.7,61.6h0.2
					c0.1,0,0.1-0.1,0-0.1L125.7,61.6C125.6,61.5,125.6,61.6,125.7,61.6z M123.7,62.3c0,0.1,0,0.2,0,0.3c0,0.1,0.2,0.1,0.2,0
					S123.8,62.4,123.7,62.3C123.7,62.2,123.7,62.2,123.7,62.3z M121.6,59.8C121.7,59.8,121.6,59.7,121.6,59.8
					C121.5,59.7,121.5,59.8,121.6,59.8z M118.4,55.4c0.1-0.1,0.1-0.2,0.1-0.3c0-0.1-0.2-0.1-0.2,0c0,0.1,0,0.1-0.1,0.1
					C118.3,55.4,118.4,55.5,118.4,55.4z M117.5,54.2L117.5,54.2c0.2,0.2,0.3,0,0.2,0C117.7,54.2,117.6,54.2,117.5,54.2
					C117.5,54.1,117.5,54.1,117.5,54.2z M115.9,53.3L115.9,53.3c0.2,0.2,0.2,0,0.2,0S116,53.3,115.9,53.3
					C115.9,53.2,115.9,53.2,115.9,53.3z M112.7,55.8c0,0.1,0.1,0.2,0.2,0.2c0.1,0,0.1-0.1,0-0.2v-0.1
					C112.9,55.7,112.7,55.7,112.7,55.8z M117.3,62.3C117.4,62.3,117.4,62.3,117.3,62.3c0.3,0.1,0.3-0.3,0-0.2c0,0,0,0-0.1,0
					C117.3,62.2,117.3,62.3,117.3,62.3z M112.5,65.2c0,0.1,0.1,0.1,0.2,0.1c0,0,0.1,0,0.1-0.1c0.2,0.1,0.3-0.2,0.1-0.3
					C112.7,64.9,112.5,64.9,112.5,65.2z M114.6,73c0.1,0,0.1-0.2,0-0.2C114.4,72.9,114.5,73.1,114.6,73z M110.3,73.6
					C110.4,73.6,110.4,73.4,110.3,73.6C110.2,73.5,110.2,73.6,110.3,73.6z M107.8,73.8c-0.1,0.2,0.1,0.3,0.2,0.1
					c0.1-0.1,0.1-0.2,0-0.3c0-0.1-0.2-0.1-0.2,0C107.9,73.7,107.9,73.7,107.8,73.8z M108.8,62c0.1-0.1,0.1-0.1,0.1-0.2
					c0-0.1-0.2-0.1-0.2,0l0,0C108.7,61.8,108.7,62.1,108.8,62z M107.7,59.5c0.1,0,0.1-0.2,0-0.2C107.6,59.3,107.6,59.5,107.7,59.5z
					 M105.7,58.3c0,0.1,0.1,0.2,0.1,0.2c0.2,0.1,0.3-0.1,0.2-0.3C105.9,58.3,105.9,58.2,105.7,58.3L105.7,58.3z M103.5,58.9
					c0,0.1,0,0.1,0,0.2c0,0.1,0.1,0.1,0.1,0.1c0.1-0.1,0.2-0.2,0.2-0.3C103.7,58.6,103.4,58.7,103.5,58.9z M103.3,60.7
					c0.1,0.1,0.2,0.2,0.3,0.3c0,0.1,0.2,0.1,0.2,0c0-0.2-0.1-0.3-0.2-0.4C103.4,60.4,103.1,60.6,103.3,60.7z M103,63.9
					c0.2,0,0.2-0.3,0-0.3C102.8,63.8,102.9,64,103,63.9z M94.9,72.7c0.1,0,0.2-0.1,0.2-0.2c0.1-0.1-0.1-0.2-0.2-0.1
					c0,0-0.1,0-0.1,0.1C94.7,72.5,94.7,72.7,94.9,72.7z M97.6,71.3c0.2-0.1,0.3-0.1,0.3-0.3c0-0.1-0.1-0.2-0.2-0.1
					c-0.1,0.1-0.2,0.1-0.3,0.2C97.4,71,97.4,71.3,97.6,71.3z M98.6,63.7C98.6,63.8,98.6,63.8,98.6,63.7c0.2,0.2,0.3,0,0.2-0.1
					c0,0-0.1,0-0.1-0.1C98.6,63.5,98.5,63.7,98.6,63.7z M100.3,54.8c0.1,0,0.1-0.2,0-0.2C100.3,54.6,100.3,54.8,100.3,54.8z
					 M99.6,52.8C99.5,52.8,99.5,52.9,99.6,52.8C99.7,52.9,99.7,52.8,99.6,52.8z M97.2,53.6C97.1,53.6,97.2,53.7,97.2,53.6
					C97.3,53.7,97.3,53.6,97.2,53.6z M98.1,55.3L98.1,55.3C98.1,55.4,98.1,55.4,98.1,55.3L98.1,55.3C98.1,55.1,98,55.2,98.1,55.3z
					 M94.2,58.1C94.2,58.2,94.3,58.2,94.2,58.1c0.1,0.1,0.2,0,0.2-0.1c0.1-0.1,0-0.3-0.1-0.2C94.3,58,94.3,58,94.2,58.1z M90.7,61
					c0.2,0,0.2-0.3,0-0.3C90.4,60.7,90.5,61,90.7,61z M89.7,63.6c0.2,0.1,0.3,0.2,0.5,0.2c0.1,0,0.2-0.1,0.1-0.2
					c-0.2-0.1-0.3-0.2-0.5-0.3C89.6,63.3,89.6,63.6,89.7,63.6z M92.6,65.4C92.7,65.4,92.7,65.3,92.6,65.4
					C92.6,65.3,92.6,65.4,92.6,65.4z M91.2,69C91.2,69,91.2,68.9,91.2,69c-0.2-0.1-0.3-0.1-0.3-0.1s0,0.1-0.1,0.1
					C90.8,69.2,91.2,69.2,91.2,69z M85.9,64.9c0,0.1,0,0.1,0,0.2c0,0.1,0.2,0.1,0.2,0c0-0.1,0-0.1,0-0.2S85.9,64.9,85.9,64.9z
					 M83.7,67.3c-0.1,0.1,0,0.3,0.1,0.3c0.1,0,0.2-0.1,0.2-0.2C84,67.1,83.7,67.1,83.7,67.3z M82.9,69.9c0,0.1-0.1,0.2-0.1,0.3
					c0,0.1,0.1,0.2,0.2,0.1c0.1,0,0.2-0.1,0.2-0.2C83.4,70,83,69.7,82.9,69.9z"/>
				<path class="st8" d="M125.9,64.1c0.2,0,0.2,0.2,0,0.3C125.8,64.4,125.8,64.1,125.9,64.1z M125.8,68.2c0.1,0,0.1-0.2,0-0.2
					C125.6,68.1,125.6,68.2,125.8,68.2z M125.8,69.2C125.8,69.2,125.8,69.1,125.8,69.2C125.6,69.2,125.7,69.2,125.8,69.2z
					 M122.1,74.2c0.1,0,0.1-0.2,0-0.2C121.9,74,122,74.2,122.1,74.2z M120.6,77.7c0.1,0,0.1-0.2,0-0.2
					C120.5,77.5,120.5,77.7,120.6,77.7z M117.8,79.5c0.1,0,0.1-0.2,0-0.2S117.7,79.5,117.8,79.5z M115.8,79.9
					C115.9,79.9,115.9,79.8,115.8,79.9C115.7,79.8,115.7,79.9,115.8,79.9z M114.4,80.3C114.5,80.3,114.4,80.2,114.4,80.3
					C114.3,80.2,114.3,80.3,114.4,80.3z M115.7,80.4L115.7,80.4c0.1,0,0.2,0,0.2-0.1c0.2-0.1,0.3-0.3,0.5-0.4
					c0.1-0.1-0.1-0.2-0.2-0.1c-0.2,0.2-0.3,0.3-0.5,0.3l0,0C115.4,80.1,115.5,80.4,115.7,80.4z M117.3,79.2c0.2,0,0.2-0.2,0.1-0.3
					c0-0.1-0.2-0.1-0.2,0V79C117.3,79.1,117.3,79.2,117.3,79.2z M118.1,78.8C118.2,78.8,118.2,78.8,118.1,78.8
					C118.2,78.8,118.2,78.8,118.1,78.8C118.2,78.8,118.2,78.8,118.1,78.8c0.2,0,0.2,0,0.3-0.1c0.1,0,0-0.1,0-0.1c-0.1,0-0.1,0-0.2,0
					l0,0l0,0h-0.1C118,78.6,118,78.8,118.1,78.8z M113.3,80C113.4,80,113.4,79.8,113.3,80C113.2,79.9,113.3,80,113.3,80z M114,80.6
					C114,80.6,114.1,80.6,114,80.6c0.2,0,0.2-0.2,0.1-0.2H114C113.8,80.4,113.9,80.6,114,80.6z M115,80.3c0.2,0,0.1-0.3,0-0.2
					C114.8,80.1,114.8,80.3,115,80.3z M113.9,80.4c0.1,0,0.1,0,0.2,0c0.1,0,0.1-0.2,0-0.2c-0.1,0-0.1,0-0.2,0
					C113.7,80.2,113.8,80.4,113.9,80.4z M112.1,80.3c0,0.1,0,0.2,0.1,0.2c0,0,0,0,0,0.1c0,0,0.1,0.1,0.1,0h0.1c0.1,0,0.1-0.2,0-0.2
					l0,0c0-0.1,0-0.1-0.1-0.2C112.2,80,112,80.2,112.1,80.3z M110.9,81.1c0.1,0,0.1,0,0.2,0s0.1-0.2,0-0.2S111,80.9,110.9,81.1
					C110.9,80.9,110.9,81.1,110.9,81.1z M109.3,81.4c0.1,0,0.1-0.2,0-0.2C109.3,81.2,109.3,81.4,109.3,81.4z M107.5,81.4L107.5,81.4
					c0.6,0,1.1-0.1,1.6-0.3c0.1,0,0-0.1,0-0.1c-0.3,0-0.4,0.1-0.6,0.1c0,0,0-0.1-0.1,0h-0.1c0-0.1-0.1-0.1-0.1-0.1h-0.1
					c-0.1,0-0.1,0.1,0,0.1c-0.2,0-0.3,0-0.5,0l-0.1-0.1C107.3,81.2,107.3,81.4,107.5,81.4z M109.8,81c0.2,0,0.2-0.3,0-0.3
					C109.6,80.8,109.7,81,109.8,81z M106.6,81.3c0.1,0,0.1-0.2,0-0.2C106.6,81.1,106.6,81.3,106.6,81.3z M105.3,81.2
					c-0.1,0.1-0.1,0.1,0,0.2c0,0.2,0.3,0.1,0.3,0c0-0.1,0-0.1-0.1-0.2C105.4,81.2,105.3,81.2,105.3,81.2z M104.2,81.3
					c-0.1,0.1,0,0.2,0.1,0.2h0.1c0.1,0,0.1-0.1,0.1-0.2c0,0-0.1,0-0.1-0.1C104.2,81.2,104.2,81.2,104.2,81.3z M106.1,80.9
					L106.1,80.9c0.1,0.1,0.3,0,0.2-0.1c0-0.1-0.2-0.2-0.3-0.1l0,0C106.1,80.7,106.1,80.8,106.1,80.9z M101.9,81c0.2,0,0.1-0.3,0-0.3
					C101.8,80.9,101.9,81,101.9,81z M100.4,80.9c-0.1,0.2,0.1,0.3,0.2,0.3l0,0c0.2,0,0.2-0.3,0.1-0.3
					C100.7,80.9,100.6,80.8,100.4,80.9C100.4,80.8,100.4,80.9,100.4,80.9L100.4,80.9z M97.7,80.4c0,0.1,0,0.2,0.1,0.3
					c0.2,0.2,0.4-0.1,0.2-0.3l-0.1-0.1C97.8,80.3,97.7,80.3,97.7,80.4z M97.3,79.9c0.1,0.1,0.3,0.1,0.3,0v-0.1
					C97.6,79.6,97.2,79.7,97.3,79.9L97.3,79.9z M98.6,81.4C98.7,81.4,98.7,81.4,98.6,81.4c0.1-0.1,0.2-0.1,0.2-0.2v-0.1h-0.1h-0.1
					C98.3,81.1,98.4,81.4,98.6,81.4z M97.1,80.9c0.1,0.1,0.1,0.2,0.3,0.2c0.3,0,0.2-0.3,0-0.3h-0.1C97.1,80.7,97.1,80.8,97.1,80.9z
					 M96.5,81.3L96.5,81.3c0.2,0,0.2-0.1,0.2-0.1s0-0.1-0.1-0.1C96.5,80.9,96.2,81.2,96.5,81.3z M94.7,80.7c0.2,0,0.4,0,0.6-0.1l0,0
					c0.2,0,0.1-0.3,0-0.3l0,0c-0.2,0-0.4,0.1-0.6,0.1C94.5,80.6,94.5,80.7,94.7,80.7z M93.8,80.4c0.2,0,0.1-0.3,0-0.3
					C93.6,80.2,93.6,80.4,93.8,80.4z M94.4,80.8c0.2,0,0.2-0.3,0-0.3C94.2,80.5,94.3,80.9,94.4,80.8z M96,81.1c0.2,0,0.1-0.3,0-0.3
					C95.8,80.9,95.8,81.1,96,81.1z M92.8,80.8c0.2,0,0.2-0.3,0-0.3C92.6,80.6,92.6,80.9,92.8,80.8z M92.2,80.5
					c0.2,0,0.2-0.3-0.1-0.3C91.9,80.3,91.9,80.6,92.2,80.5z M90.7,80.4c-0.1,0.1,0,0.2,0.1,0.2c0.1,0,0.1-0.1,0.2-0.1
					c0.2-0.1,0.1-0.3-0.1-0.3C90.7,80.4,90.7,80.4,90.7,80.4z M89.9,80.4L89.9,80.4L89.9,80.4c0,0.1,0,0.1,0.1,0.2
					c0.1,0.1,0.2,0.1,0.2,0v-0.1l0,0l0,0C90.2,80.4,90.1,80.4,89.9,80.4C89.9,80.2,89.9,80.3,89.9,80.4z M88.9,80
					c0.2,0,0.1-0.3,0-0.3C88.6,79.8,88.7,80,88.9,80z M88,80.2L88,80.2c0.3,0,0.3-0.3,0.1-0.3c0,0-0.1,0-0.1,0.1
					C88,80,88,80.2,88,80.2z M87.2,80.2c0.1,0.2,0.3,0.1,0.3-0.1c0-0.1-0.1-0.2-0.2-0.2l0,0C87.3,79.9,87.1,80,87.2,80.2z
					 M89.2,79.7c-0.2,0.2,0.1,0.3,0.3,0.2v-0.1C89.5,79.7,89.4,79.6,89.2,79.7L89.2,79.7z M87.5,79.8c0.2,0,0.2-0.3,0-0.3
					C87.3,79.5,87.3,79.8,87.5,79.8z M86.5,79.8c0.2,0,0.1-0.3,0-0.3C86.4,79.5,86.4,79.8,86.5,79.8z M85.9,79.4
					c0.2,0,0.2-0.3-0.1-0.3C85.7,79.2,85.7,79.5,85.9,79.4z M85.4,79.8c0.2,0,0.2-0.3-0.1-0.3C85.2,79.5,85.2,79.8,85.4,79.8z
					 M83.8,78.7C83.8,78.7,83.8,78.8,83.8,78.7L83.8,78.7L83.8,78.7L83.8,78.7L83.8,78.7c0.2,0.1,0.2,0.1,0.3,0.1
					c0.1,0,0.1-0.1,0.1-0.2c0-0.1-0.1-0.1-0.1-0.2l0,0c0,0,0,0-0.1,0l0,0c0,0,0,0-0.1,0l0,0l0,0C83.8,78.6,83.8,78.6,83.8,78.7z
					 M83.4,79.1L83.4,79.1c0.1,0.1,0.1,0.1,0.3,0.1c0.2,0,0.2-0.3,0-0.3c0,0,0,0-0.1,0c0-0.1-0.1-0.2-0.2-0.2
					C83.2,78.8,83.2,79.1,83.4,79.1z M81.5,78.5c0.2,0.1,0.3,0.2,0.4,0.3l0,0l0,0l0,0l0,0H82c0.1,0,0.1-0.1,0.1-0.2
					c0,0,0-0.1-0.1-0.1c-0.1-0.1-0.1-0.1-0.2,0c-0.2-0.1-0.3-0.1-0.4-0.2C81.4,78.2,81.4,78.5,81.5,78.5z M80.8,77.8L80.8,77.8
					c0.2,0,0.2,0,0.2-0.1h0.1c0.1-0.1,0.1-0.2,0-0.2H81c0,0-0.1-0.1-0.2,0c0,0-0.1,0-0.1,0.1C80.6,77.6,80.6,77.8,80.8,77.8z
					 M80.5,78.7c0,0.1,0.1,0.2,0.2,0.3c0.2,0.1,0.3-0.1,0.2-0.2c0.1,0,0.1-0.1,0.2-0.1c0.1-0.2-0.1-0.3-0.2-0.2h-0.1
					c-0.1,0-0.1,0.1-0.1,0.2l0,0l0,0C80.5,78.6,80.5,78.6,80.5,78.7z M79.4,78.3c-0.1,0.1,0,0.2,0.1,0.2h0.1c0.1,0,0.1,0,0.2-0.1
					v-0.1c0.1-0.1,0-0.3-0.2-0.3C79.5,78.2,79.5,78.2,79.4,78.3L79.4,78.3z M78.4,77.8c0,0.1,0,0.1,0,0.2c0,0.3,0.3,0.2,0.3,0
					c0-0.1,0-0.1-0.1-0.2C78.5,77.7,78.5,77.7,78.4,77.8z M77.6,77.6L77.6,77.6c0.3-0.1,0.2-0.3,0-0.3h-0.1
					C77.4,77.3,77.4,77.7,77.6,77.6z M76.5,77.3c0.1,0,0.1,0.1,0.2,0.1c0.2,0,0.2-0.3,0-0.3c-0.1,0-0.1,0-0.2,0
					C76.5,77.2,76.4,77.3,76.5,77.3z M75.5,76.8c0.1,0,0.2-0.1,0.3-0.1c0.2,0,0.1-0.3,0-0.3c-0.2,0-0.3,0.1-0.4,0.2
					c0,0-0.1,0.1,0,0.1l0,0C75.2,77.1,75.5,77.1,75.5,76.8z M79.1,77.3c0.1,0.1,0.2,0.1,0.3,0.1c0.2,0.1,0.3-0.1,0.1-0.2
					c-0.1-0.1-0.2-0.1-0.3-0.2C79,77,79,77.2,79.1,77.3z M84.8,78.8C84.9,78.8,84.9,78.8,84.8,78.8c0.2-0.1,0.1-0.2,0.1-0.2h-0.1
					C84.7,78.6,84.8,78.8,84.8,78.8z M91.8,79.3c0.1,0,0.1,0,0.2-0.1c0.1,0,0.1-0.2,0-0.2c-0.1,0-0.1,0-0.2,0
					C91.6,79,91.7,79.3,91.8,79.3z M99.9,80.6c0.1,0,0.2-0.1,0.3-0.1c0.1,0,0-0.2,0-0.2c-0.1,0-0.2,0-0.3,0
					C99.7,80.4,99.7,80.6,99.9,80.6z M105.5,80.4c0.2,0,0.3-0.1,0.3-0.2c0-0.1-0.1-0.1-0.1-0.1c-0.1,0.1-0.2,0.1-0.3,0.1
					C105.3,80.3,105.3,80.4,105.5,80.4z M108.9,80.2C108.8,80.2,108.8,80.2,108.9,80.2c-0.3-0.1-0.3,0.4,0,0.3h0.1
					C109,80.4,109,80.2,108.9,80.2z M111.3,80.1c0.1,0,0.2,0,0.3,0c0.1,0,0.1-0.1,0.1-0.2c-0.1-0.1-0.2-0.1-0.3-0.1
					C111.1,79.8,111.2,80.1,111.3,80.1z M115.2,79.5c-0.1,0.1,0.1,0.3,0.2,0.2c0.1-0.1,0.2-0.2,0.1-0.3
					C115.5,79.3,115.4,79.3,115.2,79.5C115.3,79.4,115.2,79.4,115.2,79.5z M117.6,78.8c0.1-0.1,0.2-0.2,0.3-0.3
					c0-0.1-0.1-0.1-0.1-0.1c-0.1,0-0.2,0.2-0.2,0.2C117.4,78.8,117.5,78.9,117.6,78.8z M118.7,78.8c0,0.1,0.2,0.1,0.2,0l0,0
					c0.1,0,0.1-0.1,0.1-0.2c0.1-0.2,0.2-0.4,0.3-0.6c0-0.1-0.1-0.1-0.1-0.1l0,0l0,0c0,0,0,0-0.1,0l0,0l0,0c0,0.3-0.2,0.4-0.2,0.6
					C118.7,78.7,118.7,78.8,118.7,78.8z M120,78L120,78C120.1,78,120,78,120,78z M122.1,76.9c-0.1,0.1,0.1,0.2,0.2,0.1l0.1-0.1
					C122.4,76.8,122.3,76.7,122.1,76.9C122.2,76.8,122.2,76.9,122.1,76.9z M123.1,75.9C123.2,75.9,123.2,75.8,123.1,75.9
					C123.1,75.7,123.1,75.9,123.1,75.9z M123.9,74.7C124,74.7,124,74.7,123.9,74.7c0.2,0.2,0.3,0,0.2,0
					C124.1,74.6,124,74.6,123.9,74.7C124,74.6,123.9,74.6,123.9,74.7z M124.2,73.6L124.2,73.6C124.2,73.8,124.3,73.8,124.2,73.6
					L124.2,73.6C124.2,73.5,124.2,73.5,124.2,73.6z M124.9,72.8c0.1,0,0.1-0.1,0.1-0.2c0-0.1-0.1-0.1-0.1,0l0,0
					C124.7,72.7,124.8,72.9,124.9,72.8z M125.3,71.9L125.3,71.9c0.1,0.1,0.2,0.1,0.2,0H125.3C125.3,71.8,125.2,71.9,125.3,71.9z
					 M125.7,71C125.7,71,125.7,71.1,125.7,71c0.2,0.2,0.3,0,0.2,0C125.8,71,125.8,71,125.7,71C125.7,70.9,125.6,71,125.7,71z
					 M126.1,69.8c0.1,0,0.1-0.2,0-0.2S126,69.8,126.1,69.8z M126.5,68.7c-0.1,0.2,0.3,0.1,0.2,0c0,0,0,0,0-0.1
					C126.6,68.7,126.5,68.7,126.5,68.7L126.5,68.7z M126.6,67.6C126.5,67.7,126.7,67.8,126.6,67.6c0.1,0,0.2-0.1,0.2-0.1
					C126.8,67.5,126.7,67.5,126.6,67.6L126.6,67.6z M127.3,66.4c0.1,0,0.1-0.1,0.1-0.2s-0.1-0.1-0.1,0l0,0
					C127.1,66.2,127.2,66.4,127.3,66.4z M127,64.1L127,64.1c-0.1-0.1-0.2-0.2-0.2-0.1C126.9,64.1,126.9,64.2,127,64.1
					C127,64.3,127.1,64.2,127,64.1z M126.4,64C126.4,64,126.4,63.9,126.4,64C126.6,64,126.6,63.9,126.4,64L126.4,64
					C126.3,63.9,126.3,64,126.4,64z M125.8,65.1L125.8,65.1C125.8,65.3,125.9,65.2,125.8,65.1L125.8,65.1
					C125.9,65,125.8,65,125.8,65.1z M124.7,66.5C124.7,66.5,124.8,66.5,124.7,66.5c0.1,0.1,0.2,0,0.2,0
					C124.8,66.5,124.8,66.5,124.7,66.5C124.7,66.5,124.7,66.5,124.7,66.5z M123.7,68.2c0.1,0.1,0.1,0.2,0.3,0.3
					c0.1,0,0.1-0.1,0.1-0.1c-0.1-0.1-0.1-0.1-0.2-0.2C123.7,68.1,123.6,68.1,123.7,68.2z M123.1,71c0.1,0,0.1-0.2,0-0.2
					S123.1,71,123.1,71z M122.6,70.7c0.1,0.1,0.2,0.2,0.3,0.2c0.1,0,0.1-0.1,0-0.1C122.7,70.8,122.7,70.7,122.6,70.7
					C122.7,70.5,122.6,70.6,122.6,70.7z M124.1,69c0,0.1,0,0.1,0.1,0.2c0.1,0.1,0.3-0.1,0.1-0.2H124.1
					C124.2,68.8,124.1,68.9,124.1,69z M123.1,69.3c0.1,0.1,0.2,0.1,0.2,0.2c0,0.1,0.2,0,0.1-0.1c0-0.1-0.1-0.2-0.2-0.3
					C123.1,69.2,123,69.2,123.1,69.3z M122.7,71.8c0.1,0,0.1-0.2,0-0.2S122.6,71.8,122.7,71.8z M120.8,74L120.8,74
					c0.1,0,0.1,0.1,0.2,0.1c0.1,0,0.1-0.1,0-0.1C121,74,120.9,74,120.8,74c0.1-0.2,0-0.3-0.1-0.3C120.5,73.8,120.6,74,120.8,74z
					 M117.8,76.1C117.8,76.1,117.8,76.2,117.8,76.1C117.8,76.2,117.8,76.1,117.8,76.1z M122.6,74.4c0.2,0,0.1-0.3,0-0.3
					C122.3,74.1,122.4,74.4,122.6,74.4z M118.4,76.1c0.3-0.1,0.3-0.5-0.1-0.4C118,75.7,118.1,76.2,118.4,76.1z M116.3,76.6
					C116.4,76.6,116.4,76.6,116.3,76.6c0.2-0.1,0.2-0.2,0.1-0.2h-0.1C116.2,76.4,116.2,76.6,116.3,76.6z M115.4,76.9
					c-0.2,0-0.1,0.3,0,0.3C115.7,77.2,115.6,76.9,115.4,76.9z M113.2,78.2c0.2,0,0.3,0,0.4-0.1c0.2-0.1,0-0.3-0.2-0.2
					C113.4,78,113.2,78,113.2,78.2C113.1,78.1,113.1,78.2,113.2,78.2z M110.7,77.8c0,0.1,0.1,0.1,0.1,0.2c0.2,0.2,0.3-0.2,0.2-0.3
					c-0.1,0-0.1-0.1-0.2-0.1C110.8,77.7,110.7,77.7,110.7,77.8z M109,77.7c-0.1,0.1,0,0.3,0.1,0.2c0.1,0,0.2-0.1,0.2-0.2
					C109.3,77.5,109,77.5,109,77.7z M108.1,79.5c-0.1,0-0.1,0.1-0.2,0.2c-0.1,0.1,0,0.2,0.1,0.2c0.1,0,0.1-0.1,0.2-0.1
					C108.3,79.7,108.2,79.4,108.1,79.5z M104.6,78.5c-0.1,0.1,0,0.1,0,0.2h0.1C105,78.7,104.9,78.3,104.6,78.5
					C104.7,78.4,104.6,78.5,104.6,78.5z M102.6,78.9c0.2,0,0.2-0.3-0.1-0.3C102.4,78.7,102.4,79,102.6,78.9z M100,78.4
					c-0.1-0.1-0.2-0.1-0.3-0.1c-0.1-0.1-0.2,0.1-0.1,0.2c0.1,0.1,0.1,0.1,0.2,0.2C100,78.8,100.2,78.5,100,78.4z M97.6,78.3
					c0.1,0,0.2,0,0.3,0c0.2,0,0.2-0.3,0-0.3c-0.1,0-0.2,0-0.3,0.1C97.5,78.2,97.5,78.3,97.6,78.3z M94.5,77.7c-0.2,0-0.2,0.3,0,0.3
					C94.7,77.9,94.7,77.7,94.5,77.7z M95,79.1c0-0.1,0-0.2-0.1-0.3c-0.1-0.2-0.3-0.1-0.3,0.1c0.1,0.1,0.1,0.2,0.2,0.3
					C94.9,79.2,95,79.2,95,79.1z M96.5,79c-0.2,0.3,0.4,0.2,0.3,0c0,0,0,0-0.1-0.1C96.6,78.9,96.5,78.9,96.5,79L96.5,79z M97.6,79.2
					C97.6,79.2,97.6,79.1,97.6,79.2l0.1-0.2c0-0.1-0.1-0.1-0.2-0.1C97.3,78.8,97.4,79.3,97.6,79.2z M92.6,77.9
					c0.2,0,0.2-0.2,0.1-0.3l0,0c0,0-0.1,0-0.2,0c0,0,0,0,0,0.1C92.3,77.7,92.4,77.9,92.6,77.9z M91.8,77.5c0.2-0.2-0.1-0.3-0.2-0.2
					c0,0,0,0.1-0.1,0.1C91.4,77.5,91.6,77.6,91.8,77.5C91.7,77.5,91.8,77.5,91.8,77.5z M90.7,78.8C90.7,78.8,90.7,78.8,90.7,78.8
					c0.3-0.2,0.2-0.4,0-0.3c-0.1,0-0.2,0.1-0.2,0.2C90.5,78.8,90.6,78.8,90.7,78.8z M88.6,77.9c0.1,0.1,0.1,0.2,0.2,0.3
					c0.2,0.2,0.3-0.1,0.2-0.2c-0.1-0.1-0.1-0.2-0.2-0.2C88.6,77.7,88.6,77.8,88.6,77.9z M86.9,77.4c-0.2,0-0.2,0.3,0.1,0.3
					C87.1,77.7,87.1,77.3,86.9,77.4z M85.4,77.5c0.2,0,0.1-0.3,0-0.3C85.2,77.2,85.2,77.5,85.4,77.5z M83.6,77.7
					C83.6,77.7,83.5,77.7,83.6,77.7c-0.1-0.2-0.2-0.2-0.3-0.2c-0.2,0-0.2,0.3,0,0.3c0.1,0,0.1,0.1,0.2,0.1
					C83.5,78,83.6,77.8,83.6,77.7z M80.8,77.1c0-0.1,0-0.2,0-0.2c-0.1,0-0.1,0-0.2,0c-0.2,0-0.2,0.3,0,0.3
					C80.7,77.2,80.7,77.2,80.8,77.1z M77,76.6c0.2,0,0.2-0.3-0.1-0.3C76.8,76.3,76.9,76.6,77,76.6z M75.3,75.8c-0.2,0-0.2,0.3,0,0.3
					C75.6,76.1,75.5,75.8,75.3,75.8z"/>
			</g>
			<path class="st4" d="M75.8,65.7c2.1-3.5,6.8-5.6,10.4-7.3c4.2-1.9,8.8-3.1,13.4-3.9c6.6-1,16.2-1.6,21.1,3.7
				c0.4,0.4-0.2,0.9-0.6,0.6c-5.4-4.4-14.6-2-20.8-0.9c-4,0.7-7.7,2-11.4,3.6c-3.7,1.6-6.6,4.4-10.2,6.1
				C76.5,68.2,75.2,67,75.8,65.7z"/>
			<path class="st0" d="M34.6,80.5c0.7,2.9,4.5,3.3,6.6,2.4c1.8-0.8,2.9-2.2,4.4-3.4c2.4-1.9,4.8-2.1,7.7-2.6
				c2.7-0.5,5.5-0.7,8.2-1.3c1.8-0.4,3.5-0.9,5.2-1c0.1,0.1,0.3,0.2,0.4,0.1c0.3-0.1,0.8-0.1,1.1-0.2c0.1,0,0.2,0,0.3,0
				c0.1,0.2,0.2,0.3,0.4,0.3c2.6,0.2,4.3,2.4,6.7,3.2c2,0.7,4.1,1.1,6.2,1.4C87,80.2,92,81.3,97.1,82c8.6,1.1,18.2,0.9,25.3-4.5
				c0.2,0.1,0.3,0,0.4-0.1c2.8-2.3,4.8-6.6,5.3-10.1c0.3-2.4-0.1-4.7-0.9-6.8c0.1-0.1,0.1-0.3,0-0.5c-0.3-0.5-0.6-1-0.9-1.5
				c-0.4-0.7-0.8-1.4-1.3-2.1c-0.2-0.3-0.5-0.3-0.7-0.1c-6.1-5.8-16.5-6-24.4-4.8c-7,1-13.8,2.9-19.9,6.6c-3.8,2.2-7.4,5.2-8.8,9.3
				c-1.1,0.3-2.2,0.6-3.3,0.6c-0.3,0-0.4,0.3-0.5,0.4c-5.3,0.3-10.4,2.2-15.7,2.2c-2.8,0-5.6,0-8.3-0.6c-1.7-0.4-3.3-1.1-5-1.3
				c-2.4-0.4-5.3,1.3-4.8,4c0.3,1.9,1.8,3.1,3.5,3.6C35.3,77,34.1,78.5,34.6,80.5z M39.1,76.9c0.4,0,0.5-0.3,0.4-0.7
				c0.2-0.3,0-0.7-0.3-0.7c-1.6,0.2-3.5-0.4-4.3-1.9c-1.3-2.7,1.3-4.6,3.9-4c2.5,0.6,5,1.5,7.6,1.7c3.5,0.3,7.1,0.3,10.6-0.3
				c3.5-0.4,7.2-1.6,10.7-1.8c0.2,0,0.3-0.2,0.4-0.3c0.5,0.4,0.9,0.9,1.4,1.3c0.4,0.4,1.1-0.2,0.7-0.7c-0.3-0.3-0.7-0.7-1-1
				c0.7-0.1,1.3-0.3,1.9-0.4C71,68.5,71,68.7,70.9,69c-0.1,0.6,0.8,0.8,0.9,0.3c1-5.4,5.7-9,10.3-11.4c5.4-2.9,11.4-4.6,17.3-5.6
				c8.7-1.3,20.6-1.3,26.3,6.6c1.3,2.3,2.1,4.8,1.7,7.5c-0.5,3.4-2,7.2-4.6,9.7c-0.2,0-0.3,0-0.4,0.1c-8.1,6.7-19.8,5.9-29.5,4.1
				c-4.7-0.8-9.5-1.3-14.1-2.4c-2.2-0.5-4-1.3-5.9-2.5c-0.7-0.4-1.3-0.8-1.9-1c0.2-0.3,0-0.7-0.3-0.8c-0.6-0.1-1.2-0.1-1.8-0.1
				c0,0,0,0,0.1,0c0.3-0.2,0.3-0.5,0.1-0.8c-0.3-0.3-0.8-0.6-1.1-0.9c0.9-0.1,1.8-0.3,2.7-0.7c0.5-0.3,0.1-1-0.4-0.8
				c-1,0.4-2.1,0.7-3.3,0.7c-0.4,0-0.7,0.5-0.3,0.8c0.4,0.4,0.8,0.8,1.3,1.2c-0.3,0.2-0.5,0.3-0.8,0.6c-2.6,0.2-5.1,1.1-7.7,1.3
				c-1.8,0.2-3.5,0.5-5.3,0.8c-1.8,0.3-3.8,0.4-5.6,1c-1,0.4-2,0.8-2.9,1.6c-1.2,1-2.3,2.4-3.7,3.1c-1.5,0.8-4,1.4-5.5-0.1
				C34.2,79.3,36.3,76.7,39.1,76.9z"/>
		</g>
	</g>
</g>
</svg>
