<?xml version="1.0" encoding="utf-8"?>
<!-- Generator: Adobe Illustrator 21.0.2, SVG Export Plug-In . SVG Version: 6.00 Build 0)  -->
<svg version="1.1" id="master-artboard" xmlns="http://www.w3.org/2000/svg" xmlns:xlink="http://www.w3.org/1999/xlink" x="0px"
	 y="0px" viewBox="0 0 103.1 150" style="enable-background:new 0 0 103.1 150;" xml:space="preserve">
<style type="text/css">
	.st0{fill:none;}
	.st1{fill:#FFCD83;}
	.st2{fill:#EB6F24;}
	.st3{fill:#F6F7F8;}
	.st4{fill:#55707A;}
	.st5{fill:#0676BC;}
	.st6{fill:#F5BBCF;}
</style>
<path class="st0" d="M56.4,25.2c0.1,0,0.1,0,0.2,0c-0.3-0.1-0.5-0.3-0.8-0.4C56,24.9,56.2,25.1,56.4,25.2z"/>
<path class="st0" d="M48.4,28.1c-1.9-3.2-3.5-6.6-4.1-10.2c-0.1-0.2-0.2-0.5-0.3-0.7c0.1,0.5,0.2,1.1,0.4,1.6c0.2,0.6-0.8,0.9-1,0.3
	c-0.2-0.7-0.4-1.4-0.5-2.2c-1.8,2.5-4.6,4.2-7.9,4.3c2,0.3,4,0.3,6,0.1c0.6-0.1,0.6,0.9,0,1c-3.2,0.3-6.6,0.2-9.6-0.9
	c0,0.1-0.1,0.2-0.1,0.3c0.1,4,0.9,7.9,2.6,11.5c1,2,2.6,3.9,3.6,6c1.3,0.2,2.8-0.4,4-0.7c1.3-0.3,2.6-0.6,3.9-0.8
	c1.4-0.3,2.7-0.6,4-0.9c0.9-0.6,1.7-1.4,2.7-2c0.1,0,0.1-0.1,0.2-0.1c-1.3-0.3-2.5-0.8-3.7-1.8c-0.5-0.4,0.2-1.1,0.7-0.7
	c1.1,0.8,2.2,1.4,3.4,1.6C50.8,32.6,49.6,30.1,48.4,28.1z"/>
<path class="st1" d="M43.4,99.1c2-2.4,4.3-4.5,6.6-6.6c1.4-1.3,2.7-2.6,4.1-3.9c-3-2.2-6-4.5-8.9-7v0c-3.7,4.8-7.8,9.3-11.2,14.4
	c-0.8,1.3-1.6,2.6-2.3,4c-0.8,1.4-2.3,2-3.1,3.3c-1.3,1.9-1.5,4.5-1.7,6.9c-1,3.4-2.1,6.8-2.7,10.2c-0.6,3.4-0.9,6.8-1.4,10.2
	c2.1,1.3,4.5,2.2,6.9,1.7c0.4-1.6,0.9-3.2,1.7-4.7c1.2-2.4,3.6-4,4.6-6.4c1-2.5,0.9-5.2,1.4-7.9c0.5-2.8,2.4-4.9,4.4-6.8
	C41.3,103.8,41.7,101.2,43.4,99.1z M31.6,108.7c-0.6,0.7-1.3,1.3-2.2,1.6c-0.6,0.2-0.9-0.8-0.3-1c0.7-0.2,1.3-0.8,1.7-1.3
	C31.4,107.6,32.1,108.3,31.6,108.7z M33.6,108.2c-1.6-0.4-2.8-1.6-3.1-3.2c-0.2-0.6,0.8-0.9,1-0.3c0.3,1.2,1.2,2.2,2.4,2.5
	C34.5,107.3,34.3,108.3,33.6,108.2z"/>
<path class="st2" d="M74.6,7.6c0.6,1.5,1,2.5,1.3,4.1c0.4,0.1,0.8,0.3,1.2,0.4c0.8,0.2,1.6,0.1,2.4,0c1.4-0.2,2.8-0.5,3.9-1.5
	c0.4-0.3,0-1-0.5-0.8C81.9,10,81,10,80.1,9.9c3.3-1,5-4.1,6.2-7.5c0.2-0.5-0.5-0.8-0.8-0.5c-1.2,1.3-2.7,1.9-4.5,2
	c-1.6,0-3-1.1-4.6-1.3c-1.9-0.2-3.6,0.4-4.7,1.8c0.5,0.3,1,0.5,1.4,0.9C73.9,5.9,74.2,6.6,74.6,7.6z"/>
<path class="st3" d="M22,131.2c-0.3,0.3-0.4,0.8-0.5,1.4c-0.2,0.8-0.4,1.7-0.7,2.5c0.1,0.2,0.1,0.5,0,0.8c-0.3,1.3-1.2,2.6,0.3,3.6
	c0.9,0.5,1.9,1,3,1c1.2-0.1,2.3-0.5,3.1-1.5c0.4-0.5,0.8-1.2,1.3-1.6c0.3-0.2,0.6-0.5,0.9-0.6c0.2-0.5,0.3-1,0.5-1.6
	c0.2-0.7,0.1-1.3-0.3-1.8C27,133.7,24.4,132.7,22,131.2z"/>
<path class="st1" d="M62.5,24.4c2.1-0.2,4.1-1.6,6-2.5c1.3-0.6,2.7-1.2,4-1.4c0-0.1,0-0.1,0-0.2c0.8-0.5,1.6-1.4,1.8-2.3
	c0-0.3,0-0.5-0.1-0.8c-0.9-0.1-1.8-0.2-2.7-0.3c-0.1,0.3-0.6,0.5-0.8,0.2c-1-1.2-1-2.1-1-3.6c0-1.2-0.8-1.6-1.3-2.5
	c-0.2-0.4-0.2-1-0.2-1.5c0-1.6-5.2-1-6.1-0.8c-1.4,0.3-2.7,0.7-4,1.4c-0.3,1-0.5,2.1-0.5,3.1c0,0.6,0.3,1.3,0.6,1.8
	c0,0.7-0.3,1.4-0.3,2.2c-0.1,1.2,0.3,2.2,0.6,3.3c0.4,1.3,0.6,2.6,1,3.9c0,0,0,0,0.1,0C60.5,24.3,61.5,24.5,62.5,24.4z"/>
<path class="st2" d="M67.4,7.7c0.4,0.1,1.4,0.2,1.7,0.6c0.5,0.8-0.2,1.8,0.6,2.6c0.5,0.6,0.9,0.9,1,1.7c0.1,0.4,0,0.8-0.1,1.3
	c0,0.6,0.1,1.2,0.4,1.7c0.8-1,2.1-1.2,3.2-0.3c0.2-0.7,0.4-1.5,0.6-2.3c0-0.7-0.1-1.3-0.1-2.1c-0.1-1.3-0.6-2.1-1.1-3.2
	c-0.6-1.6-2-2.2-3.2-3c-0.3-0.1-0.5-0.2-0.8-0.3c-4.2-1.3-10.2-0.7-11.3,4.4C61.1,7.5,64.3,7,67.4,7.7z"/>
<path class="st1" d="M69.6,87.1C69.6,87,69.5,87,69.6,87.1c-3.4-1.6-6.9-3.9-10.6-2.3c-0.1,0-0.1,0-0.2,0c-0.5,0.4-0.9,0.9-1.2,1.5
	c0,0.1,0,0.1-0.1,0.1c0,0.1-0.1,0.2-0.2,0.3c-3.9,3.6-7.7,7.2-11.4,11c-1.9,1.9-3.5,3.9-3.5,6.7c0,1.6,0.3,3.1,0.8,4.6
	c0.1,0.1,0.2,0.2,0.2,0.3c1.3,1.5,3.1,2.2,5,2.6c3.1,2,6.9,2.1,10.4,3.3c1.4,0.1,2.8,0.3,3.9-0.8c1.5-1.6,2-3.8,0.7-5.4
	c-1.4-0.6-2.6-1.4-3.7-2.5c-0.7-0.7-1.3-1.4-2.1-2c-1.9,0.7-3.6,1.7-5.3,2.7c-0.5,0.3-1.1-0.5-0.5-0.9c1.7-1,3.4-2,5.2-2.7
	c0.6-0.2,1.2-0.4,1.8-0.6c3.2-1.6,6.3-3.4,9.4-5.1c2.4-1.4,4.6-2.9,6.8-4.6c-0.5-1.1-1.1-2.1-1.9-2.9C72.1,89.3,70.8,88.2,69.6,87.1
	z M47.2,109.3c0,0.6-1,0.6-1,0c0.1-1.2-0.1-2.3-0.4-3.4c-0.2-0.6,0.8-0.9,1-0.3C47.1,106.9,47.3,108.1,47.2,109.3z"/>
<path class="st4" d="M68.3,112c0.6,1.4,1.3,3.3,0.8,4.9c-0.4,1.4-2.1,1.5-3.2,1.4c-0.9,0-1.2-0.3-2-0.7c-1-0.5-2-0.8-3.2-0.9
	c-0.2,0-0.3-0.1-0.4-0.3c-0.1,0-0.3,0-0.4,0c-0.2,0.4-0.3,0.8-0.2,1.4c0,0.4,0.2,0.8,0.3,1.2c0.3,1,0.1,1.7-0.5,2.6
	c-0.5,0.8-1.1,1.6-1.5,2.5c-0.6,1.6-1.6,3.9-1.5,5.8c0.7,1.1,1.6,2,2.9,2.2c1.9,0.3,3.5-0.8,4.9-1.9c0.7-0.6,2.8-1.7,3-2.7
	c0.3-1.4,0.2-2.7,0.3-4.1c0.3-2.3,1.2-3.6,2.7-5.2c1-1.1,2.2-2.8,2.5-4.3c0.3-1.3-0.3-3.1-1.3-4.2c-1.6-0.6-3.5-0.7-5.2-0.4
	c0.2,0.2,0.4,0.4,0.6,0.7C67.4,110.5,67.9,111.2,68.3,112z"/>
<path class="st5" d="M96.8,81.2c-1.6-1.1-2.8-2.6-4.2-4c-1.6-1.6-3.1-3.1-4.5-4.9c-0.9-1.2-1.9-1.9-3.2-2.5
	c-1.9-0.8-3.6-1.9-5.2-3.2c-0.1-0.1-0.1-0.1-0.2-0.1c0-0.2,0-0.3-0.1-0.5c-0.1-0.5-0.3-1-0.4-1.5c-0.2-0.7,0.1-1.7,0-2.4
	c-0.1-1.2-0.4-2.4-0.4-3.6c0-1.7,0.3-3.5,0.5-5.1c0.4-2.8,0.8-5.7,1.3-8.6c0.4-2.8,1.4-5.5,1.8-8.3c0.6-3.3-0.3-6.7-1.9-9.6
	c0.2,1.2,0.4,2.4,0.7,3.6c0.3,1.9,0.1,3.7-1.3,5.1c-1.5,1.5-3.8,0.6-5.5-0.1c-1.7-0.6-3.2-1.5-3.8-3.2c-0.1,0-0.1,0-0.2,0
	c0.1,2.4,2.6,4.9,4.9,5.1c0.6,0,0.6,1,0,1c-2.9-0.2-5.7-2.9-6-5.8c-0.7,0.2-1.5,0.5-2.3,0.7c-2.2,0.7-4.4,0.9-6.7,1
	c-1.3,0.1-2.5,0.2-3.7,0.3c-0.9,1.4-1.9,3.1-1.6,4.7c0-0.1,0-0.2,0-0.3c0.2-1,0.5-2,1-2.8c0.3-0.5,1.2,0,0.9,0.5
	C56,38.7,56,41,55.1,43c-0.5,1.1-1.1,2-1.7,3c-0.1,0.8-0.3,1.6,0,2.2c0.4,1,1.2,1.5,2.1,2c0.3,0.2,0.6,0.4,0.8,0.6
	c0.1,1.1,0.2,2.2,0.6,3.1c0.3,0.7-0.7,1.1-1,1.6c-0.2,0.4-0.1,0.9,0,1.3c0.3,1,0.5,1.6-0.1,2.5c-0.2,0.3-0.3,0.8-0.3,1.2
	c0.2,1.2,0.5,2.2,0.4,3.4c0,0.5-0.1,1.1-0.2,1.7c-0.4,0.4-0.6,1-0.9,1.4c-0.5,0.9-1,1.8-1.4,2.7c-0.4,0.1-0.8,0.2-1.3,0.3
	c-0.5,0.1-1.1,0.4-1.4,0.8c-0.5,0.8-0.6,1.9-0.6,2.9c-1.7,1.3-3,3-4,5c-0.2,0.4-0.5,1-0.8,1.6c3,2.6,6.2,5,9.3,7.3
	c0.6-0.6,1.2-1.1,1.8-1.7v0c0.3-0.8,0.8-1.3,1.4-1.8c0.2-0.2,0.4-0.4,0.5-0.6c-0.5-0.6-0.6-1.3-1-1.9c-0.5-0.7-1-1.5-1.7-2.1
	c-1.2-1.3-2.7-2-3.8-3.3c-0.4-0.5,0.3-1.2,0.7-0.7c1.1,1.3,2.7,2,3.8,3.3c0.5,0.6,1.1,1.2,1.6,1.9c0.4,0.6,0.6,1.5,1.1,2.1
	c0.3-0.3,0.7-0.6,1.1-0.8c0.7-0.4,1-0.7,1.4-1.5c0.1-0.2,0.2-0.3,0.3-0.5c0.6-0.6,1.6-0.6,2.4-0.7c0.6-0.1,0.9,0.9,0.3,1
	c-1,0.1-1.8,0.2-2.2,1.3c-0.2,0.4-0.4,0.8-0.9,1c-0.4,0.2-0.8,0.5-1.2,0.8c2.4-0.4,4.9,0.5,7.2,1.6c3.4,1.6,7.9,3.9,11.6,1.8
	c1.1-0.6,2-1.4,3.4-1c1.9,0.6,2.7-1.1,4.4-1.3c0.9-0.1,2,0.1,2.8-0.2c0.8-0.2,1.6-0.6,2.3-1.1c1-0.7,2.1-1.4,3.3-1.6
	c0.6-0.1,0.9,0.9,0.3,1C94,82.8,93,84,91.5,84.7c-1.2,0.6-2.2,0.6-3.5,0.6c-1.3,0-1.8,0.6-2.7,1.2c-0.5,0.3-0.9,0.5-1.5,0.5
	c-1,0.1-1.7-0.9-2.8-0.2c-0.5,0.3-1.1,0.7-1.7,1c-2.2,1-4.7,0.8-7,0.1c0.9,0.8,1.9,1.7,2.6,2.7c0.5,0.7,0.9,1.5,1.3,2.3
	c1.4,0.2,2.9,0.3,4.2,0c2.3-0.5,4.3-2.1,6.2-3.4c2-1.4,3.8-3,5.8-4.4c1.6-1.2,3.6-1.6,4.8-3.3C97.2,81.7,97,81.4,96.8,81.2z
	 M78.1,37.9c1-0.5,1.8-1.3,2.4-2.2c0.3-0.5,1.2,0,0.9,0.5c-0.7,1.1-1.7,2-2.8,2.6C78,39.1,77.5,38.2,78.1,37.9z M70.1,37.2
	c1.9,2.3,4.3,4.1,7.4,4c0.6,0,0.6,1,0,1c-3.4,0.1-6.1-1.8-8.2-4.3C69,37.4,69.7,36.7,70.1,37.2z M74.7,63c-5,0.3-9.8,3.1-14.8,1.2
	c-0.6-0.2-0.3-1.2,0.3-1c4.8,1.8,9.7-1,14.6-1.3C75.3,61.9,75.3,62.9,74.7,63z M74.1,69.6c-1.9-0.5-4.4-1.4-6.4-0.8
	c-0.6,0.2-0.9-0.8-0.3-1c2.2-0.6,4.9,0.2,7,0.8C75,68.8,74.7,69.8,74.1,69.6z M73.6,48.4C73,48,72.5,47.5,72,47
	c-0.5-0.5,0.3-1.2,0.7-0.7c0.5,0.5,1,1,1.7,1.4c0.7,0.4,1.5,0.7,2.2,1c0.6,0.3,0.1,1.2-0.5,0.9C75.2,49.2,74.4,48.9,73.6,48.4z
	 M57.8,57.2c3.1-1.1,6.3-1.4,9.5-0.8c0.6,0.1,0.4,1.1-0.3,1c-3-0.5-6-0.2-8.9,0.8C57.4,58.4,57.1,57.4,57.8,57.2z M57.7,55.7
	c0.7-0.6,1.7-0.9,2.6-0.9c0.6,0,0.6,1,0,1c-0.8,0-1.5,0.3-2.1,0.8C57.7,57,57.2,56.1,57.7,55.7z M64.4,41.6c0-0.6,1-0.6,1,0
	c0.2,5.2,6.8,6.8,8.7,11.3c0.2,0.6-0.6,1.1-0.9,0.5C71.2,48.7,64.6,47.3,64.4,41.6z M58.6,39c3.8-0.7,6.5-3.8,10.5-3.5
	c0.6,0.1,0.6,1.1,0,1c-3.9-0.3-6.5,2.8-10.2,3.5C58.2,40.1,58,39.1,58.6,39z M56.3,47.4c-0.7-0.3-1.4-0.6-1.8-1.3
	c-0.4-0.5,0.5-1,0.9-0.5c0.5,0.8,2,1.1,2.8,1.7c0.6,0.4,1.2,0.9,1.7,1.5c1.5,1.6,2.7,3.5,4.2,5.2c0-0.4-0.1-0.8-0.4-1.2
	c-0.1-0.2-0.2-0.3-0.3-0.5c-0.4-0.6-0.9-1.3-1.4-1.9c-0.5-0.7-1.1-1.4-1.6-2.1c-1.1-1.6-2-3.2-2.3-5.1c-0.1-0.6,0.8-0.9,1-0.3
	c0.6,3.3,2.9,5.6,4.8,8.3c0.6,0.8,2.4,3.4,0.8,4.2c-0.7,0.3-1.4-0.8-1.7-1.2c-1-1.3-1.9-2.7-3-3.9C58.8,49.1,57.7,48,56.3,47.4z
	 M56.8,59.5c2.9,1.6,5.8,2.6,9.1,1.8c2.9-0.7,5.7-1.8,8.2-3.4c0.6-0.3,1.1,0.5,0.5,0.9c-3,1.8-6.2,3.1-9.7,3.7
	c-3.1,0.5-6-0.7-8.7-2.1C55.7,60,56.2,59.2,56.8,59.5z M56.3,68.4c3,0.7,5.5-0.3,8.3-1.3c2.3-0.8,4.4-1.1,6.8-1.2c0.6,0,0.6,1,0,1
	c-1.7,0-3.4,0.1-5,0.6c-1.3,0.4-2.4,0.9-3.7,1.3c-2.2,0.8-4.4,1.1-6.7,0.5C55.5,69.2,55.7,68.2,56.3,68.4z M69.3,78.1
	c-3.1,0.2-5.9,0-8.5-1.7c-2.7-1.8-5.1-4.1-8.5-4.6c-0.6-0.1-0.4-1.1,0.3-1c2.8,0.4,5,2.2,7.3,3.8c1.3,0.9,2.7,1.9,4.2,2.2
	c1.7,0.4,3.4,0.3,5.1,0.2C70,77.1,70,78.1,69.3,78.1z M79,79.4c-3-1.8-6-3.1-9.4-3.7c-2.4-0.4-5.8-0.2-7.9-1.7
	c-0.5-0.4,0-1.3,0.5-0.9c1.4,1,3.5,1,5.1,1.2c1.5,0.2,2.9,0.4,4.4,0.7c2.9,0.7,5.3,2,7.9,3.5C80.1,78.9,79.6,79.7,79,79.4z
	 M71.2,73.6c0.9-0.3,2,0.1,3,0.2c0.6,0.1,0.4,1.1-0.3,1c-0.8-0.2-1.7-0.5-2.4-0.2C70.8,74.8,70.5,73.8,71.2,73.6z M87.2,77.6
	c0,0.2-0.2,0.3-0.3,0.3c-1,0.4-2.3,0.4-3.5,0.5c-0.5,0.1-1.2,0.3-1.6,0c-0.5-0.3-0.8-1-1.2-1.5c-0.7-0.9-1.5-1.7-2.4-2.4
	c-0.5-0.4,0-1.3,0.5-0.9c0.9,0.7,1.8,1.4,2.5,2.3c0.6,0.7,0.8,1.6,2,1.5c0.8-0.1,1.7-0.2,2.6-0.4c0.8,0,0.8-0.1,0.1-0.3
	c-0.4-0.3-0.7-0.6-1.2-0.9c-0.6-0.4-1.2-0.8-1.8-1.2c-1.4-0.7-2.9-1.3-4.4-1.7c-6.6-1.6-13.3-0.1-19.9-1c-0.6-0.1-0.4-1.1,0.3-1
	c6,0.9,12.2-0.5,18.3,0.7c2.3,0.5,4.7,1.2,6.8,2.4C84.9,74.8,87.4,76,87.2,77.6z"/>
<path class="st3" d="M65.1,109.7c0.5,1.4,0.4,3-0.5,4.3c-0.5,0.7-1.1,1.5-1.9,1.9c0.7,0.2,1.5,0.5,2.2,1c0.7,0.4,3.6,0.6,3.4-1.2
	c-0.1-0.8-0.3-1.7-0.5-2.4c-0.3-1-0.8-2.1-1.7-2.8C65.7,110.3,65.4,110.1,65.1,109.7z"/>
<path class="st3" d="M73.3,115.1c-0.7,1.7-1.9,3-3,4.4c-1.8,1.9-1.7,4.1-1.9,6.5c-0.2,2.1-0.9,2.6-2.5,3.9c-1.3,1.1-2.8,2.5-4.5,2.9
	c-1.7,0.4-3.1,0-4.2-0.8c0.2,0.3,0.6,0.6,1,0.8c1.2,0.7,2.8,0.4,4-0.1c1.9-0.9,3.9-2.1,5.6-3.5c2.4-2.1,1.7-5.7,2.7-8.4
	c0.9-0.7,1.6-1.7,2.2-2.7c0.8-1.4,2-3.5,1.7-5.2c-0.1-0.7-0.4-1.3-0.8-1.8C73.8,112.4,73.8,113.9,73.3,115.1z"/>
<path class="st1" d="M54.1,42.7c0-0.1,0-0.1,0-0.2c-0.1-1.9-0.7-3.7-1.9-5.2c-0.4-0.5,0.5-1,0.9-0.5c0.4,0.5,0.7,1.1,1,1.7
	c0.1-1.2,0.8-2.4,1.4-3.5c-1.1,0-2.2,0-3.2-0.3c-0.1,0-0.1,0.1-0.2,0.1c-1,0.6-1.8,1.4-2.7,2c-1.4,0.3-2.7,0.6-4,0.9
	c-1.3,0.3-2.6,0.6-3.9,0.8c-1.2,0.2-2.7,0.8-4,0.7c-1-2.1-2.6-4-3.6-6c-1.8-3.6-2.6-7.5-2.6-11.5c0-0.1,0.1-0.2,0.1-0.3
	C30,20.8,28.6,20,27.4,19c-2.2-1.9-3.3-4.2-3.8-6.7c-0.4,1.5-0.5,3,0.1,4.7c0.5,1.5,1.3,2.9,1.9,4.5c0,0.1,0.1,0.2,0.1,0.3
	c0,0.1,0,0.1,0,0.2c1.3,5.4,2.5,10.8,3.9,16.1c0.6,2.4,1.2,5,2.2,7.2c0.7,1.4,1.7,2.3,3.2,2.2c0,0,0,0,0,0c6.3,0.2,12.2-1,18-2.9
	c0.2-0.3,0.4-0.7,0.6-1.1C53.9,43.3,54,43,54.1,42.7z"/>
<path class="st4" d="M23.4,141.3c-1.3-0.2-3.3-0.8-3.9-2.2c-0.3-0.6-0.3-0.9-0.3-1.6c0-0.5,0.6-1.3,0.6-2c-0.9,0.1-1.7,1-2.4,1.8
	c-2.1,2.1-4.7,3.7-7.4,4.7c-1.4,0.5-3.1,0.7-4.1,1.8c1.5,0.8,2.5,2.3,4,3.1c2.6,1.4,5.4,0.4,8-0.4c2.3-0.7,4.2-0.9,6.5-0.7
	c2.1,0.2,3.9-0.3,5.8-1c0.1-1.7,0.1-3.4-0.1-5c-0.1-0.5-0.1-1.3-0.3-2C27.7,139.3,26.5,141.8,23.4,141.3z"/>
<path class="st3" d="M20.9,146.8c-1.4,0.3-2.6,0.7-3.9,1.1c-2.1,0.6-4.6,1.3-6.7,0.4c-1.9-0.8-3.2-2.6-5-3.6c0,0.1-0.1,0.3-0.1,0.4
	c-0.4,1.8,2.1,3.4,3.4,4c1.9,1,4.1,1.1,6.2,0.7c1.2-0.2,2.4-0.7,3.5-1.3c1.9-0.8,3.2,0.2,5.1,0.5c1.9,0.3,4.6,0.3,6-1.2
	c0.4-0.4,0.7-1.2,0.7-2c-1.5,0.6-3,1-4.6,1C24,146.9,22.5,146.5,20.9,146.8z"/>
<path class="st6" d="M28.1,18.2c2.1,1.7,4.4,2.5,6.9,2.9c3.2-0.1,6.1-1.8,7.9-4.3c-0.1-1.2,0-2.4,0.3-3.5c0.4-1.2,2-3.5,0.1-4.4
	c-0.6-0.3-0.9-0.5-1.1-1.2c-0.1-0.3,0.1-0.5,0.3-0.6c0.4-0.4,0.8-0.7,1.3-0.7c0-0.3,0-0.7-0.1-1c-0.1-0.4-0.4-0.8-0.6-1.2l0,0
	C41.1,1.8,38,0.1,34.5,0c-5.2-0.1-9.3,3.8-10.4,8.6C24.2,12.3,25,15.8,28.1,18.2z"/>
<path class="st1" d="M44.8,6.7c1.2,0.4,2.2,1.7,2.1,3c0,0.6-1,0.6-1,0c0.1-1-1.6-3-2.5-1.8c0.4,0.6,1.5,0.7,1.8,1.5
	c0.2,0.7,0.3,1.5,0,2.2c-0.7,2-1.3,3.7-1.1,5.6c0.1,0.2,0.2,0.5,0.3,0.7c0.7,3.7,2.3,7,4.1,10.2c1.2,2,2.4,4.5,4.4,5.6
	c1,0.2,2.1,0.2,3.2,0.1c0,0,0.1,0,0.1,0c0.2-0.3,0.6-0.2,0.8-0.1c2-0.1,4-0.3,6-0.5c2.4-0.2,4.4-1.1,6.6-1.8
	c1.9-0.5,3.6-0.6,5.5-0.2c0.6,0.1,0.4,1.1-0.3,1c-1.2-0.2-2.2-0.2-3.1-0.1c0.7,1.7,2.8,2.4,4.5,2.9c1.3,0.4,2.7,0.6,3.5-0.7
	c0.5-0.8,0.7-1.7,0.6-2.6c-0.1-1.8-0.6-3.5-0.9-5.3c-0.1-0.6-0.1-1.2-0.2-1.8c-0.1-0.2-0.2-0.3-0.3-0.5c-0.9-1.4-2.1-2.4-3.6-3
	c-0.1,0-0.3-0.1-0.4-0.1c-3.8-0.2-7.1,2.7-10.6,3.8c-1.9,0.6-3.9,0.2-5.9,0.4c-0.7,0.1-1.3,0-1.9-0.2c-0.1,0-0.1,0-0.2,0
	c-0.2-0.2-0.4-0.3-0.6-0.4c-0.1-0.1-0.2-0.1-0.3-0.2c-0.8-0.6-1.7-1.1-2.6-1.7c-1.8-1.2-3-3.1-4.1-5.1c0.2-2.5,0.8-5,0.2-7.4
	c-0.5-2.1-2.2-4.1-4.4-4.7C44.7,6,44.7,6.3,44.8,6.7C44.8,6.6,44.8,6.7,44.8,6.7z"/>
</svg>
