<?xml version="1.0" encoding="utf-8"?>
<!-- Generator: Adobe Illustrator 21.0.2, SVG Export Plug-In . SVG Version: 6.00 Build 0)  -->
<svg version="1.1" id="Layer_2" xmlns="http://www.w3.org/2000/svg" xmlns:xlink="http://www.w3.org/1999/xlink" x="0px" y="0px"
	 viewBox="0 0 100 90.8" style="enable-background:new 0 0 100 90.8;" xml:space="preserve">
<style type="text/css">
	.st0{fill:#4D2C2B;}
	.st1{fill:#FDC312;}
	.st2{fill:#723D3D;}
	.st3{fill:#FFFFFF;}
	.st4{fill:#061834;}
	.st5{fill:#F47C23;}
</style>
<title>Artboard 1</title>
<g>
	<ellipse transform="matrix(0.9785 -0.2062 0.2062 0.9785 -2.991 18.8622)" class="st0" cx="89" cy="23.8" rx="4.1" ry="4.1"/>
	<ellipse transform="matrix(0.9785 -0.2062 0.2062 0.9785 -5.1784 17.9397)" class="st0" cx="83.5" cy="33.8" rx="11" ry="10.8"/>
	<ellipse transform="matrix(0.9755 -0.2198 0.2198 0.9755 -1.2733 8.3622)" class="st1" cx="36.9" cy="9.9" rx="9.8" ry="9.8"/>
	<path class="st1" d="M98.7,82.1l-5.1-6l-46-15c-5.1-1.6-9.3-5.2-11.7-10L35.7,51c7.6-6.9,8.3-18.6,1.4-26.3
		c-6.9-7.6-18.6-8.3-26.3-1.4S2.6,41.9,9.5,49.6c1.8,2.1,4.1,3.7,6.7,4.7c1.6,3.3,2.8,6.7,3.7,10.3c2.6,10.9,5.2,26.2,19.6,26.2
		h55.3c2.9,0,5.3-2.4,5.3-5.3C100,84.2,99.5,83,98.7,82.1z"/>
	<path class="st2" d="M47.5,61.1l46,15l1.1,1.3c3.4-4.9,5.3-10.8,5.3-16.8c0-16.6-14-30.2-31.2-30.2C53.6,30.5,41,41,38.2,54.8
		C40.7,57.8,43.9,60,47.5,61.1z"/>
	<ellipse transform="matrix(0.2453 -0.9694 0.9694 0.2453 -2.1152 16.9818)" class="st1" cx="9.8" cy="9.8" rx="9.8" ry="9.8"/>
	<ellipse transform="matrix(0.2453 -0.9694 0.9694 0.2453 -2.1152 16.9818)" class="st3" cx="9.8" cy="9.8" rx="6.4" ry="6.4"/>
	<ellipse transform="matrix(0.2453 -0.9694 0.9694 0.2453 -2.1152 16.9818)" class="st4" cx="9.8" cy="9.8" rx="3.1" ry="3.1"/>
	<ellipse transform="matrix(0.2453 -0.9694 0.9694 0.2453 -1.2092 17.3021)" class="st3" cx="10.5" cy="9.4" rx="0.6" ry="0.6"/>
	<ellipse transform="matrix(0.9755 -0.2198 0.2198 0.9755 -1.2733 8.3622)" class="st3" cx="36.9" cy="9.9" rx="6.4" ry="6.4"/>
	<ellipse transform="matrix(0.9755 -0.2198 0.2198 0.9755 -1.2733 8.3622)" class="st4" cx="36.9" cy="9.9" rx="3.1" ry="3.1"/>
	<ellipse transform="matrix(0.9755 -0.2198 0.2198 0.9755 -1.1163 8.4349)" class="st3" cx="37.3" cy="9.2" rx="0.6" ry="0.6"/>
	<path class="st1" d="M10.3,19.7l2.3,6.2c0,0,4.6-0.7,4.8-1.6s-1.7-6.5-1.7-6.5l-4.9-0.3L10.3,19.7z"/>
	<path class="st1" d="M36.2,19.7l-2.5,6.2c0,0-4.5-0.9-4.7-1.7c-0.2-0.8,1.9-6.5,1.9-6.5l4.9-0.2L36.2,19.7z"/>
	<path class="st5" d="M14.8,40L14.8,40c0.6,4.9,7.2,5.9,9.2,1.4l0.6-1.5L14.8,40z"/>
	<circle class="st5" cx="41.4" cy="65" r="3.1"/>
	<circle class="st5" cx="43.9" cy="70.5" r="0.9"/>
	<circle class="st5" cx="48.9" cy="69.6" r="2.4"/>
	<circle class="st5" cx="84.9" cy="80.2" r="1"/>
	<circle class="st5" cx="82.8" cy="83.3" r="2"/>
</g>
</svg>
