<svg id="Layer_2" data-name="Layer 2" xmlns="http://www.w3.org/2000/svg" width="354.5" height="321.9" viewBox="0 0 354.5 321.9">
  <defs>
    <style>
      .cls-1 {
        fill: #4d2c2b;
      }

      .cls-2 {
        fill: #fdc312;
      }

      .cls-3 {
        fill: #723d3d;
      }

      .cls-4 {
        fill: #fff;
      }

      .cls-5 {
        fill: #061834;
      }

      .cls-6 {
        fill: #f47c23;
      }
    </style>
  </defs>
  <title>Artboard 1</title>
  <g>
    <ellipse class="cls-1" cx="315.5" cy="84.4" rx="14.6" ry="14.4" transform="translate(-10.6 66.8) rotate(-11.9)"/>
    <ellipse class="cls-1" cx="296" cy="119.9" rx="38.9" ry="38.4" transform="translate(-18.4 63.6) rotate(-11.9)"/>
    <circle class="cls-2" cx="131" cy="35.1" r="34.9" transform="translate(-4.5 29.7) rotate(-12.7)"/>
    <path class="cls-2" d="M350,290.9l-18.2-21.1L168.6,216.7A71.3,71.3,0,0,1,127,181.3l-.3-.6a65.9,65.9,0,1,0-69.4,11.8,176.7,176.7,0,0,1,13,36.5c9.3,38.7,18.6,92.8,69.6,92.8H335.8A18.7,18.7,0,0,0,350,290.9Z"/>
    <path class="cls-3" d="M168.6,216.7l163.1,53.2,4,4.7a104,104,0,0,0,18.7-59.6c0-59-49.5-106.9-110.5-106.9-53.7,0-98.5,37.1-108.4,86.3A71.8,71.8,0,0,0,168.6,216.7Z"/>
    <circle class="cls-2" cx="35" cy="35" r="34.9" transform="translate(-7.5 60.3) rotate(-75.8)"/>
    <circle class="cls-4" cx="35" cy="35" r="22.7" transform="translate(-7.5 60.3) rotate(-75.8)"/>
    <circle class="cls-5" cx="35" cy="35" r="11" transform="translate(-7.5 60.3) rotate(-75.8)"/>
    <circle class="cls-4" cx="37.4" cy="33.5" r="2" transform="translate(-4.3 61.5) rotate(-75.8)"/>
    <circle class="cls-4" cx="131" cy="35.1" r="22.7" transform="translate(-4.5 29.7) rotate(-12.7)"/>
    <circle class="cls-5" cx="131" cy="35.1" r="11" transform="translate(-4.5 29.7) rotate(-12.7)"/>
    <circle class="cls-4" cx="132.5" cy="32.7" r="2" transform="translate(-4 30) rotate(-12.7)"/>
    <path class="cls-2" d="M36.7,69.9l8.2,22s16.2-2.6,17-5.7-6-23.2-6-23.2l-17.2-1Z"/>
    <path class="cls-2" d="M128.4,70l-8.8,21.8s-16.1-3.1-16.8-6.1,6.6-23.1,6.6-23.1l17.2-.6Z"/>
    <path class="cls-6" d="M52.4,141.9h0c2.1,17.2,25.5,20.8,32.6,5l2.3-5.2Z"/>
    <circle class="cls-6" cx="146.7" cy="230.5" r="11.1"/>
    <circle class="cls-6" cx="155.6" cy="249.8" r="3.2"/>
    <circle class="cls-6" cx="173.4" cy="246.7" r="8.6"/>
    <circle class="cls-6" cx="300.9" cy="284.4" r="3.6"/>
    <circle class="cls-6" cx="293.6" cy="295.2" r="7.1"/>
  </g>
</svg>
