<?xml version="1.0" encoding="utf-8"?>
<!-- Generator: Adobe Illustrator 21.0.2, SVG Export Plug-In . SVG Version: 6.00 Build 0)  -->
<svg version="1.1" id="Layer_1" xmlns="http://www.w3.org/2000/svg" xmlns:xlink="http://www.w3.org/1999/xlink" x="0px" y="0px"
	 viewBox="0 0 150 73.3" style="enable-background:new 0 0 150 73.3;" xml:space="preserve">
<style type="text/css">
	.st0{fill:#BF1324;}
	.st1{fill:#E4005B;}
	.st2{fill:#C6004F;}
	.st3{fill:#D30054;}
	.st4{fill:#B7014A;}
	.st5{fill:#FEFDFE;}
	.st6{fill:#FC3A3B;}
</style>
<title>Artboard 1</title>
<g>
	<path class="st0" d="M130.1,46.8c-0.8,1.4-1.9,2.7-2.9,4c-1.3,1.8-2.5,3.6-4.1,5.2c0-0.9-0.1-0.9-0.8-0.5c-3.4,1.7-7,2.9-10.7,3.9
		c-1.3,0.4-2.6,0.8-3.9,1c-1.3,0.2-2.4,0.6-3.6,0.7s-2.1,0.4-3.1,0.6c-1,0.2-2,0.3-3,0.4c-1.1,0-2.1,0.4-3.2,0.4
		c-0.5,0-1.1-0.1-1.6,0.1c-0.8,0.4-1.6,0.3-2.4,0.3c-0.8,0-1.9,0.5-2.9,0.1c-0.1,0-0.2,0-0.3,0.1c-0.4,0.3-0.8,0.3-1.3,0.1
		c-0.4-0.1-0.8-0.1-1.2-0.1c-1.6,0.3-3.2,0.2-4.8,0.3c-4.8,0.1-9.6,0.1-14.3-0.1c-0.8,0-1.6-0.2-2.5,0c-0.2,0-0.3,0-0.5-0.1
		c-0.4-0.4-0.9-0.3-1.3-0.2c-0.2,0-0.4,0.1-0.5,0.1c-1.1-0.3-2.3-0.4-3.4-0.3c-0.1,0-0.2,0-0.3-0.1c-0.7-0.4-1.4-0.2-2.1-0.3
		c-0.7,0-1.3-0.1-1.8-0.2C52.6,62,51.3,62,50,61.8c-1-0.2-2.1-0.3-3.1-0.5c-1.6-0.3-3.2-0.7-4.8-1c-4-1-7.9-2.1-11.6-3.7
		c-2.9-1.3-5.8-2.8-8-5.2c-1-1.2-1.8-2.6-1.7-4.3s1.1-3.3,2.4-4.5c2.4-2.2,5.2-3.6,8.1-4.8c3.4-1.4,6.9-2.4,10.4-3.3
		c0.3-0.1,0.7-0.1,0.8-0.5c1.5,1.2,2.8,2.6,4.1,4.1c-0.1,0.3-0.4,0.3-0.6,0.4c-0.9,0.3-1.9,0.6-2.7,0.9c-2.9,1.1-5.8,2.3-8.1,4.7
		c-2,2.1-2,4.5,0,6.6c1.6,1.6,3.4,2.8,5.5,3.7c4.4,1.9,9,3,13.7,3.9c2.9,0.5,5.9,0.8,8.9,1.1s6.3,0.4,9.5,0.5c2.1,0.1,4.1,0,6.2-0.1
		c2.8-0.1,5.6-0.3,8.4-0.5c2.4-0.2,4.7-0.4,7-0.8c4.8-0.8,9.6-1.8,14.1-3.6c2.6-1,5.1-2.3,7.1-4.4c1.5-1.6,1.8-3.7,0.5-5.6
		c-0.9-1.3-2.1-2.3-3.5-3.1c-2.5-1.5-5.2-2.5-8-3.3c-0.5-0.1-1.1-0.2-1.4-0.8c0.1-0.3,0.4-0.3,0.6-0.5c1-1,1.8-2.2,2.9-3.1
		c0.1,0,0.3,0,0.2-0.2h0c0.4,0.2,0.8,0.4,1.3,0.5c3,0.7,5.9,1.5,8.7,2.6s5.4,2.1,7.8,3.8c2.1,1.4,4,3,4.6,5.7
		C129.5,46.8,129.8,46.7,130.1,46.8z"/>
	<path class="st0" d="M96.3,0.3h0.8c1.2,0.3,2.4,0.3,3.6,0c1.9,0.1,3.8,0.4,5.7,1.2c0.1,0.2,0.2,0.3,0.5,0.2c0.2,0,0.5,0.1,0.6,0.3
		c0.3,0.4,0.8,0.5,1.3,0.7c2.1,0.9,3.8,2.4,5.5,3.9l0.2,0.1h0c0,0.1,0.1,0.2,0.2,0.2c0,0,0,0,0,0h0c0,0.1,0.1,0.2,0.2,0.1l0,0
		c0,0.1,0,0.2,0.2,0.1h0c0,0.2,0.1,0.2,0.2,0.2c0.3,0.2,0.6,0.5,0.8,0.8l0.1,0.2v0l0.1,0.1c0.3,0,0.4,0.3,0.5,0.5
		c-0.4,0.1-0.6,0.4-0.7,0.8c-0.1,0.4-0.3,0.7-0.4,1.1c-1.3,2.4-3.2,4.3-5.4,6c-3.3,2.5-7,4.3-11,5.6c-3.6,1.3-7.3,2.1-11.1,2.7
		c-3.6,0.6-7.3,0.9-11,1c-4.2,0.1-8.4,0-12.6-0.6c-2.7-0.4-5.3-0.7-8-1.4c-4.9-1.2-9.6-2.8-14-5.3c-3.1-1.8-5.7-4-7.8-6.8
		c-0.6-0.9-1.2-1.7-0.3-2.8c1.7-1.3,3.7-2.2,5.6-3.2C42.6,5,45.2,4,47.9,3.3c0.6-0.2,1.3-0.5,2.2-0.2c-0.8,0.3-0.9,0.9-1.1,1.4
		c-0.4,1.7,0.1,3.3,1,4.8c1.3,2.2,3.4,3.7,5.7,4.9c5.4,2.8,11.2,3.8,17.2,4c1.7,0.1,3.4,0,5.1-0.1c1.9-0.2,3.8-0.3,5.7-0.7
		c3.9-0.7,7.6-1.8,11.1-3.9c2.2-1.3,4.1-3,5.2-5.4c0.7-1.5,0.9-4.2-0.6-5.7c0.1-0.3,0.5,0,0.6-0.3l-1.6-0.4
		c-0.8-0.2-1.6-0.1-2.4-0.4c-0.3-0.1-0.5-0.3-0.5-0.6s0.3-0.2,0.5-0.2C96.2,0.6,96.3,0.5,96.3,0.3z"/>
	<path class="st0" d="M42.6,33.9c-0.2,0.4-0.5,0.4-0.8,0.5c-3.5,0.9-7,1.9-10.4,3.3c-2.9,1.2-5.7,2.7-8.1,4.8
		c-1.3,1.2-2.3,2.7-2.4,4.5c-0.1,1.8,0.6,3.1,1.7,4.3c2.2,2.5,5,3.9,8,5.2c3.7,1.6,7.6,2.8,11.6,3.7c1.6,0.4,3.2,0.7,4.8,1
		c1,0.2,2.1,0.4,3.1,0.5c1.3,0.2,2.6,0.3,3.8,0.6c0.5,0.1,1.2,0.2,1.8,0.2s1.5-0.1,2.1,0.3c0.1,0,0.2,0.1,0.3,0.1
		c1.1-0.1,2.3,0,3.4,0.3c0.2,0,0.4,0,0.5-0.1c0.5-0.1,0.9-0.2,1.3,0.2c0.1,0.1,0.3,0.1,0.5,0.1c0.8-0.2,1.6,0,2.5,0
		c4.8,0.2,9.6,0.3,14.3,0.1c1.6,0,3.2,0.1,4.8-0.3c0.4-0.1,0.8,0,1.2,0.1c0.4,0.1,0.9,0.2,1.3-0.1c0.1-0.1,0.2-0.1,0.3-0.1
		c1,0.4,1.9-0.1,2.9-0.1c0.9,0,1.6,0.1,2.4-0.3c0.5-0.2,1.1-0.1,1.6-0.1c1.1,0,2.2-0.4,3.2-0.4c1,0,2-0.2,3-0.4
		c1-0.2,2.1-0.5,3.1-0.6s2.4-0.5,3.6-0.7c1.2-0.2,2.6-0.6,3.9-1c3.7-1.1,7.3-2.3,10.7-3.9c0.7-0.4,0.8-0.3,0.8,0.5l-0.1,0.2
		c-0.2,0-0.3,0-0.3,0.2l-0.3,0.4l-0.1,0.2h0c-0.1,0-0.2,0.1-0.2,0.2c0,0,0,0,0,0h0c-0.1,0-0.2,0.1-0.2,0.2l0,0l0,0
		c-0.1,0-0.2,0-0.2,0.2l0,0l0,0c-0.1,0-0.2,0-0.1,0.2l0,0l0,0c-0.1,0-0.2,0-0.1,0.2l0,0c-0.2,0-0.2,0.1-0.2,0.2l-0.3,0.3
		c-0.1,0-0.3,0-0.2,0.2h0c-0.1,0-0.2,0-0.1,0.1h0c-0.1,0-0.2,0-0.2,0.1l0,0l0,0c-0.1,0-0.2,0-0.2,0.2l0-0.1l0,0.1
		c-0.1,0-0.2,0-0.2,0.2l-0.1,0l0.1,0c-0.1,0-0.2,0-0.2,0.2l0,0c-0.1,0-0.2,0-0.2,0.2h0c-0.1,0-0.2,0-0.2,0.1c0,0,0,0,0,0.1h0
		c-0.1,0-0.2,0.1-0.2,0.1c0,0,0,0,0,0h0l-0.2,0.1c-1.9,1.8-4.1,3.3-6.2,4.8c-0.4-0.7-1-0.3-1.4-0.2c-3.8,0.8-7.7,1.3-11.6,1.8
		c-2.7,0.3-5.4,0.6-8.1,0.8c-2.7,0.2-5.6,0.4-8.4,0.5c-6.5,0-13.1,0.2-19.6-0.2c-1,0-1.9,0-2.9-0.1c-2.7-0.3-5.4-0.4-8.1-0.7
		c-2.4-0.3-4.7-0.5-7-0.9c-3.3-0.5-6.5-0.9-9.7-1.8c-0.3-0.1-0.6-0.2-0.7,0.3c-1.9-1-3.6-2.3-5.2-3.7c-2-1.7-3.9-3.4-5.5-5.4
		c-0.9-1.2-2.1-2.2-2.8-3.5c0-0.4-0.1-0.5-0.5-0.5c-0.4-0.4-0.8-0.9-1.1-1.4l0-0.1h-0.1c0-0.1-0.1-0.2-0.2-0.2
		c-1.3-1.6-2.4-3.4-3.6-5.1c-1.2-1.7-2.5-3.3-3.8-5l-0.5-0.6c0.5,0,0.9-0.2,1.3-0.4c0.4-0.3,1.1-0.6,1.6-0.9
		c4.9-2.6,10.2-4.3,15.6-5.7l3.5-0.8c0.2,0,0.4,0,0.4-0.3c0-0.3-0.2-0.3-0.4-0.4l-0.5-0.2c-2.2-0.6-4.4-0.9-6.7-1.1
		c-1.2-0.1-2.4-0.2-3.4-0.7c-2.2-1.1-4.2-2.4-6.2-3.9c-0.4-0.3-0.7-0.8-1.2-0.8c2.6-1.9,4.7-4.4,7-6.6l0.1,0l0-0.1h0
		c0.2,0,0.2-0.1,0.2-0.3l0.3-0.3c1.1,1.1,2.1,2.2,3.3,3.2c3.3,2.7,7,4.8,10.9,6.5c3.3,1.5,6.7,2.6,10.2,3.5c2,0.5,3.9,1.5,6.1,1
		c-0.7,0.3-1.4,0.6-2.2,0.8c-3,1-6,2.3-9.3,2.4C42.6,33.4,42.6,33.6,42.6,33.9z"/>
	<path class="st0" d="M54.4,30.2c-2.2,0.5-4.1-0.5-6.1-1c-3.5-0.9-6.9-2-10.2-3.5c-3.9-1.7-7.6-3.8-10.9-6.5c-1.2-1-2.2-2.1-3.3-3.2
		l0.1-0.2l0.2-0.2h0l0.2-0.2h0l0.2-0.2h0c0.1,0,0.2-0.1,0.2-0.2h0c0.1,0,0.2-0.1,0.2-0.2c0,0,0,0,0,0h0c0.1,0,0.2-0.1,0.2-0.1
		c0,0,0,0,0,0h0c0.2,0,0.2-0.1,0.2-0.3h0c0.1,0,0.3-0.1,0.3-0.3c0.9-1.1,1.9-2.2,2.9-3.2l0.2-0.2h0c0.1,0,0.2-0.1,0.2-0.2
		c0,0,0,0,0,0h0c0.1,0,0.2-0.1,0.2-0.2c0,0,0,0,0,0h0c0.1,0,0.2-0.1,0.2-0.1c0,0,0,0,0,0h0c0.1,0,0.2-0.1,0.2-0.2c0,0,0,0,0,0h0
		c0.2,0,0.3-0.1,0.3-0.3l0,0h0c0.1,0,0.2,0,0.2-0.2l0,0l0,0c0.1,0,0.2,0,0.1-0.2l0,0l0,0c0.1,0,0.2,0,0.1-0.2h0c0.1,0,0.2,0,0.1-0.1
		h0c0.1,0,0.2,0,0.1-0.1h0c0.1,0,0.2,0,0.1-0.1l0,0v0c0.1,0,0.2,0,0.2-0.2l0,0l0,0c0.1,0,0.2,0,0.2-0.2l0,0c0.1,0,0.2,0,0.2-0.2
		l0.1,0h-0.1c0.1,0,0.2,0,0.2-0.2l0,0c0.1,0,0.2,0,0.2-0.2l0.1,0h-0.1c0.1,0,0.2,0,0.2-0.2h0c0.1,0,0.2,0,0.2-0.1c0,0,0,0,0-0.1h0
		c0.1,0,0.2-0.1,0.2-0.1c0,0,0,0,0,0h0c0.1,0,0.2-0.1,0.2-0.2v0h0c0.1,0,0.2-0.1,0.2-0.2l0.1-0.1l0.2-0.2h0c0.4,0,0.5,0.3,0.5,0.6
		c0.1,0.3,0.2,0.8,0.7,0.7c-0.1,0.5-0.6,0.6-1,0.9c-1,0.9-2,1.8-2.8,2.8l-0.2,0.2l-0.1,0.1l0.1-0.1l0.2-0.2c0.4-0.1,0.8-0.4,1.1-0.7
		c1.2-0.7,2.3-1.5,3.5-2.2c-0.9,1-0.3,1.9,0.3,2.7c2.1,2.9,4.7,5.1,7.8,6.8c4.4,2.5,9.1,4.1,14,5.3c2.6,0.6,5.3,1,8,1.4
		c4.2,0.5,8.4,0.7,12.6,0.6c3.7-0.1,7.4-0.4,11-1c3.8-0.6,7.5-1.5,11.1-2.7c3.9-1.4,7.6-3.1,11-5.6c2.2-1.7,4.1-3.6,5.4-6
		c0.2-0.3,0.3-0.7,0.4-1.1c0.1-0.4,0.3-0.7,0.7-0.8c0.4,0.3,0.8,0.7,1.1,1.1c0,0.1,0,0.3,0.2,0.2l0,0l0,0c0,0.2,0.1,0.3,0.3,0.3h0
		c0,0.1,0,0.2,0.1,0.2c0,0,0,0,0.1,0h0c0,0.1,0.1,0.2,0.1,0.2c0,0,0,0,0,0h0l0.1,0.2l0.5,0.5l0.2,0.1c0.2,0.1,0.3,0.3,0.4,0.5
		c0,0.1,0,0.3,0.2,0.2l0,0c0,0.1,0,0.2,0.1,0.2l0,0c0,0.1,0,0.2,0.1,0.2l0,0l0,0c0,0.1,0,0.2,0.1,0.2c0,0,0,0,0.1,0h0l0.1,0.2
		l0.5,0.5l0.2,0.1l0.3,0.3c0,0.1,0,0.3,0.2,0.2l0,0c0,0.1,0,0.2,0.1,0.2l0,0h0c0,0.1,0,0.2,0.1,0.2l0,0v0c0,0.1,0,0.2,0.1,0.2
		c0,0,0,0,0.1,0h0c0,0.1,0.1,0.2,0.1,0.2c0,0,0,0,0,0h0c0,0.1,0.1,0.2,0.2,0.2h0c0,0.1,0.1,0.2,0.2,0.2h0l0.2,0.2h0l0.2,0.2l0.1,0.1
		l0.2,0.2c0.4,0.4,0.8,0.8,1.1,1.2c-0.3,0.1-0.7,0.1-1,0.4c-2.7,2.7-5.9,4.7-9.2,6.4c-3.5,1.8-7.1,3.2-10.9,4.3
		c-2.2,0.7-4.5,1.1-6.6,1.9l0,0v-0.1l-0.1,0.1L93,29.3c-1.3-0.3-2.6-0.6-3.9-0.8c-2.4-0.4-4.4,0.8-6.3,2c-2.7,1.7-5.6,2.6-8.8,2.3
		c-2-0.1-3.9-0.7-5.6-1.7c-1.1-0.6-2.1-1.3-3.2-1.9c-2.1-1.1-4.3-0.8-6.5-0.3c-1.3,0.3-2.6,0.9-4,1.2C54.6,30,54.4,30,54.4,30.2
		L54.4,30.2z"/>
	<path class="st0" d="M29.9,12.2c0.8-1,1.8-1.9,2.8-2.8c0.3-0.3,0.9-0.4,1-0.9l0,0c0.2,0,0.4-0.1,0.5-0.3c0.2-0.1,0.4-0.3,0.7-0.4
		c1.6-1.2,3.2-2.4,5-3.3c3.3-1.8,6.8-2.7,10.6-2.5c0.1-0.3-0.4-0.5-0.1-0.8s0.6-0.2,0.8-0.6h-1.6c-0.2,0-0.5,0.1-0.6-0.3
		c2.2,0,4.5,0.2,6.7,0.5c3.2,0.5,6.2,1.2,9.1,2.5c3.6,1.7,6.7,3.9,8.9,7.2c0.3,0.4,0.5,0.7,0.7,1.2c0.7-1.4,1.6-2.7,2.7-3.8
		c3.4-3.5,7.7-5.5,12.4-6.6c2.2-0.5,4.5-0.9,6.8-0.9c0,0.2-0.1,0.3-0.3,0.3c-0.2,0-0.5-0.1-0.5,0.2s0.2,0.5,0.5,0.6
		c0.8,0.3,1.6,0.2,2.4,0.4l1.6,0.4c-0.2,0.3-0.5,0.1-0.6,0.3c1.6,1.4,1.3,4.2,0.6,5.7c-1.1,2.4-3,4.1-5.2,5.4
		c-3.4,2-7.2,3.1-11.1,3.9c-1.9,0.3-3.8,0.5-5.7,0.7c-1.7,0.1-3.4,0.2-5.1,0.1c-6-0.3-11.8-1.2-17.2-4c-2.3-1.2-4.3-2.7-5.7-4.9
		c-0.9-1.5-1.3-3.1-1-4.8c0.1-0.5,0.3-1.1,1.1-1.4c-1-0.3-1.6,0.1-2.2,0.2C45.2,4,42.6,5,40.1,6.2c-1.9,1-3.9,1.9-5.6,3.2
		c-1.2,0.6-2.3,1.4-3.4,2.2C30.7,11.9,30.4,12.2,29.9,12.2L29.9,12.2z"/>
	<path class="st0" d="M96.7,30.2c2.2-0.8,4.4-1.2,6.6-1.9c3.8-1.1,7.4-2.5,10.9-4.3c3.4-1.7,6.6-3.7,9.2-6.4c0.3-0.3,0.6-0.3,1-0.4
		l0,0c0,0.1,0,0.2,0.1,0.2c0,0,0,0,0.1,0h0c0,0.1,0.1,0.2,0.1,0.2c0,0,0,0,0,0h0c0,0.1,0.1,0.2,0.1,0.2c0,0,0,0,0,0h0
		c0,0.1,0.1,0.2,0.1,0.2c0,0,0,0,0,0h0c0,0.1,0.1,0.2,0.1,0.2c0,0,0,0,0,0h0c0,0.1,0.1,0.2,0.1,0.2c0,0,0,0,0,0h0
		c0,0.1,0.1,0.2,0.1,0.2c0,0,0,0,0,0h0c0,0.1,0.1,0.2,0.1,0.2c0,0,0,0,0,0h0c0,0.1,0.1,0.2,0.1,0.2c0,0,0,0,0,0h0
		c0,0.1,0.1,0.2,0.1,0.2c0,0,0,0,0,0h0c0,0.1,0.1,0.2,0.1,0.2c0,0,0,0,0,0h0c0,0.1,0.1,0.2,0.1,0.2c0,0,0,0,0,0h0
		c0,0.1,0,0.1,0.1,0.2c0,0,0,0,0.1,0h0c0,0.1,0.1,0.2,0.2,0.2l0,0l0,0c0,0.1,0,0.2,0.2,0.2l0,0c0,0.2,0.1,0.2,0.2,0.2l4.2,3.5
		c-0.1,0.5-0.4,1-0.9,1.2c-1,0.6-1.9,1.2-2.8,1.8c-1.4,0.9-2.9,1.7-4.6,1.9s-3.1,0.4-4.6,0.7c-1.9,0.4-3.8,0.8-5.6,1.6
		c-0.2,0.1-0.5,0.2-0.5,0.5c0,0.3,0.4,0.3,0.6,0.4c4.4,0.9,8.8,2.1,13,3.7c2.3,0.9,4.5,1.9,6.7,3.1c1,0.5,1.8,1.4,3,1.7l-5.4,7
		c-0.3,0-0.6,0.1-0.7-0.3c-0.6-2.7-2.4-4.3-4.6-5.7c-2.4-1.7-5.1-2.8-7.8-3.8s-5.8-1.8-8.7-2.6c-0.4-0.1-0.9-0.4-1.3-0.5l1.2-1.2
		C104.2,32.4,100.4,31.2,96.7,30.2z"/>
	<path class="st0" d="M35.4,64.2c0.1-0.4,0.4-0.3,0.7-0.3c3.2,0.8,6.5,1.3,9.7,1.8c2.3,0.3,4.7,0.6,7,0.9c2.7,0.3,5.4,0.4,8.1,0.7
		c1,0.1,1.9,0.1,2.9,0.1c6.5,0.3,13.1,0.2,19.6,0.2c2.8,0,5.6-0.3,8.4-0.5s5.4-0.5,8.1-0.8c3.9-0.5,7.8-1,11.6-1.8
		c0.4-0.1,1-0.5,1.4,0.2c-4.3,2.7-9.1,4.6-14,5.9c-6.8,1.8-13.8,2.5-20.8,2.7c-7,0.2-13.9-0.1-20.7-1.2c-6.9-1.1-13.5-3-19.7-6.4
		C37,65.2,36.2,64.6,35.4,64.2z"/>
	<path class="st0" d="M135.5,39.8c-1.1-0.3-2-1.1-3-1.7c-2.1-1.2-4.4-2.2-6.7-3.1c-4.2-1.6-8.6-2.8-13-3.7c-0.2,0-0.6,0-0.6-0.4
		s0.3-0.4,0.5-0.5c1.8-0.8,3.7-1.2,5.6-1.6c1.5-0.3,3.1-0.5,4.6-0.7c1.5-0.2,3.2-1,4.6-1.9c0.9-0.6,1.9-1.2,2.8-1.8
		c0.5-0.3,0.8-0.7,0.9-1.2l0.1,0c0,0.2,0.2,0.3,0.3,0.3c2.5,1.6,5.1,3.1,7.9,4.1c3.4,1.2,6.9,1.7,10.5,1.7c0,0.2-0.1,0.2-0.2,0.2
		c-5.4,1.8-9.8,5.1-13.5,9.3c-0.1,0.1-0.2,0.1-0.2,0.2c-0.1,0-0.2,0.1-0.2,0.2h0c-0.1,0-0.2,0.1-0.2,0.2c0,0,0,0,0,0h0
		c-0.1,0-0.2,0.1-0.1,0.2l0,0C135.5,39.6,135.5,39.7,135.5,39.8L135.5,39.8z"/>
	<path class="st0" d="M16.3,23.3c0.5,0,0.8,0.5,1.2,0.8c2,1.4,4,2.8,6.2,3.9c1,0.5,2.2,0.6,3.4,0.7c2.2,0.2,4.5,0.5,6.7,1.1l0.5,0.2
		c0.2,0.1,0.3,0.2,0.4,0.4s-0.3,0.2-0.4,0.3l-3.5,0.8c-5.4,1.4-10.7,3.1-15.6,5.7c-0.5,0.3-1.1,0.6-1.6,0.9
		c-0.5,0.3-0.8,0.5-1.3,0.4L12,38.3c0-0.1,0-0.3-0.2-0.3h0c0-0.1-0.1-0.2-0.2-0.2C8.4,34.2,4.7,31.1,0,29.5c1.3-0.1,2.5-0.2,3.7-0.4
		c4-0.7,7.7-2.3,11-4.6l1.3-0.9C16.2,23.5,16.4,23.5,16.3,23.3z"/>
	<path class="st0" d="M49.7,0c0.1,0.4,0.4,0.3,0.7,0.3h1.6c-0.2,0.5-0.6,0.5-0.8,0.7s0.2,0.5,0.1,0.8c-4-0.2-7.7,0.7-11.2,2.6
		c-1.9,1-3.6,2.2-5.3,3.5c-0.2,0.2-0.5,0.3-0.7,0.4s-0.5,0-0.5,0.3l0,0C33,8.8,32.9,8.4,32.8,8c-0.1-0.4-0.1-0.6-0.6-0.6
		c4-3.8,8.6-6.5,14.1-7.3c0.2,0,0.5,0,0.7,0c0.7,0.2,1.4,0.4,2-0.1L49.7,0z"/>
	<path class="st1" d="M100.7,0.3c-1.2,0.3-2.4,0.3-3.6,0C98.3,0.2,99.5,0.1,100.7,0.3z"/>
	<path class="st1" d="M48.3,0.2c-0.6,0.5-1.2,0.3-1.9,0.1C47,0.1,47.7,0.1,48.3,0.2z"/>
	<path class="st1" d="M108.7,2.6c-0.5-0.1-0.9-0.3-1.3-0.7C107.9,2.1,108.4,2.2,108.7,2.6z"/>
	<path class="st2" d="M21.4,51c0.4,0,0.5,0.1,0.5,0.5C21.7,51.3,21.5,51.2,21.4,51z"/>
	<path class="st3" d="M122.7,56.4c0-0.2,0.2-0.3,0.3-0.2C123.2,56.2,122.8,56.4,122.7,56.4z"/>
	<path class="st1" d="M106.8,1.7c-0.3,0.2-0.4,0-0.5-0.2C106.6,1.5,106.7,1.6,106.8,1.7z"/>
	<path class="st1" d="M118.4,10.6c-0.2,0-0.3-0.1-0.3-0.3L118.4,10.6z"/>
	<path class="st3" d="M29.5,9.9c0,0.2-0.1,0.3-0.3,0.3L29.5,9.9z"/>
	<path class="st3" d="M25.5,14.3c0,0.2-0.1,0.3-0.2,0.3c0,0,0,0-0.1,0C25.3,14.4,25.4,14.3,25.5,14.3z"/>
	<path class="st4" d="M131.6,23.5c-0.2,0-0.3-0.1-0.3-0.2L131.6,23.5z"/>
	<path class="st4" d="M11.8,38c0.2,0,0.2,0.1,0.2,0.3L11.8,38z"/>
	<path class="st4" d="M16.3,23.3c0,0.2-0.1,0.2-0.3,0.2L16.3,23.3z"/>
	<path class="st2" d="M127.1,19.7c-0.1,0-0.3,0-0.2-0.2L127.1,19.7z"/>
	<path class="st2" d="M23.6,16.3c0,0.1,0,0.3-0.2,0.3L23.6,16.3z"/>
	<path class="st3" d="M25.2,14.6c0,0.1-0.1,0.3-0.2,0.3L25.2,14.6z"/>
	<path class="st1" d="M121.8,14.3c-0.2,0-0.2-0.1-0.2-0.2L121.8,14.3z"/>
	<path class="st3" d="M121.3,58c0-0.1,0-0.3,0.2-0.2L121.3,58z"/>
	<path class="st1" d="M120.1,12.4c-0.2,0-0.2-0.1-0.2-0.2L120.1,12.4z"/>
	<path class="st3" d="M120.7,58.6c-0.1-0.2,0.1-0.2,0.2-0.2L120.7,58.6z"/>
	<path class="st1" d="M118.1,10.3c-0.2,0-0.2-0.1-0.2-0.2L118.1,10.3z"/>
	<path class="st1" d="M115.2,7.3c-0.1,0-0.3,0-0.2-0.2L115.2,7.3z"/>
	<path class="st3" d="M31.4,8.1c0,0.1,0,0.2-0.2,0.2L31.4,8.1z"/>
	<path class="st4" d="M135.5,39.8c0-0.1,0-0.2,0.1-0.2L135.5,39.8z"/>
	<path class="st4" d="M135.6,39.6c0-0.1,0-0.2,0.1-0.2L135.6,39.6z"/>
	<path class="st4" d="M135.8,39.4c0-0.1,0-0.2,0.1-0.2c0,0,0,0,0,0L135.8,39.4z"/>
	<path class="st4" d="M135.9,39.3c0-0.1,0.1-0.2,0.2-0.2L135.9,39.3z"/>
	<path class="st1" d="M116.1,8.3l-0.1-0.2C116.1,8.1,116.1,8.2,116.1,8.3z"/>
	<path class="st4" d="M11.7,37.8c0.1,0,0.2,0.1,0.2,0.2L11.7,37.8z"/>
	<path class="st3" d="M31.3,8.2c0,0.1,0,0.2-0.2,0.2L31.3,8.2z"/>
	<path class="st1" d="M116.2,8.4l-0.1-0.1L116.2,8.4z"/>
	<path class="st3" d="M31.1,8.4c0,0.1,0,0.2-0.2,0.2L31.1,8.4z"/>
	<path class="st3" d="M30.9,8.5c0,0.1,0,0.2-0.2,0.2L30.9,8.5z"/>
	<path class="st1" d="M114.4,6.7l-0.2-0.1C114.3,6.5,114.4,6.6,114.4,6.7z"/>
	<path class="st3" d="M30.8,8.7c0,0.1,0,0.2-0.2,0.2L30.8,8.7z"/>
	<path class="st3" d="M30.6,8.8c0,0.1,0,0.2-0.2,0.2L30.6,8.8z"/>
	<path class="st1" d="M114.7,7c-0.1,0-0.2,0-0.2-0.1L114.7,7z"/>
	<path class="st3" d="M30.5,9c0,0.1,0,0.2-0.1,0.1L30.5,9z"/>
	<path class="st3" d="M30.3,9.2c0,0.1,0,0.2-0.1,0.1L30.3,9.2z"/>
	<path class="st2" d="M126.9,19.5c-0.1,0-0.2,0-0.2-0.2L126.9,19.5z"/>
	<path class="st2" d="M126.7,19.4c-0.1,0-0.2,0-0.2-0.2L126.7,19.4z"/>
	<path class="st2" d="M126.5,19.2c-0.1,0-0.2,0-0.2-0.1c0,0,0,0,0-0.1L126.5,19.2z"/>
	<path class="st2" d="M126.4,19.1c-0.1,0-0.2-0.1-0.2-0.1c0,0,0,0,0,0L126.4,19.1z"/>
	<path class="st1" d="M114.9,7.1c-0.1,0-0.2,0-0.2-0.1L114.9,7.1z"/>
	<path class="st3" d="M119.2,59.9l0.2-0.1C119.4,59.9,119.4,60,119.2,59.9z"/>
	<path class="st3" d="M119.4,59.8c0-0.1,0.1-0.2,0.1-0.2c0,0,0,0,0,0L119.4,59.8z"/>
	<path class="st3" d="M119.6,59.7c0-0.1,0-0.2,0.1-0.2c0,0,0,0,0.1,0L119.6,59.7z"/>
	<path class="st3" d="M119.8,59.5c0-0.1,0-0.2,0.2-0.2L119.8,59.5z"/>
	<path class="st3" d="M119.9,59.4c0-0.1,0-0.2,0.2-0.2L119.9,59.4z"/>
	<path class="st3" d="M120.1,59.2c0-0.1,0-0.2,0.2-0.2L120.1,59.2z"/>
	<path class="st3" d="M120.3,59.1c0-0.1,0-0.2,0.2-0.2L120.3,59.1z"/>
	<path class="st3" d="M120.4,58.9c0-0.1,0-0.2,0.2-0.1L120.4,58.9z"/>
	<path class="st3" d="M120.6,58.8c0-0.1,0-0.2,0.1-0.1L120.6,58.8z"/>
	<path class="st3" d="M32.4,7.2l-0.2,0.2L32.4,7.2z"/>
	<path class="st3" d="M121.5,57.8c0-0.1,0-0.2,0.1-0.2L121.5,57.8z"/>
	<path class="st3" d="M121.7,57.7c0-0.1,0-0.2,0.1-0.2L121.7,57.7z"/>
	<path class="st3" d="M121.8,57.5c0-0.1,0-0.2,0.2-0.2L121.8,57.5z"/>
	<path class="st3" d="M122,57.3c0-0.1,0-0.2,0.2-0.2L122,57.3z"/>
	<path class="st3" d="M122.1,57.2c0-0.1,0.1-0.2,0.1-0.2c0,0,0,0,0,0L122.1,57.2z"/>
	<path class="st3" d="M122.3,57l0.1-0.2C122.4,56.9,122.4,57,122.3,57z"/>
	<path class="st3" d="M32.1,7.4c0,0.1-0.1,0.2-0.2,0.2L32.1,7.4z"/>
	<path class="st3" d="M31.9,7.6c0,0.1-0.1,0.2-0.2,0.2l0,0L31.9,7.6z"/>
	<path class="st3" d="M31.8,7.8c0,0.1-0.1,0.2-0.1,0.2c0,0,0,0,0,0L31.8,7.8z"/>
	<path class="st2" d="M20.3,49.5h0.1l0,0.1C20.3,49.6,20.3,49.5,20.3,49.5C20.3,49.5,20.3,49.5,20.3,49.5z"/>
	<path class="st2" d="M20.1,49.3c0.1,0,0.2,0.1,0.2,0.2L20.1,49.3z"/>
	<path class="st3" d="M31.6,7.9c0,0.1,0,0.1-0.1,0.2c0,0,0,0-0.1,0L31.6,7.9z"/>
	<path class="st3" d="M25,14.8c0,0.1-0.1,0.2-0.1,0.2c0,0,0,0,0,0L25,14.8z"/>
	<path class="st1" d="M122.3,14.8c-0.1,0-0.1,0-0.2-0.1c0,0,0,0,0-0.1L122.3,14.8z"/>
	<path class="st1" d="M122.1,14.7c-0.1,0-0.2,0-0.1-0.2L122.1,14.7z"/>
	<path class="st3" d="M30,9.5c0,0.1,0,0.2-0.1,0.2L30,9.5z"/>
	<path class="st1" d="M122,14.5c-0.1,0-0.2,0-0.1-0.2L122,14.5z"/>
	<path class="st3" d="M29.8,9.6c0,0.1,0,0.2-0.1,0.2L29.8,9.6z"/>
	<path class="st3" d="M29.7,9.8c0,0.1,0,0.2-0.2,0.2L29.7,9.8z"/>
	<path class="st1" d="M121.3,13.8l-0.2-0.1C121.2,13.6,121.3,13.7,121.3,13.8z"/>
	<path class="st1" d="M120.7,13.2l-0.1-0.2C120.6,13,120.7,13,120.7,13.2z"/>
	<path class="st1" d="M120.6,13c-0.1,0-0.1,0-0.2-0.1c0,0,0,0,0-0.1L120.6,13z"/>
	<path class="st1" d="M120.4,12.8c-0.1,0-0.2,0-0.1-0.2L120.4,12.8z"/>
	<path class="st1" d="M120.2,12.6c-0.1,0-0.2,0-0.1-0.2L120.2,12.6z"/>
	<path class="st1" d="M119.4,11.7l-0.2-0.1C119.3,11.6,119.4,11.6,119.4,11.7z"/>
	<path class="st1" d="M118.8,11.1l-0.1-0.2C118.8,10.9,118.8,11,118.8,11.1z"/>
	<path class="st3" d="M28.6,10.9l-0.2,0.2L28.6,10.9z"/>
	<path class="st1" d="M118.7,10.9c-0.1,0-0.2-0.1-0.2-0.1c0,0,0,0,0,0L118.7,10.9z"/>
	<path class="st3" d="M28.8,10.8c0,0.1-0.1,0.2-0.2,0.2l0,0L28.8,10.8z"/>
	<path class="st1" d="M118.5,10.8c-0.1,0-0.1,0-0.2-0.1c0,0,0,0,0-0.1L118.5,10.8z"/>
	<path class="st3" d="M28.9,10.6c0,0.1-0.1,0.2-0.2,0.2l0,0L28.9,10.6z"/>
	<path class="st3" d="M29.1,10.4c0,0.1-0.1,0.2-0.1,0.2c0,0,0,0,0,0L29.1,10.4z"/>
	<path class="st3" d="M29.2,10.3c0,0.1-0.1,0.2-0.1,0.2c0,0,0,0,0,0L29.2,10.3z"/>
	<path class="st2" d="M126.2,18.9c-0.1,0-0.2-0.1-0.2-0.1c0,0,0,0,0,0L126.2,18.9z"/>
	<path class="st2" d="M126,18.8c-0.1,0-0.2-0.1-0.2-0.1c0,0,0,0,0,0L126,18.8z"/>
	<path class="st2" d="M125.9,18.6c-0.1,0-0.2-0.1-0.2-0.1c0,0,0,0,0,0L125.9,18.6z"/>
	<path class="st2" d="M125.7,18.5c-0.1,0-0.2-0.1-0.2-0.1c0,0,0,0,0,0L125.7,18.5z"/>
	<path class="st2" d="M125.6,18.3c-0.1,0-0.2-0.1-0.2-0.1c0,0,0,0,0,0L125.6,18.3z"/>
	<path class="st2" d="M125.4,18.1c-0.1,0-0.2-0.1-0.2-0.1c0,0,0,0,0,0L125.4,18.1z"/>
	<path class="st2" d="M125.3,18c-0.1,0-0.2-0.1-0.2-0.1c0,0,0,0,0,0L125.3,18z"/>
	<path class="st2" d="M125.1,17.8c-0.1,0-0.2-0.1-0.2-0.1c0,0,0,0,0,0L125.1,17.8z"/>
	<path class="st2" d="M124.9,17.7c-0.1,0-0.2-0.1-0.2-0.1c0,0,0,0,0,0L124.9,17.7z"/>
	<path class="st2" d="M124.8,17.5c-0.1,0-0.2-0.1-0.2-0.1c0,0,0,0,0,0L124.8,17.5z"/>
	<path class="st2" d="M124.6,17.3c-0.1,0-0.1,0-0.2-0.1c0,0,0,0,0-0.1L124.6,17.3z"/>
	<path class="st1" d="M114.6,6.8c-0.1,0-0.2,0-0.2-0.1c0,0,0,0,0,0L114.6,6.8z"/>
	<path class="st2" d="M23.4,16.5l0,0.1L23.4,16.5C23.3,16.6,23.4,16.6,23.4,16.5z"/>
	<path class="st3" d="M30.1,9.3c0,0.1,0,0.2-0.1,0.1L30.1,9.3z"/>
	<path class="st1" d="M123.4,16l-0.2-0.2L123.4,16z"/>
	<path class="st3" d="M24.3,15.6l-0.2,0.2L24.3,15.6z"/>
	<path class="st1" d="M123,15.7l-0.2-0.2L123,15.7z"/>
	<path class="st3" d="M24.4,15.5l-0.2,0.2L24.4,15.5z"/>
	<path class="st1" d="M122.9,15.5l-0.2-0.2L122.9,15.5z"/>
	<path class="st3" d="M24.6,15.3l-0.2,0.2L24.6,15.3z"/>
	<path class="st1" d="M122.7,15.3c-0.1,0-0.2-0.1-0.2-0.2L122.7,15.3z"/>
	<path class="st3" d="M24.7,15.1c0,0.1-0.1,0.2-0.2,0.2L24.7,15.1z"/>
	<path class="st1" d="M122.6,15.2c-0.1,0-0.2-0.1-0.2-0.2L122.6,15.2z"/>
	<path class="st3" d="M24.9,15c0,0.1-0.1,0.2-0.2,0.2l0,0L24.9,15z"/>
	<path class="st1" d="M122.4,15c-0.1,0-0.2-0.1-0.2-0.2c0,0,0,0,0,0L122.4,15z"/>
	<path class="st5" d="M96.7,30.2c3.7,1.1,7.4,2.2,11.5,2.4l-1.2,1.2h0c-0.1,0.1-0.2,0.1-0.2,0.2c-1.1,0.9-1.9,2.1-2.9,3.1
		c-0.2,0.2-0.5,0.2-0.6,0.5l-4.7,4.2c-0.6,0.4-1.2,0.7-1.8,1.1c-4.1,2.8-8.7,4.7-13.5,5.6c-6.2,1.1-12.5,1-18.6-0.4
		c-1.9-0.4-3.8-1-5.7-1.8c-1.6-0.6-3-1.5-4.5-2.3l-0.3-0.2h0l-0.2-0.1l-0.2-0.1c0,0-0.1-0.1-0.1-0.1l0,0c-2.5-1.7-4.9-3.6-7.1-5.6
		c-1.3-1.4-2.6-2.9-4.1-4.1c0-0.3,0-0.4,0.3-0.4c3.3-0.1,6.2-1.4,9.3-2.4c0.7-0.3,1.5-0.5,2.2-0.8l0,0c0.1,0,0.3-0.1,0.4-0.2
		c1.4-0.2,2.6-0.8,4-1.2c2.2-0.5,4.4-0.8,6.5,0.3c1.1,0.6,2.2,1.2,3.2,1.9c1.7,1,3.6,1.6,5.6,1.7c3.2,0.3,6.1-0.6,8.8-2.3
		c1.9-1.2,3.9-2.4,6.3-2c1.3,0.2,2.6,0.5,3.9,0.8L96.7,30.2C96.7,30.2,96.7,30.2,96.7,30.2L96.7,30.2z"/>
	<path class="st0" d="M98.7,41.8l4.7-4.2c0.3,0.6,0.9,0.6,1.4,0.8c2.8,0.8,5.5,1.8,8,3.3c1.3,0.8,2.6,1.7,3.5,3.1
		c1.2,1.9,1,3.9-0.5,5.6c-2,2.1-4.5,3.3-7.1,4.4c-4.5,1.8-9.3,2.7-14.1,3.6c-2.3,0.4-4.7,0.6-7,0.8c-2.8,0.2-5.6,0.4-8.4,0.5
		c-2.1,0.1-4.1,0.2-6.2,0.1c-3.2-0.2-6.3-0.2-9.5-0.5c-3.2-0.3-5.9-0.6-8.9-1.1c-4.7-0.8-9.3-2-13.7-3.9c-2.1-0.9-3.9-2-5.5-3.7
		c-2-2-2-4.5,0-6.6c2.2-2.4,5.1-3.5,8.1-4.7c0.9-0.3,1.8-0.6,2.7-0.9c0.3-0.1,0.5-0.1,0.6-0.4c2.3,2,4.6,3.9,7.1,5.6
		c-0.6,0.2-1,0.7-1.4,1.1C52,45,51,45.7,50.9,46.8c-0.1,1.5,0.7,2.5,1.8,3.2c2.3,1.6,4.9,2.3,7.6,3c0.8,0.2,1.6-0.1,2.3,0.3
		c3.6,2.1,7.6,3,11.7,3.3c3.1,0.2,6.2-0.1,9.3-0.7c1.9-0.4,3.7-1.5,5.7-1.2h0.1c2.8-0.5,5.6-1.1,8.3-2.2c1.9-0.7,3.8-1.5,5.2-3.1
		c1.4-1.5,1.3-3.2,0-4.6c-0.7-0.7-1.5-1.3-2.3-1.8C99.8,42.6,99,42.7,98.7,41.8z"/>
	<path class="st4" d="M106.9,34c0-0.1,0.1-0.2,0.2-0.2C107.1,34,107,34,106.9,34z"/>
	<path class="st4" d="M54.8,30c-0.1,0.1-0.2,0.2-0.4,0.2C54.5,30,54.6,30,54.8,30z"/>
	<path class="st4" d="M96.7,30.2C96.7,30.2,96.6,30.2,96.7,30.2l0-0.1L96.7,30.2z"/>
	<path class="st1" d="M29.8,12.4L29.8,12.4L29.8,12.4L29.8,12.4z"/>
	<path class="st1" d="M29.7,12.4l0.2-0.2l0,0L29.7,12.4L29.7,12.4z"/>
	<path class="st2" d="M33.7,8.4c0-0.3,0.2-0.3,0.5-0.3C34.1,8.3,33.9,8.5,33.7,8.4z"/>
	<path class="st0" d="M98.7,41.8c0.4,0.8,1.3,0.8,1.9,1.3c0.6,0.4,1.6,1.1,2.3,1.8c1.3,1.3,1.3,3.2,0,4.6c-1.3,1.3-3.3,2.3-5.2,3.1
		c-2.7,1-5.5,1.6-8.3,2.2h-0.1c-2.1-0.3-3.8,0.8-5.7,1.2c-3.1,0.6-6.2,0.9-9.3,0.7c-4.1-0.3-8.1-1.2-11.7-3.3
		c-0.7-0.4-1.5-0.1-2.3-0.3c-2.7-0.7-5.3-1.4-7.6-3c-1.1-0.8-1.9-1.7-1.8-3.2c0.1-1.1,0.8-1.6,1.5-2.2c0.6-0.6,0.8-0.9,1.4-1.1l0,0
		v0.1l0.1,0l0.2,0.1c0,0.1,0.1,0.1,0.2,0.1h0c0,0.2,0.2,0.2,0.3,0.2c1.5,0.8,2.9,1.7,4.5,2.3c1.8,0.7,3.7,1.3,5.7,1.8
		c6.1,1.4,12.4,1.5,18.6,0.4c4.8-0.9,9.4-2.8,13.5-5.6C97.4,42.6,98.1,42.2,98.7,41.8z"/>
	<path class="st3" d="M54.6,44.1c-0.2,0-0.3,0-0.3-0.2L54.6,44.1z"/>
	<path class="st3" d="M53.9,43.6L53.9,43.6L53.9,43.6C53.9,43.5,53.9,43.6,53.9,43.6z"/>
	<path class="st3" d="M54.3,43.9c-0.1,0-0.2,0-0.2-0.1L54.3,43.9z"/>
	<path class="st6" d="M110.1,7.3c-1.1-2.6-5.5-4.7-11-5.1c-2.6-0.2-5.2-0.1-7.8,0.3"/>
	<path class="st6" d="M63.7,64.4c-8.5,4.2-19.6,1.9-28-5.6c-5.1-4.5-7.9-9.8-9.2-12.9"/>
</g>
</svg>
