<svg id="Layer_1" data-name="Layer 1" xmlns="http://www.w3.org/2000/svg" width="960" height="480" viewBox="0 0 960 480">
  <defs>
    <style>
      .cls-1 {
        fill: #fefdfe;
      }

      .cls-2 {
        fill: #bf1324;
      }

      .cls-3 {
        fill: #e4005b;
      }

      .cls-4 {
        fill: #c6004f;
      }

      .cls-5 {
        fill: #d30054;
      }

      .cls-6 {
        fill: #b7014a;
      }

      .cls-7 {
        fill: #fc3a3b;
      }
    </style>
  </defs>
  <title>Artboard 1</title>
  <g>
    <path class="cls-1" d="M481,481H5.5c-3.7,0-4.6-.8-4.6-4.6Q1.1,241,.9,5.5C.9,1.8,1.8.9,5.5.9q475.5.2,951,0c3.7,0,4.6.8,4.6,4.6q-.2,235.5,0,471c0,3.7-.8,4.6-4.6,4.6ZM783.3,102.8l-1-1.1h.1l-1-1.1v.2l.2-.2-.9-1.1h-.3l.3-.2-.9-1h0L778,97l-1.9-2c-.2-.6-.4-1-1.1-.9l-2.9-3c.2-.7-.2-1.1-.8-1.3h.1l-1-1.1-.2.3.2-.3-.9-1.1h0l-.9-1h0L767,85a7,7,0,0,0-2.8-3c-.2-.6-.5-1-1.2-.9l-2.9-3c.2-.7-.2-1.1-.9-1.3h.1l-1.1-1.1h.1l-1-1.1h.1l-1.9-2.1-.3.2.3-.2L754,71a31.8,31.8,0,0,0-6.8-7.1c-.9-1.3-1.6-2.8-3.5-2.9l-.7-.8V60c.2-.7-.3-1-.9-1.2a19.4,19.4,0,0,0-5-4.8l-1.5-1.5h-.1l-1-.9h0l-1.1-.9h.1l-1.2-1h.1c-.2-.6-.6-1-1.3-.8-10.8-9.5-21.4-19.3-34.9-25-2.1-2.5-5.1-3.4-8-4.4A8.1,8.1,0,0,0,684,18a4.1,4.1,0,0,0-2.9-1.3c-11.5-5-23.6-7-36.1-7.7-7.7-1.2-15.4-.8-23,0h-5a213.3,213.3,0,0,0-43.5,5.9c-30,7-57.3,19.4-79.1,42a103.5,103.5,0,0,0-17.4,24.5c-1.8-2.9-3.2-5.3-4.7-7.6-14.3-21-33.8-35.5-56.6-46.1-18.5-8.6-38-13-58.2-16.2A284.2,284.2,0,0,0,315,8.2h-4c-4-.2-8.1-.3-12,.8a40.5,40.5,0,0,0-4.5.2c-33.3,4.8-60.7,21-84.7,43.7h.1l-1.2,1.1-.8.7-1.2,1.2h.1l-1.1,1.1h.1l-1.1,1.1h.1l-1.1,1h.1l-1.1,1h.5l-.5-.2-1,1h0l-1,1h.4l-.4-.2-1,1v0l-1,1,.2.3-.2-.3-1,1v.2l-.2-.2-.9.9h-.1l-.9.9h-.1l-.9.9h-.1l-.9,1,.2.2-.2-.2-.9,1,.3.2-.3-.3-1,1.1h.3l-.2-.2-2,2.1h.1l-1,1.1h.1l-1.1,1.1h.1l-1.1,1.1h.1l-1.1,1.1h.1l-1.2,1.2A226.9,226.9,0,0,0,166,98a3.4,3.4,0,0,0-1.9,2.1h-.1l-1.5,1.6h.1l-1.1,1.1h.1l-1.1,1.1h.1l-1.1,1.1h.1l-1.1,1.1h.1l-1.1,1.1h.1l-1.1,1.1-.9,1-1.9,2-1.5,1.6h-.1a.5.5,0,0,0-.4.5c-14.6,14.4-28,30-44.5,42.3h0l-1.7,1.5-8.5,6C76.1,178,52.9,188.3,27.2,192.5c-7.8,1.3-15.7,1.7-23.8,2.5,30.1,10.4,53.6,29.8,74.2,53.2l1.1,1.2h-.2l1.4,1.7,1.8,2.1,2.9,4c8,10.6,16.4,20.9,24,31.7s14.9,21.8,23.1,32.3l1,1.3h-.1a.6.6,0,0,0,.5.6,42.9,42.9,0,0,0,6.8,9c.4,1.6,1.8,2.3,3,3.1,4.7,8.5,11.8,15.1,17.9,22.6,10.4,12.8,22.5,24,35,34.6,10.4,8.8,21,17.3,33.2,23.6,5,3.1,9.9,6.5,15,9.4,39.1,21.5,81.4,33.6,125.2,40.7s87.8,8.9,132,7.8,89.1-5.5,132.5-16.9c31.6-8.3,61.7-19.9,89.4-37.4,13.8-9.4,27.6-19,39.8-30.5.8.2,1.1-.2,1.3-.8h-.1l1.1-1.1h-.1l1.1-1.1h-.1l1.1-1h0l1.1-1-.4-.2.4.2,1-1-.2-.4.2.4,1-1-.2-.3.2.3,1-.9h.1l.9-.9h.1L774,379l2-2,1.5-1.5h0l.9-1-.2-.3.3.2.9-1-.3-.2.3.2,1-1.1-.2-.2.2.2,1-1.1h-.1l1-1.1h-.1c.6-.2,1.1-.6.9-1.4l1.9-2.4c.8-.4,2-.2,2.2-1.5l.8-1c10.1-9.9,17.6-21.9,26-33.1,6.3-8.4,12.9-16.7,18.2-25.8l34.4-44.6h0l.8-1h0l.9-1.1h-.1l1-1.2h-.1l1.1-1.2a14,14,0,0,0,1.5-1.3c23.5-27.2,51.6-47.9,86-59.4.5-.2,1.3-.3,1.1-1.4-22.8,0-45-3.3-66.6-10.9-18-6.3-34.5-15.6-50.3-26.1l-2.1-1.5-.4-.3L813,133l-1.5-1.5h0l-1.1-1-.2.3.2-.2-1.1-1h.1l-1.1-1h.1l-1.1-1.1h.1l-1.1-1.1h.1l-1.1-1.1h.1l-1.1-1.1h.1l-1.1-1.1h.1l-1.1-1.1h.1l-1.1-1.1h.1l-1.1-1.1h.1l-1.1-1.1h.1l-1.1-1.1h.1l-1.1-1.1h.1l-1-1.1h0a44.3,44.3,0,0,0-7.2-7.6l-1.1-1.1-.9-.9-1.1-1.1h.1l-1.1-1.1h.1l-1.1-1.1h.1l-1.1-1.1Z"/>
    <path class="cls-2" d="M832.2,305.1c-5.3,9.1-11.8,17.4-18.2,25.8-8.5,11.2-15.9,23.2-26,33.1-.2-5.7-.4-5.9-5.1-3.5-21.8,10.7-44.8,18.4-68.1,25.1-8.2,2.4-16.6,5.2-24.8,6.4s-15,3.8-22.8,4.7-13.2,2.4-19.7,3.8a102.7,102.7,0,0,1-18.9,2.4c-6.9.2-13.6,2.4-20.6,2.7-3.2.1-7.2-.6-10.2.9-5,2.5-10.5,1.6-15.4,1.8s-12.1,3.3-18.2.8a2.2,2.2,0,0,0-1.8.6c-2.5,2.2-5.4,1.6-8,.9a16.7,16.7,0,0,0-7.4-.4c-10,2.1-20.2,1.3-30.3,1.6-30.4.8-60.9.7-91.3-.8-5.3-.3-10.5-1.5-15.8,0a3.6,3.6,0,0,1-2.9-.4c-2.7-2.3-5.6-1.6-8.5-1.1-1.1.2-2.4.8-3.4.5a55.2,55.2,0,0,0-21.7-2.1,3.5,3.5,0,0,1-1.8-.4c-4.2-2.3-9.1-1.5-13.5-1.8s-8.4-.5-11.5-1.3c-8.1-2.1-16.3-2.3-24.4-3.7-6.6-1.2-13.5-2.1-19.9-3.4-10.1-2.1-20.3-4.2-30.3-6.6-25.2-6.1-50.1-13.2-73.8-23.7-18.7-8.3-37.1-17.6-50.9-33.4-6.6-7.6-11.5-16.8-10.7-27.1s7.1-21.1,15.4-28.8c15-13.7,32.9-22.8,51.5-30.6,21.5-8.9,43.9-15.2,66.4-20.9,2-.5,4.4-.6,5.4-3,9.8,7.5,17.9,16.7,26.1,25.9-.6,1.9-2.4,2.1-3.9,2.7-5.8,1.9-11.8,3.6-17.5,5.8-18.6,7.2-37,14.8-51.3,29.7-12.5,13.1-12.6,28.9,0,42,10,10.4,21.9,17.6,35,23.3,28,12.1,57.5,19.3,87.4,24.7,18.7,3.4,37.6,5.4,56.5,7.3s40.3,2.6,60.5,3.5c13.1.6,26.2.1,39.4-.5,17.9-.8,35.7-1.7,53.6-3.2,15-1.2,30-2.8,44.8-5.4,30.5-5.3,61-11.2,89.9-22.8,16.6-6.6,32.4-14.5,45-27.8,9.8-10.5,11.2-23.5,3.4-35.5-5.6-8.6-13.6-14.5-22.2-19.7-15.9-9.6-33.1-16.2-50.9-21.2-3.2-.9-7.1-1-8.9-4.8.5-1.9,2.6-1.9,3.7-3,6.4-6.4,11.4-14.1,18.5-19.9.8-.2,1.7-.3,1-1.4h.1c2.7,1.2,5.4,2.7,8.2,3.4,18.8,4.7,37.6,9.4,55.7,16.3S783.5,256,799,266.6c13.3,9.1,25.4,19.4,29,36.3C828.6,305.6,830.6,304.8,832.2,305.1Z"/>
    <path class="cls-2" d="M617,9.2h5a54.5,54.5,0,0,0,23,0c12.4.7,24.5,2.7,36.1,7.7.6,1.3,1.4,2.2,2.9,1.3a8.1,8.1,0,0,1,4.1,1.7c2,2.6,5,3.5,8,4.4,13.5,5.6,24.1,15.4,34.9,25l1.3.8h-.1a1,1,0,0,0,1.2,1h-.1c0,.8.4,1.1,1.1.9h0c-.1.8.2,1.1,1,.9h.1c-.3,1.3.6,1.4,1.5,1.5a19.4,19.4,0,0,1,5,4.8l.9,1.2v.2l.7.8c1.9.1,2.6,1.6,3.5,2.9-2.4.8-3.7,2.6-4.4,5a34.7,34.7,0,0,1-2.8,6.9c-8.3,15.5-20.5,27.7-34.3,38.2-21.1,16.1-44.9,27.1-69.8,35.7-23,8-46.7,13.4-70.8,17.4a501.7,501.7,0,0,1-70.1,6.6c-26.9.7-53.7-.2-80.4-3.8-17.1-2.3-34-4.7-50.8-8.7-31.1-7.4-61.2-17.6-89.2-33.5-19.6-11.2-36.4-25.3-49.7-43.5C221,79,217,73.5,223,67c11.1-8.3,23.5-14.1,35.8-20.3a238.5,238.5,0,0,1,49.9-18.3c4.1-1,8.2-3.2,14.3-1.5-4.9,2.1-6,5.7-6.8,9.2-2.4,11.1.5,21.3,6.2,30.8,8.6,14.2,21.6,23.7,36,31.2,34.3,17.8,71.4,23.9,109.4,25.7a248.8,248.8,0,0,0,32.4-.6c12.2-1,24.4-2,36.4-4.3,24.8-4.6,48.7-11.5,70.6-24.6,14.3-8.5,26.4-18.9,33.3-34.5,4.2-9.5,6-27-4-36.1.8-1.6,2.9,0,3.9-2.2L630,19c-5-1.2-10.3-.7-15.1-2.6-1.9-.7-3.4-2.1-3.4-4s2.2-1.2,3.5-1.4A2.1,2.1,0,0,0,617,9.2Z"/>
    <path class="cls-2" d="M275,222.9c-1,2.4-3.5,2.5-5.4,3-22.5,5.7-44.9,11.9-66.4,20.9-18.7,7.8-36.6,16.9-51.5,30.6-8.3,7.6-14.6,17.2-15.4,28.8s4.1,19.5,10.7,27.1c13.8,15.8,32.1,25.1,50.9,33.4,23.7,10.5,48.6,17.6,73.8,23.7,10.1,2.4,20.3,4.5,30.3,6.6,6.4,1.3,13.4,2.3,19.9,3.4,8.1,1.4,16.3,1.7,24.4,3.7,3.1.8,7.7,1,11.5,1.3s9.3-.6,13.5,1.8a3.5,3.5,0,0,0,1.8.4,55.2,55.2,0,0,1,21.7,2.1c1,.3,2.3-.3,3.4-.5,2.9-.5,5.9-1.2,8.5,1.1a3.6,3.6,0,0,0,2.9.4c5.3-1.5,10.5-.3,15.8,0,30.4,1.5,60.9,1.6,91.3.8,10-.3,20.2.5,30.3-1.6a16.7,16.7,0,0,1,7.4.4c2.7.7,5.6,1.3,8-.9a2.2,2.2,0,0,1,1.8-.6c6.1,2.6,12.2-.5,18.2-.8s10.4.7,15.4-1.8c3-1.5,7-.8,10.2-.9,7-.3,13.7-2.5,20.6-2.7a102.7,102.7,0,0,0,18.9-2.4c6.5-1.4,13.3-3.1,19.7-3.8s15.1-3.5,22.8-4.7,16.6-4,24.8-6.4c23.3-6.7,46.3-14.4,68.1-25.1,4.7-2.3,4.8-2.2,5.1,3.5l-.8,1c-1.1-.1-2,.2-2.2,1.5l-1.9,2.4-.9,1.4h.1a1,1,0,0,0-1,1.1h.1c-.7,0-1.1.4-1,1.1l-.2-.2.2.2c-.8,0-1.1.3-1,1.1l-.3-.2.3.2c-.8-.1-1.1.2-.9,1l-.3-.2.2.3c-.8-.1-1.1.2-.9,1h0c-1.3-.3-1.4.6-1.5,1.5l-2,2c-.9.1-1.8.2-1.5,1.5h-.1c-.8-.2-1.1.1-.9.9h-.1c-.8-.2-1.1.1-1,.9l-.2-.3.2.3q-1.2-.2-1,1l-.2-.4.2.4c-.8-.1-1.1.2-1,1l-.4-.2.4.2c-.8-.1-1.1.3-1.1,1h0c-.7-.1-1.1.3-1.1,1h.1a.9.9,0,0,0-1.1,1.1h.1a1,1,0,0,0-1.1,1.1h.1l-1.3.8c-12.2,11.5-26,21.1-39.8,30.5-2.3-4.5-6.1-1.6-8.7-1.1-24.5,5-49.2,8.3-74,11.4-17.2,2.2-34.5,3.7-51.8,5s-35.7,2.8-53.6,3c-41.6.3-83.2,1-124.8-1-6.1-.3-12.3-.2-18.4-.9-17.2-2-34.6-2.8-51.9-4.7-15-1.6-29.9-3.3-44.8-5.5-20.8-3-41.6-6-61.9-11.4-1.6-.4-3.8-1.2-4.4,1.6-12.2-6.2-22.8-14.8-33.2-23.6-12.6-10.6-24.7-21.8-35-34.6-6-7.5-13.2-14.1-17.9-22.6.3-2.3-.7-3.4-3-3.1a42.9,42.9,0,0,1-6.8-9l.3-.7h-.7a1.2,1.2,0,0,0-1-1.3c-8.1-10.4-15.5-21.4-23.1-32.3s-15.9-21.2-24-31.7l-2.9-4c3.2.3,5.8-1.2,8.4-2.8s6.8-4.1,10.3-6c31.4-16.6,65-27.5,99.3-36.4l22.2-5.4c1-.2,2.7-.1,2.6-1.8s-1.2-2-2.3-2.4l-3.3-1.1c-13.9-3.9-28.1-5.9-42.4-7.1-7.4-.6-15-1.5-21.6-4.7-14-6.8-27-15.5-39.6-24.7-2.5-1.8-4.2-4.9-7.7-5.1,16.5-12.3,29.9-27.9,44.5-42.3l.7.2-.3-.7h.1c1.3.2,1.4-.6,1.5-1.6l1.9-2c6.8,7,13.4,14.2,20.9,20.5,21,17.5,44.6,30.5,69.5,41.5a389.5,389.5,0,0,0,65,22.1c12.7,3.1,25.1,9.4,38.9,6.4-4.6,1.8-9.2,3.7-14,5.2-19.4,6.4-38.3,14.4-59.1,15.4C274.9,220.2,274.7,221.2,275,222.9Z"/>
    <path class="cls-2" d="M350.2,199.5c-13.8,3-26.1-3.3-38.9-6.4a389.5,389.5,0,0,1-65-22.1c-24.9-10.9-48.5-23.9-69.5-41.5-7.6-6.3-14.1-13.5-20.9-20.5l.9-1,1.1-1.1h-.1l1.1-1.1h-.1l1.1-1.1h-.1a1.2,1.2,0,0,0,1.1-1.1h-.1a1.1,1.1,0,0,0,1.1-1.1h-.1a1,1,0,0,0,1.1-1.1h-.1c1.1,0,1.3-.7,1.5-1.6h.1A1.8,1.8,0,0,0,166,98a226.8,226.8,0,0,1,18.6-20.1l1.2-1.2h-.1a1.1,1.1,0,0,0,1.1-1.1h-.1a1.1,1.1,0,0,0,1.1-1.1h-.1a1,1,0,0,0,1.1-1.1h-.1a1,1,0,0,0,1-1.1h-.1c1.4,0,2.2-.6,2-2.1l.2.2h-.3c.8.1,1.1-.3,1-1.1l.3.3-.3-.2c.8.1,1.1-.2.9-1l.2.2-.2-.2c.8.2,1.1-.1.9-1h.1q1.2.3.9-.9h.1c.8.2,1.1-.1.9-.9h.1c.8.2,1.1-.1.9-.9l.2.2v-.2c.8.2,1.1-.2,1-1l.2.3-.2-.3c.8.2,1.1-.2,1-1v0c.8.1,1.1-.2,1-1l.4.2h-.4c.8.1,1.1-.2,1-1h0q1.2.2,1-1l.5.2h-.5c.8.1,1.1-.2,1.1-1h-.1a.9.9,0,0,0,1.1-1h-.1a1,1,0,0,0,1.1-1.1h-.1a1.1,1.1,0,0,0,1.1-1.1h-.1a1.3,1.3,0,0,0,1.2-1.2l.8-.7,1.2-1.1h-.1c2.7-.2,3.1,1.6,3.5,3.6s1.2,5,4.6,4.5c-.7,3.4-4,4.1-6.1,6-6.2,5.7-12.6,11.3-18,17.9l-1,1-.4.5.5-.4,1-1c2.8-.6,4.8-2.7,7.1-4.2C208.4,76.2,215.3,71,223,67c-6,6.5-2,11.9,1.9,17.3,13.3,18.2,30.2,32.4,49.7,43.5,28,15.9,58.1,26.1,89.2,33.5,16.7,4,33.7,6.5,50.8,8.7,26.7,3.5,53.6,4.4,80.4,3.8a501.7,501.7,0,0,0,70.1-6.6c24.1-4,47.8-9.4,70.8-17.4,24.9-8.7,48.7-19.6,69.8-35.7,13.8-10.6,26-22.7,34.3-38.2a34.7,34.7,0,0,0,2.8-6.9c.7-2.5,1.9-4.2,4.4-5A31.8,31.8,0,0,1,754,71c.1.9.2,1.8,1.5,1.5l-.3.2.3-.2c-.3,1.5.5,2.2,1.9,2.1h-.1a.9.9,0,0,0,1,1.1h-.1a1,1,0,0,0,1.1,1.1h-.1l.9,1.3,2.9,3,1.2.9a7,7,0,0,1,2.8,3c.1.9.2,1.8,1.5,1.5h0c-.2.8.1,1.1.9,1h0c-.2.8.2,1.1.9,1.1l-.2.3.2-.3a.9.9,0,0,0,1,1.1h-.1l.8,1.3,2.9,3,1.1.9,1.9,2c.1.9.2,1.8,1.5,1.5h0c-.2.8.1,1.1.9,1l-.3.2h.3c-.1.8.2,1.1.9,1.1l-.2.2v-.2a.9.9,0,0,0,1,1.1h-.1a1,1,0,0,0,1,1.1h-.1a1.1,1.1,0,0,0,1.1,1.1h-.1a1.1,1.1,0,0,0,1.1,1.1h-.1l1.1,1.1h-.1l1.1,1.1.9.9,1.1,1.1a44.3,44.3,0,0,1,7.2,7.6c-2.2.5-4.4.9-6.2,2.7-17.1,17.4-37.5,30-58.9,41a403.6,403.6,0,0,1-69.4,27.3c-14.1,4.2-28.5,7.2-42.3,12h0v-.8l-.6.6-22.8-5.9c-8.2-2.1-16.5-4-24.9-5.4-15.6-2.5-28,5.1-40.3,12.6-17.3,10.6-35.5,16.4-56.1,14.6a81.7,81.7,0,0,1-35.4-11.1c-6.8-4-13.5-8.2-20.5-11.8-13.5-7-27.4-4.8-41.4-1.6-8.5,2-16.5,5.9-25.2,7.4-1-.1-2,0-2.3,1.3Z"/>
    <path class="cls-2" d="M193.9,84.9c5.3-6.6,11.7-12.2,18-17.9,2.1-1.9,5.5-2.6,6.1-6h0a3.1,3.1,0,0,0,3-2c1.4-.9,2.8-1.7,4.2-2.7C235.4,48.6,245.7,41.2,257,35c21-11.5,43.5-17.1,67.5-15.8.7-1.9-2.4-3.3-.5-5.1s3.6-1.3,5-4.1h-10c-1.5,0-3.5.7-4-1.8a284.2,284.2,0,0,1,42.6,3.5c20.1,3.1,39.7,7.6,58.2,16.2,22.8,10.6,42.4,25,56.6,46.1,1.6,2.3,2.9,4.7,4.7,7.6a103.5,103.5,0,0,1,17.4-24.5c21.8-22.6,49.1-35,79.1-42A213.3,213.3,0,0,1,617,9.2a2.1,2.1,0,0,1-2,1.9c-1.3.2-3.5-.9-3.5,1.4s1.5,3.2,3.4,4c4.9,1.9,10.2,1.3,15.1,2.6l10.5,2.7c-1,2.2-3.2.6-3.9,2.2,10,9.1,8.2,26.6,4,36.1-6.9,15.6-19.1,26-33.3,34.5-21.9,13-45.8,20-70.6,24.6-12,2.2-24.2,3.3-36.4,4.3a248.8,248.8,0,0,1-32.4.6c-38-1.9-75.2-7.9-109.4-25.7-14.4-7.5-27.4-17-36-31.2-5.8-9.5-8.6-19.7-6.2-30.8.8-3.5,1.9-7.1,6.8-9.2-6.1-1.7-10.3.5-14.3,1.5a238.5,238.5,0,0,0-49.9,18.3c-12.2,6.1-24.7,12-35.8,20.3-7.7,4-14.6,9.2-21.8,13.9-2.3,1.5-4.3,3.6-7.1,4.2Z"/>
    <path class="cls-2" d="M619.5,199.6c13.9-4.8,28.3-7.8,42.3-12a403.6,403.6,0,0,0,69.4-27.3c21.4-11,41.9-23.7,58.9-41,1.8-1.9,4-2.2,6.2-2.7h0a.9.9,0,0,0,1,1.1h-.1a1,1,0,0,0,1.1,1.1h-.1a1,1,0,0,0,1.1,1.1h-.1a1,1,0,0,0,1.1,1.1h-.1a1,1,0,0,0,1.1,1.1h-.1a1,1,0,0,0,1.1,1.1h-.1a1,1,0,0,0,1.1,1.1h-.1a1,1,0,0,0,1.1,1.1h-.1a1,1,0,0,0,1.1,1.1h-.1a1,1,0,0,0,1.1,1.1h-.1a1,1,0,0,0,1.1,1.1h-.1a1,1,0,0,0,1.1,1.1h-.1a.9.9,0,0,0,1.1,1h-.1c0,.8.4,1.1,1.1,1l-.2.2.2-.3c-.1.8.3,1.1,1.1,1h0c-.2,1.3.6,1.4,1.5,1.5l26.5,22.1a11.7,11.7,0,0,1-5.7,7.7c-6.1,3.7-12,7.7-17.9,11.7-8.9,5.9-18.3,10.9-29,12.3s-19.7,2.3-29.4,4.2c-12.2,2.4-24.4,4.8-35.7,10.2-1.4.7-3.5,1.1-3.4,3.2s2.4,2.1,3.8,2.4a554.7,554.7,0,0,1,83.1,23.4,314.7,314.7,0,0,1,42.5,19.5c6.4,3.5,11.7,8.9,18.9,10.8l-34.4,44.6c-1.6-.3-3.7.5-4.3-2.2-3.6-16.9-15.6-27.1-29-36.3-15.4-10.6-32.5-17.9-49.9-24.5s-36.9-11.6-55.7-16.3c-2.8-.7-5.5-2.3-8.2-3.4l7.9-7.5C666.9,213.4,643.3,206.2,619.5,199.6Z"/>
    <path class="cls-2" d="M229,415.9c.7-2.8,2.8-2,4.4-1.6,20.4,5.4,41.2,8.4,61.9,11.4,14.9,2.2,29.8,3.9,44.8,5.5,17.3,1.9,34.6,2.7,51.9,4.7,6.1.7,12.2.7,18.4.9,41.6,2,83.2,1.3,124.8,1,17.9-.1,35.7-1.6,53.6-3s34.6-2.9,51.8-5c24.7-3.1,49.5-6.4,74-11.4,2.6-.5,6.4-3.5,8.7,1.1-27.7,17.5-57.9,29.1-89.4,37.4-43.4,11.4-87.8,15.8-132.5,16.9s-88.3-.7-132-7.8S283.2,446.8,244,425.2C238.9,422.4,234,419,229,415.9Z"/>
    <path class="cls-2" d="M866.7,260.5c-7.2-1.9-12.5-7.3-18.9-10.8a314.7,314.7,0,0,0-42.5-19.5,554.7,554.7,0,0,0-83.1-23.4c-1.4-.3-3.7-.2-3.8-2.4s2-2.5,3.4-3.2c11.3-5.4,23.5-7.8,35.7-10.2,9.7-1.9,19.6-2.9,29.4-4.2s20.1-6.4,29-12.3c5.9-3.9,11.9-7.9,17.9-11.7a11.7,11.7,0,0,0,5.7-7.7l.4.3A2,2,0,0,0,842,157c15.8,10.5,32.3,19.8,50.3,26.1,21.6,7.6,43.9,10.9,66.6,10.9.3,1.1-.5,1.2-1.1,1.4-34.4,11.5-62.5,32.2-86,59.4a14,14,0,0,1-1.5,1.3,1.3,1.3,0,0,0-1.1,1.2h.1a1,1,0,0,0-1,1.2h.1c-.8,0-1.1.4-.9,1.1h0c-.8-.1-1.1.2-.8,1Z"/>
    <path class="cls-2" d="M107.5,155.4c3.5.3,5.2,3.3,7.7,5.1,12.6,9.2,25.6,17.9,39.6,24.7,6.6,3.2,14.2,4.1,21.6,4.7,14.3,1.2,28.6,3.2,42.4,7.1l3.3,1.1c1.1.5,2.2,1.2,2.3,2.4s-1.6,1.5-2.6,1.8l-22.2,5.4c-34.3,8.9-67.9,19.7-99.3,36.4-3.5,1.9-6.9,4-10.3,6s-5.2,3-8.4,2.8L80,250.9c-.1-.9-.3-1.7-1.4-1.7h.2a1.3,1.3,0,0,0-1.1-1.2C57,224.8,33.5,205.4,3.4,195c8.1-.7,16-1.2,23.8-2.5,25.8-4.2,48.9-14.5,70.1-29.6l8.5-6c1,0,1.9-.1,1.7-1.5Z"/>
    <path class="cls-2" d="M320.2,7.2c.6,2.6,2.7,1.8,4.3,1.9H335c-1.5,3-3.9,3-5.3,4.4s1.2,3.4.5,5.4c-25.4-1.4-49.2,4.6-71.5,16.7C246.8,42,235.8,49.9,225,58c-1.4,1-2.9,1.9-4.4,2.8s-3.1,0-3.2,2.1h0c-3.6.5-4.3-2.2-4.9-4.7s-.9-4.1-3.7-3.8c25.5-24,54.5-41.1,89.8-46.2a43.1,43.1,0,0,1,4.7-.2c4.3,1.2,8.7,2.8,12.7-.8Z"/>
    <path class="cls-3" d="M645,9a54.5,54.5,0,0,1-23,0C629.7,8.2,637.3,7.8,645,9Z"/>
    <path class="cls-3" d="M311,8.2c-3.8,3.4-7.9,1.9-12,.8C302.9,7.9,307,8,311,8.2Z"/>
    <path class="cls-3" d="M696.1,24c-3-.9-6-1.7-8-4.4C691,20.6,694,21.5,696.1,24Z"/>
    <path class="cls-4" d="M139.9,332c2.4-.3,3.3.8,3,3.1C141.8,334.3,140.4,333.6,139.9,332Z"/>
    <path class="cls-5" d="M785,366.6c.2-1.3,1-1.6,2.2-1.5S785.8,366.2,785,366.6Z"/>
    <path class="cls-3" d="M684,18c-1.6,1-2.3,0-2.9-1.3A4.1,4.1,0,0,1,684,18Z"/>
    <path class="cls-3" d="M757.4,74.6c-1.5,0-2.2-.6-1.9-2.1Z"/>
    <path class="cls-5" d="M191.6,70.5c.2,1.5-.6,2.1-2,2.1Z"/>
    <path class="cls-5" d="M166,98a1.8,1.8,0,0,1-1.9,2.1A3.4,3.4,0,0,1,166,98Z"/>
    <path class="cls-6" d="M842,157a2,2,0,0,1-2.1-1.5Z"/>
    <path class="cls-6" d="M78.6,249.2c1.1,0,1.3.8,1.4,1.7Z"/>
    <path class="cls-6" d="M107.5,155.5c.2,1.4-.8,1.4-1.7,1.5Z"/>
    <path class="cls-4" d="M813,133c-.9-.1-1.8-.3-1.5-1.5Z"/>
    <path class="cls-4" d="M154,111c-.1.9-.2,1.8-1.5,1.6Z"/>
    <path class="cls-5" d="M164.1,100.1c-.1.9-.4,1.6-1.5,1.6Z"/>
    <path class="cls-3" d="M779.5,98.5c-1.3.3-1.4-.6-1.5-1.5Z"/>
    <path class="cls-5" d="M776,377c.1-.9.2-1.8,1.5-1.5Z"/>
    <path class="cls-3" d="M768.5,86.4c-1.3.3-1.4-.6-1.5-1.5Z"/>
    <path class="cls-5" d="M772.6,380.5c-.4-1.3.5-1.4,1.5-1.5Z"/>
    <path class="cls-3" d="M755.5,72.5c-1.3.3-1.4-.6-1.5-1.5Z"/>
    <path class="cls-3" d="M737,54c-.9-.1-1.8-.2-1.5-1.5Z"/>
    <path class="cls-5" d="M203.6,58.6c0,.8-.3,1.1-1.1,1Z"/>
    <path class="cls-6" d="M866.6,260.5c-.3-.8,0-1.1.8-1Z"/>
    <path class="cls-6" d="M867.5,259.5c-.2-.8.2-1.1.9-1.1Z"/>
    <path class="cls-6" d="M868.3,258.4a1,1,0,0,1,1-1.2Z"/>
    <path class="cls-6" d="M869.2,257.3a1.3,1.3,0,0,1,1.1-1.2Z"/>
    <path class="cls-3" d="M742.9,60l-.9-1.2C742.7,59,743.1,59.3,742.9,60Z"/>
    <path class="cls-6" d="M77.7,248.1a1.3,1.3,0,0,1,1.1,1.2Z"/>
    <path class="cls-5" d="M202.6,59.5q.2,1.2-1,1Z"/>
    <path class="cls-3" d="M743.7,61l-.7-.8Z"/>
    <path class="cls-5" d="M201.5,60.5c.1.8-.2,1.1-1,1Z"/>
    <path class="cls-5" d="M200.5,61.5c.1.8-.2,1.1-1,1Z"/>
    <path class="cls-3" d="M732.3,49.7,731,49C731.7,48.7,732.1,49.1,732.3,49.7Z"/>
    <path class="cls-5" d="M199.5,62.5c.1.8-.2,1.1-1,1Z"/>
    <path class="cls-5" d="M198.5,63.5c.2.8-.1,1.1-1,1Z"/>
    <path class="cls-3" d="M734.4,51.5c-.8.2-1.1-.2-1.1-.9Z"/>
    <path class="cls-5" d="M197.5,64.5c.2.8-.1,1.1-.9.9Z"/>
    <path class="cls-5" d="M196.4,65.5c.2.8-.1,1.1-.9.9Z"/>
    <path class="cls-4" d="M811.5,131.5c-.8.1-1.1-.2-1.1-1Z"/>
    <path class="cls-4" d="M810.4,130.6c-.8.1-1.1-.3-1.1-1Z"/>
    <path class="cls-4" d="M809.4,129.7a.9.9,0,0,1-1.1-1Z"/>
    <path class="cls-4" d="M808.4,128.7a1,1,0,0,1-1.1-1.1Z"/>
    <path class="cls-3" d="M735.5,52.4c-.8.2-1.1-.1-1-.9Z"/>
    <path class="cls-5" d="M763,389.1l1.3-.8C764.1,388.9,763.8,389.3,763,389.1Z"/>
    <path class="cls-5" d="M764.3,388.3a1,1,0,0,1,1.1-1.1Z"/>
    <path class="cls-5" d="M765.3,387.4a.9.9,0,0,1,1.1-1.1Z"/>
    <path class="cls-5" d="M766.3,386.4c0-.7.3-1.1,1.1-1Z"/>
    <path class="cls-5" d="M767.4,385.4c0-.8.3-1.1,1.1-1Z"/>
    <path class="cls-5" d="M768.4,384.4c-.1-.8.3-1.1,1-1Z"/>
    <path class="cls-5" d="M769.5,383.5q-.2-1.2,1-1Z"/>
    <path class="cls-5" d="M770.5,382.5c-.1-.8.2-1.1,1-.9Z"/>
    <path class="cls-5" d="M771.6,381.5c-.2-.8.1-1.1.9-.9Z"/>
    <path class="cls-5" d="M209.9,52.8l-1.2,1.1Z"/>
    <path class="cls-5" d="M777.6,375.5c-.2-.8.1-1.1.9-1Z"/>
    <path class="cls-5" d="M778.5,374.5c-.2-.8.1-1.1.9-1Z"/>
    <path class="cls-5" d="M779.4,373.4c-.1-.8.2-1.1,1-1.1Z"/>
    <path class="cls-5" d="M780.4,372.4c-.1-.7.3-1.1,1-1.1Z"/>
    <path class="cls-5" d="M781.3,371.4a1,1,0,0,1,1-1.1Z"/>
    <path class="cls-5" d="M782.3,370.3l.9-1.4C783.3,369.7,782.9,370.1,782.3,370.3Z"/>
    <path class="cls-5" d="M207.9,54.6a1.3,1.3,0,0,1-1.2,1.2Z"/>
    <path class="cls-5" d="M206.8,55.7a1.1,1.1,0,0,1-1.1,1.1Z"/>
    <path class="cls-5" d="M205.8,56.7a1,1,0,0,1-1.1,1.1Z"/>
    <path class="cls-4" d="M132.6,322.3h.8l-.3.7A.6.6,0,0,1,132.6,322.3Z"/>
    <path class="cls-4" d="M131.7,321.1a1.2,1.2,0,0,1,1,1.3Z"/>
    <path class="cls-5" d="M204.7,57.6a.9.9,0,0,1-1.1,1Z"/>
    <path class="cls-5" d="M162.7,101.6a1,1,0,0,1-1.1,1.1Z"/>
    <path class="cls-3" d="M782.4,101.7a.9.9,0,0,1-1-1.1Z"/>
    <path class="cls-3" d="M781.4,100.6c-.7,0-1.1-.3-.9-1.1Z"/>
    <path class="cls-5" d="M194.4,67.5c.2.8-.1,1.1-.9,1Z"/>
    <path class="cls-3" d="M780.4,99.5c-.8.1-1.1-.2-.9-1Z"/>
    <path class="cls-5" d="M193.5,68.5c.2.8-.1,1.1-.9,1Z"/>
    <path class="cls-5" d="M192.5,69.5c.1.8-.2,1.1-1,1.1Z"/>
    <path class="cls-3" d="M776.2,94.9,775,94C775.7,93.9,776,94.4,776.2,94.9Z"/>
    <path class="cls-3" d="M772.1,91l-.8-1.3C771.9,89.9,772.3,90.3,772.1,91Z"/>
    <path class="cls-3" d="M771.4,89.7a.9.9,0,0,1-1-1.1Z"/>
    <path class="cls-3" d="M770.4,88.6c-.8,0-1.1-.3-.9-1.1Z"/>
    <path class="cls-3" d="M769.4,87.5c-.8.1-1.1-.2-.9-1Z"/>
    <path class="cls-3" d="M764.2,81.9,763,81C763.7,80.9,764,81.3,764.2,81.9Z"/>
    <path class="cls-3" d="M760.1,78l-.9-1.3C759.9,76.9,760.3,77.3,760.1,78Z"/>
    <path class="cls-5" d="M185.8,76.7l-1.2,1.2Z"/>
    <path class="cls-3" d="M759.3,76.8a1,1,0,0,1-1.1-1.1Z"/>
    <path class="cls-5" d="M186.8,75.7a1.1,1.1,0,0,1-1.1,1.1Z"/>
    <path class="cls-3" d="M758.4,75.7a.9.9,0,0,1-1-1.1Z"/>
    <path class="cls-5" d="M187.8,74.7a1.1,1.1,0,0,1-1.1,1.1Z"/>
    <path class="cls-5" d="M188.7,73.6a1,1,0,0,1-1.1,1.1Z"/>
    <path class="cls-5" d="M189.7,72.6a1,1,0,0,1-1,1.1Z"/>
    <path class="cls-4" d="M807.3,127.8a1,1,0,0,1-1.1-1.1Z"/>
    <path class="cls-4" d="M806.3,126.8a1,1,0,0,1-1.1-1.1Z"/>
    <path class="cls-4" d="M805.3,125.8a1,1,0,0,1-1.1-1.1Z"/>
    <path class="cls-4" d="M804.3,124.8a1,1,0,0,1-1.1-1.1Z"/>
    <path class="cls-4" d="M803.3,123.8a1,1,0,0,1-1.1-1.1Z"/>
    <path class="cls-4" d="M802.3,122.8a1,1,0,0,1-1.1-1.1Z"/>
    <path class="cls-4" d="M801.3,121.8a1,1,0,0,1-1.1-1.1Z"/>
    <path class="cls-4" d="M800.3,120.8a1,1,0,0,1-1.1-1.1Z"/>
    <path class="cls-4" d="M799.3,119.8a1,1,0,0,1-1.1-1.1Z"/>
    <path class="cls-4" d="M798.3,118.8a1,1,0,0,1-1.1-1.1Z"/>
    <path class="cls-4" d="M797.4,117.7a.9.9,0,0,1-1-1.1Z"/>
    <path class="cls-3" d="M733.4,50.7a1,1,0,0,1-1.2-1Z"/>
    <path class="cls-4" d="M152.4,112.6l.3.7-.7-.2A.5.5,0,0,1,152.4,112.6Z"/>
    <path class="cls-5" d="M195.4,66.5q.3,1.2-.9.9Z"/>
    <path class="cls-3" d="M789.2,108.9l-1.1-1.1Z"/>
    <path class="cls-5" d="M157.9,106.8l-1.1,1.1Z"/>
    <path class="cls-3" d="M787.2,106.9l-1.1-1.1Z"/>
    <path class="cls-5" d="M158.9,105.8l-1.1,1.1Z"/>
    <path class="cls-3" d="M786.2,105.8l-1.1-1.1Z"/>
    <path class="cls-5" d="M159.8,104.7l-1.1,1.1Z"/>
    <path class="cls-3" d="M785.3,104.8a1.1,1.1,0,0,1-1.1-1.1Z"/>
    <path class="cls-5" d="M160.8,103.7a1.2,1.2,0,0,1-1.1,1.1Z"/>
    <path class="cls-3" d="M784.3,103.8a1.1,1.1,0,0,1-1.1-1.1Z"/>
    <path class="cls-5" d="M161.8,102.7a1.1,1.1,0,0,1-1.1,1.1Z"/>
    <path class="cls-3" d="M783.3,102.8a1,1,0,0,1-1-1.1Z"/>
    <path class="cls-1" d="M619.5,199.6c23.8,6.7,47.4,13.9,73.5,15.4l-7.9,7.5h-.1c-.4.4-1.3.5-1,1.4-7.1,5.8-12.1,13.5-18.5,19.9-1.2,1.1-3.2,1.1-3.7,3l-30,26.9c-3.9,2.4-7.8,4.7-11.6,7.3a225.5,225.5,0,0,1-85.9,35.4A291,291,0,0,1,416,313.9a249.4,249.4,0,0,1-36-11.2c-9.9-3.9-19-9.8-28.5-14.8l-2.2-1.4h.1l-1.3-.8L347,285a.6.6,0,0,0-.6-.4h0c-16-10.7-30.9-23-45.3-35.8-8.1-9.2-16.3-18.4-26.1-25.9-.3-1.7-.2-2.7,2.1-2.8,20.8-.9,39.7-9,59.1-15.4,4.7-1.6,9.3-3.5,14-5.2h0a2.7,2.7,0,0,0,2.3-1.3c8.7-1.5,16.7-5.4,25.2-7.4,14-3.3,27.9-5.4,41.4,1.6,7,3.6,13.8,7.8,20.5,11.8a81.7,81.7,0,0,0,35.4,11.1c20.6,1.8,38.8-4,56.1-14.6,12.3-7.5,24.7-15.1,40.3-12.6,8.4,1.4,16.6,3.2,24.9,5.4l22.8,5.9a.4.4,0,0,0,.5.2Z"/>
    <path class="cls-2" d="M631.9,273.8l30-26.9c1.7,3.8,5.7,3.9,8.9,4.8,17.8,5.1,35,11.6,50.9,21.2,8.5,5.2,16.6,11.1,22.2,19.7,7.8,12,6.4,25-3.4,35.5-12.5,13.4-28.4,21.2-45,27.8-28.9,11.6-59.4,17.5-89.9,22.8-14.8,2.6-29.8,4.1-44.8,5.4-17.9,1.5-35.7,2.3-53.6,3.2-13.1.6-26.3,1.1-39.4.5-20.2-1-40.4-1.5-60.5-3.5s-37.8-4-56.5-7.3c-29.9-5.4-59.3-12.6-87.4-24.7-13.1-5.7-25-12.8-35-23.3-12.5-13-12.5-28.9,0-42,14.3-15,32.7-22.5,51.3-29.7,5.7-2.2,11.7-3.9,17.5-5.8,1.6-.5,3.3-.8,3.9-2.7,14.4,12.8,29.2,25.1,45.3,35.8-3.8,1.2-6.3,4.4-9,6.9s-8.9,7.1-9.5,13.9c-.9,9.8,4.3,15.7,11.3,20.7,14.5,10.3,31.5,14.6,48.3,19.1,4.9,1.3,10.3-.7,14.7,1.8,23.1,13.3,48.3,19.1,74.5,20.9,19.9,1.4,39.7-.4,59.3-4.5,12.2-2.5,23.4-9.5,36.6-7.4h.5c17.9-3.4,35.8-7.1,52.9-13.7,12.1-4.7,24-9.8,33.2-19.6s8.1-20.7,0-29.1c-4.4-4.6-9.6-8.1-14.9-11.6S634.3,279,631.9,273.8Z"/>
    <path class="cls-6" d="M684.2,224c-.3-.9.5-1,1-1.4C685.8,223.7,684.9,223.8,684.2,224Z"/>
    <path class="cls-6" d="M352.4,198.1a2.7,2.7,0,0,1-2.3,1.3C350.4,198.1,351.4,198.1,352.4,198.1Z"/>
    <path class="cls-6" d="M619.5,199.5a.4.4,0,0,1-.5-.2l.6-.6Z"/>
    <path class="cls-3" d="M193.1,86l-.5.4.4-.5Z"/>
    <path class="cls-3" d="M192.9,85.9l1-1,.2.2-1,1Z"/>
    <path class="cls-4" d="M218,61c.1-2,1.5-2,3-2A3.1,3.1,0,0,1,218,61Z"/>
    <path class="cls-2" d="M631.9,273.8c2.4,5.2,8.2,5.4,12.2,8s10.5,7,14.9,11.6c8.1,8.4,8,20.5,0,29.1s-21,14.9-33.2,19.6c-17.1,6.6-34.9,10.3-52.9,13.7h-.5c-13.1-2.1-24.4,4.9-36.6,7.4-19.6,4.1-39.5,5.9-59.3,4.5-26.1-1.8-51.4-7.7-74.5-20.9-4.4-2.5-9.8-.5-14.7-1.8-16.9-4.5-33.8-8.8-48.3-19.1-7-5-12.2-10.9-11.3-20.7.6-6.8,5.4-10.2,9.5-13.9s5.2-5.7,9-6.9h0v.8l.6-.3,1.1.7a1.1,1.1,0,0,0,1.3.8h-.1c.1,1.5,1.1,1.4,2.2,1.4,9.5,5,18.6,10.9,28.5,14.8a249.4,249.4,0,0,0,36,11.2,291,291,0,0,0,118.4,2.6,225.5,225.5,0,0,0,85.9-35.4C624.1,278.6,628.1,276.3,631.9,273.8Z"/>
    <path class="cls-5" d="M351.5,287.9c-1,0-2.1.1-2.2-1.4Z"/>
    <path class="cls-5" d="M347,285l-.6.3v-.8A.6.6,0,0,1,347,285Z"/>
    <path class="cls-5" d="M349.4,286.6a1.1,1.1,0,0,1-1.3-.8Z"/>
    <path class="cls-7" d="M704.8,54c-7-16.8-34.9-29.8-70.1-32.8a206.4,206.4,0,0,0-49.9,2.1"/>
    <path class="cls-7" d="M409.5,417.2c-54.2,26.5-125,12.4-178.6-35.5-32.3-28.8-50.2-62.7-58.9-82.1"/>
  </g>
</svg>
