<svg id="Layer_1" data-name="Layer 1" xmlns="http://www.w3.org/2000/svg" width="1280" height="727" viewBox="0 0 1280 727">
  <defs>
    <style>
      .cls-1 {
        fill: #fdfdfd;
      }

      .cls-2 {
        fill: #0b0a0a;
      }

      .cls-3 {
        fill: #e85f66;
      }
    </style>
  </defs>
  <title>Artboard 1</title>
  <g>
    <path class="cls-1" d="M641.1,728H5.7c-4.1,0-4.8-.9-4.8-4.9Q1.1,364.5.9,5.8C.9,1.9,1.5.9,5.7.9q635.2.2,1270.3,0c4.3,0,5.1,1,5.1,5.1q-.2,358.7,0,717.4c0,3.6-.6,4.7-4.5,4.7ZM113.4,504.6c-11.4,4-17.6,12.7-22.3,22.7-5.6,11.9-6.9,24.9-8.9,37.7s-3.2,22.8-1.9,34.3a26.3,26.3,0,0,1-1.7,12.5c-5,13.9-8.2,28.1-6.8,43s6.6,21.7,22.7,24.5c44.3,7.8,88.8,13.9,133.4,19.5q62.5,7.9,125.2,13.5c37.7,3.4,75.4,6.4,113.1,8.5q61.1,3.4,122.4,4.6c63.7,1.2,127.3-.6,190.9-3.8q61.9-3.1,123.6-8.7c31.7-2.9,63.3-5.9,95-9.3q59.1-6.4,118-14.6c35.9-5.1,71.8-10.1,107.5-17,12.9-2.5,18.8-7.9,20.6-20.9,4.1-29.6-4.1-56.3-21.2-80.4-1.3-1.8-2.6-3.3-2.7-5.7-.5-8.1-1.2-16.3-2.1-24.4-1.5-12.7-4.8-24.9-13.1-35s-19.8-12.4-31.3-3.4c-5,3.9-8.7,8.9-12.3,14.6a150.2,150.2,0,0,0-12.5-22c21.1,5.7,28-9.6,36.2-23.9a28.2,28.2,0,0,1,0,3c-.8,5.6,1,9.7,6.1,12.4s10.2,2,15.1-1.1,7.2-6.4,9.9-10.5c6.6-9.9,10.8-21,13.8-32.4a401,401,0,0,0,11.1-146.6c-.4-3.9.3-6.3,3.9-8.4,7.3-4.2,11.5-10.9,13.9-18.8a209.5,209.5,0,0,0,6.7-95.8c-2.2-13.7-6.4-26.9-18.2-36.1a231,231,0,0,0-28.3-18.7c-49.3-27.8-101.7-48-155.3-65.5-56.5-18.5-114.4-30.1-173.3-37.2-38.2-4.6-76.6-7.6-115-9.6C708,2,640.6,2.8,573.1,6.4c-51.2,2.7-102.4,6.7-153.3,13.5-38.9,5.2-77.8,11.2-115.7,21.6C227.8,62.4,153.3,88.7,81.9,123.2c-15.3,7.4-30.3,15.3-43.8,25.8A27.2,27.2,0,0,0,29,161.1c-14,37.2-15.9,74.9-5.4,113.2,3,11,6.6,22.1,15.7,30.1,1.3,1.2,1,2.7,1.1,4.2.5,9.6.8,19.3,1.6,28.9,2.6,30.2,4.9,60.4,11.9,90,4.8,20.1,10.5,39.9,21,57.9,2.9,5.1,6.2,9.9,11.2,13.2s11.5,2.8,14.6-4c.9-1.9,1.5-4,2.5-6.7A136.1,136.1,0,0,0,113.4,504.6Z"/>
    <path class="cls-2" d="M113.4,504.6A136.1,136.1,0,0,1,103.2,488c-1,2.8-1.6,4.8-2.5,6.7-3.1,6.7-8.4,8.2-14.6,4s-8.2-8.2-11.2-13.2c-10.5-18-16.2-37.8-21-57.9-7.1-29.6-9.3-59.8-11.9-90-.8-9.6-1.1-19.3-1.6-28.9-.1-1.5.2-3-1.1-4.2-9-8-12.6-19.1-15.7-30.1-10.5-38.2-8.7-76,5.4-113.2A27.2,27.2,0,0,1,38.2,149c13.5-10.4,28.5-18.4,43.8-25.8,71.4-34.5,145.9-60.8,222.3-81.7,37.9-10.4,76.7-16.4,115.7-21.6,50.9-6.8,102-10.8,153.3-13.5C640.6,2.8,708,2,775.5,5.6c38.4,2,76.8,5,115,9.6,58.9,7.1,116.8,18.7,173.3,37.2,53.6,17.6,106.1,37.8,155.3,65.5a231,231,0,0,1,28.3,18.7c11.8,9.2,16.1,22.3,18.2,36.1a209.5,209.5,0,0,1-6.7,95.8c-2.4,7.9-6.7,14.6-13.9,18.8-3.6,2.1-4.3,4.5-3.9,8.4a401,401,0,0,1-11.1,146.6c-3,11.4-7.2,22.5-13.8,32.4-2.7,4-5.7,7.8-9.9,10.5s-9.8,3.9-15.1,1.1-6.9-6.9-6.1-12.4a28.2,28.2,0,0,0,0-3c-8.2,14.3-15,29.6-36.2,23.9a150.2,150.2,0,0,1,12.5,22c3.7-5.7,7.4-10.7,12.3-14.6,11.5-9,22-8,31.3,3.4s11.6,22.3,13.1,35c.9,8.1,1.6,16.2,2.1,24.4.2,2.4,1.5,3.9,2.7,5.7,17.1,24.2,25.3,50.8,21.2,80.4-1.8,13-7.7,18.4-20.6,20.9-35.6,6.9-71.6,12-107.5,17q-58.9,8.3-118,14.6c-31.6,3.4-63.3,6.4-95,9.3q-61.7,5.6-123.6,8.7c-63.6,3.2-127.2,5-190.9,3.8q-61.2-1.2-122.4-4.6c-37.8-2.1-75.4-5.2-113.1-8.5q-62.7-5.6-125.2-13.5c-44.6-5.6-89.1-11.7-133.4-19.5-16.1-2.8-21.2-8.4-22.7-24.5s1.8-29.1,6.8-43a26.3,26.3,0,0,0,1.7-12.5c-1.3-11.5.1-23,1.9-34.3s3.3-25.8,8.9-37.7C95.8,517.2,102,508.6,113.4,504.6Zm530-188.1c1.5-6.5,2.6-12.2,4-17.8,12.3-47.6,31.6-92.4,52.7-136.6a38.8,38.8,0,0,1,6.6-9.4c13.1-14.4,29.7-22.8,48-28.1,21-6.1,42.4-7.3,63.7-1.9,19.3,4.9,31.9,18.6,41.9,34.9,16.5,26.6,24.4,56.3,30.7,86.5,3.8,18.3,6.3,36.8,8.6,55.3a21.9,21.9,0,0,0,1.4-4.7c1.8-9.5,3.5-19,7.8-27.8,15.7-32.1,38.8-57.5,70-75.3,13.5-7.7,28.1-12,43.8-11.8a17.6,17.6,0,0,1,14.9,7.5c5.1,6.7,8.4,14.3,11.5,22.1,4.5,11.4,7.7,23.3,11,35.8,11.9-13.3,25.3-23.9,39.8-33.1s28.5-17.2,45.1-20.8c14.5-3.2,19.1-.1,21.8,14.4.2,1.1.4,2.3.5,3.5,3.2,25.6,2.1,51.2,1.7,76.9,0,1.5-.7,3.2.7,5.2.6-2.1,1.1-3.8,1.5-5.5,3-12.6,5.9-25.3,9-37.9a38.4,38.4,0,0,1,6.4-14c5.8-7.7,12.8-7.5,18.1.5a42.4,42.4,0,0,1,5.5,13.3c3.1,12.3,3.5,24.8,4.1,38.7,1.9-5.9,3.3-10.7,4.9-15.3s3.1-6.5,7.2-6.6,6.4,2.5,8.2,5.6a37.6,37.6,0,0,1,4.1,11.2c.6,3.1,1.5,2.8,3.8,1.3,6-4,9.5-9.7,11.5-16.4a203.9,203.9,0,0,0,5.8-95.8c-2.6-14.3-9.1-26-21.8-34.3a445.9,445.9,0,0,0-47.1-27.2c-42.8-21.4-87.4-38.3-132.9-52.7A831.7,831.7,0,0,0,947.7,29c-42.4-7.3-85.1-11.7-128-15.2q-46.1-3.7-92.3-4.6c-46.4-1-92.7-.5-139,2.5-15.6,1-31.3,1.9-46.9,2.2-12,.2-23.9,2.1-35.8,2.9s-22.6,1.6-33.9,2.6c-25.5,2.4-51,5.6-76.3,9.5-39,5.9-77.5,13.7-115.3,25C218.2,72.4,157.5,94,98.9,121.1c-18.3,8.4-36.2,17.6-53,28.8A34.2,34.2,0,0,0,32,168.1,181.8,181.8,0,0,0,22.7,232c.6,20.5,4,40.4,13.2,58.9,1,2.1,1.7,4.6,4.5,6,.2-2.4.4-4.4.5-6.3.4-6.5,1-13,3.7-19,3.8-8.6,11.1-9.7,17.3-2.8,2.5,2.8,4.4,6,6.8,9.3,1.8-8.1,3.3-15.8,6.4-23,1.7-4,2.9-9.4,8.2-9.7s6.6,5,8.5,8.7c4.3,8.5,9.8,16.4,13.8,25.1.4-9.4.2-18.7.4-28s.6-21,2.8-31.3c1.1-5.3,4.1-8,9.6-8.3,7.5-.4,14.5,1.6,21.3,4.5,16.4,7.1,30.7,17.3,44.3,28.7,16,13.5,29.7,28.7,35.8,49.4a10,10,0,0,0,.8,1.7c1.6-1,1.2-2.5,1.4-3.7,2.6-17.5,5.9-34.8,10.9-51.7,3.6-12,7.4-23.8,14.8-34.2,4.3-6,9.8-8.8,17.2-7.5a63,63,0,0,1,14.7,4.2,228.2,228.2,0,0,1,78.7,57A69.7,69.7,0,0,1,375,291.4l4.7,20.1c.5-2.8.9-4.6,1.1-6.4,3.6-29.8,9.1-59.2,18.3-87.8s20.9-57.1,43.8-78.7c6.8-6.4,14.6-11.3,23.7-13.5,31.5-7.8,61.7-3.8,90.4,11.1,12.7,6.6,24.3,15,30.7,28.3,19.7,41.1,37.4,83.1,49.4,127.2C639.3,299.7,641.2,307.7,643.4,316.4ZM783.1,538.6c-.1,1.2-.1,2.3-.2,3.5-1.5,21.8-4.4,43.4-12.8,63.8s-21.5,34-43.5,38.6c-17.4,3.7-29.2-.2-39.6-14.7a73.8,73.8,0,0,1-5.9-9.3c-16.3-31.6-27.9-65-37.1-99.3-.5-1.9-.4-4.2-2.3-6.2l-.9,3.2c-6.6,26-15.9,51.1-26.1,75.9-5.2,12.6-10.8,25.1-19.6,35.7-6.5,7.8-14.6,13-25,12.5-19.2-1-35.7-7.5-47-24.2-9.2-13.7-13.7-29.1-17.1-45-.6-3.1-.4-6.4-2.5-9.7-4,12.1-7.9,23.6-13.5,34.4a92.7,92.7,0,0,1-13,19.5c-15.1,16.9-39.9,24-63.8,4.6-21.2-17.2-34.9-39.4-45.1-64.3-.6-1.4-.7-3.1-2.2-4.2-1.4,1.4-1,3-1,4.4-1.2,22.8-10.2,42-25.9,58.5-10.4,10.9-22.4,20.2-36.1,25a55.8,55.8,0,0,1-61.3-16.6c-6.1-7.1-10.4-15.3-14.2-24.1-11.3,16.2-27.5,22.7-46,23.9s-34.6-6.3-44.7-23.5c-6.3,9-12,18.4-23.7,19-10.1.5-20.8,1.4-29.1-7.5-5.3,14.3-8.3,28.4-6.8,43,1.3,12,5.6,16.5,16.1,18.2,27.3,4.3,54.6,8.6,81.9,12.4,49.7,6.9,99.6,13,149.6,17.9,41.3,4,82.6,7.5,123.9,10.1q64.6,4.2,129.3,5.5,104.7,2,209.3-4c21.3-1.2,42.6-2.3,63.9-3.9s44.4-3.9,66.6-5.8c39.8-3.3,79.4-7.7,119.1-12.2,27.8-3.2,55.5-7.1,83.2-10.9,34-4.7,67.9-9.7,101.6-16.1,11.5-2.2,15.5-6.6,17.3-18.1,2.6-17-1.1-33.1-6.6-49-2.7-7.6-5.9-15-11.3-22.1-.6,6.9-.6,13.1-2.1,19s-5,13.2-12.6,14.7c-13.8,2.8-27.4,3.3-37.1-9.9-.2-.2-.6-.3-.9-.4-8.8,20.7-24.8,30.6-47,29.2s-38.5-8.6-48.7-29.1c-3.8,10-7.8,19.2-13.7,27.6-12.8,18.3-40.2,29.6-61.3,21.4-33.3-13-56.3-36-63.8-72.2-1.2-5.7-1.5-11.6-2.3-18.6-1.1,2.7-1.9,4.3-2.5,6a214.1,214.1,0,0,1-20.8,41.4c-8.1,12.5-17.2,24.2-29.5,32.9-6.6,4.7-13.6,8.8-22.1,9-15.6.2-27.9-6.6-37.6-18.5-8.1-9.9-13.5-21.3-18-33.2C793.7,578.1,788.8,558.4,783.1,538.6ZM533.2,459.8c18.2,0,36.3.5,54.3-2.7,28.2-5.1,42.3-18.4,48.8-46.2a137.7,137.7,0,0,0,3.1-22.2c2-30.5,2.2-60.8-6.1-90.7-12-43.4-29.1-84.8-47.7-125.6a61.9,61.9,0,0,0-23.7-26.9c-21.4-13.7-45-19-70.3-18.6s-43.4,10.6-57.8,30.2c-15.5,21.1-24.7,45.1-31.9,69.9-10.5,36.1-16.1,73.1-18.8,110.5-1.4,19.1-2.7,38.3-.1,57.4,3.2,23.7,15,41.2,37.4,50.8a134.2,134.2,0,0,0,29.1,8.4C477.2,459,505.3,458.9,533.2,459.8Zm239.1-.8c21.8-.6,47-.6,71.5-7s42-18.8,49.7-43.5c3.4-10.9,4.5-22.2,4.4-33.5q-.3-30-2.7-59.9c-2.7-33.2-7.3-66.2-16.2-98.3-6.4-23-14.4-45.3-29-64.6-9.6-12.7-21.3-22.3-37.6-25.2-26.4-4.6-51.8-1.2-75.8,10.6-13.8,6.8-26,15.5-32.9,30-12.4,26.1-24,52.6-34.1,79.7-15,40.3-26.9,81.2-22.5,125,1.2,11.9,2.1,23.9,5.3,35.5,7.2,25.7,25.3,39.2,50.2,45.3C724.3,458.4,746.6,458.9,772.3,458.9ZM903.2,355.1c0,7.2,0,13.7,0,20.2a112.6,112.6,0,0,0,7.9,40.9c3,7.7,7,14.9,14.3,19.3,13.4,8,27.2,15.2,42.4,19.7,17.3,5.1,33.2,3.5,47.4-8.4,3.2-2.7,6.6-5.1,9.8-7.8,17.5-14.5,30.3-32.1,35.8-54.5a190.3,190.3,0,0,0,5-40.6c1-40.8-5.6-80.6-17.4-119.5a151.9,151.9,0,0,0-12.4-29.9c-4.2-7.5-10.1-10.4-18.5-9.5s-17.7,2.7-26.1,6.3c-24.9,10.6-43.9,28.5-60.4,49.4-13.6,17.2-22.4,36.3-25.3,58.2C903.1,318,901,336.8,903.2,355.1Zm-526.6,2c1.6-15-.3-30.4-2.6-46-3.5-24.2-13.5-44.5-32.1-60.7C327.5,238,312.5,226.4,296,217c-8.1-4.6-16.4-8.8-25.4-11.4-11.7-3.4-15.6-1.9-21.6,8.7-5.1,9-8.3,18.8-11.1,28.7-8.5,29.9-12.9,60.5-14.7,91.5-1,17.3-.5,34.6,3.1,51.7,5.8,27.4,22.3,46.9,44.6,62.6a43.3,43.3,0,0,0,32.6,7.6c16.2-2.4,30.4-10.2,44.9-17.3,22.1-10.8,27-30.7,28.1-52.3C377,377.3,376.3,367.6,376.5,357.2ZM219.1,317.4c0-2.5.9-4.8.1-7.1-4.5-14.6-8.5-29.5-18.7-41.5a186.9,186.9,0,0,0-56.8-44.9c-7.1-3.7-14.5-6.7-22.7-7-4.1-.1-6.4,1.2-7.1,5.7-.9,6.3-1.6,12.5-1.9,18.9-1.3,28.8-.2,57.6.2,86.4.4,26.8-.6,53.6,2.8,80.3,4.3,33.8,18.5,63.9,34,93.6,3.5,6.7,9,8.3,16.2,5.9,5.6-1.8,10.3-5.3,14.8-9.1,14.4-12.4,25.4-27.7,36.2-43.1,7.8-11.1,12.2-23.5,14.7-36.7a10.7,10.7,0,0,0-1.1-7.2c-5.9-11.5-9-23.9-10.8-36.6C216.3,355.8,217.4,336.5,219.1,317.4ZM785.6,507c.3,4.8.5,9.7,1.1,14.4,3,24.1,10.1,47.1,18,69.9,4.9,14,10.9,27.6,21.3,38.6,13,13.8,32.8,20,52.5,3.3,12.1-10.3,21.2-22.9,29.5-36.3,21.8-35.3,27.9-75.1,32.8-115.1,1.8-14.7-4.9-25.6-17.9-32.9s-24.2-9.9-37.1-12.5c-2.1-.4-3.1.7-4.3,1.9-8.5,8.1-18.6,13.3-29.6,16.9-16.9,5.6-34.5,7.4-52.1,8.2-3.5.2-5.3,1.4-6.5,4.7A105.1,105.1,0,0,0,785.6,507Zm378.2-237.4c.2-22.9.4-43.6-2.8-64-1.4-9.2-3.4-10.6-12.6-9.3l-2,.4c-33.2,9.2-60.1,28.4-83.2,53.4-2.1,2.2-1.4,4.6-.8,7,7.5,35,11.1,70.3,7.5,106.1-2.2,22-8,42.8-22.2,60.4-1.8,2.2-1.4,3.6,0,5.6,9,13.5,18.3,26.6,29.5,38.3,6.7,7,13.7,13.7,22.8,17.4s13.8,1.1,18.1-6.4c1.7-3,3.1-6.2,4.6-9.4,13.9-28.8,25.5-58.4,31.4-90C1161.1,342.2,1162.5,304.8,1163.8,269.6Zm-83.7,256.5a136.7,136.7,0,0,0-2.1-27.4c-4.6-25.4-17.9-45.1-39-59.8-2.3-1.6-4-1.8-6.3.4-4.4,4.1-9.3,7.6-13.8,11.5-15.2,12.9-32.6,15.5-51,9.9-6.4-2-10-.2-13.6,4.2s-7.9,7-7.9,12.3c-.1,14.6-2.9,28.9-6.2,42.9-4.6,19.4-4.4,38.7-.9,57.9,4.5,24.9,19.7,42.7,39.8,57,15.6,11.1,32.3,15.3,50.9,9s27.4-19.3,34-35.6C1074.7,582,1079.7,554.5,1080.1,526.1Zm-863-6.7c.7,20.1,3.1,38.1,7.9,55.6,4.2,15.4,9,30.6,18.7,43.7,15.4,20.8,45.2,24.8,63.6,14.6,31.2-17.3,51.1-42.1,52.6-79,.3-7.9,1.9-15.8.6-23.9-3.2-19.8-8.2-39.4-8.5-59.7a9.1,9.1,0,0,0-1.6-4.6,58.4,58.4,0,0,0-10.9-12.9c-1.9-1.7-3.4-1.9-5.7-.7a104.3,104.3,0,0,1-18.6,7c-16.6,4.5-32.6,4.6-47.1-6.2-5.6-4.2-11.1-8.5-16.3-13.2-2.4-2.2-3.7-1.6-5.6.3a105.2,105.2,0,0,0-17.9,23.9C218.4,482.1,217.3,501.6,217.1,519.5Zm140.1-47.8c.2,11.3,2.9,24.1,4.9,37.1,3.7,24.8,9.6,48.9,22.7,70.7,9.9,16.4,21.1,31.5,37.6,42,9.1,5.8,18.8,8.3,29.5,5.6,13.4-3.4,22-12.5,29-23.7,9.6-15.5,15-32.9,20.2-50.2a28.6,28.6,0,0,0,1.2-10.3,324.9,324.9,0,0,1,3.1-73.7c.7-4.4-.7-4.9-4.3-5-19.8-.4-39.6-1.9-59-6.2s-38.3-11.4-51.1-28.5c-1.5-2-2.8-1.5-4.7-.8C366.1,435.7,357.1,448.4,357.1,471.7Zm420.7,60.2a374.1,374.1,0,0,0-4.2-62.5c-.6-4-1.9-5.4-6.2-5.3-19.5.5-39-.2-58.2-4-16.7-3.3-32.4-8.7-45-20.9-5.9-5.7-7.4-5.6-12.5,1.1a15.4,15.4,0,0,0-2.8,5.8c-4.9,20.1-6.3,40.4-2.5,60.9,6.2,32.8,18.3,63.8,31.1,94.4,4.3,10.3,9.3,20.3,16.5,28.9s14.8,11.2,25.2,10c22.8-2.7,37.4-15.4,45.8-36.3C774.8,579.5,777.1,553.9,777.9,531.9ZM632.6,435.9c-10.9,16.5-26.6,23.2-44.3,26.5a159.1,159.1,0,0,1-28.8,2.7c-14.8,0-29.6-.1-44.5-.3-2.8,0-3.9.6-4.4,3.6a331,331,0,0,0-3.3,72.2c1,18.1,3.7,36.1,9.7,53.3,7.1,20.4,18.4,36.7,41.4,41.7,16.2,3.5,26.3.1,35.7-13.6a102.8,102.8,0,0,0,8-13.8c13.5-28.6,23.9-58.3,32.6-88.7,5.6-19.7,4.6-39.9,3.9-59.9C638.5,451.8,637.3,443.7,632.6,435.9ZM1167.8,572c-.5-25.8-7.3-49.1-20.9-70.4-5.1-8-11.2-15.3-19.2-20.7-2.4-1.6-3.8-2.1-5.6,1.1-3.6,6.6-9.6,11.1-17.1,9.4s-8,1.4-9.8,5.7l-8.3,19.2a19,19,0,0,0-1.4,7.8,218.6,218.6,0,0,1-7.8,59.7c-3.5,12.5,1.6,21.4,10.3,28.9s18.4,10.5,29.1,12c23.8,3.2,41.8-8.9,48-32.1C1167.1,585.7,1167.6,578.6,1167.8,572Zm40.6-280.7c-.1-10.2-.1-20.3-1.5-30.4-1.2-8.2-2.4-16.5-7.1-23.7-3-4.5-5.7-4.6-8.9-.3s-5.5,10.6-6.9,16.4c-8.6,37.4-17.8,74.7-22.3,112.9-2.8,24.1-11.7,47.1-14.4,71.3-1.4,12.7-3.7,25.4-3.7,38.2,0,2.6-.3,5.3,1.4,7.7,6.3,8.6,16,9.6,23.6,2.1,5.1-5,8.4-11.2,11.1-17.6,6.9-16.2,10.4-33.2,13.6-50.4C1201.3,375.9,1207.7,334,1208.4,291.4ZM202.5,483.1l-3.1,3.6c-8.1,9.1-16.3,18.1-27.2,23.9-7.2,3.8-14.8,5.6-22.1.4-2.8-2-3,.3-3.6,1.8-9.4,21.6-13.8,44-10.4,67.6,2.9,20.5,14.4,34.5,32.8,37.9s33.9-1.5,47.9-13a26.4,26.4,0,0,0,6-7.9,10,10,0,0,0,.7-8.5c-7.8-24.2-12.5-49.1-11.2-74.6C212.7,502.4,208.7,492.9,202.5,483.1ZM83.6,250.7c-4.3,6.3-6,13.1-7.5,19.8-6.3,27.9-6.9,56.1-5.3,84.5,2.8,48.2,16.9,93,39.8,135.2,3,5.6,6.3,11,11.2,15.2,2.5,2.2,5.2,3.4,7.9.6,7.2-7.6,10-11.5,5-20.9-19.7-37.1-28.2-76.8-27.6-118.7.3-20.5-.4-41-.7-61.5a28.9,28.9,0,0,0-.4-6C101.8,281.4,92.5,266.4,83.6,250.7ZM1238.1,342a329.3,329.3,0,0,0-1.3-36.4c-1.1-10.7-2.1-21.5-6.6-31.6-.7-1.6-1.5-3.8-3.5-3.8s-2.4,2.4-3,4c-5.5,16.8-9.7,33.9-11.5,51.4-3.1,30.3-7.3,60.4-12.9,90.3-3.7,19.4-8.5,38.6-8.9,58.6-.1,6.1,4.2,9.5,10.1,7.5,4.1-1.4,6.9-4.6,9.4-7.9,5-6.7,8.4-14.3,11.2-22.2C1233.5,416.3,1236.5,379.2,1238.1,342Zm-22.9,232.1a265.6,265.6,0,0,0-3.3-38.1c-1.7-11-5.2-21.4-13.4-29.5-6.2-6.1-12.2-6.5-19.3-1.7a42.1,42.1,0,0,0-13,14.9,8.9,8.9,0,0,0-.6,7.9c6.8,19.5,9.5,39.4,6.4,60-1.4,9.3,6.1,18.8,15.6,19.3a117.8,117.8,0,0,0,13,0c7.2-.4,10.4-3.1,12.6-9.9S1215.1,583,1215.2,574.1ZM85.1,590.5a50.6,50.6,0,0,0,1,11.9c.7,3.8,1.9,7.9,5.7,9.5,8.9,3.8,18.4,5.3,27.4.6,6.8-3.5,10.7-10.3,14.2-16.9a3.3,3.3,0,0,0,.1-2.8c-6.6-21.1-4.7-42.1,1.2-62.9,1.5-5.1.6-8.6-3-11.9l-2.8-2.8c-8.1-7.2-16-7.1-23.7.6A45.9,45.9,0,0,0,94,534.5C88.2,552.7,86.6,571.6,85.1,590.5ZM46,314.5c.9,22.7,3.4,46.7,6.2,70.7,3.1,27.5,8.9,54.5,19.1,80.3,3.9,9.9,8.2,19.7,16.1,27.3,4.8,4.5,7.2,3.6,9.5-2.6,3-8.1.2-15.1-3.2-22.3C69.1,415.3,61.2,359.9,65.9,302.5c.8-9.3,1.4-18.2-4.9-26-2.1-2.7-3.6-6.9-7.6-6.4s-4.6,5.2-5.5,8.6C45.3,290.1,46,301.6,46,314.5Zm908.6,142a280,280,0,0,1-28.8-14.3,40,40,0,0,1-15.9-16,86.2,86.2,0,0,1-7.1-17.5c-.4-1.5-.2-3.6-2.6-4.3A74.8,74.8,0,0,1,888,431.3l2.9.7c22.1,5.4,44.2,10.7,54.5,34.6ZM213.5,491.2c1.1-4.5,1.9-8.6,3.1-12.7,4.8-16.5,14.2-30.2,26.2-42.3,1-1,3.1-1.7,1.1-3.8s-5.3-6.2-8.3-9.8c-2,9.2-4.5,17.6-8.6,25.4-5.2,9.9-12,18.7-18.6,27.6-1,1.3-2.7,2.4-1.2,4.7S211.3,487.4,213.5,491.2Zm431.1-91.6c-.5.8-.9,1.2-1,1.6-1.5,9.7-3.5,19.3-7.7,28.3a2.6,2.6,0,0,0,.6,3.2c3.8,4.1,4.8,9.3,6.1,16a26.9,26.9,0,0,1,12.1-18.5c1.1-.7,1.1-1.3.5-2.4C649.9,419.2,647,409.7,644.6,399.6Zm495.7,43.9-13,28.3c-.5,1.1-.9,2.1.4,3l10.5,7C1137.6,468.5,1139.8,456.1,1140.4,443.5Zm-62.6,33.4c3.7,9.5,5.3,19.1,6.9,29.7l8.4-16.7c.3-.7,1.1-1.4,0-2.1C1087.7,484.6,1082.9,480.4,1077.8,476.9ZM368.6,431a132.5,132.5,0,0,1,16.1-7.7c1.2-.5,1.5-1,.8-2.2-2.6-4.6-3.9-9.7-6-14.9C376.9,415.1,374,423.6,368.6,431Zm-26,17.3,10.1,9.8c.7-6.9,3.9-12.9,8.2-19.9ZM789.1,464c-2.8,0-5.2.2-7.5,0s-3.3.9-2.8,3.7c1.1,5.8,1.8,11.6,2.8,18.8C784.2,478.2,785.9,471.1,789.1,464ZM141.4,500l-4.5,6c-4.3,5.5-4.3,5.5.8,10.8.2.2.6.2,1.2.4C139.3,511.4,147,506.9,141.4,500Z"/>
    <path class="cls-3" d="M643.4,316.4c-2.2-8.7-4.1-16.8-6.3-24.8-12.1-44.1-29.8-86.1-49.4-127.2-6.3-13.3-18-21.7-30.7-28.3-28.7-14.9-58.9-19-90.4-11.1-9.1,2.3-16.9,7.1-23.7,13.5-22.9,21.6-34.5,49.6-43.8,78.7s-14.7,58-18.3,87.8c-.2,1.8-.6,3.6-1.1,6.4L375,291.4A69.7,69.7,0,0,0,358.4,260a228.2,228.2,0,0,0-78.7-57,63,63,0,0,0-14.7-4.2c-7.5-1.3-12.9,1.5-17.2,7.5-7.4,10.3-11.2,22.2-14.8,34.2-5,16.9-8.3,34.3-10.9,51.7-.2,1.2.3,2.7-1.4,3.7a10,10,0,0,1-.8-1.7c-6-20.7-19.7-35.9-35.8-49.4-13.6-11.4-27.9-21.6-44.3-28.7-6.8-2.9-13.7-4.9-21.3-4.5-5.5.3-8.5,3-9.6,8.3-2.2,10.3-2.5,20.8-2.8,31.3s0,18.6-.4,28c-4.1-8.7-9.5-16.6-13.8-25.1-1.9-3.7-3.3-9-8.5-8.7s-6.5,5.6-8.2,9.7c-3.1,7.2-4.6,14.9-6.4,23-2.4-3.3-4.3-6.5-6.8-9.3-6.3-7-13.5-5.8-17.3,2.8-2.7,6-3.3,12.5-3.7,19-.1,2-.3,3.9-.5,6.3-2.8-1.4-3.5-3.9-4.5-6-9.2-18.6-12.7-38.4-13.2-58.9A181.8,181.8,0,0,1,32,168.1a34.2,34.2,0,0,1,13.8-18.3c16.8-11.2,34.7-20.4,53-28.8C157.5,94,218.2,72.4,280.1,53.9c37.8-11.3,76.3-19.1,115.3-25,25.4-3.8,50.8-7.1,76.3-9.5q16.9-1.6,33.9-2.6c11.9-.7,23.8-2.7,35.8-2.9,15.7-.3,31.3-1.2,46.9-2.2,46.3-3,92.6-3.5,139-2.5q46.2,1,92.3,4.6c42.9,3.4,85.6,7.8,128,15.2A831.7,831.7,0,0,1,1058,56.2c45.5,14.5,90.1,31.3,132.9,52.7a445.9,445.9,0,0,1,47.1,27.2c12.6,8.4,19.2,20,21.8,34.3a203.9,203.9,0,0,1-5.8,95.8c-2,6.7-5.5,12.4-11.5,16.4-2.3,1.5-3.2,1.7-3.8-1.3a37.6,37.6,0,0,0-4.1-11.2c-1.8-3.2-4.2-5.8-8.2-5.6s-6,3.1-7.2,6.6-3,9.4-4.9,15.3c-.6-13.8-1-26.4-4.1-38.7a42.4,42.4,0,0,0-5.5-13.3c-5.3-8-12.4-8.2-18.1-.5a38.4,38.4,0,0,0-6.4,14c-3.1,12.6-6,25.2-9,37.9-.4,1.7-.9,3.4-1.5,5.5-1.4-2-.7-3.6-.7-5.2.4-25.7,1.5-51.3-1.7-76.9-.1-1.2-.3-2.3-.5-3.5-2.7-14.5-7.3-17.5-21.8-14.4-16.5,3.6-31,11.8-45.1,20.8s-27.8,19.8-39.8,33.1c-3.3-12.5-6.5-24.4-11-35.8-3-7.8-6.4-15.3-11.5-22.1a17.6,17.6,0,0,0-14.9-7.5c-15.8-.2-30.3,4.1-43.8,11.8-31.1,17.8-54.2,43.2-70,75.3-4.3,8.8-5.9,18.3-7.8,27.8a21.9,21.9,0,0,1-1.4,4.7c-2.3-18.6-4.8-37.1-8.6-55.3-6.2-30.2-14.2-59.9-30.7-86.5-10.1-16.2-22.7-30-41.9-34.9-21.3-5.4-42.6-4.2-63.7,1.9-18.4,5.3-34.9,13.8-48,28.1a38.8,38.8,0,0,0-6.6,9.4c-21,44.2-40.4,89-52.7,136.6C646,304.3,644.9,310,643.4,316.4Z"/>
    <path class="cls-3" d="M783.1,538.6c5.7,19.8,10.6,39.5,17.9,58.4,4.6,11.8,9.9,23.3,18,33.2,9.7,11.9,22,18.7,37.6,18.5,8.4-.1,15.5-4.3,22.1-9,12.3-8.8,21.4-20.4,29.5-32.9A214.1,214.1,0,0,0,929,565.4c.6-1.7,1.3-3.3,2.5-6,.9,7,1.2,12.9,2.3,18.6,7.5,36.2,30.5,59.2,63.8,72.2,21.1,8.2,48.5-3.1,61.3-21.4,5.9-8.4,9.9-17.6,13.7-27.6,10.2,20.5,28.1,27.8,48.7,29.1s38.1-8.5,47-29.2c.4.2.8.2.9.4,9.7,13.2,23.3,12.7,37.1,9.9,7.6-1.5,10.8-7.8,12.6-14.7s1.5-12.1,2.1-19c5.4,7.1,8.7,14.5,11.3,22.1,5.6,15.8,9.3,32,6.6,49-1.8,11.6-5.8,15.9-17.3,18.1-33.7,6.4-67.6,11.4-101.6,16.1-27.7,3.8-55.4,7.7-83.2,10.9-39.6,4.5-79.3,8.9-119.1,12.2-22.2,1.9-44.4,4.1-66.6,5.8s-42.6,2.7-63.9,3.9q-104.6,5.9-209.3,4-64.7-1.2-129.3-5.5c-41.4-2.7-82.7-6.2-123.9-10.1-50-4.8-99.8-10.9-149.6-17.9-27.4-3.8-54.7-8.1-81.9-12.4-10.5-1.7-14.9-6.2-16.1-18.2-1.6-14.7,1.5-28.8,6.8-43,8.3,8.9,19,8,29.1,7.5,11.7-.6,17.4-10,23.7-19,10.1,17.1,25.4,24.8,44.7,23.5s34.6-7.7,46-23.9c3.8,8.9,8.1,17,14.2,24.1A55.8,55.8,0,0,0,303,641.4c13.7-4.8,25.8-14.1,36.1-25C354.8,600,363.8,580.7,365,558c.1-1.4-.4-3,1-4.4,1.4,1.1,1.6,2.8,2.2,4.2,10.2,24.8,24,47.1,45.1,64.3,23.9,19.4,48.7,12.3,63.8-4.6a92.7,92.7,0,0,0,13-19.5c5.6-10.8,9.5-22.3,13.5-34.4,2,3.3,1.8,6.7,2.5,9.7,3.4,15.9,7.9,31.3,17.1,45,11.2,16.7,27.8,23.2,47,24.2,10.4.5,18.5-4.7,25-12.5,8.8-10.7,14.5-23.1,19.6-35.7,10.2-24.8,19.4-49.9,26.1-75.9l.9-3.2c2,2,1.8,4.3,2.3,6.2,9.3,34.3,20.9,67.7,37.1,99.3a73.8,73.8,0,0,0,5.9,9.3c10.4,14.5,22.2,18.3,39.6,14.7,22.1-4.7,35.3-18.6,43.5-38.6s11.3-42,12.8-63.8C783,540.9,783,539.7,783.1,538.6Z"/>
    <path class="cls-1" d="M533.2,459.8c-28-.8-56-.8-83.7-5.8a134.2,134.2,0,0,1-29.1-8.4c-22.4-9.6-34.3-27.1-37.4-50.8-2.5-19.1-1.2-38.3.1-57.4,2.7-37.4,8.3-74.4,18.8-110.5,7.2-24.8,16.5-48.8,31.9-69.9,14.4-19.6,33.2-29.8,57.8-30.2s48.9,4.9,70.3,18.6a61.9,61.9,0,0,1,23.7,26.9c18.6,40.8,35.7,82.2,47.7,125.6,8.3,30,8.1,60.2,6.1,90.7a137.7,137.7,0,0,1-3.1,22.2c-6.5,27.8-20.6,41.1-48.8,46.2C569.5,460.3,551.4,459.8,533.2,459.8Z"/>
    <path class="cls-1" d="M772.3,458.9c-25.7-.1-48-.6-69.9-6-24.8-6.2-43-19.7-50.2-45.3-3.2-11.6-4.1-23.5-5.3-35.5-4.3-43.9,7.5-84.7,22.5-125,10.1-27.1,21.7-53.5,34.1-79.7,6.9-14.5,19.2-23.2,32.9-30,24-11.8,49.4-15.1,75.8-10.6,16.3,2.8,28,12.5,37.6,25.2,14.6,19.3,22.7,41.6,29,64.6,8.9,32.2,13.5,65.1,16.2,98.3q2.5,29.9,2.7,59.9c.1,11.4-1,22.6-4.4,33.5-7.7,24.7-25.9,37.3-49.7,43.5S794,458.4,772.3,458.9Z"/>
    <path class="cls-1" d="M903.2,355.1c-2.2-18.3,0-37.1,2.5-56,2.9-21.9,11.7-41.1,25.3-58.2,16.5-20.9,35.5-38.8,60.4-49.4,8.3-3.6,17.1-5.3,26.1-6.3s14.4,2,18.5,9.5a151.9,151.9,0,0,1,12.4,29.9c11.8,39,18.5,78.7,17.4,119.5a190.3,190.3,0,0,1-5,40.6c-5.5,22.4-18.3,40-35.8,54.5-3.2,2.7-6.6,5.1-9.8,7.8-14.2,11.9-30.1,13.5-47.4,8.4-15.1-4.5-28.9-11.7-42.4-19.7-7.3-4.4-11.4-11.6-14.3-19.3a112.6,112.6,0,0,1-7.9-40.9C903.2,368.9,903.2,362.4,903.2,355.1Z"/>
    <path class="cls-1" d="M376.5,357.2c-.2,10.4.4,20.1,0,29.7-1.1,21.5-6,41.5-28.1,52.3-14.5,7.1-28.6,14.9-44.9,17.3a43.3,43.3,0,0,1-32.6-7.6c-22.3-15.6-38.8-35.2-44.6-62.6-3.6-17.1-4.1-34.4-3.1-51.7,1.8-31,6.2-61.6,14.7-91.5,2.8-9.9,6-19.7,11.1-28.7,6-10.6,9.9-12.2,21.6-8.7,9,2.7,17.3,6.8,25.4,11.4,16.6,9.4,31.5,21,45.9,33.5,18.7,16.2,28.7,36.5,32.1,60.7C376.2,326.7,378.2,342.2,376.5,357.2Z"/>
    <path class="cls-1" d="M219.1,317.4c-1.6,19.1-2.7,38.4-.1,57.7,1.7,12.8,4.9,25.1,10.8,36.6a10.7,10.7,0,0,1,1.1,7.2c-2.5,13.2-6.9,25.6-14.7,36.7-10.8,15.4-21.8,30.7-36.2,43.1-4.4,3.8-9.1,7.2-14.8,9.1-7.2,2.4-12.7.7-16.2-5.9-15.5-29.6-29.7-59.8-34-93.6-3.4-26.7-2.4-53.6-2.8-80.3-.4-28.8-1.5-57.6-.2-86.4.3-6.3,1-12.6,1.9-18.9.7-4.5,2.9-5.8,7.1-5.7,8.2.3,15.6,3.3,22.7,7a186.9,186.9,0,0,1,56.8,44.9c10.2,11.9,14.2,26.8,18.7,41.5C219.9,312.6,219,314.9,219.1,317.4Z"/>
    <path class="cls-1" d="M785.6,507a105.1,105.1,0,0,1,7.6-39c1.3-3.2,3.1-4.5,6.5-4.7,17.7-.8,35.2-2.6,52.1-8.2,11-3.7,21.2-8.8,29.6-16.9,1.2-1.1,2.2-2.3,4.3-1.9,12.9,2.6,25.5,6,37.1,12.5s19.6,18.2,17.9,32.9c-4.9,40.1-11,79.8-32.8,115.1-8.3,13.4-17.3,26-29.5,36.3-19.7,16.6-39.5,10.4-52.5-3.3-10.4-11-16.5-24.5-21.3-38.6-7.9-22.8-15-45.8-18-69.9C786,516.6,785.9,511.8,785.6,507Z"/>
    <path class="cls-1" d="M1163.8,269.6c-1.4,35.2-2.8,72.6-9.7,109.6-6,31.6-17.5,61.2-31.4,90-1.5,3.1-2.9,6.4-4.6,9.4-4.3,7.5-10.1,9.6-18.1,6.4s-16.2-10.4-22.8-17.4c-11.2-11.7-20.5-24.9-29.5-38.3-1.3-2-1.7-3.4,0-5.6,14.2-17.6,20-38.4,22.2-60.4,3.6-35.8,0-71.1-7.5-106.1-.5-2.4-1.2-4.8.8-7,23.1-25,50-44.2,83.2-53.4l2-.4c9.2-1.3,11.2.1,12.6,9.3C1164.2,226,1164,246.7,1163.8,269.6Z"/>
    <path class="cls-1" d="M1080.1,526.1c-.4,28.4-5.4,55.9-16.1,82.2-6.6,16.3-16.5,29.7-34,35.6s-35.3,2.1-50.9-9c-20.1-14.3-35.3-32.1-39.8-57-3.5-19.3-3.7-38.6.9-57.9,3.3-14,6.1-28.3,6.2-42.9,0-5.3,4.7-8.5,7.9-12.3s7.2-6.1,13.6-4.2c18.5,5.7,35.9,3.1,51-9.9,4.6-3.9,9.5-7.4,13.8-11.5,2.3-2.2,4-2,6.3-.4,21.1,14.6,34.4,34.4,39,59.8A136.7,136.7,0,0,1,1080.1,526.1Z"/>
    <path class="cls-1" d="M217.1,519.5c.2-17.8,1.4-37.4,11.2-55.2a105.2,105.2,0,0,1,17.9-23.9c1.9-1.9,3.1-2.5,5.6-.3,5.2,4.7,10.7,9,16.3,13.2,14.5,10.9,30.5,10.8,47.1,6.2a104.3,104.3,0,0,0,18.6-7c2.3-1.1,3.8-1,5.7.7a58.4,58.4,0,0,1,10.9,12.9,9.1,9.1,0,0,1,1.6,4.6c.3,20.2,5.3,39.9,8.5,59.7,1.3,8.1-.2,15.9-.6,23.9-1.5,37-21.3,61.7-52.6,79-18.4,10.2-48.2,6.2-63.6-14.6-9.7-13.1-14.5-28.3-18.7-43.7C220.1,557.5,217.8,539.6,217.1,519.5Z"/>
    <path class="cls-1" d="M357.1,471.7c0-23.2,9-36,28.9-43,1.9-.7,3.3-1.2,4.7.8,12.8,17.1,31.2,24.1,51.1,28.5s39.2,5.9,59,6.2c3.7.1,5.1.6,4.3,5a324.9,324.9,0,0,0-3.1,73.7,28.6,28.6,0,0,1-1.2,10.3c-5.2,17.3-10.5,34.7-20.2,50.2-6.9,11.1-15.6,20.3-29,23.7-10.7,2.7-20.4.2-29.5-5.6-16.4-10.5-27.7-25.6-37.6-42-13.1-21.8-19-45.9-22.7-70.7C360.1,495.8,357.4,482.9,357.1,471.7Z"/>
    <path class="cls-1" d="M777.9,531.9c-.8,22.1-3.1,47.6-12.8,72-8.4,20.9-22.9,33.7-45.8,36.3-10.4,1.2-18.6-2.2-25.2-10s-12.2-18.6-16.5-28.9c-12.8-30.7-24.9-61.6-31.1-94.4-3.9-20.5-2.5-40.8,2.5-60.9a15.4,15.4,0,0,1,2.8-5.8c5.1-6.6,6.6-6.8,12.5-1.1,12.6,12.2,28.3,17.6,45,20.9,19.2,3.8,38.7,4.6,58.2,4,4.3-.1,5.6,1.3,6.2,5.3A374.1,374.1,0,0,1,777.9,531.9Z"/>
    <path class="cls-1" d="M632.6,435.9c4.7,7.8,5.9,15.9,6.1,23.7.7,20,1.7,40.2-3.9,59.9-8.7,30.4-19.1,60.1-32.6,88.7a102.8,102.8,0,0,1-8,13.8c-9.4,13.8-19.5,17.2-35.7,13.6-23-5-34.3-21.2-41.4-41.7-6-17.3-8.7-35.2-9.7-53.3a331,331,0,0,1,3.3-72.2c.5-3.1,1.5-3.7,4.4-3.6,14.8.2,29.6.2,44.5.3a159.1,159.1,0,0,0,28.8-2.7C606,459.1,621.8,452.4,632.6,435.9Z"/>
    <path class="cls-1" d="M1167.8,572c-.3,6.5-.8,13.7-2.6,20.6-6.2,23.2-24.1,35.3-48,32.1-10.7-1.4-20.9-4.9-29.1-12s-13.8-16.4-10.3-28.9a218.6,218.6,0,0,0,7.8-59.7,19,19,0,0,1,1.4-7.8l8.3-19.2c1.9-4.3,3.7-7,9.8-5.7s13.5-2.8,17.1-9.4c1.7-3.2,3.1-2.7,5.6-1.1,8,5.4,14.1,12.7,19.2,20.7C1160.6,522.9,1167.3,546.2,1167.8,572Z"/>
    <path class="cls-1" d="M1208.4,291.4c-.8,42.6-7.1,84.5-14.9,126.3-3.2,17.2-6.7,34.3-13.6,50.4-2.8,6.4-6,12.6-11.1,17.6-7.7,7.5-17.3,6.5-23.6-2.1-1.7-2.4-1.4-5.1-1.4-7.7,0-12.9,2.3-25.5,3.7-38.2,2.7-24.2,11.6-47.2,14.4-71.3,4.5-38.3,13.6-75.5,22.3-112.9,1.3-5.8,3.2-11.6,6.9-16.4s6-4.2,8.9.3c4.7,7.2,5.9,15.5,7.1,23.7C1208.4,271,1208.4,281.2,1208.4,291.4Z"/>
    <path class="cls-1" d="M202.5,483.1c6.2,9.8,10.2,19.3,9.6,31.1-1.3,25.5,3.4,50.3,11.2,74.6a10,10,0,0,1-.7,8.5,26.4,26.4,0,0,1-6,7.9c-14,11.5-30.1,16.4-47.9,13s-29.9-17.4-32.8-37.9c-3.3-23.6,1.1-46,10.4-67.6.6-1.5.8-3.8,3.6-1.8,7.4,5.2,14.9,3.4,22.1-.4,10.9-5.8,19.1-14.8,27.2-23.9Z"/>
    <path class="cls-1" d="M83.6,250.7c8.9,15.8,18.3,30.7,22.2,48.2a28.9,28.9,0,0,1,.4,6c.3,20.5,1,41,.7,61.5-.6,41.9,7.9,81.6,27.6,118.7,5,9.4,2.3,13.3-5,20.9-2.7,2.8-5.4,1.6-7.9-.6-4.8-4.3-8.1-9.7-11.2-15.2-22.9-42.2-37-87-39.8-135.2-1.6-28.4-1-56.6,5.3-84.5C77.6,263.7,79.3,257,83.6,250.7Z"/>
    <path class="cls-1" d="M1238.1,342c-1.6,37.3-4.7,74.3-17,110-2.7,7.9-6.1,15.4-11.2,22.2-2.5,3.3-5.3,6.5-9.4,7.9-5.8,2-10.2-1.5-10.1-7.5.3-19.9,5.2-39.2,8.9-58.6,5.7-29.9,9.8-60,12.9-90.3,1.8-17.5,6-34.7,11.5-51.4.5-1.6.6-4.1,3-4s2.8,2.2,3.5,3.8c4.5,10,5.5,20.8,6.6,31.6A329.3,329.3,0,0,1,1238.1,342Z"/>
    <path class="cls-1" d="M1215.2,574.1c0,8.9.2,16.1-2,23s-5.4,9.5-12.6,9.9a117.8,117.8,0,0,1-13,0c-9.5-.5-17-10-15.6-19.3,3.1-20.5.4-40.5-6.4-60a8.9,8.9,0,0,1,.6-7.9,42.1,42.1,0,0,1,13-14.9c7.1-4.9,13.1-4.4,19.3,1.7,8.2,8.1,11.7,18.5,13.4,29.5A265.6,265.6,0,0,1,1215.2,574.1Z"/>
    <path class="cls-1" d="M85.1,590.5c1.5-18.9,3.1-37.8,8.9-56a45.9,45.9,0,0,1,11.1-18.7c7.6-7.7,15.6-7.8,23.7-.6l2.8,2.8c3.6,3.3,4.5,6.7,3,11.9-5.9,20.8-7.8,41.8-1.2,62.9a3.3,3.3,0,0,1-.1,2.8c-3.6,6.7-7.4,13.4-14.2,16.9-9,4.6-18.5,3.1-27.4-.6-3.8-1.6-5-5.7-5.7-9.5A50.6,50.6,0,0,1,85.1,590.5Z"/>
    <path class="cls-1" d="M46,314.5c0-12.9-.7-24.4,2-35.7.8-3.4,1.1-8,5.5-8.6s5.4,3.7,7.6,6.4c6.3,7.8,5.6,16.7,4.9,26-4.7,57.4,3.2,112.8,27.8,165.3,3.4,7.2,6.1,14.2,3.2,22.3-2.3,6.2-4.7,7.2-9.5,2.6-7.9-7.5-12.2-17.4-16.1-27.3-10.2-25.8-16-52.8-19.1-80.3C49.4,361.2,46.9,337.2,46,314.5Z"/>
    <path class="cls-1" d="M954.6,456.5l-9.3,10c-10.3-23.8-32.4-29.2-54.5-34.6l-2.9-.7a74.8,74.8,0,0,0,12.2-26.8c2.4.6,2.1,2.8,2.6,4.3a86.2,86.2,0,0,0,7.1,17.5,40,40,0,0,0,15.9,16A280,280,0,0,0,954.6,456.5Z"/>
    <path class="cls-1" d="M213.5,491.2c-2.2-3.8-4.1-7.5-6.3-10.9s.2-3.3,1.2-4.7c6.6-9,13.4-17.8,18.6-27.6,4.1-7.8,6.6-16.1,8.6-25.4,3,3.6,5.5,6.8,8.3,9.8s-.1,2.8-1.1,3.8c-12,12.1-21.4,25.8-26.2,42.3C215.4,482.5,214.6,486.7,213.5,491.2Z"/>
    <path class="cls-1" d="M644.6,399.6c2.3,10.1,5.2,19.6,10.6,28.2.7,1.1.6,1.7-.5,2.4a26.9,26.9,0,0,0-12.1,18.5c-1.3-6.7-2.3-11.9-6.1-16a2.6,2.6,0,0,1-.6-3.2c4.2-9,6.2-18.6,7.7-28.3C643.7,400.8,644.1,400.4,644.6,399.6Z"/>
    <path class="cls-1" d="M1140.4,443.5c-.6,12.6-2.8,25.1-2.1,38.2l-10.5-7c-1.3-.9-.9-1.9-.4-3Z"/>
    <path class="cls-1" d="M1077.8,476.9c5.2,3.5,9.9,7.7,15.3,10.9,1.1.6.4,1.4,0,2.1l-8.4,16.7C1083.1,496,1081.5,486.3,1077.8,476.9Z"/>
    <path class="cls-1" d="M368.6,431c5.5-7.4,8.3-15.9,10.9-24.8,2.1,5.2,3.4,10.3,6,14.9.7,1.2.4,1.7-.8,2.2A132.5,132.5,0,0,0,368.6,431Z"/>
    <path class="cls-1" d="M342.6,448.3l18.3-10.1c-4.2,7-7.5,13-8.2,19.9Z"/>
    <path class="cls-1" d="M789.1,464c-3.2,7-4.8,14.2-7.5,22.4-1-7.2-1.7-13.1-2.8-18.8-.5-2.7-.3-4,2.8-3.7S786.2,464,789.1,464Z"/>
    <path class="cls-1" d="M141.4,500c5.5,6.9-2.1,11.4-2.5,17.2-.6-.2-1-.2-1.2-.4-5.1-5.3-5.1-5.3-.8-10.8Z"/>
  </g>
</svg>
