<?xml version="1.0" encoding="utf-8"?>
<!-- Generator: Adobe Illustrator 21.0.2, SVG Export Plug-In . SVG Version: 6.00 Build 0)  -->
<svg version="1.1" id="Layer_1" xmlns="http://www.w3.org/2000/svg" xmlns:xlink="http://www.w3.org/1999/xlink" x="0px" y="0px"
	 viewBox="0 0 150 86.6" style="enable-background:new 0 0 150 86.6;" xml:space="preserve">
<style type="text/css">
	.st0{fill:#0B0A0A;}
	.st1{fill:#E85F66;}
	.st2{fill:#FDFDFD;}
</style>
<title>Artboard 1</title>
<g>
	<path class="st0" d="M11.6,60.1c-0.5-0.6-0.9-1.3-1.2-2c-0.1,0.3-0.2,0.6-0.3,0.8c-0.4,0.8-1,1-1.7,0.5c-0.7-0.5-1-1-1.3-1.6
		c-1.3-2.2-1.9-4.5-2.5-6.9C3.6,47.3,3.3,43.7,3,40.1c-0.1-1.2-0.1-2.3-0.2-3.5c0-0.2,0-0.4-0.1-0.5c-1.1-1-1.5-2.3-1.9-3.6
		c-1.3-4.6-1-9.1,0.6-13.6c0.2-0.6,0.6-1.1,1.1-1.5c1.6-1.2,3.4-2.2,5.2-3.1c8.6-4.1,17.5-7.3,26.6-9.8c4.5-1.2,9.2-2,13.9-2.6
		c6.1-0.8,12.2-1.3,18.4-1.6c8.1-0.4,16.1-0.5,24.2-0.1c4.6,0.2,9.2,0.6,13.8,1.2c7.1,0.9,14,2.2,20.8,4.5
		c6.4,2.1,12.7,4.5,18.6,7.9c1.2,0.7,2.3,1.4,3.4,2.2c1.4,1.1,1.9,2.7,2.2,4.3c0.6,3.8,0.4,7.8-0.8,11.5c-0.3,0.9-0.8,1.7-1.7,2.3
		c-0.4,0.3-0.5,0.5-0.5,1c0.6,5.9,0.2,11.8-1.3,17.6c-0.4,1.4-0.9,2.7-1.7,3.9c-0.3,0.5-0.7,0.9-1.2,1.3c-0.5,0.3-1.2,0.5-1.8,0.1
		c-0.6-0.3-0.8-0.8-0.7-1.5c0-0.1,0-0.2,0-0.4c-1,1.7-1.8,3.5-4.3,2.9c0.6,0.8,1.1,1.7,1.5,2.6c0.4-0.7,0.9-1.3,1.5-1.7
		c1.4-1.1,2.6-1,3.8,0.4c1.1,1.4,1.4,2.7,1.6,4.2c0.1,1,0.2,1.9,0.3,2.9c0,0.3,0.2,0.5,0.3,0.7c2,2.9,3,6.1,2.5,9.6
		c-0.2,1.6-0.9,2.2-2.5,2.5c-4.3,0.8-8.6,1.4-12.9,2c-4.7,0.7-9.4,1.2-14.1,1.7c-3.8,0.4-7.6,0.8-11.4,1.1c-4.9,0.4-9.9,0.8-14.8,1
		c-7.6,0.4-15.2,0.6-22.9,0.5c-4.9-0.1-9.8-0.3-14.7-0.6c-4.5-0.3-9-0.6-13.6-1c-5-0.4-10-1-15-1.6c-5.3-0.7-10.7-1.4-16-2.3
		c-1.9-0.3-2.5-1-2.7-2.9s0.2-3.5,0.8-5.2c0.2-0.5,0.3-1,0.2-1.5c-0.2-1.4,0-2.8,0.2-4.1s0.4-3.1,1.1-4.5
		C9.5,61.6,10.2,60.6,11.6,60.1z M75.1,37.5c0.2-0.8,0.3-1.5,0.5-2.1c1.5-5.7,3.8-11.1,6.3-16.4c0.2-0.4,0.5-0.8,0.8-1.1
		c1.6-1.7,3.6-2.7,5.8-3.4c2.5-0.7,5.1-0.9,7.6-0.2c2.3,0.6,3.8,2.2,5,4.2c2,3.2,2.9,6.7,3.7,10.4c0.5,2.2,0.8,4.4,1,6.6
		c0.1-0.2,0.1-0.4,0.2-0.6c0.2-1.1,0.4-2.3,0.9-3.3c1.9-3.8,4.7-6.9,8.4-9c1.6-0.9,3.4-1.4,5.2-1.4c0.7,0,1.4,0.3,1.8,0.9
		c0.6,0.8,1,1.7,1.4,2.6c0.5,1.4,0.9,2.8,1.3,4.3c1.4-1.6,3-2.9,4.8-4s3.4-2.1,5.4-2.5c1.7-0.4,2.3,0,2.6,1.7c0,0.1,0,0.3,0.1,0.4
		c0.4,3.1,0.3,6.1,0.2,9.2c0,0.2-0.1,0.4,0.1,0.6c0.1-0.3,0.1-0.5,0.2-0.7c0.4-1.5,0.7-3,1.1-4.5c0.1-0.6,0.4-1.2,0.8-1.7
		c0.7-0.9,1.5-0.9,2.2,0.1c0.3,0.5,0.5,1,0.7,1.6c0.4,1.5,0.4,3,0.5,4.6c0.2-0.7,0.4-1.3,0.6-1.8c0.2-0.6,0.4-0.8,0.9-0.8
		c0.5,0,0.8,0.3,1,0.7c0.2,0.4,0.4,0.9,0.5,1.3c0.1,0.4,0.2,0.3,0.5,0.2c0.7-0.5,1.1-1.2,1.4-2c1.1-3.7,1.4-7.7,0.7-11.5
		c-0.3-1.7-1.1-3.1-2.6-4.1c-1.8-1.2-3.7-2.3-5.6-3.3c-5.1-2.6-10.5-4.6-15.9-6.3c-4.3-1.4-8.7-2.5-13.2-3.3
		c-5.1-0.9-10.2-1.4-15.3-1.8C92.5,1,88.9,0.8,85.2,0.7C79.6,0.6,74.1,0.7,68.5,1c-1.9,0.1-3.8,0.2-5.6,0.3c-1.4,0-2.9,0.3-4.3,0.3
		c-1.4,0.1-2.7,0.2-4.1,0.3c-3.1,0.3-6.1,0.7-9.1,1.1c-4.7,0.7-9.3,1.6-13.8,3c-7.4,2.2-14.7,4.8-21.7,8.1c-2.2,1-4.3,2.1-6.4,3.5
		c-0.8,0.5-1.4,1.3-1.7,2.2c-0.8,2.5-1.2,5.1-1.1,7.7c0.1,2.5,0.5,4.8,1.6,7.1c0.1,0.3,0.2,0.6,0.5,0.7c0-0.3,0-0.5,0.1-0.8
		c0-0.8,0.1-1.6,0.4-2.3c0.5-1,1.3-1.2,2.1-0.3c0.3,0.3,0.5,0.7,0.8,1.1C6.4,32,6.6,31,7,30.2c0.2-0.5,0.3-1.1,1-1.2
		c0.6,0,0.8,0.6,1,1c0.5,1,1.2,2,1.7,3c0-1.1,0-2.2,0-3.4c0-1.1,0.1-2.5,0.3-3.8c0.1-0.6,0.5-1,1.2-1c0.9,0,1.7,0.2,2.6,0.5
		c2,0.9,3.7,2.1,5.3,3.4c1.9,1.6,3.6,3.4,4.3,5.9c0,0.1,0.1,0.1,0.1,0.2c0.2-0.1,0.1-0.3,0.2-0.4c0.3-2.1,0.7-4.2,1.3-6.2
		c0.4-1.4,0.9-2.9,1.8-4.1c0.5-0.7,1.2-1.1,2.1-0.9c0.6,0.1,1.2,0.3,1.8,0.5c3.6,1.6,6.8,3.9,9.4,6.8c1,1.1,1.7,2.4,2,3.8l0.6,2.4
		c0.1-0.3,0.1-0.6,0.1-0.8c0.4-3.6,1.1-7.1,2.2-10.5s2.5-6.8,5.2-9.4c0.8-0.8,1.7-1.4,2.8-1.6c3.8-0.9,7.4-0.5,10.8,1.3
		c1.5,0.8,2.9,1.8,3.7,3.4c2.4,4.9,4.5,10,5.9,15.2C74.6,35.5,74.8,36.5,75.1,37.5L75.1,37.5z M91.8,64.2c0,0.1,0,0.3,0,0.4
		c-0.2,2.6-0.5,5.2-1.5,7.6c-1,2.4-2.6,4.1-5.2,4.6c-2.1,0.4-3.5,0-4.7-1.8c-0.3-0.4-0.5-0.7-0.7-1.1c-2-3.8-3.3-7.8-4.4-11.9
		c-0.1-0.2,0-0.5-0.3-0.7l-0.1,0.4c-0.8,3.1-1.9,6.1-3.1,9.1c-0.6,1.5-1.3,3-2.3,4.3c-0.8,0.9-1.7,1.6-3,1.5
		c-2.3-0.1-4.3-0.9-5.6-2.9c-1.1-1.6-1.6-3.5-2-5.4c-0.1-0.4,0-0.8-0.3-1.2c-0.5,1.5-0.9,2.8-1.6,4.1c-0.4,0.8-0.9,1.6-1.6,2.3
		c-1.8,2-4.8,2.9-7.6,0.6c-2.5-2.1-4.2-4.7-5.4-7.7c-0.1-0.2-0.1-0.4-0.3-0.5c-0.2,0.2-0.1,0.4-0.1,0.5c-0.1,2.7-1.2,5-3.1,7
		c-1.2,1.3-2.7,2.4-4.3,3c-2.6,0.9-5.6,0.1-7.3-2c-0.7-0.9-1.2-1.8-1.7-2.9c-1.4,1.9-3.3,2.7-5.5,2.9s-4.1-0.8-5.4-2.8
		c-0.8,1.1-1.4,2.2-2.8,2.3C10.3,74,9,74.1,8,73c-0.6,1.7-1,3.4-0.8,5.2c0.2,1.4,0.7,2,1.9,2.2c3.3,0.5,6.5,1,9.8,1.5
		c6,0.8,11.9,1.6,17.9,2.1c5,0.5,9.9,0.9,14.9,1.2c5.2,0.3,10.3,0.6,15.5,0.7c8.4,0.2,16.7,0,25.1-0.5c2.6-0.1,5.1-0.3,7.7-0.5
		c2.6-0.2,5.3-0.5,8-0.7c4.8-0.4,9.5-0.9,14.3-1.5c3.3-0.4,6.7-0.9,10-1.3c4.1-0.6,8.1-1.2,12.2-1.9c1.4-0.3,1.9-0.8,2.1-2.2
		c0.3-2-0.1-4-0.8-5.9c-0.3-0.9-0.7-1.8-1.4-2.6c-0.1,0.8-0.1,1.6-0.3,2.3c-0.2,0.7-0.6,1.6-1.5,1.8c-1.7,0.3-3.3,0.4-4.4-1.2
		c0,0-0.1,0-0.1,0c-1.1,2.5-3,3.7-5.6,3.5c-2.7-0.2-4.6-1-5.8-3.5c-0.5,1.2-0.9,2.3-1.6,3.3c-1.5,2.2-4.8,3.5-7.3,2.6
		c-4-1.6-6.7-4.3-7.6-8.7c-0.1-0.7-0.2-1.4-0.3-2.2c-0.1,0.3-0.2,0.5-0.3,0.7c-0.6,1.7-1.5,3.4-2.5,5c-1,1.5-2.1,2.9-3.5,3.9
		c-0.8,0.6-1.6,1.1-2.6,1.1c-1.9,0-3.3-0.8-4.5-2.2c-1-1.2-1.6-2.6-2.2-4C93.1,68.9,92.5,66.5,91.8,64.2z M61.9,54.7
		c2.2,0,4.4,0.1,6.5-0.3c3.4-0.6,5.1-2.2,5.8-5.5c0.2-0.9,0.3-1.8,0.4-2.7c0.2-3.7,0.3-7.3-0.7-10.9c-1.4-5.2-3.5-10.2-5.7-15.1
		c-0.6-1.3-1.6-2.5-2.8-3.2c-2.6-1.6-5.4-2.3-8.4-2.2c-3,0-5.2,1.3-6.9,3.6c-1.9,2.5-3,5.4-3.8,8.4c-1.3,4.3-1.9,8.8-2.3,13.2
		c-0.2,2.3-0.3,4.6,0,6.9c0.4,2.8,1.8,4.9,4.5,6.1c1.1,0.5,2.3,0.8,3.5,1C55.2,54.6,58.5,54.6,61.9,54.7z M90.5,54.6
		c2.6-0.1,5.6-0.1,8.6-0.8c2.9-0.8,5-2.3,6-5.2c0.4-1.3,0.5-2.7,0.5-4c0-2.4-0.1-4.8-0.3-7.2c-0.3-4-0.9-7.9-1.9-11.8
		c-0.8-2.8-1.7-5.4-3.5-7.7c-1.2-1.5-2.6-2.7-4.5-3c-3.2-0.6-6.2-0.1-9.1,1.3c-1.7,0.8-3.1,1.9-3.9,3.6c-1.5,3.1-2.9,6.3-4.1,9.6
		c-1.8,4.8-3.2,9.7-2.7,15c0.1,1.4,0.3,2.9,0.6,4.3c0.9,3.1,3,4.7,6,5.4C84.8,54.6,87.5,54.6,90.5,54.6L90.5,54.6z M106.2,42.2
		c0,0.9,0,1.6,0,2.4c0,1.7,0.3,3.3,0.9,4.9c0.4,0.9,0.8,1.8,1.7,2.3c1.6,1,3.3,1.8,5.1,2.4c2.1,0.6,4,0.4,5.7-1
		c0.4-0.3,0.8-0.6,1.2-0.9c2.1-1.7,3.6-3.8,4.3-6.5c0.4-1.6,0.6-3.2,0.6-4.9c0.1-4.9-0.7-9.7-2.1-14.3c-0.4-1.2-0.9-2.4-1.5-3.6
		c-0.5-0.9-1.2-1.2-2.2-1.1s-2.1,0.3-3.1,0.8c-3,1.3-5.3,3.4-7.2,5.9c-1.6,2.1-2.7,4.4-3,7C106.2,37.7,106,40,106.2,42.2z
		 M43.1,42.4c0.2-1.8,0-3.6-0.3-5.5c-0.4-2.9-1.6-5.3-3.8-7.3c-1.7-1.5-3.5-2.9-5.5-4c-1-0.6-2-1.1-3-1.4c-1.4-0.4-1.9-0.2-2.6,1
		c-0.6,1.1-1,2.3-1.3,3.4c-1,3.6-1.5,7.3-1.8,11c-0.1,2.1-0.1,4.1,0.4,6.2c0.7,3.3,2.7,5.6,5.3,7.5c1.1,0.8,2.5,1.1,3.9,0.9
		c1.9-0.3,3.6-1.2,5.4-2.1c2.6-1.3,3.2-3.7,3.4-6.3C43.2,44.8,43.1,43.7,43.1,42.4L43.1,42.4z M24.2,37.7c0-0.3,0.1-0.6,0-0.9
		c-0.5-1.7-1-3.5-2.2-5c-1.9-2.2-4.2-4-6.8-5.4c-0.9-0.4-1.7-0.8-2.7-0.8c-0.5,0-0.8,0.1-0.9,0.7c-0.1,0.8-0.2,1.5-0.2,2.3
		c-0.2,3.5,0,6.9,0,10.4c0,3.2-0.1,6.4,0.3,9.6c0.5,4.1,2.2,7.7,4.1,11.2c0.4,0.8,1.1,1,1.9,0.7c0.7-0.2,1.2-0.6,1.8-1.1
		c1.7-1.5,3-3.3,4.3-5.2c0.9-1.3,1.5-2.8,1.8-4.4c0.1-0.3,0-0.6-0.1-0.9c-0.7-1.4-1.1-2.9-1.3-4.4C23.9,42.3,24,39.9,24.2,37.7z
		 M92.1,60.4c0,0.6,0.1,1.2,0.1,1.7c0.4,2.9,1.2,5.6,2.2,8.4c0.6,1.7,1.3,3.3,2.6,4.6c1.6,1.7,3.9,2.4,6.3,0.4
		c1.5-1.2,2.5-2.7,3.5-4.4c2.6-4.2,3.3-9,3.9-13.8c0.2-1.8-0.6-3.1-2.1-3.9c-1.6-0.9-2.9-1.2-4.4-1.5c-0.3,0-0.4,0.1-0.5,0.2
		c-1,1-2.2,1.6-3.5,2c-2,0.7-4.1,0.9-6.2,1c-0.4,0-0.6,0.2-0.8,0.6C92.5,57.2,92.1,58.8,92.1,60.4z M137.5,31.9c0-2.7,0-5.2-0.3-7.7
		c-0.2-1.1-0.4-1.3-1.5-1.1l-0.2,0c-4,1.1-7.2,3.4-10,6.4c-0.3,0.3-0.2,0.6-0.1,0.8c0.9,4.2,1.3,8.4,0.9,12.7
		c-0.3,2.6-1,5.1-2.7,7.2c-0.2,0.3-0.2,0.4,0,0.7c1.1,1.6,2.2,3.2,3.5,4.6c0.8,0.8,1.6,1.6,2.7,2.1c1.1,0.4,1.7,0.1,2.2-0.8
		c0.2-0.4,0.4-0.7,0.6-1.1c1.7-3.5,3.1-7,3.8-10.8C137.1,40.6,137.3,36.1,137.5,31.9z M127.4,62.7c0-1.1-0.1-2.2-0.3-3.3
		c-0.6-3-2.1-5.4-4.7-7.2c-0.3-0.2-0.5-0.2-0.8,0c-0.5,0.5-1.1,0.9-1.7,1.4c-1.8,1.5-3.9,1.9-6.1,1.2c-0.8-0.2-1.2,0-1.6,0.5
		s-0.9,0.8-0.9,1.5c0,1.7-0.3,3.5-0.7,5.1c-0.6,2.3-0.5,4.6-0.1,6.9c0.5,3,2.4,5.1,4.8,6.8c1.9,1.3,3.9,1.8,6.1,1.1s3.3-2.3,4.1-4.3
		C126.8,69.4,127.4,66.1,127.4,62.7L127.4,62.7z M24,61.9c0.1,2.4,0.4,4.6,0.9,6.7c0.5,1.8,1.1,3.7,2.2,5.2c1.8,2.5,5.4,3,7.6,1.7
		c3.7-2.1,6.1-5,6.3-9.5c0-0.9,0.2-1.9,0.1-2.9c-0.4-2.4-1-4.7-1-7.2c0-0.2-0.1-0.4-0.2-0.6c-0.4-0.6-0.8-1.1-1.3-1.5
		c-0.2-0.2-0.4-0.2-0.7-0.1c-0.7,0.3-1.5,0.6-2.2,0.8c-2,0.5-3.9,0.6-5.6-0.7c-0.7-0.5-1.3-1-2-1.6c-0.3-0.3-0.4-0.2-0.7,0
		c-0.8,0.8-1.6,1.8-2.1,2.9C24.2,57.4,24,59.7,24,61.9L24,61.9z M40.8,56.1c0,1.4,0.3,2.9,0.6,4.4c0.4,3,1.2,5.9,2.7,8.5
		c1.2,2,2.5,3.8,4.5,5c1.1,0.7,2.3,1,3.5,0.7c1.6-0.4,2.6-1.5,3.5-2.8c1.2-1.9,1.8-3.9,2.4-6c0.1-0.4,0.2-0.8,0.1-1.2
		c-0.2-2.9-0.1-5.9,0.4-8.8c0.1-0.5-0.1-0.6-0.5-0.6c-2.4,0-4.7-0.2-7.1-0.7c-2.3-0.5-4.6-1.4-6.1-3.4c-0.2-0.2-0.3-0.2-0.6-0.1
		C41.9,51.8,40.8,53.4,40.8,56.1L40.8,56.1z M91.2,63.4c0-2.5-0.1-5-0.5-7.5c-0.1-0.5-0.2-0.6-0.7-0.6c-2.3,0.1-4.7,0-7-0.5
		c-2-0.4-3.9-1-5.4-2.5c-0.7-0.7-0.9-0.7-1.5,0.1c-0.2,0.2-0.3,0.4-0.3,0.7c-0.6,2.4-0.8,4.8-0.3,7.3c0.7,3.9,2.2,7.6,3.7,11.3
		c0.5,1.2,1.1,2.4,2,3.5c0.9,1,1.8,1.3,3,1.2c2.7-0.3,4.5-1.8,5.5-4.4C90.8,69.1,91.1,66,91.2,63.4L91.2,63.4z M73.8,51.9
		c-1.3,2-3.2,2.8-5.3,3.2c-1.1,0.2-2.3,0.3-3.5,0.3c-1.8,0-3.5,0-5.3,0c-0.3,0-0.5,0.1-0.5,0.4c-0.4,2.9-0.6,5.8-0.4,8.7
		c0.1,2.2,0.4,4.3,1.2,6.4c0.9,2.4,2.2,4.4,5,5c1.9,0.4,3.2,0,4.3-1.6c0.4-0.5,0.7-1.1,1-1.7c1.6-3.4,2.9-7,3.9-10.6
		c0.7-2.4,0.6-4.8,0.5-7.2C74.5,53.8,74.4,52.8,73.8,51.9z M138,68.2c-0.1-3.1-0.9-5.9-2.5-8.4c-0.6-1-1.3-1.8-2.3-2.5
		c-0.3-0.2-0.5-0.3-0.7,0.1c-0.4,0.8-1.2,1.3-2,1.1s-1,0.2-1.2,0.7l-1,2.3c-0.1,0.3-0.2,0.6-0.2,0.9c0,2.4-0.3,4.8-0.9,7.2
		c-0.4,1.5,0.2,2.6,1.2,3.5c1,0.9,2.2,1.3,3.5,1.4c2.9,0.4,5-1.1,5.8-3.8C137.9,69.8,137.9,69,138,68.2z M142.8,34.5
		c0-1.2,0-2.4-0.2-3.6c-0.1-1-0.3-2-0.9-2.8c-0.4-0.5-0.7-0.6-1.1,0c-0.4,0.5-0.7,1.3-0.8,2c-1,4.5-2.1,9-2.7,13.5
		c-0.3,2.9-1.4,5.6-1.7,8.5c-0.2,1.5-0.4,3-0.4,4.6c0,0.3,0,0.6,0.2,0.9c0.8,1,1.9,1.2,2.8,0.3c0.6-0.6,1-1.3,1.3-2.1
		c0.8-1.9,1.2-4,1.6-6C142,44.7,142.7,39.6,142.8,34.5L142.8,34.5z M22.2,57.5l-0.4,0.4c-1,1.1-2,2.2-3.3,2.9
		c-0.9,0.5-1.8,0.7-2.6,0c-0.3-0.2-0.4,0-0.4,0.2c-1.1,2.6-1.7,5.3-1.2,8.1c0.3,2.5,1.7,4.1,3.9,4.5s4.1-0.2,5.7-1.6
		c0.3-0.3,0.5-0.6,0.7-0.9c0.2-0.3,0.2-0.7,0.1-1c-0.9-2.9-1.5-5.9-1.3-8.9C23.5,59.8,23,58.7,22.2,57.5z M8,29.7
		c-0.5,0.8-0.7,1.6-0.9,2.4c-0.8,3.3-0.8,6.7-0.6,10.1c0.3,5.8,2,11.1,4.8,16.2c0.4,0.7,0.8,1.3,1.3,1.8c0.3,0.3,0.6,0.4,0.9,0.1
		c0.9-0.9,1.2-1.4,0.6-2.5c-2.4-4.4-3.4-9.2-3.3-14.2c0-2.5,0-4.9-0.1-7.4c0-0.2,0-0.5,0-0.7C10.2,33.3,9.1,31.5,8,29.7z
		 M146.4,40.6c0-1.5,0-2.9-0.2-4.4c-0.1-1.3-0.3-2.6-0.8-3.8c-0.1-0.2-0.2-0.5-0.4-0.5c-0.2,0-0.3,0.3-0.4,0.5
		c-0.7,2-1.2,4.1-1.4,6.2c-0.4,3.6-0.9,7.2-1.5,10.8c-0.4,2.3-1,4.6-1.1,7c0,0.7,0.5,1.1,1.2,0.9c0.5-0.2,0.8-0.6,1.1-0.9
		c0.6-0.8,1-1.7,1.3-2.7C145.8,49.5,146.2,45.1,146.4,40.6z M143.6,68.4c0-1.5-0.2-3.1-0.4-4.6c-0.2-1.3-0.6-2.6-1.6-3.5
		c-0.7-0.7-1.5-0.8-2.3-0.2c-0.7,0.5-1.2,1.1-1.6,1.8c-0.2,0.3-0.2,0.6-0.1,0.9c0.8,2.3,1.1,4.7,0.8,7.2c-0.2,1.1,0.7,2.3,1.9,2.3
		c0.5,0,1,0,1.6,0c0.9,0,1.2-0.4,1.5-1.2S143.6,69.5,143.6,68.4z M8.2,70.4c0,0.5,0,1,0.1,1.4C8.4,72.3,8.5,72.8,9,73
		c1.1,0.5,2.2,0.6,3.3,0.1c0.8-0.4,1.3-1.2,1.7-2c0.1-0.1,0.1-0.2,0-0.3c-0.8-2.5-0.6-5,0.1-7.5c0.2-0.6,0.1-1-0.4-1.4l-0.3-0.3
		c-1-0.9-1.9-0.9-2.8,0.1c-0.6,0.6-1.1,1.4-1.3,2.2C8.5,65.9,8.4,68.1,8.2,70.4z M3.5,37.3c0.1,2.7,0.4,5.6,0.7,8.5
		c0.4,3.3,1.1,6.5,2.3,9.6c0.5,1.2,1,2.4,1.9,3.3c0.6,0.5,0.9,0.4,1.1-0.3c0.4-1,0-1.8-0.4-2.7c-2.9-6.3-3.9-12.9-3.3-19.8
		C6,34.8,6,33.7,5.3,32.8C5,32.4,4.9,31.9,4.4,32s-0.6,0.6-0.7,1C3.4,34.4,3.5,35.8,3.5,37.3z M112.4,54.3c-1.2-0.5-2.3-1.1-3.5-1.7
		c-0.8-0.4-1.5-1.1-1.9-1.9c-0.4-0.7-0.6-1.4-0.9-2.1c0-0.2,0-0.4-0.3-0.5c-0.3,1.2-0.8,2.3-1.5,3.2l0.3,0.1
		c2.6,0.6,5.3,1.3,6.5,4.1L112.4,54.3z M23.6,58.5c0.1-0.5,0.2-1,0.4-1.5c0.6-2,1.7-3.6,3.1-5.1c0.1-0.1,0.4-0.2,0.1-0.5
		c-0.2-0.3-0.6-0.7-1-1.2c-0.2,1.1-0.5,2.1-1,3c-0.6,1.2-1.4,2.2-2.2,3.3c-0.1,0.2-0.3,0.3-0.1,0.6C23,57.5,23.3,58,23.6,58.5z
		 M75.2,47.5c-0.1,0.1-0.1,0.1-0.1,0.2c-0.2,1.2-0.4,2.3-0.9,3.4c-0.1,0.1,0,0.3,0.1,0.4c0.5,0.5,0.6,1.1,0.7,1.9
		c0.1-0.9,0.7-1.7,1.5-2.2c0.1-0.1,0.1-0.2,0.1-0.3C75.9,49.9,75.5,48.7,75.2,47.5z M134.7,52.8l-1.6,3.4c-0.1,0.1-0.1,0.3,0,0.4
		l1.3,0.8C134.3,55.8,134.6,54.3,134.7,52.8L134.7,52.8z M127.2,56.8c0.4,1.1,0.6,2.3,0.8,3.6l1-2c0-0.1,0.1-0.2,0-0.3
		C128.4,57.7,127.8,57.2,127.2,56.8L127.2,56.8z M42.2,51.3c0.6-0.4,1.3-0.7,1.9-0.9c0.1-0.1,0.2-0.1,0.1-0.3
		c-0.3-0.6-0.5-1.2-0.7-1.8C43.2,49.4,42.8,50.4,42.2,51.3z M39,53.3l1.2,1.2c0.1-0.8,0.5-1.5,1-2.4L39,53.3z M92.6,55.2
		c-0.3,0-0.6,0-0.9,0c-0.3,0-0.4,0.1-0.3,0.4c0.1,0.7,0.2,1.4,0.3,2.3C92,56.9,92.2,56.1,92.6,55.2z M14.9,59.5l-0.5,0.7
		c-0.5,0.7-0.5,0.7,0.1,1.3c0,0,0.1,0,0.1,0C14.7,60.9,15.6,60.4,14.9,59.5z"/>
	<path class="st1" d="M75.1,37.5c-0.3-1-0.5-2-0.8-3c-1.5-5.3-3.6-10.3-5.9-15.2c-0.8-1.6-2.2-2.6-3.7-3.4
		c-3.4-1.8-7.1-2.3-10.8-1.3c-1.1,0.3-2,0.9-2.8,1.6c-2.7,2.6-4.1,5.9-5.2,9.4c-1.1,3.5-1.8,7-2.2,10.5c0,0.2-0.1,0.4-0.1,0.8
		l-0.6-2.4c-0.3-1.4-1-2.7-2-3.8c-2.6-2.9-5.8-5.3-9.4-6.8c-0.6-0.2-1.2-0.4-1.8-0.5c-0.9-0.2-1.5,0.2-2.1,0.9
		c-0.9,1.2-1.3,2.7-1.8,4.1c-0.6,2-1,4.1-1.3,6.2c0,0.1,0,0.3-0.2,0.4c0-0.1-0.1-0.1-0.1-0.2C23.6,32.4,22,30.6,20,29
		c-1.6-1.4-3.3-2.6-5.3-3.4c-0.8-0.3-1.6-0.6-2.6-0.5c-0.7,0-1,0.4-1.2,1c-0.3,1.2-0.3,2.5-0.3,3.8c0,1.3,0,2.2,0,3.4
		c-0.5-1-1.1-2-1.7-3c-0.2-0.4-0.4-1.1-1-1c-0.6,0-0.8,0.7-1,1.2C6.6,31,6.4,32,6.2,32.9c-0.3-0.4-0.5-0.8-0.8-1.1
		c-0.8-0.8-1.6-0.7-2.1,0.3c-0.3,0.7-0.4,1.5-0.4,2.3c0,0.2,0,0.5-0.1,0.8c-0.3-0.2-0.4-0.5-0.5-0.7c-1.1-2.2-1.5-4.6-1.6-7.1
		c-0.1-2.6,0.3-5.2,1.1-7.7c0.3-0.9,0.9-1.7,1.7-2.2c2-1.3,4.2-2.4,6.4-3.5c7-3.2,14.3-5.8,21.7-8c4.5-1.4,9.1-2.3,13.8-3
		c3-0.5,6.1-0.9,9.1-1.1c1.4-0.1,2.7-0.2,4.1-0.3c1.4-0.1,2.9-0.3,4.3-0.3c1.9,0,3.8-0.1,5.6-0.3C74,0.7,79.6,0.6,85.2,0.7
		c3.7,0.1,7.4,0.3,11.1,0.6c5.1,0.4,10.3,0.9,15.3,1.8c4.5,0.8,8.9,1.9,13.2,3.3c5.5,1.7,10.8,3.8,15.9,6.3c1.9,1,3.8,2.1,5.6,3.3
		c1.5,1,2.3,2.4,2.6,4.1c0.7,3.8,0.4,7.8-0.7,11.5c-0.2,0.8-0.7,1.5-1.4,2c-0.3,0.2-0.4,0.2-0.5-0.2c-0.1-0.5-0.3-0.9-0.5-1.3
		c-0.2-0.4-0.5-0.7-1-0.7s-0.7,0.4-0.9,0.8c-0.1,0.4-0.4,1.1-0.6,1.8c-0.1-1.7-0.1-3.2-0.5-4.6c-0.1-0.6-0.4-1.1-0.7-1.6
		c-0.6-1-1.5-1-2.2-0.1c-0.4,0.5-0.6,1.1-0.8,1.7c-0.4,1.5-0.7,3-1.1,4.5c0,0.2-0.1,0.4-0.2,0.7c-0.2-0.2-0.1-0.4-0.1-0.6
		c0-3.1,0.2-6.1-0.2-9.2c0-0.1,0-0.3-0.1-0.4c-0.3-1.7-0.9-2.1-2.6-1.7c-2,0.4-3.7,1.4-5.4,2.5c-1.7,1.1-3.3,2.4-4.8,4
		c-0.4-1.5-0.8-2.9-1.3-4.3c-0.4-0.9-0.8-1.8-1.4-2.6c-0.4-0.6-1.1-0.9-1.8-0.9c-1.9,0-3.6,0.5-5.2,1.4c-3.7,2.1-6.5,5.2-8.4,9
		c-0.5,1.1-0.7,2.2-0.9,3.3c0,0.2-0.1,0.4-0.2,0.6c-0.3-2.2-0.6-4.4-1-6.6c-0.7-3.6-1.7-7.2-3.7-10.4c-1.2-1.9-2.7-3.6-5-4.2
		c-2.6-0.6-5.1-0.5-7.6,0.2c-2.2,0.6-4.2,1.7-5.8,3.4c-0.3,0.3-0.6,0.7-0.8,1.1c-2.5,5.3-4.8,10.7-6.3,16.4
		C75.4,36.1,75.3,36.8,75.1,37.5z"/>
	<path class="st1" d="M91.8,64.2c0.7,2.4,1.3,4.7,2.1,7c0.6,1.4,1.2,2.8,2.2,4c1.2,1.4,2.6,2.2,4.5,2.2c1,0,1.9-0.5,2.6-1.1
		c1.5-1.1,2.6-2.4,3.5-3.9c1-1.6,1.8-3.2,2.5-5c0.1-0.2,0.2-0.4,0.3-0.7c0.1,0.8,0.1,1.5,0.3,2.2c0.9,4.3,3.7,7.1,7.6,8.7
		c2.5,1,5.8-0.4,7.3-2.6c0.7-1,1.2-2.1,1.6-3.3c1.2,2.5,3.4,3.3,5.8,3.5c2.5,0.2,4.6-1,5.6-3.5c0,0,0.1,0,0.1,0
		c1.2,1.6,2.8,1.5,4.4,1.2c0.9-0.2,1.3-0.9,1.5-1.8c0.2-0.8,0.2-1.5,0.3-2.3c0.6,0.9,1,1.7,1.4,2.6c0.7,1.9,1.1,3.8,0.8,5.9
		c-0.2,1.4-0.7,1.9-2.1,2.2c-4,0.8-8.1,1.4-12.2,1.9c-3.3,0.5-6.6,0.9-10,1.3c-4.7,0.5-9.5,1.1-14.3,1.5c-2.7,0.2-5.3,0.5-8,0.7
		c-2.7,0.2-5.1,0.3-7.7,0.5C84,85.9,75.6,86,67.2,85.9c-5.2-0.1-10.3-0.3-15.5-0.7c-5-0.3-9.9-0.7-14.9-1.2c-6-0.6-12-1.3-17.9-2.1
		c-3.3-0.5-6.6-1-9.8-1.5c-1.3-0.2-1.8-0.7-1.9-2.2C7,76.4,7.4,74.7,8,73c1,1.1,2.3,1,3.5,0.9c1.4-0.1,2.1-1.2,2.8-2.3
		c1.2,2,3,3,5.4,2.8c2.3-0.2,4.1-0.9,5.5-2.9c0.5,1.1,1,2,1.7,2.9c1.8,2.1,4.7,2.9,7.4,2c1.6-0.6,3.1-1.7,4.3-3c1.9-2,3-4.3,3.1-7
		c0-0.2,0-0.4,0.1-0.5c0.2,0.1,0.2,0.3,0.3,0.5c1.2,3,2.9,5.6,5.4,7.7c2.9,2.3,5.8,1.5,7.6-0.6c0.6-0.7,1.1-1.5,1.6-2.3
		c0.7-1.3,1.1-2.7,1.6-4.1c0.2,0.4,0.2,0.8,0.3,1.2c0.4,1.9,0.9,3.8,2,5.4c1.3,2,3.3,2.8,5.6,2.9c1.2,0.1,2.2-0.6,3-1.5
		c1.1-1.3,1.7-2.8,2.3-4.3c1.2-3,2.3-6,3.1-9.1l0.1-0.4c0.2,0.2,0.2,0.5,0.3,0.7c1.1,4.1,2.5,8.1,4.4,11.9c0.2,0.4,0.4,0.8,0.7,1.1
		c1.2,1.7,2.7,2.2,4.7,1.8c2.6-0.6,4.2-2.2,5.2-4.6s1.4-5,1.5-7.6C91.8,64.4,91.8,64.3,91.8,64.2z"/>
	<path class="st2" d="M61.9,54.7c-3.4-0.1-6.7-0.1-10-0.7c-1.2-0.2-2.4-0.5-3.5-1c-2.7-1.2-4.1-3.2-4.5-6.1c-0.3-2.3-0.1-4.6,0-6.9
		c0.3-4.5,1-8.9,2.3-13.2c0.9-3,2-5.8,3.8-8.4c1.7-2.3,4-3.6,6.9-3.6c2.9,0,5.9,0.6,8.4,2.2c1.2,0.8,2.2,1.9,2.8,3.2
		c2.2,4.9,4.3,9.9,5.7,15.1c1,3.6,1,7.2,0.7,10.9c-0.1,0.9-0.2,1.8-0.4,2.7c-0.8,3.3-2.5,4.9-5.8,5.5C66.2,54.8,64.1,54.7,61.9,54.7
		z"/>
	<path class="st2" d="M90.5,54.6c-3.1,0-5.8-0.1-8.4-0.7c-3-0.7-5.2-2.4-6-5.4c-0.4-1.4-0.5-2.8-0.6-4.3c-0.5-5.3,0.9-10.2,2.7-15
		c1.2-3.2,2.6-6.4,4.1-9.6c0.8-1.7,2.3-2.8,3.9-3.6c2.9-1.4,5.9-1.8,9.1-1.3c2,0.3,3.4,1.5,4.5,3c1.7,2.3,2.7,5,3.5,7.7
		c1.1,3.9,1.6,7.8,1.9,11.8c0.2,2.4,0.3,4.8,0.3,7.2c0,1.4-0.1,2.7-0.5,4c-0.9,3-3.1,4.5-6,5.2S93.1,54.6,90.5,54.6z"/>
	<path class="st2" d="M106.2,42.2c-0.3-2.2,0-4.4,0.3-6.7c0.3-2.6,1.4-4.9,3-7c2-2.5,4.3-4.7,7.2-5.9c1-0.4,2-0.6,3.1-0.8
		s1.7,0.2,2.2,1.1c0.6,1.1,1.1,2.3,1.5,3.6c1.4,4.7,2.2,9.4,2.1,14.3c0,1.6-0.2,3.3-0.6,4.9c-0.7,2.7-2.2,4.8-4.3,6.5
		c-0.4,0.3-0.8,0.6-1.2,0.9c-1.7,1.4-3.6,1.6-5.7,1c-1.8-0.5-3.5-1.4-5.1-2.4c-0.9-0.5-1.4-1.4-1.7-2.3c-0.6-1.6-0.9-3.2-0.9-4.9
		C106.2,43.8,106.2,43,106.2,42.2z"/>
	<path class="st2" d="M43.1,42.4c0,1.2,0,2.4,0,3.6c-0.1,2.6-0.7,5-3.4,6.3c-1.7,0.9-3.4,1.8-5.4,2.1c-1.4,0.2-2.8-0.1-3.9-0.9
		c-2.7-1.9-4.7-4.2-5.3-7.5c-0.4-2-0.5-4.1-0.4-6.2c0.2-3.7,0.7-7.4,1.8-11c0.3-1.2,0.7-2.4,1.3-3.4c0.7-1.3,1.2-1.5,2.6-1
		c1.1,0.3,2.1,0.8,3,1.4c2,1.1,3.8,2.5,5.5,4c2.2,1.9,3.4,4.4,3.8,7.3C43.1,38.8,43.3,40.6,43.1,42.4z"/>
	<path class="st2" d="M24.2,37.7c-0.2,2.3-0.3,4.6,0,6.9c0.2,1.5,0.6,3,1.3,4.4c0.1,0.3,0.2,0.6,0.1,0.9c-0.3,1.6-0.8,3.1-1.8,4.4
		c-1.3,1.8-2.6,3.7-4.3,5.2c-0.5,0.5-1.1,0.9-1.8,1.1c-0.9,0.3-1.5,0.1-1.9-0.7c-1.9-3.5-3.6-7.2-4.1-11.2c-0.4-3.2-0.3-6.4-0.3-9.6
		c0-3.5-0.2-6.9,0-10.4c0-0.8,0.1-1.5,0.2-2.3c0.1-0.5,0.3-0.7,0.9-0.7c1,0,1.9,0.4,2.7,0.8c2.6,1.3,4.9,3.2,6.8,5.4
		c1.2,1.4,1.7,3.2,2.2,5C24.3,37.1,24.2,37.4,24.2,37.7z"/>
	<path class="st2" d="M92.1,60.4c0-1.6,0.3-3.2,0.9-4.7c0.2-0.4,0.4-0.5,0.8-0.6c2.1-0.1,4.2-0.3,6.2-1c1.3-0.4,2.5-1.1,3.5-2
		c0.1-0.1,0.3-0.3,0.5-0.2c1.5,0.3,3.1,0.7,4.4,1.5s2.3,2.2,2.1,3.9c-0.6,4.8-1.3,9.6-3.9,13.8c-1,1.6-2.1,3.1-3.5,4.4
		c-2.4,2-4.7,1.2-6.3-0.4c-1.2-1.3-2-2.9-2.6-4.6c-0.9-2.7-1.8-5.5-2.2-8.4C92.2,61.5,92.2,61,92.1,60.4z"/>
	<path class="st2" d="M137.5,31.9c-0.2,4.2-0.3,8.7-1.2,13.1c-0.7,3.8-2.1,7.3-3.8,10.8c-0.2,0.4-0.3,0.8-0.6,1.1
		c-0.5,0.9-1.2,1.2-2.2,0.8c-1-0.4-1.9-1.2-2.7-2.1c-1.3-1.4-2.5-3-3.5-4.6c-0.2-0.2-0.2-0.4,0-0.7c1.7-2.1,2.4-4.6,2.7-7.2
		c0.4-4.3,0-8.5-0.9-12.7c-0.1-0.3-0.1-0.6,0.1-0.8c2.8-3,6-5.3,10-6.4l0.2,0c1.1-0.2,1.3,0,1.5,1.1
		C137.5,26.7,137.5,29.2,137.5,31.9z"/>
	<path class="st2" d="M127.4,62.7c0,3.4-0.6,6.7-1.9,9.9c-0.8,2-2,3.6-4.1,4.3s-4.2,0.3-6.1-1.1c-2.4-1.7-4.2-3.8-4.8-6.8
		c-0.4-2.3-0.4-4.6,0.1-6.9c0.4-1.7,0.7-3.4,0.7-5.1c0-0.6,0.6-1,0.9-1.5s0.9-0.7,1.6-0.5c2.2,0.7,4.3,0.4,6.1-1.2
		c0.6-0.5,1.1-0.9,1.7-1.4c0.3-0.3,0.5-0.2,0.8,0c2.5,1.7,4.1,4.1,4.7,7.2C127.4,60.5,127.5,61.6,127.4,62.7z"/>
	<path class="st2" d="M24,61.9c0-2.1,0.2-4.5,1.3-6.6c0.6-1.1,1.3-2,2.1-2.9c0.2-0.2,0.4-0.3,0.7,0c0.6,0.6,1.3,1.1,2,1.6
		c1.7,1.3,3.7,1.3,5.6,0.7c0.8-0.2,1.5-0.5,2.2-0.8c0.3-0.1,0.5-0.1,0.7,0.1c0.5,0.4,0.9,1,1.3,1.5c0.1,0.2,0.2,0.4,0.2,0.6
		c0,2.4,0.6,4.8,1,7.2c0.2,1,0,1.9-0.1,2.9c-0.2,4.4-2.6,7.4-6.3,9.5c-2.2,1.2-5.8,0.7-7.6-1.7c-1.2-1.6-1.7-3.4-2.2-5.2
		C24.4,66.4,24.1,64.3,24,61.9z"/>
	<path class="st2" d="M40.8,56.1c0-2.8,1.1-4.3,3.5-5.2c0.2-0.1,0.4-0.1,0.6,0.1c1.5,2,3.7,2.9,6.1,3.4s4.7,0.7,7.1,0.7
		c0.4,0,0.6,0.1,0.5,0.6c-0.5,2.9-0.6,5.9-0.4,8.8c0,0.4,0,0.8-0.1,1.2c-0.6,2.1-1.3,4.2-2.4,6c-0.8,1.3-1.9,2.4-3.5,2.8
		c-1.3,0.3-2.4,0-3.5-0.7c-2-1.3-3.3-3.1-4.5-5c-1.6-2.6-2.3-5.5-2.7-8.5C41.1,59,40.8,57.5,40.8,56.1z"/>
	<path class="st2" d="M91.2,63.4c-0.1,2.6-0.4,5.7-1.5,8.6c-1,2.5-2.7,4-5.5,4.4c-1.2,0.1-2.2-0.3-3-1.2c-0.8-0.9-1.5-2.2-2-3.5
		c-1.5-3.7-3-7.4-3.7-11.3c-0.5-2.5-0.3-4.9,0.3-7.3c0.1-0.3,0.2-0.5,0.3-0.7c0.6-0.8,0.8-0.8,1.5-0.1c1.5,1.5,3.4,2.1,5.4,2.5
		c2.3,0.5,4.6,0.6,7,0.5c0.5,0,0.7,0.2,0.7,0.6C91.1,58.3,91.3,60.9,91.2,63.4z"/>
	<path class="st2" d="M73.8,51.9c0.6,0.9,0.7,1.9,0.7,2.8c0.1,2.4,0.2,4.8-0.5,7.2c-1,3.6-2.3,7.2-3.9,10.6c-0.3,0.6-0.6,1.1-1,1.7
		c-1.1,1.7-2.3,2.1-4.3,1.6c-2.8-0.6-4.1-2.5-5-5c-0.7-2.1-1-4.2-1.2-6.4c-0.2-2.9-0.1-5.8,0.4-8.7c0.1-0.4,0.2-0.4,0.5-0.4
		c1.8,0,3.5,0,5.3,0c1.2,0,2.3-0.1,3.5-0.3C70.6,54.6,72.5,53.8,73.8,51.9z"/>
	<path class="st2" d="M138,68.2c0,0.8-0.1,1.6-0.3,2.5c-0.7,2.8-2.9,4.2-5.8,3.8c-1.3-0.2-2.5-0.6-3.5-1.4c-1-0.9-1.7-2-1.2-3.5
		c0.6-2.3,1-4.7,0.9-7.2c0-0.3,0-0.6,0.2-0.9l1-2.3c0.2-0.5,0.4-0.8,1.2-0.7c0.7,0.2,1.6-0.3,2-1.1c0.2-0.4,0.4-0.3,0.7-0.1
		c1,0.6,1.7,1.5,2.3,2.5C137.1,62.3,137.9,65.1,138,68.2z"/>
	<path class="st2" d="M142.8,34.5c-0.1,5.1-0.9,10.1-1.8,15.1c-0.4,2.1-0.8,4.1-1.6,6c-0.3,0.8-0.7,1.5-1.3,2.1
		c-0.9,0.9-2.1,0.8-2.8-0.3c-0.2-0.3-0.2-0.6-0.2-0.9c0-1.5,0.3-3.1,0.4-4.6c0.3-2.9,1.4-5.7,1.7-8.5c0.5-4.6,1.6-9,2.7-13.5
		c0.2-0.7,0.4-1.4,0.8-2s0.7-0.5,1.1,0c0.6,0.9,0.7,1.9,0.9,2.8C142.8,32.1,142.8,33.3,142.8,34.5z"/>
	<path class="st2" d="M22.2,57.5c0.7,1.2,1.2,2.3,1.2,3.7c-0.2,3.1,0.4,6,1.3,8.9c0.1,0.3,0.1,0.7-0.1,1c-0.2,0.4-0.4,0.7-0.7,0.9
		c-1.7,1.4-3.6,2-5.7,1.6s-3.6-2.1-3.9-4.5c-0.4-2.8,0.1-5.5,1.2-8.1c0.1-0.2,0.1-0.5,0.4-0.2c0.9,0.6,1.8,0.4,2.6,0
		c1.3-0.7,2.3-1.8,3.3-2.9L22.2,57.5z"/>
	<path class="st2" d="M8,29.7c1.1,1.9,2.2,3.7,2.7,5.8c0,0.2,0.1,0.5,0,0.7c0,2.5,0.1,4.9,0.1,7.4c-0.1,5,0.9,9.8,3.3,14.2
		c0.6,1.1,0.3,1.6-0.6,2.5c-0.3,0.3-0.6,0.2-0.9-0.1c-0.6-0.5-1-1.2-1.3-1.8c-2.7-5.1-4.4-10.4-4.8-16.2C6.2,38.8,6.3,35.4,7.1,32
		C7.3,31.2,7.5,30.4,8,29.7z"/>
	<path class="st2" d="M146.4,40.6c-0.2,4.5-0.6,8.9-2,13.2c-0.3,0.9-0.7,1.8-1.3,2.7c-0.3,0.4-0.6,0.8-1.1,0.9
		c-0.7,0.2-1.2-0.2-1.2-0.9c0-2.4,0.6-4.7,1.1-7c0.7-3.6,1.2-7.2,1.5-10.8c0.2-2.1,0.7-4.2,1.4-6.2c0.1-0.2,0.1-0.5,0.4-0.5
		c0.3,0,0.3,0.3,0.4,0.5c0.5,1.2,0.7,2.5,0.8,3.8C146.4,37.7,146.4,39.1,146.4,40.6z"/>
	<path class="st2" d="M143.6,68.4c0,1.1,0,1.9-0.2,2.8s-0.6,1.1-1.5,1.2c-0.5,0-1,0-1.6,0c-1.1-0.1-2-1.2-1.9-2.3
		c0.4-2.5,0-4.9-0.8-7.2c-0.1-0.3-0.1-0.7,0.1-0.9c0.4-0.7,0.9-1.3,1.6-1.8c0.9-0.6,1.6-0.5,2.3,0.2c1,1,1.4,2.2,1.6,3.5
		C143.5,65.4,143.6,66.9,143.6,68.4z"/>
	<path class="st2" d="M8.2,70.4c0.2-2.3,0.4-4.5,1.1-6.7c0.3-0.8,0.7-1.6,1.3-2.2c0.9-0.9,1.9-0.9,2.8-0.1l0.3,0.3
		c0.4,0.4,0.5,0.8,0.4,1.4c-0.7,2.5-0.9,5-0.1,7.5c0,0.1,0,0.2,0,0.3c-0.4,0.8-0.9,1.6-1.7,2C11.2,73.6,10,73.4,9,73
		c-0.5-0.2-0.6-0.7-0.7-1.1C8.2,71.3,8.2,70.9,8.2,70.4z"/>
	<path class="st2" d="M3.5,37.3c0-1.5-0.1-2.9,0.2-4.3c0.1-0.4,0.1-1,0.7-1s0.6,0.4,0.9,0.8c0.8,0.9,0.7,2,0.6,3.1
		c-0.6,6.9,0.4,13.5,3.3,19.8c0.4,0.9,0.7,1.7,0.4,2.7c-0.3,0.7-0.6,0.9-1.1,0.3c-0.9-0.9-1.5-2.1-1.9-3.3c-1.2-3.1-1.9-6.3-2.3-9.6
		C3.9,42.9,3.6,40,3.5,37.3z"/>
	<path class="st2" d="M112.4,54.3l-1.1,1.2c-1.2-2.9-3.9-3.5-6.5-4.1l-0.3-0.1c0.7-1,1.2-2.1,1.5-3.2c0.3,0.1,0.3,0.3,0.3,0.5
		c0.2,0.7,0.5,1.4,0.9,2.1c0.4,0.8,1.1,1.5,1.9,1.9C110.1,53.2,111.2,53.8,112.4,54.3z"/>
	<path class="st2" d="M23.6,58.5c-0.3-0.5-0.5-0.9-0.8-1.3s0-0.4,0.1-0.6c0.8-1.1,1.6-2.1,2.2-3.3c0.5-0.9,0.8-1.9,1-3
		c0.4,0.4,0.7,0.8,1,1.2c0.3,0.4,0,0.3-0.1,0.5c-1.4,1.5-2.6,3.1-3.1,5.1C23.8,57.4,23.7,57.9,23.6,58.5z"/>
	<path class="st2" d="M75.2,47.5c0.3,1.2,0.6,2.3,1.3,3.4c0.1,0.1,0.1,0.2-0.1,0.3c-0.8,0.5-1.3,1.3-1.5,2.2
		c-0.2-0.8-0.3-1.4-0.7-1.9c-0.1-0.1-0.1-0.3-0.1-0.4c0.5-1.1,0.7-2.2,0.9-3.4C75.1,47.6,75.2,47.6,75.2,47.5z"/>
	<path class="st2" d="M134.7,52.8c-0.1,1.5-0.3,3-0.3,4.6l-1.3-0.8c-0.2-0.1-0.1-0.2,0-0.4L134.7,52.8z"/>
	<path class="st2" d="M127.2,56.8c0.6,0.4,1.2,0.9,1.8,1.3c0.1,0.1,0,0.2,0,0.3l-1,2C127.8,59.1,127.6,57.9,127.2,56.8z"/>
	<path class="st2" d="M42.2,51.3c0.7-0.9,1-1.9,1.3-3c0.3,0.6,0.4,1.2,0.7,1.8c0.1,0.1,0,0.2-0.1,0.3C43.4,50.6,42.8,50.9,42.2,51.3
		z"/>
	<path class="st2" d="M39,53.3l2.2-1.2c-0.5,0.8-0.9,1.6-1,2.4L39,53.3z"/>
	<path class="st2" d="M92.6,55.2c-0.4,0.8-0.6,1.7-0.9,2.7c-0.1-0.9-0.2-1.6-0.3-2.3c-0.1-0.3,0-0.5,0.3-0.4
		C92,55.2,92.2,55.2,92.6,55.2z"/>
	<path class="st2" d="M14.9,59.5c0.7,0.8-0.3,1.4-0.3,2.1c-0.1,0-0.1,0-0.1,0c-0.6-0.6-0.6-0.6-0.1-1.3L14.9,59.5z"/>
</g>
</svg>
