<?xml version="1.0" encoding="utf-8"?>
<!-- Generator: Adobe Illustrator 21.0.2, SVG Export Plug-In . SVG Version: 6.00 Build 0)  -->
<svg version="1.1" id="Layer_1" xmlns="http://www.w3.org/2000/svg" xmlns:xlink="http://www.w3.org/1999/xlink" x="0px" y="0px"
	 viewBox="0 0 100 57.7" style="enable-background:new 0 0 100 57.7;" xml:space="preserve">
<style type="text/css">
	.st0{fill:#0B0A0A;}
	.st1{fill:#E85F66;}
	.st2{fill:#FDFDFD;}
</style>
<title>Artboard 1</title>
<g>
	<path class="st0" d="M7.7,40.1c-0.3-0.4-0.6-0.9-0.8-1.3c-0.1,0.2-0.1,0.4-0.2,0.5c-0.3,0.5-0.7,0.7-1.1,0.3
		c-0.5-0.3-0.7-0.7-0.9-1.1c-0.9-1.5-1.3-3-1.7-4.6c-0.7-2.4-0.9-4.8-1.1-7.2c-0.1-0.8-0.1-1.5-0.1-2.3c0-0.1,0-0.3-0.1-0.3
		c-0.7-0.7-1-1.5-1.3-2.4c-0.9-3.1-0.7-6.1,0.4-9.1c0.1-0.4,0.4-0.7,0.7-1c1.1-0.8,2.3-1.5,3.5-2.1C10.9,6.8,16.8,4.7,22.9,3
		c3-0.8,6.1-1.3,9.3-1.7c4.1-0.5,8.1-0.9,12.3-1.1C49.8,0,55.2-0.1,60.6,0.2c3.1,0.1,6.1,0.4,9.2,0.8c4.7,0.6,9.3,1.5,13.9,3
		c4.3,1.4,8.5,3,12.4,5.3c0.8,0.5,1.5,0.9,2.3,1.5c0.9,0.7,1.3,1.8,1.5,2.9c0.4,2.5,0.3,5.2-0.5,7.7c-0.2,0.6-0.5,1.1-1.1,1.5
		c-0.3,0.2-0.3,0.3-0.3,0.7c0.4,3.9,0.1,7.9-0.9,11.7c-0.3,0.9-0.6,1.8-1.1,2.6c-0.2,0.3-0.5,0.6-0.8,0.9c-0.3,0.2-0.8,0.3-1.2,0.1
		c-0.4-0.2-0.5-0.5-0.5-1c0-0.1,0-0.1,0-0.3c-0.7,1.1-1.2,2.3-2.9,1.9c0.4,0.5,0.7,1.1,1,1.7c0.3-0.5,0.6-0.9,1-1.1
		c0.9-0.7,1.7-0.7,2.5,0.3c0.7,0.9,0.9,1.8,1.1,2.8c0.1,0.7,0.1,1.3,0.2,1.9c0,0.2,0.1,0.3,0.2,0.5c1.3,1.9,2,4.1,1.7,6.4
		c-0.1,1.1-0.6,1.5-1.7,1.7c-2.9,0.5-5.7,0.9-8.6,1.3c-3.1,0.5-6.3,0.8-9.4,1.1c-2.5,0.3-5.1,0.5-7.6,0.7c-3.3,0.3-6.6,0.5-9.9,0.7
		c-5.1,0.3-10.1,0.4-15.3,0.3c-3.3-0.1-6.5-0.2-9.8-0.4c-3-0.2-6-0.4-9.1-0.7c-3.3-0.3-6.7-0.7-10-1.1c-3.5-0.5-7.1-0.9-10.7-1.5
		c-1.3-0.2-1.7-0.7-1.8-1.9c-0.1-1.3,0.1-2.3,0.5-3.5C5,48.3,5.1,48,5,47.7c-0.1-0.9,0-1.9,0.1-2.7c0.1-0.9,0.3-2.1,0.7-3
		C6.3,41.1,6.8,40.5,7.7,40.1z M50.1,25c0.1-0.5,0.2-1,0.3-1.4c1-3.8,2.5-7.4,4.2-10.9c0.1-0.3,0.3-0.5,0.5-0.7
		c1.1-1.1,2.4-1.8,3.9-2.3c1.7-0.5,3.4-0.6,5.1-0.1c1.5,0.4,2.5,1.5,3.3,2.8c1.3,2.1,1.9,4.5,2.5,6.9c0.3,1.5,0.5,2.9,0.7,4.4
		c0.1-0.1,0.1-0.3,0.1-0.4c0.1-0.7,0.3-1.5,0.6-2.2c1.3-2.5,3.1-4.6,5.6-6c1.1-0.6,2.3-0.9,3.5-0.9c0.5,0,0.9,0.2,1.2,0.6
		c0.4,0.5,0.7,1.1,0.9,1.7c0.3,0.9,0.6,1.9,0.9,2.9c0.9-1.1,2-1.9,3.2-2.7c1.2-0.7,2.3-1.4,3.6-1.7c1.1-0.3,1.5,0,1.7,1.1
		c0,0.1,0,0.2,0.1,0.3c0.3,2.1,0.2,4.1,0.1,6.1c0,0.1-0.1,0.3,0.1,0.4c0.1-0.2,0.1-0.3,0.1-0.5c0.3-1,0.5-2,0.7-3
		c0.1-0.4,0.3-0.8,0.5-1.1c0.5-0.6,1-0.6,1.5,0.1c0.2,0.3,0.3,0.7,0.5,1.1c0.3,1,0.3,2,0.3,3.1c0.1-0.5,0.3-0.9,0.4-1.2
		c0.1-0.4,0.3-0.5,0.6-0.5c0.3,0,0.5,0.2,0.7,0.5c0.1,0.3,0.3,0.6,0.3,0.9c0.1,0.3,0.1,0.2,0.3,0.1c0.5-0.3,0.7-0.8,0.9-1.3
		c0.7-2.5,0.9-5.1,0.5-7.7c-0.2-1.1-0.7-2.1-1.7-2.7c-1.2-0.8-2.5-1.5-3.7-2.2c-3.4-1.7-7-3.1-10.6-4.2c-2.9-0.9-5.8-1.7-8.8-2.2
		C71.3,1.4,67.9,1,64.5,0.8c-2.8-0.1-5.2-0.2-7.7-0.3c-3.7-0.1-7.4,0-11.1,0.2c-1.3,0.1-2.5,0.1-3.7,0.2c-0.9,0-1.9,0.2-2.9,0.2
		c-0.9,0.1-1.8,0.1-2.7,0.2c-2.1,0.2-4.1,0.5-6.1,0.7c-3.1,0.5-6.2,1.1-9.2,2c-4.9,1.5-9.8,3.2-14.5,5.4c-1.5,0.7-2.9,1.4-4.3,2.3
		c-0.5,0.3-0.9,0.9-1.1,1.5c-0.5,1.7-0.8,3.4-0.7,5.1c0.1,1.7,0.3,3.2,1.1,4.7c0.1,0.2,0.1,0.4,0.3,0.5c0-0.2,0-0.3,0.1-0.5
		c0-0.5,0.1-1.1,0.3-1.5c0.3-0.7,0.9-0.8,1.4-0.2c0.2,0.2,0.3,0.5,0.5,0.7c0.1-0.7,0.3-1.3,0.5-1.9c0.1-0.3,0.2-0.7,0.7-0.8
		c0.4,0,0.5,0.4,0.7,0.7c0.3,0.7,0.8,1.3,1.1,2c0-0.7,0-1.5,0-2.3c0-0.7,0.1-1.7,0.2-2.5c0.1-0.4,0.3-0.7,0.8-0.7
		c0.6,0,1.1,0.1,1.7,0.3c1.3,0.6,2.5,1.4,3.5,2.3c1.3,1.1,2.4,2.3,2.9,3.9c0,0.1,0.1,0.1,0.1,0.1c0.1-0.1,0.1-0.2,0.1-0.3
		c0.2-1.4,0.5-2.8,0.9-4.1c0.3-0.9,0.6-1.9,1.2-2.7c0.3-0.5,0.8-0.7,1.4-0.6c0.4,0.1,0.8,0.2,1.2,0.3c2.4,1.1,4.5,2.6,6.3,4.5
		c0.7,0.7,1.1,1.6,1.3,2.5l0.4,1.6c0.1-0.2,0.1-0.4,0.1-0.5c0.3-2.4,0.7-4.7,1.5-7c0.7-2.3,1.7-4.5,3.5-6.3c0.5-0.5,1.1-0.9,1.9-1.1
		c2.5-0.6,4.9-0.3,7.2,0.9c1,0.5,1.9,1.2,2.5,2.3c1.6,3.3,3,6.7,3.9,10.1C49.8,23.7,49.9,24.4,50.1,25L50.1,25z M61.2,42.9
		c0,0.1,0,0.2,0,0.3c-0.1,1.7-0.3,3.5-1,5.1s-1.7,2.7-3.5,3.1c-1.4,0.3-2.3,0-3.1-1.2c-0.2-0.3-0.3-0.5-0.5-0.7
		c-1.3-2.5-2.2-5.2-2.9-7.9c-0.1-0.1,0-0.3-0.2-0.5L50,41.2c-0.5,2.1-1.3,4.1-2.1,6.1c-0.4,1-0.9,2-1.5,2.9c-0.5,0.6-1.1,1.1-2,1
		c-1.5-0.1-2.9-0.6-3.7-1.9c-0.7-1.1-1.1-2.3-1.3-3.6c-0.1-0.3,0-0.5-0.2-0.8c-0.3,1-0.6,1.9-1.1,2.7c-0.3,0.5-0.6,1.1-1.1,1.5
		c-1.2,1.3-3.2,1.9-5.1,0.4c-1.7-1.4-2.8-3.1-3.6-5.1c-0.1-0.1-0.1-0.3-0.2-0.3C28,44.1,28,44.3,28,44.3C28,46.1,27.2,47.7,26,49
		c-0.8,0.9-1.8,1.6-2.9,2c-1.7,0.6-3.7,0.1-4.9-1.3c-0.5-0.6-0.8-1.2-1.1-1.9c-0.9,1.3-2.2,1.8-3.7,1.9s-2.7-0.5-3.6-1.9
		c-0.5,0.7-0.9,1.5-1.9,1.5c-1.1,0.1-1.9,0.1-2.6-0.6c-0.4,1.1-0.7,2.3-0.5,3.5c0.1,0.9,0.5,1.3,1.3,1.5c2.2,0.3,4.3,0.7,6.5,1
		c4,0.5,7.9,1.1,11.9,1.4c3.3,0.3,6.6,0.6,9.9,0.8c3.5,0.2,6.9,0.4,10.3,0.5c5.6,0.1,11.1,0,16.7-0.3c1.7-0.1,3.4-0.2,5.1-0.3
		c1.7-0.1,3.5-0.3,5.3-0.5c3.2-0.3,6.3-0.6,9.5-1c2.2-0.3,4.5-0.6,6.7-0.9c2.7-0.4,5.4-0.8,8.1-1.3c0.9-0.2,1.3-0.5,1.4-1.5
		c0.2-1.3-0.1-2.7-0.5-3.9c-0.2-0.6-0.5-1.2-0.9-1.7c-0.1,0.5-0.1,1.1-0.2,1.5c-0.1,0.5-0.4,1.1-1,1.2c-1.1,0.2-2.2,0.3-2.9-0.8
		h-0.1c-0.7,1.7-2,2.5-3.7,2.3c-1.8-0.1-3.1-0.7-3.9-2.3c-0.3,0.8-0.6,1.5-1.1,2.2c-1,1.5-3.2,2.3-4.9,1.7c-2.7-1.1-4.5-2.9-5.1-5.8
		c-0.1-0.5-0.1-0.9-0.2-1.5c-0.1,0.2-0.1,0.3-0.2,0.5c-0.4,1.1-1,2.3-1.7,3.3c-0.7,1-1.4,1.9-2.3,2.6c-0.5,0.4-1.1,0.7-1.7,0.7
		c-1.3,0-2.2-0.5-3-1.5c-0.7-0.8-1.1-1.7-1.5-2.7C62.1,46,61.7,44.4,61.2,42.9z M41.3,36.5c1.5,0,2.9,0.1,4.3-0.2
		c2.3-0.4,3.4-1.5,3.9-3.7c0.1-0.6,0.2-1.2,0.3-1.8c0.1-2.5,0.2-4.9-0.5-7.3c-0.9-3.5-2.3-6.8-3.8-10.1c-0.4-0.9-1.1-1.7-1.9-2.1
		C41.9,10.3,40,9.8,38,9.9c-2,0-3.5,0.9-4.6,2.4c-1.3,1.7-2,3.6-2.5,5.6c-0.9,2.9-1.3,5.9-1.5,8.8c-0.1,1.5-0.2,3.1,0,4.6
		c0.3,1.9,1.2,3.3,3,4.1c0.7,0.3,1.5,0.5,2.3,0.7C36.8,36.5,39,36.5,41.3,36.5z M60.4,36.5c1.7-0.1,3.7-0.1,5.7-0.5
		c1.9-0.5,3.3-1.5,4-3.5c0.3-0.9,0.3-1.8,0.3-2.7c0-1.6-0.1-3.2-0.2-4.8c-0.2-2.7-0.6-5.3-1.3-7.9c-0.5-1.9-1.1-3.6-2.3-5.1
		c-0.8-1-1.7-1.8-3-2c-2.1-0.4-4.1-0.1-6.1,0.9c-1.1,0.5-2.1,1.3-2.6,2.4c-1,2.1-1.9,4.2-2.7,6.4c-1.2,3.2-2.1,6.5-1.8,10
		c0.1,0.9,0.2,1.9,0.4,2.9c0.6,2.1,2,3.1,4,3.6C56.6,36.5,58.4,36.5,60.4,36.5L60.4,36.5z M70.8,28.2c0,0.6,0,1.1,0,1.6
		c0,1.1,0.2,2.2,0.6,3.3c0.3,0.6,0.5,1.2,1.1,1.5c1.1,0.7,2.2,1.2,3.4,1.6c1.4,0.4,2.7,0.3,3.8-0.7c0.3-0.2,0.5-0.4,0.8-0.6
		c1.4-1.1,2.4-2.5,2.9-4.3c0.3-1.1,0.4-2.1,0.4-3.3c0.1-3.3-0.5-6.5-1.4-9.5c-0.3-0.8-0.6-1.6-1-2.4c-0.3-0.6-0.8-0.8-1.5-0.7
		c-0.7,0.1-1.4,0.2-2.1,0.5c-2,0.9-3.5,2.3-4.8,3.9c-1.1,1.4-1.8,2.9-2,4.7C70.8,25.2,70.7,26.7,70.8,28.2z M28.8,28.3
		c0.1-1.2,0-2.4-0.2-3.7c-0.3-1.9-1.1-3.5-2.5-4.9c-1.1-1-2.3-1.9-3.7-2.7c-0.7-0.4-1.3-0.7-2-0.9c-0.9-0.3-1.3-0.1-1.7,0.7
		c-0.4,0.7-0.7,1.5-0.9,2.3c-0.7,2.4-1,4.9-1.2,7.3c-0.1,1.4-0.1,2.7,0.3,4.1c0.5,2.2,1.8,3.7,3.5,5c0.7,0.5,1.7,0.7,2.6,0.6
		c1.3-0.2,2.4-0.8,3.6-1.4c1.7-0.9,2.1-2.5,2.3-4.2C28.8,29.9,28.8,29.2,28.8,28.3L28.8,28.3z M16.1,25.2c0-0.2,0.1-0.4,0-0.6
		c-0.3-1.1-0.7-2.3-1.5-3.3c-1.3-1.5-2.8-2.7-4.5-3.6c-0.6-0.3-1.1-0.5-1.8-0.5c-0.3,0-0.5,0.1-0.6,0.5c-0.1,0.5-0.1,1-0.1,1.5
		c-0.1,2.3,0,4.6,0,6.9c0,2.1-0.1,4.3,0.2,6.4c0.3,2.7,1.5,5.1,2.7,7.5c0.3,0.5,0.7,0.7,1.3,0.5c0.5-0.1,0.8-0.4,1.2-0.7
		c1.1-1,2-2.2,2.9-3.5c0.6-0.9,1-1.9,1.2-2.9c0.1-0.2,0-0.4-0.1-0.6c-0.5-0.9-0.7-1.9-0.9-2.9C15.9,28.2,16,26.6,16.1,25.2z
		 M61.4,40.3c0,0.4,0.1,0.8,0.1,1.1c0.3,1.9,0.8,3.7,1.5,5.6c0.4,1.1,0.9,2.2,1.7,3.1c1.1,1.1,2.6,1.6,4.2,0.3
		c1-0.8,1.7-1.8,2.3-2.9c1.7-2.8,2.2-6,2.6-9.2c0.1-1.2-0.4-2.1-1.4-2.6c-1.1-0.6-1.9-0.8-2.9-1c-0.2,0-0.3,0.1-0.3,0.1
		c-0.7,0.7-1.5,1.1-2.3,1.3c-1.3,0.5-2.7,0.6-4.1,0.7c-0.3,0-0.4,0.1-0.5,0.4C61.7,38.2,61.4,39.3,61.4,40.3z M91.7,21.3
		c0-1.8,0-3.5-0.2-5.1c-0.1-0.7-0.3-0.9-1-0.7h-0.1c-2.7,0.7-4.8,2.3-6.7,4.3c-0.2,0.2-0.1,0.4-0.1,0.5c0.6,2.8,0.9,5.6,0.6,8.5
		c-0.2,1.7-0.7,3.4-1.8,4.8c-0.1,0.2-0.1,0.3,0,0.5c0.7,1.1,1.5,2.1,2.3,3.1c0.5,0.5,1.1,1.1,1.8,1.4c0.7,0.3,1.1,0.1,1.5-0.5
		c0.1-0.3,0.3-0.5,0.4-0.7c1.1-2.3,2.1-4.7,2.5-7.2C91.4,27.1,91.6,24.1,91.7,21.3z M85,41.9c0-0.7-0.1-1.5-0.2-2.2
		c-0.4-2-1.4-3.6-3.1-4.8c-0.2-0.1-0.3-0.1-0.5,0c-0.3,0.3-0.7,0.6-1.1,0.9c-1.2,1-2.6,1.3-4.1,0.8c-0.5-0.1-0.8,0-1.1,0.3
		c-0.3,0.3-0.6,0.5-0.6,1c0,1.1-0.2,2.3-0.5,3.4c-0.4,1.5-0.3,3.1-0.1,4.6c0.3,2,1.6,3.4,3.2,4.5c1.3,0.9,2.6,1.2,4.1,0.7
		s2.2-1.5,2.7-2.9C84.6,46.3,85,44.1,85,41.9L85,41.9z M16,41.3c0.1,1.6,0.3,3.1,0.6,4.5c0.3,1.2,0.7,2.5,1.5,3.5
		c1.2,1.7,3.6,2,5.1,1.1c2.5-1.4,4.1-3.3,4.2-6.3c0-0.6,0.1-1.3,0.1-1.9c-0.3-1.6-0.7-3.1-0.7-4.8c0-0.1-0.1-0.3-0.1-0.4
		c-0.3-0.4-0.5-0.7-0.9-1c-0.1-0.1-0.3-0.1-0.5-0.1c-0.5,0.2-1,0.4-1.5,0.5c-1.3,0.3-2.6,0.4-3.7-0.5c-0.5-0.3-0.9-0.7-1.3-1.1
		c-0.2-0.2-0.3-0.1-0.5,0c-0.5,0.5-1.1,1.2-1.4,1.9C16.1,38.3,16,39.9,16,41.3L16,41.3z M27.2,37.5c0,0.9,0.2,1.9,0.4,2.9
		c0.3,2,0.8,3.9,1.8,5.7c0.8,1.3,1.7,2.5,3,3.3c0.7,0.5,1.5,0.7,2.3,0.5c1.1-0.3,1.7-1,2.3-1.9c0.8-1.3,1.2-2.6,1.6-4
		c0.1-0.3,0.1-0.5,0.1-0.8c-0.1-1.9-0.1-3.9,0.3-5.9c0.1-0.3-0.1-0.4-0.3-0.4c-1.6,0-3.1-0.1-4.7-0.5c-1.5-0.3-3.1-0.9-4.1-2.3
		c-0.1-0.1-0.2-0.1-0.4-0.1C28,34.6,27.2,35.7,27.2,37.5L27.2,37.5z M60.8,42.3c0-1.7-0.1-3.3-0.3-5c-0.1-0.3-0.1-0.4-0.5-0.4
		c-1.5,0.1-3.1,0-4.7-0.3c-1.3-0.3-2.6-0.7-3.6-1.7c-0.5-0.5-0.6-0.5-1,0.1c-0.1,0.1-0.2,0.3-0.2,0.5c-0.4,1.6-0.5,3.2-0.2,4.9
		c0.5,2.6,1.5,5.1,2.5,7.5c0.3,0.8,0.7,1.6,1.3,2.3c0.6,0.7,1.2,0.9,2,0.8c1.8-0.2,3-1.2,3.7-2.9C60.6,46.1,60.8,44.1,60.8,42.3
		L60.8,42.3z M49.2,34.7c-0.9,1.3-2.1,1.9-3.5,2.1C45,36.9,44.2,37,43.4,37c-1.2,0-2.3,0-3.5,0c-0.2,0-0.3,0.1-0.3,0.3
		c-0.3,1.9-0.4,3.9-0.3,5.8c0.1,1.5,0.3,2.9,0.8,4.3c0.6,1.6,1.5,2.9,3.3,3.3c1.3,0.3,2.1,0,2.9-1.1c0.3-0.3,0.5-0.7,0.7-1.1
		c1.1-2.3,1.9-4.7,2.6-7.1c0.5-1.6,0.4-3.2,0.3-4.8C49.7,35.9,49.6,35.3,49.2,34.7z M92,45.5c-0.1-2.1-0.6-3.9-1.7-5.6
		c-0.4-0.7-0.9-1.2-1.5-1.7c-0.2-0.1-0.3-0.2-0.5,0.1c-0.3,0.5-0.8,0.9-1.3,0.7c-0.5-0.1-0.7,0.1-0.8,0.5l-0.7,1.5
		c-0.1,0.2-0.1,0.4-0.1,0.6c0,1.6-0.2,3.2-0.6,4.8c-0.3,1,0.1,1.7,0.8,2.3c0.7,0.6,1.5,0.9,2.3,0.9c1.9,0.3,3.3-0.7,3.9-2.5
		C92,46.6,92,46.1,92,45.5z M95.2,23c0-0.8,0-1.6-0.1-2.4c-0.1-0.7-0.2-1.3-0.6-1.9c-0.3-0.3-0.5-0.4-0.7,0
		c-0.3,0.3-0.5,0.9-0.5,1.3c-0.7,3-1.4,6-1.8,9c-0.2,1.9-0.9,3.7-1.1,5.7c-0.1,1-0.3,2-0.3,3.1c0,0.2,0,0.4,0.1,0.6
		c0.5,0.7,1.3,0.8,1.9,0.2c0.4-0.4,0.7-0.9,0.9-1.4c0.5-1.3,0.8-2.7,1.1-4C94.7,29.8,95.2,26.4,95.2,23L95.2,23z M14.8,38.4
		l-0.3,0.3c-0.7,0.7-1.3,1.5-2.2,1.9c-0.6,0.3-1.2,0.5-1.7,0c-0.2-0.1-0.3,0-0.3,0.1c-0.7,1.7-1.1,3.5-0.8,5.4
		c0.2,1.7,1.1,2.7,2.6,3c1.5,0.3,2.7-0.1,3.8-1.1c0.2-0.2,0.3-0.4,0.5-0.6c0.1-0.2,0.1-0.5,0.1-0.7c-0.6-1.9-1-3.9-0.9-5.9
		C15.7,39.9,15.3,39.2,14.8,38.4z M5.3,19.8c-0.3,0.5-0.5,1.1-0.6,1.6c-0.5,2.2-0.5,4.5-0.4,6.7C4.5,32,5.7,35.6,7.5,39
		c0.3,0.5,0.5,0.9,0.9,1.2c0.2,0.2,0.4,0.3,0.6,0.1c0.6-0.6,0.8-0.9,0.4-1.7c-1.6-2.9-2.3-6.1-2.2-9.5c0-1.7,0-3.3-0.1-4.9
		c0-0.1,0-0.3,0-0.5C6.8,22.2,6.1,21,5.3,19.8z M97.6,27.1c0-1,0-1.9-0.1-2.9c-0.1-0.9-0.2-1.7-0.5-2.5c-0.1-0.1-0.1-0.3-0.3-0.3
		c-0.1,0-0.2,0.2-0.3,0.3c-0.5,1.3-0.8,2.7-0.9,4.1c-0.3,2.4-0.6,4.8-1,7.2c-0.3,1.5-0.7,3.1-0.7,4.7c0,0.5,0.3,0.7,0.8,0.6
		c0.3-0.1,0.5-0.4,0.7-0.6c0.4-0.5,0.7-1.1,0.9-1.8C97.2,33,97.5,30.1,97.6,27.1z M95.8,45.7c0-1-0.1-2.1-0.3-3.1
		c-0.1-0.9-0.4-1.7-1.1-2.3c-0.5-0.5-1-0.5-1.5-0.1c-0.5,0.3-0.8,0.7-1.1,1.2c-0.1,0.2-0.1,0.4-0.1,0.6c0.5,1.5,0.7,3.1,0.5,4.8
		c-0.1,0.7,0.5,1.5,1.3,1.5c0.3,0,0.7,0,1.1,0c0.6,0,0.8-0.3,1-0.8C95.8,46.9,95.8,46.4,95.8,45.7z M5.5,47c0,0.3,0,0.7,0.1,0.9
		c0.1,0.3,0.1,0.7,0.5,0.8c0.7,0.3,1.5,0.4,2.2,0.1c0.5-0.3,0.9-0.8,1.1-1.3c0.1-0.1,0.1-0.1,0-0.2c-0.5-1.7-0.4-3.3,0.1-5
		c0.1-0.4,0.1-0.7-0.3-0.9l-0.2-0.2c-0.7-0.6-1.3-0.6-1.9,0.1c-0.4,0.4-0.7,0.9-0.9,1.5C5.7,44,5.6,45.5,5.5,47z M2.3,24.9
		c0.1,1.8,0.3,3.7,0.5,5.7c0.3,2.2,0.7,4.3,1.5,6.4c0.3,0.8,0.7,1.6,1.3,2.2C6,39.5,6.2,39.5,6.3,39c0.3-0.7,0-1.2-0.3-1.8
		C4.1,33,3.5,28.6,3.9,24C4,23.2,4,22.5,3.5,21.9c-0.2-0.3-0.3-0.6-0.6-0.5c-0.3,0.1-0.4,0.4-0.5,0.7C2.3,23,2.3,23.9,2.3,24.9z
		 M75,36.3c-0.8-0.3-1.5-0.7-2.3-1.1c-0.5-0.3-1-0.7-1.3-1.3c-0.3-0.5-0.4-0.9-0.6-1.4c0-0.1,0-0.3-0.2-0.3c-0.2,0.8-0.5,1.5-1,2.1
		l0.2,0.1c1.7,0.4,3.5,0.9,4.3,2.7L75,36.3z M15.7,39.1c0.1-0.3,0.1-0.7,0.3-1c0.4-1.3,1.1-2.4,2.1-3.4c0.1-0.1,0.3-0.1,0.1-0.3
		c-0.1-0.2-0.4-0.5-0.7-0.8c-0.1,0.7-0.3,1.4-0.7,2c-0.4,0.8-0.9,1.5-1.5,2.2c-0.1,0.1-0.2,0.2-0.1,0.4
		C15.3,38.4,15.5,38.7,15.7,39.1z M50.2,31.7c-0.1,0.1-0.1,0.1-0.1,0.1c-0.1,0.8-0.3,1.5-0.6,2.3c-0.1,0.1,0,0.2,0.1,0.3
		c0.3,0.3,0.4,0.7,0.5,1.3c0.1-0.6,0.5-1.1,1-1.5c0.1-0.1,0.1-0.1,0.1-0.2C50.6,33.3,50.4,32.5,50.2,31.7z M89.8,35.3l-1.1,2.3
		c-0.1,0.1-0.1,0.2,0,0.3l0.9,0.5C89.6,37.3,89.8,36.3,89.8,35.3L89.8,35.3z M84.8,37.9c0.3,0.7,0.4,1.5,0.5,2.4L86,39
		c0-0.1,0.1-0.1,0-0.2C85.6,38.5,85.2,38.2,84.8,37.9L84.8,37.9z M28.2,34.2c0.4-0.3,0.9-0.5,1.3-0.6c0.1-0.1,0.1-0.1,0.1-0.2
		c-0.2-0.4-0.3-0.8-0.5-1.2C28.8,33,28.6,33.6,28.2,34.2z M26,35.6l0.8,0.8c0.1-0.5,0.3-1,0.7-1.6L26,35.6z M61.8,36.9
		c-0.2,0-0.4,0-0.6,0c-0.2,0-0.3,0.1-0.2,0.3c0.1,0.5,0.1,0.9,0.2,1.5C61.4,38,61.5,37.5,61.8,36.9z M9.9,39.7l-0.3,0.5
		c-0.3,0.5-0.3,0.5,0.1,0.9h0.1C9.8,40.7,10.4,40.3,9.9,39.7z"/>
	<path class="st1" d="M50.1,25c-0.2-0.7-0.3-1.3-0.5-2c-1-3.5-2.4-6.9-3.9-10.1c-0.5-1.1-1.5-1.7-2.5-2.3c-2.3-1.2-4.7-1.5-7.2-0.9
		c-0.7,0.2-1.3,0.6-1.9,1.1c-1.8,1.7-2.7,3.9-3.5,6.3c-0.7,2.3-1.2,4.7-1.5,7c0,0.1-0.1,0.3-0.1,0.5L28.7,23
		c-0.2-0.9-0.7-1.8-1.3-2.5c-1.7-1.9-3.9-3.5-6.3-4.5c-0.4-0.1-0.8-0.3-1.2-0.3c-0.6-0.1-1,0.1-1.4,0.6C17.9,17,17.6,18,17.3,19
		c-0.4,1.3-0.7,2.7-0.9,4.1c0,0.1,0,0.2-0.1,0.3c0-0.1-0.1-0.1-0.1-0.1c-0.5-1.6-1.5-2.8-2.9-3.9c-1.1-0.9-2.2-1.7-3.5-2.3
		c-0.5-0.2-1.1-0.4-1.7-0.3c-0.5,0-0.7,0.3-0.8,0.7c-0.2,0.8-0.2,1.7-0.2,2.5c0,0.9,0,1.5,0,2.3c-0.3-0.7-0.7-1.3-1.1-2
		c-0.1-0.3-0.3-0.7-0.7-0.7c-0.4,0-0.5,0.5-0.7,0.8c-0.2,0.3-0.3,1-0.5,1.6c-0.2-0.3-0.3-0.5-0.5-0.7c-0.5-0.5-1.1-0.5-1.4,0.2
		c-0.2,0.5-0.3,1-0.3,1.5c0,0.1,0,0.3-0.1,0.5c-0.2-0.1-0.3-0.3-0.3-0.5c-0.7-1.5-1-3.1-1.1-4.7c-0.1-1.7,0.2-3.5,0.7-5.1
		c0.2-0.6,0.6-1.1,1.1-1.5c1.3-0.9,2.8-1.6,4.3-2.3c4.7-2.1,9.5-3.9,14.5-5.3c3-0.9,6.1-1.5,9.2-2c2-0.3,4.1-0.6,6.1-0.7
		c0.9-0.1,1.8-0.1,2.7-0.2C40,1,41,0.9,42,0.9c1.3,0,2.5-0.1,3.7-0.2c3.7-0.2,7.4-0.3,11.1-0.2c2.5,0.1,4.9,0.2,7.4,0.4
		c3.4,0.3,6.9,0.6,10.2,1.2c3,0.5,5.9,1.3,8.8,2.2c3.7,1.1,7.2,2.5,10.6,4.2c1.3,0.7,2.5,1.4,3.7,2.2c1,0.7,1.5,1.6,1.7,2.7
		c0.5,2.5,0.3,5.2-0.5,7.7c-0.1,0.5-0.5,1-0.9,1.3c-0.2,0.1-0.3,0.1-0.3-0.1c-0.1-0.3-0.2-0.6-0.3-0.9c-0.1-0.3-0.3-0.5-0.7-0.5
		s-0.5,0.3-0.6,0.5c-0.1,0.3-0.3,0.7-0.4,1.2c-0.1-1.1-0.1-2.1-0.3-3.1c-0.1-0.4-0.3-0.7-0.5-1.1c-0.4-0.7-1-0.7-1.5-0.1
		c-0.3,0.3-0.4,0.7-0.5,1.1c-0.3,1-0.5,2-0.7,3c0,0.1-0.1,0.3-0.1,0.5c-0.1-0.1-0.1-0.3-0.1-0.4c0-2.1,0.1-4.1-0.1-6.1
		c0-0.1,0-0.2-0.1-0.3c-0.2-1.1-0.6-1.4-1.7-1.1c-1.3,0.3-2.5,0.9-3.6,1.7c-1.1,0.7-2.2,1.6-3.2,2.7c-0.3-1-0.5-1.9-0.9-2.9
		c-0.3-0.6-0.5-1.2-0.9-1.7c-0.3-0.4-0.7-0.6-1.2-0.6c-1.3,0-2.4,0.3-3.5,0.9c-2.5,1.4-4.3,3.5-5.6,6c-0.3,0.7-0.5,1.5-0.6,2.2
		c0,0.1-0.1,0.3-0.1,0.4c-0.2-1.5-0.4-2.9-0.7-4.4c-0.5-2.4-1.1-4.8-2.5-6.9c-0.8-1.3-1.8-2.4-3.3-2.8c-1.7-0.4-3.4-0.3-5.1,0.1
		c-1.5,0.4-2.8,1.1-3.9,2.3c-0.2,0.2-0.4,0.5-0.5,0.7c-1.7,3.5-3.2,7.1-4.2,10.9C50.3,24.1,50.2,24.6,50.1,25z"/>
	<path class="st1" d="M61.2,42.9c0.5,1.6,0.9,3.1,1.4,4.7c0.4,0.9,0.8,1.9,1.5,2.7c0.8,0.9,1.7,1.5,3,1.5c0.7,0,1.3-0.3,1.7-0.7
		c1-0.7,1.7-1.6,2.3-2.6c0.7-1.1,1.2-2.1,1.7-3.3c0.1-0.1,0.1-0.3,0.2-0.5c0.1,0.5,0.1,1,0.2,1.5c0.6,2.9,2.5,4.7,5.1,5.8
		c1.7,0.7,3.9-0.3,4.9-1.7c0.5-0.7,0.8-1.4,1.1-2.2c0.8,1.7,2.3,2.2,3.9,2.3c1.7,0.1,3.1-0.7,3.7-2.3h0.1c0.8,1.1,1.9,1,2.9,0.8
		c0.6-0.1,0.9-0.6,1-1.2c0.1-0.5,0.1-1,0.2-1.5c0.4,0.6,0.7,1.1,0.9,1.7c0.5,1.3,0.7,2.5,0.5,3.9c-0.1,0.9-0.5,1.3-1.4,1.5
		c-2.7,0.5-5.4,0.9-8.1,1.3c-2.2,0.3-4.4,0.6-6.7,0.9c-3.1,0.3-6.3,0.7-9.5,1c-1.8,0.1-3.5,0.3-5.3,0.5c-1.8,0.1-3.4,0.2-5.1,0.3
		c-5.3,0.3-10.9,0.4-16.5,0.3c-3.5-0.1-6.9-0.2-10.3-0.5c-3.3-0.2-6.6-0.5-9.9-0.8c-4-0.4-8-0.9-11.9-1.4c-2.2-0.3-4.4-0.7-6.5-1
		c-0.9-0.1-1.2-0.5-1.3-1.5c-0.1-1.2,0.1-2.3,0.5-3.5c0.7,0.7,1.5,0.7,2.3,0.6c0.9-0.1,1.4-0.8,1.9-1.5c0.8,1.3,2,2,3.6,1.9
		c1.5-0.1,2.7-0.6,3.7-1.9c0.3,0.7,0.7,1.3,1.1,1.9c1.2,1.4,3.1,1.9,4.9,1.3c1.1-0.4,2.1-1.1,2.9-2c1.3-1.3,2-2.9,2.1-4.7
		c0-0.1,0-0.3,0.1-0.3c0.1,0.1,0.1,0.2,0.2,0.3c0.8,2,1.9,3.7,3.6,5.1c1.9,1.5,3.9,1,5.1-0.4c0.4-0.5,0.7-1,1.1-1.5
		c0.5-0.9,0.7-1.8,1.1-2.7c0.1,0.3,0.1,0.5,0.2,0.8c0.3,1.3,0.6,2.5,1.3,3.6c0.9,1.3,2.2,1.9,3.7,1.9c0.8,0.1,1.5-0.4,2-1
		c0.7-0.9,1.1-1.9,1.5-2.9c0.8-2,1.5-4,2.1-6.1l0.1-0.3c0.1,0.1,0.1,0.3,0.2,0.5c0.7,2.7,1.7,5.4,2.9,7.9c0.1,0.3,0.3,0.5,0.5,0.7
		c0.8,1.1,1.8,1.5,3.1,1.2c1.7-0.4,2.8-1.5,3.5-3.1c0.7-1.6,0.9-3.3,1-5.1C61.2,43,61.2,42.9,61.2,42.9z"/>
	<path class="st2" d="M41.3,36.5c-2.3-0.1-4.5-0.1-6.7-0.5c-0.8-0.1-1.6-0.3-2.3-0.7c-1.8-0.8-2.7-2.1-3-4.1c-0.2-1.5-0.1-3.1,0-4.6
		c0.2-3,0.7-5.9,1.5-8.8c0.6-2,1.3-3.9,2.5-5.6c1.1-1.5,2.7-2.4,4.6-2.4s3.9,0.4,5.6,1.5c0.8,0.5,1.5,1.3,1.9,2.1
		c1.5,3.3,2.9,6.6,3.8,10.1c0.7,2.4,0.7,4.8,0.5,7.3c-0.1,0.6-0.1,1.2-0.3,1.8c-0.5,2.2-1.7,3.3-3.9,3.7
		C44.2,36.6,42.8,36.5,41.3,36.5z"/>
	<path class="st2" d="M60.4,36.5c-2.1,0-3.9-0.1-5.6-0.5c-2-0.5-3.5-1.6-4-3.6c-0.3-0.9-0.3-1.9-0.4-2.9c-0.3-3.5,0.6-6.8,1.8-10
		c0.8-2.1,1.7-4.3,2.7-6.4c0.5-1.1,1.5-1.9,2.6-2.4c1.9-0.9,3.9-1.2,6.1-0.9c1.3,0.2,2.3,1,3,2c1.1,1.5,1.8,3.3,2.3,5.1
		c0.7,2.6,1.1,5.2,1.3,7.9c0.1,1.6,0.2,3.2,0.2,4.8c0,0.9-0.1,1.8-0.3,2.7c-0.6,2-2.1,3-4,3.5C64.1,36.3,62.1,36.5,60.4,36.5z"/>
	<path class="st2" d="M70.8,28.2c-0.2-1.5,0-2.9,0.2-4.5c0.2-1.7,0.9-3.3,2-4.7c1.3-1.7,2.9-3.1,4.8-3.9c0.7-0.3,1.3-0.4,2.1-0.5
		c0.7-0.1,1.1,0.1,1.5,0.7c0.4,0.7,0.7,1.5,1,2.4c0.9,3.1,1.5,6.3,1.4,9.5c0,1.1-0.1,2.2-0.4,3.3c-0.5,1.8-1.5,3.2-2.9,4.3
		c-0.3,0.2-0.5,0.4-0.8,0.6c-1.1,0.9-2.4,1.1-3.8,0.7c-1.2-0.3-2.3-0.9-3.4-1.6c-0.6-0.3-0.9-0.9-1.1-1.5c-0.4-1.1-0.6-2.1-0.6-3.3
		C70.8,29.2,70.8,28.7,70.8,28.2z"/>
	<path class="st2" d="M28.8,28.3c0,0.8,0,1.6,0,2.4c-0.1,1.7-0.5,3.3-2.3,4.2c-1.1,0.6-2.3,1.2-3.6,1.4c-0.9,0.1-1.9-0.1-2.6-0.6
		c-1.8-1.3-3.1-2.8-3.5-5c-0.3-1.3-0.3-2.7-0.3-4.1c0.1-2.5,0.5-4.9,1.2-7.3c0.2-0.8,0.5-1.6,0.9-2.3c0.5-0.9,0.8-1,1.7-0.7
		c0.7,0.2,1.4,0.5,2,0.9c1.3,0.7,2.5,1.7,3.7,2.7c1.5,1.3,2.3,2.9,2.5,4.9C28.8,25.9,28.9,27.1,28.8,28.3z"/>
	<path class="st2" d="M16.1,25.2c-0.1,1.5-0.2,3.1,0,4.6c0.1,1,0.4,2,0.9,2.9c0.1,0.2,0.1,0.4,0.1,0.6c-0.2,1.1-0.5,2.1-1.2,2.9
		c-0.9,1.2-1.7,2.5-2.9,3.5c-0.3,0.3-0.7,0.6-1.2,0.7c-0.6,0.2-1,0.1-1.3-0.5c-1.3-2.3-2.4-4.8-2.7-7.5c-0.3-2.1-0.2-4.3-0.2-6.4
		c0-2.3-0.1-4.6,0-6.9c0-0.5,0.1-1,0.1-1.5c0.1-0.3,0.2-0.5,0.6-0.5c0.7,0,1.3,0.3,1.8,0.5c1.7,0.9,3.3,2.1,4.5,3.6
		c0.8,0.9,1.1,2.1,1.5,3.3C16.2,24.8,16.1,25,16.1,25.2z"/>
	<path class="st2" d="M61.4,40.3c0-1.1,0.2-2.1,0.6-3.1c0.1-0.3,0.3-0.3,0.5-0.4c1.4-0.1,2.8-0.2,4.1-0.7c0.9-0.3,1.7-0.7,2.3-1.3
		c0.1-0.1,0.2-0.2,0.3-0.1c1,0.2,2.1,0.5,2.9,1c0.9,0.5,1.5,1.5,1.4,2.6c-0.4,3.2-0.9,6.4-2.6,9.2c-0.7,1.1-1.4,2.1-2.3,2.9
		c-1.6,1.3-3.1,0.8-4.2-0.3c-0.8-0.9-1.3-1.9-1.7-3.1c-0.6-1.8-1.2-3.7-1.5-5.6C61.5,41.1,61.5,40.7,61.4,40.3z"/>
	<path class="st2" d="M91.7,21.3c-0.1,2.8-0.2,5.8-0.8,8.7c-0.5,2.5-1.4,4.9-2.5,7.2c-0.1,0.3-0.2,0.5-0.4,0.7
		c-0.3,0.6-0.8,0.8-1.5,0.5c-0.7-0.3-1.3-0.8-1.8-1.4c-0.9-0.9-1.7-2-2.3-3.1c-0.1-0.1-0.1-0.3,0-0.5c1.1-1.4,1.6-3.1,1.8-4.8
		c0.3-2.9,0-5.7-0.6-8.5c-0.1-0.2-0.1-0.4,0.1-0.5c1.9-2,4-3.5,6.7-4.3h0.1c0.7-0.1,0.9,0,1,0.7C91.7,17.8,91.7,19.5,91.7,21.3z"/>
	<path class="st2" d="M85,41.9c0,2.3-0.4,4.5-1.3,6.6c-0.5,1.3-1.3,2.4-2.7,2.9c-1.4,0.5-2.8,0.2-4.1-0.7c-1.6-1.1-2.8-2.5-3.2-4.5
		c-0.3-1.5-0.3-3.1,0.1-4.6c0.3-1.1,0.5-2.3,0.5-3.4c0-0.4,0.4-0.7,0.6-1c0.2-0.3,0.6-0.5,1.1-0.3c1.5,0.5,2.9,0.3,4.1-0.8
		c0.4-0.3,0.7-0.6,1.1-0.9c0.2-0.2,0.3-0.1,0.5,0c1.7,1.1,2.7,2.7,3.1,4.8C85,40.4,85,41.1,85,41.9z"/>
	<path class="st2" d="M16,41.3c0-1.4,0.1-3,0.9-4.4c0.4-0.7,0.9-1.3,1.4-1.9c0.1-0.1,0.3-0.2,0.5,0c0.4,0.4,0.9,0.7,1.3,1.1
		c1.1,0.9,2.5,0.9,3.7,0.5c0.5-0.1,1-0.3,1.5-0.5c0.2-0.1,0.3-0.1,0.5,0.1c0.3,0.3,0.6,0.7,0.9,1c0.1,0.1,0.1,0.3,0.1,0.4
		c0,1.6,0.4,3.2,0.7,4.8c0.1,0.7,0,1.3-0.1,1.9c-0.1,2.9-1.7,4.9-4.2,6.3c-1.5,0.8-3.9,0.5-5.1-1.1c-0.8-1.1-1.1-2.3-1.5-3.5
		C16.3,44.3,16.1,42.9,16,41.3z"/>
	<path class="st2" d="M27.2,37.5c0-1.9,0.7-2.9,2.3-3.5c0.1-0.1,0.3-0.1,0.4,0.1c1,1.3,2.5,1.9,4.1,2.3c1.6,0.3,3.1,0.5,4.7,0.5
		c0.3,0,0.4,0.1,0.3,0.4c-0.3,1.9-0.4,3.9-0.3,5.9c0,0.3,0,0.5-0.1,0.8c-0.4,1.4-0.9,2.8-1.6,4c-0.5,0.9-1.3,1.6-2.3,1.9
		c-0.9,0.2-1.6,0-2.3-0.5c-1.3-0.9-2.2-2.1-3-3.3c-1.1-1.7-1.5-3.7-1.8-5.7C27.4,39.4,27.2,38.4,27.2,37.5z"/>
	<path class="st2" d="M60.8,42.3c-0.1,1.7-0.3,3.8-1,5.7c-0.7,1.7-1.8,2.7-3.7,2.9c-0.8,0.1-1.5-0.2-2-0.8c-0.5-0.6-1-1.5-1.3-2.3
		c-1-2.5-2-4.9-2.5-7.5c-0.3-1.7-0.2-3.3,0.2-4.9c0.1-0.2,0.1-0.3,0.2-0.5c0.4-0.5,0.5-0.5,1-0.1c1,1,2.3,1.4,3.6,1.7
		c1.5,0.3,3.1,0.4,4.7,0.3c0.3,0,0.5,0.1,0.5,0.4C60.8,38.9,60.9,40.7,60.8,42.3z"/>
	<path class="st2" d="M49.2,34.7c0.4,0.6,0.5,1.3,0.5,1.9c0.1,1.6,0.1,3.2-0.3,4.8c-0.7,2.4-1.5,4.8-2.6,7.1
		c-0.2,0.4-0.4,0.7-0.7,1.1c-0.7,1.1-1.5,1.4-2.9,1.1c-1.9-0.4-2.7-1.7-3.3-3.3c-0.5-1.4-0.7-2.8-0.8-4.3c-0.1-1.9-0.1-3.9,0.3-5.8
		c0.1-0.3,0.1-0.3,0.3-0.3c1.2,0,2.3,0,3.5,0c0.8,0,1.5-0.1,2.3-0.2C47.1,36.5,48.4,35.9,49.2,34.7z"/>
	<path class="st2" d="M92,45.5c0,0.5-0.1,1.1-0.2,1.7c-0.5,1.9-1.9,2.8-3.9,2.5c-0.9-0.1-1.7-0.4-2.3-0.9c-0.7-0.6-1.1-1.3-0.8-2.3
		c0.4-1.5,0.7-3.1,0.6-4.8c0-0.2,0-0.4,0.1-0.6l0.7-1.5c0.1-0.3,0.3-0.5,0.8-0.5c0.5,0.1,1.1-0.2,1.3-0.7c0.1-0.3,0.3-0.2,0.5-0.1
		c0.7,0.4,1.1,1,1.5,1.7C91.4,41.6,92,43.5,92,45.5z"/>
	<path class="st2" d="M95.2,23c-0.1,3.4-0.6,6.7-1.2,10.1c-0.3,1.4-0.5,2.7-1.1,4c-0.2,0.5-0.5,1-0.9,1.4c-0.6,0.6-1.4,0.5-1.9-0.2
		c-0.1-0.2-0.1-0.4-0.1-0.6c0-1,0.2-2.1,0.3-3.1c0.2-1.9,0.9-3.8,1.1-5.7c0.3-3.1,1.1-6,1.8-9c0.1-0.5,0.3-0.9,0.5-1.3
		c0.3-0.4,0.5-0.3,0.7,0c0.4,0.6,0.5,1.3,0.6,1.9C95.2,21.4,95.2,22.2,95.2,23z"/>
	<path class="st2" d="M14.8,38.4c0.5,0.8,0.8,1.5,0.8,2.5c-0.1,2.1,0.3,4,0.9,5.9c0.1,0.2,0.1,0.5-0.1,0.7c-0.1,0.3-0.3,0.5-0.5,0.6
		c-1.1,0.9-2.4,1.3-3.8,1.1s-2.4-1.4-2.6-3c-0.3-1.9,0.1-3.7,0.8-5.4c0.1-0.1,0.1-0.3,0.3-0.1c0.6,0.4,1.2,0.3,1.7,0
		c0.9-0.5,1.5-1.2,2.2-1.9L14.8,38.4z"/>
	<path class="st2" d="M5.3,19.8c0.7,1.3,1.5,2.5,1.8,3.9c0,0.1,0.1,0.3,0,0.5c0,1.7,0.1,3.3,0.1,4.9c-0.1,3.3,0.6,6.5,2.2,9.5
		c0.4,0.7,0.2,1.1-0.4,1.7c-0.2,0.2-0.4,0.1-0.6-0.1C8,39.9,7.7,39.4,7.5,39C5.7,35.6,4.6,32,4.3,28.2c-0.2-2.3-0.1-4.5,0.4-6.8
		C4.9,20.8,5,20.3,5.3,19.8z"/>
	<path class="st2" d="M97.6,27.1c-0.1,3-0.4,5.9-1.3,8.8c-0.2,0.6-0.5,1.2-0.9,1.8c-0.2,0.3-0.4,0.5-0.7,0.6
		c-0.5,0.1-0.8-0.1-0.8-0.6c0-1.6,0.4-3.1,0.7-4.7c0.5-2.4,0.8-4.8,1-7.2c0.1-1.4,0.5-2.8,0.9-4.1c0.1-0.1,0.1-0.3,0.3-0.3
		c0.2,0,0.2,0.2,0.3,0.3c0.3,0.8,0.5,1.7,0.5,2.5C97.6,25.2,97.6,26.1,97.6,27.1z"/>
	<path class="st2" d="M95.8,45.7c0,0.7,0,1.3-0.1,1.9c-0.1,0.6-0.4,0.7-1,0.8c-0.3,0-0.7,0-1.1,0c-0.7-0.1-1.3-0.8-1.3-1.5
		c0.3-1.7,0-3.3-0.5-4.8c-0.1-0.2-0.1-0.5,0.1-0.6c0.3-0.5,0.6-0.9,1.1-1.2c0.6-0.4,1.1-0.3,1.5,0.1c0.7,0.7,0.9,1.5,1.1,2.3
		C95.7,43.7,95.8,44.7,95.8,45.7z"/>
	<path class="st2" d="M5.5,47c0.1-1.5,0.3-3,0.7-4.5c0.2-0.5,0.5-1.1,0.9-1.5c0.6-0.6,1.3-0.6,1.9-0.1l0.2,0.2
		c0.3,0.3,0.3,0.5,0.3,0.9c-0.5,1.7-0.6,3.3-0.1,5c0,0.1,0,0.1,0,0.2c-0.3,0.5-0.6,1.1-1.1,1.3C7.5,49.1,6.7,49,6,48.7
		c-0.3-0.1-0.4-0.5-0.5-0.7C5.5,47.6,5.5,47.3,5.5,47z"/>
	<path class="st2" d="M2.3,24.9c0-1-0.1-1.9,0.1-2.9c0.1-0.3,0.1-0.7,0.5-0.7s0.4,0.3,0.6,0.5C4.1,22.5,4,23.2,3.9,24
		c-0.4,4.6,0.3,9,2.2,13.2c0.3,0.6,0.5,1.1,0.3,1.8c-0.2,0.5-0.4,0.6-0.7,0.2c-0.6-0.6-1-1.4-1.3-2.2c-0.8-2.1-1.3-4.2-1.5-6.4
		C2.6,28.6,2.4,26.7,2.3,24.9z"/>
	<path class="st2" d="M75,36.3l-0.7,0.8c-0.8-1.9-2.6-2.3-4.3-2.7l-0.2-0.1c0.5-0.7,0.8-1.4,1-2.1c0.2,0.1,0.2,0.2,0.2,0.3
		c0.1,0.5,0.3,0.9,0.6,1.4c0.3,0.5,0.7,1,1.3,1.3C73.4,35.5,74.2,35.9,75,36.3z"/>
	<path class="st2" d="M15.7,39.1c-0.2-0.3-0.3-0.6-0.5-0.9s0-0.3,0.1-0.4c0.5-0.7,1.1-1.4,1.5-2.2c0.3-0.6,0.5-1.3,0.7-2
		c0.3,0.3,0.5,0.5,0.7,0.8c0.2,0.3,0,0.2-0.1,0.3c-0.9,1-1.7,2.1-2.1,3.4C15.9,38.3,15.8,38.7,15.7,39.1z"/>
	<path class="st2" d="M50.2,31.7c0.2,0.8,0.4,1.5,0.9,2.3c0.1,0.1,0.1,0.1-0.1,0.2c-0.5,0.3-0.9,0.9-1,1.5c-0.1-0.5-0.2-0.9-0.5-1.3
		c-0.1-0.1-0.1-0.2-0.1-0.3c0.3-0.7,0.5-1.5,0.6-2.3C50.1,31.8,50.2,31.8,50.2,31.7z"/>
	<path class="st2" d="M89.8,35.3c-0.1,1-0.2,2-0.2,3.1l-0.9-0.5c-0.1-0.1-0.1-0.1,0-0.3L89.8,35.3z"/>
	<path class="st2" d="M84.8,37.9c0.4,0.3,0.8,0.6,1.2,0.9c0.1,0.1,0,0.1,0,0.2l-0.7,1.3C85.2,39.5,85.1,38.7,84.8,37.9z"/>
	<path class="st2" d="M28.2,34.2c0.5-0.6,0.7-1.3,0.9-2c0.2,0.4,0.3,0.8,0.5,1.2c0.1,0.1,0,0.1-0.1,0.2C29,33.8,28.6,34,28.2,34.2z"
		/>
	<path class="st2" d="M26,35.6l1.5-0.8c-0.3,0.5-0.6,1.1-0.7,1.6L26,35.6z"/>
	<path class="st2" d="M61.8,36.9c-0.3,0.5-0.4,1.1-0.6,1.8c-0.1-0.6-0.1-1.1-0.2-1.5c-0.1-0.2,0-0.3,0.2-0.3
		C61.4,36.9,61.5,36.9,61.8,36.9z"/>
	<path class="st2" d="M9.9,39.7c0.5,0.5-0.2,0.9-0.2,1.4c-0.1,0-0.1,0-0.1,0c-0.4-0.4-0.4-0.4-0.1-0.9L9.9,39.7z"/>
</g>
</svg>
