<?xml version="1.0" encoding="utf-8"?>
<!-- Generator: Adobe Illustrator 21.0.2, SVG Export Plug-In . SVG Version: 6.00 Build 0)  -->
<svg version="1.1" id="Layer_1" xmlns="http://www.w3.org/2000/svg" xmlns:xlink="http://www.w3.org/1999/xlink" x="0px" y="0px"
	 viewBox="0 0 80 84" style="enable-background:new 0 0 80 84;" xml:space="preserve">
<style type="text/css">
	.st0{fill:#0B0A0A;}
	.st1{fill:#E85F66;}
	.st2{fill:#FDFDFD;}
</style>
<title>Artboard 1</title>
<g>
	<path class="st0" d="M6.3,49.9c-0.2-0.3-0.5-0.7-0.6-1c-0.1,0.2-0.1,0.3-0.2,0.4c-0.2,0.4-0.6,0.6-0.9,0.2
		c-0.4-0.2-0.6-0.6-0.7-0.9c-0.7-1.2-1-2.4-1.4-3.7C2,43,1.8,41.1,1.6,39.2c-0.1-0.6-0.1-1.2-0.1-1.8c0-0.1,0-0.2-0.1-0.2
		c-0.6-0.6-0.8-1.2-1-1.9c-0.7-2.5-0.6-4.9,0.3-7.3c0.1-0.3,0.3-0.6,0.6-0.8c0.9-0.6,1.8-1.2,2.8-1.7c4.7-2.2,9.4-3.8,14.3-5.2
		c2.4-0.6,4.9-1,7.4-1.4c3.3-0.4,6.5-0.7,9.8-0.9c4.2-0.2,8.5-0.2,12.8,0c2.5,0.1,4.9,0.3,7.3,0.6c3.7,0.5,7.4,1.2,11.1,2.4
		c3.4,1.1,6.8,2.4,9.9,4.2c0.6,0.4,1.2,0.7,1.8,1.2c0.7,0.6,1,1.4,1.2,2.3c0.3,2,0.2,4.1-0.4,6.1c-0.2,0.5-0.4,0.9-0.9,1.2
		c-0.2,0.2-0.2,0.2-0.2,0.6c0.3,3.1,0.1,6.3-0.7,9.3c-0.2,0.7-0.5,1.4-0.9,2.1c-0.2,0.2-0.4,0.5-0.6,0.7c-0.2,0.2-0.6,0.2-1,0.1
		c-0.3-0.2-0.4-0.4-0.4-0.8c0-0.1,0-0.1,0-0.2c-0.6,0.9-1,1.8-2.3,1.5c0.3,0.4,0.6,0.9,0.8,1.4c0.2-0.4,0.5-0.7,0.8-0.9
		c0.7-0.6,1.4-0.6,2,0.2c0.6,0.7,0.7,1.4,0.9,2.2c0.1,0.6,0.1,1,0.2,1.5c0,0.2,0.1,0.2,0.2,0.4c1,1.5,1.6,3.3,1.4,5.1
		c-0.1,0.9-0.5,1.2-1.4,1.4c-2.3,0.4-4.5,0.7-6.9,1c-2.5,0.4-5,0.6-7.5,0.9c-2,0.2-4.1,0.4-6.1,0.6c-2.6,0.2-5.3,0.4-7.9,0.6
		c-4.1,0.2-8.1,0.3-12.2,0.2c-2.6-0.1-5.2-0.2-7.8-0.3c-2.4-0.2-4.8-0.3-7.3-0.6c-2.6-0.2-5.3-0.6-8-0.9c-2.8-0.4-5.7-0.7-8.5-1.2
		c-1-0.2-1.4-0.6-1.4-1.5c-0.1-1,0.1-1.8,0.4-2.8c0.1-0.3,0.2-0.6,0.1-0.8c-0.1-0.7,0-1.5,0.1-2.2c0.1-0.7,0.2-1.7,0.6-2.4
		C5.2,50.7,5.6,50.2,6.3,49.9z M40.1,37.8c0.1-0.4,0.2-0.8,0.2-1.1c0.8-3,2-5.9,3.4-8.7c0.1-0.2,0.2-0.4,0.4-0.6
		c0.9-0.9,1.9-1.4,3.1-1.8c1.4-0.4,2.7-0.5,4.1-0.1c1.2,0.3,2,1.2,2.6,2.2c1,1.7,1.5,3.6,2,5.5c0.2,1.2,0.4,2.3,0.6,3.5
		c0.1-0.1,0.1-0.2,0.1-0.3c0.1-0.6,0.2-1.2,0.5-1.8c1-2,2.5-3.7,4.5-4.8c0.9-0.5,1.8-0.7,2.8-0.7c0.4,0,0.7,0.2,1,0.5
		c0.3,0.4,0.6,0.9,0.7,1.4c0.2,0.7,0.5,1.5,0.7,2.3c0.7-0.9,1.6-1.5,2.6-2.2c1-0.6,1.8-1.1,2.9-1.4c0.9-0.2,1.2,0,1.4,0.9
		c0,0.1,0,0.2,0.1,0.2c0.2,1.7,0.2,3.3,0.1,4.9c0,0.1-0.1,0.2,0.1,0.3c0.1-0.2,0.1-0.2,0.1-0.4c0.2-0.8,0.4-1.6,0.6-2.4
		c0.1-0.3,0.2-0.6,0.4-0.9c0.4-0.5,0.8-0.5,1.2,0.1c0.2,0.2,0.2,0.6,0.4,0.9c0.2,0.8,0.2,1.6,0.2,2.5c0.1-0.4,0.2-0.7,0.3-1
		c0.1-0.3,0.2-0.4,0.5-0.4c0.2,0,0.4,0.2,0.6,0.4c0.1,0.2,0.2,0.5,0.2,0.7c0.1,0.2,0.1,0.2,0.2,0.1c0.4-0.2,0.6-0.6,0.7-1
		c0.6-2,0.7-4.1,0.4-6.1c-0.2-0.9-0.6-1.7-1.4-2.2c-1-0.6-2-1.2-3-1.8c-2.7-1.4-5.6-2.5-8.5-3.4c-2.3-0.7-4.6-1.4-7-1.8
		c-2.7-0.6-5.4-0.9-8.1-1c-2.2-0.1-4.1-0.2-6.1-0.2c-3-0.1-5.9,0-8.9,0.2c-1,0.1-2,0.1-3,0.2c-0.7,0-1.5,0.2-2.3,0.2
		c-0.7,0.1-1.4,0.1-2.2,0.2c-1.7,0.2-3.3,0.4-4.9,0.6c-2.5,0.4-4.9,0.9-7.3,1.6c-3.9,1.2-7.8,2.6-11.6,4.3C4.2,26,3.1,26.5,2,27.2
		c-0.4,0.2-0.7,0.7-0.9,1.2c-0.4,1.4-0.6,2.7-0.6,4.1s0.2,2.6,0.9,3.7c0.1,0.2,0.1,0.3,0.2,0.4c0-0.2,0-0.2,0.1-0.4
		c0-0.4,0.1-0.9,0.2-1.2c0.2-0.6,0.7-0.6,1.1-0.2c0.2,0.2,0.2,0.4,0.4,0.6c0.1-0.6,0.2-1,0.4-1.5C4,33.7,4,33.4,4.4,33.3
		c0.3,0,0.4,0.3,0.6,0.6c0.2,0.6,0.6,1,0.9,1.6c0-0.6,0-1.2,0-1.8c0-0.6,0.1-1.4,0.2-2c0.1-0.3,0.2-0.6,0.6-0.6
		c0.5,0,0.9,0.1,1.4,0.2c1,0.5,2,1.1,2.8,1.8c1,0.9,1.9,1.8,2.3,3.1c0,0.1,0.1,0.1,0.1,0.1c0.1-0.1,0.1-0.2,0.1-0.2
		c0.2-1.1,0.4-2.2,0.7-3.3c0.2-0.7,0.5-1.5,1-2.2c0.2-0.4,0.6-0.6,1.1-0.5c0.3,0.1,0.6,0.2,1,0.2c1.9,0.9,3.6,2.1,5,3.6
		c0.6,0.6,0.9,1.3,1,2l0.3,1.3c0.1-0.2,0.1-0.3,0.1-0.4c0.2-1.9,0.6-3.7,1.2-5.6c0.6-1.8,1.4-3.6,2.8-5c0.4-0.4,0.9-0.7,1.5-0.9
		c2-0.5,3.9-0.2,5.7,0.7c0.8,0.4,1.5,1,2,1.8c1.3,2.6,2.4,5.3,3.1,8.1C39.9,36.8,39.9,37.4,40.1,37.8L40.1,37.8z M48.9,52.1
		c0,0.1,0,0.2,0,0.2c-0.1,1.4-0.2,2.8-0.8,4.1c-0.6,1.3-1.4,2.2-2.8,2.5c-1.1,0.2-1.8,0-2.5-1c-0.2-0.2-0.2-0.4-0.4-0.6
		c-1-2-1.8-4.1-2.3-6.3c-0.1-0.1,0-0.2-0.2-0.4v0.1c-0.4,1.7-1,3.3-1.7,4.9c-0.3,0.8-0.7,1.6-1.2,2.3c-0.4,0.5-0.9,0.9-1.6,0.8
		c-1.2-0.1-2.3-0.5-3-1.5c-0.6-0.9-0.9-1.8-1-2.9c-0.1-0.2,0-0.4-0.2-0.6c-0.2,0.8-0.5,1.5-0.9,2.2c-0.2,0.4-0.5,0.9-0.9,1.2
		c-1,1-2.6,1.5-4.1,0.3c-1.4-1.1-2.2-2.5-2.9-4.1c-0.1-0.1-0.1-0.2-0.2-0.2c-0.1,0-0.1,0.2-0.1,0.2c0,1.4-0.6,2.7-1.6,3.7
		c-0.6,0.7-1.4,1.3-2.3,1.6c-1.4,0.5-3,0.1-3.9-1c-0.4-0.5-0.6-1-0.9-1.5c-0.7,1-1.8,1.4-3,1.5c-1.2,0.1-2.2-0.4-2.9-1.5
		c-0.4,0.6-0.7,1.2-1.5,1.2c-0.9,0.1-1.5,0.1-2.1-0.5C4,57.6,3.8,58.6,4,59.5c0.1,0.7,0.4,1,1,1.2c1.8,0.2,3.4,0.6,5.2,0.8
		c3.2,0.4,6.3,0.9,9.5,1.1c2.6,0.2,5.3,0.5,7.9,0.6c2.8,0.2,5.5,0.3,8.2,0.4c4.5,0.1,8.9,0,13.3-0.2c1.4-0.1,2.7-0.2,4.1-0.2
		c1.4-0.1,2.8-0.2,4.2-0.4c2.6-0.2,5-0.5,7.6-0.8c1.8-0.2,3.6-0.5,5.3-0.7c2.2-0.3,4.3-0.6,6.5-1c0.7-0.2,1-0.4,1.1-1.2
		c0.2-1-0.1-2.2-0.4-3.1c-0.2-0.5-0.4-1-0.7-1.4c-0.1,0.4-0.1,0.9-0.2,1.2c-0.1,0.4-0.3,0.9-0.8,1c-0.9,0.2-1.8,0.2-2.3-0.6h-0.1
		c-0.6,1.4-1.6,2-3,1.8c-1.4-0.1-2.5-0.6-3.1-1.8c-0.2,0.6-0.5,1.2-0.9,1.8c-0.8,1.2-2.6,1.8-3.9,1.4c-2.2-0.9-3.6-2.3-4.1-4.6
		c-0.1-0.4-0.1-0.7-0.2-1.2c-0.1,0.2-0.1,0.2-0.2,0.4c-0.3,0.9-0.8,1.8-1.4,2.6c-0.6,0.8-1.1,1.5-1.8,2.1c-0.4,0.3-0.9,0.6-1.4,0.6
		c-1,0-1.8-0.4-2.4-1.2c-0.6-0.6-0.9-1.4-1.2-2.2C49.7,54.6,49.3,53.3,48.9,52.1z M33.1,47c1.2,0,2.3,0.1,3.4-0.2
		c1.8-0.3,2.7-1.2,3.1-3c0.1-0.5,0.2-1,0.2-1.4c0.1-2,0.2-3.9-0.4-5.8c-0.7-2.8-1.8-5.4-3-8.1c-0.3-0.7-0.9-1.4-1.5-1.7
		c-1.4-0.8-2.9-1.2-4.5-1.1c-1.6,0-2.8,0.7-3.7,1.9c-1,1.4-1.6,2.9-2,4.5c-0.7,2.3-1,4.7-1.2,7c-0.1,1.2-0.2,2.5,0,3.7
		c0.2,1.5,1,2.6,2.4,3.3c0.6,0.2,1.2,0.4,1.8,0.6C29.5,47,31.2,47,33.1,47z M48.3,47c1.4-0.1,3-0.1,4.5-0.4c1.5-0.4,2.6-1.2,3.2-2.8
		c0.2-0.7,0.2-1.4,0.2-2.2c0-1.3-0.1-2.6-0.2-3.8c-0.2-2.2-0.5-4.2-1-6.3c-0.4-1.5-0.9-2.9-1.8-4.1c-0.6-0.8-1.4-1.4-2.4-1.6
		c-1.7-0.3-3.3-0.1-4.9,0.7c-0.9,0.4-1.7,1-2.1,1.9c-0.8,1.7-1.5,3.4-2.2,5.1c-1,2.6-1.7,5.2-1.4,8c0.1,0.7,0.2,1.5,0.3,2.3
		c0.5,1.7,1.6,2.5,3.2,2.9C45.3,47,46.7,47,48.3,47L48.3,47z M56.6,40.4c0,0.5,0,0.9,0,1.3c0,0.9,0.2,1.8,0.5,2.6
		c0.2,0.5,0.4,1,0.9,1.2c0.9,0.6,1.8,1,2.7,1.3c1.1,0.3,2.2,0.2,3-0.6c0.2-0.2,0.4-0.3,0.6-0.5c1.1-0.9,1.9-2,2.3-3.4
		c0.2-0.9,0.3-1.7,0.3-2.6c0.1-2.6-0.4-5.2-1.1-7.6c-0.2-0.6-0.5-1.3-0.8-1.9c-0.2-0.5-0.6-0.6-1.2-0.6c-0.6,0.1-1.1,0.2-1.7,0.4
		c-1.6,0.7-2.8,1.8-3.8,3.1c-0.9,1.1-1.4,2.3-1.6,3.7C56.6,38,56.5,39.2,56.6,40.4z M23.1,40.5c0.1-1,0-1.9-0.2-3
		c-0.2-1.5-0.9-2.8-2-3.9c-0.9-0.8-1.8-1.5-3-2.2c-0.6-0.3-1-0.6-1.6-0.7c-0.7-0.2-1-0.1-1.4,0.6c-0.3,0.6-0.6,1.2-0.7,1.8
		c-0.6,1.9-0.8,3.9-1,5.8c-0.1,1.1-0.1,2.2,0.2,3.3c0.4,1.8,1.4,3,2.8,4c0.6,0.4,1.4,0.6,2.1,0.5c1-0.2,1.9-0.6,2.9-1.1
		c1.4-0.7,1.7-2,1.8-3.4C23.1,41.8,23.1,41.2,23.1,40.5L23.1,40.5z M13,38c0-0.2,0.1-0.3,0-0.5c-0.2-0.9-0.6-1.8-1.2-2.6
		c-1-1.2-2.2-2.2-3.6-2.9c-0.5-0.2-0.9-0.4-1.4-0.4c-0.2,0-0.4,0.1-0.5,0.4c-0.1,0.4-0.1,0.8-0.1,1.2c-0.1,1.8,0,3.7,0,5.5
		c0,1.7-0.1,3.4,0.2,5.1c0.2,2.2,1.2,4.1,2.2,6c0.2,0.4,0.6,0.6,1,0.4c0.4-0.1,0.6-0.3,1-0.6c0.9-0.8,1.6-1.8,2.3-2.8
		c0.5-0.7,0.8-1.5,1-2.3c0.1-0.2,0-0.3-0.1-0.5c-0.4-0.7-0.6-1.5-0.7-2.3C12.8,40.4,12.9,39.1,13,38z M49.1,50
		c0,0.3,0.1,0.6,0.1,0.9c0.2,1.5,0.6,3,1.2,4.5c0.3,0.9,0.7,1.8,1.4,2.5c0.9,0.9,2.1,1.3,3.4,0.2c0.8-0.6,1.4-1.4,1.8-2.3
		c1.4-2.2,1.8-4.8,2.1-7.3c0.1-1-0.3-1.7-1.1-2.1c-0.9-0.5-1.5-0.6-2.3-0.8c-0.2,0-0.2,0.1-0.2,0.1c-0.6,0.6-1.2,0.9-1.8,1
		c-1,0.4-2.2,0.5-3.3,0.6c-0.2,0-0.3,0.1-0.4,0.3C49.3,48.4,49.1,49.3,49.1,50z M73.3,34.9c0-1.4,0-2.8-0.2-4.1
		c-0.1-0.6-0.2-0.7-0.8-0.6h-0.1c-2.2,0.6-3.8,1.8-5.3,3.4c-0.2,0.2-0.1,0.3-0.1,0.4c0.5,2.2,0.7,4.5,0.5,6.8
		c-0.2,1.4-0.6,2.7-1.4,3.8c-0.1,0.2-0.1,0.2,0,0.4c0.6,0.9,1.2,1.7,1.8,2.5c0.4,0.4,0.9,0.9,1.4,1.1c0.6,0.2,0.9,0.1,1.2-0.4
		c0.1-0.2,0.2-0.4,0.3-0.6c0.9-1.8,1.7-3.7,2-5.7C73,39.5,73.2,37.1,73.3,34.9z M67.9,51.3c0-0.6-0.1-1.2-0.2-1.8
		c-0.3-1.6-1.1-2.9-2.5-3.8c-0.2-0.1-0.2-0.1-0.4,0c-0.2,0.2-0.6,0.5-0.9,0.7c-1,0.8-2.1,1-3.3,0.6c-0.4-0.1-0.6,0-0.9,0.2
		c-0.2,0.2-0.5,0.4-0.5,0.8c0,0.9-0.2,1.8-0.4,2.7c-0.3,1.2-0.2,2.5-0.1,3.7c0.2,1.6,1.3,2.7,2.6,3.6c1,0.7,2.1,1,3.3,0.6
		c1.2-0.4,1.8-1.2,2.2-2.3C67.6,54.8,67.9,53.1,67.9,51.3L67.9,51.3z M12.9,50.8c0.1,1.3,0.2,2.5,0.5,3.6c0.2,1,0.6,2,1.2,2.8
		c1,1.4,2.9,1.6,4.1,0.9c2-1.1,3.3-2.6,3.4-5c0-0.5,0.1-1,0.1-1.5c-0.2-1.3-0.6-2.5-0.6-3.8c0-0.1-0.1-0.2-0.1-0.3
		c-0.2-0.3-0.4-0.6-0.7-0.8c-0.1-0.1-0.2-0.1-0.4-0.1c-0.4,0.2-0.8,0.3-1.2,0.4c-1,0.2-2.1,0.3-3-0.4c-0.4-0.2-0.7-0.6-1-0.9
		c-0.2-0.2-0.2-0.1-0.4,0c-0.4,0.4-0.9,1-1.1,1.5C13,48.5,12.9,49.7,12.9,50.8L12.9,50.8z M21.8,47.8c0,0.7,0.2,1.5,0.3,2.3
		c0.2,1.6,0.6,3.1,1.4,4.5c0.6,1,1.4,2,2.4,2.6c0.6,0.4,1.2,0.6,1.8,0.4c0.9-0.2,1.4-0.8,1.8-1.5c0.6-1,1-2.1,1.3-3.2
		c0.1-0.2,0.1-0.4,0.1-0.6c-0.1-1.5-0.1-3.1,0.2-4.7c0.1-0.2-0.1-0.3-0.2-0.3c-1.3,0-2.5-0.1-3.7-0.4c-1.2-0.2-2.5-0.7-3.3-1.8
		C23.9,45,23.8,45,23.7,45C22.5,45.5,21.8,46.4,21.8,47.8L21.8,47.8z M48.6,51.6c0-1.4-0.1-2.6-0.2-4c-0.1-0.2-0.1-0.3-0.4-0.3
		c-1.2,0.1-2.5,0-3.7-0.2c-1-0.2-2.1-0.6-2.9-1.4c-0.4-0.4-0.5-0.4-0.8,0.1c-0.1,0.1-0.2,0.2-0.2,0.4c-0.3,1.3-0.4,2.6-0.2,3.9
		c0.4,2.1,1.2,4.1,2,6c0.2,0.6,0.6,1.3,1,1.8c0.5,0.6,1,0.7,1.6,0.6c1.4-0.2,2.4-1,3-2.3C48.5,54.7,48.6,53.1,48.6,51.6L48.6,51.6z
		 M39.4,45.6c-0.7,1-1.7,1.5-2.8,1.7c-0.6,0.1-1.2,0.2-1.8,0.2c-1,0-1.8,0-2.8,0c-0.2,0-0.2,0.1-0.2,0.2c-0.2,1.5-0.3,3.1-0.2,4.6
		c0.1,1.2,0.2,2.3,0.6,3.4c0.5,1.3,1.2,2.3,2.6,2.6c1,0.2,1.7,0,2.3-0.9c0.2-0.2,0.4-0.6,0.6-0.9c0.9-1.8,1.5-3.7,2.1-5.7
		c0.4-1.3,0.3-2.6,0.2-3.8C39.8,46.5,39.7,46.1,39.4,45.6z M73.5,54.2c-0.1-1.7-0.5-3.1-1.4-4.5c-0.3-0.6-0.7-1-1.2-1.4
		c-0.2-0.1-0.2-0.2-0.4,0.1c-0.2,0.4-0.6,0.7-1,0.6c-0.4-0.1-0.6,0.1-0.6,0.4l-0.6,1.2c-0.1,0.2-0.1,0.3-0.1,0.5
		c0,1.3-0.2,2.6-0.5,3.8c-0.2,0.8,0.1,1.4,0.6,1.8s1.2,0.7,1.8,0.7c1.5,0.2,2.6-0.6,3.1-2C73.5,55.1,73.5,54.7,73.5,54.2z
		 M76.1,36.2c0-0.6,0-1.3-0.1-1.9c-0.1-0.6-0.2-1-0.5-1.5c-0.2-0.2-0.4-0.3-0.6,0c-0.2,0.2-0.4,0.7-0.4,1c-0.6,2.4-1.1,4.8-1.4,7.2
		c-0.2,1.5-0.7,3-0.9,4.5c-0.1,0.8-0.2,1.6-0.2,2.5c0,0.2,0,0.3,0.1,0.5c0.4,0.6,1,0.6,1.5,0.2c0.3-0.3,0.6-0.7,0.7-1.1
		c0.4-1,0.6-2.2,0.9-3.2C75.7,41.7,76.1,39,76.1,36.2L76.1,36.2z M11.9,48.5l-0.2,0.2c-0.6,0.6-1,1.2-1.8,1.5c-0.5,0.2-1,0.4-1.4,0
		c-0.2-0.1-0.2,0-0.2,0.1c-0.6,1.4-0.9,2.8-0.6,4.3c0.2,1.4,0.9,2.2,2.1,2.4s2.2-0.1,3-0.9c0.2-0.2,0.2-0.3,0.4-0.5
		c0.1-0.2,0.1-0.4,0.1-0.6c-0.5-1.5-0.8-3.1-0.7-4.7C12.7,49.7,12.3,49.2,11.9,48.5z M4.4,33.7C4.1,34.1,4,34.6,3.9,35
		c-0.4,1.8-0.4,3.6-0.3,5.3c0.2,3.1,1.1,6,2.6,8.7c0.2,0.4,0.4,0.7,0.7,1C7,50.1,7.2,50.2,7.3,50c0.5-0.5,0.6-0.7,0.3-1.4
		c-1.3-2.3-1.8-4.9-1.8-7.6c0-1.4,0-2.6-0.1-3.9c0-0.1,0-0.2,0-0.4C5.6,35.6,5,34.7,4.4,33.7z M78,39.5c0-0.8,0-1.5-0.1-2.3
		c-0.1-0.7-0.2-1.4-0.4-2c-0.1-0.1-0.1-0.2-0.2-0.2c-0.1,0-0.2,0.2-0.2,0.2c-0.4,1-0.6,2.2-0.7,3.3c-0.2,1.9-0.5,3.8-0.8,5.7
		C75.3,45.4,75,46.7,75,48c0,0.4,0.2,0.6,0.6,0.5c0.2-0.1,0.4-0.3,0.6-0.5c0.3-0.4,0.6-0.9,0.7-1.4C77.7,44.2,77.9,41.9,78,39.5z
		 M76.5,54.4c0-0.8-0.1-1.7-0.2-2.5c-0.1-0.7-0.3-1.4-0.9-1.8c-0.4-0.4-0.8-0.4-1.2-0.1c-0.4,0.2-0.6,0.6-0.9,1
		c-0.1,0.2-0.1,0.3-0.1,0.5c0.4,1.2,0.6,2.5,0.4,3.8c-0.1,0.6,0.4,1.2,1,1.2c0.2,0,0.6,0,0.9,0c0.5,0,0.6-0.2,0.8-0.6
		C76.5,55.3,76.5,54.9,76.5,54.4z M4.5,55.4c0,0.2,0,0.6,0.1,0.7c0.1,0.2,0.1,0.6,0.4,0.6c0.6,0.2,1.2,0.3,1.8,0.1
		c0.4-0.2,0.7-0.6,0.9-1c0.1-0.1,0.1-0.1,0-0.2c-0.4-1.4-0.3-2.6,0.1-4c0.1-0.3,0.1-0.6-0.2-0.7l-0.2-0.2c-0.6-0.5-1-0.5-1.5,0.1
		c-0.3,0.3-0.6,0.7-0.7,1.2C4.7,53,4.6,54.2,4.5,55.4z M2,37.8c0.1,1.4,0.2,3,0.4,4.5c0.2,1.8,0.6,3.4,1.2,5.1
		c0.2,0.6,0.6,1.3,1,1.8c0.3,0.2,0.5,0.2,0.6-0.2c0.2-0.6,0-1-0.2-1.4c-1.5-3.4-2-6.9-1.7-10.5c0.1-0.6,0.1-1.2-0.3-1.7
		c-0.2-0.2-0.2-0.5-0.5-0.4S2.1,35.3,2,35.5C2,36.2,2,37,2,37.8z M60,46.9c-0.6-0.2-1.2-0.6-1.8-0.9c-0.4-0.2-0.8-0.6-1-1
		c-0.2-0.4-0.3-0.7-0.5-1.1c0-0.1,0-0.2-0.2-0.2c-0.2,0.6-0.4,1.2-0.8,1.7l0.2,0.1c1.4,0.3,2.8,0.7,3.4,2.2L60,46.9z M12.7,49.1
		c0.1-0.2,0.1-0.6,0.2-0.8c0.3-1,0.9-1.9,1.7-2.7c0.1-0.1,0.2-0.1,0.1-0.2c-0.1-0.2-0.3-0.4-0.6-0.6c-0.1,0.6-0.2,1.1-0.6,1.6
		c-0.3,0.6-0.7,1.2-1.2,1.8c-0.1,0.1-0.2,0.2-0.1,0.3C12.3,48.5,12.5,48.8,12.7,49.1z M40.2,43.2C40.1,43.3,40.1,43.3,40.2,43.2
		c-0.2,0.7-0.3,1.3-0.6,1.9c-0.1,0.1,0,0.2,0.1,0.2c0.2,0.2,0.3,0.6,0.4,1c0.1-0.5,0.4-0.9,0.8-1.2C41,45.1,41,45.1,41,45
		C40.5,44.5,40.3,43.8,40.2,43.2z M71.8,46.1l-0.9,1.8c-0.1,0.1-0.1,0.2,0,0.2l0.7,0.4C71.6,47.7,71.8,46.9,71.8,46.1L71.8,46.1z
		 M67.8,48.1c0.2,0.6,0.3,1.2,0.4,1.9l0.6-1c0-0.1,0.1-0.1,0-0.2C68.4,48.6,68.1,48.4,67.8,48.1L67.8,48.1z M22.6,45.2
		c0.3-0.2,0.7-0.4,1-0.5c0.1-0.1,0.1-0.1,0.1-0.2c-0.2-0.3-0.2-0.6-0.4-1C23.1,44.2,22.9,44.7,22.6,45.2z M20.9,46.3l0.6,0.6
		c0.1-0.4,0.2-0.8,0.6-1.3L20.9,46.3z M49.4,47.3c-0.2,0-0.3,0-0.5,0s-0.2,0.1-0.2,0.2c0.1,0.4,0.1,0.7,0.2,1.2
		C49.1,48.2,49.2,47.8,49.4,47.3z M8,49.6L7.8,50c-0.2,0.4-0.2,0.4,0.1,0.7h0.1C7.9,50.4,8.4,50,8,49.6z"/>
	<path class="st1" d="M40.1,37.8c-0.2-0.6-0.2-1-0.4-1.6c-0.8-2.8-1.9-5.5-3.1-8.1c-0.4-0.9-1.2-1.4-2-1.8c-1.8-1-3.7-1.2-5.7-0.7
		c-0.6,0.2-1,0.5-1.5,0.9c-1.4,1.4-2.2,3.1-2.8,5c-0.6,1.8-1,3.7-1.2,5.6c0,0.1-0.1,0.2-0.1,0.4L23,36.2c-0.2-0.7-0.6-1.4-1-2
		c-1.4-1.5-3.1-2.8-5-3.6c-0.3-0.1-0.6-0.2-1-0.2c-0.5-0.1-0.8,0.1-1.1,0.5c-0.5,0.6-0.7,1.4-1,2.2c-0.3,1-0.6,2.2-0.7,3.3
		c0,0.1,0,0.2-0.1,0.2c0-0.1-0.1-0.1-0.1-0.1c-0.4-1.3-1.2-2.2-2.3-3.1C9.9,32.7,9,32,7.9,31.5c-0.4-0.2-0.9-0.3-1.4-0.2
		c-0.4,0-0.6,0.2-0.6,0.6c-0.2,0.6-0.2,1.4-0.2,2c0,0.7,0,1.2,0,1.8c-0.2-0.6-0.6-1-0.9-1.6c-0.1-0.2-0.2-0.6-0.6-0.6
		c-0.3,0-0.4,0.4-0.6,0.6S3.6,35,3.4,35.5c-0.2-0.2-0.2-0.4-0.4-0.6c-0.4-0.4-0.9-0.4-1.1,0.2c-0.2,0.4-0.2,0.8-0.2,1.2
		c0,0.1,0,0.2-0.1,0.4c-0.2-0.1-0.2-0.2-0.2-0.4c-0.6-1.2-0.8-2.5-0.9-3.7c-0.1-1.4,0.2-2.8,0.6-4.1c0.2-0.5,0.5-0.9,0.9-1.2
		c1-0.7,2.2-1.3,3.4-1.8c3.7-1.7,7.6-3.1,11.6-4.2c2.4-0.7,4.9-1.2,7.3-1.6c1.6-0.2,3.3-0.5,4.9-0.6c0.7-0.1,1.4-0.1,2.2-0.2
		c0.8-0.2,1.6-0.2,2.4-0.2c1,0,2-0.1,3-0.2c3-0.2,5.9-0.2,8.9-0.2c2,0.1,3.9,0.2,5.9,0.3c2.7,0.2,5.5,0.5,8.1,1c2.4,0.4,4.7,1,7,1.8
		c3,0.9,5.7,2,8.5,3.4c1,0.6,2,1.1,3,1.8c0.8,0.6,1.2,1.3,1.4,2.2c0.4,2,0.2,4.1-0.4,6.1c-0.1,0.4-0.4,0.8-0.7,1
		c-0.2,0.1-0.2,0.1-0.2-0.1c-0.1-0.2-0.2-0.5-0.2-0.7c-0.1-0.2-0.2-0.4-0.6-0.4c-0.3,0-0.4,0.2-0.5,0.4c-0.1,0.2-0.2,0.6-0.3,1
		c-0.1-0.9-0.1-1.7-0.2-2.5c-0.1-0.3-0.2-0.6-0.4-0.9c-0.3-0.6-0.8-0.6-1.2-0.1c-0.2,0.2-0.3,0.6-0.4,0.9c-0.2,0.8-0.4,1.6-0.6,2.4
		c0,0.1-0.1,0.2-0.1,0.4c-0.1-0.1-0.1-0.2-0.1-0.3c0-1.7,0.1-3.3-0.1-4.9c0-0.1,0-0.2-0.1-0.2c-0.2-0.9-0.5-1.1-1.4-0.9
		c-1,0.2-2,0.7-2.9,1.4c-0.9,0.6-1.8,1.3-2.6,2.2c-0.2-0.8-0.4-1.5-0.7-2.3c-0.2-0.5-0.4-1-0.7-1.4c-0.2-0.3-0.6-0.5-1-0.5
		c-1,0-1.9,0.2-2.8,0.7c-2,1.1-3.4,2.8-4.5,4.8c-0.2,0.6-0.4,1.2-0.5,1.8c0,0.1-0.1,0.2-0.1,0.3c-0.2-1.2-0.3-2.3-0.6-3.5
		c-0.4-1.9-0.9-3.8-2-5.5c-0.6-1-1.4-1.9-2.6-2.2c-1.4-0.3-2.7-0.2-4.1,0.1c-1.2,0.3-2.2,0.9-3.1,1.8c-0.2,0.2-0.3,0.4-0.4,0.6
		c-1.4,2.8-2.6,5.7-3.4,8.7C40.3,37.1,40.2,37.5,40.1,37.8z"/>
	<path class="st1" d="M48.9,52.1c0.4,1.3,0.7,2.5,1.1,3.7c0.3,0.7,0.6,1.5,1.2,2.2c0.6,0.7,1.4,1.2,2.4,1.2c0.6,0,1-0.2,1.4-0.6
		c0.8-0.6,1.4-1.3,1.8-2.1c0.6-0.9,1-1.7,1.4-2.6c0.1-0.1,0.1-0.2,0.2-0.4c0.1,0.4,0.1,0.8,0.2,1.2c0.5,2.3,2,3.7,4.1,4.6
		c1.4,0.6,3.1-0.2,3.9-1.4c0.4-0.6,0.6-1.1,0.9-1.8c0.6,1.4,1.8,1.8,3.1,1.8c1.4,0.1,2.5-0.6,3-1.8h0.1c0.6,0.9,1.5,0.8,2.3,0.6
		c0.5-0.1,0.7-0.5,0.8-1c0.1-0.4,0.1-0.8,0.2-1.2c0.3,0.5,0.6,0.9,0.7,1.4c0.4,1,0.6,2,0.4,3.1c-0.1,0.7-0.4,1-1.1,1.2
		c-2.2,0.4-4.3,0.7-6.5,1c-1.8,0.2-3.5,0.5-5.3,0.7c-2.5,0.2-5,0.6-7.6,0.8c-1.4,0.1-2.8,0.2-4.2,0.4c-1.4,0.1-2.7,0.2-4.1,0.2
		c-4.2,0.2-8.7,0.3-13.2,0.2c-2.8-0.1-5.5-0.2-8.2-0.4c-2.6-0.2-5.3-0.4-7.9-0.6c-3.2-0.3-6.4-0.7-9.5-1.1c-1.8-0.2-3.5-0.6-5.2-0.8
		c-0.7-0.1-1-0.4-1-1.2c-0.1-1,0.1-1.8,0.4-2.8c0.6,0.6,1.2,0.6,1.8,0.5c0.7-0.1,1.1-0.6,1.5-1.2c0.6,1,1.6,1.6,2.9,1.5
		c1.2-0.1,2.2-0.5,3-1.5c0.2,0.6,0.6,1,0.9,1.5c1,1.1,2.5,1.5,3.9,1c0.9-0.3,1.7-0.9,2.3-1.6c1-1,1.6-2.3,1.7-3.7
		c0-0.1,0-0.2,0.1-0.2c0.1,0.1,0.1,0.2,0.2,0.2c0.6,1.6,1.5,3,2.9,4.1c1.5,1.2,3.1,0.8,4.1-0.3c0.3-0.4,0.6-0.8,0.9-1.2
		c0.4-0.7,0.6-1.4,0.9-2.2c0.1,0.2,0.1,0.4,0.2,0.6c0.2,1,0.5,2,1,2.9c0.7,1,1.8,1.5,3,1.5c0.6,0.1,1.2-0.3,1.6-0.8
		c0.6-0.7,0.9-1.5,1.2-2.3c0.6-1.6,1.2-3.2,1.7-4.9l0.1-0.2c0.1,0.1,0.1,0.2,0.2,0.4c0.6,2.2,1.4,4.3,2.3,6.3
		c0.1,0.2,0.2,0.4,0.4,0.6c0.6,0.9,1.4,1.2,2.5,1c1.4-0.3,2.2-1.2,2.8-2.5c0.6-1.3,0.7-2.6,0.8-4.1C48.9,52.2,48.9,52.1,48.9,52.1z"
		/>
	<path class="st2" d="M33.1,47c-1.8-0.1-3.6-0.1-5.3-0.4c-0.6-0.1-1.3-0.2-1.8-0.6c-1.4-0.6-2.2-1.7-2.4-3.3c-0.2-1.2-0.1-2.5,0-3.7
		c0.2-2.4,0.6-4.7,1.2-7c0.5-1.6,1-3.1,2-4.5c0.9-1.2,2.2-1.9,3.7-1.9s3.1,0.3,4.5,1.2c0.6,0.4,1.2,1,1.5,1.7c1.2,2.6,2.3,5.3,3,8.1
		c0.6,1.9,0.6,3.8,0.4,5.8c-0.1,0.5-0.1,1-0.2,1.4c-0.4,1.8-1.4,2.6-3.1,3C35.4,47.1,34.3,47,33.1,47z"/>
	<path class="st2" d="M48.3,47c-1.7,0-3.1-0.1-4.5-0.4c-1.6-0.4-2.8-1.3-3.2-2.9c-0.2-0.7-0.2-1.5-0.3-2.3c-0.2-2.8,0.5-5.4,1.4-8
		c0.6-1.7,1.4-3.4,2.2-5.1c0.4-0.9,1.2-1.5,2.1-1.9c1.5-0.7,3.1-1,4.9-0.7c1,0.2,1.8,0.8,2.4,1.6c0.9,1.2,1.4,2.6,1.8,4.1
		c0.6,2.1,0.9,4.1,1,6.3c0.1,1.3,0.2,2.6,0.2,3.8c0,0.7-0.1,1.4-0.2,2.2c-0.5,1.6-1.7,2.4-3.2,2.8C51.3,46.9,49.7,47,48.3,47z"/>
	<path class="st2" d="M56.6,40.4c-0.2-1.2,0-2.3,0.2-3.6c0.2-1.4,0.7-2.6,1.6-3.7c1-1.4,2.3-2.5,3.8-3.1c0.6-0.2,1-0.3,1.7-0.4
		c0.6-0.1,0.9,0.1,1.2,0.6c0.3,0.6,0.6,1.2,0.8,1.9c0.7,2.5,1.2,5,1.1,7.6c0,0.9-0.1,1.8-0.3,2.6c-0.4,1.4-1.2,2.6-2.3,3.4
		c-0.2,0.2-0.4,0.3-0.6,0.5c-0.9,0.7-1.9,0.9-3,0.6c-1-0.2-1.8-0.7-2.7-1.3c-0.5-0.2-0.7-0.7-0.9-1.2c-0.3-0.9-0.5-1.7-0.5-2.6
		C56.6,41.2,56.6,40.8,56.6,40.4z"/>
	<path class="st2" d="M23.1,40.5c0,0.6,0,1.3,0,1.9c-0.1,1.4-0.4,2.6-1.8,3.4c-0.9,0.5-1.8,1-2.9,1.1c-0.7,0.1-1.5-0.1-2.1-0.5
		c-1.4-1-2.5-2.2-2.8-4c-0.2-1-0.2-2.2-0.2-3.3c0.1-2,0.4-3.9,1-5.8c0.2-0.6,0.4-1.3,0.7-1.8c0.4-0.7,0.6-0.8,1.4-0.6
		c0.6,0.2,1.1,0.4,1.6,0.7c1,0.6,2,1.4,3,2.2c1.2,1,1.8,2.3,2,3.9C23.1,38.6,23.2,39.5,23.1,40.5z"/>
	<path class="st2" d="M13,38c-0.1,1.2-0.2,2.5,0,3.7c0.1,0.8,0.3,1.6,0.7,2.3c0.1,0.2,0.1,0.3,0.1,0.5c-0.2,0.9-0.4,1.7-1,2.3
		c-0.7,1-1.4,2-2.3,2.8c-0.2,0.2-0.6,0.5-1,0.6c-0.5,0.2-0.8,0.1-1-0.4c-1-1.8-1.9-3.8-2.2-6c-0.2-1.7-0.2-3.4-0.2-5.1
		c0-1.8-0.1-3.7,0-5.5c0-0.4,0.1-0.8,0.1-1.2c0.1-0.2,0.2-0.4,0.5-0.4c0.6,0,1,0.2,1.4,0.4c1.4,0.7,2.6,1.7,3.6,2.9
		c0.6,0.7,0.9,1.7,1.2,2.6C13.1,37.7,13,37.8,13,38z"/>
	<path class="st2" d="M49.1,50c0-0.9,0.2-1.7,0.5-2.5c0.1-0.2,0.2-0.2,0.4-0.3c1.1-0.1,2.2-0.2,3.3-0.6c0.7-0.2,1.4-0.6,1.8-1
		c0.1-0.1,0.2-0.2,0.2-0.1c0.8,0.2,1.7,0.4,2.3,0.8c0.7,0.4,1.2,1.2,1.1,2.1c-0.3,2.6-0.7,5.1-2.1,7.3c-0.6,0.9-1.1,1.7-1.8,2.3
		c-1.3,1-2.5,0.6-3.4-0.2c-0.6-0.7-1-1.5-1.4-2.5c-0.5-1.4-1-3-1.2-4.5C49.2,50.7,49.2,50.4,49.1,50z"/>
	<path class="st2" d="M73.3,34.9c-0.1,2.2-0.2,4.6-0.6,6.9c-0.4,2-1.1,3.9-2,5.7c-0.1,0.2-0.2,0.4-0.3,0.6c-0.2,0.5-0.6,0.6-1.2,0.4
		s-1-0.6-1.4-1.1c-0.7-0.7-1.4-1.6-1.8-2.5c-0.1-0.1-0.1-0.2,0-0.4c0.9-1.1,1.3-2.5,1.4-3.8c0.2-2.3,0-4.5-0.5-6.8
		c-0.1-0.2-0.1-0.3,0.1-0.4c1.5-1.6,3.2-2.8,5.3-3.4h0.1c0.6-0.1,0.7,0,0.8,0.6C73.3,32.1,73.3,33.5,73.3,34.9z"/>
	<path class="st2" d="M67.9,51.3c0,1.8-0.3,3.6-1,5.3c-0.4,1-1,1.9-2.2,2.3c-1.1,0.4-2.2,0.2-3.3-0.6c-1.3-0.9-2.2-2-2.6-3.6
		c-0.2-1.2-0.2-2.5,0.1-3.7c0.2-0.9,0.4-1.8,0.4-2.7c0-0.3,0.3-0.6,0.5-0.8c0.2-0.2,0.5-0.4,0.9-0.2c1.2,0.4,2.3,0.2,3.3-0.6
		c0.3-0.2,0.6-0.5,0.9-0.7c0.2-0.2,0.2-0.1,0.4,0c1.4,0.9,2.2,2.2,2.5,3.8C67.9,50.1,67.9,50.7,67.9,51.3z"/>
	<path class="st2" d="M12.9,50.8c0-1.1,0.1-2.4,0.7-3.5c0.3-0.6,0.7-1,1.1-1.5c0.1-0.1,0.2-0.2,0.4,0c0.3,0.3,0.7,0.6,1,0.9
		c0.9,0.7,2,0.7,3,0.4c0.4-0.1,0.8-0.2,1.2-0.4c0.2-0.1,0.2-0.1,0.4,0.1c0.2,0.2,0.5,0.6,0.7,0.8c0.1,0.1,0.1,0.2,0.1,0.3
		c0,1.3,0.3,2.6,0.6,3.8c0.1,0.6,0,1-0.1,1.5c-0.1,2.3-1.4,3.9-3.4,5c-1.2,0.6-3.1,0.4-4.1-0.9c-0.6-0.9-0.9-1.8-1.2-2.8
		C13.1,53.2,13,52.1,12.9,50.8z"/>
	<path class="st2" d="M21.8,47.8c0-1.5,0.6-2.3,1.8-2.8c0.1-0.1,0.2-0.1,0.3,0.1c0.8,1,2,1.5,3.3,1.8c1.3,0.2,2.5,0.4,3.7,0.4
		c0.2,0,0.3,0.1,0.2,0.3c-0.2,1.5-0.3,3.1-0.2,4.7c0,0.2,0,0.4-0.1,0.6c-0.3,1.1-0.7,2.2-1.3,3.2c-0.4,0.7-1,1.3-1.8,1.5
		c-0.7,0.2-1.3,0-1.8-0.4c-1-0.7-1.8-1.7-2.4-2.6c-0.9-1.4-1.2-3-1.4-4.5C22,49.3,21.8,48.5,21.8,47.8z"/>
	<path class="st2" d="M48.6,51.6c-0.1,1.4-0.2,3-0.8,4.5c-0.6,1.4-1.4,2.2-3,2.3c-0.6,0.1-1.2-0.2-1.6-0.6s-0.8-1.2-1-1.8
		c-0.8-2-1.6-3.9-2-6c-0.2-1.4-0.2-2.6,0.2-3.9c0.1-0.2,0.1-0.2,0.2-0.4c0.3-0.4,0.4-0.4,0.8-0.1c0.8,0.8,1.8,1.1,2.9,1.4
		c1.2,0.2,2.5,0.3,3.7,0.2c0.2,0,0.4,0.1,0.4,0.3C48.6,48.9,48.7,50.4,48.6,51.6z"/>
	<path class="st2" d="M39.4,45.6c0.3,0.5,0.4,1,0.4,1.5c0.1,1.3,0.1,2.6-0.2,3.8c-0.6,1.9-1.2,3.8-2.1,5.7c-0.2,0.3-0.3,0.6-0.6,0.9
		c-0.6,0.9-1.2,1.1-2.3,0.9C33.1,58,32.4,57,32,55.7c-0.4-1.1-0.6-2.2-0.6-3.4c-0.1-1.5-0.1-3.1,0.2-4.6c0.1-0.2,0.1-0.2,0.2-0.2
		c1,0,1.8,0,2.8,0c0.6,0,1.2-0.1,1.8-0.2C37.7,47,38.7,46.5,39.4,45.6z"/>
	<path class="st2" d="M73.5,54.2c0,0.4-0.1,0.9-0.2,1.4c-0.4,1.5-1.5,2.2-3.1,2c-0.7-0.1-1.4-0.3-1.8-0.7c-0.6-0.5-0.9-1-0.6-1.8
		c0.3-1.2,0.6-2.5,0.5-3.8c0-0.2,0-0.3,0.1-0.5l0.6-1.2c0.1-0.2,0.2-0.4,0.6-0.4c0.4,0.1,0.9-0.2,1-0.6c0.1-0.2,0.2-0.2,0.4-0.1
		c0.6,0.3,0.9,0.8,1.2,1.4C73,51.1,73.5,52.6,73.5,54.2z"/>
	<path class="st2" d="M76.1,36.2c-0.1,2.7-0.5,5.3-1,8.1c-0.2,1.1-0.4,2.2-0.9,3.2c-0.2,0.4-0.4,0.8-0.7,1.1
		C73,49.1,72.4,49,72,48.5c-0.1-0.2-0.1-0.3-0.1-0.5c0-0.8,0.2-1.7,0.2-2.5c0.2-1.5,0.7-3,0.9-4.5c0.2-2.5,0.9-4.8,1.4-7.2
		c0.1-0.4,0.2-0.7,0.4-1c0.2-0.3,0.4-0.2,0.6,0c0.3,0.5,0.4,1,0.5,1.5C76.1,35,76.1,35.6,76.1,36.2z"/>
	<path class="st2" d="M11.9,48.5c0.4,0.6,0.6,1.2,0.6,2c-0.1,1.7,0.2,3.2,0.7,4.7c0.1,0.2,0.1,0.4-0.1,0.6c-0.1,0.2-0.2,0.4-0.4,0.5
		c-0.9,0.7-1.9,1-3,0.9C8.7,57,7.9,56,7.7,54.8c-0.2-1.5,0.1-3,0.6-4.3c0.1-0.1,0.1-0.2,0.2-0.1c0.5,0.3,1,0.2,1.4,0
		c0.7-0.4,1.2-1,1.8-1.5L11.9,48.5z"/>
	<path class="st2" d="M4.4,33.7c0.6,1,1.2,2,1.4,3.1c0,0.1,0.1,0.2,0,0.4c0,1.4,0.1,2.6,0.1,3.9c-0.1,2.6,0.5,5.2,1.8,7.6
		c0.3,0.6,0.2,0.9-0.3,1.4C7.2,50.2,7,50.1,6.8,50c-0.3-0.2-0.6-0.6-0.7-1c-1.4-2.7-2.3-5.6-2.6-8.6c-0.2-1.8-0.1-3.6,0.3-5.4
		C4,34.5,4.1,34.1,4.4,33.7z"/>
	<path class="st2" d="M78,39.5c-0.1,2.4-0.3,4.7-1,7c-0.2,0.5-0.4,1-0.7,1.4c-0.2,0.2-0.3,0.4-0.6,0.5C75.3,48.5,75,48.4,75,48
		c0-1.3,0.3-2.5,0.6-3.7c0.4-1.9,0.6-3.8,0.8-5.7c0.1-1.1,0.4-2.2,0.7-3.3c0.1-0.1,0.1-0.2,0.2-0.2s0.2,0.2,0.2,0.2
		c0.2,0.6,0.4,1.4,0.4,2C78,38,78,38.7,78,39.5z"/>
	<path class="st2" d="M76.5,54.4c0,0.6,0,1-0.1,1.5c-0.1,0.5-0.3,0.6-0.8,0.6c-0.2,0-0.6,0-0.9,0c-0.6-0.1-1-0.6-1-1.2
		c0.2-1.4,0-2.6-0.4-3.8c-0.1-0.2-0.1-0.4,0.1-0.5c0.2-0.4,0.5-0.7,0.9-1c0.5-0.3,0.9-0.2,1.2,0.1c0.6,0.6,0.7,1.2,0.9,1.8
		C76.5,52.8,76.5,53.6,76.5,54.4z"/>
	<path class="st2" d="M4.5,55.4c0.1-1.2,0.2-2.4,0.6-3.6c0.2-0.4,0.4-0.9,0.7-1.2c0.5-0.5,1-0.5,1.5-0.1l0.2,0.2
		c0.2,0.2,0.2,0.4,0.2,0.7c-0.4,1.4-0.5,2.6-0.1,4c0,0.1,0,0.1,0,0.2c-0.2,0.4-0.5,0.9-0.9,1c-0.6,0.5-1.3,0.4-1.8,0.2
		c-0.2-0.1-0.3-0.4-0.4-0.6C4.5,55.9,4.5,55.6,4.5,55.4z"/>
	<path class="st2" d="M2,37.8C2,37,1.9,36.2,2,35.5c0.1-0.2,0.1-0.6,0.4-0.6s0.3,0.2,0.5,0.4c0.5,0.6,0.4,1.1,0.3,1.8
		C2.9,40.7,3.5,44.2,5,47.6c0.2,0.5,0.4,0.9,0.2,1.4c-0.2,0.4-0.3,0.5-0.6,0.2c-0.5-0.5-0.8-1.1-1-1.8c-0.6-1.7-1-3.4-1.2-5.1
		C2.2,40.7,2,39.2,2,37.8z"/>
	<path class="st2" d="M60,46.9l-0.6,0.6c-0.6-1.5-2.1-1.8-3.4-2.2l-0.2-0.1c0.4-0.6,0.6-1.1,0.8-1.7c0.2,0.1,0.2,0.2,0.2,0.2
		c0.1,0.4,0.2,0.7,0.5,1.1c0.2,0.4,0.6,0.8,1,1C58.7,46.2,59.3,46.5,60,46.9z"/>
	<path class="st2" d="M12.7,49.1c-0.2-0.2-0.2-0.5-0.4-0.7c-0.2-0.2,0-0.2,0.1-0.3c0.4-0.6,0.9-1.1,1.2-1.8c0.2-0.5,0.4-1,0.6-1.6
		c0.2,0.2,0.4,0.4,0.6,0.6c0.2,0.2,0,0.2-0.1,0.2c-0.7,0.8-1.4,1.7-1.7,2.7C12.8,48.5,12.7,48.8,12.7,49.1z"/>
	<path class="st2" d="M40.2,43.2c0.2,0.6,0.3,1.2,0.7,1.8c0.1,0.1,0.1,0.1-0.1,0.2c-0.4,0.2-0.7,0.7-0.8,1.2c-0.1-0.4-0.2-0.7-0.4-1
		c-0.1-0.1-0.1-0.2-0.1-0.2c0.2-0.6,0.4-1.2,0.5-1.8C40.1,43.3,40.2,43.3,40.2,43.2z"/>
	<path class="st2" d="M71.8,46.1c-0.1,0.8-0.2,1.6-0.2,2.5l-0.7-0.4c-0.1-0.1-0.1-0.1,0-0.2L71.8,46.1z"/>
	<path class="st2" d="M67.8,48.1c0.3,0.2,0.6,0.5,1,0.7c0.1,0.1,0,0.1,0,0.2l-0.6,1C68.1,49.4,68,48.8,67.8,48.1z"/>
	<path class="st2" d="M22.6,45.2c0.4-0.5,0.6-1,0.7-1.6c0.2,0.3,0.2,0.6,0.4,1c0.1,0.1,0,0.1-0.1,0.2C23.3,44.9,22.9,45,22.6,45.2z"
		/>
	<path class="st2" d="M20.9,46.3l1.2-0.6c-0.2,0.4-0.5,0.9-0.6,1.3L20.9,46.3z"/>
	<path class="st2" d="M49.4,47.3c-0.2,0.4-0.3,0.9-0.5,1.4c-0.1-0.5-0.1-0.9-0.2-1.2c-0.1-0.2,0-0.2,0.2-0.2
		C49.1,47.3,49.2,47.3,49.4,47.3z"/>
	<path class="st2" d="M8,49.6c0.4,0.4-0.2,0.7-0.2,1.1c-0.1,0-0.1,0-0.1,0c-0.3-0.3-0.3-0.3-0.1-0.7L8,49.6z"/>
</g>
</svg>
