<?xml version="1.0" encoding="utf-8"?>
<!-- Generator: Adobe Illustrator 21.0.2, SVG Export Plug-In . SVG Version: 6.00 Build 0)  -->
<svg version="1.1" id="Layer_1" xmlns="http://www.w3.org/2000/svg" xmlns:xlink="http://www.w3.org/1999/xlink" x="0px" y="0px"
	 viewBox="0 0 150 150.5" style="enable-background:new 0 0 150 150.5;" xml:space="preserve">
<style type="text/css">
	.st0{fill:#0B0806;}
	.st1{fill:#4D2C2B;}
	.st2{fill:#723D3D;}
	.st3{fill:#F6F6F6;}
</style>
<title>Artboard 1</title>
<g>
	<path class="st0" d="M128.8,135.3c-0.1-0.1-0.1-0.2-0.1-0.2c-8.7-1.8-16.4-5.7-23.5-10.9c-2.5-1.9-5.3-0.9-7.8,0.2
		c-4.6,2.1-9,4.8-13.8,6.6c-3.3,1.3-6.8,2.1-10.3,2.2c-3.8,0-7.4-1.1-10.5-3.2c-10.3-6.9-21.2-8.3-32.6-2.8
		c-1.9,0.9-3.9,1.9-5.8,2.7c-3.1,1.2-6.1,1.6-8.9-0.8c-2.8-2.4-5-5.7-4-9.8c0.9-4.1,2.7-9.4,3.9-14.1c0.9-3.6,1-7.4,0.4-11.1
		c-0.2-1.7-0.7-3.4-1.9-4.5c-4-3.8-4.2-8.6-3.1-13.4c0.7-3.2,0.5-5.6-1.7-8.3C4.9,62.5,2.2,56.5,0,50.2v-9.5c1-0.6,0.8-1.7,1.1-2.5
		c3.1-8.5,7.3-15.9,16-19.9h4.7C36,26.2,41.1,41.9,34.4,56.8c-0.9,2.1-2.1,4.3-3.1,6.3c-1.1,2.1-2.8,4.3-0.5,6.8
		c0.9,1,0.2,2.5-0.2,3.7c-0.5,1.2-1.4,3-2.1,4.5c-1.2,2.8-0.9,5.4,1.2,7.6l1.9,1.9c5,4.5,5,4.8,1.8,10.6c-0.7,1.3-1.3,2.6-1.8,4
		c-1.2,3.5,0.3,5.4,4,5c2-0.2,3.9-0.6,5.7-1.2c12-4.7,23.2-3,33.4,4.5c5.8,4.3,11.3,5,17.5,0.8c3.3-2.3,7.3-3.4,11.2-4.4
		c5.9-1.5,10.8,0.1,15.1,4.2c2.5,2.4,4.7,5,7.6,6.9c2,1.4,4.5,2,7,1.5c3.2-0.7,6.5-0.7,9.7-0.2c3,0.5,5.6,1.7,7.3,4.3v2.4
		c-0.9,1.6-2.1,3-3.7,4.1c-3.2,2.3-6.6,4.4-10.5,5.4h-7.1V135.3z M67.9,121.7c0-2,1.5-3.5,1.9-5.3c1.4-5.3,0.9-6.3-4.1-8.4
		c-1.4-0.6-3-1-4.4-1.5c-1.5-0.5-3-0.5-2.8,2c0.3,3.1-0.5,6.3-2.3,8.9c-0.4,0.6-0.5,2.1-1.9,1.4c2.2-3.1,3.4-6.9,3.5-10.7
		c0.1-2-0.8-2.6-2.5-2.7c-3,0-6,0.4-9,1.1c-1.4,0.4-2.1,1-1.9,2.7c0.3,1.6,0.1,3.2-0.6,4.7c-0.2-0.9-0.2-1.9-0.1-2.8
		c0.1-3.5,0.1-3.4-3.1-2.7c-3.2,0.8-7,2-10.5-0.5c-0.2-0.1-0.7,0.2-1.1,0.3l-0.4-0.5c0.4-4.1,0.9-8.2,3.5-11.5s1.2-4.3-0.9-6.2
		c-2.2-1.9-4-2.1-4.7-4.8c-0.7-2.7-1.1-4.7-0.4-7.1c0.7-2.4,0.6-4.6,2.4-6.4c0.4-0.4,0.4-1,0.1-1.4l-0.1-0.1
		c-2.4-2.2-0.9-4.4,0.1-6.4c2.1-4.2,4.4-8.3,5.8-12.8c3-9.5-1.8-23.2-10.1-28.8c-2.4-1.5-5-2.2-7.7-0.8C8.1,24.9-1.6,41,3.9,54
		c1.8,4.3,4,8.5,6.4,12.6c1.7,2.9,3.7,5.8,3,9.5c-1.6,4.5-1.2,8.6,2.7,11.9c0.8,1.5,2,3,2.2,4.5c0.4,4.1,0.7,8.2-0.4,12.2
		c-0.6,2.1-0.5,4.2-0.6,6.3c-0.4-0.5-0.9-0.6-1.1,0.1c-0.9,3.1-2.4,6-2.5,9.3c-0.1,5.9,4.9,9.4,10.3,7.1c3.2-1.4,6.4-3,9.6-4.3
		c1.8-0.8,3.6-1.9,5.4-1.9c5.1,0.2,10.1,1.2,14.9-1.5c-0.1,1.2-1.7,1.2-1.8,2.6c4.5,0.9,8.7,4.3,13.6,1.5c-0.5,1.6-2.4,1.4-3.3,2.4
		c5.4,6,12.1,4.6,18.7,3.1c3.4-0.8,6.4-2.5,9.4-4.1c4.5-2.1,7-6.9,6.4-11.8c-0.2-1.8-0.8-2.3-2.5-1.3c-2.7,1.5-5.4,3.5-8.5,3.8
		c-3.1,0.2-3.2,1.2-3.2,3.7s-0.4,5.3-2.8,6.9c1.5-2.7,2.1-5.7,1.9-8.7c-0.1-0.8,0.1-1.7-0.8-2.1c-3.2-1.1-5.8-3.4-9-4.9
		C70.5,118.6,70.2,119.4,67.9,121.7z M138,126.1l-0.5-0.4c0.2-4.5,0.2-4.5-4.4-4c-1.3,0.2-2.5,0.2-3.8-0.1c-1.5-0.5-2.6-0.4-3.8,1
		c0.2-1.9-6.7-9-10.4-11.2c-0.8,1.1,0.3,2.9-1.1,3.8c-0.5-0.3-0.6-0.9-0.5-1.4c0.8-3.5,0.5-4.1-2.8-5c-4.4-1.2-8.3,0.5-12.3,1.8
		c-1.2,0.4-1,1.3-0.9,2.2c0.4,3.3-0.2,6.6-1.7,9.6c0.5,0,0.9,0,1.4-0.1c4.1-1.2,8-2.4,11.7,1.5c2.7,2.8,6.3,4.4,9.9,6
		c5.4,2.6,11.4,3.7,17.4,3.2c3-0.2,5.4-2.2,7.8-3.9c2.4-1.7,4.2-1.9,3.7-4.4s-3.4-2.8-5.5-3.2c-3.5-0.7-3.7-0.4-3.9,3.1
		C138.2,124.9,138.1,125.5,138,126.1L138,126.1z"/>
	<path class="st1" d="M53.8,119.9c-4.7,2.7-9.8,1.7-14.9,1.5c-1.8-0.1-3.7,1.1-5.4,1.9c-3.2,1.4-6.4,3-9.6,4.3
		c-5.4,2.2-10.3-1.2-10.3-7.1c0.1-3.3,1.6-6.3,2.5-9.3c0.2-0.6,0.7-0.5,1.1-0.1c0.1,1.2-0.2,2.4-0.7,3.4c-1.1,2.9-1.4,6-0.7,9
		c0.4-6.3,4.2-11.6,4.8-17.9c0.4-4.7,2.2-9.3,0.8-14.2c-0.6-1.9-1.7-3.8-1.9-5.8c-0.8-8.9-3.7-17-9.3-24c-0.7-0.9-0.7-2-0.6-3.1
		c2.8,2.7,5.8,4.6,10,3.5c4.1-1.1,6.9-2.4,9.4-5.1c2.5-2.7,4.3-5.1,4.3-8.7c0-0.9,0.1-1.8-0.9-2.3s-1.7,0.2-2.4,0.8l-2.5,2.1
		c-6.1,4.7-11,4.8-17.5,0.4v-1.7c2,1.6,4.3,2.3,6.3,0.4c2-1.9,1.9-0.8,3.1,0s4.3,1.2,6-0.8c3.2-3.4,3.2-11.2,0.1-14.7
		c-1.2-1.4-3-2-4.7-1.7c-0.1-3.6-1-6.9-4.2-9.2c2.8-1.4,5.3-0.7,7.7,0.9c8.3,5.6,13.1,19.3,10.1,28.8c-1.4,4.5-3.7,8.6-5.8,12.8
		c-1.1,2.1-2.4,4.3-0.1,6.4c0.4,0.3,0.5,1,0.2,1.4l-0.1,0.1c-1.8,1.8-1.7,4.3-2.4,6.4c-0.7,2.1-0.3,4.7,0.4,7.1
		c0.6,2.5,3.1,3.3,4.7,4.8c1.6,1.5,3,3.6,0.9,6.2c-2,2.6-3.1,7.4-3.5,11.5l-1.5,1.3c1.1,0.4,1.5-0.4,1.8-0.9
		c0.4-0.5,0.9-0.4,1.1-0.3c3.4,2.5,7,1.3,10.5,0.5s3.3-0.8,3.1,2.7c-0.1,0.9-0.1,1.9,0.1,2.8c0.7-1.4,1-3.1,0.6-4.7
		c-0.2-1.7,0.5-2.3,1.9-2.7c2.9-0.7,6-1.1,9-1.1c1.8,0,2.6,0.6,2.5,2.7c-0.1,3.8-1.3,7.5-3.4,10.7l0,0
		C53.9,119,53.2,119.2,53.8,119.9L53.8,119.9z"/>
	<path class="st1" d="M138,126.1c0.1-0.6,0.2-1.1,0.3-1.7c0.2-3.5,0.4-3.8,3.9-3.1c2.1,0.4,4.9,0.6,5.5,3.2s-2.1,3.3-3.7,4.4
		c-1.6,1.1-4.8,3.7-7.8,3.9c-6,0.5-12-0.6-17.4-3.2c-3.5-1.6-7.2-3.2-9.9-6c-3.7-4-7.6-2.8-11.7-1.5c-0.5,0.1-0.9,0.1-1.4,0.1
		c1.5-3,2.1-6.3,1.7-9.6c-0.1-0.9-0.2-1.8,0.9-2.2c4-1.3,7.9-3,12.3-1.8c3.4,0.9,3.7,1.5,2.8,5c-0.2,0.5,0,1.1,0.5,1.4
		c1.4-0.9,0.3-2.7,1.1-3.8c3.7,2.2,10.5,9.2,10.4,11.2c1.2-1.4,2.4-1.5,3.8-1c1.2,0.3,2.5,0.3,3.8,0.1c4.7-0.5,4.7-0.5,4.4,4
		c-0.4,0.5-0.8,1.3-0.2,1.6C138,127.6,137.8,126.5,138,126.1z"/>
	<path class="st2" d="M16.5,21.3c3.2,2.2,4.1,5.5,4.3,9.2c-0.8,0.4-1.5,0.9-2.2,1.5c-0.6,0.6-1,0.8-1.9,0.1
		c-3.6-2.5-6.4-1.7-8.2,2.4S7.2,43.2,10,47.2v1.7c-2-0.7-3.6-2.4-6.2-2.7L5,50.1c0.9,3,2.8,5.6,4.4,8.2c-0.1,1.1-0.1,2.2,0.6,3.1
		c5.6,7,8.5,15.1,9.3,24c0.2,2.1,1.2,3.9,1.9,5.8c1.5,4.8-0.3,9.5-0.8,14.2c-0.6,6.3-4.4,11.6-4.8,17.9c-0.6-3-0.4-6.1,0.8-9
		c0.5-1.1,0.7-2.2,0.6-3.4c0.2-2.1,0.1-4.2,0.6-6.3c1.1-4,0.8-8.2,0.4-12.2c-0.2-1.6-1.4-3-2.2-4.5c-0.6-3.7-2.2-7.2-1.8-11
		c0.4-0.2,0.5-0.5,0.1-0.8c-0.4-0.3-0.7-0.6-1.1,0l0,0c0.6-3.7-1.2-6.6-3-9.5C7.6,62.5,5.5,58.3,3.7,54C-1.6,41,8.1,24.9,16.5,21.3z
		"/>
	<path class="st1" d="M67.9,121.7c2.3-2.2,2.6-3.1,3.7-10.6c3.1,1.4,5.8,3.8,9,4.9c0.9,0.3,0.8,1.2,0.8,2.1c0.2,3-0.4,6.1-1.9,8.7
		c2.4-1.7,2.8-4.4,2.8-6.9s0.4-3.5,3.2-3.7c2.9-0.2,5.8-2.2,8.5-3.8c1.8-1,2.4-0.5,2.5,1.3c0.7,4.9-1.9,9.6-6.4,11.8
		c-3.1,1.5-6.1,3.3-9.4,4.1c-6.6,1.5-13.2,2.8-18.7-3.1c0.9-1,2.8-0.8,3.3-2.4l0,0c0.8,0.1,0.9-0.5,1.1-1.1l0.2-0.2
		C67.5,122.6,68.1,122.5,67.9,121.7L67.9,121.7z"/>
	<path class="st1" d="M54.4,118.7c1.4,0.6,1.5-0.8,1.9-1.4c1.8-2.6,2.6-5.8,2.3-8.9c-0.2-2.5,0.8-2.8,2.8-2s3,0.9,4.4,1.5
		c5,2.1,5.4,3.1,4.1,8.4c-0.5,1.9-1.9,3.4-1.9,5.3l0,0c-1.1-0.4-1,0.5-1.1,1.1l-0.2,0.2c-0.5,0.2-1.5,0-1.1,1.1h0.1
		c-5,2.8-9.2-0.6-13.6-1.5c0.2-1.4,1.8-1.4,1.8-2.6h-0.1C54.4,119.8,55,119.6,54.4,118.7z"/>
	<path class="st1" d="M14.2,77c-0.4,3.8,1.1,7.4,1.8,11c-3.9-3.3-4.3-7.4-2.7-11.9l0,0L14.2,77z"/>
	<path class="st0" d="M9.5,58.4C7.8,55.7,6,53.2,5,50.1l-1.2-3.9c2.5,0.2,4.2,1.9,6.2,2.7c6.5,4.4,11.3,4.3,17.5-0.4l2.5-2.1
		c0.7-0.5,1.4-1.2,2.4-0.8c1,0.5,0.9,1.4,0.9,2.3c-0.2,3.6-2.1,6.3-4.4,8.8c-2.4,2.5-5.8,4.2-9.4,5.1C15.8,62.9,12.2,61.1,9.5,58.4z
		 M6.7,48.8l-0.6-0.2v0.7c1.1,3.5,3,6.6,5.6,9.2c1.8,2,4.6,2.9,7.3,2.2c4.7-1.1,8.6-3.4,11.2-7.5c1.1-1.8,2.2-3.7,1.7-6.3l-4.2,3.3
		C22.4,54,17,54.6,11.3,51.3L6.7,48.8z"/>
	<path class="st0" d="M10,47.2c-2.8-4-3.2-8.3-1.4-12.8s4.5-4.9,8.2-2.4c0.9,0.6,1.2,0.5,1.9-0.1c0.7-0.6,1.4-1,2.2-1.5
		c1.8-0.3,3.6,0.3,4.7,1.7c3.2,3.5,3.1,11.3-0.1,14.7c-1.8,1.9-4,2.2-6,0.8s-1.8-1.2-3.1,0C15.2,48.8,12.1,48.8,10,47.2z M26.6,39.5
		c0.1-2.3-0.4-4.5-1.9-6.3c-1.5-1.8-3.8-2-5.4,0c-2.5,3.1-2.5,9.6,0.1,12.6c1.7,2,3.7,2.1,5.4,0C26.2,44,26.8,41.8,26.6,39.5z
		 M8.9,39.1c0,3,0.6,5.3,2.2,7.1c1.6,1.8,2.5,1.7,3.9,0.8s2.5-1.7,1.7-3.8c-0.9-2.3-0.9-4.9-0.1-7.2c0.6-1.9-0.1-3-1.6-3.8
		c-1.5-0.8-3.1-0.2-4.1,1.1C9.5,35,8.9,37,8.9,39.1z"/>
	<path class="st0" d="M29,108.2c-0.4,0.5-0.7,1.2-1.8,0.9l1.4-1.3L29,108.2z"/>
	<path class="st0" d="M54.4,118.7c0.6,0.8,0.1,1.1-0.6,1.2C53.2,119.2,53.9,119,54.4,118.7z"/>
	<path class="st0" d="M138,126.1c-0.2,0.4-0.2,1.4-0.7,1.2c-0.5-0.2-0.2-1.1,0.2-1.6L138,126.1z"/>
	<path class="st0" d="M14.2,77l-0.9-0.8c0.4-0.6,0.8-0.2,1.1,0C14.7,76.4,14.6,76.8,14.2,77z"/>
	<path class="st0" d="M66.8,122.8c0.1-0.6,0.1-1.5,1.1-1.1C68.1,122.5,67.5,122.7,66.8,122.8z"/>
	<path class="st0" d="M65.6,124.1c-0.4-1.1,0.5-0.9,1.1-1.1C67.2,122.8,66.4,124.2,65.6,124.1z"/>
	<path class="st3" d="M6.7,48.8l4.6,2.5c5.7,3.2,11,2.7,16.2-1.1l4.3-3.3c0.6,2.7-0.5,4.5-1.7,6.3c-2.6,4.1-6.4,6.4-11.2,7.5
		c-2.6,0.7-5.4-0.2-7.3-2.2c-2.5-2.6-4.4-5.8-5.6-9.2L6.7,48.8z"/>
	<path class="st3" d="M6.1,49.3v-0.7l0.6,0.2L6.1,49.3z"/>
	<path class="st3" d="M26.6,39.5c0.2,2.3-0.5,4.5-1.9,6.3c-1.7,2.1-3.7,2-5.4,0c-2.6-3.1-2.6-9.5-0.1-12.6c1.7-2,3.8-2,5.4,0
		S26.7,37.1,26.6,39.5z M19.9,41.9c0.4,1.5-0.5,4.1,2,4.1c2.5-0.1,1.7-2.5,1.7-4.1c0-1.6,0.2-4.2-1.9-4.1
		C19.5,37.8,20.2,40.2,19.9,41.9z"/>
	<path class="st3" d="M8.9,39.1c0-2.1,0.7-4.1,1.9-5.7c1.1-1.4,2.4-2,4.1-1.1c1.7,0.9,2.3,1.9,1.6,3.8c-0.8,2.3-0.8,4.9,0.1,7.2
		c0.8,2.1-0.4,3-1.7,3.8c-1.2,0.8-2.8,0.4-3.9-0.8C10,45,8.9,42.1,8.9,39.1z M15.4,41.9c-0.7-1.4,0.3-4.1-2.2-4
		c-2.5,0.1-1.7,2.5-1.7,4.1c-0.1,1.5-0.1,4.3,1.8,4.3S14.9,43.6,15.4,41.9z"/>
	<path class="st0" d="M19.9,41.9c0.3-1.6-0.2-4.1,1.8-4.1c2-0.1,1.9,2.5,1.9,4.1c0,1.7,0.2,4-1.7,4S20.3,43.3,19.9,41.9z"/>
	<path class="st0" d="M15.4,41.9c-0.4,1.7,0,4.4-2,4.4c-2-0.1-1.9-2.6-1.8-4.3c0.1-1.7-0.3-4,1.7-4.1C15.2,37.9,14.7,40.5,15.4,41.9
		z"/>
</g>
</svg>
