<svg id="Layer_1" data-name="Layer 1" xmlns="http://www.w3.org/2000/svg" width="254" height="198" viewBox="0 0 254 198">
  <defs>
    <style>
      .cls-1 {
        fill: #fefefe;
      }

      .cls-2 {
        fill: #fcfcfc;
      }

      .cls-3 {
        fill: #0b0806;
      }

      .cls-4 {
        fill: #f6f6f6;
      }

      .cls-5 {
        fill: #4d2c2b;
      }

      .cls-6 {
        fill: #723d3d;
      }
    </style>
  </defs>
  <title>Artboard 1</title>
  <g>
    <path class="cls-1" d="M38,1H251c3.4,0,4.1.7,4.1,4.1q-.2,87-.1,174c-3-4.3-7.3-6.3-12.4-7.2a46.4,46.4,0,0,0-16.4.4,15.7,15.7,0,0,1-11.8-2.6c-4.9-3.2-8.7-7.7-12.9-11.7-7.3-6.9-15.6-9.6-25.6-7.1-6.6,1.7-13.4,3.5-18.9,7.4-10.5,7.3-19.7,5.9-29.6-1.3-17.4-12.6-36.3-15.5-56.6-7.6a39.1,39.1,0,0,1-9.7,2.1c-6.2.7-8.6-2.4-6.7-8.4a39.5,39.5,0,0,1,3.1-6.8c5.4-9.7,5.3-10.3-3.1-17.9l-3.2-3.2c-3.6-3.8-4.1-8.2-2-12.9,1.1-2.6,2.6-5,3.6-7.7s1.9-4.5.4-6.2c-3.9-4.3-1.2-7.8.8-11.5s3.7-7.1,5.3-10.7C70.6,41,61.9,14.3,38,1Z"/>
    <path class="cls-2" d="M219,199H5.3c-3.5,0-4.4-.5-4.4-4.3C1.1,148.2,1,101.6,1,55,4.8,65.6,9.3,75.9,16.5,84.5c3.7,4.4,4.2,8.6,2.9,14-1.9,8.2-1.6,16.2,5.2,22.7,2.1,2,2.9,4.8,3.3,7.7a48.5,48.5,0,0,1-.7,18.8c-2.1,8-4.8,15.9-6.6,23.9s1.7,12.2,6.8,16.6,9.8,3.5,15,1.3c3.4-1.4,6.7-3,9.9-4.6,19.3-9.2,37.7-6.9,55.1,4.8a30.4,30.4,0,0,0,17.8,5.5,50.6,50.6,0,0,0,17.4-3.7c8.1-3,15.5-7.6,23.3-11.1,4.3-2,8.9-3.6,13.2-.4,12,8.8,25,15.5,39.7,18.5C218.9,198.6,218.9,198.8,219,199Z"/>
    <path class="cls-3" d="M219,199c-.1-.2-.1-.4-.2-.4-14.7-3-27.7-9.7-39.7-18.5-4.3-3.2-8.9-1.6-13.2.4-7.8,3.6-15.2,8.1-23.3,11.1a50.6,50.6,0,0,1-17.4,3.7,30.4,30.4,0,0,1-17.8-5.5C90,178.1,71.6,175.8,52.3,185c-3.3,1.6-6.6,3.2-9.9,4.6-5.2,2.1-10.3,2.7-15-1.3s-8.4-9.7-6.8-16.6,4.6-15.9,6.6-23.9a48.5,48.5,0,0,0,.7-18.8c-.4-2.8-1.2-5.7-3.3-7.7-6.8-6.5-7.1-14.5-5.2-22.7,1.2-5.4.8-9.5-2.9-14C9.3,75.9,4.8,65.6,1,55V39c1.7-1,1.4-2.8,1.9-4.3C8.1,20.3,15.3,7.7,30,1h8C61.9,14.3,70.6,41,59.2,66.1c-1.6,3.6-3.5,7.2-5.3,10.7s-4.7,7.2-.8,11.5c1.6,1.7.4,4.2-.4,6.2s-2.4,5.1-3.6,7.7c-2.1,4.7-1.6,9.1,2,12.9l3.2,3.2c8.4,7.6,8.5,8.2,3.1,17.9a39.5,39.5,0,0,0-3.1,6.8c-2,6,.5,9.1,6.7,8.4a39.1,39.1,0,0,0,9.7-2.1c20.3-7.9,39.3-5,56.6,7.6,9.9,7.2,19.2,8.5,29.6,1.3,5.6-3.9,12.3-5.7,18.9-7.4,10-2.5,18.3.2,25.6,7.1,4.2,4,8,8.5,12.9,11.7a15.7,15.7,0,0,0,11.8,2.6,46.4,46.4,0,0,1,16.4-.4c5.1.9,9.4,2.9,12.4,7.2v4a20.2,20.2,0,0,1-6.2,6.9c-5.5,3.9-11.2,7.4-17.8,9.1ZM116,176c0-3.4,2.5-5.9,3.2-9,2.3-9,1.6-10.7-6.9-14.3-2.4-1-5-1.7-7.5-2.6s-5.1-.9-4.7,3.4a23.3,23.3,0,0,1-3.9,15.1c-.7,1.1-.9,3.5-3.3,2.4a33.5,33.5,0,0,0,6-18.1c.1-3.4-1.3-4.4-4.3-4.5a62.6,62.6,0,0,0-15.2,1.9c-2.4.6-3.6,1.7-3.2,4.5a12.3,12.3,0,0,1-1.1,7.9,17,17,0,0,1-.1-4.8c.2-5.9.2-5.8-5.3-4.5s-11.9,3.4-17.7-.8c-.3-.2-1.2.3-1.8.5l-.7-.8c.7-6.9,1.5-13.9,5.9-19.5s2.1-7.2-1.6-10.5-6.7-3.5-7.9-8.1-1.9-7.9-.6-12.1,1-7.8,4-10.8a1.7,1.7,0,0,0-.1-2.6c-4-3.7-1.6-7.4.1-10.9,3.6-7.1,7.5-14,9.9-21.7,5-16-3.1-39.3-17.1-48.7C38,4.8,33.7,3.7,29,6,14.7,12.1-1.7,39.4,7.6,61.5A164.7,164.7,0,0,0,18.4,82.8c2.9,4.9,6.2,9.8,5,16-2.7,7.7-2.1,14.6,4.6,20.2,1.3,2.6,3.4,5,3.7,7.7.7,6.9,1.2,13.9-.6,20.7-1,3.6-.8,7.1-1.1,10.7-.6-.8-1.5-1.1-1.8.1-1.5,5.2-4.1,10.2-4.2,15.8-.1,10,8.3,15.9,17.4,12.1,5.5-2.3,10.8-5,16.3-7.3,3-1.3,6.1-3.3,9.1-3.2,8.6.4,17.1,2.1,25.2-2.5-.1,2-2.8,2.1-3.1,4.4,7.7,1.6,14.7,7.3,23.1,2.6-.9,2.7-4.1,2.3-5.6,4,9.2,10.1,20.5,7.8,31.6,5.3,5.7-1.3,10.8-4.3,15.9-6.9a19.2,19.2,0,0,0,10.8-19.9c-.4-3.1-1.4-3.9-4.3-2.2-4.6,2.6-9.2,6-14.4,6.4s-5.5,2-5.5,6.3-.6,8.9-4.7,11.7a26.6,26.6,0,0,0,3.2-14.8c-.1-1.3.1-2.9-1.4-3.5-5.5-1.9-9.9-5.8-15.3-8.3C120.4,170.7,119.8,172.2,116,176Zm118.6,7.4-.8-.7c.4-7.7.4-7.7-7.5-6.8a15.6,15.6,0,0,1-6.4-.2c-2.5-.8-4.4-.7-6.5,1.7.3-3.3-11.3-15.3-17.6-19-1.3,1.9.5,4.9-1.8,6.5a2.1,2.1,0,0,1-.8-2.4c1.4-6,.9-6.9-4.7-8.5-7.4-2-14,.9-20.8,3-2,.6-1.7,2.2-1.6,3.7a29.4,29.4,0,0,1-2.9,16.2,13.5,13.5,0,0,0,2.4-.2c7-2.1,13.5-4.1,19.8,2.5,4.5,4.7,10.7,7.4,16.7,10.1a58.7,58.7,0,0,0,29.5,5.4c5.1-.4,9.2-3.7,13.2-6.6s7.1-3.3,6.2-7.5-5.7-4.7-9.3-5.4c-5.9-1.2-6.3-.7-6.6,5.3A24.3,24.3,0,0,1,234.6,183.5Z"/>
    <path class="cls-2" d="M30,1C15.3,7.7,8.1,20.3,2.9,34.7,2.4,36.2,2.7,38,1,39V1Z"/>
    <path class="cls-4" d="M231,199c6.6-1.7,12.3-5.2,17.8-9.1A20.2,20.2,0,0,0,255,183c0,4.5-.1,9,.1,13.5.1,2.2-.4,2.6-2.6,2.6C245.3,198.9,238.2,199,231,199Z"/>
    <path class="cls-5" d="M92,173c-8,4.6-16.6,2.9-25.2,2.5-3-.1-6.2,1.9-9.1,3.2-5.5,2.4-10.8,5-16.3,7.3-9.1,3.8-17.5-2.1-17.4-12.1.1-5.6,2.7-10.6,4.2-15.8.3-1.1,1.2-.9,1.8-.1a11.8,11.8,0,0,1-1.2,5.8A26.6,26.6,0,0,0,27.6,179c.6-10.7,7.1-19.7,8.1-30.3.7-8,3.8-15.8,1.3-24-1-3.3-2.9-6.4-3.2-9.9-1.4-15-6.2-28.7-15.7-40.7-1.2-1.5-1.2-3.4-1-5.3,4.7,4.6,9.9,7.8,16.9,6s11.6-4.1,15.9-8.7,7.2-8.7,7.3-14.8c0-1.5.2-3.1-1.5-3.9s-2.8.3-4,1.3l-4.2,3.5c-10.4,7.9-18.6,8.1-29.6.6V50c3.4,2.7,7.2,3.9,10.7.6s3.2-1.4,5.2,0,7.2,2,10.2-1.3c5.5-5.8,5.5-19,.1-24.9a8.5,8.5,0,0,0-8-2.9C36,15.4,34.4,9.8,29,6c4.7-2.4,9-1.2,13.1,1.5,14,9.4,22.1,32.7,17.1,48.7-2.4,7.7-6.3,14.6-9.9,21.7-1.8,3.5-4.1,7.2-.1,10.9a1.7,1.7,0,0,1,.1,2.6c-3,3-2.8,7.2-4,10.8s-.5,7.9.6,12.1,5.2,5.6,7.9,8.1,5,6.1,1.6,10.5-5.2,12.6-5.9,19.5L47,154.6c1.9.6,2.5-.6,3.1-1.5s1.5-.7,1.8-.5c5.7,4.2,11.8,2.2,17.7.8s5.6-1.4,5.3,4.5a17,17,0,0,0,.1,4.8,12.3,12.3,0,0,0,1.1-7.9c-.4-2.8.8-3.9,3.2-4.5a62.6,62.6,0,0,1,15.2-1.9c3,0,4.4,1.1,4.3,4.5A33.5,33.5,0,0,1,93,171H93c-.7.5-1.9.8-1,2.1Z"/>
    <path class="cls-5" d="M234.6,183.5a24.3,24.3,0,0,0,.5-2.9c.3-6,.7-6.5,6.6-5.3,3.6.7,8.3,1,9.3,5.4s-3.5,5.6-6.2,7.5-8.2,6.2-13.2,6.6a58.7,58.7,0,0,1-29.5-5.4c-6-2.7-12.2-5.4-16.7-10.1-6.3-6.7-12.8-4.7-19.8-2.5a13.5,13.5,0,0,1-2.4.2,29.4,29.4,0,0,0,2.9-16.2c-.1-1.5-.4-3.1,1.6-3.7,6.8-2.2,13.4-5.1,20.8-3,5.7,1.6,6.2,2.5,4.7,8.5a2.1,2.1,0,0,0,.8,2.4c2.4-1.6.5-4.6,1.8-6.5,6.3,3.7,17.8,15.6,17.6,19,2-2.4,4-2.5,6.5-1.7a15.6,15.6,0,0,0,6.4.2c7.9-.9,7.9-.9,7.5,6.8-.7.9-1.4,2.2-.3,2.7S234.2,184.2,234.6,183.5Z"/>
    <path class="cls-6" d="M29,6c5.4,3.8,7,9.3,7.3,15.5a25.6,25.6,0,0,0-3.7,2.5c-1.1,1.1-1.7,1.3-3.2.2-6.1-4.2-10.8-2.9-13.8,4S13.2,43.2,18,50v2.8c-3.4-1.2-6.1-4-10.5-4.5l2,6.6c1.6,5.1,4.8,9.4,7.5,13.9-.2,1.9-.1,3.8,1,5.3C27.5,86,32.4,99.7,33.8,114.8c.3,3.5,2.1,6.6,3.2,9.9,2.6,8.2-.5,16-1.3,24-1,10.6-7.5,19.6-8.1,30.3a26.6,26.6,0,0,1,1.3-15.2A11.8,11.8,0,0,0,30,158c.3-3.6.1-7.1,1.1-10.7,1.8-6.8,1.3-13.8.6-20.7-.3-2.7-2.4-5.1-3.7-7.7-1.1-6.2-3.7-12.2-3-18.6.6-.4.8-.9.2-1.4s-1.2-1-1.8,0h0c1.1-6.2-2.1-11.1-5.1-16A164.7,164.7,0,0,1,7.6,61.5C-1.7,39.4,14.7,12.1,29,6Z"/>
    <path class="cls-5" d="M116,176c3.9-3.8,4.4-5.3,6.3-17.9,5.3,2.4,9.8,6.4,15.3,8.3,1.5.5,1.3,2.1,1.4,3.5a26.6,26.6,0,0,1-3.2,14.8c4.1-2.8,4.7-7.5,4.7-11.7s.6-6,5.5-6.3,9.9-3.7,14.4-6.4c3-1.7,4-.9,4.3,2.2a19.2,19.2,0,0,1-10.8,19.9c-5.2,2.6-10.3,5.6-15.9,6.9-11.1,2.5-22.3,4.8-31.6-5.3,1.5-1.7,4.7-1.3,5.6-4H112c1.4.2,1.6-.8,1.8-1.9l.3-.3c1.1-.2,2.1-.5,1.9-1.9Z"/>
    <path class="cls-5" d="M93,171c2.4,1.1,2.6-1.3,3.3-2.4a23.3,23.3,0,0,0,3.9-15.1c-.4-4.3,1.3-4.8,4.7-3.4s5,1.6,7.5,2.6c8.5,3.6,9.1,5.3,6.9,14.3-.8,3.2-3.2,5.7-3.2,9h0c-1.8-.6-1.7.8-1.9,1.9l-.3.3c-.9.3-2.5,0-1.8,1.9h.1c-8.4,4.8-15.5-1-23.1-2.6.3-2.3,3-2.4,3.1-4.4H92c1.1-.3,2.1-.7,1-2.1Z"/>
    <path class="cls-5" d="M25.1,100.3c-.7,6.5,1.8,12.5,3,18.6-6.6-5.6-7.3-12.5-4.6-20.2h0Z"/>
    <path class="cls-3" d="M17,68.8c-2.8-4.5-5.9-8.8-7.5-13.9l-2-6.6c4.3.4,7.1,3.3,10.5,4.5,11,7.5,19.2,7.3,29.6-.6l4.2-3.5c1.2-.9,2.3-2.1,4-1.3s1.5,2.4,1.5,3.9C57,57.4,53.8,62,49.8,66.2S40,73.3,33.9,74.9,21.7,73.4,17,68.8ZM12.3,52.7l-1-.4v1.2a40,40,0,0,0,9.4,15.6A12.5,12.5,0,0,0,33,72.8C41,71,47.5,67,51.9,60.1c1.9-3,3.8-6.2,2.8-10.7L47.6,55c-8.7,6.4-17.8,7.4-27.4,1.9Z"/>
    <path class="cls-3" d="M18,50c-4.8-6.8-5.5-14.1-2.3-21.7s7.7-8.3,13.8-4c1.5,1,2.1.8,3.2-.2a25.6,25.6,0,0,1,3.7-2.5,8.5,8.5,0,0,1,8,2.9c5.4,5.9,5.3,19.1-.1,24.9-3.1,3.3-6.7,3.8-10.2,1.3s-3.1-2-5.2,0S21.5,52.7,18,50ZM46.1,36.9c.1-3.9-.6-7.6-3.2-10.7s-6.4-3.4-9.2,0c-4.3,5.2-4.3,16.2.1,21.3,2.9,3.4,6.3,3.5,9.2,0A15.1,15.1,0,0,0,46.1,36.9ZM16,36.2c0,5.1,1,8.9,3.7,12.1s4.2,2.9,6.6,1.4,4.2-2.9,2.8-6.4A17.6,17.6,0,0,1,29,31.1c1.1-3.2-.1-5.1-2.7-6.5s-5.2-.4-7,1.9A15.8,15.8,0,0,0,16,36.2Z"/>
    <path class="cls-3" d="M50.1,153.2c-.7.9-1.2,2.1-3.1,1.5l2.4-2.2Z"/>
    <path class="cls-3" d="M93,171c1.1,1.4.1,1.8-1,2.1C91.1,171.8,92.3,171.5,93,171Z"/>
    <path class="cls-3" d="M234.6,183.5c-.4.7-.4,2.4-1.2,2s-.4-1.9.3-2.7Z"/>
    <path class="cls-3" d="M25.1,100.3l-1.6-1.4c.6-1,1.3-.4,1.8,0S25.7,100,25.1,100.3Z"/>
    <path class="cls-3" d="M114.1,177.9c.2-1.1.1-2.5,1.9-1.9C116.2,177.4,115.2,177.7,114.1,177.9Z"/>
    <path class="cls-3" d="M112,180c-.6-1.9.9-1.6,1.8-1.9S113.4,180.2,112,180Z"/>
    <path class="cls-4" d="M12.3,52.7l7.8,4.2c9.6,5.4,18.7,4.5,27.4-1.9l7.2-5.6c1,4.5-.9,7.7-2.8,10.7C47.5,67,41,71,33,72.8a12.5,12.5,0,0,1-12.3-3.7,40,40,0,0,1-9.4-15.6Z"/>
    <path class="cls-4" d="M11.4,53.5V52.3l1,.4Z"/>
    <path class="cls-4" d="M46.1,36.9a15.1,15.1,0,0,1-3.2,10.7c-2.9,3.5-6.3,3.4-9.2,0-4.4-5.2-4.4-16.1-.1-21.3,2.8-3.4,6.4-3.4,9.2,0S46.2,32.9,46.1,36.9Zm-11.4,4c.7,2.5-.8,7,3.4,6.9S41,43.6,41,40.9s.4-7.1-3.3-7S35.2,38.1,34.7,40.9Z"/>
    <path class="cls-4" d="M16,36.2a15.8,15.8,0,0,1,3.3-9.7c1.8-2.3,4.1-3.4,7-1.9s3.9,3.3,2.7,6.5a17.6,17.6,0,0,0,.2,12.2c1.3,3.5-.7,5-2.8,6.4s-4.8.7-6.6-1.4S16,41.3,16,36.2ZM27,41c-1.2-2.3.5-7-3.7-6.8s-2.8,4.3-2.9,6.9-.2,7.3,3.1,7.3S26.3,43.9,27,41Z"/>
    <path class="cls-3" d="M34.7,40.9c.5-2.7-.4-6.9,3-7s3.3,4.2,3.3,7,.4,6.7-2.9,6.8S35.4,43.4,34.7,40.9Z"/>
    <path class="cls-3" d="M27,41c-.7,2.9,0,7.5-3.4,7.4s-3.2-4.4-3.1-7.3-.5-6.8,2.9-6.9S25.8,38.6,27,41Z"/>
  </g>
</svg>
