<svg id="Capa_1" data-name="Capa 1" xmlns="http://www.w3.org/2000/svg" width="210mm" height="210mm" viewBox="0 0 595.3 595.3">
  <defs>
    <style>
      .cls-1 {
        fill: #fce391;
      }

      .cls-2 {
        fill: #f4d889;
      }

      .cls-3 {
        fill: #fff;
      }

      .cls-4 {
        fill: #aad4fe;
      }

      .cls-5 {
        fill: #7acfea;
      }

      .cls-6 {
        fill: #f4cf64;
      }

      .cls-7 {
        fill: #3cb9ea;
      }

      .cls-12, .cls-8 {
        fill: #5f3813;
      }

      .cls-8 {
        opacity: 0.1;
      }

      .cls-9 {
        fill: #f69322;
      }

      .cls-10 {
        fill: #c4620a;
      }

      .cls-11 {
        fill: #fc3a3b;
      }
    </style>
  </defs>
  <title>Artboard 147</title>
  <g>
    <path class="cls-1" d="M0,0V197.9c.1,13.8,2.5,28,0,39.7V595.3H595.3V0Z"/>
    <g>
      <path class="cls-2" d="M0,94.1V208.5a246.9,246.9,0,0,1,0,25.3v101c34.4,17.8,77.7,10.9,114.2-2.8,43.8-16.1,86.4-25.3,130.2-40.3,16.1-5.8,21.9-18.4,31.1-31.1A28.3,28.3,0,0,1,295,247.9c24.2-2.3,49.5,3.5,71.4-10.4,58.7-36.9,125.5-42.6,190-54l13,.2q12.9.5,25.9,2.2V25C396.9-37.1,198.4,156.1,0,94.1Z"/>
      <path class="cls-3" d="M0,82.5V197a246.9,246.9,0,0,1,0,25.3v101c34.4,17.8,77.7,10.9,114.2-2.8,43.8-16.1,86.4-25.3,130.2-40.3,16.1-5.8,21.9-18.4,31.1-31.1A28.3,28.3,0,0,1,295,236.4c24.2-2.3,49.5,3.5,71.4-10.4,58.7-36.9,125.5-42.6,190-54l13,.2q12.9.5,25.9,2.2V13.5C396.9-48.6,198.4,144.6,0,82.5Z"/>
      <path class="cls-4" d="M363.8,0C242.5,35.9,121.3,93.8,0,57.1V202.5a198,198,0,0,1,0,20.1v76.9c3.9-.6,8.1-1.5,11.7-.9C38.1,302,63.5,311.2,90,302a590.9,590.9,0,0,1,110.6-24.2c11.5-1.2,23-3.5,29.9-10.4,18.4-18.4,32.3-42.6,58.7-46.1s49.9-6,73.1-15.8q5-2.1,9.9-4.6c6.8-2.7,13.7-7.3,19.5-11.9a35.9,35.9,0,0,1,11.1-4.8,109,109,0,0,1,11.9-2.2c40.3-5.8,76-18.4,116.3-27.6a159.5,159.5,0,0,1,38.3-2.7q6.5.3,12.9.9t12.9,1.5V0Z"/>
      <path class="cls-4" d="M0,0V204.4c0,.8,0,1.6,0,2.4v34H.1c59.9,21.9,93.3,17.3,155.5-3.5,6.9-1.2,48.4-10.4,55.3-10.4s11.5-2.3,16.1-4.6c20.2-12.2,24.3-19.1,44.8-29.9,4.1-2.2,15.1-8.9,19.2-11,6.2-4.1,22.3-7.5,29.3-8.7,37.9-5.5,62.9-26.7,93.3-34.6C464.2,125.3,517.3,88.9,577.9,90l8.7-.2h8.6V0Z"/>
      <path class="cls-5" d="M0,0V151c94.9,44.5,189.8,21.5,284.7-17.2C289,132,468.9,46.3,543.5,27.7l12.9-3.2a384.5,384.5,0,0,1,38.8-7V0Z"/>
    </g>
    <g>
      <ellipse class="cls-6" cx="414.8" cy="557" rx="11.1" ry="4.2"/>
      <ellipse class="cls-6" cx="398.6" cy="546" rx="9.8" ry="3.7"/>
      <ellipse class="cls-6" cx="418.5" cy="547.1" rx="6.4" ry="2.4"/>
    </g>
    <g>
      <ellipse class="cls-6" cx="292.7" cy="342.3" rx="12.5" ry="4.7"/>
      <ellipse class="cls-6" cx="310.7" cy="354.6" rx="10.9" ry="4.1"/>
      <ellipse class="cls-6" cx="288.5" cy="353.3" rx="7.2" ry="2.7"/>
    </g>
    <path class="cls-7" d="M271.9,48C427.2.2,480.8,0,480.8,0L0,.2v60S116.6,95.9,271.9,48Z"/>
    <g>
      <path class="cls-8" d="M517.5,455.4c2.4.4,1.5,1.7,1.8,4.3s-.3,2.5,0,5.7-.8,3.5-.5,7.3,1.4,6,2.3,6.9,3,1.6,6.8,1.9,3.8-.2,7.1.1l5.8.6c2.5.3,4-.5,4.3.8s-1.9,1.8-4.4,3.1-2.2.4-5,1.8l-6.5,2.9c-3.5,1.5-4.3,1.8-5.3,3.7s-.6,3.3.2,6.8,1.1,3.3,1.7,6.4,1,3.1,1.5,5.7.8,4-.3,4.3-1.9-1.4-3.7-3.2-1.2-2.3-3.2-4.5-2.4-2.1-4.7-4.7-4-3.4-5.5-3.6-2.8.4-5.8,2.1l-5.8,3c-2.6,1.3-2.5,1.8-4.9,3s-3.5,2.3-4.9,1.6,0-2.5,1.2-4.7,2.3-1.8,3.8-4.3l3.4-5.7c1.8-3.1,3.1-3.7,2-6.3s-1.4-2.3-4.2-4.8-2.4-2.9-4.8-5.2-2.4-1.9-4.1-3.8-2.6-2.5-2.3-3.5,1.4-.6,3.8-.1l5.5,1.2,6.7,1.7c3.7.9,4.7,2.8,6.9,1.1s1.6-2.4,3.1-6,1.6-3.3,3-6.5,1.7-3,2.1-5.6S515.8,455.1,517.5,455.4Z"/>
      <path class="cls-9" d="M515.5,454.6c2.4.4,1.5,1.7,1.8,4.3s-.3,2.5,0,5.7-.8,3.5-.5,7.3,1.4,6,2.3,6.9,3,1.6,6.8,1.9,3.8-.2,7.1.1l5.8.6c2.5.3,4-.5,4.3.8s-1.9,1.8-4.4,3.1-2.2.4-5,1.8l-6.5,2.9c-3.5,1.5-4.3,1.8-5.3,3.7s-.6,3.3.2,6.8,1.1,3.3,1.7,6.4,1,3.1,1.5,5.7.8,4-.3,4.3-1.9-1.4-3.7-3.2-1.2-2.3-3.2-4.5-2.4-2.1-4.7-4.7-4-3.4-5.5-3.6-2.8.4-5.8,2.1l-5.8,3c-2.6,1.3-2.5,1.8-4.9,3s-3.5,2.3-4.9,1.6,0-2.5,1.2-4.7,2.3-1.8,3.8-4.3l3.4-5.7c1.8-3.1,3.1-3.7,2-6.3s-1.4-2.3-4.2-4.8-2.4-2.9-4.8-5.2-2.4-1.9-4.1-3.8-2.6-2.5-2.3-3.5,1.4-.6,3.8-.1l5.5,1.2,6.7,1.7c3.6.9,4.7,2.8,6.9,1.1s1.6-2.4,3.1-6,1.6-3.3,3-6.5,1.7-3,2.1-5.6S513.7,454.4,515.5,454.6Z"/>
      <circle class="cls-10" cx="511.2" cy="479.7" r="2" transform="translate(-45.2 906.2) rotate(-80.6)"/>
      <path class="cls-10" d="M519.5,487a2,2,0,1,1-1.6-2.3A2,2,0,0,1,519.5,487Z"/>
      <circle class="cls-10" cx="509.9" cy="487.6" r="2.8" transform="translate(-53.9 911.7) rotate(-80.7)"/>
      <circle class="cls-10" cx="513.8" cy="494.3" r="2" transform="translate(-57.2 921.4) rotate(-80.7)"/>
      <circle class="cls-10" cx="516.9" cy="499.7" r="1.4" transform="translate(-60.3 928.3) rotate(-80.6)"/>
      <circle class="cls-10" cx="499.3" cy="497.7" r="1.4" transform="translate(-72.8 909.7) rotate(-80.7)"/>
      <circle class="cls-10" cx="524" cy="485" r="1.4" transform="translate(-39.9 923.1) rotate(-80.6)"/>
      <circle class="cls-10" cx="511.9" cy="473.4" r="1.4" transform="matrix(0.16, -0.99, 0.99, 0.16, -38.34, 901.59)"/>
      <circle class="cls-10" cx="497.4" cy="480.8" r="1.4" transform="translate(-57.5 893.9) rotate(-80.7)"/>
      <circle class="cls-10" cx="503.7" cy="493.5" r="2" transform="translate(-65 910.5) rotate(-80.7)"/>
      <circle class="cls-10" cx="502.8" cy="484.3" r="2" transform="translate(-56.4 902.3) rotate(-80.7)"/>
    </g>
    <g>
      <path class="cls-8" d="M455.1,249.8c2.3-2.4,3-.4,6.1,1.3s2.5,2.3,6.3,4.4,3.2,3.6,7.5,6.3,7.7,3.1,9.3,2.7,4.1-2.1,7.5-6.2,2.8-4.4,5.8-7.9l5.3-6.1c2.3-2.6,2.6-4.9,4.3-4.2s.4,3.5-.2,7.4-1.3,2.7-2.1,7-.9,4.6-2.1,9.6-1.5,6.2-.2,8.8,3.1,3.2,7.6,5,4.5,1.4,8.3,3,4.2,1.3,7.4,2.8,5,2.2,4.4,3.6-3,1.1-6.4,1.7-3.4-.5-7.4.2-4.2,1-8.9,1.7-6.9,1.9-8.2,3.4-1.7,3.4-2.3,8.2-.7,4.6-1.3,8.8,0,4.2-.6,7.8-.3,5.8-2.1,6.8-2.8-1.9-4.2-4.9-.1-4-1.7-7.6-1.7-3.9-3.5-8.2-1.6-6.4-5.2-7.2-3.6-.2-8.6,1-5.1.4-9.5,1.3-4,1.3-7.5,1.7-4.8.9-5.7-.1.5-2.1,2.9-4.3l5.7-5.3c3.4-3,3.4-2.9,7.2-6.2s6.8-3,6.7-6.9c0-2.3-1.4-3.7-4.1-8.2s-2.4-4.3-4.7-8.4-1.9-4.2-4.4-6.6S453.4,251.6,455.1,249.8Z"/>
      <path class="cls-9" d="M452.6,251.5c2.3-2.4,3-.3,6.1,1.3s2.5,2.3,6.3,4.4,3.2,3.6,7.5,6.3,7.7,3.1,9.3,2.7,4.1-2.1,7.5-6.2,2.8-4.4,5.8-7.9l5.3-6.1c2.3-2.6,2.6-4.9,4.4-4.2s.4,3.5-.2,7.4-1.3,2.7-2.1,7-1,4.6-2.1,9.6-1.5,6.2-.2,8.8,3.1,3.2,7.6,5,4.5,1.4,8.3,3,4.2,1.3,7.4,2.8,5,2.2,4.4,3.6-3,1.1-6.4,1.7-3.4-.5-7.4.2-4.2,1-8.9,1.7-6.9,1.9-8.2,3.4-1.7,3.4-2.3,8.2-.7,4.6-1.3,8.8,0,4.2-.6,7.8-.3,5.8-2.1,6.8-2.8-1.9-4.2-4.9-.1-4-1.7-7.6-1.7-3.9-3.5-8.2-1.6-6.4-5.2-7.2-3.6-.2-8.6,1-5.1.4-9.5,1.3-4,1.2-7.5,1.7-4.8.9-5.7-.1.5-2.1,2.9-4.3l5.7-5.3c3.3-3,3.4-2.9,7.2-6.2s6.8-3,6.7-7c0-2.3-1.4-3.7-4.1-8.2s-2.4-4.3-4.7-8.4-1.9-4.2-4.4-6.6S451,253.3,452.6,251.5Z"/>
      <path class="cls-10" d="M478.5,273.8a2.7,2.7,0,0,1,0,3.8,2.7,2.7,0,0,1-3.8.1,2.7,2.7,0,0,1,0-3.8A2.7,2.7,0,0,1,478.5,273.8Z"/>
      <path class="cls-10" d="M491.2,272a2.7,2.7,0,0,1,0,3.8,2.7,2.7,0,0,1-3.8.1,2.7,2.7,0,0,1,0-3.8A2.7,2.7,0,0,1,491.2,272Z"/>
      <path class="cls-10" d="M484.8,279.6a3.7,3.7,0,0,1,3,4.3,3.9,3.9,0,0,1-4.4,3.2,3.7,3.7,0,0,1-3-4.3A3.9,3.9,0,0,1,484.8,279.6Z"/>
      <path class="cls-10" d="M496.6,282.2a2.7,2.7,0,0,1,0,3.8,2.7,2.7,0,0,1-3.8.1,2.7,2.7,0,0,1,0-3.8A2.7,2.7,0,0,1,496.6,282.2Z"/>
      <circle class="cls-10" cx="516.9" cy="499.7" r="1.4" transform="translate(-60.3 928.3) rotate(-80.6)"/>
      <circle class="cls-10" cx="499.3" cy="497.7" r="1.4" transform="translate(-72.8 909.7) rotate(-80.7)"/>
      <path class="cls-10" d="M494,264.1a2,2,0,0,1,0,2.8,1.9,1.9,0,0,1-2.7.1,2,2,0,0,1,0-2.8A1.9,1.9,0,0,1,494,264.1Z"/>
      <path class="cls-10" d="M471.6,268.7a2,2,0,0,1,0,2.8,1.9,1.9,0,0,1-2.7,0,2,2,0,0,1,0-2.8A1.9,1.9,0,0,1,471.6,268.7Z"/>
      <circle class="cls-10" cx="497.4" cy="480.8" r="1.4" transform="translate(-57.5 893.9) rotate(-80.7)"/>
      <path class="cls-10" d="M487.6,293a2.7,2.7,0,0,1,0,3.8,2.7,2.7,0,0,1-3.8.1,2.7,2.7,0,0,1,0-3.8A2.7,2.7,0,0,1,487.6,293Z"/>
      <path class="cls-10" d="M476.8,286.9a2.7,2.7,0,0,1,0,3.8,2.7,2.7,0,0,1-3.8.1,2.7,2.7,0,0,1,0-3.8A2.7,2.7,0,0,1,476.8,286.9Z"/>
    </g>
    <g>
      <g>
        <path class="cls-11" d="M47.2,395.2l37.4-11.9A26.2,26.2,0,0,0,67.6,380C60.3,380.9,51.9,386.2,47.2,395.2Z"/>
        <path class="cls-11" d="M56.2,456.4l51.1-16.3c-.4-4.8-1-9.3-1.7-13.6L51.9,443.7C53.3,447.8,54.7,452.1,56.2,456.4Z"/>
        <path class="cls-11" d="M45.9,425.1l.8,2.3,55.3-17.7a71.5,71.5,0,0,0-5-12.5l-53.3,17A47.5,47.5,0,0,0,45.9,425.1Z"/>
        <path class="cls-11" d="M67.8,484.7l48.7-15.6c-1.8-4.2-3.6-8.4-5.1-12.5L62.3,472.4C64.1,476.6,65.9,480.8,67.8,484.7Z"/>
        <path class="cls-11" d="M86.5,510.8l37.9-12.1a37.9,37.9,0,0,0-1.9-13.5l-46,14.7A53.6,53.6,0,0,0,86.5,510.8Z"/>
        <path class="cls-11" d="M43.6,414.3l53.3-17c-3.3-6.3-7.4-11-12.4-14L47.2,395.2A34.2,34.2,0,0,0,43.6,414.3Z"/>
        <path class="cls-11" d="M51.9,443.7l53.8-17.2a126.4,126.4,0,0,0-3.8-16.7L46.6,427.4Z"/>
        <path class="cls-11" d="M62.3,472.4l49.2-15.7c-2-5.4-3.6-10.5-4-15.2v-1.5L56.2,456.4C58.1,461.7,60.1,467.1,62.3,472.4Z"/>
        <path class="cls-11" d="M76.6,499.9l46-14.7a155.3,155.3,0,0,0-6-16L67.8,484.7A114.1,114.1,0,0,0,76.6,499.9Z"/>
        <path class="cls-11" d="M115.9,512.4a16.8,16.8,0,0,0,8.6-13.7L86.5,510.8C94.9,517.5,104.6,519.2,115.9,512.4Z"/>
      </g>
      <path class="cls-12" d="M51.6,464.2c5.7,14,21.5,18.9,21.5,13.8,0-7-13.2-4.9-16.2-13.2-4.2-11.7,26.9-50.6,26.9-50.6l-3-6.4S45.5,449.3,51.6,464.2Z"/>
      <path class="cls-12" d="M113.3,444.4c4.4,9.8-8,17.1-4.3,23,2.6,4.3,8.8-4.6,9.4-19.6.8-19.4-37.7-39.9-37.7-39.9l1.3,6.9S106.7,429.7,113.3,444.4Z"/>
      <path class="cls-12" d="M77.5,408l3,7.3a2.4,2.4,0,0,0,3.1,1.4,2.2,2.2,0,0,0,1.3-3l-3.1-7.4c-1.7-4.2-3.5-6-4.7-5.6S75.7,403.6,77.5,408Z"/>
      <g>
        <path class="cls-8" d="M141.1,339.8c-4,3.9-6.7,9.3-8.2,16.1a67.9,67.9,0,0,0-1.5,13.2,124.2,124.2,0,0,0,.9,17q.8,6.4,2.1,13.5l.3,1.4c.9,4.6.8,9.9.3,15.5s-1,8.7-1.6,13.2a147.6,147.6,0,0,0-1.5,16.8,38,38,0,0,0,1.9,13.5A18.4,18.4,0,0,0,146,471.7c12.8,4.3,21.8.7,28.1-7.5a48.5,48.5,0,0,0,6.6-12.7,105.8,105.8,0,0,0,4.4-16.5c.8-4.2,1.5-8.6,2-13.1s1.2-11.2,1.5-16.8.5-9,.7-13.3c.3-6,.5-11.7.7-16.9v-2.4a46.6,46.6,0,0,0-.7-11,36.4,36.4,0,0,0-8.7-17.8c-7-7.8-16.7-11.3-24-10.6S145.1,336,141.1,339.8Z"/>
        <g>
          <path class="cls-11" d="M134.9,341.5l39.6,4c-7-7.8-16.7-11.3-24-10.6S138.8,337.7,134.9,341.5Z"/>
          <path class="cls-11" d="M128.2,401.4l54.1,5.4c.3-4.5.5-9,.7-13.3l-57-5.7Q126.9,394.3,128.2,401.4Z"/>
          <path class="cls-11" d="M125.2,370.8l58.6,5.9v-2.4a46.6,46.6,0,0,0-.8-11l-56.5-5.7A68,68,0,0,0,125.2,370.8Z"/>
          <path class="cls-11" d="M127.2,431.5l51.6,5.2c.8-4.2,1.5-8.6,2-13.1l-52.1-5.2C128.4,422.6,127.8,427.1,127.2,431.5Z"/>
          <path class="cls-11" d="M127.6,461.8l40.2,4a48.6,48.6,0,0,0,6.6-12.7l-48.7-4.9A38,38,0,0,0,127.6,461.8Z"/>
          <path class="cls-11" d="M126.7,357.6l56.5,5.7a36.3,36.3,0,0,0-8.7-17.8l-39.6-4C130.9,345.4,128.2,350.8,126.7,357.6Z"/>
          <path class="cls-11" d="M126.1,387.8l57,5.7c.3-6,.5-11.7.7-16.9l-58.6-5.9A124.3,124.3,0,0,0,126.1,387.8Z"/>
          <path class="cls-11" d="M128.5,402.8c.9,4.6.8,9.9.3,15.5l52.1,5.2c.7-5.5,1.2-11.2,1.5-16.8l-54.1-5.4Z"/>
          <path class="cls-11" d="M125.7,448.3l48.7,4.9a105.9,105.9,0,0,0,4.4-16.5l-51.6-5.2A147.7,147.7,0,0,0,125.7,448.3Z"/>
          <path class="cls-11" d="M139.7,473.4c12.8,4.3,21.8.7,28.1-7.5l-40.2-4A18.4,18.4,0,0,0,139.7,473.4Z"/>
        </g>
        <path class="cls-12" d="M184.1,415.1c-.7,8.7-14.1,9.3-12.1,16.1,1.4,4.9,15.4-3,17.1-17.8s-43.8-48.8-43.8-48.8l-1.1,6.9S185,402.9,184.1,415.1Z"/>
        <path class="cls-12" d="M119.7,411.1c4.7,14.5,13.1,21.9,14.5,17.1,1.9-6.5-12.1-11.1-10.5-21.5,2.4-15.6,22.3-35.1,22.3-35.1l-.6-7S113.6,392.4,119.7,411.1Z"/>
        <path class="cls-12" d="M143.9,363.4l-.9,7.8a2.4,2.4,0,0,0,2.1,2.6,2.3,2.3,0,0,0,2.6-2l.9-7.7c.5-4.7-.3-7-1.6-7.2S144.4,359,143.9,363.4Z"/>
      </g>
    </g>
  </g>
</svg>
