<?xml version="1.0" encoding="utf-8"?>
<!-- Generator: Adobe Illustrator 21.0.2, SVG Export Plug-In . SVG Version: 6.00 Build 0)  -->
<svg version="1.1" id="Capa_1" xmlns="http://www.w3.org/2000/svg" xmlns:xlink="http://www.w3.org/1999/xlink" x="0px" y="0px"
	 viewBox="0 0 100 100" style="enable-background:new 0 0 100 100;" xml:space="preserve">
<style type="text/css">
	.st0{fill:#FCE391;}
	.st1{fill:#F4D889;}
	.st2{fill:#FFFFFF;}
	.st3{fill:#AAD4FE;}
	.st4{fill:#7ACFEA;}
	.st5{fill:#F4CF64;}
	.st6{fill:#3CB9EA;}
	.st7{opacity:0.1;fill:#5F3813;enable-background:new    ;}
	.st8{fill:#F69322;}
	.st9{fill:#C4620A;}
	.st10{fill:#FC3A3B;}
	.st11{fill:#5F3813;}
</style>
<title>Artboard 147</title>
<g>
	<path class="st0" d="M0,0v33.2c0,2.3,0.4,4.7,0,6.7V100h100V0H0z"/>
	<g>
		<path class="st1" d="M0,15.8V35c0.1,1.4,0.1,2.8,0,4.2v17c5.8,3,13.1,1.8,19.2-0.5c7.4-2.7,14.5-4.2,21.9-6.8
			c2.7-1,3.7-3.1,5.2-5.2c0.7-1.1,1.9-1.9,3.3-2.1c4.1-0.4,8.3,0.6,12-1.7c9.9-6.2,21.1-7.2,31.9-9.1l2.2,0c1.4,0.1,2.9,0.2,4.4,0.4
			v-27C66.7-6.2,33.3,26.2,0,15.8z"/>
		<path class="st2" d="M0,13.9v19.2c0.1,1.4,0.1,2.8,0,4.2v17c5.8,3,13.1,1.8,19.2-0.5c7.4-2.7,14.5-4.2,21.9-6.8
			c2.7-1,3.7-3.1,5.2-5.2c0.7-1.1,1.9-1.9,3.3-2.1c4.1-0.4,8.3,0.6,12-1.7c9.9-6.2,21.1-7.2,31.9-9.1l2.2,0c1.4,0.1,2.9,0.2,4.4,0.4
			v-27C66.7-8.2,33.3,24.3,0,13.9z"/>
		<path class="st3" d="M61.1,0C40.7,6,20.4,15.8,0,9.6V34c0.1,1.1,0.1,2.3,0,3.4v12.9c0.7-0.1,1.4-0.3,2-0.2
			c4.4,0.6,8.7,2.1,13.2,0.6c6-1.9,12.3-3.3,18.6-4.1c1.9-0.2,3.9-0.6,5-1.7c3.1-3.1,5.4-7.2,9.9-7.7c4.4-0.6,8.4-1,12.3-2.7
			c0.6-0.2,1.1-0.5,1.7-0.8c1.1-0.5,2.3-1.2,3.3-2c0.6-0.4,1.2-0.6,1.9-0.8c0.7-0.2,1.3-0.3,2-0.4c6.8-1,12.8-3.1,19.5-4.6
			c2.1-0.4,4.3-0.6,6.4-0.5c0.7,0,1.5,0.1,2.2,0.2c0.7,0.1,1.4,0.2,2.2,0.3V0H61.1z"/>
		<path class="st3" d="M0,0v34.3c0,0.1,0,0.3,0,0.4v5.7h0c10.1,3.7,15.7,2.9,26.1-0.6c1.2-0.2,8.1-1.7,9.3-1.7s1.9-0.4,2.7-0.8
			c3.4-2,4.1-3.2,7.5-5c0.7-0.4,2.5-1.5,3.2-1.8c1-0.7,3.7-1.3,4.9-1.5c6.4-0.9,10.6-4.5,15.7-5.8c8.5-2.2,17.4-8.3,27.6-8.1l1.5,0
			h1.4V0H0z"/>
		<path class="st4" d="M0,0v25.4c15.9,7.5,31.9,3.6,47.8-2.9c0.7-0.3,30.9-14.7,43.5-17.8l2.2-0.5c2.2-0.5,4.3-0.9,6.5-1.2V0H0z"/>
	</g>
	<g>
		<ellipse class="st5" cx="69.7" cy="93.6" rx="1.9" ry="0.7"/>
		<ellipse class="st5" cx="67" cy="91.7" rx="1.6" ry="0.6"/>
		<ellipse class="st5" cx="70.3" cy="91.9" rx="1.1" ry="0.4"/>
	</g>
	<g>
		<ellipse class="st5" cx="49.2" cy="57.5" rx="2.1" ry="0.8"/>
		<ellipse class="st5" cx="52.2" cy="59.6" rx="1.8" ry="0.7"/>
		<ellipse class="st5" cx="48.5" cy="59.3" rx="1.2" ry="0.5"/>
	</g>
	<path class="st6" d="M45.7,8.1C71.8,0,80.8,0,80.8,0L0,0v10.1C0,10.1,19.6,16.1,45.7,8.1z"/>
	<g>
		<path class="st7" d="M86.9,76.5c0.4,0.1,0.3,0.3,0.3,0.7c0.1,0.4-0.1,0.4,0,1c0.1,0.5-0.1,0.6-0.1,1.2c0.1,0.6,0.2,1,0.4,1.2
			c0.2,0.2,0.5,0.3,1.1,0.3s0.6,0,1.2,0l1,0.1c0.4,0.1,0.7-0.1,0.7,0.1s-0.3,0.3-0.7,0.5c-0.4,0.2-0.4,0.1-0.8,0.3l-1.1,0.5
			c-0.6,0.3-0.7,0.3-0.9,0.6c-0.2,0.3-0.1,0.6,0,1.1c0.1,0.6,0.2,0.6,0.3,1.1c0.1,0.5,0.2,0.5,0.3,1c0.1,0.4,0.1,0.7-0.1,0.7
			c-0.2,0.1-0.3-0.2-0.6-0.5c-0.3-0.3-0.2-0.4-0.5-0.8c-0.3-0.4-0.4-0.4-0.8-0.8c-0.4-0.4-0.7-0.6-0.9-0.6c-0.3,0-0.5,0.1-1,0.4
			l-1,0.5c-0.4,0.2-0.4,0.3-0.8,0.5c-0.4,0.2-0.6,0.4-0.8,0.3s0-0.4,0.2-0.8c0.2-0.4,0.4-0.3,0.6-0.7l0.6-1c0.3-0.5,0.5-0.6,0.3-1.1
			s-0.2-0.4-0.7-0.8c-0.5-0.4-0.4-0.5-0.8-0.9c-0.4-0.4-0.4-0.3-0.7-0.6c-0.3-0.3-0.4-0.4-0.4-0.6s0.2-0.1,0.6,0l0.9,0.2l1.1,0.3
			c0.6,0.2,0.8,0.5,1.2,0.2c0.4-0.3,0.3-0.4,0.5-1s0.3-0.6,0.5-1.1c0.2-0.5,0.3-0.5,0.4-0.9C86.5,76.7,86.6,76.4,86.9,76.5z"/>
		<path class="st8" d="M86.6,76.4c0.4,0.1,0.3,0.3,0.3,0.7c0.1,0.4-0.1,0.4,0,1s-0.1,0.6-0.1,1.2c0.1,0.6,0.2,1,0.4,1.2
			c0.2,0.2,0.5,0.3,1.1,0.3c0.6,0.1,0.6,0,1.2,0l1,0.1c0.4,0.1,0.7-0.1,0.7,0.1s-0.3,0.3-0.7,0.5c-0.4,0.2-0.4,0.1-0.8,0.3l-1.1,0.5
			c-0.6,0.3-0.7,0.3-0.9,0.6c-0.2,0.3-0.1,0.6,0,1.1c0.1,0.6,0.2,0.6,0.3,1.1c0.1,0.5,0.2,0.5,0.3,1s0.1,0.7-0.1,0.7
			s-0.3-0.2-0.6-0.5s-0.2-0.4-0.5-0.8c-0.3-0.4-0.4-0.4-0.8-0.8c-0.4-0.4-0.7-0.6-0.9-0.6c-0.3,0-0.5,0.1-1,0.4l-1,0.5
			c-0.4,0.2-0.4,0.3-0.8,0.5c-0.4,0.2-0.6,0.4-0.8,0.3c-0.2-0.1,0-0.4,0.2-0.8c0.2-0.4,0.4-0.3,0.6-0.7l0.6-1
			c0.3-0.5,0.5-0.6,0.3-1.1c-0.2-0.4-0.2-0.4-0.7-0.8C82.3,81,82.4,81,82,80.6c-0.4-0.4-0.4-0.3-0.7-0.6c-0.3-0.3-0.4-0.4-0.4-0.6
			c0.1-0.2,0.2-0.1,0.6,0l0.9,0.2l1.1,0.3c0.6,0.2,0.8,0.5,1.2,0.2s0.3-0.4,0.5-1c0.3-0.6,0.3-0.6,0.5-1.1c0.2-0.5,0.3-0.5,0.4-0.9
			C86.2,76.5,86.3,76.3,86.6,76.4z"/>
		<ellipse transform="matrix(0.1633 -0.9866 0.9866 0.1633 -7.6873 152.2699)" class="st9" cx="85.9" cy="80.7" rx="0.3" ry="0.3"/>
		<path class="st9" d="M87.3,81.8c0,0.2-0.2,0.3-0.4,0.3c-0.2,0-0.3-0.2-0.3-0.4c0-0.2,0.2-0.3,0.4-0.3c0,0,0,0,0,0
			C87.2,81.5,87.3,81.6,87.3,81.8z"/>
		<ellipse transform="matrix(0.1616 -0.9869 0.9869 0.1616 -8.999 153.1234)" class="st9" cx="85.6" cy="81.9" rx="0.5" ry="0.5"/>
		<ellipse transform="matrix(0.1616 -0.9869 0.9869 0.1616 -9.5932 154.7535)" class="st9" cx="86.3" cy="83" rx="0.3" ry="0.3"/>
		<ellipse transform="matrix(0.1633 -0.9866 0.9866 0.1633 -10.1774 155.9665)" class="st9" cx="86.9" cy="84" rx="0.2" ry="0.2"/>
		
			<ellipse transform="matrix(0.1616 -0.9869 0.9869 0.1616 -12.1714 152.7801)" class="st9" cx="83.8" cy="83.6" rx="0.2" ry="0.2"/>
		<ellipse transform="matrix(0.1633 -0.9866 0.9866 0.1633 -6.7651 155.0833)" class="st9" cx="88.1" cy="81.5" rx="0.2" ry="0.2"/>
		<ellipse transform="matrix(0.1595 -0.9872 0.9872 0.1595 -5.7147 151.3769)" class="st9" cx="86" cy="79" rx="0.2" ry="0.2"/>
		<ellipse transform="matrix(0.1616 -0.9869 0.9869 0.1616 -9.6475 150.155)" class="st9" cx="83.5" cy="80.8" rx="0.2" ry="0.2"/>
		
			<ellipse transform="matrix(0.1616 -0.9869 0.9869 0.1616 -10.8568 152.9094)" class="st9" cx="84.6" cy="82.8" rx="0.3" ry="0.3"/>
		<ellipse transform="matrix(0.1616 -0.9869 0.9869 0.1616 -9.4861 151.5667)" class="st9" cx="84.5" cy="81.4" rx="0.3" ry="0.3"/>
	</g>
	<g>
		<path class="st7" d="M76.4,42c0.4-0.4,0.5-0.1,1,0.2c0.5,0.3,0.4,0.4,1.1,0.7c0.6,0.4,0.5,0.6,1.3,1.1c0.7,0.5,1.3,0.5,1.6,0.5
			c0.3-0.1,0.7-0.4,1.3-1s0.5-0.7,1-1.3l0.9-1c0.4-0.4,0.4-0.8,0.7-0.7s0.1,0.6,0,1.2c-0.1,0.7-0.2,0.5-0.4,1.2
			c-0.1,0.7-0.2,0.8-0.4,1.6c-0.2,0.8-0.3,1,0,1.5c0.2,0.4,0.5,0.5,1.3,0.8c0.8,0.3,0.8,0.2,1.4,0.5c0.6,0.3,0.7,0.2,1.2,0.5
			c0.5,0.3,0.8,0.4,0.7,0.6c-0.1,0.2-0.5,0.2-1.1,0.3c-0.6,0.1-0.6-0.1-1.2,0c-0.7,0.1-0.7,0.2-1.5,0.3c-0.8,0.1-1.2,0.3-1.4,0.6
			c-0.2,0.3-0.3,0.6-0.4,1.4c-0.1,0.8-0.1,0.8-0.2,1.5c-0.1,0.7,0,0.7-0.1,1.3c-0.1,0.6-0.1,1-0.4,1.1c-0.3,0.2-0.5-0.3-0.7-0.8
			c-0.2-0.5,0-0.7-0.3-1.3c-0.3-0.6-0.3-0.7-0.6-1.4s-0.3-1.1-0.9-1.2c-0.6-0.1-0.6,0-1.4,0.2c-0.8,0.2-0.9,0.1-1.6,0.2
			s-0.7,0.2-1.3,0.3c-0.6,0.1-0.8,0.2-1,0c-0.2-0.2,0.1-0.4,0.5-0.7l1-0.9c0.6-0.5,0.6-0.5,1.2-1c0.6-0.6,1.1-0.5,1.1-1.2
			c0-0.4-0.2-0.6-0.7-1.4c-0.5-0.8-0.4-0.7-0.8-1.4c-0.4-0.7-0.3-0.7-0.7-1.1C76.3,42.6,76.2,42.3,76.4,42z"/>
		<path class="st8" d="M76,42.2c0.4-0.4,0.5-0.1,1,0.2s0.4,0.4,1.1,0.7s0.5,0.6,1.3,1.1c0.7,0.5,1.3,0.5,1.6,0.5s0.7-0.4,1.3-1
			c0.6-0.7,0.5-0.7,1-1.3l0.9-1c0.4-0.4,0.4-0.8,0.7-0.7c0.3,0.1,0.1,0.6,0,1.2c-0.1,0.7-0.2,0.5-0.4,1.2c-0.1,0.7-0.2,0.8-0.4,1.6
			s-0.3,1,0,1.5c0.2,0.4,0.5,0.5,1.3,0.8c0.8,0.3,0.8,0.2,1.4,0.5c0.6,0.3,0.7,0.2,1.2,0.5c0.5,0.3,0.8,0.4,0.7,0.6
			c-0.1,0.2-0.5,0.2-1.1,0.3s-0.6-0.1-1.2,0c-0.7,0.1-0.7,0.2-1.5,0.3c-0.8,0.1-1.2,0.3-1.4,0.6c-0.2,0.3-0.3,0.6-0.4,1.4
			s-0.1,0.8-0.2,1.5s0,0.7-0.1,1.3c-0.1,0.6-0.1,1-0.4,1.1c-0.3,0.2-0.5-0.3-0.7-0.8c-0.2-0.5,0-0.7-0.3-1.3
			c-0.3-0.6-0.3-0.7-0.6-1.4s-0.3-1.1-0.9-1.2s-0.6,0-1.4,0.2c-0.8,0.2-0.9,0.1-1.6,0.2c-0.7,0.2-0.7,0.2-1.3,0.3
			c-0.6,0.1-0.8,0.2-1,0c-0.2-0.2,0.1-0.4,0.5-0.7l1-0.9c0.6-0.5,0.6-0.5,1.2-1c0.6-0.6,1.1-0.5,1.1-1.2c0-0.4-0.2-0.6-0.7-1.4
			c-0.5-0.8-0.4-0.7-0.8-1.4c-0.4-0.7-0.3-0.7-0.7-1.1C75.9,42.9,75.8,42.5,76,42.2z"/>
		<path class="st9" d="M80.4,46c0.2,0.2,0.2,0.5,0,0.6c-0.2,0.2-0.5,0.2-0.6,0c-0.2-0.2-0.2-0.5,0-0.6C79.9,45.8,80.2,45.8,80.4,46z
			"/>
		<path class="st9" d="M82.5,45.7c0.2,0.2,0.2,0.5,0,0.6c-0.2,0.2-0.5,0.2-0.6,0c-0.2-0.2-0.2-0.5,0-0.6
			C82,45.5,82.3,45.5,82.5,45.7z"/>
		<path class="st9" d="M81.4,47c0.3,0.1,0.6,0.4,0.5,0.7c0,0,0,0,0,0c-0.1,0.3-0.4,0.6-0.7,0.5c-0.3-0.1-0.6-0.4-0.5-0.7
			c0,0,0,0,0,0C80.8,47.2,81.1,46.9,81.4,47z"/>
		<path class="st9" d="M83.4,47.4c0.2,0.2,0.2,0.5,0,0.6c-0.2,0.2-0.5,0.2-0.6,0c-0.2-0.2-0.2-0.5,0-0.6
			C83,47.2,83.2,47.2,83.4,47.4z"/>
		<ellipse transform="matrix(0.1633 -0.9866 0.9866 0.1633 -10.1774 155.9665)" class="st9" cx="86.9" cy="84" rx="0.2" ry="0.2"/>
		
			<ellipse transform="matrix(0.1616 -0.9869 0.9869 0.1616 -12.1714 152.7801)" class="st9" cx="83.8" cy="83.6" rx="0.2" ry="0.2"/>
		<path class="st9" d="M83,44.4c0.1,0.1,0.1,0.3,0,0.5c-0.1,0.1-0.3,0.1-0.5,0c0,0,0,0,0,0c-0.1-0.1-0.1-0.3,0-0.5
			C82.6,44.3,82.9,44.2,83,44.4C83,44.4,83,44.4,83,44.4z"/>
		<path class="st9" d="M79.2,45.1c0.1,0.1,0.1,0.3,0,0.5c-0.1,0.1-0.3,0.1-0.5,0c0,0,0,0,0,0c-0.1-0.1-0.1-0.3,0-0.5
			C78.9,45,79.1,45,79.2,45.1C79.2,45.1,79.2,45.1,79.2,45.1z"/>
		<ellipse transform="matrix(0.1616 -0.9869 0.9869 0.1616 -9.6475 150.155)" class="st9" cx="83.5" cy="80.8" rx="0.2" ry="0.2"/>
		<path class="st9" d="M81.9,49.2c0.2,0.2,0.2,0.5,0,0.6c-0.2,0.2-0.5,0.2-0.6,0c-0.2-0.2-0.2-0.5,0-0.6
			C81.4,49.1,81.7,49,81.9,49.2z"/>
		<path class="st9" d="M80.1,48.2c0.2,0.2,0.2,0.5,0,0.6c-0.2,0.2-0.5,0.2-0.6,0c-0.2-0.2-0.2-0.5,0-0.6C79.6,48,79.9,48,80.1,48.2z
			"/>
	</g>
	<g>
		<g>
			<path class="st10" d="M7.9,66.4l6.3-2c-0.9-0.5-1.9-0.7-2.9-0.6C10.1,64,8.7,64.9,7.9,66.4z"/>
			<path class="st10" d="M9.4,76.7l8.6-2.7c-0.1-0.8-0.2-1.6-0.3-2.3l-9,2.9C9,75.2,9.2,75.9,9.4,76.7z"/>
			<path class="st10" d="M7.7,71.4l0.1,0.4l9.3-3c-0.2-0.7-0.5-1.4-0.8-2.1l-9,2.9C7.4,70.2,7.5,70.8,7.7,71.4z"/>
			<path class="st10" d="M11.4,81.4l8.2-2.6c-0.3-0.7-0.6-1.4-0.9-2.1l-8.2,2.7C10.8,80.1,11.1,80.8,11.4,81.4z"/>
			<path class="st10" d="M14.5,85.8l6.4-2c0-0.8-0.1-1.5-0.3-2.3L12.9,84C13.3,84.7,13.9,85.3,14.5,85.8z"/>
			<path class="st10" d="M7.3,69.6l9-2.9c-0.6-1.1-1.2-1.8-2.1-2.4l-6.3,2C7.4,67.4,7.2,68.5,7.3,69.6z"/>
			<path class="st10" d="M8.7,74.5l9-2.9c-0.1-0.9-0.4-1.9-0.6-2.8l-9.3,3L8.7,74.5z"/>
			<path class="st10" d="M10.5,79.4l8.3-2.6c-0.3-0.9-0.6-1.8-0.7-2.6v-0.3l-8.6,2.8C9.8,77.6,10.1,78.5,10.5,79.4z"/>
			<path class="st10" d="M12.9,84l7.7-2.5c-0.3-0.9-0.6-1.8-1-2.7l-8.2,2.6C11.8,82.3,12.3,83.2,12.9,84z"/>
			<path class="st10" d="M19.5,86.1c0.8-0.5,1.4-1.3,1.4-2.3l-6.4,2C15.9,86.9,17.6,87.2,19.5,86.1z"/>
		</g>
		<path class="st11" d="M8.7,78c1,2.4,3.6,3.2,3.6,2.3c0-1.2-2.2-0.8-2.7-2.2c-0.7-2,4.5-8.5,4.5-8.5l-0.5-1.1
			C13.6,68.5,7.6,75.5,8.7,78z"/>
		<path class="st11" d="M19,74.7c0.7,1.6-1.3,2.9-0.7,3.9c0.4,0.7,1.5-0.8,1.6-3.3c0.1-3.3-6.3-6.7-6.3-6.7l0.2,1.2
			C13.8,69.7,17.9,72.2,19,74.7z"/>
		<path class="st11" d="M13,68.5l0.5,1.2c0.1,0.2,0.3,0.3,0.5,0.2c0,0,0,0,0,0c0.2-0.1,0.3-0.3,0.2-0.5c0,0,0,0,0,0l-0.5-1.2
			c-0.3-0.7-0.6-1-0.8-0.9C12.7,67.4,12.7,67.8,13,68.5z"/>
		<g>
			<path class="st7" d="M23.7,57.1c-0.7,0.7-1.1,1.6-1.4,2.7c-0.2,0.7-0.2,1.5-0.3,2.2c0,1,0,1.9,0.2,2.9c0.1,0.7,0.2,1.5,0.4,2.3
				l0.1,0.2c0.2,0.8,0.1,1.7,0.1,2.6c-0.1,0.9-0.2,1.5-0.3,2.2c-0.1,0.9-0.2,1.9-0.3,2.8c0,0.8,0.1,1.5,0.3,2.3c0.3,0.9,1.1,1.7,2,2
				c2.2,0.7,3.7,0.1,4.7-1.3c0.5-0.7,0.8-1.4,1.1-2.1c0.3-0.9,0.6-1.8,0.7-2.8c0.1-0.7,0.3-1.4,0.3-2.2c0.1-0.8,0.2-1.9,0.3-2.8
				s0.1-1.5,0.1-2.2c0.1-1,0.1-2,0.1-2.8v-0.4c0-0.6,0-1.2-0.1-1.8c-0.2-1.1-0.7-2.1-1.5-3c-1.2-1.3-2.8-1.9-4-1.8
				S24.4,56.4,23.7,57.1z"/>
			<g>
				<path class="st10" d="M22.7,57.4l6.7,0.7c-1.2-1.3-2.8-1.9-4-1.8S23.3,56.7,22.7,57.4z"/>
				<path class="st10" d="M21.5,67.4l9.1,0.9c0.1-0.8,0.1-1.5,0.1-2.2l-9.6-1C21.3,65.9,21.4,66.6,21.5,67.4z"/>
				<path class="st10" d="M21,62.3l9.8,1v-0.4c0-0.6,0-1.2-0.1-1.8l-9.5-1C21.1,60.8,21,61.5,21,62.3z"/>
				<path class="st10" d="M21.4,72.5l8.7,0.9c0.1-0.7,0.3-1.4,0.3-2.2l-8.8-0.9C21.6,71,21.5,71.7,21.4,72.5z"/>
				<path class="st10" d="M21.4,77.6l6.8,0.7c0.5-0.7,0.8-1.4,1.1-2.1l-8.2-0.8C21.1,76.1,21.2,76.8,21.4,77.6z"/>
				<path class="st10" d="M21.3,60.1l9.5,1c-0.2-1.1-0.7-2.1-1.5-3l-6.7-0.7C22,58,21.5,58.9,21.3,60.1z"/>
				<path class="st10" d="M21.2,65.1l9.6,1c0.1-1,0.1-2,0.1-2.8l-9.8-1C21,63.2,21.1,64.2,21.2,65.1z"/>
				<path class="st10" d="M21.6,67.7c0.2,0.8,0.1,1.7,0.1,2.6l8.8,0.9c0.1-0.9,0.2-1.9,0.3-2.8l-9.1-0.9L21.6,67.7z"/>
				<path class="st10" d="M21.1,75.3l8.2,0.8c0.3-0.9,0.6-1.8,0.7-2.8l-8.7-0.9C21.2,73.4,21.1,74.4,21.1,75.3z"/>
				<path class="st10" d="M23.5,79.5c2.2,0.7,3.7,0.1,4.7-1.3l-6.8-0.7C21.8,78.5,22.5,79.2,23.5,79.5z"/>
			</g>
			<path class="st11" d="M30.9,69.7c-0.1,1.5-2.4,1.6-2,2.7c0.2,0.8,2.6-0.5,2.9-3s-7.4-8.2-7.4-8.2l-0.2,1.2
				C24.2,62.4,31.1,67.7,30.9,69.7z"/>
			<path class="st11" d="M20.1,69.1c0.8,2.4,2.2,3.7,2.4,2.9c0.3-1.1-2-1.9-1.8-3.6c0.4-2.6,3.7-5.9,3.7-5.9l-0.1-1.2
				C24.4,61.2,19.1,65.9,20.1,69.1z"/>
			<path class="st11" d="M24.2,61L24,62.4c0,0.2,0.1,0.4,0.4,0.4c0.2,0,0.4-0.1,0.4-0.3c0,0,0,0,0,0l0.2-1.3
				c0.1-0.8-0.1-1.2-0.3-1.2S24.3,60.3,24.2,61z"/>
		</g>
	</g>
</g>
</svg>
