<?xml version="1.0" encoding="utf-8"?>
<!-- Generator: Adobe Illustrator 21.0.2, SVG Export Plug-In . SVG Version: 6.00 Build 0)  -->
<svg version="1.1" id="Layer_1" xmlns="http://www.w3.org/2000/svg" xmlns:xlink="http://www.w3.org/1999/xlink" x="0px" y="0px"
	 viewBox="0 0 100 107.4" style="enable-background:new 0 0 100 107.4;" xml:space="preserve">
<style type="text/css">
	.st0{fill:#FECCAA;}
	.st1{fill:#FC3A3B;}
	.st2{fill:#35B131;}
	.st3{fill:#FACAA9;}
	.st4{fill:#FECBAA;}
	.st5{fill:#FDCBAB;}
	.st6{fill:#040404;}
	.st7{fill:#098080;}
	.st8{fill:#969696;}
	.st9{fill:#FDCBA9;}
	.st10{fill:#0C7E7E;}
	.st11{fill:#FEFEFD;}
	.st12{fill:#3CB9EA;}
</style>
<title>Artboard 1</title>
<g>
	<path class="st0" d="M86,0c2.8,2.2,3,2.4,1.3,5c-3.4,4.9-5.2,10.6-8.6,15.5C75.3,25.4,71,29.6,65,31.1c-3,0.8-4.7,3.3-7.1,5
		l-0.6-0.3c-2.9-2-2.8-5.2-3.2-8.2c9.5,0,17.4-3.6,22.9-11.5c2-2.8,3.7-5.8,5.6-8.8c0.4-0.5,0.6-1.1,0.6-1.8C83,3.3,83.9,1.6,85.5,0
		H86z"/>
	<path class="st1" d="M54,27.7c0.5,3,0.3,6.2,3.2,8.2l0.6,0.3c-0.1,8.3-0.3,16.5-0.3,24.8c0,1.1-0.5,1.4-1.4,1.3
		c-5.7,0.6-11.4,0.9-17.1,0.9c-1.1-0.7-0.9-1.8-1-2.9c-0.3-7.8-0.5-15.5-0.8-23.2c1.5,0.1,2.2-0.7,2.8-2c0.9-2.3,0.8-4.6,0.5-6.9
		h1.8c0.9,2.3,1.8,4.6,3.5,6.4c1.7,1.9,4.9,1.9,6.1-1.1c0.8-1.9,0.6-3.9,0.9-5.8L54,27.7z"/>
	<path class="st2" d="M39,63.2c5.7,0,11.4-0.4,17.1-0.9c3.2,2.4,6.4,4.8,10.3,6.1c-0.9,1.2-2.6,1.7-3.1,3.2c-1.1,2.8-3.3,3.3-6,3.1
		c-2.8-0.2-5-0.7-7.4,0.3c-1.8,2.1-4,3.7-6.3,5.1c-3.5-1.2-6.7-2.7-8.3-6.3l1.5-6.2C37,66,37.6,64.4,39,63.2z"/>
	<path class="st3" d="M52.7,27.5c-0.2,1.9-0.1,3.9-0.9,5.8c-1.2,3-3.9,3.6-6.1,1.1c-2.2-2.4-2.6-4.1-3.5-6.5c0.5-0.2,1-0.4,1.6-0.5
		c1.4-0.1,2.4-0.5,2.4-2.2c0-1.7,0-2.6-1.9-2.8c-1.9-0.1-2-1.1-3-1.8c-0.2-1.5-0.6-2.9-0.8-4.4s0.7-2.1,2.2-1.4c0.5,0.3,1,0.7,1.5,1
		c-0.4-3.6,3.8-5.5,2.9-9.3c2.2,0,4.5-0.5,6.5-1.4l4.3,8.9c0.5,1,0.9,1.9-0.6,2.4c-1.5,0.5-1.4,1.4-1.9,2.3c-1.2,2-1.9,4.5-4.9,4.9
		c-1.2,0.2-0.5,1.6-0.6,2.5c-0.1,0.5,0.2,1.1,0.8,1.2c0.1,0,0.2,0,0.3,0L52.7,27.5z M52,10.5c-0.7,0.2-1.8,0.3-1.8,1.1
		c0,0.9,0.9,1.1,1.8,1.1c0.8,0,1.2-0.6,1.2-1.4C53.2,10.6,52.7,10.5,52,10.5z"/>
	<path class="st4" d="M35.2,73.9c1.6,3.6,4.8,5.1,8.3,6.3C39,83.6,35.8,88.3,31.6,92c-5.1,4.5-10.9,7.5-17.9,7.6
		c-1.6-0.1-3.1-0.3-4.7-0.8c-0.8-0.3-1.7,0-2.3,0.7c0.1-0.7-0.2-1.2-0.6-1.8v-3.2C20.8,94.5,29.4,86.1,35.2,73.9z"/>
	<path class="st5" d="M40.5,28.1c0.2,2.3,0.4,4.7-0.5,6.9c-0.5,1.3-1.2,2.1-2.8,2c-0.3-0.3-0.6-0.6-1-0.4c-5.1,2.2-10.6,3.7-14.5,8
		s-6.6,9-9.4,13.9c-0.5,0.9-0.2,2-0.3,3c0,1-1.1,2.3-2.2,2.8c-1,0.6-1.5-0.6-2.3-0.9c-0.6-0.2-0.9-0.9-0.7-1.5
		c0-0.1,0.1-0.2,0.2-0.3c4.9-7.5,7.3-16.5,14.2-22.8c2.4-2.1,4.8-4,8-4.8c2.2-0.6,4.2-1.8,5.7-3.6C36.3,28.8,38.1,27.7,40.5,28.1z"
		/>
	<path class="st6" d="M53.7,5.4c-2,0.9-4.3,1.4-6.5,1.4c0.9,3.8-3.3,5.7-2.9,9.3c-0.5-0.4-1-0.7-1.5-1c-1.5-0.7-2.3-0.2-2.2,1.4
		c0.1,1.7,0.5,2.9,0.8,4.4c-0.5,0.9-1.1,0.7-1.7,0.2c-1.1-0.8-1.8-2-2-3.3c-0.4-3.3-0.7-6.5-1.2-9.8c-0.3-1.8,0.9-3.4,0.1-5.2
		c-0.3-0.8,0.9-0.9,1.6-1c2.5-0.3,5,0.1,7.5,0.4c2.5,0.2,5.5,0.4,8.2-0.1c0.6-0.1,1.4-0.8,1.9,0.1s0,1.7-0.7,2.3S54.1,5,53.7,5.4z"
		/>
	<path class="st7" d="M6.2,97.7c0.3,0.6,0.7,1.1,0.6,1.8l-0.5,0.2c-0.3,0-0.4,0.1-0.5,0.4c-2.2,1.9-2.5,4.5-2.8,7.2
		c-0.3,0.2-0.7,0.2-1,0c-1-0.7-1.1-1.9-1.5-2.9s0.1-1.3-0.4-1.9c0-2.2-0.1-4.4-0.1-6.5c0-1.2,1.9-2.3,3.1-1.6c0.6,0.3,1,0.6,1.7,0.7
		C5.4,95.8,3.5,97.9,6.2,97.7z"/>
	<path class="st8" d="M6.2,97.7c-2.8,0.2-0.9-1.9-1.4-2.8c0.3-0.6,0.9-0.5,1.5-0.5L6.2,97.7z"/>
	<path class="st9" d="M59.3,74.6c2.3-0.8,2.5-0.5,4-3.1s2.2-2,3.1-3.2c6.2,2.3,12,5.4,17,9.8c3.3,2.9,5.9,6.1,5.4,10.8
		c-0.1,1.1,0.7,2.1,0,3.2l-4.3,1.4C81.8,84.1,74.3,79.9,66,76.4C62.1,74.7,60.8,74.6,59.3,74.6z"/>
	<path class="st10" d="M91.8,99.7h-0.6c-0.5,0-0.6-0.3-0.9,0l-0.5,0.1l-0.5,0.1l-1,0.2c-0.4,0.1-0.8,0.1-1.2,0
		c-1.8-0.5-1.2-2.3-1.9-3.4c1.7-0.6,3.1-1.5,3.7-3.3c3.2,2.3,6.5-0.6,9.9,0.2c0.4,0,2.7-0.2-0.4,2.7l-0.9,0.9l-1.2,0.7
		c-0.3,0.1-0.5,0.2-0.8,0.3l-2.8,1.5h-0.6"/>
	<path class="st8" d="M88.8,93.4c-0.6,1.8-2,2.7-3.7,3.3L85,95.9l0,0c1-1-0.8-1.5-0.5-2.4l4.3-1.4V93.4z"/>
	<path class="st11" d="M85,95.9l-0.2-0.1L85,95.9z"/>
	<path class="st11" d="M5.8,100.1c0-0.2,0.2-0.4,0.5-0.4L5.8,100.1z"/>
	<path class="st12" d="M52,10.5c0.7,0,1.1,0.1,1.1,0.9s-0.3,1.4-1.2,1.4c-0.9,0-1.8-0.1-1.8-1.1S51.3,10.8,52,10.5z"/>
</g>
</svg>
