<svg id="Layer_1" data-name="Layer 1" xmlns="http://www.w3.org/2000/svg" width="217" height="233" viewBox="0 0 217 233">
  <defs>
    <style>
      .cls-1 {
        fill: #feccaa;
      }

      .cls-2 {
        fill: #fc3a3b;
      }

      .cls-3 {
        fill: #35b131;
      }

      .cls-4 {
        fill: #facaa9;
      }

      .cls-5 {
        fill: #fecbaa;
      }

      .cls-6 {
        fill: #fdcbab;
      }

      .cls-7 {
        fill: #040404;
      }

      .cls-8 {
        fill: #098080;
      }

      .cls-9 {
        fill: #969696;
      }

      .cls-10 {
        fill: #fdcba9;
      }

      .cls-11 {
        fill: #0c7e7e;
      }

      .cls-12 {
        fill: #fefefd;
      }

      .cls-13 {
        fill: #3cb9ea;
      }
    </style>
  </defs>
  <title>Artboard 1</title>
  <g>
    <path class="cls-1" d="M185,1c5.9,4.7,6.4,5.1,2.7,10.5-7.1,10.3-10.9,22.4-18.1,32.7s-16.1,19.1-28.9,22.4c-6.3,1.6-10,6.9-14.9,10.6l-1.3-.6c-6.2-4.2-5.8-11-6.8-17.3,20.1,0,36.6-7.5,48.3-24.2,4.2-6,7.9-12.3,11.7-18.5a7.1,7.1,0,0,0,1.3-3.7C178.7,8,180.7,4.3,184,1Z"/>
    <path class="cls-2" d="M117.6,59.3c1,6.3.6,13.1,6.8,17.3l1.3.6c-.3,17.4-.6,34.8-.7,52.3,0,2.3-1,2.9-3,2.7-12,1.2-24,2-36.1,2-2.4-1.5-2-3.8-2.1-6.1q-.8-24.5-1.6-48.9c3.2.3,4.6-1.5,5.8-4.2,2-4.8,1.6-9.7,1.1-14.6h3.7c1.8,4.9,3.8,9.6,7.3,13.5s10.3,4,12.9-2.4c1.6-3.9,1.3-8.2,1.8-12.3Z"/>
    <path class="cls-3" d="M86,134.1c12.1,0,24.1-.8,36.1-2,6.8,5,13.5,10.2,21.7,12.8-2,2.5-5.4,3.6-6.6,6.8-2.3,5.9-6.9,7-12.7,6.6s-10.5-1.5-15.6.7c-3.7,4.5-8.5,7.7-13.3,10.8-7.3-2.5-14.1-5.6-17.5-13.3l3.1-13C81.8,140,83.1,136.7,86,134.1Z"/>
    <path class="cls-4" d="M114.8,59c-.5,4.1-.2,8.3-1.8,12.3-2.6,6.4-8.3,7.5-12.9,2.4S94.6,65,92.8,60.1a14.7,14.7,0,0,1,3.3-1.1c3-.3,5-1.1,5-4.7s-.1-5.5-4-5.8-4.3-2.4-6.3-3.7c-.5-3.1-1.3-6.2-1.6-9.3s1.5-4.5,4.6-3a25,25,0,0,1,3.2,2.2c-.8-7.6,8.1-11.6,6.2-19.6a33.2,33.2,0,0,0,13.7-2.9L126,31c1,2.1,1.9,4-1.3,5s-2.9,3-4,4.8c-2.6,4.3-4.1,9.4-10.3,10.4-2.6.4-1.1,3.4-1.3,5.2a2.1,2.1,0,0,0,2.3,2.5Zm-1.5-35.8c-1.4.5-3.7.6-3.8,2.4s2,2.3,3.7,2.3,2.6-1.2,2.6-2.9S114.8,23.1,113.3,23.2Z"/>
    <path class="cls-5" d="M78,156.7c3.4,7.6,10.2,10.8,17.5,13.3-9.6,7.1-16.3,17.1-25.1,24.9-10.7,9.5-23,15.8-37.7,16.1a38.3,38.3,0,0,1-9.8-1.6,4.2,4.2,0,0,0-4.8,1.4c.3-1.5-.5-2.6-1.2-3.8v-6.8C47.6,200.1,65.7,182.5,78,156.7Z"/>
    <path class="cls-6" d="M89.1,60.2c.5,4.9.9,9.8-1.1,14.6-1.1,2.8-2.6,4.5-5.8,4.2-.6-.7-1.3-1.2-2.2-.9C69.3,82.7,57.7,86,49.4,95s-14,19-19.8,29.2c-1.1,2-.5,4.2-.6,6.4s-2.4,4.8-4.6,6-3.2-1.2-4.8-2a2.4,2.4,0,0,1-1-3.8c10.4-15.7,15.3-34.8,29.9-48,5-4.5,10.2-8.5,16.9-10.2a22.6,22.6,0,0,0,12-7.6C80.3,61.6,84.1,59.3,89.1,60.2Z"/>
    <path class="cls-7" d="M116.9,12.3a33.2,33.2,0,0,1-13.7,2.9c1.9,8-7,12-6.2,19.6a25,25,0,0,0-3.2-2.2c-3.1-1.5-4.9-.5-4.6,3s1,6.2,1.6,9.3c-1,2-2.3,1.5-3.6.4a11,11,0,0,1-4.3-7c-.9-6.9-1.5-13.8-2.6-20.7-.6-3.7,1.8-7.1.3-11C80,5,82.5,4.7,84,4.5c5.3-.6,10.6.3,15.9.8s11.6.8,17.3-.3c1.2-.2,3-1.7,4,.3s.1,3.6-1.4,4.9S117.9,11.6,116.9,12.3Z"/>
    <path class="cls-8" d="M16.9,206.9c.6,1.2,1.5,2.3,1.2,3.8l-1.1.4c-.7-.1-.9.3-1,.8-4.6,4-5.3,9.5-5.9,15.1a1.7,1.7,0,0,1-2.1,0c-2.1-1.5-2.4-3.9-3.1-6.1s.2-2.8-.8-4q-.1-6.9-.3-13.8c-.1-2.5,3.9-4.8,6.6-3.4,1.2.6,2.2,1.3,3.5,1.4C15.1,202.9,11.1,207.4,16.9,206.9Z"/>
    <path class="cls-9" d="M16.9,206.9c-5.8.5-1.8-4-3-5.8.7-1.3,1.9-1.1,3.1-1Z"/>
    <path class="cls-10" d="M128.8,158.3c4.8-1.7,5.2-1.1,8.4-6.6s4.6-4.3,6.6-6.8c13.1,4.8,25.2,11.4,35.8,20.7,6.9,6.2,12.5,12.8,11.4,22.8-.3,2.3,1.5,4.4,0,6.7l-9,2.9c-5.9-19.8-21.7-28.7-39.2-36.1C134.7,158.5,131.9,158.3,128.8,158.3Z"/>
    <path class="cls-11" d="M197.3,211.1H196c-1.1-.1-1.3-.6-1.9-.1l-1,.2-1.1.2-2.1.4a5.2,5.2,0,0,1-2.6,0c-3.8-1-2.5-4.8-3.9-7.1,3.5-1.3,6.5-3.1,7.7-6.9,6.8,4.8,13.6-1.2,20.9.5.8.1,5.7-.5-.8,5.6l-2,1.9-2.6,1.5a5.3,5.3,0,0,0-1.6.7l-5.9,3.1h-1.3"/>
    <path class="cls-9" d="M191,197.8c-1.2,3.8-4.2,5.6-7.7,6.9L183,203h0c2.1-2.2-1.7-3.1-1-5l9-2.9Z"/>
    <path class="cls-12" d="M183,203l-.4-.2.4.2Z"/>
    <path class="cls-12" d="M16,212c.1-.5.4-.9,1-.8Z"/>
    <path class="cls-13" d="M113.3,23.2c1.5-.1,2.4.2,2.4,1.8s-.7,3-2.6,2.9-3.8-.3-3.7-2.3S111.9,23.7,113.3,23.2Z"/>
  </g>
</svg>
