<?xml version="1.0" encoding="utf-8"?>
<!-- Generator: Adobe Illustrator 21.0.2, SVG Export Plug-In . SVG Version: 6.00 Build 0)  -->
<svg version="1.1" id="Layer_1" xmlns="http://www.w3.org/2000/svg" xmlns:xlink="http://www.w3.org/1999/xlink" x="0px" y="0px"
	 viewBox="0 0 150 101.5" style="enable-background:new 0 0 150 101.5;" xml:space="preserve">
<style type="text/css">
	.st0{fill:#191918;}
	.st1{fill:#D5D4CF;}
	.st2{fill:#C8C8C8;}
	.st3{fill:#969696;}
	.st4{fill:#061834;}
	.st5{fill:#727D95;}
	.st6{fill:#5B6D8C;}
</style>
<title>Artboard 1</title>
<g>
	<path class="st0" d="M0,30.6c1.9-3.5,5.1-4.1,8.4-4.1c4.9-0.1,9.9,0.2,14.7-0.9c9.5-2.3,18.1-6.4,24.5-14.9c2.8-3.7,6-4.7,10.1-2.8
		c5.1,2.3,10.1,1.7,14.8-2c3.3-2.6,6.9-3.7,10.4-0.9c9.2,7.4,19.5,8.1,30.2,6.3s20.3-6,29.8-11.2h4.1c1.7,0.9,2.5,2.6,3.1,4.5v7.9
		c-0.9,0.8-0.7,2-0.9,3.1c-4.2,18.3-13.4,31.7-29.9,38.1l-12.8,4.9c-2,0.7-3.8,1.7-5.5,2.8c-0.9,0.6-1.5,1-0.6,2.5
		c1.9,3-1,3.7-2.4,5.2c1.8,2.2,4.3,2.5,6.6,3c6.1,1.2,12.2,0.8,18.3,1.7c4.6,0.7,9,1.8,13,4.5c4,2.7,6.8,6,7,11.4
		c0.3,6.9-3,11.2-9.2,11.8c-7.8,0.7-15-1.6-21.5-6.3c-1.4-1.1-3.5-2.8-2.5-4.5c1-1.7,2.8,0.5,4.2,1.2c5.2,2.8,10.5,5.3,16.6,4.7
		c1.3-0.1,2.5-0.4,3.7-0.8c1.5-0.6,3.1-1.4,3.3-3.5s-1-3.5-2.5-4.6c-3.3-2.3-6.9-3.1-10.7-3.1c-6.4-0.1-12.8-0.2-19.1-1.1
		c-8.2-1.2-16.2-3.1-23.7-7.3c-0.9-0.6-1.8-0.9-2.8-0.2c-0.5,0.3-1.1,0.6-1.7,0.7c-1.8,0.4-3.8,1.3-5.3-0.4
		c-1.5-1.7-0.5-3.8,0.2-5.5c0.7-1.7-0.1-2.2-1.1-2.8c-4.9-3.3-10.4-4.4-16-5.2c-12-1.7-23.9-3.6-35.1-9c-2.8-1.3-5.5-2.8-8.1-4.4
		c-5-3.4-9.4-7.5-11.6-13.9V30.6z M112.5,92.7l-0.5-0.2l0.3,0.5c6.9,5.7,14.6,7.8,22.9,6.4c2.2-0.4,4.4-1.4,5.2-4.3
		c0.1-1.3,1.1-2.2,1.2-3.6c0.5-5.6-2-9.3-6.1-12c-5.2-3.5-11.1-4.4-17-4.9c-6-0.5-12.9-0.1-19-2.8c-2.2-0.9-4.5-1.2-6.8-0.8
		c0.7,0.3,1.4,0.5,2-0.4c-0.8-0.7-1.5-0.5-2.3-0.1c-0.7-0.6-2.2-0.2-2.3-2c2.8,0.9,5.3-0.5,7.8-1.6c2.5-1.2,2.2-1.9,0.7-4
		c-0.8-1.1-2.2-1.5-2.4-3.1c1.2-0.3,1.8,2,3.4,0.6c1.5-1.4,4.9-3,7.5-4c6.3-2.4,12.8-4.5,18.8-8c6-3.5,11.3-8.3,14.8-15.1l0,0
		c0.5-0.4,0.9-1.1,0.9-1.8c4.1-7.2,6.7-15,7.1-23.6c0.2-3.2-1.2-4.4-4-3.3c-2.2,0.9-4.3,1.9-6.3,3.1c-8.9,4.9-18,9-28,9.4h-3.1
		c-0.2-0.3-0.6-0.3-0.9-0.1c0,0,0,0-0.1,0.1c-5.7-0.1-11.5-0.7-17.2-1.3c-5.7-0.6-11.8-1.4-17.2,2.1c-4.1,2.6-8.1,3-12.5,2
		c-3.8-0.9-7.8-0.3-11.1,1.6c-4.1,2.2-8.1,4.3-12.3,6.2c-8,3.5-16.1,6-24.9,4.4c-2.6-0.5-5.4-0.5-8,1.1c-1.6,1-1.4,1.8-0.8,3.3
		c1.6,4,4.3,6.8,7.5,9.2C18.2,51.9,28,56,38.3,57.8c5,1.7,10.1,1.8,15.2,2.7l9.6,1.7c-0.5-1.2-1.4-1.8-2.1-2.4
		c-2.6-2.2-5.4-4.2-6.8-7.7c0.2,0.1,0.4,0,0.5,0.1c4.7,5.7,11.2,8.6,16.4,13.5c0.7,0.7,1.5,1.2,2.5,1.1h-0.1c0.3,2.2-1,4.1-1.2,6.2
		s0.4,2.5,2,2.3c1.6-0.2,4.7-0.4,6.5-2.4c0.3-0.4,0.8-0.5,1.2-0.3c0.1,0.1,0.2,0.2,0.3,0.4c1.1,2,1,2,1.9,2.4c8,4,16.4,5.6,25.1,6.6
		c6.4,0.7,12.9,0,19.3,1.1c3.4,0.6,6.6,1.8,9,4.8s1.7,6.1-1.2,8s-6.7,2.2-10.2,1.9C121.3,97,116.8,95.1,112.5,92.7z M137.2,6.7
		c3.3-1.5,6.3-3.9,10.4-4c-1.4-1.7-2.9-1.3-4.2-0.8c-2.4,0.7-4.6,1.8-6.7,3.2l-1.4,0.5c-9.4,4.3-19,7.6-29.2,8.1
		c-2.6-0.4-5.4,0.7-7.8,0.1c-5.1-1.4-10.3-2.9-14.7-6.4l-0.4-0.3l-0.9-0.6c-2.8-2.4-5.7-1.8-8.3,0.2c-4.1,3.2-8.5,4.6-13.4,4
		l-1.1-0.4C58.8,10,58,9.7,57.2,9.3c-3.3-1.6-6-1.1-8.3,2.1c-2.4,3.2-5.7,6.2-8.9,8.9c-6,3.4-12.2,6-18.9,7.2
		c-2.2,0.4-4.6-0.3-6.6,1.3c-3.6-1.3-7.6-1.1-11.1,0.4c-0.6,0.3-1.6,0.4-1.2,1.4s1.2,0.4,1.8,0.3c2.5-0.6,5.1-0.7,7.6-0.3
		c4.4,0.8,9,0.5,13.3-0.6c7.8-2,14.9-5.8,22.1-9.5c3.9-2.1,7.8-2.9,12.1-2c3.2,0.6,6.5,1.7,9.4-0.5c8-5.9,16.8-3.7,25.4-3
		c4.1,0.4,8.2,0.4,12.2,1.2h2.5c0.4,0.1,0.8,0.1,1.1-0.4C119.6,15.7,128.6,11.7,137.2,6.7z"/>
	<path class="st1" d="M150,4.5c-0.5-2-1.4-3.6-3.1-4.5C150,0,150,0,150,4.5z"/>
	<path class="st2" d="M126,98c3.5,0.3,7.1,0.2,10.2-1.9c3.2-2.1,3.5-5.1,1.2-8c-2.3-2.9-5.5-4.2-9-4.8c-6.4-1.1-12.9-0.3-19.3-1.1
		c-8.6-1-17.1-2.6-25.1-6.6c-0.9-0.5-0.8-0.5-1.9-2.4c-0.2-0.4-0.7-0.6-1.1-0.4c-0.1,0.1-0.3,0.2-0.4,0.3c-1.8,2-4.2,2.1-6.5,2.4
		c-2.3,0.3-2.1-0.5-2-2.3s1.4-4,1.2-6.2h0.4l-0.1-0.4L73.4,67c-1,0.2-1.7-0.4-2.5-1.1C65.7,61,59.2,58,54.6,52.4
		c-0.1-0.1-0.3-0.1-0.5-0.1c-0.6-2.5-2.9-3.8-3.4-6.4c-0.6,2.9,0.7,5.3,1.7,7.6c1,2.4,0.3,3.2-1.6,3.5c-1.9,0.3-4.9,1.2-7.5,0.5
		c-1.6-0.4-3.5-0.8-5.1,0.4c-10.3-1.8-20.1-6-28.5-12.1c-3.3-2.4-5.9-5.2-7.5-9.2c-0.6-1.5-0.7-2.3,0.7-3.2c2.6-1.5,5.3-1.5,8-1.1
		c8.8,1.6,16.9-0.8,24.9-4.4c4.2-1.8,8.3-4,12.3-6.2c3.4-1.9,7.3-2.5,11.1-1.6c4.4,1,8.5,0.6,12.5-2c5.4-3.4,11.4-2.6,17.2-2.1
		c5.8,0.6,11.5,1.2,17.2,1.3h2.1l0.2,0.1l0.2-0.1h1.6c10.1-0.4,19.2-4.5,28-9.4c2-1.2,4.1-2.2,6.3-3.1c2.7-1.1,4.1,0.1,4,3.3
		c-0.4,8.6-3,16.3-7.1,23.6c-1.2,0-1.2,0.8-0.9,1.8l0,0c-1.3-0.4-1.8,0.8-2.5,1.6c-3.7,4.3-8,7.4-13.5,8.2c-8,1-15.3-0.6-21.4-6.9
		c-2-2.1-4.5-3.6-7.2-4.5c-0.9-0.3-1.9-0.5-2.8,0.2c0.4,1,1.5,1.3,1.4,2.4c-0.6-0.1-1-0.1-0.7,0.8c2.1,6.9,1.9,14,1.8,21.1
		c0,1.2-0.5,2.5,0.5,3.5c1,1.1,1.6,2.1,2.4,3.1c1.5,2.1,1.5,2.9-0.7,4s-4.9,2.5-7.8,1.6c0.1,1.8,1.6,1.3,2.3,2l0.3,0.4
		c2.3-0.3,4.7,0,6.8,0.8c6.1,2.6,12.7,2.3,19,2.8c6.4,0.5,11.8,1.4,17,4.9c4.1,2.7,6.5,6.4,6.1,12c-0.1,1.4-1.1,2.3-1.2,3.6
		c-0.7,0.1-1.2,0.7-1.7,1.2C134.7,99.3,130.4,99.5,126,98z M65.7,37.5c5.1,0.1,8.8-2.8,10.1-6.5c0.2-0.6,0.5-1.3,0.1-1.8
		c-0.5-0.6-0.8-0.3-1.2-0.1c-4.7,2.4-9.8,3.5-15.1,3.4c-0.5-0.1-1.1,0.2-1.3,0.7c-0.2,0.8,0.4,1.2,0.9,1.5
		C61.5,36.4,64.1,37.4,65.7,37.5z M86.2,32.8l-3.3,4C84.9,36.3,86.1,35.4,86.2,32.8L86.2,32.8z M75.3,23.2c-0.6,0.2-1.4,0.5-1.3,1.4
		c0,0.6,0.5,1,1.1,0.9c0.1,0,0.2,0,0.3-0.1c0.6-0.2,1.2-0.4,1.2-1.2S76.1,23.2,75.3,23.2z M56.8,28.6c0.5-0.2,1.1-0.3,1-1.2
		c-0.1-0.8-0.7-0.9-1.3-0.9s-1.3,0.2-1.3,0.9S56,28.5,56.8,28.6z"/>
	<path class="st3" d="M96,60.1c-0.9-1.1-0.5-2.3-0.5-3.5c0.2-0.3,0.3-0.6,0.4-0.9c1.4-7.2,0.6-14.1-1.5-21c0.1-1.1-1-1.4-1.4-2.4
		c0.9-0.7,1.9-0.5,2.8-0.2c2.7,0.9,5.2,2.5,7.2,4.5c6.1,6.3,13.4,7.9,21.4,6.9c5.5-0.7,9.8-3.9,13.5-8.2c0.7-0.7,1.2-2,2.5-1.6
		c-3.5,6.8-8.7,11.5-14.8,15.1c-6.1,3.6-12.4,5.5-18.8,8c-2.6,1-5.4,2-7.5,4C97.2,62.6,97.2,59.8,96,60.1z"/>
	<path class="st4" d="M83.7,7.4c4.4,3.5,9.6,5.1,14.7,6.4c2.4,0.6,5.2-0.4,7.8-0.1c-1.7,0.9,0.1,1.7,0.1,2.5
		c-4-0.8-8.1-0.8-12.2-1.2c-8.5-0.7-17.3-2.9-25.4,3c-3,2.1-6.3,1.1-9.4,0.5c-4.3-0.8-8.2,0-12.1,2c-7.2,3.7-14.3,7.6-22.1,9.5
		c-4.3,1.2-8.9,1.4-13.3,0.6c-2.5-0.4-5.1-0.3-7.6,0.3c0.2-1,1.2-1.6,2.2-1.5c2.8,0.2,5.5-0.6,8.3-0.7c2.1-1.6,4.4-0.8,6.6-1.3
		c6.7-1.3,12.9-3.8,18.9-7.2c0.8,0.1,1.5-0.1,2.2-0.5c3.4-1.6,5.6-4.8,8.4-7.3c1.8-1.7,3.6-3,6.1-1.9c0.9,0.5,2.1,0.4,2.9-0.3
		l1.1,0.4c3.4,1.2,7.1,1.1,10.3-0.4c3.2-1.5,6.2-3.5,9.9-2.9c0.6,0.1,1.3-0.2,1.5-0.8l0.9,0.6C83.3,7.4,83.2,7.9,83.7,7.4z"/>
	<path class="st3" d="M38.2,57.8c1.6-1.2,3.5-0.8,5.1-0.4c2.6,0.7,5-0.1,7.5-0.5c2.5-0.4,2.6-1.2,1.6-3.5s-2.3-4.7-1.7-7.6
		c0.5,2.6,2.8,3.9,3.4,6.4c1.4,3.5,4.2,5.5,6.8,7.7c0.8,0.6,1.6,1.2,2.1,2.4l-9.5-1.7C48.4,59.7,43.2,59.5,38.2,57.8z"/>
	<path class="st4" d="M106.1,16.3c0-0.8-1.7-1.7-0.1-2.5c10.2-0.5,19.8-3.8,29.2-8.1l1.4-0.5l0.5,1.6c-8.6,5-17.6,9-27.5,9.1
		c-0.7-0.8-0.9-0.3-1.1,0.4L106.1,16.3z"/>
	<path class="st5" d="M126,98c4.4,1.6,8.6,1.4,12.6-1.6c0.5-0.4,0.9-1.1,1.7-1.2c-0.7,2.9-3,3.9-5.2,4.3c-8.4,1.3-16.1-0.8-22.9-6.4
		l0.3-0.3C116.8,95.1,121.3,97,126,98z"/>
	<path class="st5" d="M59.6,10.3c-0.8,0.7-2,0.8-2.9,0.3c-2.5-1.1-4.3,0.2-6.1,1.9c-2.7,2.5-5,5.7-8.4,7.3c-0.7,0.4-1.4,0.5-2.2,0.5
		c3.2-2.7,6.3-5.4,8.9-8.9s5.1-3.7,8.3-2.1C58,9.7,58.8,10,59.6,10.3z"/>
	<path class="st5" d="M82.4,6.5c-0.3,0.6-0.9,0.9-1.5,0.8c-3.7-0.6-6.6,1.5-9.9,2.9c-3.3,1.5-7,1.6-10.3,0.4c5,0.6,9.3-0.8,13.4-4
		C76.7,4.7,79.5,4.2,82.4,6.5z"/>
	<path class="st6" d="M137.2,6.7l-0.5-1.6c2.1-1.4,4.3-2.4,6.7-3.2c1.3-0.4,2.7-0.8,4.2,0.8C143.5,2.8,140.6,5.2,137.2,6.7z"/>
	<path class="st5" d="M14.5,28.8c-2.7,0.1-5.5,0.9-8.3,0.7c-1-0.2-1.9,0.5-2.2,1.5c-0.6,0.1-1.5,0.5-1.8-0.3s0.6-1.2,1.2-1.4
		C6.9,27.7,10.9,27.6,14.5,28.8z"/>
	<path class="st3" d="M140.5,33.6c-0.2-0.9-0.2-1.8,0.9-1.8C141.3,32.5,141,33.1,140.5,33.6z"/>
	<path class="st1" d="M92.2,70.7c0.7-0.5,1.5-0.7,2.3,0.1c-0.6,0.9-1.3,0.7-2,0.4L92.2,70.7z"/>
	<path class="st6" d="M108.7,16.3c0.2-0.7,0.4-1.3,1.1-0.4C109.5,16.4,109.1,16.4,108.7,16.3z"/>
	<path class="st6" d="M107.1,17.5h-0.9C106.4,17.2,106.8,17.2,107.1,17.5C107,17.4,107.1,17.4,107.1,17.5z"/>
	<path class="st5" d="M112.1,93.1l-0.3-0.5l0.5,0.2L112.1,93.1z"/>
	<path class="st6" d="M110.2,17.4L110.2,17.4z"/>
	<path class="st6" d="M108.7,17.5l-0.2,0.1l-0.2-0.1H108.7z"/>
	<path class="st5" d="M83.7,7.4c-0.4,0.5-0.4,0-0.4-0.3L83.7,7.4z"/>
	<path class="st0" d="M65.7,37.5c-1.6-0.1-4.2-1.1-6.5-2.7c-0.5-0.4-1.1-0.7-0.9-1.5c0.2-0.5,0.7-0.8,1.3-0.7
		c5.2,0.1,10.4-1.1,15.1-3.4c0.4-0.2,0.8-0.3,1.2,0.1c0.4,0.4,0.2,1.2-0.1,1.8C74.4,34.6,70.8,37.6,65.7,37.5z M59.9,33.6
		c5.2,4,10.8,3.4,13.6-0.9c0.3-0.5,1-1,0.5-1.7c-0.5-0.7-0.9-0.1-1.4,0.2C68.8,33,64.7,33.6,59.9,33.6z"/>
	<path class="st0" d="M94.4,34.6c2.1,6.9,2.9,13.8,1.5,21c-0.1,0.3-0.2,0.6-0.4,0.9c0.1-7.1,0.3-14.2-1.8-21.1
		C93.4,34.5,93.8,34.5,94.4,34.6z"/>
	<path class="st0" d="M86.2,32.8c-0.1,2.5-1.2,3.5-3.3,4L86.2,32.8z"/>
	<path class="st0" d="M75.3,23.2c0.7,0,1.3,0.2,1.2,1.1c-0.1,0.9-0.6,1.1-1.2,1.2c-0.5,0.2-1.1-0.1-1.3-0.6c0-0.1,0-0.2-0.1-0.3
		C74,23.6,74.7,23.4,75.3,23.2z"/>
	<path class="st0" d="M56.8,28.6c-0.8-0.1-1.5-0.2-1.5-1.2c0-0.9,0.7-0.9,1.3-0.9s1.2,0.2,1.3,0.9S57.3,28.4,56.8,28.6z"/>
	<path class="st0" d="M73.5,66.9l0.2-0.4l0.1,0.4L73.5,66.9L73.5,66.9z"/>
	<path class="st1" d="M59.9,33.6c4.7,0.1,8.8-0.7,12.7-2.4c0.4-0.2,0.9-0.7,1.4-0.2c0.4,0.5-0.2,1.2-0.5,1.7
		C70.8,37.1,65.2,37.6,59.9,33.6z"/>
</g>
</svg>
