<svg id="Layer_1" data-name="Layer 1" xmlns="http://www.w3.org/2000/svg" width="284.6" height="208.6" viewBox="0 0 284.6 208.6">
  <defs>
    <style>
      .cls-1 {
        fill: #fcfcfc;
      }

      .cls-2 {
        fill: #191918;
      }

      .cls-3 {
        fill: #d5d4cf;
      }

      .cls-4 {
        fill: #c8c8c8;
      }

      .cls-5 {
        fill: #969696;
      }

      .cls-6 {
        fill: #061834;
      }

      .cls-7 {
        fill: #727d95;
      }

      .cls-8 {
        fill: #5b6d8c;
      }
    </style>
  </defs>
  <title>Artboard 1</title>
  <g>
    <path class="cls-1" d="M1,59.1C1,41.2,1.1,23.3.9,5.4c0-3.7.7-4.4,4-4.4H272C254,11.1,235.4,19,215.5,22.5s-39.8,2.2-57.3-11.9c-6.7-5.4-13.5-3.1-19.7,1.8-8.8,6.9-18.2,8.1-28,3.7-7.9-3.6-13.9-1.8-19.2,5.3C79.1,37.4,62.9,45.4,44.8,49.6c-9.3,2.2-18.6,1.7-27.9,1.8C10.6,51.5,4.6,52.4,1,59.1Z"/>
    <path class="cls-2" d="M1,59.1c3.6-6.7,9.6-7.7,15.9-7.7,9.3-.1,18.7.4,27.9-1.8,18.1-4.3,34.3-12.2,46.5-28.3,5.4-7.1,11.3-8.9,19.2-5.3,9.7,4.4,19.2,3.2,28-3.7,6.2-4.9,13.1-7.1,19.7-1.8,17.5,14.1,37,15.4,57.3,11.9S254,11.1,272,1.1h7.7c3.2,1.8,4.8,4.9,5.8,8.6V24.7c-1.7,1.5-1.4,3.8-1.8,5.8-7.9,34.7-25.4,60.2-56.7,72.2l-24.2,9.2a47.4,47.4,0,0,0-10.5,5.4c-1.7,1.2-2.9,1.9-1.1,4.7,3.6,5.6-1.9,7-4.5,9.8,3.4,4.2,8.1,4.8,12.6,5.7,11.5,2.3,23.2,1.5,34.7,3.2,8.7,1.3,17.1,3.5,24.7,8.6s12.9,11.4,13.3,21.6c.5,13.1-5.7,21.3-17.4,22.4-14.8,1.4-28.4-3-40.8-11.9-2.7-2-6.7-5.3-4.8-8.6s5.4.9,7.9,2.2c9.9,5.4,20,10,31.4,8.9a27.7,27.7,0,0,0,7.1-1.5c2.9-1.1,5.8-2.7,6.3-6.7s-1.9-6.7-4.7-8.7c-6.2-4.4-13.1-5.8-20.3-5.9-12.1-.1-24.2-.4-36.2-2.1-15.6-2.2-30.8-5.8-44.9-13.9-1.8-1.1-3.5-1.7-5.4-.4A8.8,8.8,0,0,1,147,146c-3.4.7-7.2,2.4-10.1-.8s-1-7.2.4-10.5-.2-4.1-2.1-5.4c-9.3-6.2-19.8-8.4-30.3-9.9-22.7-3.2-45.3-6.8-66.6-17A117.1,117.1,0,0,1,23,94C13.5,87.5,5.2,79.7,1,67.7ZM214.3,177l-1-.3.5.9c13,10.8,27.6,14.7,43.5,12.2,4.2-.7,8.4-2.6,9.8-8.1.2-2.5,2-4.2,2.2-6.8.9-10.7-3.8-17.7-11.5-22.8-9.9-6.6-21-8.4-32.3-9.3s-24.5-.2-36.1-5.3a24.6,24.6,0,0,0-12.9-1.6c1.3.6,2.6.9,3.7-.7-1.5-1.3-2.9-.9-4.3-.1-1.3-1.2-4.1-.3-4.3-3.7,5.4,1.7,10.1-.9,14.8-3.1s4.2-3.6,1.3-7.5c-1.5-2-4.2-2.8-4.6-5.8,2.2-.5,3.5,3.8,6.4,1.1s9.2-5.7,14.3-7.6c12-4.6,24.3-8.5,35.6-15.1s21.5-15.7,28.1-28.6h0a5,5,0,0,0,1.8-3.4c7.7-13.7,12.7-28.5,13.4-44.8.3-6.1-2.3-8.3-7.5-6.3a99.7,99.7,0,0,0-11.9,5.8c-16.9,9.2-34.1,17.1-53.2,17.8h-5.9a1.2,1.2,0,0,0-1.8,0c-10.9-.2-21.8-1.4-32.7-2.5s-22.4-2.6-32.6,3.9c-7.7,4.9-15.4,5.6-23.7,3.7a29.3,29.3,0,0,0-21.1,3.1c-7.7,4.2-15.4,8.1-23.3,11.7-15.1,6.7-30.6,11.4-47.2,8.4-5-.9-10.2-.9-15.1,2C3.7,66.1,4,67.7,5.1,70.5c3.1,7.6,8.1,12.9,14.3,17.4a130.7,130.7,0,0,0,54.2,22.9c9.4,3.2,19.2,3.5,28.9,5.2l18.2,3.2c-1-2.3-2.6-3.4-4-4.6-5-4.1-10.3-7.9-12.9-14.6.3.1.8,0,.9.2,8.9,10.8,21.2,16.4,31.1,25.6,1.4,1.3,2.8,2.3,4.7,2.1h-.1c.5,4.2-1.9,7.7-2.2,11.8s.7,4.8,3.7,4.4,9-.8,12.4-4.6a1.6,1.6,0,0,1,2.8.2c2,3.7,1.9,3.8,3.6,4.6,15.1,7.6,31.2,10.6,47.6,12.6,12.2,1.4,24.5,0,36.6,2,6.5,1.1,12.6,3.4,17,9.1s3.3,11.5-2.3,15.2-12.7,4.1-19.4,3.6C231,185.1,222.5,181.4,214.3,177Zm47-163.2c6.3-2.8,12-7.4,19.7-7.5-2.7-3.2-5.5-2.4-7.9-1.6a51.8,51.8,0,0,0-12.7,6l-2.7,1c-17.8,8.1-36,14.4-55.4,15.4-5-.7-10.2,1.4-14.7.2-9.7-2.6-19.5-5.5-27.9-12.2l-.8-.6-1.7-1.1c-5.3-4.5-10.8-3.4-15.7.4-7.7,6-16.1,8.7-25.4,7.5l-2-.8a41.9,41.9,0,0,1-4.6-1.7c-6.2-3.1-11.3-2.1-15.8,4S82.9,34.6,76.9,39.7C65.6,46.1,53.7,51.1,41.1,53.4c-4.2.8-8.7-.6-12.6,2.4a28.5,28.5,0,0,0-21,.8c-1.1.5-3,.8-2.3,2.7s2.2.7,3.5.6a38.3,38.3,0,0,1,14.4-.5,59.3,59.3,0,0,0,25.3-1.2c14.8-3.7,28.3-11,41.9-18.1,7.4-3.9,14.8-5.5,22.9-3.8,6,1.2,12.3,3.2,17.9-.9,15.2-11.1,31.9-7,48.1-5.6,7.7.7,15.5.7,23.1,2.2h4.8c.8.2,1.6.2,2-.8C227.9,30.8,244.9,23.3,261.3,13.8Z"/>
    <path class="cls-3" d="M285.5,9.7c-1-3.7-2.6-6.8-5.8-8.6C285.5,1.1,285.5,1.1,285.5,9.7Z"/>
    <path class="cls-4" d="M240,186.9c6.7.5,13.4.4,19.4-3.6s6.6-9.7,2.3-15.2-10.5-8-17-9.1c-12.1-2.1-24.4-.6-36.6-2-16.4-1.9-32.5-5-47.6-12.6-1.7-.9-1.6-.9-3.6-4.6a1.6,1.6,0,0,0-2.8-.2c-3.4,3.8-8,4-12.4,4.6s-4-1-3.7-4.4,2.7-7.6,2.2-11.8h.7l-.2-.7-.4.8c-1.9.3-3.3-.8-4.7-2.1-9.9-9.2-22.3-14.8-31.1-25.6-.2-.2-.6-.1-.9-.2-1.1-4.7-5.5-7.2-6.4-12.1-1.1,5.5,1.4,10,3.3,14.5s.5,6.1-3.1,6.6-9.3,2.2-14.2.9c-3-.8-6.6-1.6-9.7.8A130.7,130.7,0,0,1,19.4,87.9C13.2,83.4,8.2,78.1,5.1,70.5,4,67.7,3.7,66.1,6.5,64.5c4.9-2.9,10.1-2.9,15.1-2,16.6,3,32.1-1.6,47.2-8.4,7.9-3.5,15.7-7.5,23.3-11.7a29.3,29.3,0,0,1,21.1-3.1c8.4,1.9,16.1,1.2,23.7-3.7,10.2-6.5,21.6-5,32.6-3.9s21.8,2.3,32.7,2.5h3.9l.4.2.4-.2H210c19.2-.7,36.4-8.6,53.2-17.8a99.7,99.7,0,0,1,11.9-5.8c5.2-2,7.8.2,7.5,6.3-.7,16.3-5.7,31-13.4,44.8-2.3,0-2.2,1.6-1.8,3.4h0c-2.4-.7-3.4,1.6-4.7,3.1-7.1,8.1-15.2,14.1-25.6,15.5-15.2,1.9-29.1-1.1-40.6-13a34,34,0,0,0-13.7-8.6c-1.8-.6-3.6-1-5.4.4.7,1.9,2.8,2.5,2.6,4.6-1.1-.2-1.9-.1-1.4,1.5,4,13.1,3.6,26.6,3.4,40.1,0,2.3-.9,4.7,1,6.7s3.1,3.9,4.6,5.8c2.9,3.9,2.9,5.5-1.3,7.5s-9.3,4.7-14.8,3.1c.2,3.4,3,2.5,4.3,3.7l.6.8a24.5,24.5,0,0,1,12.9,1.6c11.6,5,24,4.4,36.1,5.3s22.4,2.7,32.3,9.3c7.7,5.1,12.4,12.1,11.5,22.8-.2,2.6-2,4.3-2.2,6.8-1.4.2-2.2,1.4-3.2,2.2C256.4,189.4,248.4,189.9,240,186.9ZM125.6,72.2c9.7.2,16.6-5.4,19.1-12.4.4-1.2,1-2.4.1-3.5s-1.5-.5-2.3-.2a60.6,60.6,0,0,1-28.6,6.5,2.1,2.1,0,0,0-2.4,1.4c-.3,1.5.8,2.2,1.8,2.9C117.7,70.2,122.5,72.1,125.6,72.2Zm38.8-8.9-6.2,7.6C162.1,70,164.3,68.2,164.4,63.4ZM143.9,45.1c-1.2.3-2.6.9-2.5,2.6a1.9,1.9,0,0,0,2.5,1.7c1.1-.3,2.3-.7,2.3-2.3S145.3,45.1,143.9,45.1ZM108.8,55.4c.9-.3,2.1-.6,1.9-2.2s-1.3-1.8-2.4-1.8-2.4.3-2.4,1.8S107.3,55.2,108.8,55.4Z"/>
    <path class="cls-5" d="M183,115.1c-1.8-2-.9-4.4-1-6.7a9.2,9.2,0,0,0,.8-1.8c2.7-13.6,1.2-26.8-2.8-39.8.2-2.1-1.9-2.7-2.6-4.6,1.8-1.4,3.6-1,5.4-.4a34,34,0,0,1,13.7,8.6c11.6,11.9,25.4,14.9,40.6,13,10.5-1.3,18.5-7.4,25.6-15.5,1.3-1.4,2.2-3.7,4.7-3.1-6.6,12.9-16.5,21.8-28.1,28.6s-23.6,10.5-35.6,15.1c-5,1.9-10.2,3.8-14.3,7.6S185.3,114.6,183,115.1Z"/>
    <path class="cls-6" d="M159.7,15.2c8.3,6.7,18.2,9.6,27.9,12.2,4.5,1.2,9.8-.8,14.7-.2-3.2,1.7.1,3.2.1,4.8-7.6-1.5-15.4-1.5-23.1-2.2-16.2-1.4-32.9-5.5-48.1,5.6-5.6,4-11.9,2.1-17.9.9-8.1-1.6-15.5,0-22.9,3.8C76.7,47.2,63.2,54.6,48.4,58.2a59.3,59.3,0,0,1-25.3,1.2,38.2,38.2,0,0,0-14.4.5,3.6,3.6,0,0,1,4.1-2.8c5.3.4,10.4-1.1,15.7-1.3,3.9-3,8.4-1.6,12.6-2.4,12.7-2.4,24.5-7.3,35.9-13.7a7.8,7.8,0,0,0,4.2-.9c6.4-3.1,10.7-9.1,15.9-13.9,3.5-3.2,6.8-5.6,11.6-3.6a5,5,0,0,0,5.5-.6l2,.8a26.1,26.1,0,0,0,19.6-.8c6-2.8,11.7-6.7,18.7-5.5a2.6,2.6,0,0,0,2.9-1.5l1.7,1.1C158.9,15.1,158.8,16,159.7,15.2Z"/>
    <path class="cls-5" d="M73.5,110.8c3.1-2.3,6.6-1.5,9.7-.8,4.9,1.3,9.5-.2,14.2-.9s4.9-2.3,3.1-6.6-4.4-9-3.3-14.5c.9,4.9,5.3,7.4,6.4,12.1,2.6,6.7,8,10.5,12.9,14.6,1.5,1.2,3,2.3,4,4.6L102.4,116C92.8,114.3,83,114,73.5,110.8Z"/>
    <path class="cls-6" d="M202.3,32c0-1.6-3.2-3.2-.1-4.8,19.4-1,37.6-7.3,55.4-15.4l2.7-1,.9,3c-16.4,9.5-33.3,17-52.2,17.3-1.3-1.6-1.7-.5-2,.8Z"/>
    <path class="cls-7" d="M240,186.9c8.4,3,16.4,2.6,23.9-3,1-.8,1.8-2,3.2-2.2-1.4,5.5-5.6,7.4-9.8,8.1-15.9,2.5-30.5-1.5-43.5-12.2l.5-.6C222.5,181.4,231,185.1,240,186.9Z"/>
    <path class="cls-7" d="M114.1,20.6a5,5,0,0,1-5.5.6c-4.8-2-8.1.4-11.6,3.6-5.2,4.8-9.5,10.9-15.9,13.9a7.8,7.8,0,0,1-4.2.9c6-5.1,12-10.3,16.8-16.8s9.6-7.1,15.8-4A41.9,41.9,0,0,0,114.1,20.6Z"/>
    <path class="cls-7" d="M157.2,13.5a2.6,2.6,0,0,1-2.9,1.5c-7-1.2-12.6,2.8-18.7,5.5a26.1,26.1,0,0,1-19.6.8c9.4,1.2,17.7-1.5,25.4-7.5C146.4,10.1,151.8,9,157.2,13.5Z"/>
    <path class="cls-8" d="M261.3,13.8l-.9-3a51.8,51.8,0,0,1,12.7-6c2.5-.8,5.2-1.6,7.9,1.6C273.2,6.4,267.6,11,261.3,13.8Z"/>
    <path class="cls-7" d="M28.5,55.8c-5.2.1-10.4,1.7-15.7,1.3a3.6,3.6,0,0,0-4.1,2.8c-1.2.1-2.9.9-3.5-.6s1.2-2.2,2.3-2.7A28.5,28.5,0,0,1,28.5,55.8Z"/>
    <path class="cls-5" d="M267.4,64.8c-.4-1.8-.4-3.4,1.8-3.4A5,5,0,0,1,267.4,64.8Z"/>
    <path class="cls-3" d="M175.9,135.1c1.4-.9,2.8-1.3,4.3.1-1.1,1.7-2.4,1.3-3.7.7Z"/>
    <path class="cls-8" d="M207.1,32c.3-1.3.7-2.4,2-.8C208.7,32.2,207.9,32.2,207.1,32Z"/>
    <path class="cls-8" d="M204.1,34.2h-1.8A1.2,1.2,0,0,1,204.1,34.2Z"/>
    <path class="cls-7" d="M213.7,177.6l-.5-.9,1,.3Z"/>
    <path class="cls-8" d="M210,34.1h0Z"/>
    <path class="cls-8" d="M207.1,34.2l-.4.2-.4-.2Z"/>
    <path class="cls-7" d="M159.7,15.2c-.8.9-.7,0-.8-.6Z"/>
    <path class="cls-2" d="M125.6,72.2c-3.1-.1-7.9-2.1-12.3-5.2-.9-.7-2.1-1.4-1.8-2.9a2.1,2.1,0,0,1,2.4-1.4,60.6,60.6,0,0,0,28.6-6.5c.7-.4,1.6-.6,2.3.2s.4,2.3-.1,3.5C142.1,66.8,135.3,72.4,125.6,72.2Zm-10.9-7.4c9.9,7.5,20.5,6.5,25.8-1.7.6-.9,1.9-1.9.9-3.2s-1.8-.1-2.6.3C131.4,63.6,123.7,64.9,114.7,64.8Z"/>
    <path class="cls-2" d="M180,66.7c4,13,5.5,26.2,2.8,39.8a9.2,9.2,0,0,1-.8,1.8c.2-13.5.6-27-3.4-40.1C178.1,66.6,178.9,66.5,180,66.7Z"/>
    <path class="cls-2" d="M164.4,63.4c-.1,4.8-2.3,6.7-6.2,7.6Z"/>
    <path class="cls-2" d="M143.9,45.1c1.3,0,2.4.3,2.3,2s-1.2,2-2.3,2.3a1.9,1.9,0,0,1-2.5-1.7C141.3,45.9,142.7,45.4,143.9,45.1Z"/>
    <path class="cls-2" d="M108.8,55.4c-1.5-.1-2.9-.4-2.9-2.2s1.3-1.8,2.4-1.8,2.3.3,2.4,1.8S109.7,55,108.8,55.4Z"/>
    <path class="cls-2" d="M140.4,128l.4-.8.2.7h-.6Z"/>
    <path class="cls-3" d="M114.7,64.8c9,.1,16.7-1.3,24.1-4.6.8-.4,1.8-1.3,2.6-.3s-.3,2.3-.9,3.2C135.2,71.4,124.6,72.4,114.7,64.8Z"/>
  </g>
</svg>
