<?xml version="1.0" encoding="utf-8"?>
<!-- Generator: Adobe Illustrator 21.0.2, SVG Export Plug-In . SVG Version: 6.00 Build 0)  -->
<svg version="1.1" id="Layer_1" xmlns="http://www.w3.org/2000/svg" xmlns:xlink="http://www.w3.org/1999/xlink" x="0px" y="0px"
	 viewBox="0 0 150 114.2" style="enable-background:new 0 0 150 114.2;" xml:space="preserve">
<style type="text/css">
	.st0{fill:#FEFEFE;}
	.st1{fill:#4A413A;}
	.st2{fill:#DD9C6A;}
</style>
<title>Artboard 1</title>
<g>
	<path class="st0" d="M0.6,104.2c0,2.2,0.3,4.3,0.9,6.4c0.3,1.5,1.5,2.7,3,3c1.9,0.5,3.9,0.7,5.8,0.5c4-0.4,8-0.3,12-1
		c4-0.7,7.9-0.5,11.9-1.1c5.9-1,12-0.9,17.9,0.2c4.1,1,8.2,1.5,12.4,1.6c3.9,0,6.1-2,6.5-5.8c0.4-3,0.7-6.1,0.7-9.1
		c-0.1-0.6,0.3-1.3,0.8-1.6c1.5-1.1,3.1-2.1,4.8-3.1c4.2-2.4,8.9-3.8,13.1-6.2c4.2-2.4,5.6-4,5.8-8c0-0.6,0.3-0.7,0.8-0.7
		c1.5,0,2.9-0.5,4-1.4c0.4-0.5,1.2-0.5,1.7-0.1c0,0,0,0,0,0c2.9,1.6,5.8,3.4,8.5,5.4c0.9,0.7,1.7,0.8,2.4-0.3
		c0.1-0.2,0.4-0.3,0.6-0.3c1-0.3,1.9-0.8,2.7-1.5c1.9-1.7,4-3.1,6.2-4.4c3.8-2,7.7-3.6,11.4-5.8c4-2.2,7-6,8.1-10.5
		c1-4,1.4-8.1,2.6-12.1c0.3-0.9,0.6-1.9,0.7-2.9c0.3-3.1,0.8-6.2,1.6-9.2c0.8-3,1.6-6,2.2-9.1c0.9-5.2,0.2-9.8-3.9-13.5
		c-2.4-2.1-5-4-7.9-5.5c-5.4-2.9-11.4-4.6-17.2-6.6c-5.8-2-12.7-1.8-19,0.3l-7.9,2.8c-1.8,0.6-3.7,0.9-5.6,1
		c-3.6,0.3-6.2,2.8-9.3,4.2c-0.9,0.5-1.5,1.4-1.7,2.4c-0.2,1.2-0.8,1.2-1.7,0.9c-4.4-1.1-8.7-2.5-12.9-4.4C61,7.8,59,8.2,57.8,9.6
		c-3.3,3.3-5.3,7.6-5.9,12.2c-0.3,3.3,0,6.6,0.7,9.8c1.2,6.3,2,12.7,2.2,19.1c0,1,0,1.4-1.2,1c-2.6-0.8-5.3-0.8-7.9,0.1
		c-3.9,1.2-7.1,3.6-10,6.3c-4.6,4.1-9.3,8.1-15,10.7c-3.4,1.5-6.7,3.3-9.2,6.2c-0.6,0.7-0.8,1.3,0,1.9c0.8,0.6,0.9,0.9,0.2,1.6
		c-2.3,2.6-4.3,5.5-5.8,8.6c-1.7,3.3-3.9,6.4-5.2,9.8c-0.7,1.3-0.8,2.8-0.4,4.2C0.6,102.1,0.7,103.1,0.6,104.2z"/>
	<path class="st1" d="M0.6,104.2c0.1-1-0.1-2.1-0.4-3.1c-0.4-1.4-0.3-2.9,0.4-4.2c1.4-3.4,3.5-6.4,5.2-9.7c1.5-3.1,3.4-6,5.8-8.6
		c0.7-0.7,0.3-1.1-0.2-1.6s-0.6-1.2,0-1.9c2.5-2.9,5.8-4.6,9.2-6.2c5.7-2.6,10.4-6.5,15-10.7c3-2.7,6.1-5.1,10-6.3
		c2.6-0.9,5.3-0.9,7.9-0.1c1.2,0.4,1.2-0.1,1.2-1c-0.2-6.4-1-12.8-2.2-19.1c-0.7-3.2-1-6.5-0.7-9.8c0.6-4.7,2.7-9,6-12.3
		C59,8.2,61,7.8,62.6,8.7c4.1,1.9,8.5,3.3,12.9,4.4c0.9,0.2,1.5,0.2,1.7-0.9c0.2-1,0.8-1.9,1.7-2.4c3.1-1.4,5.7-4,9.3-4.2
		c1.9-0.1,3.8-0.4,5.6-1l7.9-2.8c6.3-2,12.5-2.5,19-0.3s11.7,3.7,17.2,6.6c2.8,1.5,5.5,3.3,7.9,5.5c4.1,3.7,4.8,8.4,3.9,13.5
		c-0.5,3.1-1.4,6.1-2.2,9.1c-0.8,3-1.3,6.1-1.6,9.2c-0.1,1-0.4,2-0.7,2.9c-1.3,3.9-1.6,8.1-2.6,12.1c-1.1,4.5-4.1,8.3-8.1,10.5
		c-3.7,2.2-7.6,3.8-11.4,5.8c-2.2,1.3-4.3,2.7-6.2,4.4c-0.8,0.7-1.7,1.2-2.7,1.5c-0.2,0-0.5,0.1-0.6,0.3c-0.7,1.1-1.5,0.9-2.4,0.3
		c-2.7-2-5.5-3.8-8.5-5.4c-0.5-0.4-1.3-0.4-1.7,0.1c0,0,0,0,0,0c-1.1,0.9-2.5,1.4-4,1.4c-0.5,0-0.8,0.1-0.8,0.7
		c-0.2,3.9-2.6,6.2-5.9,8.1c-3.3,1.9-8.9,3.8-13.1,6.2c-1.7,1-3.3,2-4.8,3.1c-0.5,0.3-0.9,1-0.8,1.6c0,3-0.3,6.1-0.7,9.1
		c-0.4,3.8-2.7,5.8-6.5,5.8c-4.2-0.1-8.3-0.6-12.4-1.6c-5.9-1.1-12-1.2-17.9-0.2c-3.9,0.6-8,0.5-11.9,1.1s-8,0.6-12,1
		c-1.9,0.2-3.9,0-5.8-0.5c-1.5-0.3-2.7-1.5-3-3C0.9,108.6,0.6,106.4,0.6,104.2z M91.6,73.6c-0.9-0.7-2.1-0.2-3.1-0.7
		c-5.2-2.6-9.8-6.1-14.9-8.8l-17.1-9.8c-2.8-1.7-6.2-2.2-9.4-1.5c-4.5,1-7.9,3.7-11.1,6.7c-3.2,3-8.1,7.5-13.1,10
		c-2.6,1.3-5.4,2.5-7.6,4.5s-2.3,0.9-2,2.1c0.3,1.2,1.5,1.5,2.5,2l1.1,0.4c3,1.2,6.2,1.8,9.3,2.9c4.7,1.8,9.1,4.2,13.1,7.3l12,9.1
		c2.9,2.2,4.8,2.2,8,0.4s4.5-3.2,6.9-4.5c9.7-5.1,19-10.9,27.9-17.4c0.4-0.3,1-0.4,0.5-1.2c-0.5-0.8-0.7-1.5-0.2-2.5
		c0.1-0.2,0.1-0.3,0.1-0.5c0.6-3.5,1-7,1.4-10.4c0.4-3.4,0.4-6.2,0.9-9.3s0.8-8.5,2.5-12.4c0.8-2.2,0.8-4.7-0.1-6.9
		c-1.5-4.5-4.9-7.1-9-8.8c-4-1.6-8.2-2.6-12.5-3.1c-5.9-0.8-11.7-1.7-17.1-4.3l-1.2-0.3c-2.8-0.5-5.3,0.2-6.1,3.6
		c-0.4,2.3-0.4,4.7-0.1,7c0.3,3.4,1.5,6.6,1.7,10c0.2,3.4,0.7,9.6,1.1,14.5c0,0.8,0.5,1.5,1.2,1.7c4.8,2,9.1,4.8,13.8,6.9
		c3.8,1.6,7.4,3.4,11,5.4C85.6,67.8,88.8,70.5,91.6,73.6z M84.3,10c2.4,1.6,4.7,3.4,6.6,5.6c0.2,0.3,0.5,0.5,0.9,0.6
		c1.6,0.2,3.2,0.6,4.7,1.1c4.2,1.2,8,2.8,10.7,6.5c0.2,0.3,0.5,0.5,0.9,0.6l7.4,3c3.6,1.5,5.1,3.7,5,7.5c0,2.4-0.4,4.8-1.1,7.1
		c-2.5,7.5-4.4,15.2-5.6,23c-0.7,5.4,0,10.7,0.7,16c0.6-0.2,1.2-0.6,1.7-1.1c1.6-1.4,3.3-2.7,5.1-3.8c3.4-1.9,7-3.5,10.4-5.3
		s6-3.4,7.8-6.6c1.2-2.2,1.9-4.6,2.3-7.1c1-5.3,1.9-10.6,2.8-15.9c0.9-5.3,2.4-8.7,3.3-13.1c0.9-4.4,1-7.3-0.9-10.7
		c-1.4-2.3-3.4-4.2-5.7-5.6c-5.6-3.9-11.9-6.2-18.4-8.1c-4-1.1-7.9-2.6-12.2-1.9c-4.3,0.7-6.2,0.8-9,2.2c-3.6,1.8-7.3,3.1-11.2,4
		C88.4,8.4,86.3,9.1,84.3,10z M112.3,82c0.6-1.3,0.7-2.9,0.4-4.3c-0.6-3.2-0.8-6.5-0.6-9.7c0.6-6.4,1.2-12.9,3.4-19
		c1.7-4.3,2.9-8.9,3.6-13.5c0.3-2.2,0-4.3-1.8-5.7c-1.8-1.4-5.9-2.8-9.1-4.1c0.9,2.8,0.9,5.9,0.1,8.7c-1.6,5.5-3.6,10.9-4.1,16.8
		s-1,9-0.4,13.6c0.6,4.6,1,7.3-0.9,10.8c-0.3,0.5,0,0.8,0.4,1C106.4,78.1,109.4,79.9,112.3,82z M45.7,103.2l-0.8-0.7
		c-3.4-2.9-7.3-4.8-11.1-7s-6.1-3.1-9.1-4.7L20,88.3c-3.6-1.7-6.8-3.7-7.5-8.1L12.2,80l-0.7,0.9c-3.4,4.9-6.4,10-9,15.3
		c-2.2,4.3-0.8,6.6,4,6.7l14.4,0.4c6.4,0,12.9,0,19.3-0.2C42,103.2,43.9,103.2,45.7,103.2z M57.5,14.8c2.9,0.3,5.8,1,8.5,2.1
		c1.6,0.6,3.3,1.1,5,1.4c3.6,0.6,7.1,1.1,10.7,1.9c5.3,1.1,10.6,2.6,14.8,6.3s5.9,7.9,4.4,13s-1.8,10.4-2.2,15.6
		c-0.3,3.8,0.1,7.5-0.4,11.3C98,68.6,98,71,96.9,73c-1.1,2-1.4,1.8-0.6,3.1c0.8,1.3-0.4,1.4,0.6,1.6c0.6,0.1,1.3,0,1.9-0.3
		c2.7-1.2,4.4-3.9,4.2-6.9c-0.2-5.6-1.2-11.2-0.6-16.9c0.3-3.8,0.9-7.6,1.9-11.3c0.9-3,2.2-5.9,2.9-9c1.4-5.7-0.4-9.8-5.5-12.7
		c-2.9-1.5-6.1-2.6-9.4-3c-5.4-1-10.8-1.6-16.1-2.6c-4.9-0.9-9.8-2.2-14.5-3.9c-0.5-0.2-0.9-0.3-1.4,0.1
		C59.2,12.3,58.3,13.5,57.5,14.8z M93.5,77.8c-0.4,0.1-0.8,0.3-1.1,0.6l-5.8,4c-8.6,5.7-18,10.3-26.3,16.5c-3.6,2.6-6.4,2.4-10-0.2
		l-10.6-7.9c-4.6-3.3-9.2-6.6-14.7-8.3c-2.9-0.9-5.9-1.5-8.7-2.6c-0.8-0.3-1.8-1.2-2.2-0.7s0.1,1.9,0.6,2.8c0.5,1,1.2,1.9,2.1,2.6
		c1,0.8,2.1,1.5,3.3,2.1c6.8,2.9,13.4,6.4,19.7,10.3c3.9,2.5,7.8,5,10.3,9.1c0.8,1.1,1.7,2.1,2.8,3c1.1,1,2.7,1.1,3.9,0.3
		c0.9-0.5,1.7-1.1,2.5-1.8c2.8-2.3,5.4-4.8,7.9-7.5c4.5-4.4,9.7-8,15.3-10.8c2.2-1.1,4.4-2.2,6.4-3.5S93.7,81.5,93.5,77.8L93.5,77.8
		z M3.5,104.5l0.5,5.4c0.1,0.8,0.6,1,1.2,1.2c2,0.5,4,0.8,6,0.8c4.2,0.3,8.3-0.5,12.5-0.4s9.3-0.7,13.9-1.1
		c3.7-0.4,7.4-0.4,11.1,0.1l4.9,0.6l-2-1.4c-1.4-1.3-2.7-2.7-3.9-4.3c-0.3-0.5-0.9-0.8-1.5-0.8l-6.6-0.2l-14.2,0.4H10
		C7.9,104.9,5.8,104.6,3.5,104.5z M54.9,111.3l1.7,0.3c2.7,0.6,5.4,0.8,8.2,0.6c1.8-0.2,3.7-0.9,4.1-3.4c0.4-2.5,0.4-4.8,1.1-7.1
		c0.1-0.9,0.1-1.7,0-2.6c-1.2,1.2-1.1,2.5-1.6,3.6c-0.5,1.1-0.7,3.3-1.5,4.8s-1.5,2-3.2,1l-1.3-0.7c-0.6-0.5-1.5-0.4-2,0.2
		C58.9,109.5,57,110.6,54.9,111.3z M87.7,15c-0.3-0.3-0.6-0.5-0.9-0.7c-1.2-0.5-2.1-1.5-3.3-2c-0.6-0.3-1.3-0.6-2-0.7
		c-1.3-0.2-1.2,1.1-1.5,1.8s0.6,0.7,1,0.8c2,0.5,4.1,0.6,6,1.3C87.3,15.6,87.5,15.4,87.7,15z M65.5,103.3L64,105
		c-0.3,0.3-0.8,0.5-0.6,0.9c0.2,0.4,0.7,0.4,1.2,0.5c0.5,0.1,0.6-0.4,0.7-0.8C65.6,104.8,65.6,104,65.5,103.3z"/>
	<path class="st0" d="M91.6,73.6c-2.8-3.1-6-5.8-9.6-7.9c-3.5-2-7.2-3.9-10.9-5.5c-4.7-2-9-4.9-13.8-6.9c-0.7-0.2-1.2-0.9-1.2-1.7
		c-0.3-4.8-0.7-9.6-1.1-14.5s-1.4-6.6-1.7-10c-0.3-2.3-0.3-4.7,0.1-7c0.7-3.4,3.3-4.1,6.1-3.6l1.2,0.3c5.4,2.6,11.2,3.5,17.1,4.3
		c4.3,0.5,8.5,1.5,12.5,3.1c4.1,1.8,7.5,4.3,9,8.8c0.9,2.2,0.9,4.7,0.1,6.9c-1.7,4-1.9,8.3-2.5,12.4c-0.6,4.1-0.6,6.2-0.9,9.3
		c-0.3,3.1-0.8,7-1.4,10.4c0,0.2,0,0.3-0.1,0.5c-0.5,1-0.5,1.3,0.2,2.5c0.7,1.2-0.1,0.9-0.5,1.2C85.4,82.7,76,88.6,66.3,93.7
		c-2.5,1.3-4.5,3.1-6.9,4.5c-2.4,1.4-5.1,1.8-8-0.4l-12-9.1c-4-3.1-8.4-5.5-13.1-7.3c-3.1-1.1-6.3-1.6-9.3-2.9l-1.1-0.4
		c-1-0.5-2.2-1-2.5-2c-0.3-1,1.2-1.4,2-2.1s4.9-3.2,7.6-4.5c5-2.5,9.1-6.2,13.1-10s6.6-5.7,11.1-6.7c3.2-0.7,6.6-0.2,9.4,1.5l17,9.7
		c5.1,2.8,9.7,6.2,14.9,8.8C89.5,73.4,90.6,72.9,91.6,73.6z"/>
	<path class="st2" d="M84.3,10c2-0.9,4.1-1.6,6.2-2c3.9-0.9,7.7-2.4,11.3-4.2c2.8-1.3,6-1.7,9-2.2S119,2.4,123,3.5
		c6.5,1.9,12.8,4.2,18.4,8.1c2.3,1.4,4.3,3.3,5.7,5.6c1.9,3.4,1.6,7.1,0.9,10.7s-2.6,8.7-3.3,13.1s-1.8,10.6-2.8,15.9
		c-0.4,2.5-1.1,4.9-2.3,7.1c-1.8,3.1-4.7,5-7.8,6.6c-3.1,1.6-7,3.3-10.4,5.3c-1.8,1.1-3.5,2.4-5.1,3.8c-0.5,0.5-1.1,0.9-1.7,1.1
		c-0.7-5.3-1.4-10.6-0.7-16c1.2-7.8,3.1-15.5,5.6-23c0.7-2.3,1.1-4.7,1.1-7.1c0.1-3.8-1.5-6.1-5-7.5l-7.4-3
		c-0.4-0.1-0.7-0.3-0.9-0.6c-2.7-3.7-6.6-5.3-10.7-6.5c-1.5-0.5-3.1-0.9-4.7-1.1c-0.4-0.1-0.7-0.3-0.9-0.6
		C89,13.3,86.8,11.5,84.3,10z M127.4,31.7c0.1,1.2,0.2,2.3,0.3,3.5c0.1,4.3-0.5,8.6-2,12.6c-1.7,4.8-3.6,9.5-4.1,14.6
		c-0.3,2.9-0.9,5.8-0.5,8.7c0.7-1.7,1.1-3.5,1.3-5.3c0.4-4.7,1.5-9.4,3.1-13.8c1.4-3.3,2.4-6.8,3-10.3
		C128.9,38.3,129.1,34.9,127.4,31.7z M136.5,29.6c1.4,4.5,0.7,8.9-0.6,13.2s-3.5,11.1-4.3,16.9c-0.5,2.3-0.4,4.7,0.1,7l0.2-0.2
		c0.1-0.4,0.2-0.7,0.2-1.1c0.6-6.7,2-13.3,4.1-19.7c1.3-3.7,2.4-7.5,2.2-11.5C138.3,32.5,137.7,30.9,136.5,29.6z M123.2,24.6
		c0.4-1.2,0-2.6-0.9-3.5c-2-2.2-4.4-4-7.2-5.1c-4.2-1.8-8.5-3.4-12.9-4.6c-2.8-1-5.8-1.7-8.7-2.3c1.3,1.1,2.9,1.8,4.5,2.3
		c4.4,1.4,8.8,2.6,13,4.3S120.6,19.5,123.2,24.6L123.2,24.6z M131.9,19.4c0-0.8-0.2-1.6-0.8-2.2c-1.7-2-3.8-3.5-6.2-4.5
		c-5.1-2.6-10.7-3.7-16.3-5c-1.7-0.5-3.5-0.8-5.3-0.8c0.2,0.5,0.5,0.5,0.8,0.6c2.1,0.8,4.3,1.4,6.5,1.8c4.6,1.2,9.3,2.3,13.7,4.4
		C127.1,15.1,129.7,17.1,131.9,19.4z M121.8,30c2.4-1.8,5.2-2.6,8-3.5c4.4-1.5,8.5-3.5,12.3-6.1c0.8-0.5,1.5-1.2,1.9-2
		c-0.6,0-1.1,0.2-1.5,0.6l-6.2,3.6c-3.5,2-7.5,3-11.2,4.4C123.5,27.4,122.3,28.5,121.8,30z M132.1,19.7L132.1,19.7
		c0,0.1,0.1,0.1,0.2,0H132.1L132.1,19.7z"/>
	<path class="st0" d="M112.3,82c-2.8-2.1-5.8-3.9-8.9-5.5c-0.4-0.2-0.7-0.5-0.4-1c1.9-3.4,1.4-7.2,0.9-10.8c-0.5-3.6,0-9.1,0.4-13.6
		c0.4-4.5,2.5-11.2,4.1-16.8c0.8-2.8,0.8-5.9-0.1-8.7c3.2,1.3,6.5,2,9.1,4.1c2.6,2.1,2,3.5,1.8,5.7c-0.7,4.6-1.9,9.1-3.6,13.5
		c-2.2,6.2-2.8,12.6-3.4,19c-0.2,3.2,0,6.5,0.6,9.7C113.1,79.1,112.9,80.6,112.3,82z"/>
	<path class="st0" d="M45.7,103.2c-1.8,0.1-3.7,0.1-5.5,0c-6.4,0.2-12.9,0.2-19.3,0.2L6.5,103c-4.8-0.2-6.2-2.5-4-6.7
		c2.6-5.3,5.6-10.4,9-15.3l0.7-0.9l0.3,0.2c0.8,4.3,4,6.4,7.5,8.1l4.7,2.4c3,1.6,6.2,3,9.1,4.7s7.7,4.2,11.1,7L45.7,103.2z"/>
	<path class="st2" d="M57.5,14.8c0.8-1.3,1.7-2.4,2.7-3.5c0.4-0.5,0.9-0.3,1.4-0.1c4.8,1.6,9.6,2.9,14.6,3.8
		c5.3,1,10.7,1.6,16.1,2.5c3.3,0.4,6.5,1.5,9.4,3c5.1,2.9,6.8,6.9,5.5,12.7c-0.7,3.1-2,6-2.9,9c-1,3.7-1.6,7.5-1.9,11.3
		c-0.6,5.7,0.4,11.3,0.6,16.9c0.2,2.9-1.5,5.7-4.2,6.9c-0.6,0.3-1.3,0.4-1.9,0.3c-0.9-0.2-0.3-1.1-0.6-1.6s0.1-2.1,0.6-3.1
		c0.5-1,1.1-4.4,1.4-6.6c0.5-3.7,0.1-7.5,0.4-11.3c0.4-5.3,0.8-10.5,2.2-15.6c1.4-5.1-0.5-9.6-4.4-13s-9.5-5-14.9-6.2
		c-3.5-0.7-7.1-1.3-10.7-1.9c-1.7-0.3-3.3-0.8-4.9-1.4C63.3,15.8,60.4,15.1,57.5,14.8z"/>
	<path class="st2" d="M93.6,77.8c0.1,3.8-1.7,6.3-4.7,8.1c-3,1.8-4.3,2.4-6.4,3.5c-5.6,2.8-10.8,6.4-15.3,10.8
		c-2.5,2.7-5.1,5.2-7.9,7.5c-0.8,0.7-1.6,1.3-2.5,1.8c-1.2,0.8-2.8,0.7-3.9-0.3c-1.1-0.8-2-1.9-2.8-3c-2.5-4.1-6.4-6.6-10.3-9.1
		c-6.3-4-12.9-7.5-19.7-10.5c-1.2-0.6-2.3-1.3-3.3-2.1c-0.9-0.7-1.7-1.5-2.2-2.5c-0.4-0.9-1.1-2-0.6-2.8c0.5-0.8,1.5,0.4,2.2,0.7
		c2.8,1.1,5.8,1.7,8.7,2.6c5.5,1.7,10.1,5,14.7,8.3l10.7,7.9c3.6,2.6,6.4,2.8,10,0.2c8.4-6.2,17.7-10.8,26.4-16.5l5.8-4
		C92.8,78.1,93.2,77.9,93.6,77.8z"/>
	<path class="st2" d="M3.5,104.5c2.2,0.1,4.3,0.4,6.5,0.3h15.5l14.2-0.4l6.6,0.2c0.6,0,1.2,0.3,1.5,0.8c1.2,1.6,2.5,3,3.9,4.3l2,1.4
		l-4.9-0.6c-3.7-0.5-7.4-0.5-11.1-0.1c-4.6,0.4-9.2,1.1-13.9,1.1s-8.3,0.7-12.5,0.4c-2,0-4-0.3-6-0.8c-0.7-0.2-1.2-0.5-1.2-1.2
		L3.5,104.5z"/>
	<path class="st2" d="M54.9,111.3c2.1-0.6,4.1-1.7,5.7-3.3c0.5-0.6,1.4-0.7,2-0.2l1.3,0.7c1.7,1,2.2,0.8,3.2-1s0.8-3.2,1.5-4.8
		c0.7-1.6,0.4-2.4,1.6-3.6c0.1,0.9,0.1,1.7,0,2.6c-0.7,2.3-0.6,4.7-1.1,7.1s-2.3,3.2-4.1,3.4c-2.7,0.2-5.5,0-8.2-0.6L54.9,111.3z"/>
	<path class="st0" d="M87.7,15c-0.2,0.5-0.4,0.7-0.8,0.5c-2-0.7-4-0.8-6-1.3c-0.4-0.1-1.3,0.1-1-0.8c0.3-0.9,0.2-2,1.5-1.8
		c0.7,0.1,1.4,0.4,2,0.7c1.2,0.5,2.1,1.5,3.3,2C87.1,14.5,87.4,14.7,87.7,15z"/>
	<path class="st0" d="M65.5,103.3c0.1,0.8,0,1.6-0.3,2.4c-0.1,0.3-0.1,0.9-0.7,0.8c-0.6-0.1-1,0-1.2-0.5c-0.2-0.5,0.4-0.7,0.6-0.9
		L65.5,103.3z"/>
	<path class="st1" d="M127.4,31.7c1.8,3.2,1.5,6.6,1,10c-0.6,3.5-1.6,7-3,10.3c-1.6,4.4-2.7,9.1-3.1,13.8c-0.2,1.8-0.6,3.6-1.3,5.3
		c-0.3-2.9,0.3-5.8,0.5-8.7c0.5-5.1,2.4-9.8,4.1-14.6c1.5-4,2.1-8.3,2-12.6C127.6,34,127.5,32.8,127.4,31.7z"/>
	<path class="st1" d="M136.5,29.6c1.2,1.3,1.8,3,1.8,4.7c0.2,4-0.9,7.8-2.2,11.5c-2.1,6.4-3.5,13-4.1,19.7c0,0.4-0.1,0.7-0.2,1.1
		l-0.2,0.2c-0.5-2.3-0.6-4.7-0.1-7c0.8-5.8,2.6-11.4,4.3-16.9S137.9,34.1,136.5,29.6z"/>
	<path class="st1" d="M123.2,24.7c-2.6-5.2-7.4-7.1-12.2-9c-4.8-1.9-8.7-2.9-13-4.3c-1.7-0.4-3.2-1.2-4.6-2.2
		c2.9,0.6,5.8,1.3,8.7,2.3c4.4,1.2,8.7,2.8,12.9,4.6c2.8,1.1,5.2,2.9,7.2,5.1C123.1,22.1,123.5,23.5,123.2,24.7z"/>
	<path class="st1" d="M131.9,19.4c-2.2-2.4-4.7-4.3-7.6-5.8c-4.4-2.1-9-3.2-13.7-4.4c-2.2-0.4-4.4-1-6.5-1.8
		c-0.3-0.1-0.6-0.2-0.8-0.6c1.8,0,3.6,0.3,5.3,0.8c5.5,1.3,11.1,2.5,16.3,5c2.4,1,4.5,2.5,6.2,4.5C131.7,17.7,131.9,18.6,131.9,19.4
		z"/>
	<path class="st1" d="M121.8,30c0.5-1.5,1.8-2.7,3.3-3.1c3.8-1.4,7.7-2.4,11.2-4.4l6.2-3.6c0.4-0.4,0.9-0.6,1.5-0.6
		c-0.4,0.8-1.1,1.5-1.9,2c-3.8,2.6-7.9,4.6-12.3,6.1C127.1,27.4,124.2,28.2,121.8,30z"/>
	<path class="st1" d="M132.1,19.7L132.1,19.7C132.1,19.8,132.1,19.8,132.1,19.7L132.1,19.7z"/>
</g>
</svg>
