<?xml version="1.0" encoding="utf-8"?>
<!-- Generator: Adobe Illustrator 21.0.2, SVG Export Plug-In . SVG Version: 6.00 Build 0)  -->
<svg version="1.1" id="Layer_1" xmlns="http://www.w3.org/2000/svg" xmlns:xlink="http://www.w3.org/1999/xlink" x="0px" y="0px"
	 viewBox="0 0 150 100.7" style="enable-background:new 0 0 150 100.7;" xml:space="preserve">
<style type="text/css">
	.st0{fill:#7A7A7D;}
	.st1{fill:#59595B;}
	.st2{fill:#A8A9AC;}
	.st3{fill:#262223;}
	.st4{fill:#FCFCFA;}
	.st5{fill:#CFD0D1;}
	.st6{fill:#FBF9CF;}
	.st7{fill:#932C1E;}
	.st8{fill:#F4E8DC;}
	.st9{fill:#E47357;}
	.st10{fill:#A9472F;}
	.st11{fill:#E48F75;}
	.st12{fill:#A4372D;}
</style>
<title>Artboard 1</title>
<g>
	<path class="st0" d="M72.3,31.8c4.2-0.8,8.2,0.2,12.3,0.8c10.1,1.6,19.8,4.3,28.5,9.9c1.9,1.2,3.7,2.7,5.2,4.4
		c3.8,4.2,6.2,9.1,4.5,14.5c-3.3,3.7-8,6-12.4,7.9c-4.9,2.1-10,3.8-15.2,5c-0.4,2.1-3,2.9-4.9,0.9c-1.9-2-5.7,0.7-5.6-0.3
		c-1.2,4.1-68.9,2.9-64-9.6c0.4-0.9,4.1-12.1,4.3-13.3c-32.3-10,60.5-5.5,60.5-5.8c4-1.4,16.8,6.2,21.1,7.1l9.2,0.6
		c0.6,0,1.5,0.4,1.7-0.5c0.2-0.9-0.8-0.7-1.2-1c-0.4-0.3-2.1-1.7-2.7-2.9l-0.3-0.6l-0.7-1.4c0.3-0.2,0.5-0.4,0-0.6l0,0
		c-0.7-2.7-2.7-3.9-7-4.2h-1.1c-0.3-1.6-2-1.4-2.8-2.4c-0.4-1.5-1.7-2.6-3.2-2.8c-3-0.5-6-1.1-9.1-0.7h-1.8l-2-0.8L84,35.1
		c-1.8-1.9-4.2-1.9-6.6-1.9C75,33.2,73.8,33.1,72.3,31.8L72.3,31.8z"/>
	<path class="st1" d="M129.4,56.2c0.4,1.1-0.2,2-0.6,2.9c-5.7,15.2-16.8,24-32.4,27.5c-5.2,1.2-10.4,2-15.7,2.5
		c-0.5,0.1-1.2-0.2-1.5,0.6H58.4c-0.6-0.7-1.6-0.8-2.2-0.3c-0.1,0.1-0.2,0.2-0.3,0.3h-3c-0.4-0.8-1.2-0.5-1.8-0.6
		c-7.9-0.7-15.7-2.2-23.3-4.5c-7-2.3-13-5.9-17.2-12.2c-3.3-4.7-6.1-9.7-8.3-15c-0.6-1.2-1.6-2.3-1.3-3.8c2.9,4.2,6.3,7.9,10.2,11.2
		c12.4,9.8,27,13.7,42.4,14.6c15.4,0.9,29.2,0.5,43.6-2.9c10.5-2.5,20.3-6.3,27.8-14.6C126.6,60.1,128,58.1,129.4,56.2z"/>
	<path class="st2" d="M129.4,56.2c-1.5,1.9-2.9,3.9-4.5,5.7c-7.5,8.3-17.3,12.1-27.8,14.6c-14.4,3.4-29,3.8-43.6,2.9
		c-14.6-0.9-30-4.8-42.4-14.6c-3.8-3.3-7.2-7-10.1-11.2c-0.7-0.2-0.2-1.3-1-1.5v-4c2-0.8,2.1-3.1,3.3-4.6C9,36.3,16.6,32,25,28.8
		c8.4-3.2,18.6-4.8,28.2-5.6c8.5-0.7,17-0.7,25.5,0c5.7,0.4,11.4,1.1,17,2.2l2,0.2l13.3,4.3c2.2,1,4.2,2.7,6.8,2.9
		c0,1.1,1,1.2,1.7,1.7c4.8,3.5,9.2,7.4,11.3,13.1C132,50.7,131.1,53.5,129.4,56.2z M74.3,76l6.9-0.6c4.5-0.4,9-1.1,13.4-2
		c5.1-1.1,10.1-2.6,14.9-4.6c4.4-1.9,8.9-3.7,12.1-7.4c4.3-1.9,8.7-10.1,5.3-16.3c-3.4-6.2-8.3-9.1-13.9-11.7
		c-12-5.6-24.8-7.9-37.9-8.6c-6.9-0.4-13.9-0.3-20.8,0.3c-12.9,1.1-25.4,3.5-36.9,9.4c-5.2,2.6-9.7,6.1-12.1,11.8
		c-1.9,4.6-0.5,9.9,3.5,13c3.8,4.8,8.8,7.5,14.5,9.2s27.5,6.6,27.4,6.7v0.2c2.2,0.2,4.5,0.6,6.7,0.6L74.3,76z"/>
	<path class="st1" d="M111,29.9l-13.2-4.3c12-6.4,24.1-12.7,37.3-16.4c0.8-0.2,1.9,0.1,2.5-0.8h5.6c1.6,1.2,4.1,0.9,5.1,3
		c-4-1.7-6.9,0-9.2,3.3c-0.7,0.8-1.6,1.3-2.6,1.4C127,18.8,118.7,23.9,111,29.9z"/>
	<path class="st3" d="M111,29.9c7.8-6,16-11.1,25.6-13.7c1-0.1,1.9-0.6,2.6-1.4c2.3-3.3,5.1-5,9.2-3.3c0.8,0.3,0.6,1.4,1.5,1.6v3.6
		c-0.8,0.1-0.8,1-1.1,1.5c-2.2,3.1-5.4,4-8.5,1.9c-0.9-0.7-2.1-0.7-3,0c-6.5,4.2-13.1,8.3-19.3,12.8C115.2,32.6,113.2,30.9,111,29.9
		z M147.3,15.9c0.4-1.3-1.1-1.9-1.8-1.9c-1,0.2-1.8,1.1-1.8,2.1c-0.1,1,0.7,1.8,1.7,1.9c0,0,0.1,0,0.1,0
		C146.8,18.1,147.3,17.3,147.3,15.9z"/>
	<path class="st4" d="M149.8,13c-0.9-0.2-0.7-1.3-1.5-1.6c-1.1-2.1-3.5-1.8-5.1-3h2c1.5,0,3.6-0.6,4.4,0.2S149.8,11.5,149.8,13z"/>
	<path class="st0" d="M55.8,89.7c0.6-0.7,1.6-0.8,2.2-0.3c0.1,0.1,0.2,0.2,0.3,0.3H55.8z"/>
	<path class="st5" d="M8.8,59.3c-3.9-3.1-5.3-8.4-3.4-13c2.4-5.7,7-9.1,12.1-11.8c11.6-5.9,24.1-8.3,36.9-9.4
		c6.9-0.6,13.9-0.7,20.8-0.3c13.1,0.7,25.9,3,37.9,8.6c5.6,2.6,10.6,5.9,13.9,11.7s-1,14.4-5.3,16.3c1.8-5.4,0.6-10.1-3.3-14.3
		c-1.5-1.7-3.3-3.2-5.2-4.4c-8.7-5.6-18.4-8.4-28.5-9.9c-4.1-0.6-8.1-1.6-12.3-0.8c-3.7-1-7.4-0.3-11.1-0.7c-0.1,0-0.3,0.3-0.4,0.5
		H60c-0.8-0.7-1.3-2.9-2.7-0.5c-0.7-0.5-1.7-0.3-2.2,0.4c-0.1,0.1-0.1,0.2-0.2,0.4l-1.6,0.3c-13.2,0.1-26,4.1-36.9,11.4
		c-2.5,1.7-4.8,3.7-6,6.7L9.6,51c-0.4,0.3-1.6,0.1-0.5,1.1S8.3,56.9,8.8,59.3z"/>
	<path class="st0" d="M29.9,54.1c-2.5,3.9-5.4,7.5-6.3,12.2l-0.4,2.2c-5.6-1.8-10.7-4.5-14.4-9.2c-0.5-2.4,0.1-4.7,0.3-7.1
		C15.9,53.8,22.9,54.4,29.9,54.1z"/>
	<path class="st6" d="M52.4,65.5h-0.2l0.2,0.2C52.4,65.7,52.4,65.6,52.4,65.5z"/>
	<path class="st1" d="M147.3,15.9c0,1.4-0.5,2.2-1.8,2.1c-1,0-1.8-0.8-1.8-1.8c0,0,0-0.1,0-0.1c0-1,0.8-1.9,1.8-2.1
		C146.2,14.1,147.6,14.6,147.3,15.9z"/>
	<path class="st0" d="M10.4,50.5c1.2-3,3.5-5,6-6.7c10.9-7.3,23.7-11.3,36.9-11.4l-1.6,0.8c-0.7,0.2-1.5,0-2,0.7
		c-0.5,0.7-3-0.9-4.7-0.3c2.9,2.5,6.3,3.3,9.4,4.9l2.5,1h1l0.2,1.1C55,40,51.9,39.8,48.8,40c-2.1,0.4-4.3,0.5-6.5,0.5
		c-2.1-1.2-4.4-2-6.8-2.4c-2.1-0.4-4.5-0.4-5.4,2.4c-0.1,0.7-2,0.5-1,1.8c-1.3,0.6-2.9,0-4,1.2c-1.1,1.2-2.7,0.4-3.1,2
		c-1.5,0.6-3,1-4.6,1.2c-1.3,0-2.5,0.7-3.1,1.9C12.9,49,12,50.3,10.4,50.5z"/>
	<path class="st7" d="M29.9,54.1c-7,0.3-14-0.4-20.8-2c-1.1-1,0.2-0.8,0.5-1.1c1.5,0.4,2.9,0.7,4.4,0.9c1.1,0.1,2.5,0.9,3.3-0.7
		c2.3,0.5,4.7,0.6,7,0.4c2.7,0.2,5.4,0.1,8.1-0.4c0.3,1.2,1.3,0.8,2,0.9c0.7,0.1,3.8-0.5,5.7-0.6c4-0.2,7.9-1.3,11.9-1
		c0.7,0,1.3-0.3,1.7-0.9L73,50.2c0.7,0.7,1.6,0.4,2.4,0.4c3,0.3,5.8-1.3,8.8-1c-2.7,1.2-5.6,1.9-8.5,2c-7.4,0.5-14.8-0.9-22.2-0.4
		S37.7,52.1,29.9,54.1z"/>
	<path class="st8" d="M54.9,32.1c0.3-0.8,1.2-1.3,2-1c0.1,0,0.2,0.1,0.4,0.2l1.1,0.4c-0.4,0.1-0.9,0-1,0.5c-0.1,0.5,0.5,0.7,1,0.7
		l0,0c-0.2,1.3,1,1.2,1.6,1.4l10,3.6c-3.5,1-6.3-1.1-9.3-2.1s-3-1.9-4.9-2L54.9,32.1z"/>
	<path class="st9" d="M17.3,51.1c-0.8,1.6-2.2,0.9-3.3,0.7c-1.5-0.2-2.9-0.5-4.4-0.8l0.8-0.5c1.5-0.2,2.5-1.5,3.9-2h0.4
		C15,50,16.2,50.6,17.3,51.1z"/>
	<path class="st10" d="M72.5,32L72.5,32c-0.8-0.1-1.7,0.2-2.3,0.8c-2.1-0.6-4.2-1.5-6.2,0.5h-1l-1.6-1.4H61c0.1-0.2,0.3-0.5,0.4-0.5
		C65,31.7,68.8,31,72.5,32z"/>
	<path class="st11" d="M61.3,31.9l1.7,1.4c-1.7,0.9-3.1-0.3-4.6-0.5l0,0c0-0.4,0.5-0.8,0-1.1l-1.1-0.4c1.4-2.4,1.9-0.2,2.7,0.5
		C60.8,32.5,60.8,32.5,61.3,31.9z"/>
	<path class="st11" d="M54.9,32.1l1,1.7l0,0c-1.3-0.5-2.7-0.6-4.1-0.5h-0.1l1.6-0.8L54.9,32.1z"/>
	<path class="st8" d="M61.3,31.9c-0.5,0.5-1,0.5-1.4-0.1L61.3,31.9L61.3,31.9z"/>
	<path class="st7" d="M106.6,53.5c-5.3-1.1-10.4-2.8-15.2-5.2c-0.6-0.2-1.3-0.3-2-0.3c-0.6-0.4-1.3-0.6-2-0.5
		c-1.3-1.1-2.9-1.8-4.6-1.7c-0.3-0.3-0.7-0.4-1.1-0.3c-2,0-4-0.9-6-0.6l0.7-1.3l-2.5,0.3c-0.7-1.8-1.9-1.8-3.4-1.1h-1
		c-0.4-1.3-1.8-1.3-2.1-0.6c-0.3,0.7-2.8,2.1-1.5,4.1h-5l3-1.3c0.3-0.2,1,0,0.9-0.6C64.7,43.8,64,44,63.5,44
		c-2.2-1.2-4.8-0.9-7.1-1.7c1-0.4,2.1-0.4,3.1-0.1c1.4,0.3,2.8,0.7,4.3-0.5c-1.5-0.4-2.6-0.9-2.9-2.3h0.6l5.9,0.7
		c1.8,1,3.8,1,5.7,1.5c1.2,0.8,2.7,1.2,4.1,0.9h0.5c0.4,0.8,1.1,1.3,1.9,1.4c4.5,1.1,9,2.5,13.4,4c1.4,0.5,2.8,1.6,4.5,1.1
		s5.2,1.7,8,1.7c0.6,0.3,1.4,0.5,2.1,0.4c0.3,0.4,0.7,0.4,1.1,0.2l2,0.3c1.6,1.8,3.6,1.9,5.7,0.9c0.4,0.4,1.3,0.8,1.2,1
		c-0.1,0.2-1.1,0.5-1.7,0.5L106.6,53.5z M66.1,41.7c-0.4-0.3-0.8-0.7-1.3-0.1C65.2,42,65.7,42,66.1,41.7z"/>
	<path class="st7" d="M89.4,36.9c3.1-0.4,6.1,0.3,9.1,0.7c1.5,0.2,2.8,1.3,3.2,2.8c-0.2,0.9-2.4,0.9-1.1,2.5c1.3,1.6,1.7,0.8,2,1.8
		L99,44.5l0,0c-0.3-0.8-1.1-0.3-1.6-0.5c-1.9-1.3-4.1-2.2-6.4-2.5V41c0.5-0.8,1.6-0.7,2.3-1.2c0.7-0.5,3.7,1.5,5.7,0.4
		c-2.3-0.5-4.5-1.5-6.8-1.3C91.1,38.5,90.1,37.8,89.4,36.9z"/>
	<path class="st10" d="M89.4,36.9c0.7,0.9,1.6,1.7,2.6,2.1l1.1,0.8c-0.7,0.6-1.7,0.4-2.3,1.2c-0.6,0.8-0.8-0.8-1.5-0.6
		c-0.7,0.2-0.6-0.5-1-0.5l-0.5-0.5c-0.2-1.3-1.2-1-2-1h-6.3c-1.7-0.7-3.7-0.7-5.4,0c-0.1-0.4,0-0.9-0.6-0.8s-0.3,0.5-0.4,0.7h-0.5
		c-0.3-1.6-1.9-0.8-2.6-1.5c-0.7-0.7-0.8-0.1-0.1-0.5h0.7l14.2,0.9h2c0.4,0.1,0.9-0.1,1-0.5L89.4,36.9z"/>
	<path class="st4" d="M84.8,37.3l-14.2-0.9c-0.8-1-2.4-0.2-3.1-1.5h3.6c4.3,1.2,8.7,0.2,13.1,0.5l1.5,0.7L85.2,37L84.8,37.3z"/>
	<path class="st8" d="M99,44.5l3.5,0.3c1.5,0.5,3.1,0.8,4.7,0.7l5.4,1.7l0,0v0.6l0.7,1.4l-0.2,0.5h-0.4l-3.2-0.8
		c-0.8-0.2-2-0.2-1.8-1.6s0.5-0.1,0.3-0.4h-0.2c-1.1,0-2.2,0-3.3-0.1C102.5,46.3,100.4,46.2,99,44.5z"/>
	<path class="st12" d="M84.2,35.3c-4.4-0.3-8.8,0.7-13.1-0.5c0.3-0.5,1.1-0.6,1-1.4c1.9-0.4,3.7,1.2,5.6,0
		C79.6,32.2,82.4,33.4,84.2,35.3z"/>
	<path class="st1" d="M112.7,47.2l-5.4-1.7c0-1.1-1.2-1.5-1.6-2.4C110,43.3,111.9,44.4,112.7,47.2z"/>
	<path class="st9" d="M112.7,49.5h0.9c0.6,1.2,2.4,1.4,2.7,2.9c-2.1,1-4,1-5.7-0.9C110.8,50.5,112.8,51,112.7,49.5z"/>
	<path class="st12" d="M105.6,43c0.4,0.9,1.6,1.3,1.6,2.4c-1.6,0.1-3.2-0.2-4.7-0.7c-0.3-1-1.8-0.6-2-1.8L105.6,43L105.6,43z"/>
	<path class="st8" d="M104.5,42.9h-4c-1.2-1.6,1-1.5,1.1-2.5C102.5,41.4,104.2,41.3,104.5,42.9z"/>
	<path class="st5" d="M77.6,33.3c-1.8,1.3-3.7-0.4-5.6,0s-1.4,0.1-2-0.5c0.6-0.6,1.5-0.9,2.4-0.8C74,33.3,75.8,33.3,77.6,33.3z"/>
	<path class="st5" d="M85.3,36.9l0.5-0.9l2,0.8c-0.1,0.4-0.6,0.6-1,0.5C86.4,36.8,85.8,36.9,85.3,36.9z"/>
	<path class="st11" d="M113.6,49.6h-0.5l0.2-0.5L113.6,49.6z"/>
	<path class="st1" d="M112.6,47.6V47C113.1,47.2,112.9,47.4,112.6,47.6z"/>
	<path class="st10" d="M87.4,47.6c0.7-0.1,1.4,0.1,2,0.5c-0.9,0.7-2,1-3.1,1c-0.7,0.1-1.5-0.2-2.1,0.5l0,0c-3-0.2-5.8,1.3-8.8,1
		c-0.8-0.1-1.7,0.2-2.4-0.4c2.5-0.8,5.3-0.2,7.7-1.5c1.1,0,2-0.6,2.5-1.5C84.6,48.1,86,47.5,87.4,47.6z"/>
	<path class="st7" d="M84.3,49.6c0.5-0.7,1.3-0.4,2.1-0.5C87.2,49,85,49.6,84.3,49.6z"/>
	<path class="st4" d="M52.4,65.5L52.4,65.5z"/>
	<path class="st11" d="M72.6,38.4h0.5l0.6,0.2l1,1.3c-2.4,1-4.9,0.2-7.3,0.1l-5.9-0.7c-0.4-0.4-1-0.6-1.6-0.4H59l-2.4-1.2
		c-2.4-1.1-5-1.7-7-3.7c0.5-0.7,1.3-0.5,2-0.7h0.1c2,2.2,4.8,2.5,7.3,3.5l0.3-0.6l-3.6-2.4l0,0c1.9,0.1,3.2,1.4,4.9,2
		c1.7,0.6,5.9,3,9.3,2.1C70.7,38.5,71.7,38.6,72.6,38.4z"/>
	<path class="st12" d="M60.9,39.4c0.3,1.4,1.4,1.9,2.9,2.3c-1.5,1.2-3,0.8-4.3,0.5c-1-0.3-2.1-0.3-3.1,0.1c-3.7-0.4-7.3-2-11.1-1.2
		h-1.4l-1.8,0.3v-0.9c2.2,0,4.4-0.1,6.5-0.5c3.1-0.2,6.2,0,9.3,0.6c1.3,0.8,1.9,0.3,1.9-1.2L60.9,39.4z"/>
	<path class="st8" d="M14.7,48.6h-0.4c0.6-1.2,1.8-1.9,3.1-1.9c1.6-0.2,3.1-0.6,4.6-1.2h0.9c0.6,0.8,1.6,0.5,2.3,0.5H34
		c0,0.1,0,0.3,0,0.4c-3.2,0.8-6.3,1.4-9.6,0.7c-1.3-0.2-2.9-0.9-3.6,0.3c-0.7,1.2-1.4,1-2.2,1L14.7,48.6z"/>
	<path class="st7" d="M42.1,40.9v0.5c-1.1,0-2.1,0.3-3,0.8c-0.7,0.2-1.4,0.2-2.1,0c-0.3-0.2-0.6-0.2-0.8,0.1c0,0,0,0.1-0.1,0.1
		c-2.4,0-4.7-0.6-7.1-0.1c-1-1.3,0.9-1.1,1-1.8c3.4-1.3,6.8,0,10.2,0.1l0.6,0.4L42.1,40.9z"/>
	<path class="st10" d="M49.6,33.9c1.9,2,4.6,2.6,7,3.7l2.4,1.2l-1.2,0.7h-1c-0.5-1.2-1.2-1.8-2.5-1c-3.1-1.5-6.6-2.3-9.4-4.9
		C46.7,32.9,48.1,34.2,49.6,33.9z"/>
	<path class="st1" d="M40.1,40.5c-3.4-0.1-6.8-1.4-10.2-0.1c0.9-2.8,3.3-2.7,5.4-2.4c2.4,0.4,4.7,1.2,6.8,2.4v0.4h-1.4L40.1,40.5z"
		/>
	<path class="st8" d="M29,42.2c2.4-0.5,4.7,0.1,7.1,0.1l0.9-0.2c0.7,0.2,1.4,0.2,2.1,0l-1.8,1.1h-3c-1.8,0-4-1.6-5.2,1.3
		c-0.1,0.1-0.5,0.1-0.7,0.1L25,43.4C26.1,42.2,27.7,42.8,29,42.2z"/>
	<path class="st12" d="M25,43.4l3.4,1.3c-1.7,1.7-3.8,0.4-5.6,0.8h-0.9C22.3,43.8,24,44.2,25,43.4z"/>
	<path class="st7" d="M57.8,39.4l1.2-0.7h0.9v0.5c0,1.5-0.6,1.9-1.9,1.2L57.8,39.4z"/>
	<path class="st7" d="M54.3,38.4c1.3-0.8,2-0.2,2.5,1L54.3,38.4z"/>
	<path class="st9" d="M24.3,47.2c3.3,0.7,6.5,0.1,9.6-0.7c2.2,1.6,4.5,2.9,7.3,2.7l0.4,0.3l-9.2,1.7c-2.7,0.5-5.4,0.6-8.1,0.4
		C25.4,50.3,25.5,48.4,24.3,47.2z"/>
	<path class="st9" d="M80.8,48.6c-2.4,1.3-5.2,0.7-7.7,1.5l-19.3-0.6c-0.7-0.8-1.6-0.5-2.4-0.5c-2.8-0.1-5.5,0-8.3,0.3
		c0.6-1.2,1.8-1.3,2.8-1.3c1.7,0,3.3-0.3,4.9-0.9h1c0.3,1.2,1.3,0.9,2.1,0.9c1.2,0,2.5,0.1,3.7,0.4c4.9,1.2,9.9,0.4,14.8,0.5
		c0.4,0,0.8-0.5,1.3-0.7h1c0.6,1.3,1.7,0.9,2.6,0.6C78.4,48.5,79.6,48.5,80.8,48.6z"/>
	<path class="st11" d="M24.3,47.2c0.9,1.3,0.9,3,0,4.3c-2.3,0.2-4.7,0.1-7-0.4c-1.2-0.6-2.3-1.1-2.6-2.6h3.8c0.8-0.1,1.6,0.2,2.2-1
		C21.3,46.3,23.1,47.1,24.3,47.2z"/>
	<path class="st10" d="M43.1,49.4c2.8-0.3,5.5-0.4,8.3-0.3c0.8,0,1.7-0.3,2.4,0.5c-0.4,0.6-1,0.9-1.7,0.9c-4-0.3-7.9,0.8-11.9,1
		c-1.9,0.1-3.8,0.9-5.7,0.6c-1.9-0.3-1.8,0.3-2-0.9l9.2-1.7L43.1,49.4z"/>
	<path class="st12" d="M72.6,38.4c-0.9,0.2-1.8,0-2.6-0.5l-10-3.6c-0.6-0.2-1.9-0.1-1.6-1.4c0.3-1.3,3,1.4,4.6,0.5h1
		c1.4,0.1,2,2,3.6,1.5c0.6,1.3,2.3,0.6,3.1,1.5H70c-0.7,0.3-0.1,0.3,0.1,0.5C70.3,37.1,72.3,36.8,72.6,38.4z"/>
	<path class="st10" d="M58.4,31.7c0.6,0.4,0,0.8,0,1.1s-1.1,0-1-0.7C57.5,31.4,58,31.8,58.4,31.7z"/>
	<path class="st7" d="M67.5,34.8c-1.6,0.4-2.2-1.4-3.6-1.5c1.9-1.9,4.1-1,6.2-0.5c0.5,0.6,1.3,0.2,2,0.5c0.7,0.3-0.7,0.9-1,1.4
		L67.5,34.8z"/>
	<path class="st8" d="M55.9,33.8l3.6,2.4l-0.3,0.6c-2.5-1-5.3-1.3-7.3-3.5C53.3,33.2,54.6,33.4,55.9,33.8z"/>
	<path class="st9" d="M67.4,40c2.4,0,4.9,0.8,7.3-0.1h1.4c1.6,0.8,3.5,0.3,5.1,1c3.8,0.1,7.1,2.7,11.1,2.5c-0.2-1.1-1.6-0.8-1.4-1.9
		c2.4,0.3,4.6,1.1,6.6,2.5c0.2,0.6,0.9,0.8,1.4,0.6c0.1,0,0.1-0.1,0.2-0.1l0,0c1.4,1.8,3.5,1.8,5.5,2.1c1.1,0.1,2.2,0.1,3.3,0.1h0.2
		c0.3,0.4-0.1,0.3-0.3,0.4h-2.2c-1-0.2-1.9,0.4-2.2,1.3c-0.2,1,0.8,1.1,1.5,1.3c0.5,0.1,0.9,0.6,0.8,1.1c-2.8,0-5.3-1.5-8-1.7
		c-6.1-3.5-12.9-5.7-19.9-6.5h-0.5c-1.2-0.8-2.7-1.1-4.1-0.9C71.2,41,69.2,41,67.4,40z"/>
	<path class="st10" d="M37.3,43.3l1.8-1.1c0.9-0.5,1.9-0.8,3-0.8l1.8-0.3c0,0.5-0.9,1.4,0.4,1.4s2.9,0.8,4.4,0.4
		c4.1,0,8,1.7,12.1,1.7c0.9,0,2,0.5,2.7-0.6c0.7-1.1,1.1-0.2,1.3,0.4c0.2,0.6-0.5,0.5-0.9,0.6L61,46.4l-4.5-0.3
		c-2.2-0.4-4.5-0.6-6.7-0.5l-4-1.3c-1.4-1.6-3.2-0.8-4.8-0.6C39.8,44.1,38.4,43.9,37.3,43.3z"/>
	<path class="st8" d="M56.4,46.1l4.5,0.3H67l3-0.4l5.6-0.9c2.1-0.3,4,0.7,6,0.6c0.4,1.3-0.5,1.6-1.5,1.7l-5.6,1h-1L71.7,48l1.6-0.8
		c-0.8-0.1-1.7-0.1-2.5,0c-3.1,0.6-6.2,0.7-9.3,0.3C59.9,47.3,57.8,48,56.4,46.1z"/>
	<path class="st8" d="M63.4,44c-0.7,1.1-1.8,0.6-2.7,0.6c-4.1,0-8-1.7-12.1-1.7c-1-0.9-2.2-1.5-3.5-1.8c3.8-0.8,7.4,0.8,11.1,1.2
		C59.9,42.7,61.2,42.8,63.4,44z"/>
	<path class="st10" d="M77.7,42.4c7,0.8,13.8,3.1,19.9,6.6c-1.7,0.5-3.1-0.6-4.5-1.1c-4.4-1.5-8.9-2.9-13.4-4
		C78.8,43.8,78.1,43.2,77.7,42.4z"/>
	<path class="st11" d="M105.6,50.7c0.1-0.5-0.3-1-0.8-1.1c-0.6-0.2-1.7-0.3-1.5-1.3c0.3-0.9,1.2-1.5,2.2-1.3h2.2
		c-0.2,1.4,1,1.4,1.8,1.6l3.2,0.8c0.1,1.4-1.9,0.9-2.1,2.1l-2-0.3c-0.2-0.6-0.5-1-1.1-0.2C106.8,51.1,106.2,51,105.6,50.7z"/>
	<path class="st12" d="M75.7,45l-5.6,0.9c-1.1-0.5-2.1-0.8-3,0.4H66c-1.3-2,0.8-2.9,1.5-4.1c0.7-1.2,1.7-0.7,2.1,0.6L69.1,43
		c-0.4,0-1.1-0.3-1,0.5c0.1,0.8,0.6,0.6,1,0.1h1c1.2,1,2.5,1.4,3.9,0.3l2.5-0.3L75.7,45z"/>
	<path class="st11" d="M74.6,48.3l5.6-1c0.9-0.2,1.9-0.4,1.5-1.7c0.4-0.1,0.8,0,1.1,0.3l0.6,1.2c-0.5,0.9-1.4,1.5-2.5,1.5
		c-1.2-0.1-2.4,0-3.6,0.3C76.3,49.2,75.2,49.6,74.6,48.3z"/>
	<path class="st11" d="M73.9,44c-1.4,1-2.7,0.6-3.9-0.3c-1.2-0.9,1.1,0.1,0.5-0.7C72,42.2,73.2,42.2,73.9,44z"/>
	<path class="st1" d="M83.3,47.1l-0.6-1.2c1.7-0.1,3.3,0.6,4.6,1.7C86,47.5,84.6,48.1,83.3,47.1z"/>
	<path class="st10" d="M73.1,41.5c1.4-0.2,2.9,0.1,4.1,0.9C75.8,42.7,74.3,42.3,73.1,41.5z"/>
	<path class="st12" d="M66.1,41.7c-0.4,0.3-1,0.3-1.3-0.1C65.2,41,65.6,41.5,66.1,41.7z"/>
	<path class="st5" d="M70.5,42.9c0.6,0.8-0.3,0.5-0.5,0.7h-1v-0.5l0.5-0.2H70.5z"/>
	<path class="st9" d="M107.6,51.1c0.5-0.7,0.8-0.4,1.1,0.2C108.3,51.5,107.8,51.5,107.6,51.1z"/>
	<path class="st10" d="M59.9,39.4v-0.5c0.6-0.2,1.2,0,1.6,0.4L59.9,39.4L59.9,39.4z"/>
	<path class="st8" d="M91,41.5c-0.3,1.1,1.1,0.8,1.4,1.9c-4,0.3-7.3-2.4-11.1-2.5c0.7-0.8,1.7-0.4,2.5-0.5l2.4-0.5l0.5,0.4h2.7
		c0.6-0.2,1,0.3,1.5,0.6L91,41.5z"/>
	<path class="st8" d="M93.1,39.8L92,39c2.4-0.2,4.6,0.8,6.8,1.3C96.8,41.3,95,40.2,93.1,39.8z"/>
	<path class="st8" d="M99,44.5c-0.5,0.3-1.2,0.2-1.5-0.3c0-0.1-0.1-0.1-0.1-0.2C98,44.1,98.7,43.7,99,44.5z"/>
	<path class="st5" d="M86.2,39.9l-2.4,0.5c-2.4-2-5-1.1-7.6-0.5h-1.5l-1-1.3h0.4c1.7-0.7,3.7-0.7,5.4,0c1.5,0.9,3.2,0.2,4.8,0.5
		C85.9,39.4,86.1,38.6,86.2,39.9z"/>
	<path class="st12" d="M86.2,39.9c0-1.4-1.1-0.8-1.8-1c-0.7-0.2-3.3,0.3-4.8-0.5h6.3c0.8,0,1.8-0.3,2,1l-1.2,1L86.2,39.9z"/>
	<path class="st8" d="M85.3,36.9c0.5,0,1.1-0.1,1.5,0.4h-2L85.3,36.9z"/>
	<path class="st12" d="M74.1,38.4h-0.4l-0.6-0.2c0.1-0.3,0.2-0.7,0.4-0.7S74.1,38.1,74.1,38.4z"/>
	<path class="st5" d="M86.7,40.4l1.2-1l0.5,0.5l-0.5,0.5H86.7z"/>
	<path class="st4" d="M87.8,40.4l0.5-0.5c0.4,0.1,0.9,0,1,0.5H87.8z"/>
	<path class="st5" d="M45.2,41.1c1.3,0.3,2.5,0.9,3.5,1.8c-1.5,0.4-2.9-0.4-4.4-0.4s-0.4-0.9-0.4-1.4L45.2,41.1z"/>
	<path class="st7" d="M37.3,43.3c1.1,0.6,2.3,0.7,3.5,0.4c1.6-0.2,3.4-1.1,4.8,0.6c-2.2-0.1-4.5-0.2-6.6,0.8l-5,1h-8.9
		c-0.8,0-1.7,0.3-2.3-0.5c1.9-0.4,4,0.9,5.6-0.8c0.2,0,0.7,0,0.7-0.1c1.2-2.8,3.4-1.3,5.2-1.3L37.3,43.3z"/>
	<path class="st11" d="M34,46.1l5.1-1.1c0.4,0.2,0.9,0.3,1,0.6c0.1,0.3-0.4,0.3-0.7,0.4s-1.3,0.2-1.7,1.2c4.4,0.9,8.8-0.8,13.1-0.1
		c-1.6,0.6-3.2,0.9-4.9,0.9c-1,0-2.2,0.1-2.8,1.3h-1.5L41.2,49c-2.8,0.1-5.1-1.2-7.3-2.7C33.9,46.2,34,46.2,34,46.1z"/>
	<path class="st10" d="M37,42.2l-0.9,0.2C36.3,42.1,36.6,42,37,42.2C36.9,42.2,37,42.2,37,42.2z"/>
	<path class="st12" d="M40.1,40.5l0.6,0.4L40.1,40.5z"/>
	<path class="st11" d="M56.4,46.1c1.3,1.9,3.5,1.2,5.2,1.4c3.1,0.4,6.2,0.3,9.3-0.3c0.8-0.1,1.7-0.1,2.5,0L71.8,48l1.8,0.4
		c-0.4,0.3-0.9,0.7-1.3,0.7c-4.9-0.1-9.9,0.7-14.8-0.5c-1.2-0.3-2.5-0.4-3.7-0.4c-0.8,0-1.8,0.3-2.1-0.9l0.4-0.2
		c0.2-0.4-0.2-0.3-0.3-0.3c-0.1,0-1.7,0-2.2-1C51.9,45.6,54.2,45.7,56.4,46.1z"/>
	<path class="st8" d="M49.7,45.6c0.4,1,1.3,0.9,2.2,1c0.9,0.1,0.6,0,0.3,0.3l-0.4,0.2h-1c-4.3-0.7-8.6,0.9-13.1,0.1
		c0.4-1,1.1-1,1.7-1.2c0.6-0.2,0.9,0.1,0.7-0.4c-0.2-0.5-0.7-0.4-1-0.6c2.1-1,4.3-0.9,6.6-0.8L49.7,45.6z"/>
	<path class="st11" d="M76.1,39.9c2.6-0.6,5.2-1.5,7.6,0.5c-0.8,0.2-1.8-0.3-2.5,0.5C79.6,40.3,77.7,40.8,76.1,39.9z"/>
	<path class="st7" d="M67.1,46.2c0.9-1.2,1.9-0.8,3-0.4L67.1,46.2z"/>
	<path class="st2" d="M69,43.1v0.5c-0.4,0.5-0.9,0.6-1-0.1S68.6,43.1,69,43.1z"/>
</g>
</svg>
