<?xml version="1.0" encoding="utf-8"?>
<!-- Generator: Adobe Illustrator 21.0.2, SVG Export Plug-In . SVG Version: 6.00 Build 0)  -->
<svg version="1.1" id="master-artboard" xmlns="http://www.w3.org/2000/svg" xmlns:xlink="http://www.w3.org/1999/xlink" x="0px"
	 y="0px" viewBox="0 0 124.4 150" style="enable-background:new 0 0 124.4 150;" xml:space="preserve">
<style type="text/css">
	.st0{fill:#4D2C2B;}
	.st1{fill:#A7A9AC;}
	.st2{fill:#D1D3D4;}
	.st3{opacity:0.1;enable-background:new    ;}
	.st4{fill:#EC008C;}
	.st5{fill:#EF5BA1;}
	.st6{fill:#58595B;}
	.st7{fill:#414042;}
	.st8{opacity:0.1;}
	.st9{opacity:0.4;enable-background:new    ;}
	.st10{opacity:0.2;fill:#414042;enable-background:new    ;}
	.st11{fill:#FFE1C2;}
	.st12{opacity:5.000000e-02;enable-background:new    ;}
	.st13{fill:#FFFFFF;}
	.st14{fill:#39BB9D;}
	.st15{fill:#35B131;}
	.st16{opacity:0.2;enable-background:new    ;}
	.st17{fill:#F1D6B8;}
	.st18{fill:#F9CBDF;}
	.st19{fill:#F6ADCD;}
	.st20{fill:#ED1C24;}
</style>
<title>Artboard 1</title>
<path class="st0" d="M62.1,63C30,63,30.8,53.7,30.8,34.7c0-25.7,12.9-35,31.3-35s31.3,9.3,31.3,35C93.3,53.7,94.1,63,62.1,63z"/>
<g>
	<path class="st1" d="M79,132.9c-2.3-0.1-4.7-0.5-6.9-1.2c-3.2-0.7-6.6-1.6-9.8-1.6c-3.3,0.2-6.6,0.7-9.8,1.6
		c-2.3,0.7-4.6,1.1-6.9,1.2c-3.6,0-5.9-2.5-5.9-6.2v-17.5h2.1v17.5c0,2.7,1.2,4.1,3.7,4.1c2.2-0.1,4.3-0.5,6.4-1.2
		c3.4-0.9,6.8-1.4,10.3-1.6c3.5,0.2,7,0.7,10.3,1.6c2.1,0.6,4.3,1,6.4,1.2c2.5,0,3.7-1.4,3.7-4.1v-17.5h2.1v17.5
		C84.7,130.4,82.6,132.9,79,132.9z"/>
	<g>
		<path class="st2" d="M82.1,150.3c-2.8-0.2-5.5-0.7-8.2-1.4c-3.7-0.9-7.8-2-11.6-2s-8,1.1-11.6,2s-5.9,1.4-8.2,1.4
			c-4.3,0-6.9-2.8-6.9-7.5v-20.5h2.5V143c0,3.2,1.6,5,4.4,5c2.6-0.2,5.1-0.7,7.5-1.4c3.7-0.9,8.2-2,12.1-2c3.9,0,8.4,1.1,12.1,2
			c2.5,0.7,5,1.2,7.5,1.4c2.8,0,4.4-1.8,4.4-5v-20.7h2.5V143C88.8,147.4,86.3,150.3,82.1,150.3z"/>
		<path class="st3" d="M35.5,130.3l2.5,0.2v-8.2h-2.5V130.3z M86.4,122.3v8.4l2.5-0.2v-8.2H86.4z"/>
		<path class="st3" d="M82.8,150.3c-4.4-0.4-13.4-4.6-20.6-4.6s-13.3,3.2-20,3.2c-3.2,0-5.3-2-5.3-7.5v-19.3h-1.3v20.7
			c0,4.6,2.7,7.5,6.9,7.5c2.8-0.2,5.5-0.7,8.2-1.4c3.7-0.9,7.8-2,11.6-2c3.8,0,8,1.1,11.6,2s5.9,1.4,8.2,1.4H82.8z"/>
	</g>
	<g>
		<path class="st2" d="M116.5,139.4c-0.6-0.1-1.1-0.2-1.6-0.5c-1.1-0.8-2-1.9-2.5-3.2c-0.5-1-1.1-1.9-1.8-2.8
			c-0.6-0.6-1.4-1-2.3-1.1c-1,0-2-0.3-2.8-0.9c-2-1.4-2-4.4-1.8-6.8v-7.1h2.1v7.5c0,1.6,0,4.3,0.9,5c0.5,0.4,1.2,0.6,1.8,0.5
			c1.4,0,2.8,0.6,3.7,1.6c0.9,0.9,1.6,2,2.1,3.2c0.4,0.9,0.9,1.7,1.6,2.3l0.7,0.2c0.4-0.5,0.6-1.2,0.5-1.8v-18.1h2.1v18.1
			c0,1.8-0.5,3-1.4,3.6C117.4,139.2,117,139.3,116.5,139.4z"/>
		<path class="st3" d="M105.6,124.4v-7.5h-2.1v9.6l2-0.4C105.6,125.5,105.6,125,105.6,124.4z M117.2,117.5v5.3
			c0.7-0.4,1.4-0.7,2.1-0.9v-4.3h-2.1V117.5z"/>
		<path class="st3" d="M118.3,134.5c0,2.5-0.4,3.7-1.6,3.7s-2.3-4.4-6-6.6c-1.8-0.9-3.4-0.5-4.8-0.5c0.8,0.5,1.8,0.8,2.7,0.9
			c0.9,0,1.8,0.4,2.3,1.1c0.7,0.8,1.3,1.8,1.8,2.8c0.6,1.2,1.4,2.3,2.5,3.2c0.5,0.3,1,0.5,1.6,0.5c0.4,0,0.8-0.1,1.1-0.4
			c0.9-0.5,1.4-1.8,1.4-3.6v-18.2h-1.1C118.3,123.9,118.3,133.5,118.3,134.5z"/>
	</g>
	<g>
		<path class="st2" d="M7.8,139.4c0.6-0.1,1.1-0.2,1.6-0.5c1.1-0.8,2-1.9,2.5-3.2c0.5-1,1.1-1.9,1.8-2.8c0.6-0.6,1.4-1,2.3-1.1
			c1,0,2-0.3,2.8-0.9c2-1.4,2-4.4,1.8-6.8v-7.1h-2.1v7.5c0,1.6,0,4.3-0.9,5c-0.5,0.4-1.2,0.6-1.8,0.5c-1.4,0-2.8,0.6-3.7,1.6
			c-0.9,0.9-1.6,2-2.1,3.2c-0.4,0.9-0.9,1.7-1.6,2.3l-0.7,0.2c-0.4-0.5-0.6-1.2-0.5-1.8v-18.1H4.9v18.1c0,1.8,0.5,3,1.4,3.6
			C6.8,139.2,7.3,139.4,7.8,139.4z"/>
		<path class="st3" d="M18.6,126.2l2,0.4V117h-2.1v7.5C18.7,125,18.8,125.6,18.6,126.2z M5.1,117.5v4.3c0.7,0.4,1.4,0.7,2.1,0.9
			v-5.3H5.1V117.5z"/>
		<path class="st3" d="M6.2,134.5c0,2.5,0.4,3.7,1.6,3.7s2.3-4.4,6-6.6c1.8-0.9,3.4-0.5,4.8-0.5c-0.8,0.5-1.8,0.8-2.7,0.9
			c-0.9,0-1.8,0.4-2.3,1.1c-0.7,0.8-1.3,1.8-1.8,2.8c-0.5,1.3-1.4,2.4-2.4,3.3c-0.5,0.3-1,0.5-1.6,0.5c-0.4,0-0.8-0.1-1.1-0.4
			c-0.9-0.5-1.4-1.8-1.4-3.6v-18.3h1.1C6.2,123.9,6.2,133.5,6.2,134.5z"/>
	</g>
	<path class="st4" d="M124.8,112.7c0,8.2-24.6,14.5-62.4,14.5s-62.6-6.3-62.6-14.5v-2.8c0,8.1,24.6,14.4,62.4,14.4
		s62.4-6.2,62.4-14.5L124.8,112.7z"/>
	<path class="st5" d="M124.8,109.5c0,8.2-24.6,14.5-62.4,14.5s-62.6-6.2-62.6-14.5s28-12.2,62.4-12.2S124.8,102.6,124.8,109.5z"/>
	<path class="st6" d="M119.7,109.4c0,5.3-27.1,9.6-57.5,9.6s-57.4-4.3-57.4-9.6s27.1-10,57.5-10S119.7,104,119.7,109.4z"/>
	<path class="st4" d="M62.2,101c28.4,0,53.9,4.4,57.1,9.4c0.2-0.3,0.4-0.7,0.4-1.1c0-5.3-27.1-10-57.5-10S4.8,104,4.8,109.4
		c0,0.4,0.2,0.8,0.4,1.1C8.3,105.4,33.9,101,62.2,101z"/>
	<path class="st7" d="M79.6,109.9c0,1.4-7.6,2.7-17.3,2.7l0,0c-9.6,0-17.3-1.2-17.3-2.7l0,0c0-1.4,7.6-2.7,17.3-2.7l0,0
		C71.7,107.2,79.6,108.4,79.6,109.9z"/>
	<g class="st8">
		<path d="M119.5,109.9L119.5,109.9c0,0.2-0.2,0.2-0.2,0.4S119.5,110.1,119.5,109.9z"/>
	</g>
</g>
<path class="st9" d="M119.4,110.4c-3.2-4.9-28.8-9.4-57.2-9.4s-54,4.5-57.2,9.4c-0.1-0.1-0.2-0.3-0.2-0.4h0c0.1,0.4,0.4,0.7,0.7,1
	c4.9-4.7,29.4-8.8,56.6-8.8s51.7,4.1,56.6,8.8L119.4,110.4z"/>
<path class="st10" d="M29.3,86.4C29.1,87,29,87.6,29,88.2c-0.1,0.5-0.1,1.1-0.1,1.6c0,0.6,0,1.1,0.1,1.7l0.3,1.7
	c0.2-0.5,0.3-1.1,0.3-1.7c0.1-1.1,0.1-2.3,0-3.4C29.6,87.5,29.5,87,29.3,86.4z M54.7,85.4c-0.2,0.7-0.3,1.5-0.3,2.2
	c0,0.7-0.1,1.5-0.1,2.2c0,0.7,0,1.5,0.1,2.2l0.3,2.2c0.2-0.7,0.3-1.5,0.3-2.2c0.1-1.5,0.1-2.9,0-4.4C55,86.9,54.9,86.2,54.7,85.4z
	 M61.5,86.4c-0.2,0.5-0.3,1.1-0.3,1.7c-0.1,1.1-0.1,2.3,0,3.4l0.3,1.7c0.2-0.5,0.3-1.1,0.3-1.7c0.1-1.1,0.1-2.3,0-3.4
	C61.7,87.6,61.6,87,61.5,86.4z M96,87.6l-0.3-2.2c-0.2,0.7-0.3,1.5-0.3,2.2c0,0.7-0.1,1.5-0.1,2.2c0,0.7,0,1.5,0.1,2.2l0.3,2.2
	c0.2-0.7,0.3-1.5,0.3-2.2c0.1-0.7,0.1-1.5,0.1-2.2C96.1,89,96.1,88.3,96,87.6z M68,83.7c-0.2,1-0.3,2-0.3,3c-0.1,1-0.1,2-0.1,3
	s0,2,0.1,3l0.3,3c0.2-1,0.3-2,0.3-3c0.1-1,0.1-2,0.1-3s0-2-0.1-3C68.3,85.7,68.2,84.7,68,83.7z"/>
<g>
	<g>
		<g>
			<path class="st11" d="M91.5,46.2c-1,0.3-1.9,0.9-2.5,1.8l-19.7,5.1c-1.9,0.5-3,2.4-2.5,4.3c0.5,1.9,2.4,3,4.3,2.5l19.7-5.2
				c0.9,0.4,2,0.5,3,0.2c2.4-0.6,3.9-3.1,3.2-5.5c-0.5-2.3-2.8-3.8-5.1-3.3C91.8,46.1,91.6,46.1,91.5,46.2z"/>
			<path class="st12" d="M96.5,53.1c-1,0.6-2.2,0.7-3.2,0.2c-3.6-1.6-3.7,0.7-9.1,2c-5.4,1.3-13.1,3.7-13.8,4.6c0.3,0,0.6,0,0.9-0.2
				L91,54.5c0.9,0.4,2,0.5,3,0.2C95.1,54.7,96,54.1,96.5,53.1z"/>
		</g>
		<g>
			<path class="st11" d="M32.8,46.2c1,0.3,1.9,0.9,2.5,1.8l17.3,4.6c1.9,0.5,3,2.4,2.5,4.3c-0.5,1.9-2.4,3-4.3,2.5l-17.3-4.7
				c-0.9,0.4-2,0.5-3,0.2c-2.4-0.6-3.9-3.1-3.2-5.5c0.6-2.4,3-3.8,5.3-3.3C32.7,46.1,32.7,46.2,32.8,46.2z"/>
			<path class="st12" d="M52.6,52.4l-13.2-3.5c3,3,7.8,5.3,15.7,6C54.8,53.7,53.8,52.7,52.6,52.4z"/>
			<path class="st12" d="M84.9,49.1l-15.6,4c-1.2,0.3-2.1,1.2-2.5,2.3C76.2,54.7,81.7,52.4,84.9,49.1z"/>
			<path class="st12" d="M28,53.1c1,0.6,2.2,0.7,3.2,0.2c3.6-1.6,3.7,0.7,9.1,2c5.4,1.3,10.6,3.2,11.3,4.1c-0.3,0-0.6,0-0.9-0.2
				l-17.3-4.6c-0.9,0.4-2,0.5-3,0.2C29.4,54.7,28.4,54.1,28,53.1z"/>
		</g>
		<path class="st11" d="M69.5,79.7l8.7,8c0,0,4.3,0.9,7.6-5.2c-3.4,0-11.2-6-11.2-6L69.5,79.7z"/>
		<path class="st13" d="M78.5,87.8c0,0,4.3,0.9,7.6-5.2c-1.2,0-3.2-0.9-5-2c-1.7,1.8-3.7,3.2-5.9,4.1L78.5,87.8z"/>
		<path class="st12" d="M84.4,85.1L84.4,85.1c-5,2-9.8-2.5-13.4-6.2l-1.2,0.7l8.7,8C78.5,87.8,81.5,88.4,84.4,85.1z"/>
		<path class="st11" d="M54.8,79.7l-8.7,8c0,0-4.3,0.9-7.6-5.2c3.4,0,11.2-6,11.2-6L54.8,79.7z"/>
		<path class="st13" d="M45.9,87.8c0,0-4.3,0.9-7.6-5.2c1.2,0,3.2-0.9,5-2c1.7,1.8,3.7,3.2,5.9,4.1L45.9,87.8z"/>
		<path class="st12" d="M40.1,85.1L40.1,85.1c5,2,9.8-2.5,13.4-6.2l1.2,0.7l-8.7,8C45.9,87.8,42.9,88.4,40.1,85.1z"/>
		<path class="st14" d="M52.3,66.6c-3.8,2.1-7.2,4.9-10,8.2c0,0,5.2,5.2,11,7.5c2.8,0.9,5.8,1.3,8.7,1.2c3,0.1,6-0.3,8.9-1.2
			c5.9-2.3,11-7.5,11-7.5c-3.7-5-10-8.2-10-8.2H52.3z"/>
		<path class="st3" d="M75.3,68.5c-0.4,1.6,2.1,3.2,2.5,4.3c0.4,1.1,0.7,2.5-2.5,5.7c-1.3,1.4-2.8,2.6-4.4,3.6
			c5.9-2.3,11-7.5,11-7.5C80,72.2,77.8,70.1,75.3,68.5z"/>
		<path class="st15" d="M62.4,69.1c-8.9,0-13.8-2.5-13.8-2.5c0.9-14.7,7.8-16.3,13.8-16.3s12.9,1.6,13.8,16.3
			C76.2,66.6,71.3,69.1,62.4,69.1z"/>
		<path class="st12" d="M65.6,68.9c6.9-0.5,10.7-2.5,10.7-2.5c-0.7-9.4-3.8-13.4-7.3-15c2,3.6,5.3,11.2,4.6,13.6
			C72.9,67.3,68.5,67.5,65.6,68.9z"/>
		<path class="st6" d="M77.6,87.8c1.8-0.5,5.9-1.4,8.5-6c2.6-4.6,7.1-2.5,9.1-0.5c-1.1,3.6-7.8,9.4-13.8,11.4
			C79.7,91.5,78.3,89.8,77.6,87.8z"/>
		<path class="st7" d="M94.5,80.6c-2.3,4.4-7.5,8.5-14,11.4l0.7,0.5c5.9-1.8,12.7-7.6,13.8-11.4L94.5,80.6z"/>
		<path class="st6" d="M46.8,87.8c-1.8-0.5-5.9-1.4-8.5-6c-2.6-4.6-7.1-2.5-9.1-0.5c1.1,3.6,7.8,9.4,13.8,11.4
			C44.7,91.5,46.1,89.8,46.8,87.8z"/>
		<path class="st7" d="M29.9,80.6c2.3,4.4,7.5,8.5,14,11.4l-0.7,0.5c-5.9-1.8-12.7-7.6-13.8-11.4C29.4,81,29.5,80.8,29.9,80.6z"/>
		<path class="st16" d="M95,81.2c-1.1-1.1-2.5-1.9-4-2.2c-2.1,2.3-0.9,4.1-2.7,6.8c-3,4.3-6.8,3.7-9.1,4.8l2,1.8
			C87.2,90.9,94,84.9,95,81.2z"/>
		<path class="st16" d="M29.2,81.2c1.1-1.1,2.5-1.9,4.1-2.2c2.1,2.3,0.9,4.1,2.7,6.8c3,4.3,6.8,3.7,9.1,4.8l-2,1.8
			C37.1,90.9,30.3,84.9,29.2,81.2z"/>
	</g>
	<g>
		<g>
			<path class="st11" d="M92.4,33.8c0,2-1.4,3.9-3.4,3.9c-2,0-3.4-2-3.4-3.9c-0.1-1.7,1.3-3.2,3-3.2c0.1,0,0.3,0,0.4,0
				C91,30.8,92.4,31.9,92.4,33.8z"/>
			<path class="st17" d="M89.2,31.9c-1.2-0.1-2.2,0.7-2.3,1.9c0,0.1,0,0.1,0,0.2c0,1.4,1.1,2.8,2.3,2.8c1.2,0,2.3-1.4,2.3-2.8
				c0-1.2-0.9-2.1-2.1-2.1C89.3,31.9,89.3,31.9,89.2,31.9z"/>
		</g>
		<g>
			<path class="st11" d="M38.5,33.8c0,2-1.4,3.9-3.4,3.9c-2,0-3.4-2-3.4-3.9c-0.1-1.7,1.3-3.2,3-3.2c0.1,0,0.3,0,0.4,0
				C37.1,30.8,38.5,31.9,38.5,33.8z"/>
			<path class="st17" d="M35.3,31.9c-1.2-0.1-2.2,0.7-2.3,1.9c0,0.1,0,0.1,0,0.2c0,1.4,1.1,2.8,2.3,2.8c1.2,0,2.3-1.4,2.3-2.8
				c0-1.2-0.9-2.1-2.1-2.1C35.4,31.9,35.4,31.9,35.3,31.9z"/>
		</g>
		<path class="st11" d="M62.2,54.2c-30.5,0-27.8-16.5-25.9-29.3C38.2,12,51.2,6.2,62.2,6.2S86.3,12.1,88.1,25
			C89.9,37.9,92.7,54.2,62.2,54.2z"/>
		<path class="st18" d="M86,39.6c-3.5,0-6.4,2.9-6.4,6.5c0,1.6,0.6,3.2,1.8,4.4c3.9-2.1,6.7-5.9,7.3-10.3
			C87.9,39.7,86.9,39.5,86,39.6z M38.3,39.6c-0.9,0-1.8,0.2-2.7,0.5c0.7,4.4,3.4,8.3,7.3,10.4c1.1-1.2,1.8-2.8,1.8-4.4
			c0.1-3.5-2.8-6.5-6.3-6.5C38.4,39.6,38.3,39.6,38.3,39.6z"/>
		<g>
			<path class="st13" d="M51.6,34.2c0,2.6-2.1,4.6-4.6,4.6c-2.6,0-4.6-2.1-4.6-4.6c0-2.6,2.1-4.6,4.6-4.6l0,0
				C49.4,29.7,51.5,31.7,51.6,34.2z"/>
			<path d="M49.8,34.2c0,1.6-1.3,2.8-2.8,2.8s-2.8-1.3-2.8-2.8c0-1.6,1.3-2.8,2.8-2.8l0,0l0,0C48.5,31.4,49.8,32.7,49.8,34.2z"/>
			<path class="st13" d="M50.3,32.2c0,0.8-0.6,1.4-1.4,1.4s-1.4-0.6-1.4-1.4c0-0.8,0.6-1.4,1.4-1.4l0,0
				C49.6,30.9,50.2,31.5,50.3,32.2z"/>
			<path class="st13" d="M82.2,34.2c0,2.6-2.1,4.6-4.6,4.6c-2.6,0-4.6-2.1-4.6-4.6c0-2.6,2.1-4.6,4.6-4.6l0,0
				C80.1,29.7,82.1,31.7,82.2,34.2z"/>
			<path d="M80.5,34.2c0,1.6-1.3,2.8-2.8,2.8c-1.6,0-2.8-1.3-2.8-2.8c0-1.6,1.3-2.8,2.8-2.8l0,0C79.2,31.4,80.5,32.7,80.5,34.2
				C80.5,34.2,80.5,34.2,80.5,34.2z"/>
			<path class="st13" d="M81,32.2c0,0.8-0.6,1.4-1.4,1.4s-1.4-0.6-1.4-1.4c0-0.8,0.6-1.4,1.4-1.4C80.3,30.9,80.9,31.5,81,32.2z"/>
			<path class="st17" d="M57.8,40.2c1.2-3,7.5-2.7,9.1-1.4C63.7,38.4,59,39.3,57.8,40.2z"/>
			<path class="st19" d="M68.3,44.8c0,3.4-2.8,6.2-6.2,6.2c-3.4,0-6.2-2.8-6.2-6.2c2-0.5,4.1-0.8,6.2-0.7
				C64.2,44,66.3,44.2,68.3,44.8z"/>
			<path class="st13" d="M62.1,44.1c-2.1-0.1-4.2,0.2-6.2,0.7c0,0.4,0,0.8,0.2,1.2c0.3,0.6,1,0.9,1.6,0.9c0.5-0.1,1-0.3,1.4-0.7
				c0.3,0.6,0.9,1,1.6,1.1c0.7,0,1.3-0.3,1.6-0.9c0.3,0.6,1,0.9,1.6,0.9c0.7,0,1.4-0.4,1.6-1.1c0.4,0.4,0.9,0.6,1.4,0.7
				c0.7,0,1.3-0.3,1.6-0.9c0.1-0.4,0.2-0.8,0.2-1.2C66.5,44.3,64.3,44.1,62.1,44.1z"/>
			<path class="st20" d="M59.6,50.5c0.8,0.4,1.6,0.5,2.5,0.5c2.3,0,4.5-1.3,5.5-3.4C64.9,47.6,61.3,48.7,59.6,50.5z"/>
		</g>
	</g>
</g>
<path class="st3" d="M58.8,75.8c-2.8,5.6-4.5,5.4-8.2,3.7s-4.8-4.3-4-6.5s2.9-2.9,2.6-4.3c-2.5,1.8-4.8,3.9-6.7,6.2
	c0,0,5.1,5.2,11,7.4c2.3,0.7,4.7,1,7.1,1.1C59.4,81.1,58.7,78.5,58.8,75.8z"/>
<path class="st0" d="M35.2,30.8C44,8.7,61.6,26,67.1,11.6c3.7,15.8,18.6,19.2,22,19.2C90.8,20.1,81.4,4.5,62,4.5
	S35.2,16.5,35.2,30.8z"/>
</svg>
