<?xml version="1.0" encoding="utf-8"?>
<!-- Generator: Adobe Illustrator 21.0.2, SVG Export Plug-In . SVG Version: 6.00 Build 0)  -->
<svg version="1.1" id="Layer_1" xmlns="http://www.w3.org/2000/svg" xmlns:xlink="http://www.w3.org/1999/xlink" x="0px" y="0px"
	 viewBox="0 0 100 103" style="enable-background:new 0 0 100 103;" xml:space="preserve">
<style type="text/css">
	.st0{fill:#061834;}
	.st1{fill:#EF903E;}
	.st2{fill:#AAD4FE;}
	.st3{fill:#030303;}
</style>
<title>Artboard 1</title>
<g>
	<path class="st0" d="M0,69.4c1-1.6,1.8-3.3,2.8-4.9c2.4-3.5,5-6.8,8.4-9.4c1.1-0.8,2.2-1.5,3.5-1.8c0.6-0.2,1.3-0.2,1.9-0.1
		c3.5,0.8,7,1.5,10.4,2.9c1.1,0.4,2.2,0.9,3,1.9c0.3,0.4,0.5,0.1,0.7-0.1c4-2.9,8.6-4.8,13.4-5.6c1.2-0.2,2.5-0.3,3.8-0.4
		c0.6,0,0.8-0.2,0.7-0.8c-0.6-4.5-1-9-1.3-13.5c-0.7-9.3-0.9-18.6-0.4-27.8c0.2-3.3,0.6-6.5,0.9-9.7h0.6c-0.3,3-0.7,6.1-0.9,9.1
		c-0.5,7.5-0.4,15,0,22.5c0.3,6.5,0.9,13,1.7,19.4c0.1,0.7,0.3,0.9,1,0.9c7.2,0.2,13.7,2.5,19.3,7.2c0.2,0.1,0.3,0.5,0.6,0.1
		c1.1-1.2,2.6-1.7,4-2.3c3-1.1,6.2-1.8,9.3-2.5c1.4-0.3,2.7,0.2,3.9,0.9c3.2,1.9,5.6,4.6,7.8,7.5c1.9,2.4,3.5,5,4.9,7.8v0.6
		c-0.9,0.6-1.3-0.1-1.8-0.7c-1.8-2.6-3.6-5.1-5.6-7.6c-1.4-1.8-3-3.4-4.8-4.7c-1.2-0.9-2.5-1.5-4.1-1.3c-4.4,0.4-8.3,2.3-12.3,4
		c0.8,1,1.6,2,2.4,3c0.3,0.4,0.6,0.5,1.1,0.4c1.4-0.3,2.9-0.5,4.3-0.9c3.5-1,6.3,0.1,8.8,2.5c4,3.9,7.1,8.6,9.2,13.8
		c0.2,0.5,0.4,0.9-0.3,1.2c-0.7,0.3-0.7-0.2-0.9-0.6c-1.6-2.6-3.2-5.2-5-7.7s-3.2-4.4-5.5-6c-1.1-0.8-2.3-1.2-3.7-1.2
		c-1.8,0.1-3.6,0.4-5.4,0.9c-0.7,0.2-0.9,0.3-0.5,1c0.8,1.5,1.4,3.2,1.7,4.9c0.2,0.9,0.4,1.2,1.4,1c3.4-0.8,6.3-0.2,8.7,2.4
		c4,4.3,7.1,9.3,9,14.8c0.2,0.5,0.1,0.7-0.4,1s-0.7-0.2-0.9-0.5c-1.4-2.5-2.7-4.9-4.2-7.4c-1.5-2.4-3.1-4.9-5.4-6.8
		c-1.2-1-2.6-1.6-4.2-1.5c-1,0.1-1.9,0.2-2.9,0.2c-0.6,0-0.7,0.3-0.7,0.8c0.1,2.2-0.1,4.4-0.7,6.5c-0.2,0.6,0,0.7,0.5,0.7
		c0.8,0.1,1.7,0.2,2.5,0.3c2.4,0.1,4.2,1.2,5.5,3.2c3,4.6,4.6,9.6,5.4,15c0.1,0.4,0,0.8-0.4,1h-0.6c-0.3-1.2-0.7-2.4-1-3.5
		c-1.1-3.4-2.1-6.9-3.9-10c-1.2-1.9-2.7-3.3-5-3.6l-3-0.4c-0.6-0.1-0.9,0.1-1.2,0.7c-1.8,4.1-4.6,7.6-8.3,10.2
		c-7.6,5.5-16.1,7.2-25.2,5.2c-9.6-2.1-16.8-7.4-20.5-16.7c-0.1-0.3-0.2-0.6-0.6-0.5c-2.2,0.3-4.4,0.6-5.9,2.7
		c-1.2,1.7-2.1,3.5-2.8,5.4c-1.1,2.8-1.9,5.6-2.7,8.5c-0.1,0.3,0,0.9-0.8,0.7s-0.5-0.6-0.4-1c0.1-0.8,0.2-1.5,0.4-2.3
		c1-4.5,2.4-8.8,5-12.6c1.2-1.8,2.8-3,5.1-3.1c0.5,0,1-0.2,1.5-0.2c0.5,0,0.5-0.2,0.4-0.6c-0.5-2.3-0.7-4.8-0.4-7.2
		c0-0.4-0.1-0.5-0.5-0.6c-2.5-0.3-4.8,0.1-6.7,2c-0.7,0.8-1.5,1.6-2.1,2.4c-2.7,3.5-4.7,7.4-6.8,11.2c-0.2,0.3-0.2,0.9-0.8,0.5
		s-0.6-0.5-0.4-1.1c0.5-1.4,1.1-2.8,1.7-4.1c2.1-4.1,4.4-8,7.8-11.1c1.8-1.7,3.8-2.7,6.3-2.1c0.4,0.1,0.9,0.1,1.3,0.2
		c0.4,0.1,0.6,0,0.7-0.5c0.5-2.2,1.5-4.3,2.6-6.3c-1.6-0.5-3.2-0.7-4.7-0.9c-1.9-0.3-3.8,0.3-5.3,1.6c-1.1,0.9-2.1,1.9-2.9,3
		C8.4,72,6.3,75.6,4.2,79.1C4,79.4,4,80,3.3,79.7S2.7,79,2.9,78.4c1.3-3.3,3.1-6.3,5.2-9.2c1.7-2.3,3.6-4.5,6-6.2
		c1.5-1,3.1-1.6,5-1.2s3.7,0.7,5.5,1c0.3,0.1,0.7,0.3,1-0.1c0.9-1.2,1.9-2.2,2.9-3.2c-3.1-1.4-6.2-2.7-9.4-3.6s-6.2-0.2-8.7,2.3
		l-0.1,0.1C7.1,61.5,4.6,65.3,1.9,69C1.5,69.7,1.1,70.6,0,70L0,69.4z M63,82.3c-2.9,3.1-6,5.6-10,6.9c-2.7,0.9-5.7,0.7-8.3-0.6
		c-3-1.4-5.6-3.6-7.6-6.3c-0.4-0.5-0.2-0.8,0.1-1.2c1.7-2,1.6-4.6-0.4-6.4c-1.5-1.4-4.1-1.6-5.9-0.5c-1.8,1.1-2.7,3-2.1,5.1
		c0.7,2.6,3.8,4.1,6.6,3c0.6-0.2,1-0.2,1.4,0.4c1.6,2.1,3.5,3.9,5.8,5.3c4.1,2.5,8.3,2.8,12.7,0.8c3-1.3,5.5-3.4,7.7-5.8
		c0.4-0.5,0.8-0.7,1.5-0.6c1.4,0.2,2.7-0.3,3.8-1.2c1.4-1.1,1.9-2.7,1.4-4.5c-0.5-1.8-1.8-2.9-3.6-3.4c-2.4-0.5-4.8,0.7-5.7,2.8
		s-0.1,4.3,2.1,5.7L63,82.3z M43,64.8c-1.4,0.1-2.9,1-3.9,2.7c-1,1.7-1,4.1,0.3,5.9c1.3,1.9,2.9,2.5,4.9,2.2c2-0.3,3.4-1.5,4.1-3.5
		c0-0.1,0-0.3,0.2-0.3c0.1,0,0.3,0.1,0.3,0.2c0.1,0.2,0.2,0.5,0.3,0.7c1.6,3.3,5.8,3.9,8.3,1.3c1.5-1.6,1.8-3.4,1.2-5.6
		S55.2,64,52.2,65c-1.5,0.5-2.6,1.6-3.2,3.1c-0.1,0.2-0.1,0.4-0.3,0.4c-0.2,0-0.2-0.2-0.3-0.3C47.7,66.1,45.8,64.8,43,64.8z"/>
	<path class="st1" d="M63,82.3L62.6,82c-2.1-1.4-2.9-3.6-2.1-5.7c0.9-2.1,3.3-3.4,5.7-2.8c1.8,0.4,3.1,1.6,3.6,3.4s0,3.3-1.4,4.5
		c-1.1,0.9-2.4,1.4-3.8,1.2c-0.7-0.1-1.1,0.1-1.5,0.6c-2.2,2.4-4.7,4.4-7.7,5.8c-4.4,2-8.6,1.6-12.7-0.8c-2.3-1.4-4.2-3.2-5.8-5.3
		c-0.4-0.6-0.8-0.6-1.4-0.4c-2.8,1.1-6-0.4-6.6-3c-0.5-2.1,0.3-4,2.1-5.1c1.9-1.1,4.4-0.9,5.9,0.5c2,1.8,2.2,4.4,0.4,6.4
		c-0.3,0.4-0.5,0.6-0.1,1.2c2,2.7,4.6,4.9,7.7,6.3c2.6,1.3,5.5,1.5,8.3,0.6C57.1,87.9,60.2,85.3,63,82.3z"/>
	<path class="st2" d="M43,64.8c2.8,0,4.7,1.4,5.4,3.5c0.1,0.2,0,0.4,0.3,0.3c0.2,0,0.3-0.3,0.3-0.4c0.6-1.5,1.7-2.6,3.2-3.1
		c3-1.1,5.9,1.1,6.5,3.4c0.6,2.3,0.3,4-1.2,5.6c-2.5,2.6-6.6,2-8.3-1.3c-0.1-0.2-0.2-0.5-0.3-0.7c0-0.1-0.2-0.2-0.3-0.2
		c-0.2,0-0.1,0.2-0.2,0.3c-0.6,2-2.1,3.2-4.1,3.5c-2,0.3-3.8-0.5-4.9-2.2c-1.2-1.7-1.4-3.9-0.3-5.9C40.2,65.5,41.6,64.8,43,64.8z
		 M53.8,66.9c-1.6,0-2.9,1.3-2.8,2.9c0,0,0,0,0,0c0,1.6,1.4,2.9,2.9,2.9c1.6,0,2.9-1.3,2.9-2.9S55.5,66.9,53.8,66.9L53.8,66.9z
		 M43.8,73.1c1.5,0,2.8-1.2,2.9-2.7c0,0,0-0.1,0-0.1c0-1.7-1.2-3-2.8-3c-1.6,0-2.9,1.3-2.9,2.9c0,0,0,0,0,0.1
		C40.9,71.7,42.1,73,43.8,73.1C43.7,73.1,43.7,73.1,43.8,73.1L43.8,73.1z M48.7,68.9c-0.4,0.8-0.3,1.6-0.1,2.4
		C48.7,70.5,48.7,69.7,48.7,68.9L48.7,68.9z"/>
	<path class="st3" d="M53.8,66.9c1.6,0,2.9,1.3,2.9,2.9s-1.3,2.9-2.9,2.9c-1.5,0-2.9-1.3-2.9-2.9C50.9,68.3,52.2,66.9,53.8,66.9
		C53.8,66.9,53.8,66.9,53.8,66.9z"/>
	<path class="st3" d="M43.8,73.1c-1.6,0-2.8-1.3-2.8-2.8c0,0,0,0,0-0.1c0-1.6,1.2-2.9,2.8-2.9c0,0,0,0,0.1,0c1.6,0,2.8,1.3,2.8,3
		c0,1.5-1.2,2.8-2.8,2.8C43.8,73.1,43.8,73.1,43.8,73.1z"/>
	<path class="st1" d="M48.7,68.9c0,0.8,0,1.6-0.1,2.4C48.4,70.5,48.3,69.7,48.7,68.9z"/>
</g>
</svg>
