<svg id="Layer_1" data-name="Layer 1" xmlns="http://www.w3.org/2000/svg" width="500" height="515" viewBox="0 0 500 515">
  <defs>
    <style>
      .cls-1 {
        fill: #fefefe;
      }

      .cls-2 {
        fill: #061834;
      }

      .cls-3 {
        fill: #fcfcfc;
      }

      .cls-4 {
        fill: #fbfbfb;
      }

      .cls-5 {
        fill: #ef903e;
      }

      .cls-6 {
        fill: #aad4fe;
      }

      .cls-7 {
        fill: #030303;
      }
    </style>
  </defs>
  <title>Artboard 1</title>
  <g>
    <path class="cls-1" d="M243,1H497c3.4,0,4.1.7,4.1,4.1q-.2,174.5-.1,349a234,234,0,0,0-24.3-38.8c-11.3-14.3-23.2-28-39.2-37.3-6-3.5-12.5-6.1-19.5-4.6-15.8,3.3-31.6,6.8-46.7,12.4-7.3,2.7-14.8,5.2-20.2,11.3-1.6,1.9-2.3,0-3.1-.7-27.9-23.4-60.2-34.7-96.4-35.8-3.4-.1-4.4-1-4.8-4.4q-5.9-48.4-8.3-97c-1.9-37.4-2.2-74.9.2-112.3C239.6,31.4,241.6,16.2,243,1Z"/>
    <path class="cls-1" d="M1,348Q1,176.6.9,5.3C.9,1.8,1.5.9,5.2.9Q122.6,1.1,240,1c-1.2,16.3-3.4,32.4-4.4,48.7-2.8,46.5-1.4,92.9,1.9,139.2q2.4,33.9,6.6,67.6c.4,3.2-.5,4.1-3.5,4.2a123.5,123.5,0,0,0-18.9,1.8,152.8,152.8,0,0,0-67.1,27.9c-1,.7-1.8,2.5-3.5.4-3.9-4.8-9.5-7.2-15-9.5-16.7-6.7-34.3-10.5-51.9-14.3a21,21,0,0,0-9.4.4c-6.6,1.6-12.3,5-17.7,9-17.1,12.9-30.1,29.5-42.1,47C9.8,331.3,5.9,340,1,348Z"/>
    <path class="cls-2" d="M1,348c4.9-8,8.8-16.7,14.1-24.5,12-17.5,25-34.1,42.1-47,5.3-4,11.1-7.4,17.7-9a21,21,0,0,1,9.4-.4c17.6,3.8,35.1,7.6,51.9,14.3,5.6,2.2,11.1,4.6,15,9.5,1.7,2.1,2.5.3,3.5-.4a152.8,152.8,0,0,1,67.1-27.9,123.5,123.5,0,0,1,18.9-1.8c3,0,3.9-1,3.5-4.2q-4.3-33.7-6.6-67.6c-3.3-46.4-4.6-92.8-1.9-139.2,1-16.3,3.2-32.4,4.4-48.7h3c-1.4,15.2-3.4,30.4-4.4,45.7-2.4,37.4-2.1,74.9-.2,112.3q2.5,48.7,8.3,97c.4,3.4,1.4,4.3,4.8,4.4,36.1,1.1,68.5,12.3,96.4,35.8.8.7,1.5,2.5,3.1.7,5.4-6.2,12.9-8.6,20.2-11.3,15.2-5.6,30.9-9.1,46.7-12.4,7-1.5,13.5,1.1,19.5,4.6,16,9.3,27.9,23,39.2,37.3A234,234,0,0,1,501,354v3c-4.7,3.1-6.5-.3-8.8-3.6-8.9-12.9-18-25.6-27.9-37.8-7.2-8.8-14.8-17.1-24.2-23.7-6.1-4.3-12.6-7.3-20.4-6.6-22.1,1.9-41.7,11.3-61.5,20.1,4.1,5.2,8.1,10,11.8,15.2,1.5,2.2,2.9,2.5,5.4,1.9,7.1-1.6,14.5-2.4,21.5-4.4,17.5-5.1,31.6.5,44,12.7a211.1,211.1,0,0,1,46.1,68.8c1,2.3,2,4.3-1.5,5.9s-3.6-1.2-4.6-2.8c-8.1-13-16-26.1-24.9-38.6s-16.2-22-27.6-30c-5.6-4-11.7-6.2-18.7-5.8a137.5,137.5,0,0,0-27.1,4.4c-3.3.9-4.4,1.6-2.6,5.1a83.4,83.4,0,0,1,8.4,24.4c.8,4.5,2.1,6.2,7,5,16.8-4.2,31.4-.9,43.7,12.2a210.3,210.3,0,0,1,44.9,74.2c.9,2.5.5,3.7-2,4.9s-3.4-.9-4.3-2.4c-7-12.3-13.7-24.7-21-36.9s-15.6-24.4-26.9-33.9c-6.1-5.1-12.9-8.2-21-7.7-4.8.3-9.6.9-14.4,1-2.9.1-3.5,1.3-3.4,4a101.4,101.4,0,0,1-3.6,32.6c-.8,2.9.2,3.4,2.7,3.6,4.2.3,8.3,1.1,12.4,1.3,12.2.4,21.1,6.1,27.7,16.1,15.2,22.8,23.2,48.1,26.8,75,.3,2.1,0,3.8-2.1,4.8h-3c-1.7-5.9-3.3-11.8-5.2-17.7-5.3-17.1-10.3-34.4-19.6-50-5.8-9.7-13.4-16.3-25-17.9l-14.9-1.8c-3.2-.4-4.6.7-5.9,3.6a122.5,122.5,0,0,1-41.4,51c-38.1,27.5-80.7,35.9-126.2,26-48-10.4-83.8-36.9-102.7-83.6-.6-1.5-.9-2.9-2.9-2.6-11.2,1.4-22.1,3.1-29.4,13.4a119,119,0,0,0-13.9,27c-5.3,13.8-9.3,28.1-13.5,42.3-.5,1.7-.1,4.5-3.9,3.6s-2.4-3-2.2-4.9A112.7,112.7,0,0,1,47,492.9c4.8-22.5,11.9-44,25.1-63.1,6.1-8.9,14-15.1,25.4-15.6,2.5-.1,4.9-.8,7.4-.9s2.3-1.1,1.9-2.9a106.3,106.3,0,0,1-1.9-35.8c.2-2-.4-2.6-2.3-2.8-12.7-1.5-24.2.3-33.5,10.2a155.8,155.8,0,0,0-10.6,12c-13.3,17.4-23.3,36.8-33.9,55.8-.8,1.4-.9,4.3-4.1,2.6s-3.1-2.7-2.2-5.5A159.8,159.8,0,0,1,27,426.3c10.3-20.5,22.2-39.9,39.2-55.6,8.9-8.3,19-13.5,31.7-10.7,2.1.5,4.3.4,6.4.8s3.1-.2,3.5-2.3c2.6-11.1,7.4-21.3,13.2-31.4-7.9-2.7-15.8-3.6-23.7-4.7A32.4,32.4,0,0,0,71,330.2a111.4,111.4,0,0,0-14.7,14.9c-13.1,16.1-23.7,33.8-34.5,51.3-.9,1.5-1,4.7-4.5,3.1s-2.9-3.5-1.7-6.2c6.6-16.5,15.7-31.5,26.2-45.8,8.6-11.7,18-22.7,30.1-31.1,7.5-5.2,15.6-7.9,25-5.8s18.3,3.4,27.5,5c1.7.3,3.6,1.6,5.1-.4,4.3-5.8,9.5-10.8,14.6-16.2-15.7-6.8-30.8-13.6-47-17.9s-31.2-1.1-43.4,11.4l-.7.7c-16.6,15.6-29.1,34.6-42.3,53-2.4,3.4-4,8.1-9.6,4.7Zm315.2,64.5c-14.3,15.4-29.8,28.1-50.1,34.5a55,55,0,0,1-41.4-3,99.4,99.4,0,0,1-38.1-31.4c-1.9-2.6-1.1-3.8.6-5.8,8.7-10.1,7.8-23-2.1-32-7.6-6.8-20.3-7.9-29.4-2.5s-13.3,15.2-10.7,25.7c3.3,13.1,19.2,20.5,33,15.1,3.2-1.2,4.8-.9,7,1.8,8.2,10.5,17.6,19.6,29.2,26.5,20.5,12.3,41.6,14,63.6,4.2,15-6.7,27.3-17,38.5-28.9,2.2-2.3,4-3.6,7.6-3,7.1,1.1,13.7-1.7,19.1-6,7-5.7,9.6-13.6,7.2-22.4s-8.8-14.7-18-16.8c-11.9-2.7-24,3.3-28.6,14.1s-.3,21.5,10.4,28.3ZM216.1,325c-7,.3-14.7,4.8-19.5,13.4s-5,20.4,1.5,29.7,14.5,12.5,24.7,10.9,17.2-7.4,20.3-17.5c.2-.6-.1-1.4.9-1.5a1.5,1.5,0,0,1,1.6,1c.5,1.2,1,2.5,1.6,3.7,8.2,16.3,28.8,19.6,41.4,6.4,7.6-7.9,8.8-17,5.9-27.8s-17.4-22.4-32.5-17.1c-7.6,2.7-12.9,8.1-15.9,15.5-.4.9-.5,2.1-1.7,2.2s-1-.8-1.3-1.6C239.7,331.8,230.2,324.9,216.1,325Z"/>
    <path class="cls-3" d="M1,351c5.6,3.4,7.2-1.3,9.6-4.7,13.2-18.4,25.7-37.3,42.3-53l.7-.7c12.2-12.4,26.4-15.9,43.4-11.4s31.3,11.1,47,17.9c-5.1,5.3-10.3,10.4-14.6,16.2-1.5,2-3.4.7-5.1.4-9.2-1.6-18.4-3-27.5-5s-17.4.6-25,5.8c-12.1,8.3-21.5,19.3-30.1,31.1-10.5,14.3-19.6,29.3-26.2,45.8-1.1,2.8-1.6,4.7,1.7,6.2s3.6-1.6,4.5-3.1c10.9-17.6,21.5-35.3,34.5-51.3A111.4,111.4,0,0,1,71,330.2a32.4,32.4,0,0,1,26.4-7.7c7.9,1.1,15.8,2,23.7,4.7-5.8,10.1-10.5,20.3-13.2,31.4-.5,2.1-1.5,2.7-3.5,2.3s-4.3-.4-6.4-.8c-12.7-2.8-22.8,2.4-31.7,10.7-17,15.7-28.9,35.1-39.2,55.6A159.8,159.8,0,0,0,18.5,447c-.9,2.7-.4,4.1,2.2,5.5s3.3-1.2,4.1-2.6c10.6-19,20.6-38.5,33.9-55.8a155.8,155.8,0,0,1,10.6-12c9.3-9.8,20.8-11.7,33.5-10.2,1.9.2,2.6.8,2.3,2.8a106.3,106.3,0,0,0,1.9,35.8c.4,1.7.3,2.8-1.9,2.9s-4.9.8-7.4.9c-11.4.5-19.2,6.7-25.4,15.6C59,448.9,51.8,470.5,47,492.9a112.7,112.7,0,0,0-1.7,11.3c-.2,1.9-1.3,4.1,2.2,4.9s3.4-1.8,3.9-3.6c4.2-14.2,8.3-28.4,13.5-42.3a119,119,0,0,1,13.9-27c7.3-10.3,18.2-11.9,29.4-13.4,2.1-.3,2.4,1.1,2.9,2.6,18.9,46.7,54.7,73.2,102.7,83.6,45.5,9.9,88.1,1.5,126.2-26a122.5,122.5,0,0,0,41.4-51c1.3-2.9,2.7-4,5.9-3.6l14.9,1.8c11.6,1.5,19.3,8.2,25,17.9,9.3,15.6,14.3,32.9,19.6,50,1.8,5.9,3.4,11.8,5.2,17.7H5.9c-3.8,0-5-.4-5-4.7C1.1,457.9,1,404.5,1,351Z"/>
    <path class="cls-4" d="M455,516c2-1,2.3-2.7,2.1-4.8-3.6-26.9-11.6-52.2-26.8-75-6.6-9.9-15.6-15.7-27.7-16.1-4.1-.1-8.3-1-12.4-1.3-2.5-.2-3.5-.8-2.7-3.6a101.4,101.4,0,0,0,3.6-32.6c-.1-2.6.4-3.9,3.4-4,4.8-.1,9.6-.7,14.4-1,8.1-.5,14.9,2.6,21,7.7,11.3,9.5,19.4,21.5,26.9,33.9s14,24.6,21,36.9c.9,1.5,1.1,4,4.3,2.4s2.9-2.5,2-4.9A210.3,210.3,0,0,0,439,379.5c-12.3-13.1-26.9-16.4-43.7-12.2-4.9,1.2-6.2-.5-7-5a83.4,83.4,0,0,0-8.4-24.4c-1.8-3.5-.8-4.2,2.6-5.1a137.5,137.5,0,0,1,27.1-4.4c7-.4,13.1,1.8,18.7,5.8,11.3,8.1,19.6,18.9,27.6,30s16.8,25.6,24.9,38.6c1,1.5,1.1,4.3,4.6,2.8s2.5-3.6,1.5-5.9a211.1,211.1,0,0,0-46.1-68.8c-12.4-12.3-26.4-17.9-44-12.7-7,2-14.4,2.8-21.5,4.4-2.5.6-3.8.2-5.4-1.9-3.7-5.1-7.7-10-11.8-15.2,19.8-8.8,39.4-18.2,61.5-20.1,7.8-.7,14.3,2.4,20.4,6.6,9.4,6.5,17,14.9,24.2,23.7,9.9,12.1,19,24.9,27.9,37.8,2.3,3.3,4.1,6.7,8.8,3.6q0,77.5.1,155c0,3.4-.7,4.2-4.1,4.1C483,515.9,469,516,455,516Z"/>
    <path class="cls-5" d="M316.2,412.5l-2.4-1.6c-10.6-6.8-14.7-18-10.4-28.3s16.7-16.8,28.6-14.1c9.2,2.1,15.5,7.8,18,16.8s-.1,16.7-7.2,22.4c-5.4,4.3-11.9,7.1-19.1,6-3.6-.5-5.4.7-7.6,3-11.1,11.8-23.4,22.1-38.5,28.9-22,9.8-43,8.1-63.6-4.2-11.5-6.9-21-16-29.2-26.5-2.2-2.8-3.8-3.1-7-1.8-13.9,5.4-29.8-2-33-15.1-2.6-10.5,1.4-20.1,10.7-25.7s21.9-4.3,29.4,2.5c9.9,9,10.8,21.9,2.1,32-1.7,2-2.5,3.2-.6,5.8A99.4,99.4,0,0,0,224.7,444a55,55,0,0,0,41.4,3C286.3,440.5,301.9,427.8,316.2,412.5Z"/>
    <path class="cls-6" d="M216.1,325c14.1,0,23.6,6.9,26.9,17.4.3.8.2,1.8,1.3,1.6s1.3-1.3,1.7-2.2c3.1-7.5,8.3-12.9,15.9-15.5,15.2-5.3,29.5,5.4,32.5,17.1s1.6,19.9-5.9,27.8c-12.6,13.2-33.2,9.9-41.4-6.4-.6-1.2-1-2.5-1.6-3.7a1.5,1.5,0,0,0-1.6-1c-1,.1-.7.9-.9,1.5-3.1,10.1-10.3,15.9-20.3,17.5s-18.9-2.6-24.7-10.9-7.1-19.6-1.5-29.7S209.1,325.3,216.1,325Zm54.1,10.6A14.4,14.4,0,0,0,256,350.4c.1,7.8,6.8,14.5,14.4,14.3a14.6,14.6,0,0,0-.2-29.2Zm-50.3,30.9a14,14,0,0,0,14.4-14.1c.1-8.4-6.1-15-14.1-15A14.4,14.4,0,0,0,205.7,352,14.1,14.1,0,0,0,219.8,366.4Zm24.6-20.9c-2.1,4-1.6,8-.4,12.1C244.3,353.5,244.4,349.5,244.5,345.5Z"/>
    <path class="cls-7" d="M270.2,335.5a14.6,14.6,0,0,1,.2,29.2c-7.7.2-14.4-6.5-14.4-14.3A14.4,14.4,0,0,1,270.2,335.5Z"/>
    <path class="cls-7" d="M219.8,366.4A14.1,14.1,0,0,1,205.7,352a14.4,14.4,0,0,1,14.4-14.7c8,0,14.1,6.6,14.1,15A14,14,0,0,1,219.8,366.4Z"/>
    <path class="cls-5" d="M244.5,345.5c-.1,4-.2,8.1-.4,12.1C242.9,353.5,242.4,349.5,244.5,345.5Z"/>
  </g>
</svg>
