<?xml version="1.0" encoding="utf-8"?>
<!-- Generator: Adobe Illustrator 21.0.2, SVG Export Plug-In . SVG Version: 6.00 Build 0)  -->
<svg version="1.1" id="master-artboard" xmlns="http://www.w3.org/2000/svg" xmlns:xlink="http://www.w3.org/1999/xlink" x="0px"
	 y="0px" viewBox="0 0 139.2 150" style="enable-background:new 0 0 139.2 150;" xml:space="preserve">
<style type="text/css">
	.st0{fill:url(#SVGID_1_);}
</style>
<g transform="matrix(1, 0, 0, 1, 0, 5.684341886080802e-14)">
	
		<linearGradient id="SVGID_1_" gradientUnits="userSpaceOnUse" x1="515.4275" y1="91.1879" x2="596.5352" y2="22.7753" gradientTransform="matrix(-1 0 0 -1 629.9703 150.0466)">
		<stop  offset="0" style="stop-color:#FFD700"/>
		<stop  offset="0.3989" style="stop-color:#F15E00"/>
		<stop  offset="1" style="stop-color:#FBB900"/>
	</linearGradient>
	<path class="st0" d="M41.5,124.2c0,0-14.5-25.9,1.9-79.1c0,0,16.7-48.1,36.2-44.9c0,0,4.8,2.6,4,9.8c0,0,9,0.8,9.2,14.5
		c0,0,5.6,2.9,5.6,11.7s-1.9,12.4,3.7,14.5c0,0,6.9,3.2,4.2,21.2c0,0-0.3,7.1-3.2,10.8c0,0-1.1,1.3,1.3,1.3s8.2-5.6,21.4,1.3
		c0,0,10.1,6.6,7.9,12.7c0,0,0.5,5.6,2.1,8.5c1.6,2.9,5.6,12.4,1.9,18.8c-3.7,6.3-4.8,10.1-5.3,11.7c-0.5,1.6-5.6,11.9-36.2,7.1
		c-30.7-4.8-48.7-13.2-50.5-13.5c-1.9-0.3-4-1.9-3.4-2.9C42.8,126.6,44.9,126.3,41.5,124.2z"/>
	<path d="M43,123.9c0,0-2.1,0.3-4.2,0.8c-2.1,0.5-8.7,1.1-9.5,1.1c-0.8,0-0.3,5.6,1.9,6.1c2.1,0.5,2.1-1.6,4,0.3
		c1.9,1.9,21.4,4.2,26.5,7.9c0,0,6.6,2.6,2.9-3.2c0,0-14.8-4.5-18.3-6.4c0,0-3.3-0.1-3.9-2.8c0,0,2.8-1.4,0-2.8l0.9-1.3"/>
	<path d="M30.1,125.1c0,0-1.6-5.1-9.2-8.1c-7.6-3-9.5-2.1-12.2-4.8c0,0,0.2,2.3,3.9,3c3.7,0.7,14.1,3.7,16.1,9.3c0,0-1.8-4.2-13-5.7
		c-11.3-1.4-10.9,0.7-15.7-1.8c0,0,0.3,2.8,3.4,2.8c3,0,15.5-1.4,22.4,2.8l3,3.4C28.7,126.2,29.4,125.5,30.1,125.1z"/>
	<path d="M43.4,133.4c0,0-1.3,2.9-2.5,3.2c-1.2,0.2-0.6-0.9-2.1-1.1c-1.5-0.1-5,9.7-5,9.7l0.6,0.1c0,0,3.4-7.8,4.1-8.3
		c0.7-0.6,0.9,0,1.9,0.7c0.9,0.7,2.8-1.9,3.8-3C45,133.4,44.7,133.2,43.4,133.4z"/>
	<path d="M46.2,134.2c0,0-1.7,5.2-2.6,4.9c-0.9-0.2-3-1.5-3.2-0.9c-0.1,0.6-2.9,11-3.8,11.8c0,0,2.5-10,2.7-11.9s2-1.5,3.3-0.9
		s2.1-2.2,2.1-3.2C44.8,133.1,46,133.5,46.2,134.2z"/>
	<path d="M47.1,134.5c0,0-0.7,6.8-1.9,10.6c0,0,1.2-8.7,1.2-10.3C46.4,133.1,47.1,133.9,47.1,134.5z"/>
	<path d="M47.9,135.4c0,0,2.7,3.5,2.7,4.5s-0.6,9.9-0.6,9.9s1.5-8.5,1.4-10.1c-0.1-1.7-2.2-4.1-2.2-4.1s-0.6-0.6-1.3-0.3
		C47.1,135.4,47.9,135.4,47.9,135.4z"/>
	<path d="M54.1,136.5c0,0-0.6,6-1.5,8.3c0,0,2.6-5.7,2.8-8.2C55.6,134,54.1,136.5,54.1,136.5z"/>
	<path d="M53.4,133.8c0,0,2.6-4,3.7-3.4c1.1,0.6,2.9,7.4,3.7,10.6c0.7,3.2,1.2,8.9,1.2,8.9s-2.2-9.5-2.5-10.8
		c-0.2-1.3-1.9-6.2-2.7-6.5c-0.8-0.2-1.9,2.1-2.2,2.1C54.1,134.7,53.8,134,53.4,133.8z"/>
	<path d="M50.8,27.6c0.3,0.9,0.6,1.9,0.6,2.5c0,1.4,2.1,1.9,4.8-1.1c2.6-3,1.1-1.8,2.6-0.2c1.6,1.6,3.4-6.9,7.2-2.8
		c0,0,1.4,3.9-0.9,7.9c0,0-0.9,4.8,3.4,3c4.2-1.8,8.8-5.1,7.9-4.1c-0.9,1.1-2.8,3.7-2.1,4.9c0.7,1.2,1.2,3.2-0.2,6.5
		c-1.4,3.4-5.8,9.5-3.4,10.1c2.5,0.5,13.2-10.7,14.5-6.5c1.2,4.2-1.9,2.3-1.8,4.1c0.2,1.8,1.8,2.3,1.6,3.7c-0.2,1.4,1.2,1.6,1.6,2.5
		c0.3,0.9,8.1-1.1,7,3.5s-3.7,1.4-3.9,4.4c-0.2,3-1.1,4.6,1.9,6c3,1.4,3.4,1.8,3.4,3s-2.1,1.1-3.2,2.5c-1.1,1.4-3.4,4.9-1.8,7.6
		c1.6,2.6,2.5,1.4,1.6,3.9c-0.9,2.5-2.3,4.2,0.9,5.5c3.2,1.2,5.8,0.2,8.6-2.1c2.8-2.3,0.3,1.6,1.2,3c0.9,1.4,2.5,3.2,6,1.4
		c3.5-1.8,9.9-7.2,10.2-5.7c0.3,1.6-3.9,4.4-1.9,6.5c1.9,2.1,5.5,2.8,8.3,2.8c2.8,0-1.4,1.2-1.6,1.9c0,0-7,5.5-5.5,8.6
		c1.6,3.2,2.1,4.2,3.9,4.2c1.8,0,6.5-0.7,4.1,2.5s-3.2,4.4-1.6,4.9c1.6,0.5,3.2-0.3,0.2,1.4s-1.6,1.1-1.4,3.4
		c0.2,2.3-1.9,1.8-1.9,3.7c0,1.9-1.4,2.8-0.3,4.4c1.1,1.6,5.3,0,5.8,1.8c0.5,1.8,2.1,1.4,2.1,2.8c0,0.4,0,0.6,0.1,0.9
		c2.5-1.8,3.3-3.6,3.5-4.1c0.5-1.6,1.6-5.3,5.3-11.7c3.7-6.3-0.3-15.9-1.9-18.8c-1.6-2.9-2.1-8.5-2.1-8.5c2.1-6.1-7.9-12.7-7.9-12.7
		c-13.2-6.9-19-1.3-21.4-1.3s-1.3-1.3-1.3-1.3c2.9-3.7,3.2-10.8,3.2-10.8c2.6-18-4.2-21.2-4.2-21.2c-5.6-2.1-3.7-5.8-3.7-14.5
		c0-8.7-5.6-11.7-5.6-11.7c-0.3-13.8-9.3-14.5-9.3-14.5c0.8-7.1-4-9.8-4-9.8C68-1.7,57.5,14.2,50.8,27.6z M134.8,126.7
		c-1.1,0.1-6.6,0.5-7.3,0.3c-0.7-0.1-0.1-0.3,1.3-1.2c1.4-0.8,2.5-2.6,3.5-3.2c1.1-0.6,3.5-1.5,4.6-1.5s0.3,2,0.3,2
		C137.2,125.5,135.9,126.6,134.8,126.7z M130.1,117.8c-1.9-0.3-0.7-2.8-0.7-2.8c5.3-1.2,6.6,1.3,6.6,1.3
		C136,117.2,132,118.2,130.1,117.8z M132.6,128.9c1.4,0.2,0.6,2.2,0.6,2.2c-2.1,2.6-5,3.2-6.8,3.2c-1.8,0-2.2-1.2-2.2-1.2
		C123.5,131.2,131.2,128.6,132.6,128.9z M132.6,104.7c2.2,0.2,2,2.2,2,2.2c0.2,0.7,0.6,0.8,0.6,0.8c2.6,3-1.3,4.5-1.8,4.6
		c-0.5,0.1-8.3,0.5-9.3-0.1c-0.9-0.6-0.7-2.8-0.7-2.8C123.5,105.7,130.4,104.5,132.6,104.7z M121.9,92.5c1.3-3.8,5.5-4,7.4-3.2
		c1.9,0.8,3.3,6.1,3.3,6.1c-0.2,1.7-1.9,1.9-3.7,1.9c-1.8,0-3.4,0.3-5.2,0.2C122,97.5,120.6,96.3,121.9,92.5z M111.7,87
		c1.6-1.3,2.1-3.2,4.5-3.2c1.6,0,5.8,0.4,6.6,2.1c0.2,0.5,0.1,1.1-0.4,1.9c-0.9,1.4-3.6,1.7-5.1,2.4c-1.6,0.7-3.1,1.6-4.7,2.2
		c-1.2,0.5-4.3,0.1-4.5-0.6C107.9,91.1,110.5,87.9,111.7,87z M104.8,62.7c-0.3,1.4-2.5,3.2-3.2,3.7c-0.7,0.5-1.1,0.6-2.1,0.1
		c-1.1-0.5-0.7-2.2-0.7-2.2l3.3-6.7c0.8-1.4,1.7,0,1.9,0.5C104.2,58.4,105.1,61.3,104.8,62.7z M97.2,86.8c1.7-2.8,6.7-2.2,6.7-2.2
		c1.4,0,1.3,1.2,0,2.2c-1.3,1.1-4.6,4.1-5,4.2c-0.5,0.1-0.7,0.1-0.7,0.1S95.6,89.6,97.2,86.8z M95.8,79.7c0.8-1.4,2.5-2.8,2.8-6.3
		c0.3-3.5,2.6-4.1,2.6-4.1c3.4,0,3.3,5.4,3.3,5.4c-0.3,5.2-2.8,7.8-3.7,8.2c-0.8,0.5-2.1,0.3-2.5-0.3c-0.3-0.7-1.1-0.7-1.5-1.1
		C96.4,81.1,95,81.1,95.8,79.7z M91.4,46.8c2.6-3.2,6.2-2.6,6.2-2.6c-2,2.2,1.9,6,1.9,6c0,2.1-2.8,3.2-3.8,3.4
		c-0.9,0.2-4.6,0.8-7-0.3C86.2,52.1,88.8,50,91.4,46.8z M86.4,41c1.1-1.4,4-6,9.2-6c0,0,1.7,0.1,1.2,2.7c-0.5,2.6-2,4.6-5.5,5.7
		c0,0,0.6-3.2-0.9-2.7c-1.5,0.5-2.6,1.8-3.5,1.9C85.8,42.7,85.4,42.5,86.4,41z M84.2,28.7c0.9-2.9,5.9-5,6.9-3.2
		c1.1,1.9,2.1,1.5,4,3.3c1.9,1.8-0.6,1.5-1.8,1.5S91,31.1,91,31.1c-1.9,0.2-4.1,4.2-6.5,4.1C82.2,35.2,83.3,31.7,84.2,28.7z
		 M82.4,14.8c2.7-0.6,3.9,1.8,3.9,1.8c0.8,0.7,2.8,1.3,2.8,1.3c3.7,2.9-1.3,5.5-4.1,6.1c-2.8,0.6-8,4.9-9.5,5.2
		c-1.5,0.2-1.3-0.5-1.4-1.2C73,21.6,79.7,15.4,82.4,14.8z M67.6,16.6c0.2-1.2,4.3-12.7,10.8-13.5c0,0,0.3,0.6-1.1,2.3
		c-1.4,1.8-1.7,2.8-1.8,4.1c-0.1,1.3-3.5,7.2-5.7,8C67.8,18.3,67.4,17.8,67.6,16.6z M62.6,12.5c1.1-0.7,7.6-8.3,9-8.5
		c1.4-0.1,0.3-0.2,0.3,0.8c0,0-1.8,1.7-2.5,2.6c-0.7,0.9-6.2,6.6-6.8,6.7C62.1,14.2,61.5,13.2,62.6,12.5z"/>
	<path d="M58.2,27.8c0,0-10.6,13.7-14.7,32.8c0,0-1.2,5.5-1.5,5.9c-0.3,0.3-5.4,21.4-0.8,51.7h1.1c0,0-2.8-20.3-0.8-42.2
		c0,0,0.1-8.3,6.3-16.6c0,0,16.7-19,26.3-22.1l1.8-3c0,0-16,8.1-26.9,22.3l-5,5.9c0,0,4.7-20.1,14.9-34.1
		C58.8,28.3,59.5,26.3,58.2,27.8z"/>
	<path d="M57.1,48c0,0-1.5-0.3-1.1-2.9c0.4-2.6,2-5.4,2.2-6.5c0.2-1.2,0.1-1.7-1.4-1.7s-2.9,0.1-3.5-0.3c-0.6-0.3-3.3,6.4-3.3,6.4
		s1.9-0.9,2.6-0.9c0.7,0,2.2-0.6,1.4,1.5c-0.8,2.1-2.7,7-2.1,10.5L57.1,48z"/>
	<path d="M42.1,117.4c0,0-0.3-6.1,0.8-12.5c1.2-6.3,10.2-25.6,11.9-31.2c1.7-5.5,2.5-8.2,2.5-8.2s-0.8,9.5-3.7,14.8
		c-2.8,5.3-9.9,27.2-9.9,31.9c0,4.7-0.1,8.3-0.1,8.3s9.7-15.8,11.4-19.6c1.8-3.9,5-8.9,5-17.5s-4.5-16.9-3-24.9s12.3-17.3,17.6-20.7
		c0,0,1.2,1.4,0.7,2.1c-0.5,0.7-16.7,9.7-16.7,21.6l1.1,11.3c0,0,6.3-14.6,11.2-19.7l2-0.1c0,0-1.9,3-3,4.5c-1.2,1.4-3.7,5.7-3,5.7
		c0.6,0,4.1-4.2,14.2-1.4c0,0,1.1,0.3,0.9,1.1c-0.1,0.7-3.2,2.2-3.2,3.9s0.9,5.5,2.6,6.8l-6.9,4.9L74,78.3c0,0,3.4-11.2,1.3-12.9
		c-2.1-1.8-9.4-1.9-11.5,3.4c0,0-3,5-3,7.3c0,2.2,1.2,7.4,0.6,11.2l-0.2,1.9c0,0-3.8,14.7-11.5,26.5c0,0-5,7.4-5.8,7.9
		C43.8,123.4,40.9,121,42.1,117.4z"/>
	<path d="M43.9,126.5c0,0,28.9,9,49.4,6.9c0,0,12.7-1.9,15.5-2.8c2.8-0.9,13.7-2.7,14.6-2.8c0.9-0.1,0.6,1.1,0.1,1.3
		c-0.5,0.2-8.6,1.2-11.8,2.3c-3.2,1.2-17,3.8-30.8,3c-13.8-0.7-35.3-6.6-38-7.5l0.5-0.8L43.9,126.5z"/>
	<path d="M120.9,135.2c0,0-15,6.3-41.2,1.9c0,0-25.6-4.2-36.8-10.1c0,0-0.8,0.8-0.7,1.2c0.1,0.3,23.9,8.9,44.3,11c0,0,22.3,2.9,36-3
		C122.5,136.1,122.5,135.3,120.9,135.2z"/>
	<path d="M126.1,118.6c0,0-9.9,5-26.8,2.7c0,0-2.3,0.7-1.7,1.2c0.7,0.5,21.9,1.3,27.7-0.7C125.5,121.8,127.8,120,126.1,118.6z"/>
	<path d="M43.9,125.5c0,0,46.1,1.8,55.1-4.3l-0.6,1.5c0,0-3.5,4.1-27.2,3.7l-27.8-0.2C43.4,126.2,43.2,125.7,43.9,125.5z"/>
	<path d="M107.6,96.5c0,0-7.4,6.9-9.3,7.7c0,0-1.4,0.5-1.4-0.1c0-0.6,7.8-5.3,9.9-7.7C106.8,96.4,107.3,95.6,107.6,96.5z"/>
	<path d="M99,121.2c0,0,5.3-3.9,2.5-9.2c0,0-1.2-1.1-4.9,0.8c-3.8,1.9-13.2,4.6-13.2,4.6s-2.7,0.7-2,0c0.7-0.7,10.7-3.9,14.8-7
		c4.1-3.2,2.7-5.2,0.1-5.2c-2.6,0-4.1,0.9-4.9,0.9c-0.8,0-10.1,10.6-10.1,10.6s-2.8,1.8-3.2,1.1c-0.3-0.7,7.5-10.2,7.8-10.8
		c0.2-0.6,1.1-1.7-0.2-1.7c-1.3,0-10.3,2.5-11.5,2.5c-1.2,0,1.7-1.8,2.6-1.8c0.9,0,11.8-2.7,13.4-2.7s10.1-1.8,12.6,7.3
		c0,0,3.8,8.6-4.2,12.1C98.4,122.7,98.3,121.3,99,121.2z"/>
	<path d="M98.5,121.7c0,0-2.8-2.2-6.7-3.8c-3.9-1.5-6.6-1.3-8-1.3s-2.8-0.3-3.4-0.2c-0.6,0.1-2.3,1.4-2.3,1.4l-34.2,6.5l0.6,0.6
		l34.1-6c0,0,1.7,1.1,2.8,1.1c1.2,0,12.3,0.7,14.8,2.6C96.2,122.5,98.5,123.1,98.5,121.7z"/>
	<path d="M44.2,123.9c0,0,29-17,31.4-18.2c2.3-1.2,14.1-8.6,11.3-11.5c0,0-1.5-2-6.3,0.2l-12.5,7.3c0,0,1.4-1.9,2-2
		c0.6-0.1,11.7-8.1,13.5-8.5s6.9-0.7,6.2,3c-0.7,3.8-10.1,10.6-12.6,11.5l-32.3,18.3C44.9,124.2,43.5,124.9,44.2,123.9z"/>
	<path d="M95.2,72.9c0,0-17.2,12.7-28.1,28.3c0,0-16.1,12.6-18.5,15.5c-2.3,2.9-6.1,6.8-6.2,7.4s8.2-6.5,9.2-7.7
		c0.9-1.2,16.2-13.7,16.7-14.2C68.8,101.7,87.1,78.4,95.2,72.9z"/>
	<path d="M51.8,61.5c0,0,1.3,6.9-1.1,10.7c-2.3,3.9-5.8,3.5-6.5,0c0,0-0.2-6.5,5.7-10.7C49.9,61.5,51.6,59.7,51.8,61.5z"/>
	<path d="M47.3,85.5c0,0-3.1,2.2-3.8,3.9c0,0-0.8,1.1-1.2,0.3c-0.4-0.7-0.3-5.3,1-6.7C44.6,81.6,48.4,83.2,47.3,85.5z"/>
	<path d="M72.5,90c0,0-3.2,2.8-3.7,2.2c-0.5-0.6,0.3-1.3,0.3-2.1c0.1-0.8-0.1-1.6-1-1.5c-0.9,0.1-6.3,8-4.8,10.1
		c1.4,2.1,7.6-4.4,9.2-7.2C74.1,88.7,73.3,90,72.5,90z"/>
	<path d="M77.7,100.9c0,0,1.8-1,0.8-1.8c-1-0.8-6,0.3-7.7,3.4c0,0-0.9,1.9-0.1,1.9C71.5,104.5,76.9,100.9,77.7,100.9z"/>
	<path d="M62.2,111.4c0,0,0-1.1-0.8-1.3c-0.8-0.3-4.3,0.7-4.4,3.1c0,0,0.1,1.2,0.7,1.2S60.7,112.1,62.2,111.4z"/>
	<path d="M108.7,112.6c0,0,2.3,0.4,2.8-0.7c0.5-1.2,0-1.5-0.8-1.5s-0.5-0.6,0.3-1.3s1.3-1.7,0.2-1.6c-1.2,0.1-5.3,1.9-4.6,3.4
		C107.3,112.5,108.3,112.7,108.7,112.6z"/>
	<path d="M116.1,118.9c0,0-0.4,0-1-0.6c-0.5-0.6-3.9-0.6-3.9-0.2c0,0.4-0.1,2.9,2.7,2.9C116.8,121,119.1,119,116.1,118.9z"/>
	<path d="M114,124.1c0,0,1.7,1.7,1.3,2.7c-0.3,1.1-2.5,1.4-3.5,0.8c-1-0.6,0.1-3,0.6-3.1C113.1,124.4,113,124.1,114,124.1z"/>
	<path d="M112.7,130.7c0,0-3.7,2.5-4.3,3.5c-0.6,1.1-1.2,2.8-0.8,3.5c0.4,0.7-5.5,1.7-6.6,1.4c-1.2-0.3,0.8-2.3,2.4-3.1
		c1.6-0.8,3.7-2.5,2.4-3.4C104.4,131.8,113.2,129.9,112.7,130.7z"/>
</g>
</svg>
