<?xml version="1.0" encoding="utf-8"?>
<!-- Generator: Adobe Illustrator 21.0.2, SVG Export Plug-In . SVG Version: 6.00 Build 0)  -->
<svg version="1.1" id="Layer_1" xmlns="http://www.w3.org/2000/svg" xmlns:xlink="http://www.w3.org/1999/xlink" x="0px" y="0px"
	 viewBox="0 0 150 105.7" style="enable-background:new 0 0 150 105.7;" xml:space="preserve">
<style type="text/css">
	.st0{fill:#8FD0FD;}
	.st1{fill:#305000;}
	.st2{fill:#8ACDFC;}
	.st3{fill:#77C0F9;}
	.st4{fill:#70BCF8;}
	.st5{fill:#577800;}
	.st6{fill:#ACDCFC;}
	.st7{fill:#3A98ED;}
	.st8{fill:#75C0F9;}
	.st9{fill:#82C8FB;}
	.st10{fill:#416200;}
	.st11{fill:#6BB8F6;}
	.st12{fill:#B0E0FE;}
	.st13{fill:#6CBAF8;}
	.st14{fill:#71BDF9;}
	.st15{fill:#85CAFC;}
	.st16{fill:#54AAF2;}
	.st17{fill:#4FA7F1;}
	.st18{fill:#63B3F6;}
	.st19{fill:#3998EE;}
	.st20{fill:#A1DAFE;}
	.st21{fill:#3CA4F0;}
	.st22{fill:#67B6F6;}
	.st23{fill:#67B7F7;}
	.st24{fill:#3CA3F0;}
	.st25{fill:#9CB16D;}
	.st26{fill:#4FA8F1;}
	.st27{fill:#3695ED;}
	.st28{fill:#57ACF3;}
	.st29{fill:#6EBBF7;}
	.st30{fill:#94D3FD;}
	.st31{fill:#39A0EF;}
	.st32{fill:#63B4F5;}
	.st33{fill:#6E9100;}
	.st34{fill:#389FEF;}
	.st35{fill:#8DCFFD;}
	.st36{fill:#B1DEFC;}
	.st37{fill:#3C5C00;}
	.st38{fill:#A5DBFE;}
	.st39{fill:#C4E8FD;}
	.st40{fill:#86A900;}
	.st41{fill:#789B00;}
	.st42{fill:#5EB0F4;}
	.st43{fill:#4AA5F1;}
	.st44{fill:#5DB0F4;}
	.st45{fill:#8EB200;}
	.st46{fill:#84C9FB;}
	.st47{fill:#A2B18E;}
	.st48{fill:#97BC01;}
	.st49{fill:#5B7D00;}
	.st50{fill:#88CCFC;}
	.st51{fill:#48A3F1;}
	.st52{fill:#89CCFC;}
	.st53{fill:#9CD7FE;}
	.st54{fill:#52AAF2;}
	.st55{fill:#399FEF;}
	.st56{fill:#7FA200;}
	.st57{fill:#40A3F0;}
	.st58{fill:#315100;}
	.st59{fill:#45A2F0;}
	.st60{fill:#698B00;}
	.st61{fill:#628400;}
	.st62{fill:#8DB100;}
	.st63{fill:#3DA1F0;}
	.st64{fill:#59ADF3;}
	.st65{fill:#B9E2F9;}
	.st66{fill:#43A0F0;}
	.st67{fill:#B1DEFA;}
	.st68{fill:#729500;}
	.st69{fill:#5C7E00;}
	.st70{fill:#81A300;}
	.st71{fill:#3B5B00;}
	.st72{fill:#799C00;}
	.st73{fill:#87AA00;}
	.st74{fill:#507100;}
	.st75{fill:#409EEF;}
	.st76{fill:#ABDEFD;}
	.st77{fill:#898D5D;}
	.st78{fill:#436300;}
	.st79{fill:#A1B08E;}
	.st80{fill:#9ED8FE;}
	.st81{fill:#81C7FB;}
	.st82{fill:#87CEFE;}
	.st83{fill:#90DBFE;}
	.st84{fill:#9AD7FD;}
	.st85{fill:#473700;}
	.st86{fill:#7DC5FA;}
	.st87{fill:#7BC3FA;}
	.st88{fill:#6CB9F7;}
	.st89{fill:#66B4F6;}
	.st90{fill:#849700;}
	.st91{fill:#6F9100;}
	.st92{fill:#638500;}
	.st93{fill:#A7DBFD;}
	.st94{fill:#B7E3FE;}
	.st95{fill:#769701;}
	.st96{fill:#607D0C;}
	.st97{fill:#BBE3F7;}
	.st98{fill:#3F9CEF;}
	.st99{fill:#44A8F1;}
	.st100{fill:#3796ED;}
	.st101{fill:#7AC3F9;}
	.st102{fill:#6AB7F7;}
	.st103{fill:#98D4FD;}
	.st104{fill:#528300;}
	.st105{fill:#355500;}
	.st106{fill:#62B2F5;}
	.st107{fill:#AADEFE;}
	.st108{fill:#87CEF8;}
	.st109{fill:#62B4F4;}
	.st110{fill:#4EA4F2;}
	.st111{fill:#7FCBF8;}
	.st112{fill:#46A1F0;}
	.st113{fill:#49A3F0;}
	.st114{fill:#7BC8F7;}
	.st115{fill:#5AACF3;}
	.st116{fill:#5DAEF5;}
	.st117{fill:#44A7F1;}
	.st118{fill:#3B9CEF;}
	.st119{fill:#3595ED;}
	.st120{fill:#B2E1FE;}
	.st121{fill:#AEE0FE;}
	.st122{fill:#40A6F1;}
	.st123{fill:#477A00;}
	.st124{fill:#4CA6F1;}
	.st125{fill:#51A9F2;}
	.st126{fill:#48A2F0;}
	.st127{fill:#7FC9F7;}
	.st128{fill:#55A9F3;}
	.st129{fill:#59AFF4;}
	.st130{fill:#50A6F2;}
	.st131{fill:#43A7F1;}
	.st132{fill:#40A4F0;}
	.st133{fill:#59ACF4;}
	.st134{fill:#547000;}
	.st135{fill:#9CD6FD;}
	.st136{fill:#473F00;}
	.st137{fill:#425C00;}
	.st138{fill:#3B5500;}
	.st139{fill:#3EA2F0;}
	.st140{fill:#7E9D08;}
	.st141{fill:#98BD18;}
	.st142{fill:#483A00;}
	.st143{fill:#4B4400;}
	.st144{fill:#5B6300;}
	.st145{fill:#55A7F3;}
	.st146{fill:#56ABF3;}
	.st147{fill:#3F9DEF;}
	.st148{fill:#44A0F0;}
	.st149{fill:#9FC407;}
	.st150{fill:#395A00;}
	.st151{fill:#4E6A00;}
	.st152{fill:#439FF0;}
	.st153{fill:#483F00;}
	.st154{fill:#415900;}
	.st155{fill:#5F8000;}
	.st156{fill:#52A6F2;}
	.st157{fill:#737D66;}
	.st158{fill:#7B996C;}
	.st159{fill:#4A6A00;}
	.st160{fill:#5A4500;}
	.st161{fill:#A9DBFD;}
	.st162{fill:#9ADFFE;}
	.st163{fill:#7AD0FE;}
	.st164{fill:#6FBCF8;}
	.st165{fill:#77C1FA;}
	.st166{fill:#87CBFA;}
	.st167{fill:#87DCFE;}
	.st168{fill:#8FE6FE;}
	.st169{fill:#436400;}
	.st170{fill:#607F00;}
	.st171{fill:#405D00;}
	.st172{fill:#3F5E00;}
	.st173{fill:#3C5900;}
	.st174{fill:#435E00;}
	.st175{fill:#375200;}
	.st176{fill:#3A5A00;}
	.st177{fill:#3A5700;}
	.st178{fill:#454500;}
	.st179{fill:#474000;}
	.st180{fill:#9AD5FA;}
	.st181{fill:#75C0FA;}
	.st182{fill:#9DD7FA;}
	.st183{fill:#6AB8F7;}
	.st184{fill:#8ECFF9;}
	.st185{fill:#67B5F6;}
	.st186{fill:#8FCFF9;}
	.st187{fill:#80C6FB;}
	.st188{fill:#94D3F9;}
	.st189{fill:#B3D700;}
	.st190{fill:#A4DAFD;}
	.st191{fill:#B3E2FE;}
	.st192{fill:#6A8B01;}
	.st193{fill:#ADDDFD;}
	.st194{fill:#709201;}
	.st195{fill:#638403;}
	.st196{fill:#7D9F08;}
	.st197{fill:#C1E5F6;}
	.st198{fill:#77C1F7;}
	.st199{fill:#83CCFE;}
	.st200{fill:#8FD1FE;}
	.st201{fill:#89D1FE;}
	.st202{fill:#9AD9FE;}
	.st203{fill:#64B5F5;}
	.st204{fill:#6AB9F5;}
	.st205{fill:#81CBF8;}
	.st206{fill:#5BAFF3;}
	.st207{fill:#51A6F2;}
	.st208{fill:#3F9BEF;}
	.st209{fill:#50A8F1;}
	.st210{fill:#449FEF;}
	.st211{fill:#5FB2F4;}
	.st212{fill:#5FB0F4;}
	.st213{fill:#49A8F1;}
	.st214{fill:#49ABF2;}
	.st215{fill:#ADDDFC;}
	.st216{fill:#56ACF3;}
	.st217{fill:#54B0F3;}
	.st218{fill:#58B1F3;}
	.st219{fill:#60B5F4;}
	.st220{fill:#5CB4F4;}
	.st221{fill:#5DB1F4;}
	.st222{fill:#49A9F1;}
	.st223{fill:#44A5F0;}
	.st224{fill:#61B3F4;}
	.st225{fill:#5B7700;}
	.st226{fill:#8FB409;}
	.st227{fill:#89AD00;}
	.st228{fill:#7C9F00;}
	.st229{fill:#455300;}
	.st230{fill:#4FADF2;}
	.st231{fill:#B4DFF7;}
	.st232{fill:#517200;}
	.st233{fill:#668800;}
	.st234{fill:#464400;}
	.st235{fill:#464300;}
	.st236{fill:#4A4E00;}
	.st237{fill:#708F00;}
	.st238{fill:#466100;}
	.st239{fill:#7A9C00;}
	.st240{fill:#3F6000;}
	.st241{fill:#B9E4FE;}
	.st242{fill:#B1E1FE;}
	.st243{fill:#A7F6FE;}
	.st244{fill:#ACF1FE;}
	.st245{fill:#6FC2FE;}
	.st246{fill:#75C3FE;}
	.st247{fill:#7AC5FE;}
	.st248{fill:#61B2F5;}
	.st249{fill:#7AC3F8;}
	.st250{fill:#66B7F8;}
	.st251{fill:#6ABCFD;}
	.st252{fill:#94E1FE;}
	.st253{fill:#92D9FE;}
	.st254{fill:#719400;}
	.st255{fill:#476800;}
	.st256{fill:#4F6F00;}
	.st257{fill:#4B6C00;}
	.st258{fill:#335300;}
	.st259{fill:#4B4D00;}
	.st260{fill:#80A200;}
	.st261{fill:#66B5F5;}
	.st262{fill:#5EAFF5;}
	.st263{fill:#6FBCF6;}
	.st264{fill:#6FBDFA;}
	.st265{fill:#62B4F7;}
	.st266{fill:#62B4F5;}
	.st267{fill:#CCE700;}
	.st268{fill:#DAF000;}
	.st269{fill:#BFE300;}
	.st270{fill:#B0E8FE;}
	.st271{fill:#AEE2FE;}
	.st272{fill:#BCE6FE;}
	.st273{fill:#4F7102;}
	.st274{fill:#587900;}
	.st275{fill:#8CD3F9;}
	.st276{fill:#92D6FA;}
	.st277{fill:#91D5FA;}
	.st278{fill:#9EDEFE;}
	.st279{fill:#5CB0F4;}
	.st280{fill:#87D0F9;}
	.st281{fill:#57ADF2;}
	.st282{fill:#53AAF2;}
	.st283{fill:#55ABF2;}
	.st284{fill:#4AA4F0;}
	.st285{fill:#54AFF3;}
	.st286{fill:#BEE6FD;}
	.st287{fill:#678803;}
	.st288{fill:#7C9E0C;}
	.st289{fill:#4BA6F1;}
	.st290{fill:#55ACF3;}
	.st291{fill:#51A9F1;}
	.st292{fill:#429EEF;}
	.st293{fill:#4CACF2;}
	.st294{fill:#48A7F1;}
	.st295{fill:#9ABF03;}
	.st296{fill:#C7F0FB;}
	.st297{fill:#CEF1FE;}
	.st298{fill:#D3FDFE;}
	.st299{fill:#BFE3F9;}
	.st300{fill:#C3E7F4;}
	.st301{fill:#CAF4F6;}
	.st302{fill:#4B5800;}
	.st303{fill:#4B6A00;}
	.st304{fill:#B6E0FD;}
	.st305{fill:#B1DFFD;}
	.st306{fill:#B8E9FE;}
	.st307{fill:#C1FDFE;}
	.st308{fill:#C6FEFE;}
	.st309{fill:#A2E7FE;}
	.st310{fill:#C8F5FE;}
	.st311{fill:#65B8FD;}
	.st312{fill:#67B7F5;}
	.st313{fill:#86CFF9;}
	.st314{fill:#62B4FA;}
	.st315{fill:#547500;}
	.st316{fill:#62B3F4;}
	.st317{fill:#6BBAF6;}
	.st318{fill:#5BAEF6;}
	.st319{fill:#5BAFF4;}
	.st320{fill:#CAFAFE;}
	.st321{fill:#BEF0FE;}
	.st322{fill:#BFEAFE;}
	.st323{fill:#B8E1FD;}
	.st324{fill:#B4E2FE;}
	.st325{fill:#B6E7FE;}
	.st326{fill:#99E0FE;}
	.st327{fill:#80CEF9;}
	.st328{fill:#47A2F0;}
	.st329{fill:#45A1F0;}
	.st330{fill:#48A3F0;}
	.st331{fill:#74CBF8;}
	.st332{fill:#69C3F6;}
	.st333{fill:#65C0F6;}
	.st334{fill:#5BB0F4;}
	.st335{fill:#4CA4F0;}
	.st336{fill:#3E9CEF;}
	.st337{fill:#6FC8F7;}
	.st338{fill:#DAFEFE;}
	.st339{fill:#C1E7FE;}
	.st340{fill:#B6E1FB;}
	.st341{fill:#C2F1FE;}
	.st342{fill:#C2E7F1;}
	.st343{fill:#C8F4F7;}
	.st344{fill:#CEFBFE;}
	.st345{fill:#C3EBF4;}
	.st346{fill:#BDE4F9;}
	.st347{fill:#CEFEFE;}
	.st348{fill:#5DB0F8;}
	.st349{fill:#6DBCF8;}
	.st350{fill:#60B3F5;}
	.st351{fill:#54ABF2;}
	.st352{fill:#66B6F5;}
	.st353{fill:#4BA4F1;}
	.st354{fill:#FAFEFE;}
</style>
<title>Artboard 1</title>
<g>
	<path class="st0" d="M0.1,56.3v-2.1c1-1.1,2.2-1.1,3.5-1c7.6,0.1,15.2,0.5,22.8,0.4c2.2,0,4.2,1.2,5.8,0.7
		c-8.6-1.3-17.9-0.5-27.1-1.1c-1.2-0.1-2.8-0.1-2.8-1.4c0-1.3,1.7-1.4,2.8-1.4c6.1,0.1,12.2,0.2,18.3,0.2l20-0.2
		c2.7-0.2,5.5,0,8.2,0.5c1,0.3,2,0.8,3,1.3c0.8,1.5,3.1,2.8,0.7,4.8c-0.8,0.4-1.8,0.8-2.7,0.9c-8.5,0.3-17,1.6-25.5,0.8
		s-14.6-1.1-22-0.8C3.4,58,1.5,57.8,0.1,56.3z"/>
	<path class="st1" d="M149.9,98.6v6.2c-6,0.8-12.1,0.2-18.1,0.3h-7.2c-0.5,0-0.9-0.1-1.3-0.4c-1.5-1.9-1.4-4.7,0.2-6.5
		c0.9-0.6,1.9-0.8,2.9-0.7h20.3C147.8,97.4,149,97.8,149.9,98.6z"/>
	<path class="st2" d="M43.8,51.4H3.1V52L39,53.7V55c-13-1-25.9-0.8-38.9-0.8v-4.8C1,48.5,2.3,48,3.6,48.2c8.1,0.7,16.3-0.1,24.4,0.2
		h3c1.4,0.5,3,0.7,4.5,0.6h1.2c1.5,0.4,3.1,0.6,4.7,0.7C42.5,49.8,43.8,49.7,43.8,51.4z"/>
	<path class="st3" d="M149.9,45.9V48c-1.9,1.8-4.4,1.7-6.5,1.3c-5.5-1-10.8,0.3-16.1,0.7c-2.6,0.2-5.2,0.5-7.9,0.5
		c-2.7,0-4.6,0.1-6.9-0.1c-2.3-0.2-3.3-0.6-2.9-3.1c0.4-2.5-2-0.5-2.1-1.9c-0.1-0.6,0.1-1.1,0.6-1.5c1.8-1.1,3.9-1.7,6.1-1.7
		c2.3-0.1,4.6-0.1,6.9,0.1c2.2,0.3,3,1.4,1.1,3.4c4.2-0.8,8.3,0.3,12.4,0c4.1-0.3,6.8,0.2,10.2-0.6
		C146.3,44.6,148.3,44.4,149.9,45.9z"/>
	<path class="st4" d="M149.9,45.9c-10.6,1-21.2,0.7-32.5,0.7c1.7-1.9,3.9-1.2,5.6-3.4h-9.1c-0.3-0.3-0.3-0.8,0-1.1
		c1.7-1.7,3.9-1.6,6-2c2.1-0.4,6.4-0.1,9.6,0c3.2,0.1,2.8,0.7,1.7,3.2c5,0.3,9.9,0.2,14.8,0.2c1.4,0,2.8-0.2,3.8,1L149.9,45.9z"/>
	<path class="st5" d="M0.1,94.4v-3.5C0.6,90.3,1.3,90,2,90c5.9,0,11.9-0.6,17.8,0.3c1,1.1,0.6,1.6-0.7,2c5.2-0.7,10.4-0.3,15.6-0.3
		c1.4,0,3.1-0.4,3.7,1.6c-0.5,0.7-1.2,1.2-2.1,1.2c-4.5,0.6-9.1,1.3-13.7,1.7C18,96.9,11,95.9,5.2,95.8C3.4,95.8,1.6,95.9,0.1,94.4z
		"/>
	<path class="st6" d="M149.9,66v2.1c-2.4,2.1-5.2,1.4-8,1.1c-2.8-0.3-5.2-2.1-7.4,0.8c-3.3,0.6-6.4-1.3-9.7-1.2
		c-1.9-0.6-3.8-1-5.8-1.3c-1.2-0.5-2.5-0.5-3.6-1.3c-1.1-0.8-1.6-1.1-0.5-2.1c2.9-1.2,5.9-0.8,8.8-0.7c2.9,0.1,8,0.7,12-0.5
		c4-1.2,7.9,0.7,11.8,1.3C148.5,64.4,149.4,65,149.9,66z"/>
	<path class="st7" d="M149.9,9.2v2.1c-1,1.5-2.6,2.4-4.4,2.4c-3.1,0.1-6.2,0.4-9.3,0.3c-3.1-0.1-4.3-0.2-6-2c-1.7-1.8-2.7-1.2-4.2-1
		c-1.8,0.4-3.7,0.2-5.4-0.5c-1.7-2.9,1.1-3.2,2.5-4.3c1.4-1.1,0.7-0.3,1-0.1c2.5,1.3,5.5,1.1,7.7-0.6c0.6-0.3,1.3-0.4,2-0.2
		c3.6,3.4,8.2,2.6,12.6,2.9C147.6,8.2,148.9,8,149.9,9.2z"/>
	<path class="st8" d="M0.1,45.2v-0.7c2.1-1.1,4.4-0.9,6.6-1c6.4-0.1,12.7-0.3,19,0.1c-0.5,0.2-1-0.1-1.2-0.5c0-0.1,0-0.1,0-0.2
		c-0.2-0.9,0.6-1.2,1.2-1.3c1.7-0.2,3.4-0.3,5.1-0.2c1.9,0,3.9,0.1,5.8-0.1c1.9-0.2,3.9,0.1,4.5,2.6c-2.2,3.1-4.8,1.2-7.2,1
		c0.3,0.6,2.5,0,2,1.7c-0.5,1.7-1.7,1-2.7,1c-4.4-0.1-8.7,0.4-13.1-0.6c-4.4-1-5.9,0.5-8.9,0.9s-5.4-0.4-8.1-0.7
		C1.8,47.1,0.7,46.4,0.1,45.2z"/>
	<path class="st9" d="M118.7,49.4c4.6,0,9.2-0.4,13.7-1.4c5.9-1.2,11.7,0.4,17.5,0v3.5c-3.1,2-6.6,1.2-9.7,0.8
		c-3.1-0.4-6.6-0.3-9.9-0.6c-1.5-0.3-2.8,0.5-4.2,0.7c-1.4,0.2-5.5,0.5-7.5-2C118.5,50.1,118.5,49.7,118.7,49.4z"/>
	<path class="st10" d="M0.1,94.4c7-0.4,14,0.6,20.9,0.7c0.7-0.1,1.4,0.2,1.9,0.6c-0.4,1-1.4,1.7-2.5,1.7c-1.6,0.2-3.2,0.7-4.7,1.4
		c-0.8,0.3-1.6,0.5-2.5,0.4c-2.3-0.8-4.4-0.2-6.4,0.9h-1c-1.9-0.2-4,0.7-5.6-1L0.1,94.4z"/>
	<path class="st11" d="M149.9,44.5h-21.5v-1.1l3-1.3V41h-12c0-1.8,1.7-1.6,2.7-2.3c1-0.7,2.5-0.8,3.8-0.6c3.6,1,7.3,0.3,11,0.5
		c0.9,0.1,2,0.1,2.4,1c0.4,0.9-0.4,1.4-0.8,1.7c3.6,0.6,7.6-1.1,11.3,1.1L149.9,44.5z"/>
	<path class="st12" d="M149.9,66c-4.6-1.1-9.2-1.8-13.9-2.1c-4,0.4-7.9-0.5-11.8-0.6c-0.9-0.1-1.8-0.7-2.2-1.5
		c0.4-2.4,2.3-2.1,4-2.2c4.6,0,9.2,0.3,13.8,0s6.8,0.3,10.1,1.4L149.9,66z"/>
	<path class="st13" d="M0.1,42.4v-2.1c0.7-0.7,1.7-1.2,2.8-1.2c1.2-0.2,3.2,1.3,3-1.7c-0.1-0.8,1.7-0.8,2.7-0.8
		c4.9-0.1,9.8,0.1,14.7,0.3c0.7,0.3,1.3,0.9,1.4,1.7c-0.5,2.1-2.2,2.1-3.8,2.1s-4.3,0.2-6.2-0.9c0.2,1,2.8,0.4,1.9,2.3
		c-0.9,1.9-2,1.3-3.3,1.4h-10C2.2,43.6,1,43.2,0.1,42.4z"/>
	<path class="st14" d="M36.9,42.4H25.2c0.1,1.3,1.3,1,1.9,2.1h-27v-1.4c4.2-0.8,8.5-0.2,12.7-0.3c2.1-0.1,3.8-0.2,5.6-1.7
		c1.8-1.5,5.1-0.7,7.6-1c1.2,0,2.5-0.2,3.7-0.5C32.5,39.6,35.5,39.1,36.9,42.4z"/>
	<path class="st15" d="M0.1,45.2c3.6,0.9,7.4,1.4,11.1,1.4c3.7,0.6,7.4-0.3,11.1,0.7c1.2,0.3,2.5,0.4,3.8,0.4c1.1,0.1,2.4,0,2.5,1.7
		c-9.5-0.5-18.9,1-28.4,0L0.1,45.2z"/>
	<path class="st16" d="M149.9,24.4v2.8c-1.2,1.1-2.8,1.6-4.4,1.2c-1.3-0.2-2.7-0.1-4,0.3c-0.7,0.2-1.5,0.1-2.2-0.2
		c-0.3-0.1-0.6-0.4-0.8-0.7c0-2.4-2.3-2.8-3.6-4c-0.6-0.7-0.6-1.7-0.1-2.4c2.6-1.4,5.5-1.5,8.3-1.5c1.6-0.2,3.1,0.6,3.8,2
		C147.5,23.1,149,23.4,149.9,24.4z"/>
	<path class="st17" d="M149.9,24.4h-3.1c-0.6,0-1.5-0.1-1.4-0.7c1.1-5.2-3-2.5-4.5-2.5c-1.5,0-4.2,0.6-6.4,0.5
		c-2.2-0.1-2.1,1-3.3,0.9c-1.2-0.1-1.5-0.5-1.6-1.4s3.5-1.2,4.8-2.5c1.4-0.7,2.9-1.2,4.4-1.4c2.4,0,4.7-0.5,7.1-0.4
		c2.4,0.1,2.9,0.2,4,1.4V24.4z"/>
	<path class="st18" d="M149.9,36.2V41c-2.6,1.4-5.3,0.5-8,0.6c-0.5,0-1.1-0.4-1.1-0.7c0.5-2.9-1.8-1.8-2.9-1.9
		c-2.7-0.2-5.5,0.2-8-1.1c-0.5-2.1,1.5-1.8,2.5-2.5c1-0.7,2.7-1,4.2-0.6s5.9-0.3,8.9,0C148.5,35.1,148.6,34.9,149.9,36.2z"/>
	<path class="st19" d="M0.1,9.2V8.5C1,7.5,2.2,6.9,3.5,7C7.8,7.1,12.2,8.5,16,5.4c1.4-0.3,2.7,0.4,3.4,1.6c0.2,0.5,0.3,1.1,0.4,1.6
		c0.8,3,0.5,3.5-2.7,3.6H9.9c-1.3-0.1-2.5,0.1-3.7,0.6C5.5,13,4.8,13,4.1,12.7C2.5,11.9,0.9,11,0.1,9.2z"/>
	<path class="st20" d="M0.1,59.8v-0.7c0.6-0.7,1.5-1.2,2.4-1.2c5.9,0.8,11.8-0.8,17.7,0.1c2.1,0.8,4.4,0.2,6.3,1.6
		c0.2,0.4,0.2,0.8,0,1.2c-3,2.2-6.4,2.3-9.9,2s-7.2,0-10.8-0.4S1.6,61.6,0.1,59.8z"/>
	<path class="st21" d="M129.1,0.1H145c0.6,2.6,3.7,1,4.9,2.8v1.4c-3,2.5-6.2,0.8-9.3,0.6c-3.1-0.2-4.4-0.8-6.6-0.9
		c-2.2-0.1-4.3,0.3-6.4-0.4C125.5,2.9,127.9,1,129.1,0.1z"/>
	<path class="st22" d="M129.8,37.6c4.8,0.8,9.6,0.7,14.5,0.7c-0.4,1.7-2.1,0.9-3.4,2.8h9.1v1.4c-5.1,0.1-10.2-0.3-15.8,0.4
		c1.4-2,3.4-1.4,4.7-2.9c-4.5-0.9-9,0.6-13.2-1c-0.2-0.3-0.2-0.7,0-1C126.9,37,128.3,36.3,129.8,37.6z"/>
	<path class="st23" d="M23,37.6c-5.6,0.9-11.3-0.9-17,0.5c1.1,1.5,3.1,0.8,4,2.3H0.1v-4.2c3-2.5,6.6-1.3,10-1.3s5.5,0.2,8.2,0.3
		C21,35.3,22.3,35.1,23,37.6z"/>
	<path class="st24" d="M37.6,0.1h11.8c0.8,0.9,2.2,1.5,1.3,3.1c-0.3,0.2-0.6,0.4-1,0.5c-7.3-0.2-14.5,2.5-21.9,1.5l-1.1-0.3
		c-0.5-0.3-0.9-0.8-1-1.4c-0.1-0.4,0-0.7,0.3-1c2.5-1.5,5.3-0.6,7.9-0.9S36.9,1.9,37.6,0.1z"/>
	<path class="st25" d="M75.7,105.5H3.6v-0.7c0.3-0.4,0.7-0.6,1.1-0.8c1.6-0.4,3.2-0.6,4.8-0.6h61.2c1.6,0,3.2-0.1,4.7,0.9
		C75.8,104.5,75.9,105.1,75.7,105.5z"/>
	<path class="st26" d="M0.1,23v-4.8c2.9-2.4,6.4-1.1,9.6-1.3c1.1-0.1,2.3,0.3,3.4,0.3c1.6,0,3.2,0.4,4.5,1.3c1,1,2.7,1.4,2.9,3.1
		c0,0.3-0.2,0.7-0.4,0.9c-3,0.4-5.9-1-8.9-0.7s-5.6-1.6-7.8,1.6C2.7,24.4,1.2,24.1,0.1,23z"/>
	<path class="st27" d="M149.9,9.2H144c-3.9-0.1-8.3,1.2-10.8-3.4c0.3-0.7,0.9-1.3,1.6-1.5c1.5-0.2,3-0.3,4.5-0.1
		c3.4,1.4,7.5,1.1,10.4,3.7L149.9,9.2z"/>
	<path class="st28" d="M0.1,27.2v-2.8c2.5-1.4,5.4-0.7,8-1.5c1-0.2,2-0.2,2.9,0.2c1.5,1.5,4.5,2,3.4,5.2c-2.7,1.2-5.7,0.4-8.4,1.2
		l-1-0.2C3.6,28.2,1.4,28.7,0.1,27.2z"/>
	<path class="st29" d="M29.9,40.3c-3.5,1.6-7.2,0.1-11.5,1l2,1l-0.2,0.8H0.1v-0.7h16.5c-1-1.8-2.3-1.6-3.6-2.8h7.8
		c1.4,0,2.8,0.2,3.6-1.4c0.4-0.4,0.9-0.6,1.5-0.6C27.4,38.3,29.6,37.9,29.9,40.3z"/>
	<path class="st30" d="M20.9,58.4C14,58.2,7.1,59.5,0.1,59.1v-2.8l27,1.4C25.4,60.3,23.1,58.8,20.9,58.4z"/>
	<path class="st24" d="M81.9,0.1h9.7c1,1.4,2.4,1.4,3.9,1.5c1.5,0.1,4.1-0.3,6,0.7c0.3,0.2,0.6,0.5,0.7,0.9c0,0.9-0.6,1.6-1.4,1.9
		c-4,0.3-7.9,0.8-11.8-0.8c-2.4-1-5.3,0.4-7.8-0.9C78.7,2.1,80.6,1,81.9,0.1z"/>
	<path class="st31" d="M81.9,0.1l-0.7,2.8c0.4,0.5,0.3,1.3-0.2,1.7c-3.7,0.6-7.6,2.3-10.8-1.4c-0.5-1.1-0.2-2.3,0.6-3.1H81.9z"/>
	<path class="st21" d="M7.8,0.1H23c0.9,0.9,3.1,0.6,2.8,2.8l0,0c-1.3,1.4-3,1-4.5,1H12c-0.6,0-1.2,0-1.8-0.2
		C8.8,2.9,7.3,2.2,7.8,0.1z"/>
	<path class="st32" d="M18.9,36.2H0.1v-2.8c1.7-1.9,4-0.9,6.1-1h3.7c2.1,0.2,4.3,0.6,6.3,1.3C17.2,34.5,18.9,34.4,18.9,36.2z"/>
	<path class="st24" d="M70.8,0.1v2.8c-1.1,1.4-2.7,1-4.1,1C65,3.8,63.3,4.2,61.8,5c-3.3,0.5-6.6,0.5-9.9,0.2
		c-0.6-0.1-1.1-0.5-1.4-1.1c-0.1-0.4-0.1-0.9,0.2-1.2l0,0c1.7-1.9,4-1.2,6.1-1.3c2.1-0.1,3.2,0.1,4.3-1.4L70.8,0.1z"/>
	<path class="st33" d="M0.1,86.8V84c0.4-0.4,0.9-0.9,1.4-0.9c5.1,0,10.3-0.7,15.4,0.4c1.3,1.9-0.4,2.4-1.5,2.8
		c-2.5,1.1-5.2,1.6-7.9,1.5C5.1,87.6,2.3,89,0.1,86.8z"/>
	<path class="st34" d="M25.8,2.9c-0.9-1-2.2-1.4-2.8-2.8h14.6c1.6,2.1,1.2,2.9-1.5,2.8C33.4,2.8,29.2,2.9,25.8,2.9z"/>
	<path class="st35" d="M149.9,56.3v2.8c-2.1,2-4.7,1.5-7,0.9c-1.6-0.4-3.3-0.6-5-0.6l-1.2-0.3c-1.1-0.8-2.1-1.7-1.2-3.2
		c0.9-0.9,2.2-1.3,3.5-1.2C142.6,54.5,146.4,54.6,149.9,56.3z"/>
	<path class="st36" d="M141,68.1h8.9V73c-3.3,1.8-6.5,0.1-9.7-0.4c-0.4-0.4-0.7-0.9-0.7-1.5C139.7,69.9,139.8,68.7,141,68.1z"/>
	<path class="st37" d="M149.9,98.6h-26.4l-0.3-0.6c0.4-2.1,2-1.8,3.5-1.9c4.5-0.1,9,0.2,13.4-0.4c2.4-0.7,4.8,0,7.2,0.1
		s1.7,1.2,2.5,2L149.9,98.6z"/>
	<path class="st38" d="M0.1,59.8c4.6,1.7,9.3,1.4,14.1,1.4c0.9-0.1,1.8,0.1,2.5,0.7c-1.5,2.5-5,3.8-8.4,2.7C7,64.1,5.5,63.9,4,64.2
		c-1.4,0-2.8,0.2-3.9-1L0.1,59.8z"/>
	<path class="st34" d="M129.1,0.1L127,2.9c-0.2,0.4-0.6,0.6-1,0.8c-4.2,0.5-8.4,1.8-12.3-0.8c-0.6-1.2,0.1-2,0.8-2.8L129.1,0.1z"/>
	<path class="st39" d="M140.2,72.2c3.3-1.3,6.4,0.8,9.7,0.7v4.2c-1.8,0.9-3.5-0.1-5.2-0.4c-1.7-0.3-4-0.2-5.9-1.1
		c-0.7-0.5-1.1-1.2-1.1-2C138.1,72.3,138.7,71.4,140.2,72.2z"/>
	<path class="st40" d="M0.1,80.5v-2c1.1-1.2,2.5-1,3.9-1c3.9-0.1,7.8,0.2,11.8-0.2c0.9,0,1.7,0.5,2.1,1.3c0.3,0.9,0,1.8-0.7,2.4
		C11.5,81.7,5.8,82.5,0.1,80.5z"/>
	<path class="st41" d="M17.4,84H0.1v-2.1c2.4-1.3,5-0.6,7.4-0.7c3.1-0.2,6.2-0.1,9.3,0.1c0.8,0.2,1.2,1.1,1,1.9
		c0,0.1-0.1,0.2-0.1,0.2L17.4,84z"/>
	<path class="st42" d="M149.9,36.2c-4.6-0.4-9.3,0.9-13.9-0.7c-0.3-0.3-0.3-0.7-0.1-1c0.5-0.6,1.1-1.1,1.8-1.3
		c1.7-0.2,3.3-1,5.1-0.8c1.8,0.2,4.9-0.9,7.1,1L149.9,36.2z"/>
	<path class="st43" d="M14,18.2H0.1v-2.8c2.7-2.5,5.9-0.8,8.9-1c0.6-0.1,1.1,0,1.7,0.1c1,0.5,1.9,1.1,2.8,1.8
		C14,16.8,14.4,17.4,14,18.2z"/>
	<path class="st44" d="M10.5,33.4H0.1v-6.2c1.7,0.2,3.7-0.7,4.9,1.4c0.1,1.3,1.1,2.3,2.4,2.4c1.2,0.2,2.5,0.4,3.3,1.6
		C10.8,32.9,10.7,33.2,10.5,33.4z"/>
	<path class="st45" d="M16.1,77.7c-2.8,1.6-5.8,0.5-8.7,0.7s-4.8,0-7.2,0v-2C1,75.7,2,75.3,3,75.4c4,0.1,8-0.3,12,0.3
		C15.8,76,16.3,76.8,16.1,77.7z"/>
	<path class="st21" d="M114.5,0.1l-0.7,2.1c-0.3,1-0.6,1.9-1.9,1.9c-3.3-0.1-6.8,1.2-9.9-1.2l0,0c-0.7-1.5,0.4-2.1,1.4-2.8
		L114.5,0.1z"/>
	<path class="st34" d="M61.1,0.1c0.2,2.1-0.7,2.9-2.8,2.8c-2.1-0.1-5.1,0-7.6,0c-0.4-0.9-1.4-1.6-1.3-2.8H61.1z"/>
	<path class="st34" d="M103.4,0.1L102,2.9c-2.5,0-5.1-0.1-7.6,0c-2.5,0.1-3-0.7-2.8-2.8L103.4,0.1z"/>
	<path class="st46" d="M149.9,52.1v2.1c-0.7,0.8-1.8,1.1-2.8,1c-4.5-0.4-9.1-0.5-13.6-0.2c-0.9-0.2-1.6-0.9-1.8-1.8
		c0.2-0.9,1.1-1.5,2.1-1.4C139.1,52.3,144.5,51.3,149.9,52.1z"/>
	<path class="st47" d="M75.7,105.5v-0.6c0.3-0.6,0.9-1,1.6-1.1c12.1-0.9,24.1-0.3,36.2-0.5c1-0.1,2.1,0,3.1,0.3l1.1,0.6
		c0.4,0.3,0.5,0.8,0.2,1.2L75.7,105.5z"/>
	<path class="st48" d="M15.3,76.4H0.1V75c0.5-1.1,1.7-1.8,3-1.7c3.4,0.1,6.8-0.2,10.1,0.2l1.1,0.5C14.9,74.6,15.8,75.2,15.3,76.4z"
		/>
	<path class="st49" d="M20.2,90.9H0.1v-1.3c1.2-1.1,2.9-1.6,4.6-1.3c4,0.8,8,0.4,12-0.1c2.1,0.8,4.8-0.8,6.5,1.6
		c0,1.3-0.8,1.7-1.9,1.7C20.9,91.4,20.5,91.2,20.2,90.9z"/>
	<path class="st50" d="M149.9,52.1c-6,0-12,0.5-18,1.4c-1.9,0.1-2.9-0.8-2.8-2.8c6.9-0.4,13.8,1.2,20.8,0.7V52.1z"/>
	<path class="st51" d="M149.9,18.2h-11.8c-0.1-0.2-0.2-0.4-0.2-0.6c0-0.2,0-0.3,0.1-0.3s1.9-1.4,2.9-2.2c0.8-0.5,1.8-0.7,2.7-0.7
		c2.1,0.1,4.5-1,6.3,1L149.9,18.2z"/>
	<path class="st52" d="M133.2,54.2h16.6v2.1c-4.9,0.3-9.7-1.8-14.6,0c-0.7,0.4-1.2,0.1-1.8-0.3C132.8,55.6,132.8,54.9,133.2,54.2z"
		/>
	<path class="st53" d="M137.4,58.4c4.2-0.1,8.3,1.1,12.5,0.7v2.1c-3.4,1.4-6.5,0.3-9.7-0.7C138.8,60.3,137.3,60.4,137.4,58.4z"/>
	<path class="st54" d="M8.5,23.7c-2.7,1.4-5.6,0.4-8.3,0.7V23c1.8-0.2,5,0.9,2-3.9c3.4,1.7,6.4,0.4,9.1,1.7
		C10.8,22.3,8.5,21.9,8.5,23.7z"/>
	<path class="st55" d="M7.8,0.1l2,2.8c-3.2,1.8-6.4,1.5-9.7,0c-0.5-2.4,0.4-3.2,2.8-2.8C4.6,0.2,6.2,0.2,7.8,0.1z"/>
	<path class="st56" d="M17.4,81.9H0.1v-1.4h17.3l0.3,0.3C17.9,81.2,17.8,81.6,17.4,81.9z"/>
	<path class="st57" d="M149.9,7.8C146,8.4,143.2,5,139.5,5c-0.2-1.1,0.3-1.6,1.4-1.4c2.9,1.5,6,0.3,9,0.7V7.8z"/>
	<path class="st58" d="M6.4,99.3h0.7c1-0.5,2-0.9,2.9,0.1c0.9,1-0.3,1.3-0.8,1.8c-1.6,1.5-3.5,2.7-5.6,3.5v0.2
		c-1.1,0.4-2.4,0.4-3.5-0.1V102C1.8,100.1,4.4,100.3,6.4,99.3z"/>
	<path class="st59" d="M9.8,15.4H0.1v-2.8c1.2-1.4,2.7-0.7,4.2-0.7l1.4,0.7c0.2-0.2,0.6-0.4,0.9-0.4C8.2,12.8,9.9,13.2,9.8,15.4z"/>
	<path class="st60" d="M149.9,85.4v2.1c-3.1,2-6.5,0.9-9.7,0.7c-2-1.8,0-2.8,0.8-4c0.4-0.4,1-0.7,1.6-0.7
		C144.8,85,147.7,83.5,149.9,85.4z"/>
	<path class="st61" d="M139.5,87.5h10.3v2.1c-3.4,1.7-6.9,1.3-10.3,0.3C138.8,89.2,138.8,88.1,139.5,87.5z"/>
	<path class="st62" d="M145.2,75.6c1.7,0,3.2,0.8,4.7,1.5v1.4c-1.9,1.7-4.2,0.9-6.4,0.9s-2.1-1.2-3.1-1.7s-1.8-1.2-0.5-2.3
		S143.4,75.1,145.2,75.6z"/>
	<path class="st63" d="M0.1,2.9h11.1c0.8,0.7,2.3,1,1.2,2.5c-1.7,1-3.6,1.3-5.5,0.8C4.9,4.7,2,6.5,0.1,4.3V2.9z"/>
	<path class="st5" d="M149.9,90.9V93c-2.3,1.9-4.9,0.7-7.4,1c-2.5,0.3-3.5-0.8-2.7-3.3C143.1,90.1,146.5,89.7,149.9,90.9z"/>
	<path class="st64" d="M140.9,27.9c2.9-1.5,6-0.3,9-0.7V30c-0.5,0.5-0.9,1.1-1.5,1.3c-1,0.3-2.1,0.1-3-0.4
		C144,29.6,141.7,29.8,140.9,27.9z"/>
	<path class="st57" d="M0.1,4.3c2.3,0.7,5.1-1.5,7,1.4C6.4,7.2,5,7.5,3.6,7.8L0.1,8.5V4.3z"/>
	<path class="st65" d="M2.7,74.2L0.1,75v-4.9c0.9-0.9,2.2-1.2,3.4-0.8c1.2,0.4,2,1.5,2.1,2.8C5.7,74.2,3.9,73.8,2.7,74.2z"/>
	<path class="st66" d="M149.9,15.4H143c-0.5-2.4,1.9-1.8,2.8-2.8l4.2-1.4L149.9,15.4z"/>
	<path class="st47" d="M124.2,104.9h25.6c-0.1,1.5-1.2,0.6-1.7,0.6h-23.9C123.8,105.3,123.8,105.1,124.2,104.9z"/>
	<path class="st55" d="M149.9,2.9h-3.8c-1-0.1-2.3,0.5-2.7-0.7s1.2-1.2,1.6-2c0.7,0.1,1.4,0.1,2.1,0C149.5-0.4,150.4,0.5,149.9,2.9z
		"/>
	<path class="st61" d="M5,89.6H0.1v-2.8h7.7C8,87,8.1,87.3,8,87.6C7.4,88.8,5.9,88.7,5,89.6z"/>
	<path class="st67" d="M3.6,70.1H0.1v-4.8c0.9-0.9,1.9-1.6,3.3-1c1.4,0.6,0.4,3.3,0.6,5C4,69.6,3.8,69.9,3.6,70.1z"/>
	<path class="st68" d="M149.9,85.4c-2.6-0.2-5.4,0.7-7.6-1.4c-0.2-0.4-0.2-0.8,0.2-1.1l1.1-0.5c2.2,0,4.4-0.8,6.4,0.9L149.9,85.4z"
		/>
	<path class="st69" d="M149.9,90.9h-10.4l-0.3-0.3c-0.2-0.4,0-0.9,0.3-1.1h10.3L149.9,90.9z"/>
	<path class="st64" d="M148.5,30.6l1.4-0.7v3.5h-7.6c-0.3-0.3-0.3-0.7-0.1-1C143.8,30.2,146.4,31.5,148.5,30.6z"/>
	<path class="st70" d="M149.9,79.9V82c-2.3,0.9-4.5,1.4-6.6-0.4c-0.3-0.6-0.1-1.4,0.3-1.9C145.6,78.9,147.9,78.9,149.9,79.9z"/>
	<path class="st71" d="M6.4,99.3c-1.8,1.6-3.6,3-6.2,2.8v-2.8H6.4z"/>
	<path class="st72" d="M143.6,81.2c2,1.4,4.2,0.4,6.3,0.7v1.4h-7c-0.5-0.5-0.6-1.4-0.2-2C142.9,81,143.3,81,143.6,81.2z"/>
	<path class="st73" d="M149.9,79.9h-6.3c-1.2,0-1.1-0.7-0.6-1.4h6.9L149.9,79.9z"/>
	<path class="st74" d="M142.2,93h7.6v2.8c-0.2,0.2-0.6,0.4-0.9,0.4l-3.3-1C144.6,94.4,142.4,95.3,142.2,93z"/>
	<path class="st75" d="M4.3,11.9c-1.2,1.2-2.8,0.5-4.2,0.7V9.2L4.3,11.9z"/>
	<path class="st76" d="M3.9,64.7l-3.7,0.6v-2.1h4.1c0.5,0.3,1.4,0.1,1.6,1C6.1,65.1,4.7,65.3,3.9,64.7z"/>
	<path class="st77" d="M124.2,104.9c0,0.2,0,0.4,0,0.6H118c0-0.2,0-0.4,0-0.6c0.3-0.5,0.7-0.9,1.3-1h1.7c1-0.1,1.9,0.2,2.6,0.9
		L124.2,104.9z"/>
	<path class="st78" d="M149.2,95.8h0.7v2.1c-0.9,0-1.8-0.5-2.1-1.4C148,96,148.6,95.7,149.2,95.8z"/>
	<path class="st79" d="M0.1,104.8h3.5c0,0.2,0,0.4,0,0.6C2.5,105,1,106.4,0.1,104.8z"/>
	<path class="st80" d="M20.9,58.4c2.1-0.3,4.3,0.7,6.2-0.7c8.8,0.5,17.5-1,26.3-0.7c0.6-0.5,1.5-0.5,2.2-0.1c0.4,0.5,0.4,1.2,0,1.7
		c-4.8,2.4-10.1,2.2-15.3,2.9c-1.2,0-2.4,0.2-3.6,0.6c-1.1,0.2-2.2,0-3-0.7c-2.1-2.1-4.8-1.3-7.3-1.7C23.9,59.3,22.5,60.1,20.9,58.4
		z"/>
	<path class="st81" d="M43.8,51.4c-2.4-1.4-5.2-0.2-7.6-1.4c0.2-2,1.8-1.6,3-1.7c2.1,0,4.2,0.1,6.3,0.3c-1.2,0.1-2.4-0.2-3.5-0.8
		c-0.3-0.2-0.5-0.5-0.5-0.9c1-2,2.8-1.2,4.3-1.3c1.1,0.3,2.3,0.4,3.4,0.1h1c2.8,1.2,5.3,1.2,7.1-1.7h1c1,0.2,1.9,0.9,2.3,1.8
		c0.1,0.3,0.1,0.7,0,1c-1,1.9-2.1,3.7-4.9,3.3c-2.8-0.4-1.8,2.5-3.7,2C50.1,51.6,46.6,51,43.8,51.4z"/>
	<path class="st82" d="M52.1,52.1c0.2-0.9,2.4-0.4,1.4-2.1s0.4-1,0.6-0.9c2.8,0.8,4.3-1.2,6.2-2.5c1.9-1.3,2.9-4,5.7-1.8
		c0,1.3-0.8,2.4-2,2.8c-1.6,0.6-2.5,1.8-3.5,2.9C60,50.8,59.4,51,58.8,51c-1.2,0.4-1.1,2.4-2.7,2.4c-0.5,0.1-1-0.1-1.3-0.5
		L52.1,52.1z"/>
	<path class="st83" d="M58.4,50h2.1c0.5-0.5,1.3-0.6,1.9-0.2c0.3,0.2,0.4,0.6,0.4,0.9c-1.5,2.4-3.5,4.5-5.8,6.1
		c-0.5,0-1-0.2-1.3-0.6c1-1.4-2-2-0.7-3.5h1.4C58.1,52.7,58,51.2,58.4,50z"/>
	<path class="st84" d="M55.6,56.3H57c0,1.2-0.6,1.2-1.4,0.7h-2.1C54,56.4,54.8,56.2,55.6,56.3z"/>
	<path class="st85" d="M119.3,104.7l-1.4,0.2v-0.2c-1.6-1.6-1.5-3.5-1.2-5.5c0-1.2-0.1-2.4-0.4-3.6c-0.3-1.2-0.7-2.5-1.2-3.6
		c-0.3-1.7-1.3-3.1-2.7-4.1c-0.6-0.6-0.9-1.4-1.1-2.2c-0.2-0.7-0.1-1.4,0.4-1.9c3-1.1,3.8,1.7,5.3,3.2c0.6,0.9,1.1,1.8,1.5,2.8
		c0-0.5,0-1.1,0.2-1.6c0.5-1.1,1-2.3,1.3-3.5c0.4-1.6,1.3-1.7,2.4-0.5l0.5,0.8c0.2,0.6,0.3,1.2,0.2,1.8c-0.2,0.8-1,1.3-0.8,2.2
		c-0.1,0.4-0.4,0.8-0.7,1.1c0.6-0.5,1-1.1,1.4-1.8c0.7-0.8,1.6-1.3,2.6-1.5c0.9-0.1,1.7,0.3,2.1,1.1c-0.6,1.9-3.1,2.7-3.1,5
		c-0.1,0.6-0.2,1.2-0.4,1.8c-0.1,1.4-1.7,2.4-0.8,4l0,0v6.1h-2.8c-1-0.8-0.6-1.9-0.7-2.8C120,102.8,120.3,103.9,119.3,104.7z"/>
	<path class="st86" d="M42.4,47.3l5.1,1.6c-4,1.4-7.9-0.5-11.4,1.1h-0.7c-1.3-0.9-2.9,0.2-4.2-0.7h-2.6c-1.8-1.6-4.4,0.2-6.2-1.4
		c1-1,2.4-0.7,3.6-0.7C31.4,47.4,36.9,47,42.4,47.3z"/>
	<path class="st81" d="M31.3,49.4c1.4,0.2,2.9-0.5,4.2,0.7C34.1,49.9,32.6,50.5,31.3,49.4z"/>
	<path class="st4" d="M108.3,44.5l-0.7,0.7c-0.7,1.2-1.9,1.4-3.1,1.7h-2c-4.6,0-4.6,0-4.2-4.5c0-0.3,0-0.6,0.1-0.9
		c-0.3-0.3,1.4-0.7-0.1-0.9c-1.5-0.2-2.4,0.1-2.6-1.5c-0.2-1.6,3-1.1,4.6-1.2h2.7c1.8,0.9,4,0.1,5.8,1.2c1.8,1.1,0,1.6-0.7,2.2
		s-1.2,0.6-1.7,1C105.9,42.7,108.6,43,108.3,44.5z"/>
	<path class="st87" d="M104.1,45.9l3.5-0.7c1.7,1,3.6,0.6,5.4,0.8c-0.3,1-1.1,0.8-1.6,1.1s-1.5,0.4-1.2,1.3c0.3,0.9,1,0.9,1.7,0.9
		h6.9c0,0.2,0,0.4,0,0.7c-0.6,0.8-1.5,1.2-2.4,1.2c-2.4-0.2-4.7-0.3-7.1-0.1c-3.4,0.2-6.4,0-7.8-3.8
		C101.4,45.3,103.4,46.9,104.1,45.9z"/>
	<path class="st88" d="M108.3,44.5c-1.1-1.3-3.2-0.1-4.2-1.8c0.9-0.9,2.2-1.5,3.5-1.7c2.2-0.1,4.5-0.6,6.2,1.4c0,0.2,0,0.4,0,0.7
		L108.3,44.5z"/>
	<path class="st89" d="M113.8,42.4c-2.2,0.1-4.3-0.4-6.2-1.4l1.4-1.3c1.2-1.6,2.9-0.9,4.4-1.1c1.2,0.1,2.5-0.1,3.7-0.4
		c0.5-0.3,1-0.4,1.6-0.4c1.1,0.7,2.7,0.5,3.6,1.8l-2.9,1.4L113.8,42.4z"/>
	<path class="st90" d="M112.4,85.5l0.8,1.9c0.4,1,1.7,1.8,0.6,3.1s-2.4,0.7-3.6,0.7H94.7c-1.7,0-2.7,0.3-2.4,2.3
		c-0.1,0.6-0.5,1.2-1,1.5c-1.4,0.6-2.9,0.8-4.4,0.7H41c-1.8,0-4,0.5-4.8-2h2c1.2-1.5,3-0.9,4.5-1h7.9c1.3,0.1,2.6,0,3.9-0.4
		c0.9-0.4,2.1,0,2.9-0.9c-9.7-0.2-19.4,0-29-0.1c-1.4,0-3.1,0.4-4.1-1.1c-1-1.5,2.8-2.8,4.6-3.8c1.6-0.8,3.3-1.1,5.1-1
		c3.7,1,7.3-0.2,11,0c3.7,0.2,9.5,0,14.2,0.1c2.2,0,4.2,0.5,5.2,2.7c1,2.2,1.7,1.4,2.9,1.4h16.6c0.9,0,2,0.2,2.2-1.1
		c0.5-3,2.8-3,5-3h15.2c1.5,0,3-0.2,4.4-0.6C111.3,84.8,111.9,85.1,112.4,85.5z"/>
	<path class="st91" d="M36.2,93.7c0.9,1,2.1,0.7,3.3,0.7h52.1c0.3,0.3,0.4,0.7,0.4,1.1c-0.3,1.3-1.3,2.3-2.6,2.5
		c-7.9,0.3-15.9,0.1-23.8,0.1c-13.7,0.1-27.4,0-41.1,0c-1.5,0-3.6,0.7-4.3-1.7l2.7-0.8C27.3,94.5,31.7,93.8,36.2,93.7z"/>
	<path class="st92" d="M51.4,93.7H38.2c-5.6-1.3-11.3-0.6-16.9-0.4c-0.8,0.2-1.7,0-2.4-0.4c-0.1-1,1.2-1.1,1.3-2H56
		c1.3,0,3.1-1,3.7,1.3l-4.8,0.7C53.9,93.8,52.5,92.9,51.4,93.7z"/>
	<path class="st93" d="M122.1,61.8l13.9,2.1c-1.6,1.3-3.5,0.6-5.3,0.7h-16.2c-0.5,0.6-1.3,0.8-2.1,0.7c-1.2-0.5-2.8-0.3-2.9-2.2
		c-0.1-1.9,2.1-1.7,3.5-1.6c1.5,0.1,3-0.3,4.3-1.1C119.1,60,120.9,60.1,122.1,61.8z"/>
	<path class="st94" d="M112.4,64.6h2.1c1.4,1.2,3.6,0.7,4.9,2.1c1.3,1.4-0.9,1.7-1.8,2.3c-0.8,0.5-1.7,0.7-2.6,0.7
		c-1.6-0.2-3.2-0.7-4.7-1.3c-1.5-0.8-3.6-0.8-3.9-3C108.1,62.2,110.4,64.8,112.4,64.6z"/>
	<path class="st95" d="M117.3,68.2l2.1-1.4c2.1-0.8,3.8,0.4,5.5,1.3c1.7,0.9,0.8,0,1,0.4c0.2,0.4,1.8,1.9,1.1,3.3l-0.9,0.6
		c-4,0.1-8,0.7-12-0.4c-0.9-0.9-0.4-1.6,0.5-2C115.5,69.6,116.8,69.3,117.3,68.2z"/>
	<path class="st96" d="M141,68.1c-0.1,1,0.3,2-0.6,2.8c-0.9,0.8-3.6,0.4-5.3,1c-0.3-0.1-0.6-0.2-0.8-0.5c-0.3-0.6-0.2-1.4,0.3-1.9
		C136,65.6,137.6,65.2,141,68.1z"/>
	<path class="st97" d="M134.5,69.5l0.3,2c-1.1,0.9-2.6-0.2-3.8,0.7c-1.3,0.1-2.6-0.4-3.4-1.4c-0.5-0.8-1.5-1.1-1.9-2.1l-0.8-0.7
		C128.3,67.3,131.3,69,134.5,69.5z"/>
	<path class="st98" d="M145.7,12.6l-2.8,2.8l-2.1,0.7c-3,0.3-5.9,0.4-8.9,0.3c-2.1,0-4.3,0.5-5.7-2.1c-1.4-2.6-2.5-0.6-3.9-0.7
		c-1.4-0.1-3.1,0.3-4-1.4c-0.2-0.9,0.2-1.9,1.1-2.3h0.6c2.7,0,5.5-0.2,8.2,0.1c2.7,0.3,4-1.6,3.4,2.1c-0.1,0.8,1.3,0.6,2.1,0.6
		L145.7,12.6z"/>
	<path class="st99" d="M134.6,5l-1.4,0.7c-0.4,0.1-0.8,0.3-1.2,0.6c-2.8,2.6-5.7,2.4-8.5,0.1V5.8c0.2-1.3,1.4-2.2,2.7-2.1h6
		C133.1,3.7,134.5,3.3,134.6,5z"/>
	<path class="st100" d="M123.5,6.4c-0.6,1.7-2.7,1.9-3.5,3.5l0,0c-2.1,1.2-4.3,1.8-6.4-0.1c-2.1-1.9,0.5-2.7,1.7-3.6
		C118,5.1,120.8,3.4,123.5,6.4L123.5,6.4z"/>
	<path class="st101" d="M42.4,47.3c-0.4,0.9-1.3,1.4-2.2,1.2c-5.9-1.1-11.9-0.2-17.9-0.5c-3.7,0-7.5-0.5-11.1-1.4
		c8-1.6,16,0.9,24-0.2c0-1.6-1.9-0.6-2.3-1.7c2.7-0.6,5.6,0.5,8.1-0.9c0.2-0.2,0.6-0.4,0.9-0.4c1.2,0.2,2.4,0.1,2.8,1.6
		c0.4,1.5-1.5,1.1-2.5,1.2s-1.1,0.3-0.5,1L42.4,47.3z"/>
	<path class="st102" d="M41.7,43.8H41c-1.2-0.9-2.7-1.4-4.2-1.4c-2.1-1.4-4.5-1.7-6.9-2.1l-4.2-2.1c1.1-1.4,2.8-1.2,4.3-1.3
		s2.9,0.4,4.2-0.5c1.3-0.9,3.6-1,3.7,1.8c0,0.1-0.1,0.5,0,0.5c0.3-0.2,0.6-0.3,1-0.3c2.8,0.1,5.1,2.1,5.6,4.9
		C43.8,44.1,42.6,44.3,41.7,43.8z"/>
	<path class="st2" d="M115.9,50h2.8c2.4,0.9,5,1.4,7.6,1.4c0.3,2.3-1.5,2.9-3,3.6c-1.5,0.7-2.7,1-4.1,1.5c-5.3,0.6-10.8-0.1-15.8-2
		c-1.7-0.1-3.5-0.2-4.8-1.5c-0.2-0.3-0.2-0.8,0-1.1c0.3-0.3,0.6-0.5,1-0.7c4.7-0.7,9.4-0.3,14.1-0.8C114.3,50.3,115.2,50.6,115.9,50
		z"/>
	<path class="st103" d="M119.4,55.6c2.2-1.5,5.3-1.6,6.9-4.2c0.9-0.2,1.6-1.4,2.8-0.7l2.8,2.8l1.4,0.7l0.7,1.4
		c0.1,1.1-0.7,2.1-1.8,2.2c-0.2,0-0.5,0-0.7-0.1c-3.2-0.6-6.4-0.2-9.7-0.5C120.7,57.3,119.7,56.6,119.4,55.6z"/>
	<path class="st104" d="M8.5,100.6l1.4-0.7c0.8-1.2,1.9-2,3.4-1.4l2.1-0.6h70.9l1.4,0.2c1.5,1.1,0.4,2-0.4,2.8c-1,1-2.3,1.5-3.7,1.5
		c-23.3,0.9-46.6,0.2-69.9,0.4C11.7,102.7,9.4,103.4,8.5,100.6z"/>
	<path class="st92" d="M88.2,98.6H19.4c-1.3,0-2.8,0.4-4-0.6c1.5-0.8,3.1-1.3,4.8-1.4c1.1,1,2.4,0.7,3.6,0.7h66.4
		c0.3,0.5,0.1,0.9-0.3,1.2C89.4,98.9,88.7,98.9,88.2,98.6z"/>
	<path class="st105" d="M13.3,98.5l-3.5,1.4C9,99,8,99.3,7,99.2C8.7,97.5,11.3,97.2,13.3,98.5z"/>
	<path class="st106" d="M122.1,39.7c-1.3-0.2-3,0.7-3.5-1.4c-0.2-0.3-0.4-0.6-0.3-1c0.1-0.4,0.4-0.6,0.8-0.7h4.1
		c1.1,0.1,2.4,0,2.4,1.7s0,0.5,0,0.7L122.1,39.7z"/>
	<path class="st107" d="M122.1,61.8l-4.9-0.7c-6.1,0.7-12,0.5-17.6-2.4c-0.2-0.9,0.1-1.8,0.9-2.3c0.4-0.2,0.8-0.4,1.2-0.4
		c6-0.8,11.9,1,17.9,0.8c6-0.2,9.2,1,13.8,0.5c1.1,0,2.3,0.3,3.2,1h0.7l2.8,2.1c-4.8,1.5-9.7,0.6-14.6,0.5
		C124.2,60.9,123.1,60.7,122.1,61.8z"/>
	<path class="st42" d="M34.8,36.9c-0.7,2.1-2.5,1.2-3.8,1.3c-1.3,0.1-3.5,0-5.2,0h-1.4L23,37.6c-1.2-1-2.8-0.9-4.2-1.4L16,34.8
		c1.5-1.8,3.6-0.9,5.4-1c1.8-0.1,6.2,0.6,7.4-3.3c1-0.3,2-0.1,2.8,0.6c1.8,1.1,2.5,2.9,2.9,4.9C34.7,36.3,34.8,36.6,34.8,36.9z"/>
	<path class="st108" d="M135.4,23.7c2,0.3,4.8-0.1,3.4,3.5c-5,1.6-10.3,1.8-15.4,0.6c-1.5-1.1-0.5-1.9,0.4-2.6
		c1-0.7,2.1-1.2,3.2-1.7C129.8,22.8,132.6,21.7,135.4,23.7z"/>
	<path class="st109" d="M122.8,27.2h15.9v0.7c-2.1,2.1-5.4,0.7-7.5,2.6l-2.7,1.3h-1c-2.1-0.5-3.6-2.3-5.9-2.3l-1.1-0.3
		c-1.5-0.4-3.1-0.1-4.6-0.4c-1.5-0.3-2.7-0.1-1.8-2.1C117.1,25.5,120,25,122.8,27.2z"/>
	<path class="st110" d="M130.4,29.9c2.3-2.4,5.4-2.1,8.3-2.1h2.1c1.7,0.3,3.4,1,4.8,2.1c0,1.3-1.1,1.3-1.9,1.4
		c-3.8,0.4-7.7,0.5-11.5,0.2C131.4,31.5,130.4,31.2,130.4,29.9z"/>
	<path class="st111" d="M135.4,23.7c-2.8-0.1-5.6,0.1-8.4,0.7c-2.8,0.8-5.7,2-7.8-1.4c1.3-1.6,3.2-0.9,4.8-1
		c1.6-0.1,4.8,0.4,7.1-0.3h3.4L135.4,23.7z"/>
	<path class="st112" d="M138.1,17.5v0.7l-3.5,1.4c-3.1,1-6.3,0.9-9.5,1c-0.7,0-1.6,0-1.9-0.6c-1.4-2.2-3.5-2.2-5.7-2.3
		s-2.9-0.9-2.6-2.9c0.2-0.3,0.5-0.6,0.8-0.8c3.8-0.3,7.7-1.7,10.9,1.9c0.6,0.7,1.4,0.5,2.2,0.4c2.2-0.2,4.3-0.3,6.5-0.2
		C136.4,16.1,137.6,16,138.1,17.5z"/>
	<path class="st113" d="M115.2,14.7c0.7,3.1,3.2,1.6,5,2.1c1.8,0.5,3.8-1.5,3.1,2.1c-0.2,0.8,1.3,0.7,2,0.7h9.3
		c-1.3,1.5-3.1,1.4-4.9,1.4c-2.8,1.7-5.8,1.4-8.8,0.8c-0.5-0.2-0.9-0.6-1.1-1.1c0.1-1.5-0.2-2.3-2-2.2c-1.8,0.1-3.2,0.4-4.6-0.7
		c-1.4-1.1,0-1.9,0.6-2.7C114.1,14.7,114.7,14.6,115.2,14.7z"/>
	<path class="st114" d="M120.8,20.9c3,1,6-0.3,9,0l1.4,0.7c-2.3,2.2-5.1,1.1-7.7,1.3c-2.6,0.2-2.7,0-4.1,0c-0.3,0.2-0.6,0.1-0.8-0.1
		C118.4,21.3,119.7,21.3,120.8,20.9z"/>
	<path class="st115" d="M136,34.8c0,0.2,0,0.4,0,0.7l-3.5,0.7c-4.1,1.2-8.3,0.7-12.5,0.6l-1-0.3c-0.8-1.7-2-2.6-4-1.9
		c-0.9,0-1.7-0.5-2.2-1.3c-0.1-0.4-0.1-0.8,0.1-1.1c0.9-1.3,2.4-2,3.9-2c2.7,0.4,5.7-1.1,8.1,1.3c0.2,0.3,0.3,0.6,0.3,1
		c0.3,2.1,1.9,1,2.9,1.1C130.8,34.2,133.6,32.8,136,34.8z"/>
	<path class="st116" d="M118.7,36.2h13.9l-2.8,1.4l-4.2,0.7c-2.1-1.6-4.8,0.1-6.9-1.4c-0.1-0.1-0.2-0.2-0.2-0.4
		C118.5,36.3,118.6,36.2,118.7,36.2z"/>
	<path class="st117" d="M50.7,3.6l0.7,0.7C52,5,52.7,5.6,52,6.6c-0.7,1-3.2,1-4.9,1c-1.6-0.1-3.1,0.4-4.3,1.5
		c-3.7,1.3-7.5,0.5-11.2,0.5h-1.1c-2.5-1.2-5.3-1.5-8-1c-1.6,0.4-2.9,0-3.7-1.7l-2.7-1.2c-0.4,0.2-0.8,0.1-1.1-0.2
		c-0.6-0.9-0.2-1.7,0.8-1.7c3.6,0,7.2-0.8,10.8,0.5h0.7c4.6,1.4,9.1,1.9,13.8-0.4C43.9,2.5,47.4,3,50.7,3.6z"/>
	<path class="st118" d="M18.9,7.1c1,0.9,2.5,1.2,3.8,0.6c3-1.1,5.5-0.2,8,1.5c-0.3,2-1.9,1.7-3.2,1.7c-2.5,0-4.9,0.5-7.1,1.6
		c-3.5,1.8-7.7,0.9-11.6,0.5l-2.4-0.4H5.7c0.4-1.8,1.9-1.4,3.1-1.4h10.8C19.3,9.7,18,8.5,18.9,7.1z"/>
	<path class="st119" d="M15.4,5.7h0.7c0,2-0.8,3.1-3.1,2.8S6.6,9.2,3.6,7.8c0.8-1.2,2.1-2,3.5-2.1c1.8-0.6,3.6-0.8,5.5-0.7
		C13.9,4,14.5,5.3,15.4,5.7z"/>
	<path class="st120" d="M5.7,63.9l-1.4-0.7c0.8-0.6,2-0.8,2.9-0.3c3.5,2,6.5,0.5,9.6-1.1c3.3,0.2,6.5-0.7,9.7-1.4
		c0.7,1.1,0.2,1.9-0.6,2.6c-2.7,1.2-5.7,0.8-8.5,1.8c-2.8,1-6.2,1.2-9.4,0.7C7,65.5,6.1,64.8,5.7,63.9z"/>
	<path class="st121" d="M25.8,62.5l0.7-2.1v-0.7c2.7-2.1,5.2-1.4,7.6,0.7C32.6,63.2,29.6,63.9,25.8,62.5z"/>
	<path class="st122" d="M134.6,5c-2.9-1.5-6-0.3-9-0.7c-0.4-0.8,0.3-1,0.7-1.4h0.7c4.6,0.4,9.3-0.9,13.9,0.7L139.5,5H134.6z"/>
	<path class="st57" d="M50.7,3.6c-2.2,0-4.4-0.1-6.6,0.1c-2.2,0.2-3.2-0.3-3.1,2c0,0.6-0.5,0.7-0.9,0.7H29.5c-1.1,0-1.8-1-2.3-1.9
		c7.9,1,15.6-2.1,23.6-1.4L50.7,3.6z"/>
	<path class="st122" d="M15.4,5.7L12.6,5l-1.4-2.1h14.6l0.7,1.4h-9.6C16,4.3,14.9,4.1,15.4,5.7z"/>
	<path class="st123" d="M8.5,100.6c1.2,1.1,2.6,0.7,4,0.7H84c0,2-1.7,2.1-3,2.5c-1.3,0.4-2.7,0.3-3.9,0.8l-1.4,0.2H3.6
		C4.8,102.8,6.7,101.8,8.5,100.6z"/>
	<path class="st124" d="M20.2,21.6l-2.8-2.1c1.8-1.9,4.2-1.1,6.4-1.3c2.2-0.2,3.4,0,4.9-1.6s4.3-0.6,6.6-0.9s4.9-0.1,7.1,1.2
		c1.3,0.7,2.3,1.7,3.2,2.9c0.4,0.6,0.7,1.3,0.8,2c0,0.4-0.1,0.8-0.3,1.1c-1.6,1.4-2.7,0.2-3.9-0.7c-2.4-1.8-5.5-2.1-8.2-0.8
		C29.5,24,24.9,23.3,20.2,21.6z"/>
	<path class="st125" d="M20.2,21.6c2.4,0.1,4.8,0.1,7.2-0.1c1.9-0.3,4.4,1.7,5.8-1.8c0.5-1.4,8.5,0.3,9.9,1.9
		c-2.2,1.9-4.5,1.7-6.7,0.5c1.4,2.2,0.2,3.2-2.1,3.5s-5.2-0.3-7.8-0.2s-4.5-0.7-6.1-2.6v-0.5C20.3,22.1,20.2,21.9,20.2,21.6z"/>
	<path class="st126" d="M35.5,16.8h-4.4c-0.9,0-2.2-0.5-1.6,1.5c0.6,2-1.2,1.2-2.1,1.2h-9.9L14,18.2l-0.7-1.4
		c0.2-0.3,0.4-0.7,0.8-0.7c7,0.5,13.7-2.7,20.8-1.8C36.1,14.9,36.2,15.7,35.5,16.8z"/>
	<path class="st127" d="M8.5,23.7c-0.8-0.2-2.6,0.1-1-1.5c1-1,2.4-1.5,3.8-1.3c3.1-0.5,6.2,0,9,1.4l0,0c0.7,1.5-0.4,2.2-1.5,2.3
		c-1.1,0.1-5.2,0.9-7.5-0.9H8.5z"/>
	<path class="st128" d="M10.5,32.7c-1.6-0.5-3.2-0.9-4.9-1.2C2.5,31,3.2,29.9,5,28.6h0.7c4.1,1.1,8.3,0.1,12.4,0.1
		c1.3,0,2.5,0.7,3.8,0.9s3.4,0.3,3.2,2.2c-0.2,1.9-2.1,2.1-3.7,2C17.7,33.5,14.1,33.1,10.5,32.7z"/>
	<path class="st129" d="M11.2,23.7h6.2c1.1,0,2.4,0.3,2.8-1.4l5.6,2.1c0.2,0.2,0.3,0.6,0.3,0.9c-1.3,2.4-3.6,1.3-5.4,1.5
		c-1.8,0.2-3.3-0.4-3.8,1.8c-0.8,0.4-1.7,0.1-2.2-0.6c0,0,0,0,0-0.1C14,26.1,11.7,25.7,11.2,23.7z"/>
	<path class="st130" d="M14.7,27.9l2.1,0.7c0.3-0.4,0.9-0.4,1.3-0.1c0,0,0,0,0,0c0.1,0.1,0.2,0.3,0.2,0.5c0,0.2,0,0.3-0.1,0.3
		c-3.4,1.5-7.2,0.3-10.7,1.1c-0.8,0.2-1.6-0.7-1.8-1.8C8.6,27.5,11.7,27.9,14.7,27.9z"/>
	<path class="st131" d="M115.9,7.1c-0.9,0.5-1.6,1.2-2.1,2.1c-0.2,0.7-1,1.1-1.7,1c-3.2-3.2-7.9-1.8-11.6-3.7
		c-0.6-1-0.1-1.7,0.8-2.2l0.7-1.4c3.5,0.4,7-0.8,10.4,0.7C112.7,5.6,115.8,4.9,115.9,7.1z"/>
	<path class="st132" d="M101.3,4.3l-0.7,2.1l-0.4,0.5c-3.9,0.7-7.8,1.7-11.3-1.1c-1-0.8-2.4-0.3-3.7-0.4c-1.3-0.1-2.5,0.3-3.6-0.6
		l-0.4-0.5V2.9C88,2.1,94.5,5.2,101.3,4.3z"/>
	<path class="st132" d="M61.8,4.3c0.5-1.9,2.1-1.3,3.3-1.4h5.7c1.8,2.3,4.4,1.2,6.7,1.4c2.3,0.2,2.5,0,3.7,0l0,0
		c0.6,0.6,0.7,1.5,0.3,2.2c-0.3,0.3-0.6,0.6-1,0.7c-2.9,0.4-5.9,0.3-8.8-0.2c-1.3-1.3-3.1-2-4.9-1.7c-1.5,0.1-3.2,0.4-4.6-0.5
		L61.8,4.3z"/>
	<path class="st133" d="M10.5,32.7c2.8-1.3,5.8-0.6,8.7-0.4c0.4,0,0.9,0.3,1.3,0.3c0.4,0,3.7,0.9,3.8-0.9c0.1-1.8-2.2-0.8-3.4-1
		c-0.3-0.3-0.2-0.8,0.1-1.1c1.6-1.1,3.4-1,5.2-0.7c1.8,0.3,2.4,0.5,3,1.7c-1.4,1.5-0.9,2.8,0.7,4.2H16.1l-5.5-1.4
		C10.6,33.2,10.5,33,10.5,32.7z"/>
	<path class="st132" d="M52.1,6.4l-0.7-2.1h10.4c1,2,0,2.9-1.8,3c-1.8,0.1-5,0.6-7.5-0.4L52.1,6.4z"/>
	<path class="st134" d="M7.8,87.5v-0.7c3.4-0.3,6.8-0.6,9.6-2.8h0.1c0.3-0.3,0.8-0.5,1.2-0.3c0.3,0.2,0.5,0.4,0.6,0.7
		c0.1,0.8-0.2,1.6-0.2,2.3c0,0.7-0.9,1.5-1.9,1.5C14,88.1,10.7,89.7,7.8,87.5z"/>
	<path class="st135" d="M136.7,58.4L101.3,57c-0.7-2,1.2-2.4,2.1-3.5c0.9-1.1,1-0.5,1.2-0.3c4.5,3.2,9.7,2.3,14.7,2.4
		c5,0.1,9.7,1.7,14.6,0l1.4,0.7L136.7,58.4z"/>
	<path class="st136" d="M135.3,71.3c1.6-1.4,3.2-2.1,5.1-0.4l-0.2,1.3c-1-0.2-1.9,0.5-2.1,1.5c0,0,0,0,0,0c-0.4,0.3-1,0.4-1.5,0.2
		C135.6,73.4,135.1,72.4,135.3,71.3z"/>
	<path class="st137" d="M123.5,98.6c-1-1.2-1-3,0-4.2c3-1,6.2-0.3,9.3-0.5c1.6-0.1,3.4,0.2,3.9-2c0.2-0.7,0.7-1.2,1.3-1.4
		c0.5-0.1,1,0.1,1.4,0.5h0.1c0.4,1.2,1.5,2,2.7,2.1c1.1,1.3,3.1,0.1,4.2,1.4c-1.4,2-4.1,0.4-5.6,2.1c-4.6,1.6-9.3,0.3-13.9,0.7
		C125.7,97.3,124.1,96.6,123.5,98.6z"/>
	<path class="st138" d="M140.8,96.5c-0.6-0.1-1.3-0.1-1.4-0.7c-0.1-0.6,0.5-0.6,0.9-0.6l6-0.7c1.1,0.1,2.1,0.6,2.8,1.4l-1.4,0.7
		C145.5,98,143.2,96,140.8,96.5z"/>
	<path class="st139" d="M115.9,7.1c-0.6-0.6-1.4-0.9-2.2-0.7c-3,0.3-2.1-1.3-1.3-2.8l1.4-1.4c4.1,1.5,8.3,0.3,12.5,0.7l-0.7,1.4
		c-0.9,0.4-1.7,1.2-2.1,2.1C120.9,5.3,118.4,6.1,115.9,7.1z"/>
	<path class="st140" d="M136.9,73.8h1.2c0.8,0.1,0.4,0.9,0.7,1.3c0.3,0.4,0.7,0.3,0.6,0.7l1.4,1.3c1.1,0.7,0.9,1.4-0.1,2.1
		c-1,0.7-4.3,0.5-5.9-1.6c-1.6-2.1,1-1.5,1.1-2.5C136,74.1,136.2,73.9,136.9,73.8z"/>
	<path class="st141" d="M139.5,75.8l-0.6-0.7c2.1,0.2,4.3-0.5,6.4,0.6L139.5,75.8z"/>
	<path class="st142" d="M17.4,80.6v-2c-0.2-0.6-0.3-1.3-0.2-1.9c1.5-3.2,1.5-3.2,5.6-0.4c0.2,1.8-1.6,2.9-1.4,4.6
		c0.1,0.7,0,1.4-0.2,2.1c-0.5,0.9-1,1.7-2.2,0.9l0,0c-1.1-0.9-0.8-2.3-1.3-3.4L17.4,80.6z"/>
	<path class="st143" d="M18.2,77.1l-0.8,1.5l-1.3-0.9l-0.8-1.3L14.1,75c0.1-0.7,0.7-1.1,1.4-1.1C17.6,74,17.4,75.9,18.2,77.1z"/>
	<path class="st144" d="M17.6,80.5c0.9,0.9,1.3,2.2,1.3,3.5h-1.4v-2.1L17.6,80.5z"/>
	<path class="st145" d="M127.7,31.3h0.7c4-0.1,8,0,11.9,0c0.9,0,1.9,0,1.9,1.3v0.7l-4.9,0.7c-3.3,0.7-6.6,0.3-9.9,0.2
		c-0.9,0-2.5,0.1-2.6-1.6l0,0c0.3-1.1,1.5-1.7,2.6-1.4C127.5,31.2,127.6,31.3,127.7,31.3z"/>
	<path class="st146" d="M124.9,32.7c3.9,2.5,8.3,0.9,12.5,1.4l-1.4,0.7h-13.2C122.9,33.1,123.9,32.9,124.9,32.7z"/>
	<path class="st147" d="M6.4,12.6c2.8-1.3,5.9-0.4,8.8-0.7s4.6,0.6,6.6-1.7s3-0.3,4.6-0.4c1.6-0.1,3,0.5,4.3-0.7l0,0
		c1.7-0.1,2.5,0.7,2.4,2.4c-0.5,0.9-1.5,1.5-2.5,1.5c-2.5,0.3-5.3-0.3-6.9,2.6c-0.3,0.6-1.3,0.4-1.9,0.4c-3.5-0.3-7.1,0.8-10.5-0.7
		H9.8L6.4,12.6z"/>
	<path class="st148" d="M11.2,15.4h10c2.5,0,3.7-0.6,1.5-3.1c3.5-1.1,6.9,0.6,10-1c0.7-0.4,1.2,0,1.8,0.4c0.4,0.5,0.7,1.1,0.8,1.8
		c0.1,0.5-0.1,1-0.5,1.3c-0.4,0.2-0.8,0.6-1.2,0.6c-6.8,0.4-13.4,2.3-20.3,1.5C12.4,16.9,11.6,16.3,11.2,15.4z"/>
	<path class="st1" d="M77.1,104.7l6.9-3.4c1.5-0.8,3.2-1.2,4.2-2.7l1.3-0.6c6-1.5,12.1-0.5,18.1-0.8h6.5c1.4-0.1,2.8,0.4,3.8,1.4
		v6.1H77.1z"/>
	<path class="st149" d="M2.7,74.2c0.6-0.9,2.3-0.4,2.4-1.9c0.2-0.3,0.5-0.4,0.8-0.5c2.6,0,5-1.2,7.7-0.7c0.3,0.1,0.6,0.4,0.8,0.7
		c0.5,0.9,0.2,1.9-0.6,2.5L2.7,74.2z"/>
	<path class="st150" d="M13.9,74.3v-2.6c1.7-0.7,1.5,0.8,1.8,1.6c0,0.3-0.2,0.7-0.4,0.9L14,74.9L13.9,74.3z"/>
	<path class="st91" d="M59.7,92.3c-1.2-1.1-2.6-0.6-4-0.6l-32.8,0.2c-0.9,0-1.6,0-2-0.9l2-0.7c0.3-0.6,0.7-1,1.4-0.7
		c0.7,0.3,2.6,0.7,4,0.7h30.9c0.7,0,1.8-0.6,1.9,0.7C61.2,92.3,60.3,92,59.7,92.3z"/>
	<path class="st92" d="M24.4,89.6L23,90.3c-1.8-1.6-4.4,0.2-6.2-1.4s1.1-0.8,1.4-1.4s0.1-0.9,0-1.4c3.4-1.9,6.8-0.7,10.3,0
		c0.6,0.1,0.9,0.7,0.8,1.3L24.4,89.6z"/>
	<path class="st151" d="M18.2,87.5l-1.4,1.4C13,90.1,9,90.4,5,89.6c0.5-1.2,1.5-2,2.8-2.1H18.2z"/>
	<path class="st152" d="M138.1,17.5c-2.9-1.2-5.9-0.8-8.8-0.4c-1,0.1-2.3,0.7-2.9-0.1c-2.9-3.7-6.9-1.9-10.4-2.3
		c-0.5-1.7,0.6-2.4,1.9-3.1c0.3-0.1,0.7,0.1,0.9,0.3c2.2,1.3,4.7,0.6,7,0.5c2.3-0.1,3.5-1.1,2.1,2c-0.6,1.4,0.9,0.9,1.5,0.9
		c3.8,0.4,7.8-0.7,11.5,0.7L138.1,17.5z"/>
	<path class="st153" d="M139.5,90.9H138c-1.3-0.4-1.6-1.6-2.1-2.7c-0.2-0.7-0.2-1.3,0-2c0.4-1.3,1.6-1.4,2.6-1.8
		c1-0.4,2-1.6,2.9,0.2l-1.9,2.8c0,0.7,0,1.4,0,2.1V90.9z"/>
	<path class="st154" d="M141.4,84.6c-1.1-0.5-1.8,0.5-2.7,0.8l-0.3-0.3c-0.3-0.8-0.1-1.6,0.4-2.3c0.4-0.6,0.9-1,1.6-1.2
		c1.1,0.1,2.1,0.3,1.8,1.8c0,0.2,0,0.5,0,0.7L141.4,84.6z"/>
	<path class="st155" d="M135.3,77.1c1.9,2,4.5,2,5.5,0c0.9,0.1,1.7,0.6,2.1,1.4l0.6,1.4v1.3h-0.7c-0.7,0.6-1.7,0.7-2.5,0.4l-1.5,0.5
		c-1.2,0.2-2.3,0.2-3.5,0l-1.8-0.4c-0.3-0.1-0.5-0.3-0.7-0.5c-0.2-0.4-0.4-0.9-0.3-1.4c0.1-0.5,0.2-0.9,0.4-1.4
		C133.6,77.5,134,76.6,135.3,77.1z"/>
	<path class="st156" d="M142.2,32.7c-2.1-1.3-4.5-0.5-6.7-0.7c-2.2-0.2-4.9,0.5-7.1-0.7c0.4-0.8,1.2-1.4,2.1-1.4
		c5,1.1,10.2,1.1,15.2,0l2.8,0.7C146.6,32.1,144.3,32,142.2,32.7z"/>
	<path class="st157" d="M5.7,72.4H5.1l-1.5-2.3v-0.6C5.8,67,7.1,67.2,8.3,70C8.1,71.3,7.1,72.3,5.7,72.4z"/>
	<path class="st158" d="M7.8,70c-1-3.4-2.8-0.3-4.2-0.5c-1.2-1.7-0.9-3.2,0.3-4.8l1.8-0.8l2.1,0.7c2.9,0.9,2.6,3,1.7,5.2
		C9,70.4,8.4,70.8,7.8,70z"/>
	<path class="st159" d="M140.2,81.2h2.8v2.1h-0.6l-2.1-1.4c-0.2-0.1-0.3-0.3-0.2-0.5L140.2,81.2z"/>
	<path class="st160" d="M119.3,104.7v-4.5c2,1.5,1.2,3.2,1.4,4.5H119.3z"/>
	<path class="st161" d="M25.8,62.5c2.7-1.1,5.9-0.1,8.3-2.1l2.1,1.4c2.6-0.8,4.9-0.6,7,1.3c-0.2,2.2-2.3,1.7-3.5,2.5
		c-1.2,0.8-4,1.1-6,0.5c-4.4-1.2-8.9,0.6-13.4-0.5c-1.1-0.3-2.7,0.2-2.8-1.7C20.2,63,23,62.5,25.8,62.5z"/>
	<path class="st84" d="M43.1,63.2c-2.4,0.1-4.6-0.9-6.9-1.4c0.3-0.6,0.8-1.1,1.5-1.3l17.9-2.2c2.5-0.3,1.9,1,1.3,2.4
		c-0.4,0.5-0.9,0.9-1.4,1.1c-3.1,0.4-6,1.4-9.1,1.8C45.2,63.8,44.1,64.3,43.1,63.2z"/>
	<path class="st162" d="M56.3,60.4c0.4-0.9,0.9-1.9-0.7-2.1V57l1.4-0.7c1.1-2.4,3.1-4.4,5.5-5.5c0.3,0.2,0.5,0.4,0.6,0.7
		c0.6,1.7-0.9,2.8-1.3,4.2c-0.4,1.4-0.2,4.6-3.2,5.1C57.8,61,57,61.2,56.3,60.4z"/>
	<path class="st163" d="M66,45.2c-0.9-0.9-1.6-0.6-2.2,0.3c-0.6,0.9-2.1,1.1-3.3,1.1s0-0.5,0-0.7s1.4-3.2,3.3-3.7c2.6-2.1,6-2,9-2.8
		c2.7-0.6,5.6-0.3,8.2,0.7c0.7,0.3,1.5,0.4,2.3,0.2c2.6,1.6,6.4,1,8.1,4.2c0.2,0.6,0.7,1.2,0.5,1.9c-0.6,0.8-1.7,1.2-2.7,0.9
		c-4.5-1.8-8.8-4.4-13.9-3.6c-2.3,0.3-4.6,0.7-6.9,1.4C67.4,45.5,66.7,45.9,66,45.2z"/>
	<path class="st164" d="M58.4,44.5h-0.7c-1.6-0.1-3.2-0.6-4.5-1.5c-1.4-1.1-3-1.7-4.4-2.6c-0.8-0.5-1.7-1.1-2.4-1.7
		c-1.6-2.1-0.1-2.5,1.5-2.7c1.6-0.2,5.4,0.4,8,0.5c2.6,0.1,3.3,0.9,4.7,1.8c0.7,0.5,1.2,1.3,1.4,2.1c0,0.3,0,0.7-0.1,1
		C60.9,42.4,61.4,45.5,58.4,44.5z"/>
	<path class="st86" d="M49.4,39.6c1.3,1.1,3.5,0.7,4.2,2.8c0.7,2.1,0.3,3.4-3.5,4.2h-0.7c-0.9-0.4-1.8,0.2-2.8,0
		c-1-0.2-3.4-0.5-4.8,0.7l-3.6-1.2c2.3-1.7,4.6,0.8,6.3-0.9c0.3-0.4,0.6-0.7,0.9-1c1-0.6,1.6-1.2,0.5-2.3c-0.3-0.4-0.4-0.9-0.3-1.4
		C46.6,39,48,39.5,49.4,39.6z"/>
	<path class="st165" d="M50,46.6c1.2-1.4,3.9-1.5,3.5-4.2c1.6,0.3,3,1,4.2,2.1l-0.3,0.2c-1.4,3.8-1.8,4-6.4,2.3L50,46.6z"/>
	<path class="st165" d="M58.4,44.5c1.3-0.2,2.1-0.7,1.8-2.2s0.9-1.2,1.7-1.3c0.6-0.1,1.2,0,1.7,0.4c0.4,0.5,0.8,1,0.3,1.7
		c-0.5,0.7-1.4,3-3.5,2.8L58.4,44.5z"/>
	<path class="st166" d="M46.6,46.6c0.6-0.8,1.8-0.9,2.5-0.3c0.1,0.1,0.2,0.2,0.3,0.3C48.4,47,47.5,47.7,46.6,46.6z"/>
	<path class="st167" d="M66,45.2c3.6-2.7,8.2-2.8,12.2-2.7c3.9,0.1,7.7,1.5,10.7,4.1c1.2,0.8,3.8-0.3,3.5,2.5
		c-0.1,0.4-0.2,0.7-0.4,1c-0.4,0.4-1,0.6-1.5,0.5c-1.2-0.1-0.9-2.5-2.7-1.8c-3.1-1.3-5.9-3.4-9.4-3.8s-8.9,0.9-12.9,3.3
		c-0.9,0.5-1.9,0.7-2.5,1.5L62.6,50h-2.2C60.7,46.6,64.4,47,66,45.2z"/>
	<path class="st0" d="M58.4,50c0.6,1.9,0.1,2.9-2.1,2.8C58,52.7,56,49.7,58.4,50z"/>
	<path class="st168" d="M64.6,48c3.8-3.7,8.5-4.3,13.4-4c3.7,0.3,7.3,1.7,10.2,4c0.4,0.4,0.4,0.9,0.2,1.4c-1.4,1.2-2.6,0.3-3.8-0.4
		c-7.1-4-12-3.5-18.5,1.6c-1.1,0.9-2.1,2-3.6,0.7c0-0.2,0-0.4,0-0.7c0-0.3,0-0.5,0-0.7l0,0C62.8,48.9,63.6,48.2,64.6,48z"/>
	<path class="st169" d="M118,98.6H93.2c-1.2,0-2.5,0.3-3.6-0.6l0.7-0.8l1.5-2c1.1-1.1,2.6-1.6,4.1-1.4h17.5c1.5-0.2,3,0.4,4.1,1.4
		C118.3,96.1,117.9,97.4,118,98.6z"/>
	<path class="st104" d="M117.3,95.1H91.7V93c0.4-2.2,2.1-1.7,3.5-1.7c6.5-0.1,13.1,0.1,19.6-0.1c0.4,0,0.8,0.2,1.2,0.4
		C116.9,92.5,117.4,93.8,117.3,95.1z"/>
	<path class="st170" d="M137.4,92.3c0.5,0.3,1.2,0.8,0.6,1.2c-0.6,0.4-1.9,1.7-3.3,1.6c-3.7-0.4-7.5,0.8-11.1-0.7v-2
		c1.3-0.7,1.6-2.6,3.5-2.4c0.9,0.5,1.9,0.8,2.9,0.9c-0.8-0.1-1.5-0.4-2.1-0.8c-0.6-0.6-0.4-1.2,0.1-1.7l0.5-0.8
		c3-1.1,5.6,0.4,8.3,1.2C137.9,89.7,135.8,91.4,137.4,92.3z"/>
	<path class="st171" d="M116.6,87.5c-1.9-0.7-2.1-3.9-4.8-3.5c-0.3-0.4-0.5-0.9-0.3-1.4c1.1-1.5,2.3-1.8,4.2-1.3
		c1.8,0.7,3.9,0.5,5.6-0.5c0.8-0.3,1.8,0,2.3,0.7c0.2,0.3,0.3,0.6,0.3,0.9c-0.1,1-0.7,1.9-1.7,2.2c-0.4,0.1-1.3-1.8-1.2,0.2
		c0.2,1.3-0.4,2.6-1.6,3.3C118.2,89,117.5,87.7,116.6,87.5z"/>
	<path class="st172" d="M122.1,88.2c-0.7-0.9,0.2-1.1,0.7-1.4c0.5-0.3,1-3.9,3.1-4.9c1.4-0.6,3.1-0.5,4.4,0.4
		c1.2,2.6-0.5,3.3-2.5,3.7c-0.3,0.1-0.8-1-1,0.1c-0.2,1.1-0.8,1-1.3,1.4l-2.1,1.4C122.8,89.2,122.4,88.8,122.1,88.2z"/>
	<path class="st173" d="M116.6,87.5c1.3-1.3,1.9,0.5,2.8,0.7c0.9,0.2,0,2.2,0,4.1C118,90.4,117,89.1,116.6,87.5z"/>
	<path class="st174" d="M125.6,82.6c-0.7,1.5-0.9,3.4-2.8,4.1l-0.7-1.4c0.5-0.9,0.6-2,1.4-2.8v-0.7l0.3-0.3c0.4-0.2,0.8-0.2,1.2,0
		C125.4,81.7,125.6,82.1,125.6,82.6z"/>
	<path class="st175" d="M127,90.2c-1.3,0.5-1.9,2.1-3.4,2.1c0.8-1.9,1.5-4,4.1-4.2c0.1-0.2,0.4-0.2,0.6,0c0,0,0,0,0,0l-0.6,1.4
		C127.7,89.9,127.4,90.2,127,90.2L127,90.2z"/>
	<path class="st176" d="M111.7,82.6V84l0.6,1.5H111c-0.7-0.2-1.3-0.6-1.7-1.2c-0.7-1.1-0.8-2.5-0.2-3.7c0.4-0.7,1.2-1,1.9-0.8
		C112.1,80.5,112,81.5,111.7,82.6z"/>
	<path class="st177" d="M122.1,88.2l1.4,0.7l-2.2,3.4C119.9,90.5,121.5,89.5,122.1,88.2z"/>
	<path class="st169" d="M115.9,91.6h-0.7c-0.7-0.1-1.3-0.7-1.3-1.4l-0.7-2.8C114.9,88,116,89.7,115.9,91.6z"/>
	<path class="st178" d="M128.3,88.1h-0.6c-0.5-0.7-1.3-0.7-2.1-0.7c0.8-0.5,0-2,1.4-2.1c1.4-0.1,1.4,0.6,1.7,1.5
		C128.8,87.2,128.7,87.7,128.3,88.1L128.3,88.1z"/>
	<path class="st179" d="M123.5,82.6c-0.1,1.1-0.6,2.1-1.4,2.8v-0.7C122.1,83.8,122.6,82.9,123.5,82.6z"/>
	<path class="st180" d="M100.6,39c-1.6,0.2-3.4-0.5-4.9,0.7c-0.3,0.2-0.6,0.4-1,0.3c-1-0.4-1.1-1.2-1-2.2c0.3-0.8,0.8-1.6,1.5-2.1
		l0.9-0.5c1.8-0.6,2.7-2.8,4.9-2.7s5.7,1.2,8.4,2c0.6,2.7-1.5,2.9-3.2,3.4c-1.7,0.5-2.5-0.2-3.7,0.4S101.1,38.1,100.6,39z"/>
	<path class="st181" d="M104.1,45.9l-2.8,1.4c-0.7,1-1.9,1.6-3.1,1.6c-2.7-0.2-3.1-2.3-3.5-4.4c0.1-0.9,0.7-1.7,1.5-2.1
		c0.7-0.6,1.7-0.6,2.4,0c0.8,0.1,1.9-0.2,2.1,0.7c0.2,0.9-1.9,0.9-2.1,2.7L104.1,45.9z"/>
	<path class="st182" d="M102,38.3c0.4-1.7,1.8-1.4,3-1.4s3.6-0.3,4.7-2.1c2.5,1,1.9,2.6,0.8,4.3c-2.6,0.4-5.2,0.4-7.8-0.1H102
		c-0.3-0.1-0.3-0.3-0.2-0.5L102,38.3z"/>
	<path class="st183" d="M98.6,42.4l-2.1,0.7c-3.5,1.5-3.8-1.6-5.1-3.4c0-0.9,0.5-1.7,1.2-2.1c0.6-0.5,1.4-0.4,1.9,0.1
		c0,0.8-0.1,1.6,0.7,2.1c0.8,0.5,3.1,0,3.5,2L98.6,42.4z"/>
	<path class="st184" d="M102.7,39h7.6c2.5-2.1,5-1.5,7.6,0c-2.9,1.5-6,0.3-8.9,0.7C106.1,40.1,104.7,40.3,102.7,39z"/>
	<path class="st185" d="M98.6,41.7c-1-0.9-3-0.1-3.5-2h6.3C100.9,40.8,99.8,41.6,98.6,41.7z"/>
	<path class="st186" d="M102,38.3c0,0.2,0,0.4,0,0.7h-1.4c-0.2-0.8-2.3-0.7-1.4-1.6C100.1,36.5,101,38,102,38.3z"/>
	<path class="st187" d="M97.9,48l3.5-0.7h4.1c0.1,1.7-1.8,1.1-2.2,2.8h12.6c-5.4,1.6-11.1,1.6-16.6,2.1c-1.5-0.7-1.3-2.2-1.7-3.4
		C97.5,48.5,97.7,48.2,97.9,48z"/>
	<path class="st188" d="M117.9,38.9h-7.6c-0.1-1.4,0.5-2.9-0.7-4.1c-3.2,0.6-6-0.8-9-1.4c-0.2-0.3-0.2-0.7,0.1-1c0,0,0,0,0,0
		c2.4-1.4,5-0.3,7.5-0.8c1.1,0,2.1,0.4,2.9,1.1c0.7,1.9,2.2,2.2,4,1.7c0.8-0.1,1.6,0.1,2.2,0.7c0.1,1,0.2,2,1.3,2.3s0,0.5,0,0.7
		L117.9,38.9z"/>
	<path class="st189" d="M110.2,84.1l0.9,1.3c-1.1,1.2-2.5,1.4-4,1.4H90.8c-4.2,0-4.2,0-2.5,4.2H64.7c-1,0-1.8-0.2-1.6-1.5
		s-1.4-2.6-3.2-2.6H37.1c-1.2,0-2.6,0.4-3.6-0.6c1.6-2.4,4.4-2.4,6.7-3.4c2.3-1,5.8-1.9,8.9-1.7c3.1,0.2,8,0.2,12,0.4
		c1.8,0.1,3.5,0.1,4.7,1.6c1.2,1.5,2.2,1.1,3.4,1.1h15.1c1.6,0,3.1-0.6,4.3-1.7c0.7-0.4,1.6-0.6,2.4-0.6c4.1,0.5,8.2,0.5,12.2-0.2
		C105.8,81.7,108.3,82.1,110.2,84.1z"/>
	<path class="st91" d="M40.3,83.9l-6.8,2.2l-4.3,1.3c-3.6-1.2-7.4-0.7-11-1.4c-0.4-0.9,1-1.2,0.7-2.1c0.8,0.1,1.4-0.5,1.5-1.3
		c0,0,0-0.1,0-0.1c3.6-1.4,7.3-0.4,10.9-0.7c2-0.2,3.9-0.2,5.9,0C38.4,82.1,40,82.1,40.3,83.9z"/>
	<path class="st91" d="M113.9,90.2l1.3,1.4c-1,1-2.4,0.7-3.6,0.7H95.2c-1.2,0-2.5-0.3-3.6,0.7l-2-2.8L113.9,90.2z"/>
	<path class="st91" d="M51.4,93.7c1-1,2.3-0.6,3.5-0.7C53.9,94,52.6,93.6,51.4,93.7z"/>
	<path class="st190" d="M99.9,58.4c4,1.3,8.2,1.1,12.3,2c1.6,0.4,3.4,0.5,5,0.7c-0.8,1.5-2.2,1.4-3.6,1.4c-1.4-0.1-2.8,0.1-4,0.7
		c-4.8,1.9-8.9-0.4-13-2.4C96.4,58.3,98.1,58.2,99.9,58.4z"/>
	<path class="st191" d="M96.5,60.4c4.4,0.9,8.6,2.7,13.2,2.8l2.8,1.4c-1.8,0.5-4.2-1.3-5.5,1.4c-3.2,1.2-5.6-1.1-8.3-1.9l-1.2-0.9
		c-0.7-0.6-1-1.4-1.1-2.3L96.5,60.4z"/>
	<path class="st192" d="M117.3,68.2c0.2,0.5,1.5,0.8,0,1.4c-1.5,0.6-2.1,1.5-3.5,1.3c0.2,2,1.8,1.3,2.8,1.3
		c3.8,0.2,7.5-0.2,11.3,0.4c1,0.2,2.1,0.1,2.8,1.1c0.2,0.6,0.1,1.3-0.4,1.7c-1.4,0.8-3.1,1.1-4.7,0.6c-4.4-0.8-8.9-0.4-13.4-0.8
		c-1-0.3-1.9-0.9-2.4-1.9c-0.2-0.5-0.3-1.1-0.2-1.7c0.9-2.8,3.5-2.3,5.6-2.7L117.3,68.2z"/>
	<path class="st193" d="M98.6,63.2l8.3,2.8l4.2,1.4c-0.1,1.8-1.5,1.7-2.7,1.8c-1.1,0-2.2,0.1-3.3,0.3c-3,0.1-5.8-1.1-7.8-3.3
		C97.1,64.9,95.2,62.9,98.6,63.2z"/>
	<path class="st67" d="M104.8,68.8c1.8-1.6,4.4,0.2,6.2-1.4l4.3,1.4c-1.6,1-3.7,1.2-4.9,2.7C109.2,73,105.8,71.5,104.8,68.8z"/>
	<path class="st194" d="M130.4,73.6c-5.3-0.6-10.7-0.8-16-0.7c-2.1,0-2.4-0.8-0.6-2c4.3,1.5,8.8,0.3,13.2,0.7
		C129.1,70.7,130.2,71.5,130.4,73.6z"/>
	<path class="st195" d="M130.4,73.6c-0.6-1.4-1.9-2.2-3.4-2.1v-0.7c-0.1-0.7,0.1-1.1,0.9-0.8c0.9,0.8,2,1.3,3.2,1.5
		c0.6,0.1,1.1,0.7,1.1,1.3c0.1,1-0.5,1.9-1.4,2.3h-0.4L130.4,73.6z"/>
	<path class="st196" d="M119.5,69c0.9-1.4,1.8-1.7,3-1s0.8,0.8,0.4,1.1C122.5,69.4,120.9,69.5,119.5,69z"/>
	<path class="st194" d="M127.9,70.1l-0.9,0.8c-0.7-0.6-2-0.3-2.3-1.5c-0.3-1.2,0.6-0.4,1-0.6C126.6,68.7,127.5,69.2,127.9,70.1z"/>
	<path class="st197" d="M131.7,73l-0.6-1.4c1.2-2.2,2.4-0.9,3.7-0.1h0.5l1.6,2.5l-0.4,1.8c-1.6,0.5-3,2.3-4.9,0.8
		C129.7,75.1,131.5,74.1,131.7,73z"/>
	<path class="st7" d="M118.7,11.9H118c-2.2,1.2-4.4,2.1-6.5-0.2c-0.2-0.9-0.4-1.8,1-1.9l1.4-0.7c2,1.4,4.2,0.4,6.2,0.7L118.7,11.9z"
		/>
	<path class="st8" d="M45.9,45.2h-1.4l-2.8-1.4l2.8-0.7c0.3-0.3,0.7-0.3,1-0.1C46.3,43.6,46.6,44.3,45.9,45.2z"/>
	<path class="st198" d="M45.2,43.1h-0.7c-2.4-3.3-6.3-4.5-9.7-6.2h-0.7c-0.2-0.4-0.2-0.8,0.2-1.1c3-1.9,6.3-0.3,9.4-0.6
		c3.1-0.3,4.9,0,7.4-0.1c1.8-0.3,3.7-0.2,5.4,0.5c0.4,0.2,0.6,0.6,0.7,1c-0.1,0.5-0.4,0.6-0.9,0.4c-0.8,0.6-1.3,1.5-2.6,0.6
		c-1.3-0.9-4.3-0.6-6.4-0.6c-2.1,0-0.1,0.8,0,1.3c0.1,0.5-3.5,0.5-1.4,2.8l0.7,0.7C46.9,43,46,43,45.2,43.1z"/>
	<path class="st199" d="M97.9,48.7c0.9,0.2,2.5-0.2,1.2,1.6c-1.3,1.8,0,1.3,0.2,1.9h-0.7c-0.7,0.7-1.6,0.9-2.1,0.3s-3.3-1.9-4.8-3
		c0.4-2.2-1.9-1.8-2.8-2.8c1,0,2,0.2,2.8-0.7c0.8-0.9,2.3-0.5,3,0.7S96.7,48.1,97.9,48.7z"/>
	<path class="st200" d="M103.4,53.5c0,1.6-1.5,2.2-2.1,3.5h-0.7c-0.4,0.3-0.9,0.5-1.4,0.6c-3.5-0.9-3.9-1.5-3.2-5.1
		c0.8,0,1.7-0.2,2.5,0.3L103.4,53.5z"/>
	<path class="st201" d="M98.6,52.8h-2.8c-0.7,0.7-1.8,0.8-2.5,0.2c0,0,0,0-0.1-0.1l-0.6-0.7c-0.3-0.7-0.6-1.4-0.9-2.1
		c0-0.2,0-0.4,0-0.7c1.9,0.2,4.4-0.9,5.1,2.3c0.1,0.3,1.2,0.3,1.9,0.5L98.6,52.8z"/>
	<path class="st184" d="M118.7,37.6c-1.5,0-3.2,0.2-1.4-2c0.8-0.4,1.1,0.1,1.4,0.7l0,0c0,0.2,0,0.5,0.1,0.7L118.7,37.6z"/>
	<path class="st202" d="M99.3,57h1.4l-0.7,1.4l-3.5,2.1l0,0c-0.3,0.2-0.6,0.3-0.9,0.1c-2.2-3.1,1.2-2.8,2.3-3.8
		C98.4,56.6,98.9,56.7,99.3,57z"/>
	<path class="st203" d="M29.3,30.6l-2.8-0.7c0.3-2.4,0.3-2.4,4.4-2.4c1.8,0.4,3.6,0.8,4.2,2.9s-2.4,1.2-3.8,1.5L29.3,30.6z"/>
	<path class="st204" d="M31.3,32c0.9-1.2,2.6-0.2,3.5-1.4c0.9-1.2,1.9,0,2.5,1.1c0.1,0.3,0.1,0.7,0,1c-0.6,1.6-2,2.4-3.2,3.5v0.7
		C32.9,35.4,33.4,33,31.3,32z"/>
	<path class="st205" d="M118.6,23h0.7c2.4,0.9,5,1.4,7.6,1.4l-4.2,2.8h-9c-0.2-0.2-0.4-0.5-0.4-0.8c0.1-1,0.6-1.9,1.5-2.4
		c0.6-0.4,1.4-0.6,2.1-1C117.4,22.7,118.1,22.7,118.6,23z"/>
	<path class="st206" d="M113.8,26.5v0.7c2.3,1.7,5.3-0.4,7.6,1.4c-2.4,1.7-5.6,1.4-8,3.2c-1.7,0.1-3.5,0.1-4.6-1.5
		c-0.2-0.3-0.3-0.6-0.4-0.9c-0.8-2.3-3.5-0.3-4.5-2.2c-1-1.9,0.9-2.4,2-3.3C109.2,22.8,112,23.1,113.8,26.5z"/>
	<path class="st146" d="M127.7,31.3l-2.8,1.4c-2.4-2.7-5.6-0.8-8.3-1.4c-0.1-1.8,1.3-1.8,2.4-2s2.3,0.3,3.1-0.7
		S126.1,29.9,127.7,31.3z"/>
	<path class="st207" d="M122.1,28.6c0.5,1.6-0.6,1.4-1.5,1.4c-0.9,0-3,0.1-4.1,1.4l-3.5,1.4c-0.3,0.1-0.7,0.1-0.7-0.2
		s0.2-0.9,0.7-1.1c2.5-1.8,5.1-3.2,8.3-2.8L122.1,28.6z"/>
	<path class="st208" d="M111.7,11.2c2,1.4,4.2,0.4,6.2,0.7l-2.1,2.8h-0.7l-0.7,0.7c-1.3,0.8-2.6,1.4-4.1,0.4
		c-0.6-0.5-0.9-1.4-0.8-2.2C110,12.5,110.1,11.2,111.7,11.2z"/>
	<path class="st209" d="M118.6,23l-1.3,0.7c-1.9-0.8-4-1.2-6.1-1.1c-0.9,0.1-1.8-0.3-2.3-1.1c-0.1-1.7,1-2.5,2.5-2.9
		c1.9-0.1,3.8-0.2,5.7-0.1c1.3,0,2.5,0.3,3,1.7l0.7,0.7L118.6,23z"/>
	<path class="st124" d="M120.1,20.2c-2.9-1.3-6-0.4-9-0.7c-0.3-0.2-0.4-0.6-0.3-0.9c0.5-0.9,1.1-1.7,2.3-1.2h6.2
		c0.8,0,2.1-0.4,2.4,0.8C122,19.4,120.8,19.8,120.1,20.2z"/>
	<path class="st210" d="M113.1,17.5l-2.1,1.4c-1.1,0.4-1.6-0.3-2-1.1c-0.1-0.5-0.1-1,0.1-1.5c0.2-0.5,0.7-0.8,1.2-0.8h4.2
		L113.1,17.5z"/>
	<path class="st211" d="M113.1,31.3c-0.1,0.5-0.6,0.9,0,1.4v0.6c-0.5,0.6-1.4,0.7-2,0.2c0,0-0.1-0.1-0.1-0.1l-2.8-0.8
		c-0.6-0.6-2.4,0.3-2.1-1.4c0.3-1.7,1.1-2.4,2.8-2C109.7,31.2,112,30.1,113.1,31.3z"/>
	<path class="st212" d="M118.7,36.2l-1.4-0.7c-0.8,0-1.5-0.2-2.1-0.7c-0.2-0.1-0.3-0.3-0.2-0.4l0.2-0.2c0.6-0.6,1.3-0.9,2.1-0.8
		C120.2,33.2,120.1,34.4,118.7,36.2z"/>
	<path class="st184" d="M115.2,34.2v0.7c-2.8,2.2-3.6,1.9-4.1-1.4h2.1L115.2,34.2z"/>
	<path class="st213" d="M34.1,11.9l-1.4-0.7c-0.4-0.9-1.2-1.7-2.1-2.1c4.1-1.5,8.3-0.3,12.5-0.7c1.4-0.2,1.9,0.7,2.4,1.7
		c0.5,1-0.6,2.6-2.1,2.9C40.2,13.5,37,13.8,34.1,11.9z"/>
	<path class="st214" d="M44.5,9.8l-1.4-1.3c-0.8-1.5-0.2-2.1,1.4-2.1h7.6c1,0.6,2,1.3,1.9,2.7c-0.1,0.6-0.4,1.2-1,1.5
		C50.2,10.9,47.2,11.6,44.5,9.8z"/>
	<path class="st215" d="M17.5,63.9c3.6,1.5,7.4,0.3,11,0.7c1.9,0.2,3.9-0.6,5.6,0.7c-0.9,3-3.8,1.8-5.7,2.9
		c-1.2,0.5-2.6,0.9-3.9,1.1c-1-0.1-1.9-0.5-2.7-1.1c-1.7-1.2-3.9-1.1-5.5,0.1c-0.9,0.5-1.8,0.9-2.7,1.3c-1.6,0.4-3.1,0.8-4.7-0.1
		c-1.6-0.9,0.9-3.7-1.2-4.9C11.1,65,14.2,63.7,17.5,63.9z"/>
	<path class="st216" d="M25.8,25.1v-0.7h7.9c2,0.1,3.7,0.1,1.5-2.8h8c0.9,0.2,1.5,1.9,2.8,0.7c1.6,0.2,1.3,1.2,0.9,2.2
		c-2,1.5-4.7,1.6-6.8,0.3c1.3,2.4-0.1,3.3-2.5,3.6s-4.5-0.4-6.8-0.6h-1.2C27.9,27.5,26.4,26.9,25.8,25.1z"/>
	<path class="st217" d="M34.8,14.7v-1.4c1.3-1,2.4,0.1,3.5,0.3c2.9,0.5,5.6,1.3,8.1-1.6c2.5-2.9,5.4-1,8.2-0.8
		c1.1,0.5,1.8,1.5,2,2.7c0,0.4-0.1,0.8-0.3,1.1c-0.3,0.3-0.6,0.5-1,0.6c-2.6,0.3-5.3-0.1-7.6,2s-3.6,0.1-5.3,0.6
		c-2.1-1.4-4.5-1.5-6.9-1.4C35.7,16,35.4,15.3,34.8,14.7z"/>
	<path class="st218" d="M42.4,18.2c0.3-0.3,0.6-1,0.9-1c4.2-0.2,7.8-3.6,12.3-2.5c0.5,1.3-0.1,2.1-1.2,2.8c-1.1,0.7-3.2,0.4-4.4,2.2
		c-1.2,1.8-3.1,1-4.8,0.6L42.4,18.2z"/>
	<path class="st219" d="M46.6,24.4c0.1-0.8-0.1-1.6-0.7-2.1v-0.7c0.5-0.8,1.5-1.1,2.4-1c1.1,0,1.9-0.2,2.2-1.5s1.9-1.7,3.4-1
		c0.6,0.9,0.9,2.1,0.6,3.2c-1.1,3.2-4,3.6-6.7,4.2C47.2,25.5,46.7,25,46.6,24.4z"/>
	<path class="st220" d="M53.5,18.2c-0.8,0.1-2.2-0.2-2.2,0.5c0.2,4.8-3.4,2.4-5.5,3l-0.7-1.4c1.6-1.4,5.1,0.4,5.4-3.4
		c1.2-0.1,2.4-0.1,3.6-0.1c0.4,0.4,0.5,0.9,0.2,1.4C54.1,18.4,53.7,18.4,53.5,18.2z"/>
	<path class="st221" d="M20.9,29.9c0,0.2,0,0.4,0,0.7l-2.8-1.4c0-0.2,0-0.4,0-0.7l0.4-0.3C19.9,28.1,21,28.2,20.9,29.9z"/>
	<path class="st221" d="M25.8,25.1l3.5,2.1c-2.4,1.2-5.1,1.6-7.8,1.2c-1.1-0.2-2.2-0.6-3.3,0.2h-1.4c0-1.1-1.1-1.4-1.5-2.4
		C18.7,24.9,22.5,26.8,25.8,25.1z"/>
	<path class="st222" d="M111.7,11.2l-1.4,2.1c-1.5,0-2.9-0.6-3.9-1.6c-2.2-2.1-5.6-1.8-7.9,0.7c-0.4,0.6-1,1-1.6,1.3
		c-1.9,0.3-3.8,0.4-5.7,0.5c-1.4,0.1-2.7-0.6-3.4-1.8c0-1.7-0.7-2.6-2.6-2.8C83.3,9.4,82,10,80.7,8.7s0-1.6,0.6-2.3l0,0
		c2.8-1.5,6.2-1.4,8.9,0.2c3.3,1.7,7,1.4,10.5-0.2l0,0c1.1,0.1,2.3,0.1,3.4,0c3.2-0.6,6.6,0.7,8.4,3.5L111.7,11.2z"/>
	<path class="st117" d="M100.6,6.4c-0.7,0.9-1.1,2.4-2.3,2.4s-6,0.7-7.7-0.7s-6.3-1.2-9.4-1.7V4.3C84.6,4.7,88,3.7,91.6,6
		C95.2,8.3,97.6,6.3,100.6,6.4z"/>
	<path class="st117" d="M53.5,8.5l-1.4-2.1h7.3c1.5,0,2.5-0.4,2.4-2.1h6.8c1.5,0,2.7,0.3,2.9,2.1l-0.4,0.5c-2.1,1.4-4.6,0.5-6.8,1.3
		C62.1,9,57.2,11,53.5,8.5z"/>
	<path class="st223" d="M81.2,6.4l-0.7,2.1L80.1,9c-2.8,1.1-5.9,1-8.7-0.2c-0.6-0.7-0.5-1.7,0.1-2.4H81.2z"/>
	<path class="st224" d="M18.2,28.6c1.1-1.9,3-1.3,4.6-1.4H30c0.3,0.6,1.8,0,1.4,1.4C31,30,27.6,27.5,26.5,30h-5.6
		C20.2,29.2,19.3,28.7,18.2,28.6z"/>
	<path class="st225" d="M137.4,92.3c-4-0.4,0.4-2.5-0.7-3.5c-0.1-0.1-0.2-0.3-0.1-0.5l0.2-0.2L138,91L137.4,92.3z"/>
	<path class="st226" d="M132.1,76.3l4.4-0.7c0.5,1.2-1.2,0.6-1.3,1.5c-0.8,0.3-1.4,1.1-1.4,2c-1.4,0.7-1.4-0.7-2-1.2
		c-0.3-0.4-0.4-0.9-0.4-1.4C131.7,76,131.9,76,132.1,76.3z"/>
	<path class="st227" d="M20.3,80.5c-0.6-2,1.4-2.7,2-4.1c0.2-0.4,0.5-0.7,0.9-0.9c4.1-0.4,8.2,0.6,12.3,0.5
		c9.9-0.3,19.8-0.4,29.6-0.4c3.1,0,6.2,0.5,9.2-0.3h4.9c2.5,0.8,5,0.1,7.5,0.3c1-0.1,2-0.1,3,0.1h11.8c2.7,0.2,5.5,0.1,7.6,2.4
		c0.1,0.4,0.1,0.9,0,1.3c-2,2.3-4.7,1.5-7.1,1.4c-4.1-0.2-8.3-0.7-12.3,0.4s-9-0.1-13.5-0.5c-1.6-0.6-3.4-0.7-5-0.2
		c-2.3,0-4.7,0.3-7,0.4c-2.3,0.1-3.1,0.1-4.6,0.4c-1.5,0.3-4.8,0.7-7.3,0.2c-9-0.6-17.9,0.6-26.9,0.2C23.7,81.8,21.7,82.1,20.3,80.5
		z"/>
	<path class="st228" d="M20.3,80.5h28.9c1.2,0,2.5-0.3,3.6,0.6c-1.1,1.3-2.6,1.3-4.1,0.8c-1.5-0.5-5.6,1.5-8.5,1.9
		c-4.8-1.4-9.7-0.3-14.6-0.6c-1.8-0.1-3.7,0.4-5.3-0.7V80.5z"/>
	<path class="st229" d="M22.9,76.4h-0.6c-0.4-1.4-3,1.3-2.7-1.4c-1.5-0.1-1.1,1.3-1.5,2.1l-2.8-2.8v-0.7c0.5-2,2.1-0.9,3.2-1.1
		c1.4,0.2,2.8,0.7,4.1,1.4c0.4,0.3,0.7,0.7,0.8,1.2C23.4,75.6,23.3,76,22.9,76.4z"/>
	<path class="st230" d="M54.9,11.9h-5.1c-1.5,0-3.5-0.4-2.9,2.3c0.2,0.9-0.7,1.1-1.4,1.1c-3.3-0.2-6.9,1.1-9.7-1.8
		c-0.2-0.2-0.6-0.2-1-0.3l-0.7-1.4h9c1.6,0,2.2-0.5,1.4-2.1h9C55.1,9.8,55.2,10.7,54.9,11.9z"/>
	<path class="st231" d="M8.9,69.5c1.6-0.9,3.3-0.8,5-0.8c0.3,0.2,0.5,0.5,0.6,0.8c0.3,1-0.7,1.4-0.8,2.2c-2.6,0.5-5.2,1.4-8,0.6
		l2-2.4C8.2,70,8.7,70.1,8.9,69.5z"/>
	<path class="st232" d="M13.7,71.8c-0.6-0.9,0.4-1.5,0.5-2.3c3.5-0.2,7,0.7,10.5,0c0.7,0.9,0.7,2.2-0.1,3.1c-0.6,0.7-1.5,1-2.4,0.9
		c-1-0.6-2.3-0.5-3.3,0.2h-3.5l-1.4-2L13.7,71.8z"/>
	<path class="st233" d="M136.7,88.1v0.7c-2.9,1.2-5.4-1.4-8.2-0.7v-1.3c0.1-1.2,1.1-1.6,2-1.9c1.6,0.1,3.2,0.1,4.8,0
		c0.7,0.1,1.2,0.6,1.3,1.3L136.7,88.1z"/>
	<path class="st234" d="M136.6,86.2l-1.3-0.8c-1,0.1-1.2-0.6-1.4-1.3c-0.1-0.5,0.1-1.1,0.4-1.5c1.5-0.8,2.6,0.2,3.8,0.9
		s0.2,1.3,0.7,1.8l0,0C138.3,86.4,137.1,85.4,136.6,86.2z"/>
	<path class="st235" d="M138.8,85.4l-0.7-1.4c-0.4-0.4-0.4-1.1,0-1.5c0.8-0.2,1.5-0.4,1.4,0.8L138.8,85.4z"/>
	<path class="st236" d="M139.5,83.3l-1.4-0.7c-0.4-0.8,0.3-1,0.7-1.4h1.4v0.7L139.5,83.3z"/>
	<path class="st237" d="M134.6,84l0.6,1.5c-1.5,1-3.3,1-4.8,0c-0.5-0.9,0.4-1.4,0.5-2.1c0.7-0.8,1.4-1.5,2.3-2.1h0.6
		C134.9,81.9,133.8,83.2,134.6,84z"/>
	<path class="st238" d="M138.8,81.2l-0.7,1.4V84c-1.4,0.2-2.4-0.8-3.5-1.4c-0.4-0.4-0.4-1,0-1.4H138.8z"/>
	<path class="st239" d="M133.2,81.2c-0.2,1.1,0.3,3-2,2.1c-0.4-0.7-0.5-1.5-0.2-2.3c0.2-0.6,0.7-1.1,1.3-1.4c0.3-0.1,0.7,0,0.9,0.2
		V81.2z"/>
	<path class="st33" d="M133.2,79.9h-0.7c-0.8-0.6-0.9-1.8-0.3-2.5c0-0.1,0.1-0.1,0.2-0.2l1.4,1.9L133.2,79.9z"/>
	<path class="st240" d="M134.6,81.2V84c-0.9-0.7-0.6-1.8-0.7-2.7S134.4,80.9,134.6,81.2z"/>
	<path class="st241" d="M27.9,67.4c1.9-1.3,4.4-0.6,6.2-2.1l5.5-0.7c2.3-0.2,4.6-1.4,7,0c0.4,0.9-0.1,1.5-0.7,2
		c-2.3,1.6-5.1,2.1-7.7,2.8H37c-1.5-0.3-3.1-0.4-4.7-0.2C30.5,69.3,28.9,69.2,27.9,67.4z"/>
	<path class="st242" d="M46.6,65.3c-2.2-1.4-4.6-0.4-6.9-0.7c0.9-1.2,2.6-0.2,3.5-1.4c4.2-0.7,8.1-2.5,12.5-2.1l0.3,0.4
		c0.1,0.5,0,1.1-0.3,1.5C52.8,64.7,50.1,66.8,46.6,65.3z"/>
	<path class="st121" d="M56.3,60.4l2.1-0.7c0.4,0.5,0.4,1.1,0,1.6c-0.8,0.6-2,0.5-2.7-0.2l0,0L56.3,60.4z"/>
	<path class="st243" d="M62.5,51.4c2.4,0.6,3.1-1.8,4.2-2.8c4.3-4,14.6-4.3,18.9-0.2c0.7,0.6,1.6,1,2.5,0.9c1,1.3,2.9,1.9,3.1,3.8
		c0.2,1.1,0.7,2.1,1.5,2.9c1.1,1.4,0.2,2.5-0.5,3.6l-0.8,0.5c-1.7,0.1-2.2-1.2-2.9-2.4c-1.1-2.3-2.7-4.3-4.6-6
		c-6.1-4.9-11.9-3.2-16.4,0.9c-0.6,0.5-1.1,1.1-1.6,1.8c-1,1-1.5,2.9-3.6,2.4c-2.1-0.5-0.7-1.3-1.2-1.9S63.3,53.1,62.5,51.4z"/>
	<path class="st244" d="M61.1,54.9l1.4,1.4c2.1,2.1,2,2.6-0.7,5.6l-1,0.2c-0.9,0.2-1.8-0.2-2.4-0.9v-1.4c1.4-0.7,1.4-0.7,0.8-1.9
		C58.6,56.7,61.8,56.7,61.1,54.9z"/>
	<path class="st245" d="M63.9,43.1l-0.7-1.4c1-1.6,1.5-3.8,4-3.9c2.2,1.6,4.2-0.6,6.4-0.5h0.9c1,0.4,2.1,0.2,3-0.4
		c0.9-0.4,2-0.8,2.6-0.2s4,1,6,0.9c1.4,1.2,2.6,2.6,3.6,4.1c-1.5,1.1-2.9,1.8-4.2-0.2s-1.2-1.4-2.3-0.7c-3,0.8-5.8-0.5-8.6-0.8
		c-1.1-0.1-1.9-0.8-2.6,0.5c-0.7,1.3-0.8,0.9-1,0.8C68.3,40,66.4,42.9,63.9,43.1z"/>
	<path class="st246" d="M83.3,41c1.1-0.9,2-0.9,2.8,0.3s2.2,1.3,3.5,0.3c3.5-2,3.4,1.9,5,3c-1.3,1.3-2.8,0.9-4.3,0.4
		c-1.5-0.5,0-2.2-0.9-1.9C86.5,44.4,85.4,41.6,83.3,41z"/>
	<path class="st247" d="M90.2,45.2c1.4-0.2,2.9,0.5,4.2-0.7c0.2-0.2,0.5-0.2,0.7,0c1.7,0.5,0.4,3.4,2.8,3.5c0,0.2,0,0.4,0,0.7
		c-1.6-0.4-4.4,1.3-4.3-2.3c-0.6-0.2-1.3-0.3-1.9-0.4L90.2,45.2z"/>
	<path class="st248" d="M56.3,36.9H57c0.8-1.1,2.3-0.9,3.2-1.8l1.5-1.4c4.2-1.4,6.1-0.9,7.9,2c-0.2,1.1-1.1,1.5-2,1.7
		c-0.9,0.2-3.5-0.4-4.9,1.3c-0.5,0.7-1.5,0.9-2.2,0.3c-0.1,0-0.1-0.1-0.2-0.1C59.2,38,57.1,38.7,56.3,36.9z"/>
	<path class="st249" d="M45.9,41c-1.5-0.2-2.9-1-3.9-2.2c1.8-1,3.6-0.4,5.3-0.6l2.1,1.4L45.9,41z"/>
	<path class="st250" d="M60.4,39c0.8,0,1.5-0.4,2-1.1c1.3-2.1,3-2,4.9-1c0.2,0.3,0.2,0.6,0,0.9c-1.1,0.2-2.1,0.9-2.7,1.9
		c-0.3,0.9-1.3,1.3-2.2,1c-0.2-0.1-0.4-0.2-0.6-0.4L60.4,39z"/>
	<path class="st251" d="M61.8,40.3c2.4,0.2,3-3.2,5.5-2.8l0.2,0.3l-0.2,0.3c-2.2,0.2-1.8,3.4-4.2,3.5L61.8,41V40.3z"/>
	<path class="st249" d="M45.2,43.1l1.4-1.4c4.2,2-0.2,2.4-0.7,3.5L45.2,43.1z"/>
	<path class="st252" d="M90.3,53.5c0.5-2-3.1-1.9-2.1-4.2V48c1.9-0.6,1.3,1.5,2.1,2.1c0.8,0.6,2.7,0.2,2.8,2.1l0,0
		c0.4,0.4,0.4,1.1,0,1.6c0,0,0,0-0.1,0C92.1,54.4,91,54.2,90.3,53.5z"/>
	<path class="st253" d="M93,52.1L90.3,50h1.4C93.2,50,93.9,50.5,93,52.1z"/>
	<path class="st83" d="M64.6,48l-2.1,2C61.8,48,63.1,47.9,64.6,48z"/>
	<path class="st254" d="M127,90.2l0.7-0.7c1.7,0.1,3.3,0.7,4.7,1.7C130.5,91.1,128.4,92.9,127,90.2z"/>
	<path class="st255" d="M111.7,82.6c-0.9-0.8-0.6-1.8-0.7-2.8c-0.2-0.3-0.2-0.6,0.1-0.8c0,0,0.1,0,0.1-0.1c0.4-0.1,0.7-0.1,1.1,0
		c1.9,0.9,4,0.4,6,0.6c2,0.2,2.9-0.3,3.1,1.7c-1.4,2.7-3.9,1.5-5.7,1.2C114.4,82.1,113,82.2,111.7,82.6z"/>
	<path class="st256" d="M121.4,81.2c-2.1-1.4-4.4-0.4-6.7-0.7c-2.3-0.3-2.6,0.4-3.1-1.4c4.1-1.6,8.7-1.6,12.8,0
		c1.4,1.6-0.1,2.1-1,2.8l0,0L121.4,81.2z"/>
	<path class="st257" d="M125.6,82.6l-0.7-0.7c-0.5-0.8,0.5-1.4,0.4-2.2c0.1-0.7,0.5-1.2,1.1-1.5c1.5-0.1,3,0.3,4.2,1.2
		c0.5,0.4,0.8,1,0.8,1.7c0.1,0.7-0.3,1.3-0.9,1.5H125.6z"/>
	<path class="st258" d="M130.4,82.6l0.7-1.4c0-0.2,0.1-0.3,0.3-0.3c0.2,0,0.3,0.1,0.3,0.3l-0.5,2l-0.8,2.1l-2,1.4
		c-0.8,0-1.4-0.6-1.4-1.4l0,0C128.6,85,130.2,84.7,130.4,82.6z"/>
	<path class="st259" d="M125.6,79.8l-0.7,2.1h-1.4l1.4-2.1C125.1,79.6,125.4,79.6,125.6,79.8z"/>
	<path class="st260" d="M89.6,80.4c5-1.1,10.1-0.2,15.1-0.5c1.5-0.1,3,0.5,4.3-0.8c1.3-1.3,1.1,0.6,0.8,1.4
		c-0.2,1.2-0.1,2.5,0.4,3.6l-6.8-1.4c-3.1,0.5-6-0.7-9.1-0.4C91.2,82.6,90.5,82.5,89.6,80.4z"/>
	<path class="st71" d="M109.8,80.5l-0.8-1.4v-0.8c-0.2-0.2-0.3-0.5-0.3-0.8c0.1-0.3,0.3-0.5,0.5-0.7c0.4-0.2,0.9-0.2,1.3,0
		c0.3,0.2,0.5,0.4,0.6,0.7c0.2,0.5,0.3,1.1,0.1,1.7c0,0.2,0,0.4,0,0.7L109.8,80.5z"/>
	<path class="st261" d="M96.5,36.1h-0.7c-2,0.1-3.9,1-6,0.4c-0.3-0.2-0.5-0.5-0.6-0.8c0.8-1.9-1-2.2-2-3.1c-0.3-0.8-0.1-1.8,0.4-2.5
		c0.3-0.4,0.7-0.8,1.2-1c2-0.7,3.8-0.6,5,1.5s2.7,1.2,3.5,2.5C98.1,34.4,97,35.3,96.5,36.1z"/>
	<path class="st262" d="M89.6,36.2c2.1-0.4,4.2-1.5,6.3,0l-1.4,1.4l-1.4,0.7c-0.9,0.6-1.9,0.7-2.9,0.4C88.9,38.1,88,37.4,89.6,36.2z
		"/>
	<path class="st263" d="M96.5,36.1l0.7-2.7c0.8-2,2-2.4,3.5-0.7c0,0.2,0,0.4,0,0.7C98.9,33.9,98.3,35.9,96.5,36.1z"/>
	<path class="st264" d="M95.1,44.5h-0.7c-2.1,0-2.2-3.7-4.9-2.8s-2.7-1.9-3.5-3.5c0.5-0.5,1.4-0.4,1.8,0.1c0.1,0.1,0.1,0.2,0.2,0.3
		c0.7,1.2,1.7,0.9,2.7,0.6c0.3,0,0.6,0.2,0.8,0.4c2.3,0.2,2,4.1,4.9,3.5L95.1,44.5z"/>
	<path class="st265" d="M91.6,39.6h-0.7c-1,0.7-2.1,0.6-2.6-0.3s-2-1.3-2.9-2c-0.9-0.7-0.2-2.3,0.8-3.2c0.3-0.2,0.6-0.3,1-0.3
		c1.1,0,2.1,0.7,2.3,1.8v0.7c-0.2,2.9,2.1,1.7,3.5,2.1L91.6,39.6z"/>
	<path class="st266" d="M100.7,32.7c-1.2-0.5-2.6-0.2-3.5,0.7c-1.7-0.6-4.1,0.4-4.6-2.8c-0.2-1.4-2.4-0.5-3.7-0.7s0.2-2.4,1.3-3.3
		s4.4-0.9,5.9,1.6c1.5,2.5,2.5,1.1,3.9,0.6c1.4-0.5,2.2-1.7,3.7-1.3c1.5,0.4,4.2-1,5.3,1.7l0,0c-1,1-3.9,1.6-0.7,3.4
		C105.7,33.3,103.2,32.8,100.7,32.7z"/>
	<path class="st267" d="M48.8,82l4.1-0.8l6.9-0.7c1.3-0.8,2.9,0.1,4.2-0.6h7.6c0.1-0.2,0.5-0.3,0.7-0.2c0.1,0.1,0.2,0.2,0.2,0.3
		c0.2,1.1-1,1.3-1.5,2.1h14.1c1.6,0,3.3-0.2,4.5,1.3c-1.5,1.5-3.5,2.2-5.6,2H70.1c-2.2,0-4.9,1-6.1-2.3c-0.3-0.9-1.9-0.4-2.9-0.5
		C57,82.3,52.8,83.4,48.8,82z"/>
	<path class="st268" d="M89.5,83.3H66.8c1.5-2.8,3.9-2.3,5.4-3.4c1.1-0.6,2.4-0.6,3.5-0.1c4.6-0.1,9.2,0.1,13.8,0.6
		c1.5,0.7,3.2,1,4.8,0.9c-0.5,2.2-2.2,1.1-3.4,1.3L89.5,83.3z"/>
	<path class="st269" d="M90.9,82.6l3.4-1.3c3.1-0.3,6,0.9,9,1.4C99.2,83.7,95,83.7,90.9,82.6z"/>
	<path class="st270" d="M91.6,59.8v-0.7c0.7-0.4,1.6-0.4,2.3-0.1c0.7,0.4,1.3,0.9,1.8,1.5h0.7l1.4,2.1c-0.9,0.5-1.7,1.1-2.2,2
		L94.8,65c-1.2,0.1-2.2-0.5-3.2-0.9c-0.8-0.3-1.5-0.9-1.8-1.7C89.3,60.8,90.2,60,91.6,59.8z"/>
	<path class="st271" d="M95.1,64.6c-0.1-2.1,1.3-2.1,2.8-2.1l0.7,0.7c-2.2,0.4-0.5,1.8-0.7,2.8C97.7,67,95.6,66,95.1,64.6z"/>
	<path class="st272" d="M95.1,64.6l2.8,1.4l6.9,2.8l5.6,2.8V73c0.1,0.5,0.1,1.1-0.1,1.6c-0.3,0.6-0.5,1.2-0.6,1.9l-0.4,0.7h-0.2
		c-2.2,1.4-4.1-1.5-6.2-0.3l-0.9-0.2c-1.2-0.4-2.3-0.8-1.8-2.4c0.5-1.6,1.6-0.6,2.3-1.1c0.7-0.5-1.3-0.9-1.9-1.3s-4.1-2.3-5.6-4.1
		c-0.2-0.3-0.3-0.6-0.4-1c-0.1-0.7,0.2-1.4,0.8-1.9L95.1,64.6z"/>
	<path class="st195" d="M111.7,74.3c6.3-0.5,12.5,0.7,18.7,0.7l0,0c0.2,0.4,0,0.9-0.3,1.1c-6.1,0.8-12.2,1.5-18.2-0.7
		C111.6,75.1,111.5,74.7,111.7,74.3z"/>
	<path class="st273" d="M111.7,74.3c0,0.2,0,0.4,0,0.7c0.2,0.2,0.4,0.6,0.4,0.9c-0.3,0.9-0.7,1.6-1.8,1.2H109v-0.7
		c0.5-0.6-0.1-1.6,0.6-2.1c0.7-0.5,0-1.2,0.7-1.4L111.7,74.3z"/>
	<path class="st274" d="M110.3,77.1l1.4-1.4c5,0.6,10.1,0.8,15.1,0.7c1.2,0,2.6,0.3,3.6-0.7c1-1,0-0.5,0-0.7l1.3-2l0.4,3.3l-0.4,0.2
		c-0.3,1.2,1.5,3.1-1.3,3.4c-1.5,0.2-3.1-0.4-4.2-1.4c-1.3,1.2-2.9,0.5-4.2,0.3c-3.9-0.7-7.9,0.5-11.7-1
		C110.3,77.5,110.3,77.3,110.3,77.1z"/>
	<path class="st275" d="M51.4,36.2h-7.6c-0.6-1.1-3.2,0-2.7-2.4c4.1-0.2,7.1-4.8,11.7-3.2c1,0.7,2.3,1.2,2.2,2.8
		c-0.5,0.8-1.4,1.2-2.3,1C50.3,33.6,51.8,35.6,51.4,36.2z"/>
	<path class="st276" d="M41,34.1c0.8,0.9,2.3,0.7,2.8,2.1h-9.7c0.1-1.6,1.2-3,2.7-3.5C38.8,31.5,40.2,32.1,41,34.1z"/>
	<path class="st277" d="M51.4,36.2l-1.9-2.8h5.4c1.7,0.3,4.3-0.5,3,2.9c-0.3,0.2-0.7,0.1-0.9-0.1L51.4,36.2z"/>
	<path class="st164" d="M57,36.2h0.7c1.2-0.6,2.3-1.2,3.5,0c-1.2,1.2-2.8,0.5-4.2,0.7S57,36.4,57,36.2z"/>
	<path class="st253" d="M93,53.5v-1.4l2.8,0.7c0.3,0.8,2.3,0.5,1.3,2.4c-1,1.9,1.8,0.7,2.1,1.8h-1.3c-1,1.1-2.1,0.6-3.2,0.2L94,56.6
		c-0.5-0.8-0.8-1.7-0.8-2.6L93,53.5z"/>
	<path class="st278" d="M94.4,56.3l3.5,0.7c0.4,1,0,1.4-1,1.4c-1,0-1.1,1.2-1.1,2.1l-2.1-0.7C92.7,58.3,93.9,57.4,94.4,56.3z"/>
	<path class="st279" d="M31.3,28.6l-1.4-1.4h7.2c2,0.1,3.7,0.1,1.5-2.8h8l0.7,0.7c1,0.4,1.9,0.9,1.5,2.3c-1.1,1.5-3,2.2-4.8,1.8
		c-2-0.4-3.9,0.7-4.7,2.5c-0.8,0.4-1.5,1-2.4,0.3l-2.1-1.4L31.3,28.6z"/>
	<path class="st280" d="M36.9,32l2-0.7c3.5-1.3,6.9-2.7,10.7-2.8c1.5,0,3,0.5,3.4,2.3l-0.2,0.5h-3.4c-0.4,0-1.3,0.1-1.3,0.2
		c-0.8,5.2-4.9,1.4-7.1,2.6c-1.3-0.6-2.6-1.5-4.2-1.4C36.9,32.5,36.9,32.3,36.9,32z"/>
	<path class="st281" d="M113.8,26.5l-1.2,0.4c-1-3.6-4-2.2-6.3-2.5v-0.6c0.2-0.8,0.9-1.4,1.7-1.6c2.2,0.1,4.3,0,6.5,0.2
		c2.2,0.2,2.3,0.7,0.9,2.1L113.8,26.5z"/>
	<path class="st282" d="M115.2,24.5c0.5-1.4-0.5-1.5-1.5-1.5h-6.2c-0.3-0.9,0.3-1.1,0.9-1.4h0.5c1.9,0,3.8,0.1,5.7,0
		s2.5,0.5,2.6,2.1C116.7,24.2,115.9,24.5,115.2,24.5z"/>
	<path class="st283" d="M106.2,24.4l-2.1,2.8c-0.3,0.3-0.6,0.4-1,0.4c-2.8,1-5.5,1.5-7.7-1.2c-0.9-1.1-2.9-0.6-3.9-1.9
		c-1-1.3,0.2-2.6,1.4-3.4c1.2-0.8,5.2-1,7.3,1.2C102.3,24.5,104.7,22.5,106.2,24.4L106.2,24.4z"/>
	<path class="st211" d="M103.4,27.2h0.7c1.6-0.1,3.1-0.1,4.7,0.1c2.1,0.3,1.3,1.2,0.2,2c-1.6-1.5-4,0.2-5.5-1.4s-0.3-0.3-0.2-0.5
		L103.4,27.2z"/>
	<path class="st230" d="M97.9,11.9c1.8-3.4,7.6-4.2,9.3-1c0.8,1.5,3.2,0.3,3.1,2.4v2.1l-0.7,0.7c-2.3,0.6-4.5,0.9-5.7-2
		c-0.4-1-1.5-0.8-2.4-1C100.6,12.9,98.8,13.2,97.9,11.9z"/>
	<path class="st284" d="M109.7,17.5l1.4,1.4v0.7c-0.9,0.4-1.7,1.2-2.1,2.1l0,0c-3.4,1.3-6.6,2.4-9.3-1.5c-1-1.5-3.6-0.3-5.1-1.5
		c-0.5-0.6-0.7-1.4-0.3-2.1c0.3-0.7,0.8-1.3,1.5-1.7c1.5-0.7,3.2-0.3,4.7-0.7C103.3,15.7,106.2,17.3,109.7,17.5z"/>
	<path class="st285" d="M109.7,17.5c-0.5,0-1-0.1-1.3,0.2c-2.6,1.7-4.6,1.1-6.1-1.6c-0.3-0.5-1-0.9-1.6-1.3c-0.6-0.4-2.3-0.3-3.3-1
		l-0.2-0.4l0.7-1.4c1.7,0,3.4-0.1,5.1,0c1.7,0.1,3.8-0.9,2.3,2.2c-0.4,0.9,0.5,1.1,1.2,1.2c0.7,0.1,2.3-0.3,3.2,0.7L109.7,17.5z"/>
	<path class="st213" d="M54.9,11.9l-1.4-2.1V8.5c1.2,0,2.5-0.1,3.7,0c1.2,0.1,4.8-0.2,6.7-2.1c0.6,1.1,0.5,2.5-0.2,3.6
		c-0.4,0.5-0.9,1-1.5,1.4c0.1,0.4-1.5,0.6-0.2,0.8c2.4,0.3,4.8,0.3,7.2-0.1c1.1-0.1,2.3,0,3.4,0.2c1.8,0.3,3.8-0.6,5.3,1
		c-1.1,2.9-3.5,1.9-5.6,1.9c-2.4,0.3-4.7,0.3-7.1,0c-3,0-6.2,1.1-8.9-1.2L54.9,11.9z"/>
	<path class="st286" d="M27.9,67.4c3.1,1.5,6.6-0.2,9.7,1.4c-2.6,3.2-6.7,3.1-10.1,4.5c-1.3,0.5-2.5,0.8-3.7-0.1
		c-0.3-0.2-0.4-0.6-0.2-0.8c0-0.1,0.1-0.1,0.2-0.2c1.5-0.7,0.4-1.8,0.4-2.8C24,69.3,24,69,24.1,68.8c0-0.1,0.1-0.1,0.2-0.1
		C25.3,67.8,26.6,67.7,27.9,67.4z"/>
	<path class="st287" d="M24.4,68.8v0.7c-2.5,1.9-7.6,1.9-10.1,0l-0.2-0.7c0.5-0.8,0.9-1.5,2-1.4s4.2,0.2,6.2,0.1L24.4,68.8z"/>
	<path class="st288" d="M22.2,67.4c-2.1,3.1-4.2,0.1-6.2-0.1C18.1,65.9,20.2,65,22.2,67.4z"/>
	<path class="st210" d="M56.3,14h9c1.3,2.2,0.4,3.5-1.9,3.7c-2,0.3-4.1,0.2-6.1-0.2c-1.1-0.7-1.7-1.5-1-2.8L56.3,14z"/>
	<path class="st289" d="M56.3,14.7l0.7,2.1c0.9,0.6,2.1,1.1,1.6,2.6c-0.2,0.3-0.5,0.6-0.8,0.8c-1.8,0.4-3.8,1.1-3.6-2v-1.4l1.4-2.1
		L56.3,14.7z"/>
	<path class="st290" d="M48.7,27.2l-1.4-2.1c1.7-1.8,4.7-1.3,6.2-3.5s3.9-1.1,6-0.6c0.9,0.5,1.3,1.5,1.2,2.5
		C59.2,25,57,25.6,56.1,28s-3.1,0.8-4.7,0.8C49.8,28.8,49.1,28.4,48.7,27.2z"/>
	<path class="st291" d="M59.7,21.6h-6.2v-3.4h0.7c0.8,2.3,2.7,1,4.2,1.4h0.5c0.6,0.3,1,0.8,1.1,1.5L59.7,21.6z"/>
	<path class="st292" d="M72.2,14c1.8-0.3,3.8,0.6,5.5-0.7c-0.2-0.2-0.3-0.6-0.1-0.8c0,0,0,0,0.1-0.1c2-0.7,4-1.5,5.9-2.4
		c1.9-0.2,3.6,0.1,4.6,2c1.1,1.3,2.9,1.7,4.4,1c1.6-0.6,3.3-0.4,4.7,0.4l0,0c0.6,1.4-0.8,1.5-1.4,2.1l-0.7,1.4c-3,1.8-5.9,2-8.7-0.7
		s-4.3-0.9-6.8,1.4s-5.1,1.1-7.5-0.4C71.3,16.3,71.3,14.9,72.2,14z"/>
	<path class="st293" d="M88.2,11.9l-4.9-1.4c-0.8,0.7-2,0.8-2.9,0.2C79.8,10,79.9,9,80.5,8.4H86C88.7,8.4,89.7,9.4,88.2,11.9z"/>
	<path class="st214" d="M63.2,9.8c-0.1-1.2,0.1-2.4,0.7-3.4h7.6v2.1c0.4,0.4,0.4,1.1,0,1.6c0,0,0,0-0.1,0
		C68.7,10.7,65.9,11.9,63.2,9.8z"/>
	<path class="st294" d="M71.6,9.8V8.5h9v2.1c-0.7,1.4-2.3,0.9-3.3,1.7c-0.8,0.2-1.6,0.1-2.3-0.3c-1-0.6-2.2-1-3.2-1.8L71.6,9.8z"/>
	<path class="st169" d="M130.4,79.8c1.5-0.7,0.5-2.4,1.3-3.4l0.7,0.7v2.7l-0.8,1.4H131L130.4,79.8z"/>
	<path class="st295" d="M22.9,76.4v-1.3c0.4-0.5,0-1.4,0.7-1.7c1,0,2-0.1,3-0.3h1c1.7,0.3,3.5-0.1,5.3,0.4c2.9,0.7,5.8,0.7,8.7,0.1
		l5.5-1c3,0.3,5.7-1.6,8.7-1.5c1.1,0.2,2.1,0.2,3.2,0.1c1.9-0.5,3.7,0.3,5.5,0.8c0.9,0.4,1.8,0.7,2.8,0.9c1.2,0.5,2.5,0.9,3.8,1.1
		c1,0.1,2,0.4,2.9,0.8c0.7,0.2,1.2,0.8,1.3,1.5c-16.1,1.8-32.3,0.4-48.4,0.8C25.5,77.1,24.4,75.5,22.9,76.4z"/>
	<path class="st296" d="M86.8,77c-2.6,0.1-5.1,0.4-7.6-0.5c0.5-0.7,1.4-1.1,1.2-2.2c1.1-3.4,1.9-3.8,4.9-2.2
		C86.2,73.5,87.5,74.9,86.8,77z"/>
	<path class="st297" d="M86.8,77l-2.1-4.1c0.2-1,1-1.8,2-1.9l1,0.2c1.6,1.1,2.7,2.8,2.9,4.8c-0.1,0.6-0.6,0.7-1,0.9L86.8,77z"/>
	<path class="st298" d="M81.2,75c0.5,2.3-1.4,1-2.1,1.4h-0.7c-1.3-1.2-3.4-0.7-4.6-2.1s-0.4-2.8,1.1-3.5c1.5-0.7,2.6,0.1,3.6,1.2
		C79.3,73.1,80.2,74.1,81.2,75z"/>
	<path class="st299" d="M102,76.4c2.4-1.6,4.5,0.7,6.8,0.7v1.3l-6.8-1.5C101.9,76.8,101.8,76.6,102,76.4L102,76.4z"/>
	<path class="st300" d="M102,76.4c0,0.2,0,0.4,0,0.5H89.6l0.7-0.6c0.4-0.5,0.9-0.8,1.5-1c1.4-0.4,2.9,0.2,4.2-0.3
		S100.1,75.6,102,76.4L102,76.4z"/>
	<path class="st301" d="M74.3,74.3c1.8-0.1,3.5-0.1,4.1,2h-3.2l-1.6-0.7C73.4,74.9,73.7,74.5,74.3,74.3z"/>
	<path class="st189" d="M75.7,79.8h-4.2C72.8,78.9,74.4,78.9,75.7,79.8z"/>
	<path class="st189" d="M63.9,79.9c-1.3,1.1-2.8,0.5-4.2,0.6C61,79.5,62.5,80,63.9,79.9z"/>
	<path class="st302" d="M18.8,73.6c0.8-0.8,1.4-2.4,2.8-0.7c1.4,1.7,1.1,0.6,0.7,1.4S20.1,73.1,18.8,73.6z"/>
	<path class="st303" d="M22.3,74.3l-0.7-1.4l2.2-0.7c-0.1,0.2-0.1,0.5,0.1,0.7c0.2,0.1,0.3,0.3,0.2,0.4l-0.2,0.2
		c0,0.6-0.3,1.2-0.8,1.5L22.3,74.3z"/>
	<path class="st304" d="M27.2,72.2l10.4-3.5h0.7c2.2,0.1,4.5-0.5,6.3,1.3c-1.3,4-4.9,3.4-7.9,4.2c-3.2-0.5-6.4-0.7-9.6-0.6l0,0
		C26.8,73.2,26.8,72.6,27.2,72.2z"/>
	<path class="st121" d="M46.6,65.3l9-2.8c0.4-0.4,0.9-0.6,1.4-0.5c0.7,0.1,1.2,0.8,1.2,1.5c0,0.4-0.1,0.7-0.3,1
		c-2.4,2.6-5.8,4.1-9.3,4.2c-1.4-0.6-3.4-0.4-3.4-2.8L46.6,65.3z"/>
	<path class="st305" d="M45.2,66c0.8,1.2,2.5,1,3.5,2.1c0.2,0.3,0.3,0.7,0.1,1c-1.2,1.4-2.5,2.2-4.3,1.1s-4.4,0.1-6.2-1.4
		C40.3,67.3,43,67.2,45.2,66z"/>
	<path class="st306" d="M57,62.5h-1.4v-1.4h5.5c-0.1,2,1.5,3.5,1.7,5.4c-0.2,0.8-0.7,1.6-1.3,2.2c-1.1,0.7-1.9,2.3-3.6,1.2
		s-0.6-2-0.7-3c-0.2-1,0-2.1,0.4-3.1l0,0C58.2,62.5,58.2,62.5,57,62.5z"/>
	<path class="st307" d="M91.6,59.8c-0.8,0.8-1.6,1.5-1.4,2.8c0.2,1.3-2.1,0.1-2.9-0.7c-0.2-0.3-0.3-0.6-0.4-0.9
		c-0.4-0.7,2.2-1.8-0.3-2.1c-1.9-1.9-2-4.9-4.4-6.5c-4.2-2.9-8.8-2.8-13.1,0.4c-0.7,0.8-1.6,1.4-2.5,1.9c-0.5,0.1-1,0-1.4-0.4
		c2.8-5.8,10.8-8.2,15.6-5.7c4.8,2.5,7.9,5,9.1,10.1C90.1,59.1,91.1,59.4,91.6,59.8z"/>
	<path class="st308" d="M65.3,54.2h1.4c1.2,3.1-0.1,5.5-2.3,7.6c-0.8,0.6-1.6,1.3-2.8,0.7c-0.2-0.5-0.2-1,0.2-1.4
		c0.1-1.6,2.3-3,0.7-4.9C64.3,56.7,63.8,54.2,65.3,54.2z"/>
	<path class="st309" d="M94.4,56.3c0.9,1.4-0.8,2.2-0.7,3.5l-2.1-0.7c-0.1-1,1.5-1.6,0.7-2.8l0.3-0.3C93.2,55.8,93.8,55.9,94.4,56.3
		L94.4,56.3z"/>
	<path class="st309" d="M90.3,53.5H93c0.9,1.2-0.1,1.9-0.7,2.8l0,0C90.3,56.4,90.8,54.6,90.3,53.5z"/>
	<path class="st310" d="M61.8,61.2v1.4c1.8,1,3.1,2.1,1.2,4.2h-0.5c-0.1-1.2-1.2-2.1-2.4-2c-0.2,0-0.5,0.1-0.7,0.2
		c0-1.8,1.9-2.4,1.7-3.9L61.8,61.2z"/>
	<path class="st311" d="M85.4,36.9c2.1,0.4,3.3,2.6,5.5,2.8c-1.2,1.8-2.4,1.9-3.4-0.2c-0.2-0.6-0.7-1.1-1.4-1.2c-2,1-4,1.8-5.9-0.4
		c-0.6-0.7-1.7-0.4-2.4,0.4c-1.1,0.5-2.4,0.5-3.5,0l0,0c-0.6-0.6-0.6-1.5-0.2-2.2c0.9-1,2.1-0.9,3.2-1.1c2.7-0.2,5.1,1,7.6,1.7
		L85.4,36.9z"/>
	<path class="st251" d="M74.3,36.2v2.1c-1-0.1-2,0.2-2.9,0.7c-1.5,1.1-3,1-4.1-0.7l0,0c0.7-1.1,2.4-0.8,3.1-2c0.7-1,2-1.5,3.2-1.3
		C74.1,35.2,74.5,35.5,74.3,36.2z"/>
	<path class="st251" d="M74.3,38.3h3.5c-0.9,1-2.4,1-3.4,0.1C74.4,38.4,74.3,38.3,74.3,38.3z"/>
	<path class="st312" d="M69.5,36.2c-2.2-2.6-4.8-2.6-7.6-1.4c-2.3-0.3-3-2-3.3-4c1.3-2.8,3.3-2.2,5.4-1.2c2.1,1,3.4,3.9,5.6,0.1
		c0.7-1.3,2.6-1.1,4.1-0.4l0.7,0.7c0.4,1.4,2.1,2.3,1.5,4.1c-0.4,0.3-0.9,0.5-1.4,0.5c-2-1.1-3.1,0.1-4.1,1.6
		C70.1,36.4,69.8,36.4,69.5,36.2z"/>
	<path class="st313" d="M59.1,31.4c1.2,0.9,2.2,2.1,2.8,3.5l-0.7,1.4h-3.5c0.5-2.3-2.4-1.3-2.8-2.7l-2.1-2.1l0,0
		c1.1-1.4,2.6-1.1,4-1C57.7,30.5,58.5,30.8,59.1,31.4z"/>
	<path class="st314" d="M69.5,36.2h0.7c0.6-0.2,0.9,0,0.7,0.7c-0.2,0.7-2.2,1.2-3.5,1.4v-1.4L69.5,36.2z"/>
	<path class="st315" d="M110.4,77.8c5.3-0.5,10.6,0.8,15.9,0.7l-0.7,1.4h-0.7c-4.3-1.3-8.8-0.5-13.2-0.7H111L110.4,77.8z"/>
	<path class="st279" d="M90.3,27.2L88.9,30l-0.7,0.7c-2.2,1.6-4.3,1.6-5.7-0.9s-2.7-1.1-3.5-2.5c-0.6-0.8-0.7-2-0.1-2.9
		c1.8-1.7,4.6-1.7,6.4,0.1c0,0,0.1,0.1,0.1,0.1c1.4,1.3,3.3,0.9,4.6,2.1L90.3,27.2z"/>
	<path class="st316" d="M79.2,27.2c2-0.1,3.6-0.1,4.4,2.5c0.8,2.6,3,0.7,4.6,1l-0.7,2.1c0.4,0.8-0.1,1.1-0.7,1.4l0,0
		c-1.4,0.6-3.1,0.3-4.2-0.7L82,32.8c-0.3-1.2-1.4-1.6-2.3-2l-0.8-0.6c-0.4-0.5-0.6-1.2-0.5-1.8c0.1-0.3,0.2-0.6,0.4-0.9L79.2,27.2z"
		/>
	<path class="st317" d="M86.8,34.1l0.7-1.4h1.4c0.9,0.1,2.1-0.4,2.4,0.8c0.3,1.2-0.9,1.5-1.7,2L86.8,34.1z"/>
	<path class="st318" d="M82.6,32.7l4.2,1.4l-1.4,2.8l0,0c-1.5,0-3.1,0.3-3.9-1.4c-0.5-0.9-0.2-2.1,0.7-2.6
		C82.3,32.8,82.4,32.8,82.6,32.7z"/>
	<path class="st319" d="M103.4,27.2v0.7c-1.8,1.1-3,3.3-5.5,2.8c-2.5-0.5-3.3,0.7-3.3-2.4s-2.8-0.6-4.3-1.1l0,0
		c-0.5-0.9-0.2-2.1,0.7-2.6c0.1,0,0.1-0.1,0.2-0.1h0.5c2.2,0.2,4.8-1.1,5.9,2.5C97.8,27.5,101.4,27.1,103.4,27.2z"/>
	<path class="st320" d="M87.5,61.1c0.9,0.4,1.6,1.4,2.8,1.4l2.1,0.7c0.5,0.4,0.6,1.1,0.2,1.5c-0.1,0.1-0.2,0.2-0.3,0.3
		c-1.5,1-0.4,2-0.1,3c0.2,3.4-3.2,2.1-4.6,3.5h-0.7c-2.2-1-2.7-2.7-1.4-4.7c0.9-1,1.1-2.5,0.6-3.7C85.5,61.9,86.1,61.2,87.5,61.1z"
		/>
	<path class="st321" d="M91.6,68.1c-4.3-2.3,0.3-3.3,0.7-4.9l2.8,1.4v2.1c-0.8,1-2.2,0.5-3.1,1.3L91.6,68.1z"/>
	<path class="st322" d="M87.5,71.5c0.1-1.4,0.1-2.9,2.2-2c2.1,0.9,1.8-0.3,1.9-1.4l0,0c1.5-0.7,2.2,0.8,3.2,1.3L97,71
		c0.9,1.2,2.6,1.6,2.9,3.3l2.1,2.1h-6.2c-1.4-0.3-2.8-2.3-4.2,0.1h-1.4L87.5,71.5z"/>
	<path class="st323" d="M100,74.3c-1.4-0.7-2.8-1.3-3.5-2.8c1.2-1.5,2.7-1.2,4.2-0.7c1.8,0.6,3.4,1.5,4.8,2.8
		C103.4,74.7,101.7,74.1,100,74.3z"/>
	<path class="st324" d="M100.6,70.8l-4.2,0.7l-2.1-1.4C93.8,69,93,67.8,95,67.3C97.1,68.1,99,69.3,100.6,70.8z"/>
	<path class="st325" d="M95.1,67.4c-0.9,0.8-0.6,1.8-0.7,2.8l-2.8-2.1c0-3.3,2.1-1.4,3.5-1.4V67.4z"/>
	<path class="st299" d="M109.6,74.3c0.1,0.8,0.3,1.6-0.6,2.1C108.1,76.9,108,74.6,109.6,74.3z"/>
	<path class="st155" d="M130.4,75.7c-0.2,0.7-0.6,1.3-1.4,1.3c-5.8,0.1-11.7,0.6-17.4-1.3c0-0.2,0-0.4,0-0.7
		C117.9,76.1,124.2,75.6,130.4,75.7z"/>
	<path class="st326" d="M92.3,56.3l0.7-2.8c3-0.3,0.3,2.2,1.4,2.8H92.3z"/>
	<path class="st327" d="M57,31.3h-4.2c-2.3-2.2-5.4-2.2-8.3-0.4c-2.9,1.8-3.7,0.2-5.6,0.4c0.1-2.5,1.5-3.8,3.8-3.4s4-0.2,6-0.8
		l2.8,0.7c1.8,1,4.5-0.7,5.9,1.9C57.6,30.3,57.4,30.9,57,31.3z"/>
	<path class="st17" d="M94.4,18.2h4.4c1.4,0,3.1-0.5,2.4,2.2c-0.3,1.2,1,1.2,1.9,1.3h5.9l-1.4,1.3l-1.4,1.4h-4.8
		c-1.1,0-2.6,0.5-2.5-1.7s-1.3-1-2.1-1H93l-0.3-0.3c-0.3-0.7-0.2-1.6,0.3-2.2C93.3,18.7,93.8,18.3,94.4,18.2z"/>
	<path class="st17" d="M93,21.6c-0.4,0.9-1.4,1.6-1.4,2.8l0,0c-2.4,1.7-4.8,1.5-6.7-0.7s-3.9-1.2-5.3-2.8c-0.6-0.9-0.6-2,0-2.9
		c3.8-1.6,5.3-1.3,7.6,1.6c0.6,0.7,1.5,1.1,2.4,1C90.9,20.6,92.1,20.6,93,21.6L93,21.6z"/>
	<path class="st328" d="M94.4,18.2l-0.7,1.4c-3.6,1.7-4.9,1.5-7.4-1.2c-2.5-2.7-3.7-0.5-5.5-1c-0.4-0.1-0.7-0.3-1-0.6
		c0.3-1.4,0.7-2.9,2.5-2.7c1.8,0.2,4.1-1.2,5.1,1.4c1,2.6,2.5,1.2,3.9,1.3c1.4,0.1,2.5,0,3.8,0L94.4,18.2z"/>
	<path class="st329" d="M95.8,15.4l1.4-2.1c1.4-0.2,2.4,0.7,3.5,1.4C99.2,15.9,97.4,15.2,95.8,15.4z"/>
	<path class="st330" d="M72.2,14v2.8c-4.5,1.5-9,3.2-13.9,2.1L57,16.8c1.8,0,3.7-0.1,5.5,0c1.8,0.1,3-0.7,2.8-2.8L72.2,14z"/>
	<path class="st331" d="M63.2,9.8c2.8,0.4,5.6-1.2,8.3,0l0,0c1,0.6,1.9,1.2,1.7,2.5s-0.7,0.6-1,0.9h-3.4c-1.3-0.7-2.7-0.5-4-0.7
		c-1.3-0.2-2.9,0-2.9-2L63.2,9.8z"/>
	<path class="st332" d="M61.8,10.5c1.9,1.9,5.1,0.7,7,2.8H57.9C59.1,11.5,60.7,11.3,61.8,10.5z"/>
	<path class="st333" d="M72.2,13.3l0.7-0.7c0.5-0.7,1-1.5,2.1-1.4l2.1,0.7c0.6-0.1,0.9,0.1,0.7,0.8v0.7L72.2,13.3z"/>
	<path class="st65" d="M27.2,72.2v1.4h-3.3c-0.1-0.2-0.1-0.5,0-0.7C25.1,73,26.2,72.7,27.2,72.2z"/>
	<path class="st126" d="M58.4,18.9c4.6-0.6,9.1-2.4,13.9-2.1h8.3c0.4,0.8-0.3,1-0.7,1.4V21l-0.2,0.5c-2.2,1.4-5,1.3-7-0.3
		c-2-1.8-4.9-2-7.2-0.6c-2.4,0.1-4.9,0.6-7.1-0.9l0,0L58.4,18.9z"/>
	<path class="st334" d="M57,29.9c-1.5-1.8-3.9-0.9-5.6-2.1h3.1c0.6,0,1.5-0.2,1.4-0.7c-1.1-4.8,2.6-2.8,4.6-3.4c0.5,0,1,0.2,1.3,0.6
		c0.7,0.7,1,1.7,1,2.7c-0.1,0.3-0.3,0.5-0.6,0.7C60.4,28.2,58.6,28.9,57,29.9z"/>
	<path class="st26" d="M61.1,24.4l-0.7-0.7l-0.7-2.1l0,0c2-1.8,4.4-0.9,6.6-0.7c0.4,0.2,0.8,0.4,1.1,0.8c0.6,2.8-0.1,3.8-2.8,4
		C63.3,25.8,62,25.3,61.1,24.4z"/>
	<path class="st335" d="M66.7,21.6h-6.9l-1.4-2.1H66C67,20,67.4,20.6,66.7,21.6z"/>
	<path class="st336" d="M77.8,12.6l-0.7-0.8c0.5-2,2.2-1.1,3.4-1.3h2.8C81.8,12,80.6,14.4,77.8,12.6z"/>
	<path class="st337" d="M75,11.2c-0.4,0.8-1.2,1.4-2.1,1.4l-1.4-2.7C72.9,9.8,74.2,9.8,75,11.2z"/>
	<path class="st338" d="M87.5,61.1c-0.7,0.5-0.9,1.5-0.4,2.3c0.7,1.3,2.1,2.8-0.9,4s0.2,2.7,0.6,4.1l-2.1,1.4
		c-2.3-1.7-3.1-1.3-3.5,2.1c-1.4,0.1-2.8-0.1-3.2-1.7s-1.4-2.2-2.7-1.9c-1.3,0.3-0.9,1.8-1,2.9l-0.7,1.3c-1.1,0.4-1.8-0.5-2.8-0.7
		c-0.2-0.2-0.4-0.4-0.4-0.7c0-0.7,0-1.3,0-2c-0.2-0.8-0.9-0.8-1.5-0.7H68c-1-0.1-1.8-0.9-2-1.9c-0.7-2.3-2.5-4.2-2.5-6.8
		c-0.1-0.6,0-1.1,0.4-1.6c2.2-1.8,1.9-4.6,2.8-6.9c2.3-4.3,6.5-5.3,10.8-5c3.9,0.2,7.2,2.7,8.5,6.3c0.4,0.9,0.1,2.4,1.5,2.8
		C88.9,58.8,86.3,60.2,87.5,61.1L87.5,61.1z"/>
	<path class="st339" d="M44.5,70.2l4.2-1.4c1-0.6,2.3-0.3,2.9,0.7c0.1,0.1,0.2,0.3,0.2,0.4c0.1,3.2-3,2.5-4.5,3.8
		c-1.5,1.3-3.3,0.8-5.1,0.8c-1.7,0.3-3.5,0.3-5.2,0.1c-0.3-0.2-0.3-0.6-0.2-0.8c0,0,0,0,0.1-0.1C39.5,72.6,42.3,72,44.5,70.2z"/>
	<path class="st340" d="M47.3,73.7c0.8-1.9,3.3-1.7,4.2-3.5s3.8-4,6.9-3.5v3.5c0,0.6-0.4,1.1-0.9,1.4l-1.2,0.5
		C53.2,72.4,50.4,73.7,47.3,73.7z"/>
	<path class="st341" d="M57,71.5l1.4-1.4l2.8-2.1c2,0.5,4.8-0.6,5,2.9c0,0.9-0.6,1.7-1.5,1.9c-1.7,0.4-3.1-1.3-4.9-0.8
		C58,72.5,57.8,72.3,57,71.5z"/>
	<path class="st65" d="M36.9,73.6v0.6c-1.4,0.6-3,0.6-4.4,0.1c-1.8-0.1-3.7,0.2-5.4-0.7C30.3,72.7,33.7,72.7,36.9,73.6z"/>
	<path class="st342" d="M32.5,74.4h4.4l5.3,0.2C39,75.3,35.7,75.2,32.5,74.4z"/>
	<path class="st343" d="M70.9,74.3c0,0.2,0,0.4,0,0.6c-1.2-0.1-2.4-0.4-3.5-1.1c-0.4-0.9,0.2-1.4,0.9-1.8
		C69,71.6,71.4,71.9,70.9,74.3z"/>
	<path class="st344" d="M68.1,72.2l-0.7,1.5c-1,0-1.9-0.3-2.7-0.9l0.7-2c0.2-0.2,0.5-0.3,0.8-0.3c0.7,0.3,1.3,0.7,1.8,1.3L68.1,72.2
		z"/>
	<path class="st345" d="M57,71.5c0.9,0.1,1.9-0.2,2.7,0.5h-3.4L57,71.5z"/>
	<path class="st346" d="M91.6,76.3c-0.6-1.1-0.7-2.3,0.5-2.9c1.2-0.6,1.5,0.6,2.2,1.1c0.5,0.6,1,1.2,1.5,1.8H91.6z"/>
	<path class="st272" d="M58.4,66.7l-6.9,3.5c-0.7-0.8-1.7-1.3-2.8-1.4c0-0.2,0-0.4,0-0.7c3.2-0.8,6.3-2.2,9-4.2
		C58.2,64.7,58.5,65.7,58.4,66.7z"/>
	<path class="st242" d="M57,62.5c0.4-0.5,1-0.7,1.4-0.1c0.4,0.6-0.1,1.2-0.7,1.5L57,62.5z"/>
	<path class="st310" d="M66,70.8h-0.7c-0.3-1.5-0.8-2.4-2.5-1.4c-1.7,1-1.5-0.5-1.6-1.4l1.4-1.4l0,0c1.5,0.6,3.6,0.4,3.8,2.7
		C66.4,69.9,66.5,70.5,66,70.8z"/>
	<path class="st320" d="M87.5,61.1c-1.9-0.9-1-1.8,0-2.8C89.5,59.3,87.2,60.2,87.5,61.1z"/>
	<path class="st347" d="M66,69.5c-0.6-1.7-2.9-1.1-3.5-2.8c1.8-1.7-0.6-2.8-0.7-4.2l2.1-1.4c0.3,1.3,1.9,2.3,0.9,4
		c-0.2,0.4-0.1,0.9,0.3,1.1c0.1,0.1,0.3,0.1,0.4,0.1c2.7,0.2,1.7,1.7,1.2,3.1C66.2,70.8,66.2,69.8,66,69.5z"/>
	<path class="st265" d="M82.6,32.7c-2,3.3,1,3.4,2.8,4.2c-1.3,1.3-2.5,0.5-3.7-0.1c-1.2-0.5-2.6-0.7-3.9-0.6c-0.4-1-1.4-1.4-2.1-2.1
		c-0.7-0.7-2.1-1.9-2.1-3.5c1.7-1.4,3.6-1.2,5.5-0.7l0,0C80,31.2,81.5,31.6,82.6,32.7z"/>
	<path class="st348" d="M75.7,34.1c0.8-0.3,1.7-1.1,2.4-0.1c0.7,1-0.1,1.5-0.4,2.2h-3.4l-0.7-0.7c-0.4-0.8,0.1-1.1,0.7-1.4H75.7z"/>
	<path class="st349" d="M74.3,34.1l-0.7,1.4c-1.2,0-1.8,0.9-2.8,1.4l-0.7-0.7c0-1.2-0.1-2.5,1.4-3.1c0.9-0.6,2.1-0.3,2.6,0.6
		C74.2,33.8,74.3,34,74.3,34.1z"/>
	<path class="st224" d="M73.6,29.9c-1.8,0.1-3.6-0.5-4.5,2.2c-0.9,2.7-3.4,1.5-5.2-1.5l0.3-0.4c1.2-1,2.8-1.2,3.9-2.6
		c1.1-1.4,4-1.9,6,0.8C74.2,29,74,29.5,73.6,29.9z"/>
	<path class="st350" d="M57,29.9c0.3-4,3.3-2.5,5.5-2.8c2.2-0.3,2.4,1.7,1.4,3.5l0,0c-1.7-0.5-3.6-1.8-4.9,0.7h-2V29.9z"/>
	<path class="st279" d="M73.6,29.9v-1.3c1.8-0.7,3.6-1.5,5.5-0.7V30c-1.7,1-3.7,0.6-5.5,0.7V29.9z"/>
	<path class="st351" d="M79.9,20.9c2.3,0.1,4.8-0.8,6.3,2.5c1.5,3.3,3.6,0.8,5.5,1l-1.4,2.8c-2.2-0.3-4.7,0.9-6.2-2.2
		c-0.7-1.4-3.2-0.4-4.9-0.6L78.8,24C78.1,22.6,79.3,21.8,79.9,20.9z"/>
	<path class="st216" d="M79.2,24.4v2.8l0,0c-1.5,0.9-3.4,1.1-5.1,0.4c-1.2-0.4-1.8-1.6-1.4-2.8c0.1-0.2,0.2-0.4,0.3-0.6
		C74.8,22.6,77.6,22.6,79.2,24.4L79.2,24.4z"/>
	<path class="st334" d="M72.9,24.4c0.6,4.2,3.9,2.4,6.2,2.8c0,0.2,0,0.4,0,0.7c-1.8,0.6-3.5,1.7-5.5,0.7c-2-1-3.8-2.8-5.1,0.8
		s-3,1.1-4.6,1.3l-1.4-3.5l0,0c2-1.7,4.9-1.6,6.8-3.6s2.2-0.3,3.2,0.4L72.9,24.4z"/>
	<path class="st352" d="M82.6,32.7c-1.7-0.3-4.7,1.2-3.5-2.8C81.2,29.8,83,29.9,82.6,32.7z"/>
	<path class="st353" d="M79.9,18.2l0.7-1.4c2.5,0.2,5.2-0.8,7.3,2.2c2.1,3,3.9,0.4,5.9,0.6l-0.8,2h-4.5c-0.7,0-1.8-0.2-1.9-0.5
		C85.8,16.8,82.4,18.5,79.9,18.2z"/>
	<path class="st26" d="M79.2,24.4h-6.3c-1.5-2.2-4.5-1-6.2-2.8l0,0L66,19.5c1.1-1.8,3.3-2.3,5.1-1.3c0.3,0.2,0.5,0.3,0.7,0.6
		c2.4,3,5.3,1.8,8,2.1L79.2,24.4z"/>
	<path class="st290" d="M66.7,21.6h3.4c2.1-0.2,3,0.7,2.8,2.8c-2.1,0.1-4.1-0.6-5.5,2.2s-3.2,0.4-4.9,0.6c-1.7,0.2-1.4-1.6-1.4-2.8
		h4C67.4,24.4,67.6,23.3,66.7,21.6z"/>
	<path class="st354" d="M84.9,58.8c0.3,1.6-1.1,3.3,0.7,5s-2.6,0.9-2,2.9c-2.3,0.3-3.3,3.8-6.1,2.6c-0.7-0.4-1.6-0.4-2.3,0
		c-1.2,0.9-2,0.8-2.6-0.7c-0.3-0.8-1.2-1.2-2-0.9c-0.5,0.1-1.5,0.4-1.5-0.2c-0.2-2.8-3.4-4.9-2.2-7.9c1.2-3,2.9-8.1,8.1-9
		c4.6-0.8,9,2.4,9.8,7C84.8,58,84.9,58.4,84.9,58.8z"/>
	<path class="st344" d="M70.9,74.3c-0.2-1.6-1.8-1.4-2.8-2.1l0,0c-0.4-0.8,0.3-1,0.7-1.4l0,0c1.6-1,2.1,0.5,2.8,1.4
		C71.7,73,71.5,73.8,70.9,74.3z"/>
	<path class="st298" d="M68.8,70.8l-0.7,1.4L66,70.8v-1.3h0.7C67.1,70.3,67.9,70.8,68.8,70.8z"/>
	<path class="st298" d="M71.5,72.2c-0.9-0.4-1.6-1.4-2.8-1.4C71.1,68.6,71.3,70.5,71.5,72.2z"/>
</g>
</svg>
