<?xml version="1.0" encoding="utf-8"?>
<!-- Generator: Adobe Illustrator 21.0.2, SVG Export Plug-In . SVG Version: 6.00 Build 0)  -->
<svg version="1.1" id="Layer_1" xmlns="http://www.w3.org/2000/svg" xmlns:xlink="http://www.w3.org/1999/xlink" x="0px" y="0px"
	 viewBox="0 0 150 149" style="enable-background:new 0 0 150 149;" xml:space="preserve">
<style type="text/css">
	.st0{fill:#060505;}
	.st1{fill:#ECB7BC;}
	.st2{fill:#DB959C;}
	.st3{fill:#ECB8BD;}
	.st4{fill:#FDFDFD;}
</style>
<title>Artboard 1</title>
<g>
	<path class="st0" d="M116.8,123.1c-0.4-0.4-0.7-0.8-0.8-1.3c-1.1-3.5-2.3-6.9-3.3-10.4c-0.6-1.9-1.5-3.8-2.8-5.3
		c-3.1-4-5.5-8.4-7.5-13.1c-1.3-3.2-2.1-6.5-2.7-9.9c-0.1-0.6-0.3-1.3-0.5-1.9c-0.5-1.2-1-2.4-1.3-3.7c-0.7-2.7-2.2-5-3.1-7.6
		c-0.1-0.2-0.2-0.3-0.3-0.5c-2.7-2.5-4.3-6-6.6-8.8c-1-1.3-1.5-2.9-1.8-4.5s0.1-2.7,0.9-3.8c0.8-1.1,2-1.3,3.2-0.9
		c0.6,0.2,1.2,0.6,1.6,1.1c2.7,3.6,6.1,6.6,8.9,10.1c1.1,1.4,2,2.8,3.1,4.3c0.3-0.5-0.1-0.8-0.2-1.1c-2.1-4-4.4-7.9-6.8-11.7
		c-1.7-2.7-3.8-5.1-5.1-8c-0.7-1.7-0.9-3.4-0.5-5.1c0.5-1.7,1.9-2.5,3.6-2.2c1,0.2,2,0.7,2.7,1.5c3.3,4.2,6.7,8.5,10.4,12.4
		c0.1,0.1,0.1,0.5,0.2,0.4c0.2-0.1,0.1-0.4-0.1-0.5c-0.9-2.1-2.2-4-3.6-5.8c-2.3-3.1-4.7-6.1-6.1-9.8c-1-2.6,0.3-5.2,2.9-5.7
		c1.1-0.2,2.1,0.1,3,0.8c1.8,1.4,3.6,2.9,4.9,4.9c2.4,3.5,5.5,6.5,8,9.9c0.3,0.4,0.6,0.9,0.8,1.4c1,2.4,1.9,4.9,2.6,7.4
		c0.1,0.2,0,0.5,0.3,0.6c0.1-0.3,0-0.5-0.1-0.8c-0.3-1.8-0.7-3.7-0.9-5.5c-0.1-0.6-0.3-1.2-0.5-1.7c-1-1.9-1.9-4-2.2-6.2
		c-0.1-0.3-0.2-0.6-0.4-0.9c-1.3-2.4-2.3-5-2.9-7.7c-0.1-0.7-0.2-1.4,0-2c0.7-3.2,3.6-4.4,6.3-2.5c1.3,0.9,2.1,2.2,2.8,3.6
		c0.7,1.4,1.4,3.4,2.1,5.1c0.5,1.3,1,2.6,1.9,3.7c2.4,2.9,3.1,6.4,3.9,9.9c0.8,3.9,1.8,7.8,3,11.7c0.1,0.2,0.1,0.3,0.2,0.7
		c0.4-1.4,0.8-2.7,1.2-3.9c1.5-4.3,3.4-8.3,7.6-10.7c0.7-0.5,1.6-0.8,2.4-1c2.3-0.5,3.6,0.1,4.7,2.3v1.1c-0.6,1-1.1,1.9-1.7,2.8
		c-2,2.8-2.8,6-3.4,9.3c-0.7,4-0.6,8-0.7,12c0,1.7-0.4,3.4-1.1,5c-1.6,3.5-2.8,7-3.8,10.7c-1.3,5.2-1.9,10.4-0.6,15.6
		c0.7,3.2,1.9,6.2,2.9,9.3c0.1,0.4,0.2,0.8-0.1,1.1c-0.3,0.3-0.8,0.3-1.2,0l-1.5-4.3c-1.6-4.5-2.7-9-2.4-13.8
		c0.3-5.4,1.6-10.7,3.8-15.7c1.8-4.1,2.7-8.5,2.4-13c0-0.1,0-0.3,0-0.5c0.1-4.2,0.6-8.3,1.9-12.4c0.7-2.3,2.3-4.1,3.4-6.2
		c0.6-1,0.3-1.7-0.8-2c-0.6-0.1-1.1,0-1.6,0.1c-1.7,0.6-3.1,1.6-4.3,2.9l-0.3,0.3l0,0c-1.7,1.6-2.5,3.7-3.3,5.9
		c-0.3,0.8-0.2,1.3,0.6,1.5l1.9,0.6c0.5,0.1,0.8,0.4,0.7,1s-0.5,0.7-1.1,0.6s-1.6-0.2-2.3-0.5c-0.6-0.6-0.9-0.6-1.2,0.3
		c-0.5,1.8-0.9,3.5-1.2,5.3c-0.1,0.3,0.1,0.5,0.2,0.7c0.4,1.2,1.4,1.7,2.4,2.3c0.5,0.3,1.1,0.7,0.7,1.4c-0.4,0.7-1,0.4-1.5,0.1
		c-0.9-0.5-1.7-1.1-2.4-1.9c-0.4,0.5-0.9,1.1-1.3,1.6c-0.4,0.5-0.9,0.7-1.4,0.2s-0.3-1,0.2-1.4c0.7-0.7,1.2-1.4,1.5-2.3
		c0.1-0.2,0.1-0.5,0-0.8c-1.8-5.6-3.4-11.2-4.6-16.9c-0.4-2.2-0.8-4.5-2.1-6.3c-2-2.7-3.3-5.7-4.4-8.8c-0.6-1.6-1.3-3.2-2.5-4.5
		c-0.7-0.8-1.6-1.5-2.8-1.1c-1.5,0.4-2,1.6-1.6,3.6s1.3,4.2,2.2,6.2c0.4,0.8,0.9,1,1.7,0.8l0.7-0.2c0.8-0.1,1.5-0.5,2.2-0.8
		s1-0.2,1.3,0.4c0.3,0.6-0.1,0.9-0.6,1.2c-0.8,0.4-1.6,0.7-2.5,1c-0.3,0.1-0.6,0.1-0.9,0.1c-0.8,0-0.8,0.3-0.6,1
		c0.3,1.2,0.8,2.4,1.3,3.5c0.7,1.5,1,1.6,2.7,1.2c1.1,0,2-0.5,3-1c0.5-0.2,1-0.4,1.3,0.3c0.3,0.7-0.1,1-0.6,1.2
		c-1.1,0.5-2.2,0.9-3.3,1.2c-0.4,0.1-0.7,0.1-1.1,0.1c-0.7-0.1-0.7,0.2-0.6,0.8c0.3,1.9,0.6,3.8,1.1,5.7c0.4,1.6,0.4,1.6,2.1,1.6
		c1.2,0.3,2.5,0.1,3.7,0.2c0.6,0,1,0.3,0.9,0.9s-0.5,0.8-1,0.7c-1.3,0-2.5-0.1-3.8-0.1c-0.7,0-1.2-0.1-1.6,0.6s-1.5,1-2.4,0.8
		s-0.8-1-1-1.7c-1.1-5.1-2.4-10.1-6.1-14.1c-1.1-1.2-2.1-2.4-3.3-3.7c0.1,0.5-0.1,1-0.4,1.3c-0.7,0.8-1.6,1.3-2.6,1.8l-1.9,0.6
		c1,1.5,1.9,2.9,2.8,4.3s1,1.6,2.8,0.9c1-0.2,1.7-0.8,2.5-1.5c0.7-0.6,0.9-0.6,1.4,0c0.4,0.5,0.1,0.9-0.3,1.3
		c-0.8,0.8-1.9,1.3-2.9,1.8c-0.4,0.1-0.8,0.3-1.3,0.3c-0.7,0.1-0.6,0.4-0.4,0.9c0.8,2.2,1.7,4.3,2.8,6.3c0.9,1.8,0.9,1.8,2.8,1
		c0.8-0.2,1.5-0.7,2.3-1c0.7-0.4,1-0.4,1.4,0.2s0,1-0.5,1.3c-1.3,0.8-2.7,1.3-4.1,1.7c-0.3,0.1-0.6,0.1-0.9,0.4
		c-1.2,1.3-2.1,1.2-2.8-0.4c-2-4.3-3.8-8.8-7.4-12.2c-2.6-2.6-4.7-5.7-7-8.5c-0.6-0.7-1.3-1.3-2.3-1.3c-1,0.1-1.8,0.9-1.6,2.5
		c0.3,2.4,1.6,4.3,2.9,6.2c1,1.4,1.1,1.4,2.8,0.7c0.7-0.2,1.2-0.7,1.7-1.2s0.8-0.5,1.2-0.1s0.3,0.8-0.1,1.3c-0.4,0.4-1.3,1.1-2,1.5
		L97.4,52c0.9,1.7,1.9,3.2,3,4.7c0.1,0.2,0.4,0.3,0.6,0.3c0.6-0.1,1.2-0.1,1.8-0.5c0.9-0.4,1.5-1,2-1.7s0.8-0.8,1.4-0.4
		c0.6,0.5,0.2,1-0.1,1.4c-0.7,0.8-1.6,1.6-2.6,2.1l-1.9,0.7c1.3,2.4,2.5,4.7,3.8,7.1c0.3,0.7,0.7,0.8,1.3,0.4l0.6-0.4
		c0.9-0.4,1.6-1.1,2.3-1.7c0.7-0.6,0.9-0.6,1.4-0.1s0.2,0.9-0.2,1.3c-0.9,0.8-1.8,1.6-2.8,2.1s-1.6,0.8-1.6,1.9
		c0,0.2-0.2,0.4-0.4,0.6c-0.8,0.9-1.5,0.9-2.2-0.1s-1.6-2.2-2.3-3.3c-1.5-2.1-3-4.2-4.9-6c-2.2-2.1-4-4.5-5.9-6.8
		c-0.3-0.3-0.6-0.7-1.1-0.7s-0.9,0.2-1.2,0.6c-0.6,0.8-0.7,1.8-0.4,2.8c0.5,2.2,1.8,4,3.1,5.8c0.6,0.8,1,0.8,1.7,0.4l0.4-0.3
		c0.7-0.3,1.1-0.8,1.6-1.3s0.9-0.6,1.5-0.1c0.5,0.4,0.1,1-0.4,1.4l-1.7,1.4c-0.4,0.2-0.8,0.4-1.2,0.5c-0.5,0.1-0.5,0.4-0.2,0.7
		c0.5,0.7,1,1.4,1.6,2.1c1,1.2,1,1.2,2.2,0.2c0.8-0.4,1.2-1.2,1.7-1.8s0.8-0.6,1.2-0.2c0.4,0.3,0.4,0.8,0.1,1.2s-1,1.2-1.5,1.9
		c-1.7,1.1-1.7,1.1-0.9,3l0.4,0.9c0.9,2.2,0.9,2.2,2.4,0.3l1.2-1.4c0.4-0.4,0.8-0.7,1.3-0.3s0.4,0.9,0,1.3l-1.9,2.3
		c-0.2,0.2-0.5,0.4-0.7,0.7c-0.2,0.2-0.7,0.4-0.6,1c0.5,1.7,0.9,3.5,1.8,5.1l1.6-1.2c1.9-0.8,3.8-1.6,5.7-2.5
		c3.3-1.5,6.6-3.1,8.7-6.4c0.4-0.5,0.7-1.1,1.1-1.6s0.7-0.5,1.1-0.3c0.4,0.2,0.5,0.7,0.2,1.1c-1.4,2.2-2.9,4.3-5.2,5.8
		c-2.9,1.9-6.1,3.2-9.3,4.6c-0.7,0.3-1.5,0.5-2,1.1c-0.4,0.2-0.7,0.5-1.1,0.7c-0.4,0.2-0.4,0.5-0.4,1c0.4,2.4,0.9,4.8,1.8,7.1
		c1.9,5.2,4.5,10.1,7.8,14.5c1.1,1.4,2.2,2.8,2.8,4.6c1.3,4.3,2.7,8.6,4,12.9c0,0.5-0.5,0.6-0.8,0.9L116.8,123.1z M101.3,33
		c-1.6,0.9-2,1.9-1.3,3.5c0.9,2.2,2.1,4.2,3.4,6.1c0.5,0.8,1.1,1.1,2,0.7L106,43c1-0.2,1.9-0.7,2.5-1.5c0.4-0.4,0.7-0.8,1.5-0.5
		c-1.9-3.1-4.1-5.6-6.9-7.7C102.5,32.9,101.9,32.7,101.3,33z M121.2,56.9l-0.3,0.1l0.5,2.4l0.2-0.1
		C121.8,58.4,121.4,57.7,121.2,56.9z"/>
	<path class="st0" d="M0,50c1.7-2.5,3.5-3,6.4-1.5c2.8,1.5,5.2,3.9,6.6,7c1.1,2.5,2.1,5.2,2.8,7.9c0.3-0.1,0.3-0.4,0.4-0.6
		C17.8,58,18.8,53,19.9,48c0.5-2.1,1.2-4,2.5-5.7c1.7-2.2,2.6-4.7,3.6-7.3c0.5-1.5,1.3-3,2.2-4.3c0.2-0.3,0.4-0.5,0.6-0.7
		c1.4-1.8,3.6-2.4,5.3-1.6c1.6,0.8,2.6,3,2.1,5.2c-0.5,2.6-1.5,5.2-2.8,7.5c-0.3,0.5-0.4,1-0.5,1.6c-0.3,1.7-0.9,3.4-1.8,4.9
		c-0.6,1.1-0.9,2.2-1,3.4c-0.2,1.5-0.5,3-0.8,4.6c0.4-0.1,0.4-0.5,0.5-0.7c0.7-2.3,1.6-4.6,2.5-6.8c0.1-0.3,0.3-0.6,0.4-0.8
		c3-3.9,6.3-7.4,9.1-11.3c1.1-1.5,2.5-2.6,3.9-3.7c1.3-1.2,3.1-1.3,4.6-0.3c1.5,1.1,2.1,2.9,1.5,4.6c-1,2.7-2.5,5.3-4.3,7.6
		s-3.5,4.7-5,7.1c-0.3,0.4-0.4,0.8-0.6,1.2c0.3,0.1,0.4-0.1,0.5-0.2c3.5-3.6,6.6-7.6,9.7-11.5c0.6-0.8,1.4-1.4,2.3-1.8
		c2.5-0.9,4.3,0.2,4.6,2.8c0.2,1.5-0.1,3.1-0.8,4.4c-0.9,1.8-1.9,3.5-3.3,5C54.3,52,54,53,53.5,53.8c-2.8,3.9-5.1,8.1-7.3,12.3
		l-0.3,0.5c0.4,0.2,0.5-0.1,0.7-0.3c3.1-5,7.7-8.8,11.3-13.5c0.3-0.4,0.7-0.8,1.2-1c1.6-1.1,3.4-0.6,4.3,1.2
		c0.6,1.1,0.7,2.4,0.4,3.6c-0.5,1.9-1.3,3.8-2.7,5.3c-1.7,2-2.7,4.5-4.6,6.3c-1,1-1.5,2.3-2.2,3.5c-1.6,3.2-2.5,6.6-3.7,10
		c-0.7,1.9-0.8,4-1.3,6c-1.5,6-4.2,11.6-7.9,16.5c-2.2,3-3.9,6.4-4.9,10.1c-0.7,2.5-1.6,5-2.4,7.5c-0.1,0.5-0.4,1-0.8,1.3H33
		l-0.7-0.6v-0.2c0-0.5,0.2-0.9,0.3-1.4c0.9-2.8,1.9-5.7,2.7-8.5c0.9-3.3,2.5-6.1,4.4-8.8c4.5-6.1,7.6-12.8,8.9-20.4
		c0.1-0.6-0.1-0.9-0.5-1.2c-1.8-1.4-4-2.1-6-3c-2.4-1-4.7-2.2-6.8-3.7c-2-1.4-3.5-3.2-4.6-5.3c-0.3-0.5-0.3-1,0.3-1.3
		c0.6-0.3,0.9,0,1.2,0.5l0.2,0.3c0.9,1.7,2.1,3.1,3.6,4.2c1.9,1.4,3.9,2.4,6,3.4c2.4,1.1,5,1.8,7.2,3.6c0.8-1.5,1.2-3.1,1.7-4.7
		c0.2-0.6,0.1-0.9-0.4-1.3c-1-0.9-2-2-2.8-3.1c-0.3-0.4-0.4-0.9,0.1-1.2c0.5-0.4,0.9-0.2,1.2,0.2l0.5,0.7c0.7,0.8,1.4,1.7,2.3,2.4
		c0.6-1.4,1.1-2.8,1.7-4.1c0.1-0.2,0.3-0.5-0.1-0.7c-1.3-0.6-2.1-1.7-3-2.8c-0.2-1.2,0.1-1.5,1.2-1.2c0.7,1,1.5,2,2.6,2.6
		c0.3,0.2,0.6,0.3,0.9,0c0.8-0.9,1.5-1.8,2.2-2.8c0.2-0.3,0.2-0.4-0.2-0.6c-1.2-0.4-2.1-1.2-3-2c-0.3-0.4-0.6-0.7-0.4-1.2
		s0.7-0.5,1.1-0.4c0.9,0.9,1.8,1.8,3,2.2c0.2,0.1,0.5,0.3,0.7,0c1.6-2,3.1-4,3.7-6.5c0.2-1,0.1-2-0.7-2.8c-0.5-0.6-1-0.5-1.5-0.1
		c-0.4,0.4-0.8,0.7-1.1,1.1c-1.5,1.7-2.8,3.5-4.4,5.1c-3.1,2.9-5.5,6.4-7.9,10c-0.5,0.4-0.7,1.3-1.6,1.1c-0.9-0.2-1.3-0.9-1.5-1.7
		c0-0.1,0-0.2,0-0.3c0-0.4-0.1-0.5-0.5-0.7c-1.4-0.6-2.5-1.6-3.7-2.5c-0.6-0.5-0.7-1-0.1-1.6h0.1v-0.1c0.5-0.1,0.9,0.2,1.2,0.5
		c0.9,0.8,1.8,1.5,2.9,2.1c0.5,0.3,0.8,0.2,1.1-0.3c0.7-1.5,1.6-3,2.4-4.4l1.5-2.8c-1.8-0.3-3-1.2-4.2-2.3l-0.3-0.4
		c-0.3-0.4-0.6-0.7-0.3-1.3c0.4-0.5,0.8-0.4,1.3-0.1c0.9,1.3,2.1,2.3,3.7,2.5c0.3,0,0.7,0.1,0.9-0.2c1.1-1.5,2.2-3,3-4.7
		c-1.5-0.3-2.9-1-3.9-2.1c-0.2-0.4-0.4-0.8,0-1.2c0.3-0.4,0.7-0.3,1.2-0.1c0.8,1.1,1.9,1.6,3.2,1.8c0.3,0.1,0.6,0,0.7-0.2
		c1.4-1.6,2.5-3.5,3.3-5.5c0.3-0.8,0.4-1.7,0.4-2.6c-0.1-0.8-0.3-1.5-1.3-1.6s-2,0.4-2.7,1.2c-2.9,3.7-5.7,7.5-9,10.9
		c-0.6,0.7-1.2,1.4-1.6,2.3C41.3,58,40,61,38.6,63.9c-0.9,0.6-1.6,0.3-2.2-0.4c-0.3-0.3-0.6-0.5-1-0.6c-1.7-0.4-3.2-1.1-4.7-2
		c-0.4-0.7-0.1-1.2,0.6-1.4c1.4,0.6,2.7,1.5,4.2,1.8c0.4,0.1,0.7,0.2,0.9-0.3c1.3-2.5,2.5-5.1,3.4-7.8c0.1-0.4,0.1-0.5-0.3-0.6
		c-1.7-0.3-3.1-1.1-4.4-2.2c-0.6-1-0.5-1.2,0.5-1.6c0.3,0.2,0.6,0.4,0.9,0.6c1,0.9,2.3,1.4,3.6,1.6c0.3,0.1,0.5,0.1,0.7-0.2
		c1.1-1.9,2.3-3.7,3.7-5.5c-1.8-0.4-3.3-1.2-4.6-2.4c-0.2-0.4-0.5-0.7-0.4-1.3c-1.5,1.6-3,3.3-4.3,5c-0.6,0.8-1.5,1.6-1.9,2.6
		c-0.8,2.1-1.6,4.1-2.3,6.2c-0.6,1.8-0.8,3.6-1.2,5.4c-1.4,0.7-2.5,0.5-3.3-0.7c-0.3-0.4-0.6-0.4-0.9-0.4c-1.6,0.2-3.2,0.1-4.8,0.2
		c-0.8-0.8-0.7-1.3,0.4-1.7c1.6,0.1,3.3,0,4.9-0.2c0.4,0,0.6-0.1,0.7-0.5c0.6-2.3,1-4.7,1.4-7c0.1-0.4-0.1-0.5-0.5-0.5
		c-1.6,0-3.1-0.5-4.5-1.2c-0.5-0.3-1.1-0.6-0.8-1.3c0.3-0.7,0.8-0.5,1.3-0.3c1.3,0.7,2.7,1.2,4.3,1.2c0.4,0,0.8-0.1,1-0.5
		c0.7-1.5,1.4-3.1,1.8-4.7c0.1-0.3,0.1-0.5-0.3-0.6c-1.4-0.1-2.6-0.7-3.9-1.2c-0.4-0.3-0.7-0.6-0.4-1.2c0.3-0.6,0.7-0.5,1.1-0.4
		l0.4,0.1c0.9,0.5,1.9,0.8,3,1c0.6,0.1,0.9-0.1,1.2-0.6c1.1-2,1.8-4.2,2.3-6.4c0.1-0.6,0.1-1.2,0.1-1.8c-0.1-1-0.8-1.7-1.9-1.9
		c-1.1-0.2-2,0.4-2.7,1.3c-1.3,1.5-2,3.4-2.7,5.2c-0.9,2.4-1.9,4.8-3.4,6.9c-1.1,1.5-1.8,3.2-2.2,5c-1.4,6.3-2.8,12.5-4.9,18.6
		c-0.3,0.8-0.4,1.5,0.2,2.1c0.2,0.6,0.7,1.1,1.1,1.6s0.7,0.9,0.2,1.4s-1,0.2-1.4-0.2c-0.3-0.2-0.5-0.5-0.7-0.8
		c-0.4-0.7-0.7-0.8-1.3-0.1s-1.3,1-2.1,1.4c-0.7,0.4-0.9,0.2-1.2-0.2c-0.3-0.5-0.1-0.9,0.4-1.2s1.2-0.7,1.8-1.2s1.3-1.2,1.2-1.9
		c-0.3-2-0.7-4-1.4-6c-0.1-0.3-0.2-0.4-0.5-0.2c-0.8,0.5-1.6,0.7-2.5,0.8c-0.6,0.1-1.1,0.2-1.3-0.5s0.3-1,0.9-1.1s1.5-0.3,2.2-0.7
		c0.2-0.2,0.5-0.3,0.4-0.7c-0.8-2.1-1.5-4.2-3-5.9C8,52.1,6.3,50.5,3.8,50c-0.8-0.3-1.5-0.1-2.1,0.6s0,1.1,0.3,1.6
		c2.9,4,4.3,8.6,4.8,13.5c0.4,3.4,0.3,6.9,0.4,10.3c0,1.6,0.4,3.2,1,4.6c0.7,1.6,1.4,3.2,1.9,4.9c1.8,5,3.1,10.1,3.2,15.4
		c0.1,6-2,11.4-3.9,16.9c-0.4,0.3-0.8,0.4-1.2,0s-0.3-0.7-0.1-1.1c0.6-1.9,1.2-3.7,1.9-5.6c1.2-3.8,2-7.7,1.7-11.7
		c-0.4-5.8-2-11.3-4.3-16.6c-1.2-2.8-1.9-5.6-1.8-8.6c0.1-1.1,0-2.2,0-3.4c0-7.4-1.3-13.9-5.6-19.5V50z M49,33.1
		c-0.7-0.4-1.4-0.3-2,0.2c-0.6,0.4-1.2,0.9-1.7,1.4c-2.1,1.8-3.7,3.9-5.2,6.3c0.7-0.2,1,0,1.4,0.4c0.9,1.2,2.3,1.6,3.6,2
		c0.6,0.2,1,0.1,1.3-0.4c1.5-2,2.8-4.2,3.7-6.6C50.7,34.9,50.4,34,49,33.1z M42,52.9l-0.1-0.1c0,0-0.1,0-0.1,0.1
		C41.9,52.9,41.9,52.9,42,52.9L42,52.9z"/>
	<path class="st1" d="M140.3,117.2c-1.5,0.6-3,1.3-4.6,1.9c-3.8,1.4-7.7,2.3-11.7,2.7c-1.5,0.1-2.9,0.4-4.5,0.3
		c0-0.2-0.1-0.4-0.1-0.6c-1-3.2-2-6.4-3-9.6c-0.9-2.9-1.9-5.6-3.7-8c-5.1-6.6-8.5-14.1-9.8-22.4c0.6-0.6,1.3-0.8,2-1.1
		c3.2-1.4,6.4-2.6,9.3-4.6c2.2-1.5,3.8-3.6,5.2-5.8c0.3-0.4,0.2-0.9-0.2-1.1c-0.4-0.3-0.8-0.1-1.1,0.3c-0.3,0.4-0.7,1.1-1.1,1.6
		c-2.1,3.2-5.4,4.9-8.7,6.4c-1.9,0.9-3.8,1.7-5.7,2.5c-0.3-0.3-0.4-0.7-0.6-1c-0.7-1.5-0.9-3.1-1.5-4.6l1.9-2.3
		c0.4-0.4,0.5-0.9,0-1.3s-0.9-0.1-1.3,0.3l-1.2,1.4c-0.2,0-0.3-0.1-0.4-0.2c-0.6-1.3-1.2-2.5-1.5-3.9c0.5-0.6,1-1.2,1.5-1.9
		c0.5-0.6,0.4-0.9-0.1-1.2c-0.5-0.4-0.9-0.2-1.2,0.2c-0.3,0.4-0.9,1.4-1.7,1.8c0-0.5-0.3-0.8-0.6-1.1c-0.7-0.7-1.2-1.5-1.7-2.4
		l1.7-1.4c0.5-0.4,0.6-0.8,0.4-1.4l0.2-0.3c1.9,1.8,3.4,3.9,4.9,6c0.8,1.1,1.6,2.2,2.3,3.3c0.8,1.1,1.4,1,2.2,0.1
		c0.1-0.2,0.4-0.4,0.4-0.6c0-1.1,0.8-1.4,1.6-1.9s1.9-1.3,2.8-2.1c0.4-0.4,0.7-0.8,0.2-1.3c-0.4-0.5-0.9-0.3-1.4,0.1
		c-0.5,0.4-1.4,1.3-2.3,1.7c0-0.3-0.1-0.5-0.2-0.8c-0.6-1.2-1.3-2.3-1.9-3.5s-1.3-2.2-1.6-3.4c1-0.6,1.8-1.3,2.5-2.1
		c0.4-0.4,0.7-0.9,0.1-1.4s-1-0.1-1.4,0.4s-1.2,1.3-2,1.7c-0.1,0-0.3,0-0.3-0.1c-1.2-1.6-2.4-3.1-3.2-4.9c0.7-0.4,1.4-0.9,2-1.5
		c0.5-0.7,0.4-0.8,0.1-1.3c-0.4-0.4-0.8-0.3-1.2,0.1c-0.4,0.4-1,1-1.7,1.2L98,49.6c-2-2.7-4.1-5.3-3.8-9c1-0.1,1.7,0.5,2.3,1.3
		c2.3,2.9,4.3,6,7,8.5c3.6,3.5,5.3,7.9,7.4,12.2c0.7,1.6,1.6,1.8,2.8,0.4c0.3-0.3,0.6-0.4,0.9-0.4c1.4-0.4,2.8-1,4.1-1.7
		c0.5-0.3,0.9-0.7,0.5-1.3s-0.9-0.4-1.4-0.2c-0.5,0.3-1.4,0.9-2.3,1c-0.2-0.1-0.4-0.3-0.5-0.5c-0.8-1.6-1.6-3.1-2.2-4.7
		c-0.4-1.1-1.1-2-1.1-3.2c1-0.5,2-1,2.9-1.8c0.4-0.4,0.7-0.8,0.3-1.3c-0.4-0.5-0.9-0.4-1.4,0c-0.4,0.4-1.5,1.2-2.5,1.5
		c-1.4-1.9-2.7-3.8-3.8-5.8c0.9-0.5,1.9-1,2.6-1.8c0.3-0.3,0.5-0.8,0.4-1.3c1.2,1.3,2.2,2.6,3.3,3.7c3.7,4,5,9,6.1,14.1
		c0.1,0.7,0,1.5,1,1.7s1.9,0.1,2.4-0.8c0.5-0.8,1-0.7,1.6-0.6c1.3,0.1,2.5,0.1,3.8,0.1c0.5,0,1-0.2,1-0.7c0-0.6-0.4-0.9-0.9-0.9
		c-1.2-0.1-2.5,0.1-3.7-0.2c0-0.3,0-0.6-0.1-0.9c-0.5-2.4-1.4-4.8-1.4-7.4c1.2-0.2,2.3-0.6,3.3-1.2c0.5-0.3,0.9-0.6,0.6-1.2
		c-0.3-0.6-0.8-0.5-1.3-0.3c-1,0.4-1.9,1-3,1c-1-1.9-1.9-3.7-2.5-5.8c0.8-0.3,1.7-0.7,2.5-1c0.5-0.2,0.9-0.6,0.6-1.2
		c-0.3-0.6-0.7-0.5-1.3-0.4c-0.5,0.2-1.4,0.7-2.2,0.8c-1.1-2-2.1-4.2-2.7-6.4c-0.4-1.3-0.8-2.6-0.3-4c1.2-0.4,2,0.3,2.8,1.1
		c1.2,1.3,1.9,2.9,2.5,4.5c1.1,3.1,2.5,6.1,4.4,8.8c1.3,1.9,1.7,4.1,2.1,6.3c1.2,5.7,2.7,11.4,4.6,16.9c0.1,0.3,0.1,0.5,0,0.8
		c-0.3,0.9-0.9,1.7-1.5,2.3c-0.4,0.4-0.7,0.9-0.2,1.4s1,0.2,1.4-0.2c0.4-0.4,0.9-1,1.3-1.6c0.7,0.7,1.5,1.4,2.4,1.9
		c0.6,0.3,1.1,0.6,1.5-0.1c0.4-0.7-0.2-1-0.7-1.4c-1-0.6-2-1.2-2.4-2.3c0.7-0.1,0.5-0.7,0.6-1.1c0.4-1.8,0.9-3.6,1.5-5.3
		c0.7,0.3,1.6,0.4,2.3,0.5s0.9-0.1,1.1-0.6c0.1-0.6-0.2-0.9-0.7-1l-1.9-0.6c0.1-1.4,0.9-2.6,1.3-3.9c0.4-1.3,1.1-2.3,1.4-3.5l0,0
		c0.2,0.1,0.3-0.1,0.3-0.3c1.2-1.3,2.6-2.3,4.3-2.9c0.5-0.2,1.1-0.3,1.6-0.1c1.1,0.3,1.4,1,0.8,2c-1.1,2.1-2.7,3.9-3.4,6.2
		c-1.3,4-1.8,8.2-1.9,12.4c0,0.1,0,0.3,0,0.5c0.2,4.5-0.6,8.9-2.4,13c-2.2,5-3.5,10.3-3.8,15.7c-0.3,4.8,0.8,9.4,2.4,13.8
		L140.3,117.2z M123.6,72.7L123.6,72.7c0.1-0.6,0-1.1-0.5-1.3s-0.9,0.1-1.2,0.5c-1.3,2-3,3.4-4.9,4.9c-1.6,1.2-3.2,2.3-4.6,3.7
		c-0.4,0.4-0.7,0.8-0.2,1.3c0.4,0.5,0.9,0.3,1.4-0.1c0.8-0.7,1.6-1.4,2.4-2.1c2.3-1.9,4.9-3.4,6.7-6c0.1-0.1,0.2-0.1,0.3-0.1l0,0
		c0.1,0.4-0.2,0.6-0.3,0.9c-2.3,4.4-3.3,9.1-3,14.1c0,0.7,0.1,1.4,0.2,2c0.1,0.7,0.4,0.8,0.9,0.8s0.8-0.4,0.7-0.9s0-0.7-0.1-1
		c-0.4-3.4,0-6.8,1-10.1c1.1-3.6,3.1-6.8,5.5-9.7c0.4-0.5,0.7-1,0.1-1.5c-0.7-0.5-1,0-1.4,0.5L123.6,72.7z"/>
	<path class="st2" d="M102.9,81.5c1.3,8.3,4.7,15.7,9.8,22.4c1.9,2.5,2.9,5.2,3.7,8c1,3.2,2,6.4,3,9.6c0.1,0.2,0.1,0.4,0.1,0.6
		l-1.8,0.1c-1.3-4.3-2.7-8.6-4-12.9c-0.5-1.8-1.7-3.2-2.8-4.6c-3.3-4.4-5.9-9.3-7.8-14.5c-0.8-2.3-1.3-4.7-1.8-7.1
		c-0.1-0.4,0-0.7,0.4-1C102.3,82,102.6,81.7,102.9,81.5z"/>
	<path class="st1" d="M101.3,33c0.7-0.3,1.3-0.1,1.8,0.3c2.8,2.1,5,4.6,6.9,7.7c-0.7-0.2-1.1,0.1-1.5,0.5c-0.7,0.7-1.6,1.2-2.5,1.4
		c-1-1.4-2-2.7-2.8-4.3C102.1,37,101,35.2,101.3,33z"/>
	<path class="st1" d="M96.3,60.6c-0.5-0.4-1-0.3-1.5,0.1c-0.5,0.4-1,1-1.6,1.3c-0.1-0.5-0.4-0.8-0.7-1.2c-0.9-1-1.7-2.1-2.2-3.4
		c-0.5-1.3-1.4-2.9-0.8-4.6c0.5,0,0.8,0.4,1.1,0.7c2,2.3,3.7,4.7,5.9,6.8L96.3,60.6z"/>
	<path class="st2" d="M101.3,33c-0.3,2.2,0.9,4,1.8,5.8c0.8,1.5,1.9,2.9,2.8,4.3l-0.6,0.2c-0.9,0.4-1.4,0.1-2-0.7
		c-1.3-1.9-2.5-3.9-3.4-6.1C99.3,34.8,99.6,33.9,101.3,33z"/>
	<path class="st2" d="M94.1,40.4c-0.3,3.7,1.8,6.3,3.8,9l0.4,0.5c-1.7,0.7-1.8,0.7-2.8-0.7c-1.3-1.9-2.7-3.8-2.9-6.2
		C92.3,41.3,92.8,40.5,94.1,40.4z"/>
	<path class="st2" d="M117.2,29.8c-0.5,1.4,0,2.7,0.3,4c0.6,2.3,1.6,4.4,2.7,6.4l-0.7,0.2c-0.8,0.2-1.3,0-1.7-0.8
		c-0.9-2-1.7-4-2.2-6.2C115.1,31.2,115.7,30.2,117.2,29.8z"/>
	<path class="st2" d="M89.4,52.8c-0.6,1.7,0.2,3.1,0.8,4.6c0.6,1.5,1.4,2.3,2.2,3.4c0.3,0.4,0.6,0.7,0.7,1.2l-0.4,0.3
		c-0.7,0.4-1.2,0.4-1.7-0.4c-1.3-1.8-2.6-3.5-3.1-5.8c-0.2-1-0.2-1.9,0.4-2.8C88.6,53,88.9,52.6,89.4,52.8z"/>
	<path class="st2" d="M111.7,51.8c0.1,1.2,0.7,2.2,1.1,3.2c0.6,1.6,1.4,3.2,2.2,4.7c0.1,0.2,0.3,0.4,0.5,0.5c-1.9,0.8-1.9,0.8-2.8-1
		c-1-2.1-1.9-4.2-2.7-6.3c-0.2-0.5-0.2-0.8,0.4-0.9C110.9,52.1,111.3,52,111.7,51.8z"/>
	<path class="st2" d="M103.5,57.9c0.3,1.2,1.1,2.3,1.6,3.4s1.3,2.3,1.9,3.5c0.1,0.2,0.2,0.5,0.2,0.8l-0.6,0.4
		c-0.6,0.4-0.9,0.3-1.3-0.4c-1.2-2.4-2.5-4.7-3.8-7.1L103.5,57.9z"/>
	<path class="st2" d="M123.4,49.4c0,2.5,0.8,4.9,1.4,7.4c0.1,0.3,0.1,0.6,0.1,0.9c-1.7,0-1.7,0-2.1-1.6c-0.5-1.9-0.8-3.8-1.1-5.7
		c-0.1-0.6-0.1-0.9,0.6-0.8C122.6,49.5,123,49.5,123.4,49.4z"/>
	<path class="st2" d="M107.3,44.4c1.2,2,2.4,4,3.8,5.8c-1.8,0.7-1.8,0.7-2.8-0.9c-1-1.6-1.9-2.8-2.8-4.3L107.3,44.4z"/>
	<path class="st2" d="M120.6,41.9c0.5,2.1,1.5,4,2.4,5.8c-1.7,0.4-1.9,0.3-2.7-1.2c-0.5-1.1-1-2.3-1.3-3.5c-0.2-0.6-0.2-1,0.6-1
		C120,42,120.3,42,120.6,41.9z"/>
	<path class="st2" d="M99.2,51.3c0.8,1.8,2,3.4,3.2,4.9c0.1,0.1,0.2,0.1,0.3,0.1c-0.5,0.4-1.1,0.4-1.8,0.5c-0.3,0.1-0.5-0.1-0.6-0.3
		c-1.1-1.5-2.2-3-3-4.7L99.2,51.3z"/>
	<path class="st2" d="M100.5,74c0.6,1.5,0.8,3.1,1.5,4.6c0.2,0.4,0.3,0.8,0.6,1l-1.6,1.2c-0.8-1.6-1.3-3.4-1.8-5.1
		c-0.1-0.5,0.3-0.7,0.6-1C100,74.4,100.3,74.2,100.5,74z"/>
	<path class="st2" d="M98.1,68c0.3,1.4,0.9,2.6,1.5,3.9c0.1,0.1,0.2,0.2,0.4,0.2c-1.5,1.9-1.5,1.9-2.4-0.3l-0.4-0.9
		C96.4,69.1,96.4,69.1,98.1,68z"/>
	<path class="st2" d="M94.3,63.4c0.5,0.9,1.1,1.7,1.7,2.4c0.3,0.3,0.6,0.7,0.6,1.1c-1.2,1-1.2,1-2.2-0.2c-0.5-0.7-1-1.4-1.6-2.1
		c-0.3-0.4-0.2-0.6,0.2-0.7C93.5,63.8,93.9,63.6,94.3,63.4z"/>
	<path class="st2" d="M140.9,52.7c-0.3,1.2-1,2.3-1.4,3.5s-1.2,2.5-1.3,3.9c-0.9-0.2-1-0.7-0.6-1.5
		C138.4,56.5,139.2,54.3,140.9,52.7z"/>
	<path class="st2" d="M137.4,61.8c-0.7,1.7-1.2,3.5-1.5,5.3c-0.1,0.4,0.1,1-0.6,1.1c-0.1-0.2-0.3-0.4-0.2-0.7
		c0.3-1.8,0.7-3.6,1.2-5.3C136.6,61.2,136.9,61.2,137.4,61.8z"/>
	<path class="st3" d="M121.2,56.9c0.1,0.8,0.5,1.5,0.4,2.4l-0.2,0.1l-0.5-2.4L121.2,56.9z"/>
	<path class="st4" d="M120.9,55.5c0.1,0.2,0.2,0.5,0.1,0.8c-0.3-0.1-0.2-0.4-0.3-0.6L120.9,55.5z"/>
	<path class="st4" d="M108.1,52.6c0.1,0.2,0.3,0.4,0.1,0.5c-0.2,0.1-0.1-0.3-0.2-0.4L108.1,52.6z"/>
	<path class="st2" d="M141.2,52.4c0,0.2-0.1,0.3-0.3,0.3L141.2,52.4z"/>
	<path class="st3" d="M32.1,122.4c-2.9,0.3-5.7,0.2-8.5-0.4c-4-0.7-7.8-1.9-11.5-3.6l-0.8-0.4c0.9-2.7,1.9-5.3,2.7-8
		c1.3-4.6,2.1-9.3,1.3-14.2c-0.8-4.9-2.2-9.6-4.1-14.1c-1.2-2.4-1.9-5-1.8-7.7c0.1-2.1,0-4.2-0.1-6.4c-0.2-2.5-0.6-4.9-1-7.3
		c-0.6-3.1-2.3-5.6-3.9-8.1c-0.6-0.9-0.7-1.8-0.4-2.7c2.4,0.5,4.1,2.1,5.7,3.8c1.6,1.7,2.2,3.8,3,5.9c0.2,0.4-0.1,0.6-0.4,0.7
		c-0.7,0.4-1.5,0.5-2.2,0.7C9.3,60.8,9,61,9.2,61.8c0.2,0.7,0.7,0.6,1.3,0.5c0.9-0.1,1.8-0.2,2.5-0.8c0.3-0.2,0.4-0.1,0.5,0.2
		c0.7,1.9,1.1,4,1.4,6c0.1,0.7-0.6,1.4-1.2,1.9s-1.2,0.8-1.8,1.2s-0.7,0.7-0.4,1.2s0.7,0.5,1.2,0.2s1.5-0.8,2.1-1.4s0.9-0.5,1.3,0.1
		c0.2,0.3,0.4,0.6,0.7,0.8c0.4,0.4,0.9,0.8,1.4,0.2s0.2-1-0.2-1.4c-0.4-0.4-0.9-0.9-1.1-1.6c0-0.3,0.3-0.4,0.4-0.6
		c0.7-0.6,1.4-1.3,1.7-2.2c0.9-2.2,1.5-4.4,1.9-6.7c1.6,0,3.2,0,4.8-0.2c0.4,0,0.7-0.1,0.9,0.4c0.8,1.2,2,1.4,3.3,0.7l0.8-0.1
		c1.4,0.9,3,1.6,4.7,2c0.4,0.1,0.7,0.3,1,0.6c0.6,0.7,1.4,1,2.2,0.4l0.6,0.1c-0.6,0.6-0.5,1.1,0.1,1.6c1.1,1,2.2,2,3.7,2.5
		c0.3,0.1,0.5,0.3,0.5,0.7c0,0.1,0,0.2,0,0.3c0.2,0.8,0.7,1.5,1.5,1.7s1.1-0.7,1.6-1.1c0.4,0.1,0.6-0.3,0.9-0.5
		c1-0.9,1.7-1.9,2.8-2.7c0.9,1,1.7,2.2,3,2.8c0.4,0.2,0.2,0.5,0.1,0.7c-0.5,1.3-1.1,2.7-1.7,4.1c-0.9-0.7-1.6-1.6-2.3-2.4l-0.5-0.7
		c-0.3-0.4-0.7-0.6-1.2-0.2c-0.5,0.4-0.4,0.8-0.1,1.2c0.8,1.2,1.7,2.2,2.8,3.1c0.4,0.4,0.5,0.7,0.4,1.3c-0.5,1.6-0.9,3.2-1.7,4.7
		c-2.2-1.7-4.8-2.5-7.2-3.6c-2.1-1-4.2-2-6-3.4c-1.5-1.1-2.8-2.5-3.6-4.2L32,69.3c-0.3-0.4-0.6-0.7-1.2-0.5
		c-0.6,0.2-0.6,0.7-0.3,1.3c1.1,2.1,2.7,4,4.6,5.3c2.1,1.5,4.5,2.6,6.8,3.7c2,0.9,4.2,1.6,6,3c0.4,0.4,0.6,0.7,0.5,1.2
		c-1.2,7.5-4.4,14.3-8.9,20.4c-2,2.7-3.6,5.5-4.4,8.8c-0.8,2.9-1.8,5.7-2.7,8.5C32.3,121.4,32.2,121.8,32.1,122.4L32.1,122.4z
		 M26.8,73.2c0.4-0.1,0.4,0.3,0.5,0.4c0.6,0.8,1.3,1.6,2,2.3c2.3,2,5,3.7,7.2,5.8c0.4,0.4,0.9,0.4,1.2,0c0.4-0.4,0.3-0.8-0.1-1.2
		C36.9,79.8,36,79,35,78.3c-2.4-1.9-5-3.5-6.7-6.1c-0.3-0.5-0.6-1-1.3-0.8c-0.7,0.2-0.4,0.8-0.5,1.3c-0.2-0.1-0.3-0.3-0.4-0.5
		l-2.7-3.8c-0.3-0.5-0.8-0.6-1.3-0.3c-0.5,0.4-0.4,0.8-0.1,1.2l1.2,1.6c2.4,3.2,4.2,6.7,5,10.8c0.5,2.8,0.6,5.6,0.3,8.4
		c-0.1,0.6,0,1.1,0.7,1.2c0.7,0.1,0.9-0.4,1-1c0.6-5.7-0.2-11.1-3-16.1C27.1,73.9,26.7,73.6,26.8,73.2z"/>
	<path class="st2" d="M4,49.4c-0.4,1-0.2,1.8,0.4,2.7c1.6,2.6,3.3,5.1,3.9,8.1c0.4,2.4,0.8,4.8,1,7.3c0.2,2.1,0.2,4.2,0.1,6.4
		c-0.1,2.8,0.6,5.3,1.7,7.8c2,4.5,3.4,9.2,4.1,14.1c0.8,4.9,0,9.5-1.3,14.2c-0.8,2.7-1.8,5.3-2.7,8l-1.5-0.8
		c1.9-5.5,4.1-10.9,3.9-16.9c-0.1-5.3-1.4-10.4-3.2-15.4c-0.6-1.6-1.3-3.2-1.9-4.9c-0.6-1.5-1-3-1-4.6c-0.1-3.4,0-6.9-0.4-10.3
		c-0.5-4.9-1.9-9.4-4.8-13.5C2,51.2,1.5,50.6,2,50C2.5,49.4,3.1,49.1,4,49.4z"/>
	<path class="st2" d="M21,59.6c-0.4,2.3-1.1,4.5-2,6.7c-0.4,0.9-1.1,1.5-1.7,2.2c-0.2,0.2-0.4,0.3-0.4,0.6c-0.6-0.7-0.5-1.3-0.2-2.1
		c2.1-6.1,3.5-12.3,4.9-18.6c0.4-1.8,1.1-3.5,2.2-5c1.6-2.1,2.6-4.5,3.4-6.9c0.7-1.9,1.4-3.7,2.7-5.3c0.7-0.8,1.5-1.6,2.7-1.3
		c-2.4,2.8-3.4,6.3-4.7,9.7l-0.4-0.1c-0.4-0.1-0.9-0.1-1.1,0.4c-0.3,0.5,0.1,0.9,0.4,1.2c-0.2,1-1,1.7-1.5,2.5
		c-0.5,0.9-1.3,2-1.4,3.3c-0.5-0.2-1-0.3-1.3,0.3s0.3,1,0.8,1.3c-0.3,1.3-0.7,2.6-0.9,4c-0.4,1.8-1,3.6-1.1,5.5
		C20.3,58.3,20.2,58.8,21,59.6z"/>
	<path class="st1" d="M35.3,50c1.3,1.1,2.8,1.9,4.4,2.2c0.4,0.1,0.4,0.2,0.3,0.6c-1,2.7-2.1,5.3-3.4,7.8c-0.3,0.5-0.6,0.3-0.9,0.3
		c-1.5-0.3-2.8-1.2-4.2-1.8c0-0.1,0-0.3,0-0.4c0.9-2.8,2.2-5.5,3.3-8.3C34.9,50.1,35.1,50,35.3,50z"/>
	<path class="st1" d="M21.4,57.9c0.2-1.9,0.8-3.7,1.1-5.5c0.3-1.3,0.6-2.6,0.9-4c1.4,0.6,2.9,1.1,4.5,1.2c0.4,0,0.5,0.1,0.5,0.5
		c-0.3,2.4-0.8,4.7-1.4,7c-0.1,0.4-0.3,0.5-0.7,0.5C24.7,57.9,23,57.9,21.4,57.9z"/>
	<path class="st1" d="M49,33.1c1.4,0.8,1.8,1.8,1.2,3.3c-1,2.3-2.2,4.5-3.7,6.6c-0.4,0.5-0.8,0.6-1.3,0.4c-1.3-0.4-2.7-0.8-3.6-2
		l0.6-0.8c1.6-2.3,3.2-4.5,5.3-6.3C47.9,33.8,48.3,33.3,49,33.1z"/>
	<path class="st1" d="M44.3,56.2c1.2,1.1,2.4,2,4.2,2.3L47,61.3c-0.8,1.5-1.6,2.9-2.4,4.4c-0.3,0.6-0.6,0.6-1.1,0.3
		c-1-0.6-2-1.3-2.9-2.1c-0.4-0.3-0.7-0.6-1.2-0.5c0.7-0.3,1.1-0.8,1.4-1.5c0.7-1.4,1.3-2.7,2.1-4C43.3,57.3,43.4,56.5,44.3,56.2z"/>
	<path class="st1" d="M28,39.5c1.2-3.4,2.3-6.9,4.7-9.7c1.1,0.2,1.7,0.8,1.9,1.9c0.1,0.6,0.1,1.2-0.1,1.8c-0.5,2.2-1.3,4.4-2.3,6.4
		c-0.3,0.5-0.6,0.7-1.2,0.6C29.9,40.3,28.9,40,28,39.5z"/>
	<path class="st1" d="M40.2,42.6c1.3,1.2,2.8,2,4.6,2.4c-1.3,1.8-2.5,3.6-3.7,5.5c-0.2,0.3-0.4,0.2-0.7,0.2
		c-1.3-0.2-2.6-0.8-3.6-1.6c-0.3-0.2-0.6-0.4-0.9-0.6c-0.3-0.2,0.2-0.7,0.4-1C37.6,45.8,38.9,44.2,40.2,42.6z"/>
	<path class="st1" d="M56.3,40.4c1,0.1,1.2,0.8,1.3,1.6c0.1,0.9,0,1.8-0.4,2.6c-0.8,2-1.9,3.8-3.3,5.5c-0.2,0.2-0.5,0.3-0.7,0.2
		c-1.3-0.2-2.4-0.7-3.2-1.8L56.3,40.4z"/>
	<path class="st2" d="M56.3,40.4l-6.4,8.1c-0.4-0.2-0.8-0.3-1.2,0.1c-0.3,0.4-0.2,0.8,0,1.2c-1.3,1.5-2.9,2.7-3.8,4.5
		c-0.5-0.3-0.9-0.4-1.3,0.1c-0.4,0.5,0,0.9,0.3,1.3l0.3,0.4c-0.9,0.3-0.9,1.2-1.3,1.8c-0.8,1.3-1.5,2.7-2.1,4
		c-0.3,0.7-0.7,1.2-1.4,1.5v0.1h-0.1l-0.6-0.1c1.4-2.9,2.6-5.8,4.2-8.7c0.4-0.8,1-1.6,1.6-2.3c3.3-3.4,6.1-7.2,9-10.9
		C54.2,40.8,55.1,40.2,56.3,40.4z"/>
	<path class="st1" d="M24,46.7c0.1-1.3,0.8-2.2,1.4-3.3s1.3-1.5,1.5-2.5c1.3,0.5,2.5,1.1,3.9,1.2c0.4,0,0.4,0.3,0.3,0.6
		c-0.4,1.6-1,3.2-1.8,4.7c-0.2,0.4-0.6,0.5-1,0.5C26.8,47.9,25.3,47.5,24,46.7z"/>
	<path class="st1" d="M45,54.3c0.9-1.9,2.5-3.1,3.8-4.5c1.1,1.1,2.4,1.8,3.9,2.1c-0.9,1.7-1.9,3.2-3,4.7c-0.3,0.4-0.6,0.3-0.9,0.2
		C47.1,56.6,45.9,55.7,45,54.3z"/>
	<path class="st1" d="M61.5,53.2c0.9,0.7,0.9,1.7,0.7,2.8c-0.5,2.6-2.1,4.6-3.7,6.5c-0.3,0.4-0.5,0.1-0.7,0c-1.2-0.4-2.1-1.3-3-2.2
		c0.4-0.1,0.6-0.4,0.9-0.7C57.9,57.7,59.6,55.3,61.5,53.2z"/>
	<path class="st2" d="M40.2,42.6c-1.3,1.6-2.6,3.2-3.9,4.8c-0.2,0.3-0.5,0.5-0.4,1c-1,0.4-1.1,0.7-0.5,1.6c-0.2,0-0.4,0.2-0.5,0.4
		c-1.1,2.8-2.3,5.5-3.3,8.3c0,0.1,0,0.2,0,0.4c-0.8,0.2-1,0.7-0.6,1.4h-1c0.4-1.8,0.7-3.6,1.2-5.4c0.7-2.1,1.4-4.2,2.3-6.2
		c0.4-1,1.2-1.7,1.9-2.6c1.4-1.7,2.8-3.4,4.3-5C39.7,41.9,39.9,42.2,40.2,42.6z"/>
	<path class="st2" d="M61.5,53.2c-1.9,2.2-3.6,4.5-5.8,6.5c-0.3,0.2-0.5,0.6-0.9,0.7s-0.9-0.1-1.1,0.4c-0.2,0.5,0.1,0.9,0.4,1.2
		c-1.2,0.6-1.8,1.8-2.5,2.9c-1.1-0.3-1.5,0.1-1.2,1.2c-1,0.8-1.8,1.8-2.8,2.7c-0.3,0.2-0.4,0.6-0.9,0.5c2.4-3.5,4.7-7,7.9-10
		c1.6-1.5,2.9-3.4,4.4-5.1c0.3-0.4,0.7-0.8,1.1-1.1C60.5,52.6,61,52.6,61.5,53.2z"/>
	<path class="st1" d="M51.5,64.9c0.7-1.1,1.3-2.3,2.5-2.9c0.9,0.8,1.8,1.6,3,2c0.4,0.1,0.4,0.3,0.2,0.6c-0.6,1-1.4,1.9-2.2,2.8
		c-0.3,0.4-0.6,0.2-0.9,0C53,66.9,52.3,65.8,51.5,64.9z"/>
	<path class="st2" d="M49,33.1c-0.6,0.2-1.1,0.7-1.6,1.1c-2.1,1.9-3.7,4.1-5.3,6.3l-0.6,0.8C41.1,41,40.7,40.8,40,41
		c1.6-2.4,3.2-4.5,5.2-6.3c0.6-0.5,1.1-1,1.7-1.4C47.6,32.9,48.2,32.7,49,33.1z"/>
	<path class="st4" d="M32.1,122.4L32.1,122.4l0.1,0.2L32.1,122.4z"/>
	<path class="st4" d="M42,52.9L42,52.9c-0.1,0-0.1,0-0.1-0.1c0,0,0,0,0.1-0.1V52.9z"/>
	<path class="st0" d="M123.6,72.7l2.9-4.1c0.4-0.5,0.8-0.9,1.4-0.5c0.6,0.4,0.3,1-0.1,1.5c-2.3,3-4.3,6.1-5.5,9.7
		c-1,3.3-1.3,6.7-1,10.1c0,0.3,0.1,0.7,0.1,1s-0.2,0.9-0.7,0.9s-0.8-0.3-0.9-0.8s-0.1-1.4-0.2-2c-0.3-5,0.7-9.7,3-14.1
		c0.1-0.3,0.4-0.5,0.3-0.9c-0.1-0.1-0.3,0-0.3,0.1l0,0c-1.8,2.5-4.3,4.1-6.7,6c-0.8,0.7-1.6,1.3-2.4,2.1c-0.4,0.4-0.9,0.6-1.4,0.1
		s-0.2-0.9,0.2-1.3c1.4-1.4,3-2.6,4.6-3.7c1.9-1.4,3.6-2.9,4.9-4.9c0.3-0.4,0.7-0.7,1.2-0.5s0.6,0.7,0.4,1.2l-0.1,0.2
		c-0.1,0.1-0.4,0.2-0.2,0.4s0.2-0.1,0.3-0.3L123.6,72.7z"/>
	<path class="st0" d="M26.8,73.2c-0.1,0.4,0.2,0.7,0.4,1c2.7,5.1,3.6,10.4,3,16.1c-0.1,0.6-0.3,1.1-1,1s-0.8-0.6-0.7-1.2
		c0.3-2.8,0.2-5.6-0.3-8.4c-0.8-4-2.6-7.5-5-10.8L22,69.4c-0.3-0.4-0.4-0.9,0.1-1.2c0.5-0.4,0.9-0.2,1.3,0.3l2.7,3.8
		c0.1,0.2,0.2,0.4,0.4,0.5l0,0c0,0.1,0,0.3,0.2,0.2l0,0C26.5,73.1,26.6,73.3,26.8,73.2L26.8,73.2z"/>
	<path class="st0" d="M26.5,72.7c0.1-0.5-0.1-1.1,0.5-1.3s1,0.3,1.3,0.8c1.7,2.6,4.3,4.3,6.7,6.1c0.9,0.7,1.8,1.5,2.7,2.3
		c0.4,0.4,0.4,0.8,0.1,1.2c-0.4,0.4-0.9,0.4-1.2,0c-2.2-2.2-4.9-3.8-7.2-5.8c-0.7-0.7-1.4-1.5-2-2.3c-0.1-0.2-0.1-0.6-0.5-0.4l0,0
		c0.2-0.2,0-0.3-0.2-0.4l0,0C26.7,72.7,26.7,72.5,26.5,72.7L26.5,72.7z"/>
	<path class="st1" d="M123.5,73c-0.1,0.1-0.1,0.4-0.3,0.3c-0.2-0.1,0-0.3,0.2-0.4L123.5,73z"/>
	<path class="st1" d="M123.3,72.8l0.1-0.2l0.1,0.1l-0.1,0.3L123.3,72.8z"/>
	<path class="st3" d="M26.6,72.8c0.2,0.1,0.4,0.1,0.2,0.4C26.6,73.2,26.5,73.1,26.6,72.8z"/>
	<path class="st3" d="M26.4,72.7c0.2-0.1,0.2,0.1,0.2,0.2S26.5,72.8,26.4,72.7z"/>
</g>
</svg>
