<svg id="Layer_1" data-name="Layer 1" xmlns="http://www.w3.org/2000/svg" width="800" height="508" viewBox="0 0 800 508">
  <defs>
    <style>
      .cls-1 {
        fill: #fdfdfd;
      }

      .cls-2 {
        fill: #060505;
      }

      .cls-3 {
        fill: #ecb7bc;
      }

      .cls-4 {
        fill: #db959c;
      }

      .cls-5 {
        fill: #ecb8bd;
      }
    </style>
  </defs>
  <title>Artboard 1</title>
  <g>
    <path class="cls-1" d="M1,119Q1,61.8.9,4.6C.9,1.7,1.3.9,4.4.9Q401,1.1,797.6.9c3.1,0,3.5.8,3.5,3.6q-.2,57.7-.1,115.4c-6-11.9-12.7-15.1-25.1-12.2a46.5,46.5,0,0,0-12.8,5.5c-22.2,12.9-32.4,34.4-40.4,57.3-2.3,6.6-4.2,13.3-6.4,20.8-.6-1.7-1-2.6-1.3-3.5a631.2,631.2,0,0,1-16-62.2c-4-18.8-8-37.4-20.6-52.9-4.8-5.8-7.7-12.8-10.3-19.8-3.4-9.2-6.6-18.5-11.1-27.2s-7.8-14.3-14.8-19.2c-14.4-10-30.3-3.8-33.8,13.5a26.8,26.8,0,0,0,.1,10.9,141.8,141.8,0,0,0,15.3,40.9,15.3,15.3,0,0,1,2,5c1.8,11.8,6.3,22.7,11.9,33.1a23.6,23.6,0,0,1,2.9,8.9c1,9.9,3.2,19.7,5,29.5l-1.1.9c-4.2-13.3-8.8-26.4-14-39.3a32.9,32.9,0,0,0-4.5-7.7c-13.7-18-29.9-33.9-42.8-52.6-7.1-10.2-16.5-18.3-26.1-25.9-4.6-3.7-9.8-5.5-15.8-4.4-14,2.6-21.1,16.5-15.7,30.3,7.6,19.5,20.4,35.6,32.7,52.2,7.2,9.7,14.2,19.6,19,30.8l-.9.9c-19.8-20.9-37.6-43.6-55.4-66.2-3.6-4.6-8.9-7-14.5-8.1-9.3-1.9-16.9,2.4-19.3,11.5s-1.4,18.3,2.5,27.2c6.9,15.7,18.2,28.5,27.2,42.8,12.8,20.4,25.5,40.9,36.5,62.3.9,1.8,2.7,3.5,1.3,6.1-5.6-7.7-10.8-15.3-16.5-22.7-14.7-19-32.9-34.9-47.4-54a18.7,18.7,0,0,0-8.5-5.9c-6.4-2.4-13-.7-17,4.7s-6.3,12.9-4.9,20.3,4.2,17.1,9.7,23.8c12.4,15.2,20.7,33.5,35.3,47a6.2,6.2,0,0,1,1.6,2.5c4.6,13.9,12.7,26.3,16.3,40.6a127.2,127.2,0,0,0,6.9,19.7,40.9,40.9,0,0,1,2.9,10c2.9,18.1,7.3,35.8,14.3,52.8,10.4,25,23.1,48.6,39.9,70a83,83,0,0,1,14.7,28.5c5.4,18.6,11.7,37,17.5,55.6A14.3,14.3,0,0,0,624,509H178a13.9,13.9,0,0,0,4.4-7.1c4.1-13.3,8.8-26.5,12.6-39.9a160.1,160.1,0,0,1,26.3-53.6,250.9,250.9,0,0,0,42.3-88c2.7-10.6,3.3-21.9,7.1-32.1,6.5-17.7,11.4-36.1,19.9-53.1,3.4-6.7,6-13.4,11.6-18.8,10-9.9,15.5-23.2,24.7-33.8,7.1-8.2,11.4-17.9,14.2-28.3a26.9,26.9,0,0,0-2-19.4c-4.6-9.5-14.1-12.2-22.9-6.5a25.4,25.4,0,0,0-6.3,5.6c-19.1,24.8-43.5,45.1-60.1,72-.7,1.2-1.5,2.7-3.6,1.8l1.4-2.6c11.7-22.6,24.1-44.8,38.9-65.5,3.1-4.3,4.4-9.7,8-13.8,7.1-8,12.5-17.2,17.5-26.6a40.5,40.5,0,0,0,4.2-23.7c-1.5-13.9-11.6-19.9-24.6-15a28.2,28.2,0,0,0-12.5,9.6c-16.5,21.2-32.9,42.4-51.7,61.6-.6.6-.8,2-2.5,1.2a22.3,22.3,0,0,1,3-6.5A370.7,370.7,0,0,1,254,88.2a144.6,144.6,0,0,0,23.1-40.6,21.8,21.8,0,0,0-7.9-24.8c-7.8-5.4-17-4.8-24.9,1.5s-15.3,12.1-21,19.9C208,65.1,190.4,84,174.5,104.3a17.4,17.4,0,0,0-2.4,4.3c-4.8,12-9.5,24.1-13.2,36.5-.4,1.3-.2,3.3-2.6,3.8,1.5-8.3,3.4-16.4,4.4-24.5a49.1,49.1,0,0,1,5.6-18.4A90.3,90.3,0,0,0,175.7,80c.6-2.9,1.1-5.8,2.6-8.5a135,135,0,0,0,15-40c2.5-12-2.3-23.5-11.4-27.9s-20.5-.7-28.4,8.7c-1.1,1.3-2.1,2.6-3,4a105.2,105.2,0,0,0-11.6,23.1c-5,13.6-10,27.1-19,38.8-6.9,9-10.7,19.4-13.2,30.4-6,26.4-11.3,53-19.8,78.8-.4,1.2-.2,2.6-1.9,3.2-3.6-14.6-9-28.5-15-42.1-7.3-16.5-19.5-28.9-35.4-37.4S10.3,105.7,1,119Z"/>
    <path class="cls-2" d="M624,509a14.3,14.3,0,0,1-4.4-7.1c-5.8-18.5-12.1-36.9-17.5-55.6a83,83,0,0,0-14.7-28.5c-16.8-21.3-29.5-45-39.9-70-7.1-17-11.4-34.7-14.3-52.8a40.9,40.9,0,0,0-2.9-10,127.2,127.2,0,0,1-6.9-19.7c-3.6-14.3-11.7-26.7-16.3-40.6a6.2,6.2,0,0,0-1.6-2.5c-14.6-13.5-22.9-31.8-35.3-47-5.5-6.8-8-15.3-9.7-23.8s.4-14.3,4.9-20.3,10.6-7.1,17-4.7a18.7,18.7,0,0,1,8.5,5.9c14.5,19.1,32.7,35.1,47.4,54,5.7,7.3,10.9,15,16.5,22.7,1.4-2.7-.3-4.4-1.3-6.1-11.1-21.4-23.7-41.9-36.5-62.3-9-14.3-20.3-27.1-27.2-42.8-3.9-8.9-5-17.9-2.5-27.2s9.9-13.4,19.3-11.5c5.6,1.2,10.9,3.5,14.5,8.1,17.8,22.6,35.6,45.3,55.4,66.2.6.7.4,2.5,1.3,2s.4-2-.4-2.9c-4.8-11.2-11.8-21.1-19-30.8-12.3-16.5-25.2-32.6-32.7-52.2-5.3-13.8,1.8-27.7,15.7-30.3,6-1.1,11.2.7,15.8,4.4,9.7,7.7,19.1,15.7,26.1,25.9,12.9,18.7,29.1,34.6,42.8,52.6a32.9,32.9,0,0,1,4.5,7.7c5.2,12.9,9.9,26,14,39.3.5,1.1-.1,2.6,1.5,3.4.6-1.6,0-2.9-.5-4.2-1.8-9.8-4-19.6-5-29.5a23.6,23.6,0,0,0-2.9-8.9c-5.6-10.4-10.1-21.3-11.9-33.1a15.3,15.3,0,0,0-2-5,141.8,141.8,0,0,1-15.3-40.9,26.8,26.8,0,0,1-.1-10.9c3.5-17.2,19.4-23.5,33.8-13.5,7,4.8,11,11.9,14.8,19.2s7.7,18,11.1,27.2c2.6,7,5.6,14,10.3,19.8C691,88.3,695,106.9,699,125.7a631.2,631.2,0,0,0,16,62.2c.3.9.7,1.8,1.3,3.5,2.3-7.4,4.1-14.2,6.4-20.8,8-22.9,18.2-44.3,40.4-57.3a46.5,46.5,0,0,1,12.8-5.5c12.4-2.9,19,.3,25.1,12.2v6c-3.1,5.1-5.9,10.3-9.3,15.2-10.5,14.9-15.2,31.8-18,49.6-3.5,21.3-3.1,42.8-3.5,64.2a68.1,68.1,0,0,1-5.7,26.6,360.1,360.1,0,0,0-20.1,57.2c-7,27.6-9.9,55.3-3.4,83.4,3.9,16.9,10.3,32.9,15.4,49.4.7,2.2,1.1,4.3-.7,6s-4.2,1.4-6.3-.1l-8.1-23c-8.4-23.9-14.2-48.1-12.6-73.8a241.3,241.3,0,0,1,20.1-83.5,147.5,147.5,0,0,0,13-69.2c0-.8,0-1.7,0-2.5.5-22.4,3.3-44.5,10.2-65.9,4-12.2,12.1-22.1,18.1-33.2,3-5.4,1.5-9.1-4.4-10.8-3.1-.8-6-.2-8.8.8A54.4,54.4,0,0,0,754,132.1l-1.5,1.5h-.1c-9.2,8.6-13.3,20-17.8,31.3-1.8,4.4-1.3,6.8,3.4,8l10.4,3c2.7.8,4.4,2.4,3.8,5.4s-2.8,3.8-5.7,3.3-8.5-1.1-12.5-2.7c-3.1-3.1-4.7-3.2-6.2,1.7a286.9,286.9,0,0,0-6.4,28.5c-.3,1.7.4,2.8,1.2,4,2.3,6.3,7.7,9.3,13,12.5,2.9,1.7,6,3.5,3.9,7.3s-5.2,2.2-8.2.5a55.4,55.4,0,0,1-12.9-10c-2.4,2.9-4.8,5.7-7.2,8.4s-4.6,3.8-7.3,1.2-1.4-5.1.9-7.3a33.9,33.9,0,0,0,8.2-12.4,5.5,5.5,0,0,0,.2-4.2,825.1,825.1,0,0,1-24.4-90.4c-2.4-11.7-4.1-23.9-11.3-33.8C667,73.5,660,57.6,653.9,40.9c-3.1-8.6-7-17-13.1-23.9-3.9-4.4-8.3-7.9-14.8-5.9-8,2.4-10.9,8.6-8.7,19.3s6.7,22.5,11.7,33.2c2.1,4.4,5,5.2,9.1,4.3l3.8-1.1c4.1-.7,7.8-2.7,11.6-4.2s5.3-1.2,6.7,1.9-.5,5-3.1,6.2c-4.4,1.9-8.8,3.6-13.2,5.4a25.7,25.7,0,0,1-4.9.7c-4.3-.2-4.2,1.8-3.3,5.2a107.9,107.9,0,0,0,6.9,18.6c3.8,8.1,5.3,8.8,14.3,6.6,5.8-.1,10.8-2.8,15.8-5.2,2.8-1.3,5.6-1.9,7.2,1.5s-.6,5.2-3.3,6.6a73.6,73.6,0,0,1-17.7,6.2,34.3,34.3,0,0,1-5.9.5c-3.7-.3-3.8,1.3-3.3,4.4a300.5,300.5,0,0,0,5.9,30.6c2.2,8.7,2.2,8.7,11.3,8.7,6.6,1.4,13.3.4,19.9.9,3,.2,5.3,1.6,5,4.9s-2.5,4.1-5.3,4c-6.8-.2-13.6-.3-20.4-.8-3.6-.2-6.3-.4-8.7,3.4s-7.9,5.2-13,4.1-4.4-5.5-5.2-9.1c-6-27.2-12.6-54.1-32.6-75.2-5.9-6.2-11.3-12.8-17.6-20a8,8,0,0,1-2.3,6.9c-3.9,4.3-8.7,7.1-13.8,9.7l-10.1,3.3c5.2,8,10.3,15.5,15.2,23.2s5.4,8.5,15.2,4.6c5.1-1.3,9.2-4.4,13.1-7.8s5-3.1,7.3-.2.7,4.9-1.4,6.8c-4.5,4.2-10,7-15.5,9.7a42.3,42.3,0,0,1-6.7,1.8c-3.6.4-3.2,1.9-2.3,4.6A334.6,334.6,0,0,0,602.5,169c4.7,9.6,4.8,9.6,14.8,5.2,4.4-1,8.2-3.5,12.1-5.6s5.5-2.3,7.4.9,0,5.2-2.9,6.8a89,89,0,0,1-22,9.2c-1.7.4-3.3.8-4.7,2.3-6.4,7.1-11.2,6.2-15.2-2.3-10.8-23.1-20.3-46.8-39.3-65.3-14.1-13.7-24.9-30.3-37.2-45.6-3.2-4-6.9-7.2-12.5-6.8s-9.7,4.8-8.7,13.5c1.5,12.9,8.6,23.1,15.7,33.3,5.4,7.6,6.1,7.6,15.1,3.8,3.9-1,6.6-3.7,9.3-6.4s4.3-2.7,6.5-.5,1.6,4.5-.3,6.7-6.7,5.9-10.6,8.1l-9.8,3.3c4.6,9.1,10.3,17,16.1,25a3.1,3.1,0,0,0,3.4,1.5c3.2-.6,6.6-.7,9.4-2.8,4.6-1.9,7.8-5.4,10.9-9.1s4.4-4.5,7.5-1.9,1.2,5.3-.8,7.7A50.4,50.4,0,0,1,553,161.2l-10.1,3.6c6.7,12.6,13.6,25,20.1,37.7,1.8,3.6,3.7,4.1,6.8,2l3.2-2.3c4.8-2.1,8.4-5.9,12.3-9.2s4.9-3.2,7.4-.5.9,4.9-1.3,6.9c-4.7,4.2-9.4,8.6-15,11.4s-8.3,4.2-8.5,9.9c0,1.2-1.1,2.4-2,3.4-4.3,5-8.2,4.7-11.9-.6s-8.3-11.6-12.4-17.4c-8-11.2-15.9-22.5-25.9-32.1-11.7-11-21.2-24-31.7-36.1-1.6-1.8-3.2-3.9-6-4s-4.7,1.1-6.2,3.1c-3.4,4.5-3.5,9.4-2.3,14.7,2.7,11.9,9.8,21.2,16.8,30.8,3,4.1,5.5,4.3,9.3,2.1l2.4-1.6c3.7-1.4,6.1-4.3,8.8-6.9s4.9-3,7.8-.7.6,5.4-1.9,7.4l-9,7.7a47.4,47.4,0,0,1-6.3,2.9c-2.6.8-2.7,1.9-1.3,3.8,2.8,3.7,5.4,7.6,8.3,11.2,5.1,6.3,5.2,6.2,11.6.9,4.1-2.2,6.3-6.3,9.1-9.6s4.2-3,6.5-1.2,2.2,4.4.5,6.6-5.5,6.6-8.2,9.9c-8.9,6-8.9,6-4.9,15.8l1.9,4.6c4.9,11.5,4.9,11.5,12.9,1.6l6.3-7.6c1.9-2.3,4.1-3.6,6.8-1.4s2,4.6.1,6.9l-10,12.2c-1.3,1.2-2.8,2.4-4,3.7s-3.8,2.4-3.1,5.2c2.5,9.2,4.9,18.5,9.4,27.3L548,277c10.2-4.4,20.5-8.7,30.6-13.3,17.8-8.1,35.3-16.7,46.4-34,1.9-2.9,3.8-5.8,5.9-8.7s3.7-2.9,6.1-1.4,2.7,3.7,1.2,6.1c-7.5,11.9-15.7,23.1-27.7,31-15.5,10.2-32.7,16.9-49.6,24.3-3.8,1.6-7.8,2.9-10.9,5.9-1.9,1.3-3.8,2.7-5.8,3.8s-2.4,2.9-2,5.1c2.3,12.8,5,25.5,9.4,37.7A294.1,294.1,0,0,0,593,410.6c5.7,7.7,12,15,14.8,24.6,7,23.1,14.4,46,21.6,69-.1,2.8-2.7,3.4-4.4,4.9ZM541.1,28.4c-8.7,4.6-10.6,9.9-7,18.7,4.7,11.6,11.1,22.2,18.2,32.4,2.9,4.2,5.9,5.9,10.6,3.6l3.2-1.3A26.2,26.2,0,0,0,579.6,74c2.1-2.2,4-4.2,8-2.9-10.3-16.4-22.1-30-36.7-41C547.8,27.9,544.7,26.9,541.1,28.4ZM647.5,155.9l-1.5.3,2.5,12.6,1.3-.3C650.5,164,648.4,160.1,647.5,155.9Z"/>
    <path class="cls-2" d="M1,119c9.3-13.3,18.9-15.8,33.9-7.8s28,20.8,35.4,37.4c6,13.6,11.4,27.5,15,42.1,1.6-.6,1.5-2,1.9-3.2,8.5-25.8,13.8-52.4,19.8-78.8,2.5-11,6.3-21.4,13.2-30.4,9-11.7,13.9-25.2,19-38.8a105.2,105.2,0,0,1,11.6-23.1c.9-1.4,1.9-2.7,3-4C161.5,3,173.2-.6,182,3.7s13.8,15.9,11.4,27.9a135,135,0,0,1-15,40c-1.5,2.7-2,5.5-2.6,8.5a90.3,90.3,0,0,1-9.4,26.2,49.1,49.1,0,0,0-5.6,18.4c-1,8.1-2.8,16.1-4.4,24.5,2.4-.5,2.2-2.5,2.6-3.8,3.8-12.4,8.5-24.5,13.2-36.5a17.4,17.4,0,0,1,2.4-4.3C190.4,84,208,65.1,223.3,44.3c5.7-7.8,13.5-13.8,21-19.9s17.1-6.9,24.9-1.5a21.8,21.8,0,0,1,7.9,24.8A144.6,144.6,0,0,1,254,88.2a370.7,370.7,0,0,0-26.5,38.1,22.3,22.3,0,0,0-3,6.5c1.8.8,1.9-.6,2.5-1.2,18.8-19.2,35.2-40.4,51.7-61.6a28.2,28.2,0,0,1,12.5-9.6c13.1-4.9,23.1,1.1,24.6,15a40.5,40.5,0,0,1-4.2,23.7c-5,9.4-10.4,18.6-17.5,26.6-3.6,4-4.9,9.4-8,13.8-14.8,20.7-27.1,43-38.9,65.5l-1.4,2.6c2.1.9,2.9-.6,3.6-1.8,16.6-26.9,41.1-47.2,60.1-72a25.4,25.4,0,0,1,6.3-5.6c8.8-5.7,18.3-3,22.9,6.5a26.9,26.9,0,0,1,2,19.4c-2.8,10.4-7.1,20.1-14.2,28.3-9.2,10.6-14.6,24-24.7,33.8-5.5,5.4-8.2,12.1-11.6,18.8-8.6,17-13.4,35.4-19.9,53.1-3.8,10.2-4.4,21.5-7.1,32.1a250.9,250.9,0,0,1-42.3,88A160.1,160.1,0,0,0,195,462c-3.8,13.4-8.5,26.6-12.6,39.9A13.9,13.9,0,0,1,178,509h-1l-4-3-.2-1c-.1-2.6.9-4.9,1.6-7.3,4.8-15.2,10.3-30.2,14.4-45.6,4.6-17.4,13.1-32.3,23.7-46.7,23.9-32.6,40.6-68.5,47.3-108.8.5-3-.3-4.7-2.7-6.6-9.6-7.6-21.1-11.1-32-15.9-12.6-5.6-25.1-11.5-36.5-19.5a76.5,76.5,0,0,1-24.6-28.4c-1.4-2.8-1.4-5.3,1.6-6.8s4.8.1,6.2,2.5l1,1.8a64.2,64.2,0,0,0,19.4,22.5c10,7.3,21,12.7,32.2,17.9,12.9,6,26.9,9.8,38.4,19.2,4.1-8.2,6.3-16.7,8.9-25.1.9-3,.4-4.9-1.9-6.9a100.3,100.3,0,0,1-14.9-16.8c-1.7-2.4-1.9-4.7.6-6.6s4.7-.9,6.5,1.3l2.7,3.6c3.7,4.5,7.4,8.9,12.3,12.9,3.1-7.7,6.1-14.9,9-22.1.5-1.2,1.6-2.7-.6-3.8-6.8-3.4-11.2-9.3-15.9-14.9-1.3-6.2.3-7.9,6.5-6.5,4,5.3,7.8,10.8,14,13.9,1.7.9,3.1,1.7,4.8-.2a125.2,125.2,0,0,0,11.5-15.1c1-1.6,1.2-2.4-1-3.2-6.3-2.1-11-6.6-16-10.8-1.6-1.9-3.3-3.9-1.9-6.6s3.6-2.6,6-2c4.7,4.7,9.4,9.5,16,11.6,1.2.4,2.5,1.6,4-.2,8.3-10.6,16.8-21.2,19.5-34.9,1.1-5.4.8-10.6-3.8-14.7-2.5-3.3-5.4-2.9-8.2-.6a55.3,55.3,0,0,0-5.9,6.1c-7.9,9-14.7,18.9-23.4,27.2-16.6,15.6-29.2,34.4-41.9,53.1-2.6,2.3-3.7,7.2-8.3,5.9s-7-4.8-8.1-9.3a4.3,4.3,0,0,1-.2-1.5c.2-2-.8-2.9-2.5-3.6-7.5-3-13.5-8.3-19.5-13.5-3.3-2.8-3.9-5.6-.5-8.7h.3l.2-.3c2.8-.4,4.7,1.1,6.6,2.8a74,74,0,0,0,15.3,11.1c2.7,1.4,4.3,1.1,5.8-1.8,4-8,8.4-15.8,12.6-23.7l8-15c-9.4-1.5-16.1-6.5-22.3-12.4l-1.8-2.3c-1.6-2-3.3-4-1.4-6.7s4.5-2.2,7-.7c4.9,7.1,11.1,12.2,20,13.5,1.7.2,3.5.7,4.9-1.2,5.8-8.1,11.6-16.1,16.2-25.2A39.6,39.6,0,0,1,261,118c-1.1-2.1-2-4.2-.2-6.3s4-1.8,6.2-.7c4.3,5.8,10.4,8.5,17.3,9.6a3.6,3.6,0,0,0,3.9-1.3,101.2,101.2,0,0,0,17.6-29.2,30,30,0,0,0,1.9-13.7c-.4-4.1-1.6-7.9-6.8-8.3s-10.8,1.9-14.5,6.6c-15.6,19.7-30.6,39.9-48.1,57.9a54.7,54.7,0,0,0-8.6,12.1c-8.2,15-15,30.7-22.3,46.2-4.6,3.1-8.6,1.5-11.9-2a10,10,0,0,0-5.2-3.3,82.1,82.1,0,0,1-24.9-10.8c-2-4-.8-6.5,3.4-7.7,7.4,3.3,14.3,7.8,22.3,9.6,1.9.4,3.6,1.3,5-1.4a348.3,348.3,0,0,0,18.3-41.4c.7-1.9.3-2.6-1.7-3-9-1.8-16.8-6.1-23.7-11.9-3.2-5.1-2.7-6.6,2.9-8.6,1.6,1.1,3.4,2.1,4.9,3.4a40.4,40.4,0,0,0,19.2,8.8c1.5.3,2.9.8,3.9-1,6.1-9.9,12.3-19.6,19.5-29.2-9.6-2.3-17.7-6.3-24.5-12.8-1.2-1.9-2.6-3.6-2.3-6.7a344.8,344.8,0,0,0-23,26.6c-3.4,4.5-7.8,8.3-9.9,13.7-4.4,11-8.4,22-12.1,33.2-3.1,9.4-4.3,19.1-6.6,28.6-7.3,3.8-13.5,2.7-17.8-3.9-1.5-2.3-3-2.2-4.9-1.9-8.5,1-17,.7-25.4.9-4.5-4.3-4-6.7,2-9.1a184.8,184.8,0,0,0,26.3-.9c2-.2,3.2-.6,3.8-2.9a350,350,0,0,0,7.3-37.5c.3-2.3-.4-2.9-2.5-2.9-8.4-.2-16.3-2.8-23.9-6.2-2.6-1.6-5.8-3.1-4.1-7s4.3-2.8,7.1-1.7c7.1,3.9,14.6,6.3,22.8,6.2,2.3-.1,4.1-.4,5.3-2.8,4-8,7.6-16.3,9.6-25.1.4-1.6.7-2.8-1.7-3-7.4-.6-14-3.9-20.9-6.4-1.9-1.7-3.9-3.3-2.4-6.3s3.5-2.7,6-2.1l2.3.7a47.2,47.2,0,0,0,15.9,5.2c3.1.5,4.8-.5,6.3-3.3a141.6,141.6,0,0,0,12.5-34.4,26.9,26.9,0,0,0,.3-9.4c-.8-5.6-4.2-9-10-9.9s-10.7,2.4-14.4,6.8C153.8,26.1,149.7,36,146.1,46c-4.7,13-9.9,25.7-18.4,36.8-6,7.9-9.7,17-11.8,26.7-7.3,33.4-15,66.8-26.1,99.2-1.4,4.2-1.9,7.9,1.1,11.4,1.3,3.4,3.7,5.9,6.1,8.4s3.7,4.7,1.1,7.3-5.5,1.1-7.7-1.3a23.5,23.5,0,0,1-3.6-4.2c-2.1-3.7-3.9-4.5-7-.8s-7.1,5.4-11,7.6-5,1.3-6.5-1.3-.4-4.7,2.1-6.3,6.5-4,9.5-6.3,6.9-6.3,6.4-10.2c-1.4-10.8-3.5-21.6-7.3-32-.6-1.7-1.2-2.1-2.7-1.1-4.1,2.9-8.8,3.6-13.6,4.3-3.1.4-5.9.9-6.9-2.7s1.6-5.2,4.8-6.1,8.2-1.5,11.8-3.9c1.3-.9,2.8-1.5,1.9-3.9-4.3-11-7.9-22.3-16-31.3S35,118.7,22,116.1c-4.5-1.6-8.2-.3-11.1,3.3s.1,6.1,1.8,8.5c15.4,21.5,23.1,45.7,25.8,71.9,1.9,18.3,1.5,36.6,2.1,54.9a67.4,67.4,0,0,0,5.4,24.7c3.7,8.5,7.4,17.1,10.4,25.9,9.4,26.6,16.5,53.7,17.1,82.2.7,31.9-10.7,60.9-20.9,90.3-2.1,1.4-4.3,2.1-6.3.1s-1.5-3.8-.8-6q5-14.9,9.9-29.8c6.6-20.2,10.5-40.9,8.9-62.3-2.3-31-10.8-60.5-23.1-88.8-6.5-14.8-10.4-29.7-9.6-45.8.3-6-.1-12-.2-18-.4-36.6-7.3-71.3-30.5-101ZM262,29c-3.8-2.3-7.3-1.4-10.5,1s-6.2,4.9-9.2,7.5c-11,9.4-19.6,20.8-27.9,33.6,3.6-1,5.6.2,7.5,2,4.8,6.4,12.1,8.3,19.3,10.6,3.1,1,5.1.5,7.1-2.3a158.8,158.8,0,0,0,19.9-35C271.4,38.4,269.7,33.5,262,29ZM224.9,134.6l-.4-.6c-.1.1-.3.2-.3.3a3.1,3.1,0,0,0,.3.7Z"/>
    <path class="cls-1" d="M749.4,477.6c2.1,1.5,4.3,2,6.3.1s1.4-3.8.7-6c-5.1-16.5-11.5-32.6-15.4-49.4-6.6-28.1-3.7-55.8,3.4-83.4a360.1,360.1,0,0,1,20.1-57.2,68.1,68.1,0,0,0,5.7-26.6c.5-21.4.1-42.9,3.5-64.2,2.9-17.8,7.5-34.7,18-49.6,3.4-4.8,6.2-10.1,9.3-15.2q0,189.2.1,378.5c0,3.7-.8,4.6-4.6,4.6q-85.7-.2-171.5-.1c1.7-1.4,4.3-2,4.4-4.9l9.5-.3c8,.5,15.8-1,23.8-1.8a259.7,259.7,0,0,0,62.3-14.5C733.2,484.5,741.2,480.9,749.4,477.6Z"/>
    <path class="cls-1" d="M1,126c23.1,29.8,30.1,64.4,30.5,101,.1,6,.5,12,.2,18-.8,16.1,3.2,31.1,9.6,45.8,12.4,28.3,20.8,57.8,23.1,88.8,1.6,21.4-2.3,42.1-8.9,62.3q-4.9,14.9-9.9,29.8c-.7,2.2-1.1,4.3.8,6s4.2,1.3,6.3-.1l8.2,4.2,4.4,2.3a251.6,251.6,0,0,0,61.1,19.1,157.3,157.3,0,0,0,45.6,2l.9.7,4,3q-86,0-172,.1c-3.4,0-4.1-.7-4.1-4.1Q1.1,315.5,1,126Z"/>
    <path class="cls-3" d="M749.4,477.6c-8.1,3.3-16.2,6.8-24.4,9.9A259.7,259.7,0,0,1,662.7,502c-7.9.8-15.7,2.4-23.8,1.8a31.3,31.3,0,0,0-.7-3.4c-5.3-17.1-10.9-34.1-16-51.3-4.6-15.3-10-29.8-20-42.9-27.1-35.4-45.5-75-52.3-119.4,3.1-3,7.1-4.2,10.9-5.9,16.9-7.3,34.1-14.1,49.6-24.3,12-7.9,20.3-19.1,27.7-31,1.5-2.4,1-4.6-1.2-6.1s-4.5-.8-6.1,1.4-4,5.8-5.9,8.7c-11.1,17.3-28.6,25.9-46.4,34-10.1,4.6-20.4,8.9-30.6,13.3-1.7-1.5-2.2-3.6-3.1-5.5-3.6-7.8-4.8-16.4-7.9-24.4l10-12.2c1.9-2.3,2.5-4.8-.1-6.9s-4.9-.8-6.8,1.4l-6.3,7.6a2.2,2.2,0,0,1-1.9-1.3c-3-6.8-6.3-13.4-7.9-20.7,2.7-3.3,5.6-6.6,8.2-9.9s2-4.7-.5-6.6-4.7-1-6.5,1.2-5,7.5-9.1,9.6c-.2-2.5-1.6-4.2-3.2-5.9a72.7,72.7,0,0,1-9.1-12.8l9-7.7c2.5-2,3.3-4.4,1.9-7.4l1.1-1.4c10,9.6,17.9,20.9,25.9,32.1,4.1,5.8,8.3,11.6,12.4,17.4s7.7,5.6,11.9.6c.8-1,1.9-2.2,2-3.4.2-5.7,4.2-7.7,8.5-9.9s10.3-7.2,15-11.4c2.2-2,3.5-4.3,1.3-6.9s-4.9-1.6-7.4.5-7.4,7.2-12.3,9.2A7.9,7.9,0,0,0,572,198c-3.4-6.2-6.9-12.4-10.1-18.7s-7-11.5-8.8-18.1a50.4,50.4,0,0,0,13.6-11.3c2-2.4,3.9-5,.8-7.7s-5.4-.7-7.5,1.9-6.3,7.2-10.9,9.1c-.6-.2-1.5-.2-1.8-.6-6.4-8.3-13-16.5-17.2-26.3,3.9-2.3,7.7-4.6,10.6-8.1s2.4-4.5.3-6.7-4.5-1.6-6.5.5-5.4,5.5-9.3,6.4l-2-2.8c-10.7-14.2-21.9-28.3-20.1-47.8,5.6-.4,9.3,2.8,12.5,6.8,12.3,15.3,23.1,32,37.2,45.6,19,18.5,28.4,42.2,39.3,65.3,4,8.5,8.8,9.4,15.2,2.3,1.4-1.6,3-1.9,4.7-2.3a89,89,0,0,0,22-9.2c2.9-1.6,4.7-3.7,2.9-6.8s-4.6-2.4-7.4-.9-7.7,4.6-12.1,5.6a5.5,5.5,0,0,1-2.6-2.9c-4.2-8.3-8.5-16.6-11.8-25.3-2.2-5.7-5.7-10.9-6-17.3,5.5-2.6,10.9-5.4,15.5-9.7,2.1-2,3.7-4.2,1.4-6.8s-4.9-1.9-7.3.2-8,6.5-13.1,7.8A365.5,365.5,0,0,1,573,89.1c5-2.6,9.9-5.4,13.8-9.7a8,8,0,0,0,2.3-6.9c6.3,7.2,11.7,13.8,17.6,20,20,21.1,26.6,48,32.6,75.2.8,3.6,0,8,5.2,9.1s10.1.4,13-4.1,5.1-3.6,8.7-3.4c6.8.5,13.6.5,20.4.8,2.9.1,5.1-.9,5.3-4s-2.1-4.7-5-4.9c-6.6-.5-13.3.5-19.9-.9a16.6,16.6,0,0,0-.6-4.9c-2.8-13-7.3-25.7-7.3-39.3a73.6,73.6,0,0,0,17.7-6.2c2.7-1.4,4.9-3.3,3.3-6.6s-4.4-2.8-7.2-1.5c-5.1,2.4-10,5.1-15.8,5.2C651.9,97,646.7,87,644,76c4.4-1.8,8.9-3.5,13.2-5.4,2.6-1.1,4.6-3,3.1-6.2s-4-2.9-6.7-1.9-7.5,3.5-11.6,4.2c-5.9-10.9-11.1-22.2-14.4-34.3-1.9-7-4.1-14-1.7-21.4,6.5-1.9,10.9,1.6,14.8,5.9,6.2,7,10,15.3,13.1,23.9,6,16.6,13.1,32.6,23.7,47,7.2,9.9,8.9,22.1,11.3,33.8a825.1,825.1,0,0,0,24.4,90.4,5.5,5.5,0,0,1-.2,4.2,33.9,33.9,0,0,1-8.2,12.4c-2.3,2.2-3.6,4.8-.9,7.3s5.2,1.1,7.3-1.2,4.7-5.5,7.2-8.4a55.4,55.4,0,0,0,12.9,10c3,1.7,6.1,3.3,8.2-.5s-1-5.6-3.9-7.3c-5.3-3.1-10.7-6.2-13-12.5,3.5-.6,2.8-3.8,3.2-5.9a178.5,178.5,0,0,1,8.2-28.3c4,1.6,8.3,1.9,12.5,2.7s5-.3,5.7-3.3-1-4.6-3.8-5.4l-10.4-3c.5-7.5,4.7-13.8,6.9-20.7s5.9-12.1,7.6-18.6h.1c1.2.3,1.4-.5,1.5-1.5a54.4,54.4,0,0,1,22.9-15.4c2.8-1,5.7-1.7,8.8-.8,6,1.6,7.4,5.3,4.4,10.8-6.1,11-14.2,21-18.1,33.2-7,21.4-9.7,43.5-10.2,65.9,0,.8-.1,1.7,0,2.5a147.5,147.5,0,0,1-13,69.2,241.3,241.3,0,0,0-20.1,83.5c-1.6,25.6,4.2,49.9,12.6,73.8ZM660.2,240.1l-.7-.7c1.1-2.7.6-5.1-2.2-6.3s-4.8.4-6.3,2.7c-6.8,10.5-16.2,18.4-26.1,25.9-8.4,6.3-16.9,12.4-24.3,20-2,2.1-3.5,4.4-1.2,6.9s5,1.6,7.4-.6c4.1-3.9,8.3-7.6,12.8-11.2,12.5-9.9,26.3-18.3,35.6-31.8a1.3,1.3,0,0,1,1.8-.4c.4,1.9-1,3.3-1.8,4.8-12.4,23.6-17.4,48.7-16,75.2.2,3.7.5,7.3,1,10.9s2,4.4,4.7,4.2,4.1-2.1,4-4.8-.2-3.7-.4-5.5a135.9,135.9,0,0,1,5.1-53.8c6-19.4,16.8-36.1,29.1-51.9,2.1-2.7,4-5.6.4-8.1s-5.5.1-7.4,2.7Z"/>
    <path class="cls-4" d="M550,286.9c6.8,44.5,25.2,84,52.3,119.4,10,13.1,15.4,27.6,20,42.9,5.2,17.1,10.7,34.2,16,51.3a31.3,31.3,0,0,1,.7,3.4l-9.5.3c-7.2-23-14.6-45.9-21.6-69-2.9-9.6-9.1-16.9-14.8-24.6a294.1,294.1,0,0,1-41.4-77.1c-4.4-12.3-7.1-24.9-9.4-37.7-.4-2.2-.2-3.9,2-5.1S548,288.2,550,286.9Z"/>
    <path class="cls-3" d="M541.1,28.4c3.6-1.5,6.8-.4,9.8,1.8,14.7,11,26.5,24.5,36.7,41-4-1.3-5.9.7-8,2.9A26.2,26.2,0,0,1,566,81.8c-5.3-7.4-10.9-14.6-15.2-22.7C545.7,49.5,539.5,40.1,541.1,28.4Z"/>
    <path class="cls-3" d="M514.6,175.5c-2.8-2.3-5.3-1.6-7.8.7s-5.1,5.5-8.8,6.9c-.4-2.6-2.2-4.4-3.8-6.3-4.6-5.6-9.1-11.4-11.9-18.1S475,143,478,134c2.8.1,4.4,2.2,6,4,10.5,12.1,19.9,25.1,31.7,36.1Z"/>
    <path class="cls-4" d="M541.1,28.4c-1.6,11.8,4.6,21.1,9.7,30.8,4.3,8.1,9.9,15.3,15.2,22.7l-3.2,1.3c-4.7,2.3-7.7.5-10.6-3.6C545.2,69.2,538.8,58.6,534,47,530.4,38.2,532.4,33,541.1,28.4Z"/>
    <path class="cls-4" d="M502.9,67.8c-1.8,19.5,9.4,33.5,20.1,47.8l2,2.8c-9,3.9-9.7,3.8-15.1-3.8-7.2-10.2-14.2-20.4-15.7-33.3C493.3,72.5,495.9,68.3,502.9,67.8Z"/>
    <path class="cls-4" d="M626,11.1c-2.5,7.4-.2,14.4,1.7,21.4,3.3,12.1,8.4,23.3,14.4,34.3l-3.8,1.1c-4.1,1-7,.2-9.1-4.3-5-10.7-9.3-21.6-11.7-33.2S618,13.5,626,11.1Z"/>
    <path class="cls-4" d="M478,134c-3,9,1.1,16.8,4.4,24.7s7.3,12.5,11.9,18.1c1.6,1.9,3.3,3.7,3.8,6.3l-2.4,1.6c-3.8,2.3-6.3,2-9.3-2.1-7-9.6-14.1-18.9-16.8-30.8-1.2-5.3-1.1-10.3,2.3-14.7C473.3,135.1,475,133.1,478,134Z"/>
    <path class="cls-4" d="M596.9,128.8c.3,6.3,3.8,11.6,6,17.3,3.3,8.7,7.6,16.9,11.8,25.3a5.5,5.5,0,0,0,2.6,2.9c-10,4.4-10,4.4-14.8-5.2a334.6,334.6,0,0,1-14.6-33.8c-1-2.7-1.3-4.2,2.3-4.6A42.3,42.3,0,0,0,596.9,128.8Z"/>
    <path class="cls-4" d="M553,161.2c1.8,6.6,5.8,12.1,8.8,18.1s6.7,12.5,10.1,18.7a7.9,7.9,0,0,1,1.1,4.3l-3.2,2.3c-3.1,2.1-5,1.5-6.8-2-6.5-12.6-13.4-25.1-20.1-37.7Z"/>
    <path class="cls-4" d="M659,116.1c0,13.6,4.5,26.3,7.3,39.3a16.6,16.6,0,0,1,.6,4.9c-9.1,0-9.1,0-11.3-8.7a300.5,300.5,0,0,1-5.9-30.6c-.4-3.1-.3-4.7,3.3-4.4A34.3,34.3,0,0,0,659,116.1Z"/>
    <path class="cls-4" d="M573,89.1a365.5,365.5,0,0,0,20.3,31.1c-9.8,3.9-9.8,3.9-15.2-4.6s-10-15.2-15.2-23.2Z"/>
    <path class="cls-4" d="M644,76c2.7,11,7.9,21.1,13,31.1-9,2.2-10.4,1.5-14.3-6.6a107.9,107.9,0,0,1-6.9-18.6c-.9-3.4-1-5.4,3.3-5.2A25.7,25.7,0,0,0,644,76Z"/>
    <path class="cls-4" d="M530,126.2c4.2,9.8,10.8,18,17.2,26.3.3.4,1.2.4,1.8.6-2.8,2.1-6.1,2.2-9.4,2.8a3.1,3.1,0,0,1-3.4-1.5c-5.8-7.9-11.5-15.9-16.1-25Z"/>
    <path class="cls-4" d="M537.1,247.1c3.1,8,4.3,16.5,7.9,24.4.9,1.9,1.4,4.1,3.1,5.5l-8.7,6.2c-4.5-8.8-6.9-18.1-9.4-27.3-.8-2.8,1.7-3.7,3.1-5.2S535.7,248.3,537.1,247.1Z"/>
    <path class="cls-4" d="M524,215c1.6,7.3,4.9,13.9,7.9,20.7a2.2,2.2,0,0,0,1.9,1.3c-8,9.9-8,9.9-12.9-1.6l-1.9-4.6C515.1,221,515.1,221,524,215Z"/>
    <path class="cls-4" d="M503.7,190.6a72.7,72.7,0,0,0,9.1,12.8c1.6,1.7,3,3.5,3.2,5.9-6.4,5.3-6.5,5.4-11.6-.9-2.9-3.6-5.5-7.4-8.3-11.2-1.4-1.9-1.3-3,1.3-3.8A47.4,47.4,0,0,0,503.7,190.6Z"/>
    <path class="cls-4" d="M752.5,133.6c-1.6,6.6-5.5,12.2-7.6,18.6s-6.4,13.2-6.9,20.7c-4.6-1.2-5.1-3.5-3.4-8C739.1,153.6,743.3,142.2,752.5,133.6Z"/>
    <path class="cls-4" d="M734,181.9a178.5,178.5,0,0,0-8.2,28.3c-.4,2.1.3,5.3-3.2,5.9-.8-1.2-1.5-2.3-1.2-4a286.9,286.9,0,0,1,6.4-28.5C729.3,178.7,730.9,178.8,734,181.9Z"/>
    <path class="cls-5" d="M647.5,155.9c.8,4.2,2.9,8.1,2.3,12.6l-1.3.3-2.5-12.6Z"/>
    <path class="cls-1" d="M645.6,148.5c.4,1.3,1,2.6.5,4.2-1.6-.7-1-2.3-1.5-3.4Z"/>
    <path class="cls-1" d="M577.3,132.7c.8.9,1.4,2.4.4,2.9s-.8-1.4-1.3-2Z"/>
    <path class="cls-4" d="M754,132.1c-.1.9-.3,1.7-1.5,1.5Z"/>
    <path class="cls-5" d="M172.1,505.3a157.3,157.3,0,0,1-45.6-2,251.6,251.6,0,0,1-61.1-19.1l-4.4-2.3c4.7-14.2,10-28.2,14.2-42.5,7.1-24.7,11.2-49.6,7-75.5a308.2,308.2,0,0,0-22-75.2c-5.9-13.4-9.6-27-9.3-41.8a288.1,288.1,0,0,0-.7-33.9c-1.2-13.1-3.3-25.9-5.6-38.8-3-16.3-12.1-29.7-20.6-43.4-3-4.8-3.9-9.4-2-14.6,13,2.6,22,11.1,30.4,20.4s11.7,20.3,16,31.3c.9,2.3-.5,3-1.9,3.9-3.5,2.4-7.8,2.7-11.8,3.9s-5.9,2.2-4.8,6.1,3.9,3.1,6.9,2.7c4.8-.7,9.6-1.3,13.6-4.3,1.5-1.1,2.1-.7,2.7,1.1,3.8,10.3,5.9,21.1,7.3,32,.5,3.8-3,7.6-6.4,10.2s-6.3,4.3-9.5,6.3-3.6,3.7-2.1,6.3,3.9,2.8,6.5,1.3,8.1-4.2,11-7.6,4.9-2.9,7,.8a23.5,23.5,0,0,0,3.6,4.2c2.2,2.4,4.8,4.2,7.7,1.3s1.1-5.1-1.1-7.3-4.9-5-6.1-8.4c0-1.6,1.4-2.1,2.3-3,3.7-3.4,7.4-6.8,9.3-11.5A173.5,173.5,0,0,0,113,170.1c8.5-.2,17,.1,25.4-.9,1.9-.2,3.5-.4,4.9,1.9,4.2,6.6,10.5,7.7,17.8,3.9l4.4-.4a82.1,82.1,0,0,0,24.9,10.8,10,10,0,0,1,5.2,3.3c3.3,3.5,7.3,5.1,11.9,2l3,.4c-3.4,3.1-2.8,5.9.5,8.7,6,5.2,12,10.5,19.5,13.5,1.7.7,2.8,1.6,2.5,3.6a4.3,4.3,0,0,0,.2,1.5c1.1,4.5,3.6,8.1,8.1,9.3s5.7-3.6,8.3-5.9c2.4.4,3.4-1.6,4.8-2.8,5.1-4.6,9.3-10.1,14.9-14.2,4.7,5.6,9.1,11.5,15.9,14.9,2.1,1.1,1.1,2.5.6,3.8-2.9,7.2-5.9,14.5-9,22.1-5-3.9-8.7-8.4-12.3-12.9l-2.7-3.6c-1.8-2.2-4-3.2-6.5-1.3s-2.2,4.2-.6,6.6a100.3,100.3,0,0,0,14.9,16.8c2.3,2.1,2.8,3.9,1.9,6.9-2.6,8.4-4.7,16.9-8.9,25.1-11.5-9.3-25.5-13.2-38.4-19.2-11.2-5.2-22.2-10.6-32.2-17.9a64.2,64.2,0,0,1-19.4-22.5l-1-1.8c-1.4-2.4-3.4-3.9-6.2-2.5s-3,4-1.6,6.8a76.5,76.5,0,0,0,24.6,28.4c11.3,8,23.8,13.9,36.5,19.5,10.9,4.8,22.5,8.3,32,15.9,2.4,1.9,3.2,3.6,2.7,6.6-6.6,40.2-23.4,76.2-47.3,108.8-10.6,14.4-19,29.3-23.7,46.7-4.1,15.4-9.6,30.4-14.4,45.6-.8,2.4-1.7,4.7-1.6,7.3ZM143.9,243c2.1-.8,2.2,1.4,2.9,2.3a94.5,94.5,0,0,0,10.9,12.2c12.3,10.9,26.5,19.5,38.2,31.2,2,2,4.6,2.2,6.6-.1s1.4-4.3-.5-6.2a158.3,158.3,0,0,0-14.2-12.5c-12.8-10-26.8-18.7-35.9-32.7-1.6-2.5-3.3-5.3-7.1-4.1s-2.4,4.5-2.9,7c-1.3-.4-1.5-1.7-2.2-2.6l-14.5-20.3c-1.8-2.5-4.2-3.4-6.8-1.4s-2,4.4-.3,6.6l6.6,8.8c12.7,17.3,22.6,36,26.7,57.4a145.7,145.7,0,0,1,1.5,44.7c-.4,3.1.2,6,3.8,6.4s4.7-2.3,5.1-5.4c3.3-30.2-1.3-59-15.8-86C145.2,246.7,143.5,245.2,143.9,243Z"/>
    <path class="cls-4" d="M22,116.1c-1.9,5.2-1,9.8,2,14.6,8.4,13.7,17.6,27,20.6,43.4,2.4,12.9,4.4,25.7,5.6,38.8a288.1,288.1,0,0,1,.7,33.9c-.4,14.8,3.3,28.4,9.3,41.8a308.2,308.2,0,0,1,22,75.2c4.2,25.9.1,50.8-7,75.5-4.1,14.4-9.5,28.3-14.2,42.5l-8.2-4.2c10.2-29.3,21.7-58.4,20.9-90.3-.7-28.4-7.7-55.6-17.1-82.2-3.1-8.8-6.8-17.3-10.4-25.9a67.4,67.4,0,0,1-5.4-24.7c-.6-18.3-.2-36.6-2.1-54.9-2.7-26.2-10.4-50.3-25.8-71.9-1.7-2.4-4.5-5.1-1.8-8.5S17.5,114.5,22,116.1Z"/>
    <path class="cls-4" d="M113,170.1a173.5,173.5,0,0,1-10.5,35.6c-1.9,4.7-5.7,8.1-9.3,11.5-1,.9-2.3,1.4-2.3,3-3-3.6-2.5-7.2-1.1-11.4,11-32.4,18.7-65.8,26.1-99.2,2.1-9.7,5.8-18.8,11.8-26.7C136.1,71.7,141.4,59,146.1,46c3.6-10,7.7-19.9,14.5-28.2,3.6-4.4,7.8-8.3,14.4-6.8-12.8,15.2-18.4,33.8-25,52l-2.3-.7c-2.4-.6-4.6-.5-6,2.1s.5,4.6,2.4,6.3c-1.1,5.4-5.3,9-7.8,13.6S129.4,95,129,101.7c-2.8-1-5.6-1.6-7.1,1.7s1.5,5.4,4.1,7c-1.7,7-3.6,14-5,21.1-1.9,9.8-5.2,19.4-6.1,29.4C109,163.4,108.5,165.8,113,170.1Z"/>
    <path class="cls-3" d="M189.2,118.9c7,5.8,14.8,10.1,23.7,11.9,2,.4,2.4,1.1,1.7,3a348.3,348.3,0,0,1-18.3,41.4c-1.4,2.6-3.1,1.8-5,1.4-8.1-1.7-14.9-6.3-22.3-9.6a8.2,8.2,0,0,1,.2-2c5-15,11.8-29.3,17.4-44.1A2.8,2.8,0,0,1,189.2,118.9Z"/>
    <path class="cls-3" d="M115,161c.9-10,4.2-19.6,6.1-29.4,1.4-7.1,3.3-14.1,5-21.1,7.6,3.4,15.4,6,23.9,6.2,2.1.1,2.8.6,2.5,2.9a350,350,0,0,1-7.3,37.5c-.6,2.3-1.8,2.7-3.8,2.9A184.8,184.8,0,0,1,115,161Z"/>
    <path class="cls-3" d="M262,29c7.7,4.5,9.4,9.4,6.2,17.4a158.8,158.8,0,0,1-19.9,35c-2.1,2.8-4.1,3.3-7.1,2.3-7.1-2.3-14.4-4.2-19.3-10.6l3.2-4.4c8.4-12.1,17.3-23.9,28.4-33.8C256.2,32.6,258.6,30.1,262,29Z"/>
    <path class="cls-3" d="M237,152c6.2,6,12.9,10.9,22.3,12.4l-8,15c-4.2,7.9-8.6,15.7-12.6,23.7-1.5,3-3,3.3-5.8,1.8a74,74,0,0,1-15.3-11.1c-1.9-1.7-3.8-3.3-6.6-2.8,3.7-1.6,5.8-4.4,7.6-8,3.6-7.3,7.2-14.6,11.4-21.5C232,158.2,232.4,153.5,237,152Z"/>
    <path class="cls-3" d="M150,62.9c6.6-18.1,12.2-36.8,25-52,5.8,1,9.2,4.3,10,9.9a26.9,26.9,0,0,1-.3,9.4,141.6,141.6,0,0,1-12.5,34.4c-1.5,2.8-3.2,3.8-6.3,3.3A47.2,47.2,0,0,1,150,62.9Z"/>
    <path class="cls-3" d="M215.1,79.6c6.8,6.5,14.8,10.5,24.5,12.8-7.2,9.6-13.4,19.3-19.5,29.2-1.1,1.7-2.4,1.2-3.9,1a40.4,40.4,0,0,1-19.2-8.8c-1.5-1.3-3.2-2.3-4.9-3.4s.9-3.6,2.2-5.2C201.3,96.7,208.2,88.1,215.1,79.6Z"/>
    <path class="cls-3" d="M301,68c5.2.4,6.3,4.2,6.8,8.3a30,30,0,0,1-1.9,13.7,101.2,101.2,0,0,1-17.6,29.2,3.6,3.6,0,0,1-3.9,1.3c-7-1.2-13-3.8-17.3-9.6Z"/>
    <path class="cls-4" d="M301,68,267,111c-2.2-1.1-4.4-1.4-6.2.7s-.9,4.3.2,6.3c-7,7.8-15.6,14.4-20.2,24.2-2.5-1.5-5-2.1-7,.7s-.2,4.7,1.4,6.7L237,152c-4.6,1.5-5,6.2-7.1,9.6-4.2,6.9-7.8,14.2-11.4,21.5-1.7,3.6-3.9,6.4-7.6,8l-.2.3h-.3l-3-.4c7.3-15.5,14-31.2,22.3-46.2a54.7,54.7,0,0,1,8.6-12.1c17.6-18,32.5-38.2,48.1-57.9C290.2,69.9,294.6,66.6,301,68Z"/>
    <path class="cls-3" d="M129,101.7c.3-6.7,4.2-12,7.3-17.6s6.7-8.2,7.8-13.6c6.8,2.5,13.5,5.8,20.9,6.4,2.4.2,2.1,1.5,1.7,3-2,8.8-5.5,17-9.6,25.1-1.2,2.4-3,2.8-5.3,2.8C143.6,108.1,136.1,105.6,129,101.7Z"/>
    <path class="cls-3" d="M240.9,142.2c4.6-9.9,13.1-16.4,20.2-24.2a39.6,39.6,0,0,0,20.9,11.2c-4.6,9.2-10.4,17.2-16.2,25.2-1.4,2-3.1,1.5-4.9,1.2C252,154.5,245.8,149.3,240.9,142.2Z"/>
    <path class="cls-3" d="M329,136c4.6,4,4.9,9.3,3.8,14.7-2.7,13.7-11.2,24.3-19.5,34.9-1.4,1.9-2.7.6-4,.2-6.6-2.1-11.3-6.8-16-11.6,2.1-.6,3.2-2.3,4.6-3.7C309.5,160.3,318.6,147.5,329,136Z"/>
    <path class="cls-4" d="M215.1,79.6c-6.9,8.5-13.8,17.1-20.9,25.6-1.3,1.6-2.7,2.9-2.2,5.2-5.6,1.9-6.1,3.5-2.9,8.6a2.8,2.8,0,0,0-2.6,2c-5.7,14.8-12.4,29.1-17.4,44.1a8.2,8.2,0,0,0-.2,2c-4.2,1.2-5.4,3.7-3.4,7.7l-4.4.4c2.3-9.5,3.5-19.3,6.6-28.6,3.7-11.2,7.7-22.3,12.1-33.2,2.2-5.4,6.5-9.2,9.9-13.7a344.8,344.8,0,0,1,23-26.6C212.5,76,213.9,77.7,215.1,79.6Z"/>
    <path class="cls-4" d="M329,136c-10.4,11.5-19.4,24.2-31.1,34.6-1.5,1.3-2.6,3.1-4.6,3.7s-4.7-.5-6,2,.3,4.7,1.9,6.6c-6.6,3.2-9.5,9.7-13.3,15.4-6.1-1.4-7.8.3-6.5,6.5-5.6,4.1-9.8,9.6-14.9,14.2-1.4,1.3-2.4,3.3-4.8,2.8,12.7-18.7,25.3-37.5,41.9-53.1,8.8-8.2,15.5-18.2,23.4-27.2a55.3,55.3,0,0,1,5.9-6.1C323.5,133.1,326.5,132.7,329,136Z"/>
    <path class="cls-3" d="M275.8,198.3c3.8-5.7,6.7-12.2,13.3-15.4,4.9,4.2,9.7,8.7,16,10.8,2.2.7,2,1.6,1,3.2a125.2,125.2,0,0,1-11.5,15.1c-1.7,1.9-3,1.1-4.8.2C283.6,209.1,279.8,203.6,275.8,198.3Z"/>
    <path class="cls-4" d="M262,29c-3.4,1.1-5.8,3.6-8.4,5.9-11.1,9.9-20,21.7-28.4,33.8l-3.2,4.4c-1.9-1.8-3.9-3-7.5-2,8.3-12.8,16.9-24.2,27.9-33.6,3-2.6,6.1-5.1,9.2-7.5S258.2,26.7,262,29Z"/>
    <path class="cls-1" d="M172.1,505.3l.7-.2.2,1Z"/>
    <path class="cls-1" d="M224.9,134.6l-.4.4a3.1,3.1,0,0,1-.3-.7c0-.1.2-.2.3-.3Z"/>
    <path class="cls-2" d="M660.2,240.1l15.7-21.8c1.9-2.7,4.1-5,7.4-2.7s1.7,5.5-.4,8.1c-12.3,15.9-23.1,32.5-29.1,51.9a135.9,135.9,0,0,0-5.1,53.8c.2,1.8.3,3.7.4,5.5s-1.3,4.6-4,4.8-4.4-1.6-4.7-4.2-.8-7.3-1-10.9c-1.5-26.5,3.6-51.6,16-75.2.8-1.5,2.3-2.9,1.8-4.8a1.3,1.3,0,0,0-1.8.4c-9.4,13.4-23.1,21.9-35.6,31.8-4.5,3.5-8.7,7.2-12.8,11.2-2.3,2.2-4.9,3.3-7.4.6s-.9-4.8,1.2-6.9c7.3-7.6,15.9-13.7,24.3-20,9.9-7.5,19.3-15.3,26.1-25.9,1.5-2.3,3.5-3.9,6.3-2.7s3.3,3.5,2.2,6.3l-.6,1.3c-.7.5-1.9,1.3-.9,2.1s1.2-.8,1.7-1.4Z"/>
    <path class="cls-2" d="M143.9,243c-.4,2.2,1.3,3.7,2.2,5.3,14.5,27,19.1,55.7,15.8,86-.3,3.1-1.5,5.8-5.1,5.4s-4.2-3.3-3.8-6.4a145.7,145.7,0,0,0-1.5-44.7c-4.2-21.3-14-40-26.7-57.4l-6.6-8.8c-1.7-2.3-2.2-4.7.3-6.6s5-1.1,6.8,1.4l14.5,20.3c.7.9.9,2.2,2.2,2.6h-.1c.1.6-.2,1.7,1.1,1.1H143c-.9,1.3-.3,1.9,1,2.1Z"/>
    <path class="cls-2" d="M142,240.1c.5-2.5-.7-5.8,2.9-7s5.5,1.6,7.1,4.1c9.1,14,23.2,22.7,35.9,32.7a158.3,158.3,0,0,1,14.2,12.5c1.9,1.9,2.4,4.1.5,6.2s-4.6,2.1-6.6.1c-11.7-11.7-25.9-20.3-38.2-31.2a94.5,94.5,0,0,1-10.9-12.2c-.7-.9-.8-3.1-2.9-2.3h.1c1-1.3.1-1.8-1-2.1h.1c-.1-.7.2-1.7-1.1-1.1Z"/>
    <path class="cls-3" d="M659.6,241.5c-.5.6-.6,2.2-1.7,1.4s.2-1.5.9-2.1Z"/>
    <path class="cls-3" d="M658.8,240.8l.6-1.3.7.7-.5,1.4Z"/>
    <path class="cls-5" d="M143,240.9c1.1.3,2,.8,1,2.1C142.7,242.8,142.1,242.2,143,240.9Z"/>
    <path class="cls-5" d="M141.9,240c1.3-.6,1.1.4,1.1,1.1S142,240.6,141.9,240Z"/>
  </g>
</svg>
