<svg id="master-artboard" xmlns="http://www.w3.org/2000/svg" width="981.1" height="806.3" viewBox="0 0 981.1 806.3">
  <defs>
    <style>
      .cls-1 {
        fill: #4d2c2b;
      }

      .cls-2 {
        fill: #723d3d;
      }

      .cls-3 {
        fill: #e5d2bb;
      }

      .cls-4 {
        fill: #fff;
      }

      .cls-5 {
        fill: #e18214;
      }

      .cls-6 {
        fill: #401e0a;
      }

      .cls-7 {
        fill: #efa72e;
      }

      .cls-8 {
        fill: #eed563;
      }
    </style>
  </defs>
  <title>ruru</title>
  <path class="cls-1" d="M498.8,667.1c33.1,0,59.7,31.4,59.7,69.6s-26.6,69.6-59.7,69.6-59.3-31-59.3-69.6,26.6-69.6,59.3-69.6Z"/>
  <path class="cls-1" d="M405.7,631.6c32.7,0,59.3,31.4,59.3,69.6s-26.6,69.9-59.3,69.9S346,739.8,346,701.2s26.9-69.6,59.7-69.6Z"/>
  <path class="cls-1" d="M591.9,631.6c32.7,0,59.3,31.4,59.3,69.6s-26.6,69.9-59.3,69.9-59.3-31.4-59.3-69.9,26.6-69.6,59.3-69.6Z"/>
  <path class="cls-1" d="M697.7,465.6s100.6-35.5,48.1-136.8c0,0,83.9-48.8,137.8-59s87.7,42.6,26.9,78.4c102.3-19.4,88.3,103.7-9.2,94.1,105.4,44.7,30,146-38.2,84.6,66.8,80.1-23.2,124.5-65.5,48.8,21.5,74-70.9,107.8-87,7.5-6.8-41.3-13-117.7-13-117.7Z"/>
  <path class="cls-2" d="M629.4,60.4c-60,0-111.9,33.4-138.8,82.5V295.7c26.9,49.1,79.1,82.5,138.8,82.5,87.7,0,158.9-71.3,158.9-158.9A158.7,158.7,0,0,0,629.4,60.4Z"/>
  <path class="cls-2" d="M490.6,399.7c-112.6,0-204-84.2-204-187.6s91.1-187.6,204-187.6,203.6,84.2,203.6,187.6S602.8,399.7,490.6,399.7Z"/>
  <path class="cls-1" d="M283.3,93.5S272,37.9,230.1,13.3c0,0,210.4-65.5,234.7,94.1Z"/>
  <path class="cls-2" d="M351.5,60.4c60,0,111.9,33.4,139.2,82.5V295.7c-27.3,49.1-79.5,82.5-139.2,82.5-87.7,0-158.9-71.3-158.9-158.9A158.7,158.7,0,0,1,351.5,60.4Z"/>
  <path class="cls-2" d="M239.6,121.8s-11.3-55.6-53.5-80.1c0,0,189.6-45.4,278.6,65.8Z"/>
  <path class="cls-2" d="M490.6,696.5c-163,0-295.7-122.1-295.7-272.5S327.6,151.8,490.6,151.8,786,273.9,786,423.9,653.7,696.5,490.6,696.5Z"/>
  <path class="cls-3" d="M490.6,628.9c-122.8,0-222.4-91.4-222.4-205s99.6-204.6,222.4-204.6,222,91.4,222,204.6-99.2,205-222,205Z"/>
  <path class="cls-1" d="M697.7,93.5s11.3-55.6,53.5-80.1c0,0-210.4-65.5-234.7,94.1Z"/>
  <path class="cls-2" d="M741.3,121.8s11.3-55.6,53.5-80.1c0,0-189.6-45.4-278.3,65.8Z"/>
  <path class="cls-1" d="M441.5,376.5s-10.9,17.1-15.3,36.8c-7.8,32.1,38.5,32.1,31,0-4.8-19.8-15.7-36.8-15.7-36.8Z"/>
  <path class="cls-1" d="M441.5,469s-10.9,17.4-15.3,37.2c-7.8,31.7,38.5,31.7,31,0-4.8-19.8-15.7-37.2-15.7-37.2Z"/>
  <path class="cls-1" d="M392.1,422.6s-10.9,17.4-15.3,37.2c-7.8,31.7,38.5,31.7,31,0-4.8-19.8-15.7-37.2-15.7-37.2Z"/>
  <path class="cls-1" d="M540.1,376.5s-10.9,17.1-15.3,36.8c-7.8,32.1,38.5,32.1,31,0-4.8-19.8-15.7-36.8-15.7-36.8Z"/>
  <path class="cls-1" d="M540.1,469s-10.9,17.4-15.3,37.2c-7.8,31.7,38.5,31.7,31,0C551,486.4,540.1,469,540.1,469Z"/>
  <path class="cls-1" d="M490.6,422.6s-10.9,17.4-15.3,37.2c-7.8,31.7,38.5,31.7,31,0-4.8-19.8-15.7-37.2-15.7-37.2Z"/>
  <path class="cls-1" d="M589.2,422.6s-10.6,17.4-15.3,37.2c-7.5,31.7,38.5,31.7,31.4,0-5.1-19.8-16-37.2-16-37.2Z"/>
  <path class="cls-1" d="M490.6,526.9s-10.9,17.4-15.3,37.2c-7.8,31.7,38.5,31.7,31,0-4.8-19.8-15.7-37.2-15.7-37.2Z"/>
  <path class="cls-1" d="M345.7,376.5s-10.9,17.1-15.3,36.8c-7.8,32.1,38.5,32.1,31,0-5.1-19.8-15.7-36.8-15.7-36.8Z"/>
  <path class="cls-1" d="M345.7,469s-10.9,17.4-15.3,37.2c-7.8,31.7,38.5,31.7,31,0-5.1-19.8-15.7-37.2-15.7-37.2Z"/>
  <path class="cls-1" d="M635.2,376.5s-10.9,17.1-15.3,36.8c-7.8,32.1,38.5,32.1,31,0-4.8-19.8-15.7-36.8-15.7-36.8Z"/>
  <path class="cls-1" d="M635.2,469s-10.9,17.4-15.3,37.2c-7.8,31.7,38.5,31.7,31,0-4.8-19.8-15.7-37.2-15.7-37.2Z"/>
  <path class="cls-4" d="M379.1,91.1a128.7,128.7,0,0,1,111.5,64.8,128.2,128.2,0,1,1,0,126.9,128.7,128.7,0,0,1-111.5,64.8c-70.9,0-128.6-57.3-128.6-128.2A128.2,128.2,0,0,1,379.1,91.1Z"/>
  <path class="cls-5" d="M490.6,263s-43,39.2-48.4,63.4c0,0,31,50.1,48.4,65.1Z"/>
  <path class="cls-6" d="M373.6,75.4a128.4,128.4,0,0,1,117,75.4v5.5A128.7,128.7,0,0,0,379.1,91.4c-70.9,0-128.6,57.3-128.6,128.2a115,115,0,0,0,4.4,32.7,126,126,0,0,1-9.5-48.1c0-71.3,57.3-128.9,128.2-128.9Z"/>
  <path class="cls-6" d="M268.3,139.2l-7.5,6.5s-7.2,14.3-21.1.7c0,0-3.4,8.5,1,14.7,0,0-15.7,1.4-25.6-17.7,0,0-5.8,45.4,37.2,44.3.3,0,5.5-31.4,16-48.4Z"/>
  <path class="cls-7" d="M490.6,263s43,39.2,48.1,63.4c0,0-30.7,50.1-48.1,65.1Z"/>
  <path class="cls-6" d="M607.3,75.4a128.3,128.3,0,0,0-116.6,75.4v5.5a128.6,128.6,0,0,1,236,96.2,126,126,0,0,0,9.5-48.1c-.3-71.3-58-128.9-128.9-128.9Z"/>
  <path class="cls-6" d="M712.7,139.2l7.5,6.5s6.8,13.6,20.5.7c0,0,3.4,8.2-1,14,0,0,15.3,1.4,24.9-17.1,0,0,5.5,43.7-36.5,43,0,0-5.1-30.4-15.3-47.1Z"/>
  <path class="cls-8" d="M379.1,128.6a90.7,90.7,0,1,1-90.7,90.7c-.3-50.1,40.6-90.7,90.7-90.7Z"/>
  <path class="cls-4" d="M379.1,139.5c43.7,0,79.5,35.8,79.5,79.8s-35.8,79.8-79.5,79.8a79.8,79.8,0,1,1,0-159.6Z"/>
  <path class="cls-6" d="M379.1,156.5A62.9,62.9,0,1,1,316,219.3c-.3-34.4,28-62.8,63.1-62.8Z"/>
  <path class="cls-4" d="M362.7,179.1a18.3,18.3,0,0,1,18.4,18.4,18.6,18.6,0,1,1-37.2,0,18.4,18.4,0,0,1,18.8-18.4Z"/>
  <path class="cls-8" d="M602.5,128.6a90.7,90.7,0,1,1-90.7,90.7c-.3-50.1,40.6-90.7,90.7-90.7Z"/>
  <path class="cls-4" d="M602.5,139.5a79.8,79.8,0,1,1-79.8,79.8,79.9,79.9,0,0,1,79.8-79.8Z"/>
  <path class="cls-6" d="M602.5,156.5a62.9,62.9,0,1,1-63.1,62.8c-.3-34.4,28-62.8,63.1-62.8Z"/>
  <path class="cls-4" d="M586.1,179.1a18.4,18.4,0,0,1,18.8,18.4,18.7,18.7,0,0,1-18.8,18.8,18.4,18.4,0,0,1-18.4-18.8,18.1,18.1,0,0,1,18.4-18.4Z"/>
  <path class="cls-1" d="M283.6,465.6s-101-35.5-48.4-136.8c0,0-83.9-48.8-137.8-59s-87.3,42.6-26.9,78.4c-102.3-19.4-88,103.7,9.5,94.1-105.4,44.7-30.4,146,38.2,84.6-66.8,80.1,23.2,124.5,65.1,48.8-21.1,74,71.3,107.8,87,7.5,7.2-41.3,13.3-117.7,13.3-117.7Z"/>
</svg>
