<?xml version="1.0" encoding="utf-8"?>
<!-- Generator: Adobe Illustrator 21.0.2, SVG Export Plug-In . SVG Version: 6.00 Build 0)  -->
<svg version="1.1" id="master-artboard" xmlns="http://www.w3.org/2000/svg" xmlns:xlink="http://www.w3.org/1999/xlink" x="0px"
	 y="0px" viewBox="0 0 100 82.2" style="enable-background:new 0 0 100 82.2;" xml:space="preserve">
<style type="text/css">
	.st0{fill:#4D2C2B;}
	.st1{fill:#723D3D;}
	.st2{fill:#E5D2BB;}
	.st3{fill:#FFFFFF;}
	.st4{fill:#E18214;}
	.st5{fill:#401E0A;}
	.st6{fill:#EFA72E;}
	.st7{fill:#EED563;}
</style>
<title>ruru</title>
<path class="st0" d="M50.8,68c3.4,0,6.1,3.2,6.1,7.1s-2.7,7.1-6.1,7.1s-6-3.2-6-7.1S47.5,68,50.8,68z"/>
<path class="st0" d="M41.3,64.4c3.3,0,6,3.2,6,7.1c0,3.9-2.7,7.1-6,7.1s-6.1-3.2-6.1-7.1S38,64.4,41.3,64.4L41.3,64.4z"/>
<path class="st0" d="M60.3,64.4c3.3,0,6,3.2,6,7.1c0,3.9-2.7,7.1-6,7.1c-3.3,0-6-3.2-6-7.1S57,64.4,60.3,64.4z"/>
<path class="st0" d="M71.1,47.5c0,0,10.3-3.6,4.9-13.9c0,0,8.6-5,14-6c5.5-1,8.9,4.3,2.7,8c10.4-2,9,10.6-0.9,9.6
	c10.7,4.6,3.1,14.9-3.9,8.6c6.8,8.2-2.4,12.7-6.7,5c2.2,7.5-7.2,11-8.9,0.8C71.7,55.2,71.1,47.5,71.1,47.5L71.1,47.5z"/>
<path class="st1" d="M64.2,6.2C58,6.2,52.7,9.6,50,14.6v15.6c2.7,5,8.1,8.4,14.1,8.4c8.9,0,16.2-7.3,16.2-16.2
	C80.4,13.4,73.1,6.2,64.2,6.2C64.2,6.2,64.2,6.2,64.2,6.2z"/>
<path class="st1" d="M50,40.7c-11.5,0-20.8-8.6-20.8-19.1S38.5,2.5,50,2.5s20.8,8.6,20.8,19.1S61.4,40.7,50,40.7z"/>
<path class="st0" d="M28.9,9.5c0,0-1.2-5.7-5.4-8.2c0,0,21.4-6.7,23.9,9.6L28.9,9.5z"/>
<path class="st1" d="M35.8,6.2c6.1,0,11.4,3.4,14.2,8.4v15.6c-2.8,5-8.1,8.4-14.2,8.4c-8.9,0-16.2-7.3-16.2-16.2
	C19.6,13.4,26.8,6.2,35.8,6.2C35.8,6.2,35.8,6.2,35.8,6.2z"/>
<path class="st1" d="M24.4,12.4c0,0-1.2-5.7-5.5-8.2c0,0,19.3-4.6,28.4,6.7L24.4,12.4z"/>
<path class="st1" d="M50,71c-16.6,0-30.1-12.4-30.1-27.8S33.4,15.5,50,15.5s30.1,12.4,30.1,27.7S66.6,71,50,71z"/>
<path class="st2" d="M50,64.1c-12.5,0-22.7-9.3-22.7-20.9S37.5,22.4,50,22.4s22.6,9.3,22.6,20.9S62.5,64.1,50,64.1L50,64.1z"/>
<path class="st0" d="M71.1,9.5c0,0,1.2-5.7,5.5-8.2c0,0-21.4-6.7-23.9,9.6L71.1,9.5z"/>
<path class="st1" d="M75.6,12.4c0,0,1.2-5.7,5.5-8.2c0,0-19.3-4.6-28.4,6.7L75.6,12.4z"/>
<path class="st0" d="M45,38.4c0,0-1.1,1.7-1.6,3.8c-0.8,3.3,3.9,3.3,3.2,0C46.1,40.1,45,38.4,45,38.4z"/>
<path class="st0" d="M45,47.8c0,0-1.1,1.8-1.6,3.8c-0.8,3.2,3.9,3.2,3.2,0C46.1,49.6,45,47.8,45,47.8z"/>
<path class="st0" d="M40,43.1c0,0-1.1,1.8-1.6,3.8c-0.8,3.2,3.9,3.2,3.2,0C41.1,44.9,40,43.1,40,43.1z"/>
<path class="st0" d="M55,38.4c0,0-1.1,1.7-1.6,3.8c-0.8,3.3,3.9,3.3,3.2,0C56.2,40.1,55,38.4,55,38.4z"/>
<path class="st0" d="M55,47.8c0,0-1.1,1.8-1.6,3.8c-0.8,3.2,3.9,3.2,3.2,0C56.2,49.6,55,47.8,55,47.8z"/>
<path class="st0" d="M50,43.1c0,0-1.1,1.8-1.6,3.8c-0.8,3.2,3.9,3.2,3.2,0C51.1,44.9,50,43.1,50,43.1z"/>
<path class="st0" d="M60.1,43.1c0,0-1.1,1.8-1.6,3.8c-0.8,3.2,3.9,3.2,3.2,0C61.2,44.9,60.1,43.1,60.1,43.1L60.1,43.1z"/>
<path class="st0" d="M50,53.7c0,0-1.1,1.8-1.6,3.8c-0.8,3.2,3.9,3.2,3.2,0C51.1,55.5,50,53.7,50,53.7z"/>
<path class="st0" d="M35.2,38.4c0,0-1.1,1.7-1.6,3.8c-0.8,3.3,3.9,3.3,3.2,0C36.3,40.1,35.2,38.4,35.2,38.4z"/>
<path class="st0" d="M35.2,47.8c0,0-1.1,1.8-1.6,3.8c-0.8,3.2,3.9,3.2,3.2,0C36.3,49.6,35.2,47.8,35.2,47.8z"/>
<path class="st0" d="M64.7,38.4c0,0-1.1,1.7-1.6,3.8c-0.8,3.3,3.9,3.3,3.2,0C65.9,40.1,64.7,38.4,64.7,38.4z"/>
<path class="st0" d="M64.7,47.8c0,0-1.1,1.8-1.6,3.8c-0.8,3.2,3.9,3.2,3.2,0C65.9,49.6,64.7,47.8,64.7,47.8z"/>
<path class="st3" d="M38.6,9.3c4.7,0,9,2.5,11.4,6.6c3.6-6.3,11.6-8.5,17.8-4.9s8.5,11.6,4.9,17.8s-11.6,8.5-17.8,4.9
	c-2-1.2-3.7-2.8-4.9-4.9c-2.3,4.1-6.7,6.6-11.4,6.6c-7.2,0-13.1-5.8-13.1-13.1C25.5,15.1,31.4,9.3,38.6,9.3
	C38.6,9.3,38.6,9.3,38.6,9.3z"/>
<path class="st4" d="M50,26.8c0,0-4.4,4-4.9,6.5c0,0,3.2,5.1,4.9,6.6V26.8z"/>
<path class="st5" d="M38.1,7.7c5.1,0,9.8,3,11.9,7.7v0.6c-2.3-4.1-6.7-6.6-11.4-6.6c-7.2,0-13.1,5.8-13.1,13.1
	c0,1.1,0.1,2.2,0.4,3.3c-0.6-1.6-1-3.2-1-4.9C25,13.5,30.8,7.7,38.1,7.7L38.1,7.7z"/>
<path class="st5" d="M27.3,14.2l-0.8,0.7c0,0-0.7,1.5-2.2,0.1c0,0-0.3,0.9,0.1,1.5c0,0-1.6,0.1-2.6-1.8c0,0-0.6,4.6,3.8,4.5
	C25.7,19.1,26.3,15.9,27.3,14.2L27.3,14.2z"/>
<path class="st6" d="M50,26.8c0,0,4.4,4,4.9,6.5c0,0-3.1,5.1-4.9,6.6V26.8z"/>
<path class="st5" d="M61.9,7.7c-5.1,0-9.8,3-11.9,7.7v0.6c3.6-6.3,11.6-8.4,17.9-4.8C73,14,75.5,20,74.1,25.7c0.6-1.6,1-3.2,1-4.9
	C75,13.6,69.1,7.7,61.9,7.7L61.9,7.7z"/>
<path class="st5" d="M72.6,14.2l0.8,0.7c0,0,0.7,1.4,2.1,0.1c0,0,0.3,0.8-0.1,1.4c0,0,1.6,0.1,2.5-1.7c0,0,0.6,4.5-3.7,4.4
	C74.2,19,73.7,15.9,72.6,14.2L72.6,14.2z"/>
<path class="st7" d="M38.6,13.1c5.1,0,9.2,4.1,9.2,9.2s-4.1,9.2-9.2,9.2s-9.2-4.1-9.2-9.2l0,0C29.4,17.2,33.5,13.1,38.6,13.1
	L38.6,13.1z"/>
<path class="st3" d="M38.6,14.2c4.5,0,8.1,3.6,8.1,8.1s-3.6,8.1-8.1,8.1c-4.5,0-8.1-3.6-8.1-8.1C30.5,17.9,34.1,14.2,38.6,14.2
	C38.6,14.2,38.6,14.2,38.6,14.2z"/>
<path class="st5" d="M38.6,16c3.5,0,6.4,2.9,6.4,6.4s-2.9,6.4-6.4,6.4c-3.5,0-6.4-2.9-6.4-6.4C32.2,18.8,35.1,16,38.6,16z"/>
<path class="st3" d="M37,18.3c1,0,1.9,0.8,1.9,1.9c0,0,0,0,0,0c0,1-0.8,1.9-1.9,1.9S35,21.2,35,20.1C35,19.1,35.9,18.3,37,18.3
	C36.9,18.3,37,18.3,37,18.3L37,18.3z"/>
<path class="st7" d="M61.4,13.1c5.1,0,9.2,4.1,9.2,9.2s-4.1,9.2-9.2,9.2s-9.2-4.1-9.2-9.2C52.1,17.2,56.3,13.1,61.4,13.1z"/>
<path class="st3" d="M61.4,14.2c4.5,0,8.1,3.6,8.1,8.1s-3.6,8.1-8.1,8.1s-8.1-3.6-8.1-8.1l0,0C53.3,17.9,56.9,14.2,61.4,14.2z"/>
<path class="st5" d="M61.4,16c3.5,0,6.4,2.9,6.4,6.4s-2.9,6.4-6.4,6.4c-3.5,0-6.4-2.9-6.4-6.4C54.9,18.8,57.8,16,61.4,16z"/>
<path class="st3" d="M59.7,18.3c1,0,1.9,0.8,1.9,1.8c0,0,0,0,0,0c0,1.1-0.8,1.9-1.9,1.9c0,0,0,0,0,0c-1,0-1.9-0.8-1.9-1.9
	c0,0,0,0,0,0C57.8,19.1,58.7,18.3,59.7,18.3C59.7,18.3,59.7,18.3,59.7,18.3z"/>
<path class="st0" d="M28.9,47.5c0,0-10.3-3.6-4.9-13.9c0,0-8.6-5-14-6s-8.9,4.3-2.7,8c-10.4-2-9,10.6,1,9.6C-2.6,49.6,5,60,12,53.7
	c-6.8,8.2,2.4,12.7,6.6,5c-2.2,7.5,7.3,11,8.9,0.8C28.3,55.2,28.9,47.5,28.9,47.5L28.9,47.5z"/>
</svg>
