<?xml version="1.0" encoding="utf-8"?>
<!-- Generator: Adobe Illustrator 21.0.2, SVG Export Plug-In . SVG Version: 6.00 Build 0)  -->
<svg version="1.1" id="Layer_1" xmlns="http://www.w3.org/2000/svg" xmlns:xlink="http://www.w3.org/1999/xlink" x="0px" y="0px"
	 viewBox="0 0 301 471.7" style="enable-background:new 0 0 301 471.7;" xml:space="preserve">
<style type="text/css">
	.st0{fill:#EFF4EF;stroke:#DD0B24;stroke-miterlimit:10;}
</style>
<title>Artboard 1</title>
<path class="st0" d="M148.2,0.5h4.5l1.8,0.9c7.5,0.9,13.3,6.6,14.5,14.2c0.6,4.8,0.6,9.6,0.9,13.6s3.6,2.4,3.6,3
	c0,0.6-1.2,8.7-3.6,11.5c-1.8,1.8-2.7,3.9-3.3,6.3c-1.2,6-2.1,12.7,3.6,16.9c5.4,3.6,11.2,6.6,17.2,9.6h2.4
	c11.2,0,21.1,6.9,24.4,17.5c0.9,3,2.4,5.7,4.2,8.4c4.5,5.4,9.3,10.6,14.2,15.7c4.8,5.1,4.5,4.2,6.6,6.3c2.1,2.1,9.9,7.2,13.3,12.1
	c11.5,15.1,22,30.5,32.6,45.8c1.8,3,3,6.3,3.6,9.6c1.2,3.6,1.8,7.5,2.7,11.2c0.9,3.6,1.5,4.8,2.1,7.5c0.6,2.7,2.4,14.2,6.9,19.9v1.5
	c-1.8-0.3-4.5,0-5.4-1.2c-3.3-3-5.7-6.9-7.2-11.5c-2.1-6.3-4.5-11.5-7.5-16.3l-1.5-0.9c0,1.2-0.3,2.4-0.9,3.6
	c-0.9,1.2-1.8,2.1-3.3,2.4c-0.6,0-2.1-1.8-2.1-3c0-1.2,0.3-8.1,0.6-12.4c0-0.9,0.3-1.5,0.9-2.1c1.8-2.1,1.5-5.4-0.6-7.2l-0.3-0.3
	c-4.8-4.8-9.6-9.3-15.1-13.9c-10.6-8.7-22-16.9-29.8-27.7c-1.8-2.4-3.6-4.2-6-6c-8.4-6.6-18.7-10.9-25.3-19.9
	c-1.5,4.8-3,9.3-4.2,13.9c-1.2,4.5-1.8,8.4-3,12.7c-2.4,9.3-4.8,18.7-3.3,28.6c0.6,6,0.9,12.1,0.9,18.1c-0.3,1.8-0.6,3.6-0.6,5.4
	c0.9,6.3,2.4,13,3.3,19.3c2.4,17.5,5.1,34.4,6.6,51.9c0.9,11.8-0.3,23.2-3.9,34.4c-4.2,14.2-5.4,28.9-3,43.4
	c1.5,9.3,3.3,18.7,1.5,27.7c-2.4,14.8-5.7,28.9-8.1,43.4c-1.2,6-2.4,12.4,0,18.7c0.6,2.1,0.9,4.5,0.6,6.6
	c-0.6,5.4-0.6,10.3,3.6,14.2c1.8,1.8,3.3,4.2,4.5,6.6c1.5,2.1,0.9,5.1-1.2,6.6c-0.6,0.3-1.2,0.6-1.8,0.9c-3.3,0.9-6.6,1.5-10.3,2.1
	l-3.6,0.9h-3.6c-2.4-2.4-6.3-4.5-6.6-7.2c-0.3-2.7,0-9-3.6-12.7c-3.6-3.6,0-1.5,0.3-2.1c1.2-6.3,2.4-12.7,3.3-19
	c0.9-6.3,1.5-16,2.4-23.5c1.2-6.9,0.9-14.2-0.6-21.1c-3.9-13.6-5.4-27.1-0.9-41c0.6-2.7,0.3-5.1-0.3-7.8c-1.5-6.3-3.6-12.7-4.8-19
	c-1.2-6.3-1.5-17.2-3.3-25.3c-2.7-12.4-4.2-24.7-4.5-37.4c0-2.1-0.3-3.9-2.7-3c-0.9,9.6-1.5,19.3-3,28.3c-1.5,9.3-4.5,22-5.1,33.2
	c-0.3,6.6-1.8,13.6-4.2,19.9c-1.8,4.8-2.1,9.9-0.6,14.8c2.1,8.4,2.4,16.9,0.9,25.3c-2.1,10.6-5.7,20.8-3.3,31.7
	c0.6,2.4,0.6,4.8,0.9,7.2c1.5,10.9,3,22,4.2,32.6c0.3,2.7,0.9,6-0.3,7.8c-1.2,1.8-3.6,4.5-2.1,7.8c0.3,1.8-0.3,3.6-1.5,4.8
	c-1.8,1.8-3.6,3.6-5.7,5.4h-3l-3-0.9l-10.6-1.5c-3-0.3-5.4-3-5.1-6.3c0-0.9,0.3-1.8,0.9-2.4c0.9-1.8,2.4-3.6,3.9-5.1
	c3.9-3.9,5.4-9.9,3.9-15.4c0-1.8,0-3.3,0.3-5.1c0.9-4.2,1.2-8.4,1.2-13c-1.8-13-4.2-25.6-6.9-38.3c-2.7-11.8-3-24.1-1.2-35.9
	c1.5-7.5,2.4-15.1,2.1-22.9c-0.6-9.3-3.3-18.7-5.1-27.7s-2.4-13.3-3-19.9c-1.2-22.6,4.2-45.2,7.8-67.8c0.9-5.4,2.1-10.9,2.4-16.3
	c0.3-5.4,0-11.5,0-17.2c0.3-7.2,0-14.5-0.6-21.7c-1.2-6.9-3-14.2-5.1-21.1c-1.5-5.4-2.4-10.9-3.6-16.3c-4.2,3.3-7.5,6.6-11.2,9
	c-9.3,6.3-19,12.7-25.6,22.3c-6.6,9.6-18.7,16.6-27.7,24.4c-4.5,3.9-8.7,7.8-12.7,12.4c-1.2,1.2-1.5,3-1.2,4.8
	c3.6,5.1-0.3,11.2,2.1,16.3c0.3,0.6-1.5,2.4-2.7,3c-1.2,0.6-2.1-1.2-3-2.4c-0.6-1.2-0.9-2.4-1.2-3.9c-0.9,0.6-1.5,0.9-1.8,1.5
	c-2.7,5.1-5.1,10.6-7.2,16c-2.4,7.2-6.6,11.8-12.4,11.8v-1.5c0.6-0.6,1.2-0.9,1.5-1.8c3.6-11.5,7.8-22.3,10.3-33.5
	c1.2-6.3,3.6-12.7,7.5-18.1l20.5-28c3.6-5.1,6.9-11.2,11.5-15.4c9.6-8.4,19-17.2,27.1-26.8c3.9-3.9,6.9-8.7,9-13.9
	c2.7-8.1,13.3-16.6,20.8-16.3c4.2,0.3,8.1-0.9,11.8-3.3l5.7-3c9.3-4.5,10.9-9.9,9-20.8c-0.3-1.5-0.3-4.2-1.2-4.5
	c-0.9-0.3-4.5-6-5.7-9.6c-1.2-3.6-0.3-5.1,3.6-5.4c3.9-0.3,0-6.9,0-10.3c0-8.4,5.7-16,13.9-18.1L148.2,0.5z"/>
</svg>
