<?xml version="1.0" encoding="utf-8"?>
<!-- Generator: Adobe Illustrator 21.0.2, SVG Export Plug-In . SVG Version: 6.00 Build 0)  -->
<svg version="1.1" id="master-artboard" xmlns="http://www.w3.org/2000/svg" xmlns:xlink="http://www.w3.org/1999/xlink" x="0px"
	 y="0px" viewBox="0 0 150 48.4" style="enable-background:new 0 0 150 48.4;" xml:space="preserve">
<style type="text/css">
	.st0{fill:#142242;}
	.st1{fill:url(#SVGID_1_);}
	.st2{fill:url(#SVGID_2_);}
	.st3{fill:url(#SVGID_3_);}
	.st4{fill:#DEDDDD;}
	.st5{fill:#FFFFFF;}
	.st6{fill:#96A7B6;}
	.st7{fill:url(#SVGID_4_);}
	.st8{fill:#3CB9EA;}
	.st9{opacity:0.69;fill:#142242;enable-background:new    ;}
</style>
<title>tohora</title>
<g>
	<path class="st0" d="M110.1,37.5c-0.9,2.1-4,8-8.6,9.3c-3.8,1.1-1.8-1-0.9-1.7c0.9-0.7,2.5-3.3,2-5.8
		C102.3,36.7,111,35.4,110.1,37.5z"/>
	<path class="st0" d="M13.9,15.1C26.3,8.8,55.2-5.8,104,2.5c33.5,5.7,35.6,5.5,41.4,5.2c2.8-0.2,7.7-0.8,1.8,7.5
		c-5.9,8.3-24.5,29.7-50.7,27c-26.2-2.7-43.2-28.8-61.8-27.1c-17,1.6-19.2,5.7-19.2,5.7s-0.2,8.1-5.6,12.7c-1.5,1.4-2.7,0.3-2-1.4
		c0.2-0.4,1.1-2.2,0.8-3.8c-0.5-2.6-1.7-3.3-0.4-7.7c-3.5,0.3-5.9-0.7-7.6-0.4c-1.7,0.3-1-1.6,2.1-2.8C8.4,15.3,11.2,16.4,13.9,15.1
		z"/>
	
		<linearGradient id="SVGID_1_" gradientUnits="userSpaceOnUse" x1="1526.5702" y1="-284.6468" x2="1530.5745" y2="-276.8549" gradientTransform="matrix(4.62 0 0 4.62 -6953.5254 1323.5627)">
		<stop  offset="0.68" style="stop-color:#E4F5FD"/>
		<stop  offset="0.77" style="stop-color:#DBE9F1"/>
		<stop  offset="0.91" style="stop-color:#C5D3DC"/>
		<stop  offset="0.99" style="stop-color:#B5C4CD"/>
	</linearGradient>
	<path class="st1" d="M126.6,17.8c-1.9,4.1-2.5,8.7-18.9,8.9c-14.7,0.2-31.5,2.6-51-3.8c11.5,7.4,24,17.6,39.8,19.3
		c26.2,2.7,43-10.9,51.1-26.8c1.4-2.8,2.2-4.4,2.3-5.6C146.1,11.8,136.7,16.6,126.6,17.8z"/>
	
		<linearGradient id="SVGID_2_" gradientUnits="userSpaceOnUse" x1="1526.5702" y1="-284.6468" x2="1530.5745" y2="-276.8549" gradientTransform="matrix(4.62 0 0 4.62 -6953.5254 1323.5627)">
		<stop  offset="0.68" style="stop-color:#E4F5FD"/>
		<stop  offset="0.77" style="stop-color:#DBE9F1"/>
		<stop  offset="0.91" style="stop-color:#C5D3DC"/>
		<stop  offset="0.99" style="stop-color:#B5C4CD"/>
	</linearGradient>
	<path class="st2" d="M126.6,17.8c-1.9,4.1-2.5,8.7-18.9,8.9c-14.7,0.2-31.5,2.6-51-3.8c11.5,7.4,24,17.6,39.8,19.3
		c26.2,2.7,43-10.9,51.1-26.8c1.4-2.8,2.2-4.4,2.3-5.6C146.1,11.8,136.7,16.6,126.6,17.8z"/>
	<g>
		
			<linearGradient id="SVGID_3_" gradientUnits="userSpaceOnUse" x1="1531.0391" y1="-282.8917" x2="1530.9742" y2="-282.1269" gradientTransform="matrix(4.62 0 0 4.62 -6953.5254 1323.5627)">
			<stop  offset="0" style="stop-color:#599ABC"/>
			<stop  offset="0.18" style="stop-color:#639FC0"/>
			<stop  offset="0.48" style="stop-color:#7DADCA"/>
			<stop  offset="0.85" style="stop-color:#A8C9DE"/>
			<stop  offset="0.98" style="stop-color:#BDD7E8"/>
		</linearGradient>
		<path class="st3" d="M121.5,18.5c0,1-0.8,1.8-1.8,1.8l0,0l0,0c-1,0-1.8-0.8-1.8-1.8v0l0,0c0-1,0.8-1.8,1.8-1.8l0,0l0,0
			C120.7,16.7,121.5,17.5,121.5,18.5L121.5,18.5z"/>
		<path d="M121.5,18.2c0,1-0.8,1.8-1.8,1.8l0,0l0,0c-1,0-1.8-0.8-1.8-1.8v0l0,0c0-1,0.8-1.8,1.8-1.8l0,0l0,0
			C120.7,16.4,121.5,17.3,121.5,18.2L121.5,18.2z"/>
		<path class="st4" d="M120.9,17.6c0,0.5-0.4,0.9-0.9,0.9c-0.5,0-0.9-0.4-0.9-0.9c0-0.5,0.4-0.9,0.9-0.9S120.9,17.1,120.9,17.6
			C120.9,17.6,120.9,17.6,120.9,17.6z"/>
	</g>
	<g>
		<path class="st5" d="M147.7,11c-1.8,3.5-5.2,8.9-10.1,14.2c-5.9,6.3-15.7,14-29,15.6c-7.7,0.9-15.2,0.4-21.7-0.7
			c1,0.3,2.1,0.6,3.1,0.9c3.5,0.5,7,0.7,10.5,0.7c2.7,0,5.5-0.2,8.2-0.5c13.4-1.6,23.4-9.4,29.3-15.7c5.2-5.6,8.8-11.3,10.5-14.9
			C148.1,10.7,147.9,10.9,147.7,11z"/>
		<path class="st5" d="M60.5,25.4c0.4,0.3,0.8,0.5,1.2,0.8c12.1,3.3,23.9,5.1,34.3,5.1c1.1,0,2.1,0,3.2-0.1
			c11.4-0.4,20.5-3,25.4-7.4c2.1-1.9,3.4-4,3.8-6.4c-0.2,0-0.3,0.1-0.5,0.1c-0.4,2.2-1.6,4.2-3.6,5.9C115.9,31,92.5,34.5,60.5,25.4z
			"/>
		<path class="st5" d="M101.4,36.5c2.7,0,5.2-0.2,7.2-0.6c15.2-3.1,21.7-12.5,25.1-19.4l-0.6,0.2c-3.4,6.9-9.9,15.9-24.6,18.8
			c-7.1,1.4-19.1,0.3-31.3-3c-4.3-1.2-8.6-2.6-12.7-4.2c0.6,0.4,1.2,0.9,1.9,1.2c3.5,1.3,7.1,2.5,10.7,3.4
			C86.1,35.2,94.6,36.5,101.4,36.5z"/>
		<path class="st5" d="M102.6,39c4.7,0,9.4-0.5,13.5-1.8c6.8-2.2,13.3-6.8,19.4-13.7c2.9-3.3,5.5-6.8,7.8-10.5l-0.7,0.3
			c-2.2,3.5-4.7,6.8-7.4,9.9c-6.1,6.9-12.6,11.4-19.3,13.6c-8.7,2.8-20.4,1.8-28.7,0.4c-4.7-0.8-9.3-1.9-13.2-3
			c0.5,0.3,1.1,0.6,1.6,0.9c3.5,0.9,7.5,1.9,11.5,2.5C91.7,38.3,97.2,39,102.6,39z"/>
	</g>
	<g>
		<path class="st6" d="M59.9,25.1c0.4,0.3,0.8,0.5,1.2,0.8c12.4,3.4,24.2,5.2,34.9,5.2c1.1,0,2.1,0,3.2-0.1
			c11.4-0.4,20.5-3,25.4-7.4c2.1-1.8,3.3-3.9,3.8-6.1c-0.2,0-0.3,0.1-0.5,0.1c-0.4,2.1-1.6,4-3.6,5.7
			C115.8,30.8,92.2,34.3,59.9,25.1z"/>
		<path class="st6" d="M147.6,11c-1.8,3.5-5.2,8.8-10,13.9c-5.9,6.3-15.7,14-29,15.6c-8.2,1-16.2,0.3-23-0.9
			c0.9,0.3,1.9,0.6,2.8,0.9c3.8,0.5,7.9,0.9,12.1,0.9c2.7,0,5.5-0.2,8.2-0.5c13.4-1.6,23.4-9.4,29.3-15.7c5.1-5.4,8.6-11,10.3-14.5
			C148,10.8,147.8,10.9,147.6,11z"/>
		<path class="st6" d="M101.4,36.2c2.7,0,5.2-0.2,7.2-0.6c15-3,21.6-12.3,25-19.2l-0.6,0.2c-3.4,6.8-10,15.7-24.5,18.6
			c-7.1,1.4-19.1,0.3-31.3-3c-5.3-1.4-10-3.1-13.7-4.7l2,1.4c3.8,1.5,7.6,2.7,11.5,3.8C86.1,35,94.6,36.2,101.4,36.2z"/>
		<path class="st6" d="M102.6,38.8c4.7,0,9.4-0.5,13.5-1.8c6.8-2.2,13.3-6.8,19.4-13.7c2.8-3.2,5.3-6.6,7.6-10.2l-0.7,0.3
			c-2.1,3.4-4.5,6.6-7.2,9.6c-6.1,6.9-12.6,11.4-19.3,13.6c-8.7,2.8-20.4,1.8-28.7,0.4c-4.7-0.8-9.4-1.9-14-3.2l1.6,0.9
			c4,1.1,8.2,2,12.3,2.7C91.7,38.1,97.2,38.8,102.6,38.8z"/>
	</g>
	
		<linearGradient id="SVGID_4_" gradientUnits="userSpaceOnUse" x1="1525.9486" y1="-278.9561" x2="1529.5251" y2="-277.5644" gradientTransform="matrix(4.62 0 0 4.62 -6953.5254 1323.5627)">
		<stop  offset="1.000000e-02" style="stop-color:#52626C"/>
		<stop  offset="0.18" style="stop-color:#66747E;stop-opacity:0.8"/>
		<stop  offset="0.54" style="stop-color:#A5ACB3;stop-opacity:0.39"/>
		<stop  offset="0.87" style="stop-color:#FFFFFF;stop-opacity:0"/>
	</linearGradient>
	<path class="st7" d="M106.7,30.4L97.6,32c0,0-2.8,4.6-5.8,9.4c1.6,0.3,3.1,0.6,4.7,0.8c5.9,0.6,11.3,0.4,16.3-0.5L106.7,30.4z"/>
	<g>
		<path class="st0" d="M106.5,31.2c-2.1,3.9-9.4,15-18.8,16.9c-7.7,1.6-3.4-2.3-1.4-3.7c2-1.3,5.5-6,5.1-11.2
			C91.1,27.9,108.7,27,106.5,31.2z"/>
		<path class="st8" d="M106,29.4c0,0.3-0.1,0.5-0.2,0.8c-2.1,3.9-9.4,15-18.8,16.9c-1.9,0.4-3.1,0.4-3.7,0.3
			C83,48.2,84,48.7,87.7,48c9.4-1.9,16.7-13,18.8-16.9C106.9,30.4,106.6,29.8,106,29.4z"/>
	</g>
	<path class="st8" d="M117.3,17.8c0.6,1.6,0.3,2.8,2.7,2.9C117.6,21,117.1,19.9,117.3,17.8z"/>
	<path class="st9" d="M54.4,2.6c4.5-0.9,28.3-2.9,44.2,0S89.4,14.2,81,12.5S43.9,4.7,54.4,2.6z"/>
</g>
</svg>
