<svg id="master-artboard" xmlns="http://www.w3.org/2000/svg" xmlns:xlink="http://www.w3.org/1999/xlink" width="1272.7" height="410.8" viewBox="0 0 1272.7 410.8">
  <defs>
    <style>
      .cls-1, .cls-9 {
        fill: #142242;
      }

      .cls-2 {
        fill: url(#linear-gradient);
      }

      .cls-3 {
        fill: url(#linear-gradient-3);
      }

      .cls-4 {
        fill: #dedddd;
      }

      .cls-5 {
        fill: #fff;
      }

      .cls-6 {
        fill: #96a7b6;
      }

      .cls-7 {
        fill: url(#linear-gradient-4);
      }

      .cls-8 {
        fill: #3cb9ea;
      }

      .cls-9 {
        opacity: 0.69;
        isolation: isolate;
      }
    </style>
    <linearGradient id="linear-gradient" x1="1694.21" y1="391.45" x2="1728.19" y2="325.33" gradientTransform="matrix(4.62, 0, 0, -4.62, -6924.73, 2079.47)" gradientUnits="userSpaceOnUse">
      <stop offset="0.68" stop-color="#e4f5fd"/>
      <stop offset="0.77" stop-color="#dbe9f1"/>
      <stop offset="0.91" stop-color="#c5d3dc"/>
      <stop offset="0.99" stop-color="#b5c4cd"/>
    </linearGradient>
    <linearGradient id="linear-gradient-3" x1="1732.11" y1="376.82" x2="1731.56" y2="370.33" gradientTransform="matrix(4.62, 0, 0, -4.62, -6924.73, 2079.47)" gradientUnits="userSpaceOnUse">
      <stop offset="0" stop-color="#599abc"/>
      <stop offset="0.18" stop-color="#639fc0"/>
      <stop offset="0.48" stop-color="#7dadca"/>
      <stop offset="0.85" stop-color="#a8c9de"/>
      <stop offset="0.98" stop-color="#bdd7e8"/>
    </linearGradient>
    <linearGradient id="linear-gradient-4" x1="1689.28" y1="343.15" x2="1719.63" y2="331.34" gradientTransform="matrix(4.62, 0, 0, -4.62, -6924.73, 2079.47)" gradientUnits="userSpaceOnUse">
      <stop offset="0.01" stop-color="#52626c"/>
      <stop offset="0.18" stop-color="#66747e" stop-opacity="0.8"/>
      <stop offset="0.54" stop-color="#a5acb3" stop-opacity="0.39"/>
      <stop offset="0.87" stop-color="#fff" stop-opacity="0"/>
    </linearGradient>
  </defs>
  <title>tohora</title>
  <g>
    <path class="cls-1" d="M997.2,516.3c-7.4,17.6-33.7,67.5-73,79-32.3,9.7-15.3-8.8-7.4-14.8s20.8-27.7,17.1-49.4S1004.6,498.3,997.2,516.3Z" transform="translate(-62.6 -197.8)"/>
    <path class="cls-1" d="M180.1,325.9c105.4-53.6,351.2-177,764.8-107.2,284.2,48.1,301.8,46.7,351.7,43.9,23.6-1.4,65.2-6.9,15.3,63.8s-208,252.3-430.2,229.2S515.2,311.1,357.6,325.9C213.4,339.3,194.9,374,194.9,374s-1.8,68.9-47.1,108.1c-12.9,11.6-23.1,2.8-16.6-11.6,1.4-3.7,9.2-18.9,6.9-31.9-4.2-21.7-14.3-28.2-3.7-65.6-30,2.3-49.9-6-64.2-3.2s-8.8-13.4,17.6-23.6C133.9,327.7,157.5,337.4,180.1,325.9Z" transform="translate(-62.6 -197.8)"/>
    <path class="cls-2" d="M1137.2,349c-16.2,34.7-21.3,73.9-160.8,75.8-124.8,1.8-267.6,21.7-433-32.3C640.9,455.3,746.7,542.2,881.2,556c222.3,23.1,364.6-92.4,433.5-227.4,12-23.6,18.5-37.4,19.9-47.1C1302.2,298.2,1222.7,338.8,1137.2,349Z" transform="translate(-62.6 -197.8)"/>
    <path class="cls-2" d="M1137.2,349c-16.2,34.7-21.3,73.9-160.8,75.8-124.8,1.8-267.6,21.7-433-32.3C640.9,455.3,746.7,542.2,881.2,556c222.3,23.1,364.6-92.4,433.5-227.4,12-23.6,18.5-37.4,19.9-47.1C1302.2,298.2,1222.7,338.8,1137.2,349Z" transform="translate(-62.6 -197.8)"/>
    <g>
      <path class="cls-3" d="M1093.7,354.5a15.3,15.3,0,0,1-15.3,15.3h0a15.3,15.3,0,0,1-15.3-15.3h0a15.3,15.3,0,0,1,15.3-15.3h0a15.3,15.3,0,0,1,15.3,15.3Z" transform="translate(-62.6 -197.8)"/>
      <path d="M1093.7,352.7a15.3,15.3,0,0,1-15.3,15.3h0a15.3,15.3,0,0,1-15.3-15.3h0a15.3,15.3,0,0,1,15.3-15.3h0a15.3,15.3,0,0,1,15.3,15.3Z" transform="translate(-62.6 -197.8)"/>
      <path class="cls-4" d="M1088.7,347.6a7.9,7.9,0,1,1-7.9-7.9A7.9,7.9,0,0,1,1088.7,347.6Z" transform="translate(-62.6 -197.8)"/>
    </g>
    <g>
      <path class="cls-5" d="M1316,290.8c-15.3,29.6-43.9,75.8-86,120.6-49.9,53.1-133.1,118.8-246.3,132.2-65.2,7.9-128.9,3.2-184.4-6,8.8,2.8,17.6,5.5,26.3,7.9a686.2,686.2,0,0,0,88.7,6,587.1,587.1,0,0,0,69.3-4.2c114.1-13.4,198.3-79.9,248.6-133.6,44.4-47.1,74.4-96.1,88.7-126.2A19.1,19.1,0,0,1,1316,290.8Z" transform="translate(-62.6 -197.8)"/>
      <path class="cls-5" d="M576.2,413.7c3.2,2.3,6.9,4.6,10.2,6.9,103.1,28.2,202.4,43,291.1,43,9.2,0,18,0,27.3-.5,97-3.2,173.8-25.4,215.4-62.4,18-15.7,29.1-34.2,32.3-54.1-1.4,0-2.8.5-4.2.5-3.2,18.5-13.9,35.6-30.5,50.4C1045.7,460.8,847.4,490.9,576.2,413.7Z" transform="translate(-62.6 -197.8)"/>
      <path class="cls-5" d="M923.2,507.5c23.1,0,43.9-1.8,61.5-5.1,128.9-25.9,184.4-105.8,213-165l-5.1,1.4c-28.7,58.2-84.1,134.9-208.9,159.9C923.7,510.7,822,501,718,473.3a923.3,923.3,0,0,1-108.1-36c5.5,3.7,10.6,7.4,16.2,10.6A875.4,875.4,0,0,0,716.6,477C792.9,496.9,865.4,507.5,923.2,507.5Z" transform="translate(-62.6 -197.8)"/>
      <path class="cls-5" d="M933.4,528.8c40.2,0,79.9-4.2,114.6-15.3,57.3-18.5,112.8-57.8,165-116.5a663.4,663.4,0,0,0,66.1-88.7l-6,2.8a632.6,632.6,0,0,1-62.8,83.6c-51.8,58.2-106.8,97-163.6,115.5-73.9,24-173.3,15.3-243.5,3.2-40.2-6.9-79-15.7-112.3-25.4,4.6,2.8,9.2,5.1,13.9,7.9,30,7.9,63.3,15.7,98,21.3C840.5,523.2,887.2,528.8,933.4,528.8Z" transform="translate(-62.6 -197.8)"/>
    </g>
    <g>
      <path class="cls-6" d="M571.1,410.5c3.2,2.3,6.9,4.6,10.2,6.9,104.9,29.1,205.6,44.4,295.8,44.4,9.2,0,18,0,27.3-.5,97-3.2,173.8-25.4,215.4-62.4,17.6-15.3,28.2-32.8,31.9-51.8-1.4,0-2.8.5-4.2.5-3.7,17.6-13.9,34.2-30.5,48.5C1045.2,459.5,845.1,489,571.1,410.5Z" transform="translate(-62.6 -197.8)"/>
      <path class="cls-6" d="M1314.6,291.2c-15.3,29.6-43.9,74.4-84.6,117.8-49.9,53.1-133.1,118.8-246.3,132.2C914,549.6,846,544,788.3,533.4c7.9,2.8,15.7,5.5,23.6,7.9,32.3,4.6,67,7.9,102.6,7.9a587.1,587.1,0,0,0,69.3-4.2c114.1-13.4,198.3-79.9,248.6-133.6,43.4-45.8,72.6-93.4,87.8-123.4A34.4,34.4,0,0,1,1314.6,291.2Z" transform="translate(-62.6 -197.8)"/>
      <path class="cls-6" d="M923.2,505.2c23.1,0,43.9-1.8,61.5-5.1,127.1-25.4,183-104,212.1-163.1l-5.1,1.4c-29.1,57.8-84.6,133.1-208,158C923.7,508.4,822,498.7,718,471c-44.8-12-84.6-25.9-116-39.7l17.1,11.6a874.6,874.6,0,0,0,98,31.9C792.9,494.6,865.4,505.2,923.2,505.2Z" transform="translate(-62.6 -197.8)"/>
      <path class="cls-6" d="M933.4,526.9c40.2,0,79.9-4.2,114.6-15.3,57.3-18.5,112.8-57.8,165-116.5a612.4,612.4,0,0,0,64.2-86.4l-6,2.8a627.9,627.9,0,0,1-61,81.3c-51.8,58.2-106.8,97-163.6,115.5-73.9,24-173.3,15.3-243.5,3.2a1108.5,1108.5,0,0,1-118.8-27.3l13.4,7.9a1002,1002,0,0,0,104.4,23.1C840.5,521.4,887.2,526.9,933.4,526.9Z" transform="translate(-62.6 -197.8)"/>
    </g>
    <path class="cls-7" d="M967.6,455.8l-77.2,13.9s-24,38.8-49,79.5a404.1,404.1,0,0,0,40.2,6.5c50.4,5.1,96.1,3.2,138.2-4.6Z" transform="translate(-62.6 -197.8)"/>
    <g>
      <path class="cls-1" d="M966.2,462.2c-18,33.3-79.9,127.1-159.4,143.3-65.6,13.4-28.7-19.9-11.6-31s46.7-50.8,43.4-95.2S984.7,427.1,966.2,462.2Z" transform="translate(-62.6 -197.8)"/>
      <path class="cls-8" d="M962,447.4a18.1,18.1,0,0,1-1.4,6.5c-18,33.3-79.9,127.1-159.4,143.3-15.7,3.2-25.9,3.7-31.4,2.3-2.8,7.4,5.1,12,37,5.5,79.5-16.2,141.4-110,159.4-143.3C969.4,455.8,967.1,451.1,962,447.4Z" transform="translate(-62.6 -197.8)"/>
    </g>
    <path class="cls-8" d="M1057.7,349c5.5,13.9,2.8,23.6,23.1,24.5C1060.5,376.3,1055.8,367,1057.7,349Z" transform="translate(-62.6 -197.8)"/>
    <path class="cls-9" d="M524.4,219.6c38.4-7.9,240.3-24.5,375.3,0S821.1,318,749.9,303.7,434.7,238.1,524.4,219.6Z" transform="translate(-62.6 -197.8)"/>
  </g>
</svg>
