<?xml version="1.0" encoding="utf-8"?>
<!-- Generator: Adobe Illustrator 21.0.2, SVG Export Plug-In . SVG Version: 6.00 Build 0)  -->
<svg version="1.1" id="master-artboard" xmlns="http://www.w3.org/2000/svg" xmlns:xlink="http://www.w3.org/1999/xlink" x="0px"
	 y="0px" viewBox="0 0 309.9 177" style="enable-background:new 0 0 309.9 177;" xml:space="preserve">
<style type="text/css">
	.st0{fill:#142242;}
	.st1{fill:url(#SVGID_1_);}
	.st2{fill:url(#SVGID_2_);}
	.st3{fill:url(#SVGID_3_);}
	.st4{fill:#DEDDDD;}
	.st5{fill:#FFFFFF;}
	.st6{fill:#96A7B6;}
	.st7{fill:url(#SVGID_4_);}
	.st8{fill:#3CB9EA;}
	.st9{opacity:0.69;fill:#142242;enable-background:new    ;}
</style>
<title>tohora</title>
<g>
	<path class="st0" d="M227.6,124.2c-1.9,5.1-8.3,19.5-17.7,22.7c-7.8,2.7-3.7-2.5-1.9-4.1c1.9-1.7,5.2-8,4.1-14.2
		C211.5,122.3,229.4,119.1,227.6,124.2z"/>
	<path class="st0" d="M29.1,69.7C54.7,54.4,114.3,18.9,215,39c69.1,13.9,73.5,13.3,85.4,12.6c5.8-0.5,15.9-2,3.7,18.3
		s-50.5,72.3-104.6,65.7c-54.1-6.6-89.1-70.1-127.5-65.9c-35.1,3.9-39.6,13.9-39.6,13.9s-0.4,19.7-11.6,30.9
		c-3.1,3.4-5.6,0.7-4.1-3.4c0.4-0.9,2.3-5.3,1.7-9.2c-1-6.4-3.5-8-0.8-18.8c-7.3,0.7-12.2-1.8-15.7-0.9c-3.5,0.7-2.1-3.9,4.3-6.8
		C17.8,70.2,23.5,72.9,29.1,69.7z"/>
	
		<linearGradient id="SVGID_1_" gradientUnits="userSpaceOnUse" x1="1655.5979" y1="453.9724" x2="1664.3032" y2="437.0326" gradientTransform="matrix(4.62 0 0 -4.62 -7442.3862 2156.5288)">
		<stop  offset="0.68" style="stop-color:#E4F5FD"/>
		<stop  offset="0.77" style="stop-color:#DBE9F1"/>
		<stop  offset="0.91" style="stop-color:#C5D3DC"/>
		<stop  offset="0.99" style="stop-color:#B5C4CD"/>
	</linearGradient>
	<path class="st1" d="M261.6,76.3c-3.9,10-5.2,21.2-39,21.7c-30.3,0.5-65,6.4-105.2-9.2c23.7,18.1,49.5,42.8,82.1,47
		c54.1,6.6,88.7-26.5,105.4-65.2c2.9-6.8,4.5-10.7,4.7-13.7C301.9,61.7,282.5,73.4,261.6,76.3z"/>
	
		<linearGradient id="SVGID_2_" gradientUnits="userSpaceOnUse" x1="1655.5979" y1="453.9724" x2="1664.3032" y2="437.0326" gradientTransform="matrix(4.62 0 0 -4.62 -7442.3862 2156.5288)">
		<stop  offset="0.68" style="stop-color:#E4F5FD"/>
		<stop  offset="0.77" style="stop-color:#DBE9F1"/>
		<stop  offset="0.91" style="stop-color:#C5D3DC"/>
		<stop  offset="0.99" style="stop-color:#B5C4CD"/>
	</linearGradient>
	<path class="st2" d="M261.6,76.3c-3.9,10-5.2,21.2-39,21.7c-30.3,0.5-65,6.4-105.2-9.2c23.7,18.1,49.5,42.8,82.1,47
		c54.1,6.6,88.7-26.5,105.4-65.2c2.9-6.8,4.5-10.7,4.7-13.7C301.9,61.7,282.5,73.4,261.6,76.3z"/>
	<g>
		
			<linearGradient id="SVGID_3_" gradientUnits="userSpaceOnUse" x1="1664.5396" y1="450.89" x2="1664.382" y2="449.0302" gradientTransform="matrix(4.62 0 0 -4.62 -7442.3862 2156.5288)">
			<stop  offset="0" style="stop-color:#599ABC"/>
			<stop  offset="0.18" style="stop-color:#639FC0"/>
			<stop  offset="0.48" style="stop-color:#7DADCA"/>
			<stop  offset="0.85" style="stop-color:#A8C9DE"/>
			<stop  offset="0.98" style="stop-color:#BDD7E8"/>
		</linearGradient>
		<path class="st3" d="M251.1,78c0,2.5-1.7,4.4-3.7,4.4l0,0l0,0c-2.1,0-3.7-2-3.7-4.4l0,0l0,0c0-2.5,1.7-4.4,3.7-4.4l0,0l0,0
			C249.5,73.6,251.1,75.6,251.1,78L251.1,78z"/>
		<path d="M251.1,77.3c0,2.5-1.7,4.4-3.7,4.4l0,0l0,0c-2.1,0-3.7-2-3.7-4.4l0,0l0,0c0-2.5,1.7-4.4,3.7-4.4l0,0l0,0
			C249.5,72.9,251.1,75.1,251.1,77.3L251.1,77.3z"/>
		<path class="st4" d="M249.9,75.9c0,1.2-0.8,2.2-1.9,2.2s-1.9-0.9-1.9-2.2s0.8-2.2,1.9-2.2S249.9,74.7,249.9,75.9L249.9,75.9z"/>
	</g>
	<g>
		<path class="st5" d="M305.2,59.8c-3.7,8.5-10.7,21.7-20.8,34.6c-12.2,15.3-32.4,34.1-59.8,38c-15.9,2.2-31.4,0.9-44.8-1.7
			c2.1,0.7,4.3,1.4,6.4,2.2c7.2,1.2,14.4,1.7,21.7,1.7c5.6,0,11.3-0.5,16.9-1.2c27.6-3.9,48.3-22.9,60.5-38.2
			C296,81.5,303.5,67.7,307,59C306,59.1,305.6,59.6,305.2,59.8z"/>
		<path class="st5" d="M125.2,94.8c0.8,0.7,1.7,1.2,2.5,2c25,8,49.3,12.4,70.8,12.4c2.3,0,4.3,0,6.6-0.2
			c23.5-0.9,42.3-7.3,52.4-18.1c4.3-4.6,7-9.8,7.8-15.6c-0.4,0-0.6,0.2-1,0.2c-0.8,5.3-3.3,10.3-7.4,14.4
			C239.6,108.4,191.3,117,125.2,94.8z"/>
		<path class="st5" d="M209.6,121.9c5.6,0,10.7-0.5,14.9-1.4c31.4-7.6,44.8-30.4,51.8-47.2l-1.2,0.5c-7,16.8-20.4,38.7-50.8,45.8
			c-14.6,3.4-39.4,0.7-64.6-7.3c-8.9-2.9-17.7-6.4-26.2-10.3c1.2,0.9,2.5,2.2,3.9,2.9c7.2,3.2,14.6,6.1,22.1,8.3
			C178.1,118.7,195.6,121.9,209.6,121.9z"/>
		<path class="st5" d="M212.1,127.9c9.7,0,19.4-1.2,27.9-4.4c14-5.3,27.4-16.5,40-33.4c6-8,11.3-16.5,16.1-25.6l-1.4,0.7
			c-4.5,8.5-9.7,16.5-15.3,24.1c-12.6,16.8-26,27.7-39.8,33.2c-18,6.8-42.1,4.4-59.2,0.9c-9.7-2-19.2-4.6-27.2-7.3
			c1,0.7,2.3,1.4,3.3,2.2c7.2,2.2,15.5,4.6,23.7,6.1C189.6,126.2,201,127.9,212.1,127.9z"/>
	</g>
	<g>
		<path class="st6" d="M124,94.1c0.8,0.7,1.7,1.2,2.5,2c25.6,8.3,49.9,12.6,72,12.6c2.3,0,4.3,0,6.6-0.2
			c23.5-0.9,42.3-7.3,52.4-18.1c4.3-4.4,6.8-9.4,7.8-14.9c-0.4,0-0.6,0.2-1,0.2c-0.8,5.1-3.3,9.8-7.4,13.9
			C239.3,107.9,190.7,116.4,124,94.1z"/>
		<path class="st6" d="M305,59.8c-3.7,8.5-10.7,21.5-20.6,33.9c-12.2,15.3-32.4,34.1-59.8,38c-16.9,2.5-33.4,0.7-47.5-2.2
			c1.9,0.7,3.9,1.4,5.8,2.2c7.8,1.2,16.3,2.2,25,2.2c5.6,0,11.3-0.5,16.9-1.2c27.5-4,48.2-23,60.3-38.3
			c10.5-13.1,17.7-26.8,21.3-35.3C305.8,59.3,305.4,59.6,305,59.8z"/>
		<path class="st6" d="M209.6,121.2c5.6,0,10.7-0.5,14.9-1.4c30.9-7.3,44.6-30,51.6-46.7l-1.2,0.5c-7,16.5-20.6,38.2-50.5,45.3
			c-14.6,3.4-39.4,0.7-64.6-7.3c-10.9-3.4-20.6-7.6-28.3-11.4l4.1,3.4c7.8,3.7,15.7,6.6,23.7,9.2
			C178.1,118.2,195.6,121.2,209.6,121.2z"/>
		<path class="st6" d="M212.1,127.4c9.7,0,19.4-1.2,27.9-4.4c14-5.3,27.4-16.5,40-33.4c5.8-7.8,10.9-16,15.7-24.8l-1.4,0.7
			c-4.3,8.3-9.3,16-14.9,23.4c-12.6,16.8-26,27.7-39.8,33.2c-18,6.8-42.1,4.4-59.2,0.9c-9.7-2-19.4-4.6-28.9-7.8l3.3,2.2
			c8.3,2.7,16.9,4.8,25.4,6.6C189.6,125.8,201,127.4,212.1,127.4z"/>
	</g>
	
		<linearGradient id="SVGID_4_" gradientUnits="userSpaceOnUse" x1="1654.1807" y1="441.1671" x2="1661.5682" y2="438.2923" gradientTransform="matrix(4.62 0 0 -4.62 -7442.3862 2156.5288)">
		<stop  offset="1.000000e-02" style="stop-color:#52626C"/>
		<stop  offset="0.18" style="stop-color:#66747E;stop-opacity:0.8"/>
		<stop  offset="0.54" style="stop-color:#A5ACB3;stop-opacity:0.39"/>
		<stop  offset="0.87" style="stop-color:#FFFFFF;stop-opacity:0"/>
	</linearGradient>
	<path class="st7" d="M220.6,107l-18.8,3.9c0,0-5.8,11.2-12,22.9c3.3,0.7,6.4,1.4,9.7,2c12.2,1.4,23.3,0.9,33.6-1.2L220.6,107z"/>
	<g>
		<path class="st0" d="M220.2,108.9c-4.3,9.4-19.4,36.5-38.8,41.2c-15.9,3.9-7-5.5-2.9-9c4.1-3.2,11.3-14.6,10.5-27.3
			C188.4,100.9,224.7,98.7,220.2,108.9z"/>
		<path class="st8" d="M219.1,104.5c0,0.7-0.2,1.2-0.4,2c-4.3,9.4-19.4,36.5-38.8,41.2c-3.9,0.9-6.4,0.9-7.6,0.7
			c-0.6,2,1.4,3.2,9.1,1.4c19.4-4.6,34.5-31.6,38.8-41.2C221,107,220.4,105.6,219.1,104.5z"/>
	</g>
	<path class="st8" d="M242.4,76.3c1.2,3.9,0.6,6.8,5.6,7.1C243.1,84.1,242,81.4,242.4,76.3z"/>
	<path class="st9" d="M112.7,39.3c9.3-2.2,58.4-7.1,91.2,0s-19,28.2-36.3,24.1C150.2,59.3,91,44.5,112.7,39.3z"/>
</g>
</svg>
