<?xml version="1.0" encoding="utf-8"?>
<!-- Generator: Adobe Illustrator 21.0.2, SVG Export Plug-In . SVG Version: 6.00 Build 0)  -->
<svg version="1.1" id="master-artboard" xmlns="http://www.w3.org/2000/svg" xmlns:xlink="http://www.w3.org/1999/xlink" x="0px"
	 y="0px" viewBox="0 0 309.9 135.6" style="enable-background:new 0 0 309.9 135.6;" xml:space="preserve">
<style type="text/css">
	.st0{fill:#142242;}
	.st1{fill:url(#SVGID_1_);}
	.st2{fill:url(#SVGID_2_);}
	.st3{fill:url(#SVGID_3_);}
	.st4{fill:#DEDDDD;}
	.st5{fill:#FFFFFF;}
	.st6{fill:#96A7B6;}
	.st7{fill:url(#SVGID_4_);}
	.st8{fill:#3CB9EA;}
	.st9{opacity:0.69;fill:#142242;enable-background:new    ;}
</style>
<title>tohora</title>
<g>
	<path class="st0" d="M227.6,99.3c-1.9,4.3-8.3,16.5-17.7,19.2c-7.8,2.3-3.7-2.1-1.9-3.5c1.9-1.4,5.2-6.8,4.1-12
		C211.5,97.7,229.4,95,227.6,99.3z"/>
	<path class="st0" d="M29.1,53.1c25.6-13,85.2-43.1,185.9-26c69.1,11.8,73.5,11.3,85.4,10.7c5.8-0.4,15.9-1.7,3.7,15.5
		s-50.5,61.3-104.6,55.7S110.4,49.6,72,53.1c-35.1,3.3-39.6,11.8-39.6,11.8S32,81.6,20.8,91.1c-3.1,2.9-5.6,0.6-4.1-2.9
		c0.4-0.8,2.3-4.5,1.7-7.8c-1-5.4-3.5-6.8-0.8-15.9C10.3,65.1,5.4,63,1.9,63.7c-3.5,0.6-2.1-3.3,4.3-5.8
		C17.8,53.5,23.5,55.8,29.1,53.1z"/>
	
		<linearGradient id="SVGID_1_" gradientUnits="userSpaceOnUse" x1="1599.6918" y1="-287.8039" x2="1607.9535" y2="-271.7273" gradientTransform="matrix(4.62 0 0 4.62 -7185.3662 1369.1289)">
		<stop  offset="0.68" style="stop-color:#E4F5FD"/>
		<stop  offset="0.77" style="stop-color:#DBE9F1"/>
		<stop  offset="0.91" style="stop-color:#C5D3DC"/>
		<stop  offset="0.99" style="stop-color:#B5C4CD"/>
	</linearGradient>
	<path class="st1" d="M261.6,58.7c-3.9,8.5-5.2,18-39,18.4c-30.3,0.4-65,5.4-105.2-7.8c23.7,15.3,49.5,36.3,82.1,39.8
		c54.1,5.6,88.7-22.5,105.4-55.3c2.9-5.8,4.5-9.1,4.7-11.6C301.9,46.3,282.5,56.2,261.6,58.7z"/>
	
		<linearGradient id="SVGID_2_" gradientUnits="userSpaceOnUse" x1="1599.6918" y1="-287.8039" x2="1607.9535" y2="-271.7273" gradientTransform="matrix(4.62 0 0 4.62 -7185.3662 1369.1289)">
		<stop  offset="0.68" style="stop-color:#E4F5FD"/>
		<stop  offset="0.77" style="stop-color:#DBE9F1"/>
		<stop  offset="0.91" style="stop-color:#C5D3DC"/>
		<stop  offset="0.99" style="stop-color:#B5C4CD"/>
	</linearGradient>
	<path class="st2" d="M261.6,58.7c-3.9,8.5-5.2,18-39,18.4c-30.3,0.4-65,5.4-105.2-7.8c23.7,15.3,49.5,36.3,82.1,39.8
		c54.1,5.6,88.7-22.5,105.4-55.3c2.9-5.8,4.5-9.1,4.7-11.6C301.9,46.3,282.5,56.2,261.6,58.7z"/>
	<g>
		
			<linearGradient id="SVGID_3_" gradientUnits="userSpaceOnUse" x1="1608.8937" y1="-284.1771" x2="1608.7599" y2="-282.5991" gradientTransform="matrix(4.62 0 0 4.62 -7185.3662 1369.1289)">
			<stop  offset="0" style="stop-color:#599ABC"/>
			<stop  offset="0.18" style="stop-color:#639FC0"/>
			<stop  offset="0.48" style="stop-color:#7DADCA"/>
			<stop  offset="0.85" style="stop-color:#A8C9DE"/>
			<stop  offset="0.98" style="stop-color:#BDD7E8"/>
		</linearGradient>
		<path class="st3" d="M251.1,60.1c0,2.1-1.7,3.7-3.7,3.7l0,0l0,0c-2.1,0-3.7-1.7-3.7-3.7l0,0l0,0c0-2.1,1.7-3.7,3.7-3.7l0,0l0,0
			C249.5,56.4,251.1,58.1,251.1,60.1L251.1,60.1z"/>
		<path d="M251.1,59.5c0,2.1-1.7,3.7-3.7,3.7l0,0l0,0c-2.1,0-3.7-1.7-3.7-3.7l0,0l0,0c0-2.1,1.7-3.7,3.7-3.7l0,0l0,0
			C249.5,55.8,251.1,57.7,251.1,59.5L251.1,59.5z"/>
		<path class="st4" d="M249.9,58.3c0,1-0.8,1.9-1.9,1.9s-1.9-0.8-1.9-1.9s0.8-1.9,1.9-1.9S249.9,57.3,249.9,58.3L249.9,58.3z"/>
	</g>
	<g>
		<path class="st5" d="M305.2,44.7c-3.7,7.2-10.7,18.4-20.8,29.3c-12.2,13-32.4,28.9-59.8,32.2c-15.9,1.9-31.4,0.8-44.8-1.4
			c2.1,0.6,4.3,1.2,6.4,1.9c7.2,1,14.4,1.4,21.7,1.4c5.6,0,11.3-0.4,16.9-1c27.6-3.3,48.3-19.4,60.5-32.4
			c10.7-11.6,18.2-23.3,21.7-30.7C306,44.1,305.6,44.5,305.2,44.7z"/>
		<path class="st5" d="M125.2,74.4c0.8,0.6,1.7,1,2.5,1.7c25,6.8,49.3,10.5,70.8,10.5c2.3,0,4.3,0,6.6-0.2
			c23.5-0.8,42.3-6.2,52.4-15.3c4.3-3.9,7-8.3,7.8-13.2c-0.4,0-0.6,0.2-1,0.2c-0.8,4.5-3.3,8.7-7.4,12.2
			C239.6,85.9,191.3,93.2,125.2,74.4z"/>
		<path class="st5" d="M209.6,97.3c5.6,0,10.7-0.4,14.9-1.2c31.4-6.4,44.8-25.8,51.8-40l-1.2,0.4c-7,14.2-20.4,32.8-50.8,38.8
			c-14.6,2.9-39.4,0.6-64.6-6.2c-8.9-2.5-17.7-5.4-26.2-8.7c1.2,0.8,2.5,1.9,3.9,2.5c7.2,2.7,14.6,5.2,22.1,7
			C178.1,94.6,195.6,97.3,209.6,97.3z"/>
		<path class="st5" d="M212.1,102.4c9.7,0,19.4-1,27.9-3.7c14-4.5,27.4-14,40-28.3c6-6.8,11.3-14,16.1-21.7l-1.4,0.6
			c-4.5,7.2-9.7,14-15.3,20.4c-12.6,14.2-26,23.5-39.8,28.1c-18,5.8-42.1,3.7-59.2,0.8c-9.7-1.7-19.2-3.9-27.2-6.2
			c1,0.6,2.3,1.2,3.3,1.9c7.2,1.9,15.5,3.9,23.7,5.2C189.6,101,201,102.4,212.1,102.4z"/>
	</g>
	<g>
		<path class="st6" d="M124,73.8c0.8,0.6,1.7,1,2.5,1.7c25.6,7,49.9,10.7,72,10.7c2.3,0,4.3,0,6.6-0.2c23.5-0.8,42.3-6.2,52.4-15.3
			c4.3-3.7,6.8-8,7.8-12.6c-0.4,0-0.6,0.2-1,0.2c-0.8,4.3-3.3,8.3-7.4,11.8C239.3,85.5,190.7,92.7,124,73.8z"/>
		<path class="st6" d="M305,44.7c-3.7,7.2-10.7,18.2-20.6,28.7c-12.2,13-32.4,28.9-59.8,32.2c-16.9,2.1-33.4,0.6-47.5-1.9
			c1.9,0.6,3.9,1.2,5.8,1.9c7.8,1,16.3,1.9,25,1.9c5.6,0,11.3-0.4,16.9-1C252.3,103.1,273,87,285.1,74
			c10.5-11.1,17.7-22.7,21.3-29.9C305.8,44.3,305.4,44.5,305,44.7z"/>
		<path class="st6" d="M209.6,96.7c5.6,0,10.7-0.4,14.9-1.2c30.9-6.2,44.6-25.4,51.6-39.6l-1.2,0.4c-7,14-20.6,32.4-50.5,38.4
			c-14.6,2.9-39.4,0.6-64.6-6.2c-10.9-2.9-20.6-6.4-28.3-9.7l4.1,2.9c7.8,3.1,15.7,5.6,23.7,7.8C178.1,94.2,195.6,96.7,209.6,96.7z"
			/>
		<path class="st6" d="M212.1,102c9.7,0,19.4-1,27.9-3.7c14-4.5,27.4-14,40-28.3c5.8-6.6,10.9-13.6,15.7-21l-1.4,0.6
			c-4.3,7-9.3,13.6-14.9,19.8c-12.6,14.2-26,23.5-39.8,28.1c-18,5.8-42.1,3.7-59.2,0.8c-9.7-1.7-19.4-3.9-28.9-6.6l3.3,1.9
			c8.3,2.3,16.9,4.1,25.4,5.6C189.6,100.6,201,102,212.1,102z"/>
	</g>
	
		<linearGradient id="SVGID_4_" gradientUnits="userSpaceOnUse" x1="1598.3987" y1="-276.0609" x2="1605.778" y2="-273.1894" gradientTransform="matrix(4.62 0 0 4.62 -7185.3662 1369.1289)">
		<stop  offset="1.000000e-02" style="stop-color:#52626C"/>
		<stop  offset="0.18" style="stop-color:#66747E;stop-opacity:0.8"/>
		<stop  offset="0.54" style="stop-color:#A5ACB3;stop-opacity:0.39"/>
		<stop  offset="0.87" style="stop-color:#FFFFFF;stop-opacity:0"/>
	</linearGradient>
	<path class="st7" d="M220.6,84.7L201.8,88c0,0-5.8,9.5-12,19.4c3.3,0.6,6.4,1.2,9.7,1.7c12.2,1.2,23.3,0.8,33.6-1L220.6,84.7z"/>
	<g>
		<path class="st0" d="M220.2,86.3c-4.3,8-19.4,30.9-38.8,34.9c-15.9,3.3-7-4.7-2.9-7.6c4.1-2.7,11.3-12.4,10.5-23.1
			C188.4,79.5,224.7,77.7,220.2,86.3z"/>
		<path class="st8" d="M219.1,82.6c0,0.6-0.2,1-0.4,1.7c-4.3,8-19.4,30.9-38.8,34.9c-3.9,0.8-6.4,0.8-7.6,0.6
			c-0.6,1.7,1.4,2.7,9.1,1.2c19.4-3.9,34.5-26.8,38.8-34.9C221,84.7,220.4,83.5,219.1,82.6z"/>
	</g>
	<path class="st8" d="M242.4,58.7c1.2,3.3,0.6,5.8,5.6,6C243.1,65.3,242,63,242.4,58.7z"/>
	<path class="st9" d="M112.7,27.3c9.3-1.9,58.4-6,91.2,0s-19,23.9-36.3,20.4C150.2,44.3,91,31.7,112.7,27.3z"/>
</g>
</svg>
