<?xml version="1.0" encoding="utf-8"?>
<!-- Generator: Adobe Illustrator 21.0.2, SVG Export Plug-In . SVG Version: 6.00 Build 0)  -->
<svg version="1.1" id="master-artboard" xmlns="http://www.w3.org/2000/svg" xmlns:xlink="http://www.w3.org/1999/xlink" x="0px"
	 y="0px" viewBox="0 0 150 114.8" style="enable-background:new 0 0 150 114.8;" xml:space="preserve">
<style type="text/css">
	.st0{fill:#B86F4E;}
	.st1{fill:#A36244;}
	.st2{fill:#5E351F;}
</style>
<path class="st0" d="M21.6,109.7c-1.3-1.4-2.6-2.7-3.9-4.1c-0.9-1-1.8-1.9-2.7-2.9c-0.1-0.2-0.3-0.3-0.5-0.4c-0.4-0.1-0.8,0.2-1,0.5
	c-1.2,1.2-2.4,2.4-3.5,3.7c-0.5,0.5-1,1.1-1.2,1.9c-0.1,0.7,0.3,1.6,1,1.7c2-1.6,5.3-1.4,7.2,0.4c0.3,0.3,0.6,0.7,1,0.9
	c0.8,0.5,1.7,0.4,2.6,0.3c0.7-0.1,1.5-0.4,1.5-1C22.1,110.3,21.9,110,21.6,109.7z"/>
<path class="st0" d="M104.2,36.9c0.2-0.1,0.4-0.3,0.5-0.5c0.1-0.5-0.2-0.9-0.5-1.2c-1.3-1.4-2.6-2.9-2.6-4.8c0-1.6,1-3.2,0.6-4.8
	c-2.2,1.1-4.4,2.3-6.5,3.5c-1.1,0.6-2.4,1.7-2,2.9c0.1,0.5,0.5,0.9,0.9,1.3c1.1,1.1,2.2,2.2,3.3,3.3c0.8,0.8,1.6,1.6,2.7,1.8
	C101.8,38.6,103.1,37.7,104.2,36.9z"/>
<path class="st0" d="M47.9,88.8c-0.1,1.2,0.3,2.4,1,3.3c1.6,0,2.6-1.8,3.3-3.2c0.9-1.7,2.2-3.2,3.6-4.4c-0.2-0.3-0.2-0.7-0.3-1
	c-0.5-1.9-2.3-3.3-4-4.4c-1.1-0.7-2.4-1.4-3.7-1.5c-1.4-0.1-2.8,0.5-3.4,1.7C44,80.5,44.4,82,45.3,83C46.1,83.9,46.8,88.3,47.9,88.8
	z"/>
<path class="st0" d="M132.8,5.8c-0.2,1.5,1.4,2.4,2.4,3.5c1.4,1.5,1.5,4.1,0.3,5.7c1.9,0.8,4.2,0.1,5.7-1.2c1.6-1.3,2.6-3.2,3.6-5
	c0.6-1.1,1.2-2.2,1.9-3.3c-1.4-0.7-2.8,0.7-4.2,1.1c-1.7,0.4-3.6-0.7-5.2,0c-0.3,0.1-0.5,0.3-0.9,0.3C136.1,7,132.7,6.1,132.8,5.8z"
	/>
<path class="st1" d="M89.3,27.8c-2.4-3.6-6.9-5.3-11.2-5.4c-4.3-0.1-8.6,1.2-12.6,2.7c-18.3,6.5-35.9,16-48.8,30.5
	c-4.6,5.1-8.6,11-10.4,17.6C4.4,79.7,5,87.3,9,92.9s11.7,8.7,18.1,6.3c6.8-2.5,10.4-10,12.5-17c2.1-7,3.6-14.6,8.6-19.9
	c4.7-5,11.5-7,18.2-8.7c6.6-1.7,13.5-3.3,18.7-7.6C90.3,41.6,93.1,33.5,89.3,27.8z"/>
<path class="st2" d="M105.1,32.8c-0.6-1.1-1.9-1.5-1.7-3.3c0.2-1.2,1.3-2.6,1.8-3.7c0.5-1.1,0.9-2.7,0.5-3.9
	c-0.7-2.7-3.6-4.3-6.2-2.6c-2.7,1.8-4.6,4.1-5.8,6.9c-1-2.4-2.7-4.6-5.1-6.1c-9.8-6.2-23.6-1.4-33.6,2c-11.8,4.1-22.7,10.6-32,18.8
	C8.9,53.4-11.7,85,8.4,100.5c-3.3,2.7-5.9,5.9-7.9,9.6c-0.3,0.5-0.4,1.3,0,1.8c1.6,2.1,3.6,2.4,6,1.7c2.1-0.7,3.6-1.7,5.9-1.6
	c2.5,0,4.2,2.1,6.4,2.8c2.2,0.7,4-2.2,3.8-4c-0.5-3-2.9-5.6-5.1-7.6c8.7,0.6,15.8-5.2,18.2-13.9c1.9-7.1,1.8-13.5,5.8-20
	c4.1-6.7,11.1-11.4,18.2-14.3c9.9-4.1,25.3-2,32.2-11.8c1.3-1.9,2.2-4,2.7-6.4c2.1,2.4,4.6,4,7.6,5.2c0.6,0.2,1.3,0,1.7-0.5
	C106.2,39,106.7,35.8,105.1,32.8z M90.3,39c-2.4,5.7-9.5,7.5-14.9,8.6c-9.4,1.9-17.7,3.5-25.9,8.8c-6.9,4.5-12,11-14.7,18.8
	c-1.6,4.8-1.6,10-3,14.9c-2,7.2-9.7,10.8-16.6,9.1c-1.9-0.5-2.9,2.2-1.5,3.1c-0.5,0.6-0.6,1.5,0.2,2.2c1.8,1.5,3.3,3.1,4.6,5
	c1.5,2.2-2.6-0.2-3.4-0.5c-1.5-0.5-3.2-0.5-4.8-0.4c-0.9,0.1-4.1,1.5-5.7,1.7c1.8-2.9,3.9-5.4,6.7-7.6c0.2-0.2,0.3-0.3,0.5-0.5
	c1.4-0.2,2.1-2.3,0.6-3.3C0,91.2,3.4,75.5,8.9,64.7C12.3,58,16.8,52,22.1,46.7c0,0,0.1,0,0.1,0c5.7,1,10.8,3.4,15.1,7.4
	c1.6,1.5,4.1-1,2.4-2.4c-4.2-3.9-9.1-6.6-14.7-7.9c1-0.9,2-1.8,3-2.6c8.1-6.9,17.8-12,27.8-15.7c1.3-0.5,2.6-1,4.1-1.4
	c0,0.4,0.2,0.7,0.5,1c3.5,3.4,6.2,7.3,8.1,11.8c0.9,2,3.8,0.3,3-1.8c-1.9-4.6-4.8-8.6-8.3-12.1c8.6-2.6,19.1-4.3,25.1,1.7
	C92,28.3,92.2,34.6,90.3,39z M102,38c-2.3-1-4.1-2.5-5.7-4.5c-0.5-0.5-1-0.7-1.4-0.5c0-0.8,0-1.5-0.1-2.3c0.6-0.1,1.1-0.5,1.3-1.2
	c0.7-2.4,1.8-4.2,3.5-6c2.5-0.7,3.2-0.2,2.2,1.4c-0.4,0.9-1,1.7-1.4,2.6c-0.6,1.6-0.7,2.7-0.4,4.3C100.6,34.2,103.7,35.6,102,38z"/>
<path class="st2" d="M27,78.3c-6.2-4-13.6-5.1-20.8-3c-2.1,0.6-1.2,4,0.9,3.3c6.3-1.9,12.6-1,18.1,2.6C27.2,82.5,28.9,79.5,27,78.3z
	"/>
<path class="st0" d="M64.9,94.5c2.4,3.6,6.9,5.3,11.2,5.4c4.3,0.1,8.6-1.2,12.6-2.7c18.3-6.5,35.9-16,48.8-30.5
	c4.6-5.1,8.6-11,10.4-17.6c1.8-6.6,1.2-14.2-2.8-19.8c-4-5.6-11.7-8.7-18.1-6.3c-6.8,2.5-10.4,10-12.5,17c-2.1,7-3.6,14.6-8.6,19.9
	c-4.7,5-11.5,7-18.2,8.7c-6.6,1.7-13.5,3.3-18.7,7.6C63.9,80.7,61.1,88.8,64.9,94.5z"/>
<path class="st2" d="M44.9,84.1c0.6,1.1,1.9,1.5,1.7,3.3c-0.2,1.2-1.3,2.6-1.8,3.7c-0.5,1.1-0.9,2.7-0.5,3.9
	c0.7,2.7,3.6,4.3,6.2,2.6c2.7-1.8,4.6-4.1,5.8-6.9c1,2.4,2.7,4.6,5.1,6.1c9.8,6.2,23.6,1.4,33.6-2c11.8-4.1,22.7-10.6,32-18.8
	c14.1-12.5,34.7-44.1,14.6-59.6c3.3-2.7,5.9-5.9,7.9-9.6c0.3-0.5,0.4-1.3,0-1.8c-1.6-2.1-3.6-2.4-6-1.7c-2.1,0.7-3.6,1.7-5.9,1.6
	c-2.5,0-4.2-2.1-6.4-2.8c-2.2-0.7-4,2.2-3.8,4c0.5,3,2.9,5.6,5.1,7.6c-8.7-0.6-15.8,5.2-18.2,13.9c-1.9,7.1-1.8,13.5-5.8,20
	C104.5,54.4,97.4,59,90.3,62c-9.9,4.1-25.3,2-32.2,11.8c-1.3,1.9-2.2,4-2.7,6.4c-2.1-2.4-4.6-4-7.6-5.2c-0.6-0.2-1.3,0-1.7,0.5
	C43.7,77.9,43.3,81,44.9,84.1z M59.7,77.9c2.4-5.7,9.5-7.5,14.9-8.6c9.4-1.9,17.7-3.5,25.9-8.8c6.9-4.5,12-11,14.7-18.8
	c1.6-4.8,1.6-10,3-14.9c2-7.2,9.7-10.8,16.6-9.1c1.9,0.5,2.9-2.2,1.5-3.1c0.5-0.6,0.6-1.5-0.2-2.2c-1.8-1.5-3.3-3.1-4.6-5
	c-1.5-2.2,2.6,0.2,3.4,0.5c1.5,0.5,3.2,0.5,4.8,0.4c0.9-0.1,4.1-1.5,5.7-1.7c-1.8,2.9-3.9,5.4-6.7,7.6c-0.2,0.2-0.3,0.3-0.5,0.5
	c-1.4,0.2-2.1,2.3-0.6,3.3c12.3,7.8,8.8,23.4,3.3,34.3c-3.3,6.7-7.9,12.6-13.2,17.9c0,0-0.1,0-0.1,0c-5.7-1-10.8-3.4-15.1-7.4
	c-1.6-1.5-4.1,1-2.4,2.4c4.2,3.9,9.1,6.6,14.7,7.9c-1,0.9-2,1.8-3,2.6c-8.1,6.9-17.8,12-27.8,15.7c-1.3,0.5-2.6,1-4.1,1.4
	c0-0.4-0.2-0.7-0.5-1c-3.5-3.4-6.2-7.3-8.1-11.8c-0.9-2-3.8-0.3-3,1.8c1.9,4.6,4.8,8.6,8.3,12.1c-8.6,2.6-19.1,4.3-25.1-1.7
	C57.9,88.6,57.8,82.4,59.7,77.9z M48,78.8c2.3,1,4.1,2.5,5.7,4.5c0.5,0.5,1,0.7,1.4,0.5c0,0.8,0,1.5,0.1,2.3
	c-0.6,0.1-1.1,0.5-1.3,1.2c-0.7,2.4-1.8,4.2-3.5,6c-2.5,0.7-3.2,0.2-2.2-1.4c0.4-0.9,1-1.7,1.4-2.6c0.6-1.6,0.7-2.7,0.4-4.3
	C49.4,82.7,46.3,81.3,48,78.8z"/>
<path class="st2" d="M123,38.6c6.2,4,13.6,5.1,20.8,3c2.1-0.6,1.2-4-0.9-3.3c-6.3,1.9-12.6,1-18.1-2.6
	C122.8,34.4,121.1,37.4,123,38.6z"/>
</svg>
