<?xml version="1.0" encoding="utf-8"?>
<!-- Generator: Adobe Illustrator 21.0.2, SVG Export Plug-In . SVG Version: 6.00 Build 0)  -->
<svg version="1.1" id="Слой_1" xmlns="http://www.w3.org/2000/svg" xmlns:xlink="http://www.w3.org/1999/xlink" x="0px" y="0px"
	 viewBox="0 0 150 80.8" style="enable-background:new 0 0 150 80.8;" xml:space="preserve">
<style type="text/css">
	.st0{fill:#35B131;}
</style>
<path class="st0" d="M148.7,15.9c-0.9-1.4-3.9-0.8-3.9-0.8s1.2-1.9,2.8-2.6c0,0,0.7-0.3,0.7-1.1c0,0,0.7-3.2-1.7-4.7
	c0,0-1.5-1.8-4.9-1.8c0,0-2,0.2-3.7-0.4c0,0-5.1-1.2-7.3,1.5c0,0-1.8,2.1-1.5,3.4c0,0,0.2,1.1-2.5,1.3c0,0-2.1,0.7-1.3,1.2
	c0.9,0.5-2.6,0.5-1.9,1.4c0.7,0.9-2.7,0.5-1.3,1.5c0,0-2.2,0.3-0.3,0.9c1.9,0.7-3.4,0.9-1.2,1.5c2.1,0.7-5,2-1.7,2.5
	c3.3,0.5-4.6,0.8-1.1,1.9c0,0-4,2-0.9,2.4c3.1,0.3-5.2,2.4-1.5,2.3s-7.3,2.4-1,2c0,0,1.1,0.6-0.1,2.1c0,0-2.2,2.2-2.4,4.1
	c0,0-0.6,0.8-1.4,1c0,0-1.6,0.2-2.4,2.5c0,0-1.5-0.1-2,1.1c0,0-3.9-0.8-2.4,0.5c1.5,1.3-6-0.7-2.9,1.2s-5.3-1.1-2.5,0.9
	s-5.2-1.7-2,1.1c0,0-3.6-1.1-1.6,0.7c2,1.7-4.2-1.9-1.9,0.3c2.3,2.2-4-1.6-1.6,0.9c0,0-4.6-1.4-2.8,0.5c1.8,1.8-4.2-1.8-2.2,0.5
	c2,2.2-3.8-1.5-2.2,0.5c1.6,2-3.3-1.1-2.2,0.2c1.1,1.4-3.6-0.9-2.2,0.4c1.3,1.4-4.5-0.3-3.4,0.9c1.1,1.3-4.5-0.7-3.7,0.7
	c0,0-1.1,1.4-3.9,1.1c-3.4-0.4-1.2,1.2-4.5,0.8s-0.6,1.9-3.7,1.6c-3.1-0.4-3.1,1.5-3.1,1.5c-2-0.3-1.4,1.1-3.6,0.6
	c-2.2-0.5-1.2,1.7-3.7,0.8c-2.5-0.9-2.2,1.1-4.2,0.3c-2-0.7-0.6,1.9-3,0.9c-2.5-1-2.1,0.5-4.2-0.2c-2-0.7-1.9,0.9-3.4-0.1
	c-1.5-1-1.4,1.5-2.9-0.4c-1.5-1.9-1.4,0.4-2.8-1c-2.1-2.1-2.2-0.6-2.2-0.6C10.3,47.1,5.6,37.2,5.6,37.2c-3.9-6.8-1.5-21.5-1.5-21.5
	C4.9,9,4.8,1.6,4.8,1.6C4.4-1.7,3.6,1.1,3.6,1.1c0.2,2.5-1.7,12.4-1.7,12.4C-4.8,39,8.4,51.5,8.4,51.5C27.8,74.3,61.1,68,61.1,68
	l2.9-0.8c0.7,1.7,4.7,2.7,4.7,2.7c-0.5,0.2-0.5,2.4-0.5,2.4C67.7,75,70.4,76,70.4,76c2,2.2,4.8,2.3,4.8,2.3c0.4,0.7,2,1.4,2,1.4
	c0.8-0.7,0.1-2.1,0.1-2.1c0.9,1.1,3,1.1,3,1.1c0.5,0.1,1.5,2.1,1.5,2.1c0.9-0.5,0.3-2.5,0.3-2.5c0.2-0.7-0.7-2-0.7-2
	c0.5,0.5,1.7,0.8,1.7,0.8c0.7,0,1.5,1.7,1.5,1.7c0.7-0.6,0-2.7,0-2.7c-0.2-1.7-2-2.3-2-2.3c0-2.1-5.5-1.6-5.5-1.6
	c0.2-1.1-0.3-2.1-0.3-2.1c-0.3-1.5,0.1-2.4,0.1-2.4c3.3,2,11.3,2.3,11.3,2.3c16,0.3,26.7-7.9,26.7-7.9c0.2,0.7,1.3,1.7,1.3,1.7
	c0.8,0.8,1,2,1,2c2,5.2,7.6,5.7,7.6,5.7c1.6,1.1,4.7-0.3,4.7-0.3c0.9-0.3,1.4,0.8,1.4,0.8c1.5-1.1,0.7-2.9,0.7-2.9
	c1.4,0.3,6.8-2.8,6.8-2.8c0.5-0.8,2,0,2,0c0.1-1.5-1.8-1.8-1.8-1.8c-0.5-1.5-6.1,1-6.1,1l2.7-2.2c0.1-0.4,1.6-0.6,1.6-0.6
	c-0.3-0.9-1.6-0.9-1.6-0.9c-1.8-1.3-5.1,1.8-5.1,1.8c-0.9-0.9-2.7,1.2-2.7,1.2c-0.4-0.9-3.7-4.9-3.7-4.9c1.3-0.7,1.8-4,1.8-4
	c0.9-0.5,1-2.9,1-2.9c0.7,1.1,4,0.8,4,0.8c0.7,0.7,3.4-0.2,3.4-0.2c2.6,1.5,1.6-0.8,1.6-0.8c1-0.1,3.6-1.8,3.6-1.8
	c0.3-0.5,2.6,0,2.6,0c-0.1-1.3-2.3-2.1-2.3-2.1c-0.4-0.8-1.8-0.3-1.8-0.3c0.2-0.8,2-1.2,2-1.2c1.2-0.1,1.6-0.9,1.6-0.9
	c0.2-0.5,1.6-0.7,1.6-0.7c-0.5-0.8-2-0.6-2-0.6c-1.5-1.3-6.2,2.7-6.2,2.7c-0.2-0.4,0.3-1.5,0.3-1.5c-0.6-0.2-1.6,0.7-1.6,0.7
	c-0.5-0.3-1.5,1.3-1.5,1.3c-1.5,1.3-2.6-0.9-2.6-0.9c1.1-0.9,1.3-3.5,1.3-3.5c2.7-0.8,4.1-5.7,4.1-5.7c2.8-3.6,2.2-5.3,2.2-5.3
	c2.8-2.6,3.2-6.1,3.2-6.1c2.5-1.2,4.8-4.4,4.8-4.4c1.9-0.9,2.6-2.6,2.6-2.6c1.5-1.1,2-2.4,2-2.4C150.2,16.1,148.7,15.9,148.7,15.9z
	 M136.1,16.5c-4.4,0.9-3-2.1-3-2.1c1.5-1.8,4.8-1.1,4.8-1.1C138.8,15.5,136.1,16.5,136.1,16.5z"/>
</svg>
