<?xml version="1.0" encoding="utf-8"?>
<!-- Generator: Adobe Illustrator 21.0.2, SVG Export Plug-In . SVG Version: 6.00 Build 0)  -->
<svg version="1.1" id="master-artboard" xmlns="http://www.w3.org/2000/svg" xmlns:xlink="http://www.w3.org/1999/xlink" x="0px"
	 y="0px" viewBox="0 0 100.2 150" style="enable-background:new 0 0 100.2 150;" xml:space="preserve">
<style type="text/css">
	.st0{fill:#8A5E3C;}
	.st1{fill:#C3996B;}
	.st2{fill:#603A17;}
	.st3{fill:#E54145;}
	.st4{fill:#BE2838;}
</style>
<g transform="matrix(1, 0, 0, 1, 0, 0)">
	<g>
		<path class="st0" d="M54.3,114.5l-3.3,2.8l-0.1-3.6L49.7,2.8L53,0l3.4,0.9L54.3,114.5z"/>
		<path class="st1" d="M51,117.3l-3.4-0.9L49.7,2.8l3.4,0.9L51,117.3z"/>
	</g>
	<g>
		<path class="st0" d="M88.6,124.3l-3.2,2.8l-0.2-3.6L82.4,10l3.2-2.8L89.1,8L88.6,124.3z"/>
		<path class="st1" d="M85.3,127.1l-3.5-0.8L82.4,10l3.5,0.8L85.3,127.1z"/>
	</g>
	<g>
		<g>
			<path class="st0" d="M20.4,135.5l-3.2,2.8l-0.2-3.6l-2.7-48.6l3.2-2.8l3.5,0.8L20.4,135.5z"/>
			<path class="st1" d="M17.1,138.3l-3.4-0.8l0.5-51.4l3.5,0.8L17.1,138.3z"/>
		</g>
		<g>
			<path class="st0" d="M59.1,147.2l-3.3,2.8l-0.2-3.6l-2.7-48.6l3.2-2.8l3.5,0.8L59.1,147.2z"/>
			<path class="st1" d="M55.8,150l-3.4-0.8l0.5-51.4l3.5,0.8L55.8,150z"/>
		</g>
	</g>
	<g>
		<path class="st0" d="M95.1,36.3l-3.1,2.8L44.4,25.9l-3.1-3.2l3.1-2.8l50.7,10.4V36.3z"/>
		<path class="st1" d="M92.1,39.1L41.3,28.7v-6.1L92.1,33V39.1z"/>
	</g>
	<g>
		<path class="st0" d="M95.1,49.9l-3.1,2.8L44.4,39.5l-3.1-3.2l3.1-2.8l50.7,10.4V49.9z"/>
		<path class="st1" d="M92.1,52.7L41.3,42.3v-6.1l50.7,10.4V52.7z"/>
	</g>
	<g>
		<path class="st0" d="M95.1,21.2L92.1,24L44.4,10.8l-3.1-3.2l3.1-2.8l50.7,10.3V21.2z"/>
		<path class="st1" d="M92.1,24L41.3,13.6V7.6l50.7,10.3V24z"/>
	</g>
	<g>
		<path class="st0" d="M95.1,79.3l-37,24.5L3.8,87.5v-6.1l37-18.6l54.3,10.4V79.3z"/>
		<path class="st2" d="M95.1,79.3v-5.4l-38,24.3l-1.5,2.1l0.2,2.8l2.3,0.7L95.1,79.3z"/>
		<path class="st1" d="M58.1,103.8L3.8,87.5v-6.1l54.3,16.3V103.8z"/>
	</g>
	<path class="st3" d="M9.3,80.5l49.1,13.2L90,75.2c0,0,0.3-4.5-8.7-7.6S50.5,61,46.9,61c-3.5,0-29.7,13.2-32.5,14.1
		C11.7,76.1,9.3,80.5,9.3,80.5z"/>
	<path class="st4" d="M87.7,71.2L56.7,89.3L11.6,77.2c-1.4,1.5-2.3,3.2-2.3,3.2l49.1,13.2L90,75.2C89.9,75.2,90,73.3,87.7,71.2z"/>
</g>
</svg>
