<?xml version="1.0" encoding="utf-8"?>
<!-- Generator: Adobe Illustrator 21.0.2, SVG Export Plug-In . SVG Version: 6.00 Build 0)  -->
<svg version="1.1" id="master-artboard" xmlns="http://www.w3.org/2000/svg" xmlns:xlink="http://www.w3.org/1999/xlink" x="0px"
	 y="0px" viewBox="0 0 134.7 150" style="enable-background:new 0 0 134.7 150;" xml:space="preserve">
<style type="text/css">
	.st0{fill:#395C90;}
	.st1{fill:#27436D;}
</style>
<path class="st0" d="M77.4,85.2c-1.7,8.7-7.6,10.8-13,8.4c-5.5-2.5-7.5-11.1,2.6-15s7-9.1,9.2-9.2C78,69.3,79.1,76.5,77.4,85.2z
	 M46.3,60.6c-2.3,0.1,0.9,5.2-9.2,9.2c-10.1,3.9-8,12.5-2.6,15s11.3,0.4,13-8.4C49.2,67.8,48.1,60.6,46.3,60.6z M80,94.5
	c-2.3,0.1,0.9,5.2-9.2,9.2c-10.1,3.9-8,12.5-2.6,15s11.3,0.4,13-8.4C82.9,101.7,81.8,94.4,80,94.5z M50.8,85.8
	c-2.3,0.1,0.9,5.2-9.2,9.2c-10.1,3.9-8,12.5-2.6,15c5.5,2.5,11.3,0.4,13-8.4C53.7,93,52.6,85.7,50.8,85.8z M55.4,117.7
	c-2.3,0.1,0.9,5.2-9.2,9.2s-8,12.5-2.6,15c5.5,2.5,11.3,0.4,13-8.4C58.3,124.8,57.2,117.6,55.4,117.7z M24.4,84.5
	c-2.3,0.1,0.9,5.2-9.2,9.2c-10.1,3.9-8,12.5-2.6,15c5.5,2.5,11.3,0.4,13-8.4C27.2,91.6,26.1,84.4,24.4,84.5z M29.8,112
	c-2.3,0.1,0.9,5.2-9.2,9.2c-10.1,3.9-8,12.5-2.6,15c5.5,2.5,11.3,0.4,13-8.4C32.6,119.1,31.5,111.9,29.8,112z M80,124.8
	c-2.3,0.1,0.9,5.2-9.2,9.2c-10.1,3.9-8,12.5-2.6,15s11.3,0.4,13-8.4C82.9,132,81.8,124.8,80,124.8z M134.7,33.7v-0.5
	c0-0.3,0-0.6-0.1-0.9c-0.1-0.7-0.2-1.3-0.4-1.9s-0.4-1.2-0.6-1.8c-0.5-1.1-1.1-2.2-1.9-3.2c-0.4-0.5-0.8-1-1.2-1.3
	c-0.4-0.4-0.9-0.8-1.4-1.2c-0.5-0.4-1-0.7-1.5-1s-1-0.5-1.5-0.7c0-1,0-1.9-0.1-2.9s-0.4-2-0.6-3.1c-0.3-1-0.7-2-1.1-2.9
	c-0.4-1-1-1.9-1.6-2.8c-0.6-0.9-1.2-1.8-2-2.5c-0.3-0.4-0.7-0.8-1.1-1.1c-0.4-0.3-0.8-0.8-1.2-1.1l-1.3-1c-0.4-0.3-0.9-0.6-1.4-0.9
	s-1-0.5-1.4-0.8s-1-0.5-1.5-0.7L111.1,1l-1.6-0.4c-0.5-0.1-1.1-0.2-1.6-0.3s-1.1-0.2-1.6-0.2L104.7,0c-0.6,0-1,0-1.6,0
	c-1.1,0-2.2,0.2-3.3,0.4c-2.1,0.5-4.2,1.2-6.1,2.4c-1.7,1-3.1,2.1-4.5,3.5c-1-0.3-2.1-0.5-3.2-0.7c-0.7,0-1.4-0.1-2.1-0.1h-0.6h-0.5
	c-0.3,0-0.7,0-1,0.1c-2.8,0.4-5.4,1.5-7.6,3l-1.3,1l1.6,0.3c0.8,0.1,1.6,0.4,2.4,0.6c0.8,0.3,1.6,0.6,2.3,0.9
	c0.8,0.4,1.5,0.8,2.1,1.2c0.7,0.5,1.3,1,1.9,1.5c0.6,0.6,1.2,1.1,1.7,1.8c0.5,0.6,1,1.3,1.5,1.9c0.4,0.7,0.9,1.4,1.2,2.1
	c0.3,0.8,0.6,1.5,0.9,2.3l0.2,0.7h0.8h1.1c0.3,0,0.8,0,1.1,0.1c0.8,0,1.4,0.2,2.1,0.4c0.7,0.2,1.4,0.4,2,0.7c0.3,0.1,0.7,0.3,1,0.4
	l1,0.5c0.6,0.4,1.2,0.8,1.8,1.2c0.6,0.4,1.1,0.9,1.6,1.4s1,1,1.4,1.6s0.8,1.1,1.1,1.8c0.4,0.6,0.6,1.2,0.9,1.9
	c0.2,0.7,0.5,1.3,0.6,2l0.2,1l0.1,1c0.1,0.7,0,1.4,0.1,2c0,0.4,0,0.7,0,1s-0.1,0.7-0.1,1c-0.1,0.7-0.3,1.3-0.5,2
	c-0.4,1.3-1,2.6-1.8,3.7l-2.1,3.3h3.9h6c2,0,4,0,6,0h3h0.8c0.4,0,0.5,0,0.9,0c0.7,0,1.2-0.2,1.9-0.3c2.3-0.6,4.4-2,5.8-3.9
	c1.9-1.6,3.4-3.7,4.3-5.9c0.5-1.2,0.8-2.5,1-3.8c0.1-0.6,0.1-1.3,0.1-1.9L134.7,33.7z M100.9,38.2c-0.1-0.6-0.3-1.1-0.4-1.7
	c-0.2-0.6-0.4-1.1-0.6-1.7c-0.3-0.5-0.5-1.1-0.8-1.6s-0.6-1-0.9-1.5s-0.7-1-1.1-1.4c-0.4-0.5-0.8-0.9-1.2-1.3
	c-0.4-0.4-0.9-0.9-1.3-1.2c-0.5-0.4-1-0.8-1.5-1c-0.5-0.3-1-0.6-1.6-0.9c-0.5-0.3-1.1-0.5-1.7-0.8s-1.1-0.4-1.7-0.6
	s-1.2-0.3-1.8-0.4c-0.6-0.1-1.2-0.1-1.9-0.2h-0.5h-0.5h-0.1c-0.9-2.5-2.2-4.8-4-6.8c-0.5-0.6-1-1-1.5-1.6c-0.5-0.5-1.1-1-1.7-1.4
	s-1.2-0.9-1.8-1.2c-0.6-0.4-1.3-0.7-1.9-1c-0.7-0.3-1.3-0.6-2-0.8s-1.4-0.4-2.1-0.6c-1.4-0.3-2.9-0.5-4.4-0.5s-2.9,0.1-4.4,0.4
	c-1.1,0.2-2.1,0.5-3.2,0.9c-1.7-1.5-3.6-2.9-5.7-3.9c-2.4-1.2-4.9-2-7.6-2.5c-1.3-0.2-2.6-0.4-3.9-0.4c-0.7,0-1.3,0-2,0l-1.9,0.1
	c-0.6,0-1.3,0.2-1.9,0.3C32.6,5,32,5.1,31.4,5.3l-1.9,0.5l-1.8,0.7c-0.6,0.2-1.2,0.5-1.8,0.8c-0.6,0.3-1.2,0.6-1.7,0.9
	c-0.6,0.3-1.1,0.7-1.7,1l-1.6,1.1c-0.5,0.4-1,0.8-1.5,1.2s-1,0.9-1.4,1.3c-0.9,0.9-1.7,1.9-2.5,2.9c-0.7,1-1.5,2.1-2.1,3.2
	c-0.7,1.1-1.1,2.3-1.7,3.5c-0.4,1.2-0.9,2.4-1.1,3.7c-0.3,1.1-0.4,2.2-0.6,3.4c-0.6,0.3-1.1,0.6-1.6,0.9c-0.6,0.4-1.3,0.9-1.9,1.3
	c-0.6,0.4-1.1,1-1.7,1.6c-0.5,0.6-1,1.1-1.5,1.8c-0.9,1.2-1.7,2.6-2.2,4c-0.3,0.7-0.5,1.5-0.7,2.2c-0.2,0.8-0.3,1.5-0.4,2.3
	c0.1,0.4,0,0.8,0,1.1v0.6v0.5c0,0.7,0,1.6,0.1,2.3c0.2,1.6,0.6,3.1,1.2,4.6C2.5,55.5,4.4,58,6.8,60c1.4,1.9,3.3,3.3,5.5,4.1
	c1.1,0.4,2.3,0.7,3.5,0.8c0.3,0,0.6,0,0.9,0h0.8H19L31.3,65c4.1,0,8.2,0,12.3,0c2,0,4.1,0,6.2,0H56c4.1,0,8.2-0.1,12.3-0.2
	c2,0,4.1-0.1,6.2-0.2l6.2-0.3l6.2-0.3c0.6,0,1-0.1,1.6-0.1c0.6-0.1,1.1-0.2,1.7-0.4c1.1-0.3,2.1-0.8,3-1.4c1.9-1.2,3.3-2.9,4.2-4.8
	c0.5-1,0.8-2,1-3c0.1-1,0.2-2.1,0.1-3c0.4-0.7,0.8-1.4,1.1-2.2c0.4-0.8,0.7-1.6,0.9-2.4c0.5-1.7,0.7-3.4,0.7-5.1l0,0l-0.1-1.8
	L100.9,38.2z"/>
<path class="st1" d="M80,124.8c-2.3,0.1,0.9,5.2-9.2,9.2c-10.1,3.9-8,12.5-2.6,15c5.5,2.5,11.3,0.4,13-8.4
	C82.9,132,81.8,124.8,80,124.8z"/>
<path class="st1" d="M100.6,46.8c0.5-1.7,0.7-3.4,0.7-5.1l0,0l-0.1-1.8l-0.2-1.8c-0.1-0.6-0.3-1.1-0.4-1.7c-0.2-0.6-0.4-1.1-0.6-1.7
	c-0.3-0.5-0.5-1.1-0.8-1.6s-0.6-1-0.9-1.5s-0.7-1-1.1-1.4c-0.4-0.5-0.8-0.9-1.2-1.3c-0.4-0.4-0.9-0.9-1.3-1.2c-0.5-0.4-1-0.8-1.5-1
	c-0.5-0.3-1-0.6-1.6-0.9c-0.5-0.3-1.1-0.5-1.7-0.8s-1.1-0.4-1.7-0.6S87,24.1,86.4,24c-0.6-0.1-1.2-0.1-1.9-0.2H84h-0.5h-0.1
	c-0.9-2.5-2.2-4.8-4-6.8c-0.5-0.6-1-1-1.5-1.6c-0.5-0.5-1.1-1-1.7-1.4s-1.2-0.9-1.8-1.2c-0.6-0.4-1.3-0.7-1.9-1
	c-0.7-0.3-1.3-0.6-2-0.8s-1.4-0.4-2.1-0.6C67,10.1,65.5,9.9,64,9.9c-1.2,0-2.5,0.1-3.8,0.3v55.2c2.8,0,5.6-0.1,8.3-0.1
	c2,0,4.1-0.1,6.2-0.2l6.2-0.3l6.2-0.3c0.6,0,1-0.1,1.6-0.1c0.6-0.1,1.1-0.2,1.7-0.4c1.1-0.3,2.1-0.8,3-1.4c1.9-1.2,3.3-2.9,4.2-4.8
	c0.5-1,0.8-2,1-3c0.1-1,0.2-2.1,0.1-3c0.4-0.7,0.8-1.4,1.1-2.2C100,48.4,100.3,47.6,100.6,46.8z"/>
<path class="st1" d="M80,94.5c-2.3,0.1,0.9,5.2-9.2,9.2c-10.1,3.9-8,12.5-2.6,15c5.5,2.5,11.3,0.4,13-8.4
	C82.9,101.7,81.8,94.4,80,94.5z"/>
<path class="st1" d="M134.6,33.3c0-0.3,0-0.6-0.1-0.9c-0.1-0.7-0.2-1.3-0.4-1.9s-0.4-1.2-0.6-1.8c-0.5-1.1-1.1-2.2-1.9-3.2
	c-0.4-0.5-0.8-1-1.2-1.3c-0.4-0.4-0.9-0.8-1.4-1.2c-0.5-0.4-1-0.7-1.5-1s-1-0.5-1.5-0.7c0-1,0-1.9-0.1-2.9s-0.4-2-0.6-3.1
	c-0.3-1-0.7-2-1.1-2.9c-0.4-1-1-1.9-1.6-2.8c-0.6-0.9-1.2-1.8-2-2.5c-0.3-0.4-0.7-0.8-1.1-1.1c-0.4-0.3-0.8-0.8-1.2-1.1l-1.3-1
	c-0.4-0.3-0.9-0.6-1.4-0.9s-1-0.5-1.4-0.8s-1-0.5-1.5-0.7L111.1,1l-1.6-0.4c-0.5-0.1-1.1-0.2-1.6-0.3s-1.1-0.2-1.6-0.2L104.7,0
	c-0.6,0-1,0-1.6,0c-1.1,0-2.2,0.2-3.3,0.4c-2.1,0.5-4.2,1.2-6.1,2.4c-1.7,1-3.1,2.1-4.5,3.5c-1-0.3-2.1-0.5-3.2-0.7
	c-0.7,0-1.4-0.1-2.1-0.1h-0.6h-0.5c-0.3,0-0.7,0-1,0.1c-2.8,0.4-5.4,1.5-7.6,3l-1.3,1l1.6,0.3c0.8,0.1,1.6,0.4,2.4,0.6
	c0.8,0.3,1.6,0.6,2.3,0.9c0.8,0.4,1.5,0.8,2.1,1.2c0.7,0.5,1.3,1,1.9,1.5c0.6,0.6,1.2,1.1,1.7,1.8c0.5,0.6,1,1.3,1.5,1.9
	c0.4,0.7,0.9,1.4,1.2,2.1c0.3,0.8,0.6,1.5,0.9,2.3l0.2,0.7h0.8h1.1c0.3,0,0.8,0,1.1,0.1c0.8,0,1.4,0.2,2.1,0.4
	c0.7,0.2,1.4,0.4,2,0.7c0.3,0.1,0.7,0.3,1,0.4l1,0.5c0.6,0.4,1.2,0.8,1.8,1.2c0.6,0.4,1.1,0.9,1.6,1.4s1,1,1.4,1.6s0.8,1.1,1.1,1.8
	c0.4,0.6,0.6,1.2,0.9,1.9c0.2,0.7,0.5,1.3,0.6,2l0.2,1l0.1,1c0.1,0.7,0,1.4,0.1,2c0,0.4,0,0.7,0,1s-0.1,0.7-0.1,1
	c-0.1,0.7-0.3,1.3-0.5,2c-0.4,1.3-1,2.6-1.8,3.7l-2.1,3.3h3.9h6c2,0,4,0,6,0h3h0.8c0.4,0,0.5,0,0.9,0c0.7,0,1.2-0.2,1.9-0.3
	c2.3-0.6,4.4-2,5.8-3.9c1.9-1.6,3.4-3.7,4.3-5.9c0.5-1.2,0.8-2.5,1-3.8c0.1-0.6,0.1-1.3,0.1-1.9v-0.5L134.6,33.3z"/>
<path class="st1" d="M64.4,93.6c5.5,2.5,11.3,0.4,13-8.4c1.7-8.7,0.6-16-1.2-15.9c-2.3,0.1,0.9,5.2-9.2,9.2
	c-4.1,1.6-6.2,3.9-6.9,6.4v3.7C60.7,90.7,62.3,92.6,64.4,93.6z"/>
</svg>
