<?xml version="1.0" encoding="utf-8"?>
<!-- Generator: Adobe Illustrator 21.0.2, SVG Export Plug-In . SVG Version: 6.00 Build 0)  -->
<svg version="1.1" id="master-artboard" xmlns="http://www.w3.org/2000/svg" xmlns:xlink="http://www.w3.org/1999/xlink" x="0px"
	 y="0px" viewBox="0 0 150 95.9" style="enable-background:new 0 0 150 95.9;" xml:space="preserve">
<style type="text/css">
	.st0{fill:url(#SVGID_1_);}
	.st1{fill:url(#SVGID_2_);}
	.st2{fill:url(#SVGID_3_);}
</style>
<g id="icons">
	<g>
		
			<linearGradient id="SVGID_1_" gradientUnits="userSpaceOnUse" x1="834.0729" y1="653.2075" x2="834.0729" y2="745.0084" gradientTransform="matrix(-1 0 0 -1 875.278 749.0593)">
			<stop  offset="0" style="stop-color:#BBE4EB"/>
			<stop  offset="1" style="stop-color:#76CED9"/>
		</linearGradient>
		<path class="st0" d="M71.3,14.9c0.2,0,0.2,0.2,0.3,0.2c1.6,1.5,3.2,2.9,4.5,5c1.2,2,1.8,4.4,2.6,6.9c1.5,4.9,3.8,10.4,3.6,15.6
			c-0.1,2.1-0.9,4.2-1.4,6.2c-0.3-0.7-0.2-1.6-0.7-2.1c0.7,11.3-8.1,14.6-9.4,24.5c-0.4,0.4-0.7-1.7-1-1.4c-0.1,1.9,0.5,3.1,0.9,4.7
			c-0.9-0.3-1.7-2.1-2.4-3.1c-1.5,6.8-2.4,15.5,1.4,20.3c0.9,1.1,2.1,2,3.1,2.6c0.7,0.4,1.7,0.6,2.3,1.4c-15.3,0-30.7,0-46,0
			c-0.6-3.8-1-8.4-3.5-10.1c-4-2.6-11.2-0.1-15.5-2.9C9,82,7.7,79.9,7.7,78c0-1.4,1.1-2.8,0.7-4.9c-0.3-1.4-2.2-1.7-2.3-3.5
			c0-1.1,0.7-1.2,1.2-2.1c-3.1-0.5-1.7-4.7-1-6.9c-1.7-1-5.7-0.8-6.2-3.1c-0.7-2.8,2.4-5.4,3.8-7.1c0.8-1,1.4-2.2,2.3-3.1
			c1-1.1,2-2,2.4-3.1c0.9-2.4-0.7-4.2-0.9-6.2c-0.6-5.3,2-8.6,2.9-13.2c-1.1,0.7-1.5,2-2.4,2.8c0-0.5,0-1,0-1.6
			c-0.7,0.2-0.9,1.9-1.6,1.6C10.5,17,18.7,9.7,30,6.5c3.8-1.1,8.5-2,12.5-2.3c8.2-0.6,14.8,0.2,20.2,3.3c1.5,0.9,3.3,1.6,5,2.9
			c1.2,0.9,4.5,3.9,3.5,4.2C71.2,14.7,71.3,14.8,71.3,14.9z M70.6,14.3C70,13.9,71.5,15,70.6,14.3L70.6,14.3z"/>
		<g>
			
				<linearGradient id="SVGID_2_" gradientUnits="userSpaceOnUse" x1="102.7264" y1="749.0593" x2="102.7264" y2="653.2377" gradientTransform="matrix(1 0 0 -1 0 749.0593)">
				<stop  offset="0" style="stop-color:#EC008C"/>
				<stop  offset="1" style="stop-color:#F49AC1"/>
			</linearGradient>
			<path class="st1" d="M150,57.3c0-2.4-3.3-3.7-4.8-5.5c-0.7-0.8-1.2-2.1-1.9-3.1c-1.1-1.9-2.4-3.3-1.9-6.3
				c1.5-0.3,2.6-1.2,3.3-2.2c-0.9,0.8-1.7,1.5-2.9,1.4c1.5-5.3-1-11.2-2.3-15.4c1-0.1,1.7,1.5,2.2,2.4c0.3-0.6-0.4-1.6-0.5-2.2
				c0.5,0.1,0.8,0.8,1.2,1.2c0.3,0.3,0.7,1.4,0.9,0.7c-0.9-1.8-1.5-3.8-2.8-5.3c1.5,0.5,2.8,2.7,3.6,4.4c0.4-2.7-2.3-3.8-3.3-5.6
				c1.6,0.9,2.7,2.2,3.8,3.6c-0.3-2-2.3-3.7-4.1-4.8c1,0.2,2.5,1.4,3.3,2.4c-0.3-1.4-1.7-2.5-2.9-3.6c-2.4-2.1-5.2-3.7-8.2-5.5
				c-4.3-2.5-8.5-4.9-14.4-6.2c-5.6-1.2-11.4-2.4-18.6-1.9c-6.4,0.4-11.1,2.8-15.2,5.8C80.9,5.2,77.2-0.6,66.9,0.1
				c-4.5,0.3-8.4,2.3-11.5,4.8c2.6,0.5,5,1.4,7.2,2.7c1.5,0.9,3.3,1.6,5,2.9c1.2,0.9,4.5,3.9,3.5,4.2c0.1,0,0.2,0,0.2,0.2
				c0.2,0,0.2,0.2,0.3,0.2c1.6,1.5,3.2,2.9,4.5,5c1.2,2,1.8,4.4,2.6,6.9c1.5,4.9,3.8,10.4,3.6,15.6c-0.1,2.1-0.9,4.2-1.4,6.2
				c-0.3-0.7-0.2-1.6-0.7-2.1c0.4,6.7-2.5,10.6-5.3,14.8c2.1,3.9,4.8,7.3,8,10.5c1,1,2.3,2.1,4,3.1c1.4,0.9,3.4,2,3.8,3.1
				c0.3,1,0.3,2.7,0.3,4c0.4,6.8-1,11.8-6,13.2c11.4,0.8,24.3,0.1,36.3,0.3c0.7-3.5,0.8-6.7,2.4-8.9c1.8-2.5,5.9-2.1,9.3-2.2
				c4.2-0.2,9-1.2,9.3-5.5c0.1-1.9-1.5-2.9-1-4.6c0.4-1.8,3.5-1.2,3.6-3.6c0.1-1.7-1.2-1.8-2.1-2.9c3.8-0.2,2.7-4.9,1-6.7
				C145.9,59.8,150.1,60.7,150,57.3z"/>
			
				<linearGradient id="SVGID_3_" gradientUnits="userSpaceOnUse" x1="70.4853" y1="734.6909" x2="70.9182" y2="734.6909" gradientTransform="matrix(1 0 0 -1 0 749.0593)">
				<stop  offset="0" style="stop-color:#EC008C"/>
				<stop  offset="1" style="stop-color:#F49AC1"/>
			</linearGradient>
			<path class="st2" d="M70.6,14.3C70,13.9,71.5,15,70.6,14.3L70.6,14.3z"/>
		</g>
	</g>
</g>
</svg>
