<?xml version="1.0" encoding="utf-8"?>
<!-- Generator: Adobe Illustrator 21.0.2, SVG Export Plug-In . SVG Version: 6.00 Build 0)  -->
<svg version="1.1" id="master-artboard" xmlns="http://www.w3.org/2000/svg" xmlns:xlink="http://www.w3.org/1999/xlink" x="0px"
	 y="0px" viewBox="0 0 150 83.2" style="enable-background:new 0 0 150 83.2;" xml:space="preserve">
<style type="text/css">
	.st0{fill:#03193A;}
	.st1{fill:#27436D;}
	.st2{fill:#F6A6B5;}
	.st3{fill:#D2E3ED;}
	.st4{fill:#395C90;}
</style>
<path class="st0" d="M147.9,42.9l0.3-1c0.2-0.8,0-1.7-0.7-2.2c-0.4-0.3-0.8-0.4-1.2-0.4c-0.4,0-0.8,0.1-1.1,0.3l-0.3,0.2
	c0-0.5-0.3-1-0.8-1.4c-0.4-0.3-0.8-0.4-1.2-0.4c-0.2,0-0.4,0-0.6,0.1l-2.1,0.7c0,0-0.1-0.1-0.1-0.2l0.4-1c0.2-0.6,0.2-1.2-0.1-1.8
	c-0.3-0.4-0.7-0.8-1.2-0.9c5.7-2.8,9.5-8.3,10.5-15.4c1-6.7-0.6-13.3-4-16c-0.2-0.1-0.3-0.2-0.5-0.3c-1.2-0.5-2.3-0.8-3.5-0.8
	c-1.2,0-2.3,0.3-3.5,0.6c-1.4,0.4-2.8,0.7-4.7,0.7c-1.3,0-2.7-0.2-4.3-0.5c-1.2-0.2-2.4-0.5-3.8-0.8C120.2,1.4,113.8,0,106.8,0
	C100,0,94.1,1.4,88.7,4.1C86.8,3,82.7,1,77.2,1c-6.7,0-13.3,2.9-19.5,8.6c-0.5,0.5-0.7,1.2-0.6,1.8c0.1,0.7,0.6,1.2,1.2,1.5
	c0.1,0,8.4,3.3,12.9,7.2c-1.1,1.5-2,3-2.7,4.3c-3.7,7.4-8.3,14.6-19.9,14.8l-5.7-4.9c-0.4-0.3-0.8-0.5-1.3-0.5c-0.2,0-0.5,0-0.7,0.1
	c-0.7,0.2-1.2,0.8-1.3,1.6c0,0-0.2,1-0.5,2.3c-1.9-1-3.9-2.4-5.5-4.6c0.9-2.8,3.1-10.9-0.2-17.5c-2-4.1-5.7-6.9-10.9-8.3
	c-0.2,0-0.4-0.1-0.5-0.1c-0.6,0-1.2,0.3-1.6,0.8c-0.5,0.6-0.6,1.5-0.2,2.2c0,0,2.4,4.5,1,8.2c-1.3,3.5-1.6,9.7-0.5,13.8
	c-2.8,0.5-6.9,1.8-9.1,5.7c-1.8,1-3.7,1.5-5.5,1.5c-1.2,0-2.4-0.2-3.5-0.6c-0.2-0.1-0.5-0.1-0.7-0.1c-0.6,0-1.2,0.2-1.6,0.7
	c-0.6,0.7-0.6,1.6-0.2,2.3c0.2,0.4,5.6,8.9,14.2,8.9c4.4,0,8.7-2.2,12.8-6.5c0.8,1.2,1.9,2.5,3.2,3.8c-0.1,0.2-0.2,0.4-0.3,0.6
	c-0.2,0.7,0,1.5,0.5,2c0.4,0.4,4.1,4,7.7,4.5c12,9.5,30.5,19.5,47.2,19.5c0.3,0,0.6,0,1,0C90,74.3,93.5,74,97,73.3
	c1.1,3,1.4,5.6,1,7.4c-0.2,0.7,0,1.4,0.5,1.9c0.4,0.4,0.9,0.6,1.4,0.6c0.2,0,0.3,0,0.5-0.1c3.8-1,10.8-5.2,11.2-14.3
	c1.7-0.7,3.3-1.5,5-2.4c3.1,4.9,4.9,9.3,5,12c0,0.8,0.6,1.6,1.4,1.8c0.2,0.1,0.4,0.1,0.6,0.1c0.6,0,1.2-0.3,1.6-0.8
	c0.4-0.4,7.9-10.1,4.7-20.8c9.2-1.1,16.3-5.9,18.7-8.9c1.1-1.3,1.5-2.5,1.4-3.6C149.7,44.7,148.9,43.7,147.9,42.9z"/>
<path class="st1" d="M123.7,78.4c0,0,8.4-10.5,3.5-21.1c-0.9,0.8-4.3,3.5-9.8,6.5C119.3,66.8,123.5,73.7,123.7,78.4z"/>
<path class="st2" d="M112.9,27.4c0,0,1,3.3,3,7.3c1.7,0.2,4.9,0.8,4.9,0.8l-2.8,3.1c0.3,0.5,0.7,1,1,1.6l4.5,0.1l-2.1,2.9
	c0.4,0.5,0.9,0.9,1.3,1.3l4.5-0.7l-0.8,3.3c0.1,0.1,0.3,0.1,0.4,0.2c2,0.9,3.8,1.5,5.5,1.8l1.2-1.4l1,1.7c2,0.2,3.7,0,5.2-0.3
	l0.8-3.8l1.8,3c1-0.4,1.6-0.8,2-1.2c1.3-1.3-9.3-4.1-11-12.5C121.8,36.9,112.9,27.4,112.9,27.4z"/>
<path class="st1" d="M32,49.1c0,0,3.9,3.9,7.1,4c-1.8-1.4-3.5-2.9-4.9-4.3L32,49.1z"/>
<path class="st3" d="M145.6,43.8l0.8-2.5l-2.6,1.7c-0.3-0.1-0.6-0.2-1-0.4L143,40l-3.3,1.1c-0.7-0.6-1.4-1.3-1.9-2.1l0.9-2.1
	l-2.3-0.2c-0.4-0.8-0.8-1.6-1.1-2.4c-0.6,0.2-1.3,0.3-1.9,0.4c1.8,8.3,12.3,11.2,11,12.5c-0.3,0.3-1,0.8-2,1.2l-1.8-3l-0.8,3.8
	c-1.5,0.3-3.2,0.5-5.2,0.3l-1-1.7l-1.2,1.4c-1.7-0.3-3.5-0.9-5.5-1.8c-0.1-0.1-0.3-0.1-0.4-0.2l0.8-3.3l-4.5,0.7
	c-0.4-0.4-0.9-0.9-1.3-1.3l2.1-2.9l-4.5-0.1c-0.4-0.5-0.7-1-1-1.6l2.8-3.1c0,0-3.2-0.6-4.9-0.8c-2-4-3-7.3-3-7.3
	c1.9,8.3-7.2,16-8,18c-0.8,2,2,5.4,4.5,19.1c0.2,1.1,0.3,2.1,0.3,3c2.9-1.2,5.4-2.4,7.7-3.7c5.5-3,8.9-5.8,9.8-6.5
	c0.2-0.1,0.2-0.2,0.2-0.2c11.9-0.6,21-8,20.6-10.4C147.8,45.3,147,44.5,145.6,43.8z"/>
<path class="st3" d="M91.6,60.6c-2.6-1.7-9.1,3.2-27.1,0.9S27.6,40.8,27.6,40.8c1.1,2.2,3.4,5,6.6,8.1c1.5,1.4,3.1,2.8,4.9,4.3
	c12,9.7,30.9,19.8,47.3,19.4c4.2-0.1,8.2-0.6,11.9-1.4C96.2,66.1,93.1,61.6,91.6,60.6z"/>
<path class="st1" d="M104.9,45.4c0.8-2,9.9-9.7,8-18c0,0,8.9,9.5,20.5,7.3c0.6-0.1,1.2-0.3,1.9-0.4c0.6-0.2,1.2-0.4,1.7-0.6
	c13.4-5.2,12.8-24.3,7.4-28.6c0,0-7.2,3.2-12.8,12.8c-5.6,9.7-21.1,6.1-21.1,6.1c-2.8,12-25,31.7-48.6,29.5
	c-23.6-2.2-33.4-19.1-33.4-19.1c4.6-13-2-18.5-2-18.5c0.8,2.2-0.9,5-1.9,8.9C23.7,28.8,27,36.2,27,36.2c-6.3-1.3-13.9,3.5-13.9,3.5
	c0,0,0-0.1,0.1-0.2c-2.8,1.6-6.7,3-11.2,1.3c0,0,11.1,17.8,25.6,0c0,0,18.9,18.5,36.9,20.8c18,2.2,24.5-2.6,27.1-0.9
	c1.5,1,4.6,5.5,6.7,10.4c1.5,3.5,2.4,7.3,1.7,10.1c0,0,10.1-2.5,9.8-13.7c0-1-0.1-1.9-0.3-3C107,50.8,104.2,47.5,104.9,45.4z"/>
<path class="st1" d="M41.7,35.9c0,0-0.4,2.6-1.3,4.6c2.3,0.9,4.1,1.1,4.1,1.1L41.7,35.9z"/>
<path class="st1" d="M84.5,9.6c-6.5-4.5-25.4,1.5-25.4,1.5s10.4,4,14.9,8.9C78.6,14.1,84.5,9.6,84.5,9.6z"/>
<path class="st4" d="M27.1,36.1c0,0-3.3-7.4-2.4-11.3c0.9-3.9,2.6-6.7,1.9-8.9c0,0,6.7,5.6,2,18.5c0,0,9.9,16.9,33.4,19.1
	c23.6,2.2,45.8-17.4,48.6-29.5c0,0,15.6,3.5,21.1-6.1c5.6-9.7,12.8-12.8,12.8-12.8l0,0l0,0c-4.8-2-6.1,2-15.6,0.2
	c-9.5-1.8-25.6-7.1-40.2,1.1c0,0-13.4-10.2-29.5,4.6c0,0,18.9-5.9,25.4-1.5c0,0-5.9,4.5-10.5,10.3c-1.4,1.7-2.6,3.5-3.5,5.4
	c-4.1,8.2-9.3,16-22.5,16l-6.3-5.4l2.8,5.7c0,0-1.8-0.2-4.1-1.1c-2.9-1.1-6.5-3.2-8.9-7.1c0,0,7.8-19.5-9.5-24.1
	c0,0,2.8,5.2,1.1,9.9c-1.7,4.6-1.3,13.2,0.8,14.8c0,0-7.8-0.4-10.7,5.4c0,0,0,0.1-0.1,0.2C13.1,39.6,20.7,34.8,27.1,36.1z
	 M89.5,28.9c0,0,0.2,4.1,5.7,5.9C95.3,34.8,89,37.2,89.5,28.9z M114,12.8c1.8,0,3.2,1.4,3.2,3.2s-1.4,3.2-3.2,3.2
	c-1.8,0-3.2-1.4-3.2-3.2C110.9,14.2,112.3,12.8,114,12.8z M95.5,21.3c0,0,0.2,4.1,5.7,5.9C101.2,27.2,94.9,29.6,95.5,21.3z
	 M92.7,24.6c0,0,0.2,4.1,5.7,5.9C98.4,30.5,92.1,33,92.7,24.6z"/>
<path class="st1" d="M101.2,27.2c-5.6-1.9-5.7-5.9-5.7-5.9C94.9,29.6,101.2,27.2,101.2,27.2z"/>
<path class="st1" d="M98.4,30.5c-5.6-1.9-5.7-5.9-5.7-5.9C92.1,33,98.4,30.5,98.4,30.5z"/>
<path class="st1" d="M89.5,28.9c-0.6,8.3,5.7,5.9,5.7,5.9C89.7,33,89.5,28.9,89.5,28.9z"/>
<path class="st0" d="M117.2,15.9c0,1.7-1.4,3.2-3.2,3.2l0,0c-1.7,0-3.2-1.4-3.2-3.2v0c0-1.7,1.4-3.2,3.2-3.2l0,0
	C115.8,12.8,117.2,14.2,117.2,15.9L117.2,15.9z"/>
</svg>
