<?xml version="1.0" encoding="utf-8"?>
<!-- Generator: Adobe Illustrator 21.0.2, SVG Export Plug-In . SVG Version: 6.00 Build 0)  -->
<svg version="1.1" id="master-artboard" xmlns="http://www.w3.org/2000/svg" xmlns:xlink="http://www.w3.org/1999/xlink" x="0px"
	 y="0px" viewBox="0 0 102.9 150" style="enable-background:new 0 0 102.9 150;" xml:space="preserve">
<style type="text/css">
	.st0{fill:#F3C28C;}
	.st1{opacity:0.3;}
	.st2{fill:#4EBCE3;}
	.st3{fill:#963D97;}
	.st4{fill:#963D97;stroke:#FFFFFF;stroke-miterlimit:10;}
</style>
<path class="st0" d="M36.8,113.5c-9.2,0.5,0.9,5.4,0.9,5.4s-0.6,15.1,2.4,17.9c3,2.8,2.5,4.1,6.4,5.1c3.9,1,7.3,0.2,9,1
	c0,0,1.6,1.1,0.6,2.7c-1,1.6-6.7,3.3-11,1.9c-4.3-1.3-7.4-1.5-10.1-0.8c-2.8,0.6-6.5,1.8-9.2-1.8s2.7-9.7,2.9-12.8
	c0.2-3.1,0.2-9.8,0-12.2C28.4,117.4,39.1,113.4,36.8,113.5z"/>
<g class="st1">
	<path class="st2" d="M50,144.4c-0.4-0.5-0.5-1.3-0.5-2.1c-1-0.1-2-0.2-3-0.5c-3.9-1-3.4-2.3-6.4-5.1c-0.3-0.3-0.6-0.7-0.8-1.2
		c0.2,1.6,0.4,3.5,0.6,5.6c0.4,3.2,2.8,5.1,4.8,6.2c0.1,0,0.2,0.1,0.3,0.1c1.4,0.4,3,0.6,4.6,0.4C50.4,147.2,51.1,146.1,50,144.4z"
		/>
	<path class="st2" d="M37.7,118.8C37.7,118.8,38.2,119.2,37.7,118.8c-2,1.5-5.5,3.1-6.3,5.5c-1.2,3.4,4.5,5.6,6.7,6.3
		C37.4,125.4,37.7,118.8,37.7,118.8z"/>
</g>
<path class="st0" d="M77.2,69.6c3.1-6.5,2.5-9.7,2.2-11.4c-0.3-1.6-12.5-21.3-18.2-27.5s-12.6-15.4-13-16.2c0,0,0-0.1-0.1-0.2
	c-1.2,0-2.4-0.1-3.6-0.2c-7.2-0.6-13.7-5.9-21-9.6c-1.1,1.4-2.2,2.9-3.5,4.6C14.1,17.5,23.1,27,23.1,27s1.1,1.3,1.8,6.5
	c0.7,5.3,3.3,29,4.5,34.5s-2.4,15.2-2.5,24.7c-0.2,9.4,1.6,27,1.6,27c4.2-0.2,9.1-0.9,9.1-0.9l9.1-72.1c0,0,15.8,12.2,17.1,14.7
	s-1.5,5.6-1.5,5.6c-11.8,22-12,38.7-17.6,46.8c-1.6,2.3-2.5,3.1-6.7,6c-4.2,2.9-3.6,7.3,0,9.8c3.6,2.5,3.3,4.2,4.4,10
	c1.1,5.8,6.5,7.3,6.5,7.3c0.5,2.4,3.1,3.8,4.9,2.7c1.8-1.1,2-2.5-0.2-4.4s-3.3-10.7-4.4-14.5c-1.1-3.8,2-9.7,2-9.7
	S74.1,76.1,77.2,69.6z"/>
<path class="st3" d="M23.7,4.6c-1.1,1.4-2.2,2.9-3.5,4.6C14.1,17.5,23.1,27,23.1,27s1.1,1.3,1.8,6.5c0.7,5.1,3.1,27.8,4.4,34
	c4.1,1.9,12.8,0.1,14.8-0.4l2.6-20.4c0,0,11.4,8.8,15.6,13c9.5-2.3,11.4-8.6,11.8-10.8c-4.1-6.5-9.6-14.7-12.9-18.3
	c-5.6-6.2-12.6-15.4-13-16.2c0,0,0-0.1-0.1-0.2c-1.2,0-2.4-0.1-3.6-0.2C37.5,13.6,31,8.2,23.7,4.6z"/>
<path class="st3" d="M49.8,6.2c0.2-0.8,0.3-1.8,0.5-2.8C41.7,4.3,29.7,0.8,27.1,0c-1,1.5-2.1,3-3.4,4.6c7.3,3.6,13.8,9,21,9.6
	c1.2,0.1,2.4,0.2,3.6,0.2C48,13.4,48.8,10.5,49.8,6.2z"/>
<path class="st4" d="M23.5,27.5c0.4,0.8,3.1,2.3,3.1,2.6l5.5,4.5l14.7,12.1L23.5,27.5L23.5,27.5z"/>
<path class="st3" d="M48.2,14.3c-0.1-0.8,0.3-2.8,1-5.7c-3.2,0-6.5-1.7-6.5-1.7L48.2,14.3C48.2,14.3,48.2,14.3,48.2,14.3z"/>
</svg>
