<?xml version="1.0" encoding="utf-8"?>
<!-- Generator: Adobe Illustrator 21.0.2, SVG Export Plug-In . SVG Version: 6.00 Build 0)  -->
<svg version="1.1" id="master-artboard" xmlns="http://www.w3.org/2000/svg" xmlns:xlink="http://www.w3.org/1999/xlink" x="0px"
	 y="0px" viewBox="0 0 100 149.9" style="enable-background:new 0 0 100 149.9;" xml:space="preserve">
<style type="text/css">
	.st0{fill:#00629D;}
	.st1{fill:#FFFFFF;}
	.st2{fill:url(#XMLID_2_);}
	.st3{fill:url(#XMLID_3_);}
	.st4{fill:url(#XMLID_4_);}
</style>
<g id="XMLID_31_" transform="matrix(0.7100972533226013, 0, 0, 0.7100972533226013, -40.68452453613281, -20.86385917663575)">
	<path id="XMLID_73_" class="st0" d="M195.4,129.8c-2-2.1-4.8-3.2-7.6-3.2h-29.4V97.9c0-4.8-0.7-9.6-2-14.2c-2-7-6-13.6-11.5-19
		l-2.3-2.1c0.8-1.5,1.3-3.2,1.3-5.1V44.1c0-3.4-2-7.7-7.5-9.7c-1.4-0.4-3.1-0.8-5.2-1.1c-3.1-0.4-7.2-0.7-11.5-0.7
		c-4.4,0-8.4,0.3-11.5,0.7c-2.1,0.3-3.8,0.7-5.2,1.1c-5.5,2-7.5,6.2-7.5,9.7v13.4c0,1.8,0.4,3.5,1.3,5.1l-2.3,2.1
		c-5.5,5.3-9.4,12-11.5,19c-1.3,4.6-2,9.4-2,14.2V223c0,7,5.5,11.8,16.5,14.1c5.9,1.3,13.8,1.8,22.1,1.8c5.8,0,11.4-0.3,16.3-1
		c0.7,0.3,1.4,0.6,2.3,0.8c1.7,0.4,3.8,0.8,6.6,1.1c4.4,0.4,10.3,0.7,16.5,0.7c6.2,0,12.1-0.3,16.5-0.7c2.7-0.3,4.9-0.7,6.6-1.1
		c7.5-2,8.6-7.3,8.7-9.6l5.1-91.6C198.4,134.7,197.4,131.8,195.4,129.8z"/>
	<g id="XMLID_35_">
		<g id="XMLID_55_">
			<path id="XMLID_72_" class="st1" d="M153.4,80.4c-2-7-6-13.6-11.5-19l-2.3-2.1c0.8-1.5,1.3-3.2,1.3-5.1V40.9c0-3.4-2-7.7-7.5-9.7
				c-1.4-0.4-3.1-0.8-5.2-1.1c-3.1-0.4-7.2-0.7-11.5-0.7c-4.4,0-8.4,0.3-11.5,0.7c-2.1,0.3-3.8,0.7-5.2,1.1c-5.5,2-7.5,6.2-7.5,9.7
				v13.4c0,1.8,0.4,3.5,1.3,5.1l-2.3,2.1c-5.5,5.3-9.4,12-11.5,19c-1.3,4.6-2,9.4-2,14.2v125.2c0,7,5.5,11.8,16.5,14.1
				c5.9,1.3,13.8,1.8,22.1,1.8s16.2-0.7,22.1-1.8c11-2.3,16.5-7,16.5-14.1V94.6C155.3,89.9,154.6,85.1,153.4,80.4z"/>
			<path id="XMLID_62_" class="st1" d="M158.4,237.4c-6.2,0-12.1-0.3-16.5-0.7c-2.7-0.3-4.9-0.7-6.6-1.1c-7.5-2-8.6-7.3-8.7-9.6
				l-5.1-91.6c-0.1-2.8,0.8-5.8,2.8-7.9s4.8-3.2,7.6-3.2h52.6c2.8,0,5.6,1.3,7.6,3.2c2,2.1,3.1,4.9,2.8,7.9l-5.1,91.6
				c-0.1,2.3-1.3,7.5-8.7,9.6c-1.7,0.4-3.8,0.8-6.6,1.1C170.5,237.1,164.6,237.4,158.4,237.4z"/>
			<g id="XMLID_58_">
				<path id="XMLID_61_" class="st0" d="M144.2,161.4c0-1.3,0.8-2.3,2-2.5v-45.4c-1.1-0.3-2-1.3-2-2.5c0-1.3,0.8-2.3,2-2.5V94.6
					c0-3.9-0.6-7.9-1.7-11.7c-1.7-5.8-4.8-10.8-9.1-15l-5.9-5.8v-8.4H104v8.4l-6,5.8c-4.2,4.1-7.5,9.3-9.1,15
					c-1.1,3.8-1.7,7.7-1.7,11.7v13.8c1.1,0.3,2,1.3,2,2.5c0,1.3-0.8,2.3-2,2.5v45.4c1.1,0.3,2,1.3,2,2.5s-0.8,2.3-2,2.5v55.8
					c0,9.1,58.9,9.1,58.9,0V164C145.1,163.6,144.2,162.6,144.2,161.4z"/>
				
					<linearGradient id="XMLID_2_" gradientUnits="userSpaceOnUse" x1="502.9875" y1="345.1634" x2="448.0912" y2="345.1634" gradientTransform="matrix(0.5042 0 0 0.5042 -108.2271 -38.2135)">
					<stop  offset="0" style="stop-color:#249FEA"/>
					<stop  offset="0.9677" style="stop-color:#32C2F2"/>
					<stop  offset="1" style="stop-color:#32C3F2"/>
				</linearGradient>
				<path id="XMLID_60_" class="st2" d="M87.4,115.3h58.9v41.1H87.4V115.3z"/>
				
					<linearGradient id="XMLID_3_" gradientUnits="userSpaceOnUse" x1="445.9152" y1="179.5735" x2="445.9152" y2="167.9843" gradientTransform="matrix(0.5042 0 0 0.5042 -108.2271 -38.2135)">
					<stop  offset="0" style="stop-color:#249FEA"/>
					<stop  offset="0.9677" style="stop-color:#32C2F2"/>
					<stop  offset="1" style="stop-color:#32C3F2"/>
				</linearGradient>
				<path id="XMLID_59_" class="st3" d="M130.2,55.8h-26.9c-0.8,0-1.7-0.7-1.7-1.7V40.8c0-3.1,30.1-3.1,30.1,0v13.4
					C131.9,55.1,131.2,55.8,130.2,55.8z"/>
			</g>
		</g>
		<g id="XMLID_37_">
			<path id="XMLID_49_" class="st0" d="M181.1,225.6c0,3.5-45.3,3.5-45.3,0l-5.1-91.6c0-0.8,0.6-1.4,1.4-1.4h52.6
				c0.8,0,1.4,0.7,1.4,1.4L181.1,225.6z"/>
			
				<linearGradient id="XMLID_4_" gradientUnits="userSpaceOnUse" x1="531.0604" y1="416.6272" x2="531.0604" y2="429.8904" gradientTransform="matrix(0.5042 0 0 0.5042 -108.2271 -38.2135)">
				<stop  offset="0" style="stop-color:#249FEA"/>
				<stop  offset="0.9677" style="stop-color:#32C2F2"/>
				<stop  offset="1" style="stop-color:#32C3F2"/>
			</linearGradient>
			<path id="XMLID_41_" class="st4" d="M141.6,154.3c0,0-3.4,23.9-1.1,28.7c2.3,4.8,7.7,4.1,18.8,1.1c11.1-3,19.1,0,19.1,0l1.1-22.6
				C178,157.8,141.6,154.3,141.6,154.3z"/>
			<path id="XMLID_39_" class="st1" d="M142.3,162.8c12.7,4.1,24.9-4.9,37.3-1.3l1.3-24h-45l4.5,82.7c0,1.1,1,2.1,2.1,2.3l0,0
				c1.5,0.1,2.8-1,2.7-2.5L142.3,162.8z"/>
		</g>
	</g>
</g>
</svg>
