<?xml version="1.0" encoding="utf-8"?>
<!-- Generator: Adobe Illustrator 21.0.2, SVG Export Plug-In . SVG Version: 6.00 Build 0)  -->
<svg version="1.1" id="master-artboard" xmlns="http://www.w3.org/2000/svg" xmlns:xlink="http://www.w3.org/1999/xlink" x="0px"
	 y="0px" viewBox="0 0 150 100.3" style="enable-background:new 0 0 150 100.3;" xml:space="preserve">
<style type="text/css">
	.st0{fill:#5986C6;}
	.st1{fill:#70D5E0;}
	.st2{fill:#964418;}
	.st3{fill:#703517;}
	.st4{fill:#7D4020;}
</style>
<path class="st0" d="M150,63.3c0,6.6-33.6,12-75,12s-75-5.4-75-12c0-6.6,33.6-12,75-12S150,56.7,150,63.3z"/>
<path class="st1" d="M142.9,61.7c0,3.9-30.9,7-69,7s-69-3.2-69-7c0-3.9,30.9-7,69-7S142.9,57.8,142.9,61.7z"/>
<path class="st2" d="M34.9,70.1h4.7l39.3-39.3c0,0,0.9-2.2-2-1.1L34.9,70.1z"/>
<path class="st3" d="M64.2,45.4l-9.3,17.9h3.6l7.3-17.9H64.2z"/>
<g>
	<path class="st4" d="M8.4,29.2c0,0-3.6,16.2,26.7,16.2s98.5,0,98.5,0s11.1,1.1,11.1-11.1c0,0,7.6,29-23.6,29s-93.4,0-93.4,0
		S-2.3,62.1,8.4,29.2z"/>
	<path class="st3" d="M133.6,45.4c0,0-31.6,0-61.4,0c2.5,2.1,5.2,5.6,5.2,10.9c0,2.9-1.2,5.2-2.9,7c16.5,0,34,0,46.5,0
		c31.2,0,23.6-29,23.6-29C144.6,46.6,133.6,45.4,133.6,45.4z"/>
</g>
</svg>
