<?xml version="1.0" encoding="utf-8"?>
<!-- Generator: Adobe Illustrator 21.0.2, SVG Export Plug-In . SVG Version: 6.00 Build 0)  -->
<svg version="1.1" id="Layer_1" xmlns="http://www.w3.org/2000/svg" xmlns:xlink="http://www.w3.org/1999/xlink" x="0px" y="0px"
	 viewBox="0 0 203.6 173.2" style="enable-background:new 0 0 203.6 173.2;" xml:space="preserve">
<style type="text/css">
	.st0{fill:#FEFEFD;}
	.st1{fill:#A27C4D;}
	.st2{fill:#583519;}
	.st3{fill:#7B542B;}
	.st4{fill:#ECC48E;}
	.st5{fill:#BE9C6D;}
</style>
<title>Artboard 1</title>
<g>
	<path class="st0" d="M170.6,69.6l0.1-0.1l0.2-0.2l0.2-0.3l1.5,0.1c-0.1-1.2-1.4-0.7-1.7-1.5s-0.9-0.6-1.6-0.2
		c-1.9,1-3.3,2.8-5.5,3.4c-1,0.2-2.3,0.6-3.1,1.5c-0.5,0-1.1,0.5-1.2-0.5c1.1-0.9,0.9-2.9,2.8-3.1l-0.1-0.6l0.3-1.6l1.6-3.7
		c0.5-0.5,0.4-1.4,1.1-1.7c0.4,0.3,0.4,1,1.2,1.4c0-2.9-0.1-5.8,2.4-7.8l0.7,1.5c0.2-2.8,0.7-5.5,2.2-7.9c0.4-0.3,0.4-1.7,1.5-0.6
		c0.3,0.3,0.3-0.4,0.3-0.7c0.7-2.5,1.3-5,2.4-7.3c0.2-0.4,0-0.8-0.5-1c0.5-2-1.3-2.6-2.2-3.7c-0.3-0.8-1-0.9-1.8-0.8
		c-0.7,0.1-1-0.3-0.7-1.1c0.3-0.7,1.2-2.1,0.7-3.3l0.1-0.4l1.1-1.1c3.5-2.8,6.4-6,6.5-10.8c0.4-0.8,0.3-1.7-0.2-2.5l-0.6,2.4
		c-0.6,1.8-1,3.7-2.1,5.2c-0.5,0.4-1.1,0.7-1.7,1c-0.8,0.3-1.3,1.4-2.4,0.9c0.4-1.1,1.1-2.3,0.2-3.5c-0.3-0.3-0.7-0.2-1.1-0.2
		s-0.9,0.1-1.3,0.3l-2.7,0.9v-0.6c0.4-1.8,1.8-2.9,2.7-4.4l3.1-2.9c-1.5,0.6-3.1,1.3-4.1,2.6c-1.9,1.4-3.7,2.9-4.6,5.3
		c-0.5,0.4-1,0.3-1.6,0.3s-2,0.2-2.8,0.9c-0.9-0.2-1.8-0.1-2.4,0.6l-0.9,0.5l-2.4,1.4c-0.6,0.7-1.7,0.6-2.2,1.5
		c-0.7,0.3-1.1,1-1.9,1.3c-1.8,0.7-3.3,1.8-4.6,3.2c-0.6,0.2-1.2,0.3-1.5,0.9l0,0l-0.4,0.2c-0.6,0.3-1.1,0.7-1.4,1.3
		c-0.5-0.1-0.7,0.5-1.2,0.5c-0.1-0.7-0.1-1.4-0.2-2.1c-0.2-2.4-0.2-2.4,2-2.1l0.1,0.1l-0.1,0c-0.2-0.7-0.9-0.8-1.4-1.1
		c-0.5-0.3-0.9-0.5-1-1.1c-0.2-1.5-0.3-3.1-0.4-4.7c0.7-0.1,1.3,0.5,2.4,0.1c-2.3-0.6-3-2-2.9-3.9c0-0.2,0-0.4-0.1-0.6
		c-0.4-1.4-0.1-2.1,1.7-1.5c-0.7-1-2.1-1-2.3-1.9c-0.2-2.3-1.7-2.7-3.5-2.8c-0.1-0.3-0.4-0.5-0.6-0.4c0,0,0,0,0,0
		c-1.2-0.5-2.5-0.7-3.7-0.5c-1.1,0.1-2,0.7-1.9,2c-0.2,0.5-0.3,1-0.4,1.5c-0.6,5.8-1.2,11.5-2.2,17.2c0,0.1,0,0.2,0,0.3
		c-0.3,0.2-0.3,0.6-0.2,0.9c-0.6,2.2-1.3,4.3-1.7,6.6c-0.7,3.6-1.6,7.1-1.4,10.8l-0.1,0.4l-0.1,0.1h0.1c-0.2,0.7-0.9,1-1.3,1.5
		c-0.5,0.1-1,0.4-1.3,0.9c-0.4,0.2-0.8,0.5-1,0.9l-0.3,0.3l-0.3,0.3l-0.3,0.3c-0.2,0-0.3,0.1-0.3,0.3c0,0,0,0,0,0l-0.6,0.7
		c-0.7,0.1-0.8,0.8-1.3,1.2c-0.4,0.4-0.6,0.7-0.9,1c-0.3,0.3-0.8,0.2-1.1-0.3l-1.8-5c-1.5-4.2-2.7-8.6-3.9-12.9
		c-0.3-1.1-0.8-2-2.2-1.6c-0.2-0.3-0.6-0.3-0.9-0.1h-0.6c-1.5-0.3-3,0-4.3,0.8c-3.7,2.3-7.5,4.5-11.2,6.7c-0.8,0.5-2,0.3-2.4,1.5
		l-0.1,0.1c-1.6,0.8-3.1,2-4.8,2.4c-1.7,0.4-1.9,1.1-2.8,1.7c-0.2,0.2-0.3,0.5-0.9,0.2c-1.7-0.9-3.4-1.6-5.1-2.3
		c-0.6-0.2-1.2-0.7-1.9-0.6l-0.3-0.2l-0.3-0.2h0c-0.6-1.1-1.7-1.2-2.8-1.5c-0.2,0-0.4,0.1-0.4,0.2l-0.1-0.1
		c-0.9-0.5-1.1,0.3-1.9,0.8c1.2-0.1,2-0.1,2.3,1c0.1,0.2,0.6,0.4,0.9,0.6c0.3,0.2,1.8,0.3,1.6,1.6c0,0.3,0.6,0.6,0.9,0.5
		c0.9-0.4,1.1,0.2,1.4,0.7c0.2,0.6,0.6,0.6,0.9,0.7c2.1,0.7,4.3,1,6.4,1.4c1,0.2,2.1,0.1,3-0.4c0.7-1.8,2.8-1.7,3.9-2.9
		c0.6-0.7,1.4-1.1,2.3-1.2c2.1-0.1,3-2.5,5.2-2.5c0.9,0,1.8-1.2,2.7-1.9l0.1,0.1v-0.1c0.1,0,0.1,0,0.2-0.1l5.4-2l0.5-0.1
		c0.3,0,0.6,0.2,0.7,0.5c1.2,2.5,2.7,5,3.3,7.7c0.6,2.8,1.1,4.8,1.7,7.2c0.6,2.4,1.2,5.7-1.6,7.8c-0.1,0,0,0.2,0,0.3
		c-1.5,1.4-2.6,3.1-4.6,3.9c-1.5,0.4-3.1,0.7-3.8,2.3l0,0c-0.2,0-0.3,0.1-0.3,0.3c0,0,0,0,0,0l-0.3,0.2c-0.2-0.1-0.2,0-0.2,0.1
		c-1.3,0.5-2.1,1.5-3.2,2.4h0.1c0,0-0.1,0-0.1,0c0,0,0,0,0,0c-1.7,0.5-2.9,1.8-4,3.1c-3.6,0-7.2,0.1-10.8,0c-3-0.1-5,1.4-6.6,3.7
		c-1.4,1.9-2.4,4.1-3,6.4c-0.3,0.9-0.5,1.7-1.8,2c-1.3,0.3-3,1.1-4.5,1.7c-2.9,1.3-6.2,1.8-8.9,3.7c-0.7,0.5-1.4,1.1-2.1,1.1
		c-0.7,0-1.3,0.5-1.5,1.4l-0.3,0.1c-0.5,0.2-1.3-0.5-1.4,0.6c-1.9,1.1-3.8,2.1-5.6,3.3c-1.1,0.7-2.5,1-3,2.4c-1.1,0-1.7,1.1-2.7,1.3
		l-6.3,4.4c-0.2,0.2-0.7,0.2-0.4,0.7c0.2,0.1,0.4,0.1,0.5,0.1c2-1.4,4.1-2.4,5.9-4.1l3.4-2.1c4-2.2,7.9-4.6,12-6.7
		c4.8-2.4,9.7-4.5,14.8-6.2l0.5-0.1c0,0.5,0,1-0.2,1.5c-1.2,3.8-2.8,7.4-4.4,11c-0.7,1.5-0.4,3.6-2.5,4.3c-0.2,0.1-0.3,0.7-0.4,1.1
		l-0.2,0.1l-3.4,1.6c-2.6,1.3-5.3,2.7-8.3,3c-1,0.1-1.8,0.6-2.2,1.6c0.7,0.2,1-0.5,1.6-0.2c1.4,0.8,2.7,0.1,3.9-0.5l2.2-0.7H56
		l0.3,0.1c0.2,0.3,0.4,0.2,0.6,0c0.7-0.1,1-0.7,1.6-1c0.4,0.3,0.2-0.1,0.3-0.2l0.6,0.1c0.1,0.1,0.2,0.1,0.3-0.1l0.1-0.1
		c0.3,0,0.5-0.2,0.6-0.5c1.4-1.1,2.8-2,4.4-2.7c0.1,0.5-0.1,0.8-0.4,1.1c-3,3.1-6,6.1-8.9,9.3c-0.7,0.8-2.2,1.2-2,2.7l-0.1,0.1
		c-0.5-0.2-0.7,0.1-0.7,0.5c-0.1,0.1-0.1,0.2-0.1,0.2c-0.7,0.4-1.6,0.7-1.6,1.8h0c-0.1,0-0.1,0-0.2,0.1c-0.2,0-0.5,0.1-0.6,0.3
		c-1.5,1.8-3.1,3.6-4.7,5.4c-1.5,1.8-3.3,3.5-4.6,5.5c-1.4,1-2.6,2.2-3.8,3.4c-0.7,0.7-1.7,1.2-1.8,2.4c-0.2,0.1-0.4,0.3-0.6,0.4
		c-3.8,3.8-7.1,8.1-10,12.7c-1.2,1.9-2.2,3.9-3.5,6.1c0.6-0.4,1.1-0.9,1.5-1.6c2.6-4.7,5.7-8.9,9.2-12.9c1.3-1.5,3-2.7,3.8-4.6h0
		c0.7,0.1,0.9-0.4,1.1-0.9l0,0c0.2,0,0.4-0.1,0.4-0.3c0,0,0,0,0,0c1.6-1.3,3-2.8,4.4-4.3l9.9-10.9c0.8-0.7,1.8-1.2,1.8-2.5
		c0.9-0.1,1.4-0.7,1.6-1.5l0,0c1-0.5,1.8-1.1,2.2-2.2l0,0c0.3,0.1,0.4,0,0.3-0.3l0,0c0.5,0.1,0.8-0.1,0.6-0.6l0,0
		c0.7,0.1,0.8-0.7,1.2-0.9c0.4-0.3,1.6-1.1,1.9-2.2l0,0c0.9-0.1,1.2-0.8,1.5-1.5l0,0l0.3-0.3l0.3-0.3l0,0c0.4-0.3,0.8-0.6,1.2-0.9
		c2.6-3.1,5.5-5.9,8.4-8.6c5.2-5,10.9-9.4,17.3-12.7c0.3-0.2,0.6-0.4,1-0.1v0.6c0,0-0.1,0.1-0.1,0.1c0,0.1,0.1,0.2,0.1,0.3
		c-0.1,0.1-0.1,0.2,0,0.3l0.1,1.5c-0.2,0.4-0.6,0.6-1,0.8c-1.9,0.9-3.7,1.7-2.9,4.4c0.2,0.6-0.1,1.2-0.1,1.8c0,1.6-0.6,3.1-0.4,4.7
		c0.7,1.5,1.2,3,1.5,4.6c0.2,1.1,0.3,2.2,0.6,3.3c0.2,0.6,0.3,1.5,1.2,1.3c0.9-0.2,0.7-1.2,0.3-1.8c-1.4-2.3-1.6-5-2.6-7.4
		c0.1-2.6,0.4-5.2,0.9-7.7c0.2-0.9,0.5-1.1,1.3-1c-0.5,2-0.4,3.9-0.2,5.9c-0.6,1.5,1,2.9,0.3,4.5c-0.1,0.2,0.5,0.7,1,0.7l1.4,0.1
		c0.2,0.1,0.5,0,0.7-0.2l0.2,0.3c0.2,1,0.9,2,0.7,3c-0.1,0.3,0.2,0.6,0.5,0.7c0.2,1.6,0.5,3.2,0.7,4.7c0.1,0.7,0.5,1.2,1.3,1.1
		c0.7-0.1,0.7-0.7,0.6-1.2c0-0.5-0.1-1-0.2-1.5c-0.5-1.5-1.1-2.8-1.7-4.3c-0.1-0.9-0.8-1.7-0.6-2.7v-0.4h0c0.8,0.2,1.2-0.5,1.8-0.8
		c1.2,1,2.3,0.7,3.3-0.2c0.6-0.6,1.4-1.1,2.2-1.4c1.2-0.5,1.6-1.4,1.7-2.5c0.1-0.6,0.1-1.1,0.2-1.7c0-0.6,0.2-0.9,0.7-0.8
		c2.6,0.1,3-2,3.8-3.7l0.3-0.3l0.1,0.1l-0.1-0.1c0.5-0.3,1.1-0.7,1.4-1.2c1.6-2.9,4.3-4.8,6.8-6.8l0.4-0.3l1.8-0.7
		c2-0.7,2.2-0.7,3.3,1.1c0.3,0.5,0.7,1,1.1,1.4c0.1,0.8,0,1.5-0.7,2.1c-2.8,2.4-5.6,4.6-8.2,7.1c-1,0.9-2.7,1.2-2.9,2.9
		c0,0.6-0.1,1.2-0.4,1.8c-1.6,1-1.4,2.8-1.6,4.2c-0.9,5.8-0.3,11.8-1.9,17.5l-0.1,0.3c0.1,1.8,0.1,3.7-0.1,5.5l-0.2,0.4
		c-0.2,0.2-0.7,0.4-0.7,0.7s0.5,0.2,0.7,0.2l0,0c0.8,1.5-0.5,2.3-1.1,3.5c-0.9,2-2,3.9-3.1,5.8c-0.7,1.1-1.5,2-2.5,2.8
		c-0.7,0.5-1.7,0.8-1.8,1.9c-0.3,0.3-0.6,0.5-0.8,0.8c-0.2,0.2-0.2,0.8,0.2,0.7c1-0.3,0.6,0.3,0.6,0.8c0,0.4-0.1,1.2,0.4,1.7
		c0.6-0.7,0.6-1.5,0.9-2.1c1.2-1.1,2.4-2.2,3.3-3.6c0.3-0.4,0.8-0.8,1.3-0.7c1.2,0.2,1.5-0.6,1.7-1.5l0.8-1.1
		c1.5-1.7,2.2-3.7,3.1-5.7c0.5-1,0.2-2.4,0.8-3.1c1.2-1.2,0.6-2.7,1.1-3.9s0-2.6,0-3.9c0.1-5.2,0.5-10.3,1.7-15.4
		c0.5-1.9,1.1-3.8,2-5.3c1.3-2,3.1-3.8,4.9-5.5c2.7-2.3,5.2-4.8,7.6-7.5c1.4-1.1,1.6-2.5,1.6-4.1c0-1.6,0.3-2.3,0.6-3.4
		s0.6-1.6,1.7-1.1c1.5,1.7,3.1,2.1,5.3,1.3c1-0.3,2,0.4,3-0.1c0.9,0.1,1.6-0.3,2.4-0.6c6-2.7,12-5.5,18.4-7.1
		c1.1,0.7,1.5,2.2,2.8,2.7c0.7,1.3,1.2,2.8,2.4,3.7c-0.4,0.8,0.3,1.3,0.5,2c0.8,1.9,2.6,3.3,2.4,5.6c0,0.2,0,0.5,0.4,0.4
		c1.1-0.2,1.4,0.8,1.7,1.5c0.4,0.7,0.1,1.2,0.5,1.6c1.9,1.8,2.7,4.2,3.8,6.4c0.7,1.5,1.7,2.8,2.7,4.2c0.6,0.8,1.5,1.6,2.8,1.4
		c2,1.8,4.6,2.4,7,3.7c0.8,0.4,1.5,1.1,2.3,1.2c2.9,0.4,4.7,2.9,7.4,3.7c0.2,0.4,0.1,1,0.5,1.4c0.5-0.8,1.7-1.5,0.6-2.6
		c-1.2-1.4-2.8-2.5-4.5-3.1c-0.9-0.3-2-0.6-2.6-1.3s-1.8-1.2-2.9-1.3l-0.3-0.3c-0.1-0.7-0.7-0.8-1.2-1c-0.6-0.2-1.3-0.5-2-0.8
		c0-0.1,0-0.2-0.1-0.3c-0.1-0.8-0.7-0.6-1.2-0.6l-0.6-0.2c-0.4-0.6-1-0.5-1.5-0.5l-0.3-0.1l0,0l-0.3-0.3h0.1c0-0.5,0.6-1.2-0.4-1.5
		c0.8-1.2,0.8-1.2-0.6-2.2c-0.2-0.1-0.4-0.2-0.7-0.3c-0.6-0.5-1.1-1.2-1.5-1.9c-1.1-2.2-2.3-4.3-3.5-6.4c-0.4-2.4-2.5-3.9-3.6-5.9
		c-0.8-1.5-0.4-3.7-2.6-4.3l0,0c0.1-0.6-0.3-1.1-0.6-1.5l-4.2-6.2c0.2-0.5-0.3-0.2-0.4-0.3l-0.3-0.1c-0.1-0.3-0.2-0.7,0.2-0.9
		c1.4,0.8,1.4-0.2,1.6-1.1l0,0c0.3-0.1,0.6-0.1,0.8-0.4l0.1-0.1l0.3-0.2l2.1-1.2c0.8,0.1,1.2-0.5,1.6-1L170.6,69.6z M31.8,113.4
		l-0.3-0.5c-6.4,4.2-12.2,9.2-18.4,13.6l0.4,0.5L31.8,113.4z M0,137.5c4.2-3.3,8.2-6.7,12.3-10C7.6,130.1,4,134,0,137.5z"/>
	<path class="st1" d="M132.7,84.9c-1.1-0.5-1.5,0.4-1.7,1.1s-0.7,2.2-0.6,3.4s-0.2,3.1-1.6,4.1l-0.2-0.2c0.7-1.5,1.6-2.9,0.5-4.6
		c-0.4,0.7,0.2,1.6-0.4,2.2c-0.9,0-0.7-1.2-1.5-1.3c-0.4-1-0.9-0.6-1.3,0c-0.5,0.7-0.8,1.4-1,2.2c-0.2,0.7-0.5,0.8-1.1,0.4
		c-0.5-0.4-0.8-0.9-1.1-1.4c-1-1.8-1.3-1.9-3.3-1.1l-1.8,0.7c-0.1-0.7,0.4-1.3,1.1-1.5c1.2-0.3,1.5-0.9,0.2-1.8
		c2.2,0.5,4.3,1,5.5-1.3l0,0c0.9-0.1,1.8-0.2,2.2-1.2l0,0c1.3,1.1,1.4,1.1,2.2-0.7c0.2-0.5,0.6-0.5,1-0.5c0.9,0.6,1.5,0.2,2.1-0.5
		c0.6-0.7,0.6-0.8,0.2-1.2c-0.4-0.4-0.7,0.1-1,0.3c-0.3,0.2-0.6,0.3-1,0.4c-0.5-0.2-1-0.5-1-1.2c0-0.7-0.4-0.7-0.9-0.7
		c-0.2-0.7,0.4-1.6-0.4-2.5c-0.7,2.9-1.4,5.3-4.2,6.8c-1.6,0.8-3,0.5-4.5,0.8c-0.2,0-0.3-0.2-0.5-0.3c-2.6-1.8-4-4.4-4.9-7.3
		c0.5,0,0.7,0.2,0.9,0.7c0,0.1,0,0.2,0,0.3c0.2,0.3,0.5,0.3,0.8,0.4c0.1,0.8,0.5,1.5,1,2c0.4,0.5,1.1,0.7,1.8,0.5
		c0.7-0.2,0.6-0.8,0.5-1.4h0.5c-0.1,0.7,0.1,1.5,0.6,2.1c1.9-1,3-3.2,5.7-3c-1.1-1-0.3-1.5,0.2-2s0.5,0.8,1.1,0.3
		c0.6-0.5-1.7-2.4,0.9-1.9c-0.8-2.5-2.4-4.2-4.5-5.7c-1.1-0.8-2.2-1.7-2.8-3c0-0.3,0.1-0.5,0.4-0.7c1.1,0.1,1.8,1,2.7,1.5
		c2,1.4,3,3.5,4.1,5.6l0.2,0.4l0.1,0.2c0.2,1,0.7,2,0.6,3.1s0.4,0.7,0.9,0.7c0.2,0.7-0.6,1.8,0.9,1.9c0.6,1.1,1.4,0.6,2.2,0.4
		s0.9-0.6,1.4-0.1c0.5,0.5,0.6,0.3,0.8,0c0.2-0.3-0.1-0.6-0.3-0.8c-0.9-0.7-0.8-1.3,0-2s1.3-2.1,0.6-3.4c0-1.6,1.2-1.7,2.4-1.9
		c0.2,0.4,0,0.9-0.4,1.1c-0.7,0.4-0.9,1.2-1.1,1.9c-0.2,0.7,0.3,0.7,0.7,0.7c0.1,0.8-0.3,1.5-0.6,2.2s-0.1,1,0.4,0.8
		c1-0.3,2.1-0.2,3-0.9c0.3-0.2,0.8-0.5,0.4-1c-0.4-0.5-0.6,0-0.9,0.2c-0.3,0.2-0.8,1-1-0.1c0.2-0.6,1-1,1-1.7c1.4,0.1,1.3-1.2,1.8-2
		c0.9-0.2,2.2,0.8,2.8-0.8c-0.2-1.5-1.4-1.6-2.5-1.6c-0.3-1.6,0.7-1,1.2-0.7c0.5,0.3,1.1,0.4,1.6-0.1c0.3-0.3,0.8-0.5,1.2-0.5v1.2
		l-0.1,0.2l0.2-0.1c0.8-0.8,0.9-2,1.2-3c1.4-1.7,0.7-4.2,2.3-5.9c-0.7-0.4-1.4,0.2-2,0.3c-0.1-1.1-0.1-1.2,0.3-1.1
		c1.1,0.4,2.3-0.4,3.2,0.7c-0.2,0.5-0.3,1-0.8,1.3c-0.4-0.4-0.5-0.2-0.7,0.2c-1,1.8-0.5,3.7-0.5,5.6c-0.7,0.9-2.3,1.2-1.8,2.9
		c-0.4,0.7-0.8,1.7-0.1,2.2s0.8-0.8,1.4-1l0.1-0.1c1,0.7,1.7,0,2.5-0.5c0.2-0.1,0.2-0.8,0.7-0.2s0,0.4-0.1,0.7
		c-1.3,1.8-3.1,2.7-5.3,3.2c-1.6,0.3-2.9,0.8-4.1,2c-1.2,1.2-1.1,1.5,0.1,2.1v0.6c-0.5,0.1-1.1-0.2-1.5,0.3
		c-0.6-0.1-1.3,0.2-1.7-0.6c-0.4-0.8-0.4,0.1-0.5,0.3c-1.2,0-2.5-0.1-2.8,1.5C134,83.3,133,83.8,132.7,84.9z M126.2,86.7
		c-1.4,0.4-2,1.6-2.8,2.7c-0.3,0.4-0.3,0.9,0.1,1.3c0.1,0.1,0.2,0.1,0.3,0.2c0.8,0.3,0.8-0.4,0.9-0.9c0.3-1.1,0.5-2.2,1.8-2.6
		c0.4-0.2,1-0.2,1-0.8c0.1-0.6-0.3-0.5-0.5-0.5C126.8,86,126.2,86.2,126.2,86.7L126.2,86.7z"/>
	<path class="st1" d="M91.3,96.6l-0.1-1.5c0.8,0,1.5,0.4,1.9,1c0.9,1.3,2.5,1.4,3.4,0.2l0,0c0.6,0,0.8-0.5,0.8-0.9s-0.4-0.6-0.9-0.7
		c-0.3-0.1-0.6-0.2-0.8-0.4c-1.6-1.4-2.6-1.5-4.5-0.5c-0.3-0.4-0.7-0.1-1,0.1c-6.5,3.3-12.1,7.7-17.3,12.7c-2.9,2.8-5.8,5.6-8.4,8.6
		c-0.4,0.4-0.8,0.7-1.2,0.9c0-0.7,0.6-1.1,1-1.6l4.3-5.2l0,0c1.1-0.3,1.7-1.3,2.4-2.1c0.7-0.8,1.4-0.7,1.1-1.6
		c0-0.2,0.1-0.3,0.2-0.4c1.3-0.4,2.4-1,2.9-2.4c0-0.1-0.1-0.2-0.1-0.3c0.3-0.1,0.6,0.2,1-0.1c1.5-1.2,3.1-2.3,4.6-3.5
		c3.2-2.5,6.7-4.3,10.2-6.4c0.2,0.1,0.5,0,0.7-0.2h0l0.3-0.4c1.9-0.2,3.6-1.1,4.9-2.4l0.1-0.1c1.2,0.3,2.3-0.3,3.4-0.4
		c1.1-0.1,1-0.7,0.6-1.4c0.4,0,0.8-0.1,1,0.5c0.1,1.2-0.6,1.8-1.7,2s-1,0.9-0.7,1.3c0.4,0.4,1.8,1.7,2.5,1.3
		c1.2-0.6,1.2,0.2,1.5,0.8c0.3,0.5,0.4,0.7,0.6,1.1s0.8,0.6,0.8,0.2c0.3-1.5,2-1.6,2.4-2.8c0.9-0.1,2,0.2,2.7-0.5
		c0.7-0.7,2.3-1.6,2.4-3.3c0-0.3,0.2-0.8,0.6-0.8c2-0.1,1.4-1.6,1.4-2.8l1,0.4v0.4c1.4,1.2,2,2.7,1.2,4.6c-0.1,0.3,0,0.6,0.2,0.7
		c0.1,0,0.2,0.1,0.2,0.1c-2.5,2-5.1,3.9-6.8,6.8c-0.3,0.6-0.9,0.9-1.4,1.2l0,0l-0.3,0.4h-0.3c0.1-0.4-0.1-0.8-0.5-1
		c-0.1,0-0.1,0-0.2,0c-1.8-0.4-3.7-1-5.6-0.1c2.2,0.7,2.2,0.7,1.3,1.7c0-0.3,0-0.7-0.3-0.8c-1.1-0.1-2.4-0.5-3.3,0.5
		c-0.5,0.6-0.9,0.9-1.4,0.1c-0.2-0.3-0.5-0.4-0.8-0.4C95.1,98.8,93,98.2,91.3,96.6z M99.3,92.4c0,0.5,0.1,0.9,0.7,1
		C100,92.9,99.9,92.5,99.3,92.4z"/>
	<path class="st2" d="M120.9,54.2c0.3-0.5,0.7-0.8,1.3-0.9c1.1-0.5,2.3-0.5,3.4,0c0,0.6-1.4,1.2-0.1,1.8c0.5,0.2,1.1,0.3,1.6,0.4
		c1,0.1,0.6-0.5,0.5-0.9c2.8,1.1,5.4,2.5,7.3,4.9c0.3,0.8,0.7,1.5,1.5,1.9c0.3,0.2,0.5,0.6,0.6,1c-0.2,1.5,0.6,2.9,0.8,4.4
		c0.2,1.5,0.4,1.8-1.4,2.4c-0.4,0.2-1.5-0.7-1.3,0.5c0.1,0.6-0.1,1.1,0,1.6l-0.5-0.1c0-0.8-0.5-1.5-1.2-1.9
		c-0.2-0.8-0.7-1.5-1.2-2.1c-1.6-2.1-3.9-3.6-5.7-5.6c-1.8-2-3.6-2.8-5.9-3.4l-0.4-0.2c0-0.2-0.1-0.2-0.3-0.2l-0.2-0.1l0,0
		c-0.6-0.2-1.4,0.2-1.7-0.7l0.6-0.7L119,56l0.3-0.3l0.3-0.3l0.3-0.3C120.6,55.1,120.9,54.8,120.9,54.2z M125.3,56.4
		c-0.3,0-0.5,0.2-0.6,0.4c-0.1,0.3,0.1,0.5,0.3,0.6c0.3,0.2,0.6,0.4,1,0.5c0.5,0.1,1.2,0.3,1.2-0.4c0-0.7-0.5,0.1-0.8,0
		c-0.3-0.1-0.2-0.4-0.4-0.6C126,56.6,125.7,56.4,125.3,56.4L125.3,56.4z M125,55.9c-0.4-0.4-0.3-1.4-1.1-1.2c-0.3,0.1-0.7,1-0.6,1.2
		C123.8,56.8,124.4,55.8,125,55.9L125,55.9z"/>
	<path class="st2" d="M114.4,78.7c-0.2-0.4-0.4-0.7-0.9-0.7l0,0c-0.1-1.6-1.4-2.3-2.3-3.3c0-1.1-0.7-1.2-1.5-1.2
		c-1.3,0-2.2-0.7-3-1.6c-0.1-0.9-0.8-0.7-1.3-0.6c-0.6,0.1-1.2,0.3-1.8,0.5c-0.4,0-0.4-0.2-0.2-0.4c2-0.7,3.1-2.5,4.6-3.9l1.2-0.4
		c0.2,0.5-0.4,1-0.1,1.5c0.7,0,1-0.4,1-1.1c0-0.7,1.1-0.8,1.2-0.5c0.2,1.5,1.6,2.1,2.1,3.6c0.3-0.8,0.7-1.6,0.6-1.9
		s-0.2-0.7,0.2-0.6c1.1,0.2,0.9-0.2,0.6-0.9c-0.3-0.6-0.4-0.4-0.1-0.7c0.3-0.2,0.6-0.1,0.8,0.2s0.7,0.9,0.7,1c-0.8,1.2,0.4,2,0.4,3
		c0.7-0.4,1.3-0.7,0.6-1.5c-0.7-0.9-0.5-1.4,0.2-1.9c1.1,1,2,2.2,3.3,2.8c1.2,0.7,1.8,1.1,2,2.3c0,0.2,0.3,0.4,0.6,0.5
		c1.1,0.7,0.8,1.2-0.2,1.6c0.7,0.4,1.6,0.5,1,1.4c-0.4,0.8-1.3,1-2.1,0.7c-0.5-0.2-0.9-0.4-1.5-0.4c-0.5,0-0.9-0.1-1,0.5
		s0.3,0.7,0.7,0.7c1.6,0.3,1,1.4,0.7,2.2c-0.3,0.8-1.2,0.1-1.7,0.6h-0.6c-0.6-0.1-1.2-0.2-1.8-0.4c0.2-1.6-0.9-0.6-1.4-0.7
		c-0.5-0.1-0.7-0.1-0.8-0.4l0.1-0.1L114.4,78.7z M110.3,69c-0.7,0-1.2,0.2-1.2,1.2C109.7,69.8,110.3,69.8,110.3,69l0.2-0.1L110.3,69
		z M110.3,70.4c1,0.4,1.5,0.2,2.2-0.3C111.6,69.4,111.1,69.7,110.3,70.4L110.3,70.4z M114.7,71.3c0.4,0,0.3-0.3,0.3-0.6
		c0-0.2,0-0.7-0.4-0.7s-0.5,0.3-0.5,0.6C114.1,71,114.4,71.2,114.7,71.3L114.7,71.3z M122.8,73.7c-0.1-0.1-0.2-0.1-0.3-0.2
		c-0.1,0-0.2,0-0.2,0.1c0,0.1,0,0.1,0,0.2c0.1,0.1,0.2,0.2,0.3,0.2C122.7,74,122.9,74,122.8,73.7L122.8,73.7z"/>
	<path class="st3" d="M95.6,76.8c1-0.9,1.9-2,3.2-2.4c0.1,0,0.1,0,0.2,0c0,0,0-0.1,0-0.1l0.3-0.2l0.3-0.3l0,0c1-0.7,2.2-0.9,3.3-0.5
		c1.4,0.5,2.8,0.8,4,1.4c2.5,1.2,4.6,2.9,5.7,5.5c-1,0.3-1.7-0.4-2.7-0.6c0,0.5,1,1.4-0.5,1.1c-0.5-0.1-0.9,0.5-1.1,0.9
		c-0.2,0.4,0.2,0.7,0.6,1c0.3,0.2,0.7,0.9,0.4,1.5c-1-0.3-1.8-0.9-2.9-0.7c-1.1,0.2-1.2,2.3-2.2,0.4l-0.2,0.2c-1.1,0.7-2,0.8-3-0.2
		c-0.3-0.4-0.8-0.5-1.2,0c-0.7-0.1-1.7,0.2-1.6-1.2c0.9,0.3,1.7,0.4,2.5-0.1c-0.1-0.1-0.2-0.2-0.3-0.2L99.9,82
		c-1.4-0.3-1.6-0.9-0.7-2c0.3-0.4,0.8-0.9,0.3-1.7c-0.3,0.4-0.6,0.8-0.9,1.1c-0.3,0.3-0.7,0.3-0.8,0c-0.1-0.3-0.7-1.1-1.2-0.5
		c-0.6,0.7-0.1,1.2,0.4,1.5c0.6,0.3,0.3,0.5,0.1,0.9c-1,2-1,2-2.9,0.5C94,81,94.8,80.9,95,80.2c0.3-1.1-0.1-2.4,0.5-3.5
		C95.5,76.7,95.5,76.7,95.6,76.8C95.6,76.7,95.6,76.7,95.6,76.8L95.6,76.8z M106.7,79.9c-1,0-0.3,0.7-0.5,1.1
		c-0.2,0.4-0.1,0.8,0.4,0.7c0.5-0.1,0.9-0.6,0.9-1.1C107.6,80,107.2,79.9,106.7,79.9L106.7,79.9z"/>
	<path class="st2" d="M157.2,24.3l0.9-0.5c0.9-0.1,1.8,0.2,2.8,0.3l0,0c0,0.6,0.4,0.7,0.9,0.6l0,0c1.1,1.5,2.7,2.3,4.1,3.4l0.1,0.1
		h0.1l-0.2-0.1c0.2-1-0.8-1.4-0.9-2.2c-0.2-0.8,0.4-1.1,1-1.3c0.3,0.7,0.9,0.7,1.5,0.7l0,0c0.7,0.7,1.1,1.6,2.2,1.8l0.3,0.3
		c0.1,1.1,1.7,2.1,0.1,3.2l-0.2,0.1l0.2,0.1v0.3c-1.1,0.6-1.3-1.1-2.4-1c-0.1,0.6,0.2,1.1,0.7,1.4l0.4,0.4l0,0
		c0.2,1.1,1.5,2.1,0.4,3.4l-2,1.1c-0.9-0.7-0.2-2.6-2-2.9c0.6,1.5,1.5,2.8,1.5,4.3c-0.7,1-1.4,1.8-2.7,0.9c-0.1,0-0.3,0.2-0.5,0.3
		c0-0.4-0.3-0.8-0.7-0.9c-0.1-0.2-0.3-0.4-0.6-0.4l-0.3-0.3l-0.3-0.6c0-0.3-0.3-0.6-0.6-0.6c0-0.6-0.2-1.1-0.9-1.2
		c-0.2-1.1-1-1.9-1.9-2.5c-0.2-0.5-0.7-0.8-1.2-0.9c-0.4-0.7-1.1-1-1.8-1.3c-0.1-0.6-0.8-0.6-1.1-1.1l0.1-0.1
		c0.9-0.1,1.8,0.3,2.5-0.6l0,0l0.9,1.5c0.6-0.8,0.7-2.1,2.1-1.8c0.1,0,0.3-0.5,0.4-0.8l0.9,0.4l0.3,0.3c0,0.8,0.6,1,1.2,1.2
		c0.1,0.5,0.5,0.9,1,0.9l0.2,0.1l-0.1-0.2c0-0.5-0.4-0.9-0.9-1c-0.1-0.5-0.5-0.9-1-1.1l-0.6-0.4c-0.7-1-1.7-1.8-2.8-2.2
		C157.5,25.3,156.9,25.1,157.2,24.3z M161.5,26.5c-0.3-0.6,0-1.3-0.9-1.4c-0.3,0-0.6,0.1-0.5,0.4C160.1,25.7,160.5,26.6,161.5,26.5z
		 M163.6,31c0.3,0.7,0.6,1.2,1.4,1.6C164.6,31.8,164.6,31.2,163.6,31L163.6,31z"/>
	<path class="st1" d="M128.7,93.6c-2.4,2.7-4.9,5.2-7.6,7.5c-1.9,1.6-3.7,3.4-4.9,5.5c-1,1.5-1.5,3.4-2,5.3
		c-1.2,5.1-1.6,10.2-1.7,15.4c0,1.3,0.3,2.9,0,3.9c-0.3,1,0.1,2.8-1.1,3.9c-0.7,0.7-0.4,2.1-0.8,3.1c-0.9,1.9-1.7,4-3.1,5.7
		l-0.6-1.3l0-0.7c0.4-0.6,0.5-1.4,0.2-2c-0.2-0.6,0-0.7,0.4-0.9c1.5-0.7,2.1-2,1.8-3.6c0.3-0.7,0.6-1.4,0.9-2s0.8-1.1,0-1.7l0.2-3.1
		c0.4-0.7,0.4-1.5,0.1-2.1v-1.8c0.6-0.2,0.7-0.5,0.2-1v-0.9c0.3-0.2,0.3-0.4,0.1-0.6v-1.9c0,0,0.1-0.1,0.1-0.1c0-0.1,0-0.2-0.1-0.2
		v-1.1c0.5-0.2,0.5-0.6,0.4-1l0.1-1.5c0.5-0.9,0.2-1.9,0.2-2.8v-0.6c0.7-2,0.9-4.1,2.2-5.8c0.2-0.2,0.2-0.3,0-0.5
		c0-0.7-1.2-1.5,0-2.3l0.7-0.1c0.8-0.4,1.6-0.4,2.3-1.3c0.7-0.9,1.2-1.8,2.3-2.1c1.9-0.6,2.9-2.3,4.3-3.6c1.4-1.2,2.6-3.3,4.6-4.2
		c0.1,0.3,0.2,0.6,0.6,0.6L128.7,93.6z"/>
	<path class="st4" d="M126.8,32.5c1-5.7,1.7-11.4,2.2-17.2c0.1-0.5,0.3-1,0.5-1.5c0.4,0.4,0.8,0.5,1.2,0.1c0.4-0.4,0.9-0.2,1.1,0.4
		c0.5,1.3,0.1,2.4-0.5,3.5c-0.6,1.1-0.7,1.5-0.2,2.4c0.6,1.2,0.9,2.5,0.7,3.9c-0.4,2.7-0.8,5.4-1.9,8c-1.5,3.7-0.7,8-2.5,11.6
		c-0.3,0.4-0.2,1.2-0.9,1.3c-0.7,0.2-1-0.8-0.9-1.5c0.3-3,0.6-6,1.4-9C127.2,34.1,127.4,33.2,126.8,32.5z"/>
	<path class="st2" d="M142.6,34.1c0.4-0.5,0.9-1,1.5-1.3c0.2,0.1,0.3,0,0.4-0.2c0,0,0,0,0,0l0,0c1-0.2,2-0.4,2.9,0.3
		c-0.2,0.7-1.3-0.2-1.1,0.9c0.3,1.1,0.6,1,1.2,0.9h0.3c-0.4,0.6-1.5-0.1-1.7,0.9c0.7,0,1.1,1,1.4,0.8c1-0.4,2-0.3,3.1-0.3
		c-0.4-0.8-1.3-0.6-1.9-1.4c1.1,0.6,1.4,0.1,1.3-0.7c1,0.1,1.4,1.2,2.4,1.3c0.9,0.8,1.5,2,2.8,2.4l0.3,0.3c0,0.5,0,0.9,0.6,0.9
		c0.4,1,0.7,2,1.9,2.5c0,0.4,0.2,0.8,0.3,1.1c0.4,1.3,2,2,2,3.5l-1.7,2.8c-0.3-0.1-0.7-0.1-0.9-0.2c-1.8-1.8-3.4-3.8-4.7-5.9
		c-1.5-2.2-3.5-3.7-5.9-5c-1.3-1.4-3.2-1.7-4.8-2.4C142.8,35,143,34.5,142.6,34.1z"/>
	<path class="st1" d="M126.5,45.3c0.7-0.2,0.6-0.9,0.9-1.3h0.3c0.1,0.3-0.1,0.7,0.2,1.1c0.6-0.7,0.7-1.5,1-2.4
		c0.3-0.8,0.3-2.4,1.3-3.5c0.5-0.5,0.8-2,0.3-3.1c-0.2-0.3-0.4-0.6-0.1-0.9c0.3-0.3,0.4-0.4,0.6-0.4s0.6,0.5,0.6,0.8
		c0.1,1.1,0.1,2.3,0,3.4c-0.1,1.1-0.4,2.5,1.1,3.1l0.6-0.3c0.7,0.1,1.3,0.5,2,0.7c2.5,0.8,4.9,1.8,6.9,3.6c1,1,1.8,2.1,2.9,2.9
		c1.5,1.2,2.9,2.6,4,4.2c0.6,1.4,1.1,2.9,3.1,2.2c0.1,0.4-0.2,0.6-0.2,0.8c-0.1,0.2-1.1,1-0.6,1.7c0.5,0.7,0.9-0.6,1.5-0.3
		c-0.7,1.5-1.1,3.2-2.8,4c0.2-1.1,0.6-2.1,1.7-2.7c-0.6-0.7-1.5-0.3-2-0.7c0.2-2-0.5-3.6-1.8-5c-0.1-1-0.8-1.4-1.6-1.8
		c-1.6-1.2-2.6-3-4.2-4.2s-2.1-2.2-3.8-2.4l0,0c0-0.6-0.4-0.7-0.9-0.5c-0.5,0.2-0.7,0.3-0.8,0c-0.9-1.5-2.5-1.2-3.9-1.4
		c-0.3-0.4-0.5-0.2-0.6,0.1c0,0.2-0.1,0.4-0.3,0.5c-1.8,0.3-2.5,1.6-2.2,3.7l-0.3,0.1c-0.6,0.3-1.5,0.1-1.6,1.1
		c-1.7,0.3-2.1,1.9-3.1,3c-0.2,0.2,0,0.6,0.3,0.7c1.9,0.5,3.4,1.7,5.1,2.4c2.3,0.8,4.2,2.4,5.5,4.4c-0.1,0.2-0.4,0.3-0.7,0.3
		c-1.9-2.4-4.5-3.8-7.3-4.9l-0.4,0.3l-0.4-0.4v-0.1c0.2-0.2,0.4-0.3,0-0.4l0,0c-0.1-0.3-0.3-0.6-0.7-0.6h-0.6
		c-1.1-0.5-2.3-0.5-3.4,0c0.3-0.6,1.1-0.8,1.3-1.5v-0.1l0.1-0.4c0.3-0.1,0.4-0.4,0.5-0.6c0.8-0.8,0.3-2.1,1.2-2.8
		C126.2,47.2,126.4,46.3,126.5,45.3z"/>
	<path class="st5" d="M132.8,42.1c-1.5-0.6-1.1-2-1.1-3.1c0.1-1.1,0.1-2.3,0-3.4c0-0.3-0.2-0.8-0.6-0.8c-0.4,0-0.5,0.2-0.6,0.4
		c-0.2,0.2-0.1,0.6,0.1,0.9c0.5,1.1,0.2,2.6-0.3,3.1c-1,1.1-0.9,2.3-1.3,3.5s-0.4,1.7-1,2.4c-0.4-0.4-0.2-0.7-0.2-1.1l0.1-0.1
		l-0.1,0.1h-0.3c1.8-3.7,1-7.9,2.5-11.6c1.1-2.6,1.5-5.3,1.9-8c0.2-1.3,0-2.7-0.7-3.9c-0.5-0.9-0.2-1.6,0.2-2.4
		c0.4-0.8,1-2.2,0.5-3.5c-0.2-0.6-0.4-1.1-1.1-0.4c-0.7,0.7-0.8,0.3-1.2-0.1c-0.1-1.3,0.8-1.9,1.9-2c1.3-0.1,2.6,0.1,3.7,0.5
		c-0.4,0.6-2,0.7-0.6,1.8v0.7c-1.2,2.2-2,4.6-2.2,7.1c0.9-1.3,0.9-2.7,2.3-3.2c0,1.5-1.2,2.7-1,4.2c0.3,2.9-0.8,5.6-0.7,8.5
		C133,35,132.9,38.5,132.8,42.1z"/>
	<path class="st5" d="M108.2,99.1h0.3c-0.7,1.8-1.1,3.9-3.8,3.7c-0.5,0-0.7,0.4-0.7,0.8c0,0.5-0.1,1.1-0.2,1.7
		c-0.2,1.1-0.5,2.1-1.7,2.5c-0.8,0.3-1.5,0.8-2.2,1.4c-1,0.9-2.1,1.2-3.3,0.2c0.2-1.4,1.7-1,2.4-1.7c2.9-0.1,3.3-0.5,3.6-3.6
		c0.9-1.6,0.9-1.6-1-1.7c-0.8,0-1.6-0.1-2.4-0.3c-0.4-0.1-0.6-0.2-0.9,0.3c-1.4,2.5-2.5,5.1-3.4,7.7h0l-0.6,0.1
		c-0.2-1.3,1-2.3,0.8-3.6l0.4-1.5c1.2-1.4,1.2-3.6,2.9-4.7c-1.8-0.5-2.7,0-2.7,1.7c0,0.5-0.1,1.2-0.4,1.4c-0.3,0.2-0.7-0.7-1.4-0.8
		l0.7,1.5c-1.8,1.1-0.1,1.7,0.4,2.4c-0.6,0.3-0.7,1.1-1.4,1.3l-0.9-3.1c0.2-0.9,1-2,0.7-2.7c-0.5-1.1-1-2.1-1.7-3.1
		c-0.3-0.4-0.6-0.2-1-0.1c-0.7-0.4-0.1-1.2-0.4-1.7c0.4-0.2,0.7-0.4,1-0.8c1.7,1.6,3.8,2.2,6.1,2.5c0.3,0,0.6,0.2,0.8,0.4
		c0.5,0.8,0.9,0.5,1.4-0.1c0.9-1.1,2.2-0.6,3.3-0.5c0.4,0,0.3,0.5,0.3,0.8c-0.5,0.7-1.3,1.3-2.2,1.5
		C104,102.4,106.3,101.3,108.2,99.1z"/>
	<path class="st5" d="M135.8,12.8c1.8,0.1,3.3,0.5,3.5,2.8c0.1,0.9,1.5,0.9,2.3,1.9c-1.8-0.7-2.1,0-1.7,1.5c0.1,0.2,0.1,0.4,0.1,0.6
		c-0.1,1.9,0.6,3.3,2.9,3.9c-1.1,0.4-1.7-0.2-2.4-0.1c0.1,1.5,0.2,3.1,0.4,4.7c0.1,0.6,0.6,0.8,1,1.1s1.2,0.5,1.4,1.1l0,0
		c-2.3-0.2-2.3-0.2-2,2.1c0.1,0.7,0.1,1.4,0.2,2.1c0.1,0.7-0.4,0.4-0.7,0.3c-2-2.6-2.5-5.6-2.7-8.8c-0.1-1.4-0.5-2.2-1.8-2.6
		l-0.4-5.6l0.1-0.4c1.2-0.7,1.1-1.7,0.5-2.5c-0.4-0.6-0.6-1.3-0.6-2C135.8,13,135.8,12.9,135.8,12.8z"/>
	<path class="st4" d="M52.1,99.7c0.2-0.8,0.3-1.4,1.5-1.4s1.5-0.6,2.1-1.1c2.7-1.9,6-2.4,8.9-3.7c1.5-0.7,3-1.4,4.5-1.7
		s1.5-1.1,1.8-2c0.7-2.3,1.7-4.4,3-6.4c1.6-2.3,3.6-3.7,6.6-3.7c3.6,0.1,7.2,0,10.8,0v0.9c-0.2,0.5-0.7,0.1-0.9,0.2
		c-1.9,0.9-3.7,1-5.6,0.3c-0.7-0.2-1.4-0.2-2.1-0.1c-1.5,0.3-2.9,1-4.6,0.7c-0.9-0.1-1.9-0.1-1.8,1.3c0,0.3-0.5,0.7-0.8,0.8
		c-1.2,0.6-1.2,1.5-0.8,2.6c-1,0.7-1.4,1.7-1.6,2.8c-0.1,0.3-0.4,0.7,0.2,0.9c0.5,0.2,0.7-0.1,0.9-0.4c0.2-0.3,0.8-1.4,1.2-2.1H76
		c-0.4,1.2-0.2,2,1.3,2l-0.1,0.6c-3.3,0.7-6.4,2-9.6,2.8c-3.8,1.3-7.5,2.8-11.1,4.5C55.1,98.5,53.8,99.5,52.1,99.7z"/>
	<path class="st4" d="M72,49.7c0.7-0.2,1.3,0.3,1.9,0.6c1.8,0.7,3.5,1.4,5.1,2.3c0.5,0.3,0.6-0.1,0.9-0.2c0.9-0.6,1.6-1.4,2.8-1.7
		c1.3-0.3,3.2-1.5,4.8-2.4l0.1-0.1c0.4-1.2,1.6-1.1,2.4-1.5c3.7-2.2,7.5-4.4,11.2-6.7c1.3-0.8,2.8-1.1,4.3-0.8
		c-0.2,0.9-1.4,1.4-1,2.5l-0.3,0.1l-0.4-0.1l-0.1-0.6c-0.1-0.3-0.2-0.6-0.6-0.4s-0.6,0.4-0.2,0.8c0.4,0.4-0.2,0.6-0.6,0.6
		c-0.6,0-1.1,0.2-1.6,0.4c-3.5,1.5-6.9,3.3-10.2,5.4c-1.3,0.8-2.9,1.1-3.7,2.6c-1.3,0.6-2.5,1.3-3.4,2.5c-0.7-0.1-1.2,0.4-1.6,0.8
		c-0.4,0.4-0.7,0.4-1.2,0.2c-2-0.6-4.1-0.9-5.9-1.7C73.6,51.7,71.8,51.6,72,49.7z"/>
	<path class="st5" d="M104.4,41.7c-0.3-1.1,0.9-1.6,1-2.5h0.6c0.3,0.2,0.6,0.2,0.9,0.1c1.5-0.4,1.9,0.5,2.2,1.6
		c1.2,4.3,2.4,8.7,3.9,12.9l1.8,5c-1.1,0.1-0.7-1.3-1.5-1.6c-0.6-1.9-0.9-3.9-2.1-5.7c-0.2,0.9,0.1,1.6,0.3,2.4
		c0.2,0.7,0.5,1-0.4,1.1c-0.6-1.6-1-3.3-1.2-5c0.6-0.1,0.5,0.8,1.2,0.7c-0.2-0.8,0.1-1.9-1.3-1.9c-0.7-0.6-0.8-1.4-0.9-2.2
		c-0.2-1.6-1.1-3-1.1-4.6c-0.1-0.5-0.5-0.9-1-0.9c-0.4,0-0.8,0.2-1,0.6c-0.4,0.6,0.2,0.8,0.4,1.2c0.6,1.4,1.7,2.8,1,4.5
		c-0.1,0.2-0.1,0.5,0,0.6c1.1,0.9,1.1,2.3,1.4,3.5c0.7,2.5,1,5.1,1.5,7.7l-0.7,0.2c-0.6-2.4-1.1-4.8-1.7-7.2
		c-0.5-2.4-2.2-5.2-3.3-7.7c-0.1-0.3-0.4-0.5-0.7-0.5C103.9,43.1,105.3,42.7,104.4,41.7z"/>
	<path class="st5" d="M64.8,112.1c-1.5,0.7-3,1.6-4.3,2.6c-0.5-0.3-0.2-0.6,0-1c0.2-0.4,1.1-1.3,1.2-2.2l0.2-0.1
		c1.3,0.3,2.5-0.4,2.9-1.7c0.1-0.3-0.1-0.9,0.4-0.9c1.5,0,1.2-1.1,1.2-2c0-0.8,0.2-1.5,0.5-2.2c1.8-3.3,2.8-6.9,4.3-10.3
		c0.1-0.3,0.6-0.7,0.2-0.9c-0.4-0.2-0.7,0.1-1,0.1l0,0l-0.3-0.3c0.7-0.4,1.5-0.8,2.1-0.5c0.6,0.4,0,1.7,0.3,2.5
		c0.8,0,0.2-1.5,1.3-1.1c0,0.8-0.2,1.5-0.4,2.2c-0.4,1.5-1.5,2.8-1.4,4.4c0,0.5,0.4,1-0.5,0.9c0,0.8-1.4,0.4-1.2,1
		c0.6,1.5-0.5,2.4-1.1,3.4c-0.1-0.6,0.2-1.2-0.4-1.8c-0.3,1.6-0.4,3.3-0.2,5l0,0c-0.7-0.4-1.3-0.5-1.6,0.4c-0.3,0.9-1.1,1.3-1.5,2.1
		C65.2,111.8,64.9,111.8,64.8,112.1L64.8,112.1z"/>
	<path class="st1" d="M161.8,78.4c-6.4,1.6-12.4,4.4-18.4,7.1c-0.7,0.3-1.5,0.7-2.4,0.6c-0.9-0.1-1.1-1.3-1.5-1.3
		c-1.1,0.1-0.9-0.5-0.9-1.2c0.6-0.1,1.3,0.4,1.5-0.7h0.6c0.2,0.4,0.5,0.7,0.9,0.6c1.1-0.3,2.4-0.2,3.5-0.7c1.7-0.7,3.3-1.7,5-2.4
		c0.7-0.2,1.2-0.8,1.4-1.5l0.9-0.4l2.7-0.6c0.9-0.2,0.4-0.6,0.2-0.9l3.7-0.6v0.6l-0.1,0.1c0,0,0,0.1,0,0.1l0.1-0.1
		c0.9,0,1.8,0.1,2.3-1c0.1-0.3,0.5-0.2,0.8-0.2c-0.2,0.4,0,0.8,0,1.2C161.2,77.3,162,78,161.8,78.4z M153.2,79.1h-0.1
		c0,0,0,0.1,0,0.1L153.2,79.1C153.2,79.2,153.2,79.1,153.2,79.1z"/>
	<path class="st5" d="M181.8,107.8c-1.2,0.2-2.1-0.6-2.8-1.4c-1-1.3-2-2.6-2.7-4.2c-1.1-2.2-1.9-4.6-3.8-6.4
		c-0.3-0.3-0.2-1.1-0.5-1.6s-0.6-1.7-1.7-1.5c-0.4,0.1-0.5-0.2-0.4-0.4c0.2-2.3-1.6-3.7-2.4-5.6c-0.2-0.6-0.9-1.2-0.5-2
		c0.4-0.8-0.8-1.9-0.9-3c0.4,0,0.8,0.3,0.9,0.7c0.8,2.6,2.9,4.4,4,6.8c0.6,1.3,1.5,2.5,2.3,3.7c1.2,2,2.7,3.8,3,6.3
		c0.2,0.7,0,1.5,0.9,1.7l0,0c0,0.6,0.1,1.1,0.7,1.2c0.7,0.2,1.1,1.7,1.5,2.7c0.1,0.2,0.2,0.7,0.7,0.4s0.3-0.4,0.2-0.7l-0.8-2
		c1.2-0.2,1.7,0.3,1.7,1.5c0.2,0.5-0.5,1.4,0.7,1.5h-0.1l0.3,0.3l0,0C182.1,106.5,182.5,107.3,181.8,107.8z"/>
	<path class="st3" d="M113.5,57.3c0.7,0.3,0.3,1.7,1.5,1.6c0.2,0.5,0.5,1.1,1.1,0.3c0.6-0.8,0.6-0.7,0.9-1l3.4,0.4
		c1.4,0.8,2.7,1.8,4.3,2.3c0.2,0.1,0.4,0.3,0.6,0.4c1.5,1.1,2.6,2.6,3.8,4c-3.6,0.2-4.6-0.5-4.7-3.6c-0.7,0.4-1.5,0.2-1.9,1.3
		c-0.5,1-1.7,1.4-2.7,0.9c-1-0.4-1.7-1.2-2.5-1.7c-0.3-0.2-0.9,0.2-1.3-0.2c-0.4-0.4,0.5-0.6,0.4-1s-0.3-0.8-0.6-0.8
		c-1.2-0.2-1.7,0.9-2.2,1.6c-0.5,0.7,0.5,0.8,0.9,1c0.4,0.2,1.5,0.1,1.8,0.9h-1.8c-0.6-0.5-1.3-0.2-1.9-0.2
		c-0.6-0.1-0.5-1.2-0.2-1.5C113.9,60.7,113.1,58.8,113.5,57.3z M118.7,61.3c-0.2,0-0.5-0.3-0.6,0.2c-0.1,0.4,0.1,0.3,0.2,0.4
		C118.5,61.8,118.7,61.6,118.7,61.3c0.1-0.2,0.6,0,0.5-0.3c0,0,0-0.1-0.1-0.1C118.8,60.8,118.8,61.1,118.7,61.3L118.7,61.3z"/>
	<path class="st4" d="M176.4,99.3c-0.3-2.4-1.9-4.2-3-6.3c-0.7-1.3-1.7-2.4-2.3-3.7c-1.1-2.4-3.1-4.3-4-6.8
		c-0.1-0.4-0.5-0.7-0.9-0.7l-1.6-1.9c0.1-1.7-1.4-2-2.5-2.7c0-0.4-0.2-0.8,0-1.2c0.2-0.4,0.3-0.6,0.8-0.2c1.6,1.2,2.8,2.9,4,4.5
		c0.8,1,1.2,2.2,2.3,2.9l0,0c0.2,1.8,1.3,3.1,2.2,4.5l0.4-0.2c1.1,2,3.2,3.5,3.6,5.9h-0.3l-0.1-0.1H175l0.1,0.1
		c0.5,3,2.6,5.2,3.7,7.9c0.2,0.6,0.8,1.1,1.6,0.5c0.2,0.1,0.5,0.2,0.7,0.3c1.4,1,1.4,1,0.6,2.2h-0.3c0-1.1-0.5-1.6-1.7-1.5l0.8,2
		c0.1,0.3,0.2,0.6-0.2,0.7c-0.4,0.2-0.5-0.2-0.7-0.4c-0.4-1-0.5-2.1-1.5-2.7c-0.2-0.5-0.2-1-0.7-1.2l0,0
		C177.4,100.2,176.9,99.7,176.4,99.3z"/>
	<path class="st4" d="M110.5,124.6c0,0.6,0,1.2,0,1.8c-0.7,0.7-0.4,1.4-0.1,2.1l-0.2,3.1c-0.5,1.1-0.5,2.8-2.4,2.1
		c0.2-1.8,0.2-3.7,0.1-5.5l1,1.1c0.5-0.7,0.7-1.5,0.5-2.4l-1.4,0.9c1.6-5.7,1-11.7,1.9-17.5c0.2-1.5,0-3.3,1.6-4.2
		c0.8-0.1,1.6-0.5,2.3,0.3c0.2,0.2,0.2,0.3,0,0.5c-1.6,0.4-2.9,3.8-2.2,5.8v0.6c-1,0.9-0.6,1.8-0.2,2.8l-0.1,1.5
		c-0.6,0.1-0.6,0.6-0.4,1v1.1c0,0.1,0,0.2,0,0.3c0,0.6,0,1.2,0,1.9c-0.4,0.2-0.4,0.4-0.1,0.6v0.9
		C110.3,123.8,110.4,124.2,110.5,124.6z"/>
	<path class="st5" d="M112.6,80.1c-1.2-2.6-3.2-4.3-5.7-5.5c-1.3-0.6-2.7-1-4-1.4c-1.1-0.4-2.4-0.2-3.3,0.5c0.7-1.6,2.3-1.9,3.8-2.3
		c-0.2,0.3-0.1,0.5,0.2,0.4c0.4,0.8,1.2,0.5,1.8,0.7c1.6,0.7,3.1,1.6,4.5,2.7c1.2,0.9,2,2.3,3.6,2.8l0,0c1,2.9,2.4,5.5,4.9,7.3
		c0.2,0.1,0.4,0.3,0.5,0.3c1.5-0.3,3,0,4.5-0.8c2.8-1.5,3.6-4,4.2-6.8c0.7,0.8,0.2,1.7,0.4,2.5c0,1.5-1.4,2.5-1.5,4l0,0
		c-0.9,0.1-1.6,0.6-2.2,1.2l0,0c-2.9,0.7-5.9,1.9-8.7-0.3c-0.1-0.1-0.2,0-0.3-0.1v-0.4c0-0.7-0.5-1.2-1-1.7
		C114.2,82,113.1,81.3,112.6,80.1z"/>
	<path class="st5" d="M169,35.3c1.1-1.3-0.2-2.3-0.4-3.4c0.7,0,0.7,1.1,1.5,1l0.2,0.1l-0.1-0.2l0.3-1.2c0.6-0.1,1-0.3,0.7-1
		c-0.2-0.7,0.2-0.7,0.5-0.9c0.5,1.2-0.2,2.3-0.7,3.3c-0.5,1.1-0.3,1.2,0.7,1.1c1-0.1,1.5,0,1.8,0.8c-0.1,1.5-0.1,1.5,1.4,2.5
		c0.9,0.7-0.5,1.2-0.2,1.9c0.1,0.2-0.6,0.2-0.8-0.1c-0.9-1.1-1.5-0.4-2,0.4h-1.8c0-0.7,0.7-1.1,1.1-1.6s0.7-1,0.2-1.4
		s-0.9,0.2-1.2,0.6c-1.4,1.9-2.7,3.8-4.1,5.6c-0.9,1.1-1.6,2.6-3.2,3.1c-0.1-0.7,0.7-1.1,0.7-1.8l0.5-0.6c0.5-0.4,1.1-0.8,1.1-1.5
		l0.3-0.3c0.5-0.3,0.9-0.7,1.2-1.2c1-1.4,2-2.8,2.8-4.3c0.4-0.6,1.5-1.3,1.1-1.7C170.4,34.2,169.8,35.6,169,35.3z"/>
	<path class="st1" d="M104.4,41.7c0.8,1-0.6,1.5-0.6,2.2l-0.5,0.1c-1.3-0.5-4.3,0.5-5.4,2c0,0.1-0.1,0.1-0.2,0.1h-0.1
		C96.8,46.8,95.9,48,95,48c-2.2,0-3.1,2.4-5.2,2.5c-0.9,0.1-1.7,0.5-2.3,1.2c-1.1,1.2-3.2,1.1-3.9,2.9c-1.5-0.5-0.2-1.2-0.2-1.9
		c0.9-1.2,2.1-1.9,3.4-2.5c1.3-0.6,3-0.8,4.3-1.7c3.4-2.3,6.6-4.9,10.8-5.6c0.7-0.1,0.8-0.5,0.4-1.1c0.4,0,0.7-0.1,0.6-0.6l0.7-0.4
		l0.1,0.6c0,0.2,0,0.3,0,0.5c0,0.2,0.4-0.2,0.4-0.5L104.4,41.7z"/>
	<path class="st1" d="M114.5,63.8h1.8c0.3,0,0.6,0.2,0.6,0.6c0,0,0,0,0,0c-0.2,1,1.2,0.7,1.2,1.5c0,0.8-0.4,0.3-0.7,0.2
		c-1.4-0.4-2.8-0.7-4.2-1l0,0c-1.9-0.6-3.2,0.2-4,1.8v0.3l0,0l-1.2,0.4c0-0.1,0-0.2,0-0.3c2.8-2.1,1.9-5,1.6-7.8l0.7-0.2
		c0.1,0.7,0.4,1.3,1,1.6c1.4-1.4,1.1-2.8,0.4-4.4c-0.2-0.4-0.3-0.9-0.4-1.3c0.9-0.1,0.5-0.7,0.4-1.1c-0.2-0.5-0.6-1.5-0.3-2.4
		c1.2,1.8,1.5,3.8,2.1,5.7c-0.4,1.6,0.4,3.4-1.1,4.7c-0.3,0.2-0.3,1.1,0.2,1.5C113.1,63.9,113.7,64.3,114.5,63.8z"/>
	<path class="st5" d="M52.1,99.7c1.6-0.2,2.9-1.3,4.4-2c3.6-1.7,7.3-3.2,11.1-4.5c0.3,0.5,0.9,0.2,1.3,0.4c-5.1,1.8-10,3.8-14.8,6.2
		c-4.1,2-7.9,4.5-12,6.7l-0.3-0.3c0.5-1.5,1.9-1.8,3-2.4c1.8-1.2,3.7-2.2,5.6-3.3c0.5,0,1-0.2,1.4-0.6L52.1,99.7z"/>
	<path class="st4" d="M70.1,93.2l0.3,0.3c-0.1,0.1-0.4,0.2-0.1,0.4l0.1-0.4c0.3-0.1,0.8-0.3,1-0.1c0.2,0.2,0,0.7-0.2,0.9
		c-1.5,3.4-2.5,7-4.3,10.3c-0.4,0.7-0.5,1.5-0.5,2.3c0,0.9,0.4,2-1.2,2c-0.4,0-0.3,0.6-0.4,0.9c-0.3,1.3-1.6,2-2.9,1.7
		c0.1-0.4,0.2-1,0.4-1.1c2.1-0.7,1.8-2.8,2.5-4.3c1.6-3.6,3.3-7.2,4.4-11c0.2-0.5,0.3-1,0.2-1.5L70.1,93.2z"/>
	<path class="st4" d="M114.5,104.1l-0.7,0.1l-1.9,0.2c0.3-1.6,2-2,2.9-2.9c2.6-2.5,5.4-4.8,8.2-7.1c0.7-0.6,0.7-1.3,0.7-2.1
		c0.6,0.4,0.9,0.3,1.1-0.4c0.2-0.8,0.5-1.5,1-2.2c0.4-0.5,0.9-0.9,1.3,0c0.6,1.8-0.7,3-1.6,3.9c-3.3,3.3-6.7,6.5-10.6,9.1
		C114.6,103.1,113.9,103.4,114.5,104.1z"/>
	<path class="st5" d="M172,48.3c-1.4,2.4-2,5.1-2.2,7.9l-0.7-1.5c-2.5,2-2.4,4.9-2.4,7.8c-0.8-0.4-0.8-1-1.2-1.4
		c-0.8,0.3-0.7,1.2-1.1,1.7c-0.1-0.4-0.2-0.6-0.5-0.2c-0.3,0.4-0.3,0.7-0.7,0.8l-0.5-0.6c0.5-1.2,0.8-2.5,2.1-3.3
		c0.7-0.4,1.1-1.2,0.5-2.1l0.8-1.7c0.6-0.1,0.6-0.5,0.6-1l0.1-0.3c0.7-0.2,0.8-0.7,0.8-1.3h0.2c1,0.7-0.7,1.5,0,2.2
		c1.1-1.2,1.1-3,2-4.2c0.4-0.5-0.4-0.3-0.7-0.4c0.2-0.9,0.6-1.7,1.2-2.3C170.8,49.6,171.3,47.9,172,48.3z"/>
	<path class="st5" d="M83.4,52.9c0,0.6-1.3,1.4,0.2,1.9c-0.9,0.5-2,0.6-3,0.4c-2.2-0.3-4.4-0.6-6.4-1.4c-0.3-0.1-0.7-0.2-0.9-0.7
		c-0.2-0.4-0.6-1.1-1.4-0.7c-0.2,0.1-0.9-0.2-0.9-0.5c0.2-1.3-0.9-1.2-1.6-1.6s-0.8-0.3-0.9-0.6c-0.3-1.1-1-1.1-2.3-1
		c0.8-0.5,1-1.3,1.9-0.8c0.2,0.9,1.1,1.2,1.7,1.7s1.1,0.2,1.5-0.4h0l0.3,0.2l0.3,0.2c-0.2,1.9,1.7,2,2.7,2.5c1.8,0.9,4,1.2,5.9,1.7
		c0.5,0.2,0.8,0.2,1.2-0.2C82.2,53.2,82.7,52.9,83.4,52.9z"/>
	<path class="st3" d="M94.9,110.3c0.9-2.7,2-5.3,3.4-7.7c0.3-0.5,0.5-0.4,0.9-0.3c0.8,0.2,1.6,0.3,2.4,0.3c1.9,0.1,1.9,0.1,1,1.7
		c-1.5,0.9-2.4,2.3-3.6,3.6c-0.7,0.7-2.2,0.3-2.4,1.7C96.1,109.8,95.7,110.5,94.9,110.3z M97.4,106.5c0.8-0.6,1.6-1,2.3-1.5
		s0.7-0.7,0.2-1.2c-0.3-0.4-0.8-0.4-1.2-0.1c0,0,0,0-0.1,0.1C97.9,104.4,97.3,105.2,97.4,106.5z"/>
	<path class="st1" d="M171.8,29.7c-0.4,0.2-0.7,0.4-0.5,0.9c0.2,0.5-0.2,0.9-0.7,1l-0.6-0.4l-0.1-0.3v-0.2c1.7-1.1,0-2.1-0.1-3.2h0
		c0.6-0.1,0.6,0.7,1.3,0.7c-0.5-1.1,0.1-2.2-0.7-3.2l1.2,0.1c0.2,0.5,0,1.6,1,1.1c1.7-0.7,3.1-2,3.8-3.8c0.7-1.9,1.5-3.4,2.1-5.2
		l0.7,0.1c-0.2,4.8-3,8-6.5,10.8c-1-0.2-1.2,0.2-1.1,1.1L171.8,29.7z"/>
	<path class="st5" d="M126.5,45.3c-0.2,1-0.4,1.9-1.3,2.5s-0.4,2-1.2,2.8c-0.2,0.2-0.2,0.6-0.5,0.6c-0.2-3.7,0.7-7.2,1.4-10.8
		c0.4-2.2,1.1-4.4,1.7-6.6c0.3-0.2,0.3-0.6,0.2-0.9c0-0.1,0-0.2,0-0.3c0.6,0.7,0.4,1.5,0.2,2.2c-0.8,3-1.1,6-1.4,9
		C125.6,44.5,125.7,45.1,126.5,45.3z"/>
	<path class="st1" d="M181.8,107.8c0.7-0.5,0.3-1.3,0.5-1.9l0.3,0.1c0,0.3,0,0.5,0.1,0.8c0.5,1.2,2.3,1.8,3,1.1l-0.2-0.3
		c0-0.1,0-0.2,0-0.3h0.6c0.1,0.1,0.1,0.2,0.1,0.3c-0.2,1.3,0.9,1.6,1.6,2.2c0.7,0.6,1.1,0.1,1.5-0.4l0.3,0.3
		c-0.1,1.2,0.4,1.7,1.6,1.3c0.2-0.1,0.5-0.2,0.6,0.1c0.6,1.6,2.3,1.7,3.4,2.7c0.5,0.4,0.9,1.3,1.6,1.1c1.2-0.4,1.6,0.6,2.3,1.1
		c-0.1,0.2,0.3,0.9-0.5,0.6c-2.7-0.8-4.5-3.3-7.4-3.7c-0.8-0.1-1.5-0.8-2.3-1.2C186.5,110.3,183.8,109.6,181.8,107.8z"/>
	<path class="st3" d="M172,39.6c0.6-0.7,1.1-1.5,2-0.4c0.3,0.3,0.9,0.3,0.8,0.1c-0.3-0.7,1.1-1.3,0.2-1.9c-1.5-1-1.5-1-1.4-2.5
		c0.9,1.2,2.7,1.8,2.2,3.7c-0.5,2-2.8,3.2-3.4,5.3c0-0.5,0-1-0.6-1.3c-0.7,1.1-1.5,2-2.4,2.9c-0.4,0.1-0.5,0.3-0.5,0.6l0,0l-0.3,0.3
		l0,0l-0.6,0.3c-0.2-1.2,0-2.2,1-3.2C170.1,42.5,171.4,41.2,172,39.6z"/>
	<path class="st4" d="M61.7,111.5c-0.1,0.9-0.7,1.5-1.2,2.2c-0.5,0.7-0.5,0.7,0,1c0,0.3-0.3,0.5-0.6,0.5L59,114
		c-0.9,1.4-1.5,1.6-2.7,1.1c-0.1,0-0.2-0.1-0.3,0c-0.8,1.3-2.6,0.9-3.7,2l1.1,0.1c-1.2,0.6-2.5,1.3-3.9,0.5
		c-0.6-0.3-0.9,0.4-1.6,0.2c0.4-1,1.1-1.5,2.2-1.6c3-0.4,5.6-1.7,8.3-3L61.7,111.5z"/>
	<path class="st5" d="M159.6,71.8c0.1,1,0.7,0.6,1.2,0.5c0.5-0.1,0.9,0.7,1.1,1.3c-2.2-0.2-4.3,0.7-6.5,0.6c0,0.1,0,0.1,0,0.2
		c-0.5-0.7-0.3-1.4-0.3-2.2c0.6,0,1-0.6,1.5-0.7c1.2-0.1,2.1-0.8,2.1-2c0-0.6-0.4-0.4-0.7-0.5l1.9-2.9c0.2-0.3,0.4-0.6,0.9-0.5
		c0.5,0.1-0.4,1.1,0.4,1.4c-0.4,1.2-0.5,2.5-1.4,3.5c-0.4,0.4-0.7,0.9-0.6,1.5c-0.9,0.5-2.1,0.2-3,1.1c0.9,0.3,1.7,0.2,2.6,0
		c0.9-0.2,0.5-0.6,0.5-1L159.6,71.8z"/>
	<path class="st4" d="M65.5,111.8c0.5-0.7,1.2-1.2,1.5-2.1c0.3-0.8,0.9-0.8,1.6-0.4l-4.2,5.2c-0.4,0.5-1,0.8-1,1.6l0,0
		c-0.2-0.1-0.5,0-0.6,0.3v0.3l0,0c-0.9,0.2-1.4,0.7-1.5,1.5l0,0c-1.1,0.2-1.5,1.1-2.2,1.9c-0.6,0.7-1,0.6-0.9,1.3l0,0
		c-0.4,0-0.7,0.2-0.6,0.6l0,0c-0.2,0-0.3,0.1-0.3,0.3l0,0c-1,0.3-1.9,1.1-2.2,2.2l0,0c-0.7-0.2-0.9,0.6-1.4,0.7
		c-0.2-1.5,1.2-1.9,2-2.7c2.8-3.2,5.9-6.2,8.9-9.3c0.3-0.3,0.5-0.6,0.4-1.1l0,0C65.1,112.2,65.4,112,65.5,111.8z"/>
	<path class="st5" d="M35.7,145c-0.9,1.9-2.5,3-3.8,4.6c-3.4,4.1-6.6,8.3-9.2,12.9c-0.3,0.7-0.8,1.2-1.5,1.6
		c1.2-2.2,2.3-4.2,3.5-6.1c2.8-4.6,6.2-8.8,10-12.7c0.2-0.2,0.4-0.3,0.6-0.4L35.7,145z"/>
	<path class="st3" d="M165.9,24.7c-0.6,0.2-1.1,0.6-1,1.3c-1.2,0-2-1.1-3.1-1.2l0,0c-0.1-0.4-0.5-0.6-0.9-0.6l0,0l-0.3-0.9
		c0.8-0.7,1.8-0.9,2.8-0.9c1,0,1.1,0.1,1.6-0.3l1.2-0.1l1.3,0.4h0.3v0.5c-0.2,1,0.1,1.8,0.6,2.6h-0.9l-0.6-0.9
		C166.2,23.5,166,24.2,165.9,24.7z M164.8,23.9c0-0.1-0.1-0.2-0.1-0.2c-0.1,0-0.2,0.1-0.2,0.1s0.1,0.2,0.1,0.2
		C164.6,24,164.7,24,164.8,23.9z"/>
	<path class="st1" d="M90.7,99.1c0.3-0.1,0.7-0.3,1,0.1c0.6,1,1.2,2,1.7,3.1c0.3,0.6-0.4,1.8-0.7,2.7l-0.5,0.3
		c-0.7,0.2-1.3,1.7-2.2,0.3c-0.2-2-0.3-4,0.2-5.9L90.7,99.1z"/>
	<path class="st4" d="M161.9,73.6c-0.2-0.6-0.4-1.1-1.1-1.3c0.8-0.9,2.1-1.2,3.1-1.5c2.3-0.6,3.6-2.4,5.5-3.4
		c0.7-0.3,1.2-0.9,1.6,0.2s1.7,0.3,1.7,1.5l-1.5-0.1l-1.1-0.2c-0.4-0.1-0.7-0.7-1.1-0.3c-0.4,0.4,0.7,0.5,0.4,1
		c-1.3-0.2-2.2,0.5-2.8,1.5l0,0l-1.8,0.1c-0.9,0,0,0.4,0,0.6v0.6c-0.7,0.2-1.5,0.4-0.9,1.5c-0.4,0.2-0.3,0.6-0.2,0.9
		c-0.7-0.3-0.3-0.8-0.3-1.3c0-0.5,0.1-1-0.6-1.1l-0.2-0.1l0.1,0.2v0.8L161.9,73.6z M170.7,67.6L170.7,67.6L170.7,67.6L170.7,67.6z
		 M170.3,68.2L170.3,68.2L170.3,68.2L170.3,68.2z"/>
	<path class="st5" d="M51.5,128.5l-9.9,10.9c-0.4,0.2-0.7,0.2-0.7-0.4c1.4-2,3.1-3.7,4.6-5.5c1.5-1.8,3.2-3.6,4.7-5.4
		c0.1-0.2,0.4-0.3,0.6-0.3l0.2,0.2L51.5,128.5z"/>
	<path class="st5" d="M31.9,113.4L13.5,127l-0.4-0.5c6.3-4.4,12.1-9.4,18.4-13.6L31.9,113.4z"/>
	<path class="st5" d="M162.7,73.3v-0.8l0.1-0.1c0.7,0.1,0.6,0.7,0.6,1.1c0,0.5-0.3,1,0.3,1.3l0.3,0.1l0.4,0.3l4.2,6.2
		c0.3,0.5,0.7,0.9,0.6,1.5c-1.1-0.7-1.5-1.9-2.3-2.9c-1.2-1.6-2.4-3.2-4-4.5c-0.5-0.4-0.7-0.4-0.8,0.2c-0.3,0-0.7-0.1-0.8,0.2
		c-0.4,1.1-1.4,1.1-2.3,1l0,0v-0.6c0.4-0.3,0.9-0.6,1-1.2h-2.2c1.3-0.5,2.6-1.1,4.1-0.9C163.3,74.6,162.7,73.9,162.7,73.3z"/>
	<path class="st3" d="M140.7,34.9c0.3,0,0.6,0.1,0.7-0.3c0.1-0.4,0.7-0.7,1.2-0.5s0.2,1-0.2,1.4l-0.5,0.2l-1.1,0.2
		c-0.9,0.2-1.9,0.7-1.6,1.7c0.3,1,1.4,0.2,1.9-0.1c1.3-0.8,2.1,0.3,3,0.6s-0.1,1.1-0.1,1.6l-0.1,0.1c-0.8-0.7-1.7-1.1-2.8-0.7
		l-0.1-0.1l0.1,0.1v0.3c-0.9,0-1.7-1.2-2.8-0.3c-0.5-0.1-1.1,0.2-1.5-0.3l-0.1-0.7l0.2-0.8L140.7,34.9z"/>
	<path class="st5" d="M140.1,83c-0.2,1-1,0.5-1.5,0.7c-0.2-0.4-0.6-0.2-1-0.2l0.1-0.9c-1,0.6-1.5,1.4-1.3,2.4c0.2,1.1,0.9,1,1.6,1.3
		c-2.2,0.8-3.8,0.4-5.3-1.3c0.3-1.1,1.3-1.6,1.9-2.5c0.1,0.6-0.1,1.9,0.9,1.2c1-0.7,1.9-1.4,1.9-2.8c0.1-0.2,0.2-0.8,0.5-0.3
		c0.2,0.5,1.1,0.6,1.7,0.6c0,0.2-0.1,0.4-0.2,0.6c-0.2,0.4-1.2,0.4-0.9,1.1c0.3,0.7,0.9,0,1.4,0C140.4,82.9,140,82.9,140.1,83z"/>
	<path class="st4" d="M109.4,135.4c0.3,1.6-0.3,2.9-1.8,3.6c-0.5,0.2-0.6,0.3-0.4,0.9c0.3,0.7,0.2,1.4-0.2,2h-0.7
		c-0.2,0-0.6-0.3-0.7,0.1c-0.1,0.4,0,0.8,0.6,0.8l-0.2,1.5l-0.5,0.3c-0.7,0.4-1.2,0-1.8-0.2l-0.1-0.1c1.1-1.9,2.1-3.8,3.1-5.8
		c0.6-1.1,1.9-2,1.1-3.5C108.2,135.2,108.7,135.7,109.4,135.4z"/>
	<path class="st2" d="M91.5,80.8V80c1.1-1.3,2.3-2.6,4-3.1c-0.5,1.1-0.1,2.3-0.5,3.5c-0.2,0.6-1,0.8-0.8,1.5c-0.4,0-0.8,0.2-0.9,0.6
		l-0.1,0.1l0.1,0.2h0.1c-1.5,0.8-1.7,0.7-1.9-1C91.5,81.4,91.5,81.1,91.5,80.8z"/>
	<path class="st4" d="M90.7,99.1l-0.5,0.6c-0.8-0.1-1.1,0.2-1.3,1c-0.5,2.5-0.8,5.1-0.9,7.7c-0.4-0.7-0.7-0.6-1.1,0
		c-0.2-1.6,0.3-3.2,0.4-4.7c0-0.6,0.3-1.3,0.1-1.8c-0.8-2.7,1-3.6,2.9-4.4C90.7,97.9,90,98.7,90.7,99.1z"/>
	<path class="st5" d="M96.4,96.3c-0.9,1.2-2.5,1.1-3.4-0.2c-0.4-0.7-1.1-1.1-1.9-1c-0.1-0.1-0.1-0.2,0-0.3v-1c1.9-1,2.8-0.9,4.5,0.5
		c0.2,0.2,0.5,0.3,0.8,0.4c0.4,0.1,0.9,0.2,0.9,0.7S97.1,96.3,96.4,96.3c-0.1-0.1-0.1-0.4-0.3-0.1L96.4,96.3z"/>
	<path class="st1" d="M70.1,93.2l-0.6,0.2L69,93.6c-0.4-0.2-1,0.2-1.3-0.4c3.2-0.8,6.3-2.1,9.6-2.8c1.2-0.1,2.4-1.2,3.7-0.4
		c-1,0.3-2,0.7-3.1,0.9c-1.9,0.4-3.5,1.1-4,3.2c-1.1-0.4-0.5,1.1-1.3,1.1c-0.3-0.8,0.7-2-0.3-2.5C71.2,92.2,70.8,92.8,70.1,93.2z"/>
	<path class="st4" d="M199,115.8c-0.7-0.6-1-1.5-2.3-1.1c-0.7,0.2-1.1-0.7-1.6-1.1c-1.1-1-2.8-1.1-3.4-2.7c-0.1-0.3-0.4-0.2-0.6-0.1
		c-1.2,0.5-1.7-0.1-1.6-1.3c1.1,0,2.1,0.3,2.9,1.3s1.7,1,2.6,1.3c1.8,0.6,3.3,1.7,4.5,3.1C198.8,114.9,198.9,115.4,199,115.8z"/>
	<path class="st5" d="M172.3,43.9c0.7-2,2.7-3.2,3.4-5.3c0.5,0.2,0.7,0.5,0.5,1c-1.1,2.4-1.6,4.9-2.4,7.3c-0.2-0.8,0.6-2.8-1.5-1
		c-0.2,0.2-0.8,0.2-1.2,0.2l0.5-1.3C172.3,44.8,172.4,44.4,172.3,43.9L172.3,43.9z"/>
	<path class="st3" d="M115.3,85.4c0.1,0,0.2,0,0.3,0.1c2.8,2.3,5.8,1.1,8.7,0.3c-1.3,2.3-3.3,1.8-5.5,1.3c1.3,0.9,1,1.5-0.2,1.8
		c-0.7,0.1-1.1,0.8-1.1,1.5l-0.4,0.3c-0.3,0-0.5-0.2-0.5-0.5c0-0.1,0-0.2,0.1-0.2C117.3,88.1,116.8,86.6,115.3,85.4z"/>
	<path class="st5" d="M86.9,108.4c0.4-0.6,0.8-0.7,1.1,0c0.9,2.4,1.2,5.1,2.6,7.4c0.3,0.6,0.7,1.5-0.3,1.8c-1,0.3-1.1-0.7-1.2-1.3
		c-0.3-1.1-0.4-2.2-0.6-3.3C88.2,111.4,87.6,109.9,86.9,108.4z"/>
	<path class="st5" d="M0,137.5c4-3.5,7.6-7.5,12.3-10C8.2,130.8,4.2,134.3,0,137.5z"/>
	<path class="st3" d="M171.8,25.2l-1.2-0.1c0-0.5-0.5-0.7-0.7-1c-0.7-1.1-1-2.1,0.6-2.8c0,0,0-0.2,0-0.3c0-0.1,0.8-0.4,1.3-0.3v0.6
		c-0.2,0.1-0.5,0.1-0.5,0.4c0,0,0,0.1,0.1,0.1c0.3,0,0.3-0.2,0.3-0.5l1.1-0.4c0.9,1.2,0.2,2.4-0.2,3.5C172,24.4,172.1,25,171.8,25.2
		z M170.8,22.6l-0.3,0.1l0.1,0.1L170.8,22.6l0.1-0.1L170.8,22.6z"/>
	<path class="st5" d="M95.5,113.4c0.6,1.4,1.2,2.8,1.7,4.3c0.2,0.5,0.2,1,0.2,1.5c0,0.5,0,1.1-0.6,1.2c-0.6,0.1-1.1-0.4-1.3-1.1
		c-0.3-1.5-0.5-3.1-0.7-4.7C94.9,114.2,95,113.7,95.5,113.4z"/>
	<path class="st5" d="M166.1,21.9l-1.2,0.1c0.8-2.4,2.6-3.9,4.6-5.3l1,0.3c-0.9,1.5-2.4,2.6-2.7,4.4l-0.1-0.1
		C167,20.4,166.9,20.4,166.1,21.9z"/>
	<path class="st3" d="M146,31.6c1.3-1.4,2.9-2.5,4.6-3.2c0.7-0.3,1.2-1,1.9-1.3c-0.4,0.9,1,0.9,0.8,1.7c-0.4-0.1-0.8-0.1-0.8,0.5
		c-0.8-0.6-1.7-0.1-2.5,0.1s-1.1,0.8-0.3,1.5l0.3,1.1c-0.3,0.1-0.7,0-0.9-0.3c-0.5-0.7-0.8-0.2-1.1,0.2
		C147.4,31.8,146.6,32.2,146,31.6z"/>
	<path class="st3" d="M90.1,105.6c1,1.4,1.5-0.1,2.2-0.3l-0.2,1.2c-0.4,0.4-0.3,0.8,0,1.2c0.3,0.4-0.8,2,1,1.1
		c0,0.7-0.4,1.4-0.2,2.1l-1.4-0.1c-0.5,0-1.1-0.6-1-0.7C91.1,108.5,89.4,107.2,90.1,105.6z"/>
	<path class="st2" d="M153.4,28.8c0.2-0.8-1.2-0.8-0.8-1.7s1.6-0.7,2.2-1.5c1.4-0.1,2.8-0.1,4,0.8c-0.2,0.3-0.5,0.7-1,0.5
		c-1.9-0.6-2.8,0.7-3.7,2l-0.1,0.1L153.4,28.8z"/>
	<path class="st1" d="M105.4,144.6l0.5-0.3l0.8,0.7c-0.2,0.9-0.5,1.6-1.7,1.5c-0.5-0.1-1,0.3-1.3,0.7c-0.9,1.4-2.1,2.5-3.3,3.6
		c-1.3-0.8,0.1-1.1,0.3-1.6c0.9-1.3,2.4-2.1,3-3.6c0.2-0.4,0.6-0.2,0.9-0.2C105.7,145.8,105.5,145.2,105.4,144.6z"/>
	<path class="st1" d="M146,31.6c0.6,0.6,1.4,0.2,2.1,0.3c0.6,0.5,1.4,0.8,2.2,0.9l0,0l0.3,0.4l0.9,0.8c0.1,0.2,0.4,0.3,0.7,0.3h0
		l0.4,0.8l-0.1,0.1c-1-0.1-1.4-1.2-2.4-1.3c-0.2-0.2-0.4-0.5-0.6-0.7c-0.2-0.2-0.8-0.8-1.3-0.4c-0.5,0.4-0.2,0.8,0.2,1.2
		c0.3,0.4-0.1,0.5-0.4,0.6h-0.3c-0.1-0.8-0.6-1-1.2-0.9c-0.3-1.1,0.9-0.2,1.1-0.9c-0.9-0.7-1.9-0.5-2.9-0.3
		C144.8,31.9,145.4,31.8,146,31.6z"/>
	<path class="st5" d="M180.3,101.6c-0.8,0.7-1.4,0.1-1.6-0.5c-1.1-2.7-3.2-4.9-3.7-7.9h0.3c1.2,2.1,2.4,4.3,3.5,6.4
		C179.2,100.4,179.7,101.1,180.3,101.6z"/>
	<path class="st4" d="M103.8,145.6c-0.6,1.5-2.1,2.3-3,3.6l-1.5-0.3c0.1-1.1,1.1-1.4,1.8-1.9c1-0.8,1.8-1.7,2.5-2.8l0.1,0.1
		C103.6,144.8,102.9,145.3,103.8,145.6z"/>
	<path class="st3" d="M138,86.2c-0.7-0.3-1.6-0.2-1.6-1.3c0.6-0.4,1.1-0.7,1.2-1.5c0.3,0,0.7-0.1,1,0.2c0.2,0.3-0.2,1.2,0.9,1.2
		c0.5,0,1,0.8,1.5,1.3C140,86.6,139,85.9,138,86.2z"/>
	<path class="st1" d="M171.2,46.2c0.4-0.1,1,0,1.2-0.2c2-1.9,1.3,0.2,1.5,1c-0.1,0.3,0,1-0.3,0.7c-1.1-1.1-1.1,0.2-1.5,0.6
		c-0.7-0.4-1.1,1.3-1.9,0.2l0.6-1.7L171.2,46.2z"/>
	<path class="st5" d="M38.8,108.6c-1.7,1.7-3.9,2.7-5.9,4.1c-0.2,0.1-0.4,0-0.5-0.1c-0.3-0.4,0.2-0.5,0.4-0.7l6.3-4.4L38.8,108.6z"
		/>
	<path class="st4" d="M41,139.1c0,0.5,0.3,0.5,0.7,0.4c-1.4,1.5-2.8,2.9-4.4,4.3l-0.4,0.3l0,0c-0.6,0-0.9,0.4-1.1,0.9h0l-0.4-0.2
		c0.1-1.1,1.1-1.6,1.8-2.4C38.3,141.2,39.6,140.1,41,139.1z"/>
	<path class="st4" d="M95.5,113.4c-0.5,0.3-0.6,0.8-0.7,1.3c-0.3-0.1-0.6-0.3-0.5-0.7c0.2-1.1-0.5-2-0.7-3c0.5-0.5,0.5-0.8-0.2-1.1
		c0-0.6,0.5-1,0.2-1.6c0-0.1,0-0.1,0-0.2c0.7-0.2,0.8-1,1.4-1.3l0.2-0.1c0.2,1.3-1,2.3-0.8,3.6c0,0.5,0.3,0.3,0.6,0.3
		C94.7,111.7,95.4,112.5,95.5,113.4z"/>
	<path class="st5" d="M171.8,25.2c0.3-0.2,0.2-0.8,0.7-0.8c1.1,0.4,1.6-0.6,2.4-0.9c0.6-0.3,1.2-0.6,1.7-1c-0.7,1.8-2,3-3.8,3.8
		C171.7,26.7,172,25.7,171.8,25.2z"/>
	<path class="st5" d="M53.4,117.1l-1.1-0.1c1.1-1.1,2.9-0.7,3.7-2c0,0,0.2,0,0.3,0c1.2,0.5,1.8,0.3,2.7-1.1l0.9,1.2l-0.1,0.1
		l-0.3,0.1l-0.6-0.1l-0.3,0.2c-0.6,0.3-0.9,1-1.6,1h-0.6l-0.3-0.1c-0.2-0.3-0.4-0.2-0.6,0L53.4,117.1z"/>
	<path class="st5" d="M162.1,77.1c1.1,0.7,2.5,1,2.5,2.7l-0.3,0.4c-0.1-0.1,0.2-0.4-0.2-0.3l0.2,0.3l0.3,0.8c-1.3-0.5-1.7-2-2.8-2.7
		C162,78,161.2,77.3,162.1,77.1z"/>
	<path class="st1" d="M159,72.2c-0.1-0.6,0.3-1.1,0.6-1.5c0.9-1,1.1-2.3,1.4-3.5l0.1-0.3c0.9,0,0.5,1.1,1.2,1.3l0.1,0.6
		c-1.9,0.2-1.7,2.2-2.8,3.1L159,72.2L159,72.2z"/>
	<path class="st5" d="M166.7,71.2c0.7-1,1.5-1.7,2.8-1.5c0.3-0.5-0.9-0.6-0.4-1c0.5-0.5,0.7,0.2,1.1,0.3l1.1,0.2l-0.2,0.3l-0.2,0.2
		l-0.1,0.1l-0.2,0.2c-0.4,0.5-0.8,1.1-1.6,1C168.1,70.1,167.5,71.5,166.7,71.2z"/>
	<path class="st1" d="M158.8,26.6c-1.2-0.9-2.6-0.9-4-0.8l2.4-1.4c-0.2,0.8,0.3,1.1,0.9,1.3c1.2,0.4,2.2,1.2,2.8,2.2l-0.1,0.1
		l-0.9-0.4L158.8,26.6z"/>
	<path class="st1" d="M170.5,17l-1-0.3c1-1.3,2.5-2,4.1-2.6L170.5,17z"/>
	<path class="st5" d="M189.1,109.2c-0.4,0.5-0.9,0.8-1.5,0.4c-0.6-0.5-1.9-0.9-1.6-2.2c0.7,0.2,1.3,0.6,2,0.8
		C188.6,108.4,189.1,108.6,189.1,109.2z"/>
	<path class="st5" d="M171.8,87.3l-0.4,0.2c-0.9-1.4-2-2.7-2.2-4.5C171.4,83.6,171,85.8,171.8,87.3z"/>
	<path class="st5" d="M99.2,148.9l1.5,0.3c-0.2,0.5-1.6,0.8-0.3,1.6c-0.3,0.7-0.3,1.5-0.9,2.1c-0.4-0.5-0.4-1.1-0.4-1.7
		s0.4-1.1-0.6-0.8c-0.3,0.1-0.4-0.4-0.2-0.7C98.6,149.5,98.9,149.2,99.2,148.9z"/>
	<path class="st5" d="M109.4,135.4c-0.7,0.3-1.2-0.2-1.8-0.4l0,0c0-0.3,1.1-0.7,0-0.9l0.2-0.4c2,0.7,2-1,2.4-2.1
		c0.8,0.6,0.2,1.1,0,1.7C110.1,133.9,109.7,134.7,109.4,135.4z"/>
	<path class="st4" d="M185.6,107.8c-0.8,0.7-2.5,0.1-3-1.1c-0.1-0.3-0.1-0.5-0.1-0.8c0.6,0,1.2-0.1,1.5,0.5c0.1,0.3,0.3,0.4,0.6,0.4
		l0,0c0.1,0.2,0.4,0.4,0.6,0.3l0,0v0.3L185.6,107.8z"/>
	<path class="st4" d="M71.3,49.3c-0.4,0.6-0.9,0.8-1.5,0.4c-0.6-0.4-1.5-0.8-1.7-1.7l0.1,0.1l0.4-0.2C69.6,48,70.7,48.1,71.3,49.3z"
		/>
	<path class="st1" d="M170.4,21c0,0.1,0,0.3,0,0.3c-1.5,0.7-1.2,1.7-0.6,2.8h-0.3l-0.6-0.2l-1.2-1v-0.9L170.4,21z"/>
	<path class="st5" d="M97.9,46c1.1-1.4,4-2.5,5.4-2L97.9,46z"/>
	<path class="st1" d="M164.6,81l-0.3-0.8l0,0l0.3-0.4l1.6,1.9c0,1.1,1.1,1.9,0.9,3C165.8,83.8,165.4,82.3,164.6,81z"/>
	<path class="st1" d="M163,63.5c0.4-0.1,0.5-0.5,0.7-0.8c0.2-0.3,0.4-0.2,0.5,0.2l-1.6,3.7c-0.5-0.4-0.2-1.1-0.3-1.5L163,63.5z"/>
	<path class="st5" d="M111.9,104.4l1.9-0.2c-1.2,0.7,0,1.5,0,2.3c-0.7-0.8-1.5-0.3-2.3-0.3C111.8,105.6,111.9,105,111.9,104.4z"/>
	<path class="st1" d="M166.7,71.2c0.8,0.3,1.3-1,2.1-0.2l-2.1,1.2l-0.3,0.2l-0.1,0.1c-0.3,0-0.7,0-0.8,0.4l0,0l-0.7-0.4v-0.6
		C165.5,71.8,166.4,72.2,166.7,71.2L166.7,71.2z"/>
	<path class="st3" d="M106.7,145l-0.8-0.7l0.2-1.5c0.3-0.3,0.6-0.3,1-0.3l0.6,1.3L106.7,145z"/>
	<path class="st5" d="M120.3,58.6l-3.4-0.4c0.4-0.4,0.6-1.1,1.3-1.2c0.3,0.9,1.1,0.4,1.7,0.7l0,0l0.2,0.1l0.3,0.2l0.4,0.2
		L120.3,58.6z"/>
	<path class="st5" d="M199,115.8c0-0.4-0.1-0.9,0.6-0.6c1.1,1.1-0.1,1.8-0.6,2.6c-0.4-0.4-0.3-0.9-0.5-1.4
		C199.2,116.7,198.8,116.1,199,115.8z"/>
	<path class="st5" d="M164.9,72.5l0.7,0.4c-0.2,0.8-0.2,2-1.6,1.1C163.4,72.9,164.1,72.7,164.9,72.5z"/>
	<path class="st1" d="M38.8,108.6l0.3-1.1c1-0.2,1.6-1.3,2.7-1.3l0.3,0.3L38.8,108.6z"/>
	<path class="st5" d="M108,127.9l1.4-0.9c0.2,0.8,0,1.7-0.5,2.4l-1-1.1L108,127.9z"/>
	<path class="st5" d="M179.5,17.3l-0.7-0.1l0.6-2.4C179.8,15.6,179.8,16.5,179.5,17.3z"/>
	<path class="st5" d="M162.4,65c0.2,0.5-0.2,1.1,0.3,1.5l-0.3,1.6c-0.7-0.2-0.3-1.3-1.2-1.3L162.4,65z"/>
	<path class="st1" d="M51.5,128.5l-0.4-0.4l-0.1-0.3h0c0.8-0.3,1.5-0.8,1.6-1.8c0-0.1,0-0.2,0.1-0.2l0.6,0.2h0
		C53.3,127.3,52.3,127.8,51.5,128.5z"/>
	<path class="st1" d="M55,124.5c0.3-1,1.1-1.9,2.2-2.2C56.8,123.5,55.9,124.1,55,124.5z"/>
	<path class="st4" d="M134.6,14.3c-1.5-1.1,0.2-1.3,0.6-1.8c0.3-0.1,0.6,0.1,0.7,0.3c0,0,0,0,0,0l-0.1,0.2L134.6,14.3z"/>
	<path class="st1" d="M160.6,23.2l0.3,0.9c-0.9-0.1-1.8-0.4-2.8-0.3C158.8,23.2,159.7,23.1,160.6,23.2z"/>
	<path class="st5" d="M58.9,120.2c0.7-0.7,1.1-1.7,2.2-1.9c-0.2,1.1-1.1,1.5-1.9,2.2L58.9,120.2z"/>
	<path class="st1" d="M181.3,104.1h0.3c1,0.3,0.4,1,0.4,1.5C180.8,105.5,181.5,104.6,181.3,104.1z"/>
	<path class="st4" d="M52.7,126c-0.2,0.9-0.8,1.4-1.6,1.8C51.1,126.7,52,126.5,52.7,126z"/>
	<path class="st1" d="M53.6,125.2c0.5-0.1,0.7-0.9,1.4-0.7c-0.2,0.8-0.7,1.4-1.6,1.5h0L53.6,125.2L53.6,125.2z"/>
	<path class="st1" d="M93.6,108.3c0.2,0.6-0.3,1.1-0.2,1.6v0.8c-0.1,0.2-0.4,0.3-0.7,0.2c-0.2-0.7,0.2-1.4,0.2-2.1
		C93,108.1,93.4,108.4,93.6,108.3z"/>
	<path class="st5" d="M61.1,118.3c0.1-0.9,0.7-1.4,1.5-1.5C62.4,117.5,62,118.2,61.1,118.3z"/>
	<path class="st4" d="M107.6,134.1c1.1,0.2,0.1,0.6,0,0.9c0,0.3-0.7,0.1-0.7-0.2S107.3,134.3,107.6,134.1z"/>
	<path class="st1" d="M58.9,120.2l0.3,0.3c-0.4,0.3-0.5,1.1-1.2,0.9C58,120.8,58.6,120.5,58.9,120.2z"/>
	<path class="st5" d="M171.9,29.3c-0.2-0.9,0.1-1.3,1.1-1.1L171.9,29.3z"/>
	<path class="st4" d="M51.8,99.8c-0.4,0.4-0.8,0.6-1.4,0.6C50.5,99.3,51.4,100,51.8,99.8z"/>
	<path class="st3" d="M120.9,54.2c0,0.7-0.3,1-1,0.9C120.1,54.6,120.4,54.3,120.9,54.2z"/>
	<path class="st5" d="M35.7,145c0.2-0.5,0.5-0.9,1.1-0.9C36.6,144.5,36.5,145.1,35.7,145z"/>
	<path class="st4" d="M185.9,107.2h-0.6c-0.1-0.3-0.4-0.3-0.6-0.3l0,0c0-0.1,0-0.2,0-0.2C185.2,106.6,185.8,106.4,185.9,107.2z"/>
	<path class="st4" d="M53.5,125.3l-0.1,0.7l-0.6-0.2C52.8,125.4,53,125.1,53.5,125.3z"/>
	<path class="st1" d="M171.7,21.4v-0.6c0.4-0.1,0.7-0.1,1.1,0.2L171.7,21.4z"/>
	<path class="st5" d="M93.4,110.7v-0.8c0.7,0.2,0.7,0.6,0.2,1.1L93.4,110.7z"/>
	<path class="st1" d="M57.4,122.1c0-0.5,0.2-0.7,0.6-0.6C58.2,122,58,122.2,57.4,122.1z"/>
	<path class="st4" d="M126.8,32.8c0,0.3,0.1,0.7-0.2,0.9C126.5,33.4,126.5,33.1,126.8,32.8z"/>
	<path class="st4" d="M107,39.3c-0.3,0.1-0.7,0.1-0.9-0.1C106.3,39,106.7,39,107,39.3z"/>
	<path class="st5" d="M167.7,21.9v0.4h-0.3c-0.1-0.3,0-0.7,0.3-1l0.1,0.1L167.7,21.9z"/>
	<path class="st3" d="M94.9,110.7c-0.2,0-0.7,0.2-0.6-0.3l0.6-0.1L94.9,110.7z"/>
	<path class="st5" d="M165.6,72.8c0.1-0.4,0.5-0.4,0.8-0.4C166.2,72.7,165.9,72.8,165.6,72.8z"/>
	<path class="st4" d="M164.4,75.3l-0.4-0.3C164.1,75,164.6,74.7,164.4,75.3z"/>
	<path class="st4" d="M56.5,116.5h0.6C56.9,116.8,56.7,116.8,56.5,116.5z"/>
	<path class="st1" d="M62.7,116.5c0.1-0.2,0.4-0.4,0.6-0.3l-0.3,0.3L62.7,116.5z"/>
	<path class="st4" d="M55.5,116.4c0.2-0.2,0.4-0.3,0.6,0H55.5z"/>
	<path class="st4" d="M58.7,115.5l0.3-0.2C58.9,115.4,59,115.8,58.7,115.5z"/>
	<path class="st5" d="M184.7,106.6c0,0.1,0,0.2,0,0.2c-0.3,0-0.5-0.1-0.6-0.4L184.7,106.6z"/>
	<path class="st3" d="M119,56l-0.2,0.3C118.7,56.2,118.8,56,119,56C119,56,119,56,119,56z"/>
	<path class="st5" d="M166.4,72.4l0.3-0.2L166.4,72.4z"/>
	<path class="st1" d="M57.1,122.4c0-0.2,0.1-0.3,0.3-0.3C57.5,122.4,57.4,122.4,57.1,122.4z"/>
	<polygon class="st5" points="97.7,46.1 97.8,46.1 97.8,46.2 	"/>
	<path class="st5" d="M62.7,116.5H63l-0.3,0.3V116.5z"/>
	<path class="st5" d="M99.5,73.7L99.3,74C99.2,73.9,99.3,73.7,99.5,73.7C99.5,73.7,99.5,73.7,99.5,73.7z"/>
	<path class="st5" d="M98.9,74.3c0,0.1,0,0.1-0.1,0.1c0,0-0.1,0-0.1,0C98.8,74.2,98.8,74.2,98.9,74.3z"/>
	<path class="st4" d="M59.5,115.3l0.3-0.1C59.8,115.4,59.7,115.5,59.5,115.3z"/>
	<path class="st5" d="M36.8,144l0.4-0.3C37.2,143.9,37,144,36.8,144C36.8,144,36.8,144,36.8,144z"/>
	<path class="st5" d="M68.5,47.7L68.1,48C68.2,47.8,68.3,47.7,68.5,47.7z"/>
	<path class="st4" d="M170.8,69.5l0.2-0.2L170.8,69.5z"/>
	<path class="st4" d="M170.5,69.9l0.2-0.2L170.5,69.9z"/>
	<path class="st4" d="M71.7,49.5l-0.3-0.2L71.7,49.5z"/>
	<path class="st4" d="M51.1,127.9l0.1,0.3l-0.2-0.2C50.9,127.9,51,127.8,51.1,127.9z"/>
	<path class="st3" d="M119.6,55.4l-0.3,0.3L119.6,55.4z"/>
	<path class="st1" d="M182.3,105.9l-0.3-0.3L182.3,105.9z"/>
	<path class="st1" d="M91.2,94.4v0.4C91.1,94.7,91.1,94.6,91.2,94.4C91.1,94.5,91.1,94.5,91.2,94.4z"/>
	<polygon class="st5" points="143.2,30.3 143.3,30.4 143.2,30.3 	"/>
	<path class="st5" d="M108.9,98.8L108.9,98.8L108.9,98.8L108.9,98.8z"/>
	<path class="st2" d="M95.6,76.8L95.6,76.8z"/>
	<path class="st1" d="M144.5,32.5c0,0.2-0.2,0.3-0.4,0.2c0,0,0,0,0,0L144.5,32.5z"/>
	<path class="st5" d="M123.4,51.5v0.1h-0.1L123.4,51.5z"/>
	<path class="st2" d="M116.9,64.3c0-0.3-0.3-0.6-0.6-0.6c0,0,0,0,0,0c-0.3-0.8-1.1-0.7-1.8-0.9s-1.3-0.5-0.9-1
		c0.4-0.5,1-1.8,2.2-1.6c0.2,0,0.5,0.5,0.6,0.8c0.1,0.3-1.1,0.3-0.4,1s1-0.1,1.3,0.2c0.9,0.5,1.5,1.2,2.5,1.7c1,0.5,2.2,0.1,2.7-0.9
		c0.4-1.1,1.2-0.9,1.9-1.3c0,3.1,1.1,3.8,4.7,3.6v0.1c-0.7,0.9-0.2,1.8,0,2.7c1.1-0.4,1.4,0.8,2.1,1.2s0.8,1.3,0.2,2
		c-1.5,2-1.5,2.4-0.2,4.4c-0.3,0.6-1-0.3-1.3,0.3c-0.9-0.3-1.2-1.4-2.2-1.6l-0.1-0.2l-0.2-0.4c-1.1-2-2.1-4.2-4.1-5.6
		c-0.8-0.6-1.5-1.5-2.7-1.5C119.9,65,118.1,65.2,116.9,64.3z"/>
	<path class="st3" d="M113.2,65c1.4,0.3,2.8,0.6,4.2,1c0.3,0.1,0.6,0.2,0.7-0.2l2.2,1.4c0.6,1.3,1.8,2.2,2.8,3
		c2.1,1.5,3.6,3.2,4.5,5.7c-2.6-0.5-0.4,1.5-0.9,1.9s-0.4-1.1-1.1-0.3c-0.7,0.8-1.3,1.1-0.2,2c-2.7-0.1-3.9,2-5.7,3
		c-0.4-0.6-0.6-1.3-0.6-2.1c0.5-0.5,1.4,0.2,1.7-0.6c0.3-0.8,1-1.9-0.7-2.2c-0.4-0.1-0.7-0.3-0.7-0.7c0-0.4,0.6-0.5,1-0.5
		c0.4,0,1,0.2,1.5,0.4c0.8,0.4,1.7,0.1,2.1-0.7c0.6-0.9-0.4-1.1-1-1.4c1-0.5,1.3-1,0.2-1.6c-0.2-0.1-0.5-0.3-0.6-0.5
		c-0.2-1.2-1-1.7-2-2.3c-1-0.6-2.2-1.9-3.3-2.8c-0.7,0.5-0.8,1.2-0.2,1.9c0.6,0.7,0.1,1.1-0.6,1.5c0-1.1-1.3-1.9-0.4-3
		c0.1-0.1-0.4-0.7-0.7-1c-0.3-0.3-0.5-0.4-0.8-0.2c-0.3,0.2,0,0.4,0.1,0.7c0.1,0.2,0.6,1.1-0.6,0.9c-0.4-0.1-0.7,0-0.2,0.6
		c0.4,0.6-0.3,1-0.6,1.9c-0.5-1.5-2-2.1-2.1-3.6c0-0.2-1.1-0.4-1.2,0.5c-0.1,0.9-0.3,1.1-1,1.1c-0.3-0.5,0.2-1,0.1-1.5l0,0
		c0.2-0.1,0.2-0.2,0-0.3C109.9,65.2,111.2,64.4,113.2,65L113.2,65L113.2,65z"/>
	<path class="st3" d="M144.8,69.7c-0.5,0-0.9,0.2-1.2,0.5c-0.5,0.5-1,0.5-1.6,0.1c-0.7-0.4-1.6-0.9-1.2,0.7c0.6,1,1.5,1.3,2.5,1.6
		c-0.5,1.6-1.8,0.6-2.8,0.8c-1.3-0.3-3.5,1-4.1,2.4c-0.4,0-1,0.1-0.7-0.7c0.3-0.8,0.4-1.5,1.1-1.9c0.4-0.2,0.6-0.7,0.4-1.1
		c1-0.8,2.1-1.5,2.2-3c0.8-0.6-0.2-1.3,0.2-1.9s0.7-1,0.5-1.7s-0.2-0.6,0.1-0.7c0.3-0.1,0.5,0.2,0.6,0.5c0.2,0.9,1,1.3,1.5,0.6
		c0.6-0.7,2.2-0.7,1.9-2.2c0.2-0.1,0.4-0.2,0.7-0.2h0.3C145.4,65.5,145.3,67.7,144.8,69.7z"/>
	<path class="st4" d="M140.1,83c-0.1-0.1-0.2-0.2-0.2-0.2c-0.1,0-1.1,0.5-1.4,0s0.7-0.6,0.9-1.1c0.1-0.2,0.1-0.4,0.2-0.6
		c0.5-0.5,1-0.2,1.5-0.3c0.3,0.4,0.7,0.1,1-0.1c4.2-1.5,8.2-3.4,12.5-4.4c0.8-0.2,1.7-0.3,2.4-1l0.9-0.1h2.2c-0.1,0.7-0.6,0.9-1,1.2
		l-3.7,0.6c-1,0.5-2.2,0.4-2.8,1.5l-0.9,0.4c-3.5,1.6-7.1,3-10.8,3.9L140.1,83z"/>
	<path class="st5" d="M150,61.6c1.7-0.8,2.2-2.4,2.8-4c1.5-1.5,2.5-3.4,4.2-4.7c0.8-0.6,1.3-1.6,1.9-2.5c0.7,0,0.7-1,1.5-1
		c0.1,0.4-0.1,0.7-0.4,1.1c-2.5,2.7-4.6,5.8-7.1,8.5c-1.3,1.4-2.2,3-3.3,4.6c-0.2,0.3-0.3,0.7,0,1c0.3,0.3,0.6-0.1,0.7-0.1
		c0.8,0.2,1.3-0.6,2.1-0.5l0.4,1.3c-0.4,0.5-0.9,0.9-1.6,0.9c-0.2,0.1-0.4,0.3-0.3,0.6l-1.2,0.1c-0.5,0.1-0.5,0.7-0.9,0.9l-0.3-0.9
		l0,0c0.9-0.3,0.7-1.1,0.6-1.6c-0.2-0.7-0.3-1.4-0.2-2.1c0.5-0.3,0.7-0.8,0.8-1.3L150,61.6z"/>
	<path class="st3" d="M150,61.6l-0.3,0.3c-0.9-1.1-2.2-0.2-3.2-0.7c-0.4-0.2-0.4-0.1-0.3,1.1c0.7-0.1,1.3-0.7,2-0.3
		c-1.6,1.6-0.9,4.2-2.3,5.9c-0.6-1.4-0.1-2.9-0.3-4.4c-0.1-0.7-0.4-1.4-0.3-2.1c0.2-0.7,1.3-1.2,1.6-1.8c0.7-1.2,1.4-1.8,2.7-1.4
		c0.6,0.5,1.4,0,2,0.7C150.6,59.5,150.2,60.5,150,61.6z"/>
	<path class="st5" d="M114.5,104.1c-0.6-0.7,0.1-1.1,0.5-1.3c3.9-2.6,7.2-5.8,10.6-9.1c0.9-0.9,2.2-2.1,1.6-3.9
		c0.8,0.1,0.6,1.3,1.5,1.3l-0.3,0.9c-0.4,0.2-0.3,0.6-0.3,0.9h0c-2,1-3,2.9-4.6,4.2c-1.5,1.3-2.4,2.9-4.3,3.6
		c-1.1,0.4-1.7,1.4-2.3,2.1C116.3,103.5,115.3,103.7,114.5,104.1z"/>
	<path class="st5" d="M139.4,69.1c0,1.5-1.2,2.2-2.2,3c-1.1,0.2-2.4,0.3-2.4,1.9l-2,3.7c-0.6,1.1-1.4,1.9-2.6,2.1
		c-1.2,0.2-0.7-1.2-0.9-1.9c-0.1-1.3,0.8-0.9,1.5-0.9c0,0.2-0.2,0.7,0,0.7c0.1,0.1,0.7,0,0.9-0.3c1.2-1.5,1.6-3.6,3-5
		c0.1-0.1-0.1-0.3-0.1-0.4c0-0.1,0-0.2,0-0.3c0.6-0.4,1.6,0.1,1.8-1c1.3,0,1.8-1.1,2.5-1.8L139.4,69.1z"/>
	<path class="st5" d="M156.9,75.3c-0.6,0.7-1.5,0.8-2.4,1c-4.3,1.1-8.4,3-12.5,4.4c-0.3,0.1-0.6,0.5-1,0.1v-0.6
		c4.6-1.8,9.3-3.4,14-4.9c0.3-0.1,0.7-0.1,0.9-0.5L156.9,75.3z"/>
	<path class="st3" d="M130.2,79.9c1.2-0.3,2-1.1,2.6-2.1l2-3.7c0.7,1.3,0.5,2.4-0.6,3.4s-0.9,1.3,0,2c0.2,0.2,0.7,0.4,0.3,0.8
		c-0.4,0.5-0.6,0.2-0.8,0c-0.2-0.2-0.9,0-1.4,0.1C131.9,80.4,130.8,81,130.2,79.9z"/>
	<path class="st3" d="M148.9,63.2c-0.1,0.7-0.1,1.4,0.2,2.1c0.2,0.6,0.4,1.3-0.6,1.6c0-0.3,0.1-0.6-0.3-0.8
		c-0.4-0.2-0.3,0.1-0.3,0.2c0,0.1,0.2,0.5,0.5,0.5l0.3,0.9c-0.2,0.8-0.2,1.3,0.9,1.3c1.1,0,2.3,0.1,3.5,0c-1.7,1.1-3.4,1-5.2,0.6
		l-0.3-0.7c0.1-1.9-0.4-3.8,0.5-5.6C148.3,63,148.5,62.8,148.9,63.2z"/>
	<path class="st5" d="M136.4,75.8c0.5-1.4,2.7-2.8,4.1-2.4c-0.5,0.7-0.5,2-1.8,2c0.1,0.8-0.7,1.1-1,1.7c-0.2,0.6-1,1.1-1.9,0.9
		C136.1,77.3,136.5,76.6,136.4,75.8z"/>
	<path class="st3" d="M126.4,84.5c0.2-1.5,1.5-2.5,1.5-4c0.5,0,1,0,0.9,0.7c0,0.7,0.4,1,1,1.2l-0.3,1c-0.4,0-0.7,0-1,0.5
		C127.9,85.6,127.8,85.6,126.4,84.5z"/>
	<path class="st3" d="M153.1,70.3c-0.7,0.9-1.8,1.4-2.7,2.1c-0.4-0.6-0.5,0.1-0.7,0.2c-0.8,0.5-1.5,1.1-2.5,0.5l0.4-0.6
		c0.3-0.1,0.4-0.5,0.3-0.7v-0.1l1.9-0.4C151,71.3,151.9,70.3,153.1,70.3z"/>
	<path class="st5" d="M149.8,71.3l-1.9,0.4c-0.1-0.2,0-0.6-0.3-0.6c-0.3,0-0.2,0.4-0.3,0.7c-0.1,0.3-1-0.1-1.5,0.1
		c-0.5-1.7,1.1-2,1.8-2.9l0.3,0.7c-0.1,0.1-0.3,0.2-0.4,0.2c-0.1,0.1,0,0.3,0.2,0.4C148.5,70.5,149.3,70.5,149.8,71.3z"/>
	<path class="st4" d="M137.3,80.8c0,1.4-1.1,2.2-1.9,2.8c-0.8,0.5-0.8-0.6-0.9-1.2C134.8,80.8,136.1,80.8,137.3,80.8z"/>
	<path class="st3" d="M130.8,77.2c-0.7,0-1.6-0.4-1.5,0.9c-0.5,0-1,0-0.9-0.7c0.1-0.7-0.5-2-0.6-3.1c1,0.2,1.3,1.2,2.2,1.6
		C130.3,76.3,131.6,76.1,130.8,77.2z"/>
	<path class="st3" d="M115.2,79.4c0.5,0.1,1.6-0.9,1.4,0.7c0.6,0.2,1.2,0.3,1.8,0.4c0.1,0.6,0.2,1.1-0.5,1.4c-0.6,0.2-1.3,0-1.8-0.5
		C115.7,80.9,115.3,80.2,115.2,79.4z"/>
	<path class="st4" d="M126.4,87.3c-1.3,0.4-1.5,1.5-1.8,2.6c-0.1,0.4-0.1,1.2-0.9,0.9c-0.5-0.2-0.7-0.7-0.6-1.1
		c0-0.1,0.1-0.2,0.2-0.3c0.8-1,1.4-2.2,2.8-2.7L126.4,87.3z"/>
	<path class="st5" d="M145.7,63.5c0.2,1.5-0.3,3,0.3,4.4c-0.2,1.1-0.4,2.2-1.2,3h0v-1.2c0.6-2,0.7-4.1,0.4-6.2H145.7z"/>
	<path class="st4" d="M145.7,71.9c0.5-0.2,1,0.3,1.5-0.1h0.3v0.7l-0.4,0.6l-0.1,0.1c-0.6,0.2-0.7,1.5-1.4,1
		C144.8,73.5,145.3,72.6,145.7,71.9z"/>
	<path class="st5" d="M120.3,67.2l-2.2-1.4c0-0.8-1.5-0.5-1.2-1.5c1.2,0.8,2.9,0.7,3.7,2.2C120.3,66.7,120.3,67,120.3,67.2z"/>
	<path class="st3" d="M135.8,78c0.9,0.2,1.2-0.7,1.9-0.9c0.2,1.1,0.7,0.3,1,0.1s0.6-0.6,0.9-0.2c0.3,0.3-0.2,0.7-0.4,1
		c-0.9,0.7-2,0.6-3,0.9C135.7,79,135.8,78.3,135.8,78z"/>
	<path class="st5" d="M129.6,83.3l0.3-1c0.3-0.1,0.7-0.2,1-0.4c0.3-0.2,0.5-0.8,1-0.3c0.4,0.5,0.1,0.9-0.2,1.2S130.5,84,129.6,83.3z
		"/>
	<path class="st3" d="M128.3,92l0.3-0.9c0.7-0.6,0.1-1.5,0.4-2.2c1.1,1.7,0.1,3.1-0.5,4.6c-0.4,0.1-0.5-0.2-0.6-0.6h0
		C128.4,92.7,128.3,92.3,128.3,92z"/>
	<path class="st5" d="M143.1,72.6c-1-0.3-2-0.7-2.5-1.6C141.8,71,142.9,71.1,143.1,72.6z"/>
	<path class="st5" d="M126.4,87.3l-0.3-0.7c0.1-0.5,0.3-0.7,0.8-0.6c0.5,0.1,0.5,0.4,0.5,0.5C127.4,86.7,126.9,87.1,126.4,87.3z"/>
	<path class="st3" d="M124.3,85.8c0.5-0.7,1.3-1.1,2.2-1.2C126.1,85.5,125.2,85.7,124.3,85.8z"/>
	<path class="st3" d="M127.4,73.7l0.2,0.4L127.4,73.7z"/>
	<path class="st5" d="M144.8,70.9l-0.2,0.1L144.8,70.9L144.8,70.9z"/>
	<path class="st3" d="M114.4,78.7l0.2,0.2l-0.1,0.1C114.4,78.9,114.4,78.8,114.4,78.7z"/>
	<path class="st5" d="M90.6,81c0.1-0.1,0.6,0.3,0.9-0.2c0,0.3,0,0.6,0,0.9c0.2,1.7,0.4,1.8,1.9,1c0.5,0.4,1.1-0.4,1.6,0.4
		c-0.9-0.2-1.3,0.5-1.5,1c-0.2,0.5-1.1,1.5-2,1.6c-1,0.2-1.2,0.5-1,1.1c0.2,0.6,0.9,0.5,1.5,0.2l0.5-0.3l0.6-0.1
		c1.5,0.2,2.9,0.2,3.6-1.7c0.1-0.3,0.6-0.5,0.9-0.7c0.9-0.6,0.7,0.2,0.8,0.7l0,0c-0.8,0.1-0.9,0.7-0.9,1.4s0,0.7,0.4,0.9
		c-0.2,0.8-1.4,0.4-1.5,1.3c0.5,0.3,1-0.4,1.4,0.2c-0.2,0.4-0.9,0.2-0.9,0.8l-0.1,0.1c-1.7-0.1-3,1.1-4.5,1.6
		c-0.3,0.1-0.4,0.5-0.4,0.8l-0.3,0.4c-0.5-0.6,0.1-1.3-0.3-1.9v-0.6l0.1-0.1l-0.1-0.2c-0.1-2-0.1-2-2.1-1.5l-8.2,2
		c-1.3-0.8-2.4,0.3-3.7,0.4l0.1-0.5c2.9-1.5,6.2-1.8,9.2-3.2c1.5-0.7,3.3-0.7,4.6-2.3c-1-0.1-1.7-0.3-2.5-0.3
		c-2.3,0-4.6-0.8-6.9-0.2c-1.2,0.3-2.4,1.1-3.7,0.4c-0.3-0.2-0.5,0.2-0.8,0.3c-1.2,0.8-0.5,2.4-1.2,3.4h-0.6
		c-0.1-0.5,0.2-1.2-0.7-1.3c-0.4-1.1-0.3-2,0.8-2.6c0.3-0.2,0.8-0.6,0.8-0.8c0-1.4,1-1.5,1.8-1.3c1.6,0.2,3.1-0.4,4.6-0.7"/>
	<path class="st4" d="M91.3,90.4c0.4,0.6-0.2,1.3,0.2,1.9h0c-0.2,0-0.5,0-0.7,0.2c-3.4,2-7,3.9-10.2,6.4c-1.5,1.2-3.1,2.3-4.6,3.5
		c-0.4,0.3-0.7,0-1,0.1c1.7-2.3,4.2-3.7,6.4-5.4s5.5-3.6,8.3-5.2C90.4,91.6,91,91.1,91.3,90.4z"/>
	<path class="st3" d="M114.4,83.3c0.5,0.5,0.9,0.9,1,1.7l-1-0.4c0,1.3,0.6,2.7-1.4,2.8c-0.4,0-0.6,0.5-0.6,0.8
		c-0.1,1.6-1.4,2.3-2.4,3.3c-0.9,1-1.8,0.4-2.7,0.5l-0.1-0.1c0.2-0.8,1-0.9,1.5-1.2c1.2-0.5,1.6-1.2,1.3-2.5l0,0
		c0.7-0.6,0.1-1.5,0.4-2.2c0.8,0.5,2.9-0.4,2.8-1.5C113.2,83.5,113.9,83.6,114.4,83.3z"/>
	<path class="st3" d="M107.3,92c-0.5,1.2-2.2,1.4-2.4,2.8c-0.1,0.4-0.6,0.2-0.8-0.2s-0.4-0.7-0.6-1.1s-0.3-1.3-1.5-0.8
		c-0.7,0.3-1.9-0.6-2.5-1.3s-0.3-1.2,0.7-1.3s1.8-0.7,1.7-2l0.6,0.1c0,0.1,0,0.1,0,0.2c-0.5,0.9,0.6,3.2-2,2.2
		c-0.2-0.1-0.4,0.2-0.4,0.4c0,0.3,0.1,0.5,0.4,0.6c1,0.2,2,0.3,2.5-0.8s0.6-1.5,0.9-2.2c0.3,0.2,0.3,0.5,0.3,0.8
		C104.9,92.5,104,92,107.3,92L107.3,92z"/>
	<path class="st3" d="M108.2,99.1c-2,2.2-4.2,3.3-7.2,2c0.9-0.2,1.7-0.7,2.2-1.5c0.9-1,0.9-1-1.3-1.7c1.9-0.8,3.7-0.2,5.6,0.1
		c0.4,0,0.8,0.4,0.7,0.8C108.2,99,108.2,99,108.2,99.1z"/>
	<path class="st4" d="M69.2,106.1c0.1,0.4-0.2,1.1,0.2,1.2c0.5,0.2,0.8-0.4,1.1-0.8c0.3-0.4,0.6-1.1,1.4-0.9c0.3,1-0.7,1.1-1.1,1.6
		s-1.2,1.8-2.4,2.1c-0.1-1.7,0-3.4,0.3-5C69.4,104.9,69.1,105.5,69.2,106.1z"/>
	<path class="st4" d="M91.8,92c0-0.3,0.1-0.7,0.4-0.8c1.5-0.5,2.8-1.8,4.5-1.6C95.4,90.9,93.6,91.7,91.8,92z"/>
	<path class="st4" d="M96.8,89.4c0-0.6,0.7-0.5,0.9-0.8l3.1-1h0c0.4,0.7,0.1,1.3-0.6,1.4S97.9,89.7,96.8,89.4z"/>
	<path class="st4" d="M72.2,105.3c0.7-1.1,1.5-2.2,2.9-2.4C74.7,104.2,73.6,104.9,72.2,105.3z"/>
	<path class="st5" d="M102.3,88.3l-0.6-0.1c-0.1-0.6-0.6-0.5-1-0.5h0v-0.6l0.3-0.4l0.6,0.1c0.1,0.5,0.3,0.6,0.8,0.4l0.5,0.1
		C102.9,87.8,102.9,88.2,102.3,88.3z"/>
	<path class="st3" d="M99.3,92.4c0.6,0.2,0.7,0.5,0.7,1C99.4,93.3,99.3,92.9,99.3,92.4z"/>
	<path class="st5" d="M90.8,92.6c0.2-0.2,0.4-0.2,0.7-0.2C91.3,92.5,91.1,92.6,90.8,92.6z"/>
	<path class="st1" d="M120.3,58.6l0.4-0.4c2.3,0.6,4.3,1.6,5.9,3.4c1.6,1.8,4,3.4,5.7,5.6c0.5,0.7,1,1.3,1.2,2.1l-0.2,0.2h-0.9
		c-0.2-2.1-1.8-3.1-3.3-4.1v-0.1c-1.2-1.4-2.4-2.8-3.8-4c-0.2-0.2-0.4-0.3-0.6-0.4C123,60.4,121.7,59.4,120.3,58.6z"/>
	<path class="st3" d="M138.9,69.1c-0.7,0.8-1.2,1.8-2.5,1.8c0-0.4-0.1-0.8-0.6-0.3s-0.3,0.5-0.7,0.6c-0.1-0.5,0.1-1.1,0-1.6
		c-0.2-1.2,1-0.4,1.3-0.5c1.8-0.7,1.7-0.7,1.4-2.4s-1.1-2.8-0.8-4.4C138.8,64.2,138.8,66.6,138.9,69.1z"/>
	<path class="st1" d="M138.9,69.1c-0.1-2.4-0.1-4.9-1.9-6.8c0-0.4-0.2-0.7-0.6-1l-0.3-1.2c0.7-0.1,0.9,0.4,1.1,0.8
		c1.2,1.9,2.1,4,2.3,6.3c-0.3,0.6,0.7,1.3-0.2,1.9H138.9z"/>
	<path class="st3" d="M125.6,53.2h0.6c0,0.4,0.2,0.7,0.7,0.6l0,0v0.5c-0.3,0.6,0.2,0.3,0.4,0.4l0.4-0.3c0.2,0.5,0.5,1.1-0.5,0.9
		c-0.6,0-1.1-0.2-1.6-0.4C124.2,54.4,125.6,53.8,125.6,53.2z"/>
	<path class="st3" d="M125.3,56.4c0.3,0,0.6,0.2,0.7,0.4c0.1,0.2,0.1,0.5,0.4,0.6c0.3,0.1,0.8-0.8,0.8,0c0,0.8-0.8,0.5-1.2,0.4
		c-0.3-0.1-0.7-0.3-1-0.5c-0.2-0.1-0.5-0.2-0.3-0.6C124.9,56.5,125.1,56.4,125.3,56.4z"/>
	<path class="st3" d="M125,55.9c-0.6-0.2-1.2,0.9-1.6,0c-0.1-0.3,0.2-1.2,0.6-1.2C124.7,54.5,124.6,55.5,125,55.9z"/>
	<path class="st1" d="M133.4,69.2c0.7,0.3,1.2,1.1,1.2,1.9l-0.2,0.2c-1.2-0.1-1-1.1-1.2-1.9L133.4,69.2z"/>
	<path class="st3" d="M136.1,60l0.3,1.2c-0.8-0.4-1.2-1.1-1.5-1.9c0.3,0.1,0.5-0.1,0.7-0.3c0.3,0.1,0.5,0.3,0.5,0.6
		C135.9,59.8,135.8,59.9,136.1,60L136.1,60z"/>
	<path class="st1" d="M135.1,71.2c0.3-0.1,0.5-0.4,0.7-0.6s0.6-0.1,0.6,0.3c-0.2,1-1.3,0.5-1.8,1l-0.1-0.6l0.2-0.2L135.1,71.2z"/>
	<path class="st1" d="M119.8,57.7L119.8,57.7z"/>
	<path class="st1" d="M120.2,57.9l-0.3-0.2C120.1,57.7,120.2,57.8,120.2,57.9z"/>
	<path class="st1" d="M113.5,78c-1.5-0.5-2.4-1.9-3.6-2.8c-1.4-1.1-2.9-2-4.5-2.7c0.3-0.5,0.9-0.3,1.2-0.6c0.8,1,1.7,1.7,3,1.6
		c0.1,1,0.8,1.1,1.5,1.2C112,75.8,113.4,76.5,113.5,78z"/>
	<path class="st3" d="M106.6,71.9c-0.3,0.3-0.9,0.2-1.2,0.6c-0.6-0.2-1.4,0.2-1.8-0.7c0.6-0.2,1.2-0.4,1.8-0.5
		C105.8,71.2,106.5,70.9,106.6,71.9z"/>
	<path class="st3" d="M110.3,70.4c0.7-0.7,1.3-1,2.2-0.3C111.8,70.6,111.2,70.8,110.3,70.4z"/>
	<path class="st3" d="M111.2,74.7c-0.7-0.1-1.5-0.2-1.5-1.2C110.5,73.5,111.2,73.6,111.2,74.7z"/>
	<path class="st3" d="M114.7,71.3c-0.4-0.1-0.6-0.3-0.6-0.6s0.1-0.7,0.5-0.6c0.4,0,0.4,0.4,0.4,0.7C115,71.1,115.1,71.3,114.7,71.3z
		"/>
	<path class="st3" d="M110.4,69.1c-0.1,0.7-0.7,0.7-1.2,1.1C109.1,69.2,109.7,69.1,110.4,69.1L110.4,69.1z"/>
	<path class="st3" d="M122.8,73.7c0,0.2-0.1,0.3-0.2,0.3c-0.1,0-0.2-0.1-0.3-0.2c0-0.1,0-0.2,0.1-0.2c0.1,0,0.1,0,0.2,0
		C122.6,73.6,122.7,73.6,122.8,73.7z"/>
	<path class="st3" d="M110.3,69l0.2-0.1L110.3,69L110.3,69z"/>
	<path class="st2" d="M101.7,86.8l-0.6-0.1c-0.1-0.4-0.2-0.8-0.2-1.1c0.4-1.1-0.4-1-1.1-1l-0.1-0.9c0.4-0.5,0.8-0.4,1.2,0
		c0.9,1.1,1.9,0.9,3,0.2l0.2-0.2c1.1,1.9,1.5-0.2,2.2-0.4c0.7-0.2,2,0.4,2.9,0.7c0.3-0.7,0.2-1.1-0.4-1.5c-0.6-0.4-0.8-0.5-0.6-1
		c0.2-0.5,0.6-1.1,1.1-0.9c1.5,0.3,0.5-0.6,0.5-1.1c1,0.2,1.7,1,2.7,0.6c0.4,1.1,1.6,1.9,1.8,3.1c-0.5,0.3-1.2,0.1-1.1,1.3
		c0.1,1.1-2,2-2.8,1.5c-0.3,0.7,0.3,1.5-0.4,2.2c0-0.8,0-1.6,0-2.5c0-0.3,0.1-0.8-0.4-0.8c-0.5,0-0.5,0.5-0.5,0.8
		c0.1,1-0.3,2.1-1,2.8c-0.2,0.2-0.3,0.5,0.1,0.9c0.4-0.6,1-1.1,1.8-1.2c0.3,1.2-0.2,2-1.3,2.5c-0.6,0.2-1.3,0.4-1.5,1.2
		c-3.3,0-2.4,0.6-3-2.5c-0.1-0.3-0.1-0.6-0.3-0.8c-0.3-0.2-0.1-1.2-0.9-1.2l-0.5-0.1C102.3,86.9,102.1,86.7,101.7,86.8z"/>
	<path class="st1" d="M99.8,83.7l0.1,0.9L99.3,85l-1.1-0.1c-0.1-0.4,0.1-1.2-0.8-0.7c-0.3,0.2-0.8,0.4-0.9,0.7
		c-0.6,1.9-2,1.9-3.6,1.7l0.3-0.6l0.3-0.3c0.2-0.1,0.5-0.1,0.7-0.2c0.2-0.1,0.7,0,0.6-0.5c0-0.1-0.1-0.3-0.2-0.4
		c-0.3-0.2-0.6,0.1-0.8,0.2c-0.2,0.2-0.4,0.5-0.4,0.8l-0.3,0.3c-0.5,0-0.9,0.1-0.9,0.7l-0.5,0.3c-0.6,0.2-1.2,0.4-1.5-0.2
		c-0.2-0.6,0.4-1,1-1.1s1.6-0.7,2-1.6c0.4-0.9,0.7-1.2,1.5-1c-0.5-0.8-1.1,0-1.6-0.4h0c0-0.1,0.1-0.2,0.1-0.3
		c0.1-0.4,0.5-0.6,0.9-0.6c2,1.5,2,1.5,2.9-0.5c0.2-0.4,0.5-0.6-0.1-0.9c-0.6-0.3-0.9-1-0.4-1.5s1-0.3,1.2,0.5
		c0.2,0.8,0.6,0.2,0.8,0c0.2-0.2,0.6-0.7,0.9-1.1c0.5,0.9,0,1.3-0.3,1.7c-0.9,1.1-0.7,1.7,0.7,2l0.5,0.1c0.1,0,0.2,0.1,0.3,0.2
		c-0.8,0.5-1.6,0.4-2.5,0.1C98,83.9,99.1,83.6,99.8,83.7z"/>
	<path class="st2" d="M106.7,79.9c0.4,0,0.8,0.1,0.8,0.7c0,0.5-0.4,1-0.9,1.1c-0.6,0.1-0.6-0.2-0.4-0.7
		C106.4,80.6,105.7,79.9,106.7,79.9z"/>
	<path class="st3" d="M159,50.5c-0.6,0.8-1.1,1.9-1.9,2.5c-1.8,1.3-2.8,3.2-4.2,4.7c-0.6-0.3-1,0.9-1.5,0.3s0.3-1.1,0.6-1.7
		c0.3-0.5,0.3-0.4,0.2-0.8c-2,0.7-2.5-0.9-3.1-2.2c1.1,0.8,2.5,0.6,3.8,1.1c0.1-0.5-0.3-1.2,0.5-1.4c0.6,0.4,0.3,1.3,1.1,1.8
		c0.4-1.1-0.2-2-0.2-2.8l1.1-0.2c0.1,0.2,0.2,0.2,0.3,0h0.9c0.2,0.1,0.5,0.1,0.6-0.1c0-0.1,0.1-0.1,0.1-0.2c0.1-1.1,0.7-1.8,1.5-2.5
		l1.7-2.8c0.7-0.1,0.7-0.1,0.2-1.3c0.9,0,0.9,0,0.8-0.7v-0.4c0.7-0.6,1.1-1.4,2-1.7c1.3-1.1,0.1-2,0-3.1c0.2-0.1,0.4-0.4,0.5-0.3
		c1.3,0.9,2,0.1,2.7-0.9c1.4,0.1,0.6,0.8,0.4,1.3s-1.8,1.4-1.3,2.7l-0.3,0.3c-1.1,0.2-1.5,0.7-1.1,1.5l-0.5,0.6
		C161.5,45.9,160.2,48.1,159,50.5z"/>
	<path class="st1" d="M165.5,41.8c-0.5-1.4,0.8-1.8,1.3-2.7c0.5-0.9,1.1-1.2-0.4-1.3c0-1.5-0.9-2.8-1.5-4.3c1.8,0.3,1.1,2.2,2,2.9
		l2-1.1c0.8,0.4,1.1-1.4,1.7-0.7c0.6,0.7-0.8,1.1-1.1,1.7c-0.9,1.5-1.9,2.9-2.8,4.3C166.4,41.1,166,41.5,165.5,41.8z"/>
	<path class="st3" d="M158.8,26.6l1.2,0.9c-0.2,0.3-0.4,0.8-0.4,0.8c-1.4-0.4-1.5,0.9-2.1,1.8l-0.9-1.5l0.1-0.1l-0.1,0.1
		c-0.7,0.9-1.6,0.6-2.5,0.6c0.9-1.3,1.8-2.6,3.7-2C158.3,27.3,158.5,26.9,158.8,26.6z"/>
	<path class="st1" d="M161.8,24.8c1.1,0.1,1.9,1.3,3.1,1.2c0.2,0.8,1.2,1.2,0.9,2.2l0,0C164.5,27.1,162.8,26.2,161.8,24.8z"/>
	<path class="st3" d="M169.9,31.2l0.6,0.4l-0.3,1.2l-0.1,0.1c-0.8,0.1-0.8-1-1.5-1h0l-0.4-0.3c-0.5-0.2-0.8-0.8-0.7-1.4
		C168.6,30.2,168.8,31.8,169.9,31.2z"/>
	<path class="st1" d="M163.4,39c0.1,1,1.4,2,0,3.1c0.2-1.5-0.6-2.7-1.1-4h0.4C163.1,38.2,163.3,38.6,163.4,39z"/>
	<path class="st1" d="M158.1,32.5c0.9,0.6,1.7,1.4,1.9,2.5l-0.1,0.1C158.9,34.5,158.3,33.7,158.1,32.5L158.1,32.5z"/>
	<path class="st1" d="M153.4,28.8l0.7,0.3c0.2,0.5,0.9,0.5,1.1,1.1l-0.2,0.2c-0.9-0.1-1.4-1-2.4-1.1
		C152.5,28.8,152.9,28.8,153.4,28.8z"/>
	<path class="st1" d="M167.4,25.4h0.9c0.4,0.6,1.2,1,1.2,1.9l0,0C168.5,27,168,26.1,167.4,25.4z"/>
	<path class="st3" d="M161.5,26.5c-0.9,0.1-1.3-0.4-1.4-1c-0.2-0.6,0.3-0.4,0.5-0.4C161.5,25.2,161.2,25.9,161.5,26.5z"/>
	<path class="st1" d="M165.9,24.7c0.2-0.6,0.4-1.3,1-0.2l0.6,0.9C166.8,25.4,166.2,25.4,165.9,24.7z"/>
	<path class="st1" d="M155,30.3c0.7,0.3,1.4,0.6,1.8,1.3l-0.1,0.1c-0.8-0.1-1.5-0.4-1.9-1.2L155,30.3z"/>
	<path class="st3" d="M163.6,31c1,0.2,1.1,0.8,1.4,1.6C164.1,32.1,163.9,31.7,163.6,31z"/>
	<path class="st3" d="M161.5,28.2c0.5,0.2,0.9,0.6,1,1.2l-0.1,0.1c-0.6-0.2-1.3-0.4-1.2-1.2L161.5,28.2z"/>
	<path class="st3" d="M160,35c0.7,0.1,0.9,0.6,0.9,1.2l-0.1,0.1c-0.5-0.3-1-0.5-0.9-1.2L160,35z"/>
	<path class="st1" d="M156.9,31.5c0.5,0.1,1,0.4,1.2,0.9l-0.1,0.1C157.4,32.5,156.9,32.3,156.9,31.5L156.9,31.5z"/>
	<path class="st3" d="M162.5,29.3c0.5,0.1,0.9,0.5,0.9,1l-0.1,0.1c-0.5-0.1-0.9-0.4-0.9-0.9L162.5,29.3z"/>
	<path class="st1" d="M160.9,24.1c0.4,0,0.8,0.2,0.9,0.6C161.3,24.9,160.9,24.8,160.9,24.1z"/>
	<path class="st3" d="M160.9,36.2c0.3,0,0.6,0.3,0.6,0.6l-0.1,0.1C161.1,36.8,160.8,36.6,160.9,36.2L160.9,36.2z"/>
	<path class="st1" d="M161.5,28.2l-0.3,0.1l-0.3-0.3l0.1-0.1L161.5,28.2z"/>
	<path class="st3" d="M162.7,38.1h-0.4l-0.2-0.2l0.1-0.1C162.4,37.7,162.6,37.9,162.7,38.1z"/>
	<path class="st3" d="M161.5,36.8l0.3,0.6h-0.1L161.5,36.8L161.5,36.8z"/>
	<path class="st1" d="M165.8,28.2l0.2,0.1h-0.1L165.8,28.2z"/>
	<path class="st3" d="M161.8,37.4l0.3,0.3l-0.1,0.1L161.8,37.4L161.8,37.4z"/>
	<path class="st3" d="M163.4,30.3l0.1,0.2L163.4,30.3L163.4,30.3z"/>
	<path class="st3" d="M169.9,30.7v0.2l-0.2-0.1L169.9,30.7z"/>
	<path class="st5" d="M168.3,31.6l0.3,0.3L168.3,31.6z"/>
	<path class="st1" d="M169.8,27.5l-0.3-0.3l0,0L169.8,27.5z"/>
	<path class="st5" d="M111.6,112.7c-0.7-2,0.6-5.4,2.2-5.8C112.5,108.7,112.2,110.8,111.6,112.7z"/>
	<path class="st5" d="M111.3,116.1c-0.4-1-0.7-2,0.2-2.8C111.5,114.3,111.9,115.2,111.3,116.1z"/>
	<path class="st5" d="M107,142.5c-0.3,0-0.7,0-1,0.3c-0.2,0.3-0.7-0.3-0.6-0.8s0.5-0.1,0.7-0.1h0.7L107,142.5z"/>
	<path class="st5" d="M110.4,128.5c-0.3-0.7-0.7-1.5,0.1-2.1C110.8,127.1,110.8,127.9,110.4,128.5z"/>
	<path class="st5" d="M110.8,118.7c-0.2-0.5-0.2-0.9,0.4-1C111.3,118.1,111.4,118.5,110.8,118.7z"/>
	<path class="st5" d="M110.5,124.6c-0.1-0.4-0.2-0.7,0.2-1C111.2,124,111.1,124.3,110.5,124.6z"/>
	<path class="st5" d="M110.7,122.6c-0.3-0.2-0.3-0.4,0.1-0.6C111.1,121.9,111,122.5,110.7,122.6z"/>
	<path class="st5" d="M110.8,120.2c0-0.1,0-0.2,0-0.3C110.8,119.9,110.9,120,110.8,120.2C110.9,120.1,110.8,120.1,110.8,120.2z"/>
	<path class="st1" d="M158.7,48.9c-0.8,0.7-1.4,1.4-1.5,2.5c0,0.2-0.2,0.4-0.5,0.4c-0.1,0-0.1,0-0.2-0.1c0-0.6,0.5-1.1,0.2-1.8
		c-1.6-3.3-3.5-6.3-6.2-8.8c-1.1-1.1-2.6-1.8-3.3-3.3h0c2.3,1.2,4.4,2.7,5.8,5c1.3,2.2,2.9,4.1,4.7,5.9
		C158,48.9,158.4,48.9,158.7,48.9z"/>
	<path class="st3" d="M147.8,34.7c0.2-0.1,0.7-0.1,0.4-0.6s-0.6-0.8-0.2-1.2c0.5-0.3,1,0.1,1.3,0.4c0.4,0.3,0.4,0.4,0.6,0.7
		c0.1,0.8-0.2,1.2-1.3,0.7c0.5,0.9,1.4,0.6,1.9,1.4c-1.1,0-2.1-0.1-3.1,0.3c-0.3,0.2-0.8-0.8-1.4-0.8
		C146.3,34.6,147.4,35.3,147.8,34.7z M147.8,35.5l0.1-0.1l-0.1-0.1L147.8,35.5L147.8,35.5z"/>
	<path class="st1" d="M160.6,44.9c0.4,1.2,0.4,1.2-0.2,1.3c0-1.5-1.6-2.2-2-3.5c-0.1-0.4-0.4-0.7-0.3-1.1h0
		C159.7,42,159.9,43.7,160.6,44.9z"/>
	<path class="st1" d="M141.9,35.6l0.5-0.2c1.7,0.7,3.5,1,4.8,2.4l0,0c-1.4,0.1-2.4-0.8-3.5-1.3C143.1,36.2,142.1,36.7,141.9,35.6z"
		/>
	<path class="st1" d="M155.3,37.8c-1.3-0.4-1.9-1.6-2.8-2.4l0.1-0.1C153.8,35.6,154.8,36.6,155.3,37.8L155.3,37.8z"/>
	<path class="st1" d="M158.1,41.5c-1.1-0.4-1.5-1.5-1.9-2.5l0,0C157.3,39.5,157.9,40.4,158.1,41.5z"/>
	<path class="st3" d="M146.3,33.7c0.7-0.1,1.2,0.1,1.2,0.9C146.9,34.7,146.2,34.7,146.3,33.7z"/>
	<path class="st1" d="M156.2,39c-0.6,0-0.7-0.5-0.6-0.9l0,0C156.2,38.1,156.2,38.5,156.2,39z"/>
	<path class="st1" d="M155.6,38.1l-0.3-0.3l0.1-0.1L155.6,38.1z"/>
	<path class="st2" d="M136.1,59.7c0-0.3-0.2-0.5-0.5-0.6c-1.3-2-3.2-3.6-5.5-4.4c-1.7-0.7-3.3-1.9-5.1-2.4c-0.4-0.1-0.5-0.5-0.3-0.7
		c1-1.1,1.4-2.7,3.1-3c0.8,0.4,1.5-0.5,2.3-0.1c-0.1-0.6-0.8-0.5-0.7-1l0.3-0.1c0.9-1.1,1.7-2.4,2.2-3.7c0.2-0.1,0.3-0.3,0.3-0.5
		l0.6-0.1c1.4,0.1,3-0.2,3.9,1.4c0.2,0.3,0.6,0.1,0.8,0c0.3-0.1,0.8-0.1,0.9,0.5c-1.9-0.2-1.5,1.1-1.6,2.2l0,0
		c-0.3-0.1-1,0.2-0.7-0.6c0.4-0.7,0.9-1.7-0.8-1.4c-0.2,0-0.4-0.1-0.6-0.2c-0.2-0.1-0.9-1-1.5,0c-0.6,1-1,1.2-0.7,1.6
		c0.8,1.3-0.6,0.7-1,1.1c0.8,0.3,1.3,0.9,2.2,0.8c0.8,0,2.4-0.4,3.6,0.2c0.2,0.1,0.5-0.1,0.7-0.2c-0.4-0.9,0.8-1.1,0.8-1.8
		c0-0.7-0.8-0.7-1.2-1.2c0.3-0.1,1.1,0.1,0.7-0.7c1.7,0.1,2.6,1.5,3.8,2.4c1.2,0.9,2.7,2.9,4.2,4.2c-0.2,1.2,0.5,1.7,1.6,1.8
		c1.3,1.4,2,3,1.8,5c-1.4-0.4-2,0.2-2.7,1.4c-0.3,0.5-1.3,0.9-1.6,1.8c-0.5-0.4-0.7-1-1-1.5c-0.7-1-0.9-2.3-2-3
		c0-0.4-0.3-0.5-0.7-0.6c0-0.4-0.1-0.8-0.4-1.1c-1.1-1.7-2.7-2.8-4.3-3.9c-1.6-1.1-2.4-2-4-2.1c-1.1-1.1-2.2-0.5-3.2,0.3
		c-0.4,0.4-0.9,0.6-1.4,0.7c-0.5,0.1-1.1,0.2-0.9,0.9c0.2,0.7,0.8,0.2,1.1,0.2l0,0c0.5,1.1,1.5,1.6,2.5,2.1s1.2,0.1,1.6-0.6
		c0.4-0.6,0.1-0.5-0.2-0.6c-0.3-0.1-0.9,0-0.5-0.6c0.4-0.6,0.5-0.7,1.1-0.3c0.7,0.5,1.6,0.5,2.3,0c0.6,0,1,0.3,1.4,0.6
		c1.9,1.2,3,3.1,4.8,4.4c0,0.3,0.2,0.6,0.6,0.7c0.4,1.6,1.5,2.8,2,4.3c-0.8,0.8-0.2,1.2,0.5,1.5l0.1,0.6c-0.2,0.1-0.5,0.1-0.7,0.2
		c0.3,1.5-1.2,1.5-1.9,2.2c-0.6,0.7-1.3,0.2-1.5-0.6c-0.1-0.3-0.2-0.6-0.6-0.5c-0.4,0.1-0.2,0.4-0.1,0.7c0.1,0.2-0.2,1.2-0.5,1.7
		c-0.2-2.3-1.1-4.3-2.3-6.3c-0.2-0.4-0.5-0.9-1.1-0.8l0,0L136.1,59.7z"/>
	<path class="st2" d="M141.9,35.6c0.2,1,1.2,0.6,1.8,0.9c1.1,0.5,2.2,1.4,3.5,1.3c0.7,1.5,2.2,2.3,3.3,3.3c2.7,2.5,4.6,5.6,6.2,8.8
		c0.3,0.7-0.2,1.2-0.2,1.8h-0.9l-0.2-0.4l-0.2,0.4l0,0l-1.1,0.2v-0.1c0.2-0.7-0.3-0.7-0.8-0.7h0c-0.2-0.7-0.5-1.3-1.2-1.5
		c-0.4-1.7-1.5-3.2-3-4.1l-0.3-0.3c-0.1-0.1-0.2-0.2-0.3-0.1c-0.1,0.2,0.1,0.1,0.2,0.2l0.3,0.3c1,1.4,1.4,3.2,3.2,4
		c0.1,0.6,0.4,1.1,0.8,1.5c0,0.7,0.6,1.2,0.4,1.9c-0.8,0.2-0.4,0.9-0.5,1.4c-1.3-0.5-2.7-0.3-3.8-1.1c-1.1-1.6-2.5-3-4-4.2
		c-1.1-0.8-1.9-2-2.9-2.9c-2-1.9-4.4-2.8-6.9-3.6c-0.7-0.2-1.3-0.7-2-0.7c-0.2-0.7,0.3-1.1,0.7-1.4c0.4-0.3,1.5-1.2,2.3-1.8l0.7,0.1
		c0.4,0.5,1,0.2,1.5,0.3l0,0c-0.1,0.4,0.4,1.2-0.7,1.1c-1.1-0.2-1.1,0.8-1.1,1.5s0.5,1.4,1.4,1.2c0.8-0.2,2.1,0,3,0.5
		c0.3,0.2,0.6,0.4,0.9,0c0.3-0.4-0.1-1.2-0.2-1.8c-0.1-0.6,0-0.7-0.4-0.5c-1.8,0.8-1.5-0.7-1.8-1.6c1.9,0.7,3.7,1.7,5.3,2.9
		c0.5,0.4,1.1,0.8,1.8,0.7c0.2,0.7,0.8,1.2,0.8,2.1c0.9-1.2,0.8-1.4-0.8-2.2c-1.5-1.6-3.3-2.9-5.3-3.7V39l0,0c1.1-0.4,2,0,2.8,0.7
		l0.2,0.4l0.1-0.1l-0.2-0.3c0-0.6,0.7-1.4,0.1-1.6c-0.7-0.2-1.8-1.4-3-0.6c-0.5,0.3-1.5,1.3-1.9,0.1c-0.4-1.2,0.7-1.4,1.6-1.7
		L141.9,35.6z M145.1,39.9l0.2,0.1L145.1,39.9l-0.1-0.4l-0.1,0.1L145.1,39.9z"/>
	<path class="st3" d="M131.7,43.7c-0.5,1.4-1.2,2.6-2.2,3.7C129.2,45.3,130,44,131.7,43.7z"/>
	<path class="st3" d="M129.3,47.4c-0.2,0.6,0.6,0.4,0.7,1c-0.8-0.3-1.5,0.5-2.3,0.1C127.8,47.6,128.7,47.7,129.3,47.4z"/>
	<path class="st3" d="M147.9,53.2c-1.1-0.1-1.7-0.6-1.6-1.8C147.1,51.8,147.9,52.2,147.9,53.2z"/>
	<path class="st2" d="M126.8,53.9c-0.4,0-0.6-0.2-0.7-0.6C126.5,53.3,126.7,53.6,126.8,53.9z"/>
	<path class="st2" d="M127.3,54.8c-0.2-0.1-0.7,0.2-0.4-0.4L127.3,54.8z"/>
	<path class="st5" d="M132.6,43l-0.6,0.1C132.2,42.8,132.4,42.7,132.6,43z"/>
	<path class="st2" d="M126.8,54.3v-0.4C127.2,54,127,54.2,126.8,54.3z"/>
	<path class="st4" d="M135.8,17.9c-0.5,0.2-0.9,0.5-1.1,0.9c-1.3,0.4-1.4,1.9-2.3,3.2c0.2-2.5,1-4.9,2.2-7.1l0.5,0.3l0.1,0.6
		c0.2,0.6,0.7,1.1,0.7,1.8L135.8,17.9z"/>
	<path class="st1" d="M135.1,15.3l-0.6-0.3v-0.6l1.2-1.2c0,0.7,0.2,1.4,0.6,2c0.7,0.9,0.7,1.9-0.5,2.5c0.1-0.7-0.5-1.2-0.7-1.8
		c0.2-0.1,0.7,0.2,0.7-0.3C135.7,15,135.4,15.2,135.1,15.3z"/>
	<path class="st1" d="M127.7,44l0.1-0.1L127.7,44z"/>
	<path class="st1" d="M94.6,104.4l-0.7-1.4c0.7,0.2,0.9,1.2,1.4,0.8c0.5-0.3,0.4-0.9,0.4-1.4c0-1.7,0.8-2.2,2.7-1.7
		c-1.7,1.1-1.7,3.3-2.9,4.7L94.6,104.4z"/>
	<path class="st4" d="M137.1,37.2c-0.7-4.6-0.6-9.1-1-13.7c1.3,0.4,1.8,1.2,1.8,2.6c0.2,3.1,0.7,6.2,2.7,8.8L137.1,37.2z"/>
	<path class="st1" d="M74.7,86.7c0.9,0.1,0.6,0.8,0.7,1.3s-0.8,1.4-1.2,2.1c-0.4,0.7-0.5,0.6-0.9,0.4c-0.4-0.2-0.2-0.6-0.2-0.9
		C73.3,88.4,73.7,87.4,74.7,86.7z"/>
	<path class="st5" d="M102.3,42.1c0.4,0.6,0.3,0.9-0.4,1.1c-4.2,0.7-7.4,3.4-10.8,5.6c-1.3,0.9-2.8,1.2-4.3,1.7
		c0.8-1.5,2.4-1.8,3.7-2.6c3.3-2,6.7-3.8,10.2-5.4C101.2,42.2,101.7,42.1,102.3,42.1z"/>
	<path class="st5" d="M103.6,41.1l-0.7,0.4c-0.4-0.4-0.2-0.6,0.2-0.8C103.4,40.5,103.5,40.8,103.6,41.1z"/>
	<path class="st5" d="M104.1,41.7c0,0.2-0.1,0.5-0.4,0.5c-0.3,0,0-0.3,0-0.5L104.1,41.7z"/>
	<path class="st4" d="M111.3,55.1c0.1,0.4,0.2,0.9,0.4,1.3c0.7,1.5,1,3-0.4,4.4c-0.6-0.3-0.9-0.9-1-1.6c-0.5-2.6-0.8-5.2-1.5-7.7
		c-0.3-1.2-0.2-2.6-1.4-3.5c-0.1-0.1-0.1-0.4,0-0.6c0.7-1.7-0.5-3-1-4.5c-0.2-0.4-0.8-0.6-0.4-1.2c0.2-0.3,0.6-0.5,1-0.6
		c0.6,0,1,0.4,1.1,1c0,1.6,0.9,3,1.1,4.6c0.1,0.8,0.2,1.6,0.9,2.2l0.1,1.2C110.3,51.8,110.7,53.5,111.3,55.1z"/>
	<path class="st1" d="M110.1,50.1l-0.1-1.2c1.4-0.1,1.1,1.1,1.3,1.9C110.6,51,110.7,50,110.1,50.1z"/>
	<path class="st0" d="M65.5,111.8c-0.1,0.3-0.4,0.4-0.6,0.3C64.9,111.7,65.2,111.8,65.5,111.8z"/>
	<path class="st5" d="M140.7,83c3.7-1,7.4-2.3,10.8-3.9c-0.2,0.7-0.7,1.3-1.4,1.5c-1.7,0.7-3.3,1.6-5,2.4c-1.2,0.5-2.4,0.4-3.5,0.7
		C141.3,83.7,140.9,83.4,140.7,83z"/>
	<path class="st5" d="M152.5,78.6c0.6-1.1,1.9-1.1,2.8-1.5c0.3,0.4,0.7,0.7-0.2,0.9L152.5,78.6z"/>
	<path class="st5" d="M153.2,79.1C153.2,79.1,153.2,79.2,153.2,79.1l-0.2,0.1c0,0,0-0.1,0-0.1H153.2z"/>
	<path class="st5" d="M159,77.1l-0.1,0.1C158.9,77.2,158.9,77.2,159,77.1L159,77.1L159,77.1z"/>
	<path class="st1" d="M176.4,99.3c0.5,0.4,1,0.9,0.9,1.7C176.4,100.7,176.5,99.9,176.4,99.3z"/>
	<path class="st1" d="M177.3,101c0.6,0.2,0.6,0.8,0.7,1.2C177.3,102,177.3,101.6,177.3,101z"/>
	<path class="st5" d="M114.5,63.8c-0.7,0.6-1.4,0.6-1.9-0.2C113.2,63.6,113.9,63.2,114.5,63.8z"/>
	<path class="st2" d="M118.8,61.3c0,0.2-0.1,0.5-0.4,0.5c-0.4-0.1-0.2-0.2-0.2-0.4C118.1,61.3,118.5,61.3,118.8,61.3L118.8,61.3z"/>
	<path class="st2" d="M118.7,61.3c0.1-0.2,0.1-0.5,0.4-0.5c0,0,0.1,0,0.1,0.1C119.2,61.3,119,61.3,118.7,61.3L118.7,61.3z"/>
	<path class="st5" d="M175.1,93.2l-0.1-0.1h0.1L175.1,93.2L175.1,93.2z"/>
	<path class="st1" d="M152.9,65.4l-0.4-1.3c0-0.7-0.3-1.3,0.4-1.9c1.3-0.3,1.2-1.8,2.1-2.5c0.9-0.7,1.1-1.4,1.8-1.9
		c0.8,0.5,0.5,0.9,0,1.5c-1.2,1.4-2.4,2.6-3.2,4.3c1.5-0.8,2.3-2.3,3.5-3.4c2.3-2.3,4-5.2,6.1-7.7c0.6-0.7,0.5-1.4-0.5-1.8l0.3-1.4
		c0.4-0.4,0.8-0.8,1.1-1.2c2-2.8,3.4-6.1,6-8.5h1.8c-0.6,1.6-1.9,2.8-3,3.9c-1.1,1.1-1.1,2-1,3.2l0,0c-0.7,0.1-0.8,0.7-0.9,1.2
		c-0.2,0.1-0.4,0.4-0.3,0.6c-0.3,0-0.6,0.2-0.6,0.5c0,0.4,0.4,0.1,0.6,0.1c-0.6,2.1-1.9,3.8-3.1,5.6c-0.1-0.3,0.2-0.8-0.4-1.1
		c-1.4,2.1-2.6,4.3-4.3,6.3c0.8,0.7,1.1,0,1.5-0.6c0.9-1.4,1.6-2.9,2.9-4l-0.7,1.5c-0.8,1.9-2.2,3.5-2.8,5.6l0,0l-0.3,0.3l0,0
		c-0.2,0.1-0.4,0.4-0.3,0.6l0,0l-0.3,0.3l0,0l-1,0.2c-0.3-1.2,1.3-1.7,1.1-2.9c-1,0.3-1.1,1.5-2.2,1.5c-0.1-0.2-0.2-0.3-0.4,0l0,0
		c-0.5,0.1-1.1,0.1-1.1,0.7c0,0.6,0.5,0.2,0.7,0.2C155.9,64.5,154,65.6,152.9,65.4z M165.8,50.2l0.1-0.1L165.8,50.2l-0.1,0.1
		L165.8,50.2z"/>
	<path class="st4" d="M152.9,62.3c-0.7,0.5-0.3,1.2-0.4,1.9c-0.7-0.1-1.3,0.7-2.1,0.5c-0.2,0-0.4,0.4-0.7,0.1s-0.2-0.7,0-1
		c1.1-1.5,2.1-3.2,3.3-4.6c2.5-2.7,4.6-5.8,7.1-8.5c0.3-0.3,0.5-0.7,0.4-1.1h0c0.6-0.2,0.6-0.7,0.7-1.1l0.4-0.6c0.7,0,0.9-0.3,0.8-1
		h0c0.4,0,0.6-0.2,0.5-0.6v-0.1c1.5-0.5,2.2-2,3.2-3.1c1.5-1.8,2.8-3.8,4.1-5.6c0.3-0.4,0.7-1,1.2-0.6c0.5,0.4,0.1,0.9-0.2,1.4
		c-0.3,0.5-1.1,0.8-1.1,1.6c-2.6,2.4-4,5.7-6,8.5c-0.4,0.4-0.7,0.9-1.1,1.2c-0.2-0.4-0.4-0.5-0.7-0.1c-1,1.6-2.3,2.9-3.4,4.3
		c-0.6,0.7-1.1,1.4-0.9,2.4h0c-0.2,0-0.3,0.2-0.2,0.3c0,0,0,0,0,0l-1,1.5c-0.8,0.5-1,1.5-1.8,1.9C153.5,60,152.8,60.8,152.9,62.3z"
		/>
	<path class="st1" d="M161.5,47.7l-0.4,0.6c-0.6,0.2-0.7,0.7-0.7,1.1h0c-0.7-0.1-0.8,1-1.5,1c1.1-2.4,2.5-4.6,4.6-6.2
		c0.1,0.7-0.7,1.1-0.7,1.8V46c-0.3,0-0.5,0.3-0.5,0.6c0,0,0,0,0,0h0C162,46.8,161.6,47.2,161.5,47.7z"/>
	<path class="st1" d="M164.1,43.7c-0.3-0.8,0-1.3,1.1-1.5C165.1,42.9,164.6,43.2,164.1,43.7z"/>
	<path class="st3" d="M170.2,32.8l0.1,0.2l-0.2-0.1L170.2,32.8z"/>
	<path class="st2" d="M109.1,66.9c0.2,0.1,0.2,0.2,0,0.3V66.9z"/>
	<path class="st5" d="M70.4,93.5l-0.1,0.4C70,93.7,70.3,93.7,70.4,93.5L70.4,93.5z"/>
	<path class="st1" d="M149.8,71.3c-0.4-0.8-1.2-0.8-2-1c-0.2-0.1-0.4-0.1-0.2-0.4s0.2-0.2,0.4-0.2c1.8,0.5,3.6,0.5,5.2-0.6
		c-1.2,0.1-2.3,0-3.5,0s-1.1-0.5-0.9-1.3c0.4-0.2,0.4-0.8,0.9-0.9c0.1,0.5-0.2,1.3,0.7,1.1c0.6-0.2,1.2-0.1,1.8,0
		c0.5,0.2,0.9-0.1,0.9-0.7s0.5-1.1,1-0.7c1,0.8,1.3-0.1,1.8-0.5c0.5-0.4,1-1.3,1.4-0.6c0.5,0.8,0.8,0.4,1-0.1c0.2-0.5,0.7-1,0.7-1.7
		l0,0l0.3-0.3l0,0c0.3-0.1,0.3-0.3,0.3-0.6l0,0l0.3-0.3l0,0c0.7,0.6,1.2,0.6,1.6-0.4c0.3-0.7,0.7-1.4,1.3-1.9c0.9-0.8,1-2.3,2.2-2.8
		c0.7,0.9,0.2,1.7-0.5,2.1c-1.3,0.8-1.6,2.1-2.1,3.3c-0.6,1.2-1.5,1.7-1.9,2.8c-0.4-0.1-0.7,0.2-0.9,0.5l-1.9,2.9l-0.3,0.1l-0.9-0.1
		c0.1-0.5,0.8-1,0.4-1.3s-1.1,0.2-1.6,0.4c-1.2,0.4-1.2,1.8-2.3,2.1S151,71.3,149.8,71.3z"/>
	<path class="st3" d="M165.1,57.5c-1.3,0.5-1.3,1.9-2.2,2.8c-0.6,0.5-1,1.2-1.3,1.9c-0.4,1-0.9,1-1.6,0.4c0.6-2,2-3.7,2.8-5.6
		l0.7-1.5l0,0c0.2-0.1,0.3-0.4,0.3-0.6l0,0c1.2-1.8,2.5-3.4,3.1-5.6l0,0c0.3-0.1,0.3-0.3,0.3-0.6l0,0c0.8,0,1-0.6,0.9-1.2l0,0
		c0.6,0,0.7-0.5,0.6-0.9l0,0l0.3-0.3h0.3c0.2,0.1,0.3,0.4,0.3,0.6c-0.1,0.1-0.4,0.2-0.1,0.4l0.1-0.4c0.4-0.1,0.7-1.2,1.2-0.1
		l-0.6,1.7c-0.6,0.7-1,1.5-1.2,2.3c-0.8,0.6-1,1.6-1.4,2.5h-0.2c-0.7,0.2-0.8,0.7-0.8,1.3l-0.1,0.3c-0.4,0.1-0.6,0.5-0.6,1
		L165.1,57.5z"/>
	<path class="st4" d="M160.6,65.8c0.4-1.1,1.4-1.8,1.9-2.8l0.6,0.5l-0.7,1.5l-1.2,1.8l-0.1,0.3C160.2,66.9,160.7,66.2,160.6,65.8z"
		/>
	<path class="st4" d="M167.5,53.2c0.4-0.8,0.6-1.8,1.4-2.5c0.2,0.1,1.1,0,0.7,0.4c-1,1.3-1,3-2,4.2C166.8,54.7,168.5,54,167.5,53.2z
		"/>
	<path class="st1" d="M166.5,54.5c0-0.6,0.2-1.1,0.8-1.3C167.3,53.8,167.2,54.3,166.5,54.5z"/>
	<path class="st1" d="M165.9,55.8c-0.1-0.4,0.2-0.8,0.6-1C166.5,55.2,166.4,55.6,165.9,55.8z"/>
	<path class="st1" d="M97.4,106.5c-0.1-1.3,0.5-2.1,1.3-2.8c0.3-0.3,0.9-0.3,1.2,0c0,0,0,0,0.1,0.1c0.5,0.4,0.2,0.9-0.2,1.2
		C99.3,105.3,98.3,106,97.4,106.5z"/>
	<path class="st2" d="M169.8,27.5l-0.3-0.3c0-0.9-0.8-1.3-1.2-1.9c-0.5-0.6-0.8-1.6-0.6-2.6l1.2,1c-0.5,0.5-0.1,1,0.3,1.1
		c0.4,0.1,0.2-0.5,0.3-0.7h0.3c0.2,0.3,0.7,0.5,0.7,1c0.7,0.9,0.1,2.1,0.7,3.2C170.5,28.3,170.4,27.5,169.8,27.5z"/>
	<path class="st5" d="M185.6,107.8l-0.2-0.3L185.6,107.8z"/>
	<path class="st2" d="M170.7,46.7c-0.5-1.2-0.8,0-1.2,0.1l0,0c0-0.2-0.1-0.5-0.3-0.6l0.1-0.6c0.9-0.9,1.7-1.8,2.4-2.9
		c0.6,0.3,0.5,0.8,0.6,1.3l0,0c-0.4,0.1-0.6,0.5-0.6,0.9l-0.5,1.3L170.7,46.7z"/>
	<path class="st1" d="M168.6,46.4c0,0.5,0,0.9-0.6,0.9v-0.6l0,0L168.6,46.4z"/>
	<path class="st1" d="M169.4,45.5l-0.1,0.6h-0.3C168.9,45.8,169,45.6,169.4,45.5z"/>
	<path class="st1" d="M168.9,46.1l-0.3,0.3L168.9,46.1z"/>
	<path class="st1" d="M156.9,75.3l-0.9-0.4l-0.7-0.6c0-0.1,0-0.1,0-0.2c2.2,0.2,4.3-0.7,6.5-0.6l0.9-0.3c0,0.6,0.2,1.2-0.9,1
		c-1.1-0.2-2.7,0.4-4.1,0.9L156.9,75.3z"/>
	<path class="st4" d="M157.5,69.2l0.3-0.1c0.3,0,0.8-0.1,0.7,0.5c0,1.1-0.9,1.9-2.1,2c-0.5,0-0.9,0.6-1.5,0.7
		c-0.2-0.8,0.3-1.3,0.8-1.8C156.2,69.9,157.3,70.1,157.5,69.2z"/>
	<path class="st1" d="M159,72.2c0,0.4,0.3,0.9-0.5,1c-0.8,0.1-1.6,0.3-2.6,0C156.9,72.4,158,72.6,159,72.2L159,72.2z"/>
	<path class="st1" d="M167.6,21.3c-0.2,0.3-0.3,0.6-0.3,1l-1.3-0.4C166.9,20.4,167,20.4,167.6,21.3z"/>
	<path class="st2" d="M164.8,23.9c-0.1,0-0.2,0.1-0.2,0.1c-0.1,0-0.1-0.2-0.1-0.2c-0.1-0.1,0.2-0.1,0.2-0.1
		C164.7,23.7,164.7,23.8,164.8,23.9z"/>
	<path class="st5" d="M166.7,71.2c-0.3,1-1.2,0.6-1.8,0.7c0-0.2-0.8-0.6,0-0.6L166.7,71.2z"/>
	<path class="st5" d="M162.7,72.5l-0.1-0.2L162.7,72.5L162.7,72.5z"/>
	<polygon class="st0" points="170.7,67.6 170.7,67.7 170.6,67.7 	"/>
	<polygon class="st0" points="170.3,68.2 170.4,68.3 170.3,68.3 	"/>
	<path class="st1" d="M141.3,39.4c2,0.8,3.8,2.1,5.3,3.7l0,0c-0.7,0.1-1.3-0.3-1.8-0.7c-1.6-1.3-3.4-2.2-5.3-2.9l-1-0.3l0,0
		C139.6,38.2,140.4,39.3,141.3,39.4z"/>
	<path class="st4" d="M136.4,38.6c0-0.3,0.2-0.6,0.5-0.6c0,0,0,0,0.1,0l0.1,0.7L136.4,38.6z"/>
	<path class="st2" d="M141.3,39l-0.1-0.1L141.3,39z"/>
	<path class="st1" d="M137.6,83.4c-0.1,0.7-0.7,1.1-1.2,1.5c-0.2-1.1,0.3-1.8,1.3-2.4L137.6,83.4z"/>
	<path class="st5" d="M103.8,145.6c-0.9-0.3-0.1-0.8-0.2-1.2c0.6,0.3,1.1,0.6,1.8,0.2c0.2,0.6,0.3,1.2-0.7,0.9
		C104.3,145.4,104,145.2,103.8,145.6z"/>
	<path class="st3" d="M93.4,82.4c0,0.1,0,0.2-0.1,0.3l-0.1-0.2L93.4,82.4z"/>
	<path class="st1" d="M96.4,96.3L96,96.2C96.2,95.9,96.3,96.2,96.4,96.3L96.4,96.3z"/>
	<path class="st3" d="M171.7,44.9c0-0.4,0.2-0.8,0.6-0.9C172.4,44.4,172.3,44.8,171.7,44.9z"/>
	<path class="st1" d="M171.7,21.4c0,0.2,0,0.5-0.3,0.5c0,0-0.1,0-0.1-0.1C171.2,21.4,171.5,21.4,171.7,21.4L171.7,21.4z"/>
	<path class="st1" d="M170.8,22.6l-0.2,0.2l-0.1-0.1C170.5,22.7,170.8,22.6,170.8,22.6z"/>
	<path class="st1" d="M170.8,22.6l0.1-0.1L170.8,22.6z"/>
	<path class="st2" d="M155.6,38.1l-0.3-0.3c-0.5-1.2-1.5-2.1-2.8-2.5l-0.4-0.8c0.5-0.1,1.1,0,0.7-0.8c-0.3-0.5-0.4-1-0.3-1.6
		c0.4-0.2,0.9,0.1,1.1-0.6c-0.4-0.2-1-0.2-1.2-0.7c-0.1-1-0.6-0.7-1.2-0.4s-0.9,0.8-1.5,0.7c-0.8-0.7-0.6-1.3,0.3-1.5
		c0.9-0.2,1.6-0.7,2.5-0.1c0.9,0,1.5,1,2.4,1.1c0.4,0.7,1.1,1.1,1.9,1.2c0.1,0.7,0.7,0.9,1.2,0.9c0.2,1.1,0.8,2,1.9,2.5
		c-0.1,0.7,0.5,0.9,0.9,1.2c0,0.3,0.3,0.6,0.6,0.7l0.3,0.6l0.3,0.3l0.2,0.2c0.5,1.3,1.3,2.5,1.1,4c-0.9,0.3-1.3,1.1-2,1.7
		s-0.2,0.3,0,0.4c0.1,0.6,0.1,0.7-0.8,0.7c-0.7-1.2-0.9-2.9-2.5-3.4c-0.2-1.1-0.7-2-1.9-2.5C156.2,38.5,156.2,38.1,155.6,38.1z"/>
	<path class="st1" d="M152.4,30.7c0.2,0.5,0.8,0.5,1.2,0.7c-0.2,0.7-0.8,0.4-1.1,0.6c-0.8-1.1-1.4,0.7-2.1,0.2l-0.3-0.1l-0.3-1.1
		c0.7,0.1,1-0.4,1.5-0.7C151.5,30.8,152,30.6,152.4,30.7z"/>
	<path class="st2" d="M150.1,32.1l0.3,0.1l-0.1,0.7c-0.8-0.1-1.6-0.4-2.2-0.9c0.3-0.4,0.6-0.9,1.1-0.2
		C149.4,32,149.7,32.2,150.1,32.1z"/>
	<path class="st1" d="M92,106.6v1.2C91.7,107.3,91.7,106.9,92,106.6z"/>
	<path class="st3" d="M150.3,32.8l0.1-0.7c0.7,0.5,1.3-1.3,2.1-0.2c-0.1,0.5,0.1,1.1,0.3,1.6c0.4,0.8-0.2,0.7-0.7,0.8h0
		c0-0.5-0.1-0.8-0.7-0.3l-0.9-0.9L150.3,32.8L150.3,32.8z"/>
	<path class="st2" d="M151.5,34.1c0.5-0.5,0.6-0.2,0.7,0.3C151.9,34.4,151.7,34.3,151.5,34.1z"/>
	<path class="st2" d="M150.3,32.8l0.3,0.4L150.3,32.8z"/>
	<path class="st1" d="M164.3,80.2l-0.2-0.3C164.4,79.8,164.2,80.1,164.3,80.2L164.3,80.2z"/>
	<path class="st5" d="M184.7,106.9c0.2,0,0.5,0,0.6,0.3C185.1,107.2,184.8,107.1,184.7,106.9z"/>
	<path class="st3" d="M169.5,24.1c-0.1,0.3,0.1,0.8-0.3,0.7s-0.8-0.5-0.3-1.1L169.5,24.1z"/>
	<path class="st3" d="M134.5,71.3l0.1,0.6c0,0.1,0,0.2,0,0.3c-0.6-0.2-1.1,0.4-1.6,0.1s-1,0.4-0.8,0.7c1,1.4,0,2-1,2.7
		c-1.3-2-1.3-2.4,0.2-4.4c0.6-0.7,0.5-1.7-0.2-2c-0.7-0.4-1-1.6-2.1-1.2c-0.2-0.9-0.7-1.8,0-2.7c1.5,1,3.1,2,3.3,4.1l-0.1,0.1
		l0.1-0.1h0.9C133.5,70.1,133.3,71.2,134.5,71.3z"/>
	<path class="st1" d="M131.2,75.6c1-0.7,2-1.2,1-2.7c-0.2-0.3-0.3-1.4,0.8-0.7s1.1-0.2,1.6-0.1c0,0.2,0.2,0.4,0.1,0.4
		c-1.4,1.4-1.8,3.5-3,5c-0.2,0.3-0.5,0.6-0.9,0.3s0-0.5,0-0.7c0.7-1.1-0.5-0.9-0.9-1.3C130.2,75.3,130.9,76.2,131.2,75.6z"/>
	<path class="st1" d="M113.2,65l0.1,0.1L113.2,65z"/>
	<path class="st5" d="M157.5,69.2c-0.2,0.9-1.1,0.8-1.7,1.2c-0.3-0.8,0.3-1.1,0.8-1.4L157.5,69.2z"/>
	<path class="st1" d="M144.8,63.5l-0.1-0.6c0.1-0.6,0.1-1.2-0.5-1.5c-0.5-1.5-1.6-2.7-2-4.3l0.1-0.1c1.1,0.7,1.3,2,2,3
		c0.3,0.5,0.5,1.1,1,1.5c-0.2,0.7,0.2,1.4,0.3,2.1L144.8,63.5L144.8,63.5z"/>
	<path class="st3" d="M159,63.8c0,0.7-0.4,1.1-0.7,1.7c-0.3,0.6-0.4,1.2-1,0.1c-0.7-1.1-1,0.2-1.4,0.6s-0.8,1.4-1.8,0.5
		c-0.4-0.4-1,0-1,0.7s-0.4,0.8-0.9,0.7c-0.6-0.2-1.2-0.2-1.8,0c-1,0.2-0.7-0.7-0.7-1.1l1.2-0.1c0.2,0.3,0.5,0.5,0.7,0.2
		s-0.3-0.5-0.3-0.8c0.7,0,1.2-0.4,1.6-0.9c1.1,0.2,3-0.9,3.3-1.9c0.1-0.3,0.4-0.5,0.3-0.9h0.4c1.1,0.1,1.3-1.2,2.2-1.5
		c0.2,1.2-1.4,1.7-1.1,2.9L159,63.8z"/>
	<path class="st1" d="M151.3,66.3c0,0.3,0.8,0.3,0.3,0.8c-0.4,0.4-0.5,0.1-0.7-0.2C150.9,66.6,151.1,66.4,151.3,66.3z"/>
	<path class="st1" d="M128.3,92c0,0.3,0.1,0.7-0.3,0.9C128,92.5,127.9,92.2,128.3,92z"/>
	<path class="st1" d="M148.5,66.9c-0.3,0-0.6-0.2-0.5-0.5c0.1-0.4,0.2-0.2,0.3-0.2S148.5,66.6,148.5,66.9L148.5,66.9z"/>
	<path class="st1" d="M147.6,71.8h-0.3c0-0.3-0.2-0.7,0.3-0.7c0.5,0,0.3,0.3,0.3,0.6c0.1,0.2,0,0.1,0,0.1L147.6,71.8z"/>
	<path class="st5" d="M147.6,71.8l0.3-0.1c0.1,0.3,0,0.6-0.3,0.7L147.6,71.8z"/>
	<path class="st4" d="M91.2,89.5l0.1,0.2l-0.1,0.1L91.2,89.5z"/>
	<path class="st3" d="M99.4,85l0.5-0.5c0.7,0,1.4-0.1,1.1,1c-0.1,0.3,0.1,0.8,0.2,1.1l-0.3,0.4c-0.3,0.1-0.3,0.2,0,0.3v0.3l-3.1,1
		c-0.4-0.7-0.9,0.1-1.4-0.2c0.1-0.9,1.3-0.5,1.5-1.3l1.1-0.5c0.4,0.1,0.7,0.1,0.9-0.3s-0.1-0.4-0.3-0.6V85z"/>
	<path class="st4" d="M99.4,85c0,0.2,0,0.5,0,0.7c-0.5,0.1-0.5,0.5-0.6,0.9l-1.1,0.5c-0.3-0.2-0.3-0.6-0.4-0.9
		c0.6-0.3,0.7-0.8,0.9-1.4l0,0L99.4,85z"/>
	<path class="st1" d="M98.3,84.9c-0.2,0.5-0.3,1.1-0.9,1.4C97.5,85.6,97.5,85,98.3,84.9z"/>
	<path class="st3" d="M93.3,86.1L93,86.7l-0.6,0.1C92.4,86.2,92.8,86.1,93.3,86.1L93.3,86.1z"/>
	<path class="st1" d="M102.9,87.4c0.9,0,0.7,0.7,0.9,1.2c-0.3,0.7-0.6,1.5-0.9,2.2c-0.4,0.7-1.5,1-2.5,0.8c-0.3-0.1-0.4-0.3-0.4-0.6
		c0-0.2,0.2-0.5,0.4-0.4c2.5,1,1.5-1.3,2-2.2c0-0.1,0-0.1,0-0.2C102.9,88.2,102.9,87.8,102.9,87.4z"/>
	<path class="st1" d="M101.7,86.8c0.4-0.2,0.6,0.1,0.8,0.4C102,87.4,101.8,87.2,101.7,86.8z"/>
	<path class="st1" d="M100.8,87.3c-0.2-0.1-0.2-0.2,0-0.3L100.8,87.3z"/>
	<path class="st1" d="M136.1,59.7v0.4C135.8,59.9,135.9,59.8,136.1,59.7z"/>
	<path class="st3" d="M110.1,88.3c-0.8,0.1-1.4,0.6-1.8,1.2c-0.4-0.4-0.3-0.7-0.1-0.9c0.8-0.7,1.1-1.7,1-2.8c0-0.3,0-0.8,0.5-0.8
		c0.5,0,0.4,0.5,0.4,0.8C110,86.6,110,87.4,110.1,88.3L110.1,88.3z"/>
	<path class="st3" d="M93.6,85.8c0-0.3,0.1-0.6,0.4-0.8c0.2-0.2,0.4-0.5,0.8-0.2c0.1,0.1,0.2,0.2,0.2,0.4c0.1,0.5-0.4,0.4-0.6,0.5
		C94.2,85.7,93.9,85.7,93.6,85.8L93.6,85.8z"/>
	<path class="st3" d="M93.3,86.1l0.3-0.3h0L93.3,86.1L93.3,86.1z"/>
	<path class="st5" d="M153.4,52.9c0.2-0.7-0.4-1.2-0.4-1.9h0.5c0.1,0.4,0.4,0.7,0.8,0.7v0.1c0,0.9,0.6,1.8,0.2,2.8
		C153.7,54.3,154,53.4,153.4,52.9z"/>
	<path class="st1" d="M161.4,44.2c-0.2-0.1-0.3-0.2,0-0.4L161.4,44.2z"/>
	<path class="st2" d="M155.6,51.7c-0.1,0.2-0.2,0.2-0.3,0H155.6z"/>
	<path class="st2" d="M156.5,28.5l0.1-0.1L156.5,28.5z"/>
	<path class="st2" d="M147.9,35.5L147.9,35.5l0-0.2l0.1,0.1L147.9,35.5z"/>
	<path class="st3" d="M138.3,44.9c0.4,0.8-0.4,0.6-0.7,0.7c0.3,0.6,1.1,0.7,1.2,1.2c0,0.6-1.2,0.9-0.8,1.8c-0.2,0.1-0.6,0.2-0.7,0.2
		c-1.2-0.6-2.4-0.3-3.6-0.2c-1.2,0.1-1.4-0.6-2.2-0.8c0.4-0.5,1.8,0.2,1-1.1c-0.2-0.4,0.4-1.1,0.7-1.6s1-0.1,1.5,0s0.4,0.2,0.6,0.2
		c1.7-0.3,1.3,0.4,0.8,1.4s0.3,0.5,0.7,0.6s0,0.5,0.4,0.5c0,0,0.1,0,0.1-0.1c0-0.3-0.2-0.3-0.5-0.4C136.6,46,136.3,44.7,138.3,44.9
		L138.3,44.9z"/>
	<path class="st3" d="M128.6,51.4c-0.4-0.1-1,0.5-1.1-0.2c-0.2-0.7,0.4-0.9,0.9-0.9c0.5-0.1,1-0.3,1.4-0.7c0.9-0.8,2-1.4,3.2-0.3
		c0.5,0.9,0.9,1.8,2.1,1.5c0,0.2,0.1,0.5,0.3,0.6l0,0c-0.7,0.5-1.6,0.5-2.3,0c-0.6-0.4-0.9,0-1.1,0.3c-0.3,0.3,0.2,0.5,0.5,0.6
		c0.3,0.1,0.4,0.3,0.2,0.6c-0.2,0.3-1,0.8-1.6,0.6S129.1,52.5,128.6,51.4L128.6,51.4L128.6,51.4z"/>
	<path class="st1" d="M135.1,50.8c-1.2,0.2-1.7-0.7-2.1-1.5c1.6,0.1,2.8,1.3,4,2.1c1.2,0.8,3.2,2.2,4.3,3.9c0.3,0.3,0.4,0.7,0.4,1.1
		l0,0c-1.8-1.3-2.9-3.2-4.8-4.4c-0.4-0.3-0.8-0.7-1.4-0.6l0,0C135.5,51.1,135.4,50.8,135.1,50.8C135.1,50.8,135.1,50.8,135.1,50.8z"
		/>
	<path class="st3" d="M144.2,61.3c0.6,0.4,0.6,1,0.5,1.5C144,62.5,143.4,62.2,144.2,61.3z"/>
	<path class="st1" d="M141.7,56.4c0.3,0.1,0.7,0.2,0.7,0.6l-0.1,0.1C141.9,56.9,141.7,56.7,141.7,56.4L141.7,56.4z"/>
	<path class="st3" d="M138.6,39l1,0.3c0.2,0.9,0,2.4,1.8,1.6c0.4-0.2,0.4,0.2,0.4,0.5c0.1,0.3,0.8,1.1,0.2,1.8
		c-0.6,0.7-0.6,0.2-0.9,0c-1-0.4-1.9-0.7-3-0.5s-1.4-0.3-1.4-1.2c0-0.9-0.1-1.7,1.1-1.5C139,40.3,138.4,39.4,138.6,39z"/>
	<path class="st1" d="M149.2,45.4c1.5,0.9,2.6,2.4,3,4.1h0c-1.8-0.7-2.2-2.6-3.2-4L149.2,45.4z"/>
	<path class="st1" d="M146.6,43c1.6,0.8,1.7,1,0.8,2.2C147.4,44.3,146.7,43.8,146.6,43L146.6,43z"/>
	<path class="st1" d="M153.4,51.1H153c-0.4-0.4-0.7-1-0.8-1.5h0C152.9,49.8,153.2,50.4,153.4,51.1z"/>
	<path class="st3" d="M154.3,51.8c-0.4,0-0.7-0.4-0.8-0.7C153.9,51.1,154.4,51.1,154.3,51.8z"/>
	<path class="st3" d="M144.2,39.6l0.2,0.3l-0.1,0.1L144.2,39.6L144.2,39.6z"/>
	<path class="st3" d="M145.1,39.9l-0.2-0.3l0.1-0.1L145.1,39.9z"/>
	<path class="st3" d="M155.6,51.7h-0.3l0.2-0.4L155.6,51.7z"/>
	<path class="st1" d="M149,45.6l-0.3-0.3l0.2-0.2l0.3,0.3L149,45.6z"/>
	<path class="st1" d="M148.7,45.3c-0.1-0.1-0.2-0.2-0.2-0.2s0.2,0,0.3,0.1L148.7,45.3z"/>
	<path class="st3" d="M145.1,39.9l0.1,0.2L145.1,39.9z"/>
	<path class="st5" d="M135.1,15.3c0.3-0.1,0.7-0.1,0.7,0.2c0.1,0.3-0.4,0.2-0.7,0.3L135.1,15.3z"/>
	<path class="st3" d="M156.8,57.9l1-1.5l0.2-0.3h0c1.3-1.2,2.8-2.3,3.5-4.1c0.2-0.5,0.5-1,1.1-1.2c1,0.4,1.1,1,0.5,1.8
		c-2.1,2.5-3.8,5.4-6.1,7.7c-1.1,1.1-2,2.6-3.5,3.4c0.8-1.7,2-2.9,3.2-4.3C157.3,58.8,157.6,58.4,156.8,57.9z"/>
	<path class="st5" d="M162.7,50.8c-0.6,0.2-0.9,0.7-1.1,1.2c-0.7,1.8-2.2,2.9-3.5,4.1c-0.2-1,0.3-1.7,0.9-2.4
		c1.1-1.4,2.4-2.8,3.4-4.3c0.2-0.4,0.5-0.3,0.7,0.1L162.7,50.8z"/>
	<path class="st3" d="M163.3,55.4c-1.3,1.1-2.1,2.6-2.9,4c-0.3,0.6-0.6,1.3-1.5,0.6c1.6-2,2.9-4.2,4.3-6.3c0.6,0.3,0.3,0.8,0.4,1.1
		l0,0C163.4,54.9,163.3,55.2,163.3,55.4L163.3,55.4z"/>
	<path class="st5" d="M152.9,62.3c-0.1-1.5,0.7-2.3,2.1-2.5C154.1,60.5,154.2,62,152.9,62.3z"/>
	<path class="st5" d="M156.5,62.6c0.1,0.4-0.2,0.6-0.3,0.9s-0.7,0.1-0.7-0.2S156.1,62.6,156.5,62.6z"/>
	<path class="st3" d="M168,46.8v0.6l0,0l-0.9,0.6l0,0C167.2,47.4,167.3,46.8,168,46.8z"/>
	<path class="st3" d="M166.8,49.2c-0.2,0-0.5,0.3-0.6-0.1c-0.1-0.4,0.2-0.5,0.6-0.5l0,0L166.8,49.2L166.8,49.2z"/>
	<path class="st3" d="M166.8,48.6c0-0.3,0.1-0.5,0.3-0.6l0,0v0.6H166.8z"/>
	<path class="st3" d="M159.6,62.9c0,0.3,0,0.5-0.3,0.6C159.2,63.2,159.4,63,159.6,62.9z"/>
	<path class="st3" d="M165.8,50.2l0.1-0.1L165.8,50.2z"/>
	<path class="st3" d="M159.9,62.6l-0.3,0.3L159.9,62.6z"/>
	<path class="st5" d="M156.9,62.6h-0.4C156.7,62.2,156.8,62.4,156.9,62.6z"/>
	<path class="st3" d="M165.8,50.2l-0.1,0.1L165.8,50.2z"/>
	<path class="st3" d="M159.3,63.5l-0.3,0.3L159.3,63.5z"/>
	<path class="st5" d="M160.6,49.5c0-0.5,0.1-1,0.7-1.1C161.2,48.8,161.1,49.3,160.6,49.5z"/>
	<path class="st5" d="M161.5,47.7c0.1-0.4,0.4-0.8,0.8-1C162.5,47.4,162.2,47.7,161.5,47.7z"/>
	<path class="st5" d="M162.4,46.7c0-0.3,0.2-0.6,0.5-0.6c0,0,0,0,0,0C163,46.5,162.8,46.7,162.4,46.7z"/>
	<path class="st5" d="M158.1,56.1l-0.2,0.3C157.8,56.2,157.9,56.1,158.1,56.1C158.1,56.1,158.1,56.1,158.1,56.1z"/>
	<path class="st1" d="M167.1,48.6V48l0.9-0.6C168,48.1,167.9,48.6,167.1,48.6z"/>
	<path class="st1" d="M163.3,55.4c0-0.3,0.1-0.5,0.3-0.6C163.7,55.1,163.5,55.3,163.3,55.4z"/>
	<path class="st1" d="M166.8,48.6h0.3c0,0.3,0,0.5-0.3,0.6V48.6z"/>
	<path class="st2" d="M169.5,46.8l-0.1,0.4C169.2,46.9,169.4,46.9,169.5,46.8L169.5,46.8z"/>
	<path class="st3" d="M152.4,30.7c-0.4-0.1-0.9,0.1-1.2-0.4C151.8,30,152.4,29.7,152.4,30.7z"/>
	<path class="st1" d="M132.4,69.4l-0.1,0.1L132.4,69.4z"/>
	<path class="st1" d="M98.8,86.6c0.1-0.3,0.1-0.8,0.6-0.9c0.5-0.1,0.5,0.2,0.3,0.6C99.5,86.6,99.2,86.7,98.8,86.6z"/>
	<path class="st2" d="M136.7,47.1c0.2,0,0.5,0,0.5,0.4c0,0,0,0.1-0.1,0.1C136.7,47.6,136.7,47.3,136.7,47.1z"/>
	<path class="st2" d="M135.1,50.8c0.3,0.1,0.4,0.3,0.3,0.6c0,0,0,0,0,0C135.2,51.3,135.2,51,135.1,50.8z"/>
	<path class="st2" d="M128.6,51.4l0.1-0.1L128.6,51.4z"/>
</g>
</svg>
