<?xml version="1.0" encoding="utf-8"?>
<!-- Generator: Adobe Illustrator 21.0.2, SVG Export Plug-In . SVG Version: 6.00 Build 0)  -->
<svg version="1.1" id="Layer_1" xmlns="http://www.w3.org/2000/svg" xmlns:xlink="http://www.w3.org/1999/xlink" x="0px" y="0px"
	 viewBox="0 0 250 190.3" style="enable-background:new 0 0 250 190.3;" xml:space="preserve">
<style type="text/css">
	.st0{fill:#FEFEFD;}
	.st1{fill:#A27C4D;}
	.st2{fill:#583519;}
	.st3{fill:#7B542B;}
	.st4{fill:#ECC48E;}
	.st5{fill:#BE9C6D;}
</style>
<title>Artboard 1</title>
<g>
	<path class="st0" d="M213.3,72.2l0.2-0.2l0.3-0.2l0.3-0.4l1.9,0.2c-0.1-1.5-1.8-0.9-2.2-1.9c-0.4-1-1.2-0.7-2.1-0.2
		c-2.4,1.2-4.1,3.5-6.9,4.2c-1.2,0.3-2.8,0.8-3.8,1.9c-0.6,0-1.4,0.6-1.5-0.6c1.4-1.1,1.1-3.7,3.5-3.9l-0.1-0.8l0.4-2l2-4.7
		c0.6-0.6,0.5-1.7,1.4-2.1c0.5,0.4,0.5,1.2,1.5,1.7c0-3.6-0.1-7.3,3.1-9.8l0.9,1.9c0.2-3.6,0.9-6.9,2.7-9.9c0.5-0.4,0.5-2.2,1.9-0.7
		c0.4,0.4,0.3-0.5,0.4-0.9c0.9-3.1,1.6-6.2,2.9-9.2c0.3-0.5,0-1-0.6-1.2c0.7-2.4-1.6-3.3-2.7-4.7c-0.4-1-1.3-1.2-2.2-1
		c-0.9,0.1-1.2-0.4-0.9-1.3c0.4-0.9,1.5-2.6,0.8-4.1l0.1-0.5l1.3-1.4c4.3-3.5,7.9-7.5,8.1-13.6c0.5-1,0.4-2.2-0.2-3.1l-0.7,3.1
		c-0.7,2.2-1.3,4.6-2.7,6.5c-0.7,0.4-1.4,0.8-2.1,1.2c-1,0.4-1.6,1.7-2.9,1.2c0.5-1.4,1.4-2.8,0.3-4.3c-0.4-0.4-0.9-0.3-1.3-0.2
		c-0.5,0.1-1.1,0.1-1.6,0.3l-3.4,1.1v-0.7c0.5-2.2,2.3-3.6,3.4-5.5l3.8-3.6c-1.9,0.8-3.8,1.6-5.1,3.2c-2.4,1.8-4.6,3.7-5.7,6.6
		c-0.6,0.5-1.3,0.4-2,0.4c-0.7,0-2.5,0.2-3.4,1.2c-1.1-0.2-2.2-0.1-3.1,0.8l-1.1,0.6l-3.1,1.8c-0.7,0.9-2.2,0.7-2.8,1.8
		c-0.9,0.4-1.4,1.2-2.3,1.6c-2.2,0.9-4.2,2.2-5.8,3.9c-0.7,0.2-1.5,0.4-1.9,1.2l0,0l-0.5,0.3c-0.7,0.4-1.3,0.9-1.8,1.6
		c-0.7-0.2-0.9,0.7-1.5,0.7c-0.1-0.9-0.1-1.8-0.2-2.7c-0.3-3-0.3-3,2.5-2.7l0.1,0.1l-0.1,0c-0.3-0.9-1.1-1-1.7-1.4
		c-0.6-0.4-1.2-0.7-1.2-1.4c-0.2-1.9-0.3-3.9-0.5-5.8c0.9-0.1,1.6,0.6,3,0.1c-2.9-0.8-3.7-2.5-3.6-4.9c0-0.3,0-0.5-0.1-0.8
		c-0.5-1.8-0.1-2.7,2.2-1.8c-0.9-1.2-2.7-1.3-2.8-2.4c-0.3-2.8-2.1-3.4-4.4-3.5c-0.1-0.4-0.4-0.6-0.8-0.5c0,0,0,0-0.1,0
		c-1.5-0.6-3.1-0.8-4.7-0.7c-1.4,0.1-2.4,0.8-2.4,2.5c-0.2,0.6-0.4,1.2-0.5,1.8c-0.7,7.2-1.5,14.4-2.8,21.5c0,0.1,0,0.3,0,0.4
		c-0.4,0.3-0.4,0.7-0.3,1.2c-0.7,2.7-1.6,5.4-2.1,8.2c-0.9,4.5-2,8.9-1.7,13.5l-0.1,0.5l-0.2,0.1h0.1c-0.2,0.9-1.2,1.2-1.6,1.9
		c-0.7,0.1-1.3,0.6-1.6,1.2c-0.5,0.2-1,0.6-1.2,1.1l-0.4,0.3l-0.4,0.4l-0.3,0.3c-0.2,0-0.3,0.2-0.3,0.4c0,0,0,0,0,0l-0.8,0.9
		c-0.9,0.1-1,1-1.6,1.5s-0.7,0.8-1.1,1.2s-1,0.3-1.4-0.3l-2.3-6.2c-1.9-5.3-3.4-10.8-4.9-16.2c-0.4-1.4-1-2.6-2.8-2.1
		c-0.3-0.3-0.8-0.4-1.2-0.2h-0.7c-1.8-0.4-3.8,0-5.3,1c-4.6,2.9-9.3,5.6-14,8.3c-1,0.6-2.5,0.4-3,1.9l-0.2,0.1c-2,1-3.9,2.4-6,3
		c-2.1,0.5-2.4,1.4-3.6,2.2c-0.3,0.2-0.4,0.6-1.1,0.3c-2.1-1.1-4.2-2-6.4-2.9c-0.7-0.3-1.5-0.9-2.4-0.7l-0.4-0.2L89,46.8h0
		c-0.7-1.4-2.2-1.5-3.4-1.9c-0.2,0-0.4,0.1-0.5,0.3l-0.1-0.1c-1.1-0.7-1.4,0.3-2.4,1c1.5-0.2,2.5-0.1,2.8,1.2
		c0.1,0.3,0.7,0.5,1.1,0.7c0.4,0.2,2.2,0.4,2,2.1c0,0.4,0.8,0.8,1.1,0.6c1.1-0.5,1.4,0.2,1.7,0.9s0.7,0.7,1.2,0.9
		c2.6,0.9,5.3,1.2,8.1,1.7c1.3,0.3,2.6,0.1,3.8-0.5c0.8-2.2,3.4-2.1,4.8-3.7c0.7-0.9,1.7-1.4,2.9-1.5c2.6-0.1,3.8-3.1,6.5-3.2
		c1.2,0,2.3-1.5,3.4-2.4l0.1,0.1v-0.1c0.1,0,0.2,0,0.2-0.1l6.7-2.4l0.7-0.2c0.4,0,0.7,0.3,0.9,0.6c1.5,3.2,3.4,6.2,4.2,9.7
		c0.8,3.5,1.4,6,2.1,9.1c0.7,3,1.5,7.1-2,9.8c-0.1,0,0,0.2,0,0.4c-1.9,1.7-3.3,3.9-5.8,4.8c-1.9,0.5-3.8,0.8-4.7,2.9l0,0
		c-0.2,0-0.3,0.2-0.4,0.3c0,0,0,0,0,0l-0.4,0.3c-0.2-0.1-0.2,0-0.2,0.2c-1.7,0.6-2.7,1.9-3.9,3h0.1c0,0-0.1,0-0.2,0c0,0,0,0,0,0
		c-2.2,0.7-3.6,2.3-5,3.9c-4.5,0-9,0.1-13.6,0c-3.8-0.1-6.3,1.7-8.3,4.6c-1.7,2.4-3,5.1-3.8,7.9c-0.3,1.1-0.7,2.1-2.2,2.5
		c-1.6,0.3-3.8,1.3-5.7,2.1c-3.7,1.6-7.8,2.3-11.2,4.6c-0.8,0.6-1.8,1.3-2.7,1.3c-0.9,0-1.6,0.7-1.8,1.7l-0.4,0.1
		c-0.6,0.2-1.7-0.7-1.7,0.8c-2.4,1.4-4.8,2.6-7,4.1c-1.3,0.9-3.1,1.3-3.7,3.1c-1.4,0-2.1,1.4-3.4,1.7l-7.9,5.5
		c-0.3,0.2-0.8,0.3-0.5,0.8c0.2,0.1,0.4,0.2,0.7,0.1c2.4-1.7,5.1-3,7.3-5.1l4.2-2.6c5-2.7,9.8-5.8,14.9-8.3c6-3,12.2-5.6,18.5-7.8
		l0.7-0.2c0.1,0.6,0,1.3-0.3,1.9c-1.5,4.8-3.5,9.3-5.5,13.7c-0.9,1.9-0.5,4.5-3.1,5.4c-0.3,0.1-0.3,0.9-0.5,1.4l-0.3,0.2l-4.2,2.1
		c-3.3,1.7-6.6,3.3-10.3,3.8c-1.3,0.2-2.2,0.7-2.7,2c0.8,0.3,1.3-0.6,2-0.2c1.7,1,3.3,0.1,4.9-0.7l2.7-0.9H70l0.4,0.2
		c0.3,0.3,0.5,0.3,0.8,0c0.9-0.1,1.3-0.9,2-1.3c0.5,0.4,0.3-0.1,0.4-0.3l0.7,0.1c0.2,0.2,0.3,0.2,0.4-0.1l0.1-0.1
		c0.4,0,0.7-0.3,0.7-0.7c1.7-1.3,3.6-2.5,5.5-3.3c0.1,0.6-0.1,1-0.5,1.4c-3.8,3.9-7.6,7.7-11.2,11.7c-0.9,1-2.7,1.5-2.4,3.4
		l-0.1,0.1c-0.7-0.3-0.8,0.1-0.8,0.6c-0.1,0.1-0.1,0.2-0.1,0.3c-0.9,0.5-2.1,0.8-2,2.2h0c-0.1,0-0.2,0-0.2,0.1
		c-0.3,0-0.6,0.1-0.8,0.4c-1.9,2.3-3.9,4.5-5.8,6.7c-1.9,2.2-4.1,4.3-5.8,6.8c-1.7,1.3-3.3,2.7-4.7,4.3c-0.9,0.9-2.1,1.5-2.2,2.9
		c-0.3,0.2-0.5,0.3-0.8,0.5c-4.7,4.8-8.9,10.1-12.5,15.8c-1.5,2.4-2.7,4.9-4.3,7.7c0.8-0.5,1.4-1.1,1.8-2
		c3.2-5.8,7.2-11.1,11.5-16.2c1.6-1.9,3.7-3.4,4.8-5.7h0c0.9,0.1,1.1-0.5,1.4-1.2l0,0c0.3,0,0.5-0.1,0.5-0.4c0,0,0,0,0,0
		c1.9-1.7,3.8-3.4,5.5-5.3l12.3-13.6c1-0.9,2.3-1.5,2.3-3.1c1.1-0.2,1.7-0.9,2-1.9l0,0c1.2-0.6,2.3-1.3,2.7-2.7l0,0
		c0.4,0.1,0.5,0,0.4-0.4l0,0c0.7,0.2,1-0.1,0.8-0.8l0,0c0.9,0.2,1-0.8,1.5-1.2s2.1-1.4,2.3-2.7l0,0c1.2-0.2,1.5-1,1.9-1.9l0,0
		l0.4-0.4l0.4-0.4l0,0c0.5-0.3,1-0.7,1.5-1.2c3.3-3.8,6.9-7.3,10.5-10.8c6.5-6.3,13.6-11.7,21.6-15.8c0.4-0.2,0.8-0.5,1.2-0.1v0.7
		c0,0-0.1,0.1-0.1,0.2c0,0.1,0.1,0.2,0.1,0.3c-0.1,0.1-0.1,0.2,0,0.3l0.2,1.9c-0.3,0.4-0.7,0.8-1.2,1c-2.4,1.1-4.6,2.2-3.6,5.5
		c0.2,0.7-0.2,1.5-0.2,2.3c0,2-0.7,3.9-0.5,5.9c0.9,1.8,1.6,3.8,1.9,5.8c0.2,1.4,0.4,2.8,0.7,4.1c0.2,0.7,0.4,1.9,1.5,1.6
		s0.9-1.5,0.4-2.2c-1.7-2.9-2.1-6.2-3.2-9.3c0.1-3.2,0.4-6.4,1.1-9.6c0.2-1.1,0.7-1.4,1.6-1.3c-0.6,2.4-0.5,4.9-0.2,7.4
		c-0.8,1.9,1.3,3.6,0.4,5.6c-0.1,0.2,0.6,0.9,1.2,0.9l1.7,0.1c0.3,0.1,0.7,0,0.8-0.3l0.2,0.3c0.3,1.3,1.1,2.4,0.9,3.8
		c-0.1,0.4,0.2,0.7,0.6,0.8c0.3,2,0.6,3.9,0.9,5.9c0.2,0.8,0.7,1.5,1.6,1.3c0.9-0.2,0.8-0.9,0.7-1.5c0-0.6-0.1-1.3-0.3-1.9
		c-0.7-1.8-1.4-3.6-2.1-5.3c-0.2-1.2-1-2.2-0.7-3.4V123h0c1,0.3,1.5-0.7,2.2-1c1.5,1.2,2.9,0.8,4.1-0.3c0.8-0.7,1.7-1.3,2.7-1.7
		c1.5-0.6,2-1.8,2.2-3.2c0.1-0.7,0.2-1.4,0.2-2.1s0.2-1.1,0.9-1c3.3,0.2,3.8-2.4,4.7-4.6l0.4-0.4l0.1,0.1l-0.1-0.1
		c0.7-0.4,1.4-0.8,1.7-1.5c2.1-3.6,5.3-6,8.5-8.6l0.5-0.4l2.3-0.9c2.5-0.9,2.8-0.8,4.1,1.4c0.3,0.7,0.8,1.3,1.4,1.8
		c0.1,1,0,1.9-0.9,2.6c-3.4,2.9-7,5.8-10.2,8.9c-1.2,1.2-3.3,1.5-3.7,3.6c0,0.8-0.1,1.6-0.5,2.2c-2,1.2-1.7,3.5-2,5.3
		c-1.2,7.2-0.4,14.7-2.4,21.8l-0.1,0.4c0.1,2.3,0.1,4.6-0.1,6.9l-0.3,0.5c-0.3,0.3-0.9,0.5-0.9,0.8s0.6,0.2,0.9,0.3l0,0
		c1,1.9-0.6,2.9-1.3,4.3c-1.2,2.5-2.5,4.9-3.8,7.2c-0.8,1.3-1.9,2.5-3.1,3.4c-0.9,0.7-2.1,1-2.3,2.4c-0.4,0.3-0.7,0.7-1,1
		c-0.2,0.3-0.2,1,0.2,0.9c1.3-0.3,0.8,0.4,0.7,1c0,0.5-0.1,1.5,0.5,2.1c0.7-0.9,0.7-1.8,1.1-2.7c1.5-1.4,3-2.7,4.1-4.5
		c0.3-0.5,1-1,1.6-0.9c1.5,0.2,1.9-0.7,2.1-1.9l1-1.4c1.8-2.1,2.7-4.6,3.9-7.1c0.6-1.2,0.2-3,1-3.8c1.5-1.5,0.8-3.3,1.3-4.9
		s0-3.2,0-4.9c0.2-6.5,0.7-12.9,2.1-19.3c0.6-2.4,1.4-4.7,2.6-6.6c1.6-2.5,3.8-4.8,6.2-6.8c3.4-2.9,6.5-6,9.4-9.4
		c1.7-1.3,2.1-3.2,2-5.1c0-2,0.4-2.9,0.8-4.3c0.3-1.4,0.7-2,2.1-1.4c1.9,2.1,3.9,2.6,6.6,1.6c1.2-0.3,2.6,0.5,3.8-0.2
		c1.1,0.1,2-0.3,2.9-0.8c7.5-3.4,15-6.8,23-8.9c1.4,0.9,1.9,2.7,3.5,3.4c0.9,1.6,1.5,3.4,3,4.6c-0.5,1,0.3,1.7,0.7,2.5
		c1,2.4,3.2,4.1,3,7c0,0.3,0,0.6,0.5,0.5c1.4-0.2,1.7,1,2.2,1.9c0.5,0.9,0.2,1.5,0.6,2c2.3,2.2,3.4,5.3,4.7,8
		c0.9,1.9,2.1,3.5,3.3,5.2c0.8,1,1.9,2,3.4,1.8c2.5,2.3,5.8,3.1,8.7,4.6c1,0.5,1.8,1.4,2.9,1.5c3.6,0.5,5.9,3.6,9.2,4.7
		c0.2,0.5,0.1,1.2,0.7,1.7c0.6-1,2.1-1.8,0.7-3.2c-1.5-1.8-3.4-3.1-5.7-3.9c-1.1-0.4-2.5-0.8-3.2-1.6c-0.7-0.9-2.2-1.5-3.7-1.6
		l-0.4-0.4c-0.1-0.9-0.8-1-1.5-1.3c-0.7-0.2-1.7-0.7-2.5-1c0-0.1,0-0.2-0.1-0.3c-0.2-1-0.9-0.7-1.5-0.7l-0.7-0.2
		c-0.5-0.7-1.2-0.7-1.9-0.6l-0.3-0.1l0,0l-0.4-0.4h0.1c0-0.7,0.7-1.5-0.5-1.9c1-1.5,1-1.5-0.7-2.7c-0.3-0.1-0.6-0.3-0.9-0.3
		c-0.8-0.7-1.4-1.5-1.9-2.4c-1.4-2.7-2.9-5.4-4.4-8.1c-0.5-3.1-3.1-4.9-4.5-7.4c-1-1.9-0.5-4.6-3.2-5.4l0,0c0.1-0.8-0.4-1.4-0.8-1.9
		l-5.3-7.7c0.3-0.7-0.3-0.3-0.5-0.4l-0.3-0.1c-0.1-0.4-0.2-0.9,0.3-1.1c1.7,1,1.7-0.3,2-1.4l0,0c0.4-0.1,0.8-0.1,1-0.5l0.1-0.1
		l0.4-0.3l2.6-1.5c1,0.1,1.5-0.6,2-1.2L213.3,72.2z M39.8,126.9l-0.4-0.7c-8,5.3-15.3,11.5-23,17l0.5,0.7L39.8,126.9z M0,157.1
		c5.2-4.1,10.3-8.4,15.4-12.5C9.5,147.7,5,152.6,0,157.1z"/>
	<path class="st1" d="M165.8,91.3c-1.4-0.6-1.9,0.5-2.1,1.4s-0.8,2.8-0.8,4.3c0,1.5-0.3,3.8-2,5.1l-0.2-0.2c0.8-1.8,2-3.6,0.6-5.7
		c-0.5,0.9,0.3,2-0.5,2.7c-1.1,0-0.9-1.5-1.9-1.6c-0.5-1.2-1.2-0.7-1.7,0c-0.6,0.8-1,1.8-1.3,2.7c-0.2,0.9-0.7,1-1.4,0.5
		c-0.6-0.5-1-1.1-1.4-1.8c-1.3-2.2-1.6-2.4-4.1-1.4l-2.3,0.9c-0.1-0.9,0.5-1.6,1.4-1.8c1.5-0.4,1.9-1.1,0.2-2.2
		c2.7,0.6,5.3,1.2,6.9-1.7l0,0c1.2-0.1,2.2-0.3,2.7-1.5l0,0c1.6,1.4,1.8,1.4,2.7-0.9c0.3-0.7,0.7-0.6,1.2-0.6
		c1.1,0.8,1.9,0.3,2.6-0.6c0.7-0.9,0.7-1,0.2-1.5c-0.5-0.5-0.8,0.2-1.2,0.4c-0.4,0.2-0.8,0.4-1.2,0.5c-0.7-0.3-1.3-0.6-1.2-1.5
		s-0.5-0.9-1.2-0.9c-0.3-0.9,0.5-2.1-0.5-3.1c-0.8,3.6-1.7,6.7-5.3,8.5c-2,1-3.8,0.6-5.7,1c-0.2,0-0.4-0.2-0.7-0.4
		c-3.2-2.2-5-5.5-6.2-9.1c0.6,0,0.9,0.3,1.1,0.8c0,0.1,0,0.2,0,0.3c0.2,0.4,0.7,0.4,1,0.5c0.1,0.9,0.6,1.8,1.2,2.5
		c0.5,0.7,1.4,0.9,2.2,0.7c0.9-0.3,0.7-1,0.6-1.7h0.7c-0.1,0.9,0.2,1.8,0.7,2.6c2.3-1.2,3.8-3.9,7.2-3.8c-1.3-1.2-0.4-1.8,0.3-2.6
		c0.7-0.7,0.7,1,1.4,0.4s-2.1-3,1.1-2.4c-1-3.2-2.9-5.2-5.6-7.2c-1.3-1-2.7-2.1-3.5-3.7c0-0.3,0.1-0.7,0.5-0.8
		c1.4,0.1,2.3,1.2,3.3,1.9c2.5,1.7,3.7,4.4,5.1,7l0.3,0.5l0.1,0.3c0.2,1.3,0.9,2.5,0.8,3.8c-0.1,1.4,0.5,0.9,1.1,0.9
		c0.3,0.8-0.7,2.3,1.2,2.3c0.7,1.4,1.8,0.7,2.7,0.5c1-0.2,1.1-0.7,1.7-0.1c0.7,0.6,0.7,0.4,1,0c0.3-0.4-0.1-0.8-0.4-1
		c-1.1-0.9-1-1.6,0-2.5c1-0.9,1.6-2.6,0.7-4.2c0-2.1,1.5-2.1,2.9-2.4c0.2,0.5,0,1.2-0.5,1.4c-0.9,0.5-1.1,1.5-1.4,2.4
		s0.3,0.9,0.9,0.9c0.1,1-0.3,1.9-0.7,2.7c-0.4,0.9-0.1,1.2,0.5,1c1.2-0.4,2.7-0.3,3.8-1.2c0.3-0.3,1-0.6,0.5-1.2
		c-0.5-0.6-0.8,0-1.1,0.3c-0.3,0.3-1,1.2-1.3-0.1c0.3-0.8,1.2-1.2,1.2-2.2c1.7,0.1,1.6-1.5,2.3-2.4c1.2-0.3,2.8,1,3.4-1
		c-0.3-1.9-1.7-2-3.1-2.1c-0.4-2,0.9-1.3,1.5-0.9c0.7,0.4,1.4,0.5,2-0.2c0.4-0.4,1-0.7,1.5-0.6v1.5l-0.2,0.2l0.2-0.2
		c1-1,1.1-2.4,1.5-3.8c1.7-2.2,0.9-5.3,2.8-7.4c-0.9-0.5-1.7,0.3-2.6,0.4c-0.1-1.4-0.1-1.5,0.4-1.4c1.3,0.5,2.9-0.5,4,0.9
		c-0.2,0.6-0.4,1.2-1,1.6c-0.5-0.5-0.7-0.3-0.9,0.2c-1.2,2.2-0.6,4.7-0.7,7c-0.9,1.1-2.9,1.5-2.3,3.6c-0.5,0.9-1,2.1-0.1,2.7
		c0.9,0.6,1-1,1.8-1.2l0.2-0.1c1.2,0.8,2.2,0,3.1-0.6c0.2-0.2,0.3-1,0.9-0.3c0.5,0.8,0,0.5-0.1,0.8c-1.6,2.3-3.9,3.4-6.6,3.9
		c-2,0.4-3.6,1-5.1,2.5c-1.5,1.5-1.4,1.8,0.2,2.6v0.7c-0.7,0.1-1.4-0.2-1.9,0.3c-0.7-0.1-1.6,0.3-2.1-0.8s-0.5,0.1-0.6,0.4
		c-1.5,0-3.1-0.1-3.5,1.9C167.5,89.3,166.2,89.9,165.8,91.3z M157.7,93.5c-1.7,0.5-2.5,2.1-3.5,3.3c-0.4,0.5-0.3,1.2,0.1,1.6
		c0.1,0.1,0.2,0.2,0.4,0.2c1,0.4,1-0.5,1.1-1.1c0.3-1.4,0.7-2.7,2.3-3.2c0.5-0.3,1.2-0.3,1.3-1c0.1-0.7-0.3-0.6-0.6-0.7
		C158.5,92.6,157.8,92.9,157.7,93.5L157.7,93.5z"/>
	<path class="st1" d="M114.1,105.9L114,104c1,0,1.9,0.5,2.4,1.3c1.1,1.7,3.1,1.7,4.2,0.3l0,0c0.7,0,1-0.6,1-1.1s-0.5-0.7-1.1-0.9
		c-0.4-0.1-0.7-0.3-1-0.5c-2.1-1.7-3.2-1.9-5.6-0.6c-0.4-0.5-0.8-0.1-1.2,0.1c-8.1,4.1-15.2,9.6-21.6,15.8c-3.6,3.5-7.2,7-10.5,10.8
		c-0.5,0.4-1,0.8-1.5,1.2c0-0.9,0.8-1.4,1.3-2l5.3-6.5l0,0c1.4-0.4,2.1-1.6,2.9-2.6c0.8-1,1.8-0.8,1.4-2c0-0.2,0.1-0.4,0.3-0.5
		c1.7-0.5,3.1-1.3,3.6-3.1c-0.1-0.1-0.1-0.2-0.1-0.3c0.4-0.1,0.8,0.3,1.2-0.1c1.9-1.5,3.9-2.9,5.7-4.4c3.9-3.1,8.4-5.4,12.7-8
		c0.3,0.1,0.6-0.1,0.8-0.3h0l0.3-0.5c2.3-0.3,4.5-1.3,6.1-3l0.1-0.1c1.5,0.3,2.9-0.3,4.3-0.5s1.2-0.9,0.7-1.7c0.5,0,1-0.1,1.2,0.6
		c0.2,1.5-0.7,2.3-2.1,2.4c-1.4,0.2-1.3,1.1-0.8,1.7c0.5,0.5,2.2,2.1,3.1,1.7c1.5-0.7,1.5,0.3,1.9,1c0.4,0.7,0.5,0.9,0.7,1.4
		c0.3,0.4,1,0.7,1,0.2c0.4-1.8,2.5-2,3.1-3.5c1.1-0.1,2.4,0.3,3.3-0.6c0.9-0.9,2.9-2.1,2.9-4.1c0-0.4,0.3-1,0.7-1
		c2.5-0.2,1.8-2,1.8-3.5l1.3,0.5v0.5c1.8,1.5,2.5,3.4,1.5,5.7c-0.2,0.3,0,0.7,0.3,0.9c0.1,0.1,0.2,0.1,0.3,0.1
		c-3.1,2.6-6.4,4.9-8.5,8.6c-0.4,0.7-1.1,1.1-1.7,1.5l0,0l-0.3,0.5h-0.4c0.2-0.5-0.1-1.1-0.7-1.2c-0.1,0-0.2,0-0.2,0
		c-2.3-0.5-4.6-1.2-7-0.2c2.8,0.9,2.8,0.9,1.6,2.1c0-0.4,0-0.9-0.4-1c-1.4-0.1-3-0.6-4.1,0.7c-0.6,0.7-1.1,1.1-1.8,0.1
		c-0.2-0.3-0.6-0.5-1-0.5C118.9,108.7,116.2,107.9,114.1,105.9z M124.2,100.7c0,0.6,0.1,1.1,0.8,1.3
		C125,101.3,124.9,100.8,124.2,100.7z"/>
	<path class="st2" d="M151.1,52.9c0.3-0.6,0.9-1,1.6-1.2c1.4-0.6,2.9-0.6,4.3,0c0,0.8-1.7,1.5-0.1,2.3c0.6,0.3,1.3,0.4,2,0.5
		c1.2,0.2,0.8-0.6,0.6-1.2c3.5,1.4,6.7,3.1,9.1,6.2c0.3,1,0.8,1.9,1.9,2.4c0.4,0.3,0.6,0.7,0.7,1.2c-0.3,1.9,0.7,3.7,1,5.5
		c0.3,1.8,0.5,2.2-1.7,3.1c-0.5,0.2-1.9-0.9-1.6,0.6c0.2,0.7-0.2,1.4,0,2l-0.6-0.2c0-1-0.6-1.9-1.5-2.3c-0.2-1-0.9-1.8-1.5-2.6
		c-2.1-2.7-4.8-4.5-7.1-7c-2.2-2.4-4.5-3.4-7.4-4.2l-0.5-0.3c0-0.2-0.1-0.3-0.3-0.2l-0.2-0.2l0,0c-0.7-0.3-1.7,0.3-2.1-0.8l0.8-0.9
		l0.3-0.4l0.3-0.3l0.4-0.4l0.4-0.3C150.7,54.1,151.1,53.7,151.1,52.9z M156.7,55.7c-0.3,0-0.6,0.2-0.7,0.5c-0.2,0.4,0.2,0.6,0.4,0.7
		c0.4,0.2,0.8,0.4,1.2,0.6c0.6,0.1,1.5,0.4,1.5-0.5c0-0.9-0.7,0.1-1,0c-0.4-0.1-0.3-0.5-0.5-0.7C157.4,55.9,157.1,55.7,156.7,55.7
		L156.7,55.7z M156.2,55.1c-0.5-0.5-0.3-1.8-1.4-1.5c-0.3,0.1-0.9,1.2-0.7,1.5C154.7,56.2,155.5,54.9,156.2,55.1L156.2,55.1z"/>
	<path class="st2" d="M143,83.5c-0.2-0.5-0.5-0.9-1.1-0.8l0,0c-0.1-2-1.8-2.8-2.8-4.2c0-1.4-0.9-1.5-1.9-1.5c-1.7,0-2.8-0.9-3.8-2.1
		c-0.1-1.2-1-0.8-1.6-0.7c-0.7,0.2-1.5,0.4-2.2,0.7c-0.5,0-0.5-0.2-0.3-0.5c2.5-0.9,3.9-3.1,5.8-4.8l1.5-0.5
		c0.2,0.6-0.5,1.2-0.1,1.8c0.9,0,1.2-0.5,1.3-1.4c0-0.9,1.4-1,1.5-0.7c0.2,1.9,2.1,2.6,2.7,4.5c0.3-1,0.9-2,0.7-2.3
		c-0.2-0.3-0.2-0.8,0.3-0.7c1.4,0.3,1.1-0.3,0.7-1.1c-0.4-0.8-0.5-0.5-0.1-0.8c0.3-0.3,0.7-0.1,1,0.2s0.9,1.1,0.8,1.2
		c-1,1.5,0.5,2.4,0.5,3.8c0.9-0.5,1.7-0.8,0.8-1.9s-0.6-1.7,0.3-2.4c1.4,1.2,2.6,2.7,4.1,3.6s2.2,1.4,2.5,2.9c0,0.2,0.4,0.5,0.7,0.6
		c1.4,0.8,1,1.5-0.3,2.1c0.8,0.5,2,0.6,1.2,1.8c-0.5,0.9-1.7,1.3-2.6,0.9c-0.6-0.3-1.2-0.5-1.8-0.5c-0.7,0-1.1-0.2-1.2,0.6
		c-0.1,0.8,0.3,0.8,0.8,0.9c2.1,0.4,1.2,1.7,0.9,2.8c-0.3,1-1.5,0.1-2.1,0.7h-0.7c-0.8-0.1-1.5-0.3-2.2-0.5c0.3-2.1-1.1-0.8-1.7-0.9
		c-0.6-0.2-0.8-0.1-1-0.5l0.1-0.1L143,83.5z M137.9,71.5c-0.8,0-1.5,0.2-1.5,1.5C137.1,72.5,137.9,72.4,137.9,71.5l0.2-0.2
		L137.9,71.5z M137.8,73.2c1.2,0.5,1.9,0.3,2.7-0.4C139.5,71.9,138.8,72.3,137.8,73.2L137.8,73.2z M143.4,74.3
		c0.5,0,0.3-0.4,0.3-0.7s0-0.8-0.5-0.9c-0.5,0-0.6,0.4-0.6,0.8S143,74.2,143.4,74.3L143.4,74.3z M153.5,77.3
		c-0.1-0.1-0.2-0.2-0.4-0.2c-0.1-0.1-0.3,0-0.3,0.1c0,0.1,0,0.1,0,0.2c0.1,0.1,0.2,0.2,0.4,0.3C153.4,77.7,153.6,77.6,153.5,77.3
		L153.5,77.3z"/>
	<path class="st3" d="M119.5,81.2c1.3-1.1,2.3-2.4,3.9-3c0.1,0,0.2,0,0.2-0.1c0,0,0-0.1,0-0.1l0.4-0.3l0.3-0.4l0,0
		c1.2-0.9,2.8-1.1,4.1-0.6c1.7,0.6,3.4,1,5,1.8c3.1,1.5,5.7,3.6,7.2,6.9c-1.2,0.4-2.2-0.5-3.3-0.7c0,0.6,1.2,1.8-0.6,1.3
		c-0.6-0.2-1.1,0.6-1.4,1.2s0.3,0.9,0.7,1.2c0.4,0.3,0.8,1.1,0.5,1.9c-1.2-0.3-2.2-1.2-3.6-0.9s-1.5,2.9-2.8,0.5l-0.3,0.2
		c-1.3,0.8-2.6,1-3.7-0.3c-0.4-0.5-1-0.6-1.5,0c-0.9-0.2-2.2,0.2-2-1.5c1.1,0.3,2.1,0.5,3.1-0.2c-0.2-0.1-0.2-0.2-0.3-0.3l-0.6-0.1
		c-1.7-0.4-2-1.2-0.9-2.6c0.4-0.5,1-1.1,0.4-2.2c-0.4,0.5-0.8,1-1.2,1.4c-0.4,0.4-0.9,0.4-1,0c-0.1-0.4-0.8-1.4-1.5-0.6
		s-0.2,1.5,0.5,1.9s0.4,0.6,0.2,1.1c-1.2,2.4-1.2,2.4-3.7,0.6c-0.2-0.9,0.8-1.1,1-1.9c0.4-1.4-0.1-3,0.6-4.3c0-0.1,0.1-0.1,0.1-0.1
		C119.5,81.1,119.5,81.1,119.5,81.2L119.5,81.2z M133.4,85.1c-1.3,0-0.4,0.9-0.6,1.4s-0.2,1,0.5,0.8c0.7-0.1,1.1-0.7,1.1-1.4
		C134.5,85.2,133.9,85,133.4,85.1L133.4,85.1z"/>
	<path class="st2" d="M196.5,15.5l1.1-0.6c1.2-0.2,2.3,0.2,3.4,0.4l0,0c0,0.8,0.5,0.9,1.2,0.8l0,0c1.3,1.8,3.3,2.9,5.1,4.3l0.1,0.2
		h0.1l-0.2-0.2c0.3-1.2-1-1.7-1.2-2.7c-0.2-1,0.5-1.3,1.2-1.6c0.4,0.8,1.1,0.9,1.9,0.8l0,0c0.8,0.9,1.4,2,2.7,2.3l0.4,0.4
		c0.1,1.3,2.2,2.6,0.1,3.9l-0.3,0.1l0.2,0.2v0.3c-1.4,0.7-1.7-1.3-2.9-1.3c-0.1,0.7,0.2,1.4,0.9,1.7l0.5,0.5l0,0
		c0.3,1.4,1.8,2.7,0.5,4.3l-2.5,1.3c-1.1-0.9-0.2-3.3-2.5-3.6c0.7,1.9,1.8,3.5,1.9,5.4c-0.8,1.2-1.7,2.2-3.3,1.1
		c-0.1,0-0.4,0.3-0.6,0.4c0-0.5-0.3-1-0.8-1.2c-0.1-0.3-0.4-0.5-0.7-0.5l-0.4-0.3l-0.4-0.8c0-0.4-0.4-0.8-0.8-0.8
		c0-0.8-0.2-1.4-1.1-1.5c-0.3-1.4-1.2-2.4-2.4-3.1c-0.3-0.6-0.9-1-1.5-1.2c-0.5-0.9-1.4-1.2-2.3-1.6c-0.2-0.7-1-0.8-1.3-1.4l0.1-0.1
		c1.1-0.1,2.3,0.4,3.1-0.8l0,0l1.1,1.9c0.7-1,0.9-2.6,2.6-2.2c0.1,0,0.3-0.6,0.5-1L201,20l0.4,0.4c0,1,0.7,1.3,1.5,1.5
		c0.1,0.6,0.6,1.1,1.2,1.2l0.2,0.1l-0.1-0.2c-0.1-0.6-0.5-1.1-1.2-1.2c-0.2-0.6-0.6-1.1-1.2-1.4l-0.7-0.5c-0.8-1.3-2.1-2.3-3.5-2.7
		C196.8,16.9,196.2,16.6,196.5,15.5z M201.8,18.3c-0.3-0.7,0-1.6-1.1-1.7c-0.3,0-0.7,0.1-0.7,0.5C200.2,17.3,200.7,18.4,201.8,18.3z
		 M204.5,23.9c0.4,0.9,0.7,1.5,1.8,2.1C205.8,24.9,205.8,24.2,204.5,23.9L204.5,23.9z"/>
	<path class="st1" d="M160.9,102.2c-2.9,3.3-6.1,6.5-9.4,9.4c-2.3,2.1-4.6,4.3-6.2,6.8c-1.2,1.9-1.9,4.3-2.5,6.6
		c-1.5,6.4-2,12.8-2.1,19.3c0,1.7,0.4,3.6,0,4.9c-0.4,1.2,0.2,3.4-1.3,4.9c-0.8,0.8-0.5,2.6-1,3.8c-1.2,2.4-2.1,5-3.9,7.1l-0.7-1.7
		l0-0.8c0.5-0.7,0.6-1.7,0.3-2.5c-0.3-0.7,0-0.8,0.5-1.1c1.9-0.9,2.6-2.5,2.2-4.5c0.4-0.9,0.8-1.7,1.1-2.6c0.3-0.9,1-1.4,0-2.1
		l0.2-3.9c0.5-0.8,0.5-1.8,0.1-2.7v-2.3c0.7-0.3,0.9-0.7,0.3-1.2v-1.2c0.3-0.2,0.4-0.5,0.1-0.7v-2.3c0,0,0.1-0.1,0.1-0.1
		c0-0.1,0-0.2-0.1-0.3v-1.4c0.6-0.2,0.6-0.7,0.5-1.3l0.1-1.9c0.7-1.1,0.3-2.3,0.3-3.5v-0.8c0.8-2.5,1.2-5.1,2.7-7.2
		c0.3-0.2,0.3-0.4,0-0.6c0-0.9-1.5-1.9,0-2.8l0.8-0.2c1-0.5,2-0.5,2.9-1.6c0.9-1.1,1.5-2.2,2.9-2.6c2.4-0.8,3.6-2.9,5.4-4.5
		c1.8-1.5,3.3-4.1,5.7-5.3c0.1,0.4,0.2,0.7,0.7,0.7L160.9,102.2z"/>
	<path class="st4" d="M158.5,25.8c1.2-7.1,2.1-14.3,2.8-21.5c0.1-0.6,0.3-1.2,0.6-1.8c0.5,0.5,1,0.6,1.5,0.2s1.1-0.3,1.4,0.5
		c0.6,1.6,0.1,3-0.7,4.4s-0.9,1.9-0.2,3.1c0.8,1.5,1.1,3.2,0.8,4.8c-0.5,3.4-1,6.8-2.4,10c-1.9,4.6-0.9,10-3.1,14.6
		c-0.4,0.5-0.2,1.5-1.1,1.7c-0.9,0.2-1.2-1-1.1-1.9c0.4-3.8,0.8-7.6,1.7-11.3C159,27.7,159.2,26.7,158.5,25.8z"/>
	<path class="st2" d="M178.2,27.7c0.5-0.7,1.1-1.2,1.9-1.6c0.2,0.1,0.4,0,0.5-0.2c0,0,0,0,0,0l0,0c1.3-0.2,2.6-0.5,3.6,0.4
		c-0.2,0.8-1.7-0.3-1.3,1.1c0.3,1.4,0.7,1.2,1.5,1.2h0.3c-0.5,0.7-1.9-0.2-2.2,1.2c0.8,0,1.4,1.2,1.8,1c1.2-0.5,2.5-0.4,3.8-0.4
		c-0.5-1-1.6-0.7-2.3-1.7c1.4,0.7,1.7,0.2,1.6-0.9c1.2,0.2,1.8,1.5,3,1.6c1.2,1,1.9,2.6,3.5,3.1l0.4,0.3c0,0.6,0,1.1,0.8,1.2
		c0.5,1.3,0.9,2.6,2.3,3.1c0,0.5,0.3,1,0.4,1.4c0.5,1.7,2.5,2.5,2.4,4.4l-2.1,3.5c-0.3-0.1-0.9-0.1-1.1-0.3
		c-2.3-2.2-4.3-4.7-5.9-7.4c-1.8-2.8-4.4-4.7-7.3-6.2c-1.7-1.7-4-2.1-6-2.9C178.5,28.9,178.7,28.4,178.2,27.7z"/>
	<path class="st1" d="M158.1,41.8c0.9-0.2,0.7-1.1,1.1-1.7h0.4c0.1,0.4-0.2,0.9,0.3,1.4c0.8-0.9,0.9-1.9,1.2-2.9
		c0.3-1,0.3-3,1.6-4.3c0.6-0.6,1-2.6,0.3-3.9c-0.2-0.4-0.5-0.8-0.1-1.2c0.4-0.4,0.5-0.5,0.8-0.5s0.7,0.6,0.7,1
		c0.1,1.4,0.1,2.8,0,4.2c-0.1,1.4-0.5,3.1,1.4,3.9l0.7-0.3c0.9,0.1,1.7,0.6,2.5,0.9c3.1,1,6.1,2.2,8.6,4.5c1.3,1.2,2.2,2.6,3.6,3.7
		c1.9,1.5,3.6,3.3,5,5.2c0.7,1.7,1.4,3.6,3.9,2.8c0.1,0.5-0.2,0.7-0.3,1c-0.1,0.3-1.4,1.3-0.7,2.1c0.7,0.8,1.1-0.7,1.8-0.4
		c-0.9,1.9-1.4,3.9-3.5,5c0.3-1.4,0.8-2.6,2.2-3.3c-0.8-0.9-1.9-0.3-2.6-0.9c0.3-2.5-0.6-4.5-2.2-6.3c-0.1-1.3-1-1.7-2-2.2
		c-2-1.5-3.3-3.7-5.3-5.2c-2-1.5-2.7-2.8-4.8-2.9l0,0c0-0.7-0.5-0.8-1.1-0.6s-0.8,0.3-1,0c-1.2-1.9-3.1-1.5-4.9-1.7
		c-0.3-0.5-0.6-0.3-0.7,0.2c0,0.3-0.1,0.5-0.4,0.6c-2.2,0.4-3.1,2-2.7,4.6l-0.3,0.1c-0.7,0.4-1.9,0.2-2,1.4
		c-2.2,0.3-2.6,2.4-3.8,3.7c-0.3,0.3,0,0.8,0.4,0.9c2.3,0.6,4.2,2.2,6.4,3c2.8,1,5.3,3,6.9,5.5c-0.2,0.3-0.5,0.4-0.8,0.3
		c-2.4-3-5.6-4.8-9.1-6.1l-0.5,0.4l-0.5-0.5v-0.1c0.2-0.2,0.5-0.4,0-0.5l0,0c-0.1-0.4-0.4-0.7-0.8-0.8H157c-1.4-0.6-2.9-0.6-4.3,0
		c0.4-0.7,1.4-1,1.6-1.9v-0.2l0.1-0.5c0.4-0.1,0.5-0.5,0.7-0.8c1-1,0.3-2.6,1.5-3.4C157.7,44.1,158,43,158.1,41.8z"/>
	<path class="st5" d="M166,37.8c-1.9-0.8-1.4-2.5-1.4-3.9c0.1-1.4,0.1-2.8,0-4.2c0-0.4-0.2-1-0.7-1s-0.6,0.2-0.8,0.5
		c-0.2,0.2-0.1,0.7,0.1,1.2c0.6,1.4,0.3,3.3-0.3,3.9c-1.3,1.4-1.1,2.9-1.6,4.3c-0.5,1.4-0.5,2.1-1.2,2.9c-0.5-0.5-0.3-0.9-0.3-1.4
		l0.1-0.2l-0.1,0.2h-0.4c2.2-4.6,1.2-9.9,3.1-14.6c1.3-3.3,1.8-6.6,2.4-10c0.3-1.7,0-3.4-0.9-4.9c-0.6-1.1-0.3-2.1,0.2-3.1
		c0.5-1,1.2-2.8,0.7-4.4c-0.3-0.8-0.5-1.4-1.4-0.5c-0.9,0.9-1,0.3-1.5-0.2c-0.1-1.7,1-2.4,2.4-2.5c1.6-0.2,3.2,0.1,4.7,0.7
		c-0.5,0.7-2.5,0.9-0.7,2.3v0.8c-1.5,2.8-2.4,5.8-2.7,8.9c1.1-1.6,1.1-3.4,2.8-3.9c0,1.9-1.5,3.4-1.3,5.2c0.3,3.6-1,7-0.9,10.6
		C166.2,28.9,166.1,33.4,166,37.8z"/>
	<path class="st5" d="M135.3,109.1h0.4c-0.9,2.2-1.4,4.8-4.7,4.6c-0.7,0-0.8,0.5-0.9,1c0,0.6-0.1,1.4-0.2,2.1
		c-0.2,1.4-0.6,2.6-2.2,3.2c-1,0.4-1.9,1-2.7,1.7c-1.2,1.1-2.6,1.5-4.1,0.3c0.3-1.7,2.1-1.3,3-2.2c3.6-0.2,4.1-0.7,4.5-4.5
		c1.1-2.1,1.1-2-1.3-2.1c-1-0.1-2.1-0.2-3.1-0.4c-0.5-0.1-0.8-0.2-1.2,0.4c-1.7,3.1-3.1,6.3-4.2,9.7h0l-0.7,0.1
		c-0.3-1.6,1.3-2.8,1-4.5l0.5-1.9c1.5-1.8,1.5-4.5,3.6-5.8c-2.3-0.6-3.3,0-3.3,2.2c0,0.7-0.1,1.5-0.5,1.8c-0.4,0.3-0.9-0.8-1.8-1
		l0.8,1.8c-2.2,1.4-0.2,2.1,0.5,3.1c-0.7,0.3-0.8,1.4-1.7,1.6l-1.1-3.9c0.3-1.1,1.2-2.6,0.8-3.3c-0.6-1.3-1.3-2.6-2.1-3.9
		c-0.4-0.5-0.8-0.3-1.2-0.2c-0.9-0.5-0.1-1.5-0.5-2.1c0.5-0.2,0.9-0.5,1.2-1c2.1,2,4.8,2.8,7.6,3.1c0.4,0,0.8,0.2,1,0.5
		c0.7,1,1.2,0.6,1.8-0.1c1.2-1.3,2.7-0.7,4.1-0.7c0.5,0,0.4,0.6,0.4,1c-0.7,0.9-1.7,1.6-2.8,1.8C130,113.1,132.8,111.8,135.3,109.1z
		"/>
	<path class="st5" d="M169.8,1.2c2.3,0.1,4.1,0.7,4.4,3.5c0.1,1.1,1.9,1.1,2.8,2.4c-2.2-0.9-2.7,0-2.2,1.8c0.1,0.3,0.1,0.5,0.1,0.8
		c-0.1,2.3,0.7,4.1,3.6,4.9c-1.4,0.5-2.1-0.2-3-0.1c0.2,1.9,0.3,3.9,0.5,5.8c0.1,0.7,0.7,1,1.2,1.4s1.5,0.6,1.7,1.4l0,0
		c-2.8-0.3-2.8-0.3-2.5,2.7c0.1,0.9,0.1,1.8,0.2,2.7c0.1,0.9-0.5,0.5-0.9,0.4c-2.6-3.2-3.1-7-3.4-11c-0.1-1.7-0.6-2.8-2.3-3.3
		l-0.5-7l0.1-0.5c1.5-0.8,1.4-2.1,0.6-3.2c-0.5-0.7-0.8-1.6-0.7-2.5C169.7,1.4,169.7,1.3,169.8,1.2z"/>
	<path class="st4" d="M65.2,109.8c0.2-1,0.4-1.7,1.8-1.7c1.4,0,1.9-0.7,2.7-1.3c3.4-2.4,7.5-3.1,11.2-4.6c1.9-0.8,3.7-1.7,5.7-2.1
		c1.9-0.4,1.9-1.4,2.2-2.5c0.8-2.8,2.1-5.5,3.8-7.9c2-2.8,4.5-4.7,8.3-4.6c4.5,0.2,9,0,13.6,0v1.1c-0.3,0.6-0.9,0.1-1.1,0.2
		c-2.3,1.1-4.6,1.3-7,0.3c-0.9-0.3-1.8-0.3-2.7-0.1c-1.9,0.4-3.7,1.3-5.7,0.9c-1.1-0.2-2.3-0.1-2.3,1.7c0,0.3-0.6,0.9-1,1
		c-1.5,0.7-1.5,1.9-1,3.2c-1.2,0.9-1.8,2.1-2.1,3.5c-0.1,0.4-0.5,0.9,0.2,1.1c0.7,0.2,0.9-0.1,1.1-0.5s1-1.7,1.5-2.6h0.7
		c-0.5,1.5-0.3,2.6,1.7,2.4l-0.1,0.7c-4.1,0.8-7.9,2.5-12,3.5c-4.7,1.6-9.4,3.5-13.9,5.7C68.9,108.2,67.2,109.5,65.2,109.8z"/>
	<path class="st4" d="M90,47.3c0.9-0.2,1.6,0.4,2.4,0.7c2.2,0.8,4.3,1.8,6.4,2.9c0.7,0.3,0.8-0.1,1.1-0.3c1.2-0.8,2-1.8,3.6-2.2
		s4-1.9,6-3l0.2-0.1c0.5-1.5,2-1.3,3-1.9c4.7-2.7,9.4-5.5,14-8.3c1.6-1,3.5-1.4,5.3-1c-0.2,1.2-1.7,1.8-1.3,3.2l-0.4,0.1l-0.5-0.1
		l-0.2-0.7c-0.1-0.3-0.2-0.8-0.7-0.5c-0.5,0.2-0.7,0.5-0.2,1c0.5,0.5-0.3,0.7-0.8,0.7c-0.7,0-1.4,0.2-2.1,0.5
		c-4.4,1.9-8.7,4.2-12.7,6.7c-1.6,1-3.6,1.4-4.6,3.3c-1.6,0.7-3.2,1.6-4.3,3.1c-0.9-0.1-1.5,0.5-2,1c-0.5,0.5-0.9,0.5-1.5,0.3
		c-2.5-0.7-5.1-1.1-7.4-2.2C92,49.8,89.7,49.7,90,47.3z"/>
	<path class="st5" d="M130.5,37.3c-0.4-1.4,1.1-2,1.3-3.2h0.7c0.3,0.2,0.8,0.3,1.2,0.2c1.8-0.5,2.4,0.7,2.8,2.1
		c1.5,5.4,3,10.9,4.9,16.2l2.3,6.2c-1.4,0.1-0.9-1.6-1.8-2c-0.7-2.4-1.2-4.8-2.6-7.1c-0.3,1.2,0.1,2.1,0.4,2.9
		c0.3,0.9,0.7,1.2-0.5,1.4c-0.7-2-1.2-4.1-1.5-6.2c0.7-0.1,0.7,1,1.5,0.8c-0.3-1,0.1-2.4-1.7-2.3c-0.9-0.7-1-1.7-1.1-2.7
		c-0.2-2-1.4-3.7-1.4-5.7c-0.1-0.6-0.6-1.1-1.3-1.1c-0.5,0-1,0.3-1.3,0.7c-0.5,0.7,0.3,1,0.5,1.5c0.7,1.8,2.2,3.4,1.2,5.6
		c-0.1,0.2-0.1,0.6,0,0.7c1.4,1.1,1.4,2.9,1.7,4.3c0.9,3.1,1.3,6.4,1.9,9.6l-0.9,0.3c-0.7-3-1.4-6-2.1-9.1c-0.7-3-2.7-6.5-4.2-9.7
		c-0.2-0.4-0.5-0.6-0.9-0.6C129.9,39.1,131.6,38.5,130.5,37.3z"/>
	<path class="st5" d="M81,125.3c-1.9,0.9-3.7,1.9-5.4,3.3c-0.6-0.4-0.2-0.8,0-1.2c0.3-0.5,1.4-1.6,1.5-2.7l0.3-0.2
		c1.6,0.4,3.2-0.6,3.6-2.1c0.1-0.4-0.1-1.1,0.5-1.1c1.9,0,1.5-1.4,1.5-2.4c0-1,0.2-1.9,0.7-2.8c2.2-4.1,3.6-8.6,5.4-12.9
		c0.2-0.4,0.7-0.9,0.2-1.2c-0.5-0.3-0.8,0.1-1.2,0.2l0,0l-0.4-0.4c0.9-0.5,1.9-1,2.6-0.6c0.8,0.5,0,2.1,0.4,3.1c1,0,0.3-1.9,1.7-1.4
		c0,1-0.2,1.9-0.5,2.8c-0.5,1.9-1.8,3.5-1.8,5.5c0,0.7,0.5,1.3-0.7,1.1c0,1-1.7,0.5-1.5,1.3c0.7,1.9-0.6,2.9-1.4,4.2
		c-0.1-0.7,0.2-1.5-0.5-2.2c-0.4,2.1-0.5,4.2-0.3,6.2l0,0c-0.8-0.5-1.6-0.6-2,0.5c-0.4,1.1-1.3,1.7-1.9,2.6
		C81.5,125,81.1,124.9,81,125.3L81,125.3z"/>
	<path class="st1" d="M202.2,83.1c-8,2.1-15.5,5.5-23,8.9c-0.9,0.4-1.9,0.9-2.9,0.8s-1.3-1.7-1.9-1.6c-1.4,0.1-1.2-0.7-1.1-1.5
		c0.7-0.2,1.7,0.5,1.9-0.8h0.8c0.2,0.5,0.7,0.9,1.2,0.8c1.4-0.4,2.9-0.3,4.4-0.9c2.1-0.9,4.1-2.1,6.2-2.9c0.9-0.3,1.5-1,1.8-1.9
		l1.1-0.5l3.3-0.7c1.1-0.2,0.5-0.7,0.2-1.1l4.6-0.7v0.7l-0.1,0.1c0,0,0,0.1,0,0.1l0.2-0.2c1.2,0,2.3,0.1,2.8-1.3
		c0.2-0.4,0.7-0.3,1-0.3c-0.3,0.5,0,1,0,1.5C201.5,81.8,202.6,82.6,202.2,83.1z M191.5,84h-0.2c0,0,0,0.1,0,0.1h0.2
		C191.5,84.2,191.5,84.1,191.5,84z"/>
	<path class="st5" d="M227.3,119.9c-1.5,0.2-2.6-0.7-3.4-1.8c-1.2-1.6-2.4-3.3-3.3-5.2c-1.3-2.7-2.4-5.8-4.7-8
		c-0.4-0.4-0.2-1.4-0.6-2c-0.3-0.6-0.7-2.1-2.2-1.9c-0.5,0.1-0.6-0.2-0.5-0.5c0.2-2.9-2.1-4.6-3-7c-0.3-0.8-1.1-1.5-0.7-2.5
		c0.5-1-1-2.4-1.1-3.8c0.5,0,1,0.4,1.1,0.9c1,3.2,3.6,5.5,5,8.6c0.7,1.7,1.9,3.1,2.8,4.7c1.5,2.5,3.4,4.8,3.8,7.8
		c0.2,0.8,0,1.8,1.2,2.1l0,0c0,0.7,0.1,1.4,0.9,1.5c0.9,0.2,1.4,2.1,1.9,3.3c0.1,0.3,0.2,0.8,0.8,0.5s0.4-0.5,0.3-0.9l-1-2.4
		c1.5-0.2,2.1,0.4,2.1,1.8c0.2,0.7-0.6,1.8,0.9,1.9h-0.1l0.4,0.4l0,0C227.6,118.3,228.2,119.3,227.3,119.9z"/>
	<path class="st3" d="M141.8,56.7c0.9,0.4,0.4,2.1,1.8,2c0.3,0.6,0.6,1.3,1.4,0.3c0.7-1,0.7-0.8,1.1-1.2l4.3,0.5
		c1.7,1,3.4,2.2,5.4,2.8c0.3,0.1,0.5,0.3,0.8,0.5c1.9,1.4,3.3,3.2,4.8,5c-4.5,0.3-5.8-0.7-5.8-4.5c-0.8,0.5-1.9,0.2-2.4,1.6
		c-0.6,1.2-2.1,1.7-3.3,1.2c-1.3-0.5-2.1-1.5-3.2-2.1c-0.4-0.2-1.1,0.3-1.6-0.2s0.6-0.8,0.5-1.2c-0.1-0.4-0.4-1-0.7-1
		c-1.5-0.3-2.1,1.1-2.7,2c-0.7,0.9,0.6,1,1.2,1.2c0.5,0.2,1.8,0.1,2.2,1.2H143c-0.7-0.7-1.6-0.2-2.4-0.3s-0.7-1.5-0.3-1.9
		C142.3,61,141.3,58.7,141.8,56.7z M148.4,61.8c-0.3,0-0.6-0.3-0.7,0.2s0.1,0.4,0.2,0.5C148.1,62.5,148.4,62.2,148.4,61.8
		c0.2-0.2,0.7,0,0.7-0.4c0-0.1-0.1-0.1-0.1-0.1C148.5,61.2,148.5,61.5,148.4,61.8L148.4,61.8z"/>
	<path class="st4" d="M220.4,109.3c-0.4-3-2.4-5.3-3.8-7.8c-0.9-1.6-2.1-3-2.8-4.7c-1.3-3.1-3.9-5.3-5-8.6c-0.1-0.5-0.6-0.9-1.1-0.9
		l-2-2.4c0.1-2.1-1.8-2.5-3.1-3.4c0-0.5-0.3-1,0-1.5s0.4-0.7,1-0.3c2,1.5,3.5,3.6,5,5.6c1,1.2,1.5,2.7,2.9,3.6l0,0
		c0.2,2.2,1.6,3.8,2.7,5.6l0.5-0.2c1.4,2.6,3.9,4.4,4.5,7.4h-0.4l-0.1-0.2h-0.1l0.2,0.2c0.6,3.7,3.3,6.5,4.6,9.9
		c0.3,0.7,1,1.4,2,0.6c0.3,0.1,0.6,0.2,0.9,0.3c1.7,1.2,1.7,1.2,0.7,2.7h-0.3c0-1.4-0.6-2.1-2.1-1.8l1,2.4c0.2,0.4,0.2,0.7-0.3,0.9
		c-0.5,0.2-0.7-0.3-0.8-0.5c-0.5-1.2-0.6-2.6-1.9-3.3c-0.2-0.6-0.2-1.3-0.9-1.5l0,0C221.7,110.4,221.1,109.8,220.4,109.3z"/>
	<path class="st4" d="M138.1,140.9c0,0.7,0,1.5,0,2.3c-0.9,0.9-0.5,1.8-0.1,2.7l-0.2,3.9c-0.6,1.4-0.6,3.4-3.1,2.6
		c0.2-2.3,0.2-4.6,0.1-6.9l1.2,1.4c0.6-0.9,0.8-1.9,0.6-2.9l-1.7,1.2c2-7.2,1.2-14.6,2.4-21.8c0.3-1.8,0-4.1,2.1-5.3
		c1-0.1,2.1-0.6,2.9,0.3c0.3,0.2,0.3,0.4,0,0.6c-2,0.5-3.6,4.8-2.7,7.2v0.8c-1.2,1.1-0.8,2.3-0.3,3.5l-0.1,1.9
		c-0.8,0.2-0.7,0.7-0.5,1.3v1.4c0,0.2,0,0.3,0,0.4c0,0.8,0,1.5,0,2.3c-0.5,0.2-0.5,0.5-0.1,0.7v1.2C137.9,140,138,140.4,138.1,140.9
		z"/>
	<path class="st5" d="M140.8,85.4c-1.5-3.3-4-5.4-7.2-6.9c-1.6-0.8-3.4-1.2-5-1.8c-1.4-0.5-3-0.3-4.1,0.6c0.9-2.1,2.9-2.4,4.7-2.9
		c-0.2,0.3-0.1,0.6,0.3,0.5c0.5,1,1.5,0.6,2.3,0.9c2,0.9,3.9,2,5.7,3.4c1.5,1.2,2.6,2.9,4.5,3.5l0,0c1.2,3.6,2.9,6.9,6.2,9.1
		c0.2,0.2,0.5,0.4,0.7,0.4c1.9-0.4,3.7,0,5.7-1c3.5-1.9,4.5-5,5.3-8.5c0.9,1,0.2,2.2,0.5,3.1c0,1.9-1.7,3.2-1.9,5l0,0
		c-1.1,0.2-2,0.7-2.7,1.5l0,0c-3.6,0.9-7.3,2.4-10.8-0.4c-0.1-0.1-0.2,0-0.4-0.1v-0.5c0-0.9-0.6-1.5-1.2-2.1
		C142.7,87.7,141.3,86.8,140.8,85.4z"/>
	<path class="st5" d="M211.3,29.3c1.3-1.6-0.2-2.9-0.5-4.3c0.9,0,0.9,1.4,1.9,1.2l0.3,0.1l-0.2-0.3l0.4-1.5c0.7-0.1,1.2-0.4,0.9-1.2
		c-0.3-0.9,0.2-0.9,0.7-1.1c0.6,1.5-0.2,2.8-0.8,4.1s-0.4,1.5,0.9,1.3c1.2-0.2,1.8,0,2.2,1c-0.1,1.9-0.1,1.9,1.7,3.1
		c1.1,0.8-0.6,1.5-0.2,2.4c0.1,0.2-0.7,0.3-1-0.1c-1.1-1.4-1.8-0.5-2.5,0.5h-2.2c0-0.9,0.9-1.3,1.4-2s0.9-1.2,0.3-1.7
		s-1.2,0.2-1.5,0.7c-1.7,2.4-3.3,4.8-5.1,7c-1.2,1.4-2,3.3-3.9,3.9c-0.2-0.9,0.9-1.4,0.8-2.2l0.6-0.8c0.6-0.5,1.3-1,1.4-1.9l0.4-0.4
		c0.6-0.4,1.1-0.9,1.5-1.5c1.2-1.8,2.4-3.6,3.6-5.4c0.5-0.8,1.8-1.6,1.4-2.1C213,27.9,212.3,29.7,211.3,29.3z"/>
	<path class="st1" d="M130.5,37.3c1,1.3-0.7,1.8-0.7,2.8l-0.7,0.2c-1.7-0.7-5.3,0.7-6.7,2.4c0,0.1-0.1,0.1-0.2,0.1h-0.1
		c-1.1,0.9-2.2,2.4-3.4,2.4c-2.8,0-3.9,3.1-6.5,3.2c-1.1,0.1-2.1,0.7-2.9,1.5c-1.4,1.5-4,1.4-4.8,3.7c-1.9-0.6-0.2-1.5-0.2-2.3
		c1.1-1.5,2.6-2.4,4.3-3.1s3.8-1,5.3-2.1c4.3-2.8,8.2-6.2,13.5-7c0.9-0.2,1-0.6,0.5-1.3c0.5,0,0.8-0.2,0.8-0.7l0.9-0.5l0.2,0.7
		c0,0.2,0,0.4,0,0.6s0.5-0.3,0.5-0.6L130.5,37.3z"/>
	<path class="st1" d="M143.1,64.9h2.3c0.4,0,0.8,0.3,0.8,0.7c0,0,0,0,0,0c-0.3,1.3,1.5,0.9,1.5,1.8c0,1-0.5,0.4-0.9,0.3
		c-1.7-0.5-3.5-0.9-5.3-1.2l0,0c-2.4-0.8-3.9,0.2-5,2.3v0.4l0,0l-1.5,0.5c0-0.1,0-0.3,0-0.4c3.5-2.7,2.4-6.3,2-9.8l0.9-0.3
		c0.1,0.9,0.5,1.6,1.2,2c1.7-1.7,1.4-3.6,0.5-5.5c-0.2-0.5-0.4-1.1-0.5-1.7c1.1-0.2,0.7-0.8,0.5-1.4s-0.7-1.8-0.4-2.9
		c1.5,2.2,1.9,4.7,2.6,7.1c-0.5,2,0.5,4.3-1.4,5.9c-0.3,0.3-0.4,1.3,0.3,1.9C141.4,65.1,142.2,65.6,143.1,64.9z"/>
	<path class="st5" d="M65.2,109.8c2.1-0.3,3.7-1.6,5.5-2.5c4.5-2.1,9.1-4,13.9-5.7c0.4,0.7,1.1,0.3,1.7,0.5
		c-6.3,2.2-12.5,4.8-18.5,7.8c-5.1,2.5-9.9,5.7-14.9,8.3l-0.4-0.4c0.6-1.8,2.4-2.2,3.7-3.1c2.2-1.5,4.7-2.7,7-4.1
		c0.6,0,1.3-0.3,1.7-0.8L65.2,109.8z"/>
	<path class="st4" d="M87.6,101.7l0.4,0.4c-0.1,0.1-0.5,0.2-0.2,0.5L88,102c0.4-0.1,1-0.3,1.2-0.2c0.2,0.2,0,0.8-0.2,1.2
		c-1.9,4.3-3.2,8.8-5.4,12.9c-0.5,0.9-0.7,1.8-0.6,2.8c0,1.1,0.5,2.4-1.5,2.4c-0.5,0-0.4,0.7-0.5,1.1c-0.4,1.6-2,2.5-3.6,2.1
		c0.2-0.5,0.2-1.3,0.5-1.4c2.6-0.9,2.2-3.5,3.1-5.4c2.1-4.5,4.1-9,5.5-13.7c0.2-0.6,0.3-1.3,0.3-1.9L87.6,101.7z"/>
	<path class="st4" d="M143.1,115.3l-0.8,0.2l-2.4,0.2c0.3-2.1,2.4-2.4,3.7-3.6c3.3-3.1,6.8-6,10.2-8.9c0.9-0.7,0.9-1.6,0.9-2.6
		c0.7,0.5,1.1,0.4,1.4-0.5c0.2-1,0.7-1.9,1.3-2.7c0.5-0.6,1.2-1.2,1.7,0c0.8,2.2-0.9,3.7-2,4.9c-4.1,4.1-8.4,8.1-13.2,11.4
		C143.3,114,142.4,114.4,143.1,115.3z"/>
	<path class="st5" d="M215,45.5c-1.7,3.1-2.5,6.4-2.7,9.9l-0.9-1.9c-3.1,2.5-3.1,6.1-3.1,9.8c-1-0.5-1-1.3-1.5-1.7
		c-1,0.4-0.8,1.5-1.4,2.1c-0.1-0.5-0.3-0.7-0.6-0.2s-0.4,0.9-0.9,1l-0.7-0.7c0.7-1.5,1-3.1,2.7-4.1c0.8-0.5,1.4-1.5,0.6-2.6l1-2.2
		c0.7-0.2,0.7-0.7,0.7-1.2l0.1-0.3c0.9-0.2,1-0.9,1-1.6h0.3c1.2,0.9-0.9,1.9,0,2.8c1.4-1.5,1.4-3.7,2.6-5.3c0.5-0.6-0.5-0.4-0.9-0.5
		c0.2-1.1,0.7-2.1,1.5-2.9C213.5,47.1,214.2,45,215,45.5z"/>
	<path class="st5" d="M104.2,51.3c0,0.8-1.7,1.7,0.2,2.3c-1.2,0.6-2.5,0.8-3.8,0.5c-2.7-0.4-5.5-0.8-8.1-1.7
		c-0.4-0.2-0.9-0.3-1.2-0.9s-0.7-1.4-1.7-0.9c-0.3,0.1-1.1-0.2-1.1-0.6c0.2-1.6-1.2-1.5-2-2.1c-0.9-0.5-1-0.4-1.1-0.7
		c-0.3-1.4-1.3-1.4-2.8-1.2c1-0.7,1.3-1.7,2.4-1c0.3,1.1,1.4,1.5,2.1,2.2c0.8,0.6,1.4,0.3,1.9-0.5h0l0.4,0.3l0.4,0.2
		c-0.2,2.4,2.1,2.5,3.3,3.1c2.3,1.1,5,1.5,7.4,2.2c0.6,0.2,1,0.2,1.5-0.3S103.4,51.2,104.2,51.3z"/>
	<path class="st3" d="M118.6,123c1.1-3.3,2.5-6.6,4.2-9.7c0.4-0.7,0.6-0.5,1.2-0.4c1,0.2,2,0.3,3.1,0.4c2.4,0.1,2.4,0.1,1.3,2.1
		c-1.8,1.2-3.1,2.9-4.5,4.5c-0.9,0.9-2.7,0.4-3,2.2C120.1,122.4,119.6,123.3,118.6,123z M121.8,118.3c1-0.7,2-1.2,2.8-1.9
		s0.9-0.9,0.3-1.5c-0.4-0.4-1-0.5-1.5-0.1c0,0-0.1,0-0.1,0.1C122.4,115.7,121.6,116.7,121.8,118.3z"/>
	<path class="st1" d="M214.7,22.3c-0.5,0.2-0.9,0.5-0.7,1.1c0.2,0.6-0.2,1.1-0.9,1.2l-0.7-0.5l-0.1-0.3v-0.3c2.1-1.4,0-2.6-0.1-3.9
		h0c0.7-0.1,0.8,0.9,1.7,0.9c-0.7-1.4,0.2-2.8-0.8-3.9l1.5,0.1c0.3,0.6,0,2,1.3,1.4c2.2-0.9,3.9-2.4,4.7-4.8
		c0.9-2.3,1.9-4.3,2.7-6.5l0.9,0.1c-0.2,6-3.8,10-8.1,13.6c-1.2-0.3-1.5,0.3-1.3,1.4L214.7,22.3z"/>
	<path class="st5" d="M158.1,41.8c-0.2,1.2-0.5,2.3-1.6,3.1c-1.1,0.8-0.5,2.5-1.5,3.4c-0.2,0.2-0.2,0.7-0.7,0.8
		c-0.2-4.6,0.9-9.1,1.7-13.5c0.5-2.7,1.4-5.5,2.1-8.2c0.4-0.3,0.3-0.7,0.3-1.2c0-0.1,0-0.3,0-0.4c0.7,0.9,0.5,1.9,0.3,2.7
		c-1,3.7-1.3,7.5-1.7,11.3C156.9,40.8,157.2,41.5,158.1,41.8z"/>
	<path class="st1" d="M227.3,119.9c0.9-0.6,0.3-1.6,0.6-2.4l0.3,0.1c0,0.3,0,0.7,0.1,1c0.6,1.5,2.8,2.3,3.8,1.4l-0.3-0.4
		c0-0.1,0-0.3,0-0.4h0.7c0.1,0.1,0.1,0.2,0.1,0.3c-0.3,1.6,1.1,2,2.1,2.7s1.4,0.2,1.9-0.5l0.4,0.4c-0.1,1.5,0.5,2.2,2.1,1.6
		c0.3-0.1,0.6-0.3,0.8,0.1c0.7,2,2.9,2.1,4.2,3.4c0.6,0.5,1.2,1.6,2,1.4c1.5-0.5,2,0.7,2.8,1.4c-0.2,0.3,0.3,1.2-0.7,0.8
		c-3.3-1-5.6-4.2-9.2-4.7c-1-0.2-1.9-1-2.9-1.5C233.1,123,229.8,122.2,227.3,119.9z"/>
	<path class="st3" d="M215,34.7c0.7-0.9,1.4-1.9,2.5-0.5c0.3,0.4,1.1,0.3,1,0.1c-0.4-0.9,1.3-1.6,0.2-2.4c-1.8-1.3-1.9-1.2-1.7-3.1
		c1.1,1.5,3.4,2.2,2.7,4.7c-0.7,2.4-3.4,4-4.3,6.6c0-0.6,0-1.2-0.7-1.7c-0.8,1.3-1.8,2.6-2.9,3.6c-0.5,0.1-0.6,0.3-0.6,0.8l0,0
		l-0.4,0.4l0,0l-0.8,0.4c-0.2-1.5,0-2.7,1.3-4C212.6,38.3,214.2,36.7,215,34.7z"/>
	<path class="st4" d="M77.2,124.5c-0.1,1.1-0.9,1.9-1.5,2.7c-0.6,0.9-0.6,0.8,0,1.2c-0.1,0.4-0.4,0.6-0.7,0.7l-1.2-1.5
		c-1.1,1.7-1.9,2-3.4,1.3c-0.1,0-0.3-0.1-0.3,0c-1,1.6-3.3,1.1-4.6,2.5l1.4,0.1c-1.5,0.8-3.1,1.6-4.9,0.7c-0.7-0.4-1.2,0.5-2,0.2
		c0.5-1.2,1.4-1.8,2.7-2c3.8-0.5,7-2.1,10.3-3.8L77.2,124.5z"/>
	<path class="st5" d="M199.5,75c0.1,1.2,0.9,0.7,1.5,0.6c0.6-0.1,1.1,0.9,1.3,1.6c-2.7-0.2-5.4,0.9-8.2,0.7c0,0.1,0,0.1,0,0.2
		c-0.6-0.9-0.4-1.8-0.3-2.7c0.7,0,1.2-0.8,1.8-0.8c1.5-0.1,2.6-1,2.6-2.4c0-0.7-0.5-0.5-0.9-0.6l2.4-3.6c0.3-0.3,0.5-0.7,1.1-0.6
		s-0.5,1.4,0.5,1.7c-0.5,1.5-0.7,3.1-1.8,4.4c-0.5,0.5-0.9,1.1-0.8,1.9c-1.2,0.6-2.6,0.3-3.8,1.3c1.1,0.4,2.1,0.2,3.2,0
		c1.1-0.2,0.6-0.8,0.6-1.3L199.5,75z"/>
	<path class="st4" d="M81.8,124.9c0.6-0.9,1.5-1.5,1.9-2.6s1.2-1,2-0.5l-5.3,6.5c-0.5,0.6-1.3,1-1.3,2l0,0c-0.3-0.1-0.6,0-0.8,0.3
		v0.4l0,0c-1.1,0.2-1.8,0.8-1.9,1.9l0,0c-1.4,0.2-1.9,1.4-2.7,2.3c-0.8,0.9-1.2,0.7-1.2,1.6l0,0c-0.5,0-0.8,0.2-0.8,0.8l0,0
		c-0.2,0-0.4,0.2-0.4,0.4l0,0c-1.3,0.4-2.3,1.4-2.7,2.7l0,0c-0.8-0.2-1.1,0.7-1.7,0.9c-0.3-1.9,1.5-2.4,2.4-3.4
		c3.6-4,7.4-7.8,11.2-11.7c0.4-0.4,0.7-0.8,0.5-1.4l0,0C81.4,125.4,81.7,125.2,81.8,124.9z"/>
	<path class="st5" d="M44.7,166.4c-1.1,2.3-3.2,3.8-4.8,5.7c-4.3,5.1-8.2,10.4-11.5,16.2c-0.4,0.8-1,1.5-1.8,2
		c1.5-2.8,2.9-5.3,4.3-7.7c3.5-5.7,7.7-11,12.5-15.8c0.2-0.2,0.5-0.4,0.8-0.5L44.7,166.4z"/>
	<path class="st3" d="M207.3,16.1c-0.7,0.3-1.3,0.7-1.2,1.6c-1.5,0-2.4-1.4-3.9-1.5l0,0c-0.2-0.5-0.6-0.8-1.2-0.8l0,0l-0.4-1.2
		c1-0.9,2.2-1.1,3.4-1.2c1.2,0,1.4,0.1,2-0.4l1.5-0.1l1.6,0.5h0.4v0.6c-0.2,1.2,0.2,2.2,0.8,3.2h-1.2l-0.7-1.1
		C207.7,14.5,207.5,15.4,207.3,16.1z M206,15.1c0-0.1-0.1-0.3-0.2-0.3s-0.2,0.1-0.3,0.1s0.1,0.3,0.2,0.3
		C205.7,15.2,205.8,15.1,206,15.1z"/>
	<path class="st1" d="M113.4,109.1c0.4-0.1,0.8-0.4,1.2,0.2c0.8,1.2,1.5,2.5,2.1,3.9c0.4,0.8-0.5,2.2-0.8,3.3l-0.6,0.4
		c-0.9,0.3-1.6,2.2-2.7,0.4c-0.3-2.5-0.3-5,0.2-7.4L113.4,109.1z"/>
	<path class="st4" d="M202.3,77.2c-0.2-0.7-0.5-1.4-1.3-1.6c1-1.1,2.6-1.5,3.8-1.9c2.8-0.7,4.5-3,6.9-4.2c0.9-0.4,1.5-1.2,2.1,0.2
		c0.5,1.4,2.1,0.3,2.2,1.9l-1.9-0.2l-1.3-0.2c-0.5-0.1-0.8-0.9-1.3-0.3c-0.5,0.5,0.9,0.6,0.5,1.3c-1.7-0.2-2.7,0.7-3.5,1.9l0,0
		l-2.3,0.1c-1.1,0,0,0.5,0,0.7v0.8c-0.9,0.3-1.9,0.5-1.2,1.9c-0.5,0.3-0.4,0.7-0.3,1.1c-0.9-0.3-0.4-1-0.4-1.6
		c0-0.6,0.2-1.3-0.7-1.4l-0.2-0.1l0.1,0.2v1L202.3,77.2z M213.3,69.7L213.3,69.7L213.3,69.7L213.3,69.7z M212.9,70.4L212.9,70.4
		L212.9,70.4L212.9,70.4z"/>
	<path class="st5" d="M64.4,145.8L52,159.5c-0.5,0.2-0.9,0.2-0.9-0.5c1.7-2.5,3.9-4.6,5.8-6.8c1.9-2.2,3.9-4.5,5.9-6.8
		c0.2-0.3,0.5-0.4,0.8-0.4l0.3,0.3L64.4,145.8z"/>
	<path class="st5" d="M39.8,127l-23,17l-0.5-0.7c7.8-5.5,15.1-11.7,23-17L39.8,127z"/>
	<path class="st5" d="M203.4,76.8v-1l0.1-0.1c0.9,0.2,0.7,0.9,0.7,1.4c0,0.6-0.4,1.3,0.4,1.6l0.3,0.1l0.5,0.4l5.3,7.7
		c0.4,0.6,0.9,1.1,0.8,1.9c-1.4-0.9-1.9-2.4-2.9-3.6c-1.5-2-3-4-5-5.6c-0.6-0.5-0.9-0.5-1,0.3c-0.4,0-0.9-0.1-1,0.3
		c-0.5,1.4-1.7,1.3-2.8,1.3l0,0v-0.7c0.5-0.4,1.1-0.7,1.3-1.5h-2.8c1.7-0.6,3.3-1.4,5.1-1.1C204.1,78.5,203.4,77.6,203.4,76.8z"/>
	<path class="st3" d="M175.8,28.8c0.4,0,0.8,0.2,0.9-0.4c0.1-0.5,0.9-0.8,1.5-0.7c0.7,0.2,0.3,1.2-0.2,1.7l-0.6,0.3l-1.3,0.3
		c-1.1,0.3-2.4,0.9-2,2.1s1.7,0.2,2.3-0.2c1.6-1,2.6,0.3,3.8,0.7c1.2,0.4-0.1,1.4-0.1,2.1l-0.1,0.1c-1-0.9-2.1-1.4-3.4-0.8l-0.2-0.1
		l0.2,0.1v0.4c-1.2,0-2.2-1.5-3.4-0.4c-0.7-0.1-1.4,0.3-1.9-0.3l-0.1-0.9l0.2-1L175.8,28.8z"/>
	<path class="st5" d="M175.1,88.9c-0.2,1.3-1.2,0.7-1.9,0.8c-0.3-0.5-0.8-0.3-1.2-0.3l0.1-1.2c-1.2,0.8-1.8,1.7-1.6,3.1
		c0.2,1.4,1.1,1.3,2,1.6c-2.7,1-4.7,0.5-6.6-1.6c0.3-1.4,1.7-2,2.4-3.1c0.2,0.7-0.2,2.4,1.1,1.5c1.3-0.9,2.4-1.7,2.4-3.4
		c0.1-0.3,0.3-1,0.6-0.4c0.3,0.6,1.4,0.7,2.1,0.8c0,0.2-0.1,0.5-0.2,0.7c-0.2,0.5-1.5,0.5-1.1,1.3c0.4,0.8,1.2,0,1.7,0
		C175.4,88.8,175,88.8,175.1,88.9z"/>
	<path class="st4" d="M136.7,154.4c0.3,2.1-0.4,3.6-2.2,4.5c-0.6,0.3-0.8,0.4-0.5,1.1c0.4,0.8,0.3,1.8-0.2,2.5h-0.9
		c-0.3,0-0.8-0.4-0.9,0.2s0,1,0.7,1l-0.2,1.9l-0.6,0.3c-0.8,0.5-1.5,0-2.2-0.3l-0.1-0.1c1.4-2.3,2.6-4.8,3.8-7.2
		c0.7-1.4,2.4-2.4,1.3-4.3C135.3,154.1,135.9,154.8,136.7,154.4z"/>
	<path class="st2" d="M114.3,86.2v-1.1c1.4-1.6,2.9-3.2,5-3.9c-0.7,1.4-0.2,2.9-0.6,4.3c-0.2,0.8-1.2,1-1,1.9c-0.5,0-1,0.3-1.1,0.8
		l-0.2,0.1l0.1,0.3h0.1c-1.9,1-2.2,0.9-2.4-1.2C114.3,87,114.3,86.6,114.3,86.2z"/>
	<path class="st4" d="M113.4,109.1l-0.7,0.7c-1-0.1-1.4,0.2-1.6,1.3c-0.7,3.2-1.1,6.4-1.1,9.6c-0.5-0.8-0.9-0.7-1.4,0
		c-0.3-2,0.4-3.9,0.5-5.9c0-0.8,0.3-1.6,0.2-2.3c-1-3.4,1.3-4.5,3.7-5.5C113.3,107.5,112.5,108.5,113.4,109.1z"/>
	<path class="st5" d="M120.5,105.6c-1.2,1.5-3.1,1.4-4.2-0.3c-0.5-0.8-1.4-1.3-2.4-1.3c-0.1-0.1-0.1-0.2,0-0.3v-1.2
		c2.4-1.2,3.5-1.1,5.6,0.6c0.3,0.2,0.6,0.4,1,0.5c0.5,0.1,1.1,0.2,1.1,0.9S121.4,105.6,120.5,105.6c-0.1-0.1-0.1-0.5-0.4-0.2
		L120.5,105.6z"/>
	<path class="st1" d="M87.6,101.7l-0.8,0.3l-0.7,0.2c-0.5-0.2-1.2,0.2-1.7-0.5c4-1,7.9-2.7,12-3.5c1.5-0.1,2.9-1.5,4.6-0.5
		c-1.3,0.4-2.6,0.9-3.8,1.1c-2.4,0.5-4.4,1.4-5,4c-1.4-0.5-0.7,1.3-1.7,1.4c-0.4-1,0.8-2.5-0.4-3.1
		C89.1,100.4,88.5,101.2,87.6,101.7z"/>
	<path class="st4" d="M248.7,129.9c-0.8-0.7-1.3-1.9-2.8-1.4c-0.8,0.2-1.4-0.9-2-1.4c-1.4-1.2-3.5-1.4-4.2-3.4
		c-0.2-0.4-0.5-0.2-0.8-0.1c-1.5,0.6-2.1-0.1-2.1-1.6c1.4,0,2.6,0.3,3.7,1.6c1,1.2,2.1,1.2,3.2,1.6c2.2,0.7,4.2,2.1,5.7,3.9
		C248.6,128.8,248.6,129.4,248.7,129.9z"/>
	<path class="st5" d="M215.4,40.1c0.9-2.6,3.4-4,4.3-6.6c0.6,0.2,0.9,0.7,0.6,1.2c-1.4,2.9-2.1,6.1-2.9,9.2c-0.2-1,0.7-3.6-1.8-1.2
		c-0.3,0.3-1,0.2-1.5,0.3l0.6-1.6C215.4,41.2,215.4,40.7,215.4,40.1L215.4,40.1z"/>
	<path class="st3" d="M144.2,91.9c0.1,0,0.3,0,0.4,0.1c3.5,2.8,7.2,1.3,10.8,0.4c-1.6,2.9-4.2,2.2-6.9,1.7c1.7,1.2,1.3,1.8-0.2,2.2
		c-0.8,0.2-1.4,1-1.4,1.8l-0.5,0.4c-0.4,0-0.7-0.3-0.7-0.7c0-0.1,0-0.2,0.1-0.3C146.7,95.3,145.9,93.4,144.2,91.9z"/>
	<path class="st5" d="M108.6,120.7c0.5-0.7,1-0.8,1.4,0c1.2,3.1,1.5,6.4,3.2,9.3c0.4,0.7,0.8,1.9-0.4,2.2c-1.2,0.3-1.3-0.9-1.5-1.6
		c-0.3-1.4-0.5-2.8-0.7-4.1C110.2,124.5,109.5,122.5,108.6,120.7z"/>
	<path class="st5" d="M0,157.1c5-4.4,9.5-9.3,15.4-12.5C10.3,148.7,5.2,153,0,157.1z"/>
	<path class="st3" d="M214.7,16.6l-1.5-0.1c0-0.6-0.6-0.8-0.9-1.3c-0.9-1.4-1.2-2.7,0.7-3.5c0,0,0-0.2,0-0.3s1-0.5,1.6-0.3v0.8
		c-0.3,0.1-0.6,0.1-0.6,0.5c0,0.1,0.1,0.1,0.1,0.1c0.4,0,0.4-0.3,0.4-0.6l1.3-0.5c1.1,1.5,0.2,2.9-0.3,4.3
		C215,15.6,215.1,16.4,214.7,16.6z M213.5,13.4l-0.3,0.1l0.1,0.2L213.5,13.4l0.1-0.2L213.5,13.4z"/>
	<path class="st5" d="M119.4,126.9c0.7,1.8,1.5,3.6,2.1,5.3c0.2,0.6,0.3,1.3,0.3,1.9c0,0.7,0,1.4-0.7,1.5c-0.8,0.2-1.4-0.5-1.6-1.3
		c-0.3-1.9-0.6-3.9-0.9-5.9C118.7,127.9,118.8,127.3,119.4,126.9z"/>
	<path class="st5" d="M207.6,12.6l-1.5,0.1c1-2.9,3.3-4.8,5.7-6.6l1.3,0.4c-1.1,1.8-2.9,3.2-3.4,5.5l-0.2-0.1
		C208.8,10.7,208.7,10.7,207.6,12.6z"/>
	<path class="st3" d="M182.5,24.7c1.6-1.7,3.6-3.1,5.8-3.9c0.9-0.3,1.5-1.2,2.3-1.6c-0.5,1.1,1.2,1.1,1,2.1c-0.5-0.1-1-0.1-1,0.7
		c-1-0.7-2.1-0.2-3.1,0.1c-1,0.3-1.4,1-0.3,1.9l0.4,1.4c-0.4,0.2-0.9,0-1.1-0.4c-0.6-0.9-1-0.3-1.4,0.2
		C184.3,24.9,183.3,25.4,182.5,24.7z"/>
	<path class="st3" d="M112.6,117.2c1.2,1.8,1.9-0.1,2.7-0.4l-0.3,1.5c-0.5,0.5-0.4,1,0,1.5c0.4,0.5-1,2.5,1.2,1.4
		c0,0.9-0.5,1.7-0.3,2.6l-1.7-0.1c-0.7,0-1.4-0.7-1.2-0.9C113.8,120.8,111.8,119.1,112.6,117.2z"/>
	<path class="st2" d="M191.7,21.2c0.2-1-1.5-1-1-2.1s2.1-0.9,2.8-1.8c1.8-0.1,3.5-0.1,5,1c-0.3,0.4-0.6,0.9-1.2,0.6
		c-2.4-0.8-3.5,0.9-4.7,2.5l-0.1,0.1L191.7,21.2z"/>
	<path class="st1" d="M131.7,165.9l0.7-0.3l1,0.9c-0.2,1.1-0.6,2.1-2.1,1.9c-0.6-0.1-1.3,0.4-1.6,0.9c-1.1,1.7-2.6,3.1-4.1,4.5
		c-1.6-1,0.2-1.3,0.4-2c1.1-1.6,3.1-2.6,3.8-4.5c0.3-0.5,0.7-0.3,1.2-0.2C132.1,167.4,131.9,166.6,131.7,165.9z"/>
	<path class="st1" d="M182.5,24.7c0.8,0.7,1.7,0.2,2.6,0.4c0.8,0.6,1.8,1,2.7,1.2l0,0l0.4,0.5l1.1,1c0.2,0.3,0.5,0.4,0.8,0.4h0
		l0.5,1l-0.2,0.2c-1.2-0.2-1.8-1.5-3-1.6c-0.3-0.3-0.5-0.6-0.8-0.8c-0.3-0.2-1-1-1.7-0.5c-0.6,0.5-0.2,1,0.2,1.5
		c0.4,0.5-0.2,0.6-0.5,0.7h-0.3c-0.1-1-0.7-1.2-1.5-1.2c-0.3-1.4,1.2-0.3,1.3-1.1c-1.1-0.9-2.3-0.7-3.6-0.4
		C181,25.1,181.8,24.9,182.5,24.7z"/>
	<path class="st5" d="M225.4,112.2c-1,0.8-1.7,0.1-2-0.6c-1.3-3.4-4-6.2-4.6-9.9h0.3c1.5,2.7,2.9,5.3,4.4,8.1
		C224,110.7,224.6,111.5,225.4,112.2z"/>
	<path class="st4" d="M129.7,167.2c-0.7,1.9-2.7,2.9-3.8,4.5l-1.9-0.4c0.2-1.4,1.4-1.7,2.3-2.4c1.2-1,2.3-2.1,3.1-3.4l0.1,0.1
		C129.6,166.2,128.6,166.8,129.7,167.2z"/>
	<path class="st3" d="M172.5,92.9c-0.8-0.3-2.1-0.2-2-1.6c0.7-0.5,1.4-0.9,1.5-1.9c0.4,0,0.9-0.2,1.2,0.3c0.3,0.4-0.3,1.5,1.1,1.5
		c0.6,0,1.3,1,1.9,1.6C175,93.4,173.7,92.5,172.5,92.9z"/>
	<path class="st1" d="M214,43c0.5-0.1,1.2,0,1.5-0.3c2.5-2.3,1.6,0.3,1.8,1.2c-0.1,0.3,0,1.3-0.4,0.9c-1.4-1.4-1.4,0.3-1.9,0.7
		c-0.8-0.5-1.4,1.6-2.3,0.2l0.8-2.2L214,43z"/>
	<path class="st5" d="M48.5,120.9c-2.1,2.1-4.9,3.4-7.3,5.1c-0.2,0.1-0.5,0.1-0.7-0.1c-0.3-0.5,0.2-0.6,0.5-0.8l7.9-5.5L48.5,120.9z
		"/>
	<path class="st4" d="M51.2,159c0,0.7,0.3,0.7,0.9,0.5c-1.7,1.9-3.6,3.7-5.5,5.3l-0.5,0.4l0,0c-0.8,0-1.1,0.5-1.4,1.2h0l-0.5-0.2
		c0.2-1.4,1.4-2.1,2.2-2.9C47.9,161.7,49.5,160.3,51.2,159z"/>
	<path class="st4" d="M119.4,126.9c-0.6,0.4-0.7,1-0.9,1.6c-0.4-0.1-0.7-0.3-0.6-0.8c0.2-1.4-0.6-2.5-0.9-3.8c0.7-0.6,0.6-1-0.3-1.3
		c0-0.7,0.6-1.3,0.3-2c0-0.1,0-0.2,0-0.3c0.9-0.2,1-1.2,1.7-1.6l0.2-0.1c0.3,1.6-1.3,2.8-1,4.5c0,0.7,0.4,0.4,0.8,0.4
		C118.4,124.7,119.2,125.7,119.4,126.9z"/>
	<path class="st5" d="M214.7,16.6c0.4-0.2,0.3-1,0.9-1c1.4,0.5,2-0.8,2.9-1.2c0.7-0.4,1.4-0.8,2.1-1.2c-0.9,2.3-2.6,3.8-4.7,4.8
		C214.7,18.6,215,17.2,214.7,16.6z"/>
	<path class="st5" d="M66.7,131.6l-1.4-0.1c1.4-1.4,3.6-0.9,4.6-2.5c0,0,0.2,0,0.3,0c1.5,0.7,2.2,0.4,3.4-1.3l1.2,1.5l-0.1,0.1
		l-0.4,0.1l-0.7-0.1l-0.4,0.3c-0.7,0.3-1.1,1.2-2,1.3h-0.8l-0.4-0.2c-0.3-0.4-0.5-0.3-0.8,0L66.7,131.6z"/>
	<path class="st5" d="M202.6,81.6c1.3,0.9,3.2,1.2,3.1,3.4l-0.4,0.5c-0.1-0.2,0.2-0.5-0.3-0.4l0.3,0.4l0.4,1
		c-1.7-0.6-2.1-2.5-3.5-3.4C202.6,82.6,201.5,81.8,202.6,81.6z"/>
	<path class="st1" d="M198.7,75.4c-0.1-0.8,0.3-1.4,0.8-1.9c1.1-1.3,1.3-2.9,1.8-4.4l0.2-0.3c1.1,0,0.7,1.4,1.5,1.6l0.1,0.8
		c-2.4,0.2-2.1,2.8-3.5,3.9L198.7,75.4L198.7,75.4z"/>
	<path class="st5" d="M208.4,74.1c0.8-1.3,1.9-2.2,3.5-1.9c0.4-0.7-1.1-0.7-0.5-1.3c0.6-0.6,0.9,0.2,1.3,0.3l1.3,0.2l-0.3,0.4
		l-0.3,0.2l-0.2,0.2l-0.2,0.3c-0.5,0.6-1,1.4-2,1.2C210.1,72.8,209.3,74.5,208.4,74.1z"/>
	<path class="st1" d="M198.4,18.4c-1.5-1.2-3.3-1.2-5-1l3.1-1.8c-0.3,1,0.3,1.3,1.1,1.6c1.5,0.5,2.7,1.5,3.5,2.7l-0.1,0.2l-1.1-0.5
		L198.4,18.4z"/>
	<path class="st1" d="M213.1,6.5l-1.3-0.4c1.3-1.6,3.2-2.4,5.1-3.2L213.1,6.5z"/>
	<path class="st5" d="M236.4,121.7c-0.5,0.6-1.2,1-1.9,0.5c-0.8-0.6-2.3-1.1-2.1-2.7c0.8,0.3,1.7,0.7,2.5,1
		C235.7,120.7,236.3,120.9,236.4,121.7z"/>
	<path class="st5" d="M214.7,94.3l-0.5,0.2c-1.1-1.8-2.5-3.4-2.7-5.6C214.3,89.7,213.8,92.4,214.7,94.3z"/>
	<path class="st5" d="M124,171.4l1.9,0.4c-0.2,0.6-2,1-0.4,2c-0.4,0.9-0.4,1.8-1.1,2.7c-0.5-0.7-0.5-1.4-0.5-2.1
		c0-0.7,0.5-1.3-0.7-1c-0.4,0.1-0.5-0.5-0.2-0.9C123.3,172.1,123.6,171.7,124,171.4z"/>
	<path class="st5" d="M136.7,154.4c-0.9,0.4-1.5-0.3-2.2-0.5l0,0c0-0.4,1.4-0.8,0-1.1l0.3-0.5c2.5,0.8,2.4-1.3,3.1-2.6
		c1,0.7,0.3,1.4,0,2.1C137.6,152.5,137.1,153.5,136.7,154.4z"/>
	<path class="st4" d="M232,119.9c-1,0.9-3.2,0.1-3.8-1.4c-0.1-0.3-0.1-0.6-0.1-1c0.7,0,1.5-0.1,1.9,0.6c0.1,0.3,0.4,0.5,0.8,0.5l0,0
		c0.1,0.3,0.5,0.5,0.8,0.4l0,0v0.4L232,119.9z"/>
	<path class="st4" d="M89.1,46.8c-0.5,0.7-1.2,1-1.9,0.5c-0.7-0.5-1.8-1-2.1-2.2l0.1,0.1l0.5-0.3C87,45.2,88.4,45.4,89.1,46.8z"/>
	<path class="st1" d="M213,11.4c0,0.1,0,0.3,0,0.3c-1.9,0.9-1.5,2.2-0.7,3.5h-0.4l-0.8-0.3l-1.5-1.3v-1.2L213,11.4z"/>
	<path class="st5" d="M122.4,42.7c1.4-1.8,5-3.1,6.7-2.4L122.4,42.7z"/>
	<path class="st1" d="M205.8,86.5l-0.4-1l0,0l0.4-0.5l2,2.4c0,1.4,1.4,2.3,1.1,3.8C207.2,89.9,206.7,88.1,205.8,86.5z"/>
	<path class="st1" d="M203.8,64.5c0.5-0.2,0.7-0.7,0.9-1c0.3-0.4,0.5-0.3,0.6,0.2l-2,4.7c-0.6-0.5-0.2-1.3-0.4-1.9L203.8,64.5z"/>
	<path class="st5" d="M139.9,115.6l2.4-0.2c-1.5,0.9,0,1.9,0,2.8c-0.9-1-1.9-0.4-2.9-0.4C139.7,117.2,139.9,116.4,139.9,115.6z"/>
	<path class="st1" d="M208.4,74.1c1,0.4,1.7-1.3,2.7-0.3l-2.6,1.5l-0.4,0.3l-0.1,0.1c-0.4,0-0.9,0-1,0.5l0,0l-0.9-0.5V75
		C206.9,74.9,208,75.4,208.4,74.1L208.4,74.1z"/>
	<path class="st3" d="M133.4,166.4l-1-0.9l0.2-1.9c0.3-0.4,0.8-0.3,1.2-0.3l0.7,1.7L133.4,166.4z"/>
	<path class="st5" d="M150.3,58.4l-4.3-0.5c0.5-0.5,0.7-1.4,1.6-1.5c0.3,1.1,1.4,0.5,2.1,0.8l0,0l0.2,0.2l0.3,0.2l0.5,0.3
		L150.3,58.4z"/>
	<path class="st5" d="M248.7,129.9c0-0.5-0.2-1.1,0.7-0.7c1.4,1.4-0.1,2.2-0.7,3.2c-0.5-0.5-0.4-1.2-0.7-1.7
		C249.1,131.1,248.6,130.2,248.7,129.9z"/>
	<path class="st5" d="M206.1,75.8l0.9,0.5c-0.3,1-0.3,2.4-2,1.4C204.2,76.3,205.2,76,206.1,75.8z"/>
	<path class="st1" d="M48.5,120.9l0.4-1.3c1.3-0.3,2-1.6,3.4-1.7l0.4,0.4L48.5,120.9z"/>
	<path class="st5" d="M134.9,145.1l1.7-1.2c0.2,1,0,2.1-0.6,2.9l-1.2-1.4L134.9,145.1z"/>
	<path class="st5" d="M224.3,6.8l-0.9-0.1l0.7-3.1C224.7,4.6,224.8,5.8,224.3,6.8z"/>
	<path class="st5" d="M202.9,66.4c0.2,0.6-0.2,1.4,0.4,1.9l-0.4,2c-0.8-0.2-0.4-1.6-1.5-1.6L202.9,66.4z"/>
	<path class="st1" d="M64.4,145.8l-0.5-0.5l-0.1-0.4h0c1-0.4,1.8-1,2-2.2c0-0.1,0-0.2,0.1-0.3l0.7,0.3h0
		C66.7,144.3,65.4,144.9,64.4,145.8z"/>
	<path class="st1" d="M68.7,140.8c0.4-1.3,1.4-2.3,2.7-2.7C71,139.5,69.9,140.3,68.7,140.8z"/>
	<path class="st4" d="M168.2,3c-1.8-1.4,0.2-1.6,0.7-2.3c0.3-0.1,0.7,0.1,0.8,0.4c0,0,0,0,0,0.1l-0.1,0.3L168.2,3z"/>
	<path class="st1" d="M200.7,14.2l0.4,1.2c-1.2-0.2-2.2-0.5-3.4-0.4C198.5,14.1,199.6,14,200.7,14.2z"/>
	<path class="st5" d="M73.7,135.4c0.8-0.9,1.4-2.1,2.7-2.3c-0.3,1.3-1.4,1.9-2.3,2.7L73.7,135.4z"/>
	<path class="st1" d="M226.6,115.2h0.3c1.2,0.3,0.5,1.2,0.5,1.9C226.1,117,226.8,115.9,226.6,115.2z"/>
	<path class="st4" d="M65.9,142.7c-0.2,1.2-1,1.8-2,2.2C63.9,143.6,65,143.2,65.9,142.7z"/>
	<path class="st1" d="M66.9,141.7c0.7-0.1,0.9-1.1,1.7-0.9c-0.3,1-0.9,1.7-2,1.9h0l0.1-0.9L66.9,141.7z"/>
	<path class="st1" d="M117.1,120.6c0.3,0.7-0.3,1.3-0.3,2v1c-0.2,0.3-0.5,0.4-0.8,0.3c-0.2-0.9,0.3-1.7,0.3-2.6
		S116.7,120.7,117.1,120.6z"/>
	<path class="st5" d="M76.4,133.1c0.2-1.2,0.8-1.8,1.9-1.9C78,132.1,77.6,132.9,76.4,133.1z"/>
	<path class="st4" d="M134.5,152.8c1.4,0.3,0.1,0.7,0,1.1c0,0.4-0.9,0.2-0.9-0.3C133.6,153.2,134.2,153.1,134.5,152.8z"/>
	<path class="st1" d="M73.7,135.4l0.4,0.4c-0.5,0.4-0.6,1.4-1.5,1.2C72.5,136.1,73.2,135.8,73.7,135.4z"/>
	<path class="st5" d="M214.8,21.7c-0.2-1.1,0.1-1.7,1.3-1.4L214.8,21.7z"/>
	<path class="st4" d="M64.8,109.9c-0.4,0.5-1.1,0.7-1.7,0.8C63.1,109.2,64.2,110.1,64.8,109.9z"/>
	<path class="st3" d="M151.1,52.9c0,0.8-0.4,1.2-1.2,1.1C150.1,53.5,150.6,53.1,151.1,52.9z"/>
	<path class="st5" d="M44.7,166.4c0.2-0.7,0.6-1.2,1.4-1.2C45.8,165.9,45.6,166.5,44.7,166.4z"/>
	<path class="st4" d="M232.4,119.1h-0.7c-0.2-0.3-0.5-0.3-0.8-0.4l0,0c0-0.1,0-0.2,0-0.3C231.5,118.4,232.3,118.1,232.4,119.1z"/>
	<path class="st4" d="M66.8,141.8l-0.1,0.9l-0.7-0.3C66,141.9,66.2,141.5,66.8,141.8z"/>
	<path class="st1" d="M214.6,11.9v-0.8c0.5-0.1,0.9-0.2,1.3,0.2L214.6,11.9z"/>
	<path class="st5" d="M116.7,123.5v-1c0.9,0.3,0.9,0.7,0.3,1.3L116.7,123.5z"/>
	<path class="st1" d="M71.8,137.7c0-0.6,0.2-0.8,0.8-0.8C72.8,137.7,72.4,137.9,71.8,137.7z"/>
	<path class="st4" d="M158.5,26.2c0,0.4,0.1,0.9-0.3,1.2C158.1,26.9,158.1,26.5,158.5,26.2z"/>
	<path class="st4" d="M133.7,34.3c-0.4,0.1-0.8,0.1-1.2-0.2C132.9,33.9,133.4,34,133.7,34.3z"/>
	<path class="st5" d="M209.6,12.5v0.5h-0.4c-0.1-0.4,0.1-0.9,0.3-1.2l0.2,0.1L209.6,12.5z"/>
	<path class="st3" d="M118.7,123.5c-0.3,0-0.8,0.2-0.8-0.4l0.7-0.1L118.7,123.5z"/>
	<path class="st5" d="M207,76.2c0.1-0.5,0.6-0.5,1-0.5C207.7,76.1,207.3,76.1,207,76.2z"/>
	<path class="st4" d="M205.5,79.2l-0.5-0.4C205.1,79,205.8,78.6,205.5,79.2z"/>
	<path class="st4" d="M70.6,130.8h0.8C71.1,131.1,70.9,131.2,70.6,130.8z"/>
	<path class="st1" d="M78.4,130.7c0.1-0.3,0.5-0.5,0.8-0.3l-0.4,0.4L78.4,130.7z"/>
	<path class="st4" d="M69.4,130.7c0.2-0.3,0.5-0.4,0.8,0H69.4z"/>
	<path class="st4" d="M73.3,129.5l0.4-0.3C73.6,129.4,73.8,129.9,73.3,129.5z"/>
	<path class="st5" d="M230.9,118.4c0,0.1,0,0.2,0,0.3c-0.3,0-0.7-0.2-0.8-0.5L230.9,118.4z"/>
	<path class="st3" d="M148.8,55.2l-0.3,0.4C148.4,55.4,148.5,55.2,148.8,55.2C148.7,55.2,148.8,55.2,148.8,55.2z"/>
	<path class="st5" d="M208,75.6l0.4-0.3L208,75.6z"/>
	<path class="st1" d="M71.4,138.1c0-0.2,0.2-0.4,0.4-0.4C71.9,138.1,71.8,138.2,71.4,138.1z"/>
	<polygon class="st5" points="122.1,42.8 122.2,42.8 122.2,42.9 	"/>
	<path class="st5" d="M78.4,130.7h0.4l-0.4,0.4V130.7z"/>
	<path class="st5" d="M124.4,77.3l-0.3,0.4C124,77.5,124.2,77.3,124.4,77.3C124.4,77.3,124.4,77.3,124.4,77.3z"/>
	<path class="st5" d="M123.7,78c0,0.1,0,0.2-0.1,0.2c0,0-0.1,0-0.1,0C123.4,78,123.5,77.9,123.7,78z"/>
	<path class="st4" d="M74.4,129.3l0.4-0.1C74.7,129.5,74.6,129.5,74.4,129.3z"/>
	<path class="st5" d="M46,165.2l0.5-0.4C46.5,165,46.3,165.2,46,165.2C46,165.2,46,165.2,46,165.2z"/>
	<path class="st5" d="M85.7,44.9l-0.5,0.3C85.2,44.9,85.4,44.8,85.7,44.9z"/>
	<path class="st4" d="M213.5,72.1l0.3-0.2L213.5,72.1z"/>
	<path class="st4" d="M213.1,72.6l0.2-0.3L213.1,72.6z"/>
	<path class="st4" d="M89.6,47.1l-0.4-0.3L89.6,47.1z"/>
	<path class="st4" d="M63.9,145l0.1,0.4l-0.3-0.3C63.7,145,63.8,145,63.9,145z"/>
	<path class="st3" d="M149.5,54.4l-0.4,0.4L149.5,54.4z"/>
	<path class="st1" d="M227.8,117.6l-0.4-0.4L227.8,117.6z"/>
	<path class="st1" d="M114,103.2v0.5c0-0.1-0.1-0.2-0.1-0.3C113.8,103.3,113.9,103.2,114,103.2z"/>
	<polygon class="st5" points="179,23.1 179.1,23.2 179,23.1 	"/>
	<path class="st5" d="M136.1,108.6L136.1,108.6L136.1,108.6L136.1,108.6z"/>
	<path class="st2" d="M119.5,81.2L119.5,81.2z"/>
	<path class="st1" d="M180.6,25.8c-0.1,0.2-0.3,0.3-0.5,0.3c0,0,0,0,0,0L180.6,25.8z"/>
	<path class="st5" d="M154.3,49.6v0.2h-0.1L154.3,49.6z"/>
	<path class="st2" d="M146.1,65.6c0-0.4-0.3-0.8-0.8-0.8c0,0,0,0,0,0c-0.4-1-1.4-0.9-2.2-1.2s-1.7-0.6-1.2-1.2
		c0.5-0.7,1.2-2.3,2.7-2c0.3,0,0.6,0.7,0.7,1s-1.3,0.4-0.5,1.2c0.9,0.8,1.2-0.1,1.6,0.2c1.1,0.6,1.9,1.5,3.2,2.1
		c1.2,0.6,2.7,0.1,3.3-1.2c0.5-1.4,1.5-1.1,2.4-1.6c0,3.8,1.3,4.8,5.8,4.5v0.1c-0.8,1.1-0.2,2.3,0,3.4c1.4-0.5,1.7,1,2.7,1.5
		s1,1.7,0.3,2.6c-1.9,2.5-1.9,3-0.3,5.5c-0.4,0.7-1.2-0.4-1.6,0.3c-1.1-0.4-1.5-1.8-2.7-2l-0.1-0.3l-0.3-0.5c-1.4-2.5-2.7-5.2-5.1-7
		c-1-0.7-1.9-1.9-3.3-1.9C149.9,66.5,147.6,66.6,146.1,65.6z"/>
	<path class="st3" d="M141.4,66.5c1.8,0.4,3.5,0.8,5.3,1.2c0.4,0.1,0.7,0.2,0.9-0.2l2.7,1.7c0.8,1.6,2.2,2.7,3.5,3.7
		c2.6,1.9,4.5,4,5.6,7.2c-3.3-0.6-0.5,1.8-1.1,2.4c-0.6,0.5-0.5-1.4-1.4-0.4c-0.9,1-1.6,1.3-0.3,2.6c-3.4-0.2-4.8,2.6-7.2,3.8
		c-0.5-0.7-0.8-1.7-0.7-2.6c0.6-0.7,1.8,0.3,2.1-0.7c0.3-1,1.2-2.4-0.9-2.8c-0.5-0.1-0.9-0.4-0.8-0.9c0-0.5,0.7-0.6,1.2-0.6
		c0.5,0,1.2,0.2,1.8,0.5c1,0.5,2.1,0.1,2.6-0.9c0.7-1.2-0.5-1.3-1.2-1.8c1.2-0.6,1.7-1.2,0.3-2.1c-0.3-0.2-0.7-0.4-0.7-0.6
		c-0.3-1.5-1.2-2.1-2.5-2.9c-1.3-0.7-2.7-2.4-4.1-3.6c-0.9,0.7-1,1.5-0.3,2.4c0.8,0.9,0.1,1.4-0.8,1.9c0-1.3-1.6-2.3-0.5-3.8
		c0.1-0.2-0.5-0.9-0.8-1.2c-0.3-0.4-0.6-0.5-1-0.2c-0.4,0.3,0,0.5,0.1,0.8c0.1,0.3,0.7,1.4-0.7,1.1c-0.5-0.1-0.8,0-0.3,0.7
		c0.5,0.7-0.3,1.2-0.7,2.3c-0.6-1.9-2.5-2.6-2.7-4.5c0-0.3-1.4-0.5-1.5,0.7c-0.1,1.1-0.4,1.3-1.3,1.4c-0.4-0.7,0.3-1.2,0.1-1.8l0,0
		c0.3-0.1,0.3-0.3,0-0.4C137.4,66.7,139,65.7,141.4,66.5l0.1,0.1L141.4,66.5z"/>
	<path class="st3" d="M180.9,72.3c-0.6,0-1.2,0.2-1.5,0.6c-0.6,0.7-1.2,0.7-2,0.2c-0.8-0.5-2-1.1-1.5,0.9c0.7,1.2,1.9,1.6,3.1,2.1
		c-0.7,2-2.3,0.7-3.4,1c-1.7-0.4-4.4,1.3-5.1,3.1c-0.5,0-1.2,0.2-0.9-0.9c0.3-1,0.5-1.9,1.4-2.4c0.5-0.2,0.8-0.9,0.5-1.4
		c1.2-1,2.7-1.9,2.7-3.8c1-0.7-0.2-1.6,0.2-2.4c0.4-0.8,0.8-1.3,0.6-2.1c-0.2-0.8-0.3-0.7,0.1-0.8c0.4-0.1,0.6,0.2,0.7,0.6
		c0.3,1.1,1.2,1.7,1.9,0.8c0.7-0.9,2.7-0.9,2.3-2.8c0.3-0.1,0.6-0.2,0.9-0.3h0.4C181.8,67.1,181.6,69.7,180.9,72.3z"/>
	<path class="st4" d="M175.1,88.9c-0.1-0.1-0.2-0.2-0.3-0.2c-0.1,0-1.4,0.6-1.7,0c-0.3-0.7,0.8-0.7,1.1-1.3c0.1-0.2,0.1-0.5,0.2-0.7
		c0.6-0.6,1.3-0.3,1.9-0.3c0.4,0.5,0.8,0.1,1.2-0.1c5.2-1.8,10.3-4.2,15.7-5.5c1-0.2,2.2-0.3,2.9-1.3l1.1-0.1h2.8
		c-0.2,0.8-0.7,1.2-1.3,1.5l-4.6,0.8c-1.2,0.6-2.7,0.5-3.5,1.9l-1.1,0.5c-4.4,2.1-8.9,3.7-13.6,4.9L175.1,88.9z"/>
	<path class="st5" d="M187.5,62.2c2.1-1,2.7-3.1,3.5-5c1.8-1.9,3.1-4.3,5.3-5.8c1-0.7,1.6-2.1,2.4-3.1c0.9,0,0.9-1.3,1.9-1.2
		c0.1,0.5-0.1,0.9-0.5,1.4c-3.1,3.4-5.7,7.2-8.9,10.7c-1.6,1.7-2.8,3.8-4.2,5.7c-0.3,0.4-0.4,0.8,0,1.2c0.3,0.4,0.7-0.1,0.9-0.1
		c1,0.2,1.7-0.7,2.6-0.7l0.5,1.6c-0.5,0.7-1.1,1.1-2,1.1c-0.3,0.1-0.5,0.4-0.4,0.7l-1.5,0.1c-0.7,0.1-0.7,0.9-1.2,1.2l-0.4-1.2l0,0
		c1.2-0.3,0.9-1.3,0.7-2c-0.3-0.8-0.3-1.7-0.2-2.6c0.6-0.4,0.8-1,1-1.6L187.5,62.2z"/>
	<path class="st3" d="M187.5,62.2l-0.4,0.4c-1.1-1.3-2.7-0.3-4-0.9c-0.5-0.2-0.5-0.1-0.4,1.4c0.9-0.1,1.6-0.9,2.6-0.4
		c-2,2.1-1.1,5.2-2.8,7.4c-0.7-1.8-0.1-3.7-0.3-5.5c-0.1-0.9-0.5-1.7-0.3-2.6s1.6-1.5,2-2.2c0.9-1.5,1.7-2.3,3.4-1.8
		c0.7,0.6,1.8,0,2.6,0.9C188.3,59.5,187.8,60.8,187.5,62.2z"/>
	<path class="st5" d="M143.1,115.3c-0.7-0.9,0.1-1.3,0.7-1.7c4.8-3.3,9.1-7.3,13.2-11.4c1.2-1.2,2.8-2.7,2-4.9
		c1,0.1,0.7,1.6,1.9,1.6l-0.4,1.2c-0.5,0.2-0.4,0.7-0.4,1.1h0c-2.4,1.2-3.8,3.6-5.7,5.3c-1.9,1.7-3,3.6-5.4,4.5
		c-1.4,0.5-2.1,1.7-2.9,2.6C145.3,114.6,144.1,114.8,143.1,115.3z"/>
	<path class="st5" d="M174.2,71.5c0,1.9-1.5,2.7-2.7,3.8c-1.4,0.2-3,0.3-2.9,2.4l-2.5,4.7c-0.7,1.4-1.7,2.4-3.3,2.7
		c-1.5,0.3-0.9-1.5-1.2-2.3c-0.1-1.6,1-1.1,1.9-1.1c0,0.3-0.2,0.8,0,0.9c0.2,0.1,0.8,0,1.1-0.4c1.5-1.9,2-4.5,3.8-6.2
		c0.1-0.1-0.1-0.3-0.1-0.5c0-0.1,0-0.3,0-0.4c0.7-0.5,2,0.1,2.3-1.2c1.6,0,2.2-1.3,3.1-2.3L174.2,71.5z"/>
	<path class="st5" d="M196.1,79.4c-0.7,0.9-1.9,1-2.9,1.3c-5.4,1.3-10.5,3.7-15.7,5.5c-0.4,0.2-0.8,0.6-1.2,0.1v-0.7
		c5.8-2.3,11.6-4.3,17.5-6.1c0.4-0.1,0.9-0.2,1.1-0.6L196.1,79.4z"/>
	<path class="st3" d="M162.7,85c1.5-0.3,2.6-1.4,3.3-2.7l2.6-4.7c0.9,1.6,0.6,3-0.7,4.2s-1.1,1.7,0,2.5c0.3,0.2,0.9,0.5,0.4,1
		s-0.7,0.3-1,0s-1.2,0-1.7,0.1C164.9,85.7,163.4,86.4,162.7,85z"/>
	<path class="st3" d="M186.1,64.2c-0.1,0.9-0.1,1.8,0.2,2.6c0.2,0.7,0.5,1.7-0.7,2c0-0.3,0.1-0.8-0.3-1c-0.5-0.2-0.3,0.2-0.3,0.3
		c0,0.2,0.3,0.6,0.7,0.7l0.4,1.2c-0.3,1-0.3,1.6,1.1,1.6s2.9,0.1,4.3,0c-2.1,1.3-4.3,1.2-6.5,0.7l-0.4-0.8c0.1-2.4-0.5-4.8,0.7-7
		C185.4,63.9,185.6,63.7,186.1,64.2z"/>
	<path class="st5" d="M170.5,80c0.7-1.8,3.4-3.4,5.1-3.1c-0.7,0.9-0.6,2.5-2.3,2.4c0.1,1-0.9,1.4-1.2,2.2c-0.3,0.8-1.2,1.4-2.3,1.2
		C170.1,81.8,170.6,81,170.5,80z"/>
	<path class="st3" d="M158.1,90.9c0.2-1.9,1.9-3.1,1.9-5c0.6,0,1.2,0,1.2,0.9s0.5,1.2,1.2,1.5l-0.4,1.2c-0.5,0-0.9,0-1.2,0.6
		C159.8,92.2,159.7,92.2,158.1,90.9z"/>
	<path class="st3" d="M191.4,73c-0.9,1.2-2.3,1.7-3.4,2.6c-0.5-0.8-0.6,0.1-0.9,0.3c-1,0.7-1.9,1.4-3.1,0.6l0.5-0.7
		c0.3-0.2,0.5-0.6,0.4-0.9v-0.1l2.4-0.5C188.8,74.3,189.9,73,191.4,73z"/>
	<path class="st5" d="M187.2,74.2l-2.4,0.5c-0.1-0.3,0-0.7-0.4-0.7c-0.4,0-0.3,0.5-0.4,0.9c-0.1,0.3-1.3-0.1-1.9,0.1
		c-0.6-2.1,1.4-2.5,2.3-3.6l0.4,0.8c-0.2,0.1-0.3,0.2-0.5,0.3c-0.1,0.1,0,0.4,0.3,0.5C185.7,73.2,186.7,73.3,187.2,74.2z"/>
	<path class="st4" d="M171.7,86.2c0,1.7-1.3,2.8-2.4,3.4c-1,0.7-1-0.8-1.1-1.5C168.6,86.1,170.1,86.2,171.7,86.2z"/>
	<path class="st3" d="M163.5,81.7c-0.9,0-2-0.5-1.9,1.1c-0.6,0-1.2,0-1.1-0.9c0.1-0.8-0.6-2.6-0.8-3.8c1.2,0.2,1.7,1.5,2.7,2
		C162.8,80.5,164.5,80.2,163.5,81.7z"/>
	<path class="st3" d="M144,84.4c0.6,0.2,2-1.1,1.7,0.9c0.7,0.2,1.5,0.4,2.2,0.5c0.2,0.7,0.3,1.4-0.6,1.7c-0.8,0.3-1.7,0-2.2-0.7
		C144.6,86.3,144.2,85.4,144,84.4z"/>
	<path class="st4" d="M158.1,94.3c-1.6,0.5-1.9,1.8-2.3,3.2c-0.1,0.5-0.2,1.5-1.1,1.1c-0.6-0.2-0.9-0.8-0.7-1.4
		c0-0.1,0.1-0.3,0.2-0.4c1-1.3,1.8-2.8,3.5-3.3L158.1,94.3z"/>
	<path class="st5" d="M182.1,64.6c0.3,1.8-0.3,3.7,0.3,5.5c-0.3,1.3-0.5,2.7-1.5,3.8h0v-1.5c0.7-2.5,0.9-5.1,0.5-7.7H182.1z"/>
	<path class="st4" d="M182.2,75.1c0.6-0.2,1.3,0.4,1.9-0.1h0.4v0.8l-0.5,0.7l-0.2,0.1c-0.7,0.3-0.8,1.9-1.8,1.2
		C181.1,77.1,181.6,75.9,182.2,75.1z"/>
	<path class="st5" d="M150.4,69.2l-2.7-1.7c0-1-1.8-0.6-1.5-1.8c1.5,1,3.7,0.9,4.6,2.7C150.4,68.6,150.4,68.9,150.4,69.2z"/>
	<path class="st3" d="M169.7,82.7c1.1,0.3,1.5-0.8,2.3-1.2c0.3,1.3,0.9,0.4,1.3,0.1c0.4-0.3,0.8-0.7,1.1-0.3s-0.2,0.9-0.5,1.2
		c-1.1,0.9-2.5,0.8-3.8,1.2C169.6,83.9,169.8,83.1,169.7,82.7z"/>
	<path class="st5" d="M162,89.3l0.4-1.2c0.4-0.1,0.8-0.3,1.2-0.5c0.4-0.2,0.7-1,1.2-0.4c0.5,0.6,0.2,1.1-0.2,1.5
		C164.2,89.3,163.1,90.1,162,89.3z"/>
	<path class="st3" d="M160.4,100.1l0.4-1.2c0.9-0.8,0.1-1.9,0.5-2.7c1.4,2.1,0.2,3.9-0.6,5.7c-0.5,0.1-0.6-0.3-0.7-0.7h0
		C160.5,101,160.4,100.6,160.4,100.1z"/>
	<path class="st5" d="M178.9,75.9c-1.2-0.4-2.4-0.8-3.1-2.1C177.3,73.9,178.7,74,178.9,75.9z"/>
	<path class="st5" d="M158.1,94.3l-0.4-0.8c0.1-0.6,0.4-0.9,1-0.8s0.7,0.5,0.6,0.7C159.3,93.6,158.6,94.1,158.1,94.3z"/>
	<path class="st3" d="M155.4,92.4c0.7-0.8,1.6-1.4,2.7-1.5C157.6,92.1,156.5,92.3,155.4,92.4z"/>
	<path class="st3" d="M159.3,77.3l0.3,0.5L159.3,77.3z"/>
	<path class="st5" d="M180.9,73.9l-0.2,0.2L180.9,73.9L180.9,73.9z"/>
	<path class="st3" d="M143,83.5l0.2,0.2l-0.1,0.1C143,83.8,143,83.7,143,83.5z"/>
	<path class="st5" d="M113.2,86.4c0.2-0.1,0.8,0.4,1.1-0.2c0,0.4,0,0.8,0,1.1c0.2,2.2,0.5,2.3,2.4,1.2c0.6,0.5,1.4-0.5,2,0.5
		c-1.1-0.2-1.6,0.6-1.9,1.3s-1.3,1.8-2.6,2.1c-1.2,0.2-1.5,0.7-1.2,1.4c0.2,0.7,1.2,0.6,1.8,0.3l0.7-0.4l0.8-0.1
		c1.9,0.2,3.7,0.2,4.5-2.1c0.1-0.4,0.7-0.7,1.2-0.9c1.1-0.7,0.9,0.3,1,0.8l0,0c-1,0.2-1.1,0.9-1.2,1.7c-0.1,0.8,0,0.9,0.5,1.1
		c-0.2,1-1.7,0.5-1.8,1.6c0.6,0.3,1.3-0.5,1.7,0.3c-0.3,0.5-1.1,0.3-1.2,1l-0.1,0.1c-2.2-0.2-3.7,1.4-5.6,2.1
		c-0.3,0.1-0.5,0.6-0.5,1l-0.3,0.5c-0.6-0.7,0.2-1.6-0.3-2.4v-0.8l0.1-0.1L114,97c-0.2-2.6-0.2-2.6-2.7-1.9l-10.2,2.6
		c-1.7-1-3.1,0.3-4.6,0.5l0.1-0.6c3.6-1.9,7.8-2.2,11.5-4c1.8-0.9,4.1-0.9,5.7-2.9c-1.2-0.2-2.2-0.4-3.1-0.4c-2.9,0-5.7-1-8.6-0.3
		c-1.5,0.4-3,1.3-4.6,0.5c-0.4-0.2-0.7,0.2-1,0.4c-1.5,1-0.7,2.9-1.5,4.2h-0.7c-0.1-0.6,0.3-1.5-0.8-1.6c-0.5-1.4-0.4-2.5,1-3.2
		c0.4-0.2,1-0.7,1-1c0-1.7,1.2-1.8,2.3-1.7c2.1,0.3,3.8-0.5,5.7-0.9"/>
	<path class="st4" d="M114.1,98.2c0.5,0.7-0.2,1.6,0.3,2.4h0c-0.3,0-0.6,0-0.8,0.3c-4.3,2.6-8.8,4.8-12.7,8
		c-1.9,1.5-3.9,2.9-5.7,4.4c-0.5,0.4-0.9,0-1.2,0.1c2.1-2.9,5.2-4.6,8-6.7c2.8-2.1,6.8-4.5,10.4-6.5C113,99.6,113.7,99.1,114.1,98.2
		z"/>
	<path class="st3" d="M143,89.3c0.6,0.6,1.2,1.2,1.2,2.1l-1.3-0.5c0,1.6,0.7,3.4-1.8,3.5c-0.5,0-0.7,0.6-0.7,1
		c-0.1,2.1-1.8,2.9-2.9,4.1c-1.2,1.2-2.2,0.5-3.3,0.6l-0.1-0.1c0.3-1,1.2-1.2,1.9-1.5c1.5-0.6,2-1.5,1.7-3.1l0,0
		c0.8-0.8,0.1-1.9,0.5-2.7c1,0.6,3.6-0.5,3.5-1.9C141.5,89.6,142.4,89.7,143,89.3z"/>
	<path class="st3" d="M134.1,100.1c-0.6,1.5-2.7,1.7-3.1,3.5c-0.1,0.5-0.8,0.2-1-0.2c-0.3-0.4-0.5-0.9-0.7-1.4
		c-0.3-0.4-0.4-1.7-1.9-1c-0.9,0.4-2.4-0.7-3.1-1.7c-0.8-0.9-0.4-1.5,0.8-1.7c1.2-0.2,2.2-0.9,2.1-2.4l0.8,0.1c0,0.1,0,0.1,0,0.2
		c-0.6,1.1,0.7,3.9-2.5,2.7c-0.2-0.1-0.5,0.2-0.5,0.5c0,0.3,0.2,0.7,0.5,0.7c1.2,0.3,2.5,0.4,3.2-1s0.8-1.9,1.2-2.8
		c0.4,0.2,0.3,0.6,0.4,1C131.1,100.8,129.9,100.1,134.1,100.1L134.1,100.1z"/>
	<path class="st3" d="M135.3,109.1c-2.4,2.7-5.2,4.1-9.1,2.5c1.1-0.2,2.1-0.9,2.8-1.8c1.2-1.2,1.2-1.2-1.6-2.1c2.4-1,4.7-0.3,7,0.2
		c0.5,0,1,0.5,0.9,1C135.3,108.9,135.3,109,135.3,109.1z"/>
	<path class="st4" d="M86.5,117.8c0.2,0.5-0.3,1.3,0.3,1.5s1-0.5,1.4-1s0.7-1.4,1.7-1.1c0.4,1.2-0.9,1.4-1.4,2
		c-0.5,0.6-1.5,2.2-2.9,2.6c-0.2-2.1,0-4.2,0.3-6.3C86.7,116.3,86.3,117.1,86.5,117.8z"/>
	<path class="st4" d="M114.7,100.1c0-0.4,0.1-0.9,0.5-1c1.9-0.6,3.4-2.2,5.6-2.1C119.2,98.7,117.1,99.8,114.7,100.1z"/>
	<path class="st4" d="M121,97c0-0.8,0.9-0.6,1.2-1l3.9-1.2h0c0.5,0.9,0.2,1.6-0.7,1.7C124.4,96.6,122.4,97.3,121,97z"/>
	<path class="st4" d="M90.3,116.8c0.9-1.4,1.8-2.7,3.6-3.1C93.3,115.4,92,116.3,90.3,116.8z"/>
	<path class="st5" d="M127.9,95.5l-0.8-0.1c-0.1-0.7-0.7-0.6-1.2-0.6h0V94l0.3-0.5l0.7,0.1c0.1,0.6,0.4,0.7,1,0.5l0.6,0.2
		C128.7,94.9,128.7,95.5,127.9,95.5z"/>
	<path class="st3" d="M124.2,100.7c0.7,0.2,0.9,0.6,0.8,1.3C124.3,101.8,124.2,101.3,124.2,100.7z"/>
	<path class="st5" d="M113.5,100.9c0.2-0.3,0.5-0.3,0.8-0.3C114.2,100.8,113.8,100.9,113.5,100.9z"/>
	<path class="st1" d="M150.3,58.4l0.5-0.5c2.8,0.8,5.3,2,7.4,4.2c2,2.2,5,4.3,7.1,7c0.6,0.8,1.3,1.6,1.5,2.6l-0.2,0.2h-1.1
		c-0.2-2.6-2.2-3.8-4.1-5.1v-0.1c-1.5-1.8-2.9-3.6-4.8-5c-0.2-0.2-0.5-0.4-0.8-0.5C153.7,60.6,152.1,59.4,150.3,58.4z"/>
	<path class="st3" d="M173.6,71.5c-0.9,1-1.5,2.3-3.1,2.3c0-0.5-0.2-1-0.7-0.4c-0.6,0.6-0.4,0.7-0.8,0.7c-0.2-0.7,0.1-1.3,0-2
		c-0.3-1.5,1.2-0.5,1.6-0.6c2.2-0.9,2.1-0.9,1.7-3.1c-0.4-2.2-1.3-3.6-1-5.5C173.5,65.4,173.5,68.5,173.6,71.5z"/>
	<path class="st1" d="M173.6,71.5c-0.1-3.1-0.1-6.1-2.4-8.6c-0.1-0.5-0.3-0.9-0.7-1.2l-0.4-1.5c0.8-0.1,1.1,0.5,1.4,1
		c1.5,2.4,2.6,5,2.9,7.8c-0.4,0.8,0.8,1.7-0.2,2.4L173.6,71.5z"/>
	<path class="st3" d="M157,51.7h0.7c0,0.5,0.3,0.8,0.8,0.8l0,0v0.7c-0.4,0.7,0.3,0.4,0.5,0.5l0.5-0.4c0.2,0.6,0.7,1.3-0.6,1.2
		c-0.7-0.1-1.4-0.2-2-0.5C155.3,53.2,157,52.5,157,51.7z"/>
	<path class="st3" d="M156.7,55.7c0.4,0,0.8,0.2,0.9,0.5c0.2,0.3,0.1,0.6,0.5,0.7c0.4,0.1,1-1,1,0c0,1-1,0.6-1.5,0.5
		c-0.4-0.1-0.8-0.3-1.2-0.6c-0.3-0.2-0.6-0.3-0.4-0.7C156.1,55.8,156.4,55.7,156.7,55.7z"/>
	<path class="st3" d="M156.2,55.1c-0.8-0.2-1.5,1.1-2.1,0c-0.2-0.3,0.3-1.5,0.7-1.5C155.9,53.3,155.8,54.5,156.2,55.1z"/>
	<path class="st1" d="M166.8,71.7c0.9,0.4,1.5,1.3,1.5,2.3l-0.2,0.2c-1.5-0.2-1.3-1.4-1.5-2.4L166.8,71.7z"/>
	<path class="st3" d="M170.1,60.2l0.4,1.5c-1-0.5-1.5-1.4-1.9-2.4c0.3,0.1,0.6-0.1,0.8-0.3c0.4,0.1,0.6,0.4,0.7,0.7
		C169.9,59.9,169.7,60.1,170.1,60.2L170.1,60.2z"/>
	<path class="st1" d="M168.9,74.2c0.4-0.1,0.6-0.5,0.8-0.7c0.2-0.3,0.7-0.2,0.7,0.4c-0.3,1.3-1.6,0.7-2.3,1.2l-0.1-0.7l0.2-0.2
		L168.9,74.2z"/>
	<path class="st1" d="M149.8,57.2L149.8,57.2z"/>
	<path class="st1" d="M150.3,57.6l-0.3-0.2C150.2,57.3,150.2,57.4,150.3,57.6z"/>
	<path class="st1" d="M141.8,82.7c-1.9-0.6-2.9-2.4-4.5-3.5c-1.7-1.4-3.6-2.5-5.7-3.4c0.3-0.6,1.1-0.4,1.5-0.8
		c1,1.2,2.1,2.1,3.8,2.1c0.1,1.2,1,1.4,1.9,1.5C140.1,79.9,141.8,80.7,141.8,82.7z"/>
	<path class="st3" d="M133.3,75c-0.4,0.4-1.2,0.2-1.5,0.8c-0.8-0.3-1.8,0.2-2.3-0.9c0.7-0.3,1.5-0.5,2.2-0.7
		C132.3,74.2,133.2,73.9,133.3,75z"/>
	<path class="st3" d="M137.8,73.2c0.9-0.9,1.6-1.2,2.7-0.4C139.8,73.5,139,73.6,137.8,73.2z"/>
	<path class="st3" d="M139,78.5c-0.9-0.1-1.9-0.3-1.9-1.5C138.1,77.1,139,77.2,139,78.5z"/>
	<path class="st3" d="M143.4,74.3c-0.5-0.1-0.7-0.3-0.7-0.8c0-0.4,0.1-0.8,0.6-0.8c0.5,0,0.5,0.5,0.5,0.9S143.9,74.3,143.4,74.3z"/>
	<path class="st3" d="M138,71.5c-0.1,0.9-0.9,0.9-1.5,1.4C136.4,71.6,137.1,71.5,138,71.5L138,71.5z"/>
	<path class="st3" d="M153.5,77.3c0,0.3-0.1,0.4-0.3,0.3c-0.2,0-0.3-0.1-0.4-0.3c-0.1-0.1,0-0.3,0.1-0.3c0.1,0,0.1,0,0.2,0
		C153.3,77.1,153.4,77.2,153.5,77.3z"/>
	<path class="st3" d="M137.9,71.5l0.2-0.2L137.9,71.5L137.9,71.5z"/>
	<path class="st2" d="M127.1,93.7l-0.7-0.1c-0.1-0.5-0.3-1-0.2-1.4c0.5-1.4-0.5-1.2-1.3-1.3l-0.1-1.1c0.5-0.6,1-0.5,1.5,0
		c1.2,1.4,2.4,1.1,3.7,0.3l0.3-0.2c1.3,2.4,1.9-0.3,2.8-0.5c0.9-0.2,2.4,0.5,3.6,0.9c0.3-0.9,0.3-1.4-0.5-1.9s-1-0.6-0.7-1.2
		c0.3-0.6,0.8-1.3,1.4-1.2c1.8,0.4,0.6-0.7,0.6-1.3c1.2,0.3,2.1,1.2,3.3,0.7c0.5,1.4,2,2.4,2.2,3.9c-0.6,0.4-1.5,0.2-1.4,1.6
		s-2.6,2.5-3.5,1.9c-0.4,0.9,0.3,1.9-0.5,2.7c0-1,0-2.1,0-3.1c0-0.4,0.1-1-0.5-1c-0.6,0-0.6,0.6-0.6,1c0.2,1.3-0.3,2.6-1.3,3.5
		c-0.3,0.3-0.4,0.7,0.2,1.1c0.5-0.8,1.2-1.4,2.3-1.5c0.3,1.5-0.2,2.5-1.7,3.1c-0.7,0.3-1.6,0.5-1.9,1.5c-4.1,0-2.9,0.7-3.8-3.2
		c-0.1-0.4-0.1-0.8-0.4-1s-0.1-1.5-1.2-1.5l-0.6-0.2C127.9,93.8,127.6,93.5,127.1,93.7z"/>
	<path class="st1" d="M124.7,89.8l0.1,1.1l-0.7,0.6l-1.3-0.1c-0.1-0.5,0.1-1.5-1-0.8c-0.4,0.3-1,0.5-1.2,0.9
		c-0.7,2.3-2.5,2.3-4.5,2.1l0.4-0.8l0.4-0.4c0.3-0.1,0.6-0.2,0.9-0.3c0.3-0.2,0.9,0,0.7-0.6c0-0.2-0.1-0.3-0.3-0.5
		c-0.4-0.3-0.7,0.1-1,0.3c-0.3,0.2-0.5,0.6-0.5,1l-0.4,0.4c-0.7,0-1.2,0.1-1.1,0.9l-0.7,0.4c-0.7,0.3-1.5,0.5-1.8-0.3
		s0.5-1.2,1.2-1.4c0.7-0.1,2-0.9,2.6-2.1c0.5-1.2,0.9-1.5,1.9-1.3c-0.6-1-1.4,0-2-0.5h0c0-0.1,0.1-0.2,0.1-0.3
		c0.2-0.5,0.6-0.8,1.1-0.8c2.5,1.9,2.4,1.9,3.7-0.6c0.3-0.5,0.6-0.7-0.2-1.1c-0.7-0.4-1.2-1.3-0.5-1.9c0.6-0.7,1.2-0.4,1.5,0.6
		c0.3,1,0.7,0.3,1,0s0.7-0.9,1.2-1.4c0.6,1.1,0,1.7-0.4,2.2c-1.1,1.4-0.9,2.1,0.9,2.6l0.6,0.1c0.1,0,0.2,0.2,0.3,0.3
		c-1,0.6-2,0.5-3.1,0.2C122.6,90,123.8,89.6,124.7,89.8z"/>
	<path class="st2" d="M133.4,85.1c0.5,0,1,0.1,1,0.8c0,0.7-0.5,1.3-1.1,1.4c-0.7,0.2-0.8-0.3-0.5-0.8S132.1,85,133.4,85.1z"/>
	<path class="st3" d="M198.8,48.3c-0.8,1-1.4,2.4-2.4,3.1c-2.2,1.6-3.5,3.9-5.3,5.8c-0.7-0.3-1.2,1.1-1.8,0.4
		c-0.6-0.7,0.3-1.4,0.7-2.1s0.4-0.5,0.3-1c-2.5,0.8-3.1-1.1-3.9-2.8c1.4,1,3.2,0.8,4.8,1.4c0.1-0.6-0.4-1.5,0.6-1.7
		c0.7,0.5,0.4,1.7,1.3,2.2c0.5-1.3-0.3-2.4-0.3-3.6l1.3-0.2c0.1,0.3,0.2,0.3,0.4,0h1.2c0.2,0.2,0.6,0.1,0.8-0.1
		c0.1-0.1,0.1-0.2,0.1-0.3c0.1-1.4,0.9-2.3,1.9-3.1l2.1-3.5c0.8-0.1,0.8-0.1,0.3-1.6c1.1,0,1.2,0,1-0.8v-0.5
		c0.8-0.7,1.4-1.7,2.5-2.1c1.7-1.3,0.1-2.6,0-3.8c0.2-0.2,0.5-0.5,0.6-0.4c1.6,1.1,2.5,0.1,3.3-1.1c1.8,0.1,0.8,1,0.5,1.6
		c-0.3,0.6-2.2,1.7-1.7,3.4l-0.4,0.4c-1.4,0.3-1.8,0.8-1.4,1.9l-0.6,0.8C201.9,42.5,200.2,45.3,198.8,48.3z"/>
	<path class="st1" d="M206.9,37.4c-0.6-1.7,1-2.3,1.7-3.4c0.6-1.1,1.3-1.5-0.5-1.6c0-1.9-1.2-3.5-1.9-5.4c2.3,0.3,1.4,2.7,2.5,3.6
		l2.5-1.3c1,0.5,1.4-1.7,2.1-0.8s-1,1.3-1.4,2.1c-1.1,1.9-2.4,3.6-3.6,5.4C208,36.6,207.5,37.1,206.9,37.4z"/>
	<path class="st3" d="M198.4,18.4l1.5,1.1c-0.2,0.3-0.5,1-0.5,1c-1.7-0.5-1.9,1.1-2.6,2.2l-1.1-1.9l0.1-0.2l-0.1,0.2
		c-0.8,1.2-2,0.7-3.1,0.8c1.1-1.6,2.2-3.3,4.7-2.5C197.9,19.3,198.1,18.8,198.4,18.4z"/>
	<path class="st1" d="M202.2,16.1c1.4,0.2,2.4,1.6,3.9,1.5c0.2,1,1.5,1.5,1.2,2.7l0,0C205.6,19,203.6,18,202.2,16.1z"/>
	<path class="st3" d="M212.4,24.2l0.7,0.5l-0.4,1.5l-0.1,0.1c-1,0.1-1-1.2-1.9-1.2h0l-0.5-0.3c-0.6-0.3-1-1-0.9-1.7
		C210.8,22.9,211,24.9,212.4,24.2z"/>
	<path class="st1" d="M204.2,33.9c0.1,1.3,1.7,2.6,0,3.8c0.3-1.9-0.7-3.4-1.4-5h0.5C203.9,32.9,204.2,33.4,204.2,33.9z"/>
	<path class="st1" d="M197.6,25.8c1.2,0.7,2.1,1.7,2.4,3.1l-0.1,0.1c-1.4-0.6-2.1-1.7-2.4-3.1L197.6,25.8z"/>
	<path class="st1" d="M191.7,21.2l0.8,0.4c0.3,0.6,1.2,0.7,1.3,1.4l-0.2,0.2c-1.1-0.1-1.8-1.3-2.9-1.3
		C190.7,21.2,191.2,21.2,191.7,21.2z"/>
	<path class="st1" d="M209.2,16.9h1.2c0.5,0.7,1.5,1.2,1.5,2.3l0,0C210.6,18.9,210,17.8,209.2,16.9z"/>
	<path class="st3" d="M201.8,18.3c-1.2,0.1-1.6-0.5-1.8-1.3c-0.2-0.8,0.3-0.5,0.7-0.5C201.9,16.7,201.5,17.6,201.8,18.3z"/>
	<path class="st1" d="M207.3,16.1c0.2-0.7,0.5-1.6,1.2-0.3l0.7,1.1C208.4,16.9,207.7,16.9,207.3,16.1z"/>
	<path class="st1" d="M193.8,23c0.9,0.3,1.7,0.7,2.3,1.6l-0.1,0.2c-1-0.2-1.9-0.5-2.4-1.5L193.8,23z"/>
	<path class="st3" d="M204.5,23.9c1.3,0.3,1.3,1,1.8,2.1C205.2,25.3,204.9,24.8,204.5,23.9z"/>
	<path class="st3" d="M201.9,20.4c0.6,0.3,1.1,0.8,1.2,1.5l-0.2,0.2c-0.8-0.2-1.6-0.5-1.5-1.5L201.9,20.4z"/>
	<path class="st3" d="M200,28.9c0.9,0.1,1.1,0.8,1.1,1.5l-0.1,0.1c-0.6-0.3-1.3-0.6-1.1-1.5L200,28.9z"/>
	<path class="st1" d="M196.1,24.6c0.7,0.1,1.2,0.6,1.5,1.2l-0.1,0.1c-0.8,0-1.4-0.3-1.5-1.2L196.1,24.6z"/>
	<path class="st3" d="M203.1,21.9c0.6,0.1,1.1,0.6,1.2,1.2l-0.1,0.1c-0.6-0.1-1.1-0.6-1.2-1.2L203.1,21.9z"/>
	<path class="st1" d="M201.1,15.3c0.5,0,1,0.3,1.2,0.8C201.6,16.2,201.1,16.1,201.1,15.3z"/>
	<path class="st3" d="M201.1,30.4c0.4,0,0.8,0.4,0.8,0.8l-0.1,0.1C201.4,31.2,201,30.9,201.1,30.4L201.1,30.4z"/>
	<path class="st1" d="M201.9,20.4l-0.4,0.1l-0.4-0.4l0.1-0.2L201.9,20.4z"/>
	<path class="st3" d="M203.4,32.8h-0.5l-0.3-0.3l0.1-0.1C203,32.4,203.3,32.5,203.4,32.8z"/>
	<path class="st3" d="M201.9,31.2l0.4,0.8h-0.1l-0.4-0.7L201.9,31.2z"/>
	<path class="st1" d="M207.3,20.4l0.2,0.2h-0.1L207.3,20.4z"/>
	<path class="st3" d="M202.3,32l0.4,0.3l-0.1,0.1L202.3,32L202.3,32z"/>
	<path class="st3" d="M204.3,23.1l0.1,0.2l-0.2-0.1L204.3,23.1z"/>
	<path class="st3" d="M212.4,23.6v0.3l-0.2-0.2L212.4,23.6z"/>
	<path class="st5" d="M210.3,24.6l0.4,0.4L210.3,24.6z"/>
	<path class="st1" d="M212.3,19.6l-0.4-0.4l0,0L212.3,19.6z"/>
	<path class="st5" d="M139.5,126.1c-0.9-2.5,0.8-6.7,2.7-7.2C140.7,121,140.3,123.6,139.5,126.1z"/>
	<path class="st5" d="M139.2,130.3c-0.5-1.2-0.9-2.4,0.3-3.5C139.4,128,139.8,129.2,139.2,130.3z"/>
	<path class="st5" d="M133.7,163.3c-0.4,0-0.9,0-1.2,0.3c-0.3,0.3-0.9-0.4-0.7-1s0.6-0.2,0.9-0.2h0.9L133.7,163.3z"/>
	<path class="st5" d="M138,145.8c-0.4-0.9-0.8-1.8,0.1-2.7C138.5,144,138.5,145,138,145.8z"/>
	<path class="st5" d="M138.5,133.5c-0.2-0.6-0.3-1.1,0.5-1.3C139.2,132.8,139.2,133.3,138.5,133.5z"/>
	<path class="st5" d="M138.1,140.9c-0.2-0.5-0.2-0.9,0.3-1.2C139,140.2,138.8,140.6,138.1,140.9z"/>
	<path class="st5" d="M138.4,138.5c-0.4-0.3-0.4-0.5,0.1-0.7C138.9,137.6,138.7,138.2,138.4,138.5z"/>
	<path class="st5" d="M138.5,135.4c0-0.2,0-0.3,0-0.4c0,0.1,0.1,0.2,0.1,0.3C138.6,135.3,138.5,135.3,138.5,135.4z"/>
	<path class="st1" d="M198.4,46.3c-1,0.8-1.8,1.7-1.9,3.1c0,0.3-0.3,0.5-0.6,0.5c-0.1,0-0.2,0-0.3-0.1c0-0.8,0.7-1.4,0.2-2.2
		c-2-4.1-4.4-7.9-7.7-11c-1.4-1.3-3.3-2.3-4.1-4.1h0c2.9,1.5,5.5,3.4,7.3,6.3c1.7,2.7,3.7,5.2,5.9,7.4
		C197.5,46.2,198,46.2,198.4,46.3z"/>
	<path class="st3" d="M184.8,28.6c0.3-0.1,0.9-0.2,0.5-0.7c-0.4-0.5-0.8-1-0.2-1.5c0.6-0.4,1.2,0.1,1.7,0.5c0.5,0.4,0.5,0.5,0.8,0.8
		c0.1,1-0.2,1.5-1.6,0.9c0.7,1.1,1.8,0.7,2.3,1.7c-1.4,0-2.6-0.1-3.8,0.4c-0.4,0.2-1-1-1.8-1C182.8,28.4,184.3,29.3,184.8,28.6z
		 M184.8,29.6l0.2-0.1l-0.1-0.1l-0.2,0.1L184.8,29.6z"/>
	<path class="st1" d="M200.8,41.3c0.5,1.5,0.5,1.5-0.3,1.6c0-1.9-2-2.7-2.4-4.4c-0.1-0.5-0.5-0.9-0.4-1.4h0
		C199.7,37.7,199.8,39.7,200.8,41.3z"/>
	<path class="st1" d="M177.4,29.7l0.6-0.3c2.1,0.9,4.4,1.2,6,2.9l0,0c-1.7,0.1-3-1-4.4-1.6C178.9,30.4,177.7,31,177.4,29.7z"/>
	<path class="st1" d="M194.1,32.4c-1.6-0.5-2.4-2-3.5-3.1l0.2-0.2C192.2,29.7,193.5,30.9,194.1,32.4L194.1,32.4z"/>
	<path class="st1" d="M197.6,37c-1.4-0.5-1.9-1.8-2.3-3.1l0,0C196.7,34.5,197.3,35.6,197.6,37z"/>
	<path class="st3" d="M182.9,27.4c0.9-0.1,1.5,0.2,1.5,1.2C183.6,28.6,182.8,28.6,182.9,27.4z"/>
	<path class="st1" d="M195.3,33.9c-0.8,0-0.8-0.6-0.8-1.2l0,0C195.2,32.8,195.3,33.4,195.3,33.9z"/>
	<path class="st1" d="M194.5,32.8l-0.4-0.3l0.1-0.1L194.5,32.8z"/>
	<path class="st2" d="M170.1,59.8c0-0.4-0.3-0.7-0.7-0.7c-1.6-2.5-4.1-4.5-6.9-5.5c-2.2-0.9-4.1-2.4-6.4-3c-0.5-0.1-0.7-0.6-0.4-0.9
		c1.2-1.3,1.7-3.4,3.8-3.7c1,0.5,1.8-0.6,2.9-0.2c-0.1-0.7-1-0.6-0.9-1.3l0.3-0.1c1.2-1.4,2.1-2.9,2.7-4.6c0.3-0.1,0.4-0.3,0.4-0.6
		l0.7-0.2c1.8,0.1,3.7-0.3,4.9,1.7c0.2,0.3,0.7,0.1,1,0c0.3-0.1,1-0.1,1.1,0.6c-2.3-0.3-1.9,1.4-2,2.7l0,0c-0.4-0.1-1.3,0.2-0.8-0.7
		c0.5-0.9,1.1-2.1-1-1.7c-0.2,0-0.5-0.2-0.7-0.2s-1.1-1.2-1.9,0c-0.7,1.2-1.2,1.5-0.9,2c1,1.7-0.7,0.9-1.2,1.4c1,0.3,1.7,1.1,2.7,1
		c1,0,3-0.5,4.5,0.3c0.2,0.1,0.6-0.2,0.9-0.2c-0.5-1.1,1-1.4,1-2.2s-1-0.8-1.5-1.5c0.4-0.1,1.4,0.1,0.9-0.9c2.1,0.1,3.3,1.8,4.8,2.9
		c1.5,1.1,3.3,3.7,5.3,5.2c-0.2,1.5,0.6,2.1,2,2.2c1.6,1.8,2.5,3.8,2.2,6.3c-1.7-0.5-2.5,0.3-3.4,1.8c-0.4,0.7-1.6,1.2-2,2.2
		c-0.6-0.5-0.9-1.2-1.3-1.9c-0.9-1.2-1.1-2.9-2.5-3.7c0-0.5-0.4-0.7-0.9-0.7c0-0.5-0.1-1-0.5-1.4c-1.3-2.1-3.3-3.6-5.3-4.9
		c-2-1.3-3-2.4-5-2.6c-1.4-1.3-2.8-0.7-3.9,0.3c-0.5,0.5-1.1,0.8-1.8,0.9c-0.6,0.1-1.4,0.3-1.1,1.2c0.3,0.9,1,0.2,1.4,0.3l0,0
		c0.6,1.4,1.9,2,3.1,2.6c1.2,0.6,1.5,0.1,2-0.7s0.1-0.6-0.3-0.7c-0.4-0.2-1.1,0-0.6-0.8c0.5-0.7,0.7-0.9,1.4-0.4
		c0.9,0.6,2,0.6,2.9,0c0.7,0,1.2,0.4,1.7,0.8c2.3,1.5,3.8,3.9,6,5.5c0,0.4,0.2,0.8,0.7,0.8c0.5,2,1.8,3.5,2.5,5.4
		c-1,1-0.2,1.5,0.7,1.9l0.1,0.8c-0.3,0.1-0.6,0.2-0.9,0.3c0.4,1.9-1.5,1.9-2.3,2.8s-1.6,0.3-1.9-0.8c-0.1-0.4-0.3-0.8-0.7-0.6
		c-0.5,0.2-0.2,0.5-0.1,0.8c0.1,0.3-0.2,1.5-0.6,2.1c-0.2-2.9-1.4-5.4-2.9-7.8c-0.3-0.5-0.6-1.2-1.4-1l0,0L170.1,59.8z"/>
	<path class="st2" d="M177.4,29.7c0.2,1.3,1.5,0.8,2.2,1.1c1.4,0.6,2.7,1.7,4.4,1.6c0.9,1.9,2.7,2.8,4.1,4.1c3.4,3.2,5.7,7,7.7,11
		c0.4,0.8-0.3,1.5-0.2,2.2h-1.2l-0.2-0.5l-0.2,0.5l0,0l-1.3,0.2v-0.1c0.2-0.9-0.4-0.8-1-0.9h0c-0.3-0.9-0.6-1.6-1.5-1.9
		c-0.6-2.1-1.9-4-3.8-5.1l-0.4-0.4c-0.1-0.1-0.2-0.3-0.4-0.1c-0.2,0.2,0.1,0.2,0.2,0.3l0.4,0.4c1.2,1.7,1.7,4,3.9,5
		c0.1,0.7,0.4,1.4,1,1.9c0,0.8,0.7,1.5,0.5,2.3c-1,0.3-0.5,1.1-0.6,1.7c-1.6-0.6-3.4-0.4-4.8-1.4c-1.4-2-3.1-3.7-5-5.2
		c-1.4-1-2.4-2.5-3.6-3.7c-2.5-2.3-5.5-3.5-8.6-4.5c-0.8-0.3-1.6-0.8-2.5-0.9c-0.3-0.9,0.4-1.3,0.9-1.7c0.5-0.4,1.9-1.5,2.9-2.2
		l0.8,0.1c0.5,0.6,1.3,0.2,1.9,0.3l0,0c-0.2,0.5,0.5,1.5-0.9,1.3s-1.4,1-1.4,1.9c0,0.9,0.7,1.7,1.7,1.5s2.6,0,3.8,0.6
		c0.4,0.2,0.7,0.5,1.1,0c0.4-0.5-0.2-1.5-0.3-2.3c-0.2-0.8,0-0.9-0.5-0.7c-2.3,1-1.9-0.8-2.2-2c2.4,0.9,4.6,2.1,6.6,3.7
		c0.7,0.5,1.3,1,2.2,0.9c0.2,0.9,1,1.5,1,2.7c1.2-1.5,1-1.7-1-2.7c-1.8-2-4.1-3.6-6.6-4.6v-0.3l0,0c1.4-0.5,2.4,0,3.4,0.8l0.2,0.5
		l0.2-0.1l-0.3-0.4c0-0.7,0.9-1.8,0.1-2.1s-2.2-1.7-3.8-0.7c-0.6,0.4-1.8,1.7-2.3,0.2c-0.5-1.5,0.9-1.8,2-2.1L177.4,29.7z
		 M181.3,35.1l0.2,0.2L181.3,35.1l-0.2-0.5l-0.2,0.1L181.3,35.1z"/>
	<path class="st3" d="M164.7,39.7c-0.6,1.7-1.5,3.3-2.7,4.6C161.5,41.8,162.5,40.1,164.7,39.7z"/>
	<path class="st3" d="M161.6,44.5c-0.2,0.7,0.8,0.5,0.9,1.3c-1-0.4-1.9,0.7-2.9,0.2C159.7,44.6,160.9,44.8,161.6,44.5z"/>
	<path class="st3" d="M184.9,51.7c-1.4-0.2-2.2-0.8-2-2.2C183.8,49.9,184.8,50.4,184.9,51.7z"/>
	<path class="st2" d="M158.5,52.5c-0.5,0-0.8-0.3-0.8-0.8C158.1,51.8,158.4,52.1,158.5,52.5z"/>
	<path class="st2" d="M159.1,53.7c-0.3-0.1-0.9,0.2-0.5-0.5L159.1,53.7z"/>
	<path class="st5" d="M165.8,38.9l-0.7,0.2C165.2,38.7,165.5,38.5,165.8,38.9z"/>
	<path class="st2" d="M158.5,53.1v-0.5C159,52.7,158.7,52.9,158.5,53.1z"/>
	<path class="st4" d="M169.7,7.6c-0.6,0.2-1.1,0.6-1.4,1.1c-1.7,0.5-1.7,2.4-2.8,3.9c0.3-3.1,1.2-6.2,2.7-8.9l0.7,0.4l0.1,0.7
		c0.2,0.8,0.9,1.4,0.9,2.2L169.7,7.6z"/>
	<path class="st1" d="M168.9,4.2l-0.7-0.4V3l1.5-1.5c0,0.9,0.2,1.8,0.7,2.5c0.8,1.1,0.9,2.4-0.6,3.2c0.1-0.9-0.7-1.5-0.9-2.2
		c0.3-0.1,0.9,0.2,0.8-0.4S169.3,4.1,168.9,4.2z"/>
	<path class="st1" d="M159.6,40.1l0.1-0.2L159.6,40.1z"/>
	<path class="st1" d="M118.2,115.6l-0.9-1.8c0.9,0.2,1.1,1.5,1.8,1s0.5-1.1,0.5-1.8c0-2.1,1-2.8,3.3-2.2c-2.2,1.4-2.2,4.1-3.6,5.8
		L118.2,115.6z"/>
	<path class="st4" d="M171.4,31.7c-0.9-5.7-0.8-11.4-1.2-17.2c1.7,0.5,2.2,1.5,2.3,3.3c0.2,3.9,0.8,7.7,3.4,11L171.4,31.7z"/>
	<path class="st1" d="M93.4,93.5c1.1,0.1,0.7,1,0.8,1.6c0.1,0.6-1,1.7-1.5,2.6c-0.5,0.9-0.6,0.7-1.1,0.5c-0.5-0.2-0.3-0.7-0.2-1.1
		C91.6,95.7,92.2,94.4,93.4,93.5z"/>
	<path class="st5" d="M127.8,37.8c0.5,0.7,0.4,1.2-0.5,1.3c-5.2,0.9-9.2,4.2-13.5,7c-1.6,1.1-3.5,1.5-5.3,2.1c1-1.8,3-2.3,4.6-3.3
		c4.1-2.5,8.3-4.8,12.7-6.7C126.4,38,127.1,37.8,127.8,37.8z"/>
	<path class="st5" d="M129.5,36.6l-0.9,0.5c-0.5-0.5-0.2-0.8,0.2-1C129.3,35.8,129.4,36.2,129.5,36.6z"/>
	<path class="st5" d="M130.1,37.3c0,0.3-0.2,0.6-0.5,0.6c-0.4,0,0-0.4,0-0.6L130.1,37.3z"/>
	<path class="st4" d="M139.1,54.1c0.1,0.6,0.3,1.1,0.5,1.6c0.8,1.9,1.2,3.7-0.5,5.5c-0.7-0.4-1.1-1.1-1.2-2c-0.6-3.2-1-6.5-1.9-9.6
		c-0.4-1.5-0.3-3.3-1.7-4.3c-0.1-0.1-0.1-0.5,0-0.7c0.9-2.2-0.6-3.8-1.2-5.6c-0.2-0.5-1-0.8-0.5-1.5c0.3-0.4,0.7-0.7,1.2-0.7
		c0.7,0,1.3,0.5,1.3,1.2c0,2.1,1.2,3.8,1.4,5.7c0.1,1,0.2,2.1,1.1,2.7l0.1,1.5C137.9,50,138.4,52,139.1,54.1z"/>
	<path class="st1" d="M137.6,47.8l-0.1-1.5c1.8-0.1,1.4,1.3,1.7,2.3C138.3,48.9,138.3,47.7,137.6,47.8z"/>
	<path class="st0" d="M81.8,124.9c-0.1,0.3-0.4,0.5-0.8,0.4C81.1,124.9,81.5,124.9,81.8,124.9z"/>
	<path class="st5" d="M175.9,88.9c4.7-1.2,9.2-2.9,13.6-4.9c-0.2,0.9-0.9,1.6-1.8,1.9c-2.1,0.8-4.1,2-6.2,2.9
		c-1.5,0.7-3,0.5-4.4,0.9C176.6,89.8,176.1,89.4,175.9,88.9z"/>
	<path class="st5" d="M190.6,83.5c0.8-1.4,2.3-1.3,3.5-1.9c0.4,0.5,0.9,0.9-0.2,1.1L190.6,83.5z"/>
	<path class="st5" d="M191.5,84c0,0,0,0.1,0,0.1h-0.2c0,0,0-0.1,0-0.1H191.5z"/>
	<path class="st5" d="M198.8,81.6l-0.2,0.2c0,0,0-0.1,0-0.1L198.8,81.6L198.8,81.6z"/>
	<path class="st1" d="M220.4,109.3c0.7,0.5,1.3,1.1,1.2,2.1C220.4,111.1,220.6,110.1,220.4,109.3z"/>
	<path class="st1" d="M221.6,111.4c0.7,0.3,0.7,1,0.9,1.5C221.7,112.7,221.6,112.1,221.6,111.4z"/>
	<path class="st5" d="M143.1,64.9c-0.9,0.7-1.7,0.7-2.4-0.3C141.5,64.7,142.4,64.2,143.1,64.9z"/>
	<path class="st2" d="M148.5,61.9c0,0.3-0.1,0.7-0.5,0.6c-0.5-0.1-0.2-0.3-0.2-0.5C147.7,61.8,148.1,61.7,148.5,61.9L148.5,61.9z"/>
	<path class="st2" d="M148.4,61.8c0.1-0.3,0.1-0.6,0.5-0.6c0.1,0,0.1,0.1,0.1,0.1C149,61.7,148.7,61.7,148.4,61.8L148.4,61.8z"/>
	<path class="st5" d="M218.9,101.7l-0.2-0.2h0.1L218.9,101.7L218.9,101.7z"/>
	<path class="st1" d="M191.1,66.9l-0.5-1.6c0-0.8-0.4-1.7,0.5-2.3c1.7-0.3,1.5-2.2,2.6-3.1s1.3-1.8,2.3-2.4c1,0.6,0.7,1.1,0,1.8
		c-1.5,1.7-3.1,3.3-4,5.3c1.9-1,2.9-2.8,4.3-4.3c2.9-2.9,5-6.5,7.6-9.6c0.8-0.9,0.6-1.8-0.6-2.2l0.4-1.7c0.5-0.5,1-1,1.4-1.5
		c2.6-3.5,4.3-7.6,7.5-10.6h2.2c-0.7,2-2.3,3.5-3.8,4.9c-1.4,1.4-1.4,2.5-1.2,4l0,0c-0.9,0.1-1,0.9-1.2,1.5
		c-0.3,0.1-0.4,0.5-0.4,0.8c-0.4,0-0.8,0.2-0.7,0.7s0.5,0.1,0.7,0.1c-0.7,2.7-2.4,4.7-3.9,7c-0.1-0.4,0.2-1-0.5-1.4
		c-1.7,2.7-3.3,5.4-5.3,7.9c1,0.9,1.4,0,1.8-0.7c1.1-1.8,2-3.7,3.6-5l-0.8,1.9c-1,2.4-2.7,4.4-3.4,7l0,0l-0.4,0.4l0,0
		c-0.3,0.1-0.5,0.5-0.4,0.8l0,0l-0.4,0.4l0,0l-1.2,0.2c-0.3-1.5,1.6-2.1,1.4-3.6c-1.2,0.3-1.4,1.9-2.8,1.9c-0.2-0.2-0.3-0.4-0.5,0
		l0,0c-0.6,0.1-1.3,0.1-1.4,0.9s0.6,0.2,0.9,0.3C194.8,65.8,192.5,67.2,191.1,66.9z M207.3,47.9l0.1-0.2L207.3,47.9l-0.1,0.2
		L207.3,47.9z"/>
	<path class="st4" d="M191.1,63c-0.9,0.6-0.4,1.5-0.5,2.3c-0.9-0.1-1.6,0.9-2.6,0.7c-0.2,0-0.5,0.5-0.9,0.1c-0.4-0.4-0.3-0.8,0-1.2
		c1.4-1.9,2.6-4,4.2-5.7c3.1-3.4,5.7-7.2,8.9-10.7c0.4-0.4,0.6-0.8,0.5-1.4h0c0.7-0.2,0.8-0.8,0.8-1.4l0.5-0.8c0.8,0,1.2-0.4,1-1.2
		h0c0.5,0,0.8-0.2,0.7-0.8v-0.1c1.9-0.7,2.8-2.5,3.9-3.9c1.8-2.3,3.4-4.7,5.1-7c0.3-0.5,0.9-1.2,1.5-0.7c0.7,0.5,0.2,1.1-0.3,1.7
		s-1.3,1-1.4,2c-3.2,3.1-5,7.1-7.5,10.6c-0.4,0.5-0.9,1.1-1.4,1.5c-0.2-0.5-0.5-0.6-0.8-0.1c-1.2,2-2.8,3.6-4.3,5.4
		c-0.7,0.9-1.3,1.8-1.1,3h0c-0.2,0-0.3,0.2-0.3,0.4c0,0,0,0,0,0l-1.2,1.9c-1,0.6-1.2,1.9-2.3,2.4C191.9,60.1,191,61.1,191.1,63z"/>
	<path class="st1" d="M201.9,44.8l-0.5,0.8c-0.7,0.2-0.8,0.8-0.8,1.4h0c-0.9-0.1-1,1.2-1.9,1.2c1.4-3,3.1-5.7,5.8-7.8
		c0.1,0.9-0.9,1.4-0.8,2.2v0.1c-0.4,0-0.7,0.3-0.7,0.7c0,0,0,0,0,0h0C202.5,43.7,202,44.2,201.9,44.8z"/>
	<path class="st1" d="M205.1,39.7c-0.4-1,0-1.6,1.4-1.9C206.4,38.7,205.7,39.2,205.1,39.7z"/>
	<path class="st3" d="M212.7,26.1l0.2,0.3l-0.3-0.1L212.7,26.1z"/>
	<path class="st2" d="M136.4,68.7c0.3,0.2,0.3,0.3,0,0.4V68.7z"/>
	<path class="st5" d="M88,102.1l-0.1,0.5C87.5,102.3,87.9,102.2,88,102.1L88,102.1z"/>
	<path class="st1" d="M187.2,74.2c-0.5-1-1.5-1-2.5-1.2c-0.3-0.1-0.5-0.1-0.3-0.5c0.2-0.3,0.3-0.2,0.5-0.3c2.2,0.6,4.5,0.6,6.5-0.7
		c-1.5,0.1-2.9,0-4.3,0c-1.4,0-1.4-0.6-1.1-1.6c0.5-0.3,0.5-1,1.2-1.2c0.1,0.6-0.3,1.7,0.9,1.4c0.7-0.2,1.5-0.2,2.2,0
		c0.7,0.2,1.1-0.1,1.1-0.9s0.7-1.3,1.2-0.9c1.2,1,1.6-0.1,2.2-0.7c0.7-0.5,1.2-1.7,1.8-0.7c0.6,1,1,0.5,1.3-0.1
		c0.3-0.6,0.9-1.3,0.9-2.1l0,0l0.4-0.4l0,0c0.3-0.2,0.4-0.4,0.4-0.8l0,0l0.4-0.4l0,0c0.9,0.7,1.5,0.7,2.1-0.5
		c0.4-0.9,0.9-1.7,1.6-2.4c1.1-1,1.2-2.8,2.8-3.4c0.8,1.1,0.2,2.1-0.6,2.6c-1.6,1-2,2.6-2.7,4.1s-1.9,2.2-2.3,3.5
		c-0.5-0.2-0.9,0.2-1.1,0.6l-2.4,3.6l-0.3,0.1l-1.2-0.2c0.2-0.6,1-1.2,0.5-1.7c-0.5-0.4-1.3,0.3-2,0.5c-1.5,0.5-1.5,2.2-2.9,2.7
		C190,73.5,188.8,74.3,187.2,74.2z"/>
	<path class="st3" d="M206.3,57.1c-1.6,0.6-1.7,2.4-2.8,3.4c-0.7,0.7-1.2,1.5-1.6,2.4c-0.5,1.2-1.2,1.2-2.1,0.5
		c0.7-2.6,2.5-4.6,3.4-7l0.8-1.9l0,0c0.3-0.2,0.4-0.5,0.4-0.8l0,0c1.5-2.2,3.2-4.3,3.9-7l0,0c0.4-0.1,0.4-0.4,0.4-0.8l0,0
		c1,0,1.2-0.7,1.2-1.5l0,0c0.8,0,0.8-0.6,0.8-1.2l0,0l0.4-0.4h0.4c0.3,0.2,0.4,0.5,0.3,0.8c-0.2,0.2-0.5,0.2-0.2,0.5l0.1-0.5
		c0.5-0.1,0.9-1.5,1.5-0.1l-0.8,2.2c-0.8,0.8-1.3,1.8-1.5,2.9c-1,0.8-1.2,2.1-1.7,3.1h-0.3c-0.8,0.2-1,0.9-1,1.6l-0.1,0.3
		c-0.5,0.2-0.8,0.7-0.7,1.2L206.3,57.1z"/>
	<path class="st4" d="M200.8,67.4c0.5-1.4,1.7-2.2,2.3-3.5l0.7,0.7l-0.9,1.9l-1.5,2.3l-0.2,0.3C200.2,68.8,200.9,68,200.8,67.4z"/>
	<path class="st4" d="M209.4,51.7c0.5-1,0.7-2.3,1.7-3.1c0.3,0.2,1.3,0,0.9,0.5c-1.2,1.6-1.2,3.8-2.6,5.3
		C208.5,53.6,210.6,52.6,209.4,51.7z"/>
	<path class="st1" d="M208.1,53.3c0-0.7,0.2-1.4,1-1.6C209.1,52.4,208.9,53.1,208.1,53.3z"/>
	<path class="st1" d="M207.4,54.9c-0.1-0.5,0.2-1,0.7-1.2C208.1,54.2,208.1,54.7,207.4,54.9z"/>
	<path class="st1" d="M121.8,118.3c-0.2-1.6,0.6-2.6,1.6-3.4c0.4-0.4,1.1-0.4,1.5,0c0,0,0,0.1,0.1,0.1c0.6,0.5,0.2,1.1-0.3,1.5
		C124.1,116.8,122.8,117.6,121.8,118.3z"/>
	<path class="st2" d="M212.3,19.6l-0.4-0.4c0-1.1-1-1.6-1.5-2.3c-0.6-0.7-1-2-0.8-3.2l1.5,1.3c-0.6,0.7-0.1,1.2,0.4,1.3
		c0.5,0.1,0.3-0.6,0.4-0.9h0.4c0.3,0.4,0.9,0.7,0.9,1.3c0.9,1.2,0.2,2.6,0.8,3.9C213.1,20.5,213,19.5,212.3,19.6z"/>
	<path class="st5" d="M232,119.9l-0.3-0.4L232,119.9z"/>
	<path class="st2" d="M213.4,43.5c-0.6-1.5-1,0-1.5,0.1l0,0c0-0.3-0.1-0.6-0.3-0.8l0.2-0.8c1.1-1.1,2.1-2.3,2.9-3.6
		c0.7,0.4,0.7,1,0.7,1.7l0,0c-0.5,0.2-0.8,0.7-0.7,1.2l-0.6,1.6L213.4,43.5z"/>
	<path class="st1" d="M210.8,43.2c0,0.6,0,1.1-0.8,1.2v-0.8l0,0L210.8,43.2z"/>
	<path class="st1" d="M211.7,42.1l-0.2,0.8h-0.4C211.1,42.4,211.3,42.1,211.7,42.1z"/>
	<path class="st1" d="M211.1,42.8l-0.4,0.4L211.1,42.8z"/>
	<path class="st1" d="M196.1,79.4l-1.2-0.5l-0.9-0.7c0-0.1,0-0.1,0-0.2c2.7,0.2,5.4-0.9,8.2-0.7l1.1-0.3c0,0.7,0.3,1.5-1.1,1.3
		c-1.4-0.2-3.4,0.5-5.1,1.1L196.1,79.4z"/>
	<path class="st4" d="M196.9,71.6l0.3-0.1c0.4,0,1-0.2,0.9,0.6c0,1.4-1.1,2.3-2.6,2.4c-0.6,0-1.1,0.8-1.8,0.8c-0.3-1,0.4-1.6,1-2.2
		C195.3,72.5,196.6,72.8,196.9,71.6z"/>
	<path class="st1" d="M198.8,75.4c0,0.5,0.3,1.1-0.6,1.3c-1,0.2-2.1,0.4-3.2,0C196.1,75.6,197.5,75.9,198.8,75.4L198.8,75.4z"/>
	<path class="st1" d="M209.6,11.8c-0.3,0.3-0.4,0.8-0.3,1.2l-1.6-0.5C208.7,10.7,208.8,10.7,209.6,11.8z"/>
	<path class="st2" d="M206,15.1c-0.1,0-0.2,0.2-0.3,0.1c-0.1,0-0.1-0.2-0.2-0.3c-0.1-0.1,0.2-0.2,0.3-0.1
		C205.9,14.8,205.9,15,206,15.1z"/>
	<path class="st5" d="M208.4,74.2c-0.4,1.2-1.5,0.7-2.3,0.8c0-0.3-1-0.7,0-0.7L208.4,74.2z"/>
	<path class="st5" d="M203.4,75.8l-0.1-0.2l0.2,0.1L203.4,75.8z"/>
	<polygon class="st0" points="213.3,69.7 213.3,69.8 213.2,69.8 	"/>
	<polygon class="st0" points="212.9,70.4 213,70.5 212.9,70.5 	"/>
	<path class="st1" d="M176.6,34.4c2.5,1,4.8,2.6,6.6,4.6l0,0c-0.9,0.1-1.6-0.4-2.2-0.9c-2-1.6-4.2-2.8-6.6-3.7l-1.2-0.4l0,0
		C174.5,32.9,175.5,34.3,176.6,34.4z"/>
	<path class="st4" d="M170.5,33.5c0-0.4,0.3-0.7,0.7-0.7c0,0,0.1,0,0.1,0l0.1,0.9L170.5,33.5z"/>
	<path class="st2" d="M176.7,33.9l-0.2-0.1L176.7,33.9z"/>
	<path class="st1" d="M172,89.4c-0.1,0.9-0.8,1.4-1.5,1.9c-0.2-1.4,0.4-2.3,1.6-3.1L172,89.4z"/>
	<path class="st5" d="M129.7,167.2c-1.1-0.3-0.2-1-0.2-1.5c0.7,0.3,1.4,0.8,2.2,0.3c0.2,0.7,0.4,1.5-0.8,1.1
		C130.4,166.9,130,166.7,129.7,167.2z"/>
	<path class="st3" d="M116.7,88.2c0,0.1,0,0.2-0.1,0.3l-0.1-0.3L116.7,88.2z"/>
	<path class="st1" d="M120.5,105.6l-0.5-0.2C120.3,105.1,120.4,105.4,120.5,105.6L120.5,105.6z"/>
	<path class="st3" d="M214.6,41.3c0-0.5,0.3-1,0.7-1.2C215.4,40.7,215.4,41.2,214.6,41.3z"/>
	<path class="st1" d="M214.6,11.9c0,0.3,0,0.6-0.4,0.6c-0.1,0-0.1-0.1-0.1-0.1C214.1,11.9,214.4,11.9,214.6,11.9L214.6,11.9z"/>
	<path class="st1" d="M213.5,13.4l-0.3,0.2l-0.1-0.2C213.1,13.5,213.5,13.4,213.5,13.4z"/>
	<path class="st1" d="M213.5,13.4l0.1-0.2L213.5,13.4z"/>
	<path class="st2" d="M194.5,32.8l-0.3-0.4c-0.7-1.5-1.9-2.6-3.4-3.1l-0.5-1c0.6-0.1,1.4,0,0.9-1c-0.3-0.6-0.5-1.3-0.4-2
		c0.5-0.2,1.2,0.2,1.4-0.7c-0.5-0.3-1.2-0.3-1.5-0.9c-0.1-1.2-0.8-0.9-1.5-0.5c-0.7,0.4-1.1,1-1.9,0.9c-1-0.9-0.8-1.6,0.3-1.9
		c1.1-0.3,2.1-0.8,3.1-0.1c1.2,0,1.8,1.2,2.9,1.3c0.5,0.9,1.4,1.3,2.4,1.5c0.2,0.9,0.8,1.1,1.5,1.2c0.3,1.4,1,2.5,2.4,3.1
		c-0.2,0.9,0.6,1.1,1.1,1.5c0,0.4,0.3,0.8,0.7,0.8l0.4,0.7l0.3,0.4l0.3,0.3c0.7,1.6,1.7,3.1,1.4,5c-1.1,0.4-1.7,1.4-2.5,2.1
		c-0.9,0.7-0.2,0.3,0,0.5c0.2,0.8,0.1,0.8-1,0.8c-0.9-1.5-1.1-3.6-3.2-4.2c-0.3-1.4-0.9-2.5-2.3-3.1
		C195.3,33.4,195.2,32.8,194.5,32.8z"/>
	<path class="st1" d="M190.5,23.6c0.3,0.6,1,0.6,1.5,0.9c-0.2,0.9-1,0.5-1.4,0.7c-1-1.4-1.7,0.8-2.7,0.2l-0.4-0.1l-0.4-1.4
		c0.8,0.1,1.3-0.5,1.9-0.9C189.4,23.7,190,23.4,190.5,23.6z"/>
	<path class="st2" d="M187.6,25.3l0.4,0.1l-0.1,0.9c-1-0.2-1.9-0.6-2.7-1.2c0.4-0.5,0.7-1.2,1.4-0.2
		C186.7,25.2,187.2,25.4,187.6,25.3z"/>
	<path class="st1" d="M115,118.4v1.5C114.7,119.4,114.6,118.8,115,118.4z"/>
	<path class="st3" d="M187.9,26.2l0.1-0.9c0.9,0.6,1.7-1.6,2.7-0.2c-0.1,0.7,0.1,1.4,0.4,2c0.5,1-0.3,0.9-0.9,1h0
		c0-0.6-0.2-1-0.8-0.4l-1.2-1.1L187.9,26.2L187.9,26.2z"/>
	<path class="st2" d="M189.4,27.8c0.7-0.7,0.7-0.2,0.8,0.4C189.9,28.2,189.6,28,189.4,27.8z"/>
	<path class="st2" d="M187.9,26.2l0.4,0.5L187.9,26.2z"/>
	<path class="st1" d="M205.3,85.4L205,85C205.5,84.9,205.2,85.3,205.3,85.4L205.3,85.4z"/>
	<path class="st5" d="M230.9,118.7c0.3,0,0.6,0,0.8,0.4C231.4,119.2,231,119,230.9,118.7z"/>
	<path class="st3" d="M211.9,15.3c-0.1,0.3,0.1,1-0.4,0.9c-0.5-0.1-1-0.7-0.4-1.3L211.9,15.3z"/>
	<path class="st3" d="M168.1,74.3l0.1,0.7c0,0.1,0,0.3,0,0.4c-0.7-0.2-1.3,0.5-2.1,0.1c-0.7-0.5-1.2,0.5-1,0.9
		c1.2,1.8,0,2.5-1.2,3.3c-1.7-2.4-1.6-3,0.3-5.5c0.7-0.9,0.7-2.1-0.3-2.6c-0.9-0.5-1.2-2-2.7-1.5c-0.2-1.1-0.8-2.3,0-3.4
		c1.9,1.2,3.9,2.5,4.1,5.1l-0.1,0.2l0.1-0.2h1.1C166.9,72.8,166.6,74.1,168.1,74.3z"/>
	<path class="st1" d="M164,79.7c1.2-0.8,2.4-1.5,1.2-3.3c-0.3-0.4-0.3-1.7,1-0.9s1.4-0.3,2.1-0.1c0,0.2,0.2,0.5,0.1,0.5
		c-1.8,1.8-2.2,4.3-3.8,6.2c-0.3,0.3-0.6,0.8-1.1,0.4c-0.5-0.3,0-0.6,0-0.9c0.9-1.4-0.7-1.1-1.1-1.6C162.8,79.2,163.6,80.4,164,79.7
		z"/>
	<path class="st1" d="M141.4,66.5l0.2,0.1L141.4,66.5z"/>
	<path class="st5" d="M196.9,71.6c-0.3,1.1-1.4,1-2.1,1.5c-0.3-1,0.4-1.3,1-1.7L196.9,71.6z"/>
	<path class="st1" d="M181,64.5l-0.1-0.8c0.1-0.7,0.1-1.5-0.7-1.9c-0.7-1.9-2.1-3.4-2.5-5.4l0.1-0.1c1.4,0.9,1.6,2.5,2.5,3.7
		c0.4,0.6,0.7,1.4,1.3,1.9c-0.2,0.9,0.3,1.7,0.3,2.6L181,64.5L181,64.5z"/>
	<path class="st3" d="M198.8,64.9c0,0.8-0.5,1.4-0.9,2.1c-0.3,0.7-0.5,1.5-1.3,0.1c-0.8-1.4-1.2,0.2-1.8,0.7c-0.5,0.5-1,1.7-2.2,0.7
		c-0.5-0.5-1.2,0-1.2,0.9c0,0.9-0.5,1-1.1,0.9c-0.7-0.2-1.5-0.2-2.2,0c-1.2,0.3-0.8-0.8-0.9-1.4l1.5-0.1c0.2,0.4,0.6,0.6,0.9,0.3
		c0.3-0.3-0.4-0.6-0.4-1c0.9,0,1.5-0.5,2-1.1c1.4,0.2,3.8-1.1,4.2-2.4c0.2-0.4,0.5-0.7,0.4-1.2h0.5c1.4,0.1,1.6-1.5,2.8-1.9
		c0.2,1.5-1.7,2.1-1.4,3.6L198.8,64.9z"/>
	<path class="st1" d="M189.1,68c0,0.4,1,0.4,0.4,1s-0.7,0.1-0.9-0.3C188.6,68.4,188.8,68.1,189.1,68z"/>
	<path class="st1" d="M160.4,100.1c0,0.4,0.1,0.9-0.4,1.1C160,100.8,159.9,100.4,160.4,100.1z"/>
	<path class="st1" d="M185.6,68.8c-0.4,0-0.8-0.2-0.7-0.7c0.1-0.5,0.3-0.3,0.3-0.3S185.6,68.4,185.6,68.8L185.6,68.8z"/>
	<path class="st1" d="M184.5,75h-0.4c0-0.3-0.2-0.9,0.4-0.9c0.6,0,0.3,0.4,0.4,0.7c0.1,0.3,0,0.1,0,0.1L184.5,75z"/>
	<path class="st5" d="M184.5,75l0.4-0.1c0.1,0.4-0.1,0.7-0.4,0.9L184.5,75z"/>
	<path class="st4" d="M114,97l0.2,0.3l-0.1,0.1L114,97z"/>
	<path class="st3" d="M124.2,91.4l0.7-0.6c0.8,0,1.8-0.2,1.3,1.3c-0.1,0.4,0.1,1,0.2,1.4L126,94c-0.3,0.1-0.3,0.2,0,0.3v0.4
		l-3.9,1.2c-0.5-0.8-1.2,0.1-1.7-0.3c0.1-1.2,1.6-0.6,1.8-1.6l1.3-0.7c0.5,0.1,0.9,0.1,1.1-0.4c0.2-0.5-0.1-0.5-0.4-0.7V91.4z"/>
	<path class="st4" d="M124.2,91.4c0,0.3,0,0.6,0,0.9c-0.7,0.1-0.6,0.6-0.7,1.1l-1.3,0.7c-0.4-0.3-0.4-0.7-0.5-1.1
		c0.7-0.3,0.9-1,1.2-1.7l0,0L124.2,91.4z"/>
	<path class="st1" d="M122.9,91.2c-0.3,0.7-0.4,1.4-1.2,1.7C121.8,92.2,121.9,91.4,122.9,91.2z"/>
	<path class="st3" d="M116.7,92.8l-0.4,0.8l-0.8,0.1C115.5,92.9,116,92.8,116.7,92.8L116.7,92.8z"/>
	<path class="st1" d="M128.6,94.4c1.1,0,0.9,0.9,1.2,1.5c-0.4,0.9-0.7,1.9-1.2,2.8s-1.9,1.2-3.2,1c-0.3-0.1-0.6-0.4-0.5-0.7
		c0-0.3,0.3-0.6,0.5-0.5c3.2,1.2,1.9-1.6,2.5-2.7c0-0.1,0-0.1,0-0.2C128.7,95.5,128.7,94.9,128.6,94.4z"/>
	<path class="st1" d="M127.1,93.7c0.5-0.2,0.8,0.1,1,0.5C127.5,94.4,127.2,94.2,127.1,93.7z"/>
	<path class="st1" d="M126,94.3c-0.3-0.2-0.3-0.3,0-0.3L126,94.3z"/>
	<path class="st1" d="M170.1,59.8v0.5C169.8,60.1,169.9,60,170.1,59.8z"/>
	<path class="st3" d="M137.6,95.5c-1,0.1-1.7,0.7-2.3,1.5c-0.5-0.5-0.4-0.9-0.2-1.1c1-0.9,1.4-2.2,1.3-3.5c0-0.4,0-1,0.6-1
		c0.6,0,0.5,0.6,0.5,1C137.5,93.4,137.5,94.5,137.6,95.5L137.6,95.5z"/>
	<path class="st3" d="M117,92.4c0-0.4,0.2-0.8,0.5-1c0.3-0.2,0.5-0.6,1-0.3c0.1,0.1,0.2,0.3,0.3,0.5c0.1,0.6-0.5,0.5-0.7,0.6
		C117.7,92.2,117.4,92.3,117,92.4L117,92.4z"/>
	<path class="st3" d="M116.7,92.8l0.4-0.4h0L116.7,92.8L116.7,92.8z"/>
	<path class="st5" d="M191.8,51.4c0.2-0.9-0.5-1.5-0.5-2.3h0.6c0.1,0.5,0.5,0.9,1,0.9V50c0,1.2,0.7,2.2,0.3,3.6
		C192.2,53,192.5,51.9,191.8,51.4z"/>
	<path class="st1" d="M201.8,40.4c-0.2-0.2-0.3-0.3,0-0.5L201.8,40.4z"/>
	<path class="st2" d="M194.5,49.8c-0.2,0.3-0.3,0.3-0.4,0H194.5z"/>
	<path class="st2" d="M195.7,20.8l0.1-0.2L195.7,20.8z"/>
	<path class="st2" d="M184.8,29.6l-0.1-0.1l0.2-0.1l0.1,0.1L184.8,29.6z"/>
	<path class="st3" d="M172.8,41.3c0.5,1-0.5,0.7-0.9,0.9c0.4,0.7,1.4,0.8,1.5,1.5s-1.5,1.1-1,2.2c-0.3,0.1-0.7,0.3-0.9,0.2
		c-1.5-0.8-3-0.3-4.5-0.3c-1.5,0.1-1.7-0.7-2.7-1c0.5-0.6,2.2,0.2,1.2-1.4c-0.3-0.5,0.5-1.3,0.9-2s1.3-0.2,1.9,0
		c0.6,0.2,0.5,0.3,0.7,0.2c2.1-0.4,1.6,0.5,1,1.7c-0.6,1.2,0.4,0.6,0.8,0.7c0.4,0.1,0,0.6,0.5,0.6c0.1,0,0.1-0.1,0.1-0.1
		c0-0.4-0.3-0.4-0.6-0.5C170.8,42.7,170.4,41,172.8,41.3L172.8,41.3z"/>
	<path class="st3" d="M160.8,49.4c-0.5-0.1-1.2,0.6-1.4-0.3c-0.2-0.9,0.5-1.1,1.1-1.2c0.7-0.1,1.3-0.4,1.8-0.9
		c1.2-1,2.5-1.7,3.9-0.3c0.6,1.1,1.1,2.2,2.7,1.9c0,0.3,0.1,0.6,0.4,0.8l0,0c-0.8,0.7-2,0.7-2.9,0c-0.7-0.5-1.1,0-1.4,0.4
		c-0.3,0.4,0.2,0.7,0.6,0.8c0.4,0.1,0.5,0.3,0.3,0.7c-0.2,0.4-1.3,1-2,0.7S161.4,50.9,160.8,49.4l0-0.1L160.8,49.4z"/>
	<path class="st1" d="M168.9,48.6c-1.5,0.3-2.1-0.8-2.7-1.9c2.1,0.2,3.5,1.6,5,2.6c1.5,1,4,2.8,5.3,4.9c0.3,0.4,0.5,0.9,0.5,1.4l0,0
		c-2.2-1.6-3.7-4-6-5.5c-0.5-0.3-1-0.8-1.7-0.8l0,0C169.4,49.1,169.2,48.7,168.9,48.6C168.9,48.6,168.9,48.6,168.9,48.6z"/>
	<path class="st3" d="M180.3,61.8c0.7,0.5,0.7,1.2,0.7,1.9C180.1,63.3,179.3,62.9,180.3,61.8z"/>
	<path class="st1" d="M177.1,55.6c0.4,0.1,0.8,0.2,0.9,0.7l-0.1,0.1C177.3,56.4,177.2,56,177.1,55.6L177.1,55.6z"/>
	<path class="st3" d="M173.2,33.9l1.2,0.4c0.3,1.2,0,3,2.2,2c0.5-0.2,0.5,0.3,0.5,0.7c0.1,0.4,1,1.4,0.3,2.3c-0.7,0.9-0.7,0.2-1.1,0
		c-1.2-0.5-2.4-0.9-3.8-0.6s-1.7-0.3-1.7-1.5s-0.1-2.1,1.4-1.9C173.7,35.5,173,34.5,173.2,33.9z"/>
	<path class="st1" d="M186.5,41.9c1.9,1.2,3.2,3,3.8,5.1h0c-2.2-0.9-2.7-3.3-3.9-5L186.5,41.9z"/>
	<path class="st1" d="M183.3,39c2.1,1,2.2,1.2,1,2.7C184.3,40.5,183.4,39.9,183.3,39L183.3,39z"/>
	<path class="st1" d="M191.8,49h-0.5c-0.6-0.5-0.9-1.2-1-1.9h0C191.2,47.4,191.5,48.2,191.8,49z"/>
	<path class="st3" d="M192.8,49.9c-0.5-0.1-0.9-0.4-1-0.9C192.4,49.1,193,49,192.8,49.9z"/>
	<path class="st3" d="M180.2,34.7l0.3,0.4l-0.2,0.1L180.2,34.7L180.2,34.7z"/>
	<path class="st3" d="M181.3,35.1l-0.3-0.4l0.2-0.1L181.3,35.1z"/>
	<path class="st3" d="M194.5,49.8h-0.4l0.2-0.5L194.5,49.8z"/>
	<path class="st1" d="M186.3,42.1l-0.4-0.4l0.2-0.2l0.4,0.4L186.3,42.1z"/>
	<path class="st1" d="M185.9,41.8c-0.1-0.1-0.2-0.2-0.2-0.3c0,0,0.3,0,0.4,0.1L185.9,41.8z"/>
	<path class="st3" d="M181.3,35.1l0.2,0.2L181.3,35.1z"/>
	<path class="st5" d="M168.9,4.2c0.4-0.1,0.9-0.1,0.9,0.3c0.1,0.4-0.5,0.3-0.8,0.4L168.9,4.2z"/>
	<path class="st3" d="M196,57.6l1.2-1.9l0.3-0.4h0c1.7-1.5,3.5-2.9,4.4-5.1c0.2-0.6,0.6-1.3,1.4-1.5c1.2,0.5,1.4,1.3,0.6,2.2
		c-2.7,3.1-4.7,6.7-7.6,9.6c-1.4,1.4-2.5,3.2-4.3,4.3c1-2.1,2.6-3.6,4-5.3C196.7,58.6,197,58.1,196,57.6z"/>
	<path class="st5" d="M203.4,48.6c-0.8,0.2-1.1,0.9-1.4,1.5c-0.9,2.2-2.7,3.6-4.4,5.1c-0.2-1.2,0.4-2.1,1.1-3
		c1.4-1.8,3.1-3.4,4.3-5.4c0.3-0.5,0.6-0.4,0.8,0.1L203.4,48.6z"/>
	<path class="st3" d="M204.2,54.5c-1.7,1.3-2.6,3.2-3.6,5c-0.4,0.7-0.7,1.6-1.8,0.7c2.1-2.4,3.6-5.2,5.3-7.9c0.7,0.4,0.3,1,0.5,1.4
		l0,0C204.3,53.8,204.1,54.1,204.2,54.5L204.2,54.5z"/>
	<path class="st5" d="M191.1,63c-0.1-1.9,0.8-2.9,2.6-3.1C192.6,60.8,192.8,62.7,191.1,63z"/>
	<path class="st5" d="M195.7,63.4c0.2,0.5-0.2,0.8-0.4,1.2c-0.2,0.4-0.9,0.1-0.9-0.3C194.3,63.9,195.1,63.4,195.7,63.4z"/>
	<path class="st3" d="M210,43.6v0.8l0,0l-1.2,0.8l0,0C209,44.5,209.1,43.7,210,43.6z"/>
	<path class="st3" d="M208.4,46.7c-0.2,0-0.6,0.4-0.7-0.1c-0.1-0.5,0.3-0.6,0.7-0.7l0,0L208.4,46.7L208.4,46.7z"/>
	<path class="st3" d="M208.4,45.9c-0.1-0.3,0.1-0.6,0.4-0.8l0,0v0.8H208.4z"/>
	<path class="st3" d="M199.5,63.7c0,0.3,0,0.6-0.4,0.8C199.1,64.2,199.2,63.9,199.5,63.7z"/>
	<path class="st3" d="M207.3,47.9l0.1-0.2L207.3,47.9z"/>
	<path class="st3" d="M199.9,63.4l-0.4,0.4L199.9,63.4z"/>
	<path class="st5" d="M196.1,63.4h-0.5C195.9,63,196,63.2,196.1,63.4z"/>
	<path class="st3" d="M207.3,47.9l-0.1,0.2L207.3,47.9z"/>
	<path class="st3" d="M199.1,64.5l-0.4,0.4L199.1,64.5z"/>
	<path class="st5" d="M200.7,47c0-0.6,0.1-1.2,0.8-1.4C201.5,46.2,201.4,46.8,200.7,47z"/>
	<path class="st5" d="M201.9,44.8c0.1-0.5,0.5-1,1-1.2C203.1,44.4,202.7,44.8,201.9,44.8z"/>
	<path class="st5" d="M203,43.6c0-0.4,0.2-0.7,0.6-0.8c0,0,0,0,0,0C203.8,43.3,203.5,43.6,203,43.6z"/>
	<path class="st5" d="M197.6,55.3l-0.3,0.4C197.3,55.5,197.4,55.3,197.6,55.3C197.6,55.3,197.6,55.3,197.6,55.3z"/>
	<path class="st1" d="M208.8,45.9v-0.8l1.2-0.8C210,45.2,209.8,45.9,208.8,45.9z"/>
	<path class="st1" d="M204.2,54.5c-0.1-0.3,0.1-0.6,0.4-0.8C204.6,54,204.4,54.3,204.2,54.5z"/>
	<path class="st1" d="M208.4,45.9h0.4c0,0.3,0,0.6-0.4,0.8V45.9z"/>
	<path class="st2" d="M211.9,43.6l-0.1,0.5C211.5,43.8,211.8,43.8,211.9,43.6L211.9,43.6z"/>
	<path class="st3" d="M190.5,23.6c-0.5-0.2-1.2,0.2-1.5-0.5C189.8,22.6,190.5,22.3,190.5,23.6z"/>
	<path class="st1" d="M165.5,71.9l-0.1,0.2L165.5,71.9z"/>
	<path class="st1" d="M123.5,93.4c0.1-0.4,0.1-1,0.7-1.1c0.7-0.1,0.6,0.3,0.4,0.7C124.4,93.4,123.9,93.5,123.5,93.4z"/>
	<path class="st2" d="M170.9,44c0.3,0,0.6,0,0.6,0.5c0,0.1-0.1,0.1-0.1,0.1C170.9,44.6,170.9,44.3,170.9,44z"/>
	<path class="st2" d="M168.9,48.6c0.3,0.1,0.5,0.4,0.4,0.8c0,0,0,0,0,0C169,49.3,168.9,49,168.9,48.6z"/>
	<path class="st2" d="M160.8,49.4l0.1-0.2L160.8,49.4z"/>
</g>
</svg>
