<?xml version="1.0" encoding="utf-8"?>
<!-- Generator: Adobe Illustrator 21.0.2, SVG Export Plug-In . SVG Version: 6.00 Build 0)  -->
<svg version="1.1" id="master-artboard" xmlns="http://www.w3.org/2000/svg" xmlns:xlink="http://www.w3.org/1999/xlink" x="0px"
	 y="0px" viewBox="0 0 106.2 100.5" style="enable-background:new 0 0 106.2 100.5;" xml:space="preserve">
<style type="text/css">
	.st0{fill:#FFFFFF;fill-opacity:0;}
	.st1{fill:#99B44A;}
	.st2{fill:url(#SVGID_1_);}
	.st3{fill:url(#SVGID_2_);}
	.st4{fill:#663433;}
	.st5{fill:#D4A87D;}
	.st6{fill:url(#SVGID_3_);}
	.st7{fill:url(#SVGID_4_);}
	.st8{fill:url(#SVGID_5_);}
	.st9{fill:url(#SVGID_6_);}
	.st10{fill:url(#SVGID_7_);}
	.st11{fill:url(#SVGID_8_);}
	.st12{fill:#4D4C4C;}
	.st13{fill:#BCA880;}
	.st14{fill:url(#SVGID_9_);}
	.st15{fill:url(#SVGID_10_);}
	.st16{fill:url(#SVGID_11_);}
	.st17{fill:url(#SVGID_12_);}
	.st18{fill:url(#SVGID_13_);}
	.st19{fill:url(#SVGID_14_);}
</style>
<rect id="ee-background" x="-22.3" y="-25.3" class="st0" width="150" height="150"/>
<g transform="matrix(1.5372826044574701, 0, 0, 1.5372826044574701, 96.49593338378463, 220.6619469798843)">
	<path class="st1" d="M-0.9-105.2l3.1,1.7l-31.6,16.6l-31.3-16.6l6.4-2.3L-0.9-105.2z"/>
	
		<linearGradient id="SVGID_1_" gradientUnits="userSpaceOnUse" x1="353.7773" y1="-23.2211" x2="353.7773" y2="37.9419" gradientTransform="matrix(-1.5373 0 0 -1.5373 500.6389 -109.3413)">
		<stop  offset="0" style="stop-color:#E1CFAD"/>
		<stop  offset="1" style="stop-color:#F7F2E7"/>
	</linearGradient>
	<path class="st2" d="M-29.1-104.7L-57.3-119v15.2l28.2,14.3V-104.7z"/>
	
		<linearGradient id="SVGID_2_" gradientUnits="userSpaceOnUse" x1="349.5857" y1="-9.1216" x2="349.5857" y2="5.8348" gradientTransform="matrix(-1.5373 0 0 -1.5373 500.6389 -109.3413)">
		<stop  offset="0" style="stop-color:#A15641"/>
		<stop  offset="1" style="stop-color:#C96C38"/>
	</linearGradient>
	<path class="st3" d="M-40-107.3l6.5,3.2v6l-6.5-3.2V-107.3z"/>
	<path class="st4" d="M-40-107.3l0.3-0.1l6.5,3.1l0,5.9l-0.3,0.2v-6L-40-107.3z"/>
	<path class="st5" d="M-39.7-106.8l5.8,2.8v5.2l-5.8-2.8V-106.8z"/>
	
		<linearGradient id="SVGID_3_" gradientUnits="userSpaceOnUse" x1="349.5165" y1="-9.1778" x2="349.5165" y2="6.0885" gradientTransform="matrix(-1.5373 0 0 -1.5373 500.6389 -109.3413)">
		<stop  offset="0" style="stop-color:#8DD7F7"/>
		<stop  offset="1" style="stop-color:#FFFFFF"/>
	</linearGradient>
	<path class="st6" d="M-39.4-106.7l5.6,2.7v5l-5.6-2.7V-106.7z"/>
	
		<linearGradient id="SVGID_4_" gradientUnits="userSpaceOnUse" x1="358.9284" y1="-4.7246" x2="358.9284" y2="10.2314" gradientTransform="matrix(-1.5373 0 0 -1.5373 500.6389 -109.3413)">
		<stop  offset="0" style="stop-color:#A15641"/>
		<stop  offset="1" style="stop-color:#C96C38"/>
	</linearGradient>
	<path class="st7" d="M-54.4-114.1l6.5,3.2v5.9l-6.5-3.2V-114.1z"/>
	<path class="st4" d="M-54.4-114.1l0.3-0.1l6.5,3.1l0,5.9l-0.3,0.2v-5.9L-54.4-114.1z"/>
	<path class="st5" d="M-54-113.6l5.8,2.8v5.2l-5.8-2.8V-113.6z"/>
	
		<linearGradient id="SVGID_5_" gradientUnits="userSpaceOnUse" x1="358.8593" y1="-4.7807" x2="358.8593" y2="10.4849" gradientTransform="matrix(-1.5373 0 0 -1.5373 500.6389 -109.3413)">
		<stop  offset="0" style="stop-color:#8DD7F7"/>
		<stop  offset="1" style="stop-color:#FFFFFF"/>
	</linearGradient>
	<path class="st8" d="M-53.8-113.5l5.6,2.7v5l-5.6-2.7V-113.5z"/>
	
		<linearGradient id="SVGID_6_" gradientUnits="userSpaceOnUse" x1="335.4414" y1="-17.8649" x2="335.4414" y2="34.0462" gradientTransform="matrix(-1.5373 0 0 -1.5373 500.6389 -109.3413)">
		<stop  offset="0" style="stop-color:#EDDCBF"/>
		<stop  offset="1" style="stop-color:#F7F2E7"/>
	</linearGradient>
	<path class="st9" d="M-29.2-104.6l15.4-21.7l12.8,7.3v15.2l-28.3,14.3L-29.2-104.6z"/>
	
		<linearGradient id="SVGID_7_" gradientUnits="userSpaceOnUse" x1="334.7299" y1="-325.8768" x2="334.7299" y2="739.3688" gradientTransform="matrix(-1.5373 0 0 -1.5373 500.6389 -109.3413)">
		<stop  offset="0" style="stop-color:#692C2A"/>
		<stop  offset="1" style="stop-color:#C53430"/>
	</linearGradient>
	<path class="st10" d="M-29.1-104.7l15.4-21.6l12.8,7.3l3.9,0.1l-15.8-9.5l-18,26.2L-29.1-104.7z"/>
	
		<linearGradient id="SVGID_8_" gradientUnits="userSpaceOnUse" x1="349.3539" y1="-9.6244" x2="349.3539" y2="42.9788" gradientTransform="matrix(-1.5373 0 0 -1.5373 500.6389 -109.3413)">
		<stop  offset="0" style="stop-color:#C53430"/>
		<stop  offset="1" style="stop-color:#EF4927"/>
	</linearGradient>
	<path class="st11" d="M-12.8-128.5l-28.5-8.2L-60-116l29.2,13.7L-12.8-128.5z"/>
	<path class="st12" d="M-16-99.2l15.1-7.4v2.8L-16-96.1l-13.1,6.6l-28.2-14.3v-2.5l28.2,13.7L-16-99.2z"/>
	<path class="st13" d="M-0.9-119l-12.8-7.3l-1.4,2l14.3,7.5V-119z"/>
	
		<linearGradient id="SVGID_9_" gradientUnits="userSpaceOnUse" x1="334.7258" y1="-10.4626" x2="334.7258" y2="9.5854" gradientTransform="matrix(-1.5373 0 0 -1.5373 500.6389 -109.3413)">
		<stop  offset="0" style="stop-color:#A15641"/>
		<stop  offset="1" style="stop-color:#C96C38"/>
	</linearGradient>
	<path class="st14" d="M-11.2-98.3l0-12.7l-5.5,2.6l0,12.9L-11.2-98.3z"/>
	<path class="st5" d="M-12.1-99l-1.4,0.7l0-3.2l1.4-0.7L-12.1-99L-12.1-99z M-14.1-98.1l-1.4,0.7l0-3.2l1.4-0.7L-14.1-98.1
		L-14.1-98.1z M-14-102l0-3.3l-1.4,0.7l0,3.2L-14-102L-14-102z M-14-105.8l-1.4,0.7l0-3.2l1.4-0.7L-14-105.8L-14-105.8z M-12-106.8
		l-1.4,0.7l0-3.2l1.4-0.7L-12-106.8L-12-106.8z M-12-106.2l-1.4,0.7l0,3.2l1.4-0.7L-12-106.2z"/>
	
		<linearGradient id="SVGID_10_" gradientUnits="userSpaceOnUse" x1="334.6933" y1="-24.2185" x2="334.6933" y2="39.8723" gradientTransform="matrix(-1.5373 0 0 -1.5373 500.6389 -109.3413)">
		<stop  offset="0" style="stop-color:#F48120"/>
		<stop  offset="1" style="stop-color:#FFF100"/>
	</linearGradient>
	<path class="st15" d="M-12.3-102.2l0,3l-1.1,0.5l0-2.9L-12.3-102.2L-12.3-102.2z M-14.3-98.3l-1.1,0.5l0-2.9l1.1-0.6L-14.3-98.3
		L-14.3-98.3z M-14.3-102.2l-1.1,0.5l0-2.9l1.1-0.6L-14.3-102.2L-14.3-102.2z M-14.3-106l-1.1,0.6l0-2.9l1.1-0.6L-14.3-106
		L-14.3-106z M-12.3-107l-1.1,0.5l0-2.9l1.1-0.6L-12.3-107L-12.3-107z M-13.4-102.6l0-3l1.1-0.6l0,3L-13.4-102.6z"/>
	<path class="st4" d="M-11.2-111l-0.3-0.1l-5.5,2.5v13l0.2,0.1l0-12.9L-11.2-111z"/>
	
		<linearGradient id="SVGID_11_" gradientUnits="userSpaceOnUse" x1="340.0274" y1="-8.8823" x2="340.0274" y2="6.0737" gradientTransform="matrix(-1.5373 0 0 -1.5373 500.6389 -109.3413)">
		<stop  offset="0" style="stop-color:#A15641"/>
		<stop  offset="1" style="stop-color:#C96C38"/>
	</linearGradient>
	<path class="st16" d="M-18.8-107.7l-6.5,3.2v6l6.5-3.2V-107.7z"/>
	<path class="st4" d="M-18.8-107.7l-0.3-0.1l-6.5,3.1l0,5.9l0.3,0.2v-6L-18.8-107.7z"/>
	<path class="st5" d="M-19.2-107.2l-5.8,2.8v5.2l5.8-2.8V-107.2z"/>
	
		<linearGradient id="SVGID_12_" gradientUnits="userSpaceOnUse" x1="340.1006" y1="-8.9309" x2="340.1006" y2="6.3354" gradientTransform="matrix(-1.5373 0 0 -1.5373 500.6389 -109.3413)">
		<stop  offset="0" style="stop-color:#8DD7F7"/>
		<stop  offset="1" style="stop-color:#FFFFFF"/>
	</linearGradient>
	<path class="st17" d="M-19.4-107.1l-5.6,2.7v5l5.6-2.7V-107.1z"/>
	
		<linearGradient id="SVGID_13_" gradientUnits="userSpaceOnUse" x1="329.3104" y1="-4.2106" x2="329.3104" y2="10.7454" gradientTransform="matrix(-1.5373 0 0 -1.5373 500.6389 -109.3413)">
		<stop  offset="0" style="stop-color:#A15641"/>
		<stop  offset="1" style="stop-color:#C96C38"/>
	</linearGradient>
	<path class="st18" d="M-2.3-114.9l-6.5,3.2v6l6.5-3.2V-114.9z"/>
	<path class="st4" d="M-2.3-114.9l-0.3-0.1l-6.5,3.1l0,5.9l0.3,0.2v-6L-2.3-114.9z"/>
	<path class="st5" d="M-2.7-114.4l-5.8,2.8v5.2l5.8-2.8V-114.4z"/>
	
		<linearGradient id="SVGID_14_" gradientUnits="userSpaceOnUse" x1="329.3755" y1="-4.2592" x2="329.3755" y2="11.0067" gradientTransform="matrix(-1.5373 0 0 -1.5373 500.6389 -109.3413)">
		<stop  offset="0" style="stop-color:#8DD7F7"/>
		<stop  offset="1" style="stop-color:#FFFFFF"/>
	</linearGradient>
	<path class="st19" d="M-2.9-114.3l-5.6,2.7v5l5.6-2.7V-114.3z"/>
</g>
</svg>
