<?xml version="1.0" encoding="utf-8"?>
<!-- Generator: Adobe Illustrator 21.0.2, SVG Export Plug-In . SVG Version: 6.00 Build 0)  -->
<svg version="1.1" id="master-artboard" xmlns="http://www.w3.org/2000/svg" xmlns:xlink="http://www.w3.org/1999/xlink" x="0px"
	 y="0px" viewBox="0 0 100 65.6" style="enable-background:new 0 0 100 65.6;" xml:space="preserve">
<style type="text/css">
	.st0{fill:#CCEBFF;}
	.st1{fill:#FFFFFF;}
	.st2{fill:#376B88;}
	.st3{fill:#6699CC;}
	.st4{fill:#99FFFF;}
</style>
<g transform="matrix(1, 0, 0, 1, 0, 0)">
	<g>
		<g>
			<g>
				<path d="M100,44.5c0,6.5-1.1,12.5-3.1,17.7c-6.1-0.8-12.9,3.4-19.9,3.4s-13.8-4.1-19.9-3.4C55.1,56.9,54,50.9,54,44.5
					C54,24.8,64.3,8.9,77,8.9C89.7,8.9,100,24.8,100,44.5z"/>
				<path class="st0" d="M97.8,45.6c0,5.5-1,10.7-2.7,15.1c-5.5-0.7-11.7,3.5-18.1,3.5c-6.4,0-12.5-4.1-18.1-3.5
					c-1.7-4.5-2.7-9.6-2.7-15.1c0-16.8,9.3-30.4,20.8-30.4C88.5,15.2,97.8,28.8,97.8,45.6z"/>
				<path class="st1" d="M95.6,46.5c0,4.9-0.9,9.5-2.5,13.5c-4.9-0.6-10.4,3.7-16.1,3.7s-11.2-4.3-16.1-3.7c-1.6-4-2.5-8.6-2.5-13.5
					c0-15,8.3-27.1,18.6-27.1C87.3,19.4,95.6,31.6,95.6,46.5z"/>
			</g>
			<g>
				<path class="st2" d="M79.7,46.1c0-7.9-4.7-14.3-10.4-14.3s-10.4,6.4-10.4,14.3s4.7,14.3,10.4,14.3S79.7,54,79.7,46.1z"/>
				<path d="M76.5,46.1c0-5.7-3.2-10.4-7.1-10.4c-3.9,0-7.1,4.7-7.1,10.4s3.2,10.4,7.1,10.4C73.3,56.5,76.5,51.9,76.5,46.1z"/>
				<path class="st1" d="M78.6,38.9c0-1.1-1.5-2.1-3.3-2.1s-3.3,0.9-3.3,2.1c0,1.1,1.5,2.1,3.3,2.1S78.6,40.1,78.6,38.9z"/>
				<path class="st3" d="M66.6,55.5c0-0.8-1-1.4-2.2-1.4c-1.2,0-2.2,0.6-2.2,1.4s1,1.4,2.2,1.4C65.6,56.9,66.6,56.3,66.6,55.5z"/>
				<path class="st4" d="M71,58c0-0.8-1-1.4-2.2-1.4c-1.2,0-2.2,0.6-2.2,1.4c0,0.8,1,1.4,2.2,1.4C70,59.3,71,58.7,71,58z"/>
			</g>
			<path d="M63.9,7.8C66.6,3.1,71.9,0,78.1,0c6.1,0,11.5,3.1,14.3,7.8c-4.1-2.3-9.1-4.3-14.3-4.3C72.9,3.5,68,5.5,63.9,7.8z"/>
		</g>
		<g>
			<g>
				<path d="M46,44.5c0,6.5-1.1,12.5-3.1,17.7c-6.1-0.8-12.9,3.4-19.9,3.4S9.2,61.5,3.1,62.2C1.1,56.9,0,50.9,0,44.5
					C0,24.8,10.3,8.9,23,8.9C35.7,8.9,46,24.8,46,44.5z"/>
				<path class="st0" d="M43.8,45.6c0,5.5-1,10.7-2.7,15.1c-5.5-0.7-11.6,3.5-18.1,3.5c-6.4,0-12.5-4.2-18.1-3.5
					c-1.7-4.5-2.7-9.6-2.7-15.1c0-16.8,9.3-30.4,20.8-30.4C34.5,15.2,43.8,28.8,43.8,45.6z"/>
				<path class="st1" d="M41.6,46.5c0,4.9-0.9,9.5-2.5,13.5c-4.9-0.6-10.4,3.7-16.1,3.7s-11.2-4.3-16.1-3.7c-1.6-4-2.5-8.6-2.5-13.5
					c0-15,8.3-27.1,18.6-27.1C33.3,19.4,41.6,31.6,41.6,46.5z"/>
			</g>
			<g>
				<path class="st2" d="M25.7,46.1c0-7.9-4.7-14.3-10.4-14.3S4.9,38.2,4.9,46.1s4.7,14.3,10.4,14.3S25.7,54,25.7,46.1z"/>
				<path d="M22.5,46.1c0-5.7-3.2-10.4-7.1-10.4s-7.1,4.7-7.1,10.4s3.2,10.4,7.1,10.4S22.5,51.9,22.5,46.1z"/>
				<path class="st1" d="M24.7,38.9c0-1.1-1.5-2.1-3.3-2.1c-1.8,0-3.3,0.9-3.3,2.1c0,1.1,1.5,2.1,3.3,2.1
					C23.2,41,24.7,40.1,24.7,38.9z"/>
				<path class="st3" d="M12.6,55.5c0-0.8-1-1.4-2.2-1.4s-2.2,0.6-2.2,1.4s1,1.4,2.2,1.4S12.6,56.3,12.6,55.5z"/>
				<path class="st4" d="M17,58c0-0.8-1-1.4-2.2-1.4s-2.2,0.6-2.2,1.4c0,0.8,1,1.4,2.2,1.4C16,59.3,17,58.7,17,58z"/>
			</g>
			<path d="M9.9,7.8C12.6,3.1,17.9,0,24.1,0c6.1,0,11.5,3.1,14.3,7.8c-4.2-2.3-9.1-4.3-14.3-4.3S14,5.5,9.9,7.8z"/>
		</g>
	</g>
</g>
</svg>
