<?xml version="1.0" encoding="utf-8"?>
<!-- Generator: Adobe Illustrator 21.0.2, SVG Export Plug-In . SVG Version: 6.00 Build 0)  -->
<svg version="1.1" id="master-artboard" xmlns="http://www.w3.org/2000/svg" xmlns:xlink="http://www.w3.org/1999/xlink" x="0px"
	 y="0px" viewBox="0 0 150 103.2" style="enable-background:new 0 0 150 103.2;" xml:space="preserve">
<style type="text/css">
	.st0{fill:#CCEBFF;}
	.st1{fill:#FFFFFF;}
	.st2{fill:#376B88;}
	.st3{fill:#6699CC;}
	.st4{fill:#99FFFF;}
</style>
<g transform="matrix(1, 0, 0, 1, 0, 0)">
	<g>
		<g>
			<g>
				<path d="M150,71.5c0,9.7-1.6,18.8-4.6,26.6c-9.2-1.2-19.3,5.1-29.9,5.1S94.8,97,85.6,98.1C82.7,90.2,81,81.1,81,71.5
					c0-29.5,15.4-53.4,34.5-53.4C134.5,18.1,150,42,150,71.5z"/>
				<path class="st0" d="M146.7,73.2c0,8.3-1.5,16-4.1,22.7c-8.3-1-17.5,5.3-27.1,5.3S96.8,95,88.4,95.9c-2.6-6.7-4.1-14.4-4.1-22.7
					c0-25.2,14-45.6,31.2-45.6C132.7,27.6,146.7,48,146.7,73.2z"/>
				<path class="st1" d="M143.4,74.6c0,7.4-1.3,14.3-3.7,20.3c-7.4-0.9-15.6,5.5-24.2,5.5S98.7,94,91.3,94.9
					c-2.4-6-3.7-12.9-3.7-20.3c0-22.5,12.5-40.7,27.9-40.7C130.9,33.9,143.4,52.2,143.4,74.6z"/>
			</g>
			<g>
				<path class="st2" d="M119.6,74c0-11.9-7-21.5-15.6-21.5S88.4,62.1,88.4,74s7,21.5,15.6,21.5C112.6,95.5,119.6,85.8,119.6,74z"/>
				<path d="M114.7,74c0-8.6-4.8-15.6-10.7-15.6c-5.9,0-10.7,7-10.7,15.6s4.8,15.6,10.7,15.6S114.7,82.6,114.7,74z"/>
				<path class="st1" d="M117.9,63.1c0-1.7-2.2-3.2-4.9-3.2c-2.7,0-4.9,1.4-4.9,3.2c0,1.7,2.2,3.2,4.9,3.2S117.9,64.9,117.9,63.1z"
					/>
				<path class="st3" d="M99.9,88c0-1.2-1.5-2.1-3.3-2.1c-1.8,0-3.3,0.9-3.3,2.1c0,1.2,1.5,2.1,3.3,2.1C98.4,90.1,99.9,89.2,99.9,88
					z"/>
				<path class="st4" d="M106.5,91.8c0-1.2-1.5-2.1-3.3-2.1c-1.8,0-3.3,0.9-3.3,2.1c0,1.2,1.5,2.1,3.3,2.1
					C105,93.8,106.5,92.9,106.5,91.8z"/>
			</g>
			<path d="M95.8,16.5c4.1-7,12.1-11.7,21.4-11.7c9.2,0,17.3,4.7,21.4,11.7c-6.2-3.4-13.6-6.5-21.4-6.5C109.3,10,102,13,95.8,16.5z"
				/>
		</g>
		<g>
			<g>
				<path d="M69,71.5c0,9.7-1.6,18.8-4.6,26.6c-9.2-1.2-19.3,5.1-29.9,5.1S13.8,97,4.6,98.1C1.7,90.2,0,81.1,0,71.5
					C0,42,15.4,18.1,34.5,18.1C53.5,18.1,69,42,69,71.5z"/>
				<path class="st0" d="M65.7,73.2c0,8.3-1.5,16-4.1,22.7c-8.3-1-17.4,5.3-27.1,5.3c-9.6,0-18.7-6.3-27.1-5.3
					c-2.6-6.7-4.1-14.4-4.1-22.7c0-25.2,14-45.6,31.2-45.6C51.8,27.6,65.7,48,65.7,73.2z"/>
				<path class="st1" d="M62.4,74.6c0,7.4-1.3,14.3-3.7,20.3c-7.4-0.9-15.6,5.5-24.2,5.5S17.7,94,10.3,94.9
					c-2.4-6-3.7-12.9-3.7-20.3c0-22.5,12.5-40.7,27.9-40.7C49.9,33.9,62.4,52.2,62.4,74.6z"/>
			</g>
			<g>
				<path class="st2" d="M38.6,74c0-11.9-7-21.5-15.6-21.5S7.4,62.1,7.4,74s7,21.5,15.6,21.5C31.6,95.5,38.6,85.8,38.6,74z"/>
				<path d="M33.7,74c0-8.6-4.8-15.6-10.7-15.6c-5.9,0-10.7,7-10.7,15.6S17.1,89.6,23,89.6C28.9,89.6,33.7,82.6,33.7,74z"/>
				<path class="st1" d="M37,63.1c0-1.7-2.2-3.2-4.9-3.2c-2.7,0-4.9,1.4-4.9,3.2c0,1.7,2.2,3.2,4.9,3.2C34.8,66.3,37,64.9,37,63.1z"
					/>
				<path class="st3" d="M18.9,88c0-1.2-1.5-2.1-3.3-2.1s-3.3,0.9-3.3,2.1c0,1.2,1.5,2.1,3.3,2.1C17.4,90.1,18.9,89.2,18.9,88z"/>
				<path class="st4" d="M25.5,91.8c0-1.2-1.5-2.1-3.3-2.1c-1.8,0-3.3,0.9-3.3,2.1c0,1.2,1.5,2.1,3.3,2.1
					C24,93.8,25.5,92.9,25.5,91.8z"/>
			</g>
			<path d="M14.8,16.5c4.1-7,12.1-11.7,21.4-11.7c9.2,0,17.3,4.7,21.4,11.7C51.3,13,44,10,36.2,10C28.4,10,21,13,14.8,16.5z"/>
		</g>
	</g>
</g>
</svg>
