<?xml version="1.0" encoding="utf-8"?>
<!-- Generator: Adobe Illustrator 21.0.2, SVG Export Plug-In . SVG Version: 6.00 Build 0)  -->
<svg version="1.1" id="master-artboard" xmlns="http://www.w3.org/2000/svg" xmlns:xlink="http://www.w3.org/1999/xlink" x="0px"
	 y="0px" viewBox="0 0 100 65.6" style="enable-background:new 0 0 100 65.6;" xml:space="preserve">
<style type="text/css">
	.st0{fill:#CCEBFF;}
	.st1{fill:#FFFFFF;}
	.st2{fill:#376B88;}
	.st3{fill:#6699CC;}
	.st4{fill:#99FFFF;}
</style>
<g transform="matrix(1, 0, 0, 1, 0, 0)">
	<g>
		<g>
			<g>
				<path d="M85,41c0,4.6-0.8,8.8-2.2,12.4c-4.3-0.6-9,2.4-13.9,2.4s-9.7-2.9-13.9-2.4c-1.4-3.7-2.2-7.9-2.2-12.4
					c0-13.8,7.2-24.9,16.1-24.9S85,27.2,85,41z"/>
				<path class="st0" d="M83.5,41.8c0,3.9-0.7,7.5-1.9,10.6c-3.9-0.5-8.2,2.5-12.7,2.5c-4.5,0-8.8-2.9-12.7-2.5
					c-1.2-3.2-1.9-6.7-1.9-10.6c0-11.8,6.5-21.3,14.6-21.3C76.9,20.5,83.5,30,83.5,41.8z"/>
				<path class="st1" d="M81.9,42.4c0,3.4-0.6,6.7-1.8,9.5c-3.4-0.4-7.3,2.6-11.3,2.6s-7.8-3-11.3-2.6c-1.1-2.8-1.8-6-1.8-9.5
					c0-10.5,5.8-19,13-19S81.9,32,81.9,42.4z"/>
			</g>
			<g>
				<path class="st2" d="M70.8,42.1c0-5.5-3.3-10-7.3-10s-7.3,4.5-7.3,10s3.3,10,7.3,10S70.8,47.6,70.8,42.1z"/>
				<path d="M68.6,42.1c0-4-2.2-7.3-5-7.3s-5,3.3-5,7.3s2.2,7.3,5,7.3S68.6,46.2,68.6,42.1z"/>
				<path class="st1" d="M70,37.1c0-0.8-1-1.5-2.3-1.5s-2.3,0.6-2.3,1.5c0,0.8,1.1,1.5,2.3,1.5S70,37.9,70,37.1z"/>
				<path class="st3" d="M61.6,48.7c0-0.6-0.7-1-1.5-1c-0.8,0-1.5,0.4-1.5,1s0.7,1,1.5,1C60.9,49.7,61.6,49.2,61.6,48.7z"/>
				<path class="st4" d="M64.7,50.4c0-0.6-0.7-1-1.5-1c-0.8,0-1.5,0.4-1.5,1s0.7,1,1.5,1C64,51.3,64.7,50.9,64.7,50.4z"/>
			</g>
			<path d="M59.7,15.3c1.9-3.3,5.6-5.5,9.9-5.5c4.3,0,8.1,2.2,10,5.5c-2.9-1.6-6.4-3-10-3C66,12.3,62.6,13.7,59.7,15.3z"/>
		</g>
		<g>
			<g>
				<path d="M47.2,41c0,4.6-0.8,8.8-2.2,12.4c-4.3-0.6-9,2.4-13.9,2.4s-9.7-2.9-13.9-2.4C15.8,49.7,15,45.5,15,41
					c0-13.8,7.2-24.9,16.1-24.9S47.2,27.2,47.2,41z"/>
				<path class="st0" d="M45.7,41.8c0,3.9-0.7,7.5-1.9,10.6c-3.9-0.5-8.1,2.5-12.7,2.5c-4.5,0-8.8-2.9-12.7-2.5
					c-1.2-3.2-1.9-6.7-1.9-10.6c0-11.8,6.5-21.3,14.6-21.3S45.7,30,45.7,41.8z"/>
				<path class="st1" d="M44.1,42.4c0,3.4-0.6,6.7-1.8,9.5c-3.4-0.4-7.3,2.6-11.3,2.6s-7.8-3-11.3-2.6c-1.1-2.8-1.8-6-1.8-9.5
					c0-10.5,5.8-19,13-19S44.1,32,44.1,42.4z"/>
			</g>
			<g>
				<path class="st2" d="M33,42.1c0-5.5-3.3-10-7.3-10s-7.3,4.5-7.3,10s3.3,10,7.3,10S33,47.6,33,42.1z"/>
				<path d="M30.8,42.1c0-4-2.2-7.3-5-7.3s-5,3.3-5,7.3s2.2,7.3,5,7.3S30.8,46.2,30.8,42.1z"/>
				<path class="st1" d="M32.3,37.1c0-0.8-1.1-1.5-2.3-1.5c-1.3,0-2.3,0.6-2.3,1.5c0,0.8,1,1.5,2.3,1.5
					C31.2,38.5,32.3,37.9,32.3,37.1z"/>
				<path class="st3" d="M23.8,48.7c0-0.6-0.7-1-1.5-1s-1.5,0.4-1.5,1s0.7,1,1.5,1S23.8,49.2,23.8,48.7z"/>
				<path class="st4" d="M26.9,50.4c0-0.6-0.7-1-1.5-1s-1.5,0.4-1.5,1s0.7,1,1.5,1C26.2,51.3,26.9,50.9,26.9,50.4z"/>
			</g>
			<path d="M21.9,15.3c1.9-3.3,5.6-5.5,9.9-5.5c4.3,0,8,2.2,10,5.5c-2.9-1.6-6.4-3-10-3C28.2,12.3,24.8,13.7,21.9,15.3z"/>
		</g>
	</g>
</g>
</svg>
