<?xml version="1.0" encoding="utf-8"?>
<!-- Generator: Adobe Illustrator 21.0.2, SVG Export Plug-In . SVG Version: 6.00 Build 0)  -->
<svg version="1.1" id="master-artboard" xmlns="http://www.w3.org/2000/svg" xmlns:xlink="http://www.w3.org/1999/xlink" x="0px"
	 y="0px" viewBox="0 0 100 95.9" style="enable-background:new 0 0 100 95.9;" xml:space="preserve">
<style type="text/css">
	.st0{fill:#26A9E0;}
	.st1{fill:url(#SVGID_1_);}
	.st2{fill:url(#SVGID_2_);}
	.st3{fill:#2B388F;}
	.st4{fill:#FFFFFF;}
	.st5{fill:#BBBDBF;}
</style>
<g>
	<g>
		<path class="st0" d="M27.6,61.8C27.3,61.8,27.9,61.8,27.6,61.8L27.6,61.8z"/>
		<path class="st0" d="M96.6,38.6h-1.4c-0.4,0-1-0.1-1.7,0c-0.2,0-0.4,0-0.5,0.1c-2.9,0.5-7.2,2.7-10,11.2c-2.8,8.3-5.5,8.2-9.8,8.1
			c-1.5-0.1-3.6-0.6-5.4-2c0.4,0.1,0.9,0.1,1.3,0.1c1.9,0,4.2-0.5,7-1.8c5.6-2.7,6.2-8.4,6.7-13.4C83.2,37,83.6,33,85.9,30
			c0.5-0.7,1.6-2,2.5-1.9c1.3,0.1,3,2.1,3.8,3.6c0.8,1.5,2.7,2.1,4.2,1.2c1.5-0.8,2.1-2.7,1.2-4.2c-0.4-0.6-3.7-6.4-8.9-6.7
			c-2-0.1-5.1,0.5-8,4.4c-3.3,4.4-3.8,9.4-4.3,13.8c-0.5,4.7-0.9,7.3-3.3,8.5c-1.8,0.9-4.4,1.7-6.2,0.7c-1.7-1-3-3.7-3.6-7.8
			c1.1-3.3,2.3-7.1,4.3-11.3C76.3,12.5,63.8,0,50.4,0C37.1,0,28.3,12.1,28.3,27.1c0,4.8,2.7,14.1,7.7,20.9c-1.6,4.2-4.1,8.5-7.8,8.7
			c-6.5,0.3-10.3-4.4-11.2-14c-0.9-9.4-9.6-11.4-14.1-11.1c-1.7,0.1-3,1.6-2.9,3.3c0.1,1.7,1.6,3,3.3,2.9c0,0,1.9-0.1,3.8,0.6
			c2.3,0.8,3.5,2.4,3.7,4.9c1.2,12.5,7.3,18.6,16.8,18.6c4.4-0.2,9-0.9,10.7-3.9C38,59.8,37.4,61,35.7,62c-3.5,1.8-8.9,1.8-13.8,1.7
			c-6.1-0.1-11.3-0.1-14.1,3.2c-4.2,4.9-2,10.9-0.2,13.4c0.6,0.8,1.6,1.3,2.5,1.3c0.6,0,1.3-0.2,1.8-0.6c1.4-1,1.7-3,0.7-4.3
			c-0.2-0.3-2.2-3.3-0.2-5.7c0.9-1.1,6-1,9.3-1c5.5,0.1,11.9,0.1,16.7-2.4c0.1,0,0.2-0.1,0.3-0.2c-3.5,2.8-6.7,4.8-9.7,6.6
			c-5.6,3.5-10.5,6.5-10.3,12.4c0.2,7.3,7.5,9.2,11.6,9.2c0.1,0,0.2,0,0.3,0c1.7,0,3.1-1.5,3-3.2c0-1.7-1.4-3-3.1-3c0,0-0.1,0-0.1,0
			c-0.1,0-5.4,0.1-5.5-3.2c-0.1-2.1,2-3.6,7.3-6.9c3-1.8,6.6-4.1,10.4-7.2c1.1-0.9,2.1-1.9,3-2.9c-0.5,2.1-0.9,4.1-1.2,6l-0.3,2
			c-0.8,5-1.3,8.2-1.1,10.9c0.3,3.4,1.9,5.8,4.8,7.2c0.8,0.4,1.6,0.6,2.5,0.6c0.8,0,1.7-0.2,2.4-0.6c3.8-2,5.3-8.4,5.6-10.3
			c0.3-1.7-0.8-3.3-2.5-3.6c-1.7-0.3-3.3,0.8-3.6,2.5c-0.4,2.3-1.4,4.8-2.1,5.7c-0.6-0.4-0.9-0.8-1-1.9c-0.2-1.9,0.4-5.1,1-9.5
			l0.3-2c0.5-3.5,1.6-7.6,2.7-11.7c0.1,0.6,0.2,1.3,0.3,1.9c1.2,6.5,5.7,8.1,9,9.4c1.6,0.6,3,1.1,3.7,2c1.2,1.4,1.7,2.7,1.6,3.8
			c-0.2,1.7-1.8,3.3-3.2,4.4c-1.3,1.1-1.6,3-0.5,4.4c0.6,0.8,1.5,1.2,2.5,1.2c0.7,0,1.3-0.2,1.9-0.6c3.4-2.6,5.2-5.5,5.6-8.6
			c0.3-2.9-0.7-5.7-3-8.5c-1.8-2.1-4.2-3-6.3-3.8c-3-1.2-4.6-1.8-5.1-4.7c-0.3-1.4-0.4-3-0.4-4.5c1.4,1.7,3.2,3.3,5.5,4.6
			c12.6,7.2,15.4,9.6,13.8,17.1c-0.4,1.7,0.7,3.3,2.4,3.7c0.2,0,0.4,0.1,0.6,0.1c1.4,0,2.8-1,3-2.5c2-9.8-2.4-14.8-9.7-19.5
			c5.2-0.2,10.1-2.1,13.5-12.3c1.5-4.6,3.4-6.4,4.7-6.9c0.1,0,0.1,0,0.2,0h2.9c1.8,0,3.3-1.4,3.3-3.2C99.9,40,98.4,38.6,96.6,38.6z
			 M38.7,53.7C38.7,53.7,38.7,53.7,38.7,53.7C38.7,53.7,38.7,53.7,38.7,53.7z"/>
	</g>
	<g>
		
			<linearGradient id="SVGID_1_" gradientUnits="userSpaceOnUse" x1="36.1127" y1="728.0327" x2="26.4512" y2="643.2892" gradientTransform="matrix(1 0 0 -1 0 715.3207)">
			<stop  offset="5.434780e-03" style="stop-color:#EC297B"/>
			<stop  offset="1" style="stop-color:#37B34A"/>
		</linearGradient>
		<path class="st1" d="M27.6,61.8C27.3,61.8,27.9,61.8,27.6,61.8L27.6,61.8z"/>
		
			<linearGradient id="SVGID_2_" gradientUnits="userSpaceOnUse" x1="55.5677" y1="725.9447" x2="45.8896" y2="641.055" gradientTransform="matrix(1 0 0 -1 0 715.3207)">
			<stop  offset="5.434780e-03" style="stop-color:#EC297B"/>
			<stop  offset="1" style="stop-color:#37B34A"/>
		</linearGradient>
		<path class="st2" d="M96.6,38.6h-1.4c-0.4,0-1-0.1-1.7,0c-0.2,0-0.4,0-0.5,0.1c-2.9,0.5-7.2,2.7-10,11.2c-2.8,8.3-5.5,8.2-9.8,8.1
			c-1.5-0.1-3.6-0.6-5.4-2c0.4,0.1,0.9,0.1,1.3,0.1c1.9,0,4.2-0.5,7-1.8c5.6-2.7,6.2-8.4,6.7-13.4C83.2,37,83.6,33,85.9,30
			c0.5-0.7,1.6-2,2.5-1.9c1.3,0.1,3,2.1,3.8,3.6c0.8,1.5,2.7,2.1,4.2,1.2c1.5-0.8,2.1-2.7,1.2-4.2c-0.4-0.6-3.7-6.4-8.9-6.7
			c-2-0.1-5.1,0.5-8,4.4c-3.3,4.4-3.8,9.4-4.3,13.8c-0.5,4.7-0.9,7.3-3.3,8.5c-1.8,0.9-4.4,1.7-6.2,0.7c-1.7-1-3-3.7-3.6-7.8
			c1.1-3.3,2.3-7.1,4.3-11.3C76.3,12.5,63.8,0,50.4,0C37.1,0,28.3,12.1,28.3,27.1c0,4.8,2.7,14.1,7.7,20.9c-1.6,4.2-4.1,8.5-7.8,8.7
			c-6.5,0.3-10.3-4.4-11.2-14c-0.9-9.4-9.6-11.4-14.1-11.1c-1.7,0.1-3,1.6-2.9,3.3c0.1,1.7,1.6,3,3.3,2.9c0,0,1.9-0.1,3.8,0.6
			c2.3,0.8,3.5,2.4,3.7,4.9c1.2,12.5,7.3,18.6,16.8,18.6c4.4-0.2,9-0.9,10.7-3.9C38,59.8,37.4,61,35.7,62c-3.5,1.8-8.9,1.8-13.8,1.7
			c-6.1-0.1-11.3-0.1-14.1,3.2c-4.2,4.9-2,10.9-0.2,13.4c0.6,0.8,1.6,1.3,2.5,1.3c0.6,0,1.3-0.2,1.8-0.6c1.4-1,1.7-3,0.7-4.3
			c-0.2-0.3-2.2-3.3-0.2-5.7c0.9-1.1,6-1,9.3-1c5.5,0.1,11.9,0.1,16.7-2.4c0.1,0,0.2-0.1,0.3-0.2c-3.5,2.8-6.7,4.8-9.7,6.6
			c-5.6,3.5-10.5,6.5-10.3,12.4c0.2,7.3,7.5,9.2,11.6,9.2c0.1,0,0.2,0,0.3,0c1.7,0,3.1-1.5,3-3.2c0-1.7-1.4-3-3.1-3c0,0-0.1,0-0.1,0
			c-0.1,0-5.4,0.1-5.5-3.2c-0.1-2.1,2-3.6,7.3-6.9c3-1.8,6.6-4.1,10.4-7.2c1.1-0.9,2.1-1.9,3-2.9c-0.5,2.1-0.9,4.1-1.2,6l-0.3,2
			c-0.8,5-1.3,8.2-1.1,10.9c0.3,3.4,1.9,5.8,4.8,7.2c0.8,0.4,1.6,0.6,2.5,0.6c0.8,0,1.7-0.2,2.4-0.6c3.8-2,5.3-8.4,5.6-10.3
			c0.3-1.7-0.8-3.3-2.5-3.6c-1.7-0.3-3.3,0.8-3.6,2.5c-0.4,2.3-1.4,4.8-2.1,5.7c-0.6-0.4-0.9-0.8-1-1.9c-0.2-1.9,0.4-5.1,1-9.5
			l0.3-2c0.5-3.5,1.6-7.6,2.7-11.7c0.1,0.6,0.2,1.3,0.3,1.9c1.2,6.5,5.7,8.1,9,9.4c1.6,0.6,3,1.1,3.7,2c1.2,1.4,1.7,2.7,1.6,3.8
			c-0.2,1.7-1.8,3.3-3.2,4.4c-1.3,1.1-1.6,3-0.5,4.4c0.6,0.8,1.5,1.2,2.5,1.2c0.7,0,1.3-0.2,1.9-0.6c3.4-2.6,5.2-5.5,5.6-8.6
			c0.3-2.9-0.7-5.7-3-8.5c-1.8-2.1-4.2-3-6.3-3.8c-3-1.2-4.6-1.8-5.1-4.7c-0.3-1.4-0.4-3-0.4-4.5c1.4,1.7,3.2,3.3,5.5,4.6
			c12.6,7.2,15.4,9.6,13.8,17.1c-0.4,1.7,0.7,3.3,2.4,3.7c0.2,0,0.4,0.1,0.6,0.1c1.4,0,2.8-1,3-2.5c2-9.8-2.4-14.8-9.7-19.5
			c5.2-0.2,10.1-2.1,13.5-12.3c1.5-4.6,3.4-6.4,4.7-6.9c0.1,0,0.1,0,0.2,0h2.9c1.8,0,3.3-1.4,3.3-3.2C99.9,40,98.4,38.6,96.6,38.6z
			 M38.7,53.7C38.7,53.7,38.7,53.7,38.7,53.7C38.7,53.7,38.7,53.7,38.7,53.7z"/>
	</g>
	<path class="st3" d="M58.5,35.3c-4.7,0-8.6,3.8-8.6,8.6s3.8,8.6,8.6,8.6s8.6-3.8,8.6-8.6C67.1,39.2,63.3,35.3,58.5,35.3z
		 M58.5,51.3c-4.1,0-7.4-3.3-7.4-7.4s3.3-7.4,7.4-7.4s7.4,3.3,7.4,7.4C65.9,48,62.6,51.3,58.5,51.3z"/>
	<g>
		<path class="st4" d="M40.9,37.7c-4.3,0-7.8,3.5-7.8,7.8c0,4.3,3.5,7.8,7.8,7.8s7.8-3.5,7.8-7.8C48.7,41.2,45.2,37.7,40.9,37.7z"/>
		<path class="st5" d="M46,39.6c0.6,1.1,0.9,2.4,0.9,3.7c0,4.3-3.5,7.8-7.8,7.8c-1.9,0-3.7-0.7-5.1-1.9c1.3,2.4,3.9,4.1,6.9,4.1
			c4.3,0,7.8-3.5,7.8-7.8C48.7,43.1,47.6,41,46,39.6z"/>
		<path class="st3" d="M40.9,36.4c-5,0-9,4.1-9,9c0,5,4.1,9,9,9c5,0,9-4.1,9-9S45.9,36.4,40.9,36.4z M40.9,53.3
			c-4.3,0-7.8-3.5-7.8-7.8c0-4.3,3.5-7.8,7.8-7.8s7.8,3.5,7.8,7.8C48.7,49.8,45.2,53.3,40.9,53.3z"/>
		<path class="st3" d="M43.3,45.1c-0.9,0-1.7-0.8-1.7-1.7c0-0.4,0.2-0.9,0.5-1.2c-0.4-0.1-0.7-0.2-1.1-0.2c-1.9,0-3.5,1.5-3.5,3.5
			S39,49,40.9,49s3.5-1.5,3.5-3.5c0-0.3,0-0.5-0.1-0.7C44,45,43.7,45.1,43.3,45.1z"/>
		<path class="st4" d="M58.5,36.5c-4.1,0-7.4,3.3-7.4,7.4s3.3,7.4,7.4,7.4s7.4-3.3,7.4-7.4C65.9,39.8,62.6,36.5,58.5,36.5z"/>
		<path class="st5" d="M63.3,38.3c0.6,1.1,0.9,2.2,0.9,3.5c0,4.1-3.3,7.4-7.4,7.4c-1.8,0-3.5-0.7-4.8-1.8c1.3,2.3,3.7,3.9,6.5,3.9
			c4.1,0,7.4-3.3,7.4-7.4C65.9,41.6,64.9,39.7,63.3,38.3z"/>
		<path class="st3" d="M60.8,43.5c-0.9,0-1.6-0.7-1.6-1.6c0-0.4,0.2-0.8,0.4-1.1c-0.4-0.1-0.7-0.2-1.1-0.2c-1.8,0-3.3,1.5-3.3,3.3
			c0,1.8,1.5,3.3,3.3,3.3c1.8,0,3.3-1.5,3.3-3.3c0-0.2,0-0.4-0.1-0.7C61.5,43.4,61.2,43.5,60.8,43.5z"/>
	</g>
	<path class="st3" d="M52,17.2c0,1.6-1.3,2.8-2.8,2.8H49c-1.6,0-2.8-1.3-2.8-2.8l0,0c0-1.6,1.3-2.8,2.8-2.8h0.2
		C50.8,14.4,52,15.7,52,17.2L52,17.2z"/>
	<path class="st3" d="M58.5,21.9c0,1.3-1.1,2.4-2.4,2.4l0,0c-1.3,0-2.4-1.1-2.4-2.4l0,0c0-1.3,1.1-2.4,2.4-2.4l0,0
		C57.5,19.5,58.5,20.6,58.5,21.9L58.5,21.9z"/>
	<path class="st3" d="M47.9,24.7c0,1-0.8,1.8-1.8,1.8l0,0c-1,0-1.8-0.8-1.8-1.8l0,0c0-1,0.8-1.8,1.8-1.8l0,0
		C47.1,22.9,47.9,23.7,47.9,24.7L47.9,24.7z"/>
	<path class="st3" d="M57.3,9.1c0,1.5-1.2,2.7-2.7,2.7l0,0c-1.5,0-2.7-1.2-2.7-2.7l0,0c0-1.5,1.2-2.7,2.7-2.7l0,0
		C56.1,6.5,57.3,7.7,57.3,9.1L57.3,9.1z"/>
	<path class="st3" d="M68.9,18.1c0,2.1-1.3,3.8-2.8,3.8l0,0c-1.6,0-2.8-1.7-2.8-3.8c0,0,0,0,0,0c0-2.1,1.3-3.8,2.8-3.8l0,0
		C67.7,14.4,68.9,16.1,68.9,18.1C68.9,18.1,68.9,18.1,68.9,18.1z"/>
	<path class="st3" d="M65.3,27.8c-1.6,0-2.8,1.5-2.8,3.5s1.3,3.5,2.8,3.5c0.2,0,0.4,0,0.7-0.1c0.5-1.4,1.2-2.9,1.9-4.5
		c0,0,0-0.1,0.1-0.1C67.5,28.7,66.5,27.8,65.3,27.8z"/>
	<path class="st3" d="M43.5,33c0,1-0.9,1.7-2.1,1.7c-1.2,0-2.1-0.8-2.1-1.7c0-1,0.9-1.7,2.1-1.7C42.6,31.2,43.5,32,43.5,33z"/>
	<g>
		<path class="st3" d="M38.7,53.7C38.7,53.7,38.7,53.7,38.7,53.7C38.7,53.7,38.7,53.7,38.7,53.7z"/>
		<path class="st3" d="M27.6,61.8C27.3,61.8,27.9,61.8,27.6,61.8L27.6,61.8z"/>
		<path class="st3" d="M38.8,11.8c2.6,0,4.7-2.1,4.7-4.7V6.9c0-2-1.2-3.7-3-4.4c-2.5,1.4-4.6,3.3-6.4,5.6
			C34.7,10.3,36.5,11.8,38.8,11.8z"/>
		<path class="st3" d="M31.7,28.7c2.3,0,4.2-2.4,4.2-5.5s-1.9-5.5-4.2-5.5c-0.9,0-1.8,0.4-2.5,1.1c-0.6,2.4-0.9,4.9-0.9,7.6
			C29.1,27.8,30.3,28.7,31.7,28.7z"/>
		<path class="st3" d="M14.2,45c0,1.6,1.3,3,3,3c0.2,0,0.4,0,0.7-0.1c-0.4-1.5-0.7-3.3-0.9-5.2c0-0.2,0-0.4-0.1-0.6
			C15.4,42.2,14.2,43.4,14.2,45z"/>
		<path class="st3" d="M31.1,57.4c1.1,0,2-1.1,2-2.4c0-0.4-0.1-0.8-0.2-1.1c-1,1.2-2.1,2.1-3.4,2.6C29.9,57,30.4,57.4,31.1,57.4z"/>
		<path class="st3" d="M13.8,67.8c1.9,0,3.5-1.3,3.5-3c0-0.4-0.1-0.7-0.2-1.1c-2.6,0.1-4.8,0.4-6.7,1.3
			C10.5,66.5,11.9,67.8,13.8,67.8z"/>
		<path class="st3" d="M22.1,87.6c0-1.6-1.2-2.9-2.7-2.9c-0.1,0-0.3,0-0.4,0c-0.1,0.5-0.1,1-0.1,1.6c0.1,1.6,0.4,3,1.1,4.1
			C21.2,90.2,22.1,89,22.1,87.6z"/>
		<path class="st3" d="M26.9,67c-1.3,0-2.3,1-2.3,2.1c0,0.3,0,0.5,0.1,0.7c1.4,0,2.9,0,4.4-0.1c0.1-0.2,0.1-0.4,0.1-0.6
			C29.1,68,28.1,67,26.9,67z"/>
		<path class="st3" d="M46.1,83.2c0-1.5-1-2.8-2.2-3.1c-0.4,2.6-0.6,4.6-0.7,6.4C44.9,86.4,46.1,84.9,46.1,83.2z"/>
		<path class="st3" d="M51.1,95.1c0,0.3,0.1,0.5,0.1,0.8c0.6-0.1,1.2-0.3,1.7-0.5c0.9-0.4,1.7-1.2,2.3-2c-0.4-0.4-1.1-0.6-1.7-0.6
			C52.3,92.6,51.1,93.7,51.1,95.1z"/>
		<path class="st3" d="M68.8,76.8c0-1.9-1.6-3.5-3.5-3.5c-1.4,0-2.7,0.9-3.2,2.1c0.3,0.1,0.5,0.2,0.8,0.3c1.6,0.6,3,1.1,3.7,2
			c0.5,0.6,0.8,1.1,1.1,1.7C68.3,78.7,68.8,77.8,68.8,76.8z"/>
		<path class="st3" d="M81.6,73.2c0.9,0,1.7-0.3,2.3-0.7c-1.2-2.3-3-4.3-5.3-6.1c-0.7,0.7-1.1,1.7-1.1,2.8
			C77.6,71.4,79.4,73.2,81.6,73.2z"/>
		<path class="st3" d="M83.4,78.1c0,1.1,0.9,2.1,2.1,2.1l0,0c0.1-1.5,0-2.8-0.3-4C84.2,76.2,83.4,77.1,83.4,78.1z"/>
		<path class="st3" d="M68.9,51.9c1.2,0,2.2-1,2.2-2.2c0-0.1,0-0.2,0-0.3c-1.4,0.4-2.8,0.5-4-0.1c-0.1-0.1-0.2-0.1-0.3-0.2
			c-0.1,0.2-0.1,0.4-0.1,0.7C66.7,50.9,67.7,51.9,68.9,51.9z"/>
		<path class="st3" d="M80.5,34.7c0-1.4-1-2.7-2.4-2.9c-0.6,2-1,3.9-1.2,5.8c0.2,0.1,0.4,0.1,0.7,0.1C79.2,37.7,80.5,36.3,80.5,34.7
			z"/>
	</g>
</g>
</svg>
